  0
SECTION
  2
HEADER
  9
$ACADVER
  1
AC1024
  9
$ACADMAINTVER
 70
     6
  9
$DWGCODEPAGE
  3
ANSI_1252
  9
$INSBASE
 10
0.0
 20
0.0
 30
0.0
  9
$EXTMIN
 10
1.000000000000000E+20
 20
1.000000000000000E+20
 30
1.000000000000000E+20
  9
$EXTMAX
 10
-1.000000000000000E+20
 20
-1.000000000000000E+20
 30
-1.000000000000000E+20
  9
$LIMMIN
 10
0.0
 20
0.0
  9
$LIMMAX
 10
12.0
 20
9.0
  9
$ORTHOMODE
 70
     0
  9
$REGENMODE
 70
     1
  9
$FILLMODE
 70
     1
  9
$QTEXTMODE
 70
     0
  9
$MIRRTEXT
 70
     1
  9
$LTSCALE
 40
1.0
  9
$ATTMODE
 70
     1
  9
$TEXTSIZE
 40
0.2
  9
$TRACEWID
 40
0.05
  9
$TEXTSTYLE
  7
Standard
  9
$CLAYER
  8
0
  9
$CELTYPE
  6
ByLayer
  9
$CECOLOR
 62
   256
  9
$CELTSCALE
 40
1.0
  9
$DISPSILH
 70
     0
  9
$DIMSCALE
 40
1.0
  9
$DIMASZ
 40
0.18
  9
$DIMEXO
 40
0.0625
  9
$DIMDLI
 40
0.38
  9
$DIMRND
 40
0.0
  9
$DIMDLE
 40
0.0
  9
$DIMEXE
 40
0.18
  9
$DIMTP
 40
0.0
  9
$DIMTM
 40
0.0
  9
$DIMTXT
 40
0.18
  9
$DIMCEN
 40
0.09
  9
$DIMTSZ
 40
0.0
  9
$DIMTOL
 70
     0
  9
$DIMLIM
 70
     0
  9
$DIMTIH
 70
     1
  9
$DIMTOH
 70
     1
  9
$DIMSE1
 70
     0
  9
$DIMSE2
 70
     0
  9
$DIMTAD
 70
     0
  9
$DIMZIN
 70
     0
  9
$DIMBLK
  1

  9
$DIMASO
 70
     1
  9
$DIMSHO
 70
     1
  9
$DIMPOST
  1

  9
$DIMAPOST
  1

  9
$DIMALT
 70
     0
  9
$DIMALTD
 70
     2
  9
$DIMALTF
 40
25.4
  9
$DIMLFAC
 40
1.0
  9
$DIMTOFL
 70
     0
  9
$DIMTVP
 40
0.0
  9
$DIMTIX
 70
     0
  9
$DIMSOXD
 70
     0
  9
$DIMSAH
 70
     0
  9
$DIMBLK1
  1

  9
$DIMBLK2
  1

  9
$DIMSTYLE
  2
Standard
  9
$DIMCLRD
 70
     0
  9
$DIMCLRE
 70
     0
  9
$DIMCLRT
 70
     0
  9
$DIMTFAC
 40
1.0
  9
$DIMGAP
 40
0.09
  9
$DIMJUST
 70
     0
  9
$DIMSD1
 70
     0
  9
$DIMSD2
 70
     0
  9
$DIMTOLJ
 70
     1
  9
$DIMTZIN
 70
     0
  9
$DIMALTZ
 70
     0
  9
$DIMALTTZ
 70
     0
  9
$DIMUPT
 70
     0
  9
$DIMDEC
 70
     4
  9
$DIMTDEC
 70
     4
  9
$DIMALTU
 70
     2
  9
$DIMALTTD
 70
     2
  9
$DIMTXSTY
  7
Standard
  9
$DIMAUNIT
 70
     0
  9
$DIMADEC
 70
     0
  9
$DIMALTRND
 40
0.0
  9
$DIMAZIN
 70
     0
  9
$DIMDSEP
 70
    46
  9
$DIMATFIT
 70
     3
  9
$DIMFRAC
 70
     0
  9
$DIMLDRBLK
  1

  9
$DIMLUNIT
 70
     2
  9
$DIMLWD
 70
    -2
  9
$DIMLWE
 70
    -2
  9
$DIMTMOVE
 70
     0
  9
$DIMFXL
 40
1.0
  9
$DIMFXLON
 70
     0
  9
$DIMJOGANG
 40
0.7853981633974483
  9
$DIMTFILL
 70
     0
  9
$DIMTFILLCLR
 70
     0
  9
$DIMARCSYM
 70
     0
  9
$DIMLTYPE
  6

  9
$DIMLTEX1
  6

  9
$DIMLTEX2
  6

  9
$DIMTXTDIRECTION
 70
     0
  9
$LUNITS
 70
     2
  9
$LUPREC
 70
     4
  9
$SKETCHINC
 40
0.1
  9
$FILLETRAD
 40
0.5
  9
$AUNITS
 70
     0
  9
$AUPREC
 70
     0
  9
$MENU
  1
.
  9
$ELEVATION
 40
0.0
  9
$PELEVATION
 40
0.0
  9
$THICKNESS
 40
0.0
  9
$LIMCHECK
 70
     0
  9
$CHAMFERA
 40
0.5
  9
$CHAMFERB
 40
0.5
  9
$CHAMFERC
 40
1.0
  9
$CHAMFERD
 40
0.0
  9
$SKPOLY
 70
     0
  9
$TDCREATE
 40
2456398.725773044
  9
$TDUCREATE
 40
2456398.89243971
  9
$TDUPDATE
 40
2456398.725773056
  9
$TDUUPDATE
 40
2456398.892439722
  9
$TDINDWG
 40
0.0000000116
  9
$TDUSRTIMER
 40
0.0000000116
  9
$USRTIMER
 70
     1
  9
$ANGBASE
 50
0.0
  9
$ANGDIR
 70
     0
  9
$PDMODE
 70
     0
  9
$PDSIZE
 40
0.0
  9
$PLINEWID
 40
0.0
  9
$SPLFRAME
 70
     0
  9
$SPLINETYPE
 70
     6
  9
$SPLINESEGS
 70
     8
  9
$HANDSEED
  5
1E9
  9
$SURFTAB1
 70
     6
  9
$SURFTAB2
 70
     6
  9
$SURFTYPE
 70
     6
  9
$SURFU
 70
     6
  9
$SURFV
 70
     6
  9
$UCSBASE
  2

  9
$UCSNAME
  2

  9
$UCSORG
 10
0.0
 20
0.0
 30
0.0
  9
$UCSXDIR
 10
1.0
 20
0.0
 30
0.0
  9
$UCSYDIR
 10
0.0
 20
1.0
 30
0.0
  9
$UCSORTHOREF
  2

  9
$UCSORTHOVIEW
 70
     0
  9
$UCSORGTOP
 10
0.0
 20
0.0
 30
0.0
  9
$UCSORGBOTTOM
 10
0.0
 20
0.0
 30
0.0
  9
$UCSORGLEFT
 10
0.0
 20
0.0
 30
0.0
  9
$UCSORGRIGHT
 10
0.0
 20
0.0
 30
0.0
  9
$UCSORGFRONT
 10
0.0
 20
0.0
 30
0.0
  9
$UCSORGBACK
 10
0.0
 20
0.0
 30
0.0
  9
$PUCSBASE
  2

  9
$PUCSNAME
  2

  9
$PUCSORG
 10
0.0
 20
0.0
 30
0.0
  9
$PUCSXDIR
 10
1.0
 20
0.0
 30
0.0
  9
$PUCSYDIR
 10
0.0
 20
1.0
 30
0.0
  9
$PUCSORTHOREF
  2

  9
$PUCSORTHOVIEW
 70
     0
  9
$PUCSORGTOP
 10
0.0
 20
0.0
 30
0.0
  9
$PUCSORGBOTTOM
 10
0.0
 20
0.0
 30
0.0
  9
$PUCSORGLEFT
 10
0.0
 20
0.0
 30
0.0
  9
$PUCSORGRIGHT
 10
0.0
 20
0.0
 30
0.0
  9
$PUCSORGFRONT
 10
0.0
 20
0.0
 30
0.0
  9
$PUCSORGBACK
 10
0.0
 20
0.0
 30
0.0
  9
$USERI1
 70
     0
  9
$USERI2
 70
     0
  9
$USERI3
 70
     0
  9
$USERI4
 70
     0
  9
$USERI5
 70
     0
  9
$USERR1
 40
0.0
  9
$USERR2
 40
0.0
  9
$USERR3
 40
0.0
  9
$USERR4
 40
0.0
  9
$USERR5
 40
0.0
  9
$WORLDVIEW
 70
     1
  9
$SHADEDGE
 70
     3
  9
$SHADEDIF
 70
    70
  9
$TILEMODE
 70
     1
  9
$MAXACTVP
 70
    64
  9
$PINSBASE
 10
0.0
 20
0.0
 30
0.0
  9
$PLIMCHECK
 70
     0
  9
$PEXTMIN
 10
1.000000000000000E+20
 20
1.000000000000000E+20
 30
1.000000000000000E+20
  9
$PEXTMAX
 10
-1.000000000000000E+20
 20
-1.000000000000000E+20
 30
-1.000000000000000E+20
  9
$PLIMMIN
 10
0.0
 20
0.0
  9
$PLIMMAX
 10
12.0
 20
9.0
  9
$UNITMODE
 70
     0
  9
$VISRETAIN
 70
     1
  9
$PLINEGEN
 70
     0
  9
$PSLTSCALE
 70
     1
  9
$TREEDEPTH
 70
  3020
  9
$CMLSTYLE
  2
Standard
  9
$CMLJUST
 70
     0
  9
$CMLSCALE
 40
1.0
  9
$PROXYGRAPHICS
 70
     1
  9
$MEASUREMENT
 70
     0
  9
$CELWEIGHT
370
    -1
  9
$ENDCAPS
280
     0
  9
$JOINSTYLE
280
     0
  9
$LWDISPLAY
290
     0
  9
$INSUNITS
 70
     1
  9
$HYPERLINKBASE
  1

  9
$STYLESHEET
  1

  9
$XEDIT
290
     1
  9
$CEPSNTYPE
380
     0
  9
$PSTYLEMODE
290
     1
  9
$FINGERPRINTGUID
  2
{96D651FA-E5C1-434E-8E58-C514C84F0997}
  9
$VERSIONGUID
  2
{FAEB1C32-E019-11D5-929B-00C0DF256EC4}
  9
$EXTNAMES
290
     1
  9
$PSVPSCALE
 40
0.0
  9
$OLESTARTUP
290
     0
  9
$SORTENTS
280
   127
  9
$INDEXCTL
280
     0
  9
$HIDETEXT
280
     1
  9
$XCLIPFRAME
280
     2
  9
$HALOGAP
280
     0
  9
$OBSCOLOR
 70
   257
  9
$OBSLTYPE
280
     0
  9
$INTERSECTIONDISPLAY
280
     0
  9
$INTERSECTIONCOLOR
 70
   257
  9
$DIMASSOC
280
     2
  9
$PROJECTNAME
  1

  9
$CAMERADISPLAY
290
     0
  9
$LENSLENGTH
 40
50.0
  9
$CAMERAHEIGHT
 40
0.0
  9
$STEPSPERSEC
 40
2.0
  9
$STEPSIZE
 40
6.0
  9
$3DDWFPREC
 40
2.0
  9
$PSOLWIDTH
 40
0.25
  9
$PSOLHEIGHT
 40
4.0
  9
$LOFTANG1
 40
1.570796326794897
  9
$LOFTANG2
 40
1.570796326794897
  9
$LOFTMAG1
 40
0.0
  9
$LOFTMAG2
 40
0.0
  9
$LOFTPARAM
 70
     7
  9
$LOFTNORMALS
280
     1
  9
$LATITUDE
 40
37.795
  9
$LONGITUDE
 40
-122.394
  9
$NORTHDIRECTION
 40
0.0
  9
$TIMEZONE
 70
 -8000
  9
$LIGHTGLYPHDISPLAY
280
     1
  9
$TILEMODELIGHTSYNCH
280
     1
  9
$SOLIDHIST
280
     1
  9
$SHOWHIST
280
     1
  9
$DWFFRAME
280
     2
  9
$DGNFRAME
280
     2
  9
$REALWORLDSCALE
290
     1
  9
$INTERFERECOLOR
 62
   256
  9
$CSHADOW
280
     0
  9
$SHADOWPLANELOCATION
 40
0.0
  0
ENDSEC
  0
SECTION
  2
CLASSES
  0
CLASS
  1
ACDBDICTIONARYWDFLT
  2
AcDbDictionaryWithDefault
  3
ObjectDBX Classes
 90
        0
 91
        4
280
     0
281
     0
  0
CLASS
  1
VISUALSTYLE
  2
AcDbVisualStyle
  3
ObjectDBX Classes
 90
     4095
 91
        4
280
     0
281
     0
  0
CLASS
  1
MATERIAL
  2
AcDbMaterial
  3
ObjectDBX Classes
 90
     1153
 91
        4
280
     0
281
     0
  0
ENDSEC
  0
SECTION
  2
TABLES
  0
TABLE
  2
VPORT
  5
8
330
0
100
AcDbSymbolTable
 70
     1
  0
VPORT
  5
29
330
8
100
AcDbSymbolTableRecord
100
AcDbViewportTableRecord
  2
*Active
 70
     0
 10
0.0
 20
0.0
 11
1.0
 21
1.0
 12
0.0
 22
0.0
 13
0.0
 23
0.0
 14
0.5
 24
0.5
 15
0.5
 25
0.5
 16
0.0
 26
0.0
 36
1.0
 17
0.0
 27
0.0
 37
-1000.0
 40
223.1615129459404
 41
1.822857142857143
 42
50.0
 43
718.6490630000334
 44
906.2888525426193
 50
0.0
 51
0.0
 71
     0
 72
   100
 73
     1
 74
     3
 75
     0
 76
     0
 77
     0
 78
     0
281
     0
 65
     1
110
0.0
120
0.0
130
0.0
111
1.0
121
0.0
131
0.0
112
0.0
122
1.0
132
0.0
 79
     0
146
0.0
 60
     3
 61
     5
292
     1
282
     1
141
0.0
142
0.0
 63
   250
  0
ENDTAB
  0
TABLE
  2
LTYPE
  5
5
330
0
100
AcDbSymbolTable
 70
     1
  0
LTYPE
  5
14
330
5
100
AcDbSymbolTableRecord
100
AcDbLinetypeTableRecord
  2
ByBlock
 70
     0
  3

 72
    65
 73
     0
 40
0.0
  0
LTYPE
  5
15
330
5
100
AcDbSymbolTableRecord
100
AcDbLinetypeTableRecord
  2
ByLayer
 70
     0
  3

 72
    65
 73
     0
 40
0.0
  0
LTYPE
  5
16
330
5
100
AcDbSymbolTableRecord
100
AcDbLinetypeTableRecord
  2
Continuous
 70
     0
  3
Solid line
 72
    65
 73
     0
 40
0.0
  0
ENDTAB
  0
TABLE
  2
LAYER
  5
2
330
0
100
AcDbSymbolTable
 70
     3
  0
LAYER
  5
10
330
2
100
AcDbSymbolTableRecord
100
AcDbLayerTableRecord
  2
0
 70
     0
 62
     7
  6
Continuous
370
    -3
390
F
347
3E
  0
LAYER
  5
3F
330
2
100
AcDbSymbolTableRecord
100
AcDbLayerTableRecord
  2
ProfileEdges
 70
     0
 62
     7
  6
Continuous
370
    -3
390
F
347
3E
  0
LAYER
  5
40
330
2
100
AcDbSymbolTableRecord
100
AcDbLayerTableRecord
  2
SectionCutEdges
 70
     0
 62
     7
  6
Continuous
370
    -3
390
F
347
3E
  0
ENDTAB
  0
TABLE
  2
STYLE
  5
3
330
0
100
AcDbSymbolTable
 70
     1
  0
STYLE
  5
11
330
3
100
AcDbSymbolTableRecord
100
AcDbTextStyleTableRecord
  2
Standard
 70
     0
 40
0.0
 41
1.0
 50
0.0
 71
     0
 42
0.2
  3
txt
  4

  0
ENDTAB
  0
TABLE
  2
VIEW
  5
6
330
0
100
AcDbSymbolTable
 70
     0
  0
ENDTAB
  0
TABLE
  2
UCS
  5
7
330
0
100
AcDbSymbolTable
 70
     0
  0
ENDTAB
  0
TABLE
  2
APPID
  5
9
330
0
100
AcDbSymbolTable
 70
     1
  0
APPID
  5
12
330
9
100
AcDbSymbolTableRecord
100
AcDbRegAppTableRecord
  2
ACAD
 70
     0
  0
ENDTAB
  0
TABLE
  2
DIMSTYLE
  5
A
330
0
100
AcDbSymbolTable
 70
     1
100
AcDbDimStyleTable
  0
DIMSTYLE
105
27
330
A
100
AcDbSymbolTableRecord
100
AcDbDimStyleTableRecord
  2
Standard
 70
     0
340
11
  0
ENDTAB
  0
TABLE
  2
BLOCK_RECORD
  5
1
330
0
100
AcDbSymbolTable
 70
     1
  0
BLOCK_RECORD
  5
1F
330
1
100
AcDbSymbolTableRecord
100
AcDbBlockTableRecord
  2
*Model_Space
340
22
 70
     0
280
     1
281
     0
  0
BLOCK_RECORD
  5
1B
330
1
100
AcDbSymbolTableRecord
100
AcDbBlockTableRecord
  2
*Paper_Space
340
1E
 70
     0
280
     1
281
     0
  0
BLOCK_RECORD
  5
23
330
1
100
AcDbSymbolTableRecord
100
AcDbBlockTableRecord
  2
*Paper_Space0
340
26
 70
     0
280
     1
281
     0
  0
ENDTAB
  0
ENDSEC
  0
SECTION
  2
BLOCKS
  0
BLOCK
  5
20
330
1F
100
AcDbEntity
  8
0
100
AcDbBlockBegin
  2
*Model_Space
 70
     0
 10
0.0
 20
0.0
 30
0.0
  3
*Model_Space
  1

  0
ENDBLK
  5
21
330
1F
100
AcDbEntity
  8
0
100
AcDbBlockEnd
  0
BLOCK
  5
1C
330
1B
100
AcDbEntity
 67
     1
  8
0
100
AcDbBlockBegin
  2
*Paper_Space
 70
     0
 10
0.0
 20
0.0
 30
0.0
  3
*Paper_Space
  1

  0
ENDBLK
  5
1D
330
1B
100
AcDbEntity
 67
     1
  8
0
100
AcDbBlockEnd
  0
BLOCK
  5
24
330
23
100
AcDbEntity
  8
0
100
AcDbBlockBegin
  2
*Paper_Space0
 70
     0
 10
0.0
 20
0.0
 30
0.0
  3
*Paper_Space0
  1

  0
ENDBLK
  5
25
330
23
100
AcDbEntity
  8
0
100
AcDbBlockEnd
  0
ENDSEC
  0
SECTION
  2
ENTITIES
  0
LINE
  5
41
330
1F
100
AcDbEntity
  8
0
100
AcDbLine
 10
-85.67304549107996
 20
6.092781310449381
 30
0.0
 11
-85.52319486931071
 21
5.731009907044885
 31
0.0
  0
LINE
  5
42
330
1F
100
AcDbEntity
  8
0
100
AcDbLine
 10
-20.46402711981782
 20
54.72014096978286
 30
0.0
 11
-21.73681797389524
 21
55.99293182386028
 31
0.0
  0
LINE
  5
43
330
1F
100
AcDbEntity
  8
0
100
AcDbLine
 10
25.77583433244345
 20
-44.81898604895559
 30
0.0
 11
25.77583433244345
 21
-3.818989328955222
 31
0.0
  0
LINE
  5
44
330
1F
100
AcDbEntity
  8
0
100
AcDbLine
 10
54.63953532850326
 20
-38.55426273054358
 30
0.0
 11
54.77583201244354
 21
-37.51898663295553
 31
0.0
  0
LINE
  5
45
330
1F
100
AcDbEntity
  8
0
100
AcDbLine
 10
47.31173099443389
 20
-22.51898783295541
 30
0.0
 11
47.94740543397148
 21
-23.34741489142745
 31
0.0
  0
LINE
  5
46
330
1F
100
AcDbEntity
  8
0
100
AcDbLine
 10
48.77583249244342
 20
-23.98308933096503
 30
0.0
 11
49.74055623485529
 21
-24.3826909890155
 31
0.0
  0
LINE
  5
47
330
1F
100
AcDbEntity
  8
0
100
AcDbLine
 10
-13.76844099936602
 20
29.16124014790154
 30
0.0
 11
-13.76253410375657
 21
29.28227021691495
 31
0.0
  0
LINE
  5
48
330
1F
100
AcDbEntity
  8
0
100
AcDbLine
 10
60.02583159244347
 20
5.181971845291221
 30
0.0
 11
60.38760299584806
 21
5.032121223522341
 31
0.0
  0
LINE
  5
49
330
1F
100
AcDbEntity
  8
0
100
AcDbLine
 10
59.32694290892105
 20
-43.13075761635999
 30
0.0
 11
59.27583165244364
 21
-43.51898615295551
 31
0.0
  0
LINE
  5
4A
330
1F
100
AcDbEntity
  8
0
100
AcDbLine
 10
60.02583159244347
 20
7.780047848798486
 30
0.0
 11
59.71517144551666
 21
7.541669933971893
 31
0.0
  0
LINE
  5
4B
330
1F
100
AcDbEntity
  8
0
100
AcDbLine
 10
-92.84595886242536
 20
-3.960143590850897
 30
0.0
 11
-92.41183317833983
 21
-3.780322844728187
 31
0.0
  0
LINE
  5
4C
330
1F
100
AcDbEntity
  8
0
100
AcDbLine
 10
54.77583201244354
 20
-20.51898799295541
 30
0.0
 11
54.63953532850326
 21
-19.48371189536736
 31
0.0
  0
LINE
  5
4D
330
1F
100
AcDbEntity
  8
0
100
AcDbLine
 10
51.81110843003139
 20
-33.65528363689553
 30
0.0
 11
50.77583233244334
 21
-33.51898695295552
 31
0.0
  0
LINE
  5
4E
330
1F
100
AcDbEntity
  8
0
100
AcDbLine
 10
-85.52319486931071
 20
5.731009907044885
 30
0.0
 11
-85.28481695448436
 21
5.420349760117904
 31
0.0
  0
LINE
  5
4F
330
1F
100
AcDbEntity
  8
0
100
AcDbLine
 10
-84.97415680755718
 20
5.181971845291266
 30
0.0
 11
-84.61238540415296
 21
5.032121223522341
 31
0.0
  0
LINE
  5
50
330
1F
100
AcDbEntity
  8
0
100
AcDbLine
 10
47.94740543397148
 20
-17.69056109448336
 30
0.0
 11
47.31173099443389
 21
-18.5189881529554
 31
0.0
  0
LINE
  5
51
330
1F
100
AcDbEntity
  8
0
100
AcDbLine
 10
-9.332003528757525
 20
51.0834469934471
 30
0.0
 11
-13.60508942074737
 21
55.35653288543676
 31
0.0
  0
LINE
  5
52
330
1F
100
AcDbEntity
  8
0
100
AcDbLine
 10
-10.08537825279359
 20
30.31124633501051
 30
0.0
 11
-16.27256209320117
 21
24.1240624946027
 31
0.0
  0
LINE
  5
53
330
1F
100
AcDbEntity
  8
0
100
AcDbLine
 10
-10.08537825279359
 20
30.31124633501051
 30
0.0
 11
-14.09308112191111
 21
34.31894920412758
 31
0.0
  0
LINE
  5
54
330
1F
100
AcDbEntity
  8
0
100
AcDbLine
 10
-15.96408442567273
 20
34.15525762562915
 30
0.0
 11
-14.09308112191111
 21
34.31894920412758
 31
0.0
  0
LINE
  5
55
330
1F
100
AcDbEntity
  8
0
100
AcDbLine
 10
-21.13392082494984
 20
28.98542122635154
 30
0.0
 11
-15.96408442567273
 21
34.15525762562915
 31
0.0
  0
LINE
  5
56
330
1F
100
AcDbEntity
  8
0
100
AcDbLine
 10
-21.13392082494984
 20
28.98542122635154
 30
0.0
 11
-16.27256209320117
 21
24.1240624946027
 31
0.0
  0
LINE
  5
57
330
1F
100
AcDbEntity
  8
0
100
AcDbLine
 10
-13.76321833179574
 20
29.40344241196416
 30
0.0
 11
-13.77049165812366
 21
29.52439805567403
 31
0.0
  0
LINE
  5
58
330
1F
100
AcDbEntity
  8
0
100
AcDbLine
 10
-13.76253410375657
 20
29.28227021691495
 30
0.0
 11
-13.76321833179574
 21
29.40344241196416
 31
0.0
  0
LINE
  5
59
330
1F
100
AcDbEntity
  8
0
100
AcDbLine
 10
-13.78092153383778
 20
29.0407104615983
 30
0.0
 11
-13.76844099936602
 21
29.16124014790154
 31
0.0
  0
LINE
  5
5A
330
1F
100
AcDbEntity
  8
0
100
AcDbLine
 10
-13.7999387639988
 20
28.92103793351405
 30
0.0
 11
-13.78092153383778
 21
29.0407104615983
 31
0.0
  0
LINE
  5
5B
330
1F
100
AcDbEntity
  8
0
100
AcDbLine
 10
-13.82543639764347
 20
28.80257680191531
 30
0.0
 11
-13.7999387639988
 21
28.92103793351405
 31
0.0
  0
LINE
  5
5C
330
1F
100
AcDbEntity
  8
0
100
AcDbLine
 10
-13.85546217283617
 20
28.72787197359872
 30
0.0
 11
-13.82543639764347
 21
28.80257680191531
 31
0.0
  0
LINE
  5
5D
330
1F
100
AcDbEntity
  8
0
100
AcDbLine
 10
-13.8919087351993
 20
28.65608056295918
 30
0.0
 11
-13.85546217283617
 21
28.72787197359872
 31
0.0
  0
LINE
  5
5E
330
1F
100
AcDbEntity
  8
0
100
AcDbLine
 10
-13.93449656872185
 20
28.58775315275195
 30
0.0
 11
-13.8919087351993
 21
28.65608056295918
 31
0.0
  0
LINE
  5
5F
330
1F
100
AcDbEntity
  8
0
100
AcDbLine
 10
-13.98289905874952
 20
28.52341375961779
 30
0.0
 11
-13.93449656872185
 21
28.58775315275195
 31
0.0
  0
LINE
  5
60
330
1F
100
AcDbEntity
  8
0
100
AcDbLine
 10
-14.03674499685871
 20
28.4635558152931
 30
0.0
 11
-13.98289905874952
 21
28.52341375961779
 31
0.0
  0
LINE
  5
61
330
1F
100
AcDbEntity
  8
0
100
AcDbLine
 10
-14.09562142772965
 20
28.40863838238088
 30
0.0
 11
-14.03674499685871
 21
28.4635558152931
 31
0.0
  0
LINE
  5
62
330
1F
100
AcDbEntity
  8
0
100
AcDbLine
 10
-14.15907681618168
 20
28.35908263371191
 30
0.0
 11
-14.09562142772965
 21
28.40863838238088
 31
0.0
  0
LINE
  5
63
330
1F
100
AcDbEntity
  8
0
100
AcDbLine
 10
-14.22662451008801
 20
28.31526862228104
 30
0.0
 11
-14.15907681618168
 21
28.35908263371191
 31
0.0
  0
LINE
  5
64
330
1F
100
AcDbEntity
  8
0
100
AcDbLine
 10
-14.29774647260908
 20
28.27753236654697
 30
0.0
 11
-14.22662451008801
 21
28.31526862228104
 31
0.0
  0
LINE
  5
65
330
1F
100
AcDbEntity
  8
0
100
AcDbLine
 10
-14.37189725512239
 20
28.24616327343943
 30
0.0
 11
-14.29774647260908
 21
28.27753236654697
 31
0.0
  0
LINE
  5
66
330
1F
100
AcDbEntity
  8
0
100
AcDbLine
 10
-14.44850818037453
 20
28.22140191883647
 30
0.0
 11
-14.37189725512239
 21
28.24616327343943
 31
0.0
  0
LINE
  5
67
330
1F
100
AcDbEntity
  8
0
100
AcDbLine
 10
-14.52699170378301
 20
28.20343820254326
 30
0.0
 11
-14.44850818037453
 21
28.22140191883647
 31
0.0
  0
LINE
  5
68
330
1F
100
AcDbEntity
  8
0
100
AcDbLine
 10
-15.22165891942648
 20
28.14266269625166
 30
0.0
 11
-14.52699170378301
 21
28.20343820254326
 31
0.0
  0
LINE
  5
69
330
1F
100
AcDbEntity
  8
0
100
AcDbLine
 10
-15.43954825515425
 20
30.6331491998289
 30
0.0
 11
-15.22165891942648
 21
28.14266269625166
 31
0.0
  0
LINE
  5
6A
330
1F
100
AcDbEntity
  8
0
100
AcDbLine
 10
-15.43954825515425
 20
30.6331491998289
 30
0.0
 11
-14.74487931179263
 21
30.69392485727674
 31
0.0
  0
LINE
  5
6B
330
1F
100
AcDbEntity
  8
0
100
AcDbLine
 10
-14.66446890635417
 20
30.68986241978427
 30
0.0
 11
-14.74487931179263
 21
30.69392485727674
 31
0.0
  0
LINE
  5
6C
330
1F
100
AcDbEntity
  8
0
100
AcDbLine
 10
-14.58472226347885
 20
30.6787804681921
 30
0.0
 11
-14.66446890635417
 21
30.68986241978427
 31
0.0
  0
LINE
  5
6D
330
1F
100
AcDbEntity
  8
0
100
AcDbLine
 10
-14.50625097393277
 20
30.66076399189866
 30
0.0
 11
-14.58472226347885
 21
30.6787804681921
 31
0.0
  0
LINE
  5
6E
330
1F
100
AcDbEntity
  8
0
100
AcDbLine
 10
-14.42965684757933
 20
30.63595116237129
 30
0.0
 11
-14.50625097393277
 21
30.66076399189866
 31
0.0
  0
LINE
  5
6F
330
1F
100
AcDbEntity
  8
0
100
AcDbLine
 10
-14.35552729799157
 20
30.60453227348139
 30
0.0
 11
-14.42965684757933
 21
30.63595116237129
 31
0.0
  0
LINE
  5
70
330
1F
100
AcDbEntity
  8
0
100
AcDbLine
 10
-14.28443083748133
 20
30.56674828211099
 30
0.0
 11
-14.35552729799157
 21
30.60453227348139
 31
0.0
  0
LINE
  5
71
330
1F
100
AcDbEntity
  8
0
100
AcDbLine
 10
-14.21691271707298
 20
30.52288896021028
 30
0.0
 11
-14.28443083748133
 21
30.56674828211099
 31
0.0
  0
LINE
  5
72
330
1F
100
AcDbEntity
  8
0
100
AcDbLine
 10
-14.1534907448854
 20
30.47329067248902
 30
0.0
 11
-14.21691271707298
 21
30.52288896021028
 31
0.0
  0
LINE
  5
73
330
1F
100
AcDbEntity
  8
0
100
AcDbLine
 10
-14.09465131496913
 20
30.41833379677536
 30
0.0
 11
-14.1534907448854
 21
30.47329067248902
 31
0.0
  0
LINE
  5
74
330
1F
100
AcDbEntity
  8
0
100
AcDbLine
 10
-14.04084567706703
 20
30.35843980683515
 30
0.0
 11
-14.09465131496913
 21
30.41833379677536
 31
0.0
  0
LINE
  5
75
330
1F
100
AcDbEntity
  8
0
100
AcDbLine
 10
-13.99248647590316
 20
30.29406804001271
 30
0.0
 11
-14.04084567706703
 21
30.35843980683515
 31
0.0
  0
LINE
  5
76
330
1F
100
AcDbEntity
  8
0
100
AcDbLine
 10
-13.94994458653674
 20
30.22571217449867
 30
0.0
 11
-13.99248647590316
 21
30.29406804001271
 31
0.0
  0
LINE
  5
77
330
1F
100
AcDbEntity
  8
0
100
AcDbLine
 10
-13.90426376319325
 20
30.11347834982997
 30
0.0
 11
-13.94994458653674
 21
30.22571217449867
 31
0.0
  0
LINE
  5
78
330
1F
100
AcDbEntity
  8
0
100
AcDbLine
 10
-13.86475453472501
 20
29.99892622245132
 30
0.0
 11
-13.90426376319325
 21
30.11347834982997
 31
0.0
  0
LINE
  5
79
330
1F
100
AcDbEntity
  8
0
100
AcDbLine
 10
-13.83153385095113
 20
29.88239487391932
 30
0.0
 11
-13.86475453472501
 21
29.99892622245132
 31
0.0
  0
LINE
  5
7A
330
1F
100
AcDbEntity
  8
0
100
AcDbLine
 10
-13.80470004720119
 20
29.76422924440958
 30
0.0
 11
-13.83153385095113
 21
29.88239487391932
 31
0.0
  0
LINE
  5
7B
330
1F
100
AcDbEntity
  8
0
100
AcDbLine
 10
-13.78433255323446
 20
29.64477911167408
 30
0.0
 11
-13.80470004720119
 21
29.76422924440958
 31
0.0
  0
LINE
  5
7C
330
1F
100
AcDbEntity
  8
0
100
AcDbLine
 10
-13.77049165812366
 20
29.52439805567403
 30
0.0
 11
-13.78433255323446
 21
29.64477911167408
 31
0.0
  0
LINE
  5
7D
330
1F
100
AcDbEntity
  8
0
100
AcDbLine
 10
-35.11011625690423
 20
18.06156442559299
 30
0.0
 11
23.68987903909648
 21
18.06156442559321
 31
0.0
  0
LINE
  5
7E
330
1F
100
AcDbEntity
  8
0
100
AcDbLine
 10
60.77583153244366
 20
-45.01898603295555
 30
0.0
 11
61.1640600690389
 21
-44.96787477647803
 31
0.0
  0
LINE
  5
7F
330
1F
100
AcDbEntity
  8
0
100
AcDbLine
 10
61.52583147244349
 20
7.780047848798486
 30
0.0
 11
61.1640600690389
 21
7.929898470567366
 31
0.0
  0
LINE
  5
80
330
1F
100
AcDbEntity
  8
0
100
AcDbLine
 10
55.19524936130605
 20
3.400427475907378
 30
0.0
 11
53.90083208244337
 21
4.393668787684873
 31
0.0
  0
LINE
  5
81
330
1F
100
AcDbEntity
  8
0
100
AcDbLine
 10
62.07486953419702
 20
-44.26898609295553
 30
0.0
 11
62.2247201559659
 21
-43.90721468955103
 31
0.0
  0
LINE
  5
82
330
1F
100
AcDbEntity
  8
0
100
AcDbLine
 10
-83.47415692755716
 20
5.181971845291266
 30
0.0
 11
-83.16349678063035
 21
5.420349760117904
 31
0.0
  0
LINE
  5
83
330
1F
100
AcDbEntity
  8
0
100
AcDbLine
 10
47.31173099443389
 20
-39.51898647295554
 30
0.0
 11
47.94740543397148
 21
-40.34741353142758
 31
0.0
  0
LINE
  5
84
330
1F
100
AcDbEntity
  8
0
100
AcDbLine
 10
52.77583217244327
 20
-17.05488665494569
 30
0.0
 11
51.81110843003139
 21
-16.65528499689536
 31
0.0
  0
LINE
  5
85
330
1F
100
AcDbEntity
  8
0
100
AcDbLine
 10
-84.22415686755735
 20
-45.01898603295545
 30
0.0
 11
-83.83592833096175
 21
-44.96787477647803
 31
0.0
  0
LINE
  5
86
330
1F
100
AcDbEntity
  8
0
100
AcDbLine
 10
-82.77526824403475
 20
6.092781310449381
 30
0.0
 11
-82.72415698755732
 21
6.481009847044899
 31
0.0
  0
LINE
  5
87
330
1F
100
AcDbEntity
  8
0
100
AcDbLine
 10
8.866223671507562
 20
41.84593916576235
 30
0.0
 11
4.385863985217572
 21
37.36557947947209
 31
0.0
  0
LINE
  5
88
330
1F
100
AcDbEntity
  8
0
100
AcDbLine
 10
44.73879640109952
 20
-2.636608455436439
 30
0.0
 11
45.36317399180349
 21
-4.143989302955235
 31
0.0
  0
LINE
  5
89
330
1F
100
AcDbEntity
  8
0
100
AcDbLine
 10
-85.28481695448436
 20
7.541669933971893
 30
0.0
 11
-85.52319486931071
 21
7.231009787044869
 31
0.0
  0
LINE
  5
8A
330
1F
100
AcDbEntity
  8
0
100
AcDbLine
 10
49.15821342996225
 20
5.018046378388615
 30
0.0
 11
47.65083258244331
 21
4.393668787684873
 31
0.0
  0
LINE
  5
8B
330
1F
100
AcDbEntity
  8
0
100
AcDbLine
 10
53.60425923091556
 20
-40.34741353142758
 30
0.0
 11
54.23993367045315
 21
-39.51898647295554
 31
0.0
  0
LINE
  5
8C
330
1F
100
AcDbEntity
  8
0
100
AcDbLine
 10
-84.22415686755735
 20
7.981009727044883
 30
0.0
 11
-84.61238540415296
 21
7.929898470567411
 31
0.0
  0
LINE
  5
8D
330
1F
100
AcDbEntity
  8
0
100
AcDbLine
 10
47.94740543397148
 20
-23.34741489142745
 30
0.0
 11
48.77583249244342
 21
-23.98308933096503
 31
0.0
  0
LINE
  5
8E
330
1F
100
AcDbEntity
  8
0
100
AcDbLine
 10
-84.97415680755718
 20
7.780047848798441
 30
0.0
 11
-85.28481695448436
 21
7.541669933971893
 31
0.0
  0
LINE
  5
8F
330
1F
100
AcDbEntity
  8
0
100
AcDbLine
 10
50.77583233244334
 20
-41.51898631295555
 30
0.0
 11
51.81110843003139
 21
-41.38268962901553
 31
0.0
  0
LINE
  5
90
330
1F
100
AcDbEntity
  8
0
100
AcDbLine
 10
61.1640600690389
 20
-44.96787477647803
 30
0.0
 11
61.52583147244349
 21
-44.81802415470915
 31
0.0
  0
LINE
  5
91
330
1F
100
AcDbEntity
  8
0
100
AcDbLine
 10
54.63953532850326
 20
-19.48371189536736
 30
0.0
 11
54.23993367045315
 21
-18.5189881529554
 31
0.0
  0
LINE
  5
92
330
1F
100
AcDbEntity
  8
0
100
AcDbLine
 10
75.2758303724437
 20
13.48100928704489
 30
0.0
 11
-98.72415570755724
 21
13.48100928704489
 31
0.0
  0
LINE
  5
93
330
1F
100
AcDbEntity
  8
0
100
AcDbLine
 10
-82.72415698755732
 20
6.481009847044899
 30
0.0
 11
-82.77526824403475
 21
6.869238383640372
 31
0.0
  0
LINE
  5
94
330
1F
100
AcDbEntity
  8
0
100
AcDbLine
 10
48.77583249244342
 20
-34.0548852949459
 30
0.0
 11
47.94740543397148
 21
-34.69055973448349
 31
0.0
  0
LINE
  5
95
330
1F
100
AcDbEntity
  8
0
100
AcDbLine
 10
47.94740543397148
 20
-40.34741353142758
 30
0.0
 11
48.77583249244342
 21
-40.98308797096516
 31
0.0
  0
LINE
  5
96
330
1F
100
AcDbEntity
  8
0
100
AcDbLine
 10
-88.64595823977582
 20
-13.51899063440495
 30
0.0
 11
-95.24595962907476
 21
-13.51899063440495
 31
0.0
  0
LINE
  5
97
330
1F
100
AcDbEntity
  8
0
100
AcDbLine
 10
-88.64595823977582
 20
-33.51898487150548
 30
0.0
 11
-88.64595823977582
 21
-13.51899063440495
 31
0.0
  0
LINE
  5
98
330
1F
100
AcDbEntity
  8
0
100
AcDbLine
 10
59.32694290892105
 20
6.869238383640372
 30
0.0
 11
59.27583165244364
 21
6.481009847044854
 31
0.0
  0
LINE
  5
99
330
1F
100
AcDbEntity
  8
0
100
AcDbLine
 10
59.27583165244364
 20
6.481009847044854
 30
0.0
 11
59.32694290892105
 21
6.092781310449336
 31
0.0
  0
LINE
  5
9A
330
1F
100
AcDbEntity
  8
0
100
AcDbLine
 10
49.74055623485529
 20
-33.65528363689553
 30
0.0
 11
48.77583249244342
 21
-34.0548852949459
 31
0.0
  0
LINE
  5
9B
330
1F
100
AcDbEntity
  8
0
100
AcDbLine
 10
60.38760299584806
 20
5.032121223522341
 30
0.0
 11
60.77583153244366
 21
4.981009967044824
 31
0.0
  0
LINE
  5
9C
330
1F
100
AcDbEntity
  8
0
100
AcDbLine
 10
-4.851643842467174
 20
55.56380667973718
 30
0.0
 11
8.866223671507562
 21
41.84593916576235
 31
0.0
  0
LINE
  5
9D
330
1F
100
AcDbEntity
  8
0
100
AcDbLine
 10
-92.41183317833983
 20
-3.780322844728187
 30
0.0
 11
-91.94595893442519
 21
-3.718989336955238
 31
0.0
  0
LINE
  5
9E
330
1F
100
AcDbEntity
  8
0
100
AcDbLine
 10
-91.94595893442519
 20
-3.718989336955238
 30
0.0
 11
-91.48008469051075
 21
-3.780322844728187
 31
0.0
  0
LINE
  5
9F
330
1F
100
AcDbEntity
  8
0
100
AcDbLine
 10
-73.72415770755713
 20
-44.81898604895559
 30
0.0
 11
25.77583433244345
 21
-44.81898604895559
 31
0.0
  0
LINE
  5
A0
330
1F
100
AcDbEntity
  8
0
100
AcDbLine
 10
62.07486953419702
 20
-42.7689862129555
 30
0.0
 11
61.83649161937065
 21
-42.45832606602852
 31
0.0
  0
LINE
  5
A1
330
1F
100
AcDbEntity
  8
0
100
AcDbLine
 10
52.39345123492444
 20
-7.056025484299068
 30
0.0
 11
53.90083208244337
 21
-6.431647893595281
 31
0.0
  0
LINE
  5
A2
330
1F
100
AcDbEntity
  8
0
100
AcDbLine
 10
52.77583217244327
 20
-34.0548852949459
 30
0.0
 11
51.81110843003139
 21
-33.65528363689553
 31
0.0
  0
LINE
  5
A3
330
1F
100
AcDbEntity
  8
0
100
AcDbLine
 10
59.47679353068994
 20
-44.26898609295553
 30
0.0
 11
59.71517144551666
 21
-44.57964623988251
 31
0.0
  0
LINE
  5
A4
330
1F
100
AcDbEntity
  8
0
100
AcDbLine
 10
59.27583165244364
 20
-43.51898615295551
 30
0.0
 11
59.32694290892105
 21
-43.90721468955103
 31
0.0
  0
LINE
  5
A5
330
1F
100
AcDbEntity
  8
0
100
AcDbLine
 10
-85.72415674755739
 20
6.481009847044899
 30
0.0
 11
-85.67304549107996
 21
6.092781310449381
 31
0.0
  0
LINE
  5
A6
330
1F
100
AcDbEntity
  8
0
100
AcDbLine
 10
-85.67304549107996
 20
6.869238383640372
 30
0.0
 11
-85.72415674755739
 21
6.481009847044899
 31
0.0
  0
LINE
  5
A7
330
1F
100
AcDbEntity
  8
0
100
AcDbLine
 10
-85.52319486931071
 20
7.231009787044869
 30
0.0
 11
-85.67304549107996
 21
6.869238383640372
 31
0.0
  0
LINE
  5
A8
330
1F
100
AcDbEntity
  8
0
100
AcDbLine
 10
-84.61238540415296
 20
7.929898470567411
 30
0.0
 11
-84.97415680755718
 21
7.780047848798441
 31
0.0
  0
LINE
  5
A9
330
1F
100
AcDbEntity
  8
0
100
AcDbLine
 10
-83.83592833096175
 20
7.929898470567411
 30
0.0
 11
-84.22415686755735
 21
7.981009727044883
 31
0.0
  0
LINE
  5
AA
330
1F
100
AcDbEntity
  8
0
100
AcDbLine
 10
-83.47415692755716
 20
7.780047848798441
 30
0.0
 11
-83.83592833096175
 21
7.929898470567411
 31
0.0
  0
LINE
  5
AB
330
1F
100
AcDbEntity
  8
0
100
AcDbLine
 10
-83.16349678063035
 20
7.541669933971893
 30
0.0
 11
-83.47415692755716
 21
7.780047848798441
 31
0.0
  0
LINE
  5
AC
330
1F
100
AcDbEntity
  8
0
100
AcDbLine
 10
-82.77526824403475
 20
6.869238383640372
 30
0.0
 11
-82.92511886580363
 21
7.231009787044869
 31
0.0
  0
LINE
  5
AD
330
1F
100
AcDbEntity
  8
0
100
AcDbLine
 10
-82.92511886580363
 20
5.731009907044885
 30
0.0
 11
-82.77526824403475
 21
6.092781310449381
 31
0.0
  0
LINE
  5
AE
330
1F
100
AcDbEntity
  8
0
100
AcDbLine
 10
47.65083258244331
 20
-6.431647893595281
 30
0.0
 11
49.15821342996225
 21
-7.056025484299068
 31
0.0
  0
LINE
  5
AF
330
1F
100
AcDbEntity
  8
0
100
AcDbLine
 10
60.02583159244347
 20
-42.21994815120188
 30
0.0
 11
59.71517144551666
 21
-42.45832606602852
 31
0.0
  0
LINE
  5
B0
330
1F
100
AcDbEntity
  8
0
100
AcDbLine
 10
54.63953532850326
 20
-36.48371053536748
 30
0.0
 11
54.23993367045315
 21
-35.51898679295548
 31
0.0
  0
LINE
  5
B1
330
1F
100
AcDbEntity
  8
0
100
AcDbLine
 10
50.77583233244334
 20
-24.51898767295543
 30
0.0
 11
51.81110843003139
 21
-24.3826909890155
 31
0.0
  0
LINE
  5
B2
330
1F
100
AcDbEntity
  8
0
100
AcDbLine
 10
54.23993367045315
 20
-18.5189881529554
 30
0.0
 11
53.60425923091556
 21
-17.69056109448336
 31
0.0
  0
LINE
  5
B3
330
1F
100
AcDbEntity
  8
0
100
AcDbLine
 10
46.91212933638343
 20
-19.48371189536736
 30
0.0
 11
46.7758326524435
 21
-20.51898799295541
 31
0.0
  0
LINE
  5
B4
330
1F
100
AcDbEntity
  8
0
100
AcDbLine
 10
-83.16349678063035
 20
-42.45832606602852
 30
0.0
 11
-83.47415692755716
 21
-42.21994815120188
 31
0.0
  0
LINE
  5
B5
330
1F
100
AcDbEntity
  8
0
100
AcDbLine
 10
54.23993367045315
 20
-35.51898679295548
 30
0.0
 11
53.60425923091556
 21
-34.69055973448349
 31
0.0
  0
LINE
  5
B6
330
1F
100
AcDbEntity
  8
0
100
AcDbLine
 10
60.77583153244366
 20
4.981009967044824
 30
0.0
 11
61.1640600690389
 21
5.032121223522341
 31
0.0
  0
LINE
  5
B7
330
1F
100
AcDbEntity
  8
0
100
AcDbLine
 10
53.60425923091556
 20
-23.34741489142745
 30
0.0
 11
54.23993367045315
 21
-22.51898783295541
 31
0.0
  0
LINE
  5
B8
330
1F
100
AcDbEntity
  8
0
100
AcDbLine
 10
59.71517144551666
 20
7.541669933971893
 30
0.0
 11
59.47679353068994
 21
7.231009787044869
 31
0.0
  0
LINE
  5
B9
330
1F
100
AcDbEntity
  8
0
100
AcDbLine
 10
47.94740543397148
 20
-34.69055973448349
 30
0.0
 11
47.31173099443389
 21
-35.51898679295548
 31
0.0
  0
LINE
  5
BA
330
1F
100
AcDbEntity
  8
0
100
AcDbLine
 10
60.38760299584806
 20
-42.070097529433
 30
0.0
 11
60.02583159244347
 21
-42.21994815120188
 31
0.0
  0
LINE
  5
BB
330
1F
100
AcDbEntity
  8
0
100
AcDbLine
 10
59.47679353068994
 20
7.231009787044869
 30
0.0
 11
59.32694290892105
 21
6.869238383640372
 31
0.0
  0
LINE
  5
BC
330
1F
100
AcDbEntity
  8
0
100
AcDbLine
 10
59.71517144551666
 20
5.420349760117814
 30
0.0
 11
60.02583159244347
 21
5.181971845291221
 31
0.0
  0
LINE
  5
BD
330
1F
100
AcDbEntity
  8
0
100
AcDbLine
 10
-83.83592833096175
 20
-44.96787477647803
 30
0.0
 11
-83.47415692755716
 21
-44.81802415470906
 31
0.0
  0
LINE
  5
BE
330
1F
100
AcDbEntity
  8
0
100
AcDbLine
 10
61.83649161937065
 20
5.420349760117814
 30
0.0
 11
62.07486953419702
 21
5.731009907044839
 31
0.0
  0
LINE
  5
BF
330
1F
100
AcDbEntity
  8
0
100
AcDbLine
 10
57.02583183244341
 20
-1.018989552955204
 30
0.0
 11
56.81286826378717
 21
0.598629349526077
 31
0.0
  0
LINE
  5
C0
330
1F
100
AcDbEntity
  8
0
100
AcDbLine
 10
49.15821342996225
 20
-7.056025484299068
 30
0.0
 11
50.77583233244334
 21
-7.268989052955222
 31
0.0
  0
LINE
  5
C1
330
1F
100
AcDbEntity
  8
0
100
AcDbLine
 10
46.35641530358099
 20
-5.438406581817832
 30
0.0
 11
47.65083258244331
 21
-6.431647893595281
 31
0.0
  0
LINE
  5
C2
330
1F
100
AcDbEntity
  8
0
100
AcDbLine
 10
45.36317399180349
 20
-4.143989302955235
 30
0.0
 11
46.35641530358099
 21
-5.438406581817832
 31
0.0
  0
LINE
  5
C3
330
1F
100
AcDbEntity
  8
0
100
AcDbLine
 10
44.52583283244328
 20
-1.018989552955204
 30
0.0
 11
44.73879640109952
 21
-2.636608455436439
 31
0.0
  0
LINE
  5
C4
330
1F
100
AcDbEntity
  8
0
100
AcDbLine
 10
44.73879640109952
 20
0.598629349526077
 30
0.0
 11
44.52583283244328
 21
-1.018989552955204
 31
0.0
  0
LINE
  5
C5
330
1F
100
AcDbEntity
  8
0
100
AcDbLine
 10
45.36317399180349
 20
2.106010197044828
 30
0.0
 11
44.73879640109952
 21
0.598629349526077
 31
0.0
  0
LINE
  5
C6
330
1F
100
AcDbEntity
  8
0
100
AcDbLine
 10
46.35641530358099
 20
3.400427475907378
 30
0.0
 11
45.36317399180349
 21
2.106010197044828
 31
0.0
  0
LINE
  5
C7
330
1F
100
AcDbEntity
  8
0
100
AcDbLine
 10
-83.47415692755716
 20
-42.21994815120188
 30
0.0
 11
-83.83592833096175
 21
-42.070097529433
 31
0.0
  0
LINE
  5
C8
330
1F
100
AcDbEntity
  8
0
100
AcDbLine
 10
61.52583147244349
 20
-42.21994815120188
 30
0.0
 11
61.1640600690389
 21
-42.070097529433
 31
0.0
  0
LINE
  5
C9
330
1F
100
AcDbEntity
  8
0
100
AcDbLine
 10
61.83649161937065
 20
-42.45832606602852
 30
0.0
 11
61.52583147244349
 21
-42.21994815120188
 31
0.0
  0
LINE
  5
CA
330
1F
100
AcDbEntity
  8
0
100
AcDbLine
 10
62.2247201559659
 20
-43.13075761635999
 30
0.0
 11
62.07486953419702
 21
-42.7689862129555
 31
0.0
  0
LINE
  5
CB
330
1F
100
AcDbEntity
  8
0
100
AcDbLine
 10
62.27583141244333
 20
-43.51898615295551
 30
0.0
 11
62.2247201559659
 21
-43.13075761635999
 31
0.0
  0
LINE
  5
CC
330
1F
100
AcDbEntity
  8
0
100
AcDbLine
 10
62.2247201559659
 20
-43.90721468955103
 30
0.0
 11
62.27583141244333
 21
-43.51898615295551
 31
0.0
  0
LINE
  5
CD
330
1F
100
AcDbEntity
  8
0
100
AcDbLine
 10
61.83649161937065
 20
-44.57964623988251
 30
0.0
 11
62.07486953419702
 21
-44.26898609295553
 31
0.0
  0
LINE
  5
CE
330
1F
100
AcDbEntity
  8
0
100
AcDbLine
 10
61.52583147244349
 20
-44.81802415470915
 30
0.0
 11
61.83649161937065
 21
-44.57964623988251
 31
0.0
  0
LINE
  5
CF
330
1F
100
AcDbEntity
  8
0
100
AcDbLine
 10
60.38760299584806
 20
-44.96787477647803
 30
0.0
 11
60.77583153244366
 21
-45.01898603295555
 31
0.0
  0
LINE
  5
D0
330
1F
100
AcDbEntity
  8
0
100
AcDbLine
 10
60.02583159244347
 20
-44.81802415470915
 30
0.0
 11
60.38760299584806
 21
-44.96787477647803
 31
0.0
  0
LINE
  5
D1
330
1F
100
AcDbEntity
  8
0
100
AcDbLine
 10
53.90083208244337
 20
4.393668787684873
 30
0.0
 11
52.39345123492444
 21
5.018046378388615
 31
0.0
  0
LINE
  5
D2
330
1F
100
AcDbEntity
  8
0
100
AcDbLine
 10
-23.75206837951289
 20
45.20955392667143
 30
0.0
 11
-20.95899694292469
 21
48.00262536325918
 31
0.0
  0
LINE
  5
D3
330
1F
100
AcDbEntity
  8
0
100
AcDbLine
 10
59.47679353068994
 20
-42.7689862129555
 30
0.0
 11
59.32694290892105
 21
-43.13075761635999
 31
0.0
  0
LINE
  5
D4
330
1F
100
AcDbEntity
  8
0
100
AcDbLine
 10
25.77583433244345
 20
-3.818989328955222
 30
0.0
 11
-73.72415770755711
 21
-3.818989328955216
 31
0.0
  0
LINE
  5
D5
330
1F
100
AcDbEntity
  8
0
100
AcDbLine
 10
62.2247201559659
 20
6.869238383640372
 30
0.0
 11
62.07486953419702
 21
7.231009787044869
 31
0.0
  0
LINE
  5
D6
330
1F
100
AcDbEntity
  8
0
100
AcDbLine
 10
-84.22415686755735
 20
-42.01898627295549
 30
0.0
 11
-84.61238540415296
 21
-42.070097529433
 31
0.0
  0
LINE
  5
D7
330
1F
100
AcDbEntity
  8
0
100
AcDbLine
 10
62.07486953419702
 20
7.231009787044869
 30
0.0
 11
61.83649161937065
 21
7.541669933971893
 31
0.0
  0
LINE
  5
D8
330
1F
100
AcDbEntity
  8
0
100
AcDbLine
 10
59.71517144551666
 20
-44.57964623988251
 30
0.0
 11
60.02583159244347
 21
-44.81802415470915
 31
0.0
  0
LINE
  5
D9
330
1F
100
AcDbEntity
  8
0
100
AcDbLine
 10
-82.92511886580363
 20
-44.26898609295553
 30
0.0
 11
-82.77526824403475
 21
-43.90721468955094
 31
0.0
  0
LINE
  5
DA
330
1F
100
AcDbEntity
  8
0
100
AcDbLine
 10
-84.22415686755735
 20
4.981009967044915
 30
0.0
 11
-83.83592833096175
 21
5.032121223522341
 31
0.0
  0
LINE
  5
DB
330
1F
100
AcDbEntity
  8
0
100
AcDbLine
 10
-82.92511886580363
 20
7.231009787044869
 30
0.0
 11
-83.16349678063035
 21
7.541669933971893
 31
0.0
  0
LINE
  5
DC
330
1F
100
AcDbEntity
  8
0
100
AcDbLine
 10
-98.72415570755724
 20
-60.51898479295564
 30
0.0
 11
75.2758303724437
 21
-60.51898479295564
 31
0.0
  0
LINE
  5
DD
330
1F
100
AcDbEntity
  8
0
100
AcDbLine
 10
75.2758303724437
 20
-60.51898479295564
 30
0.0
 11
75.2758303724437
 21
13.48100928704489
 31
0.0
  0
LINE
  5
DE
330
1F
100
AcDbEntity
  8
0
100
AcDbLine
 10
-98.72415570755724
 20
13.48100928704489
 30
0.0
 11
-98.72415570755724
 21
-60.51898479295564
 31
0.0
  0
LINE
  5
DF
330
1F
100
AcDbEntity
  8
0
100
AcDbLine
 10
56.81286826378717
 20
0.598629349526077
 30
0.0
 11
56.18849067308355
 21
2.106010197044828
 31
0.0
  0
LINE
  5
E0
330
1F
100
AcDbEntity
  8
0
100
AcDbLine
 10
-85.67304549107996
 20
-43.13075761635999
 30
0.0
 11
-85.72415674755739
 21
-43.51898615295551
 31
0.0
  0
LINE
  5
E1
330
1F
100
AcDbEntity
  8
0
100
AcDbLine
 10
-85.52319486931071
 20
-42.7689862129555
 30
0.0
 11
-85.67304549107996
 21
-43.13075761635999
 31
0.0
  0
LINE
  5
E2
330
1F
100
AcDbEntity
  8
0
100
AcDbLine
 10
-85.28481695448436
 20
-42.45832606602852
 30
0.0
 11
-85.52319486931071
 21
-42.7689862129555
 31
0.0
  0
LINE
  5
E3
330
1F
100
AcDbEntity
  8
0
100
AcDbLine
 10
60.38760299584806
 20
7.929898470567366
 30
0.0
 11
60.02583159244347
 21
7.780047848798486
 31
0.0
  0
LINE
  5
E4
330
1F
100
AcDbEntity
  8
0
100
AcDbLine
 10
60.77583153244366
 20
7.981009727044883
 30
0.0
 11
60.38760299584806
 21
7.929898470567366
 31
0.0
  0
LINE
  5
E5
330
1F
100
AcDbEntity
  8
0
100
AcDbLine
 10
61.1640600690389
 20
7.929898470567366
 30
0.0
 11
60.77583153244366
 21
7.981009727044883
 31
0.0
  0
LINE
  5
E6
330
1F
100
AcDbEntity
  8
0
100
AcDbLine
 10
61.83649161937065
 20
7.541669933971893
 30
0.0
 11
61.52583147244349
 21
7.780047848798486
 31
0.0
  0
LINE
  5
E7
330
1F
100
AcDbEntity
  8
0
100
AcDbLine
 10
62.2247201559659
 20
6.092781310449336
 30
0.0
 11
62.27583141244333
 21
6.481009847044854
 31
0.0
  0
LINE
  5
E8
330
1F
100
AcDbEntity
  8
0
100
AcDbLine
 10
62.07486953419702
 20
5.731009907044839
 30
0.0
 11
62.2247201559659
 21
6.092781310449336
 31
0.0
  0
LINE
  5
E9
330
1F
100
AcDbEntity
  8
0
100
AcDbLine
 10
61.52583147244349
 20
5.181971845291221
 30
0.0
 11
61.83649161937065
 21
5.420349760117814
 31
0.0
  0
LINE
  5
EA
330
1F
100
AcDbEntity
  8
0
100
AcDbLine
 10
61.1640600690389
 20
5.032121223522341
 30
0.0
 11
61.52583147244349
 21
5.181971845291221
 31
0.0
  0
LINE
  5
EB
330
1F
100
AcDbEntity
  8
0
100
AcDbLine
 10
59.47679353068994
 20
5.731009907044885
 30
0.0
 11
59.71517144551666
 21
5.420349760117814
 31
0.0
  0
LINE
  5
EC
330
1F
100
AcDbEntity
  8
0
100
AcDbLine
 10
59.32694290892105
 20
6.092781310449336
 30
0.0
 11
59.47679353068994
 21
5.731009907044885
 31
0.0
  0
LINE
  5
ED
330
1F
100
AcDbEntity
  8
0
100
AcDbLine
 10
49.74055623485529
 20
-41.38268962901553
 30
0.0
 11
50.77583233244334
 21
-41.51898631295555
 31
0.0
  0
LINE
  5
EE
330
1F
100
AcDbEntity
  8
0
100
AcDbLine
 10
46.91212933638343
 20
-38.55426273054358
 30
0.0
 11
47.31173099443389
 21
-39.51898647295554
 31
0.0
  0
LINE
  5
EF
330
1F
100
AcDbEntity
  8
0
100
AcDbLine
 10
46.7758326524435
 20
-37.51898663295553
 30
0.0
 11
46.91212933638343
 21
-38.55426273054358
 31
0.0
  0
LINE
  5
F0
330
1F
100
AcDbEntity
  8
0
100
AcDbLine
 10
46.91212933638343
 20
-36.48371053536748
 30
0.0
 11
46.7758326524435
 21
-37.51898663295553
 31
0.0
  0
LINE
  5
F1
330
1F
100
AcDbEntity
  8
0
100
AcDbLine
 10
47.31173099443389
 20
-35.51898679295548
 30
0.0
 11
46.91212933638343
 21
-36.48371053536748
 31
0.0
  0
LINE
  5
F2
330
1F
100
AcDbEntity
  8
0
100
AcDbLine
 10
50.77583233244334
 20
-33.51898695295552
 30
0.0
 11
49.74055623485529
 21
-33.65528363689553
 31
0.0
  0
LINE
  5
F3
330
1F
100
AcDbEntity
  8
0
100
AcDbLine
 10
56.81286826378717
 20
-2.636608455436484
 30
0.0
 11
57.02583183244341
 21
-1.018989552955204
 31
0.0
  0
LINE
  5
F4
330
1F
100
AcDbEntity
  8
0
100
AcDbLine
 10
56.18849067308355
 20
-4.143989302955235
 30
0.0
 11
56.81286826378717
 21
-2.636608455436484
 31
0.0
  0
LINE
  5
F5
330
1F
100
AcDbEntity
  8
0
100
AcDbLine
 10
55.19524936130605
 20
-5.438406581817832
 30
0.0
 11
56.18849067308355
 21
-4.143989302955235
 31
0.0
  0
LINE
  5
F6
330
1F
100
AcDbEntity
  8
0
100
AcDbLine
 10
53.90083208244337
 20
-6.431647893595281
 30
0.0
 11
55.19524936130605
 21
-5.438406581817832
 31
0.0
  0
LINE
  5
F7
330
1F
100
AcDbEntity
  8
0
100
AcDbLine
 10
50.77583233244334
 20
-7.268989052955222
 30
0.0
 11
52.39345123492444
 21
-7.056025484299068
 31
0.0
  0
LINE
  5
F8
330
1F
100
AcDbEntity
  8
0
100
AcDbLine
 10
-24.71012050260121
 20
35.72847010392279
 30
0.0
 11
-20.76012099630129
 21
35.72847010392071
 31
0.0
  0
LINE
  5
F9
330
1F
100
AcDbEntity
  8
0
100
AcDbLine
 10
-20.76012099630129
 20
35.72847010392071
 30
0.0
 11
-20.76012099630345
 21
31.32846578422337
 31
0.0
  0
LINE
  5
FA
330
1F
100
AcDbEntity
  8
0
100
AcDbLine
 10
-20.76012099630345
 20
31.32846578422337
 30
0.0
 11
-24.71012050260338
 21
31.32846578422509
 31
0.0
  0
LINE
  5
FB
330
1F
100
AcDbEntity
  8
0
100
AcDbLine
 10
-24.71012050260338
 20
31.32846578422509
 30
0.0
 11
-24.7101205026041
 21
29.52846769632425
 31
0.0
  0
LINE
  5
FC
330
1F
100
AcDbEntity
  8
0
100
AcDbLine
 10
-24.7101205026041
 20
29.52846769632425
 30
0.0
 11
-29.81011785910481
 21
29.52846769632696
 31
0.0
  0
LINE
  5
FD
330
1F
100
AcDbEntity
  8
0
100
AcDbLine
 10
-29.81011785910481
 20
29.52846769632696
 30
0.0
 11
-29.81011785910337
 21
31.32846578422766
 31
0.0
  0
LINE
  5
FE
330
1F
100
AcDbEntity
  8
0
100
AcDbLine
 10
-29.81011785910337
 20
31.32846578422766
 30
0.0
 11
-35.11011625690406
 21
31.32846578423046
 31
0.0
  0
LINE
  5
FF
330
1F
100
AcDbEntity
  8
0
100
AcDbLine
 10
-35.11011625690423
 20
18.06156442559299
 30
0.0
 11
-35.11011625690406
 21
31.32846578423046
 31
0.0
  0
LINE
  5
100
330
1F
100
AcDbEntity
  8
0
100
AcDbLine
 10
23.68987903909648
 20
18.06156442559321
 30
0.0
 11
4.385863985217572
 21
37.36557947947209
 31
0.0
  0
LINE
  5
101
330
1F
100
AcDbEntity
  8
0
100
AcDbLine
 10
-20.96731851405046
 20
44.02161349473933
 30
0.0
 11
-1.1683302247456
 21
24.22262520543493
 31
0.0
  0
LINE
  5
102
330
1F
100
AcDbEntity
  8
0
100
AcDbLine
 10
47.65083258244331
 20
4.393668787684873
 30
0.0
 11
46.35641530358099
 21
3.400427475907378
 31
0.0
  0
LINE
  5
103
330
1F
100
AcDbEntity
  8
0
100
AcDbLine
 10
50.77583233244334
 20
5.231009947044859
 30
0.0
 11
49.15821342996225
 21
5.018046378388615
 31
0.0
  0
LINE
  5
104
330
1F
100
AcDbEntity
  8
0
100
AcDbLine
 10
52.39345123492444
 20
5.018046378388615
 30
0.0
 11
50.77583233244334
 21
5.231009947044859
 31
0.0
  0
LINE
  5
105
330
1F
100
AcDbEntity
  8
0
100
AcDbLine
 10
56.18849067308355
 20
2.106010197044828
 30
0.0
 11
55.19524936130605
 21
3.400427475907378
 31
0.0
  0
LINE
  5
106
330
1F
100
AcDbEntity
  8
0
100
AcDbLine
 10
59.71517144551666
 20
-42.45832606602852
 30
0.0
 11
59.47679353068994
 21
-42.7689862129555
 31
0.0
  0
LINE
  5
107
330
1F
100
AcDbEntity
  8
0
100
AcDbLine
 10
60.77583153244366
 20
-42.01898627295549
 30
0.0
 11
60.38760299584806
 21
-42.070097529433
 31
0.0
  0
LINE
  5
108
330
1F
100
AcDbEntity
  8
0
100
AcDbLine
 10
61.1640600690389
 20
-42.070097529433
 30
0.0
 11
60.77583153244366
 21
-42.01898627295549
 31
0.0
  0
LINE
  5
109
330
1F
100
AcDbEntity
  8
0
100
AcDbLine
 10
53.60425923091556
 20
-17.69056109448336
 30
0.0
 11
52.77583217244327
 21
-17.05488665494569
 31
0.0
  0
LINE
  5
10A
330
1F
100
AcDbEntity
  8
0
100
AcDbLine
 10
54.63953532850326
 20
-21.55426409054337
 30
0.0
 11
54.77583201244354
 21
-20.51898799295541
 31
0.0
  0
LINE
  5
10B
330
1F
100
AcDbEntity
  8
0
100
AcDbLine
 10
54.23993367045315
 20
-22.51898783295541
 30
0.0
 11
54.63953532850326
 21
-21.55426409054337
 31
0.0
  0
LINE
  5
10C
330
1F
100
AcDbEntity
  8
0
100
AcDbLine
 10
52.77583217244327
 20
-23.98308933096503
 30
0.0
 11
53.60425923091556
 21
-23.34741489142745
 31
0.0
  0
LINE
  5
10D
330
1F
100
AcDbEntity
  8
0
100
AcDbLine
 10
51.81110843003139
 20
-24.3826909890155
 30
0.0
 11
52.77583217244327
 21
-23.98308933096503
 31
0.0
  0
LINE
  5
10E
330
1F
100
AcDbEntity
  8
0
100
AcDbLine
 10
49.74055623485529
 20
-24.3826909890155
 30
0.0
 11
50.77583233244334
 21
-24.51898767295543
 31
0.0
  0
LINE
  5
10F
330
1F
100
AcDbEntity
  8
0
100
AcDbLine
 10
46.91212933638343
 20
-21.55426409054337
 30
0.0
 11
47.31173099443389
 21
-22.51898783295541
 31
0.0
  0
LINE
  5
110
330
1F
100
AcDbEntity
  8
0
100
AcDbLine
 10
46.7758326524435
 20
-20.51898799295541
 30
0.0
 11
46.91212933638343
 21
-21.55426409054337
 31
0.0
  0
LINE
  5
111
330
1F
100
AcDbEntity
  8
0
100
AcDbLine
 10
47.31173099443389
 20
-18.5189881529554
 30
0.0
 11
46.91212933638343
 21
-19.48371189536736
 31
0.0
  0
LINE
  5
112
330
1F
100
AcDbEntity
  8
0
100
AcDbLine
 10
48.77583249244342
 20
-17.05488665494569
 30
0.0
 11
47.94740543397148
 21
-17.69056109448336
 31
0.0
  0
LINE
  5
113
330
1F
100
AcDbEntity
  8
0
100
AcDbLine
 10
49.74055623485529
 20
-16.65528499689536
 30
0.0
 11
48.77583249244342
 21
-17.05488665494569
 31
0.0
  0
LINE
  5
114
330
1F
100
AcDbEntity
  8
0
100
AcDbLine
 10
50.77583233244334
 20
-16.51898831295534
 30
0.0
 11
49.74055623485529
 21
-16.65528499689536
 31
0.0
  0
LINE
  5
115
330
1F
100
AcDbEntity
  8
0
100
AcDbLine
 10
51.81110843003139
 20
-16.65528499689536
 30
0.0
 11
50.77583233244334
 21
-16.51898831295534
 31
0.0
  0
LINE
  5
116
330
1F
100
AcDbEntity
  8
0
100
AcDbLine
 10
-73.72415770755711
 20
-3.818989328955216
 30
0.0
 11
-73.72415770755713
 21
-44.81898604895559
 31
0.0
  0
LINE
  5
117
330
1F
100
AcDbEntity
  8
0
100
AcDbLine
 10
65.4310949958757
 20
-33.51898487150594
 30
0.0
 11
72.0310963851748
 21
-33.51898487150567
 31
0.0
  0
LINE
  5
118
330
1F
100
AcDbEntity
  8
0
100
AcDbLine
 10
65.4310949958757
 20
-13.51899063440514
 30
0.0
 11
65.4310949958757
 21
-33.51898487150594
 31
0.0
  0
LINE
  5
119
330
1F
100
AcDbEntity
  8
0
100
AcDbLine
 10
72.0310963851748
 20
-13.51899063440514
 30
0.0
 11
65.4310949958757
 21
-13.51899063440514
 31
0.0
  0
LINE
  5
11A
330
1F
100
AcDbEntity
  8
0
100
AcDbLine
 10
72.0310963851748
 20
-33.51898487150567
 30
0.0
 11
72.0310963851748
 21
-13.51899063440514
 31
0.0
  0
LINE
  5
11B
330
1F
100
AcDbEntity
  8
0
100
AcDbLine
 10
-95.24595962907476
 20
-33.51898487150576
 30
0.0
 11
-88.64595823977582
 21
-33.51898487150548
 31
0.0
  0
LINE
  5
11C
330
1F
100
AcDbEntity
  8
0
100
AcDbLine
 10
-95.24595962907476
 20
-13.51899063440495
 30
0.0
 11
-95.24595962907476
 21
-33.51898487150576
 31
0.0
  0
LINE
  5
11D
330
1F
100
AcDbEntity
  8
0
100
AcDbLine
 10
-93.5048045365296
 20
-4.61898926495522
 30
0.0
 11
-93.21875103873761
 21
-4.246197088642808
 31
0.0
  0
LINE
  5
11E
330
1F
100
AcDbEntity
  8
0
100
AcDbLine
 10
-93.21875103873761
 20
-4.246197088642808
 30
0.0
 11
-92.84595886242536
 21
-3.960143590850897
 31
0.0
  0
LINE
  5
11F
330
1F
100
AcDbEntity
  8
0
100
AcDbLine
 10
-91.48008469051075
 20
-3.780322844728187
 30
0.0
 11
-91.0459590064254
 21
-3.960143590850897
 31
0.0
  0
LINE
  5
120
330
1F
100
AcDbEntity
  8
0
100
AcDbLine
 10
-91.0459590064254
 20
-3.960143590850897
 30
0.0
 11
-90.6731668301128
 21
-4.246197088642808
 31
0.0
  0
LINE
  5
121
330
1F
100
AcDbEntity
  8
0
100
AcDbLine
 10
-83.83592833096175
 20
5.032121223522341
 30
0.0
 11
-83.47415692755716
 21
5.181971845291266
 31
0.0
  0
LINE
  5
122
330
1F
100
AcDbEntity
  8
0
100
AcDbLine
 10
-84.61238540415296
 20
5.032121223522341
 30
0.0
 11
-84.22415686755735
 21
4.981009967044915
 31
0.0
  0
LINE
  5
123
330
1F
100
AcDbEntity
  8
0
100
AcDbLine
 10
-85.28481695448436
 20
5.420349760117904
 30
0.0
 11
-84.97415680755718
 21
5.181971845291266
 31
0.0
  0
LINE
  5
124
330
1F
100
AcDbEntity
  8
0
100
AcDbLine
 10
-84.61238540415296
 20
-42.070097529433
 30
0.0
 11
-84.97415680755718
 21
-42.21994815120188
 31
0.0
  0
LINE
  5
125
330
1F
100
AcDbEntity
  8
0
100
AcDbLine
 10
-83.83592833096175
 20
-42.070097529433
 30
0.0
 11
-84.22415686755735
 21
-42.01898627295549
 31
0.0
  0
LINE
  5
126
330
1F
100
AcDbEntity
  8
0
100
AcDbLine
 10
-82.77526824403475
 20
-43.13075761635999
 30
0.0
 11
-82.92511886580363
 21
-42.7689862129555
 31
0.0
  0
LINE
  5
127
330
1F
100
AcDbEntity
  8
0
100
AcDbLine
 10
-82.72415698755732
 20
-43.51898615295551
 30
0.0
 11
-82.77526824403475
 21
-43.13075761635999
 31
0.0
  0
LINE
  5
128
330
1F
100
AcDbEntity
  8
0
100
AcDbLine
 10
-82.77526824403475
 20
-43.90721468955094
 30
0.0
 11
-82.72415698755732
 21
-43.51898615295551
 31
0.0
  0
LINE
  5
129
330
1F
100
AcDbEntity
  8
0
100
AcDbLine
 10
-83.16349678063035
 20
-44.57964623988251
 30
0.0
 11
-82.92511886580363
 21
-44.26898609295553
 31
0.0
  0
LINE
  5
12A
330
1F
100
AcDbEntity
  8
0
100
AcDbLine
 10
-83.47415692755716
 20
-44.81802415470906
 30
0.0
 11
-83.16349678063035
 21
-44.57964623988251
 31
0.0
  0
LINE
  5
12B
330
1F
100
AcDbEntity
  8
0
100
AcDbLine
 10
-84.61238540415296
 20
-44.96787477647803
 30
0.0
 11
-84.22415686755735
 21
-45.01898603295545
 31
0.0
  0
LINE
  5
12C
330
1F
100
AcDbEntity
  8
0
100
AcDbLine
 10
-84.97415680755718
 20
-44.81802415470906
 30
0.0
 11
-84.61238540415296
 21
-44.96787477647803
 31
0.0
  0
LINE
  5
12D
330
1F
100
AcDbEntity
  8
0
100
AcDbLine
 10
-85.28481695448436
 20
-44.57964623988251
 30
0.0
 11
-84.97415680755718
 21
-44.81802415470906
 31
0.0
  0
LINE
  5
12E
330
1F
100
AcDbEntity
  8
0
100
AcDbLine
 10
-85.52319486931071
 20
-44.26898609295553
 30
0.0
 11
-85.28481695448436
 21
-44.57964623988251
 31
0.0
  0
LINE
  5
12F
330
1F
100
AcDbEntity
  8
0
100
AcDbLine
 10
-85.67304549107996
 20
-43.90721468955094
 30
0.0
 11
-85.52319486931071
 21
-44.26898609295553
 31
0.0
  0
LINE
  5
130
330
1F
100
AcDbEntity
  8
0
100
AcDbLine
 10
-85.72415674755739
 20
-43.51898615295551
 30
0.0
 11
-85.67304549107996
 21
-43.90721468955094
 31
0.0
  0
LINE
  5
131
330
1F
100
AcDbEntity
  8
0
100
AcDbLine
 10
54.77583201244354
 20
-37.51898663295553
 30
0.0
 11
54.63953532850326
 21
-36.48371053536748
 31
0.0
  0
LINE
  5
132
330
1F
100
AcDbEntity
  8
0
100
AcDbLine
 10
54.23993367045315
 20
-39.51898647295554
 30
0.0
 11
54.63953532850326
 21
-38.55426273054358
 31
0.0
  0
LINE
  5
133
330
1F
100
AcDbEntity
  8
0
100
AcDbLine
 10
52.77583217244327
 20
-40.98308797096516
 30
0.0
 11
53.60425923091556
 21
-40.34741353142758
 31
0.0
  0
LINE
  5
134
330
1F
100
AcDbEntity
  8
0
100
AcDbLine
 10
67.83109576252508
 20
-3.960143590850897
 30
0.0
 11
68.26522144661044
 21
-3.780322844728232
 31
0.0
  0
LINE
  5
135
330
1F
100
AcDbEntity
  8
0
100
AcDbLine
 10
68.26522144661044
 20
-3.780322844728232
 30
0.0
 11
68.73109569052525
 21
-3.718989336955238
 31
0.0
  0
LINE
  5
136
330
1F
100
AcDbEntity
  8
0
100
AcDbLine
 10
68.73109569052525
 20
-3.718989336955238
 30
0.0
 11
69.1969699344397
 21
-3.780322844728232
 31
0.0
  0
LINE
  5
137
330
1F
100
AcDbEntity
  8
0
100
AcDbLine
 10
69.1969699344397
 20
-3.780322844728232
 30
0.0
 11
69.63109561852505
 21
-3.960143590850897
 31
0.0
  0
LINE
  5
138
330
1F
100
AcDbEntity
  8
0
100
AcDbLine
 10
69.63109561852505
 20
-3.960143590850897
 30
0.0
 11
70.00388779483765
 21
-4.246197088642808
 31
0.0
  0
LINE
  5
139
330
1F
100
AcDbEntity
  8
0
100
AcDbLine
 10
70.00388779483765
 20
-4.246197088642808
 30
0.0
 11
70.28994129262965
 21
-4.61898926495522
 31
0.0
  0
LINE
  5
13A
330
1F
100
AcDbEntity
  8
0
100
AcDbLine
 10
70.28994129262965
 20
-4.61898926495522
 30
0.0
 11
70.4697620387521
 21
-5.05311494904067
 31
0.0
  0
LINE
  5
13B
330
1F
100
AcDbEntity
  8
0
100
AcDbLine
 10
70.4697620387521
 20
-5.05311494904067
 30
0.0
 11
70.53109554652521
 21
-5.518989192955248
 31
0.0
  0
LINE
  5
13C
330
1F
100
AcDbEntity
  8
0
100
AcDbLine
 10
70.53109554652521
 20
-5.518989192955248
 30
0.0
 11
70.4697620387521
 21
-5.984863436869824
 31
0.0
  0
LINE
  5
13D
330
1F
100
AcDbEntity
  8
0
100
AcDbLine
 10
70.4697620387521
 20
-5.984863436869824
 30
0.0
 11
70.28994129262965
 21
-6.418989120955273
 31
0.0
  0
LINE
  5
13E
330
1F
100
AcDbEntity
  8
0
100
AcDbLine
 10
51.81110843003139
 20
-41.38268962901553
 30
0.0
 11
52.77583217244327
 21
-40.98308797096516
 31
0.0
  0
LINE
  5
13F
330
1F
100
AcDbEntity
  8
0
100
AcDbLine
 10
70.28994129262965
 20
-6.418989120955273
 30
0.0
 11
70.00388779483765
 21
-6.791781297267641
 31
0.0
  0
LINE
  5
140
330
1F
100
AcDbEntity
  8
0
100
AcDbLine
 10
70.00388779483765
 20
-6.791781297267641
 30
0.0
 11
69.63109561852505
 21
-7.077834795059552
 31
0.0
  0
LINE
  5
141
330
1F
100
AcDbEntity
  8
0
100
AcDbLine
 10
69.63109561852505
 20
-7.077834795059552
 30
0.0
 11
69.1969699344397
 21
-7.257655541182261
 31
0.0
  0
LINE
  5
142
330
1F
100
AcDbEntity
  8
0
100
AcDbLine
 10
69.1969699344397
 20
-7.257655541182261
 30
0.0
 11
68.73109569052525
 21
-7.318989048955256
 31
0.0
  0
LINE
  5
143
330
1F
100
AcDbEntity
  8
0
100
AcDbLine
 10
68.73109569052525
 20
-7.318989048955256
 30
0.0
 11
68.26522144661044
 21
-7.257655541182261
 31
0.0
  0
LINE
  5
144
330
1F
100
AcDbEntity
  8
0
100
AcDbLine
 10
68.26522144661044
 20
-7.257655541182261
 30
0.0
 11
67.83109576252508
 21
-7.077834795059552
 31
0.0
  0
LINE
  5
145
330
1F
100
AcDbEntity
  8
0
100
AcDbLine
 10
67.83109576252508
 20
-7.077834795059552
 30
0.0
 11
67.45830358621286
 21
-6.791781297267641
 31
0.0
  0
LINE
  5
146
330
1F
100
AcDbEntity
  8
0
100
AcDbLine
 10
67.45830358621286
 20
-6.791781297267641
 30
0.0
 11
67.17225008842085
 21
-6.418989120955273
 31
0.0
  0
LINE
  5
147
330
1F
100
AcDbEntity
  8
0
100
AcDbLine
 10
67.17225008842085
 20
-6.418989120955273
 30
0.0
 11
66.99242934229805
 21
-5.984863436869824
 31
0.0
  0
LINE
  5
148
330
1F
100
AcDbEntity
  8
0
100
AcDbLine
 10
-90.6731668301128
 20
-4.246197088642808
 30
0.0
 11
-90.38711333232098
 21
-4.61898926495522
 31
0.0
  0
LINE
  5
149
330
1F
100
AcDbEntity
  8
0
100
AcDbLine
 10
-90.38711333232098
 20
-4.61898926495522
 30
0.0
 11
-90.20729258619836
 21
-5.053114949040625
 31
0.0
  0
LINE
  5
14A
330
1F
100
AcDbEntity
  8
0
100
AcDbLine
 10
-90.20729258619836
 20
-5.053114949040625
 30
0.0
 11
-90.14595907842524
 21
-5.518989192955202
 31
0.0
  0
LINE
  5
14B
330
1F
100
AcDbEntity
  8
0
100
AcDbLine
 10
-90.14595907842524
 20
-5.518989192955202
 30
0.0
 11
-90.20729258619836
 21
-5.984863436869824
 31
0.0
  0
LINE
  5
14C
330
1F
100
AcDbEntity
  8
0
100
AcDbLine
 10
-90.6731668301128
 20
-6.791781297267641
 30
0.0
 11
-91.04595900642522
 21
-7.077834795059552
 31
0.0
  0
LINE
  5
14D
330
1F
100
AcDbEntity
  8
0
100
AcDbLine
 10
-91.04595900642522
 20
-7.077834795059552
 30
0.0
 11
-91.48008469051075
 21
-7.257655541182261
 31
0.0
  0
LINE
  5
14E
330
1F
100
AcDbEntity
  8
0
100
AcDbLine
 10
-91.48008469051075
 20
-7.257655541182261
 30
0.0
 11
-91.94595893442519
 21
-7.318989048955211
 31
0.0
  0
LINE
  5
14F
330
1F
100
AcDbEntity
  8
0
100
AcDbLine
 10
-91.94595893442519
 20
-7.318989048955211
 30
0.0
 11
-92.41183317833983
 21
-7.257655541182261
 31
0.0
  0
LINE
  5
150
330
1F
100
AcDbEntity
  8
0
100
AcDbLine
 10
-92.41183317833983
 20
-7.257655541182261
 30
0.0
 11
-92.84595886242536
 21
-7.077834795059552
 31
0.0
  0
LINE
  5
151
330
1F
100
AcDbEntity
  8
0
100
AcDbLine
 10
-92.84595886242536
 20
-7.077834795059552
 30
0.0
 11
-93.21875103873761
 21
-6.791781297267641
 31
0.0
  0
LINE
  5
152
330
1F
100
AcDbEntity
  8
0
100
AcDbLine
 10
-93.21875103873761
 20
-6.791781297267641
 30
0.0
 11
-93.5048045365296
 21
-6.418989120955228
 31
0.0
  0
LINE
  5
153
330
1F
100
AcDbEntity
  8
0
100
AcDbLine
 10
-9.332003528757525
 20
51.0834469934471
 30
0.0
 11
-4.851643842467174
 21
55.56380667973718
 31
0.0
  0
LINE
  5
154
330
1F
100
AcDbEntity
  8
0
100
AcDbLine
 10
-26.86334127122134
 20
48.32082681837961
 30
0.0
 11
-23.75206837951289
 21
45.20955392667143
 31
0.0
  0
LINE
  5
155
330
1F
100
AcDbEntity
  8
0
100
AcDbLine
 10
-16.07996337403231
 20
50.33607722399707
 30
0.0
 11
-17.35275422810973
 21
51.60886807807449
 31
0.0
  0
LINE
  5
156
330
1F
100
AcDbEntity
  8
0
100
AcDbLine
 10
-19.68620608884709
 20
46.72983450918193
 30
0.0
 11
-16.07996337403231
 21
50.33607722399707
 31
0.0
  0
LINE
  5
157
330
1F
100
AcDbEntity
  8
0
100
AcDbLine
 10
-24.07026983463314
 20
51.11389825496794
 30
0.0
 11
-26.86334127122134
 21
48.32082681837961
 31
0.0
  0
LINE
  5
158
330
1F
100
AcDbEntity
  8
0
100
AcDbLine
 10
-17.35275422810973
 20
51.60886807807449
 30
0.0
 11
-13.60508942074737
 21
55.35653288543676
 31
0.0
  0
LINE
  5
159
330
1F
100
AcDbEntity
  8
0
100
AcDbLine
 10
-17.4480006306901
 20
47.54093137809893
 30
0.0
 11
-20.96731851405046
 21
44.02161349473933
 31
0.0
  0
LINE
  5
15A
330
1F
100
AcDbEntity
  8
0
100
AcDbLine
 10
-1.1683302247456
 20
24.22262520543493
 30
0.0
 11
2.350987658614033
 21
27.74194308879483
 31
0.0
  0
LINE
  5
15B
330
1F
100
AcDbEntity
  8
0
100
AcDbLine
 10
-93.5048045365296
 20
-6.418989120955228
 30
0.0
 11
-93.6846252826524
 21
-5.984863436869824
 31
0.0
  0
LINE
  5
15C
330
1F
100
AcDbEntity
  8
0
100
AcDbLine
 10
-20.95899694292469
 20
48.00262536325918
 30
0.0
 11
-19.68620608884709
 21
46.72983450918193
 31
0.0
  0
LINE
  5
15D
330
1F
100
AcDbEntity
  8
0
100
AcDbLine
 10
-25.34306068871056
 20
52.38668910904577
 30
0.0
 11
-24.07026983463314
 21
51.11389825496794
 31
0.0
  0
LINE
  5
15E
330
1F
100
AcDbEntity
  8
0
100
AcDbLine
 10
-21.73681797389524
 20
55.99293182386028
 30
0.0
 11
-25.34306068871056
 21
52.38668910904577
 31
0.0
  0
LINE
  5
15F
330
1F
100
AcDbEntity
  8
0
100
AcDbLine
 10
-16.71636231245528
 20
58.46780577714531
 30
0.0
 11
-20.46402711981782
 21
54.72014096978286
 31
0.0
  0
LINE
  5
160
330
1F
100
AcDbEntity
  8
0
100
AcDbLine
 10
-35.11011625690423
 20
59.5284658640723
 30
0.0
 11
-17.77702239938282
 21
59.5284658640722
 31
0.0
  0
LINE
  5
161
330
1F
100
AcDbEntity
  8
0
100
AcDbLine
 10
-35.11011625690135
 20
35.72847010392834
 30
0.0
 11
-35.11011625690423
 21
59.5284658640723
 31
0.0
  0
LINE
  5
162
330
1F
100
AcDbEntity
  8
0
100
AcDbLine
 10
-35.11011625690135
 20
35.72847010392834
 30
0.0
 11
-29.81011785910174
 21
35.7284701039255
 31
0.0
  0
LINE
  5
163
330
1F
100
AcDbEntity
  8
0
100
AcDbLine
 10
-29.81011785910174
 20
35.7284701039255
 30
0.0
 11
-29.81011785910084
 21
37.52846819182606
 31
0.0
  0
LINE
  5
164
330
1F
100
AcDbEntity
  8
0
100
AcDbLine
 10
-29.81011785910084
 20
37.52846819182606
 30
0.0
 11
-24.71012050260013
 21
37.52846819182408
 31
0.0
  0
LINE
  5
165
330
1F
100
AcDbEntity
  8
0
100
AcDbLine
 10
-24.71012050260013
 20
37.52846819182408
 30
0.0
 11
-24.71012050260121
 21
35.72847010392279
 31
0.0
  0
LINE
  5
166
330
1F
100
AcDbEntity
  8
0
100
AcDbLine
 10
-93.6846252826524
 20
-5.984863436869824
 30
0.0
 11
-93.74595879042535
 21
-5.518989192955202
 31
0.0
  0
LINE
  5
167
330
1F
100
AcDbEntity
  8
0
100
AcDbLine
 10
-93.74595879042535
 20
-5.518989192955202
 30
0.0
 11
-93.6846252826524
 21
-5.053114949040625
 31
0.0
  0
LINE
  5
168
330
1F
100
AcDbEntity
  8
0
100
AcDbLine
 10
-93.6846252826524
 20
-5.053114949040625
 30
0.0
 11
-93.5048045365296
 21
-4.61898926495522
 31
0.0
  0
LINE
  5
169
330
1F
100
AcDbEntity
  8
0
100
AcDbLine
 10
67.17225008842085
 20
-4.61898926495522
 30
0.0
 11
67.45830358621286
 21
-4.246197088642808
 31
0.0
  0
LINE
  5
16A
330
1F
100
AcDbEntity
  8
0
100
AcDbLine
 10
67.45830358621286
 20
-4.246197088642808
 30
0.0
 11
67.83109576252508
 21
-3.960143590850897
 31
0.0
  0
LINE
  5
16B
330
1F
100
AcDbEntity
  8
0
100
AcDbLine
 10
66.99242934229805
 20
-5.984863436869824
 30
0.0
 11
66.9310958345253
 21
-5.518989192955248
 31
0.0
  0
LINE
  5
16C
330
1F
100
AcDbEntity
  8
0
100
AcDbLine
 10
66.9310958345253
 20
-5.518989192955248
 30
0.0
 11
66.99242934229805
 21
-5.05311494904067
 31
0.0
  0
LINE
  5
16D
330
1F
100
AcDbEntity
  8
0
100
AcDbLine
 10
66.99242934229805
 20
-5.05311494904067
 30
0.0
 11
67.17225008842085
 21
-4.61898926495522
 31
0.0
  0
LINE
  5
16E
330
1F
100
AcDbEntity
  8
0
100
AcDbLine
 10
59.32694290892105
 20
-43.90721468955103
 30
0.0
 11
59.47679353068994
 21
-44.26898609295553
 31
0.0
  0
LINE
  5
16F
330
1F
100
AcDbEntity
  8
0
100
AcDbLine
 10
-83.16349678063035
 20
5.420349760117904
 30
0.0
 11
-82.92511886580363
 21
5.731009907044885
 31
0.0
  0
LINE
  5
170
330
1F
100
AcDbEntity
  8
0
100
AcDbLine
 10
-82.92511886580363
 20
-42.7689862129555
 30
0.0
 11
-83.16349678063035
 21
-42.45832606602852
 31
0.0
  0
LINE
  5
171
330
1F
100
AcDbEntity
  8
0
100
AcDbLine
 10
-84.97415680755718
 20
-42.21994815120188
 30
0.0
 11
-85.28481695448436
 21
-42.45832606602852
 31
0.0
  0
LINE
  5
172
330
1F
100
AcDbEntity
  8
0
100
AcDbLine
 10
62.27583141244333
 20
6.481009847044854
 30
0.0
 11
62.2247201559659
 21
6.869238383640372
 31
0.0
  0
LINE
  5
173
330
1F
100
AcDbEntity
  8
0
100
AcDbLine
 10
48.77583249244342
 20
-40.98308797096516
 30
0.0
 11
49.74055623485529
 21
-41.38268962901553
 31
0.0
  0
LINE
  5
174
330
1F
100
AcDbEntity
  8
0
100
AcDbLine
 10
53.60425923091556
 20
-34.69055973448349
 30
0.0
 11
52.77583217244327
 21
-34.0548852949459
 31
0.0
  0
LINE
  5
175
330
1F
100
AcDbEntity
  8
0
100
AcDbLine
 10
-90.20729258619836
 20
-5.984863436869824
 30
0.0
 11
-90.38711333232098
 21
-6.418989120955228
 31
0.0
  0
LINE
  5
176
330
1F
100
AcDbEntity
  8
0
100
AcDbLine
 10
-90.38711333232098
 20
-6.418989120955228
 30
0.0
 11
-90.6731668301128
 21
-6.791781297267641
 31
0.0
  0
LINE
  5
177
330
1F
100
AcDbEntity
  8
0
100
AcDbLine
 10
-17.77702239938282
 20
59.5284658640722
 30
0.0
 11
-16.71636231245528
 21
58.46780577714531
 31
0.0
  0
LINE
  5
178
330
1F
100
AcDbEntity
  8
0
100
AcDbLine
 10
2.350987658614033
 20
27.74194308879483
 30
0.0
 11
-17.4480006306901
 21
47.54093137809893
 31
0.0
  0
LINE
  5
179
330
1F
100
AcDbEntity
  8
0
100
AcDbLine
 10
-50.96400683382706
 20
52.10441718385142
 30
0.0
 11
-48.17093539723905
 21
49.31134574726272
 31
0.0
  0
LINE
  5
17A
330
1F
100
AcDbEntity
  8
0
100
AcDbLine
 10
-55.34807057961312
 20
47.72035343806532
 30
0.0
 11
-58.95431329442791
 21
51.32659615288046
 31
0.0
  0
LINE
  5
17B
330
1F
100
AcDbEntity
  8
0
100
AcDbLine
 10
-54.57024954864221
 20
55.71065989866611
 30
0.0
 11
-53.29745869456497
 21
56.98345075274398
 31
0.0
  0
LINE
  5
17C
330
1F
100
AcDbEntity
  8
0
100
AcDbLine
 10
-65.70227313970287
 20
52.07396592233034
 30
0.0
 11
-61.42918724771266
 21
56.34705181431993
 31
0.0
  0
LINE
  5
17D
330
1F
100
AcDbEntity
  8
0
100
AcDbLine
 10
-65.70227313970287
 20
52.07396592233034
 30
0.0
 11
-70.18263282599267
 21
56.55432560862006
 31
0.0
  0
LINE
  5
17E
330
1F
100
AcDbEntity
  8
0
100
AcDbLine
 10
-70.18263282599267
 20
56.55432560862006
 30
0.0
 11
-83.90050033996813
 21
42.83645809464497
 31
0.0
  0
LINE
  5
17F
330
1F
100
AcDbEntity
  8
0
100
AcDbLine
 10
-83.90050033996813
 20
42.83645809464497
 30
0.0
 11
-79.4201406536776
 21
38.35609840835498
 31
0.0
  0
LINE
  5
180
330
1F
100
AcDbEntity
  8
0
100
AcDbLine
 10
-39.92416041155688
 20
19.05208335447628
 30
0.0
 11
-98.72415570755724
 21
19.05208335447606
 31
0.0
  0
LINE
  5
181
330
1F
100
AcDbEntity
  8
0
100
AcDbLine
 10
-51.28220828894715
 20
46.20007285555458
 30
0.0
 11
-54.07527972553535
 21
48.99314429214274
 31
0.0
  0
LINE
  5
182
330
1F
100
AcDbEntity
  8
0
100
AcDbLine
 10
-49.69121597974983
 20
53.37720803792902
 30
0.0
 11
-50.96400683382706
 21
52.10441718385142
 31
0.0
  0
LINE
  5
183
330
1F
100
AcDbEntity
  8
0
100
AcDbLine
 10
-39.92416041155254
 20
32.3189847131179
 30
0.0
 11
-45.22415880935305
 21
32.31898471311357
 31
0.0
  0
LINE
  5
184
330
1F
100
AcDbEntity
  8
0
100
AcDbLine
 10
-45.22415880935305
 20
32.31898471311357
 30
0.0
 11
-45.22415880935196
 21
30.51898662521269
 31
0.0
  0
LINE
  5
185
330
1F
100
AcDbEntity
  8
0
100
AcDbLine
 10
-58.95431329442791
 20
51.32659615288046
 30
0.0
 11
-57.68152244035083
 21
52.59938700695748
 31
0.0
  0
LINE
  5
186
330
1F
100
AcDbEntity
  8
0
100
AcDbLine
 10
-53.29745869456497
 20
56.98345075274398
 30
0.0
 11
-49.69121597974983
 21
53.37720803792902
 31
0.0
  0
LINE
  5
187
330
1F
100
AcDbEntity
  8
0
100
AcDbLine
 10
-57.68152244035083
 20
52.59938700695748
 30
0.0
 11
-61.42918724771266
 21
56.34705181431993
 31
0.0
  0
LINE
  5
188
330
1F
100
AcDbEntity
  8
0
100
AcDbLine
 10
-54.07527972553535
 20
48.99314429214274
 30
0.0
 11
-55.34807057961312
 21
47.72035343806532
 31
0.0
  0
LINE
  5
189
330
1F
100
AcDbEntity
  8
0
100
AcDbLine
 10
-48.17093539723905
 20
49.31134574726272
 30
0.0
 11
-51.28220828894715
 21
46.20007285555458
 31
0.0
  0
LINE
  5
18A
330
1F
100
AcDbEntity
  8
0
100
AcDbLine
 10
-58.31791435600456
 20
59.45832470602855
 30
0.0
 11
-54.57024954864221
 21
55.71065989866611
 31
0.0
  0
LINE
  5
18B
330
1F
100
AcDbEntity
  8
0
100
AcDbLine
 10
-45.22415880935196
 20
30.51898662521269
 30
0.0
 11
-50.3241561658516
 21
30.51898662520876
 31
0.0
  0
LINE
  5
18C
330
1F
100
AcDbEntity
  8
0
100
AcDbLine
 10
-50.3241561658516
 20
30.51898662520876
 30
0.0
 11
-50.32415616585341
 21
32.31898471310942
 31
0.0
  0
LINE
  5
18D
330
1F
100
AcDbEntity
  8
0
100
AcDbLine
 10
-50.32415616585341
 20
32.31898471310942
 30
0.0
 11
-54.27415567215333
 21
32.31898471310657
 31
0.0
  0
LINE
  5
18E
330
1F
100
AcDbEntity
  8
0
100
AcDbLine
 10
-39.92416041155688
 20
19.05208335447628
 30
0.0
 11
-39.92416041155254
 21
32.3189847131179
 31
0.0
  0
LINE
  5
18F
330
1F
100
AcDbEntity
  8
0
100
AcDbLine
 10
-54.27415567215333
 20
32.31898471310657
 30
0.0
 11
-54.27415567215711
 21
36.71898903280401
 31
0.0
  0
LINE
  5
190
330
1F
100
AcDbEntity
  8
0
100
AcDbLine
 10
-54.27415567215711
 20
36.71898903280401
 30
0.0
 11
-50.32415616585702
 21
36.71898903280735
 31
0.0
  0
LINE
  5
191
330
1F
100
AcDbEntity
  8
0
100
AcDbLine
 10
-50.32415616585702
 20
36.71898903280735
 30
0.0
 11
-50.32415616585828
 21
38.5189871207085
 31
0.0
  0
LINE
  5
192
330
1F
100
AcDbEntity
  8
0
100
AcDbLine
 10
-50.32415616585828
 20
38.5189871207085
 30
0.0
 11
-45.22415880935774
 21
38.51898712071202
 31
0.0
  0
LINE
  5
193
330
1F
100
AcDbEntity
  8
0
100
AcDbLine
 10
-45.22415880935774
 20
38.51898712071202
 30
0.0
 11
-45.2241588093563
 21
36.71898903281132
 31
0.0
  0
LINE
  5
194
330
1F
100
AcDbEntity
  8
0
100
AcDbLine
 10
-45.2241588093563
 20
36.71898903281132
 30
0.0
 11
-39.92416041155615
 21
36.71898903281534
 31
0.0
  0
LINE
  5
195
330
1F
100
AcDbEntity
  8
0
100
AcDbLine
 10
-39.92416041155615
 20
36.71898903281534
 30
0.0
 11
-39.9241604115567
 21
60.51898479295564
 31
0.0
  0
LINE
  5
196
330
1F
100
AcDbEntity
  8
0
100
AcDbLine
 10
-39.9241604115567
 20
60.51898479295564
 30
0.0
 11
-57.25725426907739
 21
60.51898479295528
 31
0.0
  0
LINE
  5
197
330
1F
100
AcDbEntity
  8
0
100
AcDbLine
 10
-57.25725426907739
 20
60.51898479295528
 30
0.0
 11
-58.31791435600456
 21
59.45832470602855
 31
0.0
  0
LINE
  5
198
330
1F
100
AcDbEntity
  8
0
100
AcDbLine
 10
-98.72415570755724
 20
19.05208335447606
 30
0.0
 11
-79.4201406536776
 21
38.35609840835498
 31
0.0
  0
LINE
  5
199
330
1F
100
AcDbEntity
  8
0
100
AcDbLine
 10
-16.68054547414981
 20
30.3146182451528
 30
0.0
 11
-16.72951477714426
 21
30.35196994609687
 31
0.0
  0
LINE
  5
19A
330
1F
100
AcDbEntity
  8
0
100
AcDbLine
 10
-17.39828491365735
 20
30.46422430312168
 30
0.0
 11
-17.19570828967239
 21
30.47945072218812
 31
0.0
  0
LINE
  5
19B
330
1F
100
AcDbEntity
  8
0
100
AcDbLine
 10
-17.56287922840119
 20
30.43032965154623
 30
0.0
 11
-17.64058622414438
 21
30.39791539296684
 31
0.0
  0
LINE
  5
19C
330
1F
100
AcDbEntity
  8
0
100
AcDbLine
 10
-17.77386177970262
 20
28.12901460323901
 30
0.0
 11
-17.72474657731851
 21
28.09160795944091
 31
0.0
  0
LINE
  5
19D
330
1F
100
AcDbEntity
  8
0
100
AcDbLine
 10
-17.81959513806059
 20
28.17048772753416
 30
0.0
 11
-17.77386177970262
 21
28.12901460323901
 31
0.0
  0
LINE
  5
19E
330
1F
100
AcDbEntity
  8
0
100
AcDbLine
 10
-17.87815519345379
 20
29.51819914661228
 30
0.0
 11
-17.84874064298889
 21
29.48777549280343
 31
0.0
  0
LINE
  5
19F
330
1F
100
AcDbEntity
  8
0
100
AcDbLine
 10
-16.68873799917142
 20
28.0931966945543
 30
0.0
 11
-16.62196557943509
 21
28.14426134236205
 31
0.0
  0
LINE
  5
1A0
330
1F
100
AcDbEntity
  8
0
100
AcDbLine
 10
-17.78319939184169
 20
29.4343293060674
 30
0.0
 11
-17.74747920913093
 21
29.41163827177567
 31
0.0
  0
LINE
  5
1A1
330
1F
100
AcDbEntity
  8
0
100
AcDbLine
 10
-16.83610485157433
 20
30.41347946879652
 30
0.0
 11
-16.89294713585864
 21
30.43718805197776
 31
0.0
  0
LINE
  5
1A2
330
1F
100
AcDbEntity
  8
0
100
AcDbLine
 10
-17.86161101415886
 20
28.21572296005415
 30
0.0
 11
-17.81959513806059
 21
28.17048772753416
 31
0.0
  0
LINE
  5
1A3
330
1F
100
AcDbEntity
  8
0
100
AcDbLine
 10
-16.95160615026719
 20
30.45595670210957
 30
0.0
 11
-17.01165347508772
 21
30.46964834120349
 31
0.0
  0
LINE
  5
1A4
330
1F
100
AcDbEntity
  8
0
100
AcDbLine
 10
-17.71351699963776
 20
30.35584208393758
 30
0.0
 11
-17.78047704434511
 21
30.30479883012843
 31
0.0
  0
LINE
  5
1A5
330
1F
100
AcDbEntity
  8
0
100
AcDbLine
 10
-16.65568429178495
 20
29.03679481780027
 30
0.0
 11
-16.69307942694224
 21
29.05660450668941
 31
0.0
  0
LINE
  5
1A6
330
1F
100
AcDbEntity
  8
0
100
AcDbLine
 10
-17.6178346451763
 20
28.03006036765327
 30
0.0
 11
-17.5608225446982
 21
28.00637111894229
 31
0.0
  0
LINE
  5
1A7
330
1F
100
AcDbEntity
  8
0
100
AcDbLine
 10
-16.59304397603322
 20
30.2280829738641
 30
0.0
 11
-16.6349441898534
 21
30.27322180726676
 31
0.0
  0
LINE
  5
1A8
330
1F
100
AcDbEntity
  8
0
100
AcDbLine
 10
-17.38061338843469
 20
27.96561492373694
 30
0.0
 11
-17.31895592221858
 21
27.96246580238167
 31
0.0
  0
LINE
  5
1A9
330
1F
100
AcDbEntity
  8
0
100
AcDbLine
 10
-17.93516046047721
 20
30.10685985619134
 30
0.0
 11
-17.96850613492234
 21
30.02954797261294
 31
0.0
  0
LINE
  5
1AA
330
1F
100
AcDbEntity
  8
0
100
AcDbLine
 10
-17.44177507016625
 20
27.97402971982517
 30
0.0
 11
-17.38061338843469
 21
27.96561492373694
 31
0.0
  0
LINE
  5
1AB
330
1F
100
AcDbEntity
  8
0
100
AcDbLine
 10
-17.98485863706032
 20
29.69939453918137
 30
0.0
 11
-17.96937229265648
 21
29.6600119589313
 31
0.0
  0
LINE
  5
1AC
330
1F
100
AcDbEntity
  8
0
100
AcDbLine
 10
-16.51056477545578
 20
28.26971698262059
 30
0.0
 11
-16.46775509453429
 21
28.34205981580048
 31
0.0
  0
LINE
  5
1AD
330
1F
100
AcDbEntity
  8
0
100
AcDbLine
 10
-17.67260998857751
 20
28.05854232441172
 30
0.0
 11
-17.6178346451763
 21
28.03006036765327
 31
0.0
  0
LINE
  5
1AE
330
1F
100
AcDbEntity
  8
0
100
AcDbLine
 10
-16.6349441898534
 20
30.27322180726676
 30
0.0
 11
-16.68054547414981
 21
30.3146182451528
 31
0.0
  0
LINE
  5
1AF
330
1F
100
AcDbEntity
  8
0
100
AcDbLine
 10
-16.41140026863571
 20
28.50008952945504
 30
0.0
 11
-16.39877515929105
 21
28.58319645399929
 31
0.0
  0
LINE
  5
1B0
330
1F
100
AcDbEntity
  8
0
100
AcDbLine
 10
-8.759553144135205
 20
28.98542122635154
 30
0.0
 11
-12.30682183491892
 21
25.43815253556765
 31
0.0
  0
LINE
  5
1B1
330
1F
100
AcDbEntity
  8
0
100
AcDbLine
 10
-16.58614025089486
 20
28.98867207414806
 30
0.0
 11
-16.61996404824034
 21
29.0141037599048
 31
0.0
  0
LINE
  5
1B2
330
1F
100
AcDbEntity
  8
0
100
AcDbLine
 10
-17.89960105245699
 20
28.26438831832436
 30
0.0
 11
-17.86161101415886
 21
28.21572296005415
 31
0.0
  0
LINE
  5
1B3
330
1F
100
AcDbEntity
  8
0
100
AcDbLine
 10
-16.72951477714426
 20
30.35196994609687
 30
0.0
 11
-16.78149444852594
 21
30.38500410965851
 31
0.0
  0
LINE
  5
1B4
330
1F
100
AcDbEntity
  8
0
100
AcDbLine
 10
-17.31895592221858
 20
27.96246580238167
 30
0.0
 11
-17.25725517716799
 21
27.96460546723755
 31
0.0
  0
LINE
  5
1B5
330
1F
100
AcDbEntity
  8
0
100
AcDbLine
 10
-17.72474657731851
 20
28.09160795944091
 30
0.0
 11
-17.67260998857751
 21
28.05854232441172
 31
0.0
  0
LINE
  5
1B6
330
1F
100
AcDbEntity
  8
0
100
AcDbLine
 10
-17.50199210033884
 20
27.98764843425325
 30
0.0
 11
-17.44177507016625
 21
27.97402971982517
 31
0.0
  0
LINE
  5
1B7
330
1F
100
AcDbEntity
  8
0
100
AcDbLine
 10
-17.90508434181426
 20
29.55084321894873
 30
0.0
 11
-17.87815519345379
 21
29.51819914661228
 31
0.0
  0
LINE
  5
1B8
330
1F
100
AcDbEntity
  8
0
100
AcDbLine
 10
-17.81702313343089
 20
29.4597609594747
 30
0.0
 11
-17.78319939184169
 21
29.4343293060674
 31
0.0
  0
LINE
  5
1B9
330
1F
100
AcDbEntity
  8
0
100
AcDbLine
 10
-8.759553144135205
 20
28.98542122635154
 30
0.0
 11
-9.758069500152159
 21
28.61007504169859
 31
0.0
  0
LINE
  5
1BA
330
1F
100
AcDbEntity
  8
0
100
AcDbLine
 10
-17.84036964047842
 20
30.24562165315058
 30
0.0
 11
-17.89221382579603
 21
30.17927979761801
 31
0.0
  0
LINE
  5
1BB
330
1F
100
AcDbEntity
  8
0
100
AcDbLine
 10
-17.39828491365735
 20
30.46422430312168
 30
0.0
 11
-17.48166875117229
 21
30.45255395659608
 31
0.0
  0
LINE
  5
1BC
330
1F
100
AcDbEntity
  8
0
100
AcDbLine
 10
-17.89221382579603
 20
30.17927979761801
 30
0.0
 11
-17.93516046047721
 21
30.10685985619134
 31
0.0
  0
LINE
  5
1BD
330
1F
100
AcDbEntity
  8
0
100
AcDbLine
 10
-17.99170469068018
 20
29.94861041422693
 30
0.0
 11
-18.00437616580644
 21
29.86537283218155
 31
0.0
  0
LINE
  5
1BE
330
1F
100
AcDbEntity
  8
0
100
AcDbLine
 10
-16.45232843876944
 20
28.82646256088726
 30
0.0
 11
-16.47380216977697
 21
28.86292759597444
 31
0.0
  0
LINE
  5
1BF
330
1F
100
AcDbEntity
  8
0
100
AcDbLine
 10
-16.41830457069566
 20
28.74903809136178
 30
0.0
 11
-16.43379091277928
 21
28.78842074130038
 31
0.0
  0
LINE
  5
1C0
330
1F
100
AcDbEntity
  8
0
100
AcDbLine
 10
-17.96937229265648
 20
29.6600119589313
 30
0.0
 11
-17.95083477437218
 21
29.6219702067894
 31
0.0
  0
LINE
  5
1C1
330
1F
100
AcDbEntity
  8
0
100
AcDbLine
 10
-16.55515085347254
 20
30.17953141918485
 30
0.0
 11
-16.59304397603322
 21
30.2280829738641
 31
0.0
  0
LINE
  5
1C2
330
1F
100
AcDbEntity
  8
0
100
AcDbLine
 10
-16.43451939284466
 20
28.4192708410906
 30
0.0
 11
-16.41140026863571
 21
28.50008952945504
 31
0.0
  0
LINE
  5
1C3
330
1F
100
AcDbEntity
  8
0
100
AcDbLine
 10
-17.95083477437218
 20
29.6219702067894
 30
0.0
 11
-17.92936106070081
 21
29.58550523577227
 31
0.0
  0
LINE
  5
1C4
330
1F
100
AcDbEntity
  8
0
100
AcDbLine
 10
-8.759553144135205
 20
28.98542122635154
 30
0.0
 11
-9.13489932878793
 21
27.98690487033481
 31
0.0
  0
LINE
  5
1C5
330
1F
100
AcDbEntity
  8
0
100
AcDbLine
 10
-17.71008413883738
 20
29.39182859717136
 30
0.0
 11
-16.69307942694224
 21
29.05660450668941
 31
0.0
  0
LINE
  5
1C6
330
1F
100
AcDbEntity
  8
0
100
AcDbLine
 10
-17.0726505509973
 20
30.47816297153322
 30
0.0
 11
-17.13415188210749
 21
30.48143840597399
 31
0.0
  0
LINE
  5
1C7
330
1F
100
AcDbEntity
  8
0
100
AcDbLine
 10
-16.39685013328399
 20
28.66723418439349
 30
0.0
 11
-16.40596546645848
 21
28.70855888171124
 31
0.0
  0
LINE
  5
1C8
330
1F
100
AcDbEntity
  8
0
100
AcDbLine
 10
-17.00324575186768
 20
27.98433361195978
 30
0.0
 11
-16.9200247689459
 21
27.99618360329872
 31
0.0
  0
LINE
  5
1C9
330
1F
100
AcDbEntity
  8
0
100
AcDbLine
 10
-17.13415188210749
 20
30.48143840597399
 30
0.0
 11
-17.19570828967239
 21
30.47945072218812
 31
0.0
  0
LINE
  5
1CA
330
1F
100
AcDbEntity
  8
0
100
AcDbLine
 10
-16.61996404824034
 20
29.0141037599048
 30
0.0
 11
-16.65568429178495
 21
29.03679481780027
 31
0.0
  0
LINE
  5
1CB
330
1F
100
AcDbEntity
  8
0
100
AcDbLine
 10
-17.99719775392049
 20
29.73987367807101
 30
0.0
 11
-17.98485863706032
 21
29.69939453918137
 31
0.0
  0
LINE
  5
1CC
330
1F
100
AcDbEntity
  8
0
100
AcDbLine
 10
-17.84874064298889
 20
29.48777549280343
 30
0.0
 11
-17.81702313343089
 21
29.4597609594747
 31
0.0
  0
LINE
  5
1CD
330
1F
100
AcDbEntity
  8
0
100
AcDbLine
 10
-16.89294713585864
 20
30.43718805197776
 30
0.0
 11
-16.95160615026719
 21
30.45595670210957
 31
0.0
  0
LINE
  5
1CE
330
1F
100
AcDbEntity
  8
0
100
AcDbLine
 10
-16.83899411694362
 20
28.01854848043101
 30
0.0
 11
-16.76147668322224
 21
28.05106311963259
 31
0.0
  0
LINE
  5
1CF
330
1F
100
AcDbEntity
  8
0
100
AcDbLine
 10
-17.74747920913093
 20
29.41163827177567
 30
0.0
 11
-17.71008413883738
 21
29.39182859717136
 31
0.0
  0
LINE
  5
1D0
330
1F
100
AcDbEntity
  8
0
100
AcDbLine
 10
-16.62196557943509
 20
28.14426134236205
 30
0.0
 11
-16.56224953483128
 21
28.20342339362799
 31
0.0
  0
LINE
  5
1D1
330
1F
100
AcDbEntity
  8
0
100
AcDbLine
 10
-16.76147668322224
 20
28.05106311963259
 30
0.0
 11
-16.68873799917142
 21
28.0931966945543
 31
0.0
  0
LINE
  5
1D2
330
1F
100
AcDbEntity
  8
0
100
AcDbLine
 10
-18.00437616580644
 20
29.86537283218155
 30
0.0
 11
-18.00631311017321
 21
29.78119830475434
 31
0.0
  0
LINE
  5
1D3
330
1F
100
AcDbEntity
  8
0
100
AcDbLine
 10
-16.39877515929105
 20
28.58319645399929
 30
0.0
 11
-16.39685013328399
 21
28.66723418439349
 31
0.0
  0
LINE
  5
1D4
330
1F
100
AcDbEntity
  8
0
100
AcDbLine
 10
-16.78149444852594
 20
30.38500410965851
 30
0.0
 11
-16.83610485157433
 21
30.41347946879652
 31
0.0
  0
LINE
  5
1D5
330
1F
100
AcDbEntity
  8
0
100
AcDbLine
 10
-16.40596546645848
 20
28.70855888171124
 30
0.0
 11
-16.41830457069566
 21
28.74903809136178
 31
0.0
  0
LINE
  5
1D6
330
1F
100
AcDbEntity
  8
0
100
AcDbLine
 10
-17.5608225446982
 20
28.00637111894229
 30
0.0
 11
-17.50199210033884
 21
27.98764843425325
 31
0.0
  0
LINE
  5
1D7
330
1F
100
AcDbEntity
  8
0
100
AcDbLine
 10
-17.64058622414438
 20
30.39791539296684
 30
0.0
 11
-17.71351699963776
 21
30.35584208393758
 31
0.0
  0
LINE
  5
1D8
330
1F
100
AcDbEntity
  8
0
100
AcDbLine
 10
-16.5544226916403
 20
28.96065750040088
 30
0.0
 11
-16.58614025089486
 21
28.98867207414806
 31
0.0
  0
LINE
  5
1D9
330
1F
100
AcDbEntity
  8
0
100
AcDbLine
 10
-16.56224953483128
 20
28.20342339362799
 30
0.0
 11
-16.51056477545578
 21
28.26971698262059
 31
0.0
  0
LINE
  5
1DA
330
1F
100
AcDbEntity
  8
0
100
AcDbLine
 10
-17.92936106070081
 20
29.58550523577227
 30
0.0
 11
-17.90508434181426
 21
29.55084321894873
 31
0.0
  0
LINE
  5
1DB
330
1F
100
AcDbEntity
  8
0
100
AcDbLine
 10
-17.48166875117229
 20
30.45255395659608
 30
0.0
 11
-17.56287922840119
 21
30.43032965154623
 31
0.0
  0
LINE
  5
1DC
330
1F
100
AcDbEntity
  8
0
100
AcDbLine
 10
-18.00631311017321
 20
29.78119830475434
 30
0.0
 11
-17.99719775392049
 21
29.73987367807101
 31
0.0
  0
LINE
  5
1DD
330
1F
100
AcDbEntity
  8
0
100
AcDbLine
 10
-16.47380216977697
 20
28.86292759597444
 30
0.0
 11
-16.49807891512085
 21
28.89758967240986
 31
0.0
  0
LINE
  5
1DE
330
1F
100
AcDbEntity
  8
0
100
AcDbLine
 10
-17.01165347508772
 20
30.46964834120349
 30
0.0
 11
-17.0726505509973
 21
30.47816297153322
 31
0.0
  0
LINE
  5
1DF
330
1F
100
AcDbEntity
  8
0
100
AcDbLine
 10
-16.46775509453429
 20
28.34205981580048
 30
0.0
 11
-16.43451939284466
 21
28.4192708410906
 31
0.0
  0
LINE
  5
1E0
330
1F
100
AcDbEntity
  8
0
100
AcDbLine
 10
-17.96850613492234
 20
30.02954797261294
 30
0.0
 11
-17.99170469068018
 21
29.94861041422693
 31
0.0
  0
LINE
  5
1E1
330
1F
100
AcDbEntity
  8
0
100
AcDbLine
 10
-17.25725517716799
 20
27.96460546723755
 30
0.0
 11
-17.00324575186768
 21
27.98433361195978
 31
0.0
  0
LINE
  5
1E2
330
1F
100
AcDbEntity
  8
0
100
AcDbLine
 10
-17.78047704434511
 20
30.30479883012843
 30
0.0
 11
-17.84036964047842
 21
30.24562165315058
 31
0.0
  0
LINE
  5
1E3
330
1F
100
AcDbEntity
  8
0
100
AcDbLine
 10
-16.9200247689459
 20
27.99618360329872
 30
0.0
 11
-16.83899411694362
 21
28.01854848043101
 31
0.0
  0
LINE
  5
1E4
330
1F
100
AcDbEntity
  8
0
100
AcDbLine
 10
-16.43379091277928
 20
28.78842074130038
 30
0.0
 11
-16.45232843876944
 21
28.82646256088726
 31
0.0
  0
LINE
  5
1E5
330
1F
100
AcDbEntity
  8
0
100
AcDbLine
 10
-16.52500809843862
 20
28.93023379888221
 30
0.0
 11
-16.5544226916403
 21
28.96065750040088
 31
0.0
  0
LINE
  5
1E6
330
1F
100
AcDbEntity
  8
0
100
AcDbLine
 10
-16.49807891512085
 20
28.89758967240986
 30
0.0
 11
-16.52500809843862
 21
28.93023379888221
 31
0.0
  0
ENDSEC
  0
SECTION
  2
OBJECTS
  0
DICTIONARY
  5
C
330
0
100
AcDbDictionary
281
     1
  3
ACAD_GROUP
350
D
  3
ACAD_LAYOUT
350
1A
  3
ACAD_MATERIAL
350
3B
  3
ACAD_MLEADERSTYLE
350
1E8
  3
ACAD_MLINESTYLE
350
17
  3
ACAD_PLOTSETTINGS
350
19
  3
ACAD_PLOTSTYLENAME
350
E
  3
ACAD_TABLESTYLE
350
1E7
  3
ACAD_VISUALSTYLE
350
2A
  0
DICTIONARY
  5
D
102
{ACAD_REACTORS
330
C
102
}
330
C
100
AcDbDictionary
281
     1
  0
DICTIONARY
  5
1A
102
{ACAD_REACTORS
330
C
102
}
330
C
100
AcDbDictionary
281
     1
  3
Layout1
350
1E
  3
Layout2
350
26
  3
Model
350
22
  0
DICTIONARY
  5
3B
102
{ACAD_REACTORS
330
C
102
}
330
C
100
AcDbDictionary
281
     1
  3
ByBlock
350
3D
  3
ByLayer
350
3C
  3
Global
350
3E
  0
DICTIONARY
  5
1E8
102
{ACAD_REACTORS
330
C
102
}
330
C
100
AcDbDictionary
281
     1
  0
DICTIONARY
  5
17
102
{ACAD_REACTORS
330
C
102
}
330
C
100
AcDbDictionary
281
     1
  3
Standard
350
18
  0
DICTIONARY
  5
19
102
{ACAD_REACTORS
330
C
102
}
330
C
100
AcDbDictionary
281
     1
  0
ACDBDICTIONARYWDFLT
  5
E
102
{ACAD_REACTORS
330
C
102
}
330
C
100
AcDbDictionary
281
     1
  3
Normal
350
F
100
AcDbDictionaryWithDefault
340
F
  0
DICTIONARY
  5
1E7
102
{ACAD_REACTORS
330
C
102
}
330
C
100
AcDbDictionary
281
     1
  0
DICTIONARY
  5
2A
102
{ACAD_REACTORS
330
C
102
}
330
C
100
AcDbDictionary
281
     1
  3
2dWireframe
350
2F
  3
3D Hidden
350
31
  3
3dWireframe
350
30
  3
Basic
350
32
  3
Brighten
350
36
  3
ColorChange
350
3A
  3
Conceptual
350
34
  3
Dim
350
35
  3
Facepattern
350
39
  3
Flat
350
2B
  3
FlatWithEdges
350
2C
  3
Gouraud
350
2D
  3
GouraudWithEdges
350
2E
  3
Linepattern
350
38
  3
Realistic
350
33
  3
Thicken
350
37
  0
LAYOUT
  5
1E
102
{ACAD_REACTORS
330
1A
102
}
330
1A
100
AcDbPlotSettings
  1

  2
none_device
  4

  6

 40
0.0
 41
0.0
 42
0.0
 43
0.0
 44
0.0
 45
0.0
 46
0.0
 47
0.0
 48
0.0
 49
0.0
140
0.0
141
0.0
142
1.0
143
1.0
 70
   688
 72
     0
 73
     0
 74
     5
  7

 75
    16
 76
     0
 77
     2
 78
   300
147
1.0
148
0.0
149
0.0
100
AcDbLayout
  1
Layout1
 70
     1
 71
     1
 10
0.0
 20
0.0
 11
12.0
 21
9.0
 12
0.0
 22
0.0
 32
0.0
 14
1.000000000000000E+20
 24
1.000000000000000E+20
 34
1.000000000000000E+20
 15
-1.000000000000000E+20
 25
-1.000000000000000E+20
 35
-1.000000000000000E+20
146
0.0
 13
0.0
 23
0.0
 33
0.0
 16
1.0
 26
0.0
 36
0.0
 17
0.0
 27
1.0
 37
0.0
 76
     0
330
1B
  0
LAYOUT
  5
26
102
{ACAD_REACTORS
330
1A
102
}
330
1A
100
AcDbPlotSettings
  1

  2
none_device
  4

  6

 40
0.0
 41
0.0
 42
0.0
 43
0.0
 44
0.0
 45
0.0
 46
0.0
 47
0.0
 48
0.0
 49
0.0
140
0.0
141
0.0
142
1.0
143
1.0
 70
   688
 72
     0
 73
     0
 74
     5
  7

 75
    16
 76
     0
 77
     2
 78
   300
147
1.0
148
0.0
149
0.0
100
AcDbLayout
  1
Layout2
 70
     1
 71
     2
 10
0.0
 20
0.0
 11
0.0
 21
0.0
 12
0.0
 22
0.0
 32
0.0
 14
0.0
 24
0.0
 34
0.0
 15
0.0
 25
0.0
 35
0.0
146
0.0
 13
0.0
 23
0.0
 33
0.0
 16
1.0
 26
0.0
 36
0.0
 17
0.0
 27
1.0
 37
0.0
 76
     0
330
23
  0
LAYOUT
  5
22
102
{ACAD_REACTORS
330
1A
102
}
330
1A
100
AcDbPlotSettings
  1

  2
none_device
  4

  6

 40
0.0
 41
0.0
 42
0.0
 43
0.0
 44
0.0
 45
0.0
 46
0.0
 47
0.0
 48
0.0
 49
0.0
140
0.0
141
0.0
142
1.0
143
1.0
 70
  1712
 72
     0
 73
     0
 74
     0
  7

 75
     0
 76
     0
 77
     2
 78
   300
147
1.0
148
0.0
149
0.0
100
AcDbLayout
  1
Model
 70
     1
 71
     0
 10
0.0
 20
0.0
 11
12.0
 21
9.0
 12
0.0
 22
0.0
 32
0.0
 14
1.000000000000000E+20
 24
1.000000000000000E+20
 34
1.000000000000000E+20
 15
-1.000000000000000E+20
 25
-1.000000000000000E+20
 35
-1.000000000000000E+20
146
0.0
 13
0.0
 23
0.0
 33
0.0
 16
1.0
 26
0.0
 36
0.0
 17
0.0
 27
1.0
 37
0.0
 76
     0
330
1F
331
29
  0
MATERIAL
  5
3D
102
{ACAD_REACTORS
330
3B
102
}
330
3B
100
AcDbMaterial
  1
ByBlock
 72
     1
 94
      127
  0
MATERIAL
  5
3C
102
{ACAD_REACTORS
330
3B
102
}
330
3B
100
AcDbMaterial
  1
ByLayer
 72
     1
 94
      127
  0
MATERIAL
  5
3E
102
{ACAD_REACTORS
330
3B
102
}
330
3B
100
AcDbMaterial
  1
Global
 72
     1
 94
      127
  0
MLINESTYLE
  5
18
102
{ACAD_REACTORS
330
17
102
}
330
17
100
AcDbMlineStyle
  2
Standard
 70
     0
  3

 62
   256
 51
90.0
 52
90.0
 71
     2
 49
0.5
 62
   256
  6
BYLAYER
 49
-0.5
 62
   256
  6
BYLAYER
  0
ACDBPLACEHOLDER
  5
F
102
{ACAD_REACTORS
330
E
102
}
330
E
  0
VISUALSTYLE
  5
2F
102
{ACAD_REACTORS
330
2A
102
}
330
2A
100
AcDbVisualStyle
  2
2dWireframe
 70
     4
177
     2
291
     0
 71
     0
176
     1
 72
     2
176
     1
 73
     0
176
     1
 90
        0
176
     1
 40
-0.6
176
     1
 41
-30.0
176
     1
 62
     5
 63
     7
421
 16777215
176
     1
 74
     1
176
     1
 91
        4
176
     1
 64
     7
176
     1
 65
   257
176
     1
 75
     1
176
     1
175
     1
176
     1
 42
1.0
176
     1
 92
        0
176
     1
 66
   257
176
     1
 43
1.0
176
     1
 76
     1
176
     1
 77
     6
176
     1
 78
     2
176
     1
 67
     7
176
     1
 79
     5
176
     1
170
     0
176
     1
171
     0
176
     1
290
     0
176
     1
 93
        1
176
     1
 44
0.0
176
     1
173
     0
176
     1
  0
VISUALSTYLE
  5
31
102
{ACAD_REACTORS
330
2A
102
}
330
2A
100
AcDbVisualStyle
  2
3D Hidden
 70
     6
177
     2
291
     0
 71
     1
176
     1
 72
     2
176
     1
 73
     2
176
     1
 90
        0
176
     1
 40
-0.6
176
     1
 41
-30.0
176
     1
 62
     5
 63
     7
421
 16777215
176
     1
 74
     2
176
     1
 91
        2
176
     1
 64
     7
176
     1
 65
   257
176
     1
 75
     2
176
     1
175
     1
176
     1
 42
40.0
176
     1
 92
        0
176
     1
 66
   257
176
     1
 43
1.0
176
     1
 76
     1
176
     1
 77
     6
176
     1
 78
     2
176
     1
 67
     7
176
     1
 79
     3
176
     1
170
     0
176
     1
171
     0
176
     1
290
     0
176
     1
 93
        1
176
     1
 44
0.0
176
     1
173
     0
176
     1
  0
VISUALSTYLE
  5
30
102
{ACAD_REACTORS
330
2A
102
}
330
2A
100
AcDbVisualStyle
  2
3dWireframe
 70
     5
177
     2
291
     0
 71
     0
176
     1
 72
     2
176
     1
 73
     0
176
     1
 90
        0
176
     1
 40
-0.6
176
     1
 41
-30.0
176
     1
 62
     5
 63
     7
421
 16777215
176
     1
 74
     1
176
     1
 91
        4
176
     1
 64
     7
176
     1
 65
   257
176
     1
 75
     1
176
     1
175
     1
176
     1
 42
1.0
176
     1
 92
        0
176
     1
 66
   257
176
     1
 43
1.0
176
     1
 76
     1
176
     1
 77
     6
176
     1
 78
     2
176
     1
 67
     7
176
     1
 79
     5
176
     1
170
     0
176
     1
171
     0
176
     1
290
     0
176
     1
 93
        1
176
     1
 44
0.0
176
     1
173
     0
176
     1
  0
VISUALSTYLE
  5
32
102
{ACAD_REACTORS
330
2A
102
}
330
2A
100
AcDbVisualStyle
  2
Basic
 70
     7
177
     2
291
     1
 71
     1
176
     1
 72
     0
176
     1
 73
     1
176
     1
 90
        0
176
     1
 40
-0.6
176
     1
 41
-30.0
176
     1
 62
     5
 63
     7
421
 16777215
176
     1
 74
     0
176
     1
 91
        4
176
     1
 64
     7
176
     1
 65
   257
176
     1
 75
     1
176
     1
175
     1
176
     1
 42
1.0
176
     1
 92
        8
176
     1
 66
     7
176
     1
 43
1.0
176
     1
 76
     1
176
     1
 77
     6
176
     1
 78
     2
176
     1
 67
     7
176
     1
 79
     5
176
     1
170
     0
176
     1
171
     0
176
     1
290
     0
176
     1
 93
        1
176
     1
 44
0.0
176
     1
173
     0
176
     1
  0
VISUALSTYLE
  5
36
102
{ACAD_REACTORS
330
2A
102
}
330
2A
100
AcDbVisualStyle
  2
Brighten
 70
    12
177
     2
291
     1
 71
     2
176
     1
 72
     2
176
     1
 73
     0
176
     1
 90
        0
176
     1
 40
-0.6
176
     1
 41
-30.0
176
     1
 62
     5
 63
     7
421
 16777215
176
     1
 74
     1
176
     1
 91
        4
176
     1
 64
     7
176
     1
 65
   257
176
     1
 75
     1
176
     1
175
     1
176
     1
 42
1.0
176
     1
 92
        8
176
     1
 66
     7
176
     1
 43
1.0
176
     1
 76
     1
176
     1
 77
     6
176
     1
 78
     2
176
     1
 67
     7
176
     1
 79
     5
176
     1
170
     0
176
     1
171
     0
176
     1
290
     0
176
     1
 93
        1
176
     1
 44
50.0
176
     1
173
     0
176
     1
  0
VISUALSTYLE
  5
3A
102
{ACAD_REACTORS
330
2A
102
}
330
2A
100
AcDbVisualStyle
  2
ColorChange
 70
    16
177
     2
291
     1
 71
     2
176
     1
 72
     2
176
     1
 73
     3
176
     1
 90
        0
176
     1
 40
-0.6
176
     1
 41
-30.0
176
     1
 62
     5
 63
     8
421
  8421504
176
     1
 74
     1
176
     1
 91
        4
176
     1
 64
     7
176
     1
 65
   257
176
     1
 75
     1
176
     1
175
     1
176
     1
 42
1.0
176
     1
 92
        8
176
     1
 66
     8
424
  8421504
176
     1
 43
1.0
176
     1
 76
     1
176
     1
 77
     6
176
     1
 78
     2
176
     1
 67
     7
176
     1
 79
     5
176
     1
170
     0
176
     1
171
     0
176
     1
290
     0
176
     1
 93
        1
176
     1
 44
0.0
176
     1
173
     0
176
     1
  0
VISUALSTYLE
  5
34
102
{ACAD_REACTORS
330
2A
102
}
330
2A
100
AcDbVisualStyle
  2
Conceptual
 70
     9
177
     2
291
     0
 71
     3
176
     1
 72
     2
176
     1
 73
     0
176
     1
 90
        0
176
     1
 40
-0.6
176
     1
 41
-30.0
176
     1
 62
     5
 63
     7
421
 16777215
176
     1
 74
     2
176
     1
 91
        2
176
     1
 64
     7
176
     1
 65
   257
176
     1
 75
     1
176
     1
175
     1
176
     1
 42
40.0
176
     1
 92
        8
176
     1
 66
     7
176
     1
 43
1.0
176
     1
 76
     1
176
     1
 77
     6
176
     1
 78
     2
176
     1
 67
     7
176
     1
 79
     3
176
     1
170
     0
176
     1
171
     0
176
     1
290
     0
176
     1
 93
        1
176
     1
 44
0.0
176
     1
173
     0
176
     1
  0
VISUALSTYLE
  5
35
102
{ACAD_REACTORS
330
2A
102
}
330
2A
100
AcDbVisualStyle
  2
Dim
 70
    11
177
     2
291
     1
 71
     2
176
     1
 72
     2
176
     1
 73
     0
176
     1
 90
        0
176
     1
 40
-0.6
176
     1
 41
-30.0
176
     1
 62
     5
 63
     7
421
 16777215
176
     1
 74
     1
176
     1
 91
        4
176
     1
 64
     7
176
     1
 65
   257
176
     1
 75
     1
176
     1
175
     1
176
     1
 42
1.0
176
     1
 92
        8
176
     1
 66
     7
176
     1
 43
1.0
176
     1
 76
     1
176
     1
 77
     6
176
     1
 78
     2
176
     1
 67
     7
176
     1
 79
     5
176
     1
170
     0
176
     1
171
     0
176
     1
290
     0
176
     1
 93
        1
176
     1
 44
-50.0
176
     1
173
     0
176
     1
  0
VISUALSTYLE
  5
39
102
{ACAD_REACTORS
330
2A
102
}
330
2A
100
AcDbVisualStyle
  2
Facepattern
 70
    15
177
     2
291
     1
 71
     2
176
     1
 72
     2
176
     1
 73
     0
176
     1
 90
        0
176
     1
 40
-0.6
176
     1
 41
-30.0
176
     1
 62
     5
 63
     7
421
 16777215
176
     1
 74
     1
176
     1
 91
        4
176
     1
 64
     7
176
     1
 65
   257
176
     1
 75
     1
176
     1
175
     1
176
     1
 42
1.0
176
     1
 92
        8
176
     1
 66
     7
176
     1
 43
1.0
176
     1
 76
     1
176
     1
 77
     6
176
     1
 78
     2
176
     1
 67
     7
176
     1
 79
     5
176
     1
170
     0
176
     1
171
     0
176
     1
290
     0
176
     1
 93
        1
176
     1
 44
0.0
176
     1
173
     0
176
     1
  0
VISUALSTYLE
  5
2B
102
{ACAD_REACTORS
330
2A
102
}
330
2A
100
AcDbVisualStyle
  2
Flat
 70
     0
177
     2
291
     1
 71
     2
176
     1
 72
     1
176
     1
 73
     1
176
     1
 90
        2
176
     1
 40
-0.6
176
     1
 41
30.0
176
     1
 62
     5
 63
     7
421
 16777215
176
     1
 74
     0
176
     1
 91
        4
176
     1
 64
     7
176
     1
 65
   257
176
     1
 75
     1
176
     1
175
     1
176
     1
 42
1.0
176
     1
 92
        8
176
     1
 66
     7
176
     1
 43
1.0
176
     1
 76
     1
176
     1
 77
     6
176
     1
 78
     2
176
     1
 67
     7
176
     1
 79
     5
176
     1
170
     0
176
     1
171
     0
176
     1
290
     0
176
     1
 93
       13
176
     1
 44
0.0
176
     1
173
     0
176
     1
  0
VISUALSTYLE
  5
2C
102
{ACAD_REACTORS
330
2A
102
}
330
2A
100
AcDbVisualStyle
  2
FlatWithEdges
 70
     1
177
     2
291
     1
 71
     2
176
     1
 72
     1
176
     1
 73
     1
176
     1
 90
        2
176
     1
 40
-0.6
176
     1
 41
30.0
176
     1
 62
     5
 63
     7
421
 16777215
176
     1
 74
     1
176
     1
 91
        4
176
     1
 64
     7
176
     1
 65
   257
176
     1
 75
     1
176
     1
175
     1
176
     1
 42
1.0
176
     1
 92
        0
176
     1
 66
   257
176
     1
 43
1.0
176
     1
 76
     1
176
     1
 77
     6
176
     1
 78
     2
176
     1
 67
     7
176
     1
 79
     5
176
     1
170
     0
176
     1
171
     0
176
     1
290
     0
176
     1
 93
       13
176
     1
 44
0.0
176
     1
173
     0
176
     1
  0
VISUALSTYLE
  5
2D
102
{ACAD_REACTORS
330
2A
102
}
330
2A
100
AcDbVisualStyle
  2
Gouraud
 70
     2
177
     2
291
     1
 71
     2
176
     1
 72
     2
176
     1
 73
     1
176
     1
 90
        2
176
     1
 40
-0.6
176
     1
 41
30.0
176
     1
 62
     5
 63
     7
421
 16777215
176
     1
 74
     0
176
     1
 91
        4
176
     1
 64
     7
176
     1
 65
   257
176
     1
 75
     1
176
     1
175
     1
176
     1
 42
1.0
176
     1
 92
        0
176
     1
 66
     7
176
     1
 43
1.0
176
     1
 76
     1
176
     1
 77
     6
176
     1
 78
     2
176
     1
 67
     7
176
     1
 79
     5
176
     1
170
     0
176
     1
171
     0
176
     1
290
     0
176
     1
 93
       13
176
     1
 44
0.0
176
     1
173
     0
176
     1
  0
VISUALSTYLE
  5
2E
102
{ACAD_REACTORS
330
2A
102
}
330
2A
100
AcDbVisualStyle
  2
GouraudWithEdges
 70
     3
177
     2
291
     1
 71
     2
176
     1
 72
     2
176
     1
 73
     1
176
     1
 90
        2
176
     1
 40
-0.6
176
     1
 41
30.0
176
     1
 62
     5
 63
     7
421
 16777215
176
     1
 74
     1
176
     1
 91
        4
176
     1
 64
     7
176
     1
 65
   257
176
     1
 75
     1
176
     1
175
     1
176
     1
 42
1.0
176
     1
 92
        0
176
     1
 66
   257
176
     1
 43
1.0
176
     1
 76
     1
176
     1
 77
     6
176
     1
 78
     2
176
     1
 67
     7
176
     1
 79
     5
176
     1
170
     0
176
     1
171
     0
176
     1
290
     0
176
     1
 93
       13
176
     1
 44
0.0
176
     1
173
     0
176
     1
  0
VISUALSTYLE
  5
38
102
{ACAD_REACTORS
330
2A
102
}
330
2A
100
AcDbVisualStyle
  2
Linepattern
 70
    14
177
     2
291
     1
 71
     2
176
     1
 72
     2
176
     1
 73
     0
176
     1
 90
        0
176
     1
 40
-0.6
176
     1
 41
-30.0
176
     1
 62
     5
 63
     7
421
 16777215
176
     1
 74
     1
176
     1
 91
        4
176
     1
 64
     7
176
     1
 65
   257
176
     1
 75
     7
176
     1
175
     7
176
     1
 42
1.0
176
     1
 92
        8
176
     1
 66
     7
176
     1
 43
1.0
176
     1
 76
     1
176
     1
 77
     6
176
     1
 78
     2
176
     1
 67
     7
176
     1
 79
     5
176
     1
170
     0
176
     1
171
     0
176
     1
290
     0
176
     1
 93
        1
176
     1
 44
0.0
176
     1
173
     0
176
     1
  0
VISUALSTYLE
  5
33
102
{ACAD_REACTORS
330
2A
102
}
330
2A
100
AcDbVisualStyle
  2
Realistic
 70
     8
177
     2
291
     0
 71
     2
176
     1
 72
     2
176
     1
 73
     0
176
     1
 90
        0
176
     1
 40
-0.6
176
     1
 41
-30.0
176
     1
 62
     5
 63
     7
421
 16777215
176
     1
 74
     1
176
     1
 91
        0
176
     1
 64
     7
176
     1
 65
   257
176
     1
 75
     1
176
     1
175
     1
176
     1
 42
1.0
176
     1
 92
        8
176
     1
 66
     8
424
  7895160
176
     1
 43
1.0
176
     1
 76
     1
176
     1
 77
     6
176
     1
 78
     2
176
     1
 67
     7
176
     1
 79
     5
176
     1
170
     0
176
     1
171
     0
176
     1
290
     0
176
     1
 93
       13
176
     1
 44
0.0
176
     1
173
     0
176
     1
  0
VISUALSTYLE
  5
37
102
{ACAD_REACTORS
330
2A
102
}
330
2A
100
AcDbVisualStyle
  2
Thicken
 70
    13
177
     2
291
     1
 71
     2
176
     1
 72
     2
176
     1
 73
     0
176
     1
 90
        0
176
     1
 40
-0.6
176
     1
 41
-30.0
176
     1
 62
     5
 63
     7
421
 16777215
176
     1
 74
     1
176
     1
 91
        4
176
     1
 64
     7
176
     1
 65
   257
176
     1
 75
     1
176
     1
175
     1
176
     1
 42
1.0
176
     1
 92
       12
176
     1
 66
     7
176
     1
 43
1.0
176
     1
 76
     1
176
     1
 77
     6
176
     1
 78
     2
176
     1
 67
     7
176
     1
 79
     5
176
     1
170
     0
176
     1
171
     0
176
     1
290
     0
176
     1
 93
        1
176
     1
 44
0.0
176
     1
173
     0
176
     1
  0
ENDSEC
  0
EOF
