  0
SECTION
  2
HEADER
  9
$ACADVER
  1
AC1024
  9
$ACADMAINTVER
 70
     6
  9
$DWGCODEPAGE
  3
ANSI_1252
  9
$INSBASE
 10
0.0
 20
0.0
 30
0.0
  9
$EXTMIN
 10
1.000000000000000E+20
 20
1.000000000000000E+20
 30
1.000000000000000E+20
  9
$EXTMAX
 10
-1.000000000000000E+20
 20
-1.000000000000000E+20
 30
-1.000000000000000E+20
  9
$LIMMIN
 10
0.0
 20
0.0
  9
$LIMMAX
 10
12.0
 20
9.0
  9
$ORTHOMODE
 70
     0
  9
$REGENMODE
 70
     1
  9
$FILLMODE
 70
     1
  9
$QTEXTMODE
 70
     0
  9
$MIRRTEXT
 70
     1
  9
$LTSCALE
 40
1.0
  9
$ATTMODE
 70
     1
  9
$TEXTSIZE
 40
0.2
  9
$TRACEWID
 40
0.05
  9
$TEXTSTYLE
  7
Standard
  9
$CLAYER
  8
0
  9
$CELTYPE
  6
ByLayer
  9
$CECOLOR
 62
   256
  9
$CELTSCALE
 40
1.0
  9
$DISPSILH
 70
     0
  9
$DIMSCALE
 40
1.0
  9
$DIMASZ
 40
0.18
  9
$DIMEXO
 40
0.0625
  9
$DIMDLI
 40
0.38
  9
$DIMRND
 40
0.0
  9
$DIMDLE
 40
0.0
  9
$DIMEXE
 40
0.18
  9
$DIMTP
 40
0.0
  9
$DIMTM
 40
0.0
  9
$DIMTXT
 40
0.18
  9
$DIMCEN
 40
0.09
  9
$DIMTSZ
 40
0.0
  9
$DIMTOL
 70
     0
  9
$DIMLIM
 70
     0
  9
$DIMTIH
 70
     1
  9
$DIMTOH
 70
     1
  9
$DIMSE1
 70
     0
  9
$DIMSE2
 70
     0
  9
$DIMTAD
 70
     0
  9
$DIMZIN
 70
     0
  9
$DIMBLK
  1

  9
$DIMASO
 70
     1
  9
$DIMSHO
 70
     1
  9
$DIMPOST
  1

  9
$DIMAPOST
  1

  9
$DIMALT
 70
     0
  9
$DIMALTD
 70
     2
  9
$DIMALTF
 40
25.4
  9
$DIMLFAC
 40
1.0
  9
$DIMTOFL
 70
     0
  9
$DIMTVP
 40
0.0
  9
$DIMTIX
 70
     0
  9
$DIMSOXD
 70
     0
  9
$DIMSAH
 70
     0
  9
$DIMBLK1
  1

  9
$DIMBLK2
  1

  9
$DIMSTYLE
  2
Standard
  9
$DIMCLRD
 70
     0
  9
$DIMCLRE
 70
     0
  9
$DIMCLRT
 70
     0
  9
$DIMTFAC
 40
1.0
  9
$DIMGAP
 40
0.09
  9
$DIMJUST
 70
     0
  9
$DIMSD1
 70
     0
  9
$DIMSD2
 70
     0
  9
$DIMTOLJ
 70
     1
  9
$DIMTZIN
 70
     0
  9
$DIMALTZ
 70
     0
  9
$DIMALTTZ
 70
     0
  9
$DIMUPT
 70
     0
  9
$DIMDEC
 70
     4
  9
$DIMTDEC
 70
     4
  9
$DIMALTU
 70
     2
  9
$DIMALTTD
 70
     2
  9
$DIMTXSTY
  7
Standard
  9
$DIMAUNIT
 70
     0
  9
$DIMADEC
 70
     0
  9
$DIMALTRND
 40
0.0
  9
$DIMAZIN
 70
     0
  9
$DIMDSEP
 70
    46
  9
$DIMATFIT
 70
     3
  9
$DIMFRAC
 70
     0
  9
$DIMLDRBLK
  1

  9
$DIMLUNIT
 70
     2
  9
$DIMLWD
 70
    -2
  9
$DIMLWE
 70
    -2
  9
$DIMTMOVE
 70
     0
  9
$DIMFXL
 40
1.0
  9
$DIMFXLON
 70
     0
  9
$DIMJOGANG
 40
0.7853981633974483
  9
$DIMTFILL
 70
     0
  9
$DIMTFILLCLR
 70
     0
  9
$DIMARCSYM
 70
     0
  9
$DIMLTYPE
  6

  9
$DIMLTEX1
  6

  9
$DIMLTEX2
  6

  9
$DIMTXTDIRECTION
 70
     0
  9
$LUNITS
 70
     2
  9
$LUPREC
 70
     4
  9
$SKETCHINC
 40
0.1
  9
$FILLETRAD
 40
0.5
  9
$AUNITS
 70
     0
  9
$AUPREC
 70
     0
  9
$MENU
  1
.
  9
$ELEVATION
 40
0.0
  9
$PELEVATION
 40
0.0
  9
$THICKNESS
 40
0.0
  9
$LIMCHECK
 70
     0
  9
$CHAMFERA
 40
0.5
  9
$CHAMFERB
 40
0.5
  9
$CHAMFERC
 40
1.0
  9
$CHAMFERD
 40
0.0
  9
$SKPOLY
 70
     0
  9
$TDCREATE
 40
2456396.700720174
  9
$TDUCREATE
 40
2456396.86738684
  9
$TDUPDATE
 40
2456396.700720185
  9
$TDUUPDATE
 40
2456396.867386852
  9
$TDINDWG
 40
0.0000000116
  9
$TDUSRTIMER
 40
0.0000000116
  9
$USRTIMER
 70
     1
  9
$ANGBASE
 50
0.0
  9
$ANGDIR
 70
     0
  9
$PDMODE
 70
     0
  9
$PDSIZE
 40
0.0
  9
$PLINEWID
 40
0.0
  9
$SPLFRAME
 70
     0
  9
$SPLINETYPE
 70
     6
  9
$SPLINESEGS
 70
     8
  9
$HANDSEED
  5
192
  9
$SURFTAB1
 70
     6
  9
$SURFTAB2
 70
     6
  9
$SURFTYPE
 70
     6
  9
$SURFU
 70
     6
  9
$SURFV
 70
     6
  9
$UCSBASE
  2

  9
$UCSNAME
  2

  9
$UCSORG
 10
0.0
 20
0.0
 30
0.0
  9
$UCSXDIR
 10
1.0
 20
0.0
 30
0.0
  9
$UCSYDIR
 10
0.0
 20
1.0
 30
0.0
  9
$UCSORTHOREF
  2

  9
$UCSORTHOVIEW
 70
     0
  9
$UCSORGTOP
 10
0.0
 20
0.0
 30
0.0
  9
$UCSORGBOTTOM
 10
0.0
 20
0.0
 30
0.0
  9
$UCSORGLEFT
 10
0.0
 20
0.0
 30
0.0
  9
$UCSORGRIGHT
 10
0.0
 20
0.0
 30
0.0
  9
$UCSORGFRONT
 10
0.0
 20
0.0
 30
0.0
  9
$UCSORGBACK
 10
0.0
 20
0.0
 30
0.0
  9
$PUCSBASE
  2

  9
$PUCSNAME
  2

  9
$PUCSORG
 10
0.0
 20
0.0
 30
0.0
  9
$PUCSXDIR
 10
1.0
 20
0.0
 30
0.0
  9
$PUCSYDIR
 10
0.0
 20
1.0
 30
0.0
  9
$PUCSORTHOREF
  2

  9
$PUCSORTHOVIEW
 70
     0
  9
$PUCSORGTOP
 10
0.0
 20
0.0
 30
0.0
  9
$PUCSORGBOTTOM
 10
0.0
 20
0.0
 30
0.0
  9
$PUCSORGLEFT
 10
0.0
 20
0.0
 30
0.0
  9
$PUCSORGRIGHT
 10
0.0
 20
0.0
 30
0.0
  9
$PUCSORGFRONT
 10
0.0
 20
0.0
 30
0.0
  9
$PUCSORGBACK
 10
0.0
 20
0.0
 30
0.0
  9
$USERI1
 70
     0
  9
$USERI2
 70
     0
  9
$USERI3
 70
     0
  9
$USERI4
 70
     0
  9
$USERI5
 70
     0
  9
$USERR1
 40
0.0
  9
$USERR2
 40
0.0
  9
$USERR3
 40
0.0
  9
$USERR4
 40
0.0
  9
$USERR5
 40
0.0
  9
$WORLDVIEW
 70
     1
  9
$SHADEDGE
 70
     3
  9
$SHADEDIF
 70
    70
  9
$TILEMODE
 70
     1
  9
$MAXACTVP
 70
    64
  9
$PINSBASE
 10
0.0
 20
0.0
 30
0.0
  9
$PLIMCHECK
 70
     0
  9
$PEXTMIN
 10
1.000000000000000E+20
 20
1.000000000000000E+20
 30
1.000000000000000E+20
  9
$PEXTMAX
 10
-1.000000000000000E+20
 20
-1.000000000000000E+20
 30
-1.000000000000000E+20
  9
$PLIMMIN
 10
0.0
 20
0.0
  9
$PLIMMAX
 10
12.0
 20
9.0
  9
$UNITMODE
 70
     0
  9
$VISRETAIN
 70
     1
  9
$PLINEGEN
 70
     0
  9
$PSLTSCALE
 70
     1
  9
$TREEDEPTH
 70
  3020
  9
$CMLSTYLE
  2
Standard
  9
$CMLJUST
 70
     0
  9
$CMLSCALE
 40
1.0
  9
$PROXYGRAPHICS
 70
     1
  9
$MEASUREMENT
 70
     0
  9
$CELWEIGHT
370
    -1
  9
$ENDCAPS
280
     0
  9
$JOINSTYLE
280
     0
  9
$LWDISPLAY
290
     0
  9
$INSUNITS
 70
     1
  9
$HYPERLINKBASE
  1

  9
$STYLESHEET
  1

  9
$XEDIT
290
     1
  9
$CEPSNTYPE
380
     0
  9
$PSTYLEMODE
290
     1
  9
$FINGERPRINTGUID
  2
{0D5FF749-C5CB-41E3-AAC1-2CF107F333C7}
  9
$VERSIONGUID
  2
{FAEB1C32-E019-11D5-929B-00C0DF256EC4}
  9
$EXTNAMES
290
     1
  9
$PSVPSCALE
 40
0.0
  9
$OLESTARTUP
290
     0
  9
$SORTENTS
280
   127
  9
$INDEXCTL
280
     0
  9
$HIDETEXT
280
     1
  9
$XCLIPFRAME
280
     2
  9
$HALOGAP
280
     0
  9
$OBSCOLOR
 70
   257
  9
$OBSLTYPE
280
     0
  9
$INTERSECTIONDISPLAY
280
     0
  9
$INTERSECTIONCOLOR
 70
   257
  9
$DIMASSOC
280
     2
  9
$PROJECTNAME
  1

  9
$CAMERADISPLAY
290
     0
  9
$LENSLENGTH
 40
50.0
  9
$CAMERAHEIGHT
 40
0.0
  9
$STEPSPERSEC
 40
2.0
  9
$STEPSIZE
 40
6.0
  9
$3DDWFPREC
 40
2.0
  9
$PSOLWIDTH
 40
0.25
  9
$PSOLHEIGHT
 40
4.0
  9
$LOFTANG1
 40
1.570796326794897
  9
$LOFTANG2
 40
1.570796326794897
  9
$LOFTMAG1
 40
0.0
  9
$LOFTMAG2
 40
0.0
  9
$LOFTPARAM
 70
     7
  9
$LOFTNORMALS
280
     1
  9
$LATITUDE
 40
37.795
  9
$LONGITUDE
 40
-122.394
  9
$NORTHDIRECTION
 40
0.0
  9
$TIMEZONE
 70
 -8000
  9
$LIGHTGLYPHDISPLAY
280
     1
  9
$TILEMODELIGHTSYNCH
280
     1
  9
$SOLIDHIST
280
     1
  9
$SHOWHIST
280
     1
  9
$DWFFRAME
280
     2
  9
$DGNFRAME
280
     2
  9
$REALWORLDSCALE
290
     1
  9
$INTERFERECOLOR
 62
   256
  9
$CSHADOW
280
     0
  9
$SHADOWPLANELOCATION
 40
0.0
  0
ENDSEC
  0
SECTION
  2
CLASSES
  0
CLASS
  1
ACDBDICTIONARYWDFLT
  2
AcDbDictionaryWithDefault
  3
ObjectDBX Classes
 90
        0
 91
        4
280
     0
281
     0
  0
CLASS
  1
VISUALSTYLE
  2
AcDbVisualStyle
  3
ObjectDBX Classes
 90
     4095
 91
        4
280
     0
281
     0
  0
CLASS
  1
MATERIAL
  2
AcDbMaterial
  3
ObjectDBX Classes
 90
     1153
 91
        4
280
     0
281
     0
  0
ENDSEC
  0
SECTION
  2
TABLES
  0
TABLE
  2
VPORT
  5
8
330
0
100
AcDbSymbolTable
 70
     1
  0
VPORT
  5
29
330
8
100
AcDbSymbolTableRecord
100
AcDbViewportTableRecord
  2
*Active
 70
     0
 10
0.0
 20
0.0
 11
1.0
 21
1.0
 12
0.0
 22
0.0
 13
0.0
 23
0.0
 14
0.5
 24
0.5
 15
0.5
 25
0.5
 16
0.0
 26
0.0
 36
1.0
 17
0.0
 27
0.0
 37
-1000.0
 40
159.8194707126407
 41
1.822857142857143
 42
50.0
 43
3630.952640271642
 44
4465.771002541252
 50
0.0
 51
0.0
 71
     0
 72
   100
 73
     1
 74
     3
 75
     0
 76
     0
 77
     0
 78
     0
281
     0
 65
     1
110
0.0
120
0.0
130
0.0
111
1.0
121
0.0
131
0.0
112
0.0
122
1.0
132
0.0
 79
     0
146
0.0
 60
     3
 61
     5
292
     1
282
     1
141
0.0
142
0.0
 63
   250
  0
ENDTAB
  0
TABLE
  2
LTYPE
  5
5
330
0
100
AcDbSymbolTable
 70
     1
  0
LTYPE
  5
14
330
5
100
AcDbSymbolTableRecord
100
AcDbLinetypeTableRecord
  2
ByBlock
 70
     0
  3

 72
    65
 73
     0
 40
0.0
  0
LTYPE
  5
15
330
5
100
AcDbSymbolTableRecord
100
AcDbLinetypeTableRecord
  2
ByLayer
 70
     0
  3

 72
    65
 73
     0
 40
0.0
  0
LTYPE
  5
16
330
5
100
AcDbSymbolTableRecord
100
AcDbLinetypeTableRecord
  2
Continuous
 70
     0
  3
Solid line
 72
    65
 73
     0
 40
0.0
  0
ENDTAB
  0
TABLE
  2
LAYER
  5
2
330
0
100
AcDbSymbolTable
 70
     3
  0
LAYER
  5
10
330
2
100
AcDbSymbolTableRecord
100
AcDbLayerTableRecord
  2
0
 70
     0
 62
     7
  6
Continuous
370
    -3
390
F
347
3E
  0
LAYER
  5
3F
330
2
100
AcDbSymbolTableRecord
100
AcDbLayerTableRecord
  2
ProfileEdges
 70
     0
 62
     7
  6
Continuous
370
    -3
390
F
347
3E
  0
LAYER
  5
40
330
2
100
AcDbSymbolTableRecord
100
AcDbLayerTableRecord
  2
SectionCutEdges
 70
     0
 62
     7
  6
Continuous
370
    -3
390
F
347
3E
  0
ENDTAB
  0
TABLE
  2
STYLE
  5
3
330
0
100
AcDbSymbolTable
 70
     1
  0
STYLE
  5
11
330
3
100
AcDbSymbolTableRecord
100
AcDbTextStyleTableRecord
  2
Standard
 70
     0
 40
0.0
 41
1.0
 50
0.0
 71
     0
 42
0.2
  3
txt
  4

  0
ENDTAB
  0
TABLE
  2
VIEW
  5
6
330
0
100
AcDbSymbolTable
 70
     0
  0
ENDTAB
  0
TABLE
  2
UCS
  5
7
330
0
100
AcDbSymbolTable
 70
     0
  0
ENDTAB
  0
TABLE
  2
APPID
  5
9
330
0
100
AcDbSymbolTable
 70
     1
  0
APPID
  5
12
330
9
100
AcDbSymbolTableRecord
100
AcDbRegAppTableRecord
  2
ACAD
 70
     0
  0
ENDTAB
  0
TABLE
  2
DIMSTYLE
  5
A
330
0
100
AcDbSymbolTable
 70
     1
100
AcDbDimStyleTable
  0
DIMSTYLE
105
27
330
A
100
AcDbSymbolTableRecord
100
AcDbDimStyleTableRecord
  2
Standard
 70
     0
340
11
  0
ENDTAB
  0
TABLE
  2
BLOCK_RECORD
  5
1
330
0
100
AcDbSymbolTable
 70
     1
  0
BLOCK_RECORD
  5
1F
330
1
100
AcDbSymbolTableRecord
100
AcDbBlockTableRecord
  2
*Model_Space
340
22
 70
     0
280
     1
281
     0
  0
BLOCK_RECORD
  5
1B
330
1
100
AcDbSymbolTableRecord
100
AcDbBlockTableRecord
  2
*Paper_Space
340
1E
 70
     0
280
     1
281
     0
  0
BLOCK_RECORD
  5
23
330
1
100
AcDbSymbolTableRecord
100
AcDbBlockTableRecord
  2
*Paper_Space0
340
26
 70
     0
280
     1
281
     0
  0
ENDTAB
  0
ENDSEC
  0
SECTION
  2
BLOCKS
  0
BLOCK
  5
20
330
1F
100
AcDbEntity
  8
0
100
AcDbBlockBegin
  2
*Model_Space
 70
     0
 10
0.0
 20
0.0
 30
0.0
  3
*Model_Space
  1

  0
ENDBLK
  5
21
330
1F
100
AcDbEntity
  8
0
100
AcDbBlockEnd
  0
BLOCK
  5
1C
330
1B
100
AcDbEntity
 67
     1
  8
0
100
AcDbBlockBegin
  2
*Paper_Space
 70
     0
 10
0.0
 20
0.0
 30
0.0
  3
*Paper_Space
  1

  0
ENDBLK
  5
1D
330
1B
100
AcDbEntity
 67
     1
  8
0
100
AcDbBlockEnd
  0
BLOCK
  5
24
330
23
100
AcDbEntity
  8
0
100
AcDbBlockBegin
  2
*Paper_Space0
 70
     0
 10
0.0
 20
0.0
 30
0.0
  3
*Paper_Space0
  1

  0
ENDBLK
  5
25
330
23
100
AcDbEntity
  8
0
100
AcDbBlockEnd
  0
ENDSEC
  0
SECTION
  2
ENTITIES
  0
LINE
  5
41
330
1F
100
AcDbEntity
  8
0
100
AcDbLine
 10
12.49999403883385
 20
20.80713234718083
 30
0.0
 11
12.49999403883385
 21
10.349994838704
 31
0.0
  0
LINE
  5
42
330
1F
100
AcDbEntity
  8
0
100
AcDbLine
 10
12.49999403883385
 20
10.349994838704
 30
0.0
 11
-12.49999387270914
 21
10.349994838704
 31
0.0
  0
LINE
  5
43
330
1F
100
AcDbEntity
  8
0
100
AcDbLine
 10
-25.84621598990828
 20
-0.0000000000000113
 30
0.0
 11
25.84621598990864
 21
-0.0000000000000113
 31
0.0
  0
LINE
  5
44
330
1F
100
AcDbEntity
  8
0
100
AcDbLine
 10
-30.84621358990914
 20
4.999997600000668
 30
0.0
 11
-25.84621598990828
 21
-0.0000000000000113
 31
0.0
  0
LINE
  5
45
330
1F
100
AcDbEntity
  8
0
100
AcDbLine
 10
30.84621358990914
 20
4.99999752522757
 30
0.0
 11
30.84621351427214
 21
70.9142510686413
 31
0.0
  0
LINE
  5
46
330
1F
100
AcDbEntity
  8
0
100
AcDbLine
 10
25.84621598990864
 20
-0.0000000000000113
 30
0.0
 11
30.84621358990914
 21
4.99999752522757
 31
0.0
  0
LINE
  5
47
330
1F
100
AcDbEntity
  8
0
100
AcDbLine
 10
-30.84621358990914
 20
70.91425098850354
 30
0.0
 11
-30.84621358990914
 21
4.999997600000668
 31
0.0
  0
LINE
  5
48
330
1F
100
AcDbEntity
  8
0
100
AcDbLine
 10
-30.84621358990914
 20
70.91425098850354
 30
0.0
 11
-25.84621598990828
 21
75.91424858850432
 31
0.0
  0
LINE
  5
49
330
1F
100
AcDbEntity
  8
0
100
AcDbLine
 10
25.8462160102956
 20
75.91424854946055
 30
0.0
 11
-25.84621598990828
 21
75.91424858850432
 31
0.0
  0
LINE
  5
4A
330
1F
100
AcDbEntity
  8
0
100
AcDbLine
 10
25.8462160102956
 20
75.91424854946055
 30
0.0
 11
30.84621351427214
 21
70.9142510686413
 31
0.0
  0
LINE
  5
4B
330
1F
100
AcDbEntity
  8
0
100
AcDbLine
 10
-12.49999387270914
 20
10.349994838704
 30
0.0
 11
-12.49999387270914
 21
20.80713234718083
 31
0.0
  0
LINE
  5
4C
330
1F
100
AcDbEntity
  8
0
100
AcDbLine
 10
-12.49999387270914
 20
20.80713234718083
 30
0.0
 11
12.49999403883385
 21
20.80713234718083
 31
0.0
  0
LINE
  5
4D
330
1F
100
AcDbEntity
  8
0
100
AcDbLine
 10
24.99998821969203
 20
55.10711562476489
 30
0.0
 11
-24.99998747802574
 21
55.10711562476489
 31
0.0
  0
LINE
  5
4E
330
1F
100
AcDbEntity
  8
0
100
AcDbLine
 10
-24.99998747802574
 20
55.10711562476489
 30
0.0
 11
-24.99998747802574
 21
66.10710974865088
 31
0.0
  0
LINE
  5
4F
330
1F
100
AcDbEntity
  8
0
100
AcDbLine
 10
-24.99998747802574
 20
66.10710974865088
 30
0.0
 11
24.99998821969203
 21
66.10710974865088
 31
0.0
  0
LINE
  5
50
330
1F
100
AcDbEntity
  8
0
100
AcDbLine
 10
24.99998821969203
 20
66.10710974865088
 30
0.0
 11
24.99998821969203
 21
55.10711562476489
 31
0.0
  0
LINE
  5
51
330
1F
100
AcDbEntity
  8
0
100
AcDbLine
 10
-24.31208820747422
 20
36.2184586414911
 30
0.0
 11
-23.84621414990911
 21
36.15712515825177
 31
0.0
  0
LINE
  5
52
330
1F
100
AcDbEntity
  8
0
100
AcDbLine
 10
-24.7462137179094
 20
36.39827931568554
 30
0.0
 11
-24.31208820747422
 21
36.2184586414911
 31
0.0
  0
LINE
  5
53
330
1F
100
AcDbEntity
  8
0
100
AcDbLine
 10
-25.11900574510497
 20
39.22991588944768
 30
0.0
 11
-25.40505912847556
 21
38.85712386225202
 31
0.0
  0
LINE
  5
54
330
1F
100
AcDbEntity
  8
0
100
AcDbLine
 10
-24.7462137179094
 20
39.51596927281835
 30
0.0
 11
-25.11900574510497
 21
39.22991588944768
 31
0.0
  0
LINE
  5
55
330
1F
100
AcDbEntity
  8
0
100
AcDbLine
 10
-24.31208820747422
 20
39.69578994701271
 30
0.0
 11
-24.7462137179094
 21
39.51596927281835
 31
0.0
  0
LINE
  5
56
330
1F
100
AcDbEntity
  8
0
100
AcDbLine
 10
-23.84621414990911
 20
39.75712343025222
 30
0.0
 11
-24.31208820747422
 21
39.69578994701271
 31
0.0
  0
LINE
  5
57
330
1F
100
AcDbEntity
  8
0
100
AcDbLine
 10
-25.40505912847556
 20
37.05712472625206
 30
0.0
 11
-25.11900574510497
 21
36.68433269905631
 31
0.0
  0
LINE
  5
58
330
1F
100
AcDbEntity
  8
0
100
AcDbLine
 10
-25.58487980267
 20
37.49125023668697
 30
0.0
 11
-25.40505912847556
 21
37.05712472625206
 31
0.0
  0
LINE
  5
59
330
1F
100
AcDbEntity
  8
0
100
AcDbLine
 10
-25.64621328590951
 20
37.95712429425208
 30
0.0
 11
-25.58487980267
 21
37.49125023668697
 31
0.0
  0
LINE
  5
5A
330
1F
100
AcDbEntity
  8
0
100
AcDbLine
 10
-22.94621458190909
 20
39.51596927281835
 30
0.0
 11
-23.38034009234435
 21
39.69578994701271
 31
0.0
  0
LINE
  5
5B
330
1F
100
AcDbEntity
  8
0
100
AcDbLine
 10
-22.57342255471369
 20
36.68433269905631
 30
0.0
 11
-22.2873691713432
 21
37.05712472625189
 31
0.0
  0
LINE
  5
5C
330
1F
100
AcDbEntity
  8
0
100
AcDbLine
 10
-25.58487980267
 20
38.42299835181684
 30
0.0
 11
-25.64621328590951
 21
37.95712429425208
 31
0.0
  0
LINE
  5
5D
330
1F
100
AcDbEntity
  8
0
100
AcDbLine
 10
-22.57342255471369
 20
39.22991588944768
 30
0.0
 11
-22.94621458190909
 21
39.51596927281835
 31
0.0
  0
LINE
  5
5E
330
1F
100
AcDbEntity
  8
0
100
AcDbLine
 10
-22.2873691713432
 20
38.85712386225202
 30
0.0
 11
-22.57342255471369
 21
39.22991588944768
 31
0.0
  0
LINE
  5
5F
330
1F
100
AcDbEntity
  8
0
100
AcDbLine
 10
-22.10754849714858
 20
38.42299835181684
 30
0.0
 11
-22.2873691713432
 21
38.85712386225202
 31
0.0
  0
LINE
  5
60
330
1F
100
AcDbEntity
  8
0
100
AcDbLine
 10
-22.04621501390888
 20
37.95712429425208
 30
0.0
 11
-22.10754849714858
 21
38.42299835181684
 31
0.0
  0
LINE
  5
61
330
1F
100
AcDbEntity
  8
0
100
AcDbLine
 10
-22.10754849714858
 20
37.49125023668697
 30
0.0
 11
-22.04621501390888
 21
37.95712429425208
 31
0.0
  0
LINE
  5
62
330
1F
100
AcDbEntity
  8
0
100
AcDbLine
 10
-22.2873691713432
 20
37.05712472625189
 30
0.0
 11
-22.10754849714858
 21
37.49125023668697
 31
0.0
  0
LINE
  5
63
330
1F
100
AcDbEntity
  8
0
100
AcDbLine
 10
-22.94621458190909
 20
36.39827931568554
 30
0.0
 11
-22.57342255471369
 21
36.68433269905631
 31
0.0
  0
LINE
  5
64
330
1F
100
AcDbEntity
  8
0
100
AcDbLine
 10
-23.38034009234435
 20
36.2184586414911
 30
0.0
 11
-22.94621458190909
 21
36.39827931568554
 31
0.0
  0
LINE
  5
65
330
1F
100
AcDbEntity
  8
0
100
AcDbLine
 10
-23.84621414990911
 20
36.15712515825177
 30
0.0
 11
-23.38034009234435
 21
36.2184586414911
 31
0.0
  0
LINE
  5
66
330
1F
100
AcDbEntity
  8
0
100
AcDbLine
 10
-25.40505912847556
 20
38.85712386225202
 30
0.0
 11
-25.58487980267
 21
38.42299835181684
 31
0.0
  0
LINE
  5
67
330
1F
100
AcDbEntity
  8
0
100
AcDbLine
 10
-25.11900574510497
 20
36.68433269905631
 30
0.0
 11
-24.7462137179094
 21
36.39827931568554
 31
0.0
  0
LINE
  5
68
330
1F
100
AcDbEntity
  8
0
100
AcDbLine
 10
-23.38034009234435
 20
39.69578994701271
 30
0.0
 11
-23.84621414990911
 21
39.75712343025222
 31
0.0
  0
LINE
  5
69
330
1F
100
AcDbEntity
  8
0
100
AcDbLine
 10
23.84621411209061
 20
39.75712343025222
 30
0.0
 11
23.38034005452549
 21
39.69578994701271
 31
0.0
  0
LINE
  5
6A
330
1F
100
AcDbEntity
  8
0
100
AcDbLine
 10
22.10754845932972
 20
38.42299835181684
 30
0.0
 11
22.04621497609021
 21
37.95712429425208
 31
0.0
  0
LINE
  5
6B
330
1F
100
AcDbEntity
  8
0
100
AcDbLine
 10
23.38034005452549
 20
39.69578994701271
 30
0.0
 11
22.94621454409032
 21
39.51596927281835
 31
0.0
  0
LINE
  5
6C
330
1F
100
AcDbEntity
  8
0
100
AcDbLine
 10
22.94621454409032
 20
39.51596927281835
 30
0.0
 11
22.57342251689474
 21
39.22991588944768
 31
0.0
  0
LINE
  5
6D
330
1F
100
AcDbEntity
  8
0
100
AcDbLine
 10
22.57342251689474
 20
39.22991588944768
 30
0.0
 11
22.28736913352416
 21
38.85712386225202
 31
0.0
  0
LINE
  5
6E
330
1F
100
AcDbEntity
  8
0
100
AcDbLine
 10
22.28736913352416
 20
38.85712386225202
 30
0.0
 11
22.10754845932972
 21
38.42299835181684
 31
0.0
  0
LINE
  5
6F
330
1F
100
AcDbEntity
  8
0
100
AcDbLine
 10
22.94621454409032
 20
36.39827931568554
 30
0.0
 11
23.38034005452549
 21
36.2184586414911
 31
0.0
  0
LINE
  5
70
330
1F
100
AcDbEntity
  8
0
100
AcDbLine
 10
23.38034005452549
 20
36.2184586414911
 30
0.0
 11
23.84621411209061
 21
36.15712515825177
 31
0.0
  0
LINE
  5
71
330
1F
100
AcDbEntity
  8
0
100
AcDbLine
 10
22.57342251689474
 20
36.68433269905631
 30
0.0
 11
22.94621454409032
 21
36.39827931568554
 31
0.0
  0
LINE
  5
72
330
1F
100
AcDbEntity
  8
0
100
AcDbLine
 10
24.74621368009063
 20
39.51596927281835
 30
0.0
 11
24.31208816965536
 21
39.69578994701271
 31
0.0
  0
LINE
  5
73
330
1F
100
AcDbEntity
  8
0
100
AcDbLine
 10
25.11900570728602
 20
36.68433269905631
 30
0.0
 11
25.40505909065651
 21
37.05712472625189
 31
0.0
  0
LINE
  5
74
330
1F
100
AcDbEntity
  8
0
100
AcDbLine
 10
25.11900570728602
 20
39.22991588944768
 30
0.0
 11
24.74621368009063
 21
39.51596927281835
 31
0.0
  0
LINE
  5
75
330
1F
100
AcDbEntity
  8
0
100
AcDbLine
 10
25.40505909065651
 20
38.85712386225202
 30
0.0
 11
25.11900570728602
 21
39.22991588944768
 31
0.0
  0
LINE
  5
76
330
1F
100
AcDbEntity
  8
0
100
AcDbLine
 10
25.58487976485114
 20
38.42299835181684
 30
0.0
 11
25.40505909065651
 21
38.85712386225202
 31
0.0
  0
LINE
  5
77
330
1F
100
AcDbEntity
  8
0
100
AcDbLine
 10
25.64621324809083
 20
37.95712429425208
 30
0.0
 11
25.58487976485114
 21
38.42299835181684
 31
0.0
  0
LINE
  5
78
330
1F
100
AcDbEntity
  8
0
100
AcDbLine
 10
25.58487976485114
 20
37.49125023668697
 30
0.0
 11
25.64621324809083
 21
37.95712429425208
 31
0.0
  0
LINE
  5
79
330
1F
100
AcDbEntity
  8
0
100
AcDbLine
 10
24.31208816965536
 20
39.69578994701271
 30
0.0
 11
23.84621411209061
 21
39.75712343025222
 31
0.0
  0
LINE
  5
7A
330
1F
100
AcDbEntity
  8
0
100
AcDbLine
 10
25.40505909065651
 20
37.05712472625189
 30
0.0
 11
25.58487976485114
 21
37.49125023668697
 31
0.0
  0
LINE
  5
7B
330
1F
100
AcDbEntity
  8
0
100
AcDbLine
 10
23.84621411209061
 20
36.15712515825177
 30
0.0
 11
24.31208816965536
 21
36.2184586414911
 31
0.0
  0
LINE
  5
7C
330
1F
100
AcDbEntity
  8
0
100
AcDbLine
 10
24.31208816965536
 20
36.2184586414911
 30
0.0
 11
24.74621368009063
 21
36.39827931568554
 31
0.0
  0
LINE
  5
7D
330
1F
100
AcDbEntity
  8
0
100
AcDbLine
 10
24.74621368009063
 20
36.39827931568554
 30
0.0
 11
25.11900570728602
 21
36.68433269905631
 31
0.0
  0
LINE
  5
7E
330
1F
100
AcDbEntity
  8
0
100
AcDbLine
 10
22.04621497609021
 20
37.95712429425208
 30
0.0
 11
22.10754845932972
 21
37.49125023668697
 31
0.0
  0
LINE
  5
7F
330
1F
100
AcDbEntity
  8
0
100
AcDbLine
 10
22.10754845932972
 20
37.49125023668697
 30
0.0
 11
22.28736913352416
 21
37.05712472625206
 31
0.0
  0
LINE
  5
80
330
1F
100
AcDbEntity
  8
0
100
AcDbLine
 10
22.28736913352416
 20
37.05712472625206
 30
0.0
 11
22.57342251689474
 21
36.68433269905631
 31
0.0
  0
LINE
  5
81
330
1F
100
AcDbEntity
  8
0
100
AcDbLine
 10
1.738665713835134
 20
5.465873657564766
 30
0.0
 11
1.558845039640513
 21
5.899999167999942
 31
0.0
  0
LINE
  5
82
330
1F
100
AcDbEntity
  8
0
100
AcDbLine
 10
1.799999197074826
 20
4.999999600000012
 30
0.0
 11
1.738665713835134
 21
5.465873657564766
 31
0.0
  0
LINE
  5
83
330
1F
100
AcDbEntity
  8
0
100
AcDbLine
 10
1.738665713835134
 20
4.534125542434897
 30
0.0
 11
1.799999197074826
 21
4.999999600000012
 31
0.0
  0
LINE
  5
84
330
1F
100
AcDbEntity
  8
0
100
AcDbLine
 10
1.558845039640513
 20
4.10000003199981
 30
0.0
 11
1.738665713835134
 21
4.534125542434897
 31
0.0
  0
LINE
  5
85
330
1F
100
AcDbEntity
  8
0
100
AcDbLine
 10
0.8999996290746247
 20
3.441154621433471
 30
0.0
 11
1.272791656270018
 21
3.727208004804236
 31
0.0
  0
LINE
  5
86
330
1F
100
AcDbEntity
  8
0
100
AcDbLine
 10
0.465874118639358
 20
3.261333947239031
 30
0.0
 11
0.8999996290746247
 21
3.441154621433471
 31
0.0
  0
LINE
  5
87
330
1F
100
AcDbEntity
  8
0
100
AcDbLine
 10
0.0000000610746036
 20
3.200000463999699
 30
0.0
 11
0.465874118639358
 21
3.261333947239031
 31
0.0
  0
LINE
  5
88
330
1F
100
AcDbEntity
  8
0
100
AcDbLine
 10
-1.558844917491848
 20
5.899999167999942
 30
0.0
 11
-1.738665591686287
 21
5.465873657564766
 31
0.0
  0
LINE
  5
89
330
1F
100
AcDbEntity
  8
0
100
AcDbLine
 10
-1.272791534121262
 20
3.727208004804236
 30
0.0
 11
-0.8999995069256882
 21
3.441154621433471
 31
0.0
  0
LINE
  5
8A
330
1F
100
AcDbEntity
  8
0
100
AcDbLine
 10
0.465874118639358
 20
6.738665252760632
 30
0.0
 11
0.0000000610746036
 21
6.799998736000145
 31
0.0
  0
LINE
  5
8B
330
1F
100
AcDbEntity
  8
0
100
AcDbLine
 10
-0.8999995069256882
 20
6.558844578566283
 30
0.0
 11
-1.272791534121262
 21
6.272791195195607
 31
0.0
  0
LINE
  5
8C
330
1F
100
AcDbEntity
  8
0
100
AcDbLine
 10
-0.4658739964905117
 20
6.738665252760632
 30
0.0
 11
-0.8999995069256882
 21
6.558844578566283
 31
0.0
  0
LINE
  5
8D
330
1F
100
AcDbEntity
  8
0
100
AcDbLine
 10
0.0000000610746036
 20
6.799998736000145
 30
0.0
 11
-0.4658739964905117
 21
6.738665252760632
 31
0.0
  0
LINE
  5
8E
330
1F
100
AcDbEntity
  8
0
100
AcDbLine
 10
-1.558844917491848
 20
4.100000031999991
 30
0.0
 11
-1.272791534121262
 21
3.727208004804236
 31
0.0
  0
LINE
  5
8F
330
1F
100
AcDbEntity
  8
0
100
AcDbLine
 10
-1.738665591686287
 20
4.534125542434897
 30
0.0
 11
-1.558844917491848
 21
4.100000031999991
 31
0.0
  0
LINE
  5
90
330
1F
100
AcDbEntity
  8
0
100
AcDbLine
 10
-1.7999990749258
 20
4.999999600000012
 30
0.0
 11
-1.738665591686287
 21
4.534125542434897
 31
0.0
  0
LINE
  5
91
330
1F
100
AcDbEntity
  8
0
100
AcDbLine
 10
0.8999996290746247
 20
6.558844578566283
 30
0.0
 11
0.465874118639358
 21
6.738665252760632
 31
0.0
  0
LINE
  5
92
330
1F
100
AcDbEntity
  8
0
100
AcDbLine
 10
1.272791656270018
 20
3.727208004804236
 30
0.0
 11
1.558845039640513
 21
4.10000003199981
 31
0.0
  0
LINE
  5
93
330
1F
100
AcDbEntity
  8
0
100
AcDbLine
 10
-1.738665591686287
 20
5.465873657564766
 30
0.0
 11
-1.7999990749258
 21
4.999999600000012
 31
0.0
  0
LINE
  5
94
330
1F
100
AcDbEntity
  8
0
100
AcDbLine
 10
1.272791656270018
 20
6.272791195195607
 30
0.0
 11
0.8999996290746247
 21
6.558844578566283
 31
0.0
  0
LINE
  5
95
330
1F
100
AcDbEntity
  8
0
100
AcDbLine
 10
1.558845039640513
 20
5.899999167999942
 30
0.0
 11
1.272791656270018
 21
6.272791195195607
 31
0.0
  0
LINE
  5
96
330
1F
100
AcDbEntity
  8
0
100
AcDbLine
 10
-1.272791534121262
 20
6.272791195195607
 30
0.0
 11
-1.558844917491848
 21
5.899999167999942
 31
0.0
  0
LINE
  5
97
330
1F
100
AcDbEntity
  8
0
100
AcDbLine
 10
-0.4658739964905117
 20
3.261333947239031
 30
0.0
 11
0.0000000610746036
 21
3.200000463999699
 31
0.0
  0
LINE
  5
98
330
1F
100
AcDbEntity
  8
0
100
AcDbLine
 10
-0.8999995069256882
 20
3.441154621433471
 30
0.0
 11
-0.4658739964905117
 21
3.261333947239031
 31
0.0
  0
LINE
  5
99
330
1F
100
AcDbEntity
  8
0
100
AcDbLine
 10
1.738665713835134
 20
70.4483749114172
 30
0.0
 11
1.799999197074826
 21
70.91424896898232
 31
0.0
  0
LINE
  5
9A
330
1F
100
AcDbEntity
  8
0
100
AcDbLine
 10
0.465874118639358
 20
69.17558331622133
 30
0.0
 11
0.8999996290746247
 21
69.35540399041578
 31
0.0
  0
LINE
  5
9B
330
1F
100
AcDbEntity
  8
0
100
AcDbLine
 10
0.8999996290746247
 20
69.35540399041578
 30
0.0
 11
1.272791656270018
 21
69.64145737378655
 31
0.0
  0
LINE
  5
9C
330
1F
100
AcDbEntity
  8
0
100
AcDbLine
 10
1.272791656270018
 20
69.64145737378655
 30
0.0
 11
1.558845039640513
 21
70.01424940098212
 31
0.0
  0
LINE
  5
9D
330
1F
100
AcDbEntity
  8
0
100
AcDbLine
 10
1.558845039640513
 20
70.01424940098212
 30
0.0
 11
1.738665713835134
 21
70.4483749114172
 31
0.0
  0
LINE
  5
9E
330
1F
100
AcDbEntity
  8
0
100
AcDbLine
 10
1.738665713835134
 20
71.38012302654708
 30
0.0
 11
1.558845039640513
 21
71.81424853698225
 31
0.0
  0
LINE
  5
9F
330
1F
100
AcDbEntity
  8
0
100
AcDbLine
 10
1.799999197074826
 20
70.91424896898232
 30
0.0
 11
1.738665713835134
 21
71.38012302654708
 31
0.0
  0
LINE
  5
A0
330
1F
100
AcDbEntity
  8
0
100
AcDbLine
 10
-1.558844917491848
 20
71.81424853698225
 30
0.0
 11
-1.738665591686287
 21
71.38012302654708
 31
0.0
  0
LINE
  5
A1
330
1F
100
AcDbEntity
  8
0
100
AcDbLine
 10
-1.272791534121262
 20
69.64145737378655
 30
0.0
 11
-0.8999995069256882
 21
69.35540399041578
 31
0.0
  0
LINE
  5
A2
330
1F
100
AcDbEntity
  8
0
100
AcDbLine
 10
0.465874118639358
 20
72.65291462174294
 30
0.0
 11
0.0000000610746036
 21
72.71424810498246
 31
0.0
  0
LINE
  5
A3
330
1F
100
AcDbEntity
  8
0
100
AcDbLine
 10
-1.7999990749258
 20
70.91424896898232
 30
0.0
 11
-1.738665591686287
 21
70.4483749114172
 31
0.0
  0
LINE
  5
A4
330
1F
100
AcDbEntity
  8
0
100
AcDbLine
 10
-1.738665591686287
 20
70.4483749114172
 30
0.0
 11
-1.558844917491848
 21
70.0142494009823
 31
0.0
  0
LINE
  5
A5
330
1F
100
AcDbEntity
  8
0
100
AcDbLine
 10
-1.558844917491848
 20
70.0142494009823
 30
0.0
 11
-1.272791534121262
 21
69.64145737378655
 31
0.0
  0
LINE
  5
A6
330
1F
100
AcDbEntity
  8
0
100
AcDbLine
 10
-0.8999995069256882
 20
69.35540399041578
 30
0.0
 11
-0.4658739964905117
 21
69.17558331622133
 31
0.0
  0
LINE
  5
A7
330
1F
100
AcDbEntity
  8
0
100
AcDbLine
 10
-0.4658739964905117
 20
69.17558331622133
 30
0.0
 11
0.0000000610746036
 21
69.11424983298201
 31
0.0
  0
LINE
  5
A8
330
1F
100
AcDbEntity
  8
0
100
AcDbLine
 10
0.0000000610746036
 20
69.11424983298201
 30
0.0
 11
0.465874118639358
 21
69.17558331622133
 31
0.0
  0
LINE
  5
A9
330
1F
100
AcDbEntity
  8
0
100
AcDbLine
 10
-1.272791534121262
 20
72.18704056417792
 30
0.0
 11
-1.558844917491848
 21
71.81424853698225
 31
0.0
  0
LINE
  5
AA
330
1F
100
AcDbEntity
  8
0
100
AcDbLine
 10
1.558845039640513
 20
71.81424853698225
 30
0.0
 11
1.272791656270018
 21
72.18704056417792
 31
0.0
  0
LINE
  5
AB
330
1F
100
AcDbEntity
  8
0
100
AcDbLine
 10
1.272791656270018
 20
72.18704056417792
 30
0.0
 11
0.8999996290746247
 21
72.47309394754859
 31
0.0
  0
LINE
  5
AC
330
1F
100
AcDbEntity
  8
0
100
AcDbLine
 10
0.8999996290746247
 20
72.47309394754859
 30
0.0
 11
0.465874118639358
 21
72.65291462174294
 31
0.0
  0
LINE
  5
AD
330
1F
100
AcDbEntity
  8
0
100
AcDbLine
 10
-0.8999995069256882
 20
72.47309394754859
 30
0.0
 11
-1.272791534121262
 21
72.18704056417792
 31
0.0
  0
LINE
  5
AE
330
1F
100
AcDbEntity
  8
0
100
AcDbLine
 10
-0.4658739964905117
 20
72.65291462174294
 30
0.0
 11
-0.8999995069256882
 21
72.47309394754859
 31
0.0
  0
LINE
  5
AF
330
1F
100
AcDbEntity
  8
0
100
AcDbLine
 10
0.0000000610746036
 20
72.71424810498246
 30
0.0
 11
-0.4658739964905117
 21
72.65291462174294
 31
0.0
  0
LINE
  5
B0
330
1F
100
AcDbEntity
  8
0
100
AcDbLine
 10
-1.738665591686287
 20
71.38012302654708
 30
0.0
 11
-1.7999990749258
 21
70.91424896898232
 31
0.0
  0
LINE
  5
B1
330
1F
100
AcDbEntity
  8
0
100
AcDbLine
 10
-15.46587279649063
 20
28.21845928149106
 30
0.0
 11
-14.99999873892551
 21
28.15712579825173
 31
0.0
  0
LINE
  5
B2
330
1F
100
AcDbEntity
  8
0
100
AcDbLine
 10
-15.8999983069258
 20
28.39827995568551
 30
0.0
 11
-15.46587279649063
 21
28.21845928149106
 31
0.0
  0
LINE
  5
B3
330
1F
100
AcDbEntity
  8
0
100
AcDbLine
 10
-16.27279033412137
 20
28.68433333905627
 30
0.0
 11
-15.8999983069258
 21
28.39827995568551
 31
0.0
  0
LINE
  5
B4
330
1F
100
AcDbEntity
  8
0
100
AcDbLine
 10
16.55884383964099
 20
30.85712450225198
 30
0.0
 11
16.27279045627031
 21
31.22991652944764
 31
0.0
  0
LINE
  5
B5
330
1F
100
AcDbEntity
  8
0
100
AcDbLine
 10
16.27279045627031
 20
28.68433333905627
 30
0.0
 11
16.55884383964099
 21
29.05712536625185
 31
0.0
  0
LINE
  5
B6
330
1F
100
AcDbEntity
  8
0
100
AcDbLine
 10
16.27279045627031
 20
31.22991652944764
 30
0.0
 11
15.89999842907492
 21
31.51596991281832
 31
0.0
  0
LINE
  5
B7
330
1F
100
AcDbEntity
  8
0
100
AcDbLine
 10
16.73866451383543
 20
29.49125087668693
 30
0.0
 11
16.79999799707503
 21
29.95712493425205
 31
0.0
  0
LINE
  5
B8
330
1F
100
AcDbEntity
  8
0
100
AcDbLine
 10
16.73866451383543
 20
30.4229989918168
 30
0.0
 11
16.55884383964099
 21
30.85712450225198
 31
0.0
  0
LINE
  5
B9
330
1F
100
AcDbEntity
  8
0
100
AcDbLine
 10
14.99999886107472
 20
28.15712579825173
 30
0.0
 11
15.46587291863974
 21
28.21845928149106
 31
0.0
  0
LINE
  5
BA
330
1F
100
AcDbEntity
  8
0
100
AcDbLine
 10
16.55884383964099
 20
29.05712536625185
 30
0.0
 11
16.73866451383543
 21
29.49125087668693
 31
0.0
  0
LINE
  5
BB
330
1F
100
AcDbEntity
  8
0
100
AcDbLine
 10
15.89999842907492
 20
31.51596991281832
 30
0.0
 11
15.46587291863974
 21
31.69579058701267
 31
0.0
  0
LINE
  5
BC
330
1F
100
AcDbEntity
  8
0
100
AcDbLine
 10
13.44115388250863
 20
30.85712450225198
 30
0.0
 11
13.26133320831419
 21
30.4229989918168
 31
0.0
  0
LINE
  5
BD
330
1F
100
AcDbEntity
  8
0
100
AcDbLine
 10
14.09999929307479
 20
31.51596991281832
 30
0.0
 11
13.72720726587912
 21
31.22991652944764
 31
0.0
  0
LINE
  5
BE
330
1F
100
AcDbEntity
  8
0
100
AcDbLine
 10
14.99999886107472
 20
31.75712407025218
 30
0.0
 11
14.53412480350978
 21
31.69579058701267
 31
0.0
  0
LINE
  5
BF
330
1F
100
AcDbEntity
  8
0
100
AcDbLine
 10
13.72720726587912
 20
31.22991652944764
 30
0.0
 11
13.44115388250863
 21
30.85712450225198
 31
0.0
  0
LINE
  5
C0
330
1F
100
AcDbEntity
  8
0
100
AcDbLine
 10
14.53412480350978
 20
31.69579058701267
 30
0.0
 11
14.09999929307479
 21
31.51596991281832
 31
0.0
  0
LINE
  5
C1
330
1F
100
AcDbEntity
  8
0
100
AcDbLine
 10
-14.53412468136076
 20
31.69579058701267
 30
0.0
 11
-14.99999873892551
 21
31.75712407025218
 31
0.0
  0
LINE
  5
C2
330
1F
100
AcDbEntity
  8
0
100
AcDbLine
 10
-14.09999917092549
 20
28.39827995568551
 30
0.0
 11
-13.7272071437301
 21
28.68433333905627
 31
0.0
  0
LINE
  5
C3
330
1F
100
AcDbEntity
  8
0
100
AcDbLine
 10
-14.53412468136076
 20
28.21845928149106
 30
0.0
 11
-14.09999917092549
 21
28.39827995568551
 31
0.0
  0
LINE
  5
C4
330
1F
100
AcDbEntity
  8
0
100
AcDbLine
 10
-14.99999873892551
 20
28.15712579825173
 30
0.0
 11
-14.53412468136076
 21
28.21845928149106
 31
0.0
  0
LINE
  5
C5
330
1F
100
AcDbEntity
  8
0
100
AcDbLine
 10
-16.55884371749196
 20
30.85712450225198
 30
0.0
 11
-16.7386643916864
 21
30.4229989918168
 31
0.0
  0
LINE
  5
C6
330
1F
100
AcDbEntity
  8
0
100
AcDbLine
 10
-16.27279033412137
 20
31.22991652944764
 30
0.0
 11
-16.55884371749196
 21
30.85712450225198
 31
0.0
  0
LINE
  5
C7
330
1F
100
AcDbEntity
  8
0
100
AcDbLine
 10
-15.8999983069258
 20
31.51596991281832
 30
0.0
 11
-16.27279033412137
 21
31.22991652944764
 31
0.0
  0
LINE
  5
C8
330
1F
100
AcDbEntity
  8
0
100
AcDbLine
 10
-15.46587279649063
 20
31.69579058701267
 30
0.0
 11
-15.8999983069258
 21
31.51596991281832
 31
0.0
  0
LINE
  5
C9
330
1F
100
AcDbEntity
  8
0
100
AcDbLine
 10
-14.99999873892551
 20
31.75712407025218
 30
0.0
 11
-15.46587279649063
 21
31.69579058701267
 31
0.0
  0
LINE
  5
CA
330
1F
100
AcDbEntity
  8
0
100
AcDbLine
 10
-16.55884371749196
 20
29.05712536625203
 30
0.0
 11
-16.27279033412137
 21
28.68433333905627
 31
0.0
  0
LINE
  5
CB
330
1F
100
AcDbEntity
  8
0
100
AcDbLine
 10
-16.7386643916864
 20
29.49125087668693
 30
0.0
 11
-16.55884371749196
 21
29.05712536625203
 31
0.0
  0
LINE
  5
CC
330
1F
100
AcDbEntity
  8
0
100
AcDbLine
 10
-16.79999787492591
 20
29.95712493425205
 30
0.0
 11
-16.7386643916864
 21
29.49125087668693
 31
0.0
  0
LINE
  5
CD
330
1F
100
AcDbEntity
  8
0
100
AcDbLine
 10
-16.7386643916864
 20
30.4229989918168
 30
0.0
 11
-16.79999787492591
 21
29.95712493425205
 31
0.0
  0
LINE
  5
CE
330
1F
100
AcDbEntity
  8
0
100
AcDbLine
 10
-13.7272071437301
 20
31.22991652944764
 30
0.0
 11
-14.09999917092549
 21
31.51596991281832
 31
0.0
  0
LINE
  5
CF
330
1F
100
AcDbEntity
  8
0
100
AcDbLine
 10
-13.4411537603596
 20
30.85712450225198
 30
0.0
 11
-13.7272071437301
 21
31.22991652944764
 31
0.0
  0
LINE
  5
D0
330
1F
100
AcDbEntity
  8
0
100
AcDbLine
 10
-13.26133308616498
 20
30.4229989918168
 30
0.0
 11
-13.4411537603596
 21
30.85712450225198
 31
0.0
  0
LINE
  5
D1
330
1F
100
AcDbEntity
  8
0
100
AcDbLine
 10
-13.19999960292529
 20
29.95712493425205
 30
0.0
 11
-13.26133308616498
 21
30.4229989918168
 31
0.0
  0
LINE
  5
D2
330
1F
100
AcDbEntity
  8
0
100
AcDbLine
 10
-13.26133308616498
 20
29.49125087668693
 30
0.0
 11
-13.19999960292529
 21
29.95712493425205
 31
0.0
  0
LINE
  5
D3
330
1F
100
AcDbEntity
  8
0
100
AcDbLine
 10
-13.4411537603596
 20
29.05712536625185
 30
0.0
 11
-13.26133308616498
 21
29.49125087668693
 31
0.0
  0
LINE
  5
D4
330
1F
100
AcDbEntity
  8
0
100
AcDbLine
 10
-14.09999917092549
 20
31.51596991281832
 30
0.0
 11
-14.53412468136076
 21
31.69579058701267
 31
0.0
  0
LINE
  5
D5
330
1F
100
AcDbEntity
  8
0
100
AcDbLine
 10
13.72720726587912
 20
28.68433333905627
 30
0.0
 11
14.09999929307479
 21
28.39827995568551
 31
0.0
  0
LINE
  5
D6
330
1F
100
AcDbEntity
  8
0
100
AcDbLine
 10
13.44115388250863
 20
29.05712536625203
 30
0.0
 11
13.72720726587912
 21
28.68433333905627
 31
0.0
  0
LINE
  5
D7
330
1F
100
AcDbEntity
  8
0
100
AcDbLine
 10
13.26133320831419
 20
29.49125087668693
 30
0.0
 11
13.44115388250863
 21
29.05712536625203
 31
0.0
  0
LINE
  5
D8
330
1F
100
AcDbEntity
  8
0
100
AcDbLine
 10
13.19999972507449
 20
29.95712493425205
 30
0.0
 11
13.26133320831419
 21
29.49125087668693
 31
0.0
  0
LINE
  5
D9
330
1F
100
AcDbEntity
  8
0
100
AcDbLine
 10
13.26133320831419
 20
30.4229989918168
 30
0.0
 11
13.19999972507449
 21
29.95712493425205
 31
0.0
  0
LINE
  5
DA
330
1F
100
AcDbEntity
  8
0
100
AcDbLine
 10
15.46587291863974
 20
31.69579058701267
 30
0.0
 11
14.99999886107472
 21
31.75712407025218
 31
0.0
  0
LINE
  5
DB
330
1F
100
AcDbEntity
  8
0
100
AcDbLine
 10
-13.7272071437301
 20
28.68433333905627
 30
0.0
 11
-13.4411537603596
 21
29.05712536625185
 31
0.0
  0
LINE
  5
DC
330
1F
100
AcDbEntity
  8
0
100
AcDbLine
 10
16.79999799707503
 20
29.95712493425205
 30
0.0
 11
16.73866451383543
 21
30.4229989918168
 31
0.0
  0
LINE
  5
DD
330
1F
100
AcDbEntity
  8
0
100
AcDbLine
 10
15.89999842907492
 20
28.39827995568551
 30
0.0
 11
16.27279045627031
 21
28.68433333905627
 31
0.0
  0
LINE
  5
DE
330
1F
100
AcDbEntity
  8
0
100
AcDbLine
 10
15.46587291863974
 20
28.21845928149106
 30
0.0
 11
15.89999842907492
 21
28.39827995568551
 31
0.0
  0
LINE
  5
DF
330
1F
100
AcDbEntity
  8
0
100
AcDbLine
 10
14.53412480350978
 20
28.21845928149106
 30
0.0
 11
14.99999886107472
 21
28.15712579825173
 31
0.0
  0
LINE
  5
E0
330
1F
100
AcDbEntity
  8
0
100
AcDbLine
 10
14.09999929307479
 20
28.39827995568551
 30
0.0
 11
14.53412480350978
 21
28.21845928149106
 31
0.0
  0
LINE
  5
E1
330
1F
100
AcDbEntity
  8
0
100
AcDbLine
 10
12.4999940184468
 20
-55.10711620227976
 30
0.0
 11
12.4999940184468
 21
-65.56425371075659
 31
0.0
  0
LINE
  5
E2
330
1F
100
AcDbEntity
  8
0
100
AcDbLine
 10
12.4999940184468
 20
-65.56425371075659
 30
0.0
 11
-12.4999938930961
 21
-65.56425371075659
 31
0.0
  0
LINE
  5
E3
330
1F
100
AcDbEntity
  8
0
100
AcDbLine
 10
-25.84621598990828
 20
-75.91424858850432
 30
0.0
 11
25.84621596952177
 21
-75.9142485494606
 31
0.0
  0
LINE
  5
E4
330
1F
100
AcDbEntity
  8
0
100
AcDbLine
 10
-30.84621358990914
 20
-70.91425098850364
 30
0.0
 11
-25.84621598990828
 21
-75.91424858850432
 31
0.0
  0
LINE
  5
E5
330
1F
100
AcDbEntity
  8
0
100
AcDbLine
 10
30.84621356952227
 20
-70.91425102423297
 30
0.0
 11
30.8462134938851
 21
-4.999997480819193
 31
0.0
  0
LINE
  5
E6
330
1F
100
AcDbEntity
  8
0
100
AcDbLine
 10
25.84621596952177
 20
-75.9142485494606
 30
0.0
 11
30.84621356952227
 21
-70.91425102423297
 31
0.0
  0
LINE
  5
E7
330
1F
100
AcDbEntity
  8
0
100
AcDbLine
 10
-30.84621358990914
 20
-4.99999760000069
 30
0.0
 11
-30.84621358990914
 21
-70.91425098850364
 31
0.0
  0
LINE
  5
E8
330
1F
100
AcDbEntity
  8
0
100
AcDbLine
 10
-30.84621358990914
 20
-4.99999760000069
 30
0.0
 11
-25.84621598990828
 21
-0.0000000000000113
 31
0.0
  0
LINE
  5
E9
330
1F
100
AcDbEntity
  8
0
100
AcDbLine
 10
25.84621598990864
 20
-0.0000000000000113
 30
0.0
 11
30.8462134938851
 21
-4.999997480819193
 31
0.0
  0
LINE
  5
EA
330
1F
100
AcDbEntity
  8
0
100
AcDbLine
 10
-12.4999938930961
 20
-65.56425371075659
 30
0.0
 11
-12.4999938930961
 21
-55.10711620227976
 31
0.0
  0
LINE
  5
EB
330
1F
100
AcDbEntity
  8
0
100
AcDbLine
 10
-12.4999938930961
 20
-55.10711620227976
 30
0.0
 11
12.4999940184468
 21
-55.10711620227976
 31
0.0
  0
LINE
  5
EC
330
1F
100
AcDbEntity
  8
0
100
AcDbLine
 10
24.99998819930508
 20
-20.8071329246957
 30
0.0
 11
-24.9999874984127
 21
-20.8071329246957
 31
0.0
  0
LINE
  5
ED
330
1F
100
AcDbEntity
  8
0
100
AcDbLine
 10
-24.9999874984127
 20
-20.8071329246957
 30
0.0
 11
-24.9999874984127
 21
-9.807138800809703
 31
0.0
  0
LINE
  5
EE
330
1F
100
AcDbEntity
  8
0
100
AcDbLine
 10
-24.9999874984127
 20
-9.807138800809703
 30
0.0
 11
24.99998819930508
 21
-9.807138800809703
 31
0.0
  0
LINE
  5
EF
330
1F
100
AcDbEntity
  8
0
100
AcDbLine
 10
24.99998819930508
 20
-9.807138800809703
 30
0.0
 11
24.99998819930508
 21
-20.8071329246957
 31
0.0
  0
LINE
  5
F0
330
1F
100
AcDbEntity
  8
0
100
AcDbLine
 10
-24.31208822786118
 20
-39.69578990796943
 30
0.0
 11
-23.84621417029607
 21
-39.75712339120877
 31
0.0
  0
LINE
  5
F1
330
1F
100
AcDbEntity
  8
0
100
AcDbLine
 10
-24.74621373829636
 20
-39.515969233775
 30
0.0
 11
-24.31208822786118
 21
-39.69578990796943
 31
0.0
  0
LINE
  5
F2
330
1F
100
AcDbEntity
  8
0
100
AcDbLine
 10
-25.11900576549184
 20
-36.68433266001296
 30
0.0
 11
-25.40505914886251
 21
-37.05712468720862
 31
0.0
  0
LINE
  5
F3
330
1F
100
AcDbEntity
  8
0
100
AcDbLine
 10
-24.74621373829636
 20
-36.39827927664228
 30
0.0
 11
-25.11900576549184
 21
-36.68433266001296
 31
0.0
  0
LINE
  5
F4
330
1F
100
AcDbEntity
  8
0
100
AcDbLine
 10
-24.31208822786118
 20
-36.21845860244784
 30
0.0
 11
-24.74621373829636
 21
-36.39827927664228
 31
0.0
  0
LINE
  5
F5
330
1F
100
AcDbEntity
  8
0
100
AcDbLine
 10
-23.84621417029607
 20
-36.15712511920832
 30
0.0
 11
-24.31208822786118
 21
-36.21845860244784
 31
0.0
  0
LINE
  5
F6
330
1F
100
AcDbEntity
  8
0
100
AcDbLine
 10
-25.40505914886251
 20
-38.85712382320848
 30
0.0
 11
-25.11900576549184
 21
-39.22991585040432
 31
0.0
  0
LINE
  5
F7
330
1F
100
AcDbEntity
  8
0
100
AcDbLine
 10
-25.58487982305695
 20
-38.42299831277366
 30
0.0
 11
-25.40505914886251
 21
-38.85712382320848
 31
0.0
  0
LINE
  5
F8
330
1F
100
AcDbEntity
  8
0
100
AcDbLine
 10
-25.64621330629647
 20
-37.95712425520855
 30
0.0
 11
-25.58487982305695
 21
-38.42299831277366
 31
0.0
  0
LINE
  5
F9
330
1F
100
AcDbEntity
  8
0
100
AcDbLine
 10
-22.94621460229595
 20
-36.39827927664228
 30
0.0
 11
-23.38034011273131
 21
-36.21845860244784
 31
0.0
  0
LINE
  5
FA
330
1F
100
AcDbEntity
  8
0
100
AcDbLine
 10
-22.57342257510065
 20
-39.22991585040432
 30
0.0
 11
-22.28736919173015
 21
-38.85712382320866
 31
0.0
  0
LINE
  5
FB
330
1F
100
AcDbEntity
  8
0
100
AcDbLine
 10
-25.58487982305695
 20
-37.49125019764379
 30
0.0
 11
-25.64621330629647
 21
-37.95712425520855
 31
0.0
  0
LINE
  5
FC
330
1F
100
AcDbEntity
  8
0
100
AcDbLine
 10
-22.57342257510065
 20
-36.68433266001296
 30
0.0
 11
-22.94621460229595
 21
-36.39827927664228
 31
0.0
  0
LINE
  5
FD
330
1F
100
AcDbEntity
  8
0
100
AcDbLine
 10
-22.28736919173015
 20
-37.05712468720862
 30
0.0
 11
-22.57342257510065
 21
-36.68433266001296
 31
0.0
  0
LINE
  5
FE
330
1F
100
AcDbEntity
  8
0
100
AcDbLine
 10
-22.10754851753553
 20
-37.49125019764379
 30
0.0
 11
-22.28736919173015
 21
-37.05712468720862
 31
0.0
  0
LINE
  5
FF
330
1F
100
AcDbEntity
  8
0
100
AcDbLine
 10
-22.04621503429584
 20
-37.95712425520855
 30
0.0
 11
-22.10754851753553
 21
-37.49125019764379
 31
0.0
  0
LINE
  5
100
330
1F
100
AcDbEntity
  8
0
100
AcDbLine
 10
-22.10754851753553
 20
-38.42299831277366
 30
0.0
 11
-22.04621503429584
 21
-37.95712425520855
 31
0.0
  0
LINE
  5
101
330
1F
100
AcDbEntity
  8
0
100
AcDbLine
 10
-22.28736919173015
 20
-38.85712382320866
 30
0.0
 11
-22.10754851753553
 21
-38.42299831277366
 31
0.0
  0
LINE
  5
102
330
1F
100
AcDbEntity
  8
0
100
AcDbLine
 10
-22.94621460229595
 20
-39.515969233775
 30
0.0
 11
-22.57342257510065
 21
-39.22991585040432
 31
0.0
  0
LINE
  5
103
330
1F
100
AcDbEntity
  8
0
100
AcDbLine
 10
-23.38034011273131
 20
-39.69578990796943
 30
0.0
 11
-22.94621460229595
 21
-39.515969233775
 31
0.0
  0
LINE
  5
104
330
1F
100
AcDbEntity
  8
0
100
AcDbLine
 10
-23.84621417029607
 20
-39.75712339120877
 30
0.0
 11
-23.38034011273131
 21
-39.69578990796943
 31
0.0
  0
LINE
  5
105
330
1F
100
AcDbEntity
  8
0
100
AcDbLine
 10
-25.40505914886251
 20
-37.05712468720862
 30
0.0
 11
-25.58487982305695
 21
-37.49125019764379
 31
0.0
  0
LINE
  5
106
330
1F
100
AcDbEntity
  8
0
100
AcDbLine
 10
-25.11900576549184
 20
-39.22991585040432
 30
0.0
 11
-24.74621373829636
 21
-39.515969233775
 31
0.0
  0
LINE
  5
107
330
1F
100
AcDbEntity
  8
0
100
AcDbLine
 10
-23.38034011273131
 20
-36.21845860244784
 30
0.0
 11
-23.84621417029607
 21
-36.15712511920832
 31
0.0
  0
LINE
  5
108
330
1F
100
AcDbEntity
  8
0
100
AcDbLine
 10
23.84621409170356
 20
-36.15712511920832
 30
0.0
 11
23.38034003413862
 21
-36.21845860244784
 31
0.0
  0
LINE
  5
109
330
1F
100
AcDbEntity
  8
0
100
AcDbLine
 10
22.10754843894267
 20
-37.49125019764379
 30
0.0
 11
22.04621495570334
 21
-37.95712425520855
 31
0.0
  0
LINE
  5
10A
330
1F
100
AcDbEntity
  8
0
100
AcDbLine
 10
23.38034003413862
 20
-36.21845860244784
 30
0.0
 11
22.94621452370327
 21
-36.39827927664228
 31
0.0
  0
LINE
  5
10B
330
1F
100
AcDbEntity
  8
0
100
AcDbLine
 10
22.94621452370327
 20
-36.39827927664228
 30
0.0
 11
22.57342249650778
 21
-36.68433266001296
 31
0.0
  0
LINE
  5
10C
330
1F
100
AcDbEntity
  8
0
100
AcDbLine
 10
22.57342249650778
 20
-36.68433266001296
 30
0.0
 11
22.28736911313711
 21
-37.05712468720862
 31
0.0
  0
LINE
  5
10D
330
1F
100
AcDbEntity
  8
0
100
AcDbLine
 10
22.28736911313711
 20
-37.05712468720862
 30
0.0
 11
22.10754843894267
 21
-37.49125019764379
 31
0.0
  0
LINE
  5
10E
330
1F
100
AcDbEntity
  8
0
100
AcDbLine
 10
22.94621452370327
 20
-39.515969233775
 30
0.0
 11
23.38034003413862
 21
-39.69578990796943
 31
0.0
  0
LINE
  5
10F
330
1F
100
AcDbEntity
  8
0
100
AcDbLine
 10
23.38034003413862
 20
-39.69578990796943
 30
0.0
 11
23.84621409170356
 21
-39.75712339120877
 31
0.0
  0
LINE
  5
110
330
1F
100
AcDbEntity
  8
0
100
AcDbLine
 10
22.57342249650778
 20
-39.22991585040432
 30
0.0
 11
22.94621452370327
 21
-39.515969233775
 31
0.0
  0
LINE
  5
111
330
1F
100
AcDbEntity
  8
0
100
AcDbLine
 10
24.74621365970367
 20
-36.39827927664228
 30
0.0
 11
24.3120881492685
 21
-36.21845860244784
 31
0.0
  0
LINE
  5
112
330
1F
100
AcDbEntity
  8
0
100
AcDbLine
 10
25.11900568689915
 20
-39.22991585040432
 30
0.0
 11
25.40505907026965
 21
-38.85712382320866
 31
0.0
  0
LINE
  5
113
330
1F
100
AcDbEntity
  8
0
100
AcDbLine
 10
25.11900568689915
 20
-36.68433266001296
 30
0.0
 11
24.74621365970367
 21
-36.39827927664228
 31
0.0
  0
LINE
  5
114
330
1F
100
AcDbEntity
  8
0
100
AcDbLine
 10
25.40505907026965
 20
-37.05712468720862
 30
0.0
 11
25.11900568689915
 21
-36.68433266001296
 31
0.0
  0
LINE
  5
115
330
1F
100
AcDbEntity
  8
0
100
AcDbLine
 10
25.58487974446409
 20
-37.49125019764379
 30
0.0
 11
25.40505907026965
 21
-37.05712468720862
 31
0.0
  0
LINE
  5
116
330
1F
100
AcDbEntity
  8
0
100
AcDbLine
 10
25.64621322770378
 20
-37.95712425520855
 30
0.0
 11
25.58487974446409
 21
-37.49125019764379
 31
0.0
  0
LINE
  5
117
330
1F
100
AcDbEntity
  8
0
100
AcDbLine
 10
25.58487974446409
 20
-38.42299831277366
 30
0.0
 11
25.64621322770378
 21
-37.95712425520855
 31
0.0
  0
LINE
  5
118
330
1F
100
AcDbEntity
  8
0
100
AcDbLine
 10
24.3120881492685
 20
-36.21845860244784
 30
0.0
 11
23.84621409170356
 21
-36.15712511920832
 31
0.0
  0
LINE
  5
119
330
1F
100
AcDbEntity
  8
0
100
AcDbLine
 10
25.40505907026965
 20
-38.85712382320866
 30
0.0
 11
25.58487974446409
 21
-38.42299831277366
 31
0.0
  0
LINE
  5
11A
330
1F
100
AcDbEntity
  8
0
100
AcDbLine
 10
23.84621409170356
 20
-39.75712339120877
 30
0.0
 11
24.3120881492685
 21
-39.69578990796943
 31
0.0
  0
LINE
  5
11B
330
1F
100
AcDbEntity
  8
0
100
AcDbLine
 10
24.3120881492685
 20
-39.69578990796943
 30
0.0
 11
24.74621365970367
 21
-39.515969233775
 31
0.0
  0
LINE
  5
11C
330
1F
100
AcDbEntity
  8
0
100
AcDbLine
 10
24.74621365970367
 20
-39.515969233775
 30
0.0
 11
25.11900568689915
 21
-39.22991585040432
 31
0.0
  0
LINE
  5
11D
330
1F
100
AcDbEntity
  8
0
100
AcDbLine
 10
22.04621495570334
 20
-37.95712425520855
 30
0.0
 11
22.10754843894267
 21
-38.42299831277366
 31
0.0
  0
LINE
  5
11E
330
1F
100
AcDbEntity
  8
0
100
AcDbLine
 10
22.10754843894267
 20
-38.42299831277366
 30
0.0
 11
22.28736911313711
 21
-38.85712382320848
 31
0.0
  0
LINE
  5
11F
330
1F
100
AcDbEntity
  8
0
100
AcDbLine
 10
22.28736911313711
 20
-38.85712382320848
 30
0.0
 11
22.57342249650778
 21
-39.22991585040432
 31
0.0
  0
LINE
  5
120
330
1F
100
AcDbEntity
  8
0
100
AcDbLine
 10
1.738665693448176
 20
-70.44837489189587
 30
0.0
 11
1.558845019253556
 21
-70.01424938146069
 31
0.0
  0
LINE
  5
121
330
1F
100
AcDbEntity
  8
0
100
AcDbLine
 10
1.799999176687869
 20
-70.91424894946063
 30
0.0
 11
1.738665693448176
 21
-70.44837489189587
 31
0.0
  0
LINE
  5
122
330
1F
100
AcDbEntity
  8
0
100
AcDbLine
 10
1.738665693448176
 20
-71.38012300702573
 30
0.0
 11
1.799999176687869
 21
-70.91424894946063
 31
0.0
  0
LINE
  5
123
330
1F
100
AcDbEntity
  8
0
100
AcDbLine
 10
1.558845019253556
 20
-71.81424851746073
 30
0.0
 11
1.738665693448176
 21
-71.38012300702573
 31
0.0
  0
LINE
  5
124
330
1F
100
AcDbEntity
  8
0
100
AcDbLine
 10
0.8999996086875771
 20
-72.47309392802707
 30
0.0
 11
1.272791635883061
 21
-72.1870405446564
 31
0.0
  0
LINE
  5
125
330
1F
100
AcDbEntity
  8
0
100
AcDbLine
 10
0.4658740982524006
 20
-72.65291460222151
 30
0.0
 11
0.8999996086875771
 21
-72.47309392802707
 31
0.0
  0
LINE
  5
126
330
1F
100
AcDbEntity
  8
0
100
AcDbLine
 10
0.0000000406876463
 20
-72.71424808546085
 30
0.0
 11
0.4658740982524006
 21
-72.65291460222151
 31
0.0
  0
LINE
  5
127
330
1F
100
AcDbEntity
  8
0
100
AcDbLine
 10
-1.558844937878805
 20
-70.01424938146069
 30
0.0
 11
-1.738665612073245
 21
-70.44837489189587
 31
0.0
  0
LINE
  5
128
330
1F
100
AcDbEntity
  8
0
100
AcDbLine
 10
-1.27279155450831
 20
-72.1870405446564
 30
0.0
 11
-0.8999995273126455
 21
-72.47309392802707
 31
0.0
  0
LINE
  5
129
330
1F
100
AcDbEntity
  8
0
100
AcDbLine
 10
0.4658740982524006
 20
-69.17558329669991
 30
0.0
 11
0.0000000406876463
 21
-69.1142498134604
 31
0.0
  0
LINE
  5
12A
330
1F
100
AcDbEntity
  8
0
100
AcDbLine
 10
-0.8999995273126455
 20
-69.35540397089434
 30
0.0
 11
-1.27279155450831
 21
-69.64145735426503
 31
0.0
  0
LINE
  5
12B
330
1F
100
AcDbEntity
  8
0
100
AcDbLine
 10
-0.465874016877469
 20
-69.17558329669991
 30
0.0
 11
-0.8999995273126455
 21
-69.35540397089434
 31
0.0
  0
LINE
  5
12C
330
1F
100
AcDbEntity
  8
0
100
AcDbLine
 10
0.0000000406876463
 20
-69.1142498134604
 30
0.0
 11
-0.465874016877469
 21
-69.17558329669991
 31
0.0
  0
LINE
  5
12D
330
1F
100
AcDbEntity
  8
0
100
AcDbLine
 10
-1.558844937878805
 20
-71.81424851746054
 30
0.0
 11
-1.27279155450831
 21
-72.1870405446564
 31
0.0
  0
LINE
  5
12E
330
1F
100
AcDbEntity
  8
0
100
AcDbLine
 10
-1.738665612073245
 20
-71.38012300702573
 30
0.0
 11
-1.558844937878805
 21
-71.81424851746054
 31
0.0
  0
LINE
  5
12F
330
1F
100
AcDbEntity
  8
0
100
AcDbLine
 10
-1.799999095312757
 20
-70.91424894946063
 30
0.0
 11
-1.738665612073245
 21
-71.38012300702573
 31
0.0
  0
LINE
  5
130
330
1F
100
AcDbEntity
  8
0
100
AcDbLine
 10
0.8999996086875771
 20
-69.35540397089434
 30
0.0
 11
0.4658740982524006
 21
-69.17558329669991
 31
0.0
  0
LINE
  5
131
330
1F
100
AcDbEntity
  8
0
100
AcDbLine
 10
1.272791635883061
 20
-72.1870405446564
 30
0.0
 11
1.558845019253556
 21
-71.81424851746073
 31
0.0
  0
LINE
  5
132
330
1F
100
AcDbEntity
  8
0
100
AcDbLine
 10
-1.738665612073245
 20
-70.44837489189587
 30
0.0
 11
-1.799999095312757
 21
-70.91424894946063
 31
0.0
  0
LINE
  5
133
330
1F
100
AcDbEntity
  8
0
100
AcDbLine
 10
1.272791635883061
 20
-69.64145735426503
 30
0.0
 11
0.8999996086875771
 21
-69.35540397089434
 31
0.0
  0
LINE
  5
134
330
1F
100
AcDbEntity
  8
0
100
AcDbLine
 10
1.558845019253556
 20
-70.01424938146069
 30
0.0
 11
1.272791635883061
 21
-69.64145735426503
 31
0.0
  0
LINE
  5
135
330
1F
100
AcDbEntity
  8
0
100
AcDbLine
 10
-1.27279155450831
 20
-69.64145735426503
 30
0.0
 11
-1.558844937878805
 21
-70.01424938146069
 31
0.0
  0
LINE
  5
136
330
1F
100
AcDbEntity
  8
0
100
AcDbLine
 10
-0.465874016877469
 20
-72.65291460222151
 30
0.0
 11
0.0000000406876463
 21
-72.71424808546085
 31
0.0
  0
LINE
  5
137
330
1F
100
AcDbEntity
  8
0
100
AcDbLine
 10
-0.8999995273126455
 20
-72.47309392802707
 30
0.0
 11
-0.465874016877469
 21
-72.65291460222151
 31
0.0
  0
LINE
  5
138
330
1F
100
AcDbEntity
  8
0
100
AcDbLine
 10
1.738665693448176
 20
-5.46587363804329
 30
0.0
 11
1.799999176687869
 21
-4.999999580478176
 31
0.0
  0
LINE
  5
139
330
1F
100
AcDbEntity
  8
0
100
AcDbLine
 10
0.4658740982524006
 20
-6.738665233239247
 30
0.0
 11
0.8999996086875771
 21
-6.558844559044807
 31
0.0
  0
LINE
  5
13A
330
1F
100
AcDbEntity
  8
0
100
AcDbLine
 10
0.8999996086875771
 20
-6.558844559044807
 30
0.0
 11
1.272791635883061
 21
-6.272791175673951
 31
0.0
  0
LINE
  5
13B
330
1F
100
AcDbEntity
  8
0
100
AcDbLine
 10
1.272791635883061
 20
-6.272791175673951
 30
0.0
 11
1.558845019253556
 21
-5.899999148478467
 31
0.0
  0
LINE
  5
13C
330
1F
100
AcDbEntity
  8
0
100
AcDbLine
 10
1.558845019253556
 20
-5.899999148478467
 30
0.0
 11
1.738665693448176
 21
-5.46587363804329
 31
0.0
  0
LINE
  5
13D
330
1F
100
AcDbEntity
  8
0
100
AcDbLine
 10
1.738665693448176
 20
-4.534125522913421
 30
0.0
 11
1.558845019253556
 21
-4.100000012478244
 31
0.0
  0
LINE
  5
13E
330
1F
100
AcDbEntity
  8
0
100
AcDbLine
 10
1.799999176687869
 20
-4.999999580478176
 30
0.0
 11
1.738665693448176
 21
-4.534125522913421
 31
0.0
  0
LINE
  5
13F
330
1F
100
AcDbEntity
  8
0
100
AcDbLine
 10
-1.558844937878805
 20
-4.100000012478244
 30
0.0
 11
-1.738665612073245
 21
-4.534125522913421
 31
0.0
  0
LINE
  5
140
330
1F
100
AcDbEntity
  8
0
100
AcDbLine
 10
-1.27279155450831
 20
-6.272791175673951
 30
0.0
 11
-0.8999995273126455
 21
-6.558844559044807
 31
0.0
  0
LINE
  5
141
330
1F
100
AcDbEntity
  8
0
100
AcDbLine
 10
0.4658740982524006
 20
-3.261333927717645
 30
0.0
 11
0.0000000406876463
 21
-3.200000444478133
 31
0.0
  0
LINE
  5
142
330
1F
100
AcDbEntity
  8
0
100
AcDbLine
 10
-1.799999095312757
 20
-4.999999580478176
 30
0.0
 11
-1.738665612073245
 21
-5.46587363804329
 31
0.0
  0
LINE
  5
143
330
1F
100
AcDbEntity
  8
0
100
AcDbLine
 10
-1.738665612073245
 20
-5.46587363804329
 30
0.0
 11
-1.558844937878805
 21
-5.899999148478287
 31
0.0
  0
LINE
  5
144
330
1F
100
AcDbEntity
  8
0
100
AcDbLine
 10
-1.558844937878805
 20
-5.899999148478287
 30
0.0
 11
-1.27279155450831
 21
-6.272791175673951
 31
0.0
  0
LINE
  5
145
330
1F
100
AcDbEntity
  8
0
100
AcDbLine
 10
-0.8999995273126455
 20
-6.558844559044807
 30
0.0
 11
-0.465874016877469
 21
-6.738665233239247
 31
0.0
  0
LINE
  5
146
330
1F
100
AcDbEntity
  8
0
100
AcDbLine
 10
-0.465874016877469
 20
-6.738665233239247
 30
0.0
 11
0.0000000406876463
 21
-6.799998716478579
 31
0.0
  0
LINE
  5
147
330
1F
100
AcDbEntity
  8
0
100
AcDbLine
 10
0.0000000406876463
 20
-6.799998716478579
 30
0.0
 11
0.4658740982524006
 21
-6.738665233239247
 31
0.0
  0
LINE
  5
148
330
1F
100
AcDbEntity
  8
0
100
AcDbLine
 10
-1.27279155450831
 20
-3.72720798528258
 30
0.0
 11
-1.558844937878805
 21
-4.100000012478244
 31
0.0
  0
LINE
  5
149
330
1F
100
AcDbEntity
  8
0
100
AcDbLine
 10
1.558845019253556
 20
-4.100000012478244
 30
0.0
 11
1.272791635883061
 21
-3.72720798528258
 31
0.0
  0
LINE
  5
14A
330
1F
100
AcDbEntity
  8
0
100
AcDbLine
 10
1.272791635883061
 20
-3.72720798528258
 30
0.0
 11
0.8999996086875771
 21
-3.441154601911905
 31
0.0
  0
LINE
  5
14B
330
1F
100
AcDbEntity
  8
0
100
AcDbLine
 10
0.8999996086875771
 20
-3.441154601911905
 30
0.0
 11
0.4658740982524006
 21
-3.261333927717645
 31
0.0
  0
LINE
  5
14C
330
1F
100
AcDbEntity
  8
0
100
AcDbLine
 10
-0.8999995273126455
 20
-3.441154601911905
 30
0.0
 11
-1.27279155450831
 21
-3.72720798528258
 31
0.0
  0
LINE
  5
14D
330
1F
100
AcDbEntity
  8
0
100
AcDbLine
 10
-0.465874016877469
 20
-3.261333927717645
 30
0.0
 11
-0.8999995273126455
 21
-3.441154601911905
 31
0.0
  0
LINE
  5
14E
330
1F
100
AcDbEntity
  8
0
100
AcDbLine
 10
0.0000000406876463
 20
-3.200000444478133
 30
0.0
 11
-0.465874016877469
 21
-3.261333927717645
 31
0.0
  0
LINE
  5
14F
330
1F
100
AcDbEntity
  8
0
100
AcDbLine
 10
-1.738665612073245
 20
-4.534125522913421
 30
0.0
 11
-1.799999095312757
 21
-4.999999580478176
 31
0.0
  0
LINE
  5
150
330
1F
100
AcDbEntity
  8
0
100
AcDbLine
 10
-2.286283993695941
 20
33.37998248274899
 30
0.0
 11
-2.286283993695941
 21
37.68790896738316
 31
0.0
  0
LINE
  5
151
330
1F
100
AcDbEntity
  8
0
100
AcDbLine
 10
-2.286283993695941
 20
37.68790896738316
 30
0.0
 11
-0.1258897305518717
 21
33.37998248274899
 31
0.0
  0
LINE
  5
152
330
1F
100
AcDbEntity
  8
0
100
AcDbLine
 10
-0.1258897305518717
 20
33.37998248274899
 30
0.0
 11
-0.1258897305518717
 21
37.68790896738316
 31
0.0
  0
LINE
  5
153
330
1F
100
AcDbEntity
  8
0
100
AcDbLine
 10
-0.1258897305518717
 20
37.68790896738316
 30
0.0
 11
-0.1258897305518717
 21
33.37998248274899
 31
0.0
  0
LINE
  5
154
330
1F
100
AcDbEntity
  8
0
100
AcDbLine
 10
-0.1258897305518717
 20
33.37998248274899
 30
0.0
 11
-2.286283993695941
 21
37.68790896738316
 31
0.0
  0
LINE
  5
155
330
1F
100
AcDbEntity
  8
0
100
AcDbLine
 10
-2.286283993695941
 20
37.68790896738316
 30
0.0
 11
-2.286283993695941
 21
33.37998248274899
 31
0.0
  0
LINE
  5
156
330
1F
100
AcDbEntity
  8
0
100
AcDbLine
 10
1.747156994604391
 20
37.69400652787096
 30
0.0
 11
0.7106669860601762
 21
36.97606641762324
 31
0.0
  0
LINE
  5
157
330
1F
100
AcDbEntity
  8
0
100
AcDbLine
 10
0.7106669860601762
 20
36.97606641762324
 30
0.0
 11
1.747156994604391
 21
37.69400652787096
 31
0.0
  0
LINE
  5
158
330
1F
100
AcDbEntity
  8
0
100
AcDbLine
 10
1.747156994604391
 20
37.69400652787096
 30
0.0
 11
1.747156994604391
 21
33.37998248274899
 31
0.0
  0
LINE
  5
159
330
1F
100
AcDbEntity
  8
0
100
AcDbLine
 10
1.747156994604391
 20
33.37998248274899
 30
0.0
 11
1.747156994604391
 21
37.69400652787096
 31
0.0
  0
LINE
  5
15A
330
1F
100
AcDbEntity
  8
0
100
AcDbLine
 10
-2.279035021011803
 20
-40.57231649343105
 30
0.0
 11
-2.279035021011803
 21
-36.26439000879689
 31
0.0
  0
LINE
  5
15B
330
1F
100
AcDbEntity
  8
0
100
AcDbLine
 10
-2.279035021011803
 20
-36.26439000879689
 30
0.0
 11
-0.118640757867734
 21
-40.57231649343105
 31
0.0
  0
LINE
  5
15C
330
1F
100
AcDbEntity
  8
0
100
AcDbLine
 10
-0.118640757867734
 20
-40.57231649343105
 30
0.0
 11
-0.118640757867734
 21
-36.26439000879689
 31
0.0
  0
LINE
  5
15D
330
1F
100
AcDbEntity
  8
0
100
AcDbLine
 10
-0.118640757867734
 20
-36.26439000879689
 30
0.0
 11
-0.118640757867734
 21
-40.57231649343105
 31
0.0
  0
LINE
  5
15E
330
1F
100
AcDbEntity
  8
0
100
AcDbLine
 10
-0.118640757867734
 20
-40.57231649343105
 30
0.0
 11
-2.279035021011803
 21
-36.26439000879689
 31
0.0
  0
LINE
  5
15F
330
1F
100
AcDbEntity
  8
0
100
AcDbLine
 10
-2.279035021011803
 20
-36.26439000879689
 30
0.0
 11
-2.279035021011803
 21
-40.57231649343105
 31
0.0
  0
LINE
  5
160
330
1F
100
AcDbEntity
  8
0
100
AcDbLine
 10
0.7116754866825762
 20
-40.57231649343105
 30
0.0
 11
0.7116754866825762
 21
-38.76796259814522
 31
0.0
  0
LINE
  5
161
330
1F
100
AcDbEntity
  8
0
100
AcDbLine
 10
0.7116754866825762
 20
-38.76796259814522
 30
0.0
 11
0.7464029991482777
 21
-38.65324926414394
 31
0.0
  0
LINE
  5
162
330
1F
100
AcDbEntity
  8
0
100
AcDbLine
 10
0.7464029991482777
 20
-38.65324926414394
 30
0.0
 11
0.8318641203601684
 21
-38.55258294693048
 31
0.0
  0
LINE
  5
163
330
1F
100
AcDbEntity
  8
0
100
AcDbLine
 10
0.8318641203601684
 20
-38.55258294693048
 30
0.0
 11
1.154987189022518
 21
-38.39339136286702
 31
0.0
  0
LINE
  5
164
330
1F
100
AcDbEntity
  8
0
100
AcDbLine
 10
1.154987189022518
 20
-38.39339136286702
 30
0.0
 11
1.489042993090737
 21
-38.35280447587007
 31
0.0
  0
LINE
  5
165
330
1F
100
AcDbEntity
  8
0
100
AcDbLine
 10
1.489042993090737
 20
-38.35280447587007
 30
0.0
 11
1.81061785303548
 21
-38.2934961726879
 31
0.0
  0
LINE
  5
166
330
1F
100
AcDbEntity
  8
0
100
AcDbLine
 10
1.81061785303548
 20
-38.2934961726879
 30
0.0
 11
2.269530735529766
 21
-38.212322398694
 31
0.0
  0
LINE
  5
167
330
1F
100
AcDbEntity
  8
0
100
AcDbLine
 10
2.269530735529766
 20
-38.212322398694
 30
0.0
 11
2.578577014159722
 21
-38.1311486247001
 31
0.0
  0
LINE
  5
168
330
1F
100
AcDbEntity
  8
0
100
AcDbLine
 10
2.578577014159722
 20
-38.1311486247001
 30
0.0
 11
2.868937604497948
 21
-37.96727668659034
 31
0.0
  0
LINE
  5
169
330
1F
100
AcDbEntity
  8
0
100
AcDbLine
 10
2.868937604497948
 20
-37.96727668659034
 30
0.0
 11
2.941527752082505
 21
-37.8701206349116
 31
0.0
  0
LINE
  5
16A
330
1F
100
AcDbEntity
  8
0
100
AcDbLine
 10
2.941527752082505
 20
-37.8701206349116
 30
0.0
 11
2.965724467944024
 21
-37.76281786148363
 31
0.0
  0
LINE
  5
16B
330
1F
100
AcDbEntity
  8
0
100
AcDbLine
 10
2.965724467944024
 20
-37.76281786148363
 30
0.0
 11
2.965724467944024
 21
-36.74514454350725
 31
0.0
  0
LINE
  5
16C
330
1F
100
AcDbEntity
  8
0
100
AcDbLine
 10
2.965724467944024
 20
-36.74514454350725
 30
0.0
 11
2.945627527859706
 21
-36.64895612227703
 31
0.0
  0
LINE
  5
16D
330
1F
100
AcDbEntity
  8
0
100
AcDbLine
 10
2.945627527859706
 20
-36.64895612227703
 30
0.0
 11
2.885336707606752
 21
-36.56018123894457
 31
0.0
  0
LINE
  5
16E
330
1F
100
AcDbEntity
  8
0
100
AcDbLine
 10
2.885336707606752
 20
-36.56018123894457
 30
0.0
 11
2.644173426594936
 21
-36.40487208597295
 31
0.0
  0
LINE
  5
16F
330
1F
100
AcDbEntity
  8
0
100
AcDbLine
 10
2.644173426594936
 20
-36.40487208597295
 30
0.0
 11
2.282809602607701
 21
-36.29951052809091
 31
0.0
  0
LINE
  5
170
330
1F
100
AcDbEntity
  8
0
100
AcDbLine
 10
2.282809602607701
 20
-36.29951052809091
 30
0.0
 11
1.841820213344169
 21
-36.26439000879689
 31
0.0
  0
LINE
  5
171
330
1F
100
AcDbEntity
  8
0
100
AcDbLine
 10
1.841820213344169
 20
-36.26439000879689
 30
0.0
 11
1.400830824080637
 21
-36.29951052809091
 31
0.0
  0
LINE
  5
172
330
1F
100
AcDbEntity
  8
0
100
AcDbLine
 10
1.400830824080637
 20
-36.29951052809091
 30
0.0
 11
1.039467000093401
 21
-36.40487208597295
 31
0.0
  0
LINE
  5
173
330
1F
100
AcDbEntity
  8
0
100
AcDbLine
 10
1.039467000093401
 20
-36.40487208597295
 30
0.0
 11
0.798303719081586
 21
-36.56018123894457
 31
0.0
  0
LINE
  5
174
330
1F
100
AcDbEntity
  8
0
100
AcDbLine
 10
0.798303719081586
 20
-36.56018123894457
 30
0.0
 11
0.7380128988286319
 21
-36.64895612227703
 31
0.0
  0
LINE
  5
175
330
1F
100
AcDbEntity
  8
0
100
AcDbLine
 10
0.7380128988286319
 20
-36.64895612227703
 30
0.0
 11
0.7179159587443139
 21
-36.74514454350725
 31
0.0
  0
LINE
  5
176
330
1F
100
AcDbEntity
  8
0
100
AcDbLine
 10
0.7179159587443139
 20
-36.74514454350725
 30
0.0
 11
0.7179159587443139
 21
-37.05107058610633
 31
0.0
  0
LINE
  5
177
330
1F
100
AcDbEntity
  8
0
100
AcDbLine
 10
0.7179159587443139
 20
-37.05107058610633
 30
0.0
 11
0.7179159587443139
 21
-36.74514454350725
 31
0.0
  0
LINE
  5
178
330
1F
100
AcDbEntity
  8
0
100
AcDbLine
 10
0.7179159587443139
 20
-36.74514454350725
 30
0.0
 11
0.7380128988286319
 21
-36.64895612227703
 31
0.0
  0
LINE
  5
179
330
1F
100
AcDbEntity
  8
0
100
AcDbLine
 10
0.7380128988286319
 20
-36.64895612227703
 30
0.0
 11
0.798303719081586
 21
-36.56018123894457
 31
0.0
  0
LINE
  5
17A
330
1F
100
AcDbEntity
  8
0
100
AcDbLine
 10
0.798303719081586
 20
-36.56018123894457
 30
0.0
 11
1.039467000093401
 21
-36.40487208597295
 31
0.0
  0
LINE
  5
17B
330
1F
100
AcDbEntity
  8
0
100
AcDbLine
 10
1.039467000093401
 20
-36.40487208597295
 30
0.0
 11
1.400830824080637
 21
-36.29951052809091
 31
0.0
  0
LINE
  5
17C
330
1F
100
AcDbEntity
  8
0
100
AcDbLine
 10
1.400830824080637
 20
-36.29951052809091
 30
0.0
 11
1.841820213344169
 21
-36.26439000879689
 31
0.0
  0
LINE
  5
17D
330
1F
100
AcDbEntity
  8
0
100
AcDbLine
 10
1.841820213344169
 20
-36.26439000879689
 30
0.0
 11
2.282809602607701
 21
-36.29951052809091
 31
0.0
  0
LINE
  5
17E
330
1F
100
AcDbEntity
  8
0
100
AcDbLine
 10
2.282809602607701
 20
-36.29951052809091
 30
0.0
 11
2.644173426594936
 21
-36.40487208597295
 31
0.0
  0
LINE
  5
17F
330
1F
100
AcDbEntity
  8
0
100
AcDbLine
 10
2.644173426594936
 20
-36.40487208597295
 30
0.0
 11
2.885336707606752
 21
-36.56018123894457
 31
0.0
  0
LINE
  5
180
330
1F
100
AcDbEntity
  8
0
100
AcDbLine
 10
2.885336707606752
 20
-36.56018123894457
 30
0.0
 11
2.945627527859706
 21
-36.64895612227703
 31
0.0
  0
LINE
  5
181
330
1F
100
AcDbEntity
  8
0
100
AcDbLine
 10
2.945627527859706
 20
-36.64895612227703
 30
0.0
 11
2.965724467944024
 21
-36.74514454350725
 31
0.0
  0
LINE
  5
182
330
1F
100
AcDbEntity
  8
0
100
AcDbLine
 10
2.965724467944024
 20
-36.74514454350725
 30
0.0
 11
2.965724467944024
 21
-37.76281786148363
 31
0.0
  0
LINE
  5
183
330
1F
100
AcDbEntity
  8
0
100
AcDbLine
 10
2.965724467944024
 20
-37.76281786148363
 30
0.0
 11
2.941527752082505
 21
-37.8701206349116
 31
0.0
  0
LINE
  5
184
330
1F
100
AcDbEntity
  8
0
100
AcDbLine
 10
2.941527752082505
 20
-37.8701206349116
 30
0.0
 11
2.868937604497948
 21
-37.96727668659034
 31
0.0
  0
LINE
  5
185
330
1F
100
AcDbEntity
  8
0
100
AcDbLine
 10
2.868937604497948
 20
-37.96727668659034
 30
0.0
 11
2.578577014159722
 21
-38.1311486247001
 31
0.0
  0
LINE
  5
186
330
1F
100
AcDbEntity
  8
0
100
AcDbLine
 10
2.578577014159722
 20
-38.1311486247001
 30
0.0
 11
2.269530735529766
 21
-38.212322398694
 31
0.0
  0
LINE
  5
187
330
1F
100
AcDbEntity
  8
0
100
AcDbLine
 10
2.269530735529766
 20
-38.212322398694
 30
0.0
 11
1.81061785303548
 21
-38.2934961726879
 31
0.0
  0
LINE
  5
188
330
1F
100
AcDbEntity
  8
0
100
AcDbLine
 10
1.81061785303548
 20
-38.2934961726879
 30
0.0
 11
1.489042993090737
 21
-38.35280447587007
 31
0.0
  0
LINE
  5
189
330
1F
100
AcDbEntity
  8
0
100
AcDbLine
 10
1.489042993090737
 20
-38.35280447587007
 30
0.0
 11
1.154987189022518
 21
-38.39339136286702
 31
0.0
  0
LINE
  5
18A
330
1F
100
AcDbEntity
  8
0
100
AcDbLine
 10
1.154987189022518
 20
-38.39339136286702
 30
0.0
 11
0.8318641203601684
 21
-38.55258294693048
 31
0.0
  0
LINE
  5
18B
330
1F
100
AcDbEntity
  8
0
100
AcDbLine
 10
0.8318641203601684
 20
-38.55258294693048
 30
0.0
 11
0.7464029991482777
 21
-38.65324926414394
 31
0.0
  0
LINE
  5
18C
330
1F
100
AcDbEntity
  8
0
100
AcDbLine
 10
0.7464029991482777
 20
-38.65324926414394
 30
0.0
 11
0.7116754866825762
 21
-38.76796259814522
 31
0.0
  0
LINE
  5
18D
330
1F
100
AcDbEntity
  8
0
100
AcDbLine
 10
0.7116754866825762
 20
-38.76796259814522
 30
0.0
 11
0.7116754866825762
 21
-40.57231649343105
 31
0.0
  0
LINE
  5
18E
330
1F
100
AcDbEntity
  8
0
100
AcDbLine
 10
0.7116754866825762
 20
-40.57231649343105
 30
0.0
 11
2.847107861579694
 21
-40.57231649343105
 31
0.0
  0
LINE
  5
18F
330
1F
100
AcDbEntity
  8
0
100
AcDbLine
 10
2.847107861579694
 20
-40.57231649343105
 30
0.0
 11
0.7116754866825762
 21
-40.57231649343105
 31
0.0
  0
ENDSEC
  0
SECTION
  2
OBJECTS
  0
DICTIONARY
  5
C
330
0
100
AcDbDictionary
281
     1
  3
ACAD_GROUP
350
D
  3
ACAD_LAYOUT
350
1A
  3
ACAD_MATERIAL
350
3B
  3
ACAD_MLEADERSTYLE
350
191
  3
ACAD_MLINESTYLE
350
17
  3
ACAD_PLOTSETTINGS
350
19
  3
ACAD_PLOTSTYLENAME
350
E
  3
ACAD_TABLESTYLE
350
190
  3
ACAD_VISUALSTYLE
350
2A
  0
DICTIONARY
  5
D
102
{ACAD_REACTORS
330
C
102
}
330
C
100
AcDbDictionary
281
     1
  0
DICTIONARY
  5
1A
102
{ACAD_REACTORS
330
C
102
}
330
C
100
AcDbDictionary
281
     1
  3
Layout1
350
1E
  3
Layout2
350
26
  3
Model
350
22
  0
DICTIONARY
  5
3B
102
{ACAD_REACTORS
330
C
102
}
330
C
100
AcDbDictionary
281
     1
  3
ByBlock
350
3D
  3
ByLayer
350
3C
  3
Global
350
3E
  0
DICTIONARY
  5
191
102
{ACAD_REACTORS
330
C
102
}
330
C
100
AcDbDictionary
281
     1
  0
DICTIONARY
  5
17
102
{ACAD_REACTORS
330
C
102
}
330
C
100
AcDbDictionary
281
     1
  3
Standard
350
18
  0
DICTIONARY
  5
19
102
{ACAD_REACTORS
330
C
102
}
330
C
100
AcDbDictionary
281
     1
  0
ACDBDICTIONARYWDFLT
  5
E
102
{ACAD_REACTORS
330
C
102
}
330
C
100
AcDbDictionary
281
     1
  3
Normal
350
F
100
AcDbDictionaryWithDefault
340
F
  0
DICTIONARY
  5
190
102
{ACAD_REACTORS
330
C
102
}
330
C
100
AcDbDictionary
281
     1
  0
DICTIONARY
  5
2A
102
{ACAD_REACTORS
330
C
102
}
330
C
100
AcDbDictionary
281
     1
  3
2dWireframe
350
2F
  3
3D Hidden
350
31
  3
3dWireframe
350
30
  3
Basic
350
32
  3
Brighten
350
36
  3
ColorChange
350
3A
  3
Conceptual
350
34
  3
Dim
350
35
  3
Facepattern
350
39
  3
Flat
350
2B
  3
FlatWithEdges
350
2C
  3
Gouraud
350
2D
  3
GouraudWithEdges
350
2E
  3
Linepattern
350
38
  3
Realistic
350
33
  3
Thicken
350
37
  0
LAYOUT
  5
1E
102
{ACAD_REACTORS
330
1A
102
}
330
1A
100
AcDbPlotSettings
  1

  2
none_device
  4

  6

 40
0.0
 41
0.0
 42
0.0
 43
0.0
 44
0.0
 45
0.0
 46
0.0
 47
0.0
 48
0.0
 49
0.0
140
0.0
141
0.0
142
1.0
143
1.0
 70
   688
 72
     0
 73
     0
 74
     5
  7

 75
    16
 76
     0
 77
     2
 78
   300
147
1.0
148
0.0
149
0.0
100
AcDbLayout
  1
Layout1
 70
     1
 71
     1
 10
0.0
 20
0.0
 11
12.0
 21
9.0
 12
0.0
 22
0.0
 32
0.0
 14
1.000000000000000E+20
 24
1.000000000000000E+20
 34
1.000000000000000E+20
 15
-1.000000000000000E+20
 25
-1.000000000000000E+20
 35
-1.000000000000000E+20
146
0.0
 13
0.0
 23
0.0
 33
0.0
 16
1.0
 26
0.0
 36
0.0
 17
0.0
 27
1.0
 37
0.0
 76
     0
330
1B
  0
LAYOUT
  5
26
102
{ACAD_REACTORS
330
1A
102
}
330
1A
100
AcDbPlotSettings
  1

  2
none_device
  4

  6

 40
0.0
 41
0.0
 42
0.0
 43
0.0
 44
0.0
 45
0.0
 46
0.0
 47
0.0
 48
0.0
 49
0.0
140
0.0
141
0.0
142
1.0
143
1.0
 70
   688
 72
     0
 73
     0
 74
     5
  7

 75
    16
 76
     0
 77
     2
 78
   300
147
1.0
148
0.0
149
0.0
100
AcDbLayout
  1
Layout2
 70
     1
 71
     2
 10
0.0
 20
0.0
 11
0.0
 21
0.0
 12
0.0
 22
0.0
 32
0.0
 14
0.0
 24
0.0
 34
0.0
 15
0.0
 25
0.0
 35
0.0
146
0.0
 13
0.0
 23
0.0
 33
0.0
 16
1.0
 26
0.0
 36
0.0
 17
0.0
 27
1.0
 37
0.0
 76
     0
330
23
  0
LAYOUT
  5
22
102
{ACAD_REACTORS
330
1A
102
}
330
1A
100
AcDbPlotSettings
  1

  2
none_device
  4

  6

 40
0.0
 41
0.0
 42
0.0
 43
0.0
 44
0.0
 45
0.0
 46
0.0
 47
0.0
 48
0.0
 49
0.0
140
0.0
141
0.0
142
1.0
143
1.0
 70
  1712
 72
     0
 73
     0
 74
     0
  7

 75
     0
 76
     0
 77
     2
 78
   300
147
1.0
148
0.0
149
0.0
100
AcDbLayout
  1
Model
 70
     1
 71
     0
 10
0.0
 20
0.0
 11
12.0
 21
9.0
 12
0.0
 22
0.0
 32
0.0
 14
1.000000000000000E+20
 24
1.000000000000000E+20
 34
1.000000000000000E+20
 15
-1.000000000000000E+20
 25
-1.000000000000000E+20
 35
-1.000000000000000E+20
146
0.0
 13
0.0
 23
0.0
 33
0.0
 16
1.0
 26
0.0
 36
0.0
 17
0.0
 27
1.0
 37
0.0
 76
     0
330
1F
331
29
  0
MATERIAL
  5
3D
102
{ACAD_REACTORS
330
3B
102
}
330
3B
100
AcDbMaterial
  1
ByBlock
 72
     1
 94
      127
  0
MATERIAL
  5
3C
102
{ACAD_REACTORS
330
3B
102
}
330
3B
100
AcDbMaterial
  1
ByLayer
 72
     1
 94
      127
  0
MATERIAL
  5
3E
102
{ACAD_REACTORS
330
3B
102
}
330
3B
100
AcDbMaterial
  1
Global
 72
     1
 94
      127
  0
MLINESTYLE
  5
18
102
{ACAD_REACTORS
330
17
102
}
330
17
100
AcDbMlineStyle
  2
Standard
 70
     0
  3

 62
   256
 51
90.0
 52
90.0
 71
     2
 49
0.5
 62
   256
  6
BYLAYER
 49
-0.5
 62
   256
  6
BYLAYER
  0
ACDBPLACEHOLDER
  5
F
102
{ACAD_REACTORS
330
E
102
}
330
E
  0
VISUALSTYLE
  5
2F
102
{ACAD_REACTORS
330
2A
102
}
330
2A
100
AcDbVisualStyle
  2
2dWireframe
 70
     4
177
     2
291
     0
 71
     0
176
     1
 72
     2
176
     1
 73
     0
176
     1
 90
        0
176
     1
 40
-0.6
176
     1
 41
-30.0
176
     1
 62
     5
 63
     7
421
 16777215
176
     1
 74
     1
176
     1
 91
        4
176
     1
 64
     7
176
     1
 65
   257
176
     1
 75
     1
176
     1
175
     1
176
     1
 42
1.0
176
     1
 92
        0
176
     1
 66
   257
176
     1
 43
1.0
176
     1
 76
     1
176
     1
 77
     6
176
     1
 78
     2
176
     1
 67
     7
176
     1
 79
     5
176
     1
170
     0
176
     1
171
     0
176
     1
290
     0
176
     1
 93
        1
176
     1
 44
0.0
176
     1
173
     0
176
     1
  0
VISUALSTYLE
  5
31
102
{ACAD_REACTORS
330
2A
102
}
330
2A
100
AcDbVisualStyle
  2
3D Hidden
 70
     6
177
     2
291
     0
 71
     1
176
     1
 72
     2
176
     1
 73
     2
176
     1
 90
        0
176
     1
 40
-0.6
176
     1
 41
-30.0
176
     1
 62
     5
 63
     7
421
 16777215
176
     1
 74
     2
176
     1
 91
        2
176
     1
 64
     7
176
     1
 65
   257
176
     1
 75
     2
176
     1
175
     1
176
     1
 42
40.0
176
     1
 92
        0
176
     1
 66
   257
176
     1
 43
1.0
176
     1
 76
     1
176
     1
 77
     6
176
     1
 78
     2
176
     1
 67
     7
176
     1
 79
     3
176
     1
170
     0
176
     1
171
     0
176
     1
290
     0
176
     1
 93
        1
176
     1
 44
0.0
176
     1
173
     0
176
     1
  0
VISUALSTYLE
  5
30
102
{ACAD_REACTORS
330
2A
102
}
330
2A
100
AcDbVisualStyle
  2
3dWireframe
 70
     5
177
     2
291
     0
 71
     0
176
     1
 72
     2
176
     1
 73
     0
176
     1
 90
        0
176
     1
 40
-0.6
176
     1
 41
-30.0
176
     1
 62
     5
 63
     7
421
 16777215
176
     1
 74
     1
176
     1
 91
        4
176
     1
 64
     7
176
     1
 65
   257
176
     1
 75
     1
176
     1
175
     1
176
     1
 42
1.0
176
     1
 92
        0
176
     1
 66
   257
176
     1
 43
1.0
176
     1
 76
     1
176
     1
 77
     6
176
     1
 78
     2
176
     1
 67
     7
176
     1
 79
     5
176
     1
170
     0
176
     1
171
     0
176
     1
290
     0
176
     1
 93
        1
176
     1
 44
0.0
176
     1
173
     0
176
     1
  0
VISUALSTYLE
  5
32
102
{ACAD_REACTORS
330
2A
102
}
330
2A
100
AcDbVisualStyle
  2
Basic
 70
     7
177
     2
291
     1
 71
     1
176
     1
 72
     0
176
     1
 73
     1
176
     1
 90
        0
176
     1
 40
-0.6
176
     1
 41
-30.0
176
     1
 62
     5
 63
     7
421
 16777215
176
     1
 74
     0
176
     1
 91
        4
176
     1
 64
     7
176
     1
 65
   257
176
     1
 75
     1
176
     1
175
     1
176
     1
 42
1.0
176
     1
 92
        8
176
     1
 66
     7
176
     1
 43
1.0
176
     1
 76
     1
176
     1
 77
     6
176
     1
 78
     2
176
     1
 67
     7
176
     1
 79
     5
176
     1
170
     0
176
     1
171
     0
176
     1
290
     0
176
     1
 93
        1
176
     1
 44
0.0
176
     1
173
     0
176
     1
  0
VISUALSTYLE
  5
36
102
{ACAD_REACTORS
330
2A
102
}
330
2A
100
AcDbVisualStyle
  2
Brighten
 70
    12
177
     2
291
     1
 71
     2
176
     1
 72
     2
176
     1
 73
     0
176
     1
 90
        0
176
     1
 40
-0.6
176
     1
 41
-30.0
176
     1
 62
     5
 63
     7
421
 16777215
176
     1
 74
     1
176
     1
 91
        4
176
     1
 64
     7
176
     1
 65
   257
176
     1
 75
     1
176
     1
175
     1
176
     1
 42
1.0
176
     1
 92
        8
176
     1
 66
     7
176
     1
 43
1.0
176
     1
 76
     1
176
     1
 77
     6
176
     1
 78
     2
176
     1
 67
     7
176
     1
 79
     5
176
     1
170
     0
176
     1
171
     0
176
     1
290
     0
176
     1
 93
        1
176
     1
 44
50.0
176
     1
173
     0
176
     1
  0
VISUALSTYLE
  5
3A
102
{ACAD_REACTORS
330
2A
102
}
330
2A
100
AcDbVisualStyle
  2
ColorChange
 70
    16
177
     2
291
     1
 71
     2
176
     1
 72
     2
176
     1
 73
     3
176
     1
 90
        0
176
     1
 40
-0.6
176
     1
 41
-30.0
176
     1
 62
     5
 63
     8
421
  8421504
176
     1
 74
     1
176
     1
 91
        4
176
     1
 64
     7
176
     1
 65
   257
176
     1
 75
     1
176
     1
175
     1
176
     1
 42
1.0
176
     1
 92
        8
176
     1
 66
     8
424
  8421504
176
     1
 43
1.0
176
     1
 76
     1
176
     1
 77
     6
176
     1
 78
     2
176
     1
 67
     7
176
     1
 79
     5
176
     1
170
     0
176
     1
171
     0
176
     1
290
     0
176
     1
 93
        1
176
     1
 44
0.0
176
     1
173
     0
176
     1
  0
VISUALSTYLE
  5
34
102
{ACAD_REACTORS
330
2A
102
}
330
2A
100
AcDbVisualStyle
  2
Conceptual
 70
     9
177
     2
291
     0
 71
     3
176
     1
 72
     2
176
     1
 73
     0
176
     1
 90
        0
176
     1
 40
-0.6
176
     1
 41
-30.0
176
     1
 62
     5
 63
     7
421
 16777215
176
     1
 74
     2
176
     1
 91
        2
176
     1
 64
     7
176
     1
 65
   257
176
     1
 75
     1
176
     1
175
     1
176
     1
 42
40.0
176
     1
 92
        8
176
     1
 66
     7
176
     1
 43
1.0
176
     1
 76
     1
176
     1
 77
     6
176
     1
 78
     2
176
     1
 67
     7
176
     1
 79
     3
176
     1
170
     0
176
     1
171
     0
176
     1
290
     0
176
     1
 93
        1
176
     1
 44
0.0
176
     1
173
     0
176
     1
  0
VISUALSTYLE
  5
35
102
{ACAD_REACTORS
330
2A
102
}
330
2A
100
AcDbVisualStyle
  2
Dim
 70
    11
177
     2
291
     1
 71
     2
176
     1
 72
     2
176
     1
 73
     0
176
     1
 90
        0
176
     1
 40
-0.6
176
     1
 41
-30.0
176
     1
 62
     5
 63
     7
421
 16777215
176
     1
 74
     1
176
     1
 91
        4
176
     1
 64
     7
176
     1
 65
   257
176
     1
 75
     1
176
     1
175
     1
176
     1
 42
1.0
176
     1
 92
        8
176
     1
 66
     7
176
     1
 43
1.0
176
     1
 76
     1
176
     1
 77
     6
176
     1
 78
     2
176
     1
 67
     7
176
     1
 79
     5
176
     1
170
     0
176
     1
171
     0
176
     1
290
     0
176
     1
 93
        1
176
     1
 44
-50.0
176
     1
173
     0
176
     1
  0
VISUALSTYLE
  5
39
102
{ACAD_REACTORS
330
2A
102
}
330
2A
100
AcDbVisualStyle
  2
Facepattern
 70
    15
177
     2
291
     1
 71
     2
176
     1
 72
     2
176
     1
 73
     0
176
     1
 90
        0
176
     1
 40
-0.6
176
     1
 41
-30.0
176
     1
 62
     5
 63
     7
421
 16777215
176
     1
 74
     1
176
     1
 91
        4
176
     1
 64
     7
176
     1
 65
   257
176
     1
 75
     1
176
     1
175
     1
176
     1
 42
1.0
176
     1
 92
        8
176
     1
 66
     7
176
     1
 43
1.0
176
     1
 76
     1
176
     1
 77
     6
176
     1
 78
     2
176
     1
 67
     7
176
     1
 79
     5
176
     1
170
     0
176
     1
171
     0
176
     1
290
     0
176
     1
 93
        1
176
     1
 44
0.0
176
     1
173
     0
176
     1
  0
VISUALSTYLE
  5
2B
102
{ACAD_REACTORS
330
2A
102
}
330
2A
100
AcDbVisualStyle
  2
Flat
 70
     0
177
     2
291
     1
 71
     2
176
     1
 72
     1
176
     1
 73
     1
176
     1
 90
        2
176
     1
 40
-0.6
176
     1
 41
30.0
176
     1
 62
     5
 63
     7
421
 16777215
176
     1
 74
     0
176
     1
 91
        4
176
     1
 64
     7
176
     1
 65
   257
176
     1
 75
     1
176
     1
175
     1
176
     1
 42
1.0
176
     1
 92
        8
176
     1
 66
     7
176
     1
 43
1.0
176
     1
 76
     1
176
     1
 77
     6
176
     1
 78
     2
176
     1
 67
     7
176
     1
 79
     5
176
     1
170
     0
176
     1
171
     0
176
     1
290
     0
176
     1
 93
       13
176
     1
 44
0.0
176
     1
173
     0
176
     1
  0
VISUALSTYLE
  5
2C
102
{ACAD_REACTORS
330
2A
102
}
330
2A
100
AcDbVisualStyle
  2
FlatWithEdges
 70
     1
177
     2
291
     1
 71
     2
176
     1
 72
     1
176
     1
 73
     1
176
     1
 90
        2
176
     1
 40
-0.6
176
     1
 41
30.0
176
     1
 62
     5
 63
     7
421
 16777215
176
     1
 74
     1
176
     1
 91
        4
176
     1
 64
     7
176
     1
 65
   257
176
     1
 75
     1
176
     1
175
     1
176
     1
 42
1.0
176
     1
 92
        0
176
     1
 66
   257
176
     1
 43
1.0
176
     1
 76
     1
176
     1
 77
     6
176
     1
 78
     2
176
     1
 67
     7
176
     1
 79
     5
176
     1
170
     0
176
     1
171
     0
176
     1
290
     0
176
     1
 93
       13
176
     1
 44
0.0
176
     1
173
     0
176
     1
  0
VISUALSTYLE
  5
2D
102
{ACAD_REACTORS
330
2A
102
}
330
2A
100
AcDbVisualStyle
  2
Gouraud
 70
     2
177
     2
291
     1
 71
     2
176
     1
 72
     2
176
     1
 73
     1
176
     1
 90
        2
176
     1
 40
-0.6
176
     1
 41
30.0
176
     1
 62
     5
 63
     7
421
 16777215
176
     1
 74
     0
176
     1
 91
        4
176
     1
 64
     7
176
     1
 65
   257
176
     1
 75
     1
176
     1
175
     1
176
     1
 42
1.0
176
     1
 92
        0
176
     1
 66
     7
176
     1
 43
1.0
176
     1
 76
     1
176
     1
 77
     6
176
     1
 78
     2
176
     1
 67
     7
176
     1
 79
     5
176
     1
170
     0
176
     1
171
     0
176
     1
290
     0
176
     1
 93
       13
176
     1
 44
0.0
176
     1
173
     0
176
     1
  0
VISUALSTYLE
  5
2E
102
{ACAD_REACTORS
330
2A
102
}
330
2A
100
AcDbVisualStyle
  2
GouraudWithEdges
 70
     3
177
     2
291
     1
 71
     2
176
     1
 72
     2
176
     1
 73
     1
176
     1
 90
        2
176
     1
 40
-0.6
176
     1
 41
30.0
176
     1
 62
     5
 63
     7
421
 16777215
176
     1
 74
     1
176
     1
 91
        4
176
     1
 64
     7
176
     1
 65
   257
176
     1
 75
     1
176
     1
175
     1
176
     1
 42
1.0
176
     1
 92
        0
176
     1
 66
   257
176
     1
 43
1.0
176
     1
 76
     1
176
     1
 77
     6
176
     1
 78
     2
176
     1
 67
     7
176
     1
 79
     5
176
     1
170
     0
176
     1
171
     0
176
     1
290
     0
176
     1
 93
       13
176
     1
 44
0.0
176
     1
173
     0
176
     1
  0
VISUALSTYLE
  5
38
102
{ACAD_REACTORS
330
2A
102
}
330
2A
100
AcDbVisualStyle
  2
Linepattern
 70
    14
177
     2
291
     1
 71
     2
176
     1
 72
     2
176
     1
 73
     0
176
     1
 90
        0
176
     1
 40
-0.6
176
     1
 41
-30.0
176
     1
 62
     5
 63
     7
421
 16777215
176
     1
 74
     1
176
     1
 91
        4
176
     1
 64
     7
176
     1
 65
   257
176
     1
 75
     7
176
     1
175
     7
176
     1
 42
1.0
176
     1
 92
        8
176
     1
 66
     7
176
     1
 43
1.0
176
     1
 76
     1
176
     1
 77
     6
176
     1
 78
     2
176
     1
 67
     7
176
     1
 79
     5
176
     1
170
     0
176
     1
171
     0
176
     1
290
     0
176
     1
 93
        1
176
     1
 44
0.0
176
     1
173
     0
176
     1
  0
VISUALSTYLE
  5
33
102
{ACAD_REACTORS
330
2A
102
}
330
2A
100
AcDbVisualStyle
  2
Realistic
 70
     8
177
     2
291
     0
 71
     2
176
     1
 72
     2
176
     1
 73
     0
176
     1
 90
        0
176
     1
 40
-0.6
176
     1
 41
-30.0
176
     1
 62
     5
 63
     7
421
 16777215
176
     1
 74
     1
176
     1
 91
        0
176
     1
 64
     7
176
     1
 65
   257
176
     1
 75
     1
176
     1
175
     1
176
     1
 42
1.0
176
     1
 92
        8
176
     1
 66
     8
424
  7895160
176
     1
 43
1.0
176
     1
 76
     1
176
     1
 77
     6
176
     1
 78
     2
176
     1
 67
     7
176
     1
 79
     5
176
     1
170
     0
176
     1
171
     0
176
     1
290
     0
176
     1
 93
       13
176
     1
 44
0.0
176
     1
173
     0
176
     1
  0
VISUALSTYLE
  5
37
102
{ACAD_REACTORS
330
2A
102
}
330
2A
100
AcDbVisualStyle
  2
Thicken
 70
    13
177
     2
291
     1
 71
     2
176
     1
 72
     2
176
     1
 73
     0
176
     1
 90
        0
176
     1
 40
-0.6
176
     1
 41
-30.0
176
     1
 62
     5
 63
     7
421
 16777215
176
     1
 74
     1
176
     1
 91
        4
176
     1
 64
     7
176
     1
 65
   257
176
     1
 75
     1
176
     1
175
     1
176
     1
 42
1.0
176
     1
 92
       12
176
     1
 66
     7
176
     1
 43
1.0
176
     1
 76
     1
176
     1
 77
     6
176
     1
 78
     2
176
     1
 67
     7
176
     1
 79
     5
176
     1
170
     0
176
     1
171
     0
176
     1
290
     0
176
     1
 93
        1
176
     1
 44
0.0
176
     1
173
     0
176
     1
  0
ENDSEC
  0
EOF
