<?xml version="1.0" standalone="no"?>
<!DOCTYPE svg PUBLIC "-//W3C//DTD SVG 1.1//EN" "http://www.w3.org/Graphics/SVG/1.1/DTD/svg11.dtd">
<svg width="94.0mm" height="454.372mm"
 viewBox="0 0 94.0 454.372"
 xmlns="http://www.w3.org/2000/svg" version="1.1"
 xmlns:xlink="http://www.w3.org/1999/xlink">
<desc>Output from Flights of Ideas SVG Sketchup Plugin</desc>

<g id="text_annotations" font-size="1" stroke="rgb(255,0,0)" stroke-width="1">
</g>
  <path id="face0-cut"
 style="fill:none;stroke:rgb(255,0,0);stroke-width:1;stroke-miterlimit:4;stroke-dasharray:none;stroke-linejoin:round;stroke-linecap:round"
        d="M 76.0,10.384 L 16.571,10.384 L 3.0,23.955 L 3.00000000000001,63.813 L 16.571,77.384 L 83.0,77.384 L 83.0,80.884 L 83.26,82.302 L 84.348,83.878 L 86.043,84.768 L 87.957,84.768 L 89.652,83.878 L 90.74,82.302 L 91.0,80.884 L 91.0,6.88399999999999 L 90.74,5.466 L 89.652,3.89000000000001 L 87.957,3.0 L 86.043,3.0 L 84.348,3.89000000000001 L 83.26,5.46599999999999 L 83.0,6.88399999999999 L 83.0,10.384 L 82.0,10.384 L 82.0,15.884 L 76.0,15.884 L 76.0,10.384 M 38.99,36.384 L 40.266,39.249 L 40.918,42.316 L 40.918,45.452 L 40.266,48.519 L 38.99,51.384 L 37.147,53.921 L 34.817,56.019 L 32.101,57.587 L 29.119,58.556 L 26.0,58.884 L 22.881,58.556 L 19.899,57.587 L 17.183,56.019 L 14.853,53.921 L 13.01,51.384 L 11.734,48.519 L 11.082,45.452 L 11.082,42.316 L 11.734,39.249 L 13.01,36.384 L 14.853,33.847 L 17.183,31.749 L 19.899,30.181 L 22.881,29.212 L 26.0,28.884 L 29.119,29.212 L 32.101,30.181 L 34.817,31.749 L 37.147,33.847 L 38.99,36.384 M 69.0,47.884 L 69.0,73.884 L 57.0,73.884 L 57.0,47.884 L 69.0,47.884 M 74.427,73.348 L 74.214,73.766 L 73.882,74.098 L 73.464,74.311 L 73.0,74.384 L 72.536,74.311 L 72.118,74.098 L 71.786,73.766 L 71.573,73.348 L 71.5,72.884 L 71.573,72.42 L 71.786,72.002 L 72.118,71.67 L 72.536,71.457 L 73.0,71.384 L 73.464,71.457 L 73.882,71.67 L 74.214,72.002 L 74.427,72.42 L 74.5,72.884 L 74.427,73.348 M 9.02800000000001,29.234 L 8.858,28.824 L 8.8,28.3839999999999 L 8.858,27.944 L 9.02799999999999,27.534 L 9.29800000000001,27.182 L 9.65000000000001,26.912 L 10.06,26.7420000000001 L 10.5,26.684 L 10.94,26.742 L 11.35,26.912 L 11.702,27.182 L 11.972,27.534 L 12.142,27.9439999999999 L 12.2,28.384 L 12.142,28.824 L 11.972,29.234 L 11.702,29.586 L 11.35,29.856 L 10.94,30.026 L 10.5,30.084 L 10.06,30.026 L 9.65000000000001,29.856 L 9.29800000000001,29.586 L 9.02800000000001,29.234 M 72.382,30.286 L 71.824,30.002 L 71.382,29.56 L 71.098,29.002 L 71.0,28.384 L 71.098,27.766 L 71.382,27.208 L 71.824,26.766 L 72.382,26.482 L 73.0,26.384 L 73.618,26.482 L 74.176,26.766 L 74.618,27.208 L 74.902,27.766 L 75.0,28.384 L 74.902,29.002 L 74.618,29.56 L 74.176,30.002 L 73.618,30.286 L 73.0,30.384 L 72.382,30.286 M 74.5,14.884 L 74.427,15.348 L 74.214,15.766 L 73.882,16.098 L 73.464,16.311 L 73.0,16.384 L 72.536,16.311 L 72.118,16.098 L 71.786,15.766 L 71.573,15.348 L 71.5,14.884 L 71.573,14.42 L 71.786,14.002 L 72.118,13.67 L 72.536,13.457 L 73.0,13.384 L 73.464,13.457 L 73.882,13.67 L 74.214,14.002 L 74.427,14.42 L 74.5,14.884 M 88.5,27.884 L 88.427,28.348 L 88.214,28.766 L 87.882,29.098 L 87.464,29.311 L 87.0,29.384 L 86.536,29.311 L 86.118,29.098 L 85.786,28.766 L 85.573,28.348 L 85.5,27.884 L 85.573,27.42 L 85.786,27.002 L 86.118,26.67 L 86.536,26.457 L 87.0,26.384 L 87.464,26.457 L 87.882,26.67 L 88.214,27.002 L 88.427,27.42 L 88.5,27.884 M 53.464,16.311 L 53.0,16.384 L 52.536,16.311 L 52.118,16.098 L 51.786,15.766 L 51.573,15.348 L 51.5,14.884 L 51.573,14.42 L 51.786,14.002 L 52.118,13.67 L 52.536,13.457 L 53.0,13.384 L 53.464,13.457 L 53.882,13.67 L 54.214,14.002 L 54.427,14.42 L 54.5,14.884 L 54.427,15.348 L 54.214,15.766 L 53.882,16.098 L 53.464,16.311 M 40.65,57.912 L 41.06,57.742 L 41.5,57.684 L 41.94,57.742 L 42.35,57.912 L 42.702,58.182 L 42.972,58.534 L 43.142,58.944 L 43.2,59.384 L 43.142,59.824 L 42.972,60.234 L 42.702,60.586 L 42.35,60.856 L 41.94,61.026 L 41.5,61.084 L 41.06,61.026 L 40.65,60.856 L 40.298,60.586 L 40.028,60.234 L 39.858,59.824 L 39.8,59.384 L 39.858,58.944 L 40.028,58.534 L 40.298,58.182 L 40.65,57.912 M 53.882,71.67 L 54.214,72.002 L 54.427,72.42 L 54.5,72.884 L 54.427,73.348 L 54.214,73.766 L 53.882,74.098 L 53.464,74.311 L 53.0,74.384 L 52.536,74.311 L 52.118,74.098 L 51.786,73.766 L 51.573,73.348 L 51.5,72.884 L 51.573,72.42 L 51.786,72.002 L 52.118,71.67 L 52.536,71.457 L 53.0,71.384 L 53.464,71.457 L 53.882,71.67 M 9.29800000000001,58.182 L 9.65000000000001,57.912 L 10.06,57.742 L 10.5,57.684 L 10.94,57.742 L 11.35,57.912 L 11.702,58.182 L 11.972,58.534 L 12.142,58.944 L 12.2,59.384 L 12.142,59.824 L 11.972,60.234 L 11.702,60.586 L 11.35,60.856 L 10.94,61.026 L 10.5,61.084 L 10.06,61.026 L 9.65000000000001,60.856 L 9.29800000000001,60.586 L 9.02799999999999,60.234 L 8.858,59.824 L 8.8,59.384 L 8.858,58.944 L 9.02799999999999,58.534 L 9.29800000000001,58.182 M 88.564,79.637 L 88.95,81.329 L 87.868,82.686 L 86.132,82.686 L 85.05,81.329 L 85.436,79.637 L 87.0,78.884 L 88.564,79.637 M 87.0,71.384 L 87.464,71.457 L 87.882,71.67 L 88.214,72.002 L 88.427,72.42 L 88.5,72.884 L 88.427,73.348 L 88.214,73.766 L 87.882,74.098 L 87.464,74.311 L 87.0,74.384 L 86.536,74.311 L 86.118,74.098 L 85.786,73.766 L 85.573,73.348 L 85.5,72.884 L 85.573,72.42 L 85.786,72.002 L 86.118,71.67 L 86.536,71.457 L 87.0,71.384 M 88.5,14.884 L 88.427,15.348 L 88.214,15.766 L 87.882,16.098 L 87.464,16.311 L 87.0,16.384 L 86.536,16.311 L 86.118,16.098 L 85.786,15.766 L 85.573,15.348 L 85.5,14.884 L 85.573,14.42 L 85.786,14.002 L 86.118,13.67 L 86.536,13.457 L 87.0,13.384 L 87.464,13.457 L 87.882,13.67 L 88.214,14.002 L 88.427,14.42 L 88.5,14.884 M 42.35,29.856 L 41.94,30.026 L 41.5,30.084 L 41.06,30.026 L 40.65,29.856 L 40.298,29.586 L 40.028,29.234 L 39.858,28.824 L 39.8,28.384 L 39.858,27.944 L 40.028,27.534 L 40.298,27.182 L 40.65,26.912 L 41.06,26.742 L 41.5,26.684 L 41.94,26.742 L 42.35,26.912 L 42.702,27.182 L 42.972,27.534 L 43.142,27.944 L 43.2,28.384 L 43.142,28.824 L 42.972,29.234 L 42.702,29.586 L 42.35,29.856 M 54.176,57.766 L 54.618,58.208 L 54.902,58.766 L 55.0,59.384 L 54.902,60.002 L 54.618,60.56 L 54.176,61.002 L 53.618,61.286 L 53.0,61.384 L 52.382,61.286 L 51.824,61.002 L 51.382,60.56 L 51.098,60.002 L 51.0,59.384 L 51.098,58.766 L 51.382,58.208 L 51.824,57.766 L 52.382,57.482 L 53.0,57.384 L 53.618,57.482 L 54.176,57.766 M 88.214,59.002 L 88.427,59.42 L 88.5,59.884 L 88.427,60.348 L 88.214,60.766 L 87.882,61.098 L 87.464,61.311 L 87.0,61.384 L 86.536,61.311 L 86.118,61.098 L 85.786,60.766 L 85.573,60.348 L 85.5,59.884 L 85.573,59.42 L 85.786,59.002 L 86.118,58.67 L 86.536,58.457 L 87.0,58.384 L 87.464,58.457 L 87.882,58.67 L 88.214,59.002 M 71.382,60.56 L 71.098,60.002 L 71.0,59.384 L 71.098,58.766 L 71.382,58.208 L 71.824,57.766 L 72.382,57.482 L 73.0,57.384 L 73.618,57.482 L 74.176,57.766 L 74.618,58.208 L 74.902,58.766 L 75.0,59.384 L 74.902,60.002 L 74.618,60.56 L 74.176,61.002 L 73.618,61.286 L 73.0,61.384 L 72.382,61.286 L 71.824,61.002 L 71.382,60.56 M 53.618,30.286 L 53.0,30.384 L 52.382,30.286 L 51.824,30.002 L 51.382,29.56 L 51.098,29.002 L 51.0,28.384 L 51.098,27.766 L 51.382,27.208 L 51.824,26.766 L 52.382,26.482 L 53.0,26.384 L 53.618,26.482 L 54.176,26.766 L 54.618,27.208 L 54.902,27.766 L 55.0,28.384 L 54.902,29.002 L 54.618,29.56 L 54.176,30.002 L 53.618,30.286 M 69.0,13.884 L 69.0,39.884 L 57.0,39.884 L 57.0,13.884 L 69.0,13.884 M 85.436,8.13099999999999 L 85.05,6.43899999999999 L 86.132,5.08199999999999 L 87.868,5.08199999999999 L 88.95,6.43899999999999 L 88.564,8.13099999999999 L 87.0,8.88399999999999 L 85.436,8.13099999999999 "
  />
  <path id="face1-cut"
 style="fill:none;stroke:rgb(255,0,0);stroke-width:1;stroke-miterlimit:4;stroke-dasharray:none;stroke-linejoin:round;stroke-linecap:round"
        d="M 49.0,162.152 L 49.0,95.152 L 18.0,95.152 L 18.0,100.652 L 12.0,100.652 L 12.0,95.152 L 11.0,95.152 L 11.0,91.652 L 10.74,90.234 L 9.65200000000001,88.658 L 7.95699999999999,87.768 L 6.04300000000003,87.768 L 4.34800000000001,88.658 L 3.26000000000003,90.234 L 3.0,91.652 L 3.00000000000001,165.652 L 3.26000000000001,167.07 L 4.34800000000001,168.646 L 6.04300000000001,169.536 L 7.957,169.536 L 9.65200000000001,168.646 L 10.74,167.07 L 11.0,165.652 L 11.0,162.152 L 49.0,162.152 M 8.42700000000003,99.188 L 8.50000000000001,99.652 L 8.42700000000001,100.116 L 8.21400000000001,100.534 L 7.88200000000001,100.866 L 7.464,101.079 L 6.99999999999999,101.152 L 6.53600000000003,101.079 L 6.11800000000002,100.866 L 5.78600000000001,100.534 L 5.57300000000001,100.116 L 5.5,99.652 L 5.573,99.188 L 5.78600000000001,98.77 L 6.11800000000002,98.438 L 6.53600000000001,98.225 L 7.0,98.152 L 7.46400000000003,98.225 L 7.88200000000001,98.438 L 8.21400000000001,98.77 L 8.42700000000003,99.188 M 42.176,111.534 L 42.618,111.976 L 42.902,112.534 L 43.0,113.152 L 42.902,113.77 L 42.618,114.328 L 42.176,114.77 L 41.618,115.054 L 41.0,115.152 L 40.382,115.054 L 39.824,114.77 L 39.382,114.328 L 39.098,113.77 L 39.0,113.152 L 39.098,112.534 L 39.382,111.976 L 39.824,111.534 L 40.382,111.25 L 41.0,111.152 L 41.618,111.25 L 42.176,111.534 M 39.5,157.652 L 39.573,157.188 L 39.786,156.77 L 40.118,156.438 L 40.536,156.225 L 41.0,156.152 L 41.464,156.225 L 41.882,156.438 L 42.214,156.77 L 42.427,157.188 L 42.5,157.652 L 42.427,158.116 L 42.214,158.534 L 41.882,158.866 L 41.464,159.079 L 41.0,159.152 L 40.536,159.079 L 40.118,158.866 L 39.786,158.534 L 39.573,158.116 L 39.5,157.652 M 7.0,156.152 L 7.46400000000001,156.225 L 7.88200000000002,156.438 L 8.214,156.77 L 8.42700000000002,157.188 L 8.5,157.652 L 8.42700000000001,158.116 L 8.214,158.534 L 7.88200000000002,158.866 L 7.46400000000001,159.079 L 7.0,159.152 L 6.53600000000001,159.079 L 6.11800000000001,158.866 L 5.78600000000001,158.534 L 5.57300000000001,158.116 L 5.50000000000001,157.652 L 5.57300000000001,157.188 L 5.78600000000001,156.77 L 6.11800000000001,156.438 L 6.53600000000002,156.225 L 7.0,156.152 M 21.0,98.152 L 21.464,98.225 L 21.882,98.438 L 22.214,98.77 L 22.427,99.188 L 22.5,99.652 L 22.427,100.116 L 22.214,100.534 L 21.882,100.866 L 21.464,101.079 L 21.0,101.152 L 20.536,101.079 L 20.118,100.866 L 19.786,100.534 L 19.573,100.116 L 19.5,99.652 L 19.573,99.188 L 19.786,98.77 L 20.118,98.438 L 20.536,98.225 L 21.0,98.152 M 21.618,115.054 L 21.0,115.152 L 20.382,115.054 L 19.824,114.77 L 19.382,114.328 L 19.098,113.77 L 19.0,113.152 L 19.098,112.534 L 19.382,111.976 L 19.824,111.534 L 20.382,111.25 L 21.0,111.152 L 21.618,111.25 L 22.176,111.534 L 22.618,111.976 L 22.902,112.534 L 23.0,113.152 L 22.902,113.77 L 22.618,114.328 L 22.176,114.77 L 21.618,115.054 M 43.132,130.454 L 42.05,129.097 L 42.436,127.405 L 44.0,126.652 L 45.564,127.405 L 45.95,129.097 L 44.868,130.454 L 43.132,130.454 M 37.0,124.652 L 25.0,124.652 L 25.0,98.652 L 37.0,98.652 L 37.0,124.652 M 40.536,98.225 L 41.0,98.152 L 41.464,98.225 L 41.882,98.438 L 42.214,98.77 L 42.427,99.188 L 42.5,99.652 L 42.427,100.116 L 42.214,100.534 L 41.882,100.866 L 41.464,101.079 L 41.0,101.152 L 40.536,101.079 L 40.118,100.866 L 39.786,100.534 L 39.573,100.116 L 39.5,99.652 L 39.573,99.188 L 39.786,98.77 L 40.118,98.438 L 40.536,98.225 M 22.618,145.328 L 22.176,145.77 L 21.618,146.054 L 21.0,146.152 L 20.382,146.054 L 19.824,145.77 L 19.382,145.328 L 19.098,144.77 L 19.0,144.152 L 19.098,143.534 L 19.382,142.976 L 19.824,142.534 L 20.382,142.25 L 21.0,142.152 L 21.618,142.25 L 22.176,142.534 L 22.618,142.976 L 22.902,143.534 L 23.0,144.152 L 22.902,144.77 L 22.618,145.328 M 7.46400000000001,111.225 L 7.88200000000003,111.438 L 8.21399999999999,111.77 L 8.42700000000001,112.188 L 8.49999999999999,112.652 L 8.42700000000002,113.116 L 8.21399999999999,113.534 L 7.88200000000002,113.866 L 7.46400000000001,114.079 L 7.0,114.152 L 6.536,114.079 L 6.11800000000002,113.866 L 5.78600000000002,113.534 L 5.57300000000001,113.116 L 5.50000000000001,112.652 L 5.57300000000001,112.188 L 5.78600000000001,111.77 L 6.11800000000002,111.438 L 6.53600000000002,111.225 L 7.00000000000001,111.152 L 7.46400000000001,111.225 M 21.0,159.152 L 20.536,159.079 L 20.118,158.866 L 19.786,158.534 L 19.573,158.116 L 19.5,157.652 L 19.573,157.188 L 19.786,156.77 L 20.118,156.438 L 20.536,156.225 L 21.0,156.152 L 21.464,156.225 L 21.882,156.438 L 22.214,156.77 L 22.427,157.188 L 22.5,157.652 L 22.427,158.116 L 22.214,158.534 L 21.882,158.866 L 21.464,159.079 L 21.0,159.152 M 11.0,124.652 L 12.859,125.11 L 14.292,126.38 L 14.971,128.17 L 14.74,130.07 L 13.652,131.646 L 11.957,132.536 L 10.043,132.536 L 8.34800000000001,131.646 L 7.26,130.07 L 7.02900000000001,128.17 L 7.70800000000001,126.38 L 9.14100000000001,125.11 L 11.0,124.652 M 6.53600000000002,146.079 L 6.118,145.866 L 5.78600000000001,145.534 L 5.57300000000001,145.116 L 5.50000000000001,144.652 L 5.57300000000001,144.188 L 5.78600000000001,143.77 L 6.11800000000001,143.438 L 6.53600000000002,143.225 L 7.0,143.152 L 7.46400000000001,143.225 L 7.88200000000001,143.438 L 8.21400000000001,143.77 L 8.42700000000003,144.188 L 8.50000000000001,144.652 L 8.42700000000002,145.116 L 8.21399999999999,145.534 L 7.88200000000001,145.866 L 7.46400000000001,146.079 L 7.0,146.152 L 6.53600000000002,146.079 M 37.0,158.652 L 25.0,158.652 L 25.0,132.652 L 37.0,132.652 L 37.0,158.652 M 40.382,146.054 L 39.824,145.77 L 39.382,145.328 L 39.098,144.77 L 39.0,144.152 L 39.098,143.534 L 39.382,142.976 L 39.824,142.534 L 40.382,142.25 L 41.0,142.152 L 41.618,142.25 L 42.176,142.534 L 42.618,142.976 L 42.902,143.534 L 43.0,144.152 L 42.902,144.77 L 42.618,145.328 L 42.176,145.77 L 41.618,146.054 L 41.0,146.152 L 40.382,146.054 M 8.564,92.899 L 7.0,93.652 L 5.43600000000001,92.899 L 5.05000000000003,91.207 L 6.13200000000003,89.85 L 7.86800000000001,89.85 L 8.95000000000001,91.207 L 8.564,92.899 M 8.95000000000001,166.097 L 7.868,167.454 L 6.13200000000001,167.454 L 5.05000000000003,166.097 L 5.43599999999999,164.405 L 7.0,163.652 L 8.56400000000001,164.405 L 8.95000000000001,166.097 "
  />
  <path id="face2-cut"
 style="fill:none;stroke:rgb(255,0,0);stroke-width:1;stroke-miterlimit:4;stroke-dasharray:none;stroke-linejoin:round;stroke-linecap:round"
        d="M 49.0,246.92 L 49.0,179.92 L 11.0,179.92 L 11.0,176.42 L 10.74,175.002 L 9.652,173.426 L 7.95700000000001,172.536 L 6.04300000000002,172.536 L 4.34800000000004,173.426 L 3.26000000000002,175.002 L 3.00000000000001,176.42 L 3.0,186.92 L 46.0,186.92 L 46.0,194.92 L 3.00000000000001,194.92 L 3.00000000000001,201.42 L 11.0,201.42 L 16.0,201.525 L 17.495,201.682 L 19.881,202.457 L 22.053,203.712 L 23.918,205.39 L 25.392,207.42 L 26.413,209.712 L 26.934,212.166 L 26.934,214.674 L 26.413,217.128 L 25.392,219.42 L 23.918,221.45 L 22.053,223.128 L 19.881,224.383 L 17.495,225.158 L 16.0,225.315 L 11.0,225.42 L 3.00000000000001,225.42 L 3.00000000000001,231.92 L 46.0,231.92 L 46.0,239.92 L 3.00000000000001,239.92 L 3.00000000000001,250.42 L 3.26000000000002,251.838 L 4.34800000000001,253.414 L 6.04300000000001,254.304 L 7.95700000000001,254.304 L 9.65200000000002,253.414 L 10.74,251.838 L 11.0,250.42 L 11.0,246.92 L 49.0,246.92 M 8.214,228.538 L 8.42699999999999,228.956 L 8.5,229.42 L 8.42699999999999,229.884 L 8.214,230.302 L 7.88200000000002,230.634 L 7.46400000000001,230.847 L 7.00000000000001,230.92 L 6.53600000000002,230.847 L 6.11800000000001,230.634 L 5.786,230.302 L 5.57300000000001,229.884 L 5.5,229.42 L 5.57300000000001,228.956 L 5.786,228.538 L 6.11800000000001,228.206 L 6.53600000000002,227.993 L 7.0,227.92 L 7.46400000000001,227.993 L 7.88200000000002,228.206 L 8.214,228.538 M 5.786,243.302 L 5.57300000000001,242.884 L 5.5,242.42 L 5.57300000000001,241.956 L 5.786,241.538 L 6.11800000000001,241.206 L 6.53600000000002,240.993 L 7.0,240.92 L 7.46400000000001,240.993 L 7.88200000000002,241.206 L 8.214,241.538 L 8.42699999999999,241.956 L 8.5,242.42 L 8.42699999999999,242.884 L 8.214,243.302 L 7.88200000000002,243.634 L 7.46400000000001,243.847 L 7.0,243.92 L 6.53600000000002,243.847 L 6.11800000000001,243.634 L 5.786,243.302 M 8.95000000000002,250.865 L 7.868,252.222 L 6.13200000000001,252.222 L 5.05000000000001,250.865 L 5.43599999999999,249.173 L 7.0,248.42 L 8.56400000000001,249.173 L 8.95000000000002,250.865 M 23.0,197.92 L 22.902,198.538 L 22.618,199.096 L 22.176,199.538 L 21.618,199.822 L 21.0,199.92 L 20.382,199.822 L 19.824,199.538 L 19.382,199.096 L 19.098,198.538 L 19.0,197.92 L 19.098,197.302 L 19.382,196.744 L 19.824,196.302 L 20.382,196.018 L 21.0,195.92 L 21.618,196.018 L 22.176,196.302 L 22.618,196.744 L 22.902,197.302 L 23.0,197.92 M 20.536,182.993 L 21.0,182.92 L 21.464,182.993 L 21.882,183.206 L 22.214,183.538 L 22.427,183.956 L 22.5,184.42 L 22.427,184.884 L 22.214,185.302 L 21.882,185.634 L 21.464,185.847 L 21.0,185.92 L 20.536,185.847 L 20.118,185.634 L 19.786,185.302 L 19.573,184.884 L 19.5,184.42 L 19.573,183.956 L 19.786,183.538 L 20.118,183.206 L 20.536,182.993 M 40.536,240.993 L 41.0,240.92 L 41.464,240.993 L 41.882,241.206 L 42.214,241.538 L 42.427,241.956 L 42.5,242.42 L 42.427,242.884 L 42.214,243.302 L 41.882,243.634 L 41.464,243.847 L 41.0,243.92 L 40.536,243.847 L 40.118,243.634 L 39.786,243.302 L 39.573,242.884 L 39.5,242.42 L 39.573,241.956 L 39.786,241.538 L 40.118,241.206 L 40.536,240.993 M 8.42699999999999,184.884 L 8.21399999999998,185.302 L 7.88200000000002,185.634 L 7.46400000000001,185.847 L 6.99999999999999,185.92 L 6.53600000000002,185.847 L 6.11800000000002,185.634 L 5.786,185.302 L 5.57300000000001,184.884 L 5.5,184.42 L 5.57300000000001,183.956 L 5.786,183.538 L 6.11800000000001,183.206 L 6.53600000000002,182.993 L 7.0,182.92 L 7.46400000000003,182.993 L 7.88200000000001,183.206 L 8.214,183.538 L 8.42700000000002,183.956 L 8.5,184.42 L 8.42699999999999,184.884 M 8.214,198.302 L 7.88200000000002,198.634 L 7.46400000000003,198.847 L 7.0,198.92 L 6.53600000000002,198.847 L 6.11800000000002,198.634 L 5.786,198.302 L 5.57300000000001,197.884 L 5.5,197.42 L 5.57300000000002,196.956 L 5.786,196.538 L 6.11800000000001,196.206 L 6.53600000000003,195.993 L 7.00000000000001,195.92 L 7.46400000000001,195.993 L 7.88200000000002,196.206 L 8.214,196.538 L 8.42699999999999,196.956 L 8.5,197.42 L 8.42700000000001,197.884 L 8.214,198.302 M 43.132,215.222 L 42.05,213.865 L 42.436,212.173 L 44.0,211.42 L 45.564,212.173 L 45.95,213.865 L 44.868,215.222 L 43.132,215.222 M 21.618,227.018 L 22.176,227.302 L 22.618,227.744 L 22.902,228.302 L 23.0,228.92 L 22.902,229.538 L 22.618,230.096 L 22.176,230.538 L 21.618,230.822 L 21.0,230.92 L 20.382,230.822 L 19.824,230.538 L 19.382,230.096 L 19.098,229.538 L 19.0,228.92 L 19.098,228.302 L 19.382,227.744 L 19.824,227.302 L 20.382,227.018 L 21.0,226.92 L 21.618,227.018 M 39.786,185.302 L 39.573,184.884 L 39.5,184.42 L 39.573,183.956 L 39.786,183.538 L 40.118,183.206 L 40.536,182.993 L 41.0,182.92 L 41.464,182.993 L 41.882,183.206 L 42.214,183.538 L 42.427,183.956 L 42.5,184.42 L 42.427,184.884 L 42.214,185.302 L 41.882,185.634 L 41.464,185.847 L 41.0,185.92 L 40.536,185.847 L 40.118,185.634 L 39.786,185.302 M 39.098,197.302 L 39.382,196.744 L 39.824,196.302 L 40.382,196.018 L 41.0,195.92 L 41.618,196.018 L 42.176,196.302 L 42.618,196.744 L 42.902,197.302 L 43.0,197.92 L 42.902,198.538 L 42.618,199.096 L 42.176,199.538 L 41.618,199.822 L 41.0,199.92 L 40.382,199.822 L 39.824,199.538 L 39.382,199.096 L 39.098,198.538 L 39.0,197.92 L 39.098,197.302 M 19.786,241.538 L 20.118,241.206 L 20.536,240.993 L 21.0,240.92 L 21.464,240.993 L 21.882,241.206 L 22.214,241.538 L 22.427,241.956 L 22.5,242.42 L 22.427,242.884 L 22.214,243.302 L 21.882,243.634 L 21.464,243.847 L 21.0,243.92 L 20.536,243.847 L 20.118,243.634 L 19.786,243.302 L 19.573,242.884 L 19.5,242.42 L 19.573,241.956 L 19.786,241.538 M 41.0,230.92 L 40.382,230.822 L 39.824,230.538 L 39.382,230.096 L 39.098,229.538 L 39.0,228.92 L 39.098,228.302 L 39.382,227.744 L 39.824,227.302 L 40.382,227.018 L 41.0,226.92 L 41.618,227.018 L 42.176,227.302 L 42.618,227.744 L 42.902,228.302 L 43.0,228.92 L 42.902,229.538 L 42.618,230.096 L 42.176,230.538 L 41.618,230.822 L 41.0,230.92 M 5.43599999999999,177.667 L 5.05000000000001,175.975 L 6.13200000000002,174.618 L 7.868,174.618 L 8.95000000000002,175.975 L 8.56400000000001,177.667 L 6.99999999999999,178.42 L 5.43599999999999,177.667 "
  />
  <path id="face3-cut"
 style="fill:none;stroke:rgb(255,0,0);stroke-width:1;stroke-miterlimit:4;stroke-dasharray:none;stroke-linejoin:round;stroke-linecap:round"
        d="M 83.0,264.688 L 16.571,264.688 L 3.00000000000001,278.259 L 3.0,318.117 L 16.571,331.688 L 83.0,331.688 L 83.0,335.188 L 83.26,336.606 L 84.348,338.182 L 86.043,339.072 L 87.957,339.072 L 89.652,338.182 L 90.74,336.606 L 91.0,335.188 L 91.0,324.688 L 48.0,324.688 L 48.0,316.688 L 91.0,316.688 L 91.0,309.688 L 35.5222192564347,309.688 L 34.817,310.323 L 32.101,311.891 L 29.119,312.86 L 26.0,313.188 L 22.881,312.86 L 19.899,311.891 L 17.183,310.323 L 14.853,308.225 L 13.01,305.688 L 11.734,302.823 L 11.082,299.756 L 11.082,296.62 L 11.734,293.553 L 13.01,290.688 L 14.853,288.151 L 17.183,286.053 L 19.899,284.485 L 22.881,283.516 L 26.0,283.188 L 29.119,283.516 L 32.101,284.485 L 34.817,286.053 L 35.5222192564347,286.688 L 91.0,286.688 L 91.0,279.688 L 48.0,279.688 L 48.0,271.688 L 91.0,271.688 L 91.0,261.188 L 90.74,259.77 L 89.652,258.194 L 87.957,257.304 L 86.043,257.304 L 84.348,258.194 L 83.26,259.77 L 83.0,261.188 L 83.0,264.688 M 85.573,269.652 L 85.5,269.188 L 85.573,268.724 L 85.786,268.306 L 86.118,267.974 L 86.536,267.761 L 87.0,267.688 L 87.464,267.761 L 87.882,267.974 L 88.214,268.306 L 88.427,268.724 L 88.5,269.188 L 88.427,269.652 L 88.214,270.07 L 87.882,270.402 L 87.464,270.615 L 87.0,270.688 L 86.536,270.615 L 86.118,270.402 L 85.786,270.07 L 85.573,269.652 M 12.142,282.248 L 12.2,282.688 L 12.142,283.128 L 11.972,283.538 L 11.702,283.89 L 11.35,284.16 L 10.94,284.33 L 10.5,284.388 L 10.06,284.33 L 9.65,284.16 L 9.29800000000001,283.89 L 9.028,283.538 L 8.858,283.128 L 8.79999999999999,282.688 L 8.858,282.248 L 9.02799999999998,281.838 L 9.29800000000001,281.486 L 9.64999999999998,281.216 L 10.06,281.046 L 10.5,280.988 L 10.94,281.046 L 11.35,281.216 L 11.702,281.486 L 11.972,281.838 L 12.142,282.248 M 39.858,283.128 L 39.8,282.688 L 39.858,282.248 L 40.028,281.838 L 40.298,281.486 L 40.65,281.216 L 41.06,281.046 L 41.5,280.988 L 41.94,281.046 L 42.35,281.216 L 42.702,281.486 L 42.972,281.838 L 43.142,282.248 L 43.2,282.688 L 43.142,283.128 L 42.972,283.538 L 42.702,283.89 L 42.35,284.16 L 41.94,284.33 L 41.5,284.388 L 41.06,284.33 L 40.65,284.16 L 40.298,283.89 L 40.028,283.538 L 39.858,283.128 M 73.464,328.615 L 73.0,328.688 L 72.536,328.615 L 72.118,328.402 L 71.786,328.07 L 71.573,327.652 L 71.5,327.188 L 71.573,326.724 L 71.786,326.306 L 72.118,325.974 L 72.536,325.761 L 73.0,325.688 L 73.464,325.761 L 73.882,325.974 L 74.214,326.306 L 74.427,326.724 L 74.5,327.188 L 74.427,327.652 L 74.214,328.07 L 73.882,328.402 L 73.464,328.615 M 71.382,312.512 L 71.824,312.07 L 72.382,311.786 L 73.0,311.688 L 73.618,311.786 L 74.176,312.07 L 74.618,312.512 L 74.902,313.07 L 75.0,313.688 L 74.902,314.306 L 74.618,314.864 L 74.176,315.306 L 73.618,315.59 L 73.0,315.688 L 72.382,315.59 L 71.824,315.306 L 71.382,314.864 L 71.098,314.306 L 71.0,313.688 L 71.098,313.07 L 71.382,312.512 M 71.0,282.688 L 71.098,282.07 L 71.382,281.512 L 71.824,281.07 L 72.382,280.786 L 73.0,280.688 L 73.618,280.786 L 74.176,281.07 L 74.618,281.512 L 74.902,282.07 L 75.0,282.688 L 74.902,283.306 L 74.618,283.864 L 74.176,284.306 L 73.618,284.59 L 73.0,284.688 L 72.382,284.59 L 71.824,284.306 L 71.382,283.864 L 71.098,283.306 L 71.0,282.688 M 86.536,325.761 L 87.0,325.688 L 87.464,325.761 L 87.882,325.974 L 88.214,326.306 L 88.427,326.724 L 88.5,327.188 L 88.427,327.652 L 88.214,328.07 L 87.882,328.402 L 87.464,328.615 L 87.0,328.688 L 86.536,328.615 L 86.118,328.402 L 85.786,328.07 L 85.573,327.652 L 85.5,327.188 L 85.573,326.724 L 85.786,326.306 L 86.118,325.974 L 86.536,325.761 M 51.5,269.188 L 51.573,268.724 L 51.786,268.306 L 52.118,267.974 L 52.536,267.761 L 53.0,267.688 L 53.464,267.761 L 53.882,267.974 L 54.214,268.306 L 54.427,268.724 L 54.5,269.188 L 54.427,269.652 L 54.214,270.07 L 53.882,270.402 L 53.464,270.615 L 53.0,270.688 L 52.536,270.615 L 52.118,270.402 L 51.786,270.07 L 51.573,269.652 L 51.5,269.188 M 87.0,283.688 L 86.536,283.615 L 86.118,283.402 L 85.786,283.07 L 85.573,282.652 L 85.5,282.188 L 85.573,281.724 L 85.786,281.306 L 86.118,280.974 L 86.536,280.761 L 87.0,280.688 L 87.464,280.761 L 87.882,280.974 L 88.214,281.306 L 88.427,281.724 L 88.5,282.188 L 88.427,282.652 L 88.214,283.07 L 87.882,283.402 L 87.464,283.615 L 87.0,283.688 M 85.573,314.652 L 85.5,314.188 L 85.573,313.724 L 85.786,313.306 L 86.118,312.974 L 86.536,312.761 L 87.0,312.688 L 87.464,312.761 L 87.882,312.974 L 88.214,313.306 L 88.427,313.724 L 88.5,314.188 L 88.427,314.652 L 88.214,315.07 L 87.882,315.402 L 87.464,315.615 L 87.0,315.688 L 86.536,315.615 L 86.118,315.402 L 85.786,315.07 L 85.573,314.652 M 40.65,312.216 L 41.06,312.046 L 41.5,311.988 L 41.94,312.046 L 42.35,312.216 L 42.702,312.486 L 42.972,312.838 L 43.142,313.248 L 43.2,313.688 L 43.142,314.128 L 42.972,314.538 L 42.702,314.89 L 42.35,315.16 L 41.94,315.33 L 41.5,315.388 L 41.06,315.33 L 40.65,315.16 L 40.298,314.89 L 40.028,314.538 L 39.858,314.128 L 39.8,313.688 L 39.858,313.248 L 40.028,312.838 L 40.298,312.486 L 40.65,312.216 M 71.573,269.652 L 71.5,269.188 L 71.573,268.724 L 71.786,268.306 L 72.118,267.974 L 72.536,267.761 L 73.0,267.688 L 73.464,267.761 L 73.882,267.974 L 74.214,268.306 L 74.427,268.724 L 74.5,269.188 L 74.427,269.652 L 74.214,270.07 L 73.882,270.402 L 73.464,270.615 L 73.0,270.688 L 72.536,270.615 L 72.118,270.402 L 71.786,270.07 L 71.573,269.652 M 51.382,283.864 L 51.098,283.306 L 51.0,282.688 L 51.098,282.07 L 51.382,281.512 L 51.824,281.07 L 52.382,280.786 L 53.0,280.688 L 53.618,280.786 L 54.176,281.07 L 54.618,281.512 L 54.902,282.07 L 55.0,282.688 L 54.902,283.306 L 54.618,283.864 L 54.176,284.306 L 53.618,284.59 L 53.0,284.688 L 52.382,284.59 L 51.824,284.306 L 51.382,283.864 M 53.882,328.402 L 53.464,328.615 L 53.0,328.688 L 52.536,328.615 L 52.118,328.402 L 51.786,328.07 L 51.573,327.652 L 51.5,327.188 L 51.573,326.724 L 51.786,326.306 L 52.118,325.974 L 52.536,325.761 L 53.0,325.688 L 53.464,325.761 L 53.882,325.974 L 54.214,326.306 L 54.427,326.724 L 54.5,327.188 L 54.427,327.652 L 54.214,328.07 L 53.882,328.402 M 10.5,315.388 L 10.06,315.33 L 9.65,315.16 L 9.29800000000001,314.89 L 9.02800000000001,314.538 L 8.85800000000003,314.128 L 8.8,313.688 L 8.85800000000001,313.248 L 9.02800000000001,312.838 L 9.29799999999999,312.486 L 9.65,312.216 L 10.06,312.046 L 10.5,311.988 L 10.94,312.046 L 11.35,312.216 L 11.702,312.486 L 11.972,312.838 L 12.142,313.248 L 12.2,313.688 L 12.142,314.128 L 11.972,314.538 L 11.702,314.89 L 11.35,315.16 L 10.94,315.33 L 10.5,315.388 M 51.824,315.306 L 51.382,314.864 L 51.098,314.306 L 51.0,313.688 L 51.098,313.07 L 51.382,312.512 L 51.824,312.07 L 52.382,311.786 L 53.0,311.688 L 53.618,311.786 L 54.176,312.07 L 54.618,312.512 L 54.902,313.07 L 55.0,313.688 L 54.902,314.306 L 54.618,314.864 L 54.176,315.306 L 53.618,315.59 L 53.0,315.688 L 52.382,315.59 L 51.824,315.306 M 86.132,259.386 L 87.868,259.386 L 88.95,260.743 L 88.564,262.435 L 87.0,263.188 L 85.436,262.435 L 85.05,260.743 L 86.132,259.386 M 86.132,336.99 L 85.05,335.633 L 85.436,333.941 L 87.0,333.188 L 88.564,333.941 L 88.95,335.633 L 87.868,336.99 L 86.132,336.99 "
  />
  <path id="face4-cut"
 style="fill:none;stroke:rgb(255,0,0);stroke-width:1;stroke-miterlimit:4;stroke-dasharray:none;stroke-linejoin:round;stroke-linecap:round"
        d="M 16.571,409.072 L 48.0,409.072 L 48.0,387.072 L 35.5222192564347,387.072 L 34.817,387.707 L 32.101,389.275 L 29.119,390.244 L 26.0,390.572 L 22.881,390.244 L 19.899,389.275 L 17.183,387.707 L 14.853,385.609 L 13.01,383.072 L 11.734,380.207 L 11.082,377.14 L 11.082,374.004 L 11.734,370.937 L 13.01,368.072 L 14.853,365.535 L 17.183,363.437 L 19.899,361.869 L 22.881,360.9 L 26.0,360.572 L 29.119,360.9 L 32.101,361.869 L 34.817,363.437 L 35.5222192564347,364.072 L 48.0,364.072 L 48.0,342.072 L 16.571,342.072 L 3.0,355.643 L 3.0,395.501 L 16.571,409.072 M 11.35,392.544 L 10.94,392.714 L 10.5,392.772 L 10.06,392.714 L 9.65,392.544 L 9.298,392.274 L 9.028,391.922 L 8.858,391.512 L 8.8,391.072 L 8.858,390.632 L 9.028,390.222 L 9.298,389.87 L 9.65,389.6 L 10.06,389.43 L 10.5,389.372 L 10.94,389.43 L 11.35,389.6 L 11.702,389.87 L 11.972,390.222 L 12.142,390.632 L 12.2,391.072 L 12.142,391.512 L 11.972,391.922 L 11.702,392.274 L 11.35,392.544 M 41.94,392.714 L 41.5,392.772 L 41.06,392.714 L 40.65,392.544 L 40.298,392.274 L 40.028,391.922 L 39.858,391.512 L 39.8,391.072 L 39.858,390.632 L 40.028,390.222 L 40.298,389.87 L 40.65,389.6 L 41.06,389.43 L 41.5,389.372 L 41.94,389.43 L 42.35,389.6 L 42.702,389.87 L 42.972,390.222 L 43.142,390.632 L 43.2,391.072 L 43.142,391.512 L 42.972,391.922 L 42.702,392.274 L 42.35,392.544 L 41.94,392.714 M 10.94,361.714 L 10.5,361.772 L 10.06,361.714 L 9.64999999999999,361.544 L 9.298,361.274 L 9.028,360.922 L 8.858,360.512 L 8.8,360.072 L 8.858,359.632 L 9.028,359.222 L 9.298,358.87 L 9.65,358.6 L 10.06,358.43 L 10.5,358.372 L 10.94,358.43 L 11.35,358.6 L 11.702,358.87 L 11.972,359.222 L 12.142,359.632 L 12.2,360.072 L 12.142,360.512 L 11.972,360.922 L 11.702,361.274 L 11.35,361.544 L 10.94,361.714 M 41.94,361.714 L 41.5,361.772 L 41.06,361.714 L 40.65,361.544 L 40.298,361.274 L 40.028,360.922 L 39.858,360.512 L 39.8,360.072 L 39.858,359.632 L 40.028,359.222 L 40.298,358.87 L 40.65,358.6 L 41.06,358.43 L 41.5,358.372 L 41.94,358.43 L 42.35,358.6 L 42.702,358.87 L 42.972,359.222 L 43.142,359.632 L 43.2,360.072 L 43.142,360.512 L 42.972,360.922 L 42.702,361.274 L 42.35,361.544 L 41.94,361.714 "
  />
  <path id="face5-cut"
 style="fill:none;stroke:rgb(255,0,0);stroke-width:1;stroke-miterlimit:4;stroke-dasharray:none;stroke-linejoin:round;stroke-linecap:round"
        d="M 14.81,425.695 L 14.974,423.727 L 14.988,418.397 L 11.994,418.397 L 11.994,412.072 L 5.99399999999998,412.072 L 5.99399999999998,418.397 L 3.0,418.397 L 3.014,423.727 L 3.178,425.695 L 3.97099999999998,427.504 L 5.30899999999999,428.957 L 7.04599999999999,429.897 L 8.99399999999999,430.222 L 10.942,429.897 L 12.679,428.957 L 14.017,427.504 L 14.81,425.695 M 10.17,425.34 L 8.99399999999999,425.722 L 7.81799999999998,425.34 L 7.09199999999999,424.34 L 7.09199999999999,423.104 L 7.81799999999998,422.104 L 8.99399999999999,421.722 L 10.17,422.104 L 10.896,423.104 L 10.896,424.34 L 10.17,425.34 M 9.94499999999999,415.531 L 8.99399999999999,416.222 L 8.04299999999999,415.531 L 8.40599999999999,414.413 L 9.58199999999999,414.413 L 9.94499999999999,415.531 "
  />
  <path id="face6-cut"
 style="fill:none;stroke:rgb(255,0,0);stroke-width:1;stroke-miterlimit:4;stroke-dasharray:none;stroke-linejoin:round;stroke-linecap:round"
        d="M 14.81,446.845 L 14.974,444.877 L 14.988,439.547 L 11.994,439.547 L 11.994,433.222 L 5.994,433.222 L 5.994,439.547 L 3.0,439.547 L 3.014,444.877 L 3.178,446.845 L 3.971,448.654 L 5.309,450.107 L 7.046,451.047 L 8.99399999999999,451.372 L 10.942,451.047 L 12.679,450.107 L 14.017,448.654 L 14.81,446.845 M 10.17,446.49 L 8.99399999999999,446.872 L 7.818,446.49 L 7.092,445.49 L 7.092,444.254 L 7.818,443.254 L 8.99399999999999,442.872 L 10.17,443.254 L 10.896,444.254 L 10.896,445.49 L 10.17,446.49 M 9.58199999999999,435.563 L 9.945,436.681 L 8.99399999999999,437.372 L 8.04299999999999,436.681 L 8.406,435.563 L 9.58199999999999,435.563 "
  />
  <path id="face0-interior"
 style="fill:none;stroke:rgb(0,0,255);stroke-width:1;stroke-miterlimit:4;stroke-dasharray:none;stroke-linejoin:round;stroke-linecap:round"
        d="M 76.0,10.384 M 16.571,10.384 M 3.0,23.955 M 3.00000000000001,63.813 M 16.571,77.384 M 83.0,77.384 M 83.0,80.884 M 83.26,82.302 M 84.348,83.878 M 86.043,84.768 M 87.957,84.768 M 89.652,83.878 M 90.74,82.302 M 91.0,80.884 M 91.0,6.88399999999999 M 90.74,5.466 M 89.652,3.89000000000001 M 87.957,3.0 M 86.043,3.0 M 84.348,3.89000000000001 M 83.26,5.46599999999999 M 83.0,6.88399999999999 M 83.0,10.384 M 82.0,10.384 M 82.0,15.884 M 76.0,15.884 M 38.99,36.384 M 40.266,39.249 M 40.918,42.316 M 40.918,45.452 M 40.266,48.519 M 38.99,51.384 M 37.147,53.921 M 34.817,56.019 M 32.101,57.587 M 29.119,58.556 M 26.0,58.884 M 22.881,58.556 M 19.899,57.587 M 17.183,56.019 M 14.853,53.921 M 13.01,51.384 M 11.734,48.519 M 11.082,45.452 M 11.082,42.316 M 11.734,39.249 M 13.01,36.384 M 14.853,33.847 M 17.183,31.749 M 19.899,30.181 M 22.881,29.212 M 26.0,28.884 M 29.119,29.212 M 32.101,30.181 M 34.817,31.749 M 37.147,33.847 M 69.0,47.884 M 69.0,73.884 M 57.0,73.884 M 57.0,47.884 M 74.427,73.348 M 74.214,73.766 M 73.882,74.098 M 73.464,74.311 M 73.0,74.384 M 72.536,74.311 M 72.118,74.098 M 71.786,73.766 M 71.573,73.348 M 71.5,72.884 M 71.573,72.42 M 71.786,72.002 M 72.118,71.67 M 72.536,71.457 M 73.0,71.384 M 73.464,71.457 M 73.882,71.67 M 74.214,72.002 M 74.427,72.42 M 74.5,72.884 M 9.02800000000001,29.234 M 8.858,28.824 M 8.8,28.3839999999999 M 8.858,27.944 M 9.02799999999999,27.534 M 9.29800000000001,27.182 M 9.65000000000001,26.912 M 10.06,26.7420000000001 M 10.5,26.684 M 10.94,26.742 M 11.35,26.912 M 11.702,27.182 M 11.972,27.534 M 12.142,27.9439999999999 M 12.2,28.384 M 12.142,28.824 M 11.972,29.234 M 11.702,29.586 M 11.35,29.856 M 10.94,30.026 M 10.5,30.084 M 10.06,30.026 M 9.65000000000001,29.856 M 9.29800000000001,29.586 M 72.382,30.286 M 71.824,30.002 M 71.382,29.56 M 71.098,29.002 M 71.0,28.384 M 71.098,27.766 M 71.382,27.208 M 71.824,26.766 M 72.382,26.482 M 73.0,26.384 M 73.618,26.482 M 74.176,26.766 M 74.618,27.208 M 74.902,27.766 M 75.0,28.384 M 74.902,29.002 M 74.618,29.56 M 74.176,30.002 M 73.618,30.286 M 73.0,30.384 M 74.5,14.884 M 74.427,15.348 M 74.214,15.766 M 73.882,16.098 M 73.464,16.311 M 73.0,16.384 M 72.536,16.311 M 72.118,16.098 M 71.786,15.766 M 71.573,15.348 M 71.5,14.884 M 71.573,14.42 M 71.786,14.002 M 72.118,13.67 M 72.536,13.457 M 73.0,13.384 M 73.464,13.457 M 73.882,13.67 M 74.214,14.002 M 74.427,14.42 M 88.5,27.884 M 88.427,28.348 M 88.214,28.766 M 87.882,29.098 M 87.464,29.311 M 87.0,29.384 M 86.536,29.311 M 86.118,29.098 M 85.786,28.766 M 85.573,28.348 M 85.5,27.884 M 85.573,27.42 M 85.786,27.002 M 86.118,26.67 M 86.536,26.457 M 87.0,26.384 M 87.464,26.457 M 87.882,26.67 M 88.214,27.002 M 88.427,27.42 M 53.464,16.311 M 53.0,16.384 M 52.536,16.311 M 52.118,16.098 M 51.786,15.766 M 51.573,15.348 M 51.5,14.884 M 51.573,14.42 M 51.786,14.002 M 52.118,13.67 M 52.536,13.457 M 53.0,13.384 M 53.464,13.457 M 53.882,13.67 M 54.214,14.002 M 54.427,14.42 M 54.5,14.884 M 54.427,15.348 M 54.214,15.766 M 53.882,16.098 M 40.65,57.912 M 41.06,57.742 M 41.5,57.684 M 41.94,57.742 M 42.35,57.912 M 42.702,58.182 M 42.972,58.534 M 43.142,58.944 M 43.2,59.384 M 43.142,59.824 M 42.972,60.234 M 42.702,60.586 M 42.35,60.856 M 41.94,61.026 M 41.5,61.084 M 41.06,61.026 M 40.65,60.856 M 40.298,60.586 M 40.028,60.234 M 39.858,59.824 M 39.8,59.384 M 39.858,58.944 M 40.028,58.534 M 40.298,58.182 M 53.882,71.67 M 54.214,72.002 M 54.427,72.42 M 54.5,72.884 M 54.427,73.348 M 54.214,73.766 M 53.882,74.098 M 53.464,74.311 M 53.0,74.384 M 52.536,74.311 M 52.118,74.098 M 51.786,73.766 M 51.573,73.348 M 51.5,72.884 M 51.573,72.42 M 51.786,72.002 M 52.118,71.67 M 52.536,71.457 M 53.0,71.384 M 53.464,71.457 M 9.29800000000001,58.182 M 9.65000000000001,57.912 M 10.06,57.742 M 10.5,57.684 M 10.94,57.742 M 11.35,57.912 M 11.702,58.182 M 11.972,58.534 M 12.142,58.944 M 12.2,59.384 M 12.142,59.824 M 11.972,60.234 M 11.702,60.586 M 11.35,60.856 M 10.94,61.026 M 10.5,61.084 M 10.06,61.026 M 9.65000000000001,60.856 M 9.29800000000001,60.586 M 9.02799999999999,60.234 M 8.858,59.824 M 8.8,59.384 M 8.858,58.944 M 9.02799999999999,58.534 M 88.564,79.637 M 88.95,81.329 M 87.868,82.686 M 86.132,82.686 M 85.05,81.329 M 85.436,79.637 M 87.0,78.884 M 87.0,71.384 M 87.464,71.457 M 87.882,71.67 M 88.214,72.002 M 88.427,72.42 M 88.5,72.884 M 88.427,73.348 M 88.214,73.766 M 87.882,74.098 M 87.464,74.311 M 87.0,74.384 M 86.536,74.311 M 86.118,74.098 M 85.786,73.766 M 85.573,73.348 M 85.5,72.884 M 85.573,72.42 M 85.786,72.002 M 86.118,71.67 M 86.536,71.457 M 88.5,14.884 M 88.427,15.348 M 88.214,15.766 M 87.882,16.098 M 87.464,16.311 M 87.0,16.384 M 86.536,16.311 M 86.118,16.098 M 85.786,15.766 M 85.573,15.348 M 85.5,14.884 M 85.573,14.42 M 85.786,14.002 M 86.118,13.67 M 86.536,13.457 M 87.0,13.384 M 87.464,13.457 M 87.882,13.67 M 88.214,14.002 M 88.427,14.42 M 42.35,29.856 M 41.94,30.026 M 41.5,30.084 M 41.06,30.026 M 40.65,29.856 M 40.298,29.586 M 40.028,29.234 M 39.858,28.824 M 39.8,28.384 M 39.858,27.944 M 40.028,27.534 M 40.298,27.182 M 40.65,26.912 M 41.06,26.742 M 41.5,26.684 M 41.94,26.742 M 42.35,26.912 M 42.702,27.182 M 42.972,27.534 M 43.142,27.944 M 43.2,28.384 M 43.142,28.824 M 42.972,29.234 M 42.702,29.586 M 54.176,57.766 M 54.618,58.208 M 54.902,58.766 M 55.0,59.384 M 54.902,60.002 M 54.618,60.56 M 54.176,61.002 M 53.618,61.286 M 53.0,61.384 M 52.382,61.286 M 51.824,61.002 M 51.382,60.56 M 51.098,60.002 M 51.0,59.384 M 51.098,58.766 M 51.382,58.208 M 51.824,57.766 M 52.382,57.482 M 53.0,57.384 M 53.618,57.482 M 88.214,59.002 M 88.427,59.42 M 88.5,59.884 M 88.427,60.348 M 88.214,60.766 M 87.882,61.098 M 87.464,61.311 M 87.0,61.384 M 86.536,61.311 M 86.118,61.098 M 85.786,60.766 M 85.573,60.348 M 85.5,59.884 M 85.573,59.42 M 85.786,59.002 M 86.118,58.67 M 86.536,58.457 M 87.0,58.384 M 87.464,58.457 M 87.882,58.67 M 71.382,60.56 M 71.098,60.002 M 71.0,59.384 M 71.098,58.766 M 71.382,58.208 M 71.824,57.766 M 72.382,57.482 M 73.0,57.384 M 73.618,57.482 M 74.176,57.766 M 74.618,58.208 M 74.902,58.766 M 75.0,59.384 M 74.902,60.002 M 74.618,60.56 M 74.176,61.002 M 73.618,61.286 M 73.0,61.384 M 72.382,61.286 M 71.824,61.002 M 53.618,30.286 M 53.0,30.384 M 52.382,30.286 M 51.824,30.002 M 51.382,29.56 M 51.098,29.002 M 51.0,28.384 M 51.098,27.766 M 51.382,27.208 M 51.824,26.766 M 52.382,26.482 M 53.0,26.384 M 53.618,26.482 M 54.176,26.766 M 54.618,27.208 M 54.902,27.766 M 55.0,28.384 M 54.902,29.002 M 54.618,29.56 M 54.176,30.002 M 69.0,13.884 M 69.0,39.884 M 57.0,39.884 M 57.0,13.884 M 85.436,8.13099999999999 M 85.05,6.43899999999999 M 86.132,5.08199999999999 M 87.868,5.08199999999999 M 88.95,6.43899999999999 M 88.564,8.13099999999999 M 87.0,8.88399999999999 "
  />
  <path id="face1-interior"
 style="fill:none;stroke:rgb(0,0,255);stroke-width:1;stroke-miterlimit:4;stroke-dasharray:none;stroke-linejoin:round;stroke-linecap:round"
        d="M 49.0,162.152 M 49.0,95.152 M 18.0,95.152 M 18.0,100.652 M 12.0,100.652 M 12.0,95.152 M 11.0,95.152 M 11.0,91.652 M 10.74,90.234 M 9.65200000000001,88.658 M 7.95699999999999,87.768 M 6.04300000000003,87.768 M 4.34800000000001,88.658 M 3.26000000000003,90.234 M 3.0,91.652 M 3.00000000000001,165.652 M 3.26000000000001,167.07 M 4.34800000000001,168.646 M 6.04300000000001,169.536 M 7.957,169.536 M 9.65200000000001,168.646 M 10.74,167.07 M 11.0,165.652 M 11.0,162.152 M 8.42700000000003,99.188 M 8.50000000000001,99.652 M 8.42700000000001,100.116 M 8.21400000000001,100.534 M 7.88200000000001,100.866 M 7.464,101.079 M 6.99999999999999,101.152 M 6.53600000000003,101.079 M 6.11800000000002,100.866 M 5.78600000000001,100.534 M 5.57300000000001,100.116 M 5.5,99.652 M 5.573,99.188 M 5.78600000000001,98.77 M 6.11800000000002,98.438 M 6.53600000000001,98.225 M 7.0,98.152 M 7.46400000000003,98.225 M 7.88200000000001,98.438 M 8.21400000000001,98.77 M 42.176,111.534 M 42.618,111.976 M 42.902,112.534 M 43.0,113.152 M 42.902,113.77 M 42.618,114.328 M 42.176,114.77 M 41.618,115.054 M 41.0,115.152 M 40.382,115.054 M 39.824,114.77 M 39.382,114.328 M 39.098,113.77 M 39.0,113.152 M 39.098,112.534 M 39.382,111.976 M 39.824,111.534 M 40.382,111.25 M 41.0,111.152 M 41.618,111.25 M 39.5,157.652 M 39.573,157.188 M 39.786,156.77 M 40.118,156.438 M 40.536,156.225 M 41.0,156.152 M 41.464,156.225 M 41.882,156.438 M 42.214,156.77 M 42.427,157.188 M 42.5,157.652 M 42.427,158.116 M 42.214,158.534 M 41.882,158.866 M 41.464,159.079 M 41.0,159.152 M 40.536,159.079 M 40.118,158.866 M 39.786,158.534 M 39.573,158.116 M 7.0,156.152 M 7.46400000000001,156.225 M 7.88200000000002,156.438 M 8.214,156.77 M 8.42700000000002,157.188 M 8.5,157.652 M 8.42700000000001,158.116 M 8.214,158.534 M 7.88200000000002,158.866 M 7.46400000000001,159.079 M 7.0,159.152 M 6.53600000000001,159.079 M 6.11800000000001,158.866 M 5.78600000000001,158.534 M 5.57300000000001,158.116 M 5.50000000000001,157.652 M 5.57300000000001,157.188 M 5.78600000000001,156.77 M 6.11800000000001,156.438 M 6.53600000000002,156.225 M 21.0,98.152 M 21.464,98.225 M 21.882,98.438 M 22.214,98.77 M 22.427,99.188 M 22.5,99.652 M 22.427,100.116 M 22.214,100.534 M 21.882,100.866 M 21.464,101.079 M 21.0,101.152 M 20.536,101.079 M 20.118,100.866 M 19.786,100.534 M 19.573,100.116 M 19.5,99.652 M 19.573,99.188 M 19.786,98.77 M 20.118,98.438 M 20.536,98.225 M 21.618,115.054 M 21.0,115.152 M 20.382,115.054 M 19.824,114.77 M 19.382,114.328 M 19.098,113.77 M 19.0,113.152 M 19.098,112.534 M 19.382,111.976 M 19.824,111.534 M 20.382,111.25 M 21.0,111.152 M 21.618,111.25 M 22.176,111.534 M 22.618,111.976 M 22.902,112.534 M 23.0,113.152 M 22.902,113.77 M 22.618,114.328 M 22.176,114.77 M 43.132,130.454 M 42.05,129.097 M 42.436,127.405 M 44.0,126.652 M 45.564,127.405 M 45.95,129.097 M 44.868,130.454 M 37.0,124.652 M 25.0,124.652 M 25.0,98.652 M 37.0,98.652 M 40.536,98.225 M 41.0,98.152 M 41.464,98.225 M 41.882,98.438 M 42.214,98.77 M 42.427,99.188 M 42.5,99.652 M 42.427,100.116 M 42.214,100.534 M 41.882,100.866 M 41.464,101.079 M 41.0,101.152 M 40.536,101.079 M 40.118,100.866 M 39.786,100.534 M 39.573,100.116 M 39.5,99.652 M 39.573,99.188 M 39.786,98.77 M 40.118,98.438 M 22.618,145.328 M 22.176,145.77 M 21.618,146.054 M 21.0,146.152 M 20.382,146.054 M 19.824,145.77 M 19.382,145.328 M 19.098,144.77 M 19.0,144.152 M 19.098,143.534 M 19.382,142.976 M 19.824,142.534 M 20.382,142.25 M 21.0,142.152 M 21.618,142.25 M 22.176,142.534 M 22.618,142.976 M 22.902,143.534 M 23.0,144.152 M 22.902,144.77 M 7.46400000000001,111.225 M 7.88200000000003,111.438 M 8.21399999999999,111.77 M 8.42700000000001,112.188 M 8.49999999999999,112.652 M 8.42700000000002,113.116 M 8.21399999999999,113.534 M 7.88200000000002,113.866 M 7.46400000000001,114.079 M 7.0,114.152 M 6.536,114.079 M 6.11800000000002,113.866 M 5.78600000000002,113.534 M 5.57300000000001,113.116 M 5.50000000000001,112.652 M 5.57300000000001,112.188 M 5.78600000000001,111.77 M 6.11800000000002,111.438 M 6.53600000000002,111.225 M 7.00000000000001,111.152 M 21.0,159.152 M 20.536,159.079 M 20.118,158.866 M 19.786,158.534 M 19.573,158.116 M 19.5,157.652 M 19.573,157.188 M 19.786,156.77 M 20.118,156.438 M 20.536,156.225 M 21.0,156.152 M 21.464,156.225 M 21.882,156.438 M 22.214,156.77 M 22.427,157.188 M 22.5,157.652 M 22.427,158.116 M 22.214,158.534 M 21.882,158.866 M 21.464,159.079 M 11.0,124.652 M 12.859,125.11 M 14.292,126.38 M 14.971,128.17 M 14.74,130.07 M 13.652,131.646 M 11.957,132.536 M 10.043,132.536 M 8.34800000000001,131.646 M 7.26,130.07 M 7.02900000000001,128.17 M 7.70800000000001,126.38 M 9.14100000000001,125.11 M 6.53600000000002,146.079 M 6.118,145.866 M 5.78600000000001,145.534 M 5.57300000000001,145.116 M 5.50000000000001,144.652 M 5.57300000000001,144.188 M 5.78600000000001,143.77 M 6.11800000000001,143.438 M 6.53600000000002,143.225 M 7.0,143.152 M 7.46400000000001,143.225 M 7.88200000000001,143.438 M 8.21400000000001,143.77 M 8.42700000000003,144.188 M 8.50000000000001,144.652 M 8.42700000000002,145.116 M 8.21399999999999,145.534 M 7.88200000000001,145.866 M 7.46400000000001,146.079 M 7.0,146.152 M 37.0,158.652 M 25.0,158.652 M 25.0,132.652 M 37.0,132.652 M 40.382,146.054 M 39.824,145.77 M 39.382,145.328 M 39.098,144.77 M 39.0,144.152 M 39.098,143.534 M 39.382,142.976 M 39.824,142.534 M 40.382,142.25 M 41.0,142.152 M 41.618,142.25 M 42.176,142.534 M 42.618,142.976 M 42.902,143.534 M 43.0,144.152 M 42.902,144.77 M 42.618,145.328 M 42.176,145.77 M 41.618,146.054 M 41.0,146.152 M 8.564,92.899 M 7.0,93.652 M 5.43600000000001,92.899 M 5.05000000000003,91.207 M 6.13200000000003,89.85 M 7.86800000000001,89.85 M 8.95000000000001,91.207 M 8.95000000000001,166.097 M 7.868,167.454 M 6.13200000000001,167.454 M 5.05000000000003,166.097 M 5.43599999999999,164.405 M 7.0,163.652 M 8.56400000000001,164.405 "
  />
  <path id="face2-interior"
 style="fill:none;stroke:rgb(0,0,255);stroke-width:1;stroke-miterlimit:4;stroke-dasharray:none;stroke-linejoin:round;stroke-linecap:round"
        d="M 49.0,246.92 M 49.0,179.92 M 11.0,179.92 M 11.0,176.42 M 10.74,175.002 M 9.652,173.426 M 7.95700000000001,172.536 M 6.04300000000002,172.536 M 4.34800000000004,173.426 M 3.26000000000002,175.002 M 3.00000000000001,176.42 M 3.0,186.92 M 46.0,186.92 M 46.0,194.92 M 3.00000000000001,194.92 M 3.00000000000001,201.42 M 11.0,201.42 M 16.0,201.525 M 17.495,201.682 M 19.881,202.457 M 22.053,203.712 M 23.918,205.39 M 25.392,207.42 M 26.413,209.712 M 26.934,212.166 M 26.934,214.674 M 26.413,217.128 M 25.392,219.42 M 23.918,221.45 M 22.053,223.128 M 19.881,224.383 M 17.495,225.158 M 16.0,225.315 M 11.0,225.42 M 3.00000000000001,225.42 M 3.00000000000001,231.92 M 46.0,231.92 M 46.0,239.92 M 3.00000000000001,239.92 M 3.00000000000001,250.42 M 3.26000000000002,251.838 M 4.34800000000001,253.414 M 6.04300000000001,254.304 M 7.95700000000001,254.304 M 9.65200000000002,253.414 M 10.74,251.838 M 11.0,250.42 M 11.0,246.92 M 8.214,228.538 M 8.42699999999999,228.956 M 8.5,229.42 M 8.42699999999999,229.884 M 8.214,230.302 M 7.88200000000002,230.634 M 7.46400000000001,230.847 M 7.00000000000001,230.92 M 6.53600000000002,230.847 M 6.11800000000001,230.634 M 5.786,230.302 M 5.57300000000001,229.884 M 5.5,229.42 M 5.57300000000001,228.956 M 5.786,228.538 M 6.11800000000001,228.206 M 6.53600000000002,227.993 M 7.0,227.92 M 7.46400000000001,227.993 M 7.88200000000002,228.206 M 5.786,243.302 M 5.57300000000001,242.884 M 5.5,242.42 M 5.57300000000001,241.956 M 5.786,241.538 M 6.11800000000001,241.206 M 6.53600000000002,240.993 M 7.0,240.92 M 7.46400000000001,240.993 M 7.88200000000002,241.206 M 8.214,241.538 M 8.42699999999999,241.956 M 8.5,242.42 M 8.42699999999999,242.884 M 8.214,243.302 M 7.88200000000002,243.634 M 7.46400000000001,243.847 M 7.0,243.92 M 6.53600000000002,243.847 M 6.11800000000001,243.634 M 8.95000000000002,250.865 M 7.868,252.222 M 6.13200000000001,252.222 M 5.05000000000001,250.865 M 5.43599999999999,249.173 M 7.0,248.42 M 8.56400000000001,249.173 M 23.0,197.92 M 22.902,198.538 M 22.618,199.096 M 22.176,199.538 M 21.618,199.822 M 21.0,199.92 M 20.382,199.822 M 19.824,199.538 M 19.382,199.096 M 19.098,198.538 M 19.0,197.92 M 19.098,197.302 M 19.382,196.744 M 19.824,196.302 M 20.382,196.018 M 21.0,195.92 M 21.618,196.018 M 22.176,196.302 M 22.618,196.744 M 22.902,197.302 M 20.536,182.993 M 21.0,182.92 M 21.464,182.993 M 21.882,183.206 M 22.214,183.538 M 22.427,183.956 M 22.5,184.42 M 22.427,184.884 M 22.214,185.302 M 21.882,185.634 M 21.464,185.847 M 21.0,185.92 M 20.536,185.847 M 20.118,185.634 M 19.786,185.302 M 19.573,184.884 M 19.5,184.42 M 19.573,183.956 M 19.786,183.538 M 20.118,183.206 M 40.536,240.993 M 41.0,240.92 M 41.464,240.993 M 41.882,241.206 M 42.214,241.538 M 42.427,241.956 M 42.5,242.42 M 42.427,242.884 M 42.214,243.302 M 41.882,243.634 M 41.464,243.847 M 41.0,243.92 M 40.536,243.847 M 40.118,243.634 M 39.786,243.302 M 39.573,242.884 M 39.5,242.42 M 39.573,241.956 M 39.786,241.538 M 40.118,241.206 M 8.42699999999999,184.884 M 8.21399999999998,185.302 M 7.88200000000002,185.634 M 7.46400000000001,185.847 M 6.99999999999999,185.92 M 6.53600000000002,185.847 M 6.11800000000002,185.634 M 5.786,185.302 M 5.57300000000001,184.884 M 5.5,184.42 M 5.57300000000001,183.956 M 5.786,183.538 M 6.11800000000001,183.206 M 6.53600000000002,182.993 M 7.0,182.92 M 7.46400000000003,182.993 M 7.88200000000001,183.206 M 8.214,183.538 M 8.42700000000002,183.956 M 8.5,184.42 M 8.214,198.302 M 7.88200000000002,198.634 M 7.46400000000003,198.847 M 7.0,198.92 M 6.53600000000002,198.847 M 6.11800000000002,198.634 M 5.786,198.302 M 5.57300000000001,197.884 M 5.5,197.42 M 5.57300000000002,196.956 M 5.786,196.538 M 6.11800000000001,196.206 M 6.53600000000003,195.993 M 7.00000000000001,195.92 M 7.46400000000001,195.993 M 7.88200000000002,196.206 M 8.214,196.538 M 8.42699999999999,196.956 M 8.5,197.42 M 8.42700000000001,197.884 M 43.132,215.222 M 42.05,213.865 M 42.436,212.173 M 44.0,211.42 M 45.564,212.173 M 45.95,213.865 M 44.868,215.222 M 21.618,227.018 M 22.176,227.302 M 22.618,227.744 M 22.902,228.302 M 23.0,228.92 M 22.902,229.538 M 22.618,230.096 M 22.176,230.538 M 21.618,230.822 M 21.0,230.92 M 20.382,230.822 M 19.824,230.538 M 19.382,230.096 M 19.098,229.538 M 19.0,228.92 M 19.098,228.302 M 19.382,227.744 M 19.824,227.302 M 20.382,227.018 M 21.0,226.92 M 39.786,185.302 M 39.573,184.884 M 39.5,184.42 M 39.573,183.956 M 39.786,183.538 M 40.118,183.206 M 40.536,182.993 M 41.0,182.92 M 41.464,182.993 M 41.882,183.206 M 42.214,183.538 M 42.427,183.956 M 42.5,184.42 M 42.427,184.884 M 42.214,185.302 M 41.882,185.634 M 41.464,185.847 M 41.0,185.92 M 40.536,185.847 M 40.118,185.634 M 39.098,197.302 M 39.382,196.744 M 39.824,196.302 M 40.382,196.018 M 41.0,195.92 M 41.618,196.018 M 42.176,196.302 M 42.618,196.744 M 42.902,197.302 M 43.0,197.92 M 42.902,198.538 M 42.618,199.096 M 42.176,199.538 M 41.618,199.822 M 41.0,199.92 M 40.382,199.822 M 39.824,199.538 M 39.382,199.096 M 39.098,198.538 M 39.0,197.92 M 19.786,241.538 M 20.118,241.206 M 20.536,240.993 M 21.0,240.92 M 21.464,240.993 M 21.882,241.206 M 22.214,241.538 M 22.427,241.956 M 22.5,242.42 M 22.427,242.884 M 22.214,243.302 M 21.882,243.634 M 21.464,243.847 M 21.0,243.92 M 20.536,243.847 M 20.118,243.634 M 19.786,243.302 M 19.573,242.884 M 19.5,242.42 M 19.573,241.956 M 41.0,230.92 M 40.382,230.822 M 39.824,230.538 M 39.382,230.096 M 39.098,229.538 M 39.0,228.92 M 39.098,228.302 M 39.382,227.744 M 39.824,227.302 M 40.382,227.018 M 41.0,226.92 M 41.618,227.018 M 42.176,227.302 M 42.618,227.744 M 42.902,228.302 M 43.0,228.92 M 42.902,229.538 M 42.618,230.096 M 42.176,230.538 M 41.618,230.822 M 5.43599999999999,177.667 M 5.05000000000001,175.975 M 6.13200000000002,174.618 M 7.868,174.618 M 8.95000000000002,175.975 M 8.56400000000001,177.667 M 6.99999999999999,178.42 "
  />
  <path id="face3-interior"
 style="fill:none;stroke:rgb(0,0,255);stroke-width:1;stroke-miterlimit:4;stroke-dasharray:none;stroke-linejoin:round;stroke-linecap:round"
        d="M 83.0,264.688 M 16.571,264.688 M 3.00000000000001,278.259 M 3.0,318.117 M 16.571,331.688 M 83.0,331.688 M 83.0,335.188 M 83.26,336.606 M 84.348,338.182 M 86.043,339.072 M 87.957,339.072 M 89.652,338.182 M 90.74,336.606 M 91.0,335.188 M 91.0,324.688 M 48.0,324.688 M 48.0,316.688 M 91.0,316.688 M 91.0,309.688 M 35.5222192564347,309.688 M 34.817,310.323 M 32.101,311.891 M 29.119,312.86 M 26.0,313.188 M 22.881,312.86 M 19.899,311.891 M 17.183,310.323 M 14.853,308.225 M 13.01,305.688 M 11.734,302.823 M 11.082,299.756 M 11.082,296.62 M 11.734,293.553 M 13.01,290.688 M 14.853,288.151 M 17.183,286.053 M 19.899,284.485 M 22.881,283.516 M 26.0,283.188 M 29.119,283.516 M 32.101,284.485 M 34.817,286.053 M 35.5222192564347,286.688 M 91.0,286.688 M 91.0,279.688 M 48.0,279.688 M 48.0,271.688 M 91.0,271.688 M 91.0,261.188 M 90.74,259.77 M 89.652,258.194 M 87.957,257.304 M 86.043,257.304 M 84.348,258.194 M 83.26,259.77 M 83.0,261.188 M 85.573,269.652 M 85.5,269.188 M 85.573,268.724 M 85.786,268.306 M 86.118,267.974 M 86.536,267.761 M 87.0,267.688 M 87.464,267.761 M 87.882,267.974 M 88.214,268.306 M 88.427,268.724 M 88.5,269.188 M 88.427,269.652 M 88.214,270.07 M 87.882,270.402 M 87.464,270.615 M 87.0,270.688 M 86.536,270.615 M 86.118,270.402 M 85.786,270.07 M 12.142,282.248 M 12.2,282.688 M 12.142,283.128 M 11.972,283.538 M 11.702,283.89 M 11.35,284.16 M 10.94,284.33 M 10.5,284.388 M 10.06,284.33 M 9.65,284.16 M 9.29800000000001,283.89 M 9.028,283.538 M 8.858,283.128 M 8.79999999999999,282.688 M 8.858,282.248 M 9.02799999999998,281.838 M 9.29800000000001,281.486 M 9.64999999999998,281.216 M 10.06,281.046 M 10.5,280.988 M 10.94,281.046 M 11.35,281.216 M 11.702,281.486 M 11.972,281.838 M 39.858,283.128 M 39.8,282.688 M 39.858,282.248 M 40.028,281.838 M 40.298,281.486 M 40.65,281.216 M 41.06,281.046 M 41.5,280.988 M 41.94,281.046 M 42.35,281.216 M 42.702,281.486 M 42.972,281.838 M 43.142,282.248 M 43.2,282.688 M 43.142,283.128 M 42.972,283.538 M 42.702,283.89 M 42.35,284.16 M 41.94,284.33 M 41.5,284.388 M 41.06,284.33 M 40.65,284.16 M 40.298,283.89 M 40.028,283.538 M 73.464,328.615 M 73.0,328.688 M 72.536,328.615 M 72.118,328.402 M 71.786,328.07 M 71.573,327.652 M 71.5,327.188 M 71.573,326.724 M 71.786,326.306 M 72.118,325.974 M 72.536,325.761 M 73.0,325.688 M 73.464,325.761 M 73.882,325.974 M 74.214,326.306 M 74.427,326.724 M 74.5,327.188 M 74.427,327.652 M 74.214,328.07 M 73.882,328.402 M 71.382,312.512 M 71.824,312.07 M 72.382,311.786 M 73.0,311.688 M 73.618,311.786 M 74.176,312.07 M 74.618,312.512 M 74.902,313.07 M 75.0,313.688 M 74.902,314.306 M 74.618,314.864 M 74.176,315.306 M 73.618,315.59 M 73.0,315.688 M 72.382,315.59 M 71.824,315.306 M 71.382,314.864 M 71.098,314.306 M 71.0,313.688 M 71.098,313.07 M 71.0,282.688 M 71.098,282.07 M 71.382,281.512 M 71.824,281.07 M 72.382,280.786 M 73.0,280.688 M 73.618,280.786 M 74.176,281.07 M 74.618,281.512 M 74.902,282.07 M 75.0,282.688 M 74.902,283.306 M 74.618,283.864 M 74.176,284.306 M 73.618,284.59 M 73.0,284.688 M 72.382,284.59 M 71.824,284.306 M 71.382,283.864 M 71.098,283.306 M 86.536,325.761 M 87.0,325.688 M 87.464,325.761 M 87.882,325.974 M 88.214,326.306 M 88.427,326.724 M 88.5,327.188 M 88.427,327.652 M 88.214,328.07 M 87.882,328.402 M 87.464,328.615 M 87.0,328.688 M 86.536,328.615 M 86.118,328.402 M 85.786,328.07 M 85.573,327.652 M 85.5,327.188 M 85.573,326.724 M 85.786,326.306 M 86.118,325.974 M 51.5,269.188 M 51.573,268.724 M 51.786,268.306 M 52.118,267.974 M 52.536,267.761 M 53.0,267.688 M 53.464,267.761 M 53.882,267.974 M 54.214,268.306 M 54.427,268.724 M 54.5,269.188 M 54.427,269.652 M 54.214,270.07 M 53.882,270.402 M 53.464,270.615 M 53.0,270.688 M 52.536,270.615 M 52.118,270.402 M 51.786,270.07 M 51.573,269.652 M 87.0,283.688 M 86.536,283.615 M 86.118,283.402 M 85.786,283.07 M 85.573,282.652 M 85.5,282.188 M 85.573,281.724 M 85.786,281.306 M 86.118,280.974 M 86.536,280.761 M 87.0,280.688 M 87.464,280.761 M 87.882,280.974 M 88.214,281.306 M 88.427,281.724 M 88.5,282.188 M 88.427,282.652 M 88.214,283.07 M 87.882,283.402 M 87.464,283.615 M 85.573,314.652 M 85.5,314.188 M 85.573,313.724 M 85.786,313.306 M 86.118,312.974 M 86.536,312.761 M 87.0,312.688 M 87.464,312.761 M 87.882,312.974 M 88.214,313.306 M 88.427,313.724 M 88.5,314.188 M 88.427,314.652 M 88.214,315.07 M 87.882,315.402 M 87.464,315.615 M 87.0,315.688 M 86.536,315.615 M 86.118,315.402 M 85.786,315.07 M 40.65,312.216 M 41.06,312.046 M 41.5,311.988 M 41.94,312.046 M 42.35,312.216 M 42.702,312.486 M 42.972,312.838 M 43.142,313.248 M 43.2,313.688 M 43.142,314.128 M 42.972,314.538 M 42.702,314.89 M 42.35,315.16 M 41.94,315.33 M 41.5,315.388 M 41.06,315.33 M 40.65,315.16 M 40.298,314.89 M 40.028,314.538 M 39.858,314.128 M 39.8,313.688 M 39.858,313.248 M 40.028,312.838 M 40.298,312.486 M 71.573,269.652 M 71.5,269.188 M 71.573,268.724 M 71.786,268.306 M 72.118,267.974 M 72.536,267.761 M 73.0,267.688 M 73.464,267.761 M 73.882,267.974 M 74.214,268.306 M 74.427,268.724 M 74.5,269.188 M 74.427,269.652 M 74.214,270.07 M 73.882,270.402 M 73.464,270.615 M 73.0,270.688 M 72.536,270.615 M 72.118,270.402 M 71.786,270.07 M 51.382,283.864 M 51.098,283.306 M 51.0,282.688 M 51.098,282.07 M 51.382,281.512 M 51.824,281.07 M 52.382,280.786 M 53.0,280.688 M 53.618,280.786 M 54.176,281.07 M 54.618,281.512 M 54.902,282.07 M 55.0,282.688 M 54.902,283.306 M 54.618,283.864 M 54.176,284.306 M 53.618,284.59 M 53.0,284.688 M 52.382,284.59 M 51.824,284.306 M 53.882,328.402 M 53.464,328.615 M 53.0,328.688 M 52.536,328.615 M 52.118,328.402 M 51.786,328.07 M 51.573,327.652 M 51.5,327.188 M 51.573,326.724 M 51.786,326.306 M 52.118,325.974 M 52.536,325.761 M 53.0,325.688 M 53.464,325.761 M 53.882,325.974 M 54.214,326.306 M 54.427,326.724 M 54.5,327.188 M 54.427,327.652 M 54.214,328.07 M 10.5,315.388 M 10.06,315.33 M 9.65,315.16 M 9.29800000000001,314.89 M 9.02800000000001,314.538 M 8.85800000000003,314.128 M 8.8,313.688 M 8.85800000000001,313.248 M 9.02800000000001,312.838 M 9.29799999999999,312.486 M 9.65,312.216 M 10.06,312.046 M 10.5,311.988 M 10.94,312.046 M 11.35,312.216 M 11.702,312.486 M 11.972,312.838 M 12.142,313.248 M 12.2,313.688 M 12.142,314.128 M 11.972,314.538 M 11.702,314.89 M 11.35,315.16 M 10.94,315.33 M 51.824,315.306 M 51.382,314.864 M 51.098,314.306 M 51.0,313.688 M 51.098,313.07 M 51.382,312.512 M 51.824,312.07 M 52.382,311.786 M 53.0,311.688 M 53.618,311.786 M 54.176,312.07 M 54.618,312.512 M 54.902,313.07 M 55.0,313.688 M 54.902,314.306 M 54.618,314.864 M 54.176,315.306 M 53.618,315.59 M 53.0,315.688 M 52.382,315.59 M 86.132,259.386 M 87.868,259.386 M 88.95,260.743 M 88.564,262.435 M 87.0,263.188 M 85.436,262.435 M 85.05,260.743 M 86.132,336.99 M 85.05,335.633 M 85.436,333.941 M 87.0,333.188 M 88.564,333.941 M 88.95,335.633 M 87.868,336.99 "
  />
  <path id="face4-interior"
 style="fill:none;stroke:rgb(0,0,255);stroke-width:1;stroke-miterlimit:4;stroke-dasharray:none;stroke-linejoin:round;stroke-linecap:round"
        d="M 16.571,409.072 M 48.0,409.072 M 48.0,387.072 M 35.5222192564347,387.072 M 34.817,387.707 M 32.101,389.275 M 29.119,390.244 M 26.0,390.572 M 22.881,390.244 M 19.899,389.275 M 17.183,387.707 M 14.853,385.609 M 13.01,383.072 M 11.734,380.207 M 11.082,377.14 M 11.082,374.004 M 11.734,370.937 M 13.01,368.072 M 14.853,365.535 M 17.183,363.437 M 19.899,361.869 M 22.881,360.9 M 26.0,360.572 M 29.119,360.9 M 32.101,361.869 M 34.817,363.437 M 35.5222192564347,364.072 M 48.0,364.072 M 48.0,342.072 M 16.571,342.072 M 3.0,355.643 M 3.0,395.501 M 11.35,392.544 M 10.94,392.714 M 10.5,392.772 M 10.06,392.714 M 9.65,392.544 M 9.298,392.274 M 9.028,391.922 M 8.858,391.512 M 8.8,391.072 M 8.858,390.632 M 9.028,390.222 M 9.298,389.87 M 9.65,389.6 M 10.06,389.43 M 10.5,389.372 M 10.94,389.43 M 11.35,389.6 M 11.702,389.87 M 11.972,390.222 M 12.142,390.632 M 12.2,391.072 M 12.142,391.512 M 11.972,391.922 M 11.702,392.274 M 41.94,392.714 M 41.5,392.772 M 41.06,392.714 M 40.65,392.544 M 40.298,392.274 M 40.028,391.922 M 39.858,391.512 M 39.8,391.072 M 39.858,390.632 M 40.028,390.222 M 40.298,389.87 M 40.65,389.6 M 41.06,389.43 M 41.5,389.372 M 41.94,389.43 M 42.35,389.6 M 42.702,389.87 M 42.972,390.222 M 43.142,390.632 M 43.2,391.072 M 43.142,391.512 M 42.972,391.922 M 42.702,392.274 M 42.35,392.544 M 10.94,361.714 M 10.5,361.772 M 10.06,361.714 M 9.64999999999999,361.544 M 9.298,361.274 M 9.028,360.922 M 8.858,360.512 M 8.8,360.072 M 8.858,359.632 M 9.028,359.222 M 9.298,358.87 M 9.65,358.6 M 10.06,358.43 M 10.5,358.372 M 10.94,358.43 M 11.35,358.6 M 11.702,358.87 M 11.972,359.222 M 12.142,359.632 M 12.2,360.072 M 12.142,360.512 M 11.972,360.922 M 11.702,361.274 M 11.35,361.544 M 41.94,361.714 M 41.5,361.772 M 41.06,361.714 M 40.65,361.544 M 40.298,361.274 M 40.028,360.922 M 39.858,360.512 M 39.8,360.072 M 39.858,359.632 M 40.028,359.222 M 40.298,358.87 M 40.65,358.6 M 41.06,358.43 M 41.5,358.372 M 41.94,358.43 M 42.35,358.6 M 42.702,358.87 M 42.972,359.222 M 43.142,359.632 M 43.2,360.072 M 43.142,360.512 M 42.972,360.922 M 42.702,361.274 M 42.35,361.544 "
  />
  <path id="face5-interior"
 style="fill:none;stroke:rgb(0,0,255);stroke-width:1;stroke-miterlimit:4;stroke-dasharray:none;stroke-linejoin:round;stroke-linecap:round"
        d="M 14.81,425.695 M 14.974,423.727 M 14.988,418.397 M 11.994,418.397 M 11.994,412.072 M 5.99399999999998,412.072 M 5.99399999999998,418.397 M 3.0,418.397 M 3.014,423.727 M 3.178,425.695 M 3.97099999999998,427.504 M 5.30899999999999,428.957 M 7.04599999999999,429.897 M 8.99399999999999,430.222 M 10.942,429.897 M 12.679,428.957 M 14.017,427.504 M 10.17,425.34 M 8.99399999999999,425.722 M 7.81799999999998,425.34 M 7.09199999999999,424.34 M 7.09199999999999,423.104 M 7.81799999999998,422.104 M 8.99399999999999,421.722 M 10.17,422.104 M 10.896,423.104 M 10.896,424.34 M 9.94499999999999,415.531 M 8.99399999999999,416.222 M 8.04299999999999,415.531 M 8.40599999999999,414.413 M 9.58199999999999,414.413 "
  />
  <path id="face6-interior"
 style="fill:none;stroke:rgb(0,0,255);stroke-width:1;stroke-miterlimit:4;stroke-dasharray:none;stroke-linejoin:round;stroke-linecap:round"
        d="M 14.81,446.845 M 14.974,444.877 M 14.988,439.547 M 11.994,439.547 M 11.994,433.222 M 5.994,433.222 M 5.994,439.547 M 3.0,439.547 M 3.014,444.877 M 3.178,446.845 M 3.971,448.654 M 5.309,450.107 M 7.046,451.047 M 8.99399999999999,451.372 M 10.942,451.047 M 12.679,450.107 M 14.017,448.654 M 10.17,446.49 M 8.99399999999999,446.872 M 7.818,446.49 M 7.092,445.49 M 7.092,444.254 M 7.818,443.254 M 8.99399999999999,442.872 M 10.17,443.254 M 10.896,444.254 M 10.896,445.49 M 9.58199999999999,435.563 M 9.945,436.681 M 8.99399999999999,437.372 M 8.04299999999999,436.681 M 8.406,435.563 "
  />
  <path id="face0-interior"
 style="fill:none;stroke:rgb(0,255,0);stroke-width:1;stroke-miterlimit:4;stroke-dasharray:none;stroke-linejoin:round;stroke-linecap:round"
        d="M 76.0,10.384 M 16.571,10.384 M 3.0,23.955 M 3.00000000000001,63.813 M 16.571,77.384 M 83.0,77.384 M 83.0,80.884 M 83.26,82.302 M 84.348,83.878 M 86.043,84.768 M 87.957,84.768 M 89.652,83.878 M 90.74,82.302 M 91.0,80.884 M 91.0,6.88399999999999 M 90.74,5.466 M 89.652,3.89000000000001 M 87.957,3.0 M 86.043,3.0 M 84.348,3.89000000000001 M 83.26,5.46599999999999 M 83.0,6.88399999999999 M 83.0,10.384 M 82.0,10.384 M 82.0,15.884 M 76.0,15.884 M 38.99,36.384 M 40.266,39.249 M 40.918,42.316 M 40.918,45.452 M 40.266,48.519 M 38.99,51.384 M 37.147,53.921 M 34.817,56.019 M 32.101,57.587 M 29.119,58.556 M 26.0,58.884 M 22.881,58.556 M 19.899,57.587 M 17.183,56.019 M 14.853,53.921 M 13.01,51.384 M 11.734,48.519 M 11.082,45.452 M 11.082,42.316 M 11.734,39.249 M 13.01,36.384 M 14.853,33.847 M 17.183,31.749 M 19.899,30.181 M 22.881,29.212 M 26.0,28.884 M 29.119,29.212 M 32.101,30.181 M 34.817,31.749 M 37.147,33.847 M 69.0,47.884 M 69.0,73.884 M 57.0,73.884 M 57.0,47.884 M 74.427,73.348 M 74.214,73.766 M 73.882,74.098 M 73.464,74.311 M 73.0,74.384 M 72.536,74.311 M 72.118,74.098 M 71.786,73.766 M 71.573,73.348 M 71.5,72.884 M 71.573,72.42 M 71.786,72.002 M 72.118,71.67 M 72.536,71.457 M 73.0,71.384 M 73.464,71.457 M 73.882,71.67 M 74.214,72.002 M 74.427,72.42 M 74.5,72.884 M 9.02800000000001,29.234 M 8.858,28.824 M 8.8,28.3839999999999 M 8.858,27.944 M 9.02799999999999,27.534 M 9.29800000000001,27.182 M 9.65000000000001,26.912 M 10.06,26.7420000000001 M 10.5,26.684 M 10.94,26.742 M 11.35,26.912 M 11.702,27.182 M 11.972,27.534 M 12.142,27.9439999999999 M 12.2,28.384 M 12.142,28.824 M 11.972,29.234 M 11.702,29.586 M 11.35,29.856 M 10.94,30.026 M 10.5,30.084 M 10.06,30.026 M 9.65000000000001,29.856 M 9.29800000000001,29.586 M 72.382,30.286 M 71.824,30.002 M 71.382,29.56 M 71.098,29.002 M 71.0,28.384 M 71.098,27.766 M 71.382,27.208 M 71.824,26.766 M 72.382,26.482 M 73.0,26.384 M 73.618,26.482 M 74.176,26.766 M 74.618,27.208 M 74.902,27.766 M 75.0,28.384 M 74.902,29.002 M 74.618,29.56 M 74.176,30.002 M 73.618,30.286 M 73.0,30.384 M 74.5,14.884 M 74.427,15.348 M 74.214,15.766 M 73.882,16.098 M 73.464,16.311 M 73.0,16.384 M 72.536,16.311 M 72.118,16.098 M 71.786,15.766 M 71.573,15.348 M 71.5,14.884 M 71.573,14.42 M 71.786,14.002 M 72.118,13.67 M 72.536,13.457 M 73.0,13.384 M 73.464,13.457 M 73.882,13.67 M 74.214,14.002 M 74.427,14.42 M 88.5,27.884 M 88.427,28.348 M 88.214,28.766 M 87.882,29.098 M 87.464,29.311 M 87.0,29.384 M 86.536,29.311 M 86.118,29.098 M 85.786,28.766 M 85.573,28.348 M 85.5,27.884 M 85.573,27.42 M 85.786,27.002 M 86.118,26.67 M 86.536,26.457 M 87.0,26.384 M 87.464,26.457 M 87.882,26.67 M 88.214,27.002 M 88.427,27.42 M 53.464,16.311 M 53.0,16.384 M 52.536,16.311 M 52.118,16.098 M 51.786,15.766 M 51.573,15.348 M 51.5,14.884 M 51.573,14.42 M 51.786,14.002 M 52.118,13.67 M 52.536,13.457 M 53.0,13.384 M 53.464,13.457 M 53.882,13.67 M 54.214,14.002 M 54.427,14.42 M 54.5,14.884 M 54.427,15.348 M 54.214,15.766 M 53.882,16.098 M 40.65,57.912 M 41.06,57.742 M 41.5,57.684 M 41.94,57.742 M 42.35,57.912 M 42.702,58.182 M 42.972,58.534 M 43.142,58.944 M 43.2,59.384 M 43.142,59.824 M 42.972,60.234 M 42.702,60.586 M 42.35,60.856 M 41.94,61.026 M 41.5,61.084 M 41.06,61.026 M 40.65,60.856 M 40.298,60.586 M 40.028,60.234 M 39.858,59.824 M 39.8,59.384 M 39.858,58.944 M 40.028,58.534 M 40.298,58.182 M 53.882,71.67 M 54.214,72.002 M 54.427,72.42 M 54.5,72.884 M 54.427,73.348 M 54.214,73.766 M 53.882,74.098 M 53.464,74.311 M 53.0,74.384 M 52.536,74.311 M 52.118,74.098 M 51.786,73.766 M 51.573,73.348 M 51.5,72.884 M 51.573,72.42 M 51.786,72.002 M 52.118,71.67 M 52.536,71.457 M 53.0,71.384 M 53.464,71.457 M 9.29800000000001,58.182 M 9.65000000000001,57.912 M 10.06,57.742 M 10.5,57.684 M 10.94,57.742 M 11.35,57.912 M 11.702,58.182 M 11.972,58.534 M 12.142,58.944 M 12.2,59.384 M 12.142,59.824 M 11.972,60.234 M 11.702,60.586 M 11.35,60.856 M 10.94,61.026 M 10.5,61.084 M 10.06,61.026 M 9.65000000000001,60.856 M 9.29800000000001,60.586 M 9.02799999999999,60.234 M 8.858,59.824 M 8.8,59.384 M 8.858,58.944 M 9.02799999999999,58.534 M 88.564,79.637 M 88.95,81.329 M 87.868,82.686 M 86.132,82.686 M 85.05,81.329 M 85.436,79.637 M 87.0,78.884 M 87.0,71.384 M 87.464,71.457 M 87.882,71.67 M 88.214,72.002 M 88.427,72.42 M 88.5,72.884 M 88.427,73.348 M 88.214,73.766 M 87.882,74.098 M 87.464,74.311 M 87.0,74.384 M 86.536,74.311 M 86.118,74.098 M 85.786,73.766 M 85.573,73.348 M 85.5,72.884 M 85.573,72.42 M 85.786,72.002 M 86.118,71.67 M 86.536,71.457 M 88.5,14.884 M 88.427,15.348 M 88.214,15.766 M 87.882,16.098 M 87.464,16.311 M 87.0,16.384 M 86.536,16.311 M 86.118,16.098 M 85.786,15.766 M 85.573,15.348 M 85.5,14.884 M 85.573,14.42 M 85.786,14.002 M 86.118,13.67 M 86.536,13.457 M 87.0,13.384 M 87.464,13.457 M 87.882,13.67 M 88.214,14.002 M 88.427,14.42 M 42.35,29.856 M 41.94,30.026 M 41.5,30.084 M 41.06,30.026 M 40.65,29.856 M 40.298,29.586 M 40.028,29.234 M 39.858,28.824 M 39.8,28.384 M 39.858,27.944 M 40.028,27.534 M 40.298,27.182 M 40.65,26.912 M 41.06,26.742 M 41.5,26.684 M 41.94,26.742 M 42.35,26.912 M 42.702,27.182 M 42.972,27.534 M 43.142,27.944 M 43.2,28.384 M 43.142,28.824 M 42.972,29.234 M 42.702,29.586 M 54.176,57.766 M 54.618,58.208 M 54.902,58.766 M 55.0,59.384 M 54.902,60.002 M 54.618,60.56 M 54.176,61.002 M 53.618,61.286 M 53.0,61.384 M 52.382,61.286 M 51.824,61.002 M 51.382,60.56 M 51.098,60.002 M 51.0,59.384 M 51.098,58.766 M 51.382,58.208 M 51.824,57.766 M 52.382,57.482 M 53.0,57.384 M 53.618,57.482 M 88.214,59.002 M 88.427,59.42 M 88.5,59.884 M 88.427,60.348 M 88.214,60.766 M 87.882,61.098 M 87.464,61.311 M 87.0,61.384 M 86.536,61.311 M 86.118,61.098 M 85.786,60.766 M 85.573,60.348 M 85.5,59.884 M 85.573,59.42 M 85.786,59.002 M 86.118,58.67 M 86.536,58.457 M 87.0,58.384 M 87.464,58.457 M 87.882,58.67 M 71.382,60.56 M 71.098,60.002 M 71.0,59.384 M 71.098,58.766 M 71.382,58.208 M 71.824,57.766 M 72.382,57.482 M 73.0,57.384 M 73.618,57.482 M 74.176,57.766 M 74.618,58.208 M 74.902,58.766 M 75.0,59.384 M 74.902,60.002 M 74.618,60.56 M 74.176,61.002 M 73.618,61.286 M 73.0,61.384 M 72.382,61.286 M 71.824,61.002 M 53.618,30.286 M 53.0,30.384 M 52.382,30.286 M 51.824,30.002 M 51.382,29.56 M 51.098,29.002 M 51.0,28.384 M 51.098,27.766 M 51.382,27.208 M 51.824,26.766 M 52.382,26.482 M 53.0,26.384 M 53.618,26.482 M 54.176,26.766 M 54.618,27.208 M 54.902,27.766 M 55.0,28.384 M 54.902,29.002 M 54.618,29.56 M 54.176,30.002 M 69.0,13.884 M 69.0,39.884 M 57.0,39.884 M 57.0,13.884 M 85.436,8.13099999999999 M 85.05,6.43899999999999 M 86.132,5.08199999999999 M 87.868,5.08199999999999 M 88.95,6.43899999999999 M 88.564,8.13099999999999 M 87.0,8.88399999999999 "
  />
  <path id="face1-interior"
 style="fill:none;stroke:rgb(0,255,0);stroke-width:1;stroke-miterlimit:4;stroke-dasharray:none;stroke-linejoin:round;stroke-linecap:round"
        d="M 49.0,162.152 M 49.0,95.152 M 18.0,95.152 M 18.0,100.652 M 12.0,100.652 M 12.0,95.152 M 11.0,95.152 M 11.0,91.652 M 10.74,90.234 M 9.65200000000001,88.658 M 7.95699999999999,87.768 M 6.04300000000003,87.768 M 4.34800000000001,88.658 M 3.26000000000003,90.234 M 3.0,91.652 M 3.00000000000001,165.652 M 3.26000000000001,167.07 M 4.34800000000001,168.646 M 6.04300000000001,169.536 M 7.957,169.536 M 9.65200000000001,168.646 M 10.74,167.07 M 11.0,165.652 M 11.0,162.152 M 8.42700000000003,99.188 M 8.50000000000001,99.652 M 8.42700000000001,100.116 M 8.21400000000001,100.534 M 7.88200000000001,100.866 M 7.464,101.079 M 6.99999999999999,101.152 M 6.53600000000003,101.079 M 6.11800000000002,100.866 M 5.78600000000001,100.534 M 5.57300000000001,100.116 M 5.5,99.652 M 5.573,99.188 M 5.78600000000001,98.77 M 6.11800000000002,98.438 M 6.53600000000001,98.225 M 7.0,98.152 M 7.46400000000003,98.225 M 7.88200000000001,98.438 M 8.21400000000001,98.77 M 42.176,111.534 M 42.618,111.976 M 42.902,112.534 M 43.0,113.152 M 42.902,113.77 M 42.618,114.328 M 42.176,114.77 M 41.618,115.054 M 41.0,115.152 M 40.382,115.054 M 39.824,114.77 M 39.382,114.328 M 39.098,113.77 M 39.0,113.152 M 39.098,112.534 M 39.382,111.976 M 39.824,111.534 M 40.382,111.25 M 41.0,111.152 M 41.618,111.25 M 39.5,157.652 M 39.573,157.188 M 39.786,156.77 M 40.118,156.438 M 40.536,156.225 M 41.0,156.152 M 41.464,156.225 M 41.882,156.438 M 42.214,156.77 M 42.427,157.188 M 42.5,157.652 M 42.427,158.116 M 42.214,158.534 M 41.882,158.866 M 41.464,159.079 M 41.0,159.152 M 40.536,159.079 M 40.118,158.866 M 39.786,158.534 M 39.573,158.116 M 7.0,156.152 M 7.46400000000001,156.225 M 7.88200000000002,156.438 M 8.214,156.77 M 8.42700000000002,157.188 M 8.5,157.652 M 8.42700000000001,158.116 M 8.214,158.534 M 7.88200000000002,158.866 M 7.46400000000001,159.079 M 7.0,159.152 M 6.53600000000001,159.079 M 6.11800000000001,158.866 M 5.78600000000001,158.534 M 5.57300000000001,158.116 M 5.50000000000001,157.652 M 5.57300000000001,157.188 M 5.78600000000001,156.77 M 6.11800000000001,156.438 M 6.53600000000002,156.225 M 21.0,98.152 M 21.464,98.225 M 21.882,98.438 M 22.214,98.77 M 22.427,99.188 M 22.5,99.652 M 22.427,100.116 M 22.214,100.534 M 21.882,100.866 M 21.464,101.079 M 21.0,101.152 M 20.536,101.079 M 20.118,100.866 M 19.786,100.534 M 19.573,100.116 M 19.5,99.652 M 19.573,99.188 M 19.786,98.77 M 20.118,98.438 M 20.536,98.225 M 21.618,115.054 M 21.0,115.152 M 20.382,115.054 M 19.824,114.77 M 19.382,114.328 M 19.098,113.77 M 19.0,113.152 M 19.098,112.534 M 19.382,111.976 M 19.824,111.534 M 20.382,111.25 M 21.0,111.152 M 21.618,111.25 M 22.176,111.534 M 22.618,111.976 M 22.902,112.534 M 23.0,113.152 M 22.902,113.77 M 22.618,114.328 M 22.176,114.77 M 43.132,130.454 M 42.05,129.097 M 42.436,127.405 M 44.0,126.652 M 45.564,127.405 M 45.95,129.097 M 44.868,130.454 M 37.0,124.652 M 25.0,124.652 M 25.0,98.652 M 37.0,98.652 M 40.536,98.225 M 41.0,98.152 M 41.464,98.225 M 41.882,98.438 M 42.214,98.77 M 42.427,99.188 M 42.5,99.652 M 42.427,100.116 M 42.214,100.534 M 41.882,100.866 M 41.464,101.079 M 41.0,101.152 M 40.536,101.079 M 40.118,100.866 M 39.786,100.534 M 39.573,100.116 M 39.5,99.652 M 39.573,99.188 M 39.786,98.77 M 40.118,98.438 M 22.618,145.328 M 22.176,145.77 M 21.618,146.054 M 21.0,146.152 M 20.382,146.054 M 19.824,145.77 M 19.382,145.328 M 19.098,144.77 M 19.0,144.152 M 19.098,143.534 M 19.382,142.976 M 19.824,142.534 M 20.382,142.25 M 21.0,142.152 M 21.618,142.25 M 22.176,142.534 M 22.618,142.976 M 22.902,143.534 M 23.0,144.152 M 22.902,144.77 M 7.46400000000001,111.225 M 7.88200000000003,111.438 M 8.21399999999999,111.77 M 8.42700000000001,112.188 M 8.49999999999999,112.652 M 8.42700000000002,113.116 M 8.21399999999999,113.534 M 7.88200000000002,113.866 M 7.46400000000001,114.079 M 7.0,114.152 M 6.536,114.079 M 6.11800000000002,113.866 M 5.78600000000002,113.534 M 5.57300000000001,113.116 M 5.50000000000001,112.652 M 5.57300000000001,112.188 M 5.78600000000001,111.77 M 6.11800000000002,111.438 M 6.53600000000002,111.225 M 7.00000000000001,111.152 M 21.0,159.152 M 20.536,159.079 M 20.118,158.866 M 19.786,158.534 M 19.573,158.116 M 19.5,157.652 M 19.573,157.188 M 19.786,156.77 M 20.118,156.438 M 20.536,156.225 M 21.0,156.152 M 21.464,156.225 M 21.882,156.438 M 22.214,156.77 M 22.427,157.188 M 22.5,157.652 M 22.427,158.116 M 22.214,158.534 M 21.882,158.866 M 21.464,159.079 M 11.0,124.652 M 12.859,125.11 M 14.292,126.38 M 14.971,128.17 M 14.74,130.07 M 13.652,131.646 M 11.957,132.536 M 10.043,132.536 M 8.34800000000001,131.646 M 7.26,130.07 M 7.02900000000001,128.17 M 7.70800000000001,126.38 M 9.14100000000001,125.11 M 6.53600000000002,146.079 M 6.118,145.866 M 5.78600000000001,145.534 M 5.57300000000001,145.116 M 5.50000000000001,144.652 M 5.57300000000001,144.188 M 5.78600000000001,143.77 M 6.11800000000001,143.438 M 6.53600000000002,143.225 M 7.0,143.152 M 7.46400000000001,143.225 M 7.88200000000001,143.438 M 8.21400000000001,143.77 M 8.42700000000003,144.188 M 8.50000000000001,144.652 M 8.42700000000002,145.116 M 8.21399999999999,145.534 M 7.88200000000001,145.866 M 7.46400000000001,146.079 M 7.0,146.152 M 37.0,158.652 M 25.0,158.652 M 25.0,132.652 M 37.0,132.652 M 40.382,146.054 M 39.824,145.77 M 39.382,145.328 M 39.098,144.77 M 39.0,144.152 M 39.098,143.534 M 39.382,142.976 M 39.824,142.534 M 40.382,142.25 M 41.0,142.152 M 41.618,142.25 M 42.176,142.534 M 42.618,142.976 M 42.902,143.534 M 43.0,144.152 M 42.902,144.77 M 42.618,145.328 M 42.176,145.77 M 41.618,146.054 M 41.0,146.152 M 8.564,92.899 M 7.0,93.652 M 5.43600000000001,92.899 M 5.05000000000003,91.207 M 6.13200000000003,89.85 M 7.86800000000001,89.85 M 8.95000000000001,91.207 M 8.95000000000001,166.097 M 7.868,167.454 M 6.13200000000001,167.454 M 5.05000000000003,166.097 M 5.43599999999999,164.405 M 7.0,163.652 M 8.56400000000001,164.405 "
  />
  <path id="face2-interior"
 style="fill:none;stroke:rgb(0,255,0);stroke-width:1;stroke-miterlimit:4;stroke-dasharray:none;stroke-linejoin:round;stroke-linecap:round"
        d="M 49.0,246.92 M 49.0,179.92 M 11.0,179.92 M 11.0,176.42 M 10.74,175.002 M 9.652,173.426 M 7.95700000000001,172.536 M 6.04300000000002,172.536 M 4.34800000000004,173.426 M 3.26000000000002,175.002 M 3.00000000000001,176.42 M 3.0,186.92 M 46.0,186.92 M 46.0,194.92 M 3.00000000000001,194.92 M 3.00000000000001,201.42 M 11.0,201.42 M 16.0,201.525 M 17.495,201.682 M 19.881,202.457 M 22.053,203.712 M 23.918,205.39 M 25.392,207.42 M 26.413,209.712 M 26.934,212.166 M 26.934,214.674 M 26.413,217.128 M 25.392,219.42 M 23.918,221.45 M 22.053,223.128 M 19.881,224.383 M 17.495,225.158 M 16.0,225.315 M 11.0,225.42 M 3.00000000000001,225.42 M 3.00000000000001,231.92 M 46.0,231.92 M 46.0,239.92 M 3.00000000000001,239.92 M 3.00000000000001,250.42 M 3.26000000000002,251.838 M 4.34800000000001,253.414 M 6.04300000000001,254.304 M 7.95700000000001,254.304 M 9.65200000000002,253.414 M 10.74,251.838 M 11.0,250.42 M 11.0,246.92 M 8.214,228.538 M 8.42699999999999,228.956 M 8.5,229.42 M 8.42699999999999,229.884 M 8.214,230.302 M 7.88200000000002,230.634 M 7.46400000000001,230.847 M 7.00000000000001,230.92 M 6.53600000000002,230.847 M 6.11800000000001,230.634 M 5.786,230.302 M 5.57300000000001,229.884 M 5.5,229.42 M 5.57300000000001,228.956 M 5.786,228.538 M 6.11800000000001,228.206 M 6.53600000000002,227.993 M 7.0,227.92 M 7.46400000000001,227.993 M 7.88200000000002,228.206 M 5.786,243.302 M 5.57300000000001,242.884 M 5.5,242.42 M 5.57300000000001,241.956 M 5.786,241.538 M 6.11800000000001,241.206 M 6.53600000000002,240.993 M 7.0,240.92 M 7.46400000000001,240.993 M 7.88200000000002,241.206 M 8.214,241.538 M 8.42699999999999,241.956 M 8.5,242.42 M 8.42699999999999,242.884 M 8.214,243.302 M 7.88200000000002,243.634 M 7.46400000000001,243.847 M 7.0,243.92 M 6.53600000000002,243.847 M 6.11800000000001,243.634 M 8.95000000000002,250.865 M 7.868,252.222 M 6.13200000000001,252.222 M 5.05000000000001,250.865 M 5.43599999999999,249.173 M 7.0,248.42 M 8.56400000000001,249.173 M 23.0,197.92 M 22.902,198.538 M 22.618,199.096 M 22.176,199.538 M 21.618,199.822 M 21.0,199.92 M 20.382,199.822 M 19.824,199.538 M 19.382,199.096 M 19.098,198.538 M 19.0,197.92 M 19.098,197.302 M 19.382,196.744 M 19.824,196.302 M 20.382,196.018 M 21.0,195.92 M 21.618,196.018 M 22.176,196.302 M 22.618,196.744 M 22.902,197.302 M 20.536,182.993 M 21.0,182.92 M 21.464,182.993 M 21.882,183.206 M 22.214,183.538 M 22.427,183.956 M 22.5,184.42 M 22.427,184.884 M 22.214,185.302 M 21.882,185.634 M 21.464,185.847 M 21.0,185.92 M 20.536,185.847 M 20.118,185.634 M 19.786,185.302 M 19.573,184.884 M 19.5,184.42 M 19.573,183.956 M 19.786,183.538 M 20.118,183.206 M 40.536,240.993 M 41.0,240.92 M 41.464,240.993 M 41.882,241.206 M 42.214,241.538 M 42.427,241.956 M 42.5,242.42 M 42.427,242.884 M 42.214,243.302 M 41.882,243.634 M 41.464,243.847 M 41.0,243.92 M 40.536,243.847 M 40.118,243.634 M 39.786,243.302 M 39.573,242.884 M 39.5,242.42 M 39.573,241.956 M 39.786,241.538 M 40.118,241.206 M 8.42699999999999,184.884 M 8.21399999999998,185.302 M 7.88200000000002,185.634 M 7.46400000000001,185.847 M 6.99999999999999,185.92 M 6.53600000000002,185.847 M 6.11800000000002,185.634 M 5.786,185.302 M 5.57300000000001,184.884 M 5.5,184.42 M 5.57300000000001,183.956 M 5.786,183.538 M 6.11800000000001,183.206 M 6.53600000000002,182.993 M 7.0,182.92 M 7.46400000000003,182.993 M 7.88200000000001,183.206 M 8.214,183.538 M 8.42700000000002,183.956 M 8.5,184.42 M 8.214,198.302 M 7.88200000000002,198.634 M 7.46400000000003,198.847 M 7.0,198.92 M 6.53600000000002,198.847 M 6.11800000000002,198.634 M 5.786,198.302 M 5.57300000000001,197.884 M 5.5,197.42 M 5.57300000000002,196.956 M 5.786,196.538 M 6.11800000000001,196.206 M 6.53600000000003,195.993 M 7.00000000000001,195.92 M 7.46400000000001,195.993 M 7.88200000000002,196.206 M 8.214,196.538 M 8.42699999999999,196.956 M 8.5,197.42 M 8.42700000000001,197.884 M 43.132,215.222 M 42.05,213.865 M 42.436,212.173 M 44.0,211.42 M 45.564,212.173 M 45.95,213.865 M 44.868,215.222 M 21.618,227.018 M 22.176,227.302 M 22.618,227.744 M 22.902,228.302 M 23.0,228.92 M 22.902,229.538 M 22.618,230.096 M 22.176,230.538 M 21.618,230.822 M 21.0,230.92 M 20.382,230.822 M 19.824,230.538 M 19.382,230.096 M 19.098,229.538 M 19.0,228.92 M 19.098,228.302 M 19.382,227.744 M 19.824,227.302 M 20.382,227.018 M 21.0,226.92 M 39.786,185.302 M 39.573,184.884 M 39.5,184.42 M 39.573,183.956 M 39.786,183.538 M 40.118,183.206 M 40.536,182.993 M 41.0,182.92 M 41.464,182.993 M 41.882,183.206 M 42.214,183.538 M 42.427,183.956 M 42.5,184.42 M 42.427,184.884 M 42.214,185.302 M 41.882,185.634 M 41.464,185.847 M 41.0,185.92 M 40.536,185.847 M 40.118,185.634 M 39.098,197.302 M 39.382,196.744 M 39.824,196.302 M 40.382,196.018 M 41.0,195.92 M 41.618,196.018 M 42.176,196.302 M 42.618,196.744 M 42.902,197.302 M 43.0,197.92 M 42.902,198.538 M 42.618,199.096 M 42.176,199.538 M 41.618,199.822 M 41.0,199.92 M 40.382,199.822 M 39.824,199.538 M 39.382,199.096 M 39.098,198.538 M 39.0,197.92 M 19.786,241.538 M 20.118,241.206 M 20.536,240.993 M 21.0,240.92 M 21.464,240.993 M 21.882,241.206 M 22.214,241.538 M 22.427,241.956 M 22.5,242.42 M 22.427,242.884 M 22.214,243.302 M 21.882,243.634 M 21.464,243.847 M 21.0,243.92 M 20.536,243.847 M 20.118,243.634 M 19.786,243.302 M 19.573,242.884 M 19.5,242.42 M 19.573,241.956 M 41.0,230.92 M 40.382,230.822 M 39.824,230.538 M 39.382,230.096 M 39.098,229.538 M 39.0,228.92 M 39.098,228.302 M 39.382,227.744 M 39.824,227.302 M 40.382,227.018 M 41.0,226.92 M 41.618,227.018 M 42.176,227.302 M 42.618,227.744 M 42.902,228.302 M 43.0,228.92 M 42.902,229.538 M 42.618,230.096 M 42.176,230.538 M 41.618,230.822 M 5.43599999999999,177.667 M 5.05000000000001,175.975 M 6.13200000000002,174.618 M 7.868,174.618 M 8.95000000000002,175.975 M 8.56400000000001,177.667 M 6.99999999999999,178.42 "
  />
  <path id="face3-interior"
 style="fill:none;stroke:rgb(0,255,0);stroke-width:1;stroke-miterlimit:4;stroke-dasharray:none;stroke-linejoin:round;stroke-linecap:round"
        d="M 83.0,264.688 M 16.571,264.688 M 3.00000000000001,278.259 M 3.0,318.117 M 16.571,331.688 M 83.0,331.688 M 83.0,335.188 M 83.26,336.606 M 84.348,338.182 M 86.043,339.072 M 87.957,339.072 M 89.652,338.182 M 90.74,336.606 M 91.0,335.188 M 91.0,324.688 M 48.0,324.688 M 48.0,316.688 M 91.0,316.688 M 91.0,309.688 M 35.5222192564347,309.688 M 34.817,310.323 M 32.101,311.891 M 29.119,312.86 M 26.0,313.188 M 22.881,312.86 M 19.899,311.891 M 17.183,310.323 M 14.853,308.225 M 13.01,305.688 M 11.734,302.823 M 11.082,299.756 M 11.082,296.62 M 11.734,293.553 M 13.01,290.688 M 14.853,288.151 M 17.183,286.053 M 19.899,284.485 M 22.881,283.516 M 26.0,283.188 M 29.119,283.516 M 32.101,284.485 M 34.817,286.053 M 35.5222192564347,286.688 M 91.0,286.688 M 91.0,279.688 M 48.0,279.688 M 48.0,271.688 M 91.0,271.688 M 91.0,261.188 M 90.74,259.77 M 89.652,258.194 M 87.957,257.304 M 86.043,257.304 M 84.348,258.194 M 83.26,259.77 M 83.0,261.188 M 85.573,269.652 M 85.5,269.188 M 85.573,268.724 M 85.786,268.306 M 86.118,267.974 M 86.536,267.761 M 87.0,267.688 M 87.464,267.761 M 87.882,267.974 M 88.214,268.306 M 88.427,268.724 M 88.5,269.188 M 88.427,269.652 M 88.214,270.07 M 87.882,270.402 M 87.464,270.615 M 87.0,270.688 M 86.536,270.615 M 86.118,270.402 M 85.786,270.07 M 12.142,282.248 M 12.2,282.688 M 12.142,283.128 M 11.972,283.538 M 11.702,283.89 M 11.35,284.16 M 10.94,284.33 M 10.5,284.388 M 10.06,284.33 M 9.65,284.16 M 9.29800000000001,283.89 M 9.028,283.538 M 8.858,283.128 M 8.79999999999999,282.688 M 8.858,282.248 M 9.02799999999998,281.838 M 9.29800000000001,281.486 M 9.64999999999998,281.216 M 10.06,281.046 M 10.5,280.988 M 10.94,281.046 M 11.35,281.216 M 11.702,281.486 M 11.972,281.838 M 39.858,283.128 M 39.8,282.688 M 39.858,282.248 M 40.028,281.838 M 40.298,281.486 M 40.65,281.216 M 41.06,281.046 M 41.5,280.988 M 41.94,281.046 M 42.35,281.216 M 42.702,281.486 M 42.972,281.838 M 43.142,282.248 M 43.2,282.688 M 43.142,283.128 M 42.972,283.538 M 42.702,283.89 M 42.35,284.16 M 41.94,284.33 M 41.5,284.388 M 41.06,284.33 M 40.65,284.16 M 40.298,283.89 M 40.028,283.538 M 73.464,328.615 M 73.0,328.688 M 72.536,328.615 M 72.118,328.402 M 71.786,328.07 M 71.573,327.652 M 71.5,327.188 M 71.573,326.724 M 71.786,326.306 M 72.118,325.974 M 72.536,325.761 M 73.0,325.688 M 73.464,325.761 M 73.882,325.974 M 74.214,326.306 M 74.427,326.724 M 74.5,327.188 M 74.427,327.652 M 74.214,328.07 M 73.882,328.402 M 71.382,312.512 M 71.824,312.07 M 72.382,311.786 M 73.0,311.688 M 73.618,311.786 M 74.176,312.07 M 74.618,312.512 M 74.902,313.07 M 75.0,313.688 M 74.902,314.306 M 74.618,314.864 M 74.176,315.306 M 73.618,315.59 M 73.0,315.688 M 72.382,315.59 M 71.824,315.306 M 71.382,314.864 M 71.098,314.306 M 71.0,313.688 M 71.098,313.07 M 71.0,282.688 M 71.098,282.07 M 71.382,281.512 M 71.824,281.07 M 72.382,280.786 M 73.0,280.688 M 73.618,280.786 M 74.176,281.07 M 74.618,281.512 M 74.902,282.07 M 75.0,282.688 M 74.902,283.306 M 74.618,283.864 M 74.176,284.306 M 73.618,284.59 M 73.0,284.688 M 72.382,284.59 M 71.824,284.306 M 71.382,283.864 M 71.098,283.306 M 86.536,325.761 M 87.0,325.688 M 87.464,325.761 M 87.882,325.974 M 88.214,326.306 M 88.427,326.724 M 88.5,327.188 M 88.427,327.652 M 88.214,328.07 M 87.882,328.402 M 87.464,328.615 M 87.0,328.688 M 86.536,328.615 M 86.118,328.402 M 85.786,328.07 M 85.573,327.652 M 85.5,327.188 M 85.573,326.724 M 85.786,326.306 M 86.118,325.974 M 51.5,269.188 M 51.573,268.724 M 51.786,268.306 M 52.118,267.974 M 52.536,267.761 M 53.0,267.688 M 53.464,267.761 M 53.882,267.974 M 54.214,268.306 M 54.427,268.724 M 54.5,269.188 M 54.427,269.652 M 54.214,270.07 M 53.882,270.402 M 53.464,270.615 M 53.0,270.688 M 52.536,270.615 M 52.118,270.402 M 51.786,270.07 M 51.573,269.652 M 87.0,283.688 M 86.536,283.615 M 86.118,283.402 M 85.786,283.07 M 85.573,282.652 M 85.5,282.188 M 85.573,281.724 M 85.786,281.306 M 86.118,280.974 M 86.536,280.761 M 87.0,280.688 M 87.464,280.761 M 87.882,280.974 M 88.214,281.306 M 88.427,281.724 M 88.5,282.188 M 88.427,282.652 M 88.214,283.07 M 87.882,283.402 M 87.464,283.615 M 85.573,314.652 M 85.5,314.188 M 85.573,313.724 M 85.786,313.306 M 86.118,312.974 M 86.536,312.761 M 87.0,312.688 M 87.464,312.761 M 87.882,312.974 M 88.214,313.306 M 88.427,313.724 M 88.5,314.188 M 88.427,314.652 M 88.214,315.07 M 87.882,315.402 M 87.464,315.615 M 87.0,315.688 M 86.536,315.615 M 86.118,315.402 M 85.786,315.07 M 40.65,312.216 M 41.06,312.046 M 41.5,311.988 M 41.94,312.046 M 42.35,312.216 M 42.702,312.486 M 42.972,312.838 M 43.142,313.248 M 43.2,313.688 M 43.142,314.128 M 42.972,314.538 M 42.702,314.89 M 42.35,315.16 M 41.94,315.33 M 41.5,315.388 M 41.06,315.33 M 40.65,315.16 M 40.298,314.89 M 40.028,314.538 M 39.858,314.128 M 39.8,313.688 M 39.858,313.248 M 40.028,312.838 M 40.298,312.486 M 71.573,269.652 M 71.5,269.188 M 71.573,268.724 M 71.786,268.306 M 72.118,267.974 M 72.536,267.761 M 73.0,267.688 M 73.464,267.761 M 73.882,267.974 M 74.214,268.306 M 74.427,268.724 M 74.5,269.188 M 74.427,269.652 M 74.214,270.07 M 73.882,270.402 M 73.464,270.615 M 73.0,270.688 M 72.536,270.615 M 72.118,270.402 M 71.786,270.07 M 51.382,283.864 M 51.098,283.306 M 51.0,282.688 M 51.098,282.07 M 51.382,281.512 M 51.824,281.07 M 52.382,280.786 M 53.0,280.688 M 53.618,280.786 M 54.176,281.07 M 54.618,281.512 M 54.902,282.07 M 55.0,282.688 M 54.902,283.306 M 54.618,283.864 M 54.176,284.306 M 53.618,284.59 M 53.0,284.688 M 52.382,284.59 M 51.824,284.306 M 53.882,328.402 M 53.464,328.615 M 53.0,328.688 M 52.536,328.615 M 52.118,328.402 M 51.786,328.07 M 51.573,327.652 M 51.5,327.188 M 51.573,326.724 M 51.786,326.306 M 52.118,325.974 M 52.536,325.761 M 53.0,325.688 M 53.464,325.761 M 53.882,325.974 M 54.214,326.306 M 54.427,326.724 M 54.5,327.188 M 54.427,327.652 M 54.214,328.07 M 10.5,315.388 M 10.06,315.33 M 9.65,315.16 M 9.29800000000001,314.89 M 9.02800000000001,314.538 M 8.85800000000003,314.128 M 8.8,313.688 M 8.85800000000001,313.248 M 9.02800000000001,312.838 M 9.29799999999999,312.486 M 9.65,312.216 M 10.06,312.046 M 10.5,311.988 M 10.94,312.046 M 11.35,312.216 M 11.702,312.486 M 11.972,312.838 M 12.142,313.248 M 12.2,313.688 M 12.142,314.128 M 11.972,314.538 M 11.702,314.89 M 11.35,315.16 M 10.94,315.33 M 51.824,315.306 M 51.382,314.864 M 51.098,314.306 M 51.0,313.688 M 51.098,313.07 M 51.382,312.512 M 51.824,312.07 M 52.382,311.786 M 53.0,311.688 M 53.618,311.786 M 54.176,312.07 M 54.618,312.512 M 54.902,313.07 M 55.0,313.688 M 54.902,314.306 M 54.618,314.864 M 54.176,315.306 M 53.618,315.59 M 53.0,315.688 M 52.382,315.59 M 86.132,259.386 M 87.868,259.386 M 88.95,260.743 M 88.564,262.435 M 87.0,263.188 M 85.436,262.435 M 85.05,260.743 M 86.132,336.99 M 85.05,335.633 M 85.436,333.941 M 87.0,333.188 M 88.564,333.941 M 88.95,335.633 M 87.868,336.99 "
  />
  <path id="face4-interior"
 style="fill:none;stroke:rgb(0,255,0);stroke-width:1;stroke-miterlimit:4;stroke-dasharray:none;stroke-linejoin:round;stroke-linecap:round"
        d="M 16.571,409.072 M 48.0,409.072 M 48.0,387.072 M 35.5222192564347,387.072 M 34.817,387.707 M 32.101,389.275 M 29.119,390.244 M 26.0,390.572 M 22.881,390.244 M 19.899,389.275 M 17.183,387.707 M 14.853,385.609 M 13.01,383.072 M 11.734,380.207 M 11.082,377.14 M 11.082,374.004 M 11.734,370.937 M 13.01,368.072 M 14.853,365.535 M 17.183,363.437 M 19.899,361.869 M 22.881,360.9 M 26.0,360.572 M 29.119,360.9 M 32.101,361.869 M 34.817,363.437 M 35.5222192564347,364.072 M 48.0,364.072 M 48.0,342.072 M 16.571,342.072 M 3.0,355.643 M 3.0,395.501 M 11.35,392.544 M 10.94,392.714 M 10.5,392.772 M 10.06,392.714 M 9.65,392.544 M 9.298,392.274 M 9.028,391.922 M 8.858,391.512 M 8.8,391.072 M 8.858,390.632 M 9.028,390.222 M 9.298,389.87 M 9.65,389.6 M 10.06,389.43 M 10.5,389.372 M 10.94,389.43 M 11.35,389.6 M 11.702,389.87 M 11.972,390.222 M 12.142,390.632 M 12.2,391.072 M 12.142,391.512 M 11.972,391.922 M 11.702,392.274 M 41.94,392.714 M 41.5,392.772 M 41.06,392.714 M 40.65,392.544 M 40.298,392.274 M 40.028,391.922 M 39.858,391.512 M 39.8,391.072 M 39.858,390.632 M 40.028,390.222 M 40.298,389.87 M 40.65,389.6 M 41.06,389.43 M 41.5,389.372 M 41.94,389.43 M 42.35,389.6 M 42.702,389.87 M 42.972,390.222 M 43.142,390.632 M 43.2,391.072 M 43.142,391.512 M 42.972,391.922 M 42.702,392.274 M 42.35,392.544 M 10.94,361.714 M 10.5,361.772 M 10.06,361.714 M 9.64999999999999,361.544 M 9.298,361.274 M 9.028,360.922 M 8.858,360.512 M 8.8,360.072 M 8.858,359.632 M 9.028,359.222 M 9.298,358.87 M 9.65,358.6 M 10.06,358.43 M 10.5,358.372 M 10.94,358.43 M 11.35,358.6 M 11.702,358.87 M 11.972,359.222 M 12.142,359.632 M 12.2,360.072 M 12.142,360.512 M 11.972,360.922 M 11.702,361.274 M 11.35,361.544 M 41.94,361.714 M 41.5,361.772 M 41.06,361.714 M 40.65,361.544 M 40.298,361.274 M 40.028,360.922 M 39.858,360.512 M 39.8,360.072 M 39.858,359.632 M 40.028,359.222 M 40.298,358.87 M 40.65,358.6 M 41.06,358.43 M 41.5,358.372 M 41.94,358.43 M 42.35,358.6 M 42.702,358.87 M 42.972,359.222 M 43.142,359.632 M 43.2,360.072 M 43.142,360.512 M 42.972,360.922 M 42.702,361.274 M 42.35,361.544 "
  />
  <path id="face5-interior"
 style="fill:none;stroke:rgb(0,255,0);stroke-width:1;stroke-miterlimit:4;stroke-dasharray:none;stroke-linejoin:round;stroke-linecap:round"
        d="M 14.81,425.695 M 14.974,423.727 M 14.988,418.397 M 11.994,418.397 M 11.994,412.072 M 5.99399999999998,412.072 M 5.99399999999998,418.397 M 3.0,418.397 M 3.014,423.727 M 3.178,425.695 M 3.97099999999998,427.504 M 5.30899999999999,428.957 M 7.04599999999999,429.897 M 8.99399999999999,430.222 M 10.942,429.897 M 12.679,428.957 M 14.017,427.504 M 10.17,425.34 M 8.99399999999999,425.722 M 7.81799999999998,425.34 M 7.09199999999999,424.34 M 7.09199999999999,423.104 M 7.81799999999998,422.104 M 8.99399999999999,421.722 M 10.17,422.104 M 10.896,423.104 M 10.896,424.34 M 9.94499999999999,415.531 M 8.99399999999999,416.222 M 8.04299999999999,415.531 M 8.40599999999999,414.413 M 9.58199999999999,414.413 "
  />
  <path id="face6-interior"
 style="fill:none;stroke:rgb(0,255,0);stroke-width:1;stroke-miterlimit:4;stroke-dasharray:none;stroke-linejoin:round;stroke-linecap:round"
        d="M 14.81,446.845 M 14.974,444.877 M 14.988,439.547 M 11.994,439.547 M 11.994,433.222 M 5.994,433.222 M 5.994,439.547 M 3.0,439.547 M 3.014,444.877 M 3.178,446.845 M 3.971,448.654 M 5.309,450.107 M 7.046,451.047 M 8.99399999999999,451.372 M 10.942,451.047 M 12.679,450.107 M 14.017,448.654 M 10.17,446.49 M 8.99399999999999,446.872 M 7.818,446.49 M 7.092,445.49 M 7.092,444.254 M 7.818,443.254 M 8.99399999999999,442.872 M 10.17,443.254 M 10.896,444.254 M 10.896,445.49 M 9.58199999999999,435.563 M 9.945,436.681 M 8.99399999999999,437.372 M 8.04299999999999,436.681 M 8.406,435.563 "
  />
</svg>
