  0
SECTION
  2
HEADER
  9
$ACADVER
  1
AC1024
  9
$ACADMAINTVER
 70
     6
  9
$DWGCODEPAGE
  3
ANSI_1252
  9
$INSBASE
 10
0.0
 20
0.0
 30
0.0
  9
$EXTMIN
 10
1.000000000000000E+20
 20
1.000000000000000E+20
 30
1.000000000000000E+20
  9
$EXTMAX
 10
-1.000000000000000E+20
 20
-1.000000000000000E+20
 30
-1.000000000000000E+20
  9
$LIMMIN
 10
0.0
 20
0.0
  9
$LIMMAX
 10
12.0
 20
9.0
  9
$ORTHOMODE
 70
     0
  9
$REGENMODE
 70
     1
  9
$FILLMODE
 70
     1
  9
$QTEXTMODE
 70
     0
  9
$MIRRTEXT
 70
     1
  9
$LTSCALE
 40
1.0
  9
$ATTMODE
 70
     1
  9
$TEXTSIZE
 40
0.2
  9
$TRACEWID
 40
0.05
  9
$TEXTSTYLE
  7
Standard
  9
$CLAYER
  8
0
  9
$CELTYPE
  6
ByLayer
  9
$CECOLOR
 62
   256
  9
$CELTSCALE
 40
1.0
  9
$DISPSILH
 70
     0
  9
$DIMSCALE
 40
1.0
  9
$DIMASZ
 40
0.18
  9
$DIMEXO
 40
0.0625
  9
$DIMDLI
 40
0.38
  9
$DIMRND
 40
0.0
  9
$DIMDLE
 40
0.0
  9
$DIMEXE
 40
0.18
  9
$DIMTP
 40
0.0
  9
$DIMTM
 40
0.0
  9
$DIMTXT
 40
0.18
  9
$DIMCEN
 40
0.09
  9
$DIMTSZ
 40
0.0
  9
$DIMTOL
 70
     0
  9
$DIMLIM
 70
     0
  9
$DIMTIH
 70
     1
  9
$DIMTOH
 70
     1
  9
$DIMSE1
 70
     0
  9
$DIMSE2
 70
     0
  9
$DIMTAD
 70
     0
  9
$DIMZIN
 70
     0
  9
$DIMBLK
  1

  9
$DIMASO
 70
     1
  9
$DIMSHO
 70
     1
  9
$DIMPOST
  1

  9
$DIMAPOST
  1

  9
$DIMALT
 70
     0
  9
$DIMALTD
 70
     2
  9
$DIMALTF
 40
25.4
  9
$DIMLFAC
 40
1.0
  9
$DIMTOFL
 70
     0
  9
$DIMTVP
 40
0.0
  9
$DIMTIX
 70
     0
  9
$DIMSOXD
 70
     0
  9
$DIMSAH
 70
     0
  9
$DIMBLK1
  1

  9
$DIMBLK2
  1

  9
$DIMSTYLE
  2
Standard
  9
$DIMCLRD
 70
     0
  9
$DIMCLRE
 70
     0
  9
$DIMCLRT
 70
     0
  9
$DIMTFAC
 40
1.0
  9
$DIMGAP
 40
0.09
  9
$DIMJUST
 70
     0
  9
$DIMSD1
 70
     0
  9
$DIMSD2
 70
     0
  9
$DIMTOLJ
 70
     1
  9
$DIMTZIN
 70
     0
  9
$DIMALTZ
 70
     0
  9
$DIMALTTZ
 70
     0
  9
$DIMUPT
 70
     0
  9
$DIMDEC
 70
     4
  9
$DIMTDEC
 70
     4
  9
$DIMALTU
 70
     2
  9
$DIMALTTD
 70
     2
  9
$DIMTXSTY
  7
Standard
  9
$DIMAUNIT
 70
     0
  9
$DIMADEC
 70
     0
  9
$DIMALTRND
 40
0.0
  9
$DIMAZIN
 70
     0
  9
$DIMDSEP
 70
    46
  9
$DIMATFIT
 70
     3
  9
$DIMFRAC
 70
     0
  9
$DIMLDRBLK
  1

  9
$DIMLUNIT
 70
     2
  9
$DIMLWD
 70
    -2
  9
$DIMLWE
 70
    -2
  9
$DIMTMOVE
 70
     0
  9
$DIMFXL
 40
1.0
  9
$DIMFXLON
 70
     0
  9
$DIMJOGANG
 40
0.7853981633974483
  9
$DIMTFILL
 70
     0
  9
$DIMTFILLCLR
 70
     0
  9
$DIMARCSYM
 70
     0
  9
$DIMLTYPE
  6

  9
$DIMLTEX1
  6

  9
$DIMLTEX2
  6

  9
$DIMTXTDIRECTION
 70
     0
  9
$LUNITS
 70
     2
  9
$LUPREC
 70
     4
  9
$SKETCHINC
 40
0.1
  9
$FILLETRAD
 40
0.5
  9
$AUNITS
 70
     0
  9
$AUPREC
 70
     0
  9
$MENU
  1
.
  9
$ELEVATION
 40
0.0
  9
$PELEVATION
 40
0.0
  9
$THICKNESS
 40
0.0
  9
$LIMCHECK
 70
     0
  9
$CHAMFERA
 40
0.5
  9
$CHAMFERB
 40
0.5
  9
$CHAMFERC
 40
1.0
  9
$CHAMFERD
 40
0.0
  9
$SKPOLY
 70
     0
  9
$TDCREATE
 40
2456396.423341331
  9
$TDUCREATE
 40
2456396.590007998
  9
$TDUPDATE
 40
2456396.423341343
  9
$TDUUPDATE
 40
2456396.590008009
  9
$TDINDWG
 40
0.0000000116
  9
$TDUSRTIMER
 40
0.0000000116
  9
$USRTIMER
 70
     1
  9
$ANGBASE
 50
0.0
  9
$ANGDIR
 70
     0
  9
$PDMODE
 70
     0
  9
$PDSIZE
 40
0.0
  9
$PLINEWID
 40
0.0
  9
$SPLFRAME
 70
     0
  9
$SPLINETYPE
 70
     6
  9
$SPLINESEGS
 70
     8
  9
$HANDSEED
  5
400
  9
$SURFTAB1
 70
     6
  9
$SURFTAB2
 70
     6
  9
$SURFTYPE
 70
     6
  9
$SURFU
 70
     6
  9
$SURFV
 70
     6
  9
$UCSBASE
  2

  9
$UCSNAME
  2

  9
$UCSORG
 10
0.0
 20
0.0
 30
0.0
  9
$UCSXDIR
 10
1.0
 20
0.0
 30
0.0
  9
$UCSYDIR
 10
0.0
 20
1.0
 30
0.0
  9
$UCSORTHOREF
  2

  9
$UCSORTHOVIEW
 70
     0
  9
$UCSORGTOP
 10
0.0
 20
0.0
 30
0.0
  9
$UCSORGBOTTOM
 10
0.0
 20
0.0
 30
0.0
  9
$UCSORGLEFT
 10
0.0
 20
0.0
 30
0.0
  9
$UCSORGRIGHT
 10
0.0
 20
0.0
 30
0.0
  9
$UCSORGFRONT
 10
0.0
 20
0.0
 30
0.0
  9
$UCSORGBACK
 10
0.0
 20
0.0
 30
0.0
  9
$PUCSBASE
  2

  9
$PUCSNAME
  2

  9
$PUCSORG
 10
0.0
 20
0.0
 30
0.0
  9
$PUCSXDIR
 10
1.0
 20
0.0
 30
0.0
  9
$PUCSYDIR
 10
0.0
 20
1.0
 30
0.0
  9
$PUCSORTHOREF
  2

  9
$PUCSORTHOVIEW
 70
     0
  9
$PUCSORGTOP
 10
0.0
 20
0.0
 30
0.0
  9
$PUCSORGBOTTOM
 10
0.0
 20
0.0
 30
0.0
  9
$PUCSORGLEFT
 10
0.0
 20
0.0
 30
0.0
  9
$PUCSORGRIGHT
 10
0.0
 20
0.0
 30
0.0
  9
$PUCSORGFRONT
 10
0.0
 20
0.0
 30
0.0
  9
$PUCSORGBACK
 10
0.0
 20
0.0
 30
0.0
  9
$USERI1
 70
     0
  9
$USERI2
 70
     0
  9
$USERI3
 70
     0
  9
$USERI4
 70
     0
  9
$USERI5
 70
     0
  9
$USERR1
 40
0.0
  9
$USERR2
 40
0.0
  9
$USERR3
 40
0.0
  9
$USERR4
 40
0.0
  9
$USERR5
 40
0.0
  9
$WORLDVIEW
 70
     1
  9
$SHADEDGE
 70
     3
  9
$SHADEDIF
 70
    70
  9
$TILEMODE
 70
     1
  9
$MAXACTVP
 70
    64
  9
$PINSBASE
 10
0.0
 20
0.0
 30
0.0
  9
$PLIMCHECK
 70
     0
  9
$PEXTMIN
 10
1.000000000000000E+20
 20
1.000000000000000E+20
 30
1.000000000000000E+20
  9
$PEXTMAX
 10
-1.000000000000000E+20
 20
-1.000000000000000E+20
 30
-1.000000000000000E+20
  9
$PLIMMIN
 10
0.0
 20
0.0
  9
$PLIMMAX
 10
12.0
 20
9.0
  9
$UNITMODE
 70
     0
  9
$VISRETAIN
 70
     1
  9
$PLINEGEN
 70
     0
  9
$PSLTSCALE
 70
     1
  9
$TREEDEPTH
 70
  3020
  9
$CMLSTYLE
  2
Standard
  9
$CMLJUST
 70
     0
  9
$CMLSCALE
 40
1.0
  9
$PROXYGRAPHICS
 70
     1
  9
$MEASUREMENT
 70
     0
  9
$CELWEIGHT
370
    -1
  9
$ENDCAPS
280
     0
  9
$JOINSTYLE
280
     0
  9
$LWDISPLAY
290
     0
  9
$INSUNITS
 70
     1
  9
$HYPERLINKBASE
  1

  9
$STYLESHEET
  1

  9
$XEDIT
290
     1
  9
$CEPSNTYPE
380
     0
  9
$PSTYLEMODE
290
     1
  9
$FINGERPRINTGUID
  2
{B739D996-1383-4459-8C9E-0485BB109E4C}
  9
$VERSIONGUID
  2
{FAEB1C32-E019-11D5-929B-00C0DF256EC4}
  9
$EXTNAMES
290
     1
  9
$PSVPSCALE
 40
0.0
  9
$OLESTARTUP
290
     0
  9
$SORTENTS
280
   127
  9
$INDEXCTL
280
     0
  9
$HIDETEXT
280
     1
  9
$XCLIPFRAME
280
     2
  9
$HALOGAP
280
     0
  9
$OBSCOLOR
 70
   257
  9
$OBSLTYPE
280
     0
  9
$INTERSECTIONDISPLAY
280
     0
  9
$INTERSECTIONCOLOR
 70
   257
  9
$DIMASSOC
280
     2
  9
$PROJECTNAME
  1

  9
$CAMERADISPLAY
290
     0
  9
$LENSLENGTH
 40
50.0
  9
$CAMERAHEIGHT
 40
0.0
  9
$STEPSPERSEC
 40
2.0
  9
$STEPSIZE
 40
6.0
  9
$3DDWFPREC
 40
2.0
  9
$PSOLWIDTH
 40
0.25
  9
$PSOLHEIGHT
 40
4.0
  9
$LOFTANG1
 40
1.570796326794897
  9
$LOFTANG2
 40
1.570796326794897
  9
$LOFTMAG1
 40
0.0
  9
$LOFTMAG2
 40
0.0
  9
$LOFTPARAM
 70
     7
  9
$LOFTNORMALS
280
     1
  9
$LATITUDE
 40
37.795
  9
$LONGITUDE
 40
-122.394
  9
$NORTHDIRECTION
 40
0.0
  9
$TIMEZONE
 70
 -8000
  9
$LIGHTGLYPHDISPLAY
280
     1
  9
$TILEMODELIGHTSYNCH
280
     1
  9
$SOLIDHIST
280
     1
  9
$SHOWHIST
280
     1
  9
$DWFFRAME
280
     2
  9
$DGNFRAME
280
     2
  9
$REALWORLDSCALE
290
     1
  9
$INTERFERECOLOR
 62
   256
  9
$CSHADOW
280
     0
  9
$SHADOWPLANELOCATION
 40
0.0
  0
ENDSEC
  0
SECTION
  2
CLASSES
  0
CLASS
  1
ACDBDICTIONARYWDFLT
  2
AcDbDictionaryWithDefault
  3
ObjectDBX Classes
 90
        0
 91
        4
280
     0
281
     0
  0
CLASS
  1
VISUALSTYLE
  2
AcDbVisualStyle
  3
ObjectDBX Classes
 90
     4095
 91
        4
280
     0
281
     0
  0
CLASS
  1
MATERIAL
  2
AcDbMaterial
  3
ObjectDBX Classes
 90
     1153
 91
        4
280
     0
281
     0
  0
ENDSEC
  0
SECTION
  2
TABLES
  0
TABLE
  2
VPORT
  5
8
330
0
100
AcDbSymbolTable
 70
     1
  0
VPORT
  5
29
330
8
100
AcDbSymbolTableRecord
100
AcDbViewportTableRecord
  2
*Active
 70
     0
 10
0.0
 20
0.0
 11
1.0
 21
1.0
 12
0.0
 22
0.0
 13
0.0
 23
0.0
 14
0.5
 24
0.5
 15
0.5
 25
0.5
 16
0.0
 26
0.0
 36
1.0
 17
0.0
 27
0.0
 37
-1000.0
 40
258.183384568587
 41
1.822857142857143
 42
50.0
 43
3985.455138884457
 44
4899.051834179137
 50
0.0
 51
0.0
 71
     0
 72
   100
 73
     1
 74
     3
 75
     0
 76
     0
 77
     0
 78
     0
281
     0
 65
     1
110
0.0
120
0.0
130
0.0
111
1.0
121
0.0
131
0.0
112
0.0
122
1.0
132
0.0
 79
     0
146
0.0
 60
     3
 61
     5
292
     1
282
     1
141
0.0
142
0.0
 63
   250
  0
ENDTAB
  0
TABLE
  2
LTYPE
  5
5
330
0
100
AcDbSymbolTable
 70
     1
  0
LTYPE
  5
14
330
5
100
AcDbSymbolTableRecord
100
AcDbLinetypeTableRecord
  2
ByBlock
 70
     0
  3

 72
    65
 73
     0
 40
0.0
  0
LTYPE
  5
15
330
5
100
AcDbSymbolTableRecord
100
AcDbLinetypeTableRecord
  2
ByLayer
 70
     0
  3

 72
    65
 73
     0
 40
0.0
  0
LTYPE
  5
16
330
5
100
AcDbSymbolTableRecord
100
AcDbLinetypeTableRecord
  2
Continuous
 70
     0
  3
Solid line
 72
    65
 73
     0
 40
0.0
  0
ENDTAB
  0
TABLE
  2
LAYER
  5
2
330
0
100
AcDbSymbolTable
 70
     3
  0
LAYER
  5
10
330
2
100
AcDbSymbolTableRecord
100
AcDbLayerTableRecord
  2
0
 70
     0
 62
     7
  6
Continuous
370
    -3
390
F
347
3E
  0
LAYER
  5
3F
330
2
100
AcDbSymbolTableRecord
100
AcDbLayerTableRecord
  2
ProfileEdges
 70
     0
 62
     7
  6
Continuous
370
    -3
390
F
347
3E
  0
LAYER
  5
40
330
2
100
AcDbSymbolTableRecord
100
AcDbLayerTableRecord
  2
SectionCutEdges
 70
     0
 62
     7
  6
Continuous
370
    -3
390
F
347
3E
  0
ENDTAB
  0
TABLE
  2
STYLE
  5
3
330
0
100
AcDbSymbolTable
 70
     1
  0
STYLE
  5
11
330
3
100
AcDbSymbolTableRecord
100
AcDbTextStyleTableRecord
  2
Standard
 70
     0
 40
0.0
 41
1.0
 50
0.0
 71
     0
 42
0.2
  3
txt
  4

  0
ENDTAB
  0
TABLE
  2
VIEW
  5
6
330
0
100
AcDbSymbolTable
 70
     0
  0
ENDTAB
  0
TABLE
  2
UCS
  5
7
330
0
100
AcDbSymbolTable
 70
     0
  0
ENDTAB
  0
TABLE
  2
APPID
  5
9
330
0
100
AcDbSymbolTable
 70
     1
  0
APPID
  5
12
330
9
100
AcDbSymbolTableRecord
100
AcDbRegAppTableRecord
  2
ACAD
 70
     0
  0
ENDTAB
  0
TABLE
  2
DIMSTYLE
  5
A
330
0
100
AcDbSymbolTable
 70
     1
100
AcDbDimStyleTable
  0
DIMSTYLE
105
27
330
A
100
AcDbSymbolTableRecord
100
AcDbDimStyleTableRecord
  2
Standard
 70
     0
340
11
  0
ENDTAB
  0
TABLE
  2
BLOCK_RECORD
  5
1
330
0
100
AcDbSymbolTable
 70
     1
  0
BLOCK_RECORD
  5
1F
330
1
100
AcDbSymbolTableRecord
100
AcDbBlockTableRecord
  2
*Model_Space
340
22
 70
     0
280
     1
281
     0
  0
BLOCK_RECORD
  5
1B
330
1
100
AcDbSymbolTableRecord
100
AcDbBlockTableRecord
  2
*Paper_Space
340
1E
 70
     0
280
     1
281
     0
  0
BLOCK_RECORD
  5
23
330
1
100
AcDbSymbolTableRecord
100
AcDbBlockTableRecord
  2
*Paper_Space0
340
26
 70
     0
280
     1
281
     0
  0
ENDTAB
  0
ENDSEC
  0
SECTION
  2
BLOCKS
  0
BLOCK
  5
20
330
1F
100
AcDbEntity
  8
0
100
AcDbBlockBegin
  2
*Model_Space
 70
     0
 10
0.0
 20
0.0
 30
0.0
  3
*Model_Space
  1

  0
ENDBLK
  5
21
330
1F
100
AcDbEntity
  8
0
100
AcDbBlockEnd
  0
BLOCK
  5
1C
330
1B
100
AcDbEntity
 67
     1
  8
0
100
AcDbBlockBegin
  2
*Paper_Space
 70
     0
 10
0.0
 20
0.0
 30
0.0
  3
*Paper_Space
  1

  0
ENDBLK
  5
1D
330
1B
100
AcDbEntity
 67
     1
  8
0
100
AcDbBlockEnd
  0
BLOCK
  5
24
330
23
100
AcDbEntity
  8
0
100
AcDbBlockBegin
  2
*Paper_Space0
 70
     0
 10
0.0
 20
0.0
 30
0.0
  3
*Paper_Space0
  1

  0
ENDBLK
  5
25
330
23
100
AcDbEntity
  8
0
100
AcDbBlockEnd
  0
ENDSEC
  0
SECTION
  2
ENTITIES
  0
LINE
  5
41
330
1F
100
AcDbEntity
  8
0
100
AcDbLine
 10
22.90139410097015
 20
-42.04782454257185
 30
0.0
 11
22.72157335484752
 21
-42.48195022665725
 31
0.0
  0
LINE
  5
42
330
1F
100
AcDbEntity
  8
0
100
AcDbLine
 10
22.72157335484752
 20
-42.48195022665725
 30
0.0
 11
22.66023984707449
 21
-42.94782447057187
 31
0.0
  0
LINE
  5
43
330
1F
100
AcDbEntity
  8
0
100
AcDbLine
 10
22.66023984707449
 20
-42.94782447057187
 30
0.0
 11
22.72157335484752
 21
-43.4136987144865
 31
0.0
  0
LINE
  5
44
330
1F
100
AcDbEntity
  8
0
100
AcDbLine
 10
22.72157335484752
 20
-43.4136987144865
 30
0.0
 11
22.90139410097015
 21
-43.8478243985719
 31
0.0
  0
LINE
  5
45
330
1F
100
AcDbEntity
  8
0
100
AcDbLine
 10
-17.79857596132339
 20
-17.28190069755672
 30
0.0
 11
-18.03975689692636
 21
-17.38180111206934
 31
0.0
  0
LINE
  5
46
330
1F
100
AcDbEntity
  8
0
100
AcDbLine
 10
-18.03975689692636
 20
-17.38180111206934
 30
0.0
 11
-18.24686366154434
 21
-17.54071972195373
 31
0.0
  0
LINE
  5
47
330
1F
100
AcDbEntity
  8
0
100
AcDbLine
 10
-20.10405201668762
 20
53.01595138221876
 30
0.0
 11
-19.94513340680314
 21
53.22305814683674
 31
0.0
  0
LINE
  5
48
330
1F
100
AcDbEntity
  8
0
100
AcDbLine
 10
-20.20395243120015
 20
52.7747704466158
 30
0.0
 11
-20.10405201668762
 21
53.01595138221876
 31
0.0
  0
LINE
  5
49
330
1F
100
AcDbEntity
  8
0
100
AcDbLine
 10
-15.67240835611825
 20
52.7747704466158
 30
0.0
 11
-15.77230877063077
 21
53.01595138221876
 31
0.0
  0
LINE
  5
4A
330
1F
100
AcDbEntity
  8
0
100
AcDbLine
 10
-16.63975700892712
 20
-11.5840434497819
 30
0.0
 11
-19.23409313235365
 21
-11.58404344978159
 31
0.0
  0
LINE
  5
4B
330
1F
100
AcDbEntity
  8
0
100
AcDbLine
 10
-16.38093798453011
 20
-11.54996927879692
 30
0.0
 11
-16.63975700892712
 21
-11.5840434497819
 31
0.0
  0
LINE
  5
4C
330
1F
100
AcDbEntity
  8
0
100
AcDbLine
 10
23.07770090449554
 20
78.43460721726501
 30
0.0
 11
22.83651996889257
 21
78.33470680275249
 31
0.0
  0
LINE
  5
4D
330
1F
100
AcDbEntity
  8
0
100
AcDbLine
 10
-86.14081699028866
 20
23.01595378221803
 30
0.0
 11
-86.79238329081491
 21
23.86509151715185
 31
0.0
  0
LINE
  5
4E
330
1F
100
AcDbEntity
  8
0
100
AcDbLine
 10
-60.89152316574814
 20
-5.584043929781966
 30
0.0
 11
-50.49152399774809
 21
-5.584043929781966
 31
0.0
  0
LINE
  5
4F
330
1F
100
AcDbEntity
  8
0
100
AcDbLine
 10
17.41888231209864
 20
78.33470680275249
 30
0.0
 11
17.67770133649565
 21
78.30063263176741
 31
0.0
  0
LINE
  5
50
330
1F
100
AcDbEntity
  8
0
100
AcDbLine
 10
-5.390755979836525
 20
78.30063263176741
 30
0.0
 11
-5.649575004233538
 21
78.33470680275249
 31
0.0
  0
LINE
  5
51
330
1F
100
AcDbEntity
  8
0
100
AcDbLine
 10
-0.2634731869934632
 20
78.33470680275249
 30
0.0
 11
-0.5222922113904753
 21
78.30063263176741
 31
0.0
  0
LINE
  5
52
330
1F
100
AcDbEntity
  8
0
100
AcDbLine
 10
-0.6495754042334694
 20
95.76655706078245
 30
0.0
 11
-0.3907563798364573
 21
95.80063123176753
 31
0.0
  0
LINE
  5
53
330
1F
100
AcDbEntity
  8
0
100
AcDbLine
 10
-0.3907563798364573
 20
95.80063123176753
 30
0.0
 11
17.57770134449549
 21
95.80063123176753
 31
0.0
  0
LINE
  5
54
330
1F
100
AcDbEntity
  8
0
100
AcDbLine
 10
26.26023955907459
 20
-42.94782447057187
 30
0.0
 11
26.19890605130156
 21
-42.48195022665725
 31
0.0
  0
LINE
  5
55
330
1F
100
AcDbEntity
  8
0
100
AcDbLine
 10
26.19890605130156
 20
-42.48195022665725
 30
0.0
 11
26.01908530517894
 21
-42.04782454257185
 31
0.0
  0
LINE
  5
56
330
1F
100
AcDbEntity
  8
0
100
AcDbLine
 10
26.01908530517894
 20
-42.04782454257185
 30
0.0
 11
25.73303180738703
 21
-41.67503236625944
 31
0.0
  0
LINE
  5
57
330
1F
100
AcDbEntity
  8
0
100
AcDbLine
 10
25.73303180738703
 20
-41.67503236625944
 30
0.0
 11
25.36023963107461
 21
-41.38897886846748
 31
0.0
  0
LINE
  5
58
330
1F
100
AcDbEntity
  8
0
100
AcDbLine
 10
25.36023963107461
 20
-41.38897886846748
 30
0.0
 11
24.92611394698916
 21
-41.20915812234482
 31
0.0
  0
LINE
  5
59
330
1F
100
AcDbEntity
  8
0
100
AcDbLine
 10
24.92611394698916
 20
-41.20915812234482
 30
0.0
 11
24.46023970307454
 21
-41.14782461457182
 31
0.0
  0
LINE
  5
5A
330
1F
100
AcDbEntity
  8
0
100
AcDbLine
 10
24.46023970307454
 20
-41.14782461457182
 30
0.0
 11
23.99436545915992
 21
-41.20915812234482
 31
0.0
  0
LINE
  5
5B
330
1F
100
AcDbEntity
  8
0
100
AcDbLine
 10
23.99436545915992
 20
-41.20915812234482
 30
0.0
 11
23.56023977507456
 21
-41.38897886846748
 31
0.0
  0
LINE
  5
5C
330
1F
100
AcDbEntity
  8
0
100
AcDbLine
 10
23.56023977507456
 20
-41.38897886846748
 30
0.0
 11
23.18744759876206
 21
-41.67503236625944
 31
0.0
  0
LINE
  5
5D
330
1F
100
AcDbEntity
  8
0
100
AcDbLine
 10
23.18744759876206
 20
-41.67503236625944
 30
0.0
 11
22.90139410097015
 21
-42.04782454257185
 31
0.0
  0
LINE
  5
5E
330
1F
100
AcDbEntity
  8
0
100
AcDbLine
 10
-0.0222922513904956
 20
78.43460721726501
 30
0.0
 11
-0.2634731869934632
 21
78.33470680275249
 31
0.0
  0
LINE
  5
5F
330
1F
100
AcDbEntity
  8
0
100
AcDbLine
 10
0.1848145132274909
 20
78.5935258271495
 30
0.0
 11
-0.0222922513904956
 21
78.43460721726501
 31
0.0
  0
LINE
  5
60
330
1F
100
AcDbEntity
  8
0
100
AcDbLine
 10
0.3437331231119766
 20
78.80063259176748
 30
0.0
 11
0.1848145132274909
 21
78.5935258271495
 31
0.0
  0
LINE
  5
61
330
1F
100
AcDbEntity
  8
0
100
AcDbLine
 10
0.4436335376245031
 20
79.04181352737045
 30
0.0
 11
0.3437331231119766
 21
78.80063259176748
 31
0.0
  0
LINE
  5
62
330
1F
100
AcDbEntity
  8
0
100
AcDbLine
 10
0.4777077086095745
 20
79.30063255176746
 30
0.0
 11
0.4436335376245031
 21
79.04181352737045
 31
0.0
  0
LINE
  5
63
330
1F
100
AcDbEntity
  8
0
100
AcDbLine
 10
20.46024002307398
 20
-18.24782644657174
 30
0.0
 11
20.42616585208891
 21
-17.98900742217473
 31
0.0
  0
LINE
  5
64
330
1F
100
AcDbEntity
  8
0
100
AcDbLine
 10
20.42616585208891
 20
-17.98900742217473
 30
0.0
 11
20.32626543757638
 21
-17.74782648657172
 31
0.0
  0
LINE
  5
65
330
1F
100
AcDbEntity
  8
0
100
AcDbLine
 10
20.32626543757638
 20
-17.74782648657172
 30
0.0
 11
20.1673468276919
 21
-17.54071972195373
 31
0.0
  0
LINE
  5
66
330
1F
100
AcDbEntity
  8
0
100
AcDbLine
 10
20.1673468276919
 20
-17.54071972195373
 30
0.0
 11
19.96024006307391
 21
-17.38180111206934
 31
0.0
  0
LINE
  5
67
330
1F
100
AcDbEntity
  8
0
100
AcDbLine
 10
19.96024006307391
 20
-17.38180111206934
 30
0.0
 11
19.71905912747094
 21
-17.28190069755672
 31
0.0
  0
LINE
  5
68
330
1F
100
AcDbEntity
  8
0
100
AcDbLine
 10
62.72021644156045
 20
54.31595127821937
 30
0.0
 11
62.72021644156045
 21
47.51595182221934
 31
0.0
  0
LINE
  5
69
330
1F
100
AcDbEntity
  8
0
100
AcDbLine
 10
62.72021644156045
 20
47.51595182221934
 30
0.0
 11
47.40794224254842
 21
47.51595182221934
 31
0.0
  0
LINE
  5
6A
330
1F
100
AcDbEntity
  8
0
100
AcDbLine
 10
89.60793886654866
 20
47.51595182221971
 30
0.0
 11
82.6079394265485
 21
47.51595182221971
 31
0.0
  0
LINE
  5
6B
330
1F
100
AcDbEntity
  8
0
100
AcDbLine
 10
82.6079394265485
 20
47.51595182221971
 30
0.0
 11
82.6079394265485
 21
54.31595127821974
 31
0.0
  0
LINE
  5
6C
330
1F
100
AcDbEntity
  8
0
100
AcDbLine
 10
82.6079394265485
 20
54.31595127821974
 30
0.0
 11
89.60793886654866
 21
54.31595127821974
 31
0.0
  0
LINE
  5
6D
330
1F
100
AcDbEntity
  8
0
100
AcDbLine
 10
19.71905912747094
 20
-17.28190069755672
 30
0.0
 11
19.46024010307393
 21
-17.24782652657174
 31
0.0
  0
LINE
  5
6E
330
1F
100
AcDbEntity
  8
0
100
AcDbLine
 10
11.46024074307389
 20
-17.24782652657174
 30
0.0
 11
19.46024010307393
 21
-17.24782652657174
 31
0.0
  0
LINE
  5
6F
330
1F
100
AcDbEntity
  8
0
100
AcDbLine
 10
10.96024078307391
 20
-17.38180111206934
 30
0.0
 11
10.75313401845593
 21
-17.54071972195373
 31
0.0
  0
LINE
  5
70
330
1F
100
AcDbEntity
  8
0
100
AcDbLine
 10
10.75313401845593
 20
-17.54071972195373
 30
0.0
 11
10.59421540857144
 21
-17.74782648657172
 31
0.0
  0
LINE
  5
71
330
1F
100
AcDbEntity
  8
0
100
AcDbLine
 10
10.59421540857144
 20
-17.74782648657172
 30
0.0
 11
10.49431499405891
 21
-17.98900742217473
 31
0.0
  0
LINE
  5
72
330
1F
100
AcDbEntity
  8
0
100
AcDbLine
 10
10.49431499405891
 20
-17.98900742217473
 30
0.0
 11
10.46024082307384
 21
-18.24782644657174
 31
0.0
  0
LINE
  5
73
330
1F
100
AcDbEntity
  8
0
100
AcDbLine
 10
10.46024082307384
 20
-18.24782644657174
 30
0.0
 11
10.46024082307384
 21
-23.84782599857177
 31
0.0
  0
LINE
  5
74
330
1F
100
AcDbEntity
  8
0
100
AcDbLine
 10
-8.53975765692629
 20
-18.24782644657174
 30
0.0
 11
-8.573831827911361
 21
-17.98900742217473
 31
0.0
  0
LINE
  5
75
330
1F
100
AcDbEntity
  8
0
100
AcDbLine
 10
89.60793886654866
 20
54.31595127821974
 30
0.0
 11
89.60793886654866
 21
47.51595182221971
 31
0.0
  0
LINE
  5
76
330
1F
100
AcDbEntity
  8
0
100
AcDbLine
 10
87.8713132221702
 20
-0.5966110233758798
 30
0.0
 11
87.68104689830989
 21
-1.026261272210232
 31
0.0
  0
LINE
  5
77
330
1F
100
AcDbEntity
  8
0
100
AcDbLine
 10
88.16629804539127
 20
-0.2308453000119
 30
0.0
 11
87.8713132221702
 21
-0.5966110233758798
 31
0.0
  0
LINE
  5
78
330
1F
100
AcDbEntity
  8
0
100
AcDbLine
 10
88.54589863975617
 20
0.0461095682908284
 30
0.0
 11
88.16629804539127
 21
-0.2308453000119
 31
0.0
  0
LINE
  5
79
330
1F
100
AcDbEntity
  8
0
100
AcDbLine
 10
82.6079394265485
 20
-12.18404340178051
 30
0.0
 11
89.60793886654866
 21
-12.18404340178051
 31
0.0
  0
LINE
  5
7A
330
1F
100
AcDbEntity
  8
0
100
AcDbLine
 10
82.6079394265485
 20
-5.584043929780477
 30
0.0
 11
82.6079394265485
 21
-12.18404340178051
 31
0.0
  0
LINE
  5
7B
330
1F
100
AcDbEntity
  8
0
100
AcDbLine
 10
89.60793886654866
 20
-5.584043929780477
 30
0.0
 11
82.6079394265485
 21
-5.584043929780477
 31
0.0
  0
LINE
  5
7C
330
1F
100
AcDbEntity
  8
0
100
AcDbLine
 10
47.40794224254887
 20
-5.584043929780792
 30
0.0
 11
47.40794224254887
 21
-12.38404338578082
 31
0.0
  0
LINE
  5
7D
330
1F
100
AcDbEntity
  8
0
100
AcDbLine
 10
62.72021644156118
 20
-5.584043929780792
 30
0.0
 11
47.40794224254887
 21
-5.584043929780792
 31
0.0
  0
LINE
  5
7E
330
1F
100
AcDbEntity
  8
0
100
AcDbLine
 10
62.72021644156118
 20
-12.38404338578082
 30
0.0
 11
62.72021644156118
 21
-5.584043929780792
 31
0.0
  0
LINE
  5
7F
330
1F
100
AcDbEntity
  8
0
100
AcDbLine
 10
-46.75721201892674
 20
45.00447747563606
 30
0.0
 11
-47.18724759185187
 21
45.19387128846463
 31
0.0
  0
LINE
  5
80
330
1F
100
AcDbEntity
  8
0
100
AcDbLine
 10
-47.18724759185187
 20
45.19387128846463
 30
0.0
 11
-47.6516487837478
 21
45.26551026727061
 31
0.0
  0
LINE
  5
81
330
1F
100
AcDbEntity
  8
0
100
AcDbLine
 10
-47.6516487837478
 20
45.26551026727061
 30
0.0
 11
-48.11876742084616
 21
45.21451233403723
 31
0.0
  0
LINE
  5
82
330
1F
100
AcDbEntity
  8
0
100
AcDbLine
 10
-48.11876742084616
 20
45.21451233403723
 30
0.0
 11
-48.55677013997892
 21
45.04435291363643
 31
0.0
  0
LINE
  5
83
330
1F
100
AcDbEntity
  8
0
100
AcDbLine
 10
-48.55677013997892
 20
45.04435291363643
 30
0.0
 11
-48.93580777967049
 21
44.76662808936663
 31
0.0
  0
LINE
  5
84
330
1F
100
AcDbEntity
  8
0
100
AcDbLine
 10
-48.93580777967049
 20
44.76662808936663
 30
0.0
 11
-49.23004955116561
 21
44.40026434903995
 31
0.0
  0
LINE
  5
85
330
1F
100
AcDbEntity
  8
0
100
AcDbLine
 10
-49.23004955116561
 20
44.40026434903995
 30
0.0
 11
-49.41944336399437
 21
43.9702287761149
 31
0.0
  0
LINE
  5
86
330
1F
100
AcDbEntity
  8
0
100
AcDbLine
 10
-49.41944336399437
 20
43.9702287761149
 30
0.0
 11
-49.49108234280026
 21
43.5058275842189
 31
0.0
  0
LINE
  5
87
330
1F
100
AcDbEntity
  8
0
100
AcDbLine
 10
17.02626570157558
 20
53.01595138221903
 30
0.0
 11
16.86734709169109
 21
53.2230581468371
 31
0.0
  0
LINE
  5
88
330
1F
100
AcDbEntity
  8
0
100
AcDbLine
 10
-9.280938552529328
 20
-17.28190069755672
 30
0.0
 11
-9.53975757692634
 21
-17.24782652657174
 31
0.0
  0
LINE
  5
89
330
1F
100
AcDbEntity
  8
0
100
AcDbLine
 10
23.46023978307323
 20
-47.44782411057192
 30
0.0
 11
28.46023938307401
 21
-47.44782411057192
 31
0.0
  0
LINE
  5
8A
330
1F
100
AcDbEntity
  8
0
100
AcDbLine
 10
-4.42748256191331
 20
-54.04782358257196
 30
0.0
 11
-17.33975695292615
 21
-54.04782358257196
 31
0.0
  0
LINE
  5
8B
330
1F
100
AcDbEntity
  8
0
100
AcDbLine
 10
-4.168663537516299
 20
-54.01374941158697
 30
0.0
 11
-4.42748256191331
 21
-54.04782358257196
 31
0.0
  0
LINE
  5
8C
330
1F
100
AcDbEntity
  8
0
100
AcDbLine
 10
-3.927482601913331
 20
-53.91384899707435
 30
0.0
 11
-4.168663537516299
 21
-54.01374941158697
 31
0.0
  0
LINE
  5
8D
330
1F
100
AcDbEntity
  8
0
100
AcDbLine
 10
-3.720375837295344
 20
-53.75493038718996
 30
0.0
 11
-3.927482601913331
 21
-53.91384899707435
 31
0.0
  0
LINE
  5
8E
330
1F
100
AcDbEntity
  8
0
100
AcDbLine
 10
-3.561457227410859
 20
-53.54782362257198
 30
0.0
 11
-3.720375837295344
 21
-53.75493038718996
 31
0.0
  0
LINE
  5
8F
330
1F
100
AcDbEntity
  8
0
100
AcDbLine
 10
-3.461556812898333
 20
-53.30664268696896
 30
0.0
 11
-3.561457227410859
 21
-53.54782362257198
 31
0.0
  0
LINE
  5
90
330
1F
100
AcDbEntity
  8
0
100
AcDbLine
 10
-3.427482641913261
 20
-53.04782366257195
 30
0.0
 11
-3.461556812898333
 21
-53.30664268696896
 31
0.0
  0
LINE
  5
91
330
1F
100
AcDbEntity
  8
0
100
AcDbLine
 10
-3.427482641913261
 20
-53.04782366257195
 30
0.0
 11
-3.427482641913261
 21
-38.44782483057183
 31
0.0
  0
LINE
  5
92
330
1F
100
AcDbEntity
  8
0
100
AcDbLine
 10
-3.427482641913261
 20
-38.44782483057183
 30
0.0
 11
-6.139757848926369
 21
-38.44782483057183
 31
0.0
  0
LINE
  5
93
330
1F
100
AcDbEntity
  8
0
100
AcDbLine
 10
-6.139757848926369
 20
-38.44782483057183
 30
0.0
 11
-6.139757848926369
 21
-31.8478253585718
 31
0.0
  0
LINE
  5
94
330
1F
100
AcDbEntity
  8
0
100
AcDbLine
 10
-6.139757848926369
 20
-31.8478253585718
 30
0.0
 11
17.36024027107394
 21
-31.8478253585718
 31
0.0
  0
LINE
  5
95
330
1F
100
AcDbEntity
  8
0
100
AcDbLine
 10
17.36024027107394
 20
-31.8478253585718
 30
0.0
 11
17.36024027107394
 21
-38.44782483057183
 31
0.0
  0
LINE
  5
96
330
1F
100
AcDbEntity
  8
0
100
AcDbLine
 10
17.36024027107394
 20
-38.44782483057183
 30
0.0
 11
11.57770432255513
 21
-38.44782483057183
 31
0.0
  0
LINE
  5
97
330
1F
100
AcDbEntity
  8
0
100
AcDbLine
 10
11.57770432255513
 20
-47.44782411057188
 30
0.0
 11
11.57770432255513
 21
-38.44782483057183
 31
0.0
  0
LINE
  5
98
330
1F
100
AcDbEntity
  8
0
100
AcDbLine
 10
16.86024031107315
 20
-47.44782411057192
 30
0.0
 11
11.57770432255513
 21
-47.44782411057188
 31
0.0
  0
LINE
  5
99
330
1F
100
AcDbEntity
  8
0
100
AcDbLine
 10
16.86024031107315
 20
-53.04782366257195
 30
0.0
 11
16.86024031107315
 21
-47.44782411057192
 31
0.0
  0
LINE
  5
9A
330
1F
100
AcDbEntity
  8
0
100
AcDbLine
 10
16.86024031107315
 20
-53.04782366257195
 30
0.0
 11
16.89431448205822
 21
-53.30664268696896
 31
0.0
  0
LINE
  5
9B
330
1F
100
AcDbEntity
  8
0
100
AcDbLine
 10
16.89431448205822
 20
-53.30664268696896
 30
0.0
 11
16.99421489657075
 21
-53.54782362257198
 31
0.0
  0
LINE
  5
9C
330
1F
100
AcDbEntity
  8
0
100
AcDbLine
 10
16.99421489657075
 20
-53.54782362257198
 30
0.0
 11
17.15313350645523
 21
-53.75493038718996
 31
0.0
  0
LINE
  5
9D
330
1F
100
AcDbEntity
  8
0
100
AcDbLine
 10
17.15313350645523
 20
-53.75493038718996
 30
0.0
 11
17.36024027107322
 21
-53.91384899707435
 31
0.0
  0
LINE
  5
9E
330
1F
100
AcDbEntity
  8
0
100
AcDbLine
 10
17.36024027107322
 20
-53.91384899707435
 30
0.0
 11
17.60142120667619
 21
-54.01374941158697
 31
0.0
  0
LINE
  5
9F
330
1F
100
AcDbEntity
  8
0
100
AcDbLine
 10
17.60142120667619
 20
-54.01374941158697
 30
0.0
 11
17.8602402310732
 21
-54.04782358257196
 31
0.0
  0
LINE
  5
A0
330
1F
100
AcDbEntity
  8
0
100
AcDbLine
 10
22.46023986307318
 20
-54.04782358257196
 30
0.0
 11
17.8602402310732
 21
-54.04782358257196
 31
0.0
  0
LINE
  5
A1
330
1F
100
AcDbEntity
  8
0
100
AcDbLine
 10
22.46023986307318
 20
-54.04782358257196
 30
0.0
 11
22.71905888747019
 21
-54.01374941158697
 31
0.0
  0
LINE
  5
A2
330
1F
100
AcDbEntity
  8
0
100
AcDbLine
 10
22.71905888747019
 20
-54.01374941158697
 30
0.0
 11
22.96023982307316
 21
-53.91384899707435
 31
0.0
  0
LINE
  5
A3
330
1F
100
AcDbEntity
  8
0
100
AcDbLine
 10
22.96023982307316
 20
-53.91384899707435
 30
0.0
 11
23.16734658769115
 21
-53.75493038718996
 31
0.0
  0
LINE
  5
A4
330
1F
100
AcDbEntity
  8
0
100
AcDbLine
 10
23.16734658769115
 20
-53.75493038718996
 30
0.0
 11
23.32626519757563
 21
-53.54782362257198
 31
0.0
  0
LINE
  5
A5
330
1F
100
AcDbEntity
  8
0
100
AcDbLine
 10
23.32626519757563
 20
-53.54782362257198
 30
0.0
 11
23.42616561208816
 21
-53.30664268696896
 31
0.0
  0
LINE
  5
A6
330
1F
100
AcDbEntity
  8
0
100
AcDbLine
 10
23.42616561208816
 20
-53.30664268696896
 30
0.0
 11
23.46023978307323
 21
-53.04782366257195
 31
0.0
  0
LINE
  5
A7
330
1F
100
AcDbEntity
  8
0
100
AcDbLine
 10
23.46023978307323
 20
-53.04782366257195
 30
0.0
 11
23.46023978307323
 21
-47.44782411057192
 31
0.0
  0
LINE
  5
A8
330
1F
100
AcDbEntity
  8
0
100
AcDbLine
 10
28.46023938307393
 20
-23.84782599857177
 30
0.0
 11
28.46023938307401
 21
-47.44782411057192
 31
0.0
  0
LINE
  5
A9
330
1F
100
AcDbEntity
  8
0
100
AcDbLine
 10
28.46023938307393
 20
-23.84782599857177
 30
0.0
 11
20.46024002307398
 21
-23.84782599857177
 31
0.0
  0
LINE
  5
AA
330
1F
100
AcDbEntity
  8
0
100
AcDbLine
 10
20.46024002307398
 20
-18.24782644657174
 30
0.0
 11
20.46024002307398
 21
-23.84782599857177
 31
0.0
  0
LINE
  5
AB
330
1F
100
AcDbEntity
  8
0
100
AcDbLine
 10
11.46024074307389
 20
-17.24782652657174
 30
0.0
 11
11.20142171867688
 21
-17.28190069755672
 31
0.0
  0
LINE
  5
AC
330
1F
100
AcDbEntity
  8
0
100
AcDbLine
 10
11.20142171867688
 20
-17.28190069755672
 30
0.0
 11
10.96024078307391
 21
-17.38180111206934
 31
0.0
  0
LINE
  5
AD
330
1F
100
AcDbEntity
  8
0
100
AcDbLine
 10
10.46024082307384
 20
-23.84782599857177
 30
0.0
 11
-8.53975765692629
 21
-23.84782599857177
 31
0.0
  0
LINE
  5
AE
330
1F
100
AcDbEntity
  8
0
100
AcDbLine
 10
-8.53975765692629
 20
-23.84782599857177
 30
0.0
 11
-8.53975765692629
 21
-18.24782644657174
 31
0.0
  0
LINE
  5
AF
330
1F
100
AcDbEntity
  8
0
100
AcDbLine
 10
-8.573831827911361
 20
-17.98900742217473
 30
0.0
 11
-8.673732242423887
 21
-17.74782648657172
 31
0.0
  0
LINE
  5
B0
330
1F
100
AcDbEntity
  8
0
100
AcDbLine
 10
-8.673732242423887
 20
-17.74782648657172
 30
0.0
 11
-8.832650852308372
 21
-17.54071972195373
 31
0.0
  0
LINE
  5
B1
330
1F
100
AcDbEntity
  8
0
100
AcDbLine
 10
-8.832650852308372
 20
-17.54071972195373
 30
0.0
 11
-9.039757616926359
 21
-17.38180111206934
 31
0.0
  0
LINE
  5
B2
330
1F
100
AcDbEntity
  8
0
100
AcDbLine
 10
-9.039757616926359
 20
-17.38180111206934
 30
0.0
 11
-9.280938552529328
 21
-17.28190069755672
 31
0.0
  0
LINE
  5
B3
330
1F
100
AcDbEntity
  8
0
100
AcDbLine
 10
-17.53975693692638
 20
-17.24782652657174
 30
0.0
 11
-9.53975757692634
 21
-17.24782652657174
 31
0.0
  0
LINE
  5
B4
330
1F
100
AcDbEntity
  8
0
100
AcDbLine
 10
-17.53975693692638
 20
-17.24782652657174
 30
0.0
 11
-17.79857596132339
 21
-17.28190069755672
 31
0.0
  0
LINE
  5
B5
330
1F
100
AcDbEntity
  8
0
100
AcDbLine
 10
-18.24686366154434
 20
-17.54071972195373
 30
0.0
 11
-18.40578227142883
 21
-17.74782648657172
 31
0.0
  0
LINE
  5
B6
330
1F
100
AcDbEntity
  8
0
100
AcDbLine
 10
-18.40578227142883
 20
-17.74782648657172
 30
0.0
 11
-18.50568268594136
 21
-17.98900742217473
 31
0.0
  0
LINE
  5
B7
330
1F
100
AcDbEntity
  8
0
100
AcDbLine
 10
-18.50568268594136
 20
-17.98900742217473
 30
0.0
 11
-18.53975685692643
 21
-18.24782644657174
 31
0.0
  0
LINE
  5
B8
330
1F
100
AcDbEntity
  8
0
100
AcDbLine
 10
-18.53975685692643
 20
-18.24782644657174
 30
0.0
 11
-18.53975685692643
 21
-23.84782599857177
 31
0.0
  0
LINE
  5
B9
330
1F
100
AcDbEntity
  8
0
100
AcDbLine
 10
-18.53975685692643
 20
-23.84782599857177
 30
0.0
 11
-26.53975621692646
 21
-23.84782599857177
 31
0.0
  0
LINE
  5
BA
330
1F
100
AcDbEntity
  8
0
100
AcDbLine
 10
-26.53975621692628
 20
-47.44782411057188
 30
0.0
 11
-26.53975621692646
 21
-23.84782599857177
 31
0.0
  0
LINE
  5
BB
330
1F
100
AcDbEntity
  8
0
100
AcDbLine
 10
-18.3397568729262
 20
-47.44782411057188
 30
0.0
 11
-26.53975621692628
 21
-47.44782411057188
 31
0.0
  0
LINE
  5
BC
330
1F
100
AcDbEntity
  8
0
100
AcDbLine
 10
-18.3397568729262
 20
-47.44782411057188
 30
0.0
 11
-18.3397568729262
 21
-53.04782366257195
 31
0.0
  0
LINE
  5
BD
330
1F
100
AcDbEntity
  8
0
100
AcDbLine
 10
-18.3397568729262
 20
-53.04782366257195
 30
0.0
 11
-18.30568270194113
 21
-53.30664268696896
 31
0.0
  0
LINE
  5
BE
330
1F
100
AcDbEntity
  8
0
100
AcDbLine
 10
-18.30568270194113
 20
-53.30664268696896
 30
0.0
 11
-18.2057822874286
 21
-53.54782362257198
 31
0.0
  0
LINE
  5
BF
330
1F
100
AcDbEntity
  8
0
100
AcDbLine
 10
-18.2057822874286
 20
-53.54782362257198
 30
0.0
 11
-18.04686367754411
 21
-53.75493038718996
 31
0.0
  0
LINE
  5
C0
330
1F
100
AcDbEntity
  8
0
100
AcDbLine
 10
-18.04686367754411
 20
-53.75493038718996
 30
0.0
 11
-17.83975691292613
 21
-53.91384899707435
 31
0.0
  0
LINE
  5
C1
330
1F
100
AcDbEntity
  8
0
100
AcDbLine
 10
-17.83975691292613
 20
-53.91384899707435
 30
0.0
 11
-17.59857597732316
 21
-54.01374941158697
 31
0.0
  0
LINE
  5
C2
330
1F
100
AcDbEntity
  8
0
100
AcDbLine
 10
-17.59857597732316
 20
-54.01374941158697
 30
0.0
 11
-17.33975695292615
 21
-54.04782358257196
 31
0.0
  0
LINE
  5
C3
330
1F
100
AcDbEntity
  8
0
100
AcDbLine
 10
-8.722294053446161
 20
-39.13731299876124
 30
0.0
 11
-13.12229370144618
 21
-39.13731299876124
 31
0.0
  0
LINE
  5
C4
330
1F
100
AcDbEntity
  8
0
100
AcDbLine
 10
-6.522294229446197
 20
-42.94782447057187
 30
0.0
 11
-8.722294053446161
 21
-39.13731299876124
 31
0.0
  0
LINE
  5
C5
330
1F
100
AcDbEntity
  8
0
100
AcDbLine
 10
-8.722294053446252
 20
-46.75833594238252
 30
0.0
 11
-6.522294229446197
 21
-42.94782447057187
 31
0.0
  0
LINE
  5
C6
330
1F
100
AcDbEntity
  8
0
100
AcDbLine
 10
-13.12229370144627
 20
-46.75833594238252
 30
0.0
 11
-8.722294053446252
 21
-46.75833594238252
 31
0.0
  0
LINE
  5
C7
330
1F
100
AcDbEntity
  8
0
100
AcDbLine
 10
-15.32229352544624
 20
-42.94782447057187
 30
0.0
 11
-13.12229370144627
 21
-46.75833594238252
 31
0.0
  0
LINE
  5
C8
330
1F
100
AcDbEntity
  8
0
100
AcDbLine
 10
-13.12229370144618
 20
-39.13731299876124
 30
0.0
 11
-15.32229352544624
 21
-42.94782447057187
 31
0.0
  0
LINE
  5
C9
330
1F
100
AcDbEntity
  8
0
100
AcDbLine
 10
-15.4345652275671
 20
-38.44782483057183
 30
0.0
 11
-15.43975710492639
 21
-31.8478253585718
 31
0.0
  0
LINE
  5
CA
330
1F
100
AcDbEntity
  8
0
100
AcDbLine
 10
-20.43456328052971
 20
-38.45175806977862
 30
0.0
 11
-15.4345652275671
 21
-38.44782483057183
 31
0.0
  0
LINE
  5
CB
330
1F
100
AcDbEntity
  8
0
100
AcDbLine
 10
-20.43975515628266
 20
-31.85176063986798
 30
0.0
 11
-20.43456328052971
 21
-38.45175806977862
 31
0.0
  0
LINE
  5
CC
330
1F
100
AcDbEntity
  8
0
100
AcDbLine
 10
-15.43975710492639
 20
-31.8478253585718
 30
0.0
 11
-20.43975515628266
 21
-31.85176063986798
 31
0.0
  0
LINE
  5
CD
330
1F
100
AcDbEntity
  8
0
100
AcDbLine
 10
24.46023970307454
 20
-44.74782432657193
 30
0.0
 11
24.92611394698916
 21
-44.68649081879894
 31
0.0
  0
LINE
  5
CE
330
1F
100
AcDbEntity
  8
0
100
AcDbLine
 10
23.99436545915992
 20
-44.68649081879894
 30
0.0
 11
24.46023970307454
 21
-44.74782432657193
 31
0.0
  0
LINE
  5
CF
330
1F
100
AcDbEntity
  8
0
100
AcDbLine
 10
23.56023977507447
 20
-44.50667007267627
 30
0.0
 11
23.99436545915992
 21
-44.68649081879894
 31
0.0
  0
LINE
  5
D0
330
1F
100
AcDbEntity
  8
0
100
AcDbLine
 10
23.18744759876206
 20
-44.22061657488432
 30
0.0
 11
23.56023977507447
 21
-44.50667007267627
 31
0.0
  0
LINE
  5
D1
330
1F
100
AcDbEntity
  8
0
100
AcDbLine
 10
22.90139410097015
 20
-43.8478243985719
 30
0.0
 11
23.18744759876206
 21
-44.22061657488432
 31
0.0
  0
LINE
  5
D2
330
1F
100
AcDbEntity
  8
0
100
AcDbLine
 10
26.19890605130156
 20
-43.4136987144865
 30
0.0
 11
26.26023955907459
 21
-42.94782447057187
 31
0.0
  0
LINE
  5
D3
330
1F
100
AcDbEntity
  8
0
100
AcDbLine
 10
26.01908530517894
 20
-43.8478243985719
 30
0.0
 11
26.19890605130156
 21
-43.4136987144865
 31
0.0
  0
LINE
  5
D4
330
1F
100
AcDbEntity
  8
0
100
AcDbLine
 10
25.73303180738703
 20
-44.22061657488432
 30
0.0
 11
26.01908530517894
 21
-43.8478243985719
 31
0.0
  0
LINE
  5
D5
330
1F
100
AcDbEntity
  8
0
100
AcDbLine
 10
25.36023963107452
 20
-44.50667007267627
 30
0.0
 11
25.73303180738703
 21
-44.22061657488432
 31
0.0
  0
LINE
  5
D6
330
1F
100
AcDbEntity
  8
0
100
AcDbLine
 10
24.92611394698916
 20
-44.68649081879894
 30
0.0
 11
25.36023963107452
 21
-44.50667007267627
 31
0.0
  0
LINE
  5
D7
330
1F
100
AcDbEntity
  8
0
100
AcDbLine
 10
-22.07388229301119
 20
-41.20915812234482
 30
0.0
 11
-22.53975653692581
 21
-41.14782461457182
 31
0.0
  0
LINE
  5
D8
330
1F
100
AcDbEntity
  8
0
100
AcDbLine
 10
-21.63975660892574
 20
-41.38897886846748
 30
0.0
 11
-22.07388229301119
 21
-41.20915812234482
 31
0.0
  0
LINE
  5
D9
330
1F
100
AcDbEntity
  8
0
100
AcDbLine
 10
-21.26696443261333
 20
-41.67503236625944
 30
0.0
 11
-21.63975660892574
 21
-41.38897886846748
 31
0.0
  0
LINE
  5
DA
330
1F
100
AcDbEntity
  8
0
100
AcDbLine
 10
-20.98091093482142
 20
-42.04782454257185
 30
0.0
 11
-21.26696443261333
 21
-41.67503236625944
 31
0.0
  0
LINE
  5
DB
330
1F
100
AcDbEntity
  8
0
100
AcDbLine
 10
-20.8010901886988
 20
-42.48195022665725
 30
0.0
 11
-20.98091093482142
 21
-42.04782454257185
 31
0.0
  0
LINE
  5
DC
330
1F
100
AcDbEntity
  8
0
100
AcDbLine
 10
-20.73975668092576
 20
-42.94782447057187
 30
0.0
 11
-20.8010901886988
 21
-42.48195022665725
 31
0.0
  0
LINE
  5
DD
330
1F
100
AcDbEntity
  8
0
100
AcDbLine
 10
-20.8010901886988
 20
-43.4136987144865
 30
0.0
 11
-20.73975668092576
 21
-42.94782447057187
 31
0.0
  0
LINE
  5
DE
330
1F
100
AcDbEntity
  8
0
100
AcDbLine
 10
-20.98091093482142
 20
-43.8478243985719
 30
0.0
 11
-20.8010901886988
 21
-43.4136987144865
 31
0.0
  0
LINE
  5
DF
330
1F
100
AcDbEntity
  8
0
100
AcDbLine
 10
-21.26696443261333
 20
-44.22061657488432
 30
0.0
 11
-20.98091093482142
 21
-43.8478243985719
 31
0.0
  0
LINE
  5
E0
330
1F
100
AcDbEntity
  8
0
100
AcDbLine
 10
-21.63975660892583
 20
-44.50667007267627
 30
0.0
 11
-21.26696443261333
 21
-44.22061657488432
 31
0.0
  0
LINE
  5
E1
330
1F
100
AcDbEntity
  8
0
100
AcDbLine
 10
-22.07388229301119
 20
-44.68649081879894
 30
0.0
 11
-21.63975660892583
 21
-44.50667007267627
 31
0.0
  0
LINE
  5
E2
330
1F
100
AcDbEntity
  8
0
100
AcDbLine
 10
-22.53975653692581
 20
-44.74782432657193
 30
0.0
 11
-22.07388229301119
 21
-44.68649081879894
 31
0.0
  0
LINE
  5
E3
330
1F
100
AcDbEntity
  8
0
100
AcDbLine
 10
-23.00563078084044
 20
-44.68649081879894
 30
0.0
 11
-22.53975653692581
 21
-44.74782432657193
 31
0.0
  0
LINE
  5
E4
330
1F
100
AcDbEntity
  8
0
100
AcDbLine
 10
-23.43975646492589
 20
-44.50667007267627
 30
0.0
 11
-23.00563078084044
 21
-44.68649081879894
 31
0.0
  0
LINE
  5
E5
330
1F
100
AcDbEntity
  8
0
100
AcDbLine
 10
-23.8125486412383
 20
-44.22061657488432
 30
0.0
 11
-23.43975646492589
 21
-44.50667007267627
 31
0.0
  0
LINE
  5
E6
330
1F
100
AcDbEntity
  8
0
100
AcDbLine
 10
-24.09860213903021
 20
-43.8478243985719
 30
0.0
 11
-23.8125486412383
 21
-44.22061657488432
 31
0.0
  0
LINE
  5
E7
330
1F
100
AcDbEntity
  8
0
100
AcDbLine
 10
-24.27842288515283
 20
-43.4136987144865
 30
0.0
 11
-24.09860213903021
 21
-43.8478243985719
 31
0.0
  0
LINE
  5
E8
330
1F
100
AcDbEntity
  8
0
100
AcDbLine
 10
-24.33975639292587
 20
-42.94782447057187
 30
0.0
 11
-24.27842288515283
 21
-43.4136987144865
 31
0.0
  0
LINE
  5
E9
330
1F
100
AcDbEntity
  8
0
100
AcDbLine
 10
-24.27842288515283
 20
-42.48195022665725
 30
0.0
 11
-24.33975639292587
 21
-42.94782447057187
 31
0.0
  0
LINE
  5
EA
330
1F
100
AcDbEntity
  8
0
100
AcDbLine
 10
-24.09860213903021
 20
-42.04782454257185
 30
0.0
 11
-24.27842288515283
 21
-42.48195022665725
 31
0.0
  0
LINE
  5
EB
330
1F
100
AcDbEntity
  8
0
100
AcDbLine
 10
-23.8125486412383
 20
-41.67503236625944
 30
0.0
 11
-24.09860213903021
 21
-42.04782454257185
 31
0.0
  0
LINE
  5
EC
330
1F
100
AcDbEntity
  8
0
100
AcDbLine
 10
-23.4397564649258
 20
-41.38897886846748
 30
0.0
 11
-23.8125486412383
 21
-41.67503236625944
 31
0.0
  0
LINE
  5
ED
330
1F
100
AcDbEntity
  8
0
100
AcDbLine
 10
-23.00563078084044
 20
-41.20915812234482
 30
0.0
 11
-23.4397564649258
 21
-41.38897886846748
 31
0.0
  0
LINE
  5
EE
330
1F
100
AcDbEntity
  8
0
100
AcDbLine
 10
-22.53975653692581
 20
-41.14782461457182
 30
0.0
 11
-23.00563078084044
 21
-41.20915812234482
 31
0.0
  0
LINE
  5
EF
330
1F
100
AcDbEntity
  8
0
100
AcDbLine
 10
-72.7425202886575
 20
32.81595299821807
 30
0.0
 11
-52.37406275632527
 21
32.81595299821844
 31
0.0
  0
LINE
  5
F0
330
1F
100
AcDbEntity
  8
0
100
AcDbLine
 10
-0.2634731869932827
 20
57.63013579202347
 30
0.0
 11
-0.5222922113902949
 21
57.59606162103841
 31
0.0
  0
LINE
  5
F1
330
1F
100
AcDbEntity
  8
0
100
AcDbLine
 10
-0.0222922513903151
 20
57.730036206536
 30
0.0
 11
-0.2634731869932827
 21
57.63013579202347
 31
0.0
  0
LINE
  5
F2
330
1F
100
AcDbEntity
  8
0
100
AcDbLine
 10
0.1848145132276714
 20
57.88895481642049
 30
0.0
 11
-0.0222922513903151
 21
57.730036206536
 31
0.0
  0
LINE
  5
F3
330
1F
100
AcDbEntity
  8
0
100
AcDbLine
 10
0.3437331231121571
 20
58.09606158103848
 30
0.0
 11
0.1848145132276714
 21
57.88895481642049
 31
0.0
  0
LINE
  5
F4
330
1F
100
AcDbEntity
  8
0
100
AcDbLine
 10
0.4436335376246835
 20
58.33724251664144
 30
0.0
 11
0.3437331231121571
 21
58.09606158103848
 31
0.0
  0
LINE
  5
F5
330
1F
100
AcDbEntity
  8
0
100
AcDbLine
 10
0.477707708609755
 20
58.59606154103845
 30
0.0
 11
0.4436335376246835
 21
58.33724251664144
 31
0.0
  0
LINE
  5
F6
330
1F
100
AcDbEntity
  8
0
100
AcDbLine
 10
45.84909664044358
 20
36.51595270221942
 30
0.0
 11
46.13515013823549
 21
36.14316052590692
 31
0.0
  0
LINE
  5
F7
330
1F
100
AcDbEntity
  8
0
100
AcDbLine
 10
45.66927589432095
 20
36.95007838630479
 30
0.0
 11
45.84909664044358
 21
36.51595270221942
 31
0.0
  0
LINE
  5
F8
330
1F
100
AcDbEntity
  8
0
100
AcDbLine
 10
45.60794238654792
 20
37.41595263021941
 30
0.0
 11
45.66927589432095
 21
36.95007838630479
 31
0.0
  0
LINE
  5
F9
330
1F
100
AcDbEntity
  8
0
100
AcDbLine
 10
45.66927589432095
 20
37.88182687413403
 30
0.0
 11
45.60794238654792
 21
37.41595263021941
 31
0.0
  0
LINE
  5
FA
330
1F
100
AcDbEntity
  8
0
100
AcDbLine
 10
89.83163191301874
 20
-3.283468072507924
 30
0.0
 11
90.26997912534105
 21
-3.114198075851677
 31
0.0
  0
LINE
  5
FB
330
1F
100
AcDbEntity
  8
0
100
AcDbLine
 10
89.36441072085573
 20
-3.333517726977455
 30
0.0
 11
89.83163191301874
 21
-3.283468072507924
 31
0.0
  0
LINE
  5
FC
330
1F
100
AcDbEntity
  8
0
100
AcDbLine
 10
88.90015590097842
 20
-3.260936238019112
 30
0.0
 11
89.36441072085573
 21
-3.333517726977455
 31
0.0
  0
LINE
  5
FD
330
1F
100
AcDbEntity
  8
0
100
AcDbLine
 10
88.47050565214403
 20
-3.070669914158827
 30
0.0
 11
88.90015590097842
 21
-3.260936238019112
 31
0.0
  0
LINE
  5
FE
330
1F
100
AcDbEntity
  8
0
100
AcDbLine
 10
88.10473992878009
 20
-2.775685090937777
 30
0.0
 11
88.47050565214403
 21
-3.070669914158827
 31
0.0
  0
LINE
  5
FF
330
1F
100
AcDbEntity
  8
0
100
AcDbLine
 10
48.3079421705484
 20
2.957109660113663
 30
0.0
 11
48.6807343468609
 21
3.24316315790562
 31
0.0
  0
LINE
  5
100
330
1F
100
AcDbEntity
  8
0
100
AcDbLine
 10
47.87381648646304
 20
2.777288913990998
 30
0.0
 11
48.3079421705484
 21
2.957109660113663
 31
0.0
  0
LINE
  5
101
330
1F
100
AcDbEntity
  8
0
100
AcDbLine
 10
47.40794224254842
 20
2.715955406218005
 30
0.0
 11
47.87381648646304
 21
2.777288913990998
 31
0.0
  0
LINE
  5
102
330
1F
100
AcDbEntity
  8
0
100
AcDbLine
 10
46.9420679986338
 20
2.777288913990998
 30
0.0
 11
47.40794224254842
 21
2.715955406218005
 31
0.0
  0
LINE
  5
103
330
1F
100
AcDbEntity
  8
0
100
AcDbLine
 10
-81.52371256155719
 20
-43.32275352059939
 30
0.0
 11
-81.82341380509494
 21
-44.04629632740843
 31
0.0
  0
LINE
  5
104
330
1F
100
AcDbEntity
  8
0
100
AcDbLine
 10
-67.92563743804963
 20
-44.82275340059942
 30
0.0
 11
-67.92563743804963
 21
-49.32275304059942
 31
0.0
  0
LINE
  5
105
330
1F
100
AcDbEntity
  8
0
100
AcDbLine
 10
-45.08448499215383
 20
-45.7227533285994
 30
0.0
 11
-44.79843149436219
 21
-46.09554550491181
 31
0.0
  0
LINE
  5
106
330
1F
100
AcDbEntity
  8
0
100
AcDbLine
 10
-57.68299757034154
 20
-40.58011305289135
 30
0.0
 11
-58.92563815804947
 21
-39.62660139358498
 31
0.0
  0
LINE
  5
107
330
1F
100
AcDbEntity
  8
0
100
AcDbLine
 10
-39.52563971004969
 20
-25.72275492859926
 30
0.0
 11
-39.52563971004969
 21
-49.32275304059942
 31
0.0
  0
LINE
  5
108
330
1F
100
AcDbEntity
  8
0
100
AcDbLine
 10
48.68073434686045
 20
38.68874473453189
 30
0.0
 11
48.30794217054804
 21
38.9747982323238
 31
0.0
  0
LINE
  5
109
330
1F
100
AcDbEntity
  8
0
100
AcDbLine
 10
48.96678784465237
 20
38.31595255821939
 30
0.0
 11
48.68073434686045
 21
38.68874473453189
 31
0.0
  0
LINE
  5
10A
330
1F
100
AcDbEntity
  8
0
100
AcDbLine
 10
49.14660859077498
 20
37.88182687413403
 30
0.0
 11
48.96678784465237
 21
38.31595255821939
 31
0.0
  0
LINE
  5
10B
330
1F
100
AcDbEntity
  8
0
100
AcDbLine
 10
49.20794209854802
 20
37.41595263021941
 30
0.0
 11
49.14660859077498
 21
37.88182687413403
 31
0.0
  0
LINE
  5
10C
330
1F
100
AcDbEntity
  8
0
100
AcDbLine
 10
49.14660859077498
 20
36.95007838630479
 30
0.0
 11
49.20794209854802
 21
37.41595263021941
 31
0.0
  0
LINE
  5
10D
330
1F
100
AcDbEntity
  8
0
100
AcDbLine
 10
-43.99151363396424
 20
-46.56141974882639
 30
0.0
 11
-43.52563939004971
 21
-46.62275325659938
 31
0.0
  0
LINE
  5
10E
330
1F
100
AcDbEntity
  8
0
100
AcDbLine
 10
-45.26430573827663
 20
-45.28862764451399
 30
0.0
 11
-45.08448499215383
 21
-45.7227533285994
 31
0.0
  0
LINE
  5
10F
330
1F
100
AcDbEntity
  8
0
100
AcDbLine
 10
-43.99151363396424
 20
-43.08408705237245
 30
0.0
 11
-44.4256393180496
 21
-43.26390779849511
 31
0.0
  0
LINE
  5
110
330
1F
100
AcDbEntity
  8
0
100
AcDbLine
 10
-89.62563570204989
 20
-46.38159900270372
 30
0.0
 11
-89.25284352573767
 21
-46.09554550491181
 31
0.0
  0
LINE
  5
111
330
1F
100
AcDbEntity
  8
0
100
AcDbLine
 10
-45.26430573827663
 20
-44.35687915668484
 30
0.0
 11
-45.32563924604976
 21
-44.82275340059942
 31
0.0
  0
LINE
  5
112
330
1F
100
AcDbEntity
  8
0
100
AcDbLine
 10
-88.78696928182286
 20
-44.35687915668484
 30
0.0
 11
-88.96679002794566
 21
-43.92275347259944
 31
0.0
  0
LINE
  5
113
330
1F
100
AcDbEntity
  8
0
100
AcDbLine
 10
-94.5256353100499
 20
-25.72275492859926
 30
0.0
 11
-39.52563971004969
 21
-25.72275492859926
 31
0.0
  0
LINE
  5
114
330
1F
100
AcDbEntity
  8
0
100
AcDbLine
 10
-42.62563946204973
 20
-43.26390779849511
 30
0.0
 11
-43.05976514613508
 21
-43.08408705237245
 31
0.0
  0
LINE
  5
115
330
1F
100
AcDbEntity
  8
0
100
AcDbLine
 10
-75.92563679804968
 20
-44.82275340059942
 30
0.0
 11
-76.02785931100489
 21
-44.04629632740843
 31
0.0
  0
LINE
  5
116
330
1F
100
AcDbEntity
  8
0
100
AcDbLine
 10
17.16024028707318
 20
47.51595182221917
 30
0.0
 11
17.16024028707318
 21
52.51595142221905
 31
0.0
  0
LINE
  5
117
330
1F
100
AcDbEntity
  8
0
100
AcDbLine
 10
-60.89152316574814
 20
47.51595182221844
 30
0.0
 11
-60.89152316574814
 21
54.31595127821838
 31
0.0
  0
LINE
  5
118
330
1F
100
AcDbEntity
  8
0
100
AcDbLine
 10
-90.9643129660612
 20
38.68874473453054
 30
0.0
 11
-91.25036646385303
 21
38.31595255821813
 31
0.0
  0
LINE
  5
119
330
1F
100
AcDbEntity
  8
0
100
AcDbLine
 10
-90.5915207897488
 20
38.97479823232245
 30
0.0
 11
-90.9643129660612
 21
38.68874473453054
 31
0.0
  0
LINE
  5
11A
330
1F
100
AcDbEntity
  8
0
100
AcDbLine
 10
23.97770083249615
 20
39.71595244621899
 30
0.0
 11
16.27770144849605
 21
39.71595244621899
 31
0.0
  0
LINE
  5
11B
330
1F
100
AcDbEntity
  8
0
100
AcDbLine
 10
16.27770144849605
 20
32.81595299821898
 30
0.0
 11
23.97770083249615
 21
32.81595299821898
 31
0.0
  0
LINE
  5
11C
330
1F
100
AcDbEntity
  8
0
100
AcDbLine
 10
23.97770083249615
 20
32.81595299821898
 30
0.0
 11
23.97770083249615
 21
39.71595244621899
 31
0.0
  0
LINE
  5
11D
330
1F
100
AcDbEntity
  8
0
100
AcDbLine
 10
0.5777077006104547
 20
9.115954894218666
 30
0.0
 11
-6.790755867835766
 21
9.115954894218666
 31
0.0
  0
LINE
  5
11E
330
1F
100
AcDbEntity
  8
0
100
AcDbLine
 10
16.2777014484965
 20
9.115954894219028
 30
0.0
 11
16.2777014484965
 21
2.215955446218928
 31
0.0
  0
LINE
  5
11F
330
1F
100
AcDbEntity
  8
0
100
AcDbLine
 10
-6.790755867835766
 20
2.215955446218657
 30
0.0
 11
0.5777077006104547
 21
2.215955446218657
 31
0.0
  0
LINE
  5
120
330
1F
100
AcDbEntity
  8
0
100
AcDbLine
 10
-6.790755867835766
 20
9.115954894218666
 30
0.0
 11
-6.790755867835766
 21
2.215955446218657
 31
0.0
  0
LINE
  5
121
330
1F
100
AcDbEntity
  8
0
100
AcDbLine
 10
23.9777008324966
 20
2.215955446218928
 30
0.0
 11
23.9777008324966
 21
9.115954894219028
 31
0.0
  0
LINE
  5
122
330
1F
100
AcDbEntity
  8
0
100
AcDbLine
 10
16.2777014484965
 20
2.215955446218928
 30
0.0
 11
23.9777008324966
 21
2.215955446218928
 31
0.0
  0
LINE
  5
123
330
1F
100
AcDbEntity
  8
0
100
AcDbLine
 10
23.9777008324966
 20
9.115954894219028
 30
0.0
 11
16.2777014484965
 21
9.115954894219028
 31
0.0
  0
LINE
  5
124
330
1F
100
AcDbEntity
  8
0
100
AcDbLine
 10
-90.15739510566344
 20
39.15461897844507
 30
0.0
 11
-90.5915207897488
 21
38.97479823232245
 31
0.0
  0
LINE
  5
125
330
1F
100
AcDbEntity
  8
0
100
AcDbLine
 10
-89.69152086174881
 20
39.21595248621811
 30
0.0
 11
-90.15739510566344
 21
39.15461897844507
 31
0.0
  0
LINE
  5
126
330
1F
100
AcDbEntity
  8
0
100
AcDbLine
 10
-89.2256466178342
 20
39.15461897844507
 30
0.0
 11
-89.69152086174881
 21
39.21595248621811
 31
0.0
  0
LINE
  5
127
330
1F
100
AcDbEntity
  8
0
100
AcDbLine
 10
-88.79152093374884
 20
38.97479823232245
 30
0.0
 11
-89.2256466178342
 21
39.15461897844507
 31
0.0
  0
LINE
  5
128
330
1F
100
AcDbEntity
  8
0
100
AcDbLine
 10
-88.41872875743643
 20
38.68874473453054
 30
0.0
 11
-88.79152093374884
 21
38.97479823232245
 31
0.0
  0
LINE
  5
129
330
1F
100
AcDbEntity
  8
0
100
AcDbLine
 10
-88.1326752596446
 20
38.31595255821813
 30
0.0
 11
-88.41872875743643
 21
38.68874473453054
 31
0.0
  0
LINE
  5
12A
330
1F
100
AcDbEntity
  8
0
100
AcDbLine
 10
-87.95285451352181
 20
37.88182687413276
 30
0.0
 11
-88.1326752596446
 21
38.31595255821813
 31
0.0
  0
LINE
  5
12B
330
1F
100
AcDbEntity
  8
0
100
AcDbLine
 10
-87.89152100574886
 20
37.41595263021814
 30
0.0
 11
-87.95285451352181
 21
37.88182687413276
 31
0.0
  0
LINE
  5
12C
330
1F
100
AcDbEntity
  8
0
100
AcDbLine
 10
-87.95285451352181
 20
36.95007838630352
 30
0.0
 11
-87.89152100574886
 21
37.41595263021814
 31
0.0
  0
LINE
  5
12D
330
1F
100
AcDbEntity
  8
0
100
AcDbLine
 10
-88.1326752596446
 20
36.51595270221816
 30
0.0
 11
-87.95285451352181
 21
36.95007838630352
 31
0.0
  0
LINE
  5
12E
330
1F
100
AcDbEntity
  8
0
100
AcDbLine
 10
-88.41872875743643
 20
36.14316052590575
 30
0.0
 11
-88.1326752596446
 21
36.51595270221816
 31
0.0
  0
LINE
  5
12F
330
1F
100
AcDbEntity
  8
0
100
AcDbLine
 10
-88.79152093374884
 20
35.85710702811384
 30
0.0
 11
-88.41872875743643
 21
36.14316052590575
 31
0.0
  0
LINE
  5
130
330
1F
100
AcDbEntity
  8
0
100
AcDbLine
 10
47.40794224254887
 20
-12.38404338578082
 30
0.0
 11
62.72021644156118
 21
-12.38404338578082
 31
0.0
  0
LINE
  5
131
330
1F
100
AcDbEntity
  8
0
100
AcDbLine
 10
47.40794224254842
 20
47.51595182221934
 30
0.0
 11
47.40794224254842
 21
54.31595127821937
 31
0.0
  0
LINE
  5
132
330
1F
100
AcDbEntity
  8
0
100
AcDbLine
 10
47.40794224254842
 20
54.31595127821937
 30
0.0
 11
62.72021644156045
 21
54.31595127821937
 31
0.0
  0
LINE
  5
133
330
1F
100
AcDbEntity
  8
0
100
AcDbLine
 10
49.14660859077543
 20
4.050081018303437
 30
0.0
 11
49.20794209854847
 21
4.515955262218059
 31
0.0
  0
LINE
  5
134
330
1F
100
AcDbEntity
  8
0
100
AcDbLine
 10
48.96678784465282
 20
3.615955334218032
 30
0.0
 11
49.14660859077543
 21
4.050081018303437
 31
0.0
  0
LINE
  5
135
330
1F
100
AcDbEntity
  8
0
100
AcDbLine
 10
-18.0738826130128
 20
2.777288913991585
 30
0.0
 11
-17.63975692892744
 21
2.957109660114249
 31
0.0
  0
LINE
  5
136
330
1F
100
AcDbEntity
  8
0
100
AcDbLine
 10
-17.63975692892744
 20
2.957109660114249
 30
0.0
 11
-17.26696475261494
 21
3.243163157906207
 31
0.0
  0
LINE
  5
137
330
1F
100
AcDbEntity
  8
0
100
AcDbLine
 10
-17.26696475261494
 20
3.243163157906207
 30
0.0
 11
-16.98091125482302
 21
3.615955334218619
 31
0.0
  0
LINE
  5
138
330
1F
100
AcDbEntity
  8
0
100
AcDbLine
 10
-16.98091125482302
 20
3.615955334218619
 30
0.0
 11
-16.8010905087004
 21
4.050081018304023
 31
0.0
  0
LINE
  5
139
330
1F
100
AcDbEntity
  8
0
100
AcDbLine
 10
-16.8010905087004
 20
4.050081018304023
 30
0.0
 11
-16.73975700092737
 21
4.515955262218646
 31
0.0
  0
LINE
  5
13A
330
1F
100
AcDbEntity
  8
0
100
AcDbLine
 10
-16.73975700092737
 20
4.515955262218646
 30
0.0
 11
-16.8010905087004
 21
4.981829506133267
 31
0.0
  0
LINE
  5
13B
330
1F
100
AcDbEntity
  8
0
100
AcDbLine
 10
-16.8010905087004
 20
4.981829506133267
 30
0.0
 11
-16.98091125482302
 21
5.415955190218671
 31
0.0
  0
LINE
  5
13C
330
1F
100
AcDbEntity
  8
0
100
AcDbLine
 10
-16.98091125482302
 20
5.415955190218671
 30
0.0
 11
-17.26696475261494
 21
5.788747366531084
 31
0.0
  0
LINE
  5
13D
330
1F
100
AcDbEntity
  8
0
100
AcDbLine
 10
-17.26696475261494
 20
5.788747366531084
 30
0.0
 11
-17.63975692892734
 21
6.07480086432304
 31
0.0
  0
LINE
  5
13E
330
1F
100
AcDbEntity
  8
0
100
AcDbLine
 10
-17.63975692892734
 20
6.07480086432304
 30
0.0
 11
-18.0738826130128
 21
6.254621610445706
 31
0.0
  0
LINE
  5
13F
330
1F
100
AcDbEntity
  8
0
100
AcDbLine
 10
-18.0738826130128
 20
6.254621610445706
 30
0.0
 11
-18.53975685692742
 21
6.315955118218699
 31
0.0
  0
LINE
  5
140
330
1F
100
AcDbEntity
  8
0
100
AcDbLine
 10
-18.53975685692742
 20
6.315955118218699
 30
0.0
 11
-19.00563110084204
 21
6.254621610445706
 31
0.0
  0
LINE
  5
141
330
1F
100
AcDbEntity
  8
0
100
AcDbLine
 10
-46.15299889233064
 20
42.53163994339709
 30
0.0
 11
-45.96360507950207
 21
42.96167551632214
 31
0.0
  0
LINE
  5
142
330
1F
100
AcDbEntity
  8
0
100
AcDbLine
 10
-45.96360507950207
 20
42.96167551632214
 30
0.0
 11
-45.89196610069608
 21
43.42607670821815
 31
0.0
  0
LINE
  5
143
330
1F
100
AcDbEntity
  8
0
100
AcDbLine
 10
-45.89196610069608
 20
43.42607670821815
 30
0.0
 11
-45.94296403392946
 21
43.89319534531651
 31
0.0
  0
LINE
  5
144
330
1F
100
AcDbEntity
  8
0
100
AcDbLine
 10
-45.94296403392946
 20
43.89319534531651
 30
0.0
 11
-46.11312345433026
 21
44.33119806444918
 31
0.0
  0
LINE
  5
145
330
1F
100
AcDbEntity
  8
0
100
AcDbLine
 10
-46.11312345433026
 20
44.33119806444918
 30
0.0
 11
-46.39084827860006
 21
44.71023570414093
 31
0.0
  0
LINE
  5
146
330
1F
100
AcDbEntity
  8
0
100
AcDbLine
 10
-46.39084827860006
 20
44.71023570414093
 30
0.0
 11
-46.75721201892674
 21
45.00447747563606
 31
0.0
  0
LINE
  5
147
330
1F
100
AcDbEntity
  8
0
100
AcDbLine
 10
87.82778506047731
 20
-2.39608449657291
 30
0.0
 11
88.10473992878009
 21
-2.775685090937777
 31
0.0
  0
LINE
  5
148
330
1F
100
AcDbEntity
  8
0
100
AcDbLine
 10
87.65851506382107
 20
-1.957737284250589
 30
0.0
 11
87.82778506047731
 21
-2.39608449657291
 31
0.0
  0
LINE
  5
149
330
1F
100
AcDbEntity
  8
0
100
AcDbLine
 10
87.60846540935158
 20
-1.490516092087575
 30
0.0
 11
87.65851506382107
 21
-1.957737284250589
 31
0.0
  0
LINE
  5
14A
330
1F
100
AcDbEntity
  8
0
100
AcDbLine
 10
87.68104689830989
 20
-1.026261272210232
 30
0.0
 11
87.60846540935158
 21
-1.490516092087575
 31
0.0
  0
LINE
  5
14B
330
1F
100
AcDbEntity
  8
0
100
AcDbLine
 10
45.60794238654837
 20
4.515955262218059
 30
0.0
 11
45.66927589432141
 21
4.050081018303437
 31
0.0
  0
LINE
  5
14C
330
1F
100
AcDbEntity
  8
0
100
AcDbLine
 10
0.4777077086095745
 20
79.30063255176746
 30
0.0
 11
0.4777077086095745
 21
83.30063223176748
 31
0.0
  0
LINE
  5
14D
330
1F
100
AcDbEntity
  8
0
100
AcDbLine
 10
16.8116760019932
 20
78.80063259176748
 30
0.0
 11
16.97059461187768
 21
78.5935258271495
 31
0.0
  0
LINE
  5
14E
330
1F
100
AcDbEntity
  8
0
100
AcDbLine
 10
16.97059461187768
 20
78.5935258271495
 30
0.0
 11
17.17770137649567
 21
78.43460721726501
 31
0.0
  0
LINE
  5
14F
330
1F
100
AcDbEntity
  8
0
100
AcDbLine
 10
17.17770137649567
 20
78.43460721726501
 30
0.0
 11
17.41888231209864
 21
78.33470680275249
 31
0.0
  0
LINE
  5
150
330
1F
100
AcDbEntity
  8
0
100
AcDbLine
 10
22.83651996889257
 20
78.33470680275249
 30
0.0
 11
22.57770094449556
 21
78.30063263176741
 31
0.0
  0
LINE
  5
151
330
1F
100
AcDbEntity
  8
0
100
AcDbLine
 10
88.98424585207849
 20
0.2153795649470761
 30
0.0
 11
88.54589863975617
 21
0.0461095682908284
 31
0.0
  0
LINE
  5
152
330
1F
100
AcDbEntity
  8
0
100
AcDbLine
 10
89.45146704424151
 20
0.2654292194166066
 30
0.0
 11
88.98424585207849
 21
0.2153795649470761
 31
0.0
  0
LINE
  5
153
330
1F
100
AcDbEntity
  8
0
100
AcDbLine
 10
89.91572186411881
 20
0.1928477304582645
 30
0.0
 11
89.45146704424151
 21
0.2654292194166066
 31
0.0
  0
LINE
  5
154
330
1F
100
AcDbEntity
  8
0
100
AcDbLine
 10
90.3453721129532
 20
0.0025814065979791
 30
0.0
 11
89.91572186411881
 21
0.1928477304582645
 31
0.0
  0
LINE
  5
155
330
1F
100
AcDbEntity
  8
0
100
AcDbLine
 10
90.71113783631714
 20
-0.2924034166230712
 30
0.0
 11
90.3453721129532
 21
0.0025814065979791
 31
0.0
  0
LINE
  5
156
330
1F
100
AcDbEntity
  8
0
100
AcDbLine
 10
90.98809270461992
 20
-0.6720040109879378
 30
0.0
 11
90.71113783631714
 21
-0.2924034166230712
 31
0.0
  0
LINE
  5
157
330
1F
100
AcDbEntity
  8
0
100
AcDbLine
 10
-91.25036646385303
 20
5.41595519021804
 30
0.0
 11
-91.43018720997583
 21
4.981829506132636
 31
0.0
  0
LINE
  5
158
330
1F
100
AcDbEntity
  8
0
100
AcDbLine
 10
-90.9643129660612
 20
5.788747366530452
 30
0.0
 11
-91.25036646385303
 21
5.41595519021804
 31
0.0
  0
LINE
  5
159
330
1F
100
AcDbEntity
  8
0
100
AcDbLine
 10
-90.5915207897488
 20
6.074800864322364
 30
0.0
 11
-90.9643129660612
 21
5.788747366530452
 31
0.0
  0
LINE
  5
15A
330
1F
100
AcDbEntity
  8
0
100
AcDbLine
 10
-90.15739510566344
 20
6.254621610445029
 30
0.0
 11
-90.5915207897488
 21
6.074800864322364
 31
0.0
  0
LINE
  5
15B
330
1F
100
AcDbEntity
  8
0
100
AcDbLine
 10
-89.69152086174881
 20
6.315955118218022
 30
0.0
 11
-90.15739510566344
 21
6.254621610445029
 31
0.0
  0
LINE
  5
15C
330
1F
100
AcDbEntity
  8
0
100
AcDbLine
 10
-89.2256466178342
 20
6.254621610445029
 30
0.0
 11
-89.69152086174881
 21
6.315955118218022
 31
0.0
  0
LINE
  5
15D
330
1F
100
AcDbEntity
  8
0
100
AcDbLine
 10
-88.79152093374884
 20
6.074800864322364
 30
0.0
 11
-89.2256466178342
 21
6.254621610445029
 31
0.0
  0
LINE
  5
15E
330
1F
100
AcDbEntity
  8
0
100
AcDbLine
 10
-61.9256379180497
 20
-38.82275388059939
 30
0.0
 11
-63.47855206443178
 21
-39.02719890650936
 31
0.0
  0
LINE
  5
15F
330
1F
100
AcDbEntity
  8
0
100
AcDbLine
 10
-45.08448499215383
 20
-43.92275347259944
 30
0.0
 11
-45.26430573827663
 21
-44.35687915668484
 31
0.0
  0
LINE
  5
160
330
1F
100
AcDbEntity
  8
0
100
AcDbLine
 10
-15.63975708892698
 20
-10.5840435297819
 30
0.0
 11
-15.67383125991205
 21
-10.84286255417891
 31
0.0
  0
LINE
  5
161
330
1F
100
AcDbEntity
  8
0
100
AcDbLine
 10
-6.105683677943102
 20
52.7747704466158
 30
0.0
 11
-6.139757848928173
 21
52.51595142221878
 31
0.0
  0
LINE
  5
162
330
1F
100
AcDbEntity
  8
0
100
AcDbLine
 10
-87.95285451352181
 20
4.050081018303482
 30
0.0
 11
-87.89152100574886
 21
4.515955262218059
 31
0.0
  0
LINE
  5
163
330
1F
100
AcDbEntity
  8
0
100
AcDbLine
 10
-88.1326752596446
 20
3.615955334218077
 30
0.0
 11
-87.95285451352181
 21
4.050081018303482
 31
0.0
  0
LINE
  5
164
330
1F
100
AcDbEntity
  8
0
100
AcDbLine
 10
-89.69152086174881
 20
2.715955406218095
 30
0.0
 11
-89.2256466178342
 21
2.777288913991089
 31
0.0
  0
LINE
  5
165
330
1F
100
AcDbEntity
  8
0
100
AcDbLine
 10
-90.15739510566344
 20
2.777288913991089
 30
0.0
 11
-89.69152086174881
 21
2.715955406218095
 31
0.0
  0
LINE
  5
166
330
1F
100
AcDbEntity
  8
0
100
AcDbLine
 10
-90.5915207897488
 20
2.957109660113753
 30
0.0
 11
-90.15739510566344
 21
2.777288913991089
 31
0.0
  0
LINE
  5
167
330
1F
100
AcDbEntity
  8
0
100
AcDbLine
 10
-90.9643129660612
 20
3.243163157905665
 30
0.0
 11
-90.5915207897488
 21
2.957109660113753
 31
0.0
  0
LINE
  5
168
330
1F
100
AcDbEntity
  8
0
100
AcDbLine
 10
-91.25036646385303
 20
3.615955334218077
 30
0.0
 11
-90.9643129660612
 21
3.243163157905665
 31
0.0
  0
LINE
  5
169
330
1F
100
AcDbEntity
  8
0
100
AcDbLine
 10
-91.43018720997583
 20
4.050081018303482
 30
0.0
 11
-91.25036646385303
 21
3.615955334218077
 31
0.0
  0
LINE
  5
16A
330
1F
100
AcDbEntity
  8
0
100
AcDbLine
 10
-91.49152071774878
 20
4.515955262218059
 30
0.0
 11
-91.43018720997583
 21
4.050081018303482
 31
0.0
  0
LINE
  5
16B
330
1F
100
AcDbEntity
  8
0
100
AcDbLine
 10
-91.43018720997583
 20
4.981829506132636
 30
0.0
 11
-91.49152071774878
 21
4.515955262218059
 31
0.0
  0
LINE
  5
16C
330
1F
100
AcDbEntity
  8
0
100
AcDbLine
 10
-49.44008440956534
 20
-1.106801054677154
 30
0.0
 11
-49.49108234280045
 21
-1.573919691775387
 31
0.0
  0
LINE
  5
16D
330
1F
100
AcDbEntity
  8
0
100
AcDbLine
 10
-19.94513340680314
 20
53.22305814683674
 30
0.0
 11
-19.73802664218515
 21
53.38197675672124
 31
0.0
  0
LINE
  5
16E
330
1F
100
AcDbEntity
  8
0
100
AcDbLine
 10
-49.41944336399617
 20
-2.03832088367162
 30
0.0
 11
-49.23004955116922
 21
-2.468356456597387
 31
0.0
  0
LINE
  5
16F
330
1F
100
AcDbEntity
  8
0
100
AcDbLine
 10
-49.49108234280045
 20
-1.573919691775387
 30
0.0
 11
-49.41944336399617
 21
-2.03832088367162
 31
0.0
  0
LINE
  5
170
330
1F
100
AcDbEntity
  8
0
100
AcDbLine
 10
-16.98091125482302
 20
38.31595255821875
 30
0.0
 11
-17.26696475261494
 21
38.68874473453126
 31
0.0
  0
LINE
  5
171
330
1F
100
AcDbEntity
  8
0
100
AcDbLine
 10
-17.26696475261494
 20
38.68874473453126
 30
0.0
 11
-17.63975692892734
 21
38.97479823232317
 31
0.0
  0
LINE
  5
172
330
1F
100
AcDbEntity
  8
0
100
AcDbLine
 10
-17.63975692892734
 20
38.97479823232317
 30
0.0
 11
-18.0738826130128
 21
39.15461897844579
 31
0.0
  0
LINE
  5
173
330
1F
100
AcDbEntity
  8
0
100
AcDbLine
 10
-18.0738826130128
 20
39.15461897844579
 30
0.0
 11
-18.53975685692742
 21
39.21595248621883
 31
0.0
  0
LINE
  5
174
330
1F
100
AcDbEntity
  8
0
100
AcDbLine
 10
-18.53975685692742
 20
39.21595248621883
 30
0.0
 11
-19.00563110084204
 21
39.15461897844579
 31
0.0
  0
LINE
  5
175
330
1F
100
AcDbEntity
  8
0
100
AcDbLine
 10
-19.00563110084204
 20
39.15461897844579
 30
0.0
 11
-19.4397567849274
 21
38.97479823232317
 31
0.0
  0
LINE
  5
176
330
1F
100
AcDbEntity
  8
0
100
AcDbLine
 10
-19.4397567849274
 20
38.97479823232317
 30
0.0
 11
-19.81254896123991
 21
38.68874473453126
 31
0.0
  0
LINE
  5
177
330
1F
100
AcDbEntity
  8
0
100
AcDbLine
 10
-19.81254896123991
 20
38.68874473453126
 30
0.0
 11
-20.09860245903181
 21
38.31595255821885
 31
0.0
  0
LINE
  5
178
330
1F
100
AcDbEntity
  8
0
100
AcDbLine
 10
-20.09860245903181
 20
38.31595255821885
 30
0.0
 11
-20.27842320515444
 21
37.8818268741334
 31
0.0
  0
LINE
  5
179
330
1F
100
AcDbEntity
  8
0
100
AcDbLine
 10
23.50082831265496
 20
45.26549432490406
 30
0.0
 11
23.03368950373832
 21
45.21468149657583
 31
0.0
  0
LINE
  5
17A
330
1F
100
AcDbEntity
  8
0
100
AcDbLine
 10
23.03368950373832
 20
45.21468149657583
 30
0.0
 11
22.59561939145075
 21
45.04469565293277
 31
0.0
  0
LINE
  5
17B
330
1F
100
AcDbEntity
  8
0
100
AcDbLine
 10
22.59561939145075
 20
45.04469565293277
 30
0.0
 11
22.21647172999951
 21
44.76712104830411
 31
0.0
  0
LINE
  5
17C
330
1F
100
AcDbEntity
  8
0
100
AcDbLine
 10
22.21647172999951
 20
44.76712104830411
 30
0.0
 11
21.92208480594125
 21
44.40087393328157
 31
0.0
  0
LINE
  5
17D
330
1F
100
AcDbEntity
  8
0
100
AcDbLine
 10
-42.62563946204973
 20
-46.38159900270372
 30
0.0
 11
-42.25284728573732
 21
-46.09554550491181
 31
0.0
  0
LINE
  5
17E
330
1F
100
AcDbEntity
  8
0
100
AcDbLine
 10
-41.78697304182269
 20
-45.28862764451399
 30
0.0
 11
-41.72563953404975
 21
-44.82275340059942
 31
0.0
  0
LINE
  5
17F
330
1F
100
AcDbEntity
  8
0
100
AcDbLine
 10
-94.5256353100499
 20
-49.32275304059942
 30
0.0
 11
-81.9256363180498
 21
-49.32275304059942
 31
0.0
  0
LINE
  5
180
330
1F
100
AcDbEntity
  8
0
100
AcDbLine
 10
-76.02785931100489
 20
-44.04629632740843
 30
0.0
 11
-76.32756055454266
 21
-43.32275352059939
 31
0.0
  0
LINE
  5
181
330
1F
100
AcDbEntity
  8
0
100
AcDbLine
 10
-89.25284352573767
 20
-46.09554550491181
 30
0.0
 11
-88.96679002794566
 21
-45.7227533285994
 31
0.0
  0
LINE
  5
182
330
1F
100
AcDbEntity
  8
0
100
AcDbLine
 10
16.16024036707313
 20
-11.58404344978199
 30
0.0
 11
-5.139757928927311
 21
-11.58404344978136
 31
0.0
  0
LINE
  5
183
330
1F
100
AcDbEntity
  8
0
100
AcDbLine
 10
-91.42563555804986
 20
-43.26390779849511
 30
0.0
 11
-91.79842773436245
 21
-43.54996129628702
 31
0.0
  0
LINE
  5
184
330
1F
100
AcDbEntity
  8
0
100
AcDbLine
 10
-91.42563555804986
 20
-46.38159900270372
 30
0.0
 11
-90.9915098739645
 21
-46.56141974882639
 31
0.0
  0
LINE
  5
185
330
1F
100
AcDbEntity
  8
0
100
AcDbLine
 10
-90.9915098739645
 20
-43.08408705237245
 30
0.0
 11
-91.42563555804986
 21
-43.26390779849511
 31
0.0
  0
LINE
  5
186
330
1F
100
AcDbEntity
  8
0
100
AcDbLine
 10
-85.73122529078725
 20
22.02711194624578
 30
0.0
 11
-86.14081699028866
 21
23.01595378221803
 31
0.0
  0
LINE
  5
187
330
1F
100
AcDbEntity
  8
0
100
AcDbLine
 10
-100.6915199817489
 20
16.47686821096781
 30
0.0
 11
-97.6915202217485
 21
13.47686845096775
 31
0.0
  0
LINE
  5
188
330
1F
100
AcDbEntity
  8
0
100
AcDbLine
 10
-100.6915199817489
 20
25.45503968146812
 30
0.0
 11
-100.6915199817489
 21
16.47686821096781
 31
0.0
  0
LINE
  5
189
330
1F
100
AcDbEntity
  8
0
100
AcDbLine
 10
-100.6915199817489
 20
25.45503968146812
 30
0.0
 11
-97.6915202217485
 21
28.45503944146813
 31
0.0
  0
LINE
  5
18A
330
1F
100
AcDbEntity
  8
0
100
AcDbLine
 10
-97.6915202217485
 20
28.45503944146813
 30
0.0
 11
-97.6915202217485
 21
60.91595075021846
 31
0.0
  0
LINE
  5
18B
330
1F
100
AcDbEntity
  8
0
100
AcDbLine
 10
-87.64152102574855
 20
24.51665781767787
 30
0.0
 11
-88.63036286172117
 21
24.92624951717946
 31
0.0
  0
LINE
  5
18C
330
1F
100
AcDbEntity
  8
0
100
AcDbLine
 10
-89.69152086174881
 20
25.06595361821807
 30
0.0
 11
-90.75267886177647
 21
24.92624951717946
 31
0.0
  0
LINE
  5
18D
330
1F
100
AcDbEntity
  8
0
100
AcDbLine
 10
-90.75267886177647
 20
24.92624951717946
 30
0.0
 11
-91.74152069774873
 21
24.51665781767787
 31
0.0
  0
LINE
  5
18E
330
1F
100
AcDbEntity
  8
0
100
AcDbLine
 10
-93.79152053374864
 20
20.96595394621813
 30
0.0
 11
-93.65181643271002
 21
19.90479594619046
 31
0.0
  0
LINE
  5
18F
330
1F
100
AcDbEntity
  8
0
100
AcDbLine
 10
-93.65181643271002
 20
19.90479594619046
 30
0.0
 11
-93.24222473320862
 21
18.91595411021808
 31
0.0
  0
LINE
  5
190
330
1F
100
AcDbEntity
  8
0
100
AcDbLine
 10
-91.74152069774873
 20
17.4152500747582
 30
0.0
 11
-90.75267886177647
 21
17.0056583752566
 31
0.0
  0
LINE
  5
191
330
1F
100
AcDbEntity
  8
0
100
AcDbLine
 10
-88.63036286172117
 20
17.0056583752566
 30
0.0
 11
-87.64152102574855
 21
17.4152500747582
 31
0.0
  0
LINE
  5
192
330
1F
100
AcDbEntity
  8
0
100
AcDbLine
 10
-6.356681728851504
 20
79.04181352737045
 30
0.0
 11
-6.390755899836575
 21
79.30063255176746
 31
0.0
  0
LINE
  5
193
330
1F
100
AcDbEntity
  8
0
100
AcDbLine
 10
-6.256781314338977
 20
78.80063259176748
 30
0.0
 11
-6.356681728851504
 21
79.04181352737045
 31
0.0
  0
LINE
  5
194
330
1F
100
AcDbEntity
  8
0
100
AcDbLine
 10
11.57770182449655
 20
-4.034033902640132
 30
0.0
 11
0.5777077006103645
 21
-4.034033902639862
 31
0.0
  0
LINE
  5
195
330
1F
100
AcDbEntity
  8
0
100
AcDbLine
 10
11.57770182449591
 20
45.9659417950776
 30
0.0
 11
11.57770182449655
 21
-4.034033902640132
 31
0.0
  0
LINE
  5
196
330
1F
100
AcDbEntity
  8
0
100
AcDbLine
 10
0.5777077006099133
 20
45.9659417950776
 30
0.0
 11
11.57770182449591
 21
45.9659417950776
 31
0.0
  0
LINE
  5
197
330
1F
100
AcDbEntity
  8
0
100
AcDbLine
 10
0.5777077006103645
 20
-4.034033902639862
 30
0.0
 11
0.5777077006104547
 21
2.215955446218657
 31
0.0
  0
LINE
  5
198
330
1F
100
AcDbEntity
  8
0
100
AcDbLine
 10
-14.57946128596594
 20
22.02711194624637
 30
0.0
 11
-14.98905298546754
 21
23.01595378221862
 31
0.0
  0
LINE
  5
199
330
1F
100
AcDbEntity
  8
0
100
AcDbLine
 10
-14.98905298546754
 20
23.01595378221862
 30
0.0
 11
-15.6406192859936
 21
23.86509151715244
 31
0.0
  0
LINE
  5
19A
330
1F
100
AcDbEntity
  8
0
100
AcDbLine
 10
-15.6406192859936
 20
23.86509151715244
 30
0.0
 11
-16.48975702092742
 21
24.51665781767846
 31
0.0
  0
LINE
  5
19B
330
1F
100
AcDbEntity
  8
0
100
AcDbLine
 10
-17.47859885689976
 20
24.92624951718005
 30
0.0
 11
-18.53975685692742
 21
25.06595361821866
 31
0.0
  0
LINE
  5
19C
330
1F
100
AcDbEntity
  8
0
100
AcDbLine
 10
-20.58975669292742
 20
24.51665781767846
 30
0.0
 11
-21.43889442786123
 21
23.86509151715244
 31
0.0
  0
LINE
  5
19D
330
1F
100
AcDbEntity
  8
0
100
AcDbLine
 10
-21.43889442786123
 20
23.86509151715244
 30
0.0
 11
-22.0904607283873
 21
23.01595378221862
 31
0.0
  0
LINE
  5
19E
330
1F
100
AcDbEntity
  8
0
100
AcDbLine
 10
-20.58975669292742
 20
17.41525007475878
 30
0.0
 11
-19.60091485695508
 21
17.00565837525719
 31
0.0
  0
LINE
  5
19F
330
1F
100
AcDbEntity
  8
0
100
AcDbLine
 10
-19.60091485695508
 20
17.00565837525719
 30
0.0
 11
-18.53975685692742
 21
16.86595427421867
 31
0.0
  0
LINE
  5
1A0
330
1F
100
AcDbEntity
  8
0
100
AcDbLine
 10
-18.53975685692742
 20
16.86595427421867
 30
0.0
 11
-17.47859885689976
 21
17.00565837525719
 31
0.0
  0
LINE
  5
1A1
330
1F
100
AcDbEntity
  8
0
100
AcDbLine
 10
-16.48975702092742
 20
17.41525007475878
 30
0.0
 11
-15.6406192859936
 21
18.06681637528485
 31
0.0
  0
LINE
  5
1A2
330
1F
100
AcDbEntity
  8
0
100
AcDbLine
 10
-15.6406192859936
 20
18.06681637528485
 30
0.0
 11
-14.98905298546754
 21
18.91595411021867
 31
0.0
  0
LINE
  5
1A3
330
1F
100
AcDbEntity
  8
0
100
AcDbLine
 10
-14.43975718492742
 20
20.96595394621871
 30
0.0
 11
-14.57946128596594
 21
22.02711194624637
 31
0.0
  0
LINE
  5
1A4
330
1F
100
AcDbEntity
  8
0
100
AcDbLine
 10
0.5777077006100035
 20
39.71595244621881
 30
0.0
 11
-6.790755867836217
 21
39.71595244621881
 31
0.0
  0
LINE
  5
1A5
330
1F
100
AcDbEntity
  8
0
100
AcDbLine
 10
-5.639757888927291
 20
-11.45006886428376
 30
0.0
 11
-5.398576953324323
 21
-11.54996927879638
 31
0.0
  0
LINE
  5
1A6
330
1F
100
AcDbEntity
  8
0
100
AcDbLine
 10
-5.398576953324323
 20
-11.54996927879638
 30
0.0
 11
-5.139757928927311
 21
-11.58404344978136
 31
0.0
  0
LINE
  5
1A7
330
1F
100
AcDbEntity
  8
0
100
AcDbLine
 10
16.16024036707313
 20
-11.58404344978199
 30
0.0
 11
16.41905939147014
 21
-11.54996927879701
 31
0.0
  0
LINE
  5
1A8
330
1F
100
AcDbEntity
  8
0
100
AcDbLine
 10
16.86734709169109
 20
53.2230581468371
 30
0.0
 11
16.66024032707311
 21
53.38197675672151
 31
0.0
  0
LINE
  5
1A9
330
1F
100
AcDbEntity
  8
0
100
AcDbLine
 10
-19.00563110084204
 20
6.254621610445706
 30
0.0
 11
-19.4397567849274
 21
6.07480086432304
 31
0.0
  0
LINE
  5
1AA
330
1F
100
AcDbEntity
  8
0
100
AcDbLine
 10
-19.4397567849274
 20
6.07480086432304
 30
0.0
 11
-19.81254896123991
 21
5.788747366531084
 31
0.0
  0
LINE
  5
1AB
330
1F
100
AcDbEntity
  8
0
100
AcDbLine
 10
-19.81254896123991
 20
5.788747366531084
 30
0.0
 11
-20.09860245903181
 21
5.415955190218671
 31
0.0
  0
LINE
  5
1AC
330
1F
100
AcDbEntity
  8
0
100
AcDbLine
 10
21.92517032917492
 20
-0.5940648639493955
 30
0.0
 11
21.73419198431308
 21
-1.023399095187251
 31
0.0
  0
LINE
  5
1AD
330
1F
100
AcDbEntity
  8
0
100
AcDbLine
 10
21.73419198431308
 20
-1.023399095187251
 30
0.0
 11
21.6608409445079
 21
-1.487532950102233
 31
0.0
  0
LINE
  5
1AE
330
1F
100
AcDbEntity
  8
0
100
AcDbLine
 10
21.6608409445079
 20
-1.487532950102233
 30
0.0
 11
21.71011596190383
 21
-1.954836473499348
 31
0.0
  0
LINE
  5
1AF
330
1F
100
AcDbEntity
  8
0
100
AcDbLine
 10
21.71011596190383
 20
-1.954836473499348
 30
0.0
 11
21.87865902549596
 21
-2.39346370251472
 31
0.0
  0
LINE
  5
1B0
330
1F
100
AcDbEntity
  8
0
100
AcDbLine
 10
21.87865902549596
 20
-2.39346370251472
 30
0.0
 11
22.15498420403133
 21
-2.773522916356697
 31
0.0
  0
LINE
  5
1B1
330
1F
100
AcDbEntity
  8
0
100
AcDbLine
 10
22.15498420403133
 20
-2.773522916356697
 30
0.0
 11
22.52026039324157
 21
-3.069113707679452
 31
0.0
  0
LINE
  5
1B2
330
1F
100
AcDbEntity
  8
0
100
AcDbLine
 10
22.52026039324157
 20
-3.069113707679452
 30
0.0
 11
22.94959462447938
 21
-3.260092052541248
 31
0.0
  0
LINE
  5
1B3
330
1F
100
AcDbEntity
  8
0
100
AcDbLine
 10
22.94959462447938
 20
-3.260092052541248
 30
0.0
 11
23.41372847939436
 21
-3.333443092346426
 31
0.0
  0
LINE
  5
1B4
330
1F
100
AcDbEntity
  8
0
100
AcDbLine
 10
23.41372847939436
 20
-3.333443092346426
 30
0.0
 11
23.88103200279147
 21
-3.284168074950546
 31
0.0
  0
LINE
  5
1B5
330
1F
100
AcDbEntity
  8
0
100
AcDbLine
 10
23.88103200279147
 20
-3.284168074950546
 30
0.0
 11
24.31965923180689
 21
-3.115625011358321
 31
0.0
  0
LINE
  5
1B6
330
1F
100
AcDbEntity
  8
0
100
AcDbLine
 10
24.31965923180689
 20
-3.115625011358321
 30
0.0
 11
24.69971844564878
 21
-2.839299832823001
 31
0.0
  0
LINE
  5
1B7
330
1F
100
AcDbEntity
  8
0
100
AcDbLine
 10
-6.10568367794229
 20
-10.84286255417837
 30
0.0
 11
-6.005783263429763
 21
-11.08404348978138
 31
0.0
  0
LINE
  5
1B8
330
1F
100
AcDbEntity
  8
0
100
AcDbLine
 10
-6.005783263429763
 20
-11.08404348978138
 30
0.0
 11
-5.846864653545368
 21
-11.29115025439937
 31
0.0
  0
LINE
  5
1B9
330
1F
100
AcDbEntity
  8
0
100
AcDbLine
 10
-5.846864653545368
 20
-11.29115025439937
 30
0.0
 11
-5.639757888927291
 21
-11.45006886428376
 31
0.0
  0
LINE
  5
1BA
330
1F
100
AcDbEntity
  8
0
100
AcDbLine
 10
16.41905939147014
 20
-11.54996927879701
 30
0.0
 11
16.66024032707311
 21
-11.4500688642844
 31
0.0
  0
LINE
  5
1BB
330
1F
100
AcDbEntity
  8
0
100
AcDbLine
 10
-20.2340927429461
 20
-10.58483017762294
 30
0.0
 11
-20.19984900761569
 21
-10.8434957014755
 31
0.0
  0
LINE
  5
1BC
330
1F
100
AcDbEntity
  8
0
100
AcDbLine
 10
17.1261661160881
 20
-10.842862554179
 30
0.0
 11
17.16024028707318
 21
-10.58404352978199
 31
0.0
  0
LINE
  5
1BD
330
1F
100
AcDbEntity
  8
0
100
AcDbLine
 10
16.66024032707311
 20
-11.4500688642844
 30
0.0
 11
16.86734709169109
 21
-11.2911502544
 31
0.0
  0
LINE
  5
1BE
330
1F
100
AcDbEntity
  8
0
100
AcDbLine
 10
16.86734709169109
 20
-11.2911502544
 30
0.0
 11
17.02626570157549
 21
-11.08404348978201
 31
0.0
  0
LINE
  5
1BF
330
1F
100
AcDbEntity
  8
0
100
AcDbLine
 10
-5.639757888928103
 20
53.38197675672114
 30
0.0
 11
-5.84686465354618
 21
53.22305814683674
 31
0.0
  0
LINE
  5
1C0
330
1F
100
AcDbEntity
  8
0
100
AcDbLine
 10
-20.23802660218522
 20
52.51595142221878
 30
0.0
 11
-20.20395243120015
 21
52.7747704466158
 31
0.0
  0
LINE
  5
1C1
330
1F
100
AcDbEntity
  8
0
100
AcDbLine
 10
-15.63833418513317
 20
52.51595142221878
 30
0.0
 11
-15.63833418513317
 21
47.5159518222188
 31
0.0
  0
LINE
  5
1C2
330
1F
100
AcDbEntity
  8
0
100
AcDbLine
 10
17.02626570157549
 20
-11.08404348978201
 30
0.0
 11
17.1261661160881
 21
-10.842862554179
 31
0.0
  0
LINE
  5
1C3
330
1F
100
AcDbEntity
  8
0
100
AcDbLine
 10
-20.09860245903181
 20
5.415955190218671
 30
0.0
 11
-20.27842320515444
 21
4.981829506133267
 31
0.0
  0
LINE
  5
1C4
330
1F
100
AcDbEntity
  8
0
100
AcDbLine
 10
-20.27842320515444
 20
4.981829506133267
 30
0.0
 11
-20.33975671292747
 21
4.515955262218646
 31
0.0
  0
LINE
  5
1C5
330
1F
100
AcDbEntity
  8
0
100
AcDbLine
 10
-20.33975671292747
 20
4.515955262218646
 30
0.0
 11
-20.27842320515444
 21
4.050081018304023
 31
0.0
  0
LINE
  5
1C6
330
1F
100
AcDbEntity
  8
0
100
AcDbLine
 10
-20.27842320515444
 20
4.050081018304023
 30
0.0
 11
-20.09860245903181
 21
3.615955334218619
 31
0.0
  0
LINE
  5
1C7
330
1F
100
AcDbEntity
  8
0
100
AcDbLine
 10
-20.09860245903181
 20
3.615955334218619
 30
0.0
 11
-19.81254896123991
 21
3.243163157906207
 31
0.0
  0
LINE
  5
1C8
330
1F
100
AcDbEntity
  8
0
100
AcDbLine
 10
-19.81254896123991
 20
3.243163157906207
 30
0.0
 11
-19.43975678492749
 21
2.957109660114249
 31
0.0
  0
LINE
  5
1C9
330
1F
100
AcDbEntity
  8
0
100
AcDbLine
 10
17.8365203688925
 20
95.76655706078245
 30
0.0
 11
17.57770134449549
 21
95.80063123176753
 31
0.0
  0
LINE
  5
1CA
330
1F
100
AcDbEntity
  8
0
100
AcDbLine
 10
-15.93265028430906
 20
-11.29115025439996
 30
0.0
 11
-16.13975704892714
 21
-11.45006886428435
 31
0.0
  0
LINE
  5
1CB
330
1F
100
AcDbEntity
  8
0
100
AcDbLine
 10
-16.13975704892714
 20
-11.45006886428435
 30
0.0
 11
-16.38093798453011
 21
-11.54996927879692
 31
0.0
  0
LINE
  5
1CC
330
1F
100
AcDbEntity
  8
0
100
AcDbLine
 10
-19.43975678492749
 20
2.957109660114249
 30
0.0
 11
-19.00563110084204
 21
2.777288913991585
 31
0.0
  0
LINE
  5
1CD
330
1F
100
AcDbEntity
  8
0
100
AcDbLine
 10
-20.23802660218522
 20
47.5159518222188
 30
0.0
 11
-20.23802660218522
 21
52.51595142221878
 31
0.0
  0
LINE
  5
1CE
330
1F
100
AcDbEntity
  8
0
100
AcDbLine
 10
-15.63833418513317
 20
47.5159518222188
 30
0.0
 11
-6.139757848928083
 21
47.5159518222188
 31
0.0
  0
LINE
  5
1CF
330
1F
100
AcDbEntity
  8
0
100
AcDbLine
 10
-20.23802660218486
 20
-5.584043929781379
 30
0.0
 11
-20.2340927429461
 21
-10.58483017762294
 31
0.0
  0
LINE
  5
1D0
330
1F
100
AcDbEntity
  8
0
100
AcDbLine
 10
-15.63975708892698
 20
-5.584043929781425
 30
0.0
 11
-6.139757848927361
 21
-5.584043929781289
 31
0.0
  0
LINE
  5
1D1
330
1F
100
AcDbEntity
  8
0
100
AcDbLine
 10
-15.77373167442466
 20
-11.08404348978192
 30
0.0
 11
-15.93265028430906
 21
-11.29115025439996
 31
0.0
  0
LINE
  5
1D2
330
1F
100
AcDbEntity
  8
0
100
AcDbLine
 10
-15.67383125991205
 20
-10.84286255417891
 30
0.0
 11
-15.77373167442466
 21
-11.08404348978192
 31
0.0
  0
LINE
  5
1D3
330
1F
100
AcDbEntity
  8
0
100
AcDbLine
 10
-15.63975708892698
 20
-5.584043929781425
 30
0.0
 11
-15.63975708892698
 21
-10.5840435297819
 31
0.0
  0
LINE
  5
1D4
330
1F
100
AcDbEntity
  8
0
100
AcDbLine
 10
-6.139757848927361
 20
-10.58404352978136
 30
0.0
 11
-6.139757848927361
 21
-5.584043929781289
 31
0.0
  0
LINE
  5
1D5
330
1F
100
AcDbEntity
  8
0
100
AcDbLine
 10
-6.139757848927361
 20
-10.58404352978136
 30
0.0
 11
-6.10568367794229
 21
-10.84286255417837
 31
0.0
  0
LINE
  5
1D6
330
1F
100
AcDbEntity
  8
0
100
AcDbLine
 10
17.16024028707318
 20
-5.584043929781018
 30
0.0
 11
17.16024028707318
 21
-10.58404352978199
 31
0.0
  0
LINE
  5
1D7
330
1F
100
AcDbEntity
  8
0
100
AcDbLine
 10
28.46023938307329
 20
-5.584043929781018
 30
0.0
 11
17.16024028707318
 21
-5.584043929781018
 31
0.0
  0
LINE
  5
1D8
330
1F
100
AcDbEntity
  8
0
100
AcDbLine
 10
28.46023938307329
 20
47.51595182221917
 30
0.0
 11
28.46023938307329
 21
-5.584043929781018
 31
0.0
  0
LINE
  5
1D9
330
1F
100
AcDbEntity
  8
0
100
AcDbLine
 10
28.46023938307329
 20
47.51595182221917
 30
0.0
 11
17.16024028707318
 21
47.51595182221917
 31
0.0
  0
LINE
  5
1DA
330
1F
100
AcDbEntity
  8
0
100
AcDbLine
 10
17.16024028707318
 20
52.51595142221905
 30
0.0
 11
17.1261661160881
 21
52.77477044661607
 31
0.0
  0
LINE
  5
1DB
330
1F
100
AcDbEntity
  8
0
100
AcDbLine
 10
17.1261661160881
 20
52.77477044661607
 30
0.0
 11
17.02626570157558
 21
53.01595138221903
 31
0.0
  0
LINE
  5
1DC
330
1F
100
AcDbEntity
  8
0
100
AcDbLine
 10
16.66024032707311
 20
53.38197675672151
 30
0.0
 11
16.41905939147014
 21
53.48187717123403
 31
0.0
  0
LINE
  5
1DD
330
1F
100
AcDbEntity
  8
0
100
AcDbLine
 10
16.41905939147014
 20
53.48187717123403
 30
0.0
 11
16.16024036707313
 21
53.5159513422191
 31
0.0
  0
LINE
  5
1DE
330
1F
100
AcDbEntity
  8
0
100
AcDbLine
 10
-5.139757928928123
 20
53.51595134221883
 30
0.0
 11
16.16024036707313
 21
53.5159513422191
 31
0.0
  0
LINE
  5
1DF
330
1F
100
AcDbEntity
  8
0
100
AcDbLine
 10
-5.139757928928123
 20
53.51595134221883
 30
0.0
 11
-5.398576953325136
 21
53.48187717123376
 31
0.0
  0
LINE
  5
1E0
330
1F
100
AcDbEntity
  8
0
100
AcDbLine
 10
-5.398576953325136
 20
53.48187717123376
 30
0.0
 11
-5.639757888928103
 21
53.38197675672114
 31
0.0
  0
LINE
  5
1E1
330
1F
100
AcDbEntity
  8
0
100
AcDbLine
 10
-5.84686465354618
 20
53.22305814683674
 30
0.0
 11
-6.005783263430575
 21
53.01595138221876
 31
0.0
  0
LINE
  5
1E2
330
1F
100
AcDbEntity
  8
0
100
AcDbLine
 10
-6.005783263430575
 20
53.01595138221876
 30
0.0
 11
-6.105683677943102
 21
52.7747704466158
 31
0.0
  0
LINE
  5
1E3
330
1F
100
AcDbEntity
  8
0
100
AcDbLine
 10
-6.139757848928083
 20
47.5159518222188
 30
0.0
 11
-6.139757848928173
 21
52.51595142221878
 31
0.0
  0
LINE
  5
1E4
330
1F
100
AcDbEntity
  8
0
100
AcDbLine
 10
-15.63833418513317
 20
52.51595142221878
 30
0.0
 11
-15.67240835611825
 21
52.7747704466158
 31
0.0
  0
LINE
  5
1E5
330
1F
100
AcDbEntity
  8
0
100
AcDbLine
 10
-15.77230877063077
 20
53.01595138221876
 30
0.0
 11
-15.93122738051526
 21
53.22305814683674
 31
0.0
  0
LINE
  5
1E6
330
1F
100
AcDbEntity
  8
0
100
AcDbLine
 10
-15.93122738051526
 20
53.22305814683674
 30
0.0
 11
-16.13833414513325
 21
53.38197675672124
 31
0.0
  0
LINE
  5
1E7
330
1F
100
AcDbEntity
  8
0
100
AcDbLine
 10
-16.13833414513325
 20
53.38197675672124
 30
0.0
 11
-16.37951508073621
 21
53.48187717123376
 31
0.0
  0
LINE
  5
1E8
330
1F
100
AcDbEntity
  8
0
100
AcDbLine
 10
-16.37951508073621
 20
53.48187717123376
 30
0.0
 11
-16.63833410513323
 21
53.51595134221883
 31
0.0
  0
LINE
  5
1E9
330
1F
100
AcDbEntity
  8
0
100
AcDbLine
 10
-19.23802668218518
 20
53.51595134221883
 30
0.0
 11
-16.63833410513323
 21
53.51595134221883
 31
0.0
  0
LINE
  5
1EA
330
1F
100
AcDbEntity
  8
0
100
AcDbLine
 10
-19.49684570658219
 20
53.48187717123376
 30
0.0
 11
-19.23802668218518
 21
53.51595134221883
 31
0.0
  0
LINE
  5
1EB
330
1F
100
AcDbEntity
  8
0
100
AcDbLine
 10
-19.73802664218515
 20
53.38197675672124
 30
0.0
 11
-19.49684570658219
 21
53.48187717123376
 31
0.0
  0
LINE
  5
1EC
330
1F
100
AcDbEntity
  8
0
100
AcDbLine
 10
-26.5397562169271
 20
47.51595182221871
 30
0.0
 11
-20.23802660218522
 21
47.5159518222188
 31
0.0
  0
LINE
  5
1ED
330
1F
100
AcDbEntity
  8
0
100
AcDbLine
 10
-26.5397562169271
 20
28.45503944146872
 30
0.0
 11
-26.5397562169271
 21
47.51595182221871
 31
0.0
  0
LINE
  5
1EE
330
1F
100
AcDbEntity
  8
0
100
AcDbLine
 10
-29.53975597692751
 20
25.45503968146871
 30
0.0
 11
-26.5397562169271
 21
28.45503944146872
 31
0.0
  0
LINE
  5
1EF
330
1F
100
AcDbEntity
  8
0
100
AcDbLine
 10
-29.53975597692751
 20
25.45503968146871
 30
0.0
 11
-29.53975597692751
 21
20.99400062638703
 31
0.0
  0
LINE
  5
1F0
330
1F
100
AcDbEntity
  8
0
100
AcDbLine
 10
-29.53975597692751
 20
20.99400062638703
 30
0.0
 11
-29.5434483924207
 21
20.96595394621876
 31
0.0
  0
LINE
  5
1F1
330
1F
100
AcDbEntity
  8
0
100
AcDbLine
 10
-29.5434483924207
 20
20.96595394621876
 30
0.0
 11
-29.53975597692751
 21
20.93790726605048
 31
0.0
  0
LINE
  5
1F2
330
1F
100
AcDbEntity
  8
0
100
AcDbLine
 10
-29.53975597692751
 20
20.93790726605048
 30
0.0
 11
-29.53975597692751
 21
16.47686821096839
 31
0.0
  0
LINE
  5
1F3
330
1F
100
AcDbEntity
  8
0
100
AcDbLine
 10
-29.53975597692751
 20
16.47686821096839
 30
0.0
 11
-26.5397562169271
 21
13.47686845096834
 31
0.0
  0
LINE
  5
1F4
330
1F
100
AcDbEntity
  8
0
100
AcDbLine
 10
-26.5397562169271
 20
-5.584043929781425
 30
0.0
 11
-26.5397562169271
 21
13.47686845096834
 31
0.0
  0
LINE
  5
1F5
330
1F
100
AcDbEntity
  8
0
100
AcDbLine
 10
-26.5397562169271
 20
-5.584043929781425
 30
0.0
 11
-20.23802660218486
 21
-5.584043929781379
 31
0.0
  0
LINE
  5
1F6
330
1F
100
AcDbEntity
  8
0
100
AcDbLine
 10
-20.19984900761569
 20
-10.8434957014755
 30
0.0
 11
-20.09985613180281
 21
-11.08449759239333
 31
0.0
  0
LINE
  5
1F7
330
1F
100
AcDbEntity
  8
0
100
AcDbLine
 10
-20.09985613180281
 20
-11.08449759239333
 30
0.0
 11
-19.94092168024252
 21
-11.29142832173656
 31
0.0
  0
LINE
  5
1F8
330
1F
100
AcDbEntity
  8
0
100
AcDbLine
 10
-19.94092168024252
 20
-11.29142832173656
 30
0.0
 11
-19.733865989472
 21
-11.4501999424968
 31
0.0
  0
LINE
  5
1F9
330
1F
100
AcDbEntity
  8
0
100
AcDbLine
 10
-19.733865989472
 20
-11.4501999424968
 30
0.0
 11
-19.49278551393581
 21
-11.55000320373871
 31
0.0
  0
LINE
  5
1FA
330
1F
100
AcDbEntity
  8
0
100
AcDbLine
 10
-19.49278551393581
 20
-11.55000320373871
 30
0.0
 11
-19.23409313235365
 21
-11.58404344978159
 31
0.0
  0
LINE
  5
1FB
330
1F
100
AcDbEntity
  8
0
100
AcDbLine
 10
0.5777077006100035
 20
39.71595244621881
 30
0.0
 11
0.5777077006099133
 21
45.9659417950776
 31
0.0
  0
LINE
  5
1FC
330
1F
100
AcDbEntity
  8
0
100
AcDbLine
 10
0.5777077006104547
 20
9.115954894218666
 30
0.0
 11
0.5777077006100035
 21
32.81595299821871
 31
0.0
  0
LINE
  5
1FD
330
1F
100
AcDbEntity
  8
0
100
AcDbLine
 10
-6.790755867836217
 20
32.81595299821871
 30
0.0
 11
0.5777077006100035
 21
32.81595299821871
 31
0.0
  0
LINE
  5
1FE
330
1F
100
AcDbEntity
  8
0
100
AcDbLine
 10
-6.790755867836217
 20
39.71595244621881
 30
0.0
 11
-6.790755867836217
 21
32.81595299821871
 31
0.0
  0
LINE
  5
1FF
330
1F
100
AcDbEntity
  8
0
100
AcDbLine
 10
16.27770144849605
 20
39.71595244621899
 30
0.0
 11
16.27770144849605
 21
32.81595299821898
 31
0.0
  0
LINE
  5
200
330
1F
100
AcDbEntity
  8
0
100
AcDbLine
 10
-14.57946128596594
 20
19.90479594619105
 30
0.0
 11
-14.43975718492742
 21
20.96595394621871
 31
0.0
  0
LINE
  5
201
330
1F
100
AcDbEntity
  8
0
100
AcDbLine
 10
-14.98905298546754
 20
18.91595411021867
 30
0.0
 11
-14.57946128596594
 21
19.90479594619105
 31
0.0
  0
LINE
  5
202
330
1F
100
AcDbEntity
  8
0
100
AcDbLine
 10
-17.47859885689976
 20
17.00565837525719
 30
0.0
 11
-16.48975702092742
 21
17.41525007475878
 31
0.0
  0
LINE
  5
203
330
1F
100
AcDbEntity
  8
0
100
AcDbLine
 10
-21.43889442786123
 20
18.06681637528485
 30
0.0
 11
-20.58975669292742
 21
17.41525007475878
 31
0.0
  0
LINE
  5
204
330
1F
100
AcDbEntity
  8
0
100
AcDbLine
 10
-22.0904607283873
 20
18.91595411021867
 30
0.0
 11
-21.43889442786123
 21
18.06681637528485
 31
0.0
  0
LINE
  5
205
330
1F
100
AcDbEntity
  8
0
100
AcDbLine
 10
-22.50005242788889
 20
19.90479594619105
 30
0.0
 11
-22.0904607283873
 21
18.91595411021867
 31
0.0
  0
LINE
  5
206
330
1F
100
AcDbEntity
  8
0
100
AcDbLine
 10
-22.63975652892741
 20
20.96595394621871
 30
0.0
 11
-22.50005242788889
 21
19.90479594619105
 31
0.0
  0
LINE
  5
207
330
1F
100
AcDbEntity
  8
0
100
AcDbLine
 10
-22.50005242788889
 20
22.02711194624637
 30
0.0
 11
-22.63975652892741
 21
20.96595394621871
 31
0.0
  0
LINE
  5
208
330
1F
100
AcDbEntity
  8
0
100
AcDbLine
 10
-22.0904607283873
 20
23.01595378221862
 30
0.0
 11
-22.50005242788889
 21
22.02711194624637
 31
0.0
  0
LINE
  5
209
330
1F
100
AcDbEntity
  8
0
100
AcDbLine
 10
-19.60091485695508
 20
24.92624951718005
 30
0.0
 11
-20.58975669292742
 21
24.51665781767846
 31
0.0
  0
LINE
  5
20A
330
1F
100
AcDbEntity
  8
0
100
AcDbLine
 10
-18.53975685692742
 20
25.06595361821866
 30
0.0
 11
-19.60091485695508
 21
24.92624951718005
 31
0.0
  0
LINE
  5
20B
330
1F
100
AcDbEntity
  8
0
100
AcDbLine
 10
-16.48975702092742
 20
24.51665781767846
 30
0.0
 11
-17.47859885689976
 21
24.92624951718005
 31
0.0
  0
LINE
  5
20C
330
1F
100
AcDbEntity
  8
0
100
AcDbLine
 10
-18.53975685692742
 20
2.715955406218592
 30
0.0
 11
-18.0738826130128
 21
2.777288913991585
 31
0.0
  0
LINE
  5
20D
330
1F
100
AcDbEntity
  8
0
100
AcDbLine
 10
-19.00563110084204
 20
2.777288913991585
 30
0.0
 11
-18.53975685692742
 21
2.715955406218592
 31
0.0
  0
LINE
  5
20E
330
1F
100
AcDbEntity
  8
0
100
AcDbLine
 10
22.22076112049768
 20
-0.2287886747392013
 30
0.0
 11
21.92517032917492
 21
-0.5940648639493955
 31
0.0
  0
LINE
  5
20F
330
1F
100
AcDbEntity
  8
0
100
AcDbLine
 10
22.60082033433956
 20
0.0475365037961186
 30
0.0
 11
22.22076112049768
 21
-0.2287886747392013
 31
0.0
  0
LINE
  5
210
330
1F
100
AcDbEntity
  8
0
100
AcDbLine
 10
23.03944756335498
 20
0.2160795673883446
 30
0.0
 11
22.60082033433956
 21
0.0475365037961186
 31
0.0
  0
LINE
  5
211
330
1F
100
AcDbEntity
  8
0
100
AcDbLine
 10
23.5067510867521
 20
0.265354584784224
 30
0.0
 11
23.03944756335498
 21
0.2160795673883446
 31
0.0
  0
LINE
  5
212
330
1F
100
AcDbEntity
  8
0
100
AcDbLine
 10
23.97088494166708
 20
0.1920035449790462
 30
0.0
 11
23.5067510867521
 21
0.265354584784224
 31
0.0
  0
LINE
  5
213
330
1F
100
AcDbEntity
  8
0
100
AcDbLine
 10
24.40021917290489
 20
0.0010252001172501
 30
0.0
 11
23.97088494166708
 21
0.1920035449790462
 31
0.0
  0
LINE
  5
214
330
1F
100
AcDbEntity
  8
0
100
AcDbLine
 10
24.76549536211513
 20
-0.2945655912055051
 30
0.0
 11
24.40021917290489
 21
0.0010252001172501
 31
0.0
  0
LINE
  5
215
330
1F
100
AcDbEntity
  8
0
100
AcDbLine
 10
25.04182054065049
 20
-0.6746248050474816
 30
0.0
 11
24.76549536211513
 21
-0.2945655912055051
 31
0.0
  0
LINE
  5
216
330
1F
100
AcDbEntity
  8
0
100
AcDbLine
 10
25.21036360424263
 20
-1.113252034062853
 30
0.0
 11
25.04182054065049
 21
-0.6746248050474816
 31
0.0
  0
LINE
  5
217
330
1F
100
AcDbEntity
  8
0
100
AcDbLine
 10
25.25963862163855
 20
-1.580555557459969
 30
0.0
 11
25.21036360424263
 21
-1.113252034062853
 31
0.0
  0
LINE
  5
218
330
1F
100
AcDbEntity
  8
0
100
AcDbLine
 10
25.18628758183338
 20
-2.044689412374951
 30
0.0
 11
25.25963862163855
 21
-1.580555557459969
 31
0.0
  0
LINE
  5
219
330
1F
100
AcDbEntity
  8
0
100
AcDbLine
 10
24.99530923697153
 20
-2.474023643612806
 30
0.0
 11
25.18628758183338
 21
-2.044689412374951
 31
0.0
  0
LINE
  5
21A
330
1F
100
AcDbEntity
  8
0
100
AcDbLine
 10
24.69971844564878
 20
-2.839299832823001
 30
0.0
 11
24.99530923697153
 21
-2.474023643612806
 31
0.0
  0
LINE
  5
21B
330
1F
100
AcDbEntity
  8
0
100
AcDbLine
 10
-20.27842320515444
 20
37.8818268741334
 30
0.0
 11
-20.33975671292747
 21
37.41595263021878
 31
0.0
  0
LINE
  5
21C
330
1F
100
AcDbEntity
  8
0
100
AcDbLine
 10
-16.8010905087004
 20
37.8818268741334
 30
0.0
 11
-16.98091125482302
 21
38.31595255821875
 31
0.0
  0
LINE
  5
21D
330
1F
100
AcDbEntity
  8
0
100
AcDbLine
 10
-16.73975700092737
 20
37.41595263021878
 30
0.0
 11
-16.8010905087004
 21
37.8818268741334
 31
0.0
  0
LINE
  5
21E
330
1F
100
AcDbEntity
  8
0
100
AcDbLine
 10
-16.8010905087004
 20
36.95007838630416
 30
0.0
 11
-16.73975700092737
 21
37.41595263021878
 31
0.0
  0
LINE
  5
21F
330
1F
100
AcDbEntity
  8
0
100
AcDbLine
 10
-16.98091125482302
 20
36.5159527022187
 30
0.0
 11
-16.8010905087004
 21
36.95007838630416
 31
0.0
  0
LINE
  5
220
330
1F
100
AcDbEntity
  8
0
100
AcDbLine
 10
-17.26696475261494
 20
36.14316052590629
 30
0.0
 11
-16.98091125482302
 21
36.5159527022187
 31
0.0
  0
LINE
  5
221
330
1F
100
AcDbEntity
  8
0
100
AcDbLine
 10
-17.63975692892744
 20
35.85710702811438
 30
0.0
 11
-17.26696475261494
 21
36.14316052590629
 31
0.0
  0
LINE
  5
222
330
1F
100
AcDbEntity
  8
0
100
AcDbLine
 10
-18.0738826130128
 20
35.67728628199176
 30
0.0
 11
-17.63975692892744
 21
35.85710702811438
 31
0.0
  0
LINE
  5
223
330
1F
100
AcDbEntity
  8
0
100
AcDbLine
 10
-18.53975685692742
 20
35.61595277421872
 30
0.0
 11
-18.0738826130128
 21
35.67728628199176
 31
0.0
  0
LINE
  5
224
330
1F
100
AcDbEntity
  8
0
100
AcDbLine
 10
-19.00563110084204
 20
35.67728628199176
 30
0.0
 11
-18.53975685692742
 21
35.61595277421872
 31
0.0
  0
LINE
  5
225
330
1F
100
AcDbEntity
  8
0
100
AcDbLine
 10
-19.43975678492749
 20
35.85710702811438
 30
0.0
 11
-19.00563110084204
 21
35.67728628199176
 31
0.0
  0
LINE
  5
226
330
1F
100
AcDbEntity
  8
0
100
AcDbLine
 10
-19.81254896123991
 20
36.14316052590629
 30
0.0
 11
-19.43975678492749
 21
35.85710702811438
 31
0.0
  0
LINE
  5
227
330
1F
100
AcDbEntity
  8
0
100
AcDbLine
 10
-20.09860245903181
 20
36.51595270221879
 30
0.0
 11
-19.81254896123991
 21
36.14316052590629
 31
0.0
  0
LINE
  5
228
330
1F
100
AcDbEntity
  8
0
100
AcDbLine
 10
-20.27842320515444
 20
36.95007838630416
 30
0.0
 11
-20.09860245903181
 21
36.51595270221879
 31
0.0
  0
LINE
  5
229
330
1F
100
AcDbEntity
  8
0
100
AcDbLine
 10
-20.33975671292747
 20
37.41595263021878
 30
0.0
 11
-20.27842320515444
 21
36.95007838630416
 31
0.0
  0
LINE
  5
22A
330
1F
100
AcDbEntity
  8
0
100
AcDbLine
 10
23.96520108035627
 20
45.19367132763893
 30
0.0
 11
23.50082831265496
 21
45.26549432490406
 31
0.0
  0
LINE
  5
22B
330
1F
100
AcDbEntity
  8
0
100
AcDbLine
 10
24.39516157013574
 20
45.00410712335105
 30
0.0
 11
23.96520108035627
 21
45.19367132763893
 31
0.0
  0
LINE
  5
22C
330
1F
100
AcDbEntity
  8
0
100
AcDbLine
 10
24.76140868515827
 20
44.70972019929278
 30
0.0
 11
24.39516157013574
 21
45.00410712335105
 31
0.0
  0
LINE
  5
22D
330
1F
100
AcDbEntity
  8
0
100
AcDbLine
 10
25.03898328978694
 20
44.33057253784154
 30
0.0
 11
24.76140868515827
 21
44.70972019929278
 31
0.0
  0
LINE
  5
22E
330
1F
100
AcDbEntity
  8
0
100
AcDbLine
 10
25.20896913342999
 20
43.89250242555398
 30
0.0
 11
25.03898328978694
 21
44.33057253784154
 31
0.0
  0
LINE
  5
22F
330
1F
100
AcDbEntity
  8
0
100
AcDbLine
 10
25.25978196175822
 20
43.42536361663733
 30
0.0
 11
25.20896913342999
 21
43.89250242555398
 31
0.0
  0
LINE
  5
230
330
1F
100
AcDbEntity
  8
0
100
AcDbLine
 10
25.18795896449309
 20
42.96099084893602
 30
0.0
 11
25.25978196175822
 21
43.42536361663733
 31
0.0
  0
LINE
  5
231
330
1F
100
AcDbEntity
  8
0
100
AcDbLine
 10
24.99839476020521
 20
42.53103035915655
 30
0.0
 11
25.18795896449309
 21
42.96099084893602
 31
0.0
  0
LINE
  5
232
330
1F
100
AcDbEntity
  8
0
100
AcDbLine
 10
24.70400783614695
 20
42.16478324413402
 30
0.0
 11
24.99839476020521
 21
42.53103035915655
 31
0.0
  0
LINE
  5
233
330
1F
100
AcDbEntity
  8
0
100
AcDbLine
 10
24.32486017469571
 20
41.88720863950535
 30
0.0
 11
24.70400783614695
 21
42.16478324413402
 31
0.0
  0
LINE
  5
234
330
1F
100
AcDbEntity
  8
0
100
AcDbLine
 10
23.88679006240814
 20
41.71722279586231
 30
0.0
 11
24.32486017469571
 21
41.88720863950535
 31
0.0
  0
LINE
  5
235
330
1F
100
AcDbEntity
  8
0
100
AcDbLine
 10
23.4196512534915
 20
41.66640996753407
 30
0.0
 11
23.88679006240814
 21
41.71722279586231
 31
0.0
  0
LINE
  5
236
330
1F
100
AcDbEntity
  8
0
100
AcDbLine
 10
22.95527848579018
 20
41.7382329647992
 30
0.0
 11
23.4196512534915
 21
41.66640996753407
 31
0.0
  0
LINE
  5
237
330
1F
100
AcDbEntity
  8
0
100
AcDbLine
 10
22.52531799601072
 20
41.92779716908709
 30
0.0
 11
22.95527848579018
 21
41.7382329647992
 31
0.0
  0
LINE
  5
238
330
1F
100
AcDbEntity
  8
0
100
AcDbLine
 10
22.15907088098819
 20
42.22218409314534
 30
0.0
 11
22.52531799601072
 21
41.92779716908709
 31
0.0
  0
LINE
  5
239
330
1F
100
AcDbEntity
  8
0
100
AcDbLine
 10
21.88149627635952
 20
42.60133175459658
 30
0.0
 11
22.15907088098819
 21
42.22218409314534
 31
0.0
  0
LINE
  5
23A
330
1F
100
AcDbEntity
  8
0
100
AcDbLine
 10
21.71151043271647
 20
43.03940186688415
 30
0.0
 11
21.88149627635952
 21
42.60133175459658
 31
0.0
  0
LINE
  5
23B
330
1F
100
AcDbEntity
  8
0
100
AcDbLine
 10
21.66069760438823
 20
43.50654067580079
 30
0.0
 11
21.71151043271647
 21
43.03940186688415
 31
0.0
  0
LINE
  5
23C
330
1F
100
AcDbEntity
  8
0
100
AcDbLine
 10
21.73252060165336
 20
43.97091344350211
 30
0.0
 11
21.66069760438823
 21
43.50654067580079
 31
0.0
  0
LINE
  5
23D
330
1F
100
AcDbEntity
  8
0
100
AcDbLine
 10
21.92208480594125
 20
44.40087393328157
 30
0.0
 11
21.73252060165336
 21
43.97091344350211
 31
0.0
  0
LINE
  5
23E
330
1F
100
AcDbEntity
  8
0
100
AcDbLine
 10
-89.2256466178342
 20
35.67728628199121
 30
0.0
 11
-88.79152093374884
 21
35.85710702811384
 31
0.0
  0
LINE
  5
23F
330
1F
100
AcDbEntity
  8
0
100
AcDbLine
 10
-49.49108234280026
 20
43.5058275842189
 30
0.0
 11
-49.44008440956697
 21
43.03870894712053
 31
0.0
  0
LINE
  5
240
330
1F
100
AcDbEntity
  8
0
100
AcDbLine
 10
-42.69152462174801
 20
60.91595075021846
 30
0.0
 11
-42.69152462174801
 21
-17.11260784672398
 31
0.0
  0
LINE
  5
241
330
1F
100
AcDbEntity
  8
0
100
AcDbLine
 10
-97.6915202217485
 20
60.91595075021846
 30
0.0
 11
-42.69152462174801
 21
60.91595075021846
 31
0.0
  0
LINE
  5
242
330
1F
100
AcDbEntity
  8
0
100
AcDbLine
 10
-97.6915202217485
 20
-17.11260784672398
 30
0.0
 11
-97.6915202217485
 21
13.47686845096775
 31
0.0
  0
LINE
  5
243
330
1F
100
AcDbEntity
  8
0
100
AcDbLine
 10
-42.69152462174801
 20
-17.11260784672398
 30
0.0
 11
-97.6915202217485
 21
-17.11260784672398
 31
0.0
  0
LINE
  5
244
330
1F
100
AcDbEntity
  8
0
100
AcDbLine
 10
-85.59152118974863
 20
20.96595394621813
 30
0.0
 11
-85.73122529078725
 21
22.02711194624578
 31
0.0
  0
LINE
  5
245
330
1F
100
AcDbEntity
  8
0
100
AcDbLine
 10
-85.73122529078725
 20
19.90479594619046
 30
0.0
 11
-85.59152118974863
 21
20.96595394621813
 31
0.0
  0
LINE
  5
246
330
1F
100
AcDbEntity
  8
0
100
AcDbLine
 10
-86.14081699028866
 20
18.91595411021808
 30
0.0
 11
-85.73122529078725
 21
19.90479594619046
 31
0.0
  0
LINE
  5
247
330
1F
100
AcDbEntity
  8
0
100
AcDbLine
 10
-86.79238329081491
 20
18.06681637528427
 30
0.0
 11
-86.14081699028866
 21
18.91595411021808
 31
0.0
  0
LINE
  5
248
330
1F
100
AcDbEntity
  8
0
100
AcDbLine
 10
-87.64152102574855
 20
17.4152500747582
 30
0.0
 11
-86.79238329081491
 21
18.06681637528427
 31
0.0
  0
LINE
  5
249
330
1F
100
AcDbEntity
  8
0
100
AcDbLine
 10
-89.69152086174881
 20
16.86595427421808
 30
0.0
 11
-88.63036286172117
 21
17.0056583752566
 31
0.0
  0
LINE
  5
24A
330
1F
100
AcDbEntity
  8
0
100
AcDbLine
 10
-90.75267886177647
 20
17.0056583752566
 30
0.0
 11
-89.69152086174881
 21
16.86595427421808
 31
0.0
  0
LINE
  5
24B
330
1F
100
AcDbEntity
  8
0
100
AcDbLine
 10
-92.59065843268236
 20
18.06681637528427
 30
0.0
 11
-91.74152069774873
 21
17.4152500747582
 31
0.0
  0
LINE
  5
24C
330
1F
100
AcDbEntity
  8
0
100
AcDbLine
 10
-93.24222473320862
 20
18.91595411021808
 30
0.0
 11
-92.59065843268236
 21
18.06681637528427
 31
0.0
  0
LINE
  5
24D
330
1F
100
AcDbEntity
  8
0
100
AcDbLine
 10
-93.65181643271002
 20
22.02711194624578
 30
0.0
 11
-93.79152053374864
 21
20.96595394621813
 31
0.0
  0
LINE
  5
24E
330
1F
100
AcDbEntity
  8
0
100
AcDbLine
 10
-93.24222473320862
 20
23.01595378221803
 30
0.0
 11
-93.65181643271002
 21
22.02711194624578
 31
0.0
  0
LINE
  5
24F
330
1F
100
AcDbEntity
  8
0
100
AcDbLine
 10
-92.59065843268236
 20
23.86509151715185
 30
0.0
 11
-93.24222473320862
 21
23.01595378221803
 31
0.0
  0
LINE
  5
250
330
1F
100
AcDbEntity
  8
0
100
AcDbLine
 10
-91.74152069774873
 20
24.51665781767787
 30
0.0
 11
-92.59065843268236
 21
23.86509151715185
 31
0.0
  0
LINE
  5
251
330
1F
100
AcDbEntity
  8
0
100
AcDbLine
 10
-88.63036286172117
 20
24.92624951717946
 30
0.0
 11
-89.69152086174881
 21
25.06595361821807
 31
0.0
  0
LINE
  5
252
330
1F
100
AcDbEntity
  8
0
100
AcDbLine
 10
-86.79238329081491
 20
23.86509151715185
 30
0.0
 11
-87.64152102574855
 21
24.51665781767787
 31
0.0
  0
LINE
  5
253
330
1F
100
AcDbEntity
  8
0
100
AcDbLine
 10
-72.74252028865678
 20
2.215955446218071
 30
0.0
 11
-52.37406275632491
 21
2.215955446218341
 31
0.0
  0
LINE
  5
254
330
1F
100
AcDbEntity
  8
0
100
AcDbLine
 10
-72.74252028865678
 20
2.215955446218071
 30
0.0
 11
-72.74252028865678
 21
9.11595489421808
 31
0.0
  0
LINE
  5
255
330
1F
100
AcDbEntity
  8
0
100
AcDbLine
 10
-72.74252028865678
 20
9.11595489421808
 30
0.0
 11
-52.37406275632491
 21
9.11595489421844
 31
0.0
  0
LINE
  5
256
330
1F
100
AcDbEntity
  8
0
100
AcDbLine
 10
-52.37406275632491
 20
9.11595489421844
 30
0.0
 11
-52.37406275632491
 21
2.215955446218341
 31
0.0
  0
LINE
  5
257
330
1F
100
AcDbEntity
  8
0
100
AcDbLine
 10
-72.7425202886575
 20
32.81595299821807
 30
0.0
 11
-72.7425202886575
 21
39.71595244621818
 31
0.0
  0
LINE
  5
258
330
1F
100
AcDbEntity
  8
0
100
AcDbLine
 10
-72.7425202886575
 20
39.71595244621818
 30
0.0
 11
-52.37406275632527
 21
39.71595244621854
 31
0.0
  0
LINE
  5
259
330
1F
100
AcDbEntity
  8
0
100
AcDbLine
 10
-52.37406275632527
 20
39.71595244621854
 30
0.0
 11
-52.37406275632527
 21
32.81595299821844
 31
0.0
  0
LINE
  5
25A
330
1F
100
AcDbEntity
  8
0
100
AcDbLine
 10
-50.49152399774809
 20
-5.584043929781966
 30
0.0
 11
-50.49152399774809
 21
-12.384043385782
 31
0.0
  0
LINE
  5
25B
330
1F
100
AcDbEntity
  8
0
100
AcDbLine
 10
-50.49152399774809
 20
-12.384043385782
 30
0.0
 11
-60.89152316574814
 21
-12.384043385782
 31
0.0
  0
LINE
  5
25C
330
1F
100
AcDbEntity
  8
0
100
AcDbLine
 10
-60.89152316574814
 20
-12.384043385782
 30
0.0
 11
-60.89152316574814
 21
-5.584043929781966
 31
0.0
  0
LINE
  5
25D
330
1F
100
AcDbEntity
  8
0
100
AcDbLine
 10
-60.89152316574814
 20
54.31595127821838
 30
0.0
 11
-50.49152399774809
 21
54.31595127821838
 31
0.0
  0
LINE
  5
25E
330
1F
100
AcDbEntity
  8
0
100
AcDbLine
 10
-50.49152399774809
 20
54.31595127821838
 30
0.0
 11
-50.49152399774809
 21
47.51595182221835
 31
0.0
  0
LINE
  5
25F
330
1F
100
AcDbEntity
  8
0
100
AcDbLine
 10
-50.49152399774809
 20
47.51595182221835
 30
0.0
 11
-60.89152316574814
 21
47.51595182221844
 31
0.0
  0
LINE
  5
260
330
1F
100
AcDbEntity
  8
0
100
AcDbLine
 10
-79.49152167774835
 20
-12.384043385782
 30
0.0
 11
-79.49152167774835
 21
-5.584043929781966
 31
0.0
  0
LINE
  5
261
330
1F
100
AcDbEntity
  8
0
100
AcDbLine
 10
-79.49152167774835
 20
-12.384043385782
 30
0.0
 11
-89.89152084574877
 21
-12.384043385782
 31
0.0
  0
LINE
  5
262
330
1F
100
AcDbEntity
  8
0
100
AcDbLine
 10
-89.89152084574877
 20
-12.384043385782
 30
0.0
 11
-89.89152084574877
 21
-5.584043929781966
 31
0.0
  0
LINE
  5
263
330
1F
100
AcDbEntity
  8
0
100
AcDbLine
 10
-89.89152084574877
 20
-5.584043929781966
 30
0.0
 11
-79.49152167774835
 21
-5.584043929781966
 31
0.0
  0
LINE
  5
264
330
1F
100
AcDbEntity
  8
0
100
AcDbLine
 10
-79.49152167774835
 20
47.51595182221835
 30
0.0
 11
-79.49152167774835
 21
54.31595127821838
 31
0.0
  0
LINE
  5
265
330
1F
100
AcDbEntity
  8
0
100
AcDbLine
 10
-79.49152167774835
 20
47.51595182221835
 30
0.0
 11
-89.89152084574877
 21
47.51595182221835
 31
0.0
  0
LINE
  5
266
330
1F
100
AcDbEntity
  8
0
100
AcDbLine
 10
-89.89152084574877
 20
47.51595182221835
 30
0.0
 11
-89.89152084574877
 21
54.31595127821838
 31
0.0
  0
LINE
  5
267
330
1F
100
AcDbEntity
  8
0
100
AcDbLine
 10
-89.89152084574877
 20
54.31595127821838
 30
0.0
 11
-79.49152167774835
 21
54.31595127821838
 31
0.0
  0
LINE
  5
268
330
1F
100
AcDbEntity
  8
0
100
AcDbLine
 10
-91.25036646385303
 20
36.51595270221816
 30
0.0
 11
-90.9643129660612
 21
36.14316052590575
 31
0.0
  0
LINE
  5
269
330
1F
100
AcDbEntity
  8
0
100
AcDbLine
 10
-91.43018720997583
 20
36.95007838630352
 30
0.0
 11
-91.25036646385303
 21
36.51595270221816
 31
0.0
  0
LINE
  5
26A
330
1F
100
AcDbEntity
  8
0
100
AcDbLine
 10
-91.49152071774878
 20
37.41595263021814
 30
0.0
 11
-91.43018720997583
 21
36.95007838630352
 31
0.0
  0
LINE
  5
26B
330
1F
100
AcDbEntity
  8
0
100
AcDbLine
 10
-91.43018720997583
 20
37.88182687413276
 30
0.0
 11
-91.49152071774878
 21
37.41595263021814
 31
0.0
  0
LINE
  5
26C
330
1F
100
AcDbEntity
  8
0
100
AcDbLine
 10
-91.25036646385303
 20
38.31595255821813
 30
0.0
 11
-91.43018720997583
 21
37.88182687413276
 31
0.0
  0
LINE
  5
26D
330
1F
100
AcDbEntity
  8
0
100
AcDbLine
 10
-89.69152086174881
 20
35.61595277421818
 30
0.0
 11
-89.2256466178342
 21
35.67728628199121
 31
0.0
  0
LINE
  5
26E
330
1F
100
AcDbEntity
  8
0
100
AcDbLine
 10
-90.15739510566344
 20
35.67728628199121
 30
0.0
 11
-89.69152086174881
 21
35.61595277421818
 31
0.0
  0
LINE
  5
26F
330
1F
100
AcDbEntity
  8
0
100
AcDbLine
 10
-90.5915207897488
 20
35.85710702811384
 30
0.0
 11
-90.15739510566344
 21
35.67728628199121
 31
0.0
  0
LINE
  5
270
330
1F
100
AcDbEntity
  8
0
100
AcDbLine
 10
-90.9643129660612
 20
36.14316052590575
 30
0.0
 11
-90.5915207897488
 21
35.85710702811384
 31
0.0
  0
LINE
  5
271
330
1F
100
AcDbEntity
  8
0
100
AcDbLine
 10
-49.44008440956697
 20
43.03870894712053
 30
0.0
 11
-49.26992498916599
 21
42.60070622798786
 31
0.0
  0
LINE
  5
272
330
1F
100
AcDbEntity
  8
0
100
AcDbLine
 10
-46.44724066382575
 20
42.16527620307041
 30
0.0
 11
-46.15299889233064
 21
42.53163994339709
 31
0.0
  0
LINE
  5
273
330
1F
100
AcDbEntity
  8
0
100
AcDbLine
 10
-46.82627830351751
 20
41.88755137880062
 30
0.0
 11
-46.44724066382575
 21
42.16527620307041
 31
0.0
  0
LINE
  5
274
330
1F
100
AcDbEntity
  8
0
100
AcDbLine
 10
-47.26428102265018
 20
41.71739195839981
 30
0.0
 11
-46.82627830351751
 21
41.88755137880062
 31
0.0
  0
LINE
  5
275
330
1F
100
AcDbEntity
  8
0
100
AcDbLine
 10
-47.73139965974855
 20
41.66639402516643
 30
0.0
 11
-47.26428102265018
 21
41.71739195839981
 31
0.0
  0
LINE
  5
276
330
1F
100
AcDbEntity
  8
0
100
AcDbLine
 10
-48.19580085164446
 20
41.73803300397242
 30
0.0
 11
-47.73139965974855
 21
41.66639402516643
 31
0.0
  0
LINE
  5
277
330
1F
100
AcDbEntity
  8
0
100
AcDbLine
 10
-48.62583642456951
 20
41.92742681680099
 30
0.0
 11
-48.19580085164446
 21
41.73803300397242
 31
0.0
  0
LINE
  5
278
330
1F
100
AcDbEntity
  8
0
100
AcDbLine
 10
-48.99220016489619
 20
42.2216685882961
 30
0.0
 11
-48.62583642456951
 21
41.92742681680099
 31
0.0
  0
LINE
  5
279
330
1F
100
AcDbEntity
  8
0
100
AcDbLine
 10
-49.26992498916599
 20
42.60070622798786
 30
0.0
 11
-48.99220016489619
 21
42.2216685882961
 31
0.0
  0
LINE
  5
27A
330
1F
100
AcDbEntity
  8
0
100
AcDbLine
 10
-88.41872875743643
 20
5.788747366530452
 30
0.0
 11
-88.79152093374884
 21
6.074800864322364
 31
0.0
  0
LINE
  5
27B
330
1F
100
AcDbEntity
  8
0
100
AcDbLine
 10
-88.1326752596446
 20
5.41595519021804
 30
0.0
 11
-88.41872875743643
 21
5.788747366530452
 31
0.0
  0
LINE
  5
27C
330
1F
100
AcDbEntity
  8
0
100
AcDbLine
 10
-87.95285451352181
 20
4.981829506132636
 30
0.0
 11
-88.1326752596446
 21
5.41595519021804
 31
0.0
  0
LINE
  5
27D
330
1F
100
AcDbEntity
  8
0
100
AcDbLine
 10
-87.89152100574886
 20
4.515955262218059
 30
0.0
 11
-87.95285451352181
 21
4.981829506132636
 31
0.0
  0
LINE
  5
27E
330
1F
100
AcDbEntity
  8
0
100
AcDbLine
 10
-88.41872875743643
 20
3.243163157905665
 30
0.0
 11
-88.1326752596446
 21
3.615955334218077
 31
0.0
  0
LINE
  5
27F
330
1F
100
AcDbEntity
  8
0
100
AcDbLine
 10
-88.79152093374884
 20
2.957109660113753
 30
0.0
 11
-88.41872875743643
 21
3.243163157905665
 31
0.0
  0
LINE
  5
280
330
1F
100
AcDbEntity
  8
0
100
AcDbLine
 10
-89.2256466178342
 20
2.777288913991089
 30
0.0
 11
-88.79152093374884
 21
2.957109660113753
 31
0.0
  0
LINE
  5
281
330
1F
100
AcDbEntity
  8
0
100
AcDbLine
 10
-49.26992498916292
 20
-0.6687983355451146
 30
0.0
 11
-49.44008440956534
 21
-1.106801054677154
 31
0.0
  0
LINE
  5
282
330
1F
100
AcDbEntity
  8
0
100
AcDbLine
 10
-48.99220016489168
 20
-0.289760695854444
 30
0.0
 11
-49.26992498916292
 21
-0.6687983355451146
 31
0.0
  0
LINE
  5
283
330
1F
100
AcDbEntity
  8
0
100
AcDbLine
 10
-48.62583642456392
 20
0.0044810756393184
 30
0.0
 11
-48.99220016489168
 21
-0.289760695854444
 31
0.0
  0
LINE
  5
284
330
1F
100
AcDbEntity
  8
0
100
AcDbLine
 10
-48.19580085163815
 20
0.1938748884663558
 30
0.0
 11
-48.62583642456392
 21
0.0044810756393184
 31
0.0
  0
LINE
  5
285
330
1F
100
AcDbEntity
  8
0
100
AcDbLine
 10
-47.73139965974188
 20
0.2655138672705854
 30
0.0
 11
-48.19580085163815
 21
0.1938748884663558
 31
0.0
  0
LINE
  5
286
330
1F
100
AcDbEntity
  8
0
100
AcDbLine
 10
-47.26428102264369
 20
0.214515934035488
 30
0.0
 11
-47.73139965974188
 21
0.2655138672705854
 31
0.0
  0
LINE
  5
287
330
1F
100
AcDbEntity
  8
0
100
AcDbLine
 10
-46.82627830351164
 20
0.0443565136330179
 30
0.0
 11
-47.26428102264369
 21
0.214515934035488
 31
0.0
  0
LINE
  5
288
330
1F
100
AcDbEntity
  8
0
100
AcDbLine
 10
-46.44724066382088
 20
-0.2333683106381778
 30
0.0
 11
-46.82627830351164
 21
0.0443565136330179
 31
0.0
  0
LINE
  5
289
330
1F
100
AcDbEntity
  8
0
100
AcDbLine
 10
-46.15299889232712
 20
-0.5997320509659876
 30
0.0
 11
-46.44724066382088
 21
-0.2333683106381778
 31
0.0
  0
LINE
  5
28A
330
1F
100
AcDbEntity
  8
0
100
AcDbLine
 10
-45.96360507950008
 20
-1.029767623891755
 30
0.0
 11
-46.15299889232712
 21
-0.5997320509659876
 31
0.0
  0
LINE
  5
28B
330
1F
100
AcDbEntity
  8
0
100
AcDbLine
 10
-45.8919661006959
 20
-1.494168815787988
 30
0.0
 11
-45.96360507950008
 21
-1.029767623891755
 31
0.0
  0
LINE
  5
28C
330
1F
100
AcDbEntity
  8
0
100
AcDbLine
 10
-45.94296403393099
 20
-1.961287452886221
 30
0.0
 11
-45.8919661006959
 21
-1.494168815787988
 31
0.0
  0
LINE
  5
28D
330
1F
100
AcDbEntity
  8
0
100
AcDbLine
 10
-46.11312345433342
 20
-2.39929017201826
 30
0.0
 11
-45.94296403393099
 21
-1.961287452886221
 31
0.0
  0
LINE
  5
28E
330
1F
100
AcDbEntity
  8
0
100
AcDbLine
 10
-46.39084827860466
 20
-2.778327811708931
 30
0.0
 11
-46.11312345433342
 21
-2.39929017201826
 31
0.0
  0
LINE
  5
28F
330
1F
100
AcDbEntity
  8
0
100
AcDbLine
 10
-46.75721201893242
 20
-3.072569583202693
 30
0.0
 11
-46.39084827860466
 21
-2.778327811708931
 31
0.0
  0
LINE
  5
290
330
1F
100
AcDbEntity
  8
0
100
AcDbLine
 10
-47.18724759185819
 20
-3.261963396029731
 30
0.0
 11
-46.75721201893242
 21
-3.072569583202693
 31
0.0
  0
LINE
  5
291
330
1F
100
AcDbEntity
  8
0
100
AcDbLine
 10
-47.65164878375447
 20
-3.333602374833961
 30
0.0
 11
-47.18724759185819
 21
-3.261963396029731
 31
0.0
  0
LINE
  5
292
330
1F
100
AcDbEntity
  8
0
100
AcDbLine
 10
-48.11876742085266
 20
-3.282604441598863
 30
0.0
 11
-47.65164878375447
 21
-3.333602374833961
 31
0.0
  0
LINE
  5
293
330
1F
100
AcDbEntity
  8
0
100
AcDbLine
 10
-48.5567701399847
 20
-3.112445021196393
 30
0.0
 11
-48.11876742085266
 21
-3.282604441598863
 31
0.0
  0
LINE
  5
294
330
1F
100
AcDbEntity
  8
0
100
AcDbLine
 10
-48.93580777967536
 20
-2.834720196925197
 30
0.0
 11
-48.5567701399847
 21
-3.112445021196393
 31
0.0
  0
LINE
  5
295
330
1F
100
AcDbEntity
  8
0
100
AcDbLine
 10
-49.23004955116922
 20
-2.468356456597387
 30
0.0
 11
-48.93580777967536
 21
-2.834720196925197
 31
0.0
  0
LINE
  5
296
330
1F
100
AcDbEntity
  8
0
100
AcDbLine
 10
0.477707708609755
 20
58.59606154103845
 30
0.0
 11
0.477707708609755
 21
62.59606122103847
 31
0.0
  0
LINE
  5
297
330
1F
100
AcDbEntity
  8
0
100
AcDbLine
 10
0.477707708609755
 20
62.59606122103847
 30
0.0
 11
16.67770141649578
 21
62.59606122103847
 31
0.0
  0
LINE
  5
298
330
1F
100
AcDbEntity
  8
0
100
AcDbLine
 10
16.67770141649578
 20
62.59606122103847
 30
0.0
 11
16.67770141649578
 21
58.59606154103845
 31
0.0
  0
LINE
  5
299
330
1F
100
AcDbEntity
  8
0
100
AcDbLine
 10
16.71177558748085
 20
58.33724251664144
 30
0.0
 11
16.67770141649578
 21
58.59606154103845
 31
0.0
  0
LINE
  5
29A
330
1F
100
AcDbEntity
  8
0
100
AcDbLine
 10
16.81167600199338
 20
58.09606158103848
 30
0.0
 11
16.71177558748085
 21
58.33724251664144
 31
0.0
  0
LINE
  5
29B
330
1F
100
AcDbEntity
  8
0
100
AcDbLine
 10
16.97059461187786
 20
57.88895481642049
 30
0.0
 11
16.81167600199338
 21
58.09606158103848
 31
0.0
  0
LINE
  5
29C
330
1F
100
AcDbEntity
  8
0
100
AcDbLine
 10
23.44372627899801
 20
78.80063259176748
 30
0.0
 11
23.28480766911353
 21
78.5935258271495
 31
0.0
  0
LINE
  5
29D
330
1F
100
AcDbEntity
  8
0
100
AcDbLine
 10
23.54362669351054
 20
79.04181352737045
 30
0.0
 11
23.44372627899801
 21
78.80063259176748
 31
0.0
  0
LINE
  5
29E
330
1F
100
AcDbEntity
  8
0
100
AcDbLine
 10
23.57770086449561
 20
79.30063255176746
 30
0.0
 11
23.54362669351054
 21
79.04181352737045
 31
0.0
  0
LINE
  5
29F
330
1F
100
AcDbEntity
  8
0
100
AcDbLine
 10
18.57770126449554
 20
94.80063131176746
 30
0.0
 11
18.57770126449554
 21
90.80063163176746
 31
0.0
  0
LINE
  5
2A0
330
1F
100
AcDbEntity
  8
0
100
AcDbLine
 10
18.57770126449554
 20
94.80063131176746
 30
0.0
 11
18.54362709351047
 21
95.05945033616449
 31
0.0
  0
LINE
  5
2A1
330
1F
100
AcDbEntity
  8
0
100
AcDbLine
 10
18.54362709351047
 20
95.05945033616449
 30
0.0
 11
18.44372667899794
 21
95.30063127176744
 31
0.0
  0
LINE
  5
2A2
330
1F
100
AcDbEntity
  8
0
100
AcDbLine
 10
48.6807343468609
 20
3.24316315790562
 30
0.0
 11
48.96678784465282
 21
3.615955334218032
 31
0.0
  0
LINE
  5
2A3
330
1F
100
AcDbEntity
  8
0
100
AcDbLine
 10
46.50794231454835
 20
2.957109660113663
 30
0.0
 11
46.9420679986338
 21
2.777288913990998
 31
0.0
  0
LINE
  5
2A4
330
1F
100
AcDbEntity
  8
0
100
AcDbLine
 10
46.13515013823594
 20
3.24316315790562
 30
0.0
 11
46.50794231454835
 21
2.957109660113663
 31
0.0
  0
LINE
  5
2A5
330
1F
100
AcDbEntity
  8
0
100
AcDbLine
 10
45.84909664044402
 20
3.615955334218032
 30
0.0
 11
46.13515013823594
 21
3.24316315790562
 31
0.0
  0
LINE
  5
2A6
330
1F
100
AcDbEntity
  8
0
100
AcDbLine
 10
45.66927589432141
 20
4.050081018303437
 30
0.0
 11
45.84909664044402
 21
3.615955334218032
 31
0.0
  0
LINE
  5
2A7
330
1F
100
AcDbEntity
  8
0
100
AcDbLine
 10
51.50794191454797
 20
20.96595394621939
 30
0.0
 11
51.36823781350945
 21
22.02711194624705
 31
0.0
  0
LINE
  5
2A8
330
1F
100
AcDbEntity
  8
0
100
AcDbLine
 10
-63.47855206443178
 20
-39.02719890650936
 30
0.0
 11
-64.92563767804977
 21
-39.62660139358498
 31
0.0
  0
LINE
  5
2A9
330
1F
100
AcDbEntity
  8
0
100
AcDbLine
 10
-44.4256393180496
 20
-43.26390779849511
 30
0.0
 11
-44.79843149436219
 21
-43.54996129628702
 31
0.0
  0
LINE
  5
2AA
330
1F
100
AcDbEntity
  8
0
100
AcDbLine
 10
-44.4256393180496
 20
-46.38159900270372
 30
0.0
 11
-43.99151363396424
 21
-46.56141974882639
 31
0.0
  0
LINE
  5
2AB
330
1F
100
AcDbEntity
  8
0
100
AcDbLine
 10
-76.32756055454266
 20
-43.32275352059939
 30
0.0
 11
-76.80431638419576
 21
-42.70143322674538
 31
0.0
  0
LINE
  5
2AC
330
1F
100
AcDbEntity
  8
0
100
AcDbLine
 10
-42.25284728573732
 20
-43.54996129628702
 30
0.0
 11
-42.62563946204973
 21
-43.26390779849511
 31
0.0
  0
LINE
  5
2AD
330
1F
100
AcDbEntity
  8
0
100
AcDbLine
 10
45.84909664044358
 20
38.31595255821948
 30
0.0
 11
45.66927589432095
 21
37.88182687413403
 31
0.0
  0
LINE
  5
2AE
330
1F
100
AcDbEntity
  8
0
100
AcDbLine
 10
46.13515013823549
 20
38.68874473453189
 30
0.0
 11
45.84909664044358
 21
38.31595255821948
 31
0.0
  0
LINE
  5
2AF
330
1F
100
AcDbEntity
  8
0
100
AcDbLine
 10
46.50794231454799
 20
38.9747982323238
 30
0.0
 11
46.13515013823549
 21
38.68874473453189
 31
0.0
  0
LINE
  5
2B0
330
1F
100
AcDbEntity
  8
0
100
AcDbLine
 10
46.94206799863334
 20
39.15461897844642
 30
0.0
 11
46.50794231454799
 21
38.9747982323238
 31
0.0
  0
LINE
  5
2B1
330
1F
100
AcDbEntity
  8
0
100
AcDbLine
 10
47.40794224254797
 20
39.21595248621946
 30
0.0
 11
46.94206799863334
 21
39.15461897844642
 31
0.0
  0
LINE
  5
2B2
330
1F
100
AcDbEntity
  8
0
100
AcDbLine
 10
47.87381648646259
 20
39.15461897844642
 30
0.0
 11
47.40794224254797
 21
39.21595248621946
 31
0.0
  0
LINE
  5
2B3
330
1F
100
AcDbEntity
  8
0
100
AcDbLine
 10
48.30794217054804
 20
38.9747982323238
 30
0.0
 11
47.87381648646259
 21
39.15461897844642
 31
0.0
  0
LINE
  5
2B4
330
1F
100
AcDbEntity
  8
0
100
AcDbLine
 10
91.15736270127616
 20
-1.110351223310259
 30
0.0
 11
90.98809270461992
 21
-0.6720040109879378
 31
0.0
  0
LINE
  5
2B5
330
1F
100
AcDbEntity
  8
0
100
AcDbLine
 10
91.20741235574565
 20
-1.577572415473274
 30
0.0
 11
91.15736270127616
 21
-1.110351223310259
 31
0.0
  0
LINE
  5
2B6
330
1F
100
AcDbEntity
  8
0
100
AcDbLine
 10
91.13483086678735
 20
-2.041827235350617
 30
0.0
 11
91.20741235574565
 21
-1.577572415473274
 31
0.0
  0
LINE
  5
2B7
330
1F
100
AcDbEntity
  8
0
100
AcDbLine
 10
90.94456454292703
 20
-2.471477484184969
 30
0.0
 11
91.13483086678735
 21
-2.041827235350617
 31
0.0
  0
LINE
  5
2B8
330
1F
100
AcDbEntity
  8
0
100
AcDbLine
 10
90.64957971970597
 20
-2.837243207548948
 30
0.0
 11
90.94456454292703
 21
-2.471477484184969
 31
0.0
  0
LINE
  5
2B9
330
1F
100
AcDbEntity
  8
0
100
AcDbLine
 10
90.26997912534105
 20
-3.114198075851677
 30
0.0
 11
90.64957971970597
 21
-2.837243207548948
 31
0.0
  0
LINE
  5
2BA
330
1F
100
AcDbEntity
  8
0
100
AcDbLine
 10
-1.097863104454424
 20
95.50773803638545
 30
0.0
 11
-0.890756339836437
 21
95.66665664626993
 31
0.0
  0
LINE
  5
2BB
330
1F
100
AcDbEntity
  8
0
100
AcDbLine
 10
90.70920584468743
 20
44.70961760559613
 30
0.0
 11
90.34298194155245
 21
45.00403340525927
 31
0.0
  0
LINE
  5
2BC
330
1F
100
AcDbEntity
  8
0
100
AcDbLine
 10
90.34298194155245
 20
45.00403340525927
 30
0.0
 11
89.9130363991781
 21
45.19363150891839
 31
0.0
  0
LINE
  5
2BD
330
1F
100
AcDbEntity
  8
0
100
AcDbLine
 10
49.20794209854847
 20
4.515955262218059
 30
0.0
 11
49.14660859077543
 21
4.98182950613268
 31
0.0
  0
LINE
  5
2BE
330
1F
100
AcDbEntity
  8
0
100
AcDbLine
 10
49.14660859077543
 20
4.98182950613268
 30
0.0
 11
48.96678784465282
 21
5.415955190218085
 31
0.0
  0
LINE
  5
2BF
330
1F
100
AcDbEntity
  8
0
100
AcDbLine
 10
48.96678784465282
 20
5.415955190218085
 30
0.0
 11
48.6807343468609
 21
5.788747366530496
 31
0.0
  0
LINE
  5
2C0
330
1F
100
AcDbEntity
  8
0
100
AcDbLine
 10
48.6807343468609
 20
5.788747366530496
 30
0.0
 11
48.30794217054849
 21
6.074800864322454
 31
0.0
  0
LINE
  5
2C1
330
1F
100
AcDbEntity
  8
0
100
AcDbLine
 10
48.30794217054849
 20
6.074800864322454
 30
0.0
 11
47.87381648646304
 21
6.25462161044512
 31
0.0
  0
LINE
  5
2C2
330
1F
100
AcDbEntity
  8
0
100
AcDbLine
 10
47.87381648646304
 20
6.25462161044512
 30
0.0
 11
47.40794224254842
 21
6.315955118218112
 31
0.0
  0
LINE
  5
2C3
330
1F
100
AcDbEntity
  8
0
100
AcDbLine
 10
47.40794224254842
 20
6.315955118218112
 30
0.0
 11
46.9420679986338
 21
6.25462161044512
 31
0.0
  0
LINE
  5
2C4
330
1F
100
AcDbEntity
  8
0
100
AcDbLine
 10
46.9420679986338
 20
6.25462161044512
 30
0.0
 11
46.50794231454844
 21
6.074800864322454
 31
0.0
  0
LINE
  5
2C5
330
1F
100
AcDbEntity
  8
0
100
AcDbLine
 10
46.50794231454844
 20
6.074800864322454
 30
0.0
 11
46.13515013823594
 21
5.788747366530496
 31
0.0
  0
LINE
  5
2C6
330
1F
100
AcDbEntity
  8
0
100
AcDbLine
 10
46.13515013823594
 20
5.788747366530496
 30
0.0
 11
45.84909664044402
 21
5.415955190218085
 31
0.0
  0
LINE
  5
2C7
330
1F
100
AcDbEntity
  8
0
100
AcDbLine
 10
45.84909664044402
 20
5.415955190218085
 30
0.0
 11
45.66927589432141
 21
4.98182950613268
 31
0.0
  0
LINE
  5
2C8
330
1F
100
AcDbEntity
  8
0
100
AcDbLine
 10
88.1066719204098
 20
42.22228668684326
 30
0.0
 11
88.47289582354477
 21
41.92787088718012
 31
0.0
  0
LINE
  5
2C9
330
1F
100
AcDbEntity
  8
0
100
AcDbLine
 10
88.47289582354477
 20
41.92787088718012
 30
0.0
 11
88.90284136591913
 21
41.738272783521
 31
0.0
  0
LINE
  5
2CA
330
1F
100
AcDbEntity
  8
0
100
AcDbLine
 10
88.90284136591913
 20
41.738272783521
 30
0.0
 11
89.36720846933876
 21
41.66641317330473
 31
0.0
  0
LINE
  5
2CB
330
1F
100
AcDbEntity
  8
0
100
AcDbLine
 10
89.36720846933876
 20
41.66641317330473
 30
0.0
 11
89.8343512831084
 21
41.71718917021386
 31
0.0
  0
LINE
  5
2CC
330
1F
100
AcDbEntity
  8
0
100
AcDbLine
 10
89.8343512831084
 20
41.71718917021386
 30
0.0
 11
90.27243479645975
 21
41.88714047397027
 31
0.0
  0
LINE
  5
2CD
330
1F
100
AcDbEntity
  8
0
100
AcDbLine
 10
90.27243479645975
 20
41.88714047397027
 30
0.0
 11
90.65160434192505
 21
42.16468518408088
 31
0.0
  0
LINE
  5
2CE
330
1F
100
AcDbEntity
  8
0
100
AcDbLine
 10
90.65160434192505
 20
42.16468518408088
 30
0.0
 11
90.94602014158818
 21
42.53090908721587
 31
0.0
  0
LINE
  5
2CF
330
1F
100
AcDbEntity
  8
0
100
AcDbLine
 10
90.94602014158818
 20
42.53090908721587
 30
0.0
 11
91.13561824524731
 21
42.96085462959021
 31
0.0
  0
LINE
  5
2D0
330
1F
100
AcDbEntity
  8
0
100
AcDbLine
 10
91.13561824524731
 20
42.96085462959021
 30
0.0
 11
91.20747785546357
 21
43.42522173300984
 31
0.0
  0
LINE
  5
2D1
330
1F
100
AcDbEntity
  8
0
100
AcDbLine
 10
91.20747785546357
 20
43.42522173300984
 30
0.0
 11
91.15670185855446
 21
43.89236454677949
 31
0.0
  0
LINE
  5
2D2
330
1F
100
AcDbEntity
  8
0
100
AcDbLine
 10
91.15670185855446
 20
43.89236454677949
 30
0.0
 11
90.98675055479805
 21
44.33044806013082
 31
0.0
  0
LINE
  5
2D3
330
1F
100
AcDbEntity
  8
0
100
AcDbLine
 10
90.98675055479805
 20
44.33044806013082
 30
0.0
 11
90.70920584468743
 21
44.70961760559613
 31
0.0
  0
LINE
  5
2D4
330
1F
100
AcDbEntity
  8
0
100
AcDbLine
 10
-6.390755899836394
 20
70.09606062103845
 30
0.0
 11
-6.390755899836394
 21
58.59606154103845
 31
0.0
  0
LINE
  5
2D5
330
1F
100
AcDbEntity
  8
0
100
AcDbLine
 10
-6.356681728851322
 20
58.33724251664144
 30
0.0
 11
-6.390755899836394
 21
58.59606154103845
 31
0.0
  0
LINE
  5
2D6
330
1F
100
AcDbEntity
  8
0
100
AcDbLine
 10
-5.390755979836345
 20
57.59606162103841
 30
0.0
 11
-5.649575004233357
 21
57.63013579202347
 31
0.0
  0
LINE
  5
2D7
330
1F
100
AcDbEntity
  8
0
100
AcDbLine
 10
-5.390755979836345
 20
57.59606162103841
 30
0.0
 11
-0.5222922113902949
 21
57.59606162103841
 31
0.0
  0
LINE
  5
2D8
330
1F
100
AcDbEntity
  8
0
100
AcDbLine
 10
-0.6495754042332889
 20
75.06198605005343
 30
0.0
 11
-0.3907563798362769
 21
75.0960602210385
 31
0.0
  0
LINE
  5
2D9
330
1F
100
AcDbEntity
  8
0
100
AcDbLine
 10
-1.097863104454243
 20
74.80316702565642
 30
0.0
 11
-0.8907563398362566
 21
74.96208563554092
 31
0.0
  0
LINE
  5
2DA
330
1F
100
AcDbEntity
  8
0
100
AcDbLine
 10
-1.390756299836327
 20
70.09606062103845
 30
0.0
 11
-1.390756299836327
 21
74.09606030103846
 31
0.0
  0
LINE
  5
2DB
330
1F
100
AcDbEntity
  8
0
100
AcDbLine
 10
-6.390755899836394
 20
70.09606062103845
 30
0.0
 11
-1.390756299836327
 21
70.09606062103845
 31
0.0
  0
LINE
  5
2DC
330
1F
100
AcDbEntity
  8
0
100
AcDbLine
 10
18.57770126449572
 20
74.09606030103846
 30
0.0
 11
18.54362709351065
 21
74.35487932543548
 31
0.0
  0
LINE
  5
2DD
330
1F
100
AcDbEntity
  8
0
100
AcDbLine
 10
18.54362709351065
 20
74.35487932543548
 30
0.0
 11
18.44372667899813
 21
74.59606026103845
 31
0.0
  0
LINE
  5
2DE
330
1F
100
AcDbEntity
  8
0
100
AcDbLine
 10
18.44372667899813
 20
74.59606026103845
 30
0.0
 11
18.28480806911364
 21
74.80316702565642
 31
0.0
  0
LINE
  5
2DF
330
1F
100
AcDbEntity
  8
0
100
AcDbLine
 10
18.28480806911364
 20
74.80316702565642
 30
0.0
 11
18.07770130449565
 21
74.96208563554092
 31
0.0
  0
LINE
  5
2E0
330
1F
100
AcDbEntity
  8
0
100
AcDbLine
 10
18.07770130449565
 20
74.96208563554092
 30
0.0
 11
17.83652036889268
 21
75.06198605005343
 31
0.0
  0
LINE
  5
2E1
330
1F
100
AcDbEntity
  8
0
100
AcDbLine
 10
-0.3907563798362769
 20
75.0960602210385
 30
0.0
 11
17.57770134449567
 21
75.0960602210385
 31
0.0
  0
LINE
  5
2E2
330
1F
100
AcDbEntity
  8
0
100
AcDbLine
 10
23.57770086449579
 20
58.59606154103845
 30
0.0
 11
23.57770086449579
 21
70.09606062103845
 31
0.0
  0
LINE
  5
2E3
330
1F
100
AcDbEntity
  8
0
100
AcDbLine
 10
18.57770126449572
 20
70.09606062103845
 30
0.0
 11
23.57770086449579
 21
70.09606062103845
 31
0.0
  0
LINE
  5
2E4
330
1F
100
AcDbEntity
  8
0
100
AcDbLine
 10
18.57770126449572
 20
74.09606030103846
 30
0.0
 11
18.57770126449572
 21
70.09606062103845
 31
0.0
  0
LINE
  5
2E5
330
1F
100
AcDbEntity
  8
0
100
AcDbLine
 10
17.83652036889268
 20
75.06198605005343
 30
0.0
 11
17.57770134449567
 21
75.0960602210385
 31
0.0
  0
LINE
  5
2E6
330
1F
100
AcDbEntity
  8
0
100
AcDbLine
 10
-0.8907563398362566
 20
74.96208563554092
 30
0.0
 11
-0.6495754042332889
 21
75.06198605005343
 31
0.0
  0
LINE
  5
2E7
330
1F
100
AcDbEntity
  8
0
100
AcDbLine
 10
-1.256781714338729
 20
74.59606026103845
 30
0.0
 11
-1.097863104454243
 21
74.80316702565642
 31
0.0
  0
LINE
  5
2E8
330
1F
100
AcDbEntity
  8
0
100
AcDbLine
 10
-1.356682128851255
 20
74.35487932543548
 30
0.0
 11
-1.256781714338729
 21
74.59606026103845
 31
0.0
  0
LINE
  5
2E9
330
1F
100
AcDbEntity
  8
0
100
AcDbLine
 10
-1.390756299836327
 20
74.09606030103846
 30
0.0
 11
-1.356682128851255
 21
74.35487932543548
 31
0.0
  0
LINE
  5
2EA
330
1F
100
AcDbEntity
  8
0
100
AcDbLine
 10
-6.256781314338797
 20
58.09606158103848
 30
0.0
 11
-6.356681728851322
 21
58.33724251664144
 31
0.0
  0
LINE
  5
2EB
330
1F
100
AcDbEntity
  8
0
100
AcDbLine
 10
-6.097862704454312
 20
57.88895481642049
 30
0.0
 11
-6.256781314338797
 21
58.09606158103848
 31
0.0
  0
LINE
  5
2EC
330
1F
100
AcDbEntity
  8
0
100
AcDbLine
 10
-5.890755939836325
 20
57.730036206536
 30
0.0
 11
-6.097862704454312
 21
57.88895481642049
 31
0.0
  0
LINE
  5
2ED
330
1F
100
AcDbEntity
  8
0
100
AcDbLine
 10
-5.649575004233357
 20
57.63013579202347
 30
0.0
 11
-5.890755939836325
 21
57.730036206536
 31
0.0
  0
LINE
  5
2EE
330
1F
100
AcDbEntity
  8
0
100
AcDbLine
 10
17.17770137649585
 20
57.730036206536
 30
0.0
 11
16.97059461187786
 21
57.88895481642049
 31
0.0
  0
LINE
  5
2EF
330
1F
100
AcDbEntity
  8
0
100
AcDbLine
 10
17.41888231209882
 20
57.63013579202347
 30
0.0
 11
17.17770137649585
 21
57.730036206536
 31
0.0
  0
LINE
  5
2F0
330
1F
100
AcDbEntity
  8
0
100
AcDbLine
 10
17.67770133649583
 20
57.59606162103841
 30
0.0
 11
17.41888231209882
 21
57.63013579202347
 31
0.0
  0
LINE
  5
2F1
330
1F
100
AcDbEntity
  8
0
100
AcDbLine
 10
17.67770133649583
 20
57.59606162103841
 30
0.0
 11
22.57770094449574
 21
57.59606162103841
 31
0.0
  0
LINE
  5
2F2
330
1F
100
AcDbEntity
  8
0
100
AcDbLine
 10
22.83651996889275
 20
57.63013579202347
 30
0.0
 11
22.57770094449574
 21
57.59606162103841
 31
0.0
  0
LINE
  5
2F3
330
1F
100
AcDbEntity
  8
0
100
AcDbLine
 10
23.07770090449572
 20
57.730036206536
 30
0.0
 11
22.83651996889275
 21
57.63013579202347
 31
0.0
  0
LINE
  5
2F4
330
1F
100
AcDbEntity
  8
0
100
AcDbLine
 10
23.28480766911371
 20
57.88895481642049
 30
0.0
 11
23.07770090449572
 21
57.730036206536
 31
0.0
  0
LINE
  5
2F5
330
1F
100
AcDbEntity
  8
0
100
AcDbLine
 10
23.4437262789982
 20
58.09606158103848
 30
0.0
 11
23.28480766911371
 21
57.88895481642049
 31
0.0
  0
LINE
  5
2F6
330
1F
100
AcDbEntity
  8
0
100
AcDbLine
 10
23.54362669351072
 20
58.33724251664144
 30
0.0
 11
23.4437262789982
 21
58.09606158103848
 31
0.0
  0
LINE
  5
2F7
330
1F
100
AcDbEntity
  8
0
100
AcDbLine
 10
23.57770086449579
 20
58.59606154103845
 30
0.0
 11
23.54362669351072
 21
58.33724251664144
 31
0.0
  0
LINE
  5
2F8
330
1F
100
AcDbEntity
  8
0
100
AcDbLine
 10
18.44372667899794
 20
95.30063127176744
 30
0.0
 11
18.28480806911346
 21
95.50773803638545
 31
0.0
  0
LINE
  5
2F9
330
1F
100
AcDbEntity
  8
0
100
AcDbLine
 10
17.67770133649565
 20
78.30063263176741
 30
0.0
 11
22.57770094449556
 21
78.30063263176741
 31
0.0
  0
LINE
  5
2FA
330
1F
100
AcDbEntity
  8
0
100
AcDbLine
 10
23.28480766911353
 20
78.5935258271495
 30
0.0
 11
23.07770090449554
 21
78.43460721726501
 31
0.0
  0
LINE
  5
2FB
330
1F
100
AcDbEntity
  8
0
100
AcDbLine
 10
18.07770130449547
 20
95.66665664626993
 30
0.0
 11
17.8365203688925
 21
95.76655706078245
 31
0.0
  0
LINE
  5
2FC
330
1F
100
AcDbEntity
  8
0
100
AcDbLine
 10
18.28480806911346
 20
95.50773803638545
 30
0.0
 11
18.07770130449547
 21
95.66665664626993
 31
0.0
  0
LINE
  5
2FD
330
1F
100
AcDbEntity
  8
0
100
AcDbLine
 10
16.71177558748067
 20
79.04181352737045
 30
0.0
 11
16.8116760019932
 21
78.80063259176748
 31
0.0
  0
LINE
  5
2FE
330
1F
100
AcDbEntity
  8
0
100
AcDbLine
 10
16.6777014164956
 20
79.30063255176746
 30
0.0
 11
16.71177558748067
 21
79.04181352737045
 31
0.0
  0
LINE
  5
2FF
330
1F
100
AcDbEntity
  8
0
100
AcDbLine
 10
23.57770086449561
 20
79.30063255176746
 30
0.0
 11
23.57770086449561
 21
90.80063163176746
 31
0.0
  0
LINE
  5
300
330
1F
100
AcDbEntity
  8
0
100
AcDbLine
 10
-17.79857596132267
 20
-57.6554291857823
 30
0.0
 11
-17.53975693692565
 21
-57.62135501479732
 31
0.0
  0
LINE
  5
301
330
1F
100
AcDbEntity
  8
0
100
AcDbLine
 10
87.82912721029919
 20
42.60145623230856
 30
0.0
 11
88.1066719204098
 21
42.22228668684326
 31
0.0
  0
LINE
  5
302
330
1F
100
AcDbEntity
  8
0
100
AcDbLine
 10
-80.42563643804976
 20
-42.22467739709215
 30
0.0
 11
-81.04695673190372
 21
-42.70143322674534
 31
0.0
  0
LINE
  5
303
330
1F
100
AcDbEntity
  8
0
100
AcDbLine
 10
-41.78697304182269
 20
-44.35687915668484
 30
0.0
 11
-41.96679378794549
 21
-43.92275347259944
 31
0.0
  0
LINE
  5
304
330
1F
100
AcDbEntity
  8
0
100
AcDbLine
 10
-55.92563839804941
 20
-44.82275340059942
 30
0.0
 11
-56.13008342395948
 21
-43.26983925421743
 31
0.0
  0
LINE
  5
305
330
1F
100
AcDbEntity
  8
0
100
AcDbLine
 10
-89.62563570204989
 20
-43.26390779849511
 30
0.0
 11
-90.05976138613526
 21
-43.08408705237245
 31
0.0
  0
LINE
  5
306
330
1F
100
AcDbEntity
  8
0
100
AcDbLine
 10
-43.05976514613508
 20
-43.08408705237245
 30
0.0
 11
-43.52563939004971
 21
-43.02275354459945
 31
0.0
  0
LINE
  5
307
330
1F
100
AcDbEntity
  8
0
100
AcDbLine
 10
-78.92563655804973
 20
-41.82275364059936
 30
0.0
 11
-79.70209363124096
 21
-41.92497615355435
 31
0.0
  0
LINE
  5
308
330
1F
100
AcDbEntity
  8
0
100
AcDbLine
 10
-64.92563767804977
 20
-39.62660139358498
 30
0.0
 11
-66.1682782657575
 21
-40.58011305289135
 31
0.0
  0
LINE
  5
309
330
1F
100
AcDbEntity
  8
0
100
AcDbLine
 10
-60.37272377166762
 20
-39.02719890650936
 30
0.0
 11
-61.9256379180497
 21
-38.82275388059939
 31
0.0
  0
LINE
  5
30A
330
1F
100
AcDbEntity
  8
0
100
AcDbLine
 10
-55.92563839804941
 20
-44.82275340059942
 30
0.0
 11
-55.92563839804941
 21
-49.32275304059942
 31
0.0
  0
LINE
  5
30B
330
1F
100
AcDbEntity
  8
0
100
AcDbLine
 10
-8.673732242423165
 20
-58.1213549747973
 30
0.0
 11
-8.832650852307651
 21
-57.9142482101793
 31
0.0
  0
LINE
  5
30C
330
1F
100
AcDbEntity
  8
0
100
AcDbLine
 10
-8.832650852307651
 20
-57.9142482101793
 30
0.0
 11
-9.039757616925638
 21
-57.75532960029491
 31
0.0
  0
LINE
  5
30D
330
1F
100
AcDbEntity
  8
0
100
AcDbLine
 10
-9.039757616925638
 20
-57.75532960029491
 30
0.0
 11
-9.280938552528605
 21
-57.6554291857823
 31
0.0
  0
LINE
  5
30E
330
1F
100
AcDbEntity
  8
0
100
AcDbLine
 10
22.72157335484771
 20
-83.78722720271209
 30
0.0
 11
22.90139410097033
 21
-84.22135288679749
 31
0.0
  0
LINE
  5
30F
330
1F
100
AcDbEntity
  8
0
100
AcDbLine
 10
22.66023984707467
 20
-83.32135295879746
 30
0.0
 11
22.72157335484771
 21
-83.78722720271209
 31
0.0
  0
LINE
  5
310
330
1F
100
AcDbEntity
  8
0
100
AcDbLine
 10
22.72157335484771
 20
-82.85547871488284
 30
0.0
 11
22.66023984707467
 21
-83.32135295879746
 31
0.0
  0
LINE
  5
311
330
1F
100
AcDbEntity
  8
0
100
AcDbLine
 10
22.90139410097033
 20
-82.42135303079743
 30
0.0
 11
22.72157335484771
 21
-82.85547871488284
 31
0.0
  0
LINE
  5
312
330
1F
100
AcDbEntity
  8
0
100
AcDbLine
 10
-81.9256363180498
 20
-44.82275340059942
 30
0.0
 11
-81.9256363180498
 21
-49.32275304059942
 31
0.0
  0
LINE
  5
313
330
1F
100
AcDbEntity
  8
0
100
AcDbLine
 10
-92.08448123215409
 20
-45.7227533285994
 30
0.0
 11
-91.79842773436245
 21
-46.09554550491181
 31
0.0
  0
LINE
  5
314
330
1F
100
AcDbEntity
  8
0
100
AcDbLine
 10
-90.05976138613526
 20
-46.56141974882639
 30
0.0
 11
-89.62563570204989
 21
-46.38159900270372
 31
0.0
  0
LINE
  5
315
330
1F
100
AcDbEntity
  8
0
100
AcDbLine
 10
24.92611394698934
 20
-81.58268661057039
 30
0.0
 11
24.46023970307472
 21
-81.5213531027974
 31
0.0
  0
LINE
  5
316
330
1F
100
AcDbEntity
  8
0
100
AcDbLine
 10
25.36023963107479
 20
-81.76250735669306
 30
0.0
 11
24.92611394698934
 21
-81.58268661057039
 31
0.0
  0
LINE
  5
317
330
1F
100
AcDbEntity
  8
0
100
AcDbLine
 10
25.73303180738721
 20
-82.04856085448502
 30
0.0
 11
25.36023963107479
 21
-81.76250735669306
 31
0.0
  0
LINE
  5
318
330
1F
100
AcDbEntity
  8
0
100
AcDbLine
 10
26.01908530517912
 20
-82.42135303079743
 30
0.0
 11
25.73303180738721
 21
-82.04856085448502
 31
0.0
  0
LINE
  5
319
330
1F
100
AcDbEntity
  8
0
100
AcDbLine
 10
26.19890605130174
 20
-82.85547871488284
 30
0.0
 11
26.01908530517912
 21
-82.42135303079743
 31
0.0
  0
LINE
  5
31A
330
1F
100
AcDbEntity
  8
0
100
AcDbLine
 10
26.26023955907478
 20
-83.32135295879746
 30
0.0
 11
26.19890605130174
 21
-82.85547871488284
 31
0.0
  0
LINE
  5
31B
330
1F
100
AcDbEntity
  8
0
100
AcDbLine
 10
26.19890605130174
 20
-83.78722720271209
 30
0.0
 11
26.26023955907478
 21
-83.32135295879746
 31
0.0
  0
LINE
  5
31C
330
1F
100
AcDbEntity
  8
0
100
AcDbLine
 10
-23.81254864123803
 20
-82.04856085448502
 30
0.0
 11
-24.09860213902994
 21
-82.42135303079743
 31
0.0
  0
LINE
  5
31D
330
1F
100
AcDbEntity
  8
0
100
AcDbLine
 10
23.18744759876224
 20
-82.04856085448502
 30
0.0
 11
22.90139410097033
 21
-82.42135303079743
 31
0.0
  0
LINE
  5
31E
330
1F
100
AcDbEntity
  8
0
100
AcDbLine
 10
23.56023977507474
 20
-81.76250735669306
 30
0.0
 11
23.18744759876224
 21
-82.04856085448502
 31
0.0
  0
LINE
  5
31F
330
1F
100
AcDbEntity
  8
0
100
AcDbLine
 10
23.9943654591601
 20
-81.58268661057039
 30
0.0
 11
23.56023977507474
 21
-81.76250735669306
 31
0.0
  0
LINE
  5
320
330
1F
100
AcDbEntity
  8
0
100
AcDbLine
 10
24.46023970307472
 20
-81.5213531027974
 30
0.0
 11
23.9943654591601
 21
-81.58268661057039
 31
0.0
  0
LINE
  5
321
330
1F
100
AcDbEntity
  8
0
100
AcDbLine
 10
23.46023978307395
 20
-93.42135215079752
 30
0.0
 11
23.46023978307395
 21
-87.8213525987975
 31
0.0
  0
LINE
  5
322
330
1F
100
AcDbEntity
  8
0
100
AcDbLine
 10
23.9943654591601
 20
-85.06001930702452
 30
0.0
 11
24.46023970307472
 21
-85.12135281479752
 31
0.0
  0
LINE
  5
323
330
1F
100
AcDbEntity
  8
0
100
AcDbLine
 10
23.56023977507465
 20
-84.88019856090186
 30
0.0
 11
23.9943654591601
 21
-85.06001930702452
 31
0.0
  0
LINE
  5
324
330
1F
100
AcDbEntity
  8
0
100
AcDbLine
 10
23.18744759876224
 20
-84.59414506310989
 30
0.0
 11
23.56023977507465
 21
-84.88019856090186
 31
0.0
  0
LINE
  5
325
330
1F
100
AcDbEntity
  8
0
100
AcDbLine
 10
22.90139410097033
 20
-84.22135288679749
 30
0.0
 11
23.18744759876224
 21
-84.59414506310989
 31
0.0
  0
LINE
  5
326
330
1F
100
AcDbEntity
  8
0
100
AcDbLine
 10
-21.63975660892556
 20
-84.88019856090186
 30
0.0
 11
-21.26696443261306
 21
-84.59414506310989
 31
0.0
  0
LINE
  5
327
330
1F
100
AcDbEntity
  8
0
100
AcDbLine
 10
26.01908530517912
 20
-84.22135288679749
 30
0.0
 11
26.19890605130174
 21
-83.78722720271209
 31
0.0
  0
LINE
  5
328
330
1F
100
AcDbEntity
  8
0
100
AcDbLine
 10
25.73303180738721
 20
-84.59414506310989
 30
0.0
 11
26.01908530517912
 21
-84.22135288679749
 31
0.0
  0
LINE
  5
329
330
1F
100
AcDbEntity
  8
0
100
AcDbLine
 10
25.3602396310747
 20
-84.88019856090186
 30
0.0
 11
25.73303180738721
 21
-84.59414506310989
 31
0.0
  0
LINE
  5
32A
330
1F
100
AcDbEntity
  8
0
100
AcDbLine
 10
24.92611394698934
 20
-85.06001930702452
 30
0.0
 11
25.3602396310747
 21
-84.88019856090186
 31
0.0
  0
LINE
  5
32B
330
1F
100
AcDbEntity
  8
0
100
AcDbLine
 10
24.46023970307472
 20
-85.12135281479752
 30
0.0
 11
24.92611394698934
 21
-85.06001930702452
 31
0.0
  0
LINE
  5
32C
330
1F
100
AcDbEntity
  8
0
100
AcDbLine
 10
-22.07388229301092
 20
-85.06001930702452
 30
0.0
 11
-21.63975660892556
 21
-84.88019856090186
 31
0.0
  0
LINE
  5
32D
330
1F
100
AcDbEntity
  8
0
100
AcDbLine
 10
-22.53975653692554
 20
-85.12135281479752
 30
0.0
 11
-22.07388229301092
 21
-85.06001930702452
 31
0.0
  0
LINE
  5
32E
330
1F
100
AcDbEntity
  8
0
100
AcDbLine
 10
-20.98091093482115
 20
-82.42135303079743
 30
0.0
 11
-21.26696443261306
 21
-82.04856085448502
 31
0.0
  0
LINE
  5
32F
330
1F
100
AcDbEntity
  8
0
100
AcDbLine
 10
-20.80109018869853
 20
-82.85547871488284
 30
0.0
 11
-20.98091093482115
 21
-82.42135303079743
 31
0.0
  0
LINE
  5
330
330
1F
100
AcDbEntity
  8
0
100
AcDbLine
 10
-20.73975668092549
 20
-83.32135295879746
 30
0.0
 11
-20.80109018869853
 21
-82.85547871488284
 31
0.0
  0
LINE
  5
331
330
1F
100
AcDbEntity
  8
0
100
AcDbLine
 10
-20.80109018869853
 20
-83.78722720271209
 30
0.0
 11
-20.73975668092549
 21
-83.32135295879746
 31
0.0
  0
LINE
  5
332
330
1F
100
AcDbEntity
  8
0
100
AcDbLine
 10
-20.98091093482115
 20
-84.22135288679749
 30
0.0
 11
-20.80109018869853
 21
-83.78722720271209
 31
0.0
  0
LINE
  5
333
330
1F
100
AcDbEntity
  8
0
100
AcDbLine
 10
-21.26696443261306
 20
-84.59414506310989
 30
0.0
 11
-20.98091093482115
 21
-84.22135288679749
 31
0.0
  0
LINE
  5
334
330
1F
100
AcDbEntity
  8
0
100
AcDbLine
 10
-3.720375837294622
 20
-94.12845887541553
 30
0.0
 11
-3.561457227410137
 21
-93.92135211079756
 31
0.0
  0
LINE
  5
335
330
1F
100
AcDbEntity
  8
0
100
AcDbLine
 10
-23.00563078084016
 20
-81.58268661057039
 30
0.0
 11
-23.43975646492552
 21
-81.76250735669306
 31
0.0
  0
LINE
  5
336
330
1F
100
AcDbEntity
  8
0
100
AcDbLine
 10
-22.53975653692554
 20
-81.5213531027974
 30
0.0
 11
-23.00563078084016
 21
-81.58268661057039
 31
0.0
  0
LINE
  5
337
330
1F
100
AcDbEntity
  8
0
100
AcDbLine
 10
-22.07388229301092
 20
-81.58268661057039
 30
0.0
 11
-22.53975653692554
 21
-81.5213531027974
 31
0.0
  0
LINE
  5
338
330
1F
100
AcDbEntity
  8
0
100
AcDbLine
 10
-21.63975660892547
 20
-81.76250735669306
 30
0.0
 11
-22.07388229301092
 21
-81.58268661057039
 31
0.0
  0
LINE
  5
339
330
1F
100
AcDbEntity
  8
0
100
AcDbLine
 10
-21.26696443261306
 20
-82.04856085448502
 30
0.0
 11
-21.63975660892547
 21
-81.76250735669306
 31
0.0
  0
LINE
  5
33A
330
1F
100
AcDbEntity
  8
0
100
AcDbLine
 10
-24.27842288515256
 20
-83.78722720271209
 30
0.0
 11
-24.09860213902994
 21
-84.22135288679749
 31
0.0
  0
LINE
  5
33B
330
1F
100
AcDbEntity
  8
0
100
AcDbLine
 10
-24.3397563929256
 20
-83.32135295879746
 30
0.0
 11
-24.27842288515256
 21
-83.78722720271209
 31
0.0
  0
LINE
  5
33C
330
1F
100
AcDbEntity
  8
0
100
AcDbLine
 10
-24.27842288515256
 20
-82.85547871488284
 30
0.0
 11
-24.3397563929256
 21
-83.32135295879746
 31
0.0
  0
LINE
  5
33D
330
1F
100
AcDbEntity
  8
0
100
AcDbLine
 10
-24.09860213902994
 20
-82.42135303079743
 30
0.0
 11
-24.27842288515256
 21
-82.85547871488284
 31
0.0
  0
LINE
  5
33E
330
1F
100
AcDbEntity
  8
0
100
AcDbLine
 10
-8.72229405344544
 20
-87.1318644306081
 30
0.0
 11
-6.522294229445565
 21
-83.32135295879746
 31
0.0
  0
LINE
  5
33F
330
1F
100
AcDbEntity
  8
0
100
AcDbLine
 10
-13.12229370144555
 20
-87.1318644306081
 30
0.0
 11
-8.72229405344544
 21
-87.1318644306081
 31
0.0
  0
LINE
  5
340
330
1F
100
AcDbEntity
  8
0
100
AcDbLine
 10
-23.00563078084016
 20
-85.06001930702452
 30
0.0
 11
-22.53975653692554
 21
-85.12135281479752
 31
0.0
  0
LINE
  5
341
330
1F
100
AcDbEntity
  8
0
100
AcDbLine
 10
-23.43975646492562
 20
-84.88019856090186
 30
0.0
 11
-23.00563078084016
 21
-85.06001930702452
 31
0.0
  0
LINE
  5
342
330
1F
100
AcDbEntity
  8
0
100
AcDbLine
 10
-23.81254864123803
 20
-84.59414506310989
 30
0.0
 11
-23.43975646492562
 21
-84.88019856090186
 31
0.0
  0
LINE
  5
343
330
1F
100
AcDbEntity
  8
0
100
AcDbLine
 10
-24.09860213902994
 20
-84.22135288679749
 30
0.0
 11
-23.81254864123803
 21
-84.59414506310989
 31
0.0
  0
LINE
  5
344
330
1F
100
AcDbEntity
  8
0
100
AcDbLine
 10
-6.522294229445565
 20
-83.32135295879746
 30
0.0
 11
-8.72229405344544
 21
-79.51084148698682
 31
0.0
  0
LINE
  5
345
330
1F
100
AcDbEntity
  8
0
100
AcDbLine
 10
-18.30568270194032
 20
-93.68017117519454
 30
0.0
 11
-18.20578228742779
 21
-93.92135211079756
 31
0.0
  0
LINE
  5
346
330
1F
100
AcDbEntity
  8
0
100
AcDbLine
 10
-18.20578228742779
 20
-93.92135211079756
 30
0.0
 11
-18.0468636775433
 21
-94.12845887541553
 31
0.0
  0
LINE
  5
347
330
1F
100
AcDbEntity
  8
0
100
AcDbLine
 10
-18.0468636775433
 20
-94.12845887541553
 30
0.0
 11
-17.83975691292532
 21
-94.28737748529994
 31
0.0
  0
LINE
  5
348
330
1F
100
AcDbEntity
  8
0
100
AcDbLine
 10
-17.83975691292532
 20
-94.28737748529994
 30
0.0
 11
-17.59857597732235
 21
-94.38727789981256
 31
0.0
  0
LINE
  5
349
330
1F
100
AcDbEntity
  8
0
100
AcDbLine
 10
-17.59857597732235
 20
-94.38727789981256
 30
0.0
 11
-17.33975695292534
 21
-94.42135207079752
 31
0.0
  0
LINE
  5
34A
330
1F
100
AcDbEntity
  8
0
100
AcDbLine
 10
-8.72229405344544
 20
-79.51084148698682
 30
0.0
 11
-13.12229370144555
 21
-79.51084148698682
 31
0.0
  0
LINE
  5
34B
330
1F
100
AcDbEntity
  8
0
100
AcDbLine
 10
-92.2643019782769
 20
-45.28862764451399
 30
0.0
 11
-92.08448123215409
 21
-45.7227533285994
 31
0.0
  0
LINE
  5
34C
330
1F
100
AcDbEntity
  8
0
100
AcDbLine
 10
-44.79843149436219
 20
-46.09554550491181
 30
0.0
 11
-44.4256393180496
 21
-46.38159900270372
 31
0.0
  0
LINE
  5
34D
330
1F
100
AcDbEntity
  8
0
100
AcDbLine
 10
-89.25284352573767
 20
-43.54996129628702
 30
0.0
 11
-89.62563570204989
 21
-43.26390779849511
 31
0.0
  0
LINE
  5
34E
330
1F
100
AcDbEntity
  8
0
100
AcDbLine
 10
-88.96679002794566
 20
-43.92275347259944
 30
0.0
 11
-89.25284352573767
 21
-43.54996129628702
 31
0.0
  0
LINE
  5
34F
330
1F
100
AcDbEntity
  8
0
100
AcDbLine
 10
-41.72563953404975
 20
-44.82275340059942
 30
0.0
 11
-41.78697304182269
 21
-44.35687915668484
 31
0.0
  0
LINE
  5
350
330
1F
100
AcDbEntity
  8
0
100
AcDbLine
 10
-18.50568268594063
 20
-58.3625359104003
 30
0.0
 11
-18.40578227142811
 21
-58.1213549747973
 31
0.0
  0
LINE
  5
351
330
1F
100
AcDbEntity
  8
0
100
AcDbLine
 10
-20.43975515628194
 20
-72.22528912809356
 30
0.0
 11
-20.43456328052889
 21
-78.8252865580042
 31
0.0
  0
LINE
  5
352
330
1F
100
AcDbEntity
  8
0
100
AcDbLine
 10
-15.43975710492567
 20
-72.22135384679738
 30
0.0
 11
-20.43975515628194
 21
-72.22528912809356
 31
0.0
  0
LINE
  5
353
330
1F
100
AcDbEntity
  8
0
100
AcDbLine
 10
-23.43975646492552
 20
-81.76250735669306
 30
0.0
 11
-23.81254864123803
 21
-82.04856085448502
 31
0.0
  0
LINE
  5
354
330
1F
100
AcDbEntity
  8
0
100
AcDbLine
 10
-9.280938552528605
 20
-57.6554291857823
 30
0.0
 11
-9.539757576925616
 21
-57.62135501479732
 31
0.0
  0
LINE
  5
355
330
1F
100
AcDbEntity
  8
0
100
AcDbLine
 10
-15.32229352544542
 20
-83.32135295879746
 30
0.0
 11
-13.12229370144555
 21
-87.1318644306081
 31
0.0
  0
LINE
  5
356
330
1F
100
AcDbEntity
  8
0
100
AcDbLine
 10
-13.12229370144555
 20
-79.51084148698682
 30
0.0
 11
-15.32229352544542
 21
-83.32135295879746
 31
0.0
  0
LINE
  5
357
330
1F
100
AcDbEntity
  8
0
100
AcDbLine
 10
-15.43456522756637
 20
-78.82135331879742
 30
0.0
 11
-15.43975710492567
 21
-72.22135384679738
 31
0.0
  0
LINE
  5
358
330
1F
100
AcDbEntity
  8
0
100
AcDbLine
 10
-20.43456328052889
 20
-78.8252865580042
 30
0.0
 11
-15.43456522756637
 21
-78.82135331879742
 31
0.0
  0
LINE
  5
359
330
1F
100
AcDbEntity
  8
0
100
AcDbLine
 10
-17.53975693692565
 20
-57.62135501479732
 30
0.0
 11
-9.539757576925616
 21
-57.62135501479732
 31
0.0
  0
LINE
  5
35A
330
1F
100
AcDbEntity
  8
0
100
AcDbLine
 10
-18.03975689692563
 20
-57.75532960029491
 30
0.0
 11
-17.79857596132267
 21
-57.6554291857823
 31
0.0
  0
LINE
  5
35B
330
1F
100
AcDbEntity
  8
0
100
AcDbLine
 10
10.46024082307457
 20
-58.62135493479732
 30
0.0
 11
10.46024082307457
 21
-64.22135448679735
 31
0.0
  0
LINE
  5
35C
330
1F
100
AcDbEntity
  8
0
100
AcDbLine
 10
10.46024082307457
 20
-64.22135448679735
 30
0.0
 11
-8.539757656925566
 21
-64.22135448679735
 31
0.0
  0
LINE
  5
35D
330
1F
100
AcDbEntity
  8
0
100
AcDbLine
 10
-8.539757656925566
 20
-64.22135448679735
 30
0.0
 11
-8.539757656925566
 21
-58.62135493479732
 31
0.0
  0
LINE
  5
35E
330
1F
100
AcDbEntity
  8
0
100
AcDbLine
 10
-8.539757656925566
 20
-58.62135493479732
 30
0.0
 11
-8.573831827910638
 21
-58.3625359104003
 31
0.0
  0
LINE
  5
35F
330
1F
100
AcDbEntity
  8
0
100
AcDbLine
 10
-8.573831827910638
 20
-58.3625359104003
 30
0.0
 11
-8.673732242423165
 21
-58.1213549747973
 31
0.0
  0
LINE
  5
360
330
1F
100
AcDbEntity
  8
0
100
AcDbLine
 10
11.46024074307462
 20
-57.62135501479732
 30
0.0
 11
11.2014217186776
 21
-57.6554291857823
 31
0.0
  0
LINE
  5
361
330
1F
100
AcDbEntity
  8
0
100
AcDbLine
 10
11.2014217186776
 20
-57.6554291857823
 30
0.0
 11
10.96024078307464
 21
-57.75532960029491
 31
0.0
  0
LINE
  5
362
330
1F
100
AcDbEntity
  8
0
100
AcDbLine
 10
10.96024078307464
 20
-57.75532960029491
 30
0.0
 11
10.75313401845665
 21
-57.9142482101793
 31
0.0
  0
LINE
  5
363
330
1F
100
AcDbEntity
  8
0
100
AcDbLine
 10
10.75313401845665
 20
-57.9142482101793
 30
0.0
 11
10.59421540857216
 21
-58.1213549747973
 31
0.0
  0
LINE
  5
364
330
1F
100
AcDbEntity
  8
0
100
AcDbLine
 10
10.59421540857216
 20
-58.1213549747973
 30
0.0
 11
10.49431499405964
 21
-58.3625359104003
 31
0.0
  0
LINE
  5
365
330
1F
100
AcDbEntity
  8
0
100
AcDbLine
 10
10.49431499405964
 20
-58.3625359104003
 30
0.0
 11
10.46024082307457
 21
-58.62135493479732
 31
0.0
  0
LINE
  5
366
330
1F
100
AcDbEntity
  8
0
100
AcDbLine
 10
-18.5397568569257
 20
-58.62135493479732
 30
0.0
 11
-18.5397568569257
 21
-64.22135448679735
 31
0.0
  0
LINE
  5
367
330
1F
100
AcDbEntity
  8
0
100
AcDbLine
 10
-18.5397568569257
 20
-64.22135448679735
 30
0.0
 11
-26.53975621692574
 21
-64.22135448679735
 31
0.0
  0
LINE
  5
368
330
1F
100
AcDbEntity
  8
0
100
AcDbLine
 10
-26.53975621692556
 20
-87.82135259879745
 30
0.0
 11
-26.53975621692574
 21
-64.22135448679735
 31
0.0
  0
LINE
  5
369
330
1F
100
AcDbEntity
  8
0
100
AcDbLine
 10
28.46023938307465
 20
-64.22135448679735
 30
0.0
 11
20.4602400230747
 21
-64.22135448679735
 31
0.0
  0
LINE
  5
36A
330
1F
100
AcDbEntity
  8
0
100
AcDbLine
 10
20.4602400230747
 20
-58.62135493479732
 30
0.0
 11
20.4602400230747
 21
-64.22135448679735
 31
0.0
  0
LINE
  5
36B
330
1F
100
AcDbEntity
  8
0
100
AcDbLine
 10
20.4602400230747
 20
-58.62135493479732
 30
0.0
 11
20.42616585208963
 21
-58.3625359104003
 31
0.0
  0
LINE
  5
36C
330
1F
100
AcDbEntity
  8
0
100
AcDbLine
 10
-18.24686366154362
 20
-57.9142482101793
 30
0.0
 11
-18.03975689692563
 21
-57.75532960029491
 31
0.0
  0
LINE
  5
36D
330
1F
100
AcDbEntity
  8
0
100
AcDbLine
 10
-18.40578227142811
 20
-58.1213549747973
 30
0.0
 11
-18.24686366154362
 21
-57.9142482101793
 31
0.0
  0
LINE
  5
36E
330
1F
100
AcDbEntity
  8
0
100
AcDbLine
 10
-18.5397568569257
 20
-58.62135493479732
 30
0.0
 11
-18.50568268594063
 21
-58.3625359104003
 31
0.0
  0
LINE
  5
36F
330
1F
100
AcDbEntity
  8
0
100
AcDbLine
 10
23.46023978307395
 20
-87.8213525987975
 30
0.0
 11
28.46023938307474
 21
-87.8213525987975
 31
0.0
  0
LINE
  5
370
330
1F
100
AcDbEntity
  8
0
100
AcDbLine
 10
28.46023938307465
 20
-64.22135448679735
 30
0.0
 11
28.46023938307474
 21
-87.8213525987975
 31
0.0
  0
LINE
  5
371
330
1F
100
AcDbEntity
  8
0
100
AcDbLine
 10
22.96023982307388
 20
-94.28737748529994
 30
0.0
 11
22.71905888747091
 21
-94.38727789981256
 31
0.0
  0
LINE
  5
372
330
1F
100
AcDbEntity
  8
0
100
AcDbLine
 10
23.16734658769187
 20
-94.12845887541553
 30
0.0
 11
22.96023982307388
 21
-94.28737748529994
 31
0.0
  0
LINE
  5
373
330
1F
100
AcDbEntity
  8
0
100
AcDbLine
 10
23.32626519757635
 20
-93.92135211079756
 30
0.0
 11
23.16734658769187
 21
-94.12845887541553
 31
0.0
  0
LINE
  5
374
330
1F
100
AcDbEntity
  8
0
100
AcDbLine
 10
23.42616561208888
 20
-93.68017117519454
 30
0.0
 11
23.32626519757635
 21
-93.92135211079756
 31
0.0
  0
LINE
  5
375
330
1F
100
AcDbEntity
  8
0
100
AcDbLine
 10
23.46023978307395
 20
-93.42135215079752
 30
0.0
 11
23.42616561208888
 21
-93.68017117519454
 31
0.0
  0
LINE
  5
376
330
1F
100
AcDbEntity
  8
0
100
AcDbLine
 10
16.99421489657147
 20
-93.92135211079756
 30
0.0
 11
17.15313350645596
 21
-94.12845887541553
 31
0.0
  0
LINE
  5
377
330
1F
100
AcDbEntity
  8
0
100
AcDbLine
 10
17.15313350645596
 20
-94.12845887541553
 30
0.0
 11
17.36024027107394
 21
-94.28737748529994
 31
0.0
  0
LINE
  5
378
330
1F
100
AcDbEntity
  8
0
100
AcDbLine
 10
17.36024027107394
 20
-94.28737748529994
 30
0.0
 11
17.60142120667691
 21
-94.38727789981256
 31
0.0
  0
LINE
  5
379
330
1F
100
AcDbEntity
  8
0
100
AcDbLine
 10
17.60142120667691
 20
-94.38727789981256
 30
0.0
 11
17.86024023107392
 21
-94.42135207079752
 31
0.0
  0
LINE
  5
37A
330
1F
100
AcDbEntity
  8
0
100
AcDbLine
 10
22.4602398630739
 20
-94.42135207079752
 30
0.0
 11
17.86024023107392
 21
-94.42135207079752
 31
0.0
  0
LINE
  5
37B
330
1F
100
AcDbEntity
  8
0
100
AcDbLine
 10
22.71905888747091
 20
-94.38727789981256
 30
0.0
 11
22.4602398630739
 21
-94.42135207079752
 31
0.0
  0
LINE
  5
37C
330
1F
100
AcDbEntity
  8
0
100
AcDbLine
 10
17.36024027107467
 20
-78.82135331879742
 30
0.0
 11
11.57770432255585
 21
-78.82135331879742
 31
0.0
  0
LINE
  5
37D
330
1F
100
AcDbEntity
  8
0
100
AcDbLine
 10
11.57770432255585
 20
-87.82135259879745
 30
0.0
 11
11.57770432255585
 21
-78.82135331879742
 31
0.0
  0
LINE
  5
37E
330
1F
100
AcDbEntity
  8
0
100
AcDbLine
 10
16.86024031107387
 20
-87.8213525987975
 30
0.0
 11
11.57770432255585
 21
-87.82135259879745
 31
0.0
  0
LINE
  5
37F
330
1F
100
AcDbEntity
  8
0
100
AcDbLine
 10
16.86024031107387
 20
-93.42135215079752
 30
0.0
 11
16.86024031107387
 21
-87.8213525987975
 31
0.0
  0
LINE
  5
380
330
1F
100
AcDbEntity
  8
0
100
AcDbLine
 10
16.86024031107387
 20
-93.42135215079752
 30
0.0
 11
16.89431448205895
 21
-93.68017117519454
 31
0.0
  0
LINE
  5
381
330
1F
100
AcDbEntity
  8
0
100
AcDbLine
 10
16.89431448205895
 20
-93.68017117519454
 30
0.0
 11
16.99421489657147
 21
-93.92135211079756
 31
0.0
  0
LINE
  5
382
330
1F
100
AcDbEntity
  8
0
100
AcDbLine
 10
20.42616585208963
 20
-58.3625359104003
 30
0.0
 11
20.3262654375771
 21
-58.1213549747973
 31
0.0
  0
LINE
  5
383
330
1F
100
AcDbEntity
  8
0
100
AcDbLine
 10
20.3262654375771
 20
-58.1213549747973
 30
0.0
 11
20.16734682769262
 21
-57.9142482101793
 31
0.0
  0
LINE
  5
384
330
1F
100
AcDbEntity
  8
0
100
AcDbLine
 10
20.16734682769262
 20
-57.9142482101793
 30
0.0
 11
19.96024006307463
 21
-57.75532960029491
 31
0.0
  0
LINE
  5
385
330
1F
100
AcDbEntity
  8
0
100
AcDbLine
 10
19.71905912747167
 20
-57.6554291857823
 30
0.0
 11
19.46024010307465
 21
-57.62135501479732
 31
0.0
  0
LINE
  5
386
330
1F
100
AcDbEntity
  8
0
100
AcDbLine
 10
11.46024074307462
 20
-57.62135501479732
 30
0.0
 11
19.46024010307465
 21
-57.62135501479732
 31
0.0
  0
LINE
  5
387
330
1F
100
AcDbEntity
  8
0
100
AcDbLine
 10
-3.427482641912539
 20
-78.82135331879742
 30
0.0
 11
-6.139757848925556
 21
-78.82135331879742
 31
0.0
  0
LINE
  5
388
330
1F
100
AcDbEntity
  8
0
100
AcDbLine
 10
-4.168663537515577
 20
-94.38727789981256
 30
0.0
 11
-3.927482601912609
 21
-94.28737748529994
 31
0.0
  0
LINE
  5
389
330
1F
100
AcDbEntity
  8
0
100
AcDbLine
 10
-18.33975687292539
 20
-87.82135259879745
 30
0.0
 11
-26.53975621692556
 21
-87.82135259879745
 31
0.0
  0
LINE
  5
38A
330
1F
100
AcDbEntity
  8
0
100
AcDbLine
 10
-18.33975687292539
 20
-87.82135259879745
 30
0.0
 11
-18.33975687292539
 21
-93.42135215079752
 31
0.0
  0
LINE
  5
38B
330
1F
100
AcDbEntity
  8
0
100
AcDbLine
 10
-18.33975687292539
 20
-93.42135215079752
 30
0.0
 11
-18.30568270194032
 21
-93.68017117519454
 31
0.0
  0
LINE
  5
38C
330
1F
100
AcDbEntity
  8
0
100
AcDbLine
 10
-3.927482601912609
 20
-94.28737748529994
 30
0.0
 11
-3.720375837294622
 21
-94.12845887541553
 31
0.0
  0
LINE
  5
38D
330
1F
100
AcDbEntity
  8
0
100
AcDbLine
 10
88.16427342317218
 20
44.76721910835851
 30
0.0
 11
87.86985762350905
 21
44.40099520522352
 31
0.0
  0
LINE
  5
38E
330
1F
100
AcDbEntity
  8
0
100
AcDbLine
 10
87.86985762350905
 20
44.40099520522352
 30
0.0
 11
87.68025951984991
 21
43.97104966284918
 31
0.0
  0
LINE
  5
38F
330
1F
100
AcDbEntity
  8
0
100
AcDbLine
 10
87.68025951984991
 20
43.97104966284918
 30
0.0
 11
87.60839990963366
 21
43.50668255942955
 31
0.0
  0
LINE
  5
390
330
1F
100
AcDbEntity
  8
0
100
AcDbLine
 10
87.60839990963366
 20
43.50668255942955
 30
0.0
 11
87.65917590654279
 21
43.0395397456599
 31
0.0
  0
LINE
  5
391
330
1F
100
AcDbEntity
  8
0
100
AcDbLine
 10
87.65917590654279
 20
43.0395397456599
 30
0.0
 11
87.82912721029919
 21
42.60145623230856
 31
0.0
  0
LINE
  5
392
330
1F
100
AcDbEntity
  8
0
100
AcDbLine
 10
-4.427482561912589
 20
-94.42135207079752
 30
0.0
 11
-17.33975695292534
 21
-94.42135207079752
 31
0.0
  0
LINE
  5
393
330
1F
100
AcDbEntity
  8
0
100
AcDbLine
 10
-4.427482561912589
 20
-94.42135207079752
 30
0.0
 11
-4.168663537515577
 21
-94.38727789981256
 31
0.0
  0
LINE
  5
394
330
1F
100
AcDbEntity
  8
0
100
AcDbLine
 10
-3.561457227410137
 20
-93.92135211079756
 30
0.0
 11
-3.46155681289761
 21
-93.68017117519454
 31
0.0
  0
LINE
  5
395
330
1F
100
AcDbEntity
  8
0
100
AcDbLine
 10
-3.46155681289761
 20
-93.68017117519454
 30
0.0
 11
-3.427482641912539
 21
-93.42135215079752
 31
0.0
  0
LINE
  5
396
330
1F
100
AcDbEntity
  8
0
100
AcDbLine
 10
-3.427482641912539
 20
-93.42135215079752
 30
0.0
 11
-3.427482641912539
 21
-78.82135331879742
 31
0.0
  0
LINE
  5
397
330
1F
100
AcDbEntity
  8
0
100
AcDbLine
 10
-6.139757848925556
 20
-78.82135331879742
 30
0.0
 11
-6.139757848925556
 21
-72.22135384679738
 31
0.0
  0
LINE
  5
398
330
1F
100
AcDbEntity
  8
0
100
AcDbLine
 10
-6.139757848925556
 20
-72.22135384679738
 30
0.0
 11
17.36024027107467
 21
-72.22135384679738
 31
0.0
  0
LINE
  5
399
330
1F
100
AcDbEntity
  8
0
100
AcDbLine
 10
17.36024027107467
 20
-72.22135384679738
 30
0.0
 11
17.36024027107467
 21
-78.82135331879742
 31
0.0
  0
LINE
  5
39A
330
1F
100
AcDbEntity
  8
0
100
AcDbLine
 10
19.96024006307463
 20
-57.75532960029491
 30
0.0
 11
19.71905912747167
 21
-57.6554291857823
 31
0.0
  0
LINE
  5
39B
330
1F
100
AcDbEntity
  8
0
100
AcDbLine
 10
-81.82341380509494
 20
-44.04629632740843
 30
0.0
 11
-81.9256363180498
 21
-44.82275340059942
 31
0.0
  0
LINE
  5
39C
330
1F
100
AcDbEntity
  8
0
100
AcDbLine
 10
-91.79842773436245
 20
-46.09554550491181
 30
0.0
 11
-91.42563555804986
 21
-46.38159900270372
 31
0.0
  0
LINE
  5
39D
330
1F
100
AcDbEntity
  8
0
100
AcDbLine
 10
-90.9915098739645
 20
-46.56141974882639
 30
0.0
 11
-90.52563563005006
 21
-46.62275325659938
 31
0.0
  0
LINE
  5
39E
330
1F
100
AcDbEntity
  8
0
100
AcDbLine
 10
-77.4256366780497
 20
-42.22467739709215
 30
0.0
 11
-78.14917948485888
 21
-41.92497615355435
 31
0.0
  0
LINE
  5
39F
330
1F
100
AcDbEntity
  8
0
100
AcDbLine
 10
-43.52563939004971
 20
-43.02275354459945
 30
0.0
 11
-43.99151363396424
 21
-43.08408705237245
 31
0.0
  0
LINE
  5
3A0
330
1F
100
AcDbEntity
  8
0
100
AcDbLine
 10
45.35794240654797
 20
17.41525007475946
 30
0.0
 11
46.34678424252031
 21
17.00565837525787
 31
0.0
  0
LINE
  5
3A1
330
1F
100
AcDbEntity
  8
0
100
AcDbLine
 10
46.34678424252031
 20
17.00565837525787
 30
0.0
 11
47.40794224254797
 21
16.86595427421935
 31
0.0
  0
LINE
  5
3A2
330
1F
100
AcDbEntity
  8
0
100
AcDbLine
 10
48.46910024257563
 20
17.00565837525787
 30
0.0
 11
49.45794207854797
 21
17.41525007475946
 31
0.0
  0
LINE
  5
3A3
330
1F
100
AcDbEntity
  8
0
100
AcDbLine
 10
50.95864611400785
 20
18.91595411021935
 30
0.0
 11
51.36823781350945
 21
19.90479594619173
 31
0.0
  0
LINE
  5
3A4
330
1F
100
AcDbEntity
  8
0
100
AcDbLine
 10
51.36823781350945
 20
19.90479594619173
 30
0.0
 11
51.50794191454797
 21
20.96595394621939
 31
0.0
  0
LINE
  5
3A5
330
1F
100
AcDbEntity
  8
0
100
AcDbLine
 10
39.40794288254829
 20
-17.11260784672271
 30
0.0
 11
39.40794288254829
 21
13.47686845096901
 31
0.0
  0
LINE
  5
3A6
330
1F
100
AcDbEntity
  8
0
100
AcDbLine
 10
39.40794288254829
 20
60.91595075021846
 30
0.0
 11
94.40793848254869
 21
60.91595075021846
 31
0.0
  0
LINE
  5
3A7
330
1F
100
AcDbEntity
  8
0
100
AcDbLine
 10
94.40793848254869
 20
60.91595075021846
 30
0.0
 11
94.40793848254869
 21
-17.11260784672271
 31
0.0
  0
LINE
  5
3A8
330
1F
100
AcDbEntity
  8
0
100
AcDbLine
 10
-92.32563548605002
 20
-44.82275340059942
 30
0.0
 11
-92.2643019782769
 21
-45.28862764451399
 31
0.0
  0
LINE
  5
3A9
330
1F
100
AcDbEntity
  8
0
100
AcDbLine
 10
47.40794224254797
 20
25.06595361821934
 30
0.0
 11
46.34678424252031
 21
24.92624951718073
 31
0.0
  0
LINE
  5
3AA
330
1F
100
AcDbEntity
  8
0
100
AcDbLine
 10
43.44764667158649
 20
22.02711194624705
 30
0.0
 11
43.30794257054797
 21
20.96595394621939
 31
0.0
  0
LINE
  5
3AB
330
1F
100
AcDbEntity
  8
0
100
AcDbLine
 10
43.30794257054797
 20
20.96595394621939
 30
0.0
 11
43.44764667158649
 21
19.90479594619173
 31
0.0
  0
LINE
  5
3AC
330
1F
100
AcDbEntity
  8
0
100
AcDbLine
 10
43.44764667158649
 20
19.90479594619173
 30
0.0
 11
43.85723837108809
 21
18.91595411021935
 31
0.0
  0
LINE
  5
3AD
330
1F
100
AcDbEntity
  8
0
100
AcDbLine
 10
43.85723837108809
 20
18.91595411021935
 30
0.0
 11
44.50880467161415
 21
18.06681637528553
 31
0.0
  0
LINE
  5
3AE
330
1F
100
AcDbEntity
  8
0
100
AcDbLine
 10
46.13515013823549
 20
36.14316052590692
 30
0.0
 11
46.5079423145479
 21
35.85710702811501
 31
0.0
  0
LINE
  5
3AF
330
1F
100
AcDbEntity
  8
0
100
AcDbLine
 10
46.5079423145479
 20
35.85710702811501
 30
0.0
 11
46.94206799863334
 21
35.67728628199239
 31
0.0
  0
LINE
  5
3B0
330
1F
100
AcDbEntity
  8
0
100
AcDbLine
 10
46.94206799863334
 20
35.67728628199239
 30
0.0
 11
47.40794224254797
 21
35.61595277421935
 31
0.0
  0
LINE
  5
3B1
330
1F
100
AcDbEntity
  8
0
100
AcDbLine
 10
47.40794224254797
 20
35.61595277421935
 30
0.0
 11
47.87381648646259
 21
35.67728628199239
 31
0.0
  0
LINE
  5
3B2
330
1F
100
AcDbEntity
  8
0
100
AcDbLine
 10
47.87381648646259
 20
35.67728628199239
 30
0.0
 11
48.30794217054795
 21
35.85710702811501
 31
0.0
  0
LINE
  5
3B3
330
1F
100
AcDbEntity
  8
0
100
AcDbLine
 10
48.30794217054795
 20
35.85710702811501
 30
0.0
 11
48.68073434686045
 21
36.14316052590692
 31
0.0
  0
LINE
  5
3B4
330
1F
100
AcDbEntity
  8
0
100
AcDbLine
 10
48.68073434686045
 20
36.14316052590692
 30
0.0
 11
48.96678784465237
 21
36.51595270221933
 31
0.0
  0
LINE
  5
3B5
330
1F
100
AcDbEntity
  8
0
100
AcDbLine
 10
88.54344296863748
 20
45.04476381846911
 30
0.0
 11
88.16427342317218
 21
44.76721910835851
 31
0.0
  0
LINE
  5
3B6
330
1F
100
AcDbEntity
  8
0
100
AcDbLine
 10
77.5254009239713
 20
45.96594179507823
 30
0.0
 11
77.52540092397193
 21
-4.034033902639456
 31
0.0
  0
LINE
  5
3B7
330
1F
100
AcDbEntity
  8
0
100
AcDbLine
 10
48.46910024257563
 20
24.92624951718073
 30
0.0
 11
47.40794224254797
 21
25.06595361821934
 31
0.0
  0
LINE
  5
3B8
330
1F
100
AcDbEntity
  8
0
100
AcDbLine
 10
45.66927589432141
 20
4.98182950613268
 30
0.0
 11
45.60794238654837
 21
4.515955262218059
 31
0.0
  0
LINE
  5
3B9
330
1F
100
AcDbEntity
  8
0
100
AcDbLine
 10
48.96678784465237
 20
36.51595270221933
 30
0.0
 11
49.14660859077498
 21
36.95007838630479
 31
0.0
  0
LINE
  5
3BA
330
1F
100
AcDbEntity
  8
0
100
AcDbLine
 10
45.35794240654797
 20
24.51665781767914
 30
0.0
 11
44.50880467161415
 21
23.86509151715311
 31
0.0
  0
LINE
  5
3BB
330
1F
100
AcDbEntity
  8
0
100
AcDbLine
 10
46.34678424252031
 20
24.92624951718073
 30
0.0
 11
45.35794240654797
 21
24.51665781767914
 31
0.0
  0
LINE
  5
3BC
330
1F
100
AcDbEntity
  8
0
100
AcDbLine
 10
49.45794207854797
 20
24.51665781767914
 30
0.0
 11
48.46910024257563
 21
24.92624951718073
 31
0.0
  0
LINE
  5
3BD
330
1F
100
AcDbEntity
  8
0
100
AcDbLine
 10
50.30707981348178
 20
23.86509151715311
 30
0.0
 11
49.45794207854797
 21
24.51665781767914
 31
0.0
  0
LINE
  5
3BE
330
1F
100
AcDbEntity
  8
0
100
AcDbLine
 10
50.95864611400785
 20
23.0159537822193
 30
0.0
 11
50.30707981348178
 21
23.86509151715311
 31
0.0
  0
LINE
  5
3BF
330
1F
100
AcDbEntity
  8
0
100
AcDbLine
 10
89.60793886654866
 20
-12.18404340178051
 30
0.0
 11
89.60793886654866
 21
-5.584043929780477
 31
0.0
  0
LINE
  5
3C0
330
1F
100
AcDbEntity
  8
0
100
AcDbLine
 10
44.50880467161415
 20
18.06681637528553
 30
0.0
 11
45.35794240654797
 21
17.41525007475946
 31
0.0
  0
LINE
  5
3C1
330
1F
100
AcDbEntity
  8
0
100
AcDbLine
 10
43.85723837108809
 20
23.0159537822193
 30
0.0
 11
43.44764667158649
 21
22.02711194624705
 31
0.0
  0
LINE
  5
3C2
330
1F
100
AcDbEntity
  8
0
100
AcDbLine
 10
44.50880467161415
 20
23.86509151715311
 30
0.0
 11
43.85723837108809
 21
23.0159537822193
 31
0.0
  0
LINE
  5
3C3
330
1F
100
AcDbEntity
  8
0
100
AcDbLine
 10
-43.05976514613508
 20
-46.56141974882639
 30
0.0
 11
-42.62563946204973
 21
-46.38159900270372
 31
0.0
  0
LINE
  5
3C4
330
1F
100
AcDbEntity
  8
0
100
AcDbLine
 10
-66.1682782657575
 20
-40.58011305289135
 30
0.0
 11
-67.12178992506405
 21
-41.82275364059941
 31
0.0
  0
LINE
  5
3C5
330
1F
100
AcDbEntity
  8
0
100
AcDbLine
 10
-67.12178992506405
 20
-41.82275364059941
 30
0.0
 11
-67.72119241213957
 21
-43.26983925421743
 31
0.0
  0
LINE
  5
3C6
330
1F
100
AcDbEntity
  8
0
100
AcDbLine
 10
-79.70209363124096
 20
-41.92497615355435
 30
0.0
 11
-80.42563643804976
 21
-42.22467739709215
 31
0.0
  0
LINE
  5
3C7
330
1F
100
AcDbEntity
  8
0
100
AcDbLine
 10
-56.13008342395948
 20
-43.26983925421743
 30
0.0
 11
-56.72948591103499
 21
-41.82275364059941
 31
0.0
  0
LINE
  5
3C8
330
1F
100
AcDbEntity
  8
0
100
AcDbLine
 10
-76.80431638419576
 20
-42.70143322674538
 30
0.0
 11
-77.4256366780497
 21
-42.22467739709215
 31
0.0
  0
LINE
  5
3C9
330
1F
100
AcDbEntity
  8
0
100
AcDbLine
 10
66.5254068000853
 20
45.96594179507823
 30
0.0
 11
77.5254009239713
 21
45.96594179507823
 31
0.0
  0
LINE
  5
3CA
330
1F
100
AcDbEntity
  8
0
100
AcDbLine
 10
51.36823781350945
 20
22.02711194624705
 30
0.0
 11
50.95864611400785
 21
23.0159537822193
 31
0.0
  0
LINE
  5
3CB
330
1F
100
AcDbEntity
  8
0
100
AcDbLine
 10
50.30707981348178
 20
18.06681637528553
 30
0.0
 11
50.95864611400785
 21
18.91595411021935
 31
0.0
  0
LINE
  5
3CC
330
1F
100
AcDbEntity
  8
0
100
AcDbLine
 10
49.45794207854797
 20
17.41525007475946
 30
0.0
 11
50.30707981348178
 21
18.06681637528553
 31
0.0
  0
LINE
  5
3CD
330
1F
100
AcDbEntity
  8
0
100
AcDbLine
 10
47.40794224254797
 20
16.86595427421935
 30
0.0
 11
48.46910024257563
 21
17.00565837525787
 31
0.0
  0
LINE
  5
3CE
330
1F
100
AcDbEntity
  8
0
100
AcDbLine
 10
39.40794288254829
 20
28.4550394414694
 30
0.0
 11
39.40794288254829
 21
60.91595075021846
 31
0.0
  0
LINE
  5
3CF
330
1F
100
AcDbEntity
  8
0
100
AcDbLine
 10
36.40794312254787
 20
25.45503968146939
 30
0.0
 11
39.40794288254829
 21
28.4550394414694
 31
0.0
  0
LINE
  5
3D0
330
1F
100
AcDbEntity
  8
0
100
AcDbLine
 10
36.40794312254787
 20
25.45503968146939
 30
0.0
 11
36.40794312254787
 21
16.47686821096907
 31
0.0
  0
LINE
  5
3D1
330
1F
100
AcDbEntity
  8
0
100
AcDbLine
 10
36.40794312254787
 20
16.47686821096907
 30
0.0
 11
39.40794288254829
 21
13.47686845096901
 31
0.0
  0
LINE
  5
3D2
330
1F
100
AcDbEntity
  8
0
100
AcDbLine
 10
77.52540092397193
 20
-4.034033902639456
 30
0.0
 11
66.52540680008575
 21
-4.034033902639186
 31
0.0
  0
LINE
  5
3D3
330
1F
100
AcDbEntity
  8
0
100
AcDbLine
 10
66.52540680008575
 20
-4.034033902639186
 30
0.0
 11
66.5254068000853
 21
45.96594179507823
 31
0.0
  0
LINE
  5
3D4
330
1F
100
AcDbEntity
  8
0
100
AcDbLine
 10
94.40793848254869
 20
-17.11260784672271
 30
0.0
 11
39.40794288254829
 21
-17.11260784672271
 31
0.0
  0
LINE
  5
3D5
330
1F
100
AcDbEntity
  8
0
100
AcDbLine
 10
88.98152648198882
 20
45.21471512222553
 30
0.0
 11
88.54344296863748
 21
45.04476381846911
 31
0.0
  0
LINE
  5
3D6
330
1F
100
AcDbEntity
  8
0
100
AcDbLine
 10
89.44866929575846
 20
45.26549111913465
 30
0.0
 11
88.98152648198882
 21
45.21471512222553
 31
0.0
  0
LINE
  5
3D7
330
1F
100
AcDbEntity
  8
0
100
AcDbLine
 10
89.9130363991781
 20
45.19363150891839
 30
0.0
 11
89.44866929575846
 21
45.26549111913465
 31
0.0
  0
LINE
  5
3D8
330
1F
100
AcDbEntity
  8
0
100
AcDbLine
 10
16.6777014164956
 20
83.30063223176748
 30
0.0
 11
16.6777014164956
 21
79.30063255176746
 31
0.0
  0
LINE
  5
3D9
330
1F
100
AcDbEntity
  8
0
100
AcDbLine
 10
0.4777077086095745
 20
83.30063223176748
 30
0.0
 11
16.6777014164956
 21
83.30063223176748
 31
0.0
  0
LINE
  5
3DA
330
1F
100
AcDbEntity
  8
0
100
AcDbLine
 10
-1.390756299836507
 20
90.80063163176746
 30
0.0
 11
-1.390756299836507
 21
94.80063131176746
 31
0.0
  0
LINE
  5
3DB
330
1F
100
AcDbEntity
  8
0
100
AcDbLine
 10
18.57770126449554
 20
90.80063163176746
 30
0.0
 11
23.57770086449561
 21
90.80063163176746
 31
0.0
  0
LINE
  5
3DC
330
1F
100
AcDbEntity
  8
0
100
AcDbLine
 10
-5.649575004233538
 20
78.33470680275249
 30
0.0
 11
-5.890755939836506
 21
78.43460721726501
 31
0.0
  0
LINE
  5
3DD
330
1F
100
AcDbEntity
  8
0
100
AcDbLine
 10
-5.390755979836525
 20
78.30063263176741
 30
0.0
 11
-0.5222922113904753
 21
78.30063263176741
 31
0.0
  0
LINE
  5
3DE
330
1F
100
AcDbEntity
  8
0
100
AcDbLine
 10
-6.097862704454492
 20
78.5935258271495
 30
0.0
 11
-6.256781314338977
 21
78.80063259176748
 31
0.0
  0
LINE
  5
3DF
330
1F
100
AcDbEntity
  8
0
100
AcDbLine
 10
-5.890755939836506
 20
78.43460721726501
 30
0.0
 11
-6.097862704454492
 21
78.5935258271495
 31
0.0
  0
LINE
  5
3E0
330
1F
100
AcDbEntity
  8
0
100
AcDbLine
 10
-78.14917948485888
 20
-41.92497615355435
 30
0.0
 11
-78.92563655804973
 21
-41.82275364059936
 31
0.0
  0
LINE
  5
3E1
330
1F
100
AcDbEntity
  8
0
100
AcDbLine
 10
-81.04695673190372
 20
-42.70143322674534
 30
0.0
 11
-81.52371256155719
 21
-43.32275352059939
 31
0.0
  0
LINE
  5
3E2
330
1F
100
AcDbEntity
  8
0
100
AcDbLine
 10
-6.390755899836575
 20
90.80063163176746
 30
0.0
 11
-6.390755899836575
 21
79.30063255176746
 31
0.0
  0
LINE
  5
3E3
330
1F
100
AcDbEntity
  8
0
100
AcDbLine
 10
-1.390756299836507
 20
90.80063163176746
 30
0.0
 11
-6.390755899836575
 21
90.80063163176746
 31
0.0
  0
LINE
  5
3E4
330
1F
100
AcDbEntity
  8
0
100
AcDbLine
 10
-0.890756339836437
 20
95.66665664626993
 30
0.0
 11
-0.6495754042334694
 21
95.76655706078245
 31
0.0
  0
LINE
  5
3E5
330
1F
100
AcDbEntity
  8
0
100
AcDbLine
 10
-1.256781714338909
 20
95.30063127176744
 30
0.0
 11
-1.097863104454424
 21
95.50773803638545
 31
0.0
  0
LINE
  5
3E6
330
1F
100
AcDbEntity
  8
0
100
AcDbLine
 10
-1.356682128851436
 20
95.05945033616449
 30
0.0
 11
-1.256781714338909
 21
95.30063127176744
 31
0.0
  0
LINE
  5
3E7
330
1F
100
AcDbEntity
  8
0
100
AcDbLine
 10
-1.390756299836507
 20
94.80063131176746
 30
0.0
 11
-1.356682128851436
 21
95.05945033616449
 31
0.0
  0
LINE
  5
3E8
330
1F
100
AcDbEntity
  8
0
100
AcDbLine
 10
-55.92563839804941
 20
-49.32275304059942
 30
0.0
 11
-39.52563971004969
 21
-49.32275304059942
 31
0.0
  0
LINE
  5
3E9
330
1F
100
AcDbEntity
  8
0
100
AcDbLine
 10
-94.5256353100499
 20
-49.32275304059942
 30
0.0
 11
-94.5256353100499
 21
-25.72275492859926
 31
0.0
  0
LINE
  5
3EA
330
1F
100
AcDbEntity
  8
0
100
AcDbLine
 10
-88.72563577405009
 20
-44.82275340059942
 30
0.0
 11
-88.78696928182286
 21
-44.35687915668484
 31
0.0
  0
LINE
  5
3EB
330
1F
100
AcDbEntity
  8
0
100
AcDbLine
 10
-75.92563679804968
 20
-49.32275304059942
 30
0.0
 11
-67.92563743804963
 21
-49.32275304059942
 31
0.0
  0
LINE
  5
3EC
330
1F
100
AcDbEntity
  8
0
100
AcDbLine
 10
-88.96679002794566
 20
-45.7227533285994
 30
0.0
 11
-88.78696928182286
 21
-45.28862764451399
 31
0.0
  0
LINE
  5
3ED
330
1F
100
AcDbEntity
  8
0
100
AcDbLine
 10
-88.78696928182286
 20
-45.28862764451399
 30
0.0
 11
-88.72563577405009
 21
-44.82275340059942
 31
0.0
  0
LINE
  5
3EE
330
1F
100
AcDbEntity
  8
0
100
AcDbLine
 10
-41.96679378794549
 20
-43.92275347259944
 30
0.0
 11
-42.25284728573732
 21
-43.54996129628702
 31
0.0
  0
LINE
  5
3EF
330
1F
100
AcDbEntity
  8
0
100
AcDbLine
 10
-43.52563939004971
 20
-46.62275325659938
 30
0.0
 11
-43.05976514613508
 21
-46.56141974882639
 31
0.0
  0
LINE
  5
3F0
330
1F
100
AcDbEntity
  8
0
100
AcDbLine
 10
-44.79843149436219
 20
-43.54996129628702
 30
0.0
 11
-45.08448499215383
 21
-43.92275347259944
 31
0.0
  0
LINE
  5
3F1
330
1F
100
AcDbEntity
  8
0
100
AcDbLine
 10
-91.79842773436245
 20
-43.54996129628702
 30
0.0
 11
-92.08448123215409
 21
-43.92275347259944
 31
0.0
  0
LINE
  5
3F2
330
1F
100
AcDbEntity
  8
0
100
AcDbLine
 10
-67.72119241213957
 20
-43.26983925421743
 30
0.0
 11
-67.92563743804963
 21
-44.82275340059942
 31
0.0
  0
LINE
  5
3F3
330
1F
100
AcDbEntity
  8
0
100
AcDbLine
 10
-92.08448123215409
 20
-43.92275347259944
 30
0.0
 11
-92.2643019782769
 21
-44.35687915668484
 31
0.0
  0
LINE
  5
3F4
330
1F
100
AcDbEntity
  8
0
100
AcDbLine
 10
-45.32563924604976
 20
-44.82275340059942
 30
0.0
 11
-45.26430573827663
 21
-45.28862764451399
 31
0.0
  0
LINE
  5
3F5
330
1F
100
AcDbEntity
  8
0
100
AcDbLine
 10
-90.52563563005006
 20
-46.62275325659938
 30
0.0
 11
-90.05976138613526
 21
-46.56141974882639
 31
0.0
  0
LINE
  5
3F6
330
1F
100
AcDbEntity
  8
0
100
AcDbLine
 10
-92.2643019782769
 20
-44.35687915668484
 30
0.0
 11
-92.32563548605002
 21
-44.82275340059942
 31
0.0
  0
LINE
  5
3F7
330
1F
100
AcDbEntity
  8
0
100
AcDbLine
 10
-58.92563815804947
 20
-39.62660139358498
 30
0.0
 11
-60.37272377166762
 21
-39.02719890650936
 31
0.0
  0
LINE
  5
3F8
330
1F
100
AcDbEntity
  8
0
100
AcDbLine
 10
-56.72948591103499
 20
-41.82275364059941
 30
0.0
 11
-57.68299757034154
 21
-40.58011305289135
 31
0.0
  0
LINE
  5
3F9
330
1F
100
AcDbEntity
  8
0
100
AcDbLine
 10
-90.52563563005006
 20
-43.02275354459945
 30
0.0
 11
-90.9915098739645
 21
-43.08408705237245
 31
0.0
  0
LINE
  5
3FA
330
1F
100
AcDbEntity
  8
0
100
AcDbLine
 10
-90.05976138613526
 20
-43.08408705237245
 30
0.0
 11
-90.52563563005006
 21
-43.02275354459945
 31
0.0
  0
LINE
  5
3FB
330
1F
100
AcDbEntity
  8
0
100
AcDbLine
 10
-42.25284728573732
 20
-46.09554550491181
 30
0.0
 11
-41.96679378794549
 21
-45.7227533285994
 31
0.0
  0
LINE
  5
3FC
330
1F
100
AcDbEntity
  8
0
100
AcDbLine
 10
-75.92563679804968
 20
-44.82275340059942
 30
0.0
 11
-75.92563679804968
 21
-49.32275304059942
 31
0.0
  0
LINE
  5
3FD
330
1F
100
AcDbEntity
  8
0
100
AcDbLine
 10
-41.96679378794549
 20
-45.7227533285994
 30
0.0
 11
-41.78697304182269
 21
-45.28862764451399
 31
0.0
  0
ENDSEC
  0
SECTION
  2
OBJECTS
  0
DICTIONARY
  5
C
330
0
100
AcDbDictionary
281
     1
  3
ACAD_GROUP
350
D
  3
ACAD_LAYOUT
350
1A
  3
ACAD_MATERIAL
350
3B
  3
ACAD_MLEADERSTYLE
350
3FF
  3
ACAD_MLINESTYLE
350
17
  3
ACAD_PLOTSETTINGS
350
19
  3
ACAD_PLOTSTYLENAME
350
E
  3
ACAD_TABLESTYLE
350
3FE
  3
ACAD_VISUALSTYLE
350
2A
  0
DICTIONARY
  5
D
102
{ACAD_REACTORS
330
C
102
}
330
C
100
AcDbDictionary
281
     1
  0
DICTIONARY
  5
1A
102
{ACAD_REACTORS
330
C
102
}
330
C
100
AcDbDictionary
281
     1
  3
Layout1
350
1E
  3
Layout2
350
26
  3
Model
350
22
  0
DICTIONARY
  5
3B
102
{ACAD_REACTORS
330
C
102
}
330
C
100
AcDbDictionary
281
     1
  3
ByBlock
350
3D
  3
ByLayer
350
3C
  3
Global
350
3E
  0
DICTIONARY
  5
3FF
102
{ACAD_REACTORS
330
C
102
}
330
C
100
AcDbDictionary
281
     1
  0
DICTIONARY
  5
17
102
{ACAD_REACTORS
330
C
102
}
330
C
100
AcDbDictionary
281
     1
  3
Standard
350
18
  0
DICTIONARY
  5
19
102
{ACAD_REACTORS
330
C
102
}
330
C
100
AcDbDictionary
281
     1
  0
ACDBDICTIONARYWDFLT
  5
E
102
{ACAD_REACTORS
330
C
102
}
330
C
100
AcDbDictionary
281
     1
  3
Normal
350
F
100
AcDbDictionaryWithDefault
340
F
  0
DICTIONARY
  5
3FE
102
{ACAD_REACTORS
330
C
102
}
330
C
100
AcDbDictionary
281
     1
  0
DICTIONARY
  5
2A
102
{ACAD_REACTORS
330
C
102
}
330
C
100
AcDbDictionary
281
     1
  3
2dWireframe
350
2F
  3
3D Hidden
350
31
  3
3dWireframe
350
30
  3
Basic
350
32
  3
Brighten
350
36
  3
ColorChange
350
3A
  3
Conceptual
350
34
  3
Dim
350
35
  3
Facepattern
350
39
  3
Flat
350
2B
  3
FlatWithEdges
350
2C
  3
Gouraud
350
2D
  3
GouraudWithEdges
350
2E
  3
Linepattern
350
38
  3
Realistic
350
33
  3
Thicken
350
37
  0
LAYOUT
  5
1E
102
{ACAD_REACTORS
330
1A
102
}
330
1A
100
AcDbPlotSettings
  1

  2
none_device
  4

  6

 40
0.0
 41
0.0
 42
0.0
 43
0.0
 44
0.0
 45
0.0
 46
0.0
 47
0.0
 48
0.0
 49
0.0
140
0.0
141
0.0
142
1.0
143
1.0
 70
   688
 72
     0
 73
     0
 74
     5
  7

 75
    16
 76
     0
 77
     2
 78
   300
147
1.0
148
0.0
149
0.0
100
AcDbLayout
  1
Layout1
 70
     1
 71
     1
 10
0.0
 20
0.0
 11
12.0
 21
9.0
 12
0.0
 22
0.0
 32
0.0
 14
1.000000000000000E+20
 24
1.000000000000000E+20
 34
1.000000000000000E+20
 15
-1.000000000000000E+20
 25
-1.000000000000000E+20
 35
-1.000000000000000E+20
146
0.0
 13
0.0
 23
0.0
 33
0.0
 16
1.0
 26
0.0
 36
0.0
 17
0.0
 27
1.0
 37
0.0
 76
     0
330
1B
  0
LAYOUT
  5
26
102
{ACAD_REACTORS
330
1A
102
}
330
1A
100
AcDbPlotSettings
  1

  2
none_device
  4

  6

 40
0.0
 41
0.0
 42
0.0
 43
0.0
 44
0.0
 45
0.0
 46
0.0
 47
0.0
 48
0.0
 49
0.0
140
0.0
141
0.0
142
1.0
143
1.0
 70
   688
 72
     0
 73
     0
 74
     5
  7

 75
    16
 76
     0
 77
     2
 78
   300
147
1.0
148
0.0
149
0.0
100
AcDbLayout
  1
Layout2
 70
     1
 71
     2
 10
0.0
 20
0.0
 11
0.0
 21
0.0
 12
0.0
 22
0.0
 32
0.0
 14
0.0
 24
0.0
 34
0.0
 15
0.0
 25
0.0
 35
0.0
146
0.0
 13
0.0
 23
0.0
 33
0.0
 16
1.0
 26
0.0
 36
0.0
 17
0.0
 27
1.0
 37
0.0
 76
     0
330
23
  0
LAYOUT
  5
22
102
{ACAD_REACTORS
330
1A
102
}
330
1A
100
AcDbPlotSettings
  1

  2
none_device
  4

  6

 40
0.0
 41
0.0
 42
0.0
 43
0.0
 44
0.0
 45
0.0
 46
0.0
 47
0.0
 48
0.0
 49
0.0
140
0.0
141
0.0
142
1.0
143
1.0
 70
  1712
 72
     0
 73
     0
 74
     0
  7

 75
     0
 76
     0
 77
     2
 78
   300
147
1.0
148
0.0
149
0.0
100
AcDbLayout
  1
Model
 70
     1
 71
     0
 10
0.0
 20
0.0
 11
12.0
 21
9.0
 12
0.0
 22
0.0
 32
0.0
 14
1.000000000000000E+20
 24
1.000000000000000E+20
 34
1.000000000000000E+20
 15
-1.000000000000000E+20
 25
-1.000000000000000E+20
 35
-1.000000000000000E+20
146
0.0
 13
0.0
 23
0.0
 33
0.0
 16
1.0
 26
0.0
 36
0.0
 17
0.0
 27
1.0
 37
0.0
 76
     0
330
1F
331
29
  0
MATERIAL
  5
3D
102
{ACAD_REACTORS
330
3B
102
}
330
3B
100
AcDbMaterial
  1
ByBlock
 72
     1
 94
      127
  0
MATERIAL
  5
3C
102
{ACAD_REACTORS
330
3B
102
}
330
3B
100
AcDbMaterial
  1
ByLayer
 72
     1
 94
      127
  0
MATERIAL
  5
3E
102
{ACAD_REACTORS
330
3B
102
}
330
3B
100
AcDbMaterial
  1
Global
 72
     1
 94
      127
  0
MLINESTYLE
  5
18
102
{ACAD_REACTORS
330
17
102
}
330
17
100
AcDbMlineStyle
  2
Standard
 70
     0
  3

 62
   256
 51
90.0
 52
90.0
 71
     2
 49
0.5
 62
   256
  6
BYLAYER
 49
-0.5
 62
   256
  6
BYLAYER
  0
ACDBPLACEHOLDER
  5
F
102
{ACAD_REACTORS
330
E
102
}
330
E
  0
VISUALSTYLE
  5
2F
102
{ACAD_REACTORS
330
2A
102
}
330
2A
100
AcDbVisualStyle
  2
2dWireframe
 70
     4
177
     2
291
     0
 71
     0
176
     1
 72
     2
176
     1
 73
     0
176
     1
 90
        0
176
     1
 40
-0.6
176
     1
 41
-30.0
176
     1
 62
     5
 63
     7
421
 16777215
176
     1
 74
     1
176
     1
 91
        4
176
     1
 64
     7
176
     1
 65
   257
176
     1
 75
     1
176
     1
175
     1
176
     1
 42
1.0
176
     1
 92
        0
176
     1
 66
   257
176
     1
 43
1.0
176
     1
 76
     1
176
     1
 77
     6
176
     1
 78
     2
176
     1
 67
     7
176
     1
 79
     5
176
     1
170
     0
176
     1
171
     0
176
     1
290
     0
176
     1
 93
        1
176
     1
 44
0.0
176
     1
173
     0
176
     1
  0
VISUALSTYLE
  5
31
102
{ACAD_REACTORS
330
2A
102
}
330
2A
100
AcDbVisualStyle
  2
3D Hidden
 70
     6
177
     2
291
     0
 71
     1
176
     1
 72
     2
176
     1
 73
     2
176
     1
 90
        0
176
     1
 40
-0.6
176
     1
 41
-30.0
176
     1
 62
     5
 63
     7
421
 16777215
176
     1
 74
     2
176
     1
 91
        2
176
     1
 64
     7
176
     1
 65
   257
176
     1
 75
     2
176
     1
175
     1
176
     1
 42
40.0
176
     1
 92
        0
176
     1
 66
   257
176
     1
 43
1.0
176
     1
 76
     1
176
     1
 77
     6
176
     1
 78
     2
176
     1
 67
     7
176
     1
 79
     3
176
     1
170
     0
176
     1
171
     0
176
     1
290
     0
176
     1
 93
        1
176
     1
 44
0.0
176
     1
173
     0
176
     1
  0
VISUALSTYLE
  5
30
102
{ACAD_REACTORS
330
2A
102
}
330
2A
100
AcDbVisualStyle
  2
3dWireframe
 70
     5
177
     2
291
     0
 71
     0
176
     1
 72
     2
176
     1
 73
     0
176
     1
 90
        0
176
     1
 40
-0.6
176
     1
 41
-30.0
176
     1
 62
     5
 63
     7
421
 16777215
176
     1
 74
     1
176
     1
 91
        4
176
     1
 64
     7
176
     1
 65
   257
176
     1
 75
     1
176
     1
175
     1
176
     1
 42
1.0
176
     1
 92
        0
176
     1
 66
   257
176
     1
 43
1.0
176
     1
 76
     1
176
     1
 77
     6
176
     1
 78
     2
176
     1
 67
     7
176
     1
 79
     5
176
     1
170
     0
176
     1
171
     0
176
     1
290
     0
176
     1
 93
        1
176
     1
 44
0.0
176
     1
173
     0
176
     1
  0
VISUALSTYLE
  5
32
102
{ACAD_REACTORS
330
2A
102
}
330
2A
100
AcDbVisualStyle
  2
Basic
 70
     7
177
     2
291
     1
 71
     1
176
     1
 72
     0
176
     1
 73
     1
176
     1
 90
        0
176
     1
 40
-0.6
176
     1
 41
-30.0
176
     1
 62
     5
 63
     7
421
 16777215
176
     1
 74
     0
176
     1
 91
        4
176
     1
 64
     7
176
     1
 65
   257
176
     1
 75
     1
176
     1
175
     1
176
     1
 42
1.0
176
     1
 92
        8
176
     1
 66
     7
176
     1
 43
1.0
176
     1
 76
     1
176
     1
 77
     6
176
     1
 78
     2
176
     1
 67
     7
176
     1
 79
     5
176
     1
170
     0
176
     1
171
     0
176
     1
290
     0
176
     1
 93
        1
176
     1
 44
0.0
176
     1
173
     0
176
     1
  0
VISUALSTYLE
  5
36
102
{ACAD_REACTORS
330
2A
102
}
330
2A
100
AcDbVisualStyle
  2
Brighten
 70
    12
177
     2
291
     1
 71
     2
176
     1
 72
     2
176
     1
 73
     0
176
     1
 90
        0
176
     1
 40
-0.6
176
     1
 41
-30.0
176
     1
 62
     5
 63
     7
421
 16777215
176
     1
 74
     1
176
     1
 91
        4
176
     1
 64
     7
176
     1
 65
   257
176
     1
 75
     1
176
     1
175
     1
176
     1
 42
1.0
176
     1
 92
        8
176
     1
 66
     7
176
     1
 43
1.0
176
     1
 76
     1
176
     1
 77
     6
176
     1
 78
     2
176
     1
 67
     7
176
     1
 79
     5
176
     1
170
     0
176
     1
171
     0
176
     1
290
     0
176
     1
 93
        1
176
     1
 44
50.0
176
     1
173
     0
176
     1
  0
VISUALSTYLE
  5
3A
102
{ACAD_REACTORS
330
2A
102
}
330
2A
100
AcDbVisualStyle
  2
ColorChange
 70
    16
177
     2
291
     1
 71
     2
176
     1
 72
     2
176
     1
 73
     3
176
     1
 90
        0
176
     1
 40
-0.6
176
     1
 41
-30.0
176
     1
 62
     5
 63
     8
421
  8421504
176
     1
 74
     1
176
     1
 91
        4
176
     1
 64
     7
176
     1
 65
   257
176
     1
 75
     1
176
     1
175
     1
176
     1
 42
1.0
176
     1
 92
        8
176
     1
 66
     8
424
  8421504
176
     1
 43
1.0
176
     1
 76
     1
176
     1
 77
     6
176
     1
 78
     2
176
     1
 67
     7
176
     1
 79
     5
176
     1
170
     0
176
     1
171
     0
176
     1
290
     0
176
     1
 93
        1
176
     1
 44
0.0
176
     1
173
     0
176
     1
  0
VISUALSTYLE
  5
34
102
{ACAD_REACTORS
330
2A
102
}
330
2A
100
AcDbVisualStyle
  2
Conceptual
 70
     9
177
     2
291
     0
 71
     3
176
     1
 72
     2
176
     1
 73
     0
176
     1
 90
        0
176
     1
 40
-0.6
176
     1
 41
-30.0
176
     1
 62
     5
 63
     7
421
 16777215
176
     1
 74
     2
176
     1
 91
        2
176
     1
 64
     7
176
     1
 65
   257
176
     1
 75
     1
176
     1
175
     1
176
     1
 42
40.0
176
     1
 92
        8
176
     1
 66
     7
176
     1
 43
1.0
176
     1
 76
     1
176
     1
 77
     6
176
     1
 78
     2
176
     1
 67
     7
176
     1
 79
     3
176
     1
170
     0
176
     1
171
     0
176
     1
290
     0
176
     1
 93
        1
176
     1
 44
0.0
176
     1
173
     0
176
     1
  0
VISUALSTYLE
  5
35
102
{ACAD_REACTORS
330
2A
102
}
330
2A
100
AcDbVisualStyle
  2
Dim
 70
    11
177
     2
291
     1
 71
     2
176
     1
 72
     2
176
     1
 73
     0
176
     1
 90
        0
176
     1
 40
-0.6
176
     1
 41
-30.0
176
     1
 62
     5
 63
     7
421
 16777215
176
     1
 74
     1
176
     1
 91
        4
176
     1
 64
     7
176
     1
 65
   257
176
     1
 75
     1
176
     1
175
     1
176
     1
 42
1.0
176
     1
 92
        8
176
     1
 66
     7
176
     1
 43
1.0
176
     1
 76
     1
176
     1
 77
     6
176
     1
 78
     2
176
     1
 67
     7
176
     1
 79
     5
176
     1
170
     0
176
     1
171
     0
176
     1
290
     0
176
     1
 93
        1
176
     1
 44
-50.0
176
     1
173
     0
176
     1
  0
VISUALSTYLE
  5
39
102
{ACAD_REACTORS
330
2A
102
}
330
2A
100
AcDbVisualStyle
  2
Facepattern
 70
    15
177
     2
291
     1
 71
     2
176
     1
 72
     2
176
     1
 73
     0
176
     1
 90
        0
176
     1
 40
-0.6
176
     1
 41
-30.0
176
     1
 62
     5
 63
     7
421
 16777215
176
     1
 74
     1
176
     1
 91
        4
176
     1
 64
     7
176
     1
 65
   257
176
     1
 75
     1
176
     1
175
     1
176
     1
 42
1.0
176
     1
 92
        8
176
     1
 66
     7
176
     1
 43
1.0
176
     1
 76
     1
176
     1
 77
     6
176
     1
 78
     2
176
     1
 67
     7
176
     1
 79
     5
176
     1
170
     0
176
     1
171
     0
176
     1
290
     0
176
     1
 93
        1
176
     1
 44
0.0
176
     1
173
     0
176
     1
  0
VISUALSTYLE
  5
2B
102
{ACAD_REACTORS
330
2A
102
}
330
2A
100
AcDbVisualStyle
  2
Flat
 70
     0
177
     2
291
     1
 71
     2
176
     1
 72
     1
176
     1
 73
     1
176
     1
 90
        2
176
     1
 40
-0.6
176
     1
 41
30.0
176
     1
 62
     5
 63
     7
421
 16777215
176
     1
 74
     0
176
     1
 91
        4
176
     1
 64
     7
176
     1
 65
   257
176
     1
 75
     1
176
     1
175
     1
176
     1
 42
1.0
176
     1
 92
        8
176
     1
 66
     7
176
     1
 43
1.0
176
     1
 76
     1
176
     1
 77
     6
176
     1
 78
     2
176
     1
 67
     7
176
     1
 79
     5
176
     1
170
     0
176
     1
171
     0
176
     1
290
     0
176
     1
 93
       13
176
     1
 44
0.0
176
     1
173
     0
176
     1
  0
VISUALSTYLE
  5
2C
102
{ACAD_REACTORS
330
2A
102
}
330
2A
100
AcDbVisualStyle
  2
FlatWithEdges
 70
     1
177
     2
291
     1
 71
     2
176
     1
 72
     1
176
     1
 73
     1
176
     1
 90
        2
176
     1
 40
-0.6
176
     1
 41
30.0
176
     1
 62
     5
 63
     7
421
 16777215
176
     1
 74
     1
176
     1
 91
        4
176
     1
 64
     7
176
     1
 65
   257
176
     1
 75
     1
176
     1
175
     1
176
     1
 42
1.0
176
     1
 92
        0
176
     1
 66
   257
176
     1
 43
1.0
176
     1
 76
     1
176
     1
 77
     6
176
     1
 78
     2
176
     1
 67
     7
176
     1
 79
     5
176
     1
170
     0
176
     1
171
     0
176
     1
290
     0
176
     1
 93
       13
176
     1
 44
0.0
176
     1
173
     0
176
     1
  0
VISUALSTYLE
  5
2D
102
{ACAD_REACTORS
330
2A
102
}
330
2A
100
AcDbVisualStyle
  2
Gouraud
 70
     2
177
     2
291
     1
 71
     2
176
     1
 72
     2
176
     1
 73
     1
176
     1
 90
        2
176
     1
 40
-0.6
176
     1
 41
30.0
176
     1
 62
     5
 63
     7
421
 16777215
176
     1
 74
     0
176
     1
 91
        4
176
     1
 64
     7
176
     1
 65
   257
176
     1
 75
     1
176
     1
175
     1
176
     1
 42
1.0
176
     1
 92
        0
176
     1
 66
     7
176
     1
 43
1.0
176
     1
 76
     1
176
     1
 77
     6
176
     1
 78
     2
176
     1
 67
     7
176
     1
 79
     5
176
     1
170
     0
176
     1
171
     0
176
     1
290
     0
176
     1
 93
       13
176
     1
 44
0.0
176
     1
173
     0
176
     1
  0
VISUALSTYLE
  5
2E
102
{ACAD_REACTORS
330
2A
102
}
330
2A
100
AcDbVisualStyle
  2
GouraudWithEdges
 70
     3
177
     2
291
     1
 71
     2
176
     1
 72
     2
176
     1
 73
     1
176
     1
 90
        2
176
     1
 40
-0.6
176
     1
 41
30.0
176
     1
 62
     5
 63
     7
421
 16777215
176
     1
 74
     1
176
     1
 91
        4
176
     1
 64
     7
176
     1
 65
   257
176
     1
 75
     1
176
     1
175
     1
176
     1
 42
1.0
176
     1
 92
        0
176
     1
 66
   257
176
     1
 43
1.0
176
     1
 76
     1
176
     1
 77
     6
176
     1
 78
     2
176
     1
 67
     7
176
     1
 79
     5
176
     1
170
     0
176
     1
171
     0
176
     1
290
     0
176
     1
 93
       13
176
     1
 44
0.0
176
     1
173
     0
176
     1
  0
VISUALSTYLE
  5
38
102
{ACAD_REACTORS
330
2A
102
}
330
2A
100
AcDbVisualStyle
  2
Linepattern
 70
    14
177
     2
291
     1
 71
     2
176
     1
 72
     2
176
     1
 73
     0
176
     1
 90
        0
176
     1
 40
-0.6
176
     1
 41
-30.0
176
     1
 62
     5
 63
     7
421
 16777215
176
     1
 74
     1
176
     1
 91
        4
176
     1
 64
     7
176
     1
 65
   257
176
     1
 75
     7
176
     1
175
     7
176
     1
 42
1.0
176
     1
 92
        8
176
     1
 66
     7
176
     1
 43
1.0
176
     1
 76
     1
176
     1
 77
     6
176
     1
 78
     2
176
     1
 67
     7
176
     1
 79
     5
176
     1
170
     0
176
     1
171
     0
176
     1
290
     0
176
     1
 93
        1
176
     1
 44
0.0
176
     1
173
     0
176
     1
  0
VISUALSTYLE
  5
33
102
{ACAD_REACTORS
330
2A
102
}
330
2A
100
AcDbVisualStyle
  2
Realistic
 70
     8
177
     2
291
     0
 71
     2
176
     1
 72
     2
176
     1
 73
     0
176
     1
 90
        0
176
     1
 40
-0.6
176
     1
 41
-30.0
176
     1
 62
     5
 63
     7
421
 16777215
176
     1
 74
     1
176
     1
 91
        0
176
     1
 64
     7
176
     1
 65
   257
176
     1
 75
     1
176
     1
175
     1
176
     1
 42
1.0
176
     1
 92
        8
176
     1
 66
     8
424
  7895160
176
     1
 43
1.0
176
     1
 76
     1
176
     1
 77
     6
176
     1
 78
     2
176
     1
 67
     7
176
     1
 79
     5
176
     1
170
     0
176
     1
171
     0
176
     1
290
     0
176
     1
 93
       13
176
     1
 44
0.0
176
     1
173
     0
176
     1
  0
VISUALSTYLE
  5
37
102
{ACAD_REACTORS
330
2A
102
}
330
2A
100
AcDbVisualStyle
  2
Thicken
 70
    13
177
     2
291
     1
 71
     2
176
     1
 72
     2
176
     1
 73
     0
176
     1
 90
        0
176
     1
 40
-0.6
176
     1
 41
-30.0
176
     1
 62
     5
 63
     7
421
 16777215
176
     1
 74
     1
176
     1
 91
        4
176
     1
 64
     7
176
     1
 65
   257
176
     1
 75
     1
176
     1
175
     1
176
     1
 42
1.0
176
     1
 92
       12
176
     1
 66
     7
176
     1
 43
1.0
176
     1
 76
     1
176
     1
 77
     6
176
     1
 78
     2
176
     1
 67
     7
176
     1
 79
     5
176
     1
170
     0
176
     1
171
     0
176
     1
290
     0
176
     1
 93
        1
176
     1
 44
0.0
176
     1
173
     0
176
     1
  0
ENDSEC
  0
EOF
