  0
SECTION
  2
HEADER
  9
$ACADVER
  1
AC1024
  9
$ACADMAINTVER
 70
     6
  9
$DWGCODEPAGE
  3
ANSI_1252
  9
$INSBASE
 10
0.0
 20
0.0
 30
0.0
  9
$EXTMIN
 10
1.000000000000000E+20
 20
1.000000000000000E+20
 30
1.000000000000000E+20
  9
$EXTMAX
 10
-1.000000000000000E+20
 20
-1.000000000000000E+20
 30
-1.000000000000000E+20
  9
$LIMMIN
 10
0.0
 20
0.0
  9
$LIMMAX
 10
12.0
 20
9.0
  9
$ORTHOMODE
 70
     0
  9
$REGENMODE
 70
     1
  9
$FILLMODE
 70
     1
  9
$QTEXTMODE
 70
     0
  9
$MIRRTEXT
 70
     1
  9
$LTSCALE
 40
1.0
  9
$ATTMODE
 70
     1
  9
$TEXTSIZE
 40
0.2
  9
$TRACEWID
 40
0.05
  9
$TEXTSTYLE
  7
Standard
  9
$CLAYER
  8
0
  9
$CELTYPE
  6
ByLayer
  9
$CECOLOR
 62
   256
  9
$CELTSCALE
 40
1.0
  9
$DISPSILH
 70
     0
  9
$DIMSCALE
 40
1.0
  9
$DIMASZ
 40
0.18
  9
$DIMEXO
 40
0.0625
  9
$DIMDLI
 40
0.38
  9
$DIMRND
 40
0.0
  9
$DIMDLE
 40
0.0
  9
$DIMEXE
 40
0.18
  9
$DIMTP
 40
0.0
  9
$DIMTM
 40
0.0
  9
$DIMTXT
 40
0.18
  9
$DIMCEN
 40
0.09
  9
$DIMTSZ
 40
0.0
  9
$DIMTOL
 70
     0
  9
$DIMLIM
 70
     0
  9
$DIMTIH
 70
     1
  9
$DIMTOH
 70
     1
  9
$DIMSE1
 70
     0
  9
$DIMSE2
 70
     0
  9
$DIMTAD
 70
     0
  9
$DIMZIN
 70
     0
  9
$DIMBLK
  1

  9
$DIMASO
 70
     1
  9
$DIMSHO
 70
     1
  9
$DIMPOST
  1

  9
$DIMAPOST
  1

  9
$DIMALT
 70
     0
  9
$DIMALTD
 70
     2
  9
$DIMALTF
 40
25.4
  9
$DIMLFAC
 40
1.0
  9
$DIMTOFL
 70
     0
  9
$DIMTVP
 40
0.0
  9
$DIMTIX
 70
     0
  9
$DIMSOXD
 70
     0
  9
$DIMSAH
 70
     0
  9
$DIMBLK1
  1

  9
$DIMBLK2
  1

  9
$DIMSTYLE
  2
Standard
  9
$DIMCLRD
 70
     0
  9
$DIMCLRE
 70
     0
  9
$DIMCLRT
 70
     0
  9
$DIMTFAC
 40
1.0
  9
$DIMGAP
 40
0.09
  9
$DIMJUST
 70
     0
  9
$DIMSD1
 70
     0
  9
$DIMSD2
 70
     0
  9
$DIMTOLJ
 70
     1
  9
$DIMTZIN
 70
     0
  9
$DIMALTZ
 70
     0
  9
$DIMALTTZ
 70
     0
  9
$DIMUPT
 70
     0
  9
$DIMDEC
 70
     4
  9
$DIMTDEC
 70
     4
  9
$DIMALTU
 70
     2
  9
$DIMALTTD
 70
     2
  9
$DIMTXSTY
  7
Standard
  9
$DIMAUNIT
 70
     0
  9
$DIMADEC
 70
     0
  9
$DIMALTRND
 40
0.0
  9
$DIMAZIN
 70
     0
  9
$DIMDSEP
 70
    46
  9
$DIMATFIT
 70
     3
  9
$DIMFRAC
 70
     0
  9
$DIMLDRBLK
  1

  9
$DIMLUNIT
 70
     2
  9
$DIMLWD
 70
    -2
  9
$DIMLWE
 70
    -2
  9
$DIMTMOVE
 70
     0
  9
$DIMFXL
 40
1.0
  9
$DIMFXLON
 70
     0
  9
$DIMJOGANG
 40
0.7853981633974483
  9
$DIMTFILL
 70
     0
  9
$DIMTFILLCLR
 70
     0
  9
$DIMARCSYM
 70
     0
  9
$DIMLTYPE
  6

  9
$DIMLTEX1
  6

  9
$DIMLTEX2
  6

  9
$DIMTXTDIRECTION
 70
     0
  9
$LUNITS
 70
     2
  9
$LUPREC
 70
     4
  9
$SKETCHINC
 40
0.1
  9
$FILLETRAD
 40
0.5
  9
$AUNITS
 70
     0
  9
$AUPREC
 70
     0
  9
$MENU
  1
.
  9
$ELEVATION
 40
0.0
  9
$PELEVATION
 40
0.0
  9
$THICKNESS
 40
0.0
  9
$LIMCHECK
 70
     0
  9
$CHAMFERA
 40
0.5
  9
$CHAMFERB
 40
0.5
  9
$CHAMFERC
 40
1.0
  9
$CHAMFERD
 40
0.0
  9
$SKPOLY
 70
     0
  9
$TDCREATE
 40
2456396.574639444
  9
$TDUCREATE
 40
2456396.741306111
  9
$TDUPDATE
 40
2456396.574639456
  9
$TDUUPDATE
 40
2456396.741306123
  9
$TDINDWG
 40
0.0000000116
  9
$TDUSRTIMER
 40
0.0000000116
  9
$USRTIMER
 70
     1
  9
$ANGBASE
 50
0.0
  9
$ANGDIR
 70
     0
  9
$PDMODE
 70
     0
  9
$PDSIZE
 40
0.0
  9
$PLINEWID
 40
0.0
  9
$SPLFRAME
 70
     0
  9
$SPLINETYPE
 70
     6
  9
$SPLINESEGS
 70
     8
  9
$HANDSEED
  5
440
  9
$SURFTAB1
 70
     6
  9
$SURFTAB2
 70
     6
  9
$SURFTYPE
 70
     6
  9
$SURFU
 70
     6
  9
$SURFV
 70
     6
  9
$UCSBASE
  2

  9
$UCSNAME
  2

  9
$UCSORG
 10
0.0
 20
0.0
 30
0.0
  9
$UCSXDIR
 10
1.0
 20
0.0
 30
0.0
  9
$UCSYDIR
 10
0.0
 20
1.0
 30
0.0
  9
$UCSORTHOREF
  2

  9
$UCSORTHOVIEW
 70
     0
  9
$UCSORGTOP
 10
0.0
 20
0.0
 30
0.0
  9
$UCSORGBOTTOM
 10
0.0
 20
0.0
 30
0.0
  9
$UCSORGLEFT
 10
0.0
 20
0.0
 30
0.0
  9
$UCSORGRIGHT
 10
0.0
 20
0.0
 30
0.0
  9
$UCSORGFRONT
 10
0.0
 20
0.0
 30
0.0
  9
$UCSORGBACK
 10
0.0
 20
0.0
 30
0.0
  9
$PUCSBASE
  2

  9
$PUCSNAME
  2

  9
$PUCSORG
 10
0.0
 20
0.0
 30
0.0
  9
$PUCSXDIR
 10
1.0
 20
0.0
 30
0.0
  9
$PUCSYDIR
 10
0.0
 20
1.0
 30
0.0
  9
$PUCSORTHOREF
  2

  9
$PUCSORTHOVIEW
 70
     0
  9
$PUCSORGTOP
 10
0.0
 20
0.0
 30
0.0
  9
$PUCSORGBOTTOM
 10
0.0
 20
0.0
 30
0.0
  9
$PUCSORGLEFT
 10
0.0
 20
0.0
 30
0.0
  9
$PUCSORGRIGHT
 10
0.0
 20
0.0
 30
0.0
  9
$PUCSORGFRONT
 10
0.0
 20
0.0
 30
0.0
  9
$PUCSORGBACK
 10
0.0
 20
0.0
 30
0.0
  9
$USERI1
 70
     0
  9
$USERI2
 70
     0
  9
$USERI3
 70
     0
  9
$USERI4
 70
     0
  9
$USERI5
 70
     0
  9
$USERR1
 40
0.0
  9
$USERR2
 40
0.0
  9
$USERR3
 40
0.0
  9
$USERR4
 40
0.0
  9
$USERR5
 40
0.0
  9
$WORLDVIEW
 70
     1
  9
$SHADEDGE
 70
     3
  9
$SHADEDIF
 70
    70
  9
$TILEMODE
 70
     1
  9
$MAXACTVP
 70
    64
  9
$PINSBASE
 10
0.0
 20
0.0
 30
0.0
  9
$PLIMCHECK
 70
     0
  9
$PEXTMIN
 10
1.000000000000000E+20
 20
1.000000000000000E+20
 30
1.000000000000000E+20
  9
$PEXTMAX
 10
-1.000000000000000E+20
 20
-1.000000000000000E+20
 30
-1.000000000000000E+20
  9
$PLIMMIN
 10
0.0
 20
0.0
  9
$PLIMMAX
 10
12.0
 20
9.0
  9
$UNITMODE
 70
     0
  9
$VISRETAIN
 70
     1
  9
$PLINEGEN
 70
     0
  9
$PSLTSCALE
 70
     1
  9
$TREEDEPTH
 70
  3020
  9
$CMLSTYLE
  2
Standard
  9
$CMLJUST
 70
     0
  9
$CMLSCALE
 40
1.0
  9
$PROXYGRAPHICS
 70
     1
  9
$MEASUREMENT
 70
     0
  9
$CELWEIGHT
370
    -1
  9
$ENDCAPS
280
     0
  9
$JOINSTYLE
280
     0
  9
$LWDISPLAY
290
     0
  9
$INSUNITS
 70
     1
  9
$HYPERLINKBASE
  1

  9
$STYLESHEET
  1

  9
$XEDIT
290
     1
  9
$CEPSNTYPE
380
     0
  9
$PSTYLEMODE
290
     1
  9
$FINGERPRINTGUID
  2
{CB9203ED-535A-4935-BD73-10296AF37F79}
  9
$VERSIONGUID
  2
{FAEB1C32-E019-11D5-929B-00C0DF256EC4}
  9
$EXTNAMES
290
     1
  9
$PSVPSCALE
 40
0.0
  9
$OLESTARTUP
290
     0
  9
$SORTENTS
280
   127
  9
$INDEXCTL
280
     0
  9
$HIDETEXT
280
     1
  9
$XCLIPFRAME
280
     2
  9
$HALOGAP
280
     0
  9
$OBSCOLOR
 70
   257
  9
$OBSLTYPE
280
     0
  9
$INTERSECTIONDISPLAY
280
     0
  9
$INTERSECTIONCOLOR
 70
   257
  9
$DIMASSOC
280
     2
  9
$PROJECTNAME
  1

  9
$CAMERADISPLAY
290
     0
  9
$LENSLENGTH
 40
50.0
  9
$CAMERAHEIGHT
 40
0.0
  9
$STEPSPERSEC
 40
2.0
  9
$STEPSIZE
 40
6.0
  9
$3DDWFPREC
 40
2.0
  9
$PSOLWIDTH
 40
0.25
  9
$PSOLHEIGHT
 40
4.0
  9
$LOFTANG1
 40
1.570796326794897
  9
$LOFTANG2
 40
1.570796326794897
  9
$LOFTMAG1
 40
0.0
  9
$LOFTMAG2
 40
0.0
  9
$LOFTPARAM
 70
     7
  9
$LOFTNORMALS
280
     1
  9
$LATITUDE
 40
37.795
  9
$LONGITUDE
 40
-122.394
  9
$NORTHDIRECTION
 40
0.0
  9
$TIMEZONE
 70
 -8000
  9
$LIGHTGLYPHDISPLAY
280
     1
  9
$TILEMODELIGHTSYNCH
280
     1
  9
$SOLIDHIST
280
     1
  9
$SHOWHIST
280
     1
  9
$DWFFRAME
280
     2
  9
$DGNFRAME
280
     2
  9
$REALWORLDSCALE
290
     1
  9
$INTERFERECOLOR
 62
   256
  9
$CSHADOW
280
     0
  9
$SHADOWPLANELOCATION
 40
0.0
  0
ENDSEC
  0
SECTION
  2
CLASSES
  0
CLASS
  1
ACDBDICTIONARYWDFLT
  2
AcDbDictionaryWithDefault
  3
ObjectDBX Classes
 90
        0
 91
        4
280
     0
281
     0
  0
CLASS
  1
VISUALSTYLE
  2
AcDbVisualStyle
  3
ObjectDBX Classes
 90
     4095
 91
        4
280
     0
281
     0
  0
CLASS
  1
MATERIAL
  2
AcDbMaterial
  3
ObjectDBX Classes
 90
     1153
 91
        4
280
     0
281
     0
  0
ENDSEC
  0
SECTION
  2
TABLES
  0
TABLE
  2
VPORT
  5
8
330
0
100
AcDbSymbolTable
 70
     1
  0
VPORT
  5
29
330
8
100
AcDbSymbolTableRecord
100
AcDbViewportTableRecord
  2
*Active
 70
     0
 10
0.0
 20
0.0
 11
1.0
 21
1.0
 12
0.0
 22
0.0
 13
0.0
 23
0.0
 14
0.5
 24
0.5
 15
0.5
 25
0.5
 16
0.0
 26
0.0
 36
1.0
 17
0.0
 27
0.0
 37
-1000.0
 40
200.233666634279
 41
1.822857142857143
 42
50.0
 43
3609.813813334118
 44
4439.9346585065
 50
0.0
 51
0.0
 71
     0
 72
   100
 73
     1
 74
     3
 75
     0
 76
     0
 77
     0
 78
     0
281
     0
 65
     1
110
0.0
120
0.0
130
0.0
111
1.0
121
0.0
131
0.0
112
0.0
122
1.0
132
0.0
 79
     0
146
0.0
 60
     3
 61
     5
292
     1
282
     1
141
0.0
142
0.0
 63
   250
  0
ENDTAB
  0
TABLE
  2
LTYPE
  5
5
330
0
100
AcDbSymbolTable
 70
     1
  0
LTYPE
  5
14
330
5
100
AcDbSymbolTableRecord
100
AcDbLinetypeTableRecord
  2
ByBlock
 70
     0
  3

 72
    65
 73
     0
 40
0.0
  0
LTYPE
  5
15
330
5
100
AcDbSymbolTableRecord
100
AcDbLinetypeTableRecord
  2
ByLayer
 70
     0
  3

 72
    65
 73
     0
 40
0.0
  0
LTYPE
  5
16
330
5
100
AcDbSymbolTableRecord
100
AcDbLinetypeTableRecord
  2
Continuous
 70
     0
  3
Solid line
 72
    65
 73
     0
 40
0.0
  0
ENDTAB
  0
TABLE
  2
LAYER
  5
2
330
0
100
AcDbSymbolTable
 70
     3
  0
LAYER
  5
10
330
2
100
AcDbSymbolTableRecord
100
AcDbLayerTableRecord
  2
0
 70
     0
 62
     7
  6
Continuous
370
    -3
390
F
347
3E
  0
LAYER
  5
3F
330
2
100
AcDbSymbolTableRecord
100
AcDbLayerTableRecord
  2
ProfileEdges
 70
     0
 62
     7
  6
Continuous
370
    -3
390
F
347
3E
  0
LAYER
  5
40
330
2
100
AcDbSymbolTableRecord
100
AcDbLayerTableRecord
  2
SectionCutEdges
 70
     0
 62
     7
  6
Continuous
370
    -3
390
F
347
3E
  0
ENDTAB
  0
TABLE
  2
STYLE
  5
3
330
0
100
AcDbSymbolTable
 70
     1
  0
STYLE
  5
11
330
3
100
AcDbSymbolTableRecord
100
AcDbTextStyleTableRecord
  2
Standard
 70
     0
 40
0.0
 41
1.0
 50
0.0
 71
     0
 42
0.2
  3
txt
  4

  0
ENDTAB
  0
TABLE
  2
VIEW
  5
6
330
0
100
AcDbSymbolTable
 70
     0
  0
ENDTAB
  0
TABLE
  2
UCS
  5
7
330
0
100
AcDbSymbolTable
 70
     0
  0
ENDTAB
  0
TABLE
  2
APPID
  5
9
330
0
100
AcDbSymbolTable
 70
     1
  0
APPID
  5
12
330
9
100
AcDbSymbolTableRecord
100
AcDbRegAppTableRecord
  2
ACAD
 70
     0
  0
ENDTAB
  0
TABLE
  2
DIMSTYLE
  5
A
330
0
100
AcDbSymbolTable
 70
     1
100
AcDbDimStyleTable
  0
DIMSTYLE
105
27
330
A
100
AcDbSymbolTableRecord
100
AcDbDimStyleTableRecord
  2
Standard
 70
     0
340
11
  0
ENDTAB
  0
TABLE
  2
BLOCK_RECORD
  5
1
330
0
100
AcDbSymbolTable
 70
     1
  0
BLOCK_RECORD
  5
1F
330
1
100
AcDbSymbolTableRecord
100
AcDbBlockTableRecord
  2
*Model_Space
340
22
 70
     0
280
     1
281
     0
  0
BLOCK_RECORD
  5
1B
330
1
100
AcDbSymbolTableRecord
100
AcDbBlockTableRecord
  2
*Paper_Space
340
1E
 70
     0
280
     1
281
     0
  0
BLOCK_RECORD
  5
23
330
1
100
AcDbSymbolTableRecord
100
AcDbBlockTableRecord
  2
*Paper_Space0
340
26
 70
     0
280
     1
281
     0
  0
ENDTAB
  0
ENDSEC
  0
SECTION
  2
BLOCKS
  0
BLOCK
  5
20
330
1F
100
AcDbEntity
  8
0
100
AcDbBlockBegin
  2
*Model_Space
 70
     0
 10
0.0
 20
0.0
 30
0.0
  3
*Model_Space
  1

  0
ENDBLK
  5
21
330
1F
100
AcDbEntity
  8
0
100
AcDbBlockEnd
  0
BLOCK
  5
1C
330
1B
100
AcDbEntity
 67
     1
  8
0
100
AcDbBlockBegin
  2
*Paper_Space
 70
     0
 10
0.0
 20
0.0
 30
0.0
  3
*Paper_Space
  1

  0
ENDBLK
  5
1D
330
1B
100
AcDbEntity
 67
     1
  8
0
100
AcDbBlockEnd
  0
BLOCK
  5
24
330
23
100
AcDbEntity
  8
0
100
AcDbBlockBegin
  2
*Paper_Space0
 70
     0
 10
0.0
 20
0.0
 30
0.0
  3
*Paper_Space0
  1

  0
ENDBLK
  5
25
330
23
100
AcDbEntity
  8
0
100
AcDbBlockEnd
  0
ENDSEC
  0
SECTION
  2
ENTITIES
  0
LINE
  5
41
330
1F
100
AcDbEntity
  8
0
100
AcDbLine
 10
54.51002856310956
 20
19.21515636570673
 30
0.0
 11
54.64973266414808
 21
20.27631436573439
 31
0.0
  0
LINE
  5
42
330
1F
100
AcDbEntity
  8
0
100
AcDbLine
 10
-87.4497300401487
 20
35.16746744762884
 30
0.0
 11
-87.01560435606332
 21
34.98764670150622
 31
0.0
  0
LINE
  5
43
330
1F
100
AcDbEntity
  8
0
100
AcDbLine
 10
-87.01560435606332
 20
34.98764670150622
 30
0.0
 11
-86.54973011214871
 21
34.92631319373319
 31
0.0
  0
LINE
  5
44
330
1F
100
AcDbEntity
  8
0
100
AcDbLine
 10
-10.54350867974718
 20
-39.27360777508856
 30
0.0
 11
-11.26705148655617
 21
-39.57330901862636
 31
0.0
  0
LINE
  5
45
330
1F
100
AcDbEntity
  8
0
100
AcDbLine
 10
-15.39796610732559
 20
-64.91099406728235
 30
0.0
 11
-23.39796546732563
 21
-64.91099406728235
 31
0.0
  0
LINE
  5
46
330
1F
100
AcDbEntity
  8
0
100
AcDbLine
 10
26.60203053267406
 20
-94.11099173128252
 30
0.0
 11
26.56795636168899
 21
-94.36981075567954
 31
0.0
  0
LINE
  5
47
330
1F
100
AcDbEntity
  8
0
100
AcDbLine
 10
49.2769408878356
 20
35.45352094542193
 30
0.0
 11
49.64973306414801
 21
35.16746744763002
 31
0.0
  0
LINE
  5
48
330
1F
100
AcDbEntity
  8
0
100
AcDbLine
 10
-78.41908918889378
 20
-47.01239286108444
 30
0.0
 11
-77.94233335924068
 21
-47.63371315493844
 31
0.0
  0
LINE
  5
49
330
1F
100
AcDbEntity
  8
0
100
AcDbLine
 10
-41.65664074476216
 20
-46.7851850853968
 30
0.0
 11
-41.28384856844957
 21
-47.07123858318872
 31
0.0
  0
LINE
  5
4A
330
1F
100
AcDbEntity
  8
0
100
AcDbLine
 10
-85.64973018414872
 20
35.16746744762884
 30
0.0
 11
-85.2769380078363
 21
35.45352094542076
 31
0.0
  0
LINE
  5
4B
330
1F
100
AcDbEntity
  8
0
100
AcDbLine
 10
-86.08385586823408
 20
34.98764670150622
 30
0.0
 11
-85.64973018414872
 21
35.16746744762884
 31
0.0
  0
LINE
  5
4C
330
1F
100
AcDbEntity
  8
0
100
AcDbLine
 10
92.12331723158894
 20
44.52507554174053
 30
0.0
 11
91.6852337182376
 21
44.35512423798412
 31
0.0
  0
LINE
  5
4D
330
1F
100
AcDbEntity
  8
0
100
AcDbLine
 10
-2.24896523023641
 20
77.61099305128242
 30
0.0
 11
2.619498538209639
 21
77.61099305128242
 31
0.0
  0
LINE
  5
4E
330
1F
100
AcDbEntity
  8
0
100
AcDbLine
 10
-12.63051802103066
 20
52.32631180173376
 30
0.0
 11
-12.78943663091514
 21
52.53341856635175
 31
0.0
  0
LINE
  5
4F
330
1F
100
AcDbEntity
  8
0
100
AcDbLine
 10
91.01164837310915
 20
43.71135562473853
 30
0.0
 11
90.82205026945005
 21
43.28141008236419
 31
0.0
  0
LINE
  5
50
330
1F
100
AcDbEntity
  8
0
100
AcDbLine
 10
-13.83912050522291
 20
2.926315753733624
 30
0.0
 11
-13.65929975910029
 21
3.360441437819029
 31
0.0
  0
LINE
  5
51
330
1F
100
AcDbEntity
  8
0
100
AcDbLine
 10
-13.65929975910029
 20
3.360441437819029
 30
0.0
 11
-13.59796625132725
 21
3.826315681733651
 31
0.0
  0
LINE
  5
52
330
1F
100
AcDbEntity
  8
0
100
AcDbLine
 10
-13.59796625132725
 20
3.826315681733651
 30
0.0
 11
-13.65929975910029
 21
4.292189925648272
 31
0.0
  0
LINE
  5
53
330
1F
100
AcDbEntity
  8
0
100
AcDbLine
 10
51.82252509646102
 20
2.553523577420625
 30
0.0
 11
52.10857859425293
 21
2.926315753733037
 31
0.0
  0
LINE
  5
54
330
1F
100
AcDbEntity
  8
0
100
AcDbLine
 10
51.44973292014852
 20
2.267470079628668
 30
0.0
 11
51.82252509646102
 21
2.553523577420625
 31
0.0
  0
LINE
  5
55
330
1F
100
AcDbEntity
  8
0
100
AcDbLine
 10
25.97831071849269
 20
77.6450672222675
 30
0.0
 11
25.71949169409567
 21
77.61099305128242
 31
0.0
  0
LINE
  5
56
330
1F
100
AcDbEntity
  8
0
100
AcDbLine
 10
-69.60072953905738
 20
32.12631341773308
 30
0.0
 11
-69.60072953905738
 21
39.02631286573318
 31
0.0
  0
LINE
  5
57
330
1F
100
AcDbEntity
  8
0
100
AcDbLine
 10
-3.248965150236461
 20
90.11099205128247
 30
0.0
 11
-3.248965150236461
 21
78.61099297128247
 31
0.0
  0
LINE
  5
58
330
1F
100
AcDbEntity
  8
0
100
AcDbLine
 10
1.751034449763608
 20
90.11099205128247
 30
0.0
 11
-3.248965150236461
 21
90.11099205128247
 31
0.0
  0
LINE
  5
59
330
1F
100
AcDbEntity
  8
0
100
AcDbLine
 10
-14.45678522772223
 20
-95.07691748029755
 30
0.0
 11
-14.19796620332522
 21
-95.11099165128253
 31
0.0
  0
LINE
  5
5A
330
1F
100
AcDbEntity
  8
0
100
AcDbLine
 10
-20.67075789163791
 20
-82.73820043497001
 30
0.0
 11
-20.95681138942982
 21
-83.11099261128243
 31
0.0
  0
LINE
  5
5B
330
1F
100
AcDbEntity
  8
0
100
AcDbLine
 10
-20.67075789163791
 20
-85.28378464359488
 30
0.0
 11
-20.2979657153255
 21
-85.56983814138685
 31
0.0
  0
LINE
  5
5C
330
1F
100
AcDbEntity
  8
0
100
AcDbLine
 10
65.86200719116057
 20
53.62631169773438
 30
0.0
 11
65.86200719116057
 21
46.82631224173435
 31
0.0
  0
LINE
  5
5D
330
1F
100
AcDbEntity
  8
0
100
AcDbLine
 10
91.3060641727723
 20
44.07757952787351
 30
0.0
 11
91.01164837310915
 21
43.71135562473853
 31
0.0
  0
LINE
  5
5E
330
1F
100
AcDbEntity
  8
0
100
AcDbLine
 10
-97.54972923214879
 20
24.76540010098313
 30
0.0
 11
-97.54972923214879
 21
15.78722863048281
 31
0.0
  0
LINE
  5
5F
330
1F
100
AcDbEntity
  8
0
100
AcDbLine
 10
-97.54972923214879
 20
24.76540010098313
 30
0.0
 11
-94.54972947214837
 21
27.76539986098314
 31
0.0
  0
LINE
  5
60
330
1F
100
AcDbEntity
  8
0
100
AcDbLine
 10
-94.54972947214837
 20
27.76539986098314
 30
0.0
 11
-94.54972947214837
 21
60.22631116973346
 31
0.0
  0
LINE
  5
61
330
1F
100
AcDbEntity
  8
0
100
AcDbLine
 10
29.16087605477923
 20
-83.11099261128243
 30
0.0
 11
28.87482255698732
 21
-82.73820043497001
 31
0.0
  0
LINE
  5
62
330
1F
100
AcDbEntity
  8
0
100
AcDbLine
 10
-42.82181432989996
 20
-1.71940720437675
 30
0.0
 11
-43.011208142727
 21
-1.289371631450982
 31
0.0
  0
LINE
  5
63
330
1F
100
AcDbEntity
  8
0
100
AcDbLine
 10
-42.75017535109578
 20
-2.183808396272983
 30
0.0
 11
-42.82181432989996
 21
-1.71940720437675
 31
0.0
  0
LINE
  5
64
330
1F
100
AcDbEntity
  8
0
100
AcDbLine
 10
-20.2979657153255
 20
-85.56983814138685
 30
0.0
 11
-19.86384003124005
 21
-85.74965888750951
 31
0.0
  0
LINE
  5
65
330
1F
100
AcDbEntity
  8
0
100
AcDbLine
 10
25.86336410444782
 20
-84.47686678319708
 30
0.0
 11
26.04318485057044
 21
-84.91099246728248
 31
0.0
  0
LINE
  5
66
330
1F
100
AcDbEntity
  8
0
100
AcDbLine
 10
-8.267051726556108
 20
-39.57330901862636
 30
0.0
 11
-8.990594533365101
 21
-39.27360777508856
 31
0.0
  0
LINE
  5
67
330
1F
100
AcDbEntity
  8
0
100
AcDbLine
 10
91.61229640174413
 20
-3.760309494643822
 30
0.0
 11
92.04194665057854
 21
-3.950575818504108
 31
0.0
  0
LINE
  5
68
330
1F
100
AcDbEntity
  8
0
100
AcDbLine
 10
-15.86384035124192
 20
34.98764670150676
 30
0.0
 11
-15.3979661073273
 21
34.92631319373373
 31
0.0
  0
LINE
  5
69
330
1F
100
AcDbEntity
  8
0
100
AcDbLine
 10
-15.3979661073273
 20
34.92631319373373
 30
0.0
 11
-14.93209186341268
 21
34.98764670150676
 31
0.0
  0
LINE
  5
6A
330
1F
100
AcDbEntity
  8
0
100
AcDbLine
 10
-14.93209186341268
 20
34.98764670150676
 30
0.0
 11
-14.49796617932732
 21
35.16746744762938
 31
0.0
  0
LINE
  5
6B
330
1F
100
AcDbEntity
  8
0
100
AcDbLine
 10
-14.49796617932732
 20
35.16746744762938
 30
0.0
 11
-14.12517400301482
 21
35.4535209454213
 31
0.0
  0
LINE
  5
6C
330
1F
100
AcDbEntity
  8
0
100
AcDbLine
 10
50.54973299214808
 20
16.17631469373435
 30
0.0
 11
51.61089099217575
 21
16.31601879477287
 31
0.0
  0
LINE
  5
6D
330
1F
100
AcDbEntity
  8
0
100
AcDbLine
 10
-76.34973092814825
 20
-13.07368296626699
 30
0.0
 11
-86.74973009614865
 21
-13.07368296626699
 31
0.0
  0
LINE
  5
6E
330
1F
100
AcDbEntity
  8
0
100
AcDbLine
 10
-76.34973092814825
 20
46.82631224173335
 30
0.0
 11
-76.34973092814825
 21
53.62631169773339
 31
0.0
  0
LINE
  5
6F
330
1F
100
AcDbEntity
  8
0
100
AcDbLine
 10
31.60203013267341
 20
46.82631224173417
 30
0.0
 11
31.60203013267341
 21
-6.273683510266013
 31
0.0
  0
LINE
  5
70
330
1F
100
AcDbEntity
  8
0
100
AcDbLine
 10
31.60203013267341
 20
46.82631224173417
 30
0.0
 11
20.30203103667329
 21
46.82631224173417
 31
0.0
  0
LINE
  5
71
330
1F
100
AcDbEntity
  8
0
100
AcDbLine
 10
-8.125696281639248
 20
-16.50546124911847
 30
0.0
 11
-8.38451530603626
 21
-16.47138707813349
 31
0.0
  0
LINE
  5
72
330
1F
100
AcDbEntity
  8
0
100
AcDbLine
 10
-38.64518229222258
 20
-45.04651873716984
 30
0.0
 11
-38.82500303834538
 21
-44.61239305308443
 31
0.0
  0
LINE
  5
73
330
1F
100
AcDbEntity
  8
0
100
AcDbLine
 10
-5.690860102707537
 20
-58.6038877906643
 30
0.0
 11
-5.897966867325523
 21
-58.44496918077991
 31
0.0
  0
LINE
  5
74
330
1F
100
AcDbEntity
  8
0
100
AcDbLine
 10
-88.65663698476234
 20
-44.23960087677202
 30
0.0
 11
-88.94269048255399
 21
-44.61239305308443
 31
0.0
  0
LINE
  5
75
330
1F
100
AcDbEntity
  8
0
100
AcDbLine
 10
-86.91797063653514
 20
-43.77372663285744
 30
0.0
 11
-87.38384488044994
 21
-43.71239312508445
 31
0.0
  0
LINE
  5
76
330
1F
100
AcDbEntity
  8
0
100
AcDbLine
 10
-5.531941492823051
 20
-58.81099455528229
 30
0.0
 11
-5.690860102707537
 21
-58.6038877906643
 31
0.0
  0
LINE
  5
77
330
1F
100
AcDbEntity
  8
0
100
AcDbLine
 10
42.54973363214841
 20
60.22631116973346
 30
0.0
 11
97.54972923214879
 21
60.22631116973346
 31
0.0
  0
LINE
  5
78
330
1F
100
AcDbEntity
  8
0
100
AcDbLine
 10
-23.39796546732545
 20
-88.51099217928245
 30
0.0
 11
-23.39796546732563
 21
-64.91099406728235
 31
0.0
  0
LINE
  5
79
330
1F
100
AcDbEntity
  8
0
100
AcDbLine
 10
-7.780503127845381
 20
-87.01099229928252
 30
0.0
 11
-7.004046054654344
 21
-86.90876978632753
 31
0.0
  0
LINE
  5
7A
330
1F
100
AcDbEntity
  8
0
100
AcDbLine
 10
29.34069680090185
 20
-84.47686678319708
 30
0.0
 11
29.40203030867489
 21
-84.01099253928246
 31
0.0
  0
LINE
  5
7B
330
1F
100
AcDbEntity
  8
0
100
AcDbLine
 10
48.81106664392107
 20
37.19218729364903
 30
0.0
 11
48.74973313614803
 21
36.72631304973442
 31
0.0
  0
LINE
  5
7C
330
1F
100
AcDbEntity
  8
0
100
AcDbLine
 10
-75.04455611219548
 20
-48.41017022812948
 30
0.0
 11
-74.32101330538666
 21
-48.11046898459168
 31
0.0
  0
LINE
  5
7D
330
1F
100
AcDbEntity
  8
0
100
AcDbLine
 10
-15.39796610732559
 20
-59.31099451528232
 30
0.0
 11
-15.36389193634052
 21
-59.0521754908853
 31
0.0
  0
LINE
  5
7E
330
1F
100
AcDbEntity
  8
0
100
AcDbLine
 10
11.74945767946152
 20
-16.97138703813346
 30
0.0
 11
11.64955726494899
 21
-17.21256797373648
 31
0.0
  0
LINE
  5
7F
330
1F
100
AcDbEntity
  8
0
100
AcDbLine
 10
97.54972923214879
 20
60.22631116973346
 30
0.0
 11
97.54972923214879
 21
-19.67368243826702
 31
0.0
  0
LINE
  5
80
330
1F
100
AcDbEntity
  8
0
100
AcDbLine
 10
-38.82500303834538
 20
-46.4123929090844
 30
0.0
 11
-38.64518229222258
 21
-45.97826722499899
 31
0.0
  0
LINE
  5
81
330
1F
100
AcDbEntity
  8
0
100
AcDbLine
 10
-10.37857913135265
 20
-85.51099241928247
 30
0.0
 11
-9.90182330169946
 21
-86.13231271313649
 31
0.0
  0
LINE
  5
82
330
1F
100
AcDbEntity
  8
0
100
AcDbLine
 10
-86.48384495244979
 20
-47.07123858318872
 30
0.0
 11
-86.11105277613754
 21
-46.7851850853968
 31
0.0
  0
LINE
  5
83
330
1F
100
AcDbEntity
  8
0
100
AcDbLine
 10
-12.29796635532555
 20
-72.91099342728238
 30
0.0
 11
-17.29796440668182
 21
-72.91492870857856
 31
0.0
  0
LINE
  5
84
330
1F
100
AcDbEntity
  8
0
100
AcDbLine
 10
24.34268986965159
 20
-43.44417712644606
 30
0.0
 11
24.71548204596401
 21
-43.73023062423803
 31
0.0
  0
LINE
  5
85
330
1F
100
AcDbEntity
  8
0
100
AcDbLine
 10
-86.11105277613754
 20
-46.7851850853968
 30
0.0
 11
-85.82499927834556
 21
-46.4123929090844
 31
0.0
  0
LINE
  5
86
330
1F
100
AcDbEntity
  8
0
100
AcDbLine
 10
14.60203149267473
 20
-58.31099459528231
 30
0.0
 11
22.60203085267477
 21
-58.31099459528231
 31
0.0
  0
LINE
  5
87
330
1F
100
AcDbEntity
  8
0
100
AcDbLine
 10
21.48150770846646
 20
-16.97138703813346
 30
0.0
 11
21.32258909858198
 21
-16.76428027351548
 31
0.0
  0
LINE
  5
88
330
1F
100
AcDbEntity
  8
0
100
AcDbLine
 10
93.48716286255332
 20
-0.6870581738870155
 30
0.0
 11
93.05751261371891
 21
-0.49679185002673
 31
0.0
  0
LINE
  5
89
330
1F
100
AcDbEntity
  8
0
100
AcDbLine
 10
-85.64517853222274
 20
-45.04651873716984
 30
0.0
 11
-85.82499927834556
 21
-44.61239305308443
 31
0.0
  0
LINE
  5
8A
330
1F
100
AcDbEntity
  8
0
100
AcDbLine
 10
-88.94269048255399
 20
-44.61239305308443
 30
0.0
 11
-89.12251122867677
 21
-45.04651873716984
 31
0.0
  0
LINE
  5
8B
330
1F
100
AcDbEntity
  8
0
100
AcDbLine
 10
-77.32101306538672
 20
-42.91431697757719
 30
0.0
 11
-77.90516598230361
 21
-43.39107280723033
 31
0.0
  0
LINE
  5
8C
330
1F
100
AcDbEntity
  8
0
100
AcDbLine
 10
93.41422554605985
 20
41.19750089348528
 30
0.0
 11
93.79339509152517
 21
41.47504560359589
 31
0.0
  0
LINE
  5
8D
330
1F
100
AcDbEntity
  8
0
100
AcDbLine
 10
-87.38384488044994
 20
-47.31239283708437
 30
0.0
 11
-86.91797063653514
 21
-47.25105932931138
 31
0.0
  0
LINE
  5
8E
330
1F
100
AcDbEntity
  8
0
100
AcDbLine
 10
23.30913757729273
 20
-58.6038877906643
 30
0.0
 11
23.10203081267475
 21
-58.44496918077991
 31
0.0
  0
LINE
  5
8F
330
1F
100
AcDbEntity
  8
0
100
AcDbLine
 10
-73.22293718187925
 20
-47.01239286108444
 30
0.0
 11
-72.92323593834149
 21
-46.2888500542754
 31
0.0
  0
LINE
  5
90
330
1F
100
AcDbEntity
  8
0
100
AcDbLine
 10
20.81949208609577
 20
77.61099305128242
 30
0.0
 11
25.71949169409567
 21
77.61099305128242
 31
0.0
  0
LINE
  5
91
330
1F
100
AcDbEntity
  8
0
100
AcDbLine
 10
21.71949201409566
 20
94.11099173128247
 30
0.0
 11
21.68541784311059
 21
94.3698107556795
 31
0.0
  0
LINE
  5
92
330
1F
100
AcDbEntity
  8
0
100
AcDbLine
 10
21.68541784311059
 20
94.3698107556795
 30
0.0
 11
21.58551742859806
 21
94.61099169128245
 31
0.0
  0
LINE
  5
93
330
1F
100
AcDbEntity
  8
0
100
AcDbLine
 10
-17.59796593132538
 20
-84.01099253928246
 30
0.0
 11
-17.65929943909841
 21
-83.54511829536784
 31
0.0
  0
LINE
  5
94
330
1F
100
AcDbEntity
  8
0
100
AcDbLine
 10
27.13615620876021
 20
-85.74965888750951
 30
0.0
 11
27.60203045267483
 21
-85.81099239528251
 31
0.0
  0
LINE
  5
95
330
1F
100
AcDbEntity
  8
0
100
AcDbLine
 10
-20.95681138942982
 20
-83.11099261128243
 30
0.0
 11
-21.13663213555244
 21
-83.54511829536784
 31
0.0
  0
LINE
  5
96
330
1F
100
AcDbEntity
  8
0
100
AcDbLine
 10
3.585424287224798
 20
57.64760293615645
 30
0.0
 11
3.485523872712272
 21
57.40642200055348
 31
0.0
  0
LINE
  5
97
330
1F
100
AcDbEntity
  8
0
100
AcDbLine
 10
-20.4845143380362
 20
-43.73023062423803
 30
0.0
 11
-20.1117221617237
 21
-43.44417712644606
 31
0.0
  0
LINE
  5
98
330
1F
100
AcDbEntity
  8
0
100
AcDbLine
 10
27.17432757606847
 20
-41.2713850941336
 30
0.0
 11
26.88827407827656
 21
-40.89859291782119
 31
0.0
  0
LINE
  5
99
330
1F
100
AcDbEntity
  8
0
100
AcDbLine
 10
-20.91864002212156
 20
-43.91005137036069
 30
0.0
 11
-20.4845143380362
 21
-43.73023062423803
 31
0.0
  0
LINE
  5
9A
330
1F
100
AcDbEntity
  8
0
100
AcDbLine
 10
2.043927645145691
 20
94.81809845590045
 30
0.0
 11
2.251034409763678
 21
94.97701706578493
 31
0.0
  0
LINE
  5
9B
330
1F
100
AcDbEntity
  8
0
100
AcDbLine
 10
-8.556960201036416
 20
-81.11321529223738
 30
0.0
 11
-9.280503007845411
 21
-81.4129165357752
 31
0.0
  0
LINE
  5
9C
330
1F
100
AcDbEntity
  8
0
100
AcDbLine
 10
-5.164567795039133
 20
-79.52341002073335
 30
0.0
 11
-10.36071980205357
 21
-79.52341002073335
 31
0.0
  0
LINE
  5
9D
330
1F
100
AcDbEntity
  8
0
100
AcDbLine
 10
-10.36071980205357
 20
-79.52341002073335
 30
0.0
 11
-12.95879580556084
 21
-84.02340966073335
 31
0.0
  0
LINE
  5
9E
330
1F
100
AcDbEntity
  8
0
100
AcDbLine
 10
-7.168975603048962
 20
-37.67138538213363
 30
0.0
 11
-12.3651276100634
 21
-37.67138538213363
 31
0.0
  0
LINE
  5
9F
330
1F
100
AcDbEntity
  8
0
100
AcDbLine
 10
20.11238536147798
 20
57.19931523593549
 30
0.0
 11
19.95346675159349
 21
57.40642200055348
 31
0.0
  0
LINE
  5
A0
330
1F
100
AcDbEntity
  8
0
100
AcDbLine
 10
24.58140788297824
 20
-52.5302032385307
 30
0.0
 11
24.48150746846571
 21
-52.77138417413372
 31
0.0
  0
LINE
  5
A1
330
1F
100
AcDbEntity
  8
0
100
AcDbLine
 10
-42.12251498867661
 20
-45.97826722499899
 30
0.0
 11
-41.94269424255381
 21
-46.4123929090844
 31
0.0
  0
LINE
  5
A2
330
1F
100
AcDbEntity
  8
0
100
AcDbLine
 10
52.59973282814808
 20
23.82701823719414
 30
0.0
 11
51.61089099217575
 21
24.23660993669573
 31
0.0
  0
LINE
  5
A3
330
1F
100
AcDbEntity
  8
0
100
AcDbLine
 10
-73.6996930115327
 20
-47.63371315493849
 30
0.0
 11
-73.22293718187925
 21
-47.01239286108444
 31
0.0
  0
LINE
  5
A4
330
1F
100
AcDbEntity
  8
0
100
AcDbLine
 10
-78.71879043243153
 20
-46.2888500542754
 30
0.0
 11
-78.41908918889378
 21
-47.01239286108444
 31
0.0
  0
LINE
  5
A5
330
1F
100
AcDbEntity
  8
0
100
AcDbLine
 10
-41.28384856844957
 20
-43.95354737898011
 30
0.0
 11
-41.65664074476216
 21
-44.23960087677202
 31
0.0
  0
LINE
  5
A6
330
1F
100
AcDbEntity
  8
0
100
AcDbLine
 10
-53.58769516143488
 20
-43.5123931410844
 30
0.0
 11
-54.54120682074143
 21
-42.26975255337635
 31
0.0
  0
LINE
  5
A7
330
1F
100
AcDbEntity
  8
0
100
AcDbLine
 10
29.34069680090185
 20
-83.54511829536784
 30
0.0
 11
29.16087605477923
 21
-83.11099261128243
 31
0.0
  0
LINE
  5
A8
330
1F
100
AcDbEntity
  8
0
100
AcDbLine
 10
26.21949165409584
 20
57.04039662605101
 30
0.0
 11
25.97831071849287
 21
56.94049621153848
 31
0.0
  0
LINE
  5
A9
330
1F
100
AcDbEntity
  8
0
100
AcDbLine
 10
-3.648965118236101
 20
39.02631286573381
 30
0.0
 11
-3.648965118236101
 21
32.12631341773371
 31
0.0
  0
LINE
  5
AA
330
1F
100
AcDbEntity
  8
0
100
AcDbLine
 10
-3.648965118236101
 20
32.12631341773371
 30
0.0
 11
3.719498450210119
 21
32.12631341773371
 31
0.0
  0
LINE
  5
AB
330
1F
100
AcDbEntity
  8
0
100
AcDbLine
 10
19.41949219809617
 20
39.026312865734
 30
0.0
 11
19.41949219809617
 21
32.12631341773398
 31
0.0
  0
LINE
  5
AC
330
1F
100
AcDbEntity
  8
0
100
AcDbLine
 10
-14.89796614732552
 20
-58.44496918077991
 30
0.0
 11
-14.65678521172255
 21
-58.34506876626729
 31
0.0
  0
LINE
  5
AD
330
1F
100
AcDbEntity
  8
0
100
AcDbLine
 10
12.61548301396397
 20
-16.47138707813349
 30
0.0
 11
12.35666398956696
 21
-16.50546124911847
 31
0.0
  0
LINE
  5
AE
330
1F
100
AcDbEntity
  8
0
100
AcDbLine
 10
-16.59207523987189
 20
-12.13983952298179
 30
0.0
 11
-16.3509947643357
 21
-12.23964278422371
 31
0.0
  0
LINE
  5
AF
330
1F
100
AcDbEntity
  8
0
100
AcDbLine
 10
-89.18384473644991
 20
-45.51239298108441
 30
0.0
 11
-89.12251122867677
 21
-45.97826722499899
 31
0.0
  0
LINE
  5
B0
330
1F
100
AcDbEntity
  8
0
100
AcDbLine
 10
26.32923834836235
 20
-85.28378464359488
 30
0.0
 11
26.70203052467477
 21
-85.56983814138685
 31
0.0
  0
LINE
  5
B1
330
1F
100
AcDbEntity
  8
0
100
AcDbLine
 10
27.60203045267483
 20
-82.2109926832824
 30
0.0
 11
27.13615620876021
 21
-82.27232619105538
 31
0.0
  0
LINE
  5
B2
330
1F
100
AcDbEntity
  8
0
100
AcDbLine
 10
29.61548165396401
 20
-23.07138655013351
 30
0.0
 11
29.6154816539641
 21
-46.67138466213367
 31
0.0
  0
LINE
  5
B3
330
1F
100
AcDbEntity
  8
0
100
AcDbLine
 10
-12.3651276100634
 20
-37.67138538213363
 30
0.0
 11
-14.96320361357067
 21
-42.17138502213363
 31
0.0
  0
LINE
  5
B4
330
1F
100
AcDbEntity
  8
0
100
AcDbLine
 10
-12.53061760651813
 20
52.0851308661308
 30
0.0
 11
-12.63051802103066
 21
52.32631180173376
 31
0.0
  0
LINE
  5
B5
330
1F
100
AcDbEntity
  8
0
100
AcDbLine
 10
24.05663637185968
 20
-41.2713850941336
 30
0.0
 11
23.87681562573706
 21
-41.70551077821901
 31
0.0
  0
LINE
  5
B6
330
1F
100
AcDbEntity
  8
0
100
AcDbLine
 10
-21.38451426603618
 20
-40.37138516613357
 30
0.0
 11
-21.85038850995081
 21
-40.43271867390657
 31
0.0
  0
LINE
  5
B7
330
1F
100
AcDbEntity
  8
0
100
AcDbLine
 10
85.74973017614862
 20
53.62631169773474
 30
0.0
 11
92.74972961614877
 21
53.62631169773474
 31
0.0
  0
LINE
  5
B8
330
1F
100
AcDbEntity
  8
0
100
AcDbLine
 10
52.2883993403751
 20
37.19218729364903
 30
0.0
 11
52.10857859425249
 21
37.62631297773439
 31
0.0
  0
LINE
  5
B9
330
1F
100
AcDbEntity
  8
0
100
AcDbLine
 10
52.34973284814813
 20
36.72631304973442
 30
0.0
 11
52.2883993403751
 21
37.19218729364903
 31
0.0
  0
LINE
  5
BA
330
1F
100
AcDbEntity
  8
0
100
AcDbLine
 10
50.54973299214853
 20
53.62631169773438
 30
0.0
 11
65.86200719116057
 21
53.62631169773438
 31
0.0
  0
LINE
  5
BB
330
1F
100
AcDbEntity
  8
0
100
AcDbLine
 10
92.74972961614877
 20
53.62631169773474
 30
0.0
 11
92.74972961614877
 21
46.82631224173471
 31
0.0
  0
LINE
  5
BC
330
1F
100
AcDbEntity
  8
0
100
AcDbLine
 10
91.01310397177033
 20
-1.286250603860874
 30
0.0
 11
90.82283764790999
 21
-1.715900852695226
 31
0.0
  0
LINE
  5
BD
330
1F
100
AcDbEntity
  8
0
100
AcDbLine
 10
26.70203052467477
 20
-85.56983814138685
 30
0.0
 11
27.13615620876021
 21
-85.74965888750951
 31
0.0
  0
LINE
  5
BE
330
1F
100
AcDbEntity
  8
0
100
AcDbLine
 10
-0.285691892312424
 20
-79.51099289928241
 30
0.0
 11
-2.997967099325441
 21
-79.51099289928241
 31
0.0
  0
LINE
  5
BF
330
1F
100
AcDbEntity
  8
0
100
AcDbLine
 10
25.80203059667478
 20
-84.01099253928246
 30
0.0
 11
25.86336410444782
 21
-84.47686678319708
 31
0.0
  0
LINE
  5
C0
330
1F
100
AcDbEntity
  8
0
100
AcDbLine
 10
-21.19796564332548
 20
-84.01099253928246
 30
0.0
 11
-21.13663213555244
 21
-84.47686678319708
 31
0.0
  0
LINE
  5
C1
330
1F
100
AcDbEntity
  8
0
100
AcDbLine
 10
80.66719167357141
 20
45.27630221459324
 30
0.0
 11
80.66719167357205
 21
-4.723673483124451
 31
0.0
  0
LINE
  5
C2
330
1F
100
AcDbEntity
  8
0
100
AcDbLine
 10
25.86336410444782
 20
-83.54511829536784
 30
0.0
 11
25.80203059667478
 21
-84.01099253928246
 31
0.0
  0
LINE
  5
C3
330
1F
100
AcDbEntity
  8
0
100
AcDbLine
 10
-23.18451412203624
 20
-42.17138502213363
 30
0.0
 11
-23.1231806142632
 21
-42.63725926604825
 31
0.0
  0
LINE
  5
C4
330
1F
100
AcDbEntity
  8
0
100
AcDbLine
 10
14.10203153267475
 20
-58.44496918077991
 30
0.0
 11
13.89492476805676
 21
-58.6038877906643
 31
0.0
  0
LINE
  5
C5
330
1F
100
AcDbEntity
  8
0
100
AcDbLine
 10
-39.1110565361372
 20
-44.23960087677202
 30
0.0
 11
-39.48384871244961
 21
-43.95354737898011
 31
0.0
  0
LINE
  5
C6
330
1F
100
AcDbEntity
  8
0
100
AcDbLine
 10
-57.2309330220677
 20
-40.71683840699437
 30
0.0
 11
-58.78384716844977
 21
-40.51239338108439
 31
0.0
  0
LINE
  5
C7
330
1F
100
AcDbEntity
  8
0
100
AcDbLine
 10
14.34321246827772
 20
-58.34506876626729
 30
0.0
 11
14.10203153267475
 21
-58.44496918077991
 31
0.0
  0
LINE
  5
C8
330
1F
100
AcDbEntity
  8
0
100
AcDbLine
 10
-85.82499927834556
 20
-46.4123929090844
 30
0.0
 11
-85.64517853222274
 21
-45.97826722499899
 31
0.0
  0
LINE
  5
C9
330
1F
100
AcDbEntity
  8
0
100
AcDbLine
 10
-15.06399153782767
 20
-94.61099169128255
 30
0.0
 11
-14.90507292794319
 21
-94.81809845590054
 31
0.0
  0
LINE
  5
CA
330
1F
100
AcDbEntity
  8
0
100
AcDbLine
 10
-41.94269424255381
 20
-46.4123929090844
 30
0.0
 11
-41.65664074476216
 21
-46.7851850853968
 31
0.0
  0
LINE
  5
CB
330
1F
100
AcDbEntity
  8
0
100
AcDbLine
 10
-6.280503247845351
 20
-81.4129165357752
 30
0.0
 11
-7.004046054654344
 21
-81.11321529223738
 31
0.0
  0
LINE
  5
CC
330
1F
100
AcDbEntity
  8
0
100
AcDbLine
 10
-11.26705148655617
 20
-44.76946102564089
 30
0.0
 11
-10.54350867974718
 21
-45.0691622691787
 31
0.0
  0
LINE
  5
CD
330
1F
100
AcDbEntity
  8
0
100
AcDbLine
 10
-11.88837178041022
 20
-44.29270519598766
 30
0.0
 11
-11.26705148655617
 21
-44.76946102564089
 31
0.0
  0
LINE
  5
CE
330
1F
100
AcDbEntity
  8
0
100
AcDbLine
 10
-12.3651276100634
 20
-43.67138490213366
 30
0.0
 11
-11.88837178041022
 21
-44.29270519598766
 31
0.0
  0
LINE
  5
CF
330
1F
100
AcDbEntity
  8
0
100
AcDbLine
 10
-12.66482885360116
 20
-42.94784209532462
 30
0.0
 11
-12.3651276100634
 21
-43.67138490213366
 31
0.0
  0
LINE
  5
D0
330
1F
100
AcDbEntity
  8
0
100
AcDbLine
 10
-12.7670513665562
 20
-42.17138502213363
 30
0.0
 11
-12.66482885360116
 21
-42.94784209532462
 31
0.0
  0
LINE
  5
D1
330
1F
100
AcDbEntity
  8
0
100
AcDbLine
 10
-12.66482885360116
 20
-41.39492794894264
 30
0.0
 11
-12.7670513665562
 21
-42.17138502213363
 31
0.0
  0
LINE
  5
D2
330
1F
100
AcDbEntity
  8
0
100
AcDbLine
 10
-12.3651276100634
 20
-40.6713851421336
 30
0.0
 11
-12.66482885360116
 21
-41.39492794894264
 31
0.0
  0
LINE
  5
D3
330
1F
100
AcDbEntity
  8
0
100
AcDbLine
 10
-11.88837178041022
 20
-40.05006484827955
 30
0.0
 11
-12.3651276100634
 21
-40.6713851421336
 31
0.0
  0
LINE
  5
D4
330
1F
100
AcDbEntity
  8
0
100
AcDbLine
 10
-11.26705148655617
 20
-39.57330901862636
 30
0.0
 11
-11.88837178041022
 21
-40.05006484827955
 31
0.0
  0
LINE
  5
D5
330
1F
100
AcDbEntity
  8
0
100
AcDbLine
 10
-9.767051606556139
 20
-39.17138526213357
 30
0.0
 11
-10.54350867974718
 21
-39.27360777508856
 31
0.0
  0
LINE
  5
D6
330
1F
100
AcDbEntity
  8
0
100
AcDbLine
 10
-8.990594533365101
 20
-39.27360777508856
 30
0.0
 11
-9.767051606556139
 21
-39.17138526213357
 31
0.0
  0
LINE
  5
D7
330
1F
100
AcDbEntity
  8
0
100
AcDbLine
 10
-7.645731432702059
 20
-40.05006484827955
 30
0.0
 11
-8.267051726556108
 21
-39.57330901862636
 31
0.0
  0
LINE
  5
D8
330
1F
100
AcDbEntity
  8
0
100
AcDbLine
 10
-7.168975603048873
 20
-40.6713851421336
 30
0.0
 11
-7.645731432702059
 21
-40.05006484827955
 31
0.0
  0
LINE
  5
D9
330
1F
100
AcDbEntity
  8
0
100
AcDbLine
 10
-6.869274359511113
 20
-41.39492794894264
 30
0.0
 11
-7.168975603048873
 21
-40.6713851421336
 31
0.0
  0
LINE
  5
DA
330
1F
100
AcDbEntity
  8
0
100
AcDbLine
 10
-6.76705184655608
 20
-42.17138502213363
 30
0.0
 11
-6.869274359511113
 21
-41.39492794894264
 31
0.0
  0
LINE
  5
DB
330
1F
100
AcDbEntity
  8
0
100
AcDbLine
 10
-6.869274359511113
 20
-42.94784209532462
 30
0.0
 11
-6.76705184655608
 21
-42.17138502213363
 31
0.0
  0
LINE
  5
DC
330
1F
100
AcDbEntity
  8
0
100
AcDbLine
 10
-7.168975603048873
 20
-43.67138490213366
 30
0.0
 11
-6.869274359511113
 21
-42.94784209532462
 31
0.0
  0
LINE
  5
DD
330
1F
100
AcDbEntity
  8
0
100
AcDbLine
 10
-7.645731432702059
 20
-44.29270519598771
 30
0.0
 11
-7.168975603048873
 21
-43.67138490213366
 31
0.0
  0
LINE
  5
DE
330
1F
100
AcDbEntity
  8
0
100
AcDbLine
 10
-8.267051726556108
 20
-44.76946102564089
 30
0.0
 11
-7.645731432702059
 21
-44.29270519598771
 31
0.0
  0
LINE
  5
DF
330
1F
100
AcDbEntity
  8
0
100
AcDbLine
 10
-8.990594533365101
 20
-45.0691622691787
 30
0.0
 11
-8.267051726556108
 21
-44.76946102564089
 31
0.0
  0
LINE
  5
E0
330
1F
100
AcDbEntity
  8
0
100
AcDbLine
 10
-9.767051606556139
 20
-45.17138478213369
 30
0.0
 11
-8.990594533365101
 21
-45.0691622691787
 31
0.0
  0
LINE
  5
E1
330
1F
100
AcDbEntity
  8
0
100
AcDbLine
 10
-10.54350867974718
 20
-45.0691622691787
 30
0.0
 11
-9.767051606556139
 21
-45.17138478213369
 31
0.0
  0
LINE
  5
E2
330
1F
100
AcDbEntity
  8
0
100
AcDbLine
 10
26.71949161409591
 20
57.90642196055345
 30
0.0
 11
26.71949161409591
 21
69.40642104055344
 31
0.0
  0
LINE
  5
E3
330
1F
100
AcDbEntity
  8
0
100
AcDbLine
 10
21.71949201409583
 20
69.40642104055344
 30
0.0
 11
26.71949161409591
 21
69.40642104055344
 31
0.0
  0
LINE
  5
E4
330
1F
100
AcDbEntity
  8
0
100
AcDbLine
 10
21.71949201409583
 20
73.40642072055347
 30
0.0
 11
21.71949201409583
 21
69.40642104055344
 31
0.0
  0
LINE
  5
E5
330
1F
100
AcDbEntity
  8
0
100
AcDbLine
 10
21.71949201409583
 20
73.40642072055347
 30
0.0
 11
21.68541784311077
 21
73.66523974495048
 31
0.0
  0
LINE
  5
E6
330
1F
100
AcDbEntity
  8
0
100
AcDbLine
 10
21.68541784311077
 20
73.66523974495048
 30
0.0
 11
21.58551742859824
 21
73.90642068055345
 31
0.0
  0
LINE
  5
E7
330
1F
100
AcDbEntity
  8
0
100
AcDbLine
 10
21.58551742859824
 20
73.90642068055345
 30
0.0
 11
21.42659881871375
 21
74.11352744517143
 31
0.0
  0
LINE
  5
E8
330
1F
100
AcDbEntity
  8
0
100
AcDbLine
 10
21.42659881871375
 20
74.11352744517143
 30
0.0
 11
21.21949205409577
 21
74.27244605505591
 31
0.0
  0
LINE
  5
E9
330
1F
100
AcDbEntity
  8
0
100
AcDbLine
 10
21.21949205409577
 20
74.27244605505591
 30
0.0
 11
20.9783111184928
 21
74.37234646956844
 31
0.0
  0
LINE
  5
EA
330
1F
100
AcDbEntity
  8
0
100
AcDbLine
 10
20.9783111184928
 20
74.37234646956844
 30
0.0
 11
20.71949209409579
 21
74.4064206405535
 31
0.0
  0
LINE
  5
EB
330
1F
100
AcDbEntity
  8
0
100
AcDbLine
 10
2.751034369763838
 20
74.4064206405535
 30
0.0
 11
20.71949209409579
 21
74.4064206405535
 31
0.0
  0
LINE
  5
EC
330
1F
100
AcDbEntity
  8
0
100
AcDbLine
 10
2.492215345366826
 20
74.37234646956844
 30
0.0
 11
2.751034369763838
 21
74.4064206405535
 31
0.0
  0
LINE
  5
ED
330
1F
100
AcDbEntity
  8
0
100
AcDbLine
 10
2.251034409763858
 20
74.27244605505591
 30
0.0
 11
2.492215345366826
 21
74.37234646956844
 31
0.0
  0
LINE
  5
EE
330
1F
100
AcDbEntity
  8
0
100
AcDbLine
 10
2.043927645145872
 20
74.11352744517143
 30
0.0
 11
2.251034409763858
 21
74.27244605505591
 31
0.0
  0
LINE
  5
EF
330
1F
100
AcDbEntity
  8
0
100
AcDbLine
 10
1.885009035261386
 20
73.90642068055345
 30
0.0
 11
2.043927645145872
 21
74.11352744517143
 31
0.0
  0
LINE
  5
F0
330
1F
100
AcDbEntity
  8
0
100
AcDbLine
 10
1.78510862074886
 20
73.66523974495048
 30
0.0
 11
1.885009035261386
 21
73.90642068055345
 31
0.0
  0
LINE
  5
F1
330
1F
100
AcDbEntity
  8
0
100
AcDbLine
 10
1.751034449763788
 20
73.40642072055347
 30
0.0
 11
1.78510862074886
 21
73.66523974495048
 31
0.0
  0
LINE
  5
F2
330
1F
100
AcDbEntity
  8
0
100
AcDbLine
 10
1.751034449763788
 20
69.40642104055344
 30
0.0
 11
1.751034449763788
 21
73.40642072055347
 31
0.0
  0
LINE
  5
F3
330
1F
100
AcDbEntity
  8
0
100
AcDbLine
 10
-3.24896515023628
 20
69.40642104055344
 30
0.0
 11
1.751034449763788
 21
69.40642104055344
 31
0.0
  0
LINE
  5
F4
330
1F
100
AcDbEntity
  8
0
100
AcDbLine
 10
-3.24896515023628
 20
69.40642104055344
 30
0.0
 11
-3.24896515023628
 21
57.90642196055345
 31
0.0
  0
LINE
  5
F5
330
1F
100
AcDbEntity
  8
0
100
AcDbLine
 10
-3.214890979251209
 20
57.64760293615645
 30
0.0
 11
-3.24896515023628
 21
57.90642196055345
 31
0.0
  0
LINE
  5
F6
330
1F
100
AcDbEntity
  8
0
100
AcDbLine
 10
-3.114990564738682
 20
57.40642200055348
 30
0.0
 11
-3.214890979251209
 21
57.64760293615645
 31
0.0
  0
LINE
  5
F7
330
1F
100
AcDbEntity
  8
0
100
AcDbLine
 10
-2.956071954854197
 20
57.19931523593549
 30
0.0
 11
-3.114990564738682
 21
57.40642200055348
 31
0.0
  0
LINE
  5
F8
330
1F
100
AcDbEntity
  8
0
100
AcDbLine
 10
-2.74896519023621
 20
57.04039662605101
 30
0.0
 11
-2.956071954854197
 21
57.19931523593549
 31
0.0
  0
LINE
  5
F9
330
1F
100
AcDbEntity
  8
0
100
AcDbLine
 10
-2.507784254633243
 20
56.94049621153848
 30
0.0
 11
-2.74896519023621
 21
57.04039662605101
 31
0.0
  0
LINE
  5
FA
330
1F
100
AcDbEntity
  8
0
100
AcDbLine
 10
-2.24896523023623
 20
56.90642204055342
 30
0.0
 11
-2.507784254633243
 21
56.94049621153848
 31
0.0
  0
LINE
  5
FB
330
1F
100
AcDbEntity
  8
0
100
AcDbLine
 10
-2.24896523023623
 20
56.90642204055342
 30
0.0
 11
2.61949853820982
 21
56.90642204055342
 31
0.0
  0
LINE
  5
FC
330
1F
100
AcDbEntity
  8
0
100
AcDbLine
 10
2.878317562606832
 20
56.94049621153848
 30
0.0
 11
2.61949853820982
 21
56.90642204055342
 31
0.0
  0
LINE
  5
FD
330
1F
100
AcDbEntity
  8
0
100
AcDbLine
 10
3.1194984982098
 20
57.04039662605101
 30
0.0
 11
2.878317562606832
 21
56.94049621153848
 31
0.0
  0
LINE
  5
FE
330
1F
100
AcDbEntity
  8
0
100
AcDbLine
 10
3.326605262827786
 20
57.19931523593549
 30
0.0
 11
3.1194984982098
 21
57.04039662605101
 31
0.0
  0
LINE
  5
FF
330
1F
100
AcDbEntity
  8
0
100
AcDbLine
 10
3.485523872712272
 20
57.40642200055348
 30
0.0
 11
3.326605262827786
 21
57.19931523593549
 31
0.0
  0
LINE
  5
100
330
1F
100
AcDbEntity
  8
0
100
AcDbLine
 10
3.61949845820987
 20
57.90642196055345
 30
0.0
 11
3.585424287224798
 21
57.64760293615645
 31
0.0
  0
LINE
  5
101
330
1F
100
AcDbEntity
  8
0
100
AcDbLine
 10
3.61949845820987
 20
57.90642196055345
 30
0.0
 11
3.61949845820987
 21
61.90642164055348
 31
0.0
  0
LINE
  5
102
330
1F
100
AcDbEntity
  8
0
100
AcDbLine
 10
3.61949845820987
 20
61.90642164055348
 30
0.0
 11
19.8194921660959
 21
61.90642164055348
 31
0.0
  0
LINE
  5
103
330
1F
100
AcDbEntity
  8
0
100
AcDbLine
 10
19.8194921660959
 20
61.90642164055348
 30
0.0
 11
19.8194921660959
 21
57.90642196055345
 31
0.0
  0
LINE
  5
104
330
1F
100
AcDbEntity
  8
0
100
AcDbLine
 10
19.85356633708097
 20
57.64760293615645
 30
0.0
 11
19.8194921660959
 21
57.90642196055345
 31
0.0
  0
LINE
  5
105
330
1F
100
AcDbEntity
  8
0
100
AcDbLine
 10
19.95346675159349
 20
57.40642200055348
 30
0.0
 11
19.85356633708097
 21
57.64760293615645
 31
0.0
  0
LINE
  5
106
330
1F
100
AcDbEntity
  8
0
100
AcDbLine
 10
20.31949212609597
 20
57.04039662605101
 30
0.0
 11
20.11238536147798
 21
57.19931523593549
 31
0.0
  0
LINE
  5
107
330
1F
100
AcDbEntity
  8
0
100
AcDbLine
 10
20.56067306169894
 20
56.94049621153848
 30
0.0
 11
20.31949212609597
 21
57.04039662605101
 31
0.0
  0
LINE
  5
108
330
1F
100
AcDbEntity
  8
0
100
AcDbLine
 10
20.81949208609595
 20
56.90642204055342
 30
0.0
 11
20.56067306169894
 21
56.94049621153848
 31
0.0
  0
LINE
  5
109
330
1F
100
AcDbEntity
  8
0
100
AcDbLine
 10
20.81949208609595
 20
56.90642204055342
 30
0.0
 11
25.71949169409585
 21
56.90642204055342
 31
0.0
  0
LINE
  5
10A
330
1F
100
AcDbEntity
  8
0
100
AcDbLine
 10
25.97831071849287
 20
56.94049621153848
 30
0.0
 11
25.71949169409585
 21
56.90642204055342
 31
0.0
  0
LINE
  5
10B
330
1F
100
AcDbEntity
  8
0
100
AcDbLine
 10
26.42659841871382
 20
57.19931523593549
 30
0.0
 11
26.21949165409584
 21
57.04039662605101
 31
0.0
  0
LINE
  5
10C
330
1F
100
AcDbEntity
  8
0
100
AcDbLine
 10
26.58551702859831
 20
57.40642200055348
 30
0.0
 11
26.42659841871382
 21
57.19931523593549
 31
0.0
  0
LINE
  5
10D
330
1F
100
AcDbEntity
  8
0
100
AcDbLine
 10
26.68541744311084
 20
57.64760293615645
 30
0.0
 11
26.58551702859831
 21
57.40642200055348
 31
0.0
  0
LINE
  5
10E
330
1F
100
AcDbEntity
  8
0
100
AcDbLine
 10
26.71949161409591
 20
57.90642196055345
 30
0.0
 11
26.68541744311084
 21
57.64760293615645
 31
0.0
  0
LINE
  5
10F
330
1F
100
AcDbEntity
  8
0
100
AcDbLine
 10
-17.38451458603635
 20
-17.47138699813349
 30
0.0
 11
-17.35044041505128
 21
-17.21256797373648
 31
0.0
  0
LINE
  5
110
330
1F
100
AcDbEntity
  8
0
100
AcDbLine
 10
42.54973363214841
 20
-19.67368243826702
 30
0.0
 11
42.54973363214841
 21
12.78722887048402
 31
0.0
  0
LINE
  5
111
330
1F
100
AcDbEntity
  8
0
100
AcDbLine
 10
92.74972961614877
 20
46.82631224173471
 30
0.0
 11
85.74973017614862
 21
46.82631224173471
 31
0.0
  0
LINE
  5
112
330
1F
100
AcDbEntity
  8
0
100
AcDbLine
 10
23.10203081267475
 20
-58.44496918077991
 30
0.0
 11
22.86084987707178
 21
-58.34506876626729
 31
0.0
  0
LINE
  5
113
330
1F
100
AcDbEntity
  8
0
100
AcDbLine
 10
26.60203053267406
 20
-94.11099173128252
 30
0.0
 11
26.60203053267406
 21
-88.5109921792825
 31
0.0
  0
LINE
  5
114
330
1F
100
AcDbEntity
  8
0
100
AcDbLine
 10
90.75019065923377
 20
42.81704297894455
 30
0.0
 11
90.8009666561429
 21
42.34990016517491
 31
0.0
  0
LINE
  5
115
330
1F
100
AcDbEntity
  8
0
100
AcDbLine
 10
51.61089099217575
 20
24.23660993669573
 30
0.0
 11
50.54973299214808
 21
24.37631403773434
 31
0.0
  0
LINE
  5
116
330
1F
100
AcDbEntity
  8
0
100
AcDbLine
 10
-19.39796578732543
 20
-82.2109926832824
 30
0.0
 11
-19.86384003124005
 21
-82.27232619105538
 31
0.0
  0
LINE
  5
117
330
1F
100
AcDbEntity
  8
0
100
AcDbLine
 10
26.60203053267406
 20
-88.5109921792825
 30
0.0
 11
31.60203013267486
 21
-88.5109921792825
 31
0.0
  0
LINE
  5
118
330
1F
100
AcDbEntity
  8
0
100
AcDbLine
 10
90.97091795989931
 20
41.91181665182357
 30
0.0
 11
91.24846267000991
 21
41.53264710635827
 31
0.0
  0
LINE
  5
119
330
1F
100
AcDbEntity
  8
0
100
AcDbLine
 10
20.50203102067478
 20
-72.91099342728238
 30
0.0
 11
20.50203102067478
 21
-79.51099289928241
 31
0.0
  0
LINE
  5
11A
330
1F
100
AcDbEntity
  8
0
100
AcDbLine
 10
14.60203149267473
 20
-58.31099459528231
 30
0.0
 11
14.34321246827772
 21
-58.34506876626729
 31
0.0
  0
LINE
  5
11B
330
1F
100
AcDbEntity
  8
0
100
AcDbLine
 10
39.54973387214799
 20
24.76540010098439
 30
0.0
 11
39.54973387214799
 21
15.78722863048408
 31
0.0
  0
LINE
  5
11C
330
1F
100
AcDbEntity
  8
0
100
AcDbLine
 10
-44.97697667124605
 20
44.52487275355224
 30
0.0
 11
-45.4149793903788
 21
44.35471333315144
 31
0.0
  0
LINE
  5
11D
330
1F
100
AcDbEntity
  8
0
100
AcDbLine
 10
-45.4149793903788
 20
44.35471333315144
 30
0.0
 11
-45.79401703007039
 21
44.07698850888164
 31
0.0
  0
LINE
  5
11E
330
1F
100
AcDbEntity
  8
0
100
AcDbLine
 10
-45.79401703007039
 20
44.07698850888164
 30
0.0
 11
-46.08825880156549
 21
43.71062476855496
 31
0.0
  0
LINE
  5
11F
330
1F
100
AcDbEntity
  8
0
100
AcDbLine
 10
-40.84972288436421
 20
-43.77372663285744
 30
0.0
 11
-41.28384856844957
 21
-43.95354737898011
 31
0.0
  0
LINE
  5
120
330
1F
100
AcDbEntity
  8
0
100
AcDbLine
 10
28.13709998657164
 20
-3.163663224097801
 30
0.0
 11
28.32807833143349
 21
-2.734328992859945
 31
0.0
  0
LINE
  5
121
330
1F
100
AcDbEntity
  8
0
100
AcDbLine
 10
28.32807833143349
 20
-2.734328992859945
 30
0.0
 11
28.40142937123867
 21
-2.270195137944964
 31
0.0
  0
LINE
  5
122
330
1F
100
AcDbEntity
  8
0
100
AcDbLine
 10
-87.8225222164611
 20
5.099107786045457
 30
0.0
 11
-88.10857571425292
 21
4.726315609733046
 31
0.0
  0
LINE
  5
123
330
1F
100
AcDbEntity
  8
0
100
AcDbLine
 10
-69.60072953905738
 20
39.02631286573318
 30
0.0
 11
-49.23227200672515
 21
39.02631286573354
 31
0.0
  0
LINE
  5
124
330
1F
100
AcDbEntity
  8
0
100
AcDbLine
 10
-87.4497300401487
 20
38.28515865183746
 30
0.0
 11
-87.8225222164611
 21
37.99910515404554
 31
0.0
  0
LINE
  5
125
330
1F
100
AcDbEntity
  8
0
100
AcDbLine
 10
52.10857859425293
 20
2.926315753733037
 30
0.0
 11
52.28839934037555
 21
3.360441437818442
 31
0.0
  0
LINE
  5
126
330
1F
100
AcDbEntity
  8
0
100
AcDbLine
 10
-41.28384856844957
 20
-47.07123858318872
 30
0.0
 11
-40.84972288436421
 21
-47.25105932931138
 31
0.0
  0
LINE
  5
127
330
1F
100
AcDbEntity
  8
0
100
AcDbLine
 10
-39.1110565361372
 20
-46.7851850853968
 30
0.0
 11
-38.82500303834538
 21
-46.4123929090844
 31
0.0
  0
LINE
  5
128
330
1F
100
AcDbEntity
  8
0
100
AcDbLine
 10
21.61548229396406
 20
-17.47138699813349
 30
0.0
 11
21.58140812297899
 21
-17.21256797373648
 31
0.0
  0
LINE
  5
129
330
1F
100
AcDbEntity
  8
0
100
AcDbLine
 10
-16.79913093064241
 20
-11.98106790222155
 30
0.0
 11
-16.59207523987189
 21
-12.13983952298179
 31
0.0
  0
LINE
  5
12A
330
1F
100
AcDbEntity
  8
0
100
AcDbLine
 10
90.80030581342118
 20
-2.647376864735583
 30
0.0
 11
90.96957581007743
 21
-3.085724077057905
 31
0.0
  0
LINE
  5
12B
330
1F
100
AcDbEntity
  8
0
100
AcDbLine
 10
20.30203103667329
 20
51.82631184173405
 30
0.0
 11
20.26795686568822
 21
52.08513086613107
 31
0.0
  0
LINE
  5
12C
330
1F
100
AcDbEntity
  8
0
100
AcDbLine
 10
-18.49796585932544
 20
-85.56983814138685
 30
0.0
 11
-18.12517368301295
 21
-85.28378464359488
 31
0.0
  0
LINE
  5
12D
330
1F
100
AcDbEntity
  8
0
100
AcDbLine
 10
-77.28384568844965
 20
-42.91431697757715
 30
0.0
 11
-77.32101306538672
 21
-42.91431697757719
 31
0.0
  0
LINE
  5
12E
330
1F
100
AcDbEntity
  8
0
100
AcDbLine
 10
-86.08385586823408
 20
38.46497939796007
 30
0.0
 11
-86.54973011214871
 21
38.52631290573311
 31
0.0
  0
LINE
  5
12F
330
1F
100
AcDbEntity
  8
0
100
AcDbLine
 10
-85.64973018414872
 20
38.28515865183746
 30
0.0
 11
-86.08385586823408
 21
38.46497939796007
 31
0.0
  0
LINE
  5
130
330
1F
100
AcDbEntity
  8
0
100
AcDbLine
 10
-47.34973324814798
 20
53.62631169773339
 30
0.0
 11
-47.34973324814798
 21
46.82631224173335
 31
0.0
  0
LINE
  5
131
330
1F
100
AcDbEntity
  8
0
100
AcDbLine
 10
-38.82500303834538
 20
-44.61239305308443
 30
0.0
 11
-39.1110565361372
 21
-44.23960087677202
 31
0.0
  0
LINE
  5
132
330
1F
100
AcDbEntity
  8
0
100
AcDbLine
 10
-39.48384871244961
 20
-43.95354737898011
 30
0.0
 11
-39.91797439653497
 21
-43.77372663285744
 31
0.0
  0
LINE
  5
133
330
1F
100
AcDbEntity
  8
0
100
AcDbLine
 10
20.03610523165906
 20
-94.36981075567954
 30
0.0
 11
20.13600564617159
 21
-94.61099169128255
 31
0.0
  0
LINE
  5
134
330
1F
100
AcDbEntity
  8
0
100
AcDbLine
 10
-39.91797439653497
 20
-43.77372663285744
 30
0.0
 11
-40.38384864044959
 21
-43.71239312508445
 31
0.0
  0
LINE
  5
135
330
1F
100
AcDbEntity
  8
0
100
AcDbLine
 10
-40.38384864044959
 20
-43.71239312508445
 30
0.0
 11
-40.84972288436421
 21
-43.77372663285744
 31
0.0
  0
LINE
  5
136
330
1F
100
AcDbEntity
  8
0
100
AcDbLine
 10
-26.3979652273274
 20
20.24826768556549
 30
0.0
 11
-26.3979652273274
 21
15.7872286304834
 31
0.0
  0
LINE
  5
137
330
1F
100
AcDbEntity
  8
0
100
AcDbLine
 10
-26.3979652273274
 20
20.30436104590203
 30
0.0
 11
-26.40165764282058
 21
20.27631436573376
 31
0.0
  0
LINE
  5
138
330
1F
100
AcDbEntity
  8
0
100
AcDbLine
 10
-23.39796546732698
 20
-6.273683510266419
 30
0.0
 11
-23.39796546732698
 21
12.78722887048334
 31
0.0
  0
LINE
  5
139
330
1F
100
AcDbEntity
  8
0
100
AcDbLine
 10
-23.39796546732698
 20
-6.273683510266419
 30
0.0
 11
-17.09623585258475
 21
-6.273683510266373
 31
0.0
  0
LINE
  5
13A
330
1F
100
AcDbEntity
  8
0
100
AcDbLine
 10
-14.90507292794319
 20
-94.81809845590054
 30
0.0
 11
-14.6979661633252
 21
-94.97701706578493
 31
0.0
  0
LINE
  5
13B
330
1F
100
AcDbEntity
  8
0
100
AcDbLine
 10
-2.272240371023182
 20
-52.2713842141337
 30
0.0
 11
-2.272240371023182
 21
-37.67138538213358
 31
0.0
  0
LINE
  5
13C
330
1F
100
AcDbEntity
  8
0
100
AcDbLine
 10
90.82205026945005
 20
43.28141008236419
 30
0.0
 11
90.75019065923377
 21
42.81704297894455
 31
0.0
  0
LINE
  5
13D
330
1F
100
AcDbEntity
  8
0
100
AcDbLine
 10
-87.8225222164611
 20
37.99910515404554
 30
0.0
 11
-88.10857571425292
 21
37.62631297773313
 31
0.0
  0
LINE
  5
13E
330
1F
100
AcDbEntity
  8
0
100
AcDbLine
 10
28.06790469658946
 20
-85.74965888750951
 30
0.0
 11
28.50203038067482
 21
-85.56983814138685
 31
0.0
  0
LINE
  5
13F
330
1F
100
AcDbEntity
  8
0
100
AcDbLine
 10
-2.306314542008253
 20
-52.5302032385307
 30
0.0
 11
-2.272240371023182
 21
-52.2713842141337
 31
0.0
  0
LINE
  5
140
330
1F
100
AcDbEntity
  8
0
100
AcDbLine
 10
-17.19796596332736
 20
3.826315681733651
 30
0.0
 11
-17.13663245555432
 21
3.360441437819029
 31
0.0
  0
LINE
  5
141
330
1F
100
AcDbEntity
  8
0
100
AcDbLine
 10
-17.13663245555432
 20
3.360441437819029
 30
0.0
 11
-16.9568117094317
 21
2.926315753733624
 31
0.0
  0
LINE
  5
142
330
1F
100
AcDbEntity
  8
0
100
AcDbLine
 10
-16.9568117094317
 20
2.926315753733624
 30
0.0
 11
-16.67075821163979
 21
2.553523577421212
 31
0.0
  0
LINE
  5
143
330
1F
100
AcDbEntity
  8
0
100
AcDbLine
 10
-16.67075821163979
 20
2.553523577421212
 30
0.0
 11
-16.29796603532738
 21
2.267470079629255
 31
0.0
  0
LINE
  5
144
330
1F
100
AcDbEntity
  8
0
100
AcDbLine
 10
24.32258885858122
 20
-52.9784909387517
 30
0.0
 11
24.11548209396324
 21
-53.1374095486361
 31
0.0
  0
LINE
  5
145
330
1F
100
AcDbEntity
  8
0
100
AcDbLine
 10
24.61548205396331
 20
-52.2713842141337
 30
0.0
 11
24.61548205396331
 21
-46.67138466213367
 31
0.0
  0
LINE
  5
146
330
1F
100
AcDbEntity
  8
0
100
AcDbLine
 10
-13.65929975910029
 20
37.1921872936484
 30
0.0
 11
-13.83912050522291
 21
37.62631297773376
 31
0.0
  0
LINE
  5
147
330
1F
100
AcDbEntity
  8
0
100
AcDbLine
 10
26.0813562178787
 20
-43.91005137036069
 30
0.0
 11
26.51548190196406
 21
-43.73023062423803
 31
0.0
  0
LINE
  5
148
330
1F
100
AcDbEntity
  8
0
100
AcDbLine
 10
-19.82566866393179
 20
-43.07138495013366
 30
0.0
 11
-19.64584791780917
 21
-42.63725926604825
 31
0.0
  0
LINE
  5
149
330
1F
100
AcDbEntity
  8
0
100
AcDbLine
 10
-20.91864002212156
 20
-40.43271867390657
 30
0.0
 11
-21.38451426603618
 21
-40.37138516613357
 31
0.0
  0
LINE
  5
14A
330
1F
100
AcDbEntity
  8
0
100
AcDbLine
 10
-16.88451462603628
 20
-16.60536166363108
 30
0.0
 11
-16.64333369043331
 21
-16.50546124911847
 31
0.0
  0
LINE
  5
14B
330
1F
100
AcDbEntity
  8
0
100
AcDbLine
 10
-4.570899599541697
 20
-42.17138502213363
 30
0.0
 11
-7.168975603048962
 21
-37.67138538213363
 31
0.0
  0
LINE
  5
14C
330
1F
100
AcDbEntity
  8
0
100
AcDbLine
 10
21.32258909858198
 20
-16.76428027351548
 30
0.0
 11
21.11548233396399
 21
-16.60536166363108
 31
0.0
  0
LINE
  5
14D
330
1F
100
AcDbEntity
  8
0
100
AcDbLine
 10
50.54973299214898
 20
-13.07368296626582
 30
0.0
 11
65.8620071911613
 21
-13.07368296626582
 31
0.0
  0
LINE
  5
14E
330
1F
100
AcDbEntity
  8
0
100
AcDbLine
 10
-88.28839646037572
 20
4.292189925647641
 30
0.0
 11
-88.34972996814867
 21
3.826315681733064
 31
0.0
  0
LINE
  5
14F
330
1F
100
AcDbEntity
  8
0
100
AcDbLine
 10
-46.29829365996523
 20
-1.796440635162148
 30
0.0
 11
-46.34929159320033
 21
-2.263559272260382
 31
0.0
  0
LINE
  5
150
330
1F
100
AcDbEntity
  8
0
100
AcDbLine
 10
-1.026872787915462
 20
-95.07691748029755
 30
0.0
 11
-0.785691852312494
 21
-94.97701706578493
 31
0.0
  0
LINE
  5
151
330
1F
100
AcDbEntity
  8
0
100
AcDbLine
 10
-7.168975603048962
 20
-46.67138466213367
 30
0.0
 11
-4.570899599541697
 21
-42.17138502213363
 31
0.0
  0
LINE
  5
152
330
1F
100
AcDbEntity
  8
0
100
AcDbLine
 10
21.11548233396399
 20
-16.60536166363108
 30
0.0
 11
20.87430139836102
 21
-16.50546124911847
 31
0.0
  0
LINE
  5
153
330
1F
100
AcDbEntity
  8
0
100
AcDbLine
 10
-2.705073903946065
 20
52.53341856635175
 30
0.0
 11
-2.86399251383046
 21
52.32631180173376
 31
0.0
  0
LINE
  5
154
330
1F
100
AcDbEntity
  8
0
100
AcDbLine
 10
-12.49654343553306
 20
51.82631184173378
 30
0.0
 11
-12.53061760651813
 21
52.0851308661308
 31
0.0
  0
LINE
  5
155
330
1F
100
AcDbEntity
  8
0
100
AcDbLine
 10
-12.99654339553313
 20
52.69233717623624
 30
0.0
 11
-13.2377243311361
 21
52.79223759074877
 31
0.0
  0
LINE
  5
156
330
1F
100
AcDbEntity
  8
0
100
AcDbLine
 10
24.34268986965159
 20
-40.89859291782119
 30
0.0
 11
24.05663637185968
 21
-41.2713850941336
 31
0.0
  0
LINE
  5
157
330
1F
100
AcDbEntity
  8
0
100
AcDbLine
 10
14.71949257409666
 20
-4.723673483125128
 30
0.0
 11
3.71949845021048
 21
-4.723673483124857
 31
0.0
  0
LINE
  5
158
330
1F
100
AcDbEntity
  8
0
100
AcDbLine
 10
-17.05054001653843
 20
-52.77138417413372
 30
0.0
 11
-16.89162140665395
 21
-52.9784909387517
 31
0.0
  0
LINE
  5
159
330
1F
100
AcDbEntity
  8
0
100
AcDbLine
 10
29.61548165396401
 20
-23.07138655013351
 30
0.0
 11
21.61548229396406
 21
-23.07138655013351
 31
0.0
  0
LINE
  5
15A
330
1F
100
AcDbEntity
  8
0
100
AcDbLine
 10
-2.997967099325441
 20
-72.91099342728238
 30
0.0
 11
20.50203102067478
 21
-72.91099342728238
 31
0.0
  0
LINE
  5
15B
330
1F
100
AcDbEntity
  8
0
100
AcDbLine
 10
-84.9908845100445
 20
35.82631312173316
 30
0.0
 11
-84.81106376392168
 21
36.26043880581853
 31
0.0
  0
LINE
  5
15C
330
1F
100
AcDbEntity
  8
0
100
AcDbLine
 10
-85.2769380078363
 20
35.45352094542076
 30
0.0
 11
-84.9908845100445
 21
35.82631312173316
 31
0.0
  0
LINE
  5
15D
330
1F
100
AcDbEntity
  8
0
100
AcDbLine
 10
31.60203013267341
 20
-6.273683510266013
 30
0.0
 11
20.30203103667329
 21
-6.273683510266013
 31
0.0
  0
LINE
  5
15E
330
1F
100
AcDbEntity
  8
0
100
AcDbLine
 10
93.79137046930609
 20
-3.526882788033943
 30
0.0
 11
94.08635529252713
 21
-3.161117064669963
 31
0.0
  0
LINE
  5
15F
330
1F
100
AcDbEntity
  8
0
100
AcDbLine
 10
93.41176987494117
 20
-3.803837656336672
 30
0.0
 11
93.79137046930609
 21
-3.526882788033943
 31
0.0
  0
LINE
  5
160
330
1F
100
AcDbEntity
  8
0
100
AcDbLine
 10
-21.13663213555244
 20
-84.47686678319708
 30
0.0
 11
-20.95681138942982
 21
-84.91099246728248
 31
0.0
  0
LINE
  5
161
330
1F
100
AcDbEntity
  8
0
100
AcDbLine
 10
48.74973313614803
 20
36.72631304973442
 30
0.0
 11
48.81106664392107
 21
36.26043880581979
 31
0.0
  0
LINE
  5
162
330
1F
100
AcDbEntity
  8
0
100
AcDbLine
 10
-0.4196664778100218
 20
-94.61099169128255
 30
0.0
 11
-0.3197660632974954
 21
-94.36981075567954
 31
0.0
  0
LINE
  5
163
330
1F
100
AcDbEntity
  8
0
100
AcDbLine
 10
49.48857499212043
 20
24.23660993669573
 30
0.0
 11
48.49973315614809
 21
23.82701823719414
 31
0.0
  0
LINE
  5
164
330
1F
100
AcDbEntity
  8
0
100
AcDbLine
 10
26.56144200309162
 20
40.97677038704908
 30
0.0
 11
27.02858081200826
 21
41.02758321537731
 31
0.0
  0
LINE
  5
165
330
1F
100
AcDbEntity
  8
0
100
AcDbLine
 10
-43.30544991422077
 20
-0.9230078911231723
 30
0.0
 11
-43.68448755391152
 21
-0.6452830668519767
 31
0.0
  0
LINE
  5
166
330
1F
100
AcDbEntity
  8
0
100
AcDbLine
 10
-43.011208142727
 20
-1.289371631450982
 30
0.0
 11
-43.30544991422077
 21
-0.9230078911231723
 31
0.0
  0
LINE
  5
167
330
1F
100
AcDbEntity
  8
0
100
AcDbLine
 10
20.97831111849262
 20
95.07691748029745
 30
0.0
 11
20.71949209409561
 21
95.11099165128253
 31
0.0
  0
LINE
  5
168
330
1F
100
AcDbEntity
  8
0
100
AcDbLine
 10
-15.86384035124192
 20
2.08764933350659
 30
0.0
 11
-15.3979661073273
 21
2.026315825733597
 31
0.0
  0
LINE
  5
169
330
1F
100
AcDbEntity
  8
0
100
AcDbLine
 10
3.585424287224618
 20
78.35217394688546
 30
0.0
 11
3.485523872712092
 21
78.11099301128249
 31
0.0
  0
LINE
  5
16A
330
1F
100
AcDbEntity
  8
0
100
AcDbLine
 10
3.619498458209689
 20
78.61099297128247
 30
0.0
 11
3.585424287224618
 21
78.35217394688546
 31
0.0
  0
LINE
  5
16B
330
1F
100
AcDbEntity
  8
0
100
AcDbLine
 10
65.86200719116057
 20
46.82631224173435
 30
0.0
 11
50.54973299214853
 21
46.82631224173435
 31
0.0
  0
LINE
  5
16C
330
1F
100
AcDbEntity
  8
0
100
AcDbLine
 10
-12.78943663091514
 20
52.53341856635175
 30
0.0
 11
-12.99654339553313
 21
52.69233717623624
 31
0.0
  0
LINE
  5
16D
330
1F
100
AcDbEntity
  8
0
100
AcDbLine
 10
26.0813562178787
 20
-40.43271867390657
 30
0.0
 11
25.61548197396408
 21
-40.37138516613357
 31
0.0
  0
LINE
  5
16E
330
1F
100
AcDbEntity
  8
0
100
AcDbLine
 10
91.2465306783802
 20
-3.465324671422772
 30
0.0
 11
91.61229640174413
 21
-3.760309494643822
 31
0.0
  0
LINE
  5
16F
330
1F
100
AcDbEntity
  8
0
100
AcDbLine
 10
97.54972923214879
 20
-19.67368243826702
 30
0.0
 11
42.54973363214841
 21
-19.67368243826702
 31
0.0
  0
LINE
  5
170
330
1F
100
AcDbEntity
  8
0
100
AcDbLine
 10
26.55551922899448
 20
-4.02308267283142
 30
0.0
 11
27.02282275239159
 21
-3.973807655435541
 31
0.0
  0
LINE
  5
171
330
1F
100
AcDbEntity
  8
0
100
AcDbLine
 10
27.02282275239159
 20
-3.973807655435541
 30
0.0
 11
27.461449981407
 21
-3.805264591843315
 31
0.0
  0
LINE
  5
172
330
1F
100
AcDbEntity
  8
0
100
AcDbLine
 10
27.461449981407
 20
-3.805264591843315
 30
0.0
 11
27.84150919524889
 21
-3.528939413307995
 31
0.0
  0
LINE
  5
173
330
1F
100
AcDbEntity
  8
0
100
AcDbLine
 10
-52.98829267435936
 20
-44.95947875470243
 30
0.0
 11
-53.58769516143488
 21
-43.5123931410844
 31
0.0
  0
LINE
  5
174
330
1F
100
AcDbEntity
  8
0
100
AcDbLine
 10
-8.556960201036416
 20
-86.90876978632753
 30
0.0
 11
-7.780503127845381
 21
-87.01099229928252
 31
0.0
  0
LINE
  5
175
330
1F
100
AcDbEntity
  8
0
100
AcDbLine
 10
26.32923834836235
 20
-82.73820043497001
 30
0.0
 11
26.04318485057044
 21
-83.11099261128243
 31
0.0
  0
LINE
  5
176
330
1F
100
AcDbEntity
  8
0
100
AcDbLine
 10
-7.780503127845381
 20
-81.0109927792824
 30
0.0
 11
-8.556960201036416
 21
-81.11321529223738
 31
0.0
  0
LINE
  5
177
330
1F
100
AcDbEntity
  8
0
100
AcDbLine
 10
-85.64973018414872
 20
5.38516128383737
 30
0.0
 11
-86.08385586823408
 21
5.564982029960034
 31
0.0
  0
LINE
  5
178
330
1F
100
AcDbEntity
  8
0
100
AcDbLine
 10
-85.2769380078363
 20
5.099107786045457
 30
0.0
 11
-85.64973018414872
 21
5.38516128383737
 31
0.0
  0
LINE
  5
179
330
1F
100
AcDbEntity
  8
0
100
AcDbLine
 10
26.17548025333843
 20
44.52504191609083
 30
0.0
 11
25.73741014105086
 21
44.35505607244777
 31
0.0
  0
LINE
  5
17A
330
1F
100
AcDbEntity
  8
0
100
AcDbLine
 10
25.73741014105086
 20
44.35505607244777
 30
0.0
 11
25.35826247959963
 21
44.0774814678191
 31
0.0
  0
LINE
  5
17B
330
1F
100
AcDbEntity
  8
0
100
AcDbLine
 10
25.35826247959963
 20
44.0774814678191
 30
0.0
 11
25.06387555554136
 21
43.71123435279658
 31
0.0
  0
LINE
  5
17C
330
1F
100
AcDbEntity
  8
0
100
AcDbLine
 10
25.61548197396408
 20
-43.97138487813368
 30
0.0
 11
26.0813562178787
 21
-43.91005137036069
 31
0.0
  0
LINE
  5
17D
330
1F
100
AcDbEntity
  8
0
100
AcDbLine
 10
18.01548258196323
 20
-46.67138466213367
 30
0.0
 11
12.73294659344521
 21
-46.67138466213363
 31
0.0
  0
LINE
  5
17E
330
1F
100
AcDbEntity
  8
0
100
AcDbLine
 10
-16.45912410735496
 20
16.3160187947722
 30
0.0
 11
-15.3979661073273
 21
16.17631469373368
 31
0.0
  0
LINE
  5
17F
330
1F
100
AcDbEntity
  8
0
100
AcDbLine
 10
-15.3979661073273
 20
16.17631469373368
 30
0.0
 11
-14.33680810729964
 21
16.3160187947722
 31
0.0
  0
LINE
  5
180
330
1F
100
AcDbEntity
  8
0
100
AcDbLine
 10
-13.34796627132731
 20
16.72561049427379
 30
0.0
 11
-12.49882853639349
 21
17.37717679479985
 31
0.0
  0
LINE
  5
181
330
1F
100
AcDbEntity
  8
0
100
AcDbLine
 10
-12.49882853639349
 20
17.37717679479985
 30
0.0
 11
-11.84726223586742
 21
18.22631452973367
 31
0.0
  0
LINE
  5
182
330
1F
100
AcDbEntity
  8
0
100
AcDbLine
 10
-11.29796643532731
 20
20.27631436573372
 30
0.0
 11
-11.43767053636583
 21
21.33747236576137
 31
0.0
  0
LINE
  5
183
330
1F
100
AcDbEntity
  8
0
100
AcDbLine
 10
3.719498450210119
 20
39.02631286573381
 30
0.0
 11
-3.648965118236101
 21
39.02631286573381
 31
0.0
  0
LINE
  5
184
330
1F
100
AcDbEntity
  8
0
100
AcDbLine
 10
-7.677408581418294
 20
-16.76428027351548
 30
0.0
 11
-7.884515346036281
 21
-16.60536166363108
 31
0.0
  0
LINE
  5
185
330
1F
100
AcDbEntity
  8
0
100
AcDbLine
 10
-2.24896523023641
 20
77.61099305128242
 30
0.0
 11
-2.507784254633423
 21
77.6450672222675
 31
0.0
  0
LINE
  5
186
330
1F
100
AcDbEntity
  8
0
100
AcDbLine
 10
2.878317562606652
 20
77.6450672222675
 30
0.0
 11
2.619498538209639
 21
77.61099305128242
 31
0.0
  0
LINE
  5
187
330
1F
100
AcDbEntity
  8
0
100
AcDbLine
 10
2.492215345366645
 20
95.07691748029745
 30
0.0
 11
2.751034369763658
 21
95.11099165128253
 31
0.0
  0
LINE
  5
188
330
1F
100
AcDbEntity
  8
0
100
AcDbLine
 10
48.99088739004369
 20
35.82631312173443
 30
0.0
 11
49.2769408878356
 21
35.45352094542193
 31
0.0
  0
LINE
  5
189
330
1F
100
AcDbEntity
  8
0
100
AcDbLine
 10
48.81106664392107
 20
36.26043880581979
 30
0.0
 11
48.99088739004369
 21
35.82631312173443
 31
0.0
  0
LINE
  5
18A
330
1F
100
AcDbEntity
  8
0
100
AcDbLine
 10
-5.182427124338115
 20
-85.51099241928247
 30
0.0
 11
-4.882725880800355
 21
-84.78744961247344
 31
0.0
  0
LINE
  5
18B
330
1F
100
AcDbEntity
  8
0
100
AcDbLine
 10
-19.64584791780917
 20
-42.63725926604825
 30
0.0
 11
-19.58451441003613
 21
-42.17138502213363
 31
0.0
  0
LINE
  5
18C
330
1F
100
AcDbEntity
  8
0
100
AcDbLine
 10
-13.65929975910029
 20
4.292189925648272
 30
0.0
 11
-13.83912050522291
 21
4.726315609733677
 31
0.0
  0
LINE
  5
18D
330
1F
100
AcDbEntity
  8
0
100
AcDbLine
 10
-13.83912050522291
 20
4.726315609733677
 30
0.0
 11
-14.12517400301482
 21
5.099107786046089
 31
0.0
  0
LINE
  5
18E
330
1F
100
AcDbEntity
  8
0
100
AcDbLine
 10
-14.12517400301482
 20
5.099107786046089
 30
0.0
 11
-14.49796617932723
 21
5.385161283838046
 31
0.0
  0
LINE
  5
18F
330
1F
100
AcDbEntity
  8
0
100
AcDbLine
 10
-14.49796617932723
 20
5.385161283838046
 30
0.0
 11
-14.93209186341268
 21
5.564982029960711
 31
0.0
  0
LINE
  5
190
330
1F
100
AcDbEntity
  8
0
100
AcDbLine
 10
92.12603660167862
 20
-0.4742600155379185
 30
0.0
 11
91.6876893893563
 21
-0.6435300121941662
 31
0.0
  0
LINE
  5
191
330
1F
100
AcDbEntity
  8
0
100
AcDbLine
 10
2.251034409763678
 20
94.97701706578493
 30
0.0
 11
2.492215345366645
 21
95.07691748029745
 31
0.0
  0
LINE
  5
192
330
1F
100
AcDbEntity
  8
0
100
AcDbLine
 10
-12.29277447796626
 20
-79.51099289928241
 30
0.0
 11
-12.29796635532555
 21
-72.91099342728238
 31
0.0
  0
LINE
  5
193
330
1F
100
AcDbEntity
  8
0
100
AcDbLine
 10
-85.2769380078363
 20
37.99910515404554
 30
0.0
 11
-85.64973018414872
 21
38.28515865183746
 31
0.0
  0
LINE
  5
194
330
1F
100
AcDbEntity
  8
0
100
AcDbLine
 10
-84.9908845100445
 20
37.62631297773313
 30
0.0
 11
-85.2769380078363
 21
37.99910515404554
 31
0.0
  0
LINE
  5
195
330
1F
100
AcDbEntity
  8
0
100
AcDbLine
 10
-16.3509947643357
 20
-12.23964278422371
 30
0.0
 11
-16.09230238275353
 21
-12.27368303026658
 31
0.0
  0
LINE
  5
196
330
1F
100
AcDbEntity
  8
0
100
AcDbLine
 10
19.56085014107025
 20
52.79223759074904
 30
0.0
 11
19.30203111667324
 21
52.8263117617341
 31
0.0
  0
LINE
  5
197
330
1F
100
AcDbEntity
  8
0
100
AcDbLine
 10
-17.35044041505128
 20
-17.21256797373648
 30
0.0
 11
-17.25054000053875
 21
-16.97138703813346
 31
0.0
  0
LINE
  5
198
330
1F
100
AcDbEntity
  8
0
100
AcDbLine
 10
-46.34929159320033
 20
-2.263559272260382
 30
0.0
 11
-46.27765261439605
 21
-2.727960464156614
 31
0.0
  0
LINE
  5
199
330
1F
100
AcDbEntity
  8
0
100
AcDbLine
 10
-13.83912050522291
 20
37.62631297773376
 30
0.0
 11
-14.12517400301482
 21
37.99910515404626
 31
0.0
  0
LINE
  5
19A
330
1F
100
AcDbEntity
  8
0
100
AcDbLine
 10
26.70203052467486
 20
-82.45214693717806
 30
0.0
 11
26.32923834836235
 21
-82.73820043497001
 31
0.0
  0
LINE
  5
19B
330
1F
100
AcDbEntity
  8
0
100
AcDbLine
 10
-57.74973241614803
 20
-13.07368296626699
 30
0.0
 11
-57.74973241614803
 21
-6.27368351026696
 31
0.0
  0
LINE
  5
19C
330
1F
100
AcDbEntity
  8
0
100
AcDbLine
 10
-57.74973241614803
 20
53.62631169773339
 30
0.0
 11
-47.34973324814798
 21
53.62631169773339
 31
0.0
  0
LINE
  5
19D
330
1F
100
AcDbEntity
  8
0
100
AcDbLine
 10
1.885009035261206
 20
94.61099169128245
 30
0.0
 11
2.043927645145691
 21
94.81809845590045
 31
0.0
  0
LINE
  5
19E
330
1F
100
AcDbEntity
  8
0
100
AcDbLine
 10
-15.19796612332527
 20
-88.51099217928245
 30
0.0
 11
-23.39796546732545
 21
-88.51099217928245
 31
0.0
  0
LINE
  5
19F
330
1F
100
AcDbEntity
  8
0
100
AcDbLine
 10
19.30203111667324
 20
-12.27368303026699
 30
0.0
 11
-1.997967179327196
 21
-12.27368303026636
 31
0.0
  0
LINE
  5
1A0
330
1F
100
AcDbEntity
  8
0
100
AcDbLine
 10
-19.64584791780917
 20
-41.70551077821901
 30
0.0
 11
-19.82566866393179
 21
-41.2713850941336
 31
0.0
  0
LINE
  5
1A1
330
1F
100
AcDbEntity
  8
0
100
AcDbLine
 10
20.87430139836102
 20
-16.50546124911847
 30
0.0
 11
20.61548237396401
 21
-16.47138707813349
 31
0.0
  0
LINE
  5
1A2
330
1F
100
AcDbEntity
  8
0
100
AcDbLine
 10
-18.93209154341081
 20
-82.27232619105538
 30
0.0
 11
-19.39796578732543
 21
-82.2109926832824
 31
0.0
  0
LINE
  5
1A3
330
1F
100
AcDbEntity
  8
0
100
AcDbLine
 10
11.64955726494899
 20
-17.21256797373648
 30
0.0
 11
11.61548309396392
 21
-17.47138699813349
 31
0.0
  0
LINE
  5
1A4
330
1F
100
AcDbEntity
  8
0
100
AcDbLine
 10
20.30203103667329
 20
46.82631224173417
 30
0.0
 11
20.30203103667329
 21
51.82631184173405
 31
0.0
  0
LINE
  5
1A5
330
1F
100
AcDbEntity
  8
0
100
AcDbLine
 10
-23.39796546732698
 20
46.82631224173372
 30
0.0
 11
-17.09623585258511
 21
46.82631224173381
 31
0.0
  0
LINE
  5
1A6
330
1F
100
AcDbEntity
  8
0
100
AcDbLine
 10
-2.997967099327968
 20
46.82631224173381
 30
0.0
 11
-2.997967099328058
 21
51.82631184173378
 31
0.0
  0
LINE
  5
1A7
330
1F
100
AcDbEntity
  8
0
100
AcDbLine
 10
-39.5497338721479
 20
60.22631116973346
 30
0.0
 11
-39.5497338721479
 21
-19.67368243826829
 31
0.0
  0
LINE
  5
1A8
330
1F
100
AcDbEntity
  8
0
100
AcDbLine
 10
-18.93209154341081
 20
-85.74965888750951
 30
0.0
 11
-18.49796585932544
 21
-85.56983814138685
 31
0.0
  0
LINE
  5
1A9
330
1F
100
AcDbEntity
  8
0
100
AcDbLine
 10
42.54973363214841
 20
27.7653998609844
 30
0.0
 11
42.54973363214841
 21
60.22631116973346
 31
0.0
  0
LINE
  5
1AA
330
1F
100
AcDbEntity
  8
0
100
AcDbLine
 10
-18.49796585932535
 20
-82.45214693717806
 30
0.0
 11
-18.93209154341081
 21
-82.27232619105538
 31
0.0
  0
LINE
  5
1AB
330
1F
100
AcDbEntity
  8
0
100
AcDbLine
 10
3.619498458209689
 20
78.61099297128247
 30
0.0
 11
3.619498458209689
 21
82.61099265128249
 31
0.0
  0
LINE
  5
1AC
330
1F
100
AcDbEntity
  8
0
100
AcDbLine
 10
94.34920310534577
 20
-2.267211995958268
 30
0.0
 11
94.29915345087628
 21
-1.799990803795254
 31
0.0
  0
LINE
  5
1AD
330
1F
100
AcDbEntity
  8
0
100
AcDbLine
 10
-10.67828037489041
 20
-84.78744961247344
 30
0.0
 11
-10.37857913135265
 21
-85.51099241928247
 31
0.0
  0
LINE
  5
1AE
330
1F
100
AcDbEntity
  8
0
100
AcDbLine
 10
-20.95681138942982
 20
-84.91099246728248
 30
0.0
 11
-20.67075789163791
 21
-85.28378464359488
 31
0.0
  0
LINE
  5
1AF
330
1F
100
AcDbEntity
  8
0
100
AcDbLine
 10
-87.01560435606332
 20
2.087649333506094
 30
0.0
 11
-86.54973011214871
 21
2.026315825733101
 31
0.0
  0
LINE
  5
1B0
330
1F
100
AcDbEntity
  8
0
100
AcDbLine
 10
-87.4497300401487
 20
2.267470079628759
 30
0.0
 11
-87.01560435606332
 21
2.087649333506094
 31
0.0
  0
LINE
  5
1B1
330
1F
100
AcDbEntity
  8
0
100
AcDbLine
 10
51.44973292014816
 20
38.28515865183881
 30
0.0
 11
51.01560723606271
 21
38.46497939796143
 31
0.0
  0
LINE
  5
1B2
330
1F
100
AcDbEntity
  8
0
100
AcDbLine
 10
20.31949212609578
 20
77.74496763678002
 30
0.0
 11
20.56067306169875
 21
77.6450672222675
 31
0.0
  0
LINE
  5
1B3
330
1F
100
AcDbEntity
  8
0
100
AcDbLine
 10
94.27662161638746
 20
-2.731466815835611
 30
0.0
 11
94.34920310534577
 21
-2.267211995958268
 31
0.0
  0
LINE
  5
1B4
330
1F
100
AcDbEntity
  8
0
100
AcDbLine
 10
47.65059542121427
 20
23.17545193666812
 30
0.0
 11
46.99902912068821
 21
22.3263142017343
 31
0.0
  0
LINE
  5
1B5
330
1F
100
AcDbEntity
  8
0
100
AcDbLine
 10
-84.74973025614874
 20
3.826315681733064
 30
0.0
 11
-84.81106376392168
 21
4.292189925647641
 31
0.0
  0
LINE
  5
1B6
330
1F
100
AcDbEntity
  8
0
100
AcDbLine
 10
-76.34973092814825
 20
-13.07368296626699
 30
0.0
 11
-76.34973092814825
 21
-6.27368351026696
 31
0.0
  0
LINE
  5
1B7
330
1F
100
AcDbEntity
  8
0
100
AcDbLine
 10
-17.25054000053875
 20
-16.97138703813346
 30
0.0
 11
-17.09162139065426
 21
-16.76428027351548
 31
0.0
  0
LINE
  5
1B8
330
1F
100
AcDbEntity
  8
0
100
AcDbLine
 10
25.02328702595963
 20
41.91169217411159
 30
0.0
 11
25.3008616305883
 21
41.53254451266035
 31
0.0
  0
LINE
  5
1B9
330
1F
100
AcDbEntity
  8
0
100
AcDbLine
 10
-84.9908845100445
 20
4.726315609733046
 30
0.0
 11
-85.2769380078363
 21
5.099107786045457
 31
0.0
  0
LINE
  5
1BA
330
1F
100
AcDbEntity
  8
0
100
AcDbLine
 10
-84.81106376392168
 20
4.292189925647641
 30
0.0
 11
-84.9908845100445
 21
4.726315609733046
 31
0.0
  0
LINE
  5
1BB
330
1F
100
AcDbEntity
  8
0
100
AcDbLine
 10
-6.13914780292849
 20
-58.34506876626729
 30
0.0
 11
-6.397966827325503
 21
-58.31099459528231
 31
0.0
  0
LINE
  5
1BC
330
1F
100
AcDbEntity
  8
0
100
AcDbLine
 10
-16.80334265720303
 20
52.53341856635175
 30
0.0
 11
-16.59623589258504
 21
52.69233717623624
 31
0.0
  0
LINE
  5
1BD
330
1F
100
AcDbEntity
  8
0
100
AcDbLine
 10
-16.96226126708751
 20
52.32631180173376
 30
0.0
 11
-16.80334265720303
 21
52.53341856635175
 31
0.0
  0
LINE
  5
1BE
330
1F
100
AcDbEntity
  8
0
100
AcDbLine
 10
-17.06216168160004
 20
52.0851308661308
 30
0.0
 11
-16.96226126708751
 21
52.32631180173376
 31
0.0
  0
LINE
  5
1BF
330
1F
100
AcDbEntity
  8
0
100
AcDbLine
 10
-0.785691852312494
 20
-94.97701706578493
 30
0.0
 11
-0.5785850876945076
 21
-94.81809845590054
 31
0.0
  0
LINE
  5
1C0
330
1F
100
AcDbEntity
  8
0
100
AcDbLine
 10
-61.78384692844983
 20
-41.31624089406998
 30
0.0
 11
-63.02648751615738
 21
-42.26975255337635
 31
0.0
  0
LINE
  5
1C1
330
1F
100
AcDbEntity
  8
0
100
AcDbLine
 10
-43.68448755391152
 20
-0.6452830668519767
 30
0.0
 11
-44.12249027304357
 21
-0.4751236464495066
 31
0.0
  0
LINE
  5
1C2
330
1F
100
AcDbEntity
  8
0
100
AcDbLine
 10
53.4488705630819
 20
17.37717679480053
 30
0.0
 11
54.10043686360796
 21
18.22631452973435
 31
0.0
  0
LINE
  5
1C3
330
1F
100
AcDbEntity
  8
0
100
AcDbLine
 10
39.54973387214799
 20
24.76540010098439
 30
0.0
 11
42.54973363214841
 21
27.7653998609844
 31
0.0
  0
LINE
  5
1C4
330
1F
100
AcDbEntity
  8
0
100
AcDbLine
 10
13.60203157267468
 20
-59.31099451528232
 30
0.0
 11
13.60203157267468
 21
-64.91099406728235
 31
0.0
  0
LINE
  5
1C5
330
1F
100
AcDbEntity
  8
0
100
AcDbLine
 10
52.59973282814808
 20
16.72561049427447
 30
0.0
 11
53.4488705630819
 21
17.37717679480053
 31
0.0
  0
LINE
  5
1C6
330
1F
100
AcDbEntity
  8
0
100
AcDbLine
 10
24.71548204596401
 20
-43.73023062423803
 30
0.0
 11
25.14960773004946
 21
-43.91005137036069
 31
0.0
  0
LINE
  5
1C7
330
1F
100
AcDbEntity
  8
0
100
AcDbLine
 10
91.6876893893563
 20
-0.6435300121941662
 30
0.0
 11
91.30808879499138
 21
-0.9204848804968946
 31
0.0
  0
LINE
  5
1C8
330
1F
100
AcDbEntity
  8
0
100
AcDbLine
 10
12.35666398956696
 20
-16.50546124911847
 30
0.0
 11
12.11548305396399
 21
-16.60536166363108
 31
0.0
  0
LINE
  5
1C9
330
1F
100
AcDbEntity
  8
0
100
AcDbLine
 10
12.73294659344521
 20
-46.67138466213363
 30
0.0
 11
12.73294659344521
 21
-37.67138538213358
 31
0.0
  0
LINE
  5
1CA
330
1F
100
AcDbEntity
  8
0
100
AcDbLine
 10
18.01548258196323
 20
-52.2713842141337
 30
0.0
 11
18.01548258196323
 21
-46.67138466213367
 31
0.0
  0
LINE
  5
1CB
330
1F
100
AcDbEntity
  8
0
100
AcDbLine
 10
-58.78384716844977
 20
-40.51239338108439
 30
0.0
 11
-60.33676131483184
 21
-40.71683840699437
 31
0.0
  0
LINE
  5
1CC
330
1F
100
AcDbEntity
  8
0
100
AcDbLine
 10
-10.78050288784544
 20
-84.01099253928246
 30
0.0
 11
-10.67828037489041
 21
-84.78744961247344
 31
0.0
  0
LINE
  5
1CD
330
1F
100
AcDbEntity
  8
0
100
AcDbLine
 10
23.60203077267482
 20
-59.31099451528232
 30
0.0
 11
23.56795660168974
 21
-59.0521754908853
 31
0.0
  0
LINE
  5
1CE
330
1F
100
AcDbEntity
  8
0
100
AcDbLine
 10
24.85330118231658
 20
42.34976228639916
 30
0.0
 11
25.02328702595963
 21
41.91169217411159
 31
0.0
  0
LINE
  5
1CF
330
1F
100
AcDbEntity
  8
0
100
AcDbLine
 10
28.40142937123867
 20
-2.270195137944964
 30
0.0
 11
28.35215435384275
 21
-1.802891614547848
 31
0.0
  0
LINE
  5
1D0
330
1F
100
AcDbEntity
  8
0
100
AcDbLine
 10
28.35215435384275
 20
-1.802891614547848
 30
0.0
 11
28.18361129025061
 21
-1.364264385532476
 31
0.0
  0
LINE
  5
1D1
330
1F
100
AcDbEntity
  8
0
100
AcDbLine
 10
46.99902912068821
 20
22.3263142017343
 30
0.0
 11
46.58943742118661
 21
21.33747236576205
 31
0.0
  0
LINE
  5
1D2
330
1F
100
AcDbEntity
  8
0
100
AcDbLine
 10
-14.12517400301482
 20
37.99910515404626
 30
0.0
 11
-14.49796617932723
 21
38.28515865183817
 31
0.0
  0
LINE
  5
1D3
330
1F
100
AcDbEntity
  8
0
100
AcDbLine
 10
-14.49796617932723
 20
38.28515865183817
 30
0.0
 11
-14.93209186341268
 21
38.4649793979608
 31
0.0
  0
LINE
  5
1D4
330
1F
100
AcDbEntity
  8
0
100
AcDbLine
 10
-14.93209186341268
 20
38.4649793979608
 30
0.0
 11
-15.3979661073273
 21
38.52631290573384
 31
0.0
  0
LINE
  5
1D5
330
1F
100
AcDbEntity
  8
0
100
AcDbLine
 10
-15.3979661073273
 20
38.52631290573384
 30
0.0
 11
-15.86384035124192
 21
38.4649793979608
 31
0.0
  0
LINE
  5
1D6
330
1F
100
AcDbEntity
  8
0
100
AcDbLine
 10
-46.34929159320015
 20
42.8161880037339
 30
0.0
 11
-46.29829365996686
 21
42.34906936663553
 31
0.0
  0
LINE
  5
1D7
330
1F
100
AcDbEntity
  8
0
100
AcDbLine
 10
-14.93209186341268
 20
5.564982029960711
 30
0.0
 11
-15.3979661073273
 21
5.626315537733704
 31
0.0
  0
LINE
  5
1D8
330
1F
100
AcDbEntity
  8
0
100
AcDbLine
 10
-15.3979661073273
 20
5.626315537733704
 30
0.0
 11
-15.86384035124192
 21
5.564982029960711
 31
0.0
  0
LINE
  5
1D9
330
1F
100
AcDbEntity
  8
0
100
AcDbLine
 10
-43.01120814273052
 20
41.8420003629121
 30
0.0
 11
-42.82181432990195
 21
42.27203593583714
 31
0.0
  0
LINE
  5
1DA
330
1F
100
AcDbEntity
  8
0
100
AcDbLine
 10
-16.64333369043331
 20
-16.50546124911847
 30
0.0
 11
-16.3845146660363
 21
-16.47138707813349
 31
0.0
  0
LINE
  5
1DB
330
1F
100
AcDbEntity
  8
0
100
AcDbLine
 10
27.02858081200826
 20
41.02758321537731
 30
0.0
 11
27.46665092429582
 21
41.19756905902036
 31
0.0
  0
LINE
  5
1DC
330
1F
100
AcDbEntity
  8
0
100
AcDbLine
 10
27.46665092429582
 20
41.19756905902036
 30
0.0
 11
27.84579858574705
 21
41.47514366364903
 31
0.0
  0
LINE
  5
1DD
330
1F
100
AcDbEntity
  8
0
100
AcDbLine
 10
27.84579858574705
 20
41.47514366364903
 30
0.0
 11
28.14018550980532
 21
41.84139077867156
 31
0.0
  0
LINE
  5
1DE
330
1F
100
AcDbEntity
  8
0
100
AcDbLine
 10
28.14018550980532
 20
41.84139077867156
 30
0.0
 11
28.32974971409321
 21
42.27135126845102
 31
0.0
  0
LINE
  5
1DF
330
1F
100
AcDbEntity
  8
0
100
AcDbLine
 10
51.01560723606316
 20
2.087649333506004
 30
0.0
 11
51.44973292014852
 21
2.267470079628668
 31
0.0
  0
LINE
  5
1E0
330
1F
100
AcDbEntity
  8
0
100
AcDbLine
 10
-42.82181432990195
 20
42.27203593583714
 30
0.0
 11
-42.75017535109596
 21
42.73643712773315
 31
0.0
  0
LINE
  5
1E1
330
1F
100
AcDbEntity
  8
0
100
AcDbLine
 10
-0.3197660632974954
 20
-94.36981075567954
 30
0.0
 11
-0.285691892312424
 21
-94.11099173128252
 31
0.0
  0
LINE
  5
1E2
330
1F
100
AcDbEntity
  8
0
100
AcDbLine
 10
-2.272240371023182
 20
-37.67138538213358
 30
0.0
 11
-4.984515578036199
 21
-37.67138538213358
 31
0.0
  0
LINE
  5
1E3
330
1F
100
AcDbEntity
  8
0
100
AcDbLine
 10
13.60203157267468
 20
-64.91099406728235
 30
0.0
 11
-5.397966907325452
 21
-64.91099406728235
 31
0.0
  0
LINE
  5
1E4
330
1F
100
AcDbEntity
  8
0
100
AcDbLine
 10
25.3008616305883
 20
41.53254451266035
 30
0.0
 11
25.66710874561083
 21
41.23815758860209
 31
0.0
  0
LINE
  5
1E5
330
1F
100
AcDbEntity
  8
0
100
AcDbLine
 10
26.04318485057044
 20
-83.11099261128243
 30
0.0
 11
25.86336410444782
 21
-83.54511829536784
 31
0.0
  0
LINE
  5
1E6
330
1F
100
AcDbEntity
  8
0
100
AcDbLine
 10
-44.12249027304357
 20
-0.4751236464495066
 30
0.0
 11
-44.58960891014176
 21
-0.4241257132144092
 31
0.0
  0
LINE
  5
1E7
330
1F
100
AcDbEntity
  8
0
100
AcDbLine
 10
-44.58960891014176
 20
-0.4241257132144092
 30
0.0
 11
-45.05401010203803
 21
-0.4957646920186388
 31
0.0
  0
LINE
  5
1E8
330
1F
100
AcDbEntity
  8
0
100
AcDbLine
 10
-45.05401010203803
 20
-0.4957646920186388
 30
0.0
 11
-45.4840456749638
 21
-0.6851585048456761
 31
0.0
  0
LINE
  5
1E9
330
1F
100
AcDbEntity
  8
0
100
AcDbLine
 10
-9.280503007845411
 20
-86.60906854278973
 30
0.0
 11
-8.556960201036416
 21
-86.90876978632753
 31
0.0
  0
LINE
  5
1EA
330
1F
100
AcDbEntity
  8
0
100
AcDbLine
 10
-14.12517400301482
 20
35.4535209454213
 30
0.0
 11
-13.83912050522291
 21
35.8263131217337
 31
0.0
  0
LINE
  5
1EB
330
1F
100
AcDbEntity
  8
0
100
AcDbLine
 10
-13.83912050522291
 20
35.8263131217337
 30
0.0
 11
-13.65929975910029
 21
36.26043880581916
 31
0.0
  0
LINE
  5
1EC
330
1F
100
AcDbEntity
  8
0
100
AcDbLine
 10
-13.65929975910029
 20
36.26043880581916
 30
0.0
 11
-13.59796625132725
 21
36.72631304973378
 31
0.0
  0
LINE
  5
1ED
330
1F
100
AcDbEntity
  8
0
100
AcDbLine
 10
-13.59796625132725
 20
36.72631304973378
 30
0.0
 11
-13.65929975910029
 21
37.1921872936484
 31
0.0
  0
LINE
  5
1EE
330
1F
100
AcDbEntity
  8
0
100
AcDbLine
 10
-17.29277253092878
 20
-79.51492613848919
 30
0.0
 11
-12.29277447796626
 21
-79.51099289928241
 31
0.0
  0
LINE
  5
1EF
330
1F
100
AcDbEntity
  8
0
100
AcDbLine
 10
19.81949216609572
 20
82.61099265128249
 30
0.0
 11
19.81949216609572
 21
78.61099297128247
 31
0.0
  0
LINE
  5
1F0
330
1F
100
AcDbEntity
  8
0
100
AcDbLine
 10
-9.90182330169946
 20
-86.13231271313649
 30
0.0
 11
-9.280503007845411
 21
-86.60906854278973
 31
0.0
  0
LINE
  5
1F1
330
1F
100
AcDbEntity
  8
0
100
AcDbLine
 10
-52.78384764844928
 20
-50.01239262108441
 30
0.0
 11
-36.38384896044958
 21
-50.01239262108441
 31
0.0
  0
LINE
  5
1F2
330
1F
100
AcDbEntity
  8
0
100
AcDbLine
 10
-54.54120682074143
 20
-42.26975255337635
 30
0.0
 11
-55.78384740844935
 21
-41.31624089406998
 31
0.0
  0
LINE
  5
1F3
330
1F
100
AcDbEntity
  8
0
100
AcDbLine
 10
-52.78384764844928
 20
-46.51239290108442
 30
0.0
 11
-52.98829267435936
 21
-44.95947875470243
 31
0.0
  0
LINE
  5
1F4
330
1F
100
AcDbEntity
  8
0
100
AcDbLine
 10
-87.01560435606332
 20
38.46497939796007
 30
0.0
 11
-87.4497300401487
 21
38.28515865183746
 31
0.0
  0
LINE
  5
1F5
330
1F
100
AcDbEntity
  8
0
100
AcDbLine
 10
-86.54973011214871
 20
38.52631290573311
 30
0.0
 11
-87.01560435606332
 21
38.46497939796007
 31
0.0
  0
LINE
  5
1F6
330
1F
100
AcDbEntity
  8
0
100
AcDbLine
 10
-84.49973027614843
 20
23.82701823719288
 30
0.0
 11
-85.48857211212103
 21
24.23660993669447
 31
0.0
  0
LINE
  5
1F7
330
1F
100
AcDbEntity
  8
0
100
AcDbLine
 10
-86.54973011214871
 20
24.37631403773308
 30
0.0
 11
-87.61088811217637
 21
24.23660993669447
 31
0.0
  0
LINE
  5
1F8
330
1F
100
AcDbEntity
  8
0
100
AcDbLine
 10
-87.61088811217637
 20
24.23660993669447
 30
0.0
 11
-88.5997299481486
 21
23.82701823719288
 31
0.0
  0
LINE
  5
1F9
330
1F
100
AcDbEntity
  8
0
100
AcDbLine
 10
-90.64972978414852
 20
20.27631436573313
 30
0.0
 11
-90.5100256831099
 21
19.21515636570547
 31
0.0
  0
LINE
  5
1FA
330
1F
100
AcDbEntity
  8
0
100
AcDbLine
 10
-90.5100256831099
 20
19.21515636570547
 30
0.0
 11
-90.10043398360848
 21
18.22631452973309
 31
0.0
  0
LINE
  5
1FB
330
1F
100
AcDbEntity
  8
0
100
AcDbLine
 10
50.54973299214853
 20
46.82631224173435
 30
0.0
 11
50.54973299214853
 21
53.62631169773438
 31
0.0
  0
LINE
  5
1FC
330
1F
100
AcDbEntity
  8
0
100
AcDbLine
 10
26.1812383129551
 20
-0.47356001309665
 30
0.0
 11
25.74261108393968
 21
-0.642103076688876
 31
0.0
  0
LINE
  5
1FD
330
1F
100
AcDbEntity
  8
0
100
AcDbLine
 10
25.74261108393968
 20
-0.642103076688876
 30
0.0
 11
25.36255187009779
 21
-0.9184282552241959
 31
0.0
  0
LINE
  5
1FE
330
1F
100
AcDbEntity
  8
0
100
AcDbLine
 10
-16.35505495698207
 20
52.79223759074877
 30
0.0
 11
-16.09623593258506
 21
52.82631176173383
 31
0.0
  0
LINE
  5
1FF
330
1F
100
AcDbEntity
  8
0
100
AcDbLine
 10
28.18361129025061
 20
-1.364264385532476
 30
0.0
 11
27.90728611171524
 21
-0.9842051716904996
 31
0.0
  0
LINE
  5
200
330
1F
100
AcDbEntity
  8
0
100
AcDbLine
 10
27.90728611171524
 20
-0.9842051716904996
 30
0.0
 11
27.54200992250501
 21
-0.6886143803677444
 31
0.0
  0
LINE
  5
201
330
1F
100
AcDbEntity
  8
0
100
AcDbLine
 10
27.54200992250501
 20
-0.6886143803677444
 30
0.0
 11
27.11267569126719
 21
-0.4976360355059483
 31
0.0
  0
LINE
  5
202
330
1F
100
AcDbEntity
  8
0
100
AcDbLine
 10
27.11267569126719
 20
-0.4976360355059483
 30
0.0
 11
26.64854183635221
 21
-0.4242849957007705
 31
0.0
  0
LINE
  5
203
330
1F
100
AcDbEntity
  8
0
100
AcDbLine
 10
26.64854183635221
 20
-0.4242849957007705
 30
0.0
 11
26.1812383129551
 21
-0.47356001309665
 31
0.0
  0
LINE
  5
204
330
1F
100
AcDbEntity
  8
0
100
AcDbLine
 10
25.36255187009779
 20
-0.9184282552241959
 30
0.0
 11
25.06696107877504
 21
-1.28370444443439
 31
0.0
  0
LINE
  5
205
330
1F
100
AcDbEntity
  8
0
100
AcDbLine
 10
-17.13663245555432
 20
37.1921872936484
 30
0.0
 11
-17.19796596332736
 21
36.72631304973378
 31
0.0
  0
LINE
  5
206
330
1F
100
AcDbEntity
  8
0
100
AcDbLine
 10
-16.09623593258506
 20
52.82631176173383
 30
0.0
 11
-13.49654335553311
 21
52.82631176173383
 31
0.0
  0
LINE
  5
207
330
1F
100
AcDbEntity
  8
0
100
AcDbLine
 10
-16.59623589258504
 20
52.69233717623624
 30
0.0
 11
-16.35505495698207
 21
52.79223759074877
 31
0.0
  0
LINE
  5
208
330
1F
100
AcDbEntity
  8
0
100
AcDbLine
 10
-2.956071954854377
 20
77.90388624666451
 30
0.0
 11
-3.114990564738863
 21
78.11099301128249
 31
0.0
  0
LINE
  5
209
330
1F
100
AcDbEntity
  8
0
100
AcDbLine
 10
27.41548182996413
 20
-42.17138502213363
 30
0.0
 11
27.35414832219109
 21
-41.70551077821901
 31
0.0
  0
LINE
  5
20A
330
1F
100
AcDbEntity
  8
0
100
AcDbLine
 10
27.17432757606847
 20
-43.07138495013366
 30
0.0
 11
27.35414832219109
 21
-42.63725926604825
 31
0.0
  0
LINE
  5
20B
330
1F
100
AcDbEntity
  8
0
100
AcDbLine
 10
-14.27932295667702
 20
-37.67138538213358
 30
0.0
 11
-14.28451483403631
 21
-31.07138591013355
 31
0.0
  0
LINE
  5
20C
330
1F
100
AcDbEntity
  8
0
100
AcDbLine
 10
-47.34973324814798
 20
46.82631224173335
 30
0.0
 11
-57.74973241614803
 21
46.82631224173345
 31
0.0
  0
LINE
  5
20D
330
1F
100
AcDbEntity
  8
0
100
AcDbLine
 10
92.59325779384163
 20
-0.424210361068388
 30
0.0
 11
92.12603660167862
 21
-0.4742600155379185
 31
0.0
  0
LINE
  5
20E
330
1F
100
AcDbEntity
  8
0
100
AcDbLine
 10
14.71949507215596
 20
-88.51099217928245
 30
0.0
 11
14.71949507215596
 21
-79.51099289928241
 31
0.0
  0
LINE
  5
20F
330
1F
100
AcDbEntity
  8
0
100
AcDbLine
 10
-42.18384849644973
 20
-45.51239298108441
 30
0.0
 11
-42.12251498867661
 21
-45.97826722499899
 31
0.0
  0
LINE
  5
210
330
1F
100
AcDbEntity
  8
0
100
AcDbLine
 10
20.50203102067478
 20
-79.51099289928241
 30
0.0
 11
14.71949507215596
 21
-79.51099289928241
 31
0.0
  0
LINE
  5
211
330
1F
100
AcDbEntity
  8
0
100
AcDbLine
 10
-10.37857913135265
 20
-82.51099265928242
 30
0.0
 11
-10.67828037489041
 21
-83.23453546609146
 31
0.0
  0
LINE
  5
212
330
1F
100
AcDbEntity
  8
0
100
AcDbLine
 10
-86.54973011214871
 20
34.92631319373319
 30
0.0
 11
-86.08385586823408
 21
34.98764670150622
 31
0.0
  0
LINE
  5
213
330
1F
100
AcDbEntity
  8
0
100
AcDbLine
 10
-2.40621495652078
 20
-52.77138417413372
 30
0.0
 11
-2.306314542008253
 21
-52.5302032385307
 31
0.0
  0
LINE
  5
214
330
1F
100
AcDbEntity
  8
0
100
AcDbLine
 10
21.71949201409566
 20
90.11099205128247
 30
0.0
 11
26.71949161409573
 21
90.11099205128247
 31
0.0
  0
LINE
  5
215
330
1F
100
AcDbEntity
  8
0
100
AcDbLine
 10
39.54973387214799
 20
15.78722863048408
 30
0.0
 11
42.54973363214841
 21
12.78722887048402
 31
0.0
  0
LINE
  5
216
330
1F
100
AcDbEntity
  8
0
100
AcDbLine
 10
-0.285691892312424
 20
-94.11099173128252
 30
0.0
 11
-0.285691892312424
 21
-79.51099289928241
 31
0.0
  0
LINE
  5
217
330
1F
100
AcDbEntity
  8
0
100
AcDbLine
 10
50.54973299214853
 20
2.02631582573301
 30
0.0
 11
51.01560723606316
 21
2.087649333506004
 31
0.0
  0
LINE
  5
218
330
1F
100
AcDbEntity
  8
0
100
AcDbLine
 10
26.09138537407949
 20
-3.949731633026243
 30
0.0
 11
26.55551922899448
 21
-4.02308267283142
 31
0.0
  0
LINE
  5
219
330
1F
100
AcDbEntity
  8
0
100
AcDbLine
 10
-2.963892928342175
 20
-11.53250213466336
 30
0.0
 11
-2.863992513829648
 21
-11.77368307026638
 31
0.0
  0
LINE
  5
21A
330
1F
100
AcDbEntity
  8
0
100
AcDbLine
 10
-2.863992513829648
 20
-11.77368307026638
 30
0.0
 11
-2.705073903945253
 21
-11.98078983488436
 31
0.0
  0
LINE
  5
21B
330
1F
100
AcDbEntity
  8
0
100
AcDbLine
 10
-2.705073903945253
 20
-11.98078983488436
 30
0.0
 11
-2.497967139327176
 21
-12.13970844476876
 31
0.0
  0
LINE
  5
21C
330
1F
100
AcDbEntity
  8
0
100
AcDbLine
 10
19.56085014107025
 20
-12.23960885928201
 30
0.0
 11
19.80203107667322
 21
-12.13970844476939
 31
0.0
  0
LINE
  5
21D
330
1F
100
AcDbEntity
  8
0
100
AcDbLine
 10
-17.09230199334598
 20
-11.27446975810793
 30
0.0
 11
-17.05805825801557
 21
-11.53313528196049
 31
0.0
  0
LINE
  5
21E
330
1F
100
AcDbEntity
  8
0
100
AcDbLine
 10
-18.12517368301295
 20
-82.73820043497001
 30
0.0
 11
-18.49796585932535
 21
-82.45214693717806
 31
0.0
  0
LINE
  5
21F
330
1F
100
AcDbEntity
  8
0
100
AcDbLine
 10
-88.5997299481486
 20
16.7256104942732
 30
0.0
 11
-87.61088811217637
 21
16.31601879477161
 31
0.0
  0
LINE
  5
220
330
1F
100
AcDbEntity
  8
0
100
AcDbLine
 10
-85.48857211212103
 20
16.31601879477161
 30
0.0
 11
-84.49973027614843
 21
16.7256104942732
 31
0.0
  0
LINE
  5
221
330
1F
100
AcDbEntity
  8
0
100
AcDbLine
 10
-83.65059254121479
 20
17.37717679479927
 30
0.0
 11
-82.99902624068855
 21
18.22631452973309
 31
0.0
  0
LINE
  5
222
330
1F
100
AcDbEntity
  8
0
100
AcDbLine
 10
-82.99902624068855
 20
18.22631452973309
 30
0.0
 11
-82.58943454118713
 21
19.21515636570547
 31
0.0
  0
LINE
  5
223
330
1F
100
AcDbEntity
  8
0
100
AcDbLine
 10
-82.58943454118713
 20
19.21515636570547
 30
0.0
 11
-82.44973044014853
 21
20.27631436573313
 31
0.0
  0
LINE
  5
224
330
1F
100
AcDbEntity
  8
0
100
AcDbLine
 10
-49.23227200672515
 20
39.02631286573354
 30
0.0
 11
-49.23227200672515
 21
32.12631341773344
 31
0.0
  0
LINE
  5
225
330
1F
100
AcDbEntity
  8
0
100
AcDbLine
 10
-87.4497300401487
 20
5.38516128383737
 30
0.0
 11
-87.8225222164611
 21
5.099107786045457
 31
0.0
  0
LINE
  5
226
330
1F
100
AcDbEntity
  8
0
100
AcDbLine
 10
-87.01560435606332
 20
5.564982029960034
 30
0.0
 11
-87.4497300401487
 21
5.38516128383737
 31
0.0
  0
LINE
  5
227
330
1F
100
AcDbEntity
  8
0
100
AcDbLine
 10
3.485523872712092
 20
78.11099301128249
 30
0.0
 11
3.326605262827606
 21
77.90388624666451
 31
0.0
  0
LINE
  5
228
330
1F
100
AcDbEntity
  8
0
100
AcDbLine
 10
-46.08825880156549
 20
43.71062476855496
 30
0.0
 11
-46.27765261439425
 21
43.28058919562991
 31
0.0
  0
LINE
  5
229
330
1F
100
AcDbEntity
  8
0
100
AcDbLine
 10
-46.27765261439425
 20
43.28058919562991
 30
0.0
 11
-46.34929159320015
 21
42.8161880037339
 31
0.0
  0
LINE
  5
22A
330
1F
100
AcDbEntity
  8
0
100
AcDbLine
 10
18.51548254196402
 20
-31.07138591013355
 30
0.0
 11
18.51548254196402
 21
-37.67138538213358
 31
0.0
  0
LINE
  5
22B
330
1F
100
AcDbEntity
  8
0
100
AcDbLine
 10
20.16805645117569
 20
52.32631180173404
 30
0.0
 11
20.00913784129121
 21
52.5334185663521
 31
0.0
  0
LINE
  5
22C
330
1F
100
AcDbEntity
  8
0
100
AcDbLine
 10
1.785108620748679
 20
94.3698107556795
 30
0.0
 11
1.885009035261206
 21
94.61099169128245
 31
0.0
  0
LINE
  5
22D
330
1F
100
AcDbEntity
  8
0
100
AcDbLine
 10
1.751034449763608
 20
94.11099173128247
 30
0.0
 11
1.785108620748679
 21
94.3698107556795
 31
0.0
  0
LINE
  5
22E
330
1F
100
AcDbEntity
  8
0
100
AcDbLine
 10
92.74972961614877
 20
-12.8736829822655
 30
0.0
 11
92.74972961614877
 21
-6.273683510265471
 31
0.0
  0
LINE
  5
22F
330
1F
100
AcDbEntity
  8
0
100
AcDbLine
 10
-85.64517853222274
 20
-45.97826722499899
 30
0.0
 11
-85.58384502444999
 21
-45.51239298108441
 31
0.0
  0
LINE
  5
230
330
1F
100
AcDbEntity
  8
0
100
AcDbLine
 10
-42.75017535109596
 20
42.73643712773315
 30
0.0
 11
-42.80117328432934
 21
43.20355576483152
 31
0.0
  0
LINE
  5
231
330
1F
100
AcDbEntity
  8
0
100
AcDbLine
 10
-42.80117328432934
 20
43.20355576483152
 30
0.0
 11
-42.97133270473014
 21
43.64155848396419
 31
0.0
  0
LINE
  5
232
330
1F
100
AcDbEntity
  8
0
100
AcDbLine
 10
-42.97133270473014
 20
43.64155848396419
 30
0.0
 11
-43.24905752899994
 21
44.02059612365594
 31
0.0
  0
LINE
  5
233
330
1F
100
AcDbEntity
  8
0
100
AcDbLine
 10
-12.79085953470894
 20
-11.98078983488495
 30
0.0
 11
-12.99796629932702
 21
-12.13970844476935
 31
0.0
  0
LINE
  5
234
330
1F
100
AcDbEntity
  8
0
100
AcDbLine
 10
-12.99796629932702
 20
-12.13970844476935
 30
0.0
 11
-13.23914723492999
 21
-12.23960885928192
 31
0.0
  0
LINE
  5
235
330
1F
100
AcDbEntity
  8
0
100
AcDbLine
 10
-17.09162139065426
 20
-16.76428027351548
 30
0.0
 11
-16.88451462603628
 21
-16.60536166363108
 31
0.0
  0
LINE
  5
236
330
1F
100
AcDbEntity
  8
0
100
AcDbLine
 10
25.14960773004946
 20
-40.43271867390657
 30
0.0
 11
24.71548204596409
 21
-40.61253942002924
 31
0.0
  0
LINE
  5
237
330
1F
100
AcDbEntity
  8
0
100
AcDbLine
 10
19.30203111667324
 20
-12.27368303026699
 30
0.0
 11
19.56085014107025
 21
-12.23960885928201
 31
0.0
  0
LINE
  5
238
330
1F
100
AcDbEntity
  8
0
100
AcDbLine
 10
20.00913784129121
 20
52.5334185663521
 30
0.0
 11
19.80203107667322
 21
52.69233717623651
 31
0.0
  0
LINE
  5
239
330
1F
100
AcDbEntity
  8
0
100
AcDbLine
 10
-15.86384035124192
 20
5.564982029960711
 30
0.0
 11
-16.29796603532728
 21
5.385161283838046
 31
0.0
  0
LINE
  5
23A
330
1F
100
AcDbEntity
  8
0
100
AcDbLine
 10
-2.997967099327246
 20
-11.27368311026635
 30
0.0
 11
-2.997967099327246
 21
-6.273683510266284
 31
0.0
  0
LINE
  5
23B
330
1F
100
AcDbEntity
  8
0
100
AcDbLine
 10
-42.12251498867661
 20
-45.04651873716984
 30
0.0
 11
-42.18384849644973
 21
-45.51239298108441
 31
0.0
  0
LINE
  5
23C
330
1F
100
AcDbEntity
  8
0
100
AcDbLine
 10
-42.80117328433088
 20
-2.650927033371216
 30
0.0
 11
-42.75017535109578
 21
-2.183808396272983
 31
0.0
  0
LINE
  5
23D
330
1F
100
AcDbEntity
  8
0
100
AcDbLine
 10
-42.97133270473331
 20
-3.088929752503255
 30
0.0
 11
-42.80117328433088
 21
-2.650927033371216
 31
0.0
  0
LINE
  5
23E
330
1F
100
AcDbEntity
  8
0
100
AcDbLine
 10
-7.38451538603621
 20
-17.47138699813349
 30
0.0
 11
-7.418589557021282
 21
-17.21256797373648
 31
0.0
  0
LINE
  5
23F
330
1F
100
AcDbEntity
  8
0
100
AcDbLine
 10
53.4488705630819
 20
23.17545193666812
 30
0.0
 11
52.59973282814808
 21
23.82701823719414
 31
0.0
  0
LINE
  5
240
330
1F
100
AcDbEntity
  8
0
100
AcDbLine
 10
92.97342266261884
 20
-3.973107652992919
 30
0.0
 11
93.41176987494117
 21
-3.803837656336672
 31
0.0
  0
LINE
  5
241
330
1F
100
AcDbEntity
  8
0
100
AcDbLine
 10
-16.29796603532728
 20
5.385161283838046
 30
0.0
 11
-16.67075821163979
 21
5.099107786046089
 31
0.0
  0
LINE
  5
242
330
1F
100
AcDbEntity
  8
0
100
AcDbLine
 10
-16.67075821163979
 20
5.099107786046089
 30
0.0
 11
-16.9568117094317
 21
4.726315609733677
 31
0.0
  0
LINE
  5
243
330
1F
100
AcDbEntity
  8
0
100
AcDbLine
 10
25.06696107877504
 20
-1.28370444443439
 30
0.0
 11
24.87598273391319
 21
-1.713038675672246
 31
0.0
  0
LINE
  5
244
330
1F
100
AcDbEntity
  8
0
100
AcDbLine
 10
24.87598273391319
 20
-1.713038675672246
 30
0.0
 11
24.80263169410802
 21
-2.177172530587227
 31
0.0
  0
LINE
  5
245
330
1F
100
AcDbEntity
  8
0
100
AcDbLine
 10
24.80263169410802
 20
-2.177172530587227
 30
0.0
 11
24.85190671150394
 21
-2.644476053984343
 31
0.0
  0
LINE
  5
246
330
1F
100
AcDbEntity
  8
0
100
AcDbLine
 10
-21.13663213555244
 20
-83.54511829536784
 30
0.0
 11
-21.19796564332548
 21
-84.01099253928246
 31
0.0
  0
LINE
  5
247
330
1F
100
AcDbEntity
  8
0
100
AcDbLine
 10
26.51548190196415
 20
-40.61253942002924
 30
0.0
 11
26.0813562178787
 21
-40.43271867390657
 31
0.0
  0
LINE
  5
248
330
1F
100
AcDbEntity
  8
0
100
AcDbLine
 10
-64.78384668844953
 20
-46.51239290108442
 30
0.0
 11
-64.78384668844953
 21
-50.01239262108441
 31
0.0
  0
LINE
  5
249
330
1F
100
AcDbEntity
  8
0
100
AcDbLine
 10
-16.9580653822027
 20
-11.77413717287833
 30
0.0
 11
-16.79913093064241
 21
-11.98106790222155
 31
0.0
  0
LINE
  5
24A
330
1F
100
AcDbEntity
  8
0
100
AcDbLine
 10
52.2883993403751
 20
36.26043880581979
 30
0.0
 11
52.34973284814813
 21
36.72631304973442
 31
0.0
  0
LINE
  5
24B
330
1F
100
AcDbEntity
  8
0
100
AcDbLine
 10
-84.81106376392168
 20
37.19218729364777
 30
0.0
 11
-84.9908845100445
 21
37.62631297773313
 31
0.0
  0
LINE
  5
24C
330
1F
100
AcDbEntity
  8
0
100
AcDbLine
 10
27.35414832219109
 20
-41.70551077821901
 30
0.0
 11
27.17432757606847
 21
-41.2713850941336
 31
0.0
  0
LINE
  5
24D
330
1F
100
AcDbEntity
  8
0
100
AcDbLine
 10
-77.32101306538672
 20
-48.11046898459168
 30
0.0
 11
-76.59747025857756
 21
-48.41017022812948
 31
0.0
  0
LINE
  5
24E
330
1F
100
AcDbEntity
  8
0
100
AcDbLine
 10
25.14960773004946
 20
-43.91005137036069
 30
0.0
 11
25.61548197396408
 21
-43.97138487813368
 31
0.0
  0
LINE
  5
24F
330
1F
100
AcDbEntity
  8
0
100
AcDbLine
 10
-12.49796633932686
 20
-11.27368311026689
 30
0.0
 11
-12.53204051031193
 21
-11.53250213466391
 31
0.0
  0
LINE
  5
250
330
1F
100
AcDbEntity
  8
0
100
AcDbLine
 10
-2.963892928342987
 20
52.0851308661308
 30
0.0
 11
-2.997967099328058
 21
51.82631184173378
 31
0.0
  0
LINE
  5
251
330
1F
100
AcDbEntity
  8
0
100
AcDbLine
 10
20.56067306169875
 20
77.6450672222675
 30
0.0
 11
20.81949208609577
 21
77.61099305128242
 31
0.0
  0
LINE
  5
252
330
1F
100
AcDbEntity
  8
0
100
AcDbLine
 10
-22.28451419403626
 20
-43.73023062423803
 30
0.0
 11
-21.85038850995081
 21
-43.91005137036069
 31
0.0
  0
LINE
  5
253
330
1F
100
AcDbEntity
  8
0
100
AcDbLine
 10
-38.58384878444963
 20
-45.51239298108441
 30
0.0
 11
-38.64518229222258
 21
-45.04651873716984
 31
0.0
  0
LINE
  5
254
330
1F
100
AcDbEntity
  8
0
100
AcDbLine
 10
54.10043686360796
 20
22.3263142017343
 30
0.0
 11
53.4488705630819
 21
23.17545193666812
 31
0.0
  0
LINE
  5
255
330
1F
100
AcDbEntity
  8
0
100
AcDbLine
 10
93.05751261371891
 20
-0.49679185002673
 30
0.0
 11
92.59325779384163
 21
-0.424210361068388
 31
0.0
  0
LINE
  5
256
330
1F
100
AcDbEntity
  8
0
100
AcDbLine
 10
14.71949257409603
 20
45.2763022145926
 30
0.0
 11
14.71949257409666
 21
-4.723673483125128
 31
0.0
  0
LINE
  5
257
330
1F
100
AcDbEntity
  8
0
100
AcDbLine
 10
3.719498450210029
 20
45.2763022145926
 30
0.0
 11
14.71949257409603
 21
45.2763022145926
 31
0.0
  0
LINE
  5
258
330
1F
100
AcDbEntity
  8
0
100
AcDbLine
 10
3.71949845021048
 20
-4.723673483124857
 30
0.0
 11
3.71949845021057
 21
1.526315865733662
 31
0.0
  0
LINE
  5
259
330
1F
100
AcDbEntity
  8
0
100
AcDbLine
 10
-11.43767053636583
 20
21.33747236576137
 30
0.0
 11
-11.84726223586742
 21
22.32631420173362
 31
0.0
  0
LINE
  5
25A
330
1F
100
AcDbEntity
  8
0
100
AcDbLine
 10
-17.29796440668182
 20
-72.91492870857856
 30
0.0
 11
-17.29277253092878
 21
-79.51492613848919
 31
0.0
  0
LINE
  5
25B
330
1F
100
AcDbEntity
  8
0
100
AcDbLine
 10
-11.84726223586742
 20
22.32631420173362
 30
0.0
 11
-12.49882853639349
 21
23.17545193666744
 31
0.0
  0
LINE
  5
25C
330
1F
100
AcDbEntity
  8
0
100
AcDbLine
 10
-12.49882853639349
 20
23.17545193666744
 30
0.0
 11
-13.34796627132731
 21
23.82701823719346
 31
0.0
  0
LINE
  5
25D
330
1F
100
AcDbEntity
  8
0
100
AcDbLine
 10
-14.33680810729964
 20
24.23660993669505
 30
0.0
 11
-15.3979661073273
 21
24.37631403773367
 31
0.0
  0
LINE
  5
25E
330
1F
100
AcDbEntity
  8
0
100
AcDbLine
 10
-17.4479659433273
 20
23.82701823719346
 30
0.0
 11
-18.29710367826112
 21
23.17545193666744
 31
0.0
  0
LINE
  5
25F
330
1F
100
AcDbEntity
  8
0
100
AcDbLine
 10
-18.29710367826112
 20
23.17545193666744
 30
0.0
 11
-18.94866997878719
 21
22.32631420173362
 31
0.0
  0
LINE
  5
260
330
1F
100
AcDbEntity
  8
0
100
AcDbLine
 10
-18.94866997878719
 20
22.32631420173362
 30
0.0
 11
-19.35826167828878
 21
21.33747236576137
 31
0.0
  0
LINE
  5
261
330
1F
100
AcDbEntity
  8
0
100
AcDbLine
 10
20.00203106067399
 20
-88.5109921792825
 30
0.0
 11
14.71949507215596
 21
-88.51099217928245
 31
0.0
  0
LINE
  5
262
330
1F
100
AcDbEntity
  8
0
100
AcDbLine
 10
28.32974971409321
 20
42.27135126845102
 30
0.0
 11
28.40157271135834
 21
42.73572403615234
 31
0.0
  0
LINE
  5
263
330
1F
100
AcDbEntity
  8
0
100
AcDbLine
 10
92.74972961614877
 20
-6.273683510265471
 30
0.0
 11
85.74973017614862
 21
-6.273683510265471
 31
0.0
  0
LINE
  5
264
330
1F
100
AcDbEntity
  8
0
100
AcDbLine
 10
50.54973299214898
 20
-6.273683510265787
 30
0.0
 11
50.54973299214898
 21
-13.07368296626582
 31
0.0
  0
LINE
  5
265
330
1F
100
AcDbEntity
  8
0
100
AcDbLine
 10
-0.5785850876945076
 20
-94.81809845590054
 30
0.0
 11
-0.4196664778100218
 21
-94.61099169128255
 31
0.0
  0
LINE
  5
266
330
1F
100
AcDbEntity
  8
0
100
AcDbLine
 10
-15.19796612332527
 20
-94.11099173128252
 30
0.0
 11
-15.1638919523402
 21
-94.36981075567954
 31
0.0
  0
LINE
  5
267
330
1F
100
AcDbEntity
  8
0
100
AcDbLine
 10
23.87430115836027
 20
-53.23730996314872
 30
0.0
 11
23.61548213396325
 21
-53.2713841341337
 31
0.0
  0
LINE
  5
268
330
1F
100
AcDbEntity
  8
0
100
AcDbLine
 10
85.74973017614862
 20
-12.8736829822655
 30
0.0
 11
92.74972961614877
 21
-12.8736829822655
 31
0.0
  0
LINE
  5
269
330
1F
100
AcDbEntity
  8
0
100
AcDbLine
 10
92.50620147045584
 20
-4.02315730746245
 30
0.0
 11
92.97342266261884
 21
-3.973107652992919
 31
0.0
  0
LINE
  5
26A
330
1F
100
AcDbEntity
  8
0
100
AcDbLine
 10
-88.65663698476234
 20
-46.7851850853968
 30
0.0
 11
-88.28384480844976
 21
-47.07123858318872
 31
0.0
  0
LINE
  5
26B
330
1F
100
AcDbEntity
  8
0
100
AcDbLine
 10
-39.91797439653497
 20
-47.25105932931138
 30
0.0
 11
-39.48384871244961
 21
-47.07123858318872
 31
0.0
  0
LINE
  5
26C
330
1F
100
AcDbEntity
  8
0
100
AcDbLine
 10
-39.48384871244961
 20
-47.07123858318872
 30
0.0
 11
-39.1110565361372
 21
-46.7851850853968
 31
0.0
  0
LINE
  5
26D
330
1F
100
AcDbEntity
  8
0
100
AcDbLine
 10
-75.04455611219548
 20
-42.61461573403934
 30
0.0
 11
-75.78384580844963
 21
-42.51239322108435
 31
0.0
  0
LINE
  5
26E
330
1F
100
AcDbEntity
  8
0
100
AcDbLine
 10
51.82252509646057
 20
37.99910515404689
 30
0.0
 11
51.44973292014816
 21
38.28515865183881
 31
0.0
  0
LINE
  5
26F
330
1F
100
AcDbEntity
  8
0
100
AcDbLine
 10
11.61548309396392
 20
-23.07138655013351
 30
0.0
 11
-7.38451538603621
 21
-23.07138655013351
 31
0.0
  0
LINE
  5
270
330
1F
100
AcDbEntity
  8
0
100
AcDbLine
 10
-14.65678521172255
 20
-58.34506876626729
 30
0.0
 11
-14.39796618732554
 21
-58.31099459528231
 31
0.0
  0
LINE
  5
271
330
1F
100
AcDbEntity
  8
0
100
AcDbLine
 10
-22.94335986814058
 20
-41.2713850941336
 30
0.0
 11
-23.1231806142632
 21
-41.70551077821901
 31
0.0
  0
LINE
  5
272
330
1F
100
AcDbEntity
  8
0
100
AcDbLine
 10
-88.28384480844976
 20
-47.07123858318872
 30
0.0
 11
-87.84971912436438
 21
-47.25105932931138
 31
0.0
  0
LINE
  5
273
330
1F
100
AcDbEntity
  8
0
100
AcDbLine
 10
-86.54973011214871
 20
5.626315537733027
 30
0.0
 11
-87.01560435606332
 21
5.564982029960034
 31
0.0
  0
LINE
  5
274
330
1F
100
AcDbEntity
  8
0
100
AcDbLine
 10
-86.08385586823408
 20
5.564982029960034
 30
0.0
 11
-86.54973011214871
 21
5.626315537733027
 31
0.0
  0
LINE
  5
275
330
1F
100
AcDbEntity
  8
0
100
AcDbLine
 10
24.85190671150394
 20
-2.644476053984343
 30
0.0
 11
25.02044977509608
 21
-3.083103282999715
 31
0.0
  0
LINE
  5
276
330
1F
100
AcDbEntity
  8
0
100
AcDbLine
 10
25.02044977509608
 20
-3.083103282999715
 30
0.0
 11
25.29677495363144
 21
-3.463162496841691
 31
0.0
  0
LINE
  5
277
330
1F
100
AcDbEntity
  8
0
100
AcDbLine
 10
25.29677495363144
 20
-3.463162496841691
 30
0.0
 11
25.66205114284168
 21
-3.758753288164447
 31
0.0
  0
LINE
  5
278
330
1F
100
AcDbEntity
  8
0
100
AcDbLine
 10
25.66205114284168
 20
-3.758753288164447
 30
0.0
 11
26.09138537407949
 21
-3.949731633026243
 31
0.0
  0
LINE
  5
279
330
1F
100
AcDbEntity
  8
0
100
AcDbLine
 10
19.85356633708079
 20
78.35217394688546
 30
0.0
 11
19.95346675159331
 21
78.11099301128249
 31
0.0
  0
LINE
  5
27A
330
1F
100
AcDbEntity
  8
0
100
AcDbLine
 10
19.81949216609572
 20
78.61099297128247
 30
0.0
 11
19.85356633708079
 21
78.35217394688546
 31
0.0
  0
LINE
  5
27B
330
1F
100
AcDbEntity
  8
0
100
AcDbLine
 10
26.71949161409573
 20
78.61099297128247
 30
0.0
 11
26.71949161409573
 21
90.11099205128247
 31
0.0
  0
LINE
  5
27C
330
1F
100
AcDbEntity
  8
0
100
AcDbLine
 10
-16.89162140665395
 20
-52.9784909387517
 30
0.0
 11
-16.68451464203596
 21
-53.1374095486361
 31
0.0
  0
LINE
  5
27D
330
1F
100
AcDbEntity
  8
0
100
AcDbLine
 10
31.60203013267476
 20
-64.91099406728235
 30
0.0
 11
31.60203013267486
 21
-88.5109921792825
 31
0.0
  0
LINE
  5
27E
330
1F
100
AcDbEntity
  8
0
100
AcDbLine
 10
13.89492476805676
 20
-58.6038877906643
 30
0.0
 11
13.73600615817228
 21
-58.81099455528229
 31
0.0
  0
LINE
  5
27F
330
1F
100
AcDbEntity
  8
0
100
AcDbLine
 10
27.60203045267483
 20
-85.81099239528251
 30
0.0
 11
28.06790469658946
 21
-85.74965888750951
 31
0.0
  0
LINE
  5
280
330
1F
100
AcDbEntity
  8
0
100
AcDbLine
 10
-5.897966867325523
 20
-58.44496918077991
 30
0.0
 11
-6.13914780292849
 21
-58.34506876626729
 31
0.0
  0
LINE
  5
281
330
1F
100
AcDbEntity
  8
0
100
AcDbLine
 10
-2.86399251383046
 20
52.32631180173376
 30
0.0
 11
-2.963892928342987
 21
52.0851308661308
 31
0.0
  0
LINE
  5
282
330
1F
100
AcDbEntity
  8
0
100
AcDbLine
 10
-17.05805825801557
 20
-11.53313528196049
 30
0.0
 11
-16.9580653822027
 21
-11.77413717287833
 31
0.0
  0
LINE
  5
283
330
1F
100
AcDbEntity
  8
0
100
AcDbLine
 10
-91.38384456044979
 20
-50.01239262108441
 30
0.0
 11
-91.38384456044979
 21
-26.41239450908426
 31
0.0
  0
LINE
  5
284
330
1F
100
AcDbEntity
  8
0
100
AcDbLine
 10
-16.29796603532738
 20
2.267470079629255
 30
0.0
 11
-15.86384035124192
 21
2.08764933350659
 31
0.0
  0
LINE
  5
285
330
1F
100
AcDbEntity
  8
0
100
AcDbLine
 10
-17.09623585258511
 20
46.82631224173381
 30
0.0
 11
-17.09623585258511
 21
51.82631184173378
 31
0.0
  0
LINE
  5
286
330
1F
100
AcDbEntity
  8
0
100
AcDbLine
 10
-12.49654343553306
 20
46.82631224173381
 30
0.0
 11
-2.997967099327968
 21
46.82631224173381
 31
0.0
  0
LINE
  5
287
330
1F
100
AcDbEntity
  8
0
100
AcDbLine
 10
-17.09623585258475
 20
-6.273683510266373
 30
0.0
 11
-17.09230199334598
 21
-11.27446975810793
 31
0.0
  0
LINE
  5
288
330
1F
100
AcDbEntity
  8
0
100
AcDbLine
 10
-12.49796633932686
 20
-6.273683510266419
 30
0.0
 11
-2.997967099327246
 21
-6.273683510266284
 31
0.0
  0
LINE
  5
289
330
1F
100
AcDbEntity
  8
0
100
AcDbLine
 10
26.58551702859813
 20
78.11099301128249
 30
0.0
 11
26.42659841871364
 21
77.90388624666451
 31
0.0
  0
LINE
  5
28A
330
1F
100
AcDbEntity
  8
0
100
AcDbLine
 10
26.68541744311066
 20
78.35217394688546
 30
0.0
 11
26.58551702859813
 21
78.11099301128249
 31
0.0
  0
LINE
  5
28B
330
1F
100
AcDbEntity
  8
0
100
AcDbLine
 10
27.13615620876021
 20
-82.27232619105538
 30
0.0
 11
26.70203052467486
 21
-82.45214693717806
 31
0.0
  0
LINE
  5
28C
330
1F
100
AcDbEntity
  8
0
100
AcDbLine
 10
20.00203106067399
 20
-94.11099173128252
 30
0.0
 11
20.00203106067399
 21
-88.5109921792825
 31
0.0
  0
LINE
  5
28D
330
1F
100
AcDbEntity
  8
0
100
AcDbLine
 10
-17.65929943909841
 20
-83.54511829536784
 30
0.0
 11
-17.83912018522103
 21
-83.11099261128243
 31
0.0
  0
LINE
  5
28E
330
1F
100
AcDbEntity
  8
0
100
AcDbLine
 10
23.56795660168974
 20
-59.0521754908853
 30
0.0
 11
23.46805618717722
 21
-58.81099455528229
 31
0.0
  0
LINE
  5
28F
330
1F
100
AcDbEntity
  8
0
100
AcDbLine
 10
-84.81106376392168
 20
3.360441437818487
 30
0.0
 11
-84.74973025614874
 21
3.826315681733064
 31
0.0
  0
LINE
  5
290
330
1F
100
AcDbEntity
  8
0
100
AcDbLine
 10
-84.9908845100445
 20
2.926315753733082
 30
0.0
 11
-84.81106376392168
 21
3.360441437818487
 31
0.0
  0
LINE
  5
291
330
1F
100
AcDbEntity
  8
0
100
AcDbLine
 10
90.8009666561429
 20
42.34990016517491
 30
0.0
 11
90.97091795989931
 21
41.91181665182357
 31
0.0
  0
LINE
  5
292
330
1F
100
AcDbEntity
  8
0
100
AcDbLine
 10
20.26795686568822
 20
52.08513086613107
 30
0.0
 11
20.16805645117569
 21
52.32631180173404
 31
0.0
  0
LINE
  5
293
330
1F
100
AcDbEntity
  8
0
100
AcDbLine
 10
27.35414832219109
 20
-42.63725926604825
 30
0.0
 11
27.41548182996413
 21
-42.17138502213363
 31
0.0
  0
LINE
  5
294
330
1F
100
AcDbEntity
  8
0
100
AcDbLine
 10
-15.10507291194351
 20
-58.6038877906643
 30
0.0
 11
-14.89796614732552
 21
-58.44496918077991
 31
0.0
  0
LINE
  5
295
330
1F
100
AcDbEntity
  8
0
100
AcDbLine
 10
-17.65929943909841
 20
-84.47686678319708
 30
0.0
 11
-17.59796593132538
 21
-84.01099253928246
 31
0.0
  0
LINE
  5
296
330
1F
100
AcDbEntity
  8
0
100
AcDbLine
 10
-86.74973009614865
 20
-6.27368351026696
 30
0.0
 11
-76.34973092814825
 21
-6.27368351026696
 31
0.0
  0
LINE
  5
297
330
1F
100
AcDbEntity
  8
0
100
AcDbLine
 10
-86.74973009614865
 20
-13.07368296626699
 30
0.0
 11
-86.74973009614865
 21
-6.27368351026696
 31
0.0
  0
LINE
  5
298
330
1F
100
AcDbEntity
  8
0
100
AcDbLine
 10
52.28839934037555
 20
3.360441437818442
 30
0.0
 11
52.34973284814858
 21
3.826315681733064
 31
0.0
  0
LINE
  5
299
330
1F
100
AcDbEntity
  8
0
100
AcDbLine
 10
-10.36071980205357
 20
-88.5234093007334
 30
0.0
 11
-5.164567795039133
 21
-88.5234093007334
 31
0.0
  0
LINE
  5
29A
330
1F
100
AcDbEntity
  8
0
100
AcDbLine
 10
-15.19796612332527
 20
-88.51099217928245
 30
0.0
 11
-15.19796612332527
 21
-94.11099173128252
 31
0.0
  0
LINE
  5
29B
330
1F
100
AcDbEntity
  8
0
100
AcDbLine
 10
-9.90182330169946
 20
-81.88967236542837
 30
0.0
 11
-10.37857913135265
 21
-82.51099265928242
 31
0.0
  0
LINE
  5
29C
330
1F
100
AcDbEntity
  8
0
100
AcDbLine
 10
29.40203030867489
 20
-84.01099253928246
 30
0.0
 11
29.34069680090185
 21
-83.54511829536784
 31
0.0
  0
LINE
  5
29D
330
1F
100
AcDbEntity
  8
0
100
AcDbLine
 10
90.96957581007743
 20
-3.085724077057905
 30
0.0
 11
91.2465306783802
 21
-3.465324671422772
 31
0.0
  0
LINE
  5
29E
330
1F
100
AcDbEntity
  8
0
100
AcDbLine
 10
-22.65730637034867
 20
-40.89859291782119
 30
0.0
 11
-22.94335986814058
 21
-41.2713850941336
 31
0.0
  0
LINE
  5
29F
330
1F
100
AcDbEntity
  8
0
100
AcDbLine
 10
-23.1231806142632
 20
-41.70551077821901
 30
0.0
 11
-23.18451412203624
 21
-42.17138502213363
 31
0.0
  0
LINE
  5
2A0
330
1F
100
AcDbEntity
  8
0
100
AcDbLine
 10
-12.95879580556084
 20
-84.02340966073335
 30
0.0
 11
-10.36071980205357
 21
-88.5234093007334
 31
0.0
  0
LINE
  5
2A1
330
1F
100
AcDbEntity
  8
0
100
AcDbLine
 10
-19.28451288539258
 20
-31.07532119142973
 30
0.0
 11
-19.27932100963953
 21
-37.67531862134037
 31
0.0
  0
LINE
  5
2A2
330
1F
100
AcDbEntity
  8
0
100
AcDbLine
 10
-17.19796596332736
 20
36.72631304973378
 30
0.0
 11
-17.13663245555432
 21
36.26043880581916
 31
0.0
  0
LINE
  5
2A3
330
1F
100
AcDbEntity
  8
0
100
AcDbLine
 10
-85.2769380078363
 20
2.553523577420671
 30
0.0
 11
-84.9908845100445
 21
2.926315753733082
 31
0.0
  0
LINE
  5
2A4
330
1F
100
AcDbEntity
  8
0
100
AcDbLine
 10
-85.64973018414872
 20
2.267470079628759
 30
0.0
 11
-85.2769380078363
 21
2.553523577420671
 31
0.0
  0
LINE
  5
2A5
330
1F
100
AcDbEntity
  8
0
100
AcDbLine
 10
3.619498458209689
 20
82.61099265128249
 30
0.0
 11
19.81949216609572
 21
82.61099265128249
 31
0.0
  0
LINE
  5
2A6
330
1F
100
AcDbEntity
  8
0
100
AcDbLine
 10
1.751034449763608
 20
90.11099205128247
 30
0.0
 11
1.751034449763608
 21
94.11099173128247
 31
0.0
  0
LINE
  5
2A7
330
1F
100
AcDbEntity
  8
0
100
AcDbLine
 10
-75.82101318538669
 20
-48.51239274108447
 30
0.0
 11
-75.04455611219548
 21
-48.41017022812948
 31
0.0
  0
LINE
  5
2A8
330
1F
100
AcDbEntity
  8
0
100
AcDbLine
 10
-85.82499927834556
 20
-44.61239305308443
 30
0.0
 11
-86.11105277613754
 21
-44.23960087677202
 31
0.0
  0
LINE
  5
2A9
330
1F
100
AcDbEntity
  8
0
100
AcDbLine
 10
-36.38384896044958
 20
-26.41239450908426
 30
0.0
 11
-36.38384896044958
 21
-50.01239262108441
 31
0.0
  0
LINE
  5
2AA
330
1F
100
AcDbEntity
  8
0
100
AcDbLine
 10
54.10043686360796
 20
18.22631452973435
 30
0.0
 11
54.51002856310956
 21
19.21515636570673
 31
0.0
  0
LINE
  5
2AB
330
1F
100
AcDbEntity
  8
0
100
AcDbLine
 10
-7.004046054654344
 20
-81.11321529223738
 30
0.0
 11
-7.780503127845381
 21
-81.0109927792824
 31
0.0
  0
LINE
  5
2AC
330
1F
100
AcDbEntity
  8
0
100
AcDbLine
 10
24.87431135125348
 20
43.28127386301712
 30
0.0
 11
24.80248835398835
 21
42.8169010953158
 31
0.0
  0
LINE
  5
2AD
330
1F
100
AcDbEntity
  8
0
100
AcDbLine
 10
46.58943742118661
 20
19.21515636570673
 30
0.0
 11
46.99902912068821
 21
18.22631452973435
 31
0.0
  0
LINE
  5
2AE
330
1F
100
AcDbEntity
  8
0
100
AcDbLine
 10
28.50203038067482
 20
-85.56983814138685
 30
0.0
 11
28.87482255698732
 21
-85.28378464359488
 31
0.0
  0
LINE
  5
2AF
330
1F
100
AcDbEntity
  8
0
100
AcDbLine
 10
20.50203102067406
 20
-94.97701706578493
 30
0.0
 11
20.74321195627703
 21
-95.07691748029755
 31
0.0
  0
LINE
  5
2B0
330
1F
100
AcDbEntity
  8
0
100
AcDbLine
 10
28.3507598830301
 20
43.20286284506899
 30
0.0
 11
28.18077403938705
 21
43.64093295735655
 31
0.0
  0
LINE
  5
2B1
330
1F
100
AcDbEntity
  8
0
100
AcDbLine
 10
28.18077403938705
 20
43.64093295735655
 30
0.0
 11
27.90319943475838
 21
44.02008061880779
 31
0.0
  0
LINE
  5
2B2
330
1F
100
AcDbEntity
  8
0
100
AcDbLine
 10
23.46805618717722
 20
-58.81099455528229
 30
0.0
 11
23.30913757729273
 21
-58.6038877906643
 31
0.0
  0
LINE
  5
2B3
330
1F
100
AcDbEntity
  8
0
100
AcDbLine
 10
-87.8225222164611
 20
2.553523577420671
 30
0.0
 11
-87.4497300401487
 21
2.267470079628759
 31
0.0
  0
LINE
  5
2B4
330
1F
100
AcDbEntity
  8
0
100
AcDbLine
 10
-88.10857571425292
 20
2.926315753733082
 30
0.0
 11
-87.8225222164611
 21
2.553523577420671
 31
0.0
  0
LINE
  5
2B5
330
1F
100
AcDbEntity
  8
0
100
AcDbLine
 10
21.71949201409566
 20
94.11099173128247
 30
0.0
 11
21.71949201409566
 21
90.11099205128247
 31
0.0
  0
LINE
  5
2B6
330
1F
100
AcDbEntity
  8
0
100
AcDbLine
 10
-57.74973241614803
 20
46.82631224173345
 30
0.0
 11
-57.74973241614803
 21
53.62631169773339
 31
0.0
  0
LINE
  5
2B7
330
1F
100
AcDbEntity
  8
0
100
AcDbLine
 10
-5.397966907325452
 20
-64.91099406728235
 30
0.0
 11
-5.397966907325452
 21
-59.31099451528232
 31
0.0
  0
LINE
  5
2B8
330
1F
100
AcDbEntity
  8
0
100
AcDbLine
 10
19.95346675159331
 20
78.11099301128249
 30
0.0
 11
20.1123853614778
 21
77.90388624666451
 31
0.0
  0
LINE
  5
2B9
330
1F
100
AcDbEntity
  8
0
100
AcDbLine
 10
20.1123853614778
 20
77.90388624666451
 30
0.0
 11
20.31949212609578
 21
77.74496763678002
 31
0.0
  0
LINE
  5
2BA
330
1F
100
AcDbEntity
  8
0
100
AcDbLine
 10
-2.997967099327246
 20
-11.27368311026635
 30
0.0
 11
-2.963892928342175
 21
-11.53250213466336
 31
0.0
  0
LINE
  5
2BB
330
1F
100
AcDbEntity
  8
0
100
AcDbLine
 10
91.24846267000991
 20
41.53264710635827
 30
0.0
 11
91.61468657314491
 21
41.23823130669513
 31
0.0
  0
LINE
  5
2BC
330
1F
100
AcDbEntity
  8
0
100
AcDbLine
 10
85.74973017614862
 20
-6.273683510265471
 30
0.0
 11
85.74973017614862
 21
-12.8736829822655
 31
0.0
  0
LINE
  5
2BD
330
1F
100
AcDbEntity
  8
0
100
AcDbLine
 10
-88.94269048255399
 20
-46.4123929090844
 30
0.0
 11
-88.65663698476234
 21
-46.7851850853968
 31
0.0
  0
LINE
  5
2BE
330
1F
100
AcDbEntity
  8
0
100
AcDbLine
 10
46.58943742118661
 20
21.33747236576205
 30
0.0
 11
46.44973332014808
 21
20.27631436573439
 31
0.0
  0
LINE
  5
2BF
330
1F
100
AcDbEntity
  8
0
100
AcDbLine
 10
-17.83912018522103
 20
-83.11099261128243
 30
0.0
 11
-18.12517368301295
 21
-82.73820043497001
 31
0.0
  0
LINE
  5
2C0
330
1F
100
AcDbEntity
  8
0
100
AcDbLine
 10
-13.497966259327
 20
-12.2736830302669
 30
0.0
 11
-16.09230238275353
 21
-12.27368303026658
 31
0.0
  0
LINE
  5
2C1
330
1F
100
AcDbEntity
  8
0
100
AcDbLine
 10
-13.23914723492999
 20
-12.23960885928192
 30
0.0
 11
-13.497966259327
 21
-12.2736830302669
 31
0.0
  0
LINE
  5
2C2
330
1F
100
AcDbEntity
  8
0
100
AcDbLine
 10
26.21949165409566
 20
77.74496763678002
 30
0.0
 11
25.97831071849269
 21
77.6450672222675
 31
0.0
  0
LINE
  5
2C3
330
1F
100
AcDbEntity
  8
0
100
AcDbLine
 10
-5.659182953991301
 20
-86.13231271313653
 30
0.0
 11
-5.182427124338115
 21
-85.51099241928247
 31
0.0
  0
LINE
  5
2C4
330
1F
100
AcDbEntity
  8
0
100
AcDbLine
 10
25.61548197396408
 20
-40.37138516613357
 30
0.0
 11
25.14960773004946
 21
-40.43271867390657
 31
0.0
  0
LINE
  5
2C5
330
1F
100
AcDbEntity
  8
0
100
AcDbLine
 10
-2.497967139327176
 20
-12.13970844476876
 30
0.0
 11
-2.256786203724209
 21
-12.23960885928138
 31
0.0
  0
LINE
  5
2C6
330
1F
100
AcDbEntity
  8
0
100
AcDbLine
 10
-2.256786203724209
 20
-12.23960885928138
 30
0.0
 11
-1.997967179327196
 21
-12.27368303026636
 31
0.0
  0
LINE
  5
2C7
330
1F
100
AcDbEntity
  8
0
100
AcDbLine
 10
-19.82566866393179
 20
-41.2713850941336
 30
0.0
 11
-20.1117221617237
 21
-40.89859291782119
 31
0.0
  0
LINE
  5
2C8
330
1F
100
AcDbEntity
  8
0
100
AcDbLine
 10
-19.27932100963953
 20
-37.67531862134037
 30
0.0
 11
-14.27932295667702
 21
-37.67138538213358
 31
0.0
  0
LINE
  5
2C9
330
1F
100
AcDbEntity
  8
0
100
AcDbLine
 10
-14.28451483403631
 20
-31.07138591013355
 30
0.0
 11
-19.28451288539258
 21
-31.07532119142973
 31
0.0
  0
LINE
  5
2CA
330
1F
100
AcDbEntity
  8
0
100
AcDbLine
 10
48.49973315614809
 20
16.72561049427447
 30
0.0
 11
49.48857499212043
 21
16.31601879477287
 31
0.0
  0
LINE
  5
2CB
330
1F
100
AcDbEntity
  8
0
100
AcDbLine
 10
-74.32101330538666
 20
-48.11046898459168
 30
0.0
 11
-73.6996930115327
 21
-47.63371315493849
 31
0.0
  0
LINE
  5
2CC
330
1F
100
AcDbEntity
  8
0
100
AcDbLine
 10
-1.285691812312474
 20
-95.11099165128253
 30
0.0
 11
-1.026872787915462
 21
-95.07691748029755
 31
0.0
  0
LINE
  5
2CD
330
1F
100
AcDbEntity
  8
0
100
AcDbLine
 10
49.48857499212043
 20
16.31601879477287
 30
0.0
 11
50.54973299214808
 21
16.17631469373435
 31
0.0
  0
LINE
  5
2CE
330
1F
100
AcDbEntity
  8
0
100
AcDbLine
 10
11.90837628934601
 20
-16.76428027351548
 30
0.0
 11
11.74945767946152
 21
-16.97138703813346
 31
0.0
  0
LINE
  5
2CF
330
1F
100
AcDbEntity
  8
0
100
AcDbLine
 10
51.61089099217575
 20
16.31601879477287
 30
0.0
 11
52.59973282814808
 21
16.72561049427447
 31
0.0
  0
LINE
  5
2D0
330
1F
100
AcDbEntity
  8
0
100
AcDbLine
 10
21.61548229396406
 20
-17.47138699813349
 30
0.0
 11
21.61548229396406
 21
-23.07138655013351
 31
0.0
  0
LINE
  5
2D1
330
1F
100
AcDbEntity
  8
0
100
AcDbLine
 10
25.66710874561083
 20
41.23815758860209
 30
0.0
 11
26.0970692353903
 21
41.0485933843142
 31
0.0
  0
LINE
  5
2D2
330
1F
100
AcDbEntity
  8
0
100
AcDbLine
 10
-1.285691812312474
 20
-95.11099165128253
 30
0.0
 11
-14.19796620332522
 21
-95.11099165128253
 31
0.0
  0
LINE
  5
2D3
330
1F
100
AcDbEntity
  8
0
100
AcDbLine
 10
26.88827407827656
 20
-40.89859291782119
 30
0.0
 11
26.51548190196415
 21
-40.61253942002924
 31
0.0
  0
LINE
  5
2D4
330
1F
100
AcDbEntity
  8
0
100
AcDbLine
 10
25.06387555554136
 20
43.71123435279658
 30
0.0
 11
24.87431135125348
 21
43.28127386301712
 31
0.0
  0
LINE
  5
2D5
330
1F
100
AcDbEntity
  8
0
100
AcDbLine
 10
24.71548204596409
 20
-40.61253942002924
 30
0.0
 11
24.34268986965159
 21
-40.89859291782119
 31
0.0
  0
LINE
  5
2D6
330
1F
100
AcDbEntity
  8
0
100
AcDbLine
 10
-19.86384003124005
 20
-85.74965888750951
 30
0.0
 11
-19.39796578732543
 21
-85.81099239528251
 31
0.0
  0
LINE
  5
2D7
330
1F
100
AcDbEntity
  8
0
100
AcDbLine
 10
-9.280503007845411
 20
-81.4129165357752
 30
0.0
 11
-9.90182330169946
 21
-81.88967236542837
 31
0.0
  0
LINE
  5
2D8
330
1F
100
AcDbEntity
  8
0
100
AcDbLine
 10
50.54973299214808
 20
24.37631403773434
 30
0.0
 11
49.48857499212043
 21
24.23660993669573
 31
0.0
  0
LINE
  5
2D9
330
1F
100
AcDbEntity
  8
0
100
AcDbLine
 10
46.99902912068821
 20
18.22631452973435
 30
0.0
 11
47.65059542121427
 21
17.37717679480053
 31
0.0
  0
LINE
  5
2DA
330
1F
100
AcDbEntity
  8
0
100
AcDbLine
 10
46.44973332014808
 20
20.27631436573439
 30
0.0
 11
46.58943742118661
 21
19.21515636570673
 31
0.0
  0
LINE
  5
2DB
330
1F
100
AcDbEntity
  8
0
100
AcDbLine
 10
20.00203106067399
 20
-94.11099173128252
 30
0.0
 11
20.03610523165906
 21
-94.36981075567954
 31
0.0
  0
LINE
  5
2DC
330
1F
100
AcDbEntity
  8
0
100
AcDbLine
 10
-94.54972947214837
 20
60.22631116973346
 30
0.0
 11
-39.5497338721479
 21
60.22631116973346
 31
0.0
  0
LINE
  5
2DD
330
1F
100
AcDbEntity
  8
0
100
AcDbLine
 10
-94.54972947214837
 20
-19.67368243826829
 30
0.0
 11
-94.54972947214837
 21
12.78722887048276
 31
0.0
  0
LINE
  5
2DE
330
1F
100
AcDbEntity
  8
0
100
AcDbLine
 10
-39.5497338721479
 20
-19.67368243826829
 30
0.0
 11
-94.54972947214837
 21
-19.67368243826829
 31
0.0
  0
LINE
  5
2DF
330
1F
100
AcDbEntity
  8
0
100
AcDbLine
 10
18.0495567529483
 20
-52.5302032385307
 30
0.0
 11
18.14945716746083
 21
-52.77138417413372
 31
0.0
  0
LINE
  5
2E0
330
1F
100
AcDbEntity
  8
0
100
AcDbLine
 10
-82.99902624068855
 20
22.32631420173304
 30
0.0
 11
-83.65059254121479
 21
23.17545193666685
 31
0.0
  0
LINE
  5
2E1
330
1F
100
AcDbEntity
  8
0
100
AcDbLine
 10
-82.58943454118713
 20
21.33747236576079
 30
0.0
 11
-82.99902624068855
 21
22.32631420173304
 31
0.0
  0
LINE
  5
2E2
330
1F
100
AcDbEntity
  8
0
100
AcDbLine
 10
-97.54972923214879
 20
15.78722863048281
 30
0.0
 11
-94.54972947214837
 21
12.78722887048276
 31
0.0
  0
LINE
  5
2E3
330
1F
100
AcDbEntity
  8
0
100
AcDbLine
 10
-21.85038850995081
 20
-43.91005137036069
 30
0.0
 11
-21.38451426603618
 21
-43.97138487813368
 31
0.0
  0
LINE
  5
2E4
330
1F
100
AcDbEntity
  8
0
100
AcDbLine
 10
-22.94335986814058
 20
-43.07138495013366
 30
0.0
 11
-22.65730637034867
 21
-43.44417712644606
 31
0.0
  0
LINE
  5
2E5
330
1F
100
AcDbEntity
  8
0
100
AcDbLine
 10
-46.12813423956587
 20
41.91106664750286
 30
0.0
 11
-45.85040941529608
 21
41.53202900781111
 31
0.0
  0
LINE
  5
2E6
330
1F
100
AcDbEntity
  8
0
100
AcDbLine
 10
-45.85040941529608
 20
41.53202900781111
 30
0.0
 11
-45.48404567496939
 21
41.237787236316
 31
0.0
  0
LINE
  5
2E7
330
1F
100
AcDbEntity
  8
0
100
AcDbLine
 10
26.04318485057044
 20
-84.91099246728248
 30
0.0
 11
26.32923834836235
 21
-85.28378464359488
 31
0.0
  0
LINE
  5
2E8
330
1F
100
AcDbEntity
  8
0
100
AcDbLine
 10
49.6497330641481
 20
38.28515865183881
 30
0.0
 11
49.2769408878356
 21
37.99910515404689
 31
0.0
  0
LINE
  5
2E9
330
1F
100
AcDbEntity
  8
0
100
AcDbLine
 10
-45.48404567496939
 20
41.237787236316
 30
0.0
 11
-45.05401010204435
 21
41.04839342348743
 31
0.0
  0
LINE
  5
2EA
330
1F
100
AcDbEntity
  8
0
100
AcDbLine
 10
-45.05401010204435
 20
41.04839342348743
 30
0.0
 11
-44.58960891014843
 21
40.97675444468143
 31
0.0
  0
LINE
  5
2EB
330
1F
100
AcDbEntity
  8
0
100
AcDbLine
 10
-44.58960891014843
 20
40.97675444468143
 30
0.0
 11
-44.12249027305006
 21
41.02775237791482
 31
0.0
  0
LINE
  5
2EC
330
1F
100
AcDbEntity
  8
0
100
AcDbLine
 10
-44.12249027305006
 20
41.02775237791482
 30
0.0
 11
-43.68448755391739
 21
41.19791179831562
 31
0.0
  0
LINE
  5
2ED
330
1F
100
AcDbEntity
  8
0
100
AcDbLine
 10
-43.68448755391739
 20
41.19791179831562
 30
0.0
 11
-43.30544991422564
 21
41.47563662258542
 31
0.0
  0
LINE
  5
2EE
330
1F
100
AcDbEntity
  8
0
100
AcDbLine
 10
49.64973306414846
 20
2.267470079628668
 30
0.0
 11
50.08385874823392
 21
2.087649333506004
 31
0.0
  0
LINE
  5
2EF
330
1F
100
AcDbEntity
  8
0
100
AcDbLine
 10
-10.67828037489041
 20
-83.23453546609146
 30
0.0
 11
-10.78050288784544
 21
-84.01099253928246
 31
0.0
  0
LINE
  5
2F0
330
1F
100
AcDbEntity
  8
0
100
AcDbLine
 10
85.74973017614862
 20
46.82631224173471
 30
0.0
 11
85.74973017614862
 21
53.62631169773474
 31
0.0
  0
LINE
  5
2F1
330
1F
100
AcDbEntity
  8
0
100
AcDbLine
 10
-41.94269424255381
 20
-44.61239305308443
 30
0.0
 11
-42.12251498867661
 21
-45.04651873716984
 31
0.0
  0
LINE
  5
2F2
330
1F
100
AcDbEntity
  8
0
100
AcDbLine
 10
27.84150919524889
 20
-3.528939413307995
 30
0.0
 11
28.13709998657164
 21
-3.163663224097801
 31
0.0
  0
LINE
  5
2F3
330
1F
100
AcDbEntity
  8
0
100
AcDbLine
 10
-2.997967099325441
 20
-79.51099289928241
 30
0.0
 11
-2.997967099325441
 21
-72.91099342728238
 31
0.0
  0
LINE
  5
2F4
330
1F
100
AcDbEntity
  8
0
100
AcDbLine
 10
20.13600564617159
 20
-94.61099169128255
 30
0.0
 11
20.29492425605607
 21
-94.81809845590054
 31
0.0
  0
LINE
  5
2F5
330
1F
100
AcDbEntity
  8
0
100
AcDbLine
 10
20.29492425605607
 20
-94.81809845590054
 30
0.0
 11
20.50203102067406
 21
-94.97701706578493
 31
0.0
  0
LINE
  5
2F6
330
1F
100
AcDbEntity
  8
0
100
AcDbLine
 10
20.74321195627703
 20
-95.07691748029755
 30
0.0
 11
21.00203098067404
 21
-95.11099165128253
 31
0.0
  0
LINE
  5
2F7
330
1F
100
AcDbEntity
  8
0
100
AcDbLine
 10
25.60203061267402
 20
-95.11099165128253
 30
0.0
 11
21.00203098067404
 21
-95.11099165128253
 31
0.0
  0
LINE
  5
2F8
330
1F
100
AcDbEntity
  8
0
100
AcDbLine
 10
25.86084963707103
 20
-95.07691748029755
 30
0.0
 11
25.60203061267402
 21
-95.11099165128253
 31
0.0
  0
LINE
  5
2F9
330
1F
100
AcDbEntity
  8
0
100
AcDbLine
 10
26.10203057267399
 20
-94.97701706578493
 30
0.0
 11
25.86084963707103
 21
-95.07691748029755
 31
0.0
  0
LINE
  5
2FA
330
1F
100
AcDbEntity
  8
0
100
AcDbLine
 10
26.30913733729198
 20
-94.81809845590054
 30
0.0
 11
26.10203057267399
 21
-94.97701706578493
 31
0.0
  0
LINE
  5
2FB
330
1F
100
AcDbEntity
  8
0
100
AcDbLine
 10
26.46805594717646
 20
-94.61099169128255
 30
0.0
 11
26.30913733729198
 21
-94.81809845590054
 31
0.0
  0
LINE
  5
2FC
330
1F
100
AcDbEntity
  8
0
100
AcDbLine
 10
26.56795636168899
 20
-94.36981075567954
 30
0.0
 11
26.46805594717646
 21
-94.61099169128255
 31
0.0
  0
LINE
  5
2FD
330
1F
100
AcDbEntity
  8
0
100
AcDbLine
 10
31.60203013267476
 20
-64.91099406728235
 30
0.0
 11
23.60203077267482
 21
-64.91099406728235
 31
0.0
  0
LINE
  5
2FE
330
1F
100
AcDbEntity
  8
0
100
AcDbLine
 10
23.60203077267482
 20
-59.31099451528232
 30
0.0
 11
23.60203077267482
 21
-64.91099406728235
 31
0.0
  0
LINE
  5
2FF
330
1F
100
AcDbEntity
  8
0
100
AcDbLine
 10
22.86084987707178
 20
-58.34506876626729
 30
0.0
 11
22.60203085267477
 21
-58.31099459528231
 31
0.0
  0
LINE
  5
300
330
1F
100
AcDbEntity
  8
0
100
AcDbLine
 10
13.73600615817228
 20
-58.81099455528229
 30
0.0
 11
13.63610574365975
 21
-59.0521754908853
 31
0.0
  0
LINE
  5
301
330
1F
100
AcDbEntity
  8
0
100
AcDbLine
 10
13.63610574365975
 20
-59.0521754908853
 30
0.0
 11
13.60203157267468
 21
-59.31099451528232
 31
0.0
  0
LINE
  5
302
330
1F
100
AcDbEntity
  8
0
100
AcDbLine
 10
-5.397966907325452
 20
-59.31099451528232
 30
0.0
 11
-5.432041078310524
 21
-59.0521754908853
 31
0.0
  0
LINE
  5
303
330
1F
100
AcDbEntity
  8
0
100
AcDbLine
 10
-5.432041078310524
 20
-59.0521754908853
 30
0.0
 11
-5.531941492823051
 21
-58.81099455528229
 31
0.0
  0
LINE
  5
304
330
1F
100
AcDbEntity
  8
0
100
AcDbLine
 10
-14.39796618732554
 20
-58.31099459528231
 30
0.0
 11
-6.397966827325503
 21
-58.31099459528231
 31
0.0
  0
LINE
  5
305
330
1F
100
AcDbEntity
  8
0
100
AcDbLine
 10
-15.26399152182799
 20
-58.81099455528229
 30
0.0
 11
-15.10507291194351
 21
-58.6038877906643
 31
0.0
  0
LINE
  5
306
330
1F
100
AcDbEntity
  8
0
100
AcDbLine
 10
-15.36389193634052
 20
-59.0521754908853
 30
0.0
 11
-15.26399152182799
 21
-58.81099455528229
 31
0.0
  0
LINE
  5
307
330
1F
100
AcDbEntity
  8
0
100
AcDbLine
 10
-15.39796610732559
 20
-59.31099451528232
 30
0.0
 11
-15.39796610732559
 21
-64.91099406728235
 31
0.0
  0
LINE
  5
308
330
1F
100
AcDbEntity
  8
0
100
AcDbLine
 10
-15.1638919523402
 20
-94.36981075567954
 30
0.0
 11
-15.06399153782767
 21
-94.61099169128255
 31
0.0
  0
LINE
  5
309
330
1F
100
AcDbEntity
  8
0
100
AcDbLine
 10
-14.6979661633252
 20
-94.97701706578493
 30
0.0
 11
-14.45678522772223
 21
-95.07691748029755
 31
0.0
  0
LINE
  5
30A
330
1F
100
AcDbEntity
  8
0
100
AcDbLine
 10
-20.29796571532541
 20
-82.45214693717806
 30
0.0
 11
-20.67075789163791
 21
-82.73820043497001
 31
0.0
  0
LINE
  5
30B
330
1F
100
AcDbEntity
  8
0
100
AcDbLine
 10
-19.86384003124005
 20
-82.27232619105538
 30
0.0
 11
-20.29796571532541
 21
-82.45214693717806
 31
0.0
  0
LINE
  5
30C
330
1F
100
AcDbEntity
  8
0
100
AcDbLine
 10
-17.83912018522103
 20
-84.91099246728248
 30
0.0
 11
-17.65929943909841
 21
-84.47686678319708
 31
0.0
  0
LINE
  5
30D
330
1F
100
AcDbEntity
  8
0
100
AcDbLine
 10
-18.12517368301295
 20
-85.28378464359488
 30
0.0
 11
-17.83912018522103
 21
-84.91099246728248
 31
0.0
  0
LINE
  5
30E
330
1F
100
AcDbEntity
  8
0
100
AcDbLine
 10
-19.39796578732543
 20
-85.81099239528251
 30
0.0
 11
-18.93209154341081
 21
-85.74965888750951
 31
0.0
  0
LINE
  5
30F
330
1F
100
AcDbEntity
  8
0
100
AcDbLine
 10
28.06790469658946
 20
-82.27232619105538
 30
0.0
 11
27.60203045267483
 21
-82.2109926832824
 31
0.0
  0
LINE
  5
310
330
1F
100
AcDbEntity
  8
0
100
AcDbLine
 10
28.50203038067491
 20
-82.45214693717806
 30
0.0
 11
28.06790469658946
 21
-82.27232619105538
 31
0.0
  0
LINE
  5
311
330
1F
100
AcDbEntity
  8
0
100
AcDbLine
 10
28.87482255698732
 20
-82.73820043497001
 30
0.0
 11
28.50203038067491
 21
-82.45214693717806
 31
0.0
  0
LINE
  5
312
330
1F
100
AcDbEntity
  8
0
100
AcDbLine
 10
29.16087605477923
 20
-84.91099246728248
 30
0.0
 11
29.34069680090185
 21
-84.47686678319708
 31
0.0
  0
LINE
  5
313
330
1F
100
AcDbEntity
  8
0
100
AcDbLine
 10
28.87482255698732
 20
-85.28378464359488
 30
0.0
 11
29.16087605477923
 21
-84.91099246728248
 31
0.0
  0
LINE
  5
314
330
1F
100
AcDbEntity
  8
0
100
AcDbLine
 10
-5.659182953991301
 20
-81.88967236542837
 30
0.0
 11
-6.280503247845351
 21
-81.4129165357752
 31
0.0
  0
LINE
  5
315
330
1F
100
AcDbEntity
  8
0
100
AcDbLine
 10
-5.182427124338115
 20
-82.51099265928242
 30
0.0
 11
-5.659182953991301
 21
-81.88967236542837
 31
0.0
  0
LINE
  5
316
330
1F
100
AcDbEntity
  8
0
100
AcDbLine
 10
-4.882725880800355
 20
-83.23453546609146
 30
0.0
 11
-5.182427124338115
 21
-82.51099265928242
 31
0.0
  0
LINE
  5
317
330
1F
100
AcDbEntity
  8
0
100
AcDbLine
 10
-4.780503367845322
 20
-84.01099253928246
 30
0.0
 11
-4.882725880800355
 21
-83.23453546609146
 31
0.0
  0
LINE
  5
318
330
1F
100
AcDbEntity
  8
0
100
AcDbLine
 10
-4.882725880800355
 20
-84.78744961247344
 30
0.0
 11
-4.780503367845322
 21
-84.01099253928246
 31
0.0
  0
LINE
  5
319
330
1F
100
AcDbEntity
  8
0
100
AcDbLine
 10
-6.280503247845351
 20
-86.60906854278973
 30
0.0
 11
-5.659182953991301
 21
-86.13231271313653
 31
0.0
  0
LINE
  5
31A
330
1F
100
AcDbEntity
  8
0
100
AcDbLine
 10
-7.004046054654344
 20
-86.90876978632753
 30
0.0
 11
-6.280503247845351
 21
-86.60906854278973
 31
0.0
  0
LINE
  5
31B
330
1F
100
AcDbEntity
  8
0
100
AcDbLine
 10
24.80248835398835
 20
42.8169010953158
 30
0.0
 11
24.85330118231658
 21
42.34976228639916
 31
0.0
  0
LINE
  5
31C
330
1F
100
AcDbEntity
  8
0
100
AcDbLine
 10
-60.33676131483184
 20
-40.71683840699437
 30
0.0
 11
-61.78384692844983
 21
-41.31624089406998
 31
0.0
  0
LINE
  5
31D
330
1F
100
AcDbEntity
  8
0
100
AcDbLine
 10
-7.418589557021282
 20
-17.21256797373648
 30
0.0
 11
-7.518489971533809
 21
-16.97138703813346
 31
0.0
  0
LINE
  5
31E
330
1F
100
AcDbEntity
  8
0
100
AcDbLine
 10
-91.38384456044979
 20
-50.01239262108441
 30
0.0
 11
-64.78384668844953
 21
-50.01239262108441
 31
0.0
  0
LINE
  5
31F
330
1F
100
AcDbEntity
  8
0
100
AcDbLine
 10
-64.57940166253945
 20
-44.95947875470243
 30
0.0
 11
-64.78384668844953
 21
-46.51239290108442
 31
0.0
  0
LINE
  5
320
330
1F
100
AcDbEntity
  8
0
100
AcDbLine
 10
-63.97999917546394
 20
-43.5123931410844
 30
0.0
 11
-64.57940166253945
 21
-44.95947875470243
 31
0.0
  0
LINE
  5
321
330
1F
100
AcDbEntity
  8
0
100
AcDbLine
 10
-63.02648751615738
 20
-42.26975255337635
 30
0.0
 11
-63.97999917546394
 21
-43.5123931410844
 31
0.0
  0
LINE
  5
322
330
1F
100
AcDbEntity
  8
0
100
AcDbLine
 10
-55.78384740844935
 20
-41.31624089406998
 30
0.0
 11
-57.2309330220677
 21
-40.71683840699437
 31
0.0
  0
LINE
  5
323
330
1F
100
AcDbEntity
  8
0
100
AcDbLine
 10
-52.78384764844928
 20
-46.51239290108442
 30
0.0
 11
-52.78384764844928
 21
-50.01239262108441
 31
0.0
  0
LINE
  5
324
330
1F
100
AcDbEntity
  8
0
100
AcDbLine
 10
-91.38384456044979
 20
-26.41239450908426
 30
0.0
 11
-36.38384896044958
 21
-26.41239450908426
 31
0.0
  0
LINE
  5
325
330
1F
100
AcDbEntity
  8
0
100
AcDbLine
 10
-40.38384864044959
 20
-47.31239283708437
 30
0.0
 11
-39.91797439653497
 21
-47.25105932931138
 31
0.0
  0
LINE
  5
326
330
1F
100
AcDbEntity
  8
0
100
AcDbLine
 10
-40.84972288436421
 20
-47.25105932931138
 30
0.0
 11
-40.38384864044959
 21
-47.31239283708437
 31
0.0
  0
LINE
  5
327
330
1F
100
AcDbEntity
  8
0
100
AcDbLine
 10
-41.65664074476216
 20
-44.23960087677202
 30
0.0
 11
-41.94269424255381
 21
-44.61239305308443
 31
0.0
  0
LINE
  5
328
330
1F
100
AcDbEntity
  8
0
100
AcDbLine
 10
-38.64518229222258
 20
-45.97826722499899
 30
0.0
 11
-38.58384878444963
 21
-45.51239298108441
 31
0.0
  0
LINE
  5
329
330
1F
100
AcDbEntity
  8
0
100
AcDbLine
 10
-86.91797063653514
 20
-47.25105932931138
 30
0.0
 11
-86.48384495244979
 21
-47.07123858318872
 31
0.0
  0
LINE
  5
32A
330
1F
100
AcDbEntity
  8
0
100
AcDbLine
 10
-87.84971912436438
 20
-47.25105932931138
 30
0.0
 11
-87.38384488044994
 21
-47.31239283708437
 31
0.0
  0
LINE
  5
32B
330
1F
100
AcDbEntity
  8
0
100
AcDbLine
 10
-89.12251122867677
 20
-45.97826722499899
 30
0.0
 11
-88.94269048255399
 21
-46.4123929090844
 31
0.0
  0
LINE
  5
32C
330
1F
100
AcDbEntity
  8
0
100
AcDbLine
 10
-89.12251122867677
 20
-45.04651873716984
 30
0.0
 11
-89.18384473644991
 21
-45.51239298108441
 31
0.0
  0
LINE
  5
32D
330
1F
100
AcDbEntity
  8
0
100
AcDbLine
 10
-88.28384480844976
 20
-43.95354737898011
 30
0.0
 11
-88.65663698476234
 21
-44.23960087677202
 31
0.0
  0
LINE
  5
32E
330
1F
100
AcDbEntity
  8
0
100
AcDbLine
 10
-87.84971912436438
 20
-43.77372663285744
 30
0.0
 11
-88.28384480844976
 21
-43.95354737898011
 31
0.0
  0
LINE
  5
32F
330
1F
100
AcDbEntity
  8
0
100
AcDbLine
 10
-87.38384488044994
 20
-43.71239312508445
 30
0.0
 11
-87.84971912436438
 21
-43.77372663285744
 31
0.0
  0
LINE
  5
330
330
1F
100
AcDbEntity
  8
0
100
AcDbLine
 10
-86.48384495244979
 20
-43.95354737898011
 30
0.0
 11
-86.91797063653514
 21
-43.77372663285744
 31
0.0
  0
LINE
  5
331
330
1F
100
AcDbEntity
  8
0
100
AcDbLine
 10
-86.11105277613754
 20
-44.23960087677202
 30
0.0
 11
-86.48384495244979
 21
-43.95354737898011
 31
0.0
  0
LINE
  5
332
330
1F
100
AcDbEntity
  8
0
100
AcDbLine
 10
-85.58384502444999
 20
-45.51239298108441
 30
0.0
 11
-85.64517853222274
 21
-45.04651873716984
 31
0.0
  0
LINE
  5
333
330
1F
100
AcDbEntity
  8
0
100
AcDbLine
 10
-76.59747025857756
 20
-42.61461573403934
 30
0.0
 11
-77.28384568844965
 21
-42.91431697757715
 31
0.0
  0
LINE
  5
334
330
1F
100
AcDbEntity
  8
0
100
AcDbLine
 10
-76.56030288164084
 20
-42.61461573403934
 30
0.0
 11
-76.59747025857756
 21
-42.61461573403934
 31
0.0
  0
LINE
  5
335
330
1F
100
AcDbEntity
  8
0
100
AcDbLine
 10
-75.82101318538669
 20
-42.5123932210844
 30
0.0
 11
-76.56030288164084
 21
-42.61461573403934
 31
0.0
  0
LINE
  5
336
330
1F
100
AcDbEntity
  8
0
100
AcDbLine
 10
-75.78384580844963
 20
-42.51239322108435
 30
0.0
 11
-75.82101318538669
 21
-42.5123932210844
 31
0.0
  0
LINE
  5
337
330
1F
100
AcDbEntity
  8
0
100
AcDbLine
 10
-75.00738873525877
 20
-42.61461573403934
 30
0.0
 11
-75.04455611219548
 21
-42.61461573403934
 31
0.0
  0
LINE
  5
338
330
1F
100
AcDbEntity
  8
0
100
AcDbLine
 10
-74.32101330538666
 20
-42.91431697757719
 30
0.0
 11
-75.00738873525877
 21
-42.61461573403934
 31
0.0
  0
LINE
  5
339
330
1F
100
AcDbEntity
  8
0
100
AcDbLine
 10
-74.2838459284496
 20
-42.91431697757715
 30
0.0
 11
-74.32101330538666
 21
-42.91431697757719
 31
0.0
  0
LINE
  5
33A
330
1F
100
AcDbEntity
  8
0
100
AcDbLine
 10
-73.6996930115327
 20
-43.39107280723033
 30
0.0
 11
-74.2838459284496
 21
-42.91431697757715
 31
0.0
  0
LINE
  5
33B
330
1F
100
AcDbEntity
  8
0
100
AcDbLine
 10
-73.22293718187925
 20
-44.01239310108438
 30
0.0
 11
-73.6996930115327
 21
-43.39107280723033
 31
0.0
  0
LINE
  5
33C
330
1F
100
AcDbEntity
  8
0
100
AcDbLine
 10
-72.92323593834149
 20
-44.73593590789342
 30
0.0
 11
-73.22293718187925
 21
-44.01239310108438
 31
0.0
  0
LINE
  5
33D
330
1F
100
AcDbEntity
  8
0
100
AcDbLine
 10
-72.82101342538664
 20
-45.51239298108441
 30
0.0
 11
-72.92323593834149
 21
-44.73593590789342
 31
0.0
  0
LINE
  5
33E
330
1F
100
AcDbEntity
  8
0
100
AcDbLine
 10
-72.92323593834149
 20
-46.2888500542754
 30
0.0
 11
-72.82101342538664
 21
-45.51239298108441
 31
0.0
  0
LINE
  5
33F
330
1F
100
AcDbEntity
  8
0
100
AcDbLine
 10
-76.59747025857756
 20
-48.41017022812948
 30
0.0
 11
-75.82101318538669
 21
-48.51239274108447
 31
0.0
  0
LINE
  5
340
330
1F
100
AcDbEntity
  8
0
100
AcDbLine
 10
-77.94233335924068
 20
-47.63371315493844
 30
0.0
 11
-77.32101306538672
 21
-48.11046898459168
 31
0.0
  0
LINE
  5
341
330
1F
100
AcDbEntity
  8
0
100
AcDbLine
 10
-78.71879043243153
 20
-44.73593590789342
 30
0.0
 11
-78.82101294538676
 21
-45.51239298108441
 31
0.0
  0
LINE
  5
342
330
1F
100
AcDbEntity
  8
0
100
AcDbLine
 10
-78.41908918889378
 20
-44.01239310108438
 30
0.0
 11
-78.71879043243153
 21
-44.73593590789342
 31
0.0
  0
LINE
  5
343
330
1F
100
AcDbEntity
  8
0
100
AcDbLine
 10
-77.94233335924068
 20
-43.39107280723033
 30
0.0
 11
-78.41908918889378
 21
-44.01239310108438
 31
0.0
  0
LINE
  5
344
330
1F
100
AcDbEntity
  8
0
100
AcDbLine
 10
-77.90516598230361
 20
-43.39107280723033
 30
0.0
 11
-77.94233335924068
 21
-43.39107280723033
 31
0.0
  0
LINE
  5
345
330
1F
100
AcDbEntity
  8
0
100
AcDbLine
 10
-43.24905752900455
 20
-3.467967392193926
 30
0.0
 11
-42.97133270473331
 21
-3.088929752503255
 31
0.0
  0
LINE
  5
346
330
1F
100
AcDbEntity
  8
0
100
AcDbLine
 10
23.81548211796402
 20
-42.17138502213363
 30
0.0
 11
23.87681562573706
 21
-42.63725926604825
 31
0.0
  0
LINE
  5
347
330
1F
100
AcDbEntity
  8
0
100
AcDbLine
 10
-7.884515346036281
 20
-16.60536166363108
 30
0.0
 11
-8.125696281639248
 21
-16.50546124911847
 31
0.0
  0
LINE
  5
348
330
1F
100
AcDbEntity
  8
0
100
AcDbLine
 10
-2.565133566405266
 20
-52.9784909387517
 30
0.0
 11
-2.40621495652078
 21
-52.77138417413372
 31
0.0
  0
LINE
  5
349
330
1F
100
AcDbEntity
  8
0
100
AcDbLine
 10
-3.013421266626219
 20
-53.23730996314872
 30
0.0
 11
-2.772240331023252
 21
-53.1374095486361
 31
0.0
  0
LINE
  5
34A
330
1F
100
AcDbEntity
  8
0
100
AcDbLine
 10
-3.272240291023232
 20
-53.2713841341337
 30
0.0
 11
-3.013421266626219
 21
-53.23730996314872
 31
0.0
  0
LINE
  5
34B
330
1F
100
AcDbEntity
  8
0
100
AcDbLine
 10
-7.518489971533809
 20
-16.97138703813346
 30
0.0
 11
-7.677408581418294
 21
-16.76428027351548
 31
0.0
  0
LINE
  5
34C
330
1F
100
AcDbEntity
  8
0
100
AcDbLine
 10
54.64973266414808
 20
20.27631436573439
 30
0.0
 11
54.51002856310956
 21
21.33747236576205
 31
0.0
  0
LINE
  5
34D
330
1F
100
AcDbEntity
  8
0
100
AcDbLine
 10
49.64973306414855
 20
5.385161283837459
 30
0.0
 11
49.27694088783605
 21
5.099107786045503
 31
0.0
  0
LINE
  5
34E
330
1F
100
AcDbEntity
  8
0
100
AcDbLine
 10
-2.772240331023252
 20
-53.1374095486361
 30
0.0
 11
-2.565133566405266
 21
-52.9784909387517
 31
0.0
  0
LINE
  5
34F
330
1F
100
AcDbEntity
  8
0
100
AcDbLine
 10
49.27694088783605
 20
5.099107786045503
 30
0.0
 11
48.99088739004414
 21
4.72631560973309
 31
0.0
  0
LINE
  5
350
330
1F
100
AcDbEntity
  8
0
100
AcDbLine
 10
-43.30544991422564
 20
41.47563662258542
 30
0.0
 11
-43.01120814273052
 21
41.8420003629121
 31
0.0
  0
LINE
  5
351
330
1F
100
AcDbEntity
  8
0
100
AcDbLine
 10
12.61548301396397
 20
-16.47138707813349
 30
0.0
 11
20.61548237396401
 21
-16.47138707813349
 31
0.0
  0
LINE
  5
352
330
1F
100
AcDbEntity
  8
0
100
AcDbLine
 10
18.5154825419633
 20
-53.1374095486361
 30
0.0
 11
18.75666347756627
 21
-53.23730996314872
 31
0.0
  0
LINE
  5
353
330
1F
100
AcDbEntity
  8
0
100
AcDbLine
 10
52.10857859425249
 20
37.62631297773439
 30
0.0
 11
51.82252509646057
 21
37.99910515404689
 31
0.0
  0
LINE
  5
354
330
1F
100
AcDbEntity
  8
0
100
AcDbLine
 10
65.8620071911613
 20
-6.273683510265787
 30
0.0
 11
50.54973299214898
 21
-6.273683510265787
 31
0.0
  0
LINE
  5
355
330
1F
100
AcDbEntity
  8
0
100
AcDbLine
 10
18.51548254196402
 20
-37.67138538213358
 30
0.0
 11
12.73294659344521
 21
-37.67138538213358
 31
0.0
  0
LINE
  5
356
330
1F
100
AcDbEntity
  8
0
100
AcDbLine
 10
26.51548190196406
 20
-43.73023062423803
 30
0.0
 11
26.88827407827656
 21
-43.44417712644606
 31
0.0
  0
LINE
  5
357
330
1F
100
AcDbEntity
  8
0
100
AcDbLine
 10
18.75666347756627
 20
-53.23730996314872
 30
0.0
 11
19.01548250196328
 21
-53.2713841341337
 31
0.0
  0
LINE
  5
358
330
1F
100
AcDbEntity
  8
0
100
AcDbLine
 10
26.0970692353903
 20
41.0485933843142
 30
0.0
 11
26.56144200309162
 21
40.97677038704908
 31
0.0
  0
LINE
  5
359
330
1F
100
AcDbEntity
  8
0
100
AcDbLine
 10
-1.997967179328008
 20
52.82631176173383
 30
0.0
 11
19.30203111667324
 21
52.8263117617341
 31
0.0
  0
LINE
  5
35A
330
1F
100
AcDbEntity
  8
0
100
AcDbLine
 10
18.30837577734532
 20
-52.9784909387517
 30
0.0
 11
18.5154825419633
 21
-53.1374095486361
 31
0.0
  0
LINE
  5
35B
330
1F
100
AcDbEntity
  8
0
100
AcDbLine
 10
-88.10857571425292
 20
37.62631297773313
 30
0.0
 11
-88.28839646037572
 21
37.19218729364777
 31
0.0
  0
LINE
  5
35C
330
1F
100
AcDbEntity
  8
0
100
AcDbLine
 10
-88.28839646037572
 20
37.19218729364777
 30
0.0
 11
-88.34972996814867
 21
36.72631304973315
 31
0.0
  0
LINE
  5
35D
330
1F
100
AcDbEntity
  8
0
100
AcDbLine
 10
-88.34972996814867
 20
36.72631304973315
 30
0.0
 11
-88.28839646037572
 21
36.26043880581853
 31
0.0
  0
LINE
  5
35E
330
1F
100
AcDbEntity
  8
0
100
AcDbLine
 10
-88.28839646037572
 20
36.26043880581853
 30
0.0
 11
-88.10857571425292
 21
35.82631312173316
 31
0.0
  0
LINE
  5
35F
330
1F
100
AcDbEntity
  8
0
100
AcDbLine
 10
-12.53204051031193
 20
-11.53250213466391
 30
0.0
 11
-12.63194092482455
 21
-11.77368307026692
 31
0.0
  0
LINE
  5
360
330
1F
100
AcDbEntity
  8
0
100
AcDbLine
 10
-13.2377243311361
 20
52.79223759074877
 30
0.0
 11
-13.49654335553311
 21
52.82631176173383
 31
0.0
  0
LINE
  5
361
330
1F
100
AcDbEntity
  8
0
100
AcDbLine
 10
26.42659841871364
 20
77.90388624666451
 30
0.0
 11
26.21949165409566
 21
77.74496763678002
 31
0.0
  0
LINE
  5
362
330
1F
100
AcDbEntity
  8
0
100
AcDbLine
 10
90.7502561589517
 20
-2.18015567257257
 30
0.0
 11
90.80030581342118
 21
-2.647376864735583
 31
0.0
  0
LINE
  5
363
330
1F
100
AcDbEntity
  8
0
100
AcDbLine
 10
50.08385874823392
 20
2.087649333506004
 30
0.0
 11
50.54973299214853
 21
2.02631582573301
 31
0.0
  0
LINE
  5
364
330
1F
100
AcDbEntity
  8
0
100
AcDbLine
 10
-17.38451458603635
 20
-17.47138699813349
 30
0.0
 11
-17.38451458603635
 21
-23.07138655013351
 31
0.0
  0
LINE
  5
365
330
1F
100
AcDbEntity
  8
0
100
AcDbLine
 10
-2.256786203725021
 20
52.79223759074877
 30
0.0
 11
-2.497967139327988
 21
52.69233717623615
 31
0.0
  0
LINE
  5
366
330
1F
100
AcDbEntity
  8
0
100
AcDbLine
 10
-83.65059254121479
 20
23.17545193666685
 30
0.0
 11
-84.49973027614843
 21
23.82701823719288
 31
0.0
  0
LINE
  5
367
330
1F
100
AcDbEntity
  8
0
100
AcDbLine
 10
-85.48857211212103
 20
24.23660993669447
 30
0.0
 11
-86.54973011214871
 21
24.37631403773308
 31
0.0
  0
LINE
  5
368
330
1F
100
AcDbEntity
  8
0
100
AcDbLine
 10
-88.5997299481486
 20
23.82701823719288
 30
0.0
 11
-89.44886768308224
 21
23.17545193666685
 31
0.0
  0
LINE
  5
369
330
1F
100
AcDbEntity
  8
0
100
AcDbLine
 10
-49.23227200672479
 20
8.426315313733447
 30
0.0
 11
-49.23227200672479
 21
1.526315865733347
 31
0.0
  0
LINE
  5
36A
330
1F
100
AcDbEntity
  8
0
100
AcDbLine
 10
-11.84726223586742
 20
18.22631452973367
 30
0.0
 11
-11.43767053636583
 21
19.21515636570606
 31
0.0
  0
LINE
  5
36B
330
1F
100
AcDbEntity
  8
0
100
AcDbLine
 10
-20.1117221617237
 20
-43.44417712644606
 30
0.0
 11
-19.82566866393179
 21
-43.07138495013366
 31
0.0
  0
LINE
  5
36C
330
1F
100
AcDbEntity
  8
0
100
AcDbLine
 10
-2.748965190236391
 20
77.74496763678002
 30
0.0
 11
-2.956071954854377
 21
77.90388624666451
 31
0.0
  0
LINE
  5
36D
330
1F
100
AcDbEntity
  8
0
100
AcDbLine
 10
-2.507784254633423
 20
77.6450672222675
 30
0.0
 11
-2.748965190236391
 21
77.74496763678002
 31
0.0
  0
LINE
  5
36E
330
1F
100
AcDbEntity
  8
0
100
AcDbLine
 10
-26.3979652273274
 20
15.7872286304834
 30
0.0
 11
-23.39796546732698
 21
12.78722887048334
 31
0.0
  0
LINE
  5
36F
330
1F
100
AcDbEntity
  8
0
100
AcDbLine
 10
23.87681562573706
 20
-42.63725926604825
 30
0.0
 11
24.05663637185968
 21
-43.07138495013366
 31
0.0
  0
LINE
  5
370
330
1F
100
AcDbEntity
  8
0
100
AcDbLine
 10
-69.60072953905666
 20
8.426315313733086
 30
0.0
 11
-49.23227200672479
 21
8.426315313733447
 31
0.0
  0
LINE
  5
371
330
1F
100
AcDbEntity
  8
0
100
AcDbLine
 10
-69.60072953905666
 20
1.526315865733076
 30
0.0
 11
-49.23227200672479
 21
1.526315865733347
 31
0.0
  0
LINE
  5
372
330
1F
100
AcDbEntity
  8
0
100
AcDbLine
 10
-26.40165764282058
 20
20.27631436573376
 30
0.0
 11
-26.3979652273274
 21
20.24826768556549
 31
0.0
  0
LINE
  5
373
330
1F
100
AcDbEntity
  8
0
100
AcDbLine
 10
52.10857859425293
 20
4.72631560973309
 30
0.0
 11
51.82252509646102
 21
5.099107786045503
 31
0.0
  0
LINE
  5
374
330
1F
100
AcDbEntity
  8
0
100
AcDbLine
 10
-46.29829365996686
 20
42.34906936663553
 30
0.0
 11
-46.12813423956587
 21
41.91106664750286
 31
0.0
  0
LINE
  5
375
330
1F
100
AcDbEntity
  8
0
100
AcDbLine
 10
-90.10043398360848
 20
22.32631420173304
 30
0.0
 11
-90.5100256831099
 21
21.33747236576079
 31
0.0
  0
LINE
  5
376
330
1F
100
AcDbEntity
  8
0
100
AcDbLine
 10
-89.44886768308224
 20
23.17545193666685
 30
0.0
 11
-90.10043398360848
 21
22.32631420173304
 31
0.0
  0
LINE
  5
377
330
1F
100
AcDbEntity
  8
0
100
AcDbLine
 10
-84.49973027614843
 20
16.7256104942732
 30
0.0
 11
-83.65059254121479
 21
17.37717679479927
 31
0.0
  0
LINE
  5
378
330
1F
100
AcDbEntity
  8
0
100
AcDbLine
 10
-82.44973044014853
 20
20.27631436573313
 30
0.0
 11
-82.58943454118713
 21
21.33747236576079
 31
0.0
  0
LINE
  5
379
330
1F
100
AcDbEntity
  8
0
100
AcDbLine
 10
-69.60072953905666
 20
1.526315865733076
 30
0.0
 11
-69.60072953905666
 21
8.426315313733086
 31
0.0
  0
LINE
  5
37A
330
1F
100
AcDbEntity
  8
0
100
AcDbLine
 10
21.42659881871357
 20
94.81809845590045
 30
0.0
 11
21.21949205409559
 21
94.97701706578493
 31
0.0
  0
LINE
  5
37B
330
1F
100
AcDbEntity
  8
0
100
AcDbLine
 10
21.58551742859806
 20
94.61099169128245
 30
0.0
 11
21.42659881871357
 21
94.81809845590045
 31
0.0
  0
LINE
  5
37C
330
1F
100
AcDbEntity
  8
0
100
AcDbLine
 10
21.21949205409559
 20
94.97701706578493
 30
0.0
 11
20.97831111849262
 21
95.07691748029745
 31
0.0
  0
LINE
  5
37D
330
1F
100
AcDbEntity
  8
0
100
AcDbLine
 10
-19.58451441003613
 20
-42.17138502213363
 30
0.0
 11
-19.64584791780917
 21
-41.70551077821901
 31
0.0
  0
LINE
  5
37E
330
1F
100
AcDbEntity
  8
0
100
AcDbLine
 10
11.61548309396392
 20
-17.47138699813349
 30
0.0
 11
11.61548309396392
 21
-23.07138655013351
 31
0.0
  0
LINE
  5
37F
330
1F
100
AcDbEntity
  8
0
100
AcDbLine
 10
-17.18451460203603
 20
-46.67138466213363
 30
0.0
 11
-25.3845139460362
 21
-46.67138466213363
 31
0.0
  0
LINE
  5
380
330
1F
100
AcDbEntity
  8
0
100
AcDbLine
 10
-15.86384035124192
 20
38.4649793979608
 30
0.0
 11
-16.29796603532728
 21
38.28515865183817
 31
0.0
  0
LINE
  5
381
330
1F
100
AcDbEntity
  8
0
100
AcDbLine
 10
-16.29796603532728
 20
38.28515865183817
 30
0.0
 11
-16.67075821163979
 21
37.99910515404626
 31
0.0
  0
LINE
  5
382
330
1F
100
AcDbEntity
  8
0
100
AcDbLine
 10
-16.67075821163979
 20
37.99910515404626
 30
0.0
 11
-16.9568117094317
 21
37.62631297773385
 31
0.0
  0
LINE
  5
383
330
1F
100
AcDbEntity
  8
0
100
AcDbLine
 10
-16.9568117094317
 20
37.62631297773385
 30
0.0
 11
-17.13663245555432
 21
37.1921872936484
 31
0.0
  0
LINE
  5
384
330
1F
100
AcDbEntity
  8
0
100
AcDbLine
 10
26.64261906225507
 20
44.57585474441906
 30
0.0
 11
26.17548025333843
 21
44.52504191609083
 31
0.0
  0
LINE
  5
385
330
1F
100
AcDbEntity
  8
0
100
AcDbLine
 10
-26.3979652273274
 20
24.76540010098372
 30
0.0
 11
-26.3979652273274
 21
20.30436104590203
 31
0.0
  0
LINE
  5
386
330
1F
100
AcDbEntity
  8
0
100
AcDbLine
 10
-13.34796627132731
 20
23.82701823719346
 30
0.0
 11
-14.33680810729964
 21
24.23660993669505
 31
0.0
  0
LINE
  5
387
330
1F
100
AcDbEntity
  8
0
100
AcDbLine
 10
48.81106664392152
 20
4.292189925647686
 30
0.0
 11
48.74973313614848
 21
3.826315681733064
 31
0.0
  0
LINE
  5
388
330
1F
100
AcDbEntity
  8
0
100
AcDbLine
 10
48.99088739004414
 20
4.72631560973309
 30
0.0
 11
48.81106664392152
 21
4.292189925647686
 31
0.0
  0
LINE
  5
389
330
1F
100
AcDbEntity
  8
0
100
AcDbLine
 10
-76.34973092814825
 20
46.82631224173335
 30
0.0
 11
-86.74973009614865
 21
46.82631224173335
 31
0.0
  0
LINE
  5
38A
330
1F
100
AcDbEntity
  8
0
100
AcDbLine
 10
-88.10857571425292
 20
35.82631312173316
 30
0.0
 11
-87.8225222164611
 21
35.45352094542076
 31
0.0
  0
LINE
  5
38B
330
1F
100
AcDbEntity
  8
0
100
AcDbLine
 10
-87.8225222164611
 20
35.45352094542076
 30
0.0
 11
-87.4497300401487
 21
35.16746744762884
 31
0.0
  0
LINE
  5
38C
330
1F
100
AcDbEntity
  8
0
100
AcDbLine
 10
-90.5100256831099
 20
21.33747236576079
 30
0.0
 11
-90.64972978414852
 21
20.27631436573313
 31
0.0
  0
LINE
  5
38D
330
1F
100
AcDbEntity
  8
0
100
AcDbLine
 10
-12.63194092482455
 20
-11.77368307026692
 30
0.0
 11
-12.79085953470894
 21
-11.98078983488495
 31
0.0
  0
LINE
  5
38E
330
1F
100
AcDbEntity
  8
0
100
AcDbLine
 10
-16.44333370643299
 20
-53.23730996314872
 30
0.0
 11
-16.18451468203598
 21
-53.2713841341337
 31
0.0
  0
LINE
  5
38F
330
1F
100
AcDbEntity
  8
0
100
AcDbLine
 10
-90.10043398360848
 20
18.22631452973309
 30
0.0
 11
-89.44886768308224
 21
17.37717679479927
 31
0.0
  0
LINE
  5
390
330
1F
100
AcDbEntity
  8
0
100
AcDbLine
 10
-87.61088811217637
 20
16.31601879477161
 30
0.0
 11
-86.54973011214871
 21
16.17631469373309
 31
0.0
  0
LINE
  5
391
330
1F
100
AcDbEntity
  8
0
100
AcDbLine
 10
-89.44886768308224
 20
17.37717679479927
 30
0.0
 11
-88.5997299481486
 21
16.7256104942732
 31
0.0
  0
LINE
  5
392
330
1F
100
AcDbEntity
  8
0
100
AcDbLine
 10
-86.54973011214871
 20
16.17631469373309
 30
0.0
 11
-85.48857211212103
 21
16.31601879477161
 31
0.0
  0
LINE
  5
393
330
1F
100
AcDbEntity
  8
0
100
AcDbLine
 10
-1.997967179328008
 20
52.82631176173383
 30
0.0
 11
-2.256786203725021
 21
52.79223759074877
 31
0.0
  0
LINE
  5
394
330
1F
100
AcDbEntity
  8
0
100
AcDbLine
 10
80.66719167357205
 20
-4.723673483124451
 30
0.0
 11
69.66719754968587
 21
-4.72367348312418
 31
0.0
  0
LINE
  5
395
330
1F
100
AcDbEntity
  8
0
100
AcDbLine
 10
69.66719754968587
 20
-4.72367348312418
 30
0.0
 11
69.66719754968541
 21
45.27630221459324
 31
0.0
  0
LINE
  5
396
330
1F
100
AcDbEntity
  8
0
100
AcDbLine
 10
26.71949161409573
 20
78.61099297128247
 30
0.0
 11
26.68541744311066
 21
78.35217394688546
 31
0.0
  0
LINE
  5
397
330
1F
100
AcDbEntity
  8
0
100
AcDbLine
 10
-86.08385586823408
 20
2.087649333506094
 30
0.0
 11
-85.64973018414872
 21
2.267470079628759
 31
0.0
  0
LINE
  5
398
330
1F
100
AcDbEntity
  8
0
100
AcDbLine
 10
-86.54973011214871
 20
2.026315825733101
 30
0.0
 11
-86.08385586823408
 21
2.087649333506094
 31
0.0
  0
LINE
  5
399
330
1F
100
AcDbEntity
  8
0
100
AcDbLine
 10
91.61468657314491
 20
41.23823130669513
 30
0.0
 11
92.04463211551924
 21
41.048633203036
 31
0.0
  0
LINE
  5
39A
330
1F
100
AcDbEntity
  8
0
100
AcDbLine
 10
-19.35826167828878
 20
21.33747236576137
 30
0.0
 11
-19.4979657793273
 21
20.27631436573372
 31
0.0
  0
LINE
  5
39B
330
1F
100
AcDbEntity
  8
0
100
AcDbLine
 10
-19.35826167828878
 20
19.21515636570606
 30
0.0
 11
-18.94866997878719
 21
18.22631452973367
 31
0.0
  0
LINE
  5
39C
330
1F
100
AcDbEntity
  8
0
100
AcDbLine
 10
-18.94866997878719
 20
18.22631452973367
 30
0.0
 11
-18.29710367826112
 21
17.37717679479985
 31
0.0
  0
LINE
  5
39D
330
1F
100
AcDbEntity
  8
0
100
AcDbLine
 10
-18.29710367826112
 20
17.37717679479985
 30
0.0
 11
-17.4479659433273
 21
16.72561049427379
 31
0.0
  0
LINE
  5
39E
330
1F
100
AcDbEntity
  8
0
100
AcDbLine
 10
-17.4479659433273
 20
16.72561049427379
 30
0.0
 11
-16.45912410735496
 21
16.3160187947722
 31
0.0
  0
LINE
  5
39F
330
1F
100
AcDbEntity
  8
0
100
AcDbLine
 10
92.50899921893887
 20
40.97677359281974
 30
0.0
 11
92.97614203270851
 21
41.02754958972887
 31
0.0
  0
LINE
  5
3A0
330
1F
100
AcDbEntity
  8
0
100
AcDbLine
 10
-25.3845139460362
 20
-46.67138466213363
 30
0.0
 11
-25.38451394603639
 21
-23.07138655013351
 31
0.0
  0
LINE
  5
3A1
330
1F
100
AcDbEntity
  8
0
100
AcDbLine
 10
-46.0882588015691
 20
-3.157996037082382
 30
0.0
 11
-45.79401703007525
 21
-3.524359777410192
 31
0.0
  0
LINE
  5
3A2
330
1F
100
AcDbEntity
  8
0
100
AcDbLine
 10
-46.27765261439605
 20
-2.727960464156614
 30
0.0
 11
-46.0882588015691
 21
-3.157996037082382
 31
0.0
  0
LINE
  5
3A3
330
1F
100
AcDbEntity
  8
0
100
AcDbLine
 10
-69.60072953905738
 20
32.12631341773308
 30
0.0
 11
-49.23227200672515
 21
32.12631341773344
 31
0.0
  0
LINE
  5
3A4
330
1F
100
AcDbEntity
  8
0
100
AcDbLine
 10
-84.74973025614874
 20
36.72631304973315
 30
0.0
 11
-84.81106376392168
 21
37.19218729364777
 31
0.0
  0
LINE
  5
3A5
330
1F
100
AcDbEntity
  8
0
100
AcDbLine
 10
-84.81106376392168
 20
36.26043880581853
 30
0.0
 11
-84.74973025614874
 21
36.72631304973315
 31
0.0
  0
LINE
  5
3A6
330
1F
100
AcDbEntity
  8
0
100
AcDbLine
 10
-57.74973241614803
 20
-6.27368351026696
 30
0.0
 11
-47.34973324814798
 21
-6.27368351026696
 31
0.0
  0
LINE
  5
3A7
330
1F
100
AcDbEntity
  8
0
100
AcDbLine
 10
-47.34973324814798
 20
-6.27368351026696
 30
0.0
 11
-47.34973324814798
 21
-13.07368296626699
 31
0.0
  0
LINE
  5
3A8
330
1F
100
AcDbEntity
  8
0
100
AcDbLine
 10
-23.39796546732698
 20
27.76539986098373
 30
0.0
 11
-23.39796546732698
 21
46.82631224173372
 31
0.0
  0
LINE
  5
3A9
330
1F
100
AcDbEntity
  8
0
100
AcDbLine
 10
28.40157271135834
 20
42.73572403615234
 30
0.0
 11
28.3507598830301
 21
43.20286284506899
 31
0.0
  0
LINE
  5
3AA
330
1F
100
AcDbEntity
  8
0
100
AcDbLine
 10
50.08385874823392
 20
5.564982029960124
 30
0.0
 11
49.64973306414855
 21
5.385161283837459
 31
0.0
  0
LINE
  5
3AB
330
1F
100
AcDbEntity
  8
0
100
AcDbLine
 10
65.8620071911613
 20
-13.07368296626582
 30
0.0
 11
65.8620071911613
 21
-6.273683510265787
 31
0.0
  0
LINE
  5
3AC
330
1F
100
AcDbEntity
  8
0
100
AcDbLine
 10
-88.10857571425292
 20
4.726315609733046
 30
0.0
 11
-88.28839646037572
 21
4.292189925647641
 31
0.0
  0
LINE
  5
3AD
330
1F
100
AcDbEntity
  8
0
100
AcDbLine
 10
-43.61542126933232
 20
-3.762209163687688
 30
0.0
 11
-43.24905752900455
 21
-3.467967392193926
 31
0.0
  0
LINE
  5
3AE
330
1F
100
AcDbEntity
  8
0
100
AcDbLine
 10
-44.04545684225808
 20
-3.951602976514725
 30
0.0
 11
-43.61542126933232
 21
-3.762209163687688
 31
0.0
  0
LINE
  5
3AF
330
1F
100
AcDbEntity
  8
0
100
AcDbLine
 10
47.65059542121427
 20
17.37717679480053
 30
0.0
 11
48.49973315614809
 21
16.72561049427447
 31
0.0
  0
LINE
  5
3B0
330
1F
100
AcDbEntity
  8
0
100
AcDbLine
 10
-4.984515578036199
 20
-31.07138591013355
 30
0.0
 11
18.51548254196402
 21
-31.07138591013355
 31
0.0
  0
LINE
  5
3B1
330
1F
100
AcDbEntity
  8
0
100
AcDbLine
 10
48.81106664392152
 20
3.360441437818442
 30
0.0
 11
48.99088739004414
 21
2.926315753733037
 31
0.0
  0
LINE
  5
3B2
330
1F
100
AcDbEntity
  8
0
100
AcDbLine
 10
-15.3979661073273
 20
2.026315825733597
 30
0.0
 11
-14.93209186341268
 21
2.08764933350659
 31
0.0
  0
LINE
  5
3B3
330
1F
100
AcDbEntity
  8
0
100
AcDbLine
 10
-14.93209186341268
 20
2.08764933350659
 30
0.0
 11
-14.49796617932732
 21
2.267470079629255
 31
0.0
  0
LINE
  5
3B4
330
1F
100
AcDbEntity
  8
0
100
AcDbLine
 10
-14.49796617932732
 20
2.267470079629255
 30
0.0
 11
-14.12517400301482
 21
2.553523577421212
 31
0.0
  0
LINE
  5
3B5
330
1F
100
AcDbEntity
  8
0
100
AcDbLine
 10
-14.12517400301482
 20
2.553523577421212
 30
0.0
 11
-13.83912050522291
 21
2.926315753733624
 31
0.0
  0
LINE
  5
3B6
330
1F
100
AcDbEntity
  8
0
100
AcDbLine
 10
-22.28451419403617
 20
-40.61253942002924
 30
0.0
 11
-22.65730637034867
 21
-40.89859291782119
 31
0.0
  0
LINE
  5
3B7
330
1F
100
AcDbEntity
  8
0
100
AcDbLine
 10
93.48477269115256
 20
44.31439382477428
 30
0.0
 11
93.05482714877822
 21
44.5039919284334
 31
0.0
  0
LINE
  5
3B8
330
1F
100
AcDbEntity
  8
0
100
AcDbLine
 10
90.82283764790999
 20
-1.715900852695226
 30
0.0
 11
90.7502561589517
 21
-2.18015567257257
 31
0.0
  0
LINE
  5
3B9
330
1F
100
AcDbEntity
  8
0
100
AcDbLine
 10
48.74973313614848
 20
3.826315681733064
 30
0.0
 11
48.81106664392152
 21
3.360441437818442
 31
0.0
  0
LINE
  5
3BA
330
1F
100
AcDbEntity
  8
0
100
AcDbLine
 10
93.05482714877822
 20
44.5039919284334
 30
0.0
 11
92.59046004535858
 21
44.57585153864966
 31
0.0
  0
LINE
  5
3BB
330
1F
100
AcDbEntity
  8
0
100
AcDbLine
 10
92.59046004535858
 20
44.57585153864966
 30
0.0
 11
92.12331723158894
 21
44.52507554174053
 31
0.0
  0
LINE
  5
3BC
330
1F
100
AcDbEntity
  8
0
100
AcDbLine
 10
-21.38451426603618
 20
-43.97138487813368
 30
0.0
 11
-20.91864002212156
 21
-43.91005137036069
 31
0.0
  0
LINE
  5
3BD
330
1F
100
AcDbEntity
  8
0
100
AcDbLine
 10
52.34973284814858
 20
3.826315681733064
 30
0.0
 11
52.28839934037555
 21
4.292189925647686
 31
0.0
  0
LINE
  5
3BE
330
1F
100
AcDbEntity
  8
0
100
AcDbLine
 10
94.12988345422004
 20
-1.361643591472933
 30
0.0
 11
93.85292858591725
 21
-0.9820429971080659
 31
0.0
  0
LINE
  5
3BF
330
1F
100
AcDbEntity
  8
0
100
AcDbLine
 10
94.29915345087628
 20
-1.799990803795254
 30
0.0
 11
94.12988345422004
 21
-1.361643591472933
 31
0.0
  0
LINE
  5
3C0
330
1F
100
AcDbEntity
  8
0
100
AcDbLine
 10
94.08635529252713
 20
-3.161117064669963
 30
0.0
 11
94.27662161638746
 21
-2.731466815835611
 31
0.0
  0
LINE
  5
3C1
330
1F
100
AcDbEntity
  8
0
100
AcDbLine
 10
69.66719754968541
 20
45.27630221459324
 30
0.0
 11
80.66719167357141
 21
45.27630221459324
 31
0.0
  0
LINE
  5
3C2
330
1F
100
AcDbEntity
  8
0
100
AcDbLine
 10
52.28839934037555
 20
4.292189925647686
 30
0.0
 11
52.10857859425293
 21
4.72631560973309
 31
0.0
  0
LINE
  5
3C3
330
1F
100
AcDbEntity
  8
0
100
AcDbLine
 10
-20.48451433803611
 20
-40.61253942002924
 30
0.0
 11
-20.91864002212156
 21
-40.43271867390657
 31
0.0
  0
LINE
  5
3C4
330
1F
100
AcDbEntity
  8
0
100
AcDbLine
 10
24.05663637185968
 20
-43.07138495013366
 30
0.0
 11
24.34268986965159
 21
-43.44417712644606
 31
0.0
  0
LINE
  5
3C5
330
1F
100
AcDbEntity
  8
0
100
AcDbLine
 10
-7.38451538603621
 20
-23.07138655013351
 30
0.0
 11
-7.38451538603621
 21
-17.47138699813349
 31
0.0
  0
LINE
  5
3C6
330
1F
100
AcDbEntity
  8
0
100
AcDbLine
 10
-4.984515578036199
 20
-37.67138538213358
 30
0.0
 11
-4.984515578036199
 21
-31.07138591013355
 31
0.0
  0
LINE
  5
3C7
330
1F
100
AcDbEntity
  8
0
100
AcDbLine
 10
-17.18451460203603
 20
-52.2713842141337
 30
0.0
 11
-17.15044043105096
 21
-52.5302032385307
 31
0.0
  0
LINE
  5
3C8
330
1F
100
AcDbEntity
  8
0
100
AcDbLine
 10
24.61548205396331
 20
-46.67138466213367
 30
0.0
 11
29.6154816539641
 21
-46.67138466213367
 31
0.0
  0
LINE
  5
3C9
330
1F
100
AcDbEntity
  8
0
100
AcDbLine
 10
23.87681562573706
 20
-41.70551077821901
 30
0.0
 11
23.81548211796402
 21
-42.17138502213363
 31
0.0
  0
LINE
  5
3CA
330
1F
100
AcDbEntity
  8
0
100
AcDbLine
 10
-17.15044043105096
 20
-52.5302032385307
 30
0.0
 11
-17.05054001653843
 21
-52.77138417413372
 31
0.0
  0
LINE
  5
3CB
330
1F
100
AcDbEntity
  8
0
100
AcDbLine
 10
2.751034369763658
 20
95.11099165128253
 30
0.0
 11
20.71949209409561
 21
95.11099165128253
 31
0.0
  0
LINE
  5
3CC
330
1F
100
AcDbEntity
  8
0
100
AcDbLine
 10
-3.272240291023232
 20
-53.2713841341337
 30
0.0
 11
-16.18451468203598
 21
-53.2713841341337
 31
0.0
  0
LINE
  5
3CD
330
1F
100
AcDbEntity
  8
0
100
AcDbLine
 10
-16.68451464203596
 20
-53.1374095486361
 30
0.0
 11
-16.44333370643299
 21
-53.23730996314872
 31
0.0
  0
LINE
  5
3CE
330
1F
100
AcDbEntity
  8
0
100
AcDbLine
 10
18.14945716746083
 20
-52.77138417413372
 30
0.0
 11
18.30837577734532
 21
-52.9784909387517
 31
0.0
  0
LINE
  5
3CF
330
1F
100
AcDbEntity
  8
0
100
AcDbLine
 10
-11.43767053636583
 20
19.21515636570606
 30
0.0
 11
-11.29796643532731
 21
20.27631436573372
 31
0.0
  0
LINE
  5
3D0
330
1F
100
AcDbEntity
  8
0
100
AcDbLine
 10
-19.4979657793273
 20
20.27631436573372
 30
0.0
 11
-19.35826167828878
 21
19.21515636570606
 31
0.0
  0
LINE
  5
3D1
330
1F
100
AcDbEntity
  8
0
100
AcDbLine
 10
21.58140812297899
 20
-17.21256797373648
 30
0.0
 11
21.48150770846646
 21
-16.97138703813346
 31
0.0
  0
LINE
  5
3D2
330
1F
100
AcDbEntity
  8
0
100
AcDbLine
 10
93.79339509152517
 20
41.47504560359589
 30
0.0
 11
94.0878108911883
 21
41.84126950673087
 31
0.0
  0
LINE
  5
3D3
330
1F
100
AcDbEntity
  8
0
100
AcDbLine
 10
94.0878108911883
 20
41.84126950673087
 30
0.0
 11
94.27740899484742
 21
42.27121504910521
 31
0.0
  0
LINE
  5
3D4
330
1F
100
AcDbEntity
  8
0
100
AcDbLine
 10
94.27740899484742
 20
42.27121504910521
 30
0.0
 11
94.34926860506368
 21
42.73558215252484
 31
0.0
  0
LINE
  5
3D5
330
1F
100
AcDbEntity
  8
0
100
AcDbLine
 10
92.04463211551924
 20
41.048633203036
 30
0.0
 11
92.50899921893887
 21
40.97677359281974
 31
0.0
  0
LINE
  5
3D6
330
1F
100
AcDbEntity
  8
0
100
AcDbLine
 10
19.41949219809662
 20
1.526315865733933
 30
0.0
 11
27.11949158209672
 21
1.526315865733933
 31
0.0
  0
LINE
  5
3D7
330
1F
100
AcDbEntity
  8
0
100
AcDbLine
 10
27.11949158209672
 20
8.426315313734033
 30
0.0
 11
19.41949219809662
 21
8.426315313734033
 31
0.0
  0
LINE
  5
3D8
330
1F
100
AcDbEntity
  8
0
100
AcDbLine
 10
-23.1231806142632
 20
-42.63725926604825
 30
0.0
 11
-22.94335986814058
 21
-43.07138495013366
 31
0.0
  0
LINE
  5
3D9
330
1F
100
AcDbEntity
  8
0
100
AcDbLine
 10
-17.18451460203603
 20
-46.67138466213363
 30
0.0
 11
-17.18451460203603
 21
-52.2713842141337
 31
0.0
  0
LINE
  5
3DA
330
1F
100
AcDbEntity
  8
0
100
AcDbLine
 10
26.88827407827656
 20
-43.44417712644606
 30
0.0
 11
27.17432757606847
 21
-43.07138495013366
 31
0.0
  0
LINE
  5
3DB
330
1F
100
AcDbEntity
  8
0
100
AcDbLine
 10
27.10699182995639
 20
44.50403174715393
 30
0.0
 11
26.64261906225507
 21
44.57585474441906
 31
0.0
  0
LINE
  5
3DC
330
1F
100
AcDbEntity
  8
0
100
AcDbLine
 10
51.82252509646102
 20
5.099107786045503
 30
0.0
 11
51.44973292014861
 21
5.385161283837459
 31
0.0
  0
LINE
  5
3DD
330
1F
100
AcDbEntity
  8
0
100
AcDbLine
 10
51.44973292014861
 20
5.385161283837459
 30
0.0
 11
51.01560723606316
 21
5.564982029960124
 31
0.0
  0
LINE
  5
3DE
330
1F
100
AcDbEntity
  8
0
100
AcDbLine
 10
51.01560723606316
 20
5.564982029960124
 30
0.0
 11
50.54973299214853
 21
5.626315537733118
 31
0.0
  0
LINE
  5
3DF
330
1F
100
AcDbEntity
  8
0
100
AcDbLine
 10
23.61548213396325
 20
-53.2713841341337
 30
0.0
 11
19.01548250196328
 21
-53.2713841341337
 31
0.0
  0
LINE
  5
3E0
330
1F
100
AcDbEntity
  8
0
100
AcDbLine
 10
-88.28839646037572
 20
3.360441437818487
 30
0.0
 11
-88.10857571425292
 21
2.926315753733082
 31
0.0
  0
LINE
  5
3E1
330
1F
100
AcDbEntity
  8
0
100
AcDbLine
 10
-88.34972996814867
 20
3.826315681733064
 30
0.0
 11
-88.28839646037572
 21
3.360441437818487
 31
0.0
  0
LINE
  5
3E2
330
1F
100
AcDbEntity
  8
0
100
AcDbLine
 10
27.11949158209627
 20
32.12631341773398
 30
0.0
 11
27.11949158209627
 21
39.026312865734
 31
0.0
  0
LINE
  5
3E3
330
1F
100
AcDbEntity
  8
0
100
AcDbLine
 10
3.71949845021057
 20
8.426315313733673
 30
0.0
 11
-3.64896511823565
 21
8.426315313733673
 31
0.0
  0
LINE
  5
3E4
330
1F
100
AcDbEntity
  8
0
100
AcDbLine
 10
19.41949219809662
 20
8.426315313734033
 30
0.0
 11
19.41949219809662
 21
1.526315865733933
 31
0.0
  0
LINE
  5
3E5
330
1F
100
AcDbEntity
  8
0
100
AcDbLine
 10
-16.45912410735496
 20
24.23660993669505
 30
0.0
 11
-17.4479659433273
 21
23.82701823719346
 31
0.0
  0
LINE
  5
3E6
330
1F
100
AcDbEntity
  8
0
100
AcDbLine
 10
27.11949158209627
 20
39.026312865734
 30
0.0
 11
19.41949219809617
 21
39.026312865734
 31
0.0
  0
LINE
  5
3E7
330
1F
100
AcDbEntity
  8
0
100
AcDbLine
 10
19.41949219809617
 20
32.12631341773398
 30
0.0
 11
27.11949158209627
 21
32.12631341773398
 31
0.0
  0
LINE
  5
3E8
330
1F
100
AcDbEntity
  8
0
100
AcDbLine
 10
-3.214890979251389
 20
78.35217394688546
 30
0.0
 11
-3.248965150236461
 21
78.61099297128247
 31
0.0
  0
LINE
  5
3E9
330
1F
100
AcDbEntity
  8
0
100
AcDbLine
 10
-3.114990564738863
 20
78.11099301128249
 30
0.0
 11
-3.214890979251389
 21
78.35217394688546
 31
0.0
  0
LINE
  5
3EA
330
1F
100
AcDbEntity
  8
0
100
AcDbLine
 10
-21.85038850995081
 20
-40.43271867390657
 30
0.0
 11
-22.28451419403617
 21
-40.61253942002924
 31
0.0
  0
LINE
  5
3EB
330
1F
100
AcDbEntity
  8
0
100
AcDbLine
 10
-17.09623585258511
 20
51.82631184173378
 30
0.0
 11
-17.06216168160004
 21
52.0851308661308
 31
0.0
  0
LINE
  5
3EC
330
1F
100
AcDbEntity
  8
0
100
AcDbLine
 10
-12.49654343553306
 20
51.82631184173378
 30
0.0
 11
-12.49654343553306
 21
46.82631224173381
 31
0.0
  0
LINE
  5
3ED
330
1F
100
AcDbEntity
  8
0
100
AcDbLine
 10
20.1680564511756
 20
-11.77368307026701
 30
0.0
 11
20.26795686568822
 21
-11.53250213466399
 31
0.0
  0
LINE
  5
3EE
330
1F
100
AcDbEntity
  8
0
100
AcDbLine
 10
-16.9568117094317
 20
4.726315609733677
 30
0.0
 11
-17.13663245555432
 21
4.292189925648272
 31
0.0
  0
LINE
  5
3EF
330
1F
100
AcDbEntity
  8
0
100
AcDbLine
 10
-17.13663245555432
 20
4.292189925648272
 30
0.0
 11
-17.19796596332736
 21
3.826315681733651
 31
0.0
  0
LINE
  5
3F0
330
1F
100
AcDbEntity
  8
0
100
AcDbLine
 10
-44.50985803415436
 20
-4.023241955318955
 30
0.0
 11
-44.04545684225808
 21
-3.951602976514725
 31
0.0
  0
LINE
  5
3F1
330
1F
100
AcDbEntity
  8
0
100
AcDbLine
 10
-44.97697667125254
 20
-3.972244022083857
 30
0.0
 11
-44.50985803415436
 21
-4.023241955318955
 31
0.0
  0
LINE
  5
3F2
330
1F
100
AcDbEntity
  8
0
100
AcDbLine
 10
-26.3979652273274
 20
24.76540010098372
 30
0.0
 11
-23.39796546732698
 21
27.76539986098373
 31
0.0
  0
LINE
  5
3F3
330
1F
100
AcDbEntity
  8
0
100
AcDbLine
 10
50.54973299214808
 20
38.52631290573446
 30
0.0
 11
50.08385874823346
 21
38.46497939796143
 31
0.0
  0
LINE
  5
3F4
330
1F
100
AcDbEntity
  8
0
100
AcDbLine
 10
51.01560723606271
 20
38.46497939796143
 30
0.0
 11
50.54973299214808
 21
38.52631290573446
 31
0.0
  0
LINE
  5
3F5
330
1F
100
AcDbEntity
  8
0
100
AcDbLine
 10
94.34926860506368
 20
42.73558215252484
 30
0.0
 11
94.29849260815456
 21
43.2027249662945
 31
0.0
  0
LINE
  5
3F6
330
1F
100
AcDbEntity
  8
0
100
AcDbLine
 10
94.29849260815456
 20
43.2027249662945
 30
0.0
 11
94.12854130439815
 21
43.64080847964583
 31
0.0
  0
LINE
  5
3F7
330
1F
100
AcDbEntity
  8
0
100
AcDbLine
 10
94.12854130439815
 20
43.64080847964583
 30
0.0
 11
93.85099659428754
 21
44.01997802511114
 31
0.0
  0
LINE
  5
3F8
330
1F
100
AcDbEntity
  8
0
100
AcDbLine
 10
93.85099659428754
 20
44.01997802511114
 30
0.0
 11
93.48477269115256
 21
44.31439382477428
 31
0.0
  0
LINE
  5
3F9
330
1F
100
AcDbEntity
  8
0
100
AcDbLine
 10
-12.3651276100634
 20
-46.67138466213367
 30
0.0
 11
-7.168975603048962
 21
-46.67138466213367
 31
0.0
  0
LINE
  5
3FA
330
1F
100
AcDbEntity
  8
0
100
AcDbLine
 10
-14.96320361357067
 20
-42.17138502213363
 30
0.0
 11
-12.3651276100634
 21
-46.67138466213367
 31
0.0
  0
LINE
  5
3FB
330
1F
100
AcDbEntity
  8
0
100
AcDbLine
 10
-22.65730637034867
 20
-43.44417712644606
 30
0.0
 11
-22.28451419403626
 21
-43.73023062423803
 31
0.0
  0
LINE
  5
3FC
330
1F
100
AcDbEntity
  8
0
100
AcDbLine
 10
20.30203103667329
 20
-6.273683510266013
 30
0.0
 11
20.30203103667329
 21
-11.27368311026698
 31
0.0
  0
LINE
  5
3FD
330
1F
100
AcDbEntity
  8
0
100
AcDbLine
 10
-12.49796633932686
 20
-6.273683510266419
 30
0.0
 11
-12.49796633932686
 21
-11.27368311026689
 31
0.0
  0
LINE
  5
3FE
330
1F
100
AcDbEntity
  8
0
100
AcDbLine
 10
51.44973292014807
 20
35.16746744763002
 30
0.0
 11
51.82252509646057
 21
35.45352094542193
 31
0.0
  0
LINE
  5
3FF
330
1F
100
AcDbEntity
  8
0
100
AcDbLine
 10
51.01560723606271
 20
34.98764670150739
 30
0.0
 11
51.44973292014807
 21
35.16746744763002
 31
0.0
  0
LINE
  5
400
330
1F
100
AcDbEntity
  8
0
100
AcDbLine
 10
50.54973299214808
 20
34.92631319373436
 30
0.0
 11
51.01560723606271
 21
34.98764670150739
 31
0.0
  0
LINE
  5
401
330
1F
100
AcDbEntity
  8
0
100
AcDbLine
 10
50.08385874823346
 20
34.98764670150739
 30
0.0
 11
50.54973299214808
 21
34.92631319373436
 31
0.0
  0
LINE
  5
402
330
1F
100
AcDbEntity
  8
0
100
AcDbLine
 10
49.64973306414801
 20
35.16746744763002
 30
0.0
 11
50.08385874823346
 21
34.98764670150739
 31
0.0
  0
LINE
  5
403
330
1F
100
AcDbEntity
  8
0
100
AcDbLine
 10
49.27694088783605
 20
2.553523577420625
 30
0.0
 11
49.64973306414846
 21
2.267470079628668
 31
0.0
  0
LINE
  5
404
330
1F
100
AcDbEntity
  8
0
100
AcDbLine
 10
48.99088739004414
 20
2.926315753733037
 30
0.0
 11
49.27694088783605
 21
2.553523577420625
 31
0.0
  0
LINE
  5
405
330
1F
100
AcDbEntity
  8
0
100
AcDbLine
 10
48.49973315614809
 20
23.82701823719414
 30
0.0
 11
47.65059542121427
 21
23.17545193666812
 31
0.0
  0
LINE
  5
406
330
1F
100
AcDbEntity
  8
0
100
AcDbLine
 10
51.82252509646057
 20
35.45352094542193
 30
0.0
 11
52.10857859425249
 21
35.82631312173434
 31
0.0
  0
LINE
  5
407
330
1F
100
AcDbEntity
  8
0
100
AcDbLine
 10
91.6852337182376
 20
44.35512423798412
 30
0.0
 11
91.3060641727723
 21
44.07757952787351
 31
0.0
  0
LINE
  5
408
330
1F
100
AcDbEntity
  8
0
100
AcDbLine
 10
27.90319943475838
 20
44.02008061880779
 30
0.0
 11
27.53695231973586
 21
44.31446754286605
 31
0.0
  0
LINE
  5
409
330
1F
100
AcDbEntity
  8
0
100
AcDbLine
 10
27.53695231973586
 20
44.31446754286605
 30
0.0
 11
27.10699182995639
 21
44.50403174715393
 31
0.0
  0
LINE
  5
40A
330
1F
100
AcDbEntity
  8
0
100
AcDbLine
 10
3.119498498209619
 20
77.74496763678002
 30
0.0
 11
2.878317562606652
 21
77.6450672222675
 31
0.0
  0
LINE
  5
40B
330
1F
100
AcDbEntity
  8
0
100
AcDbLine
 10
3.326605262827606
 20
77.90388624666451
 30
0.0
 11
3.119498498209619
 21
77.74496763678002
 31
0.0
  0
LINE
  5
40C
330
1F
100
AcDbEntity
  8
0
100
AcDbLine
 10
92.04194665057854
 20
-3.950575818504108
 30
0.0
 11
92.50620147045584
 21
-4.02315730746245
 31
0.0
  0
LINE
  5
40D
330
1F
100
AcDbEntity
  8
0
100
AcDbLine
 10
12.11548305396399
 20
-16.60536166363108
 30
0.0
 11
11.90837628934601
 21
-16.76428027351548
 31
0.0
  0
LINE
  5
40E
330
1F
100
AcDbEntity
  8
0
100
AcDbLine
 10
-20.1117221617237
 20
-40.89859291782119
 30
0.0
 11
-20.48451433803611
 21
-40.61253942002924
 31
0.0
  0
LINE
  5
40F
330
1F
100
AcDbEntity
  8
0
100
AcDbLine
 10
19.80203107667322
 20
-12.13970844476939
 30
0.0
 11
20.00913784129121
 21
-11.98078983488499
 31
0.0
  0
LINE
  5
410
330
1F
100
AcDbEntity
  8
0
100
AcDbLine
 10
20.00913784129121
 20
-11.98078983488499
 30
0.0
 11
20.1680564511756
 21
-11.77368307026701
 31
0.0
  0
LINE
  5
411
330
1F
100
AcDbEntity
  8
0
100
AcDbLine
 10
20.26795686568822
 20
-11.53250213466399
 30
0.0
 11
20.30203103667329
 21
-11.27368311026698
 31
0.0
  0
LINE
  5
412
330
1F
100
AcDbEntity
  8
0
100
AcDbLine
 10
19.80203107667322
 20
52.69233717623651
 30
0.0
 11
19.56085014107025
 21
52.79223759074904
 31
0.0
  0
LINE
  5
413
330
1F
100
AcDbEntity
  8
0
100
AcDbLine
 10
-2.497967139327988
 20
52.69233717623615
 30
0.0
 11
-2.705073903946065
 21
52.53341856635175
 31
0.0
  0
LINE
  5
414
330
1F
100
AcDbEntity
  8
0
100
AcDbLine
 10
3.719498450210119
 20
39.02631286573381
 30
0.0
 11
3.719498450210029
 21
45.2763022145926
 31
0.0
  0
LINE
  5
415
330
1F
100
AcDbEntity
  8
0
100
AcDbLine
 10
-3.64896511823565
 20
1.526315865733662
 30
0.0
 11
3.71949845021057
 21
1.526315865733662
 31
0.0
  0
LINE
  5
416
330
1F
100
AcDbEntity
  8
0
100
AcDbLine
 10
-3.64896511823565
 20
8.426315313733673
 30
0.0
 11
-3.64896511823565
 21
1.526315865733662
 31
0.0
  0
LINE
  5
417
330
1F
100
AcDbEntity
  8
0
100
AcDbLine
 10
3.71949845021057
 20
8.426315313733673
 30
0.0
 11
3.719498450210119
 21
32.12631341773371
 31
0.0
  0
LINE
  5
418
330
1F
100
AcDbEntity
  8
0
100
AcDbLine
 10
27.11949158209672
 20
1.526315865733933
 30
0.0
 11
27.11949158209672
 21
8.426315313734033
 31
0.0
  0
LINE
  5
419
330
1F
100
AcDbEntity
  8
0
100
AcDbLine
 10
-14.33680810729964
 20
16.3160187947722
 30
0.0
 11
-13.34796627132731
 21
16.72561049427379
 31
0.0
  0
LINE
  5
41A
330
1F
100
AcDbEntity
  8
0
100
AcDbLine
 10
-15.3979661073273
 20
24.37631403773367
 30
0.0
 11
-16.45912410735496
 21
24.23660993669505
 31
0.0
  0
LINE
  5
41B
330
1F
100
AcDbEntity
  8
0
100
AcDbLine
 10
-16.29796603532738
 20
35.16746744762938
 30
0.0
 11
-15.86384035124192
 21
34.98764670150676
 31
0.0
  0
LINE
  5
41C
330
1F
100
AcDbEntity
  8
0
100
AcDbLine
 10
-16.67075821163979
 20
35.4535209454213
 30
0.0
 11
-16.29796603532738
 21
35.16746744762938
 31
0.0
  0
LINE
  5
41D
330
1F
100
AcDbEntity
  8
0
100
AcDbLine
 10
-16.9568117094317
 20
35.8263131217338
 30
0.0
 11
-16.67075821163979
 21
35.4535209454213
 31
0.0
  0
LINE
  5
41E
330
1F
100
AcDbEntity
  8
0
100
AcDbLine
 10
-17.13663245555432
 20
36.26043880581916
 30
0.0
 11
-16.9568117094317
 21
35.8263131217338
 31
0.0
  0
LINE
  5
41F
330
1F
100
AcDbEntity
  8
0
100
AcDbLine
 10
54.51002856310956
 20
21.33747236576205
 30
0.0
 11
54.10043686360796
 21
22.3263142017343
 31
0.0
  0
LINE
  5
420
330
1F
100
AcDbEntity
  8
0
100
AcDbLine
 10
91.30808879499138
 20
-0.9204848804968946
 30
0.0
 11
91.01310397177033
 21
-1.286250603860874
 31
0.0
  0
LINE
  5
421
330
1F
100
AcDbEntity
  8
0
100
AcDbLine
 10
93.85292858591725
 20
-0.9820429971080659
 30
0.0
 11
93.48716286255332
 21
-0.6870581738870155
 31
0.0
  0
LINE
  5
422
330
1F
100
AcDbEntity
  8
0
100
AcDbLine
 10
50.54973299214853
 20
5.626315537733118
 30
0.0
 11
50.08385874823392
 21
5.564982029960124
 31
0.0
  0
LINE
  5
423
330
1F
100
AcDbEntity
  8
0
100
AcDbLine
 10
52.10857859425249
 20
35.82631312173434
 30
0.0
 11
52.2883993403751
 21
36.26043880581979
 31
0.0
  0
LINE
  5
424
330
1F
100
AcDbEntity
  8
0
100
AcDbLine
 10
48.99088739004369
 20
37.62631297773449
 30
0.0
 11
48.81106664392107
 21
37.19218729364903
 31
0.0
  0
LINE
  5
425
330
1F
100
AcDbEntity
  8
0
100
AcDbLine
 10
49.2769408878356
 20
37.99910515404689
 30
0.0
 11
48.99088739004369
 21
37.62631297773449
 31
0.0
  0
LINE
  5
426
330
1F
100
AcDbEntity
  8
0
100
AcDbLine
 10
50.08385874823346
 20
38.46497939796143
 30
0.0
 11
49.6497330641481
 21
38.28515865183881
 31
0.0
  0
LINE
  5
427
330
1F
100
AcDbEntity
  8
0
100
AcDbLine
 10
92.97614203270851
 20
41.02754958972887
 30
0.0
 11
93.41422554605985
 21
41.19750089348528
 31
0.0
  0
LINE
  5
428
330
1F
100
AcDbEntity
  8
0
100
AcDbLine
 10
-47.34973324814798
 20
-13.07368296626699
 30
0.0
 11
-57.74973241614803
 21
-13.07368296626699
 31
0.0
  0
LINE
  5
429
330
1F
100
AcDbEntity
  8
0
100
AcDbLine
 10
-86.74973009614865
 20
46.82631224173335
 30
0.0
 11
-86.74973009614865
 21
53.62631169773339
 31
0.0
  0
LINE
  5
42A
330
1F
100
AcDbEntity
  8
0
100
AcDbLine
 10
-86.74973009614865
 20
53.62631169773339
 30
0.0
 11
-76.34973092814825
 21
53.62631169773339
 31
0.0
  0
LINE
  5
42B
330
1F
100
AcDbEntity
  8
0
100
AcDbLine
 10
-44.50985803414768
 20
44.57587068678562
 30
0.0
 11
-44.97697667124605
 21
44.52487275355224
 31
0.0
  0
LINE
  5
42C
330
1F
100
AcDbEntity
  8
0
100
AcDbLine
 10
-44.04545684225176
 20
44.50423170797963
 30
0.0
 11
-44.50985803414768
 21
44.57587068678562
 31
0.0
  0
LINE
  5
42D
330
1F
100
AcDbEntity
  8
0
100
AcDbLine
 10
-43.61542126932662
 20
44.31483789515106
 30
0.0
 11
-44.04545684225176
 21
44.50423170797963
 31
0.0
  0
LINE
  5
42E
330
1F
100
AcDbEntity
  8
0
100
AcDbLine
 10
-43.24905752899994
 20
44.02059612365594
 30
0.0
 11
-43.61542126932662
 21
44.31483789515106
 31
0.0
  0
LINE
  5
42F
330
1F
100
AcDbEntity
  8
0
100
AcDbLine
 10
-46.1281342395628
 20
-1.358437916030109
 30
0.0
 11
-46.29829365996523
 21
-1.796440635162148
 31
0.0
  0
LINE
  5
430
330
1F
100
AcDbEntity
  8
0
100
AcDbLine
 10
-45.85040941529157
 20
-0.9794002763394386
 30
0.0
 11
-46.1281342395628
 21
-1.358437916030109
 31
0.0
  0
LINE
  5
431
330
1F
100
AcDbEntity
  8
0
100
AcDbLine
 10
-45.4840456749638
 20
-0.6851585048456761
 30
0.0
 11
-45.85040941529157
 21
-0.9794002763394386
 31
0.0
  0
LINE
  5
432
330
1F
100
AcDbEntity
  8
0
100
AcDbLine
 10
-45.41497939038458
 20
-3.802084601681388
 30
0.0
 11
-44.97697667125254
 21
-3.972244022083857
 31
0.0
  0
LINE
  5
433
330
1F
100
AcDbEntity
  8
0
100
AcDbLine
 10
-45.79401703007525
 20
-3.524359777410192
 30
0.0
 11
-45.41497939038458
 21
-3.802084601681388
 31
0.0
  0
LINE
  5
434
330
1F
100
AcDbEntity
  8
0
100
AcDbLine
 10
18.01548258196323
 20
-52.2713842141337
 30
0.0
 11
18.0495567529483
 21
-52.5302032385307
 31
0.0
  0
LINE
  5
435
330
1F
100
AcDbEntity
  8
0
100
AcDbLine
 10
24.11548209396324
 20
-53.1374095486361
 30
0.0
 11
23.87430115836027
 21
-53.23730996314872
 31
0.0
  0
LINE
  5
436
330
1F
100
AcDbEntity
  8
0
100
AcDbLine
 10
24.48150746846571
 20
-52.77138417413372
 30
0.0
 11
24.32258885858122
 21
-52.9784909387517
 31
0.0
  0
LINE
  5
437
330
1F
100
AcDbEntity
  8
0
100
AcDbLine
 10
24.61548205396331
 20
-52.2713842141337
 30
0.0
 11
24.58140788297824
 21
-52.5302032385307
 31
0.0
  0
LINE
  5
438
330
1F
100
AcDbEntity
  8
0
100
AcDbLine
 10
-16.3845146660363
 20
-16.47138707813349
 30
0.0
 11
-8.38451530603626
 21
-16.47138707813349
 31
0.0
  0
LINE
  5
439
330
1F
100
AcDbEntity
  8
0
100
AcDbLine
 10
-17.38451458603635
 20
-23.07138655013351
 30
0.0
 11
-25.38451394603639
 21
-23.07138655013351
 31
0.0
  0
LINE
  5
43A
330
1F
100
AcDbEntity
  8
0
100
AcDbLine
 10
-5.164567795039133
 20
-88.5234093007334
 30
0.0
 11
-2.566491791531867
 21
-84.02340966073335
 31
0.0
  0
LINE
  5
43B
330
1F
100
AcDbEntity
  8
0
100
AcDbLine
 10
-2.566491791531867
 20
-84.02340966073335
 30
0.0
 11
-5.164567795039133
 21
-79.52341002073335
 31
0.0
  0
LINE
  5
43C
330
1F
100
AcDbEntity
  8
0
100
AcDbLine
 10
-78.71879043243153
 20
-46.2888500542754
 30
0.0
 11
-78.82101294538676
 21
-45.51239298108441
 31
0.0
  0
LINE
  5
43D
330
1F
100
AcDbEntity
  8
0
100
AcDbLine
 10
-54.10516788630382
 20
-43.39107280723038
 30
0.0
 11
-54.06800050936674
 21
-43.39107280723033
 31
0.0
  0
ENDSEC
  0
SECTION
  2
OBJECTS
  0
DICTIONARY
  5
C
330
0
100
AcDbDictionary
281
     1
  3
ACAD_GROUP
350
D
  3
ACAD_LAYOUT
350
1A
  3
ACAD_MATERIAL
350
3B
  3
ACAD_MLEADERSTYLE
350
43F
  3
ACAD_MLINESTYLE
350
17
  3
ACAD_PLOTSETTINGS
350
19
  3
ACAD_PLOTSTYLENAME
350
E
  3
ACAD_TABLESTYLE
350
43E
  3
ACAD_VISUALSTYLE
350
2A
  0
DICTIONARY
  5
D
102
{ACAD_REACTORS
330
C
102
}
330
C
100
AcDbDictionary
281
     1
  0
DICTIONARY
  5
1A
102
{ACAD_REACTORS
330
C
102
}
330
C
100
AcDbDictionary
281
     1
  3
Layout1
350
1E
  3
Layout2
350
26
  3
Model
350
22
  0
DICTIONARY
  5
3B
102
{ACAD_REACTORS
330
C
102
}
330
C
100
AcDbDictionary
281
     1
  3
ByBlock
350
3D
  3
ByLayer
350
3C
  3
Global
350
3E
  0
DICTIONARY
  5
43F
102
{ACAD_REACTORS
330
C
102
}
330
C
100
AcDbDictionary
281
     1
  0
DICTIONARY
  5
17
102
{ACAD_REACTORS
330
C
102
}
330
C
100
AcDbDictionary
281
     1
  3
Standard
350
18
  0
DICTIONARY
  5
19
102
{ACAD_REACTORS
330
C
102
}
330
C
100
AcDbDictionary
281
     1
  0
ACDBDICTIONARYWDFLT
  5
E
102
{ACAD_REACTORS
330
C
102
}
330
C
100
AcDbDictionary
281
     1
  3
Normal
350
F
100
AcDbDictionaryWithDefault
340
F
  0
DICTIONARY
  5
43E
102
{ACAD_REACTORS
330
C
102
}
330
C
100
AcDbDictionary
281
     1
  0
DICTIONARY
  5
2A
102
{ACAD_REACTORS
330
C
102
}
330
C
100
AcDbDictionary
281
     1
  3
2dWireframe
350
2F
  3
3D Hidden
350
31
  3
3dWireframe
350
30
  3
Basic
350
32
  3
Brighten
350
36
  3
ColorChange
350
3A
  3
Conceptual
350
34
  3
Dim
350
35
  3
Facepattern
350
39
  3
Flat
350
2B
  3
FlatWithEdges
350
2C
  3
Gouraud
350
2D
  3
GouraudWithEdges
350
2E
  3
Linepattern
350
38
  3
Realistic
350
33
  3
Thicken
350
37
  0
LAYOUT
  5
1E
102
{ACAD_REACTORS
330
1A
102
}
330
1A
100
AcDbPlotSettings
  1

  2
none_device
  4

  6

 40
0.0
 41
0.0
 42
0.0
 43
0.0
 44
0.0
 45
0.0
 46
0.0
 47
0.0
 48
0.0
 49
0.0
140
0.0
141
0.0
142
1.0
143
1.0
 70
   688
 72
     0
 73
     0
 74
     5
  7

 75
    16
 76
     0
 77
     2
 78
   300
147
1.0
148
0.0
149
0.0
100
AcDbLayout
  1
Layout1
 70
     1
 71
     1
 10
0.0
 20
0.0
 11
12.0
 21
9.0
 12
0.0
 22
0.0
 32
0.0
 14
1.000000000000000E+20
 24
1.000000000000000E+20
 34
1.000000000000000E+20
 15
-1.000000000000000E+20
 25
-1.000000000000000E+20
 35
-1.000000000000000E+20
146
0.0
 13
0.0
 23
0.0
 33
0.0
 16
1.0
 26
0.0
 36
0.0
 17
0.0
 27
1.0
 37
0.0
 76
     0
330
1B
  0
LAYOUT
  5
26
102
{ACAD_REACTORS
330
1A
102
}
330
1A
100
AcDbPlotSettings
  1

  2
none_device
  4

  6

 40
0.0
 41
0.0
 42
0.0
 43
0.0
 44
0.0
 45
0.0
 46
0.0
 47
0.0
 48
0.0
 49
0.0
140
0.0
141
0.0
142
1.0
143
1.0
 70
   688
 72
     0
 73
     0
 74
     5
  7

 75
    16
 76
     0
 77
     2
 78
   300
147
1.0
148
0.0
149
0.0
100
AcDbLayout
  1
Layout2
 70
     1
 71
     2
 10
0.0
 20
0.0
 11
0.0
 21
0.0
 12
0.0
 22
0.0
 32
0.0
 14
0.0
 24
0.0
 34
0.0
 15
0.0
 25
0.0
 35
0.0
146
0.0
 13
0.0
 23
0.0
 33
0.0
 16
1.0
 26
0.0
 36
0.0
 17
0.0
 27
1.0
 37
0.0
 76
     0
330
23
  0
LAYOUT
  5
22
102
{ACAD_REACTORS
330
1A
102
}
330
1A
100
AcDbPlotSettings
  1

  2
none_device
  4

  6

 40
0.0
 41
0.0
 42
0.0
 43
0.0
 44
0.0
 45
0.0
 46
0.0
 47
0.0
 48
0.0
 49
0.0
140
0.0
141
0.0
142
1.0
143
1.0
 70
  1712
 72
     0
 73
     0
 74
     0
  7

 75
     0
 76
     0
 77
     2
 78
   300
147
1.0
148
0.0
149
0.0
100
AcDbLayout
  1
Model
 70
     1
 71
     0
 10
0.0
 20
0.0
 11
12.0
 21
9.0
 12
0.0
 22
0.0
 32
0.0
 14
1.000000000000000E+20
 24
1.000000000000000E+20
 34
1.000000000000000E+20
 15
-1.000000000000000E+20
 25
-1.000000000000000E+20
 35
-1.000000000000000E+20
146
0.0
 13
0.0
 23
0.0
 33
0.0
 16
1.0
 26
0.0
 36
0.0
 17
0.0
 27
1.0
 37
0.0
 76
     0
330
1F
331
29
  0
MATERIAL
  5
3D
102
{ACAD_REACTORS
330
3B
102
}
330
3B
100
AcDbMaterial
  1
ByBlock
 72
     1
 94
      127
  0
MATERIAL
  5
3C
102
{ACAD_REACTORS
330
3B
102
}
330
3B
100
AcDbMaterial
  1
ByLayer
 72
     1
 94
      127
  0
MATERIAL
  5
3E
102
{ACAD_REACTORS
330
3B
102
}
330
3B
100
AcDbMaterial
  1
Global
 72
     1
 94
      127
  0
MLINESTYLE
  5
18
102
{ACAD_REACTORS
330
17
102
}
330
17
100
AcDbMlineStyle
  2
Standard
 70
     0
  3

 62
   256
 51
90.0
 52
90.0
 71
     2
 49
0.5
 62
   256
  6
BYLAYER
 49
-0.5
 62
   256
  6
BYLAYER
  0
ACDBPLACEHOLDER
  5
F
102
{ACAD_REACTORS
330
E
102
}
330
E
  0
VISUALSTYLE
  5
2F
102
{ACAD_REACTORS
330
2A
102
}
330
2A
100
AcDbVisualStyle
  2
2dWireframe
 70
     4
177
     2
291
     0
 71
     0
176
     1
 72
     2
176
     1
 73
     0
176
     1
 90
        0
176
     1
 40
-0.6
176
     1
 41
-30.0
176
     1
 62
     5
 63
     7
421
 16777215
176
     1
 74
     1
176
     1
 91
        4
176
     1
 64
     7
176
     1
 65
   257
176
     1
 75
     1
176
     1
175
     1
176
     1
 42
1.0
176
     1
 92
        0
176
     1
 66
   257
176
     1
 43
1.0
176
     1
 76
     1
176
     1
 77
     6
176
     1
 78
     2
176
     1
 67
     7
176
     1
 79
     5
176
     1
170
     0
176
     1
171
     0
176
     1
290
     0
176
     1
 93
        1
176
     1
 44
0.0
176
     1
173
     0
176
     1
  0
VISUALSTYLE
  5
31
102
{ACAD_REACTORS
330
2A
102
}
330
2A
100
AcDbVisualStyle
  2
3D Hidden
 70
     6
177
     2
291
     0
 71
     1
176
     1
 72
     2
176
     1
 73
     2
176
     1
 90
        0
176
     1
 40
-0.6
176
     1
 41
-30.0
176
     1
 62
     5
 63
     7
421
 16777215
176
     1
 74
     2
176
     1
 91
        2
176
     1
 64
     7
176
     1
 65
   257
176
     1
 75
     2
176
     1
175
     1
176
     1
 42
40.0
176
     1
 92
        0
176
     1
 66
   257
176
     1
 43
1.0
176
     1
 76
     1
176
     1
 77
     6
176
     1
 78
     2
176
     1
 67
     7
176
     1
 79
     3
176
     1
170
     0
176
     1
171
     0
176
     1
290
     0
176
     1
 93
        1
176
     1
 44
0.0
176
     1
173
     0
176
     1
  0
VISUALSTYLE
  5
30
102
{ACAD_REACTORS
330
2A
102
}
330
2A
100
AcDbVisualStyle
  2
3dWireframe
 70
     5
177
     2
291
     0
 71
     0
176
     1
 72
     2
176
     1
 73
     0
176
     1
 90
        0
176
     1
 40
-0.6
176
     1
 41
-30.0
176
     1
 62
     5
 63
     7
421
 16777215
176
     1
 74
     1
176
     1
 91
        4
176
     1
 64
     7
176
     1
 65
   257
176
     1
 75
     1
176
     1
175
     1
176
     1
 42
1.0
176
     1
 92
        0
176
     1
 66
   257
176
     1
 43
1.0
176
     1
 76
     1
176
     1
 77
     6
176
     1
 78
     2
176
     1
 67
     7
176
     1
 79
     5
176
     1
170
     0
176
     1
171
     0
176
     1
290
     0
176
     1
 93
        1
176
     1
 44
0.0
176
     1
173
     0
176
     1
  0
VISUALSTYLE
  5
32
102
{ACAD_REACTORS
330
2A
102
}
330
2A
100
AcDbVisualStyle
  2
Basic
 70
     7
177
     2
291
     1
 71
     1
176
     1
 72
     0
176
     1
 73
     1
176
     1
 90
        0
176
     1
 40
-0.6
176
     1
 41
-30.0
176
     1
 62
     5
 63
     7
421
 16777215
176
     1
 74
     0
176
     1
 91
        4
176
     1
 64
     7
176
     1
 65
   257
176
     1
 75
     1
176
     1
175
     1
176
     1
 42
1.0
176
     1
 92
        8
176
     1
 66
     7
176
     1
 43
1.0
176
     1
 76
     1
176
     1
 77
     6
176
     1
 78
     2
176
     1
 67
     7
176
     1
 79
     5
176
     1
170
     0
176
     1
171
     0
176
     1
290
     0
176
     1
 93
        1
176
     1
 44
0.0
176
     1
173
     0
176
     1
  0
VISUALSTYLE
  5
36
102
{ACAD_REACTORS
330
2A
102
}
330
2A
100
AcDbVisualStyle
  2
Brighten
 70
    12
177
     2
291
     1
 71
     2
176
     1
 72
     2
176
     1
 73
     0
176
     1
 90
        0
176
     1
 40
-0.6
176
     1
 41
-30.0
176
     1
 62
     5
 63
     7
421
 16777215
176
     1
 74
     1
176
     1
 91
        4
176
     1
 64
     7
176
     1
 65
   257
176
     1
 75
     1
176
     1
175
     1
176
     1
 42
1.0
176
     1
 92
        8
176
     1
 66
     7
176
     1
 43
1.0
176
     1
 76
     1
176
     1
 77
     6
176
     1
 78
     2
176
     1
 67
     7
176
     1
 79
     5
176
     1
170
     0
176
     1
171
     0
176
     1
290
     0
176
     1
 93
        1
176
     1
 44
50.0
176
     1
173
     0
176
     1
  0
VISUALSTYLE
  5
3A
102
{ACAD_REACTORS
330
2A
102
}
330
2A
100
AcDbVisualStyle
  2
ColorChange
 70
    16
177
     2
291
     1
 71
     2
176
     1
 72
     2
176
     1
 73
     3
176
     1
 90
        0
176
     1
 40
-0.6
176
     1
 41
-30.0
176
     1
 62
     5
 63
     8
421
  8421504
176
     1
 74
     1
176
     1
 91
        4
176
     1
 64
     7
176
     1
 65
   257
176
     1
 75
     1
176
     1
175
     1
176
     1
 42
1.0
176
     1
 92
        8
176
     1
 66
     8
424
  8421504
176
     1
 43
1.0
176
     1
 76
     1
176
     1
 77
     6
176
     1
 78
     2
176
     1
 67
     7
176
     1
 79
     5
176
     1
170
     0
176
     1
171
     0
176
     1
290
     0
176
     1
 93
        1
176
     1
 44
0.0
176
     1
173
     0
176
     1
  0
VISUALSTYLE
  5
34
102
{ACAD_REACTORS
330
2A
102
}
330
2A
100
AcDbVisualStyle
  2
Conceptual
 70
     9
177
     2
291
     0
 71
     3
176
     1
 72
     2
176
     1
 73
     0
176
     1
 90
        0
176
     1
 40
-0.6
176
     1
 41
-30.0
176
     1
 62
     5
 63
     7
421
 16777215
176
     1
 74
     2
176
     1
 91
        2
176
     1
 64
     7
176
     1
 65
   257
176
     1
 75
     1
176
     1
175
     1
176
     1
 42
40.0
176
     1
 92
        8
176
     1
 66
     7
176
     1
 43
1.0
176
     1
 76
     1
176
     1
 77
     6
176
     1
 78
     2
176
     1
 67
     7
176
     1
 79
     3
176
     1
170
     0
176
     1
171
     0
176
     1
290
     0
176
     1
 93
        1
176
     1
 44
0.0
176
     1
173
     0
176
     1
  0
VISUALSTYLE
  5
35
102
{ACAD_REACTORS
330
2A
102
}
330
2A
100
AcDbVisualStyle
  2
Dim
 70
    11
177
     2
291
     1
 71
     2
176
     1
 72
     2
176
     1
 73
     0
176
     1
 90
        0
176
     1
 40
-0.6
176
     1
 41
-30.0
176
     1
 62
     5
 63
     7
421
 16777215
176
     1
 74
     1
176
     1
 91
        4
176
     1
 64
     7
176
     1
 65
   257
176
     1
 75
     1
176
     1
175
     1
176
     1
 42
1.0
176
     1
 92
        8
176
     1
 66
     7
176
     1
 43
1.0
176
     1
 76
     1
176
     1
 77
     6
176
     1
 78
     2
176
     1
 67
     7
176
     1
 79
     5
176
     1
170
     0
176
     1
171
     0
176
     1
290
     0
176
     1
 93
        1
176
     1
 44
-50.0
176
     1
173
     0
176
     1
  0
VISUALSTYLE
  5
39
102
{ACAD_REACTORS
330
2A
102
}
330
2A
100
AcDbVisualStyle
  2
Facepattern
 70
    15
177
     2
291
     1
 71
     2
176
     1
 72
     2
176
     1
 73
     0
176
     1
 90
        0
176
     1
 40
-0.6
176
     1
 41
-30.0
176
     1
 62
     5
 63
     7
421
 16777215
176
     1
 74
     1
176
     1
 91
        4
176
     1
 64
     7
176
     1
 65
   257
176
     1
 75
     1
176
     1
175
     1
176
     1
 42
1.0
176
     1
 92
        8
176
     1
 66
     7
176
     1
 43
1.0
176
     1
 76
     1
176
     1
 77
     6
176
     1
 78
     2
176
     1
 67
     7
176
     1
 79
     5
176
     1
170
     0
176
     1
171
     0
176
     1
290
     0
176
     1
 93
        1
176
     1
 44
0.0
176
     1
173
     0
176
     1
  0
VISUALSTYLE
  5
2B
102
{ACAD_REACTORS
330
2A
102
}
330
2A
100
AcDbVisualStyle
  2
Flat
 70
     0
177
     2
291
     1
 71
     2
176
     1
 72
     1
176
     1
 73
     1
176
     1
 90
        2
176
     1
 40
-0.6
176
     1
 41
30.0
176
     1
 62
     5
 63
     7
421
 16777215
176
     1
 74
     0
176
     1
 91
        4
176
     1
 64
     7
176
     1
 65
   257
176
     1
 75
     1
176
     1
175
     1
176
     1
 42
1.0
176
     1
 92
        8
176
     1
 66
     7
176
     1
 43
1.0
176
     1
 76
     1
176
     1
 77
     6
176
     1
 78
     2
176
     1
 67
     7
176
     1
 79
     5
176
     1
170
     0
176
     1
171
     0
176
     1
290
     0
176
     1
 93
       13
176
     1
 44
0.0
176
     1
173
     0
176
     1
  0
VISUALSTYLE
  5
2C
102
{ACAD_REACTORS
330
2A
102
}
330
2A
100
AcDbVisualStyle
  2
FlatWithEdges
 70
     1
177
     2
291
     1
 71
     2
176
     1
 72
     1
176
     1
 73
     1
176
     1
 90
        2
176
     1
 40
-0.6
176
     1
 41
30.0
176
     1
 62
     5
 63
     7
421
 16777215
176
     1
 74
     1
176
     1
 91
        4
176
     1
 64
     7
176
     1
 65
   257
176
     1
 75
     1
176
     1
175
     1
176
     1
 42
1.0
176
     1
 92
        0
176
     1
 66
   257
176
     1
 43
1.0
176
     1
 76
     1
176
     1
 77
     6
176
     1
 78
     2
176
     1
 67
     7
176
     1
 79
     5
176
     1
170
     0
176
     1
171
     0
176
     1
290
     0
176
     1
 93
       13
176
     1
 44
0.0
176
     1
173
     0
176
     1
  0
VISUALSTYLE
  5
2D
102
{ACAD_REACTORS
330
2A
102
}
330
2A
100
AcDbVisualStyle
  2
Gouraud
 70
     2
177
     2
291
     1
 71
     2
176
     1
 72
     2
176
     1
 73
     1
176
     1
 90
        2
176
     1
 40
-0.6
176
     1
 41
30.0
176
     1
 62
     5
 63
     7
421
 16777215
176
     1
 74
     0
176
     1
 91
        4
176
     1
 64
     7
176
     1
 65
   257
176
     1
 75
     1
176
     1
175
     1
176
     1
 42
1.0
176
     1
 92
        0
176
     1
 66
     7
176
     1
 43
1.0
176
     1
 76
     1
176
     1
 77
     6
176
     1
 78
     2
176
     1
 67
     7
176
     1
 79
     5
176
     1
170
     0
176
     1
171
     0
176
     1
290
     0
176
     1
 93
       13
176
     1
 44
0.0
176
     1
173
     0
176
     1
  0
VISUALSTYLE
  5
2E
102
{ACAD_REACTORS
330
2A
102
}
330
2A
100
AcDbVisualStyle
  2
GouraudWithEdges
 70
     3
177
     2
291
     1
 71
     2
176
     1
 72
     2
176
     1
 73
     1
176
     1
 90
        2
176
     1
 40
-0.6
176
     1
 41
30.0
176
     1
 62
     5
 63
     7
421
 16777215
176
     1
 74
     1
176
     1
 91
        4
176
     1
 64
     7
176
     1
 65
   257
176
     1
 75
     1
176
     1
175
     1
176
     1
 42
1.0
176
     1
 92
        0
176
     1
 66
   257
176
     1
 43
1.0
176
     1
 76
     1
176
     1
 77
     6
176
     1
 78
     2
176
     1
 67
     7
176
     1
 79
     5
176
     1
170
     0
176
     1
171
     0
176
     1
290
     0
176
     1
 93
       13
176
     1
 44
0.0
176
     1
173
     0
176
     1
  0
VISUALSTYLE
  5
38
102
{ACAD_REACTORS
330
2A
102
}
330
2A
100
AcDbVisualStyle
  2
Linepattern
 70
    14
177
     2
291
     1
 71
     2
176
     1
 72
     2
176
     1
 73
     0
176
     1
 90
        0
176
     1
 40
-0.6
176
     1
 41
-30.0
176
     1
 62
     5
 63
     7
421
 16777215
176
     1
 74
     1
176
     1
 91
        4
176
     1
 64
     7
176
     1
 65
   257
176
     1
 75
     7
176
     1
175
     7
176
     1
 42
1.0
176
     1
 92
        8
176
     1
 66
     7
176
     1
 43
1.0
176
     1
 76
     1
176
     1
 77
     6
176
     1
 78
     2
176
     1
 67
     7
176
     1
 79
     5
176
     1
170
     0
176
     1
171
     0
176
     1
290
     0
176
     1
 93
        1
176
     1
 44
0.0
176
     1
173
     0
176
     1
  0
VISUALSTYLE
  5
33
102
{ACAD_REACTORS
330
2A
102
}
330
2A
100
AcDbVisualStyle
  2
Realistic
 70
     8
177
     2
291
     0
 71
     2
176
     1
 72
     2
176
     1
 73
     0
176
     1
 90
        0
176
     1
 40
-0.6
176
     1
 41
-30.0
176
     1
 62
     5
 63
     7
421
 16777215
176
     1
 74
     1
176
     1
 91
        0
176
     1
 64
     7
176
     1
 65
   257
176
     1
 75
     1
176
     1
175
     1
176
     1
 42
1.0
176
     1
 92
        8
176
     1
 66
     8
424
  7895160
176
     1
 43
1.0
176
     1
 76
     1
176
     1
 77
     6
176
     1
 78
     2
176
     1
 67
     7
176
     1
 79
     5
176
     1
170
     0
176
     1
171
     0
176
     1
290
     0
176
     1
 93
       13
176
     1
 44
0.0
176
     1
173
     0
176
     1
  0
VISUALSTYLE
  5
37
102
{ACAD_REACTORS
330
2A
102
}
330
2A
100
AcDbVisualStyle
  2
Thicken
 70
    13
177
     2
291
     1
 71
     2
176
     1
 72
     2
176
     1
 73
     0
176
     1
 90
        0
176
     1
 40
-0.6
176
     1
 41
-30.0
176
     1
 62
     5
 63
     7
421
 16777215
176
     1
 74
     1
176
     1
 91
        4
176
     1
 64
     7
176
     1
 65
   257
176
     1
 75
     1
176
     1
175
     1
176
     1
 42
1.0
176
     1
 92
       12
176
     1
 66
     7
176
     1
 43
1.0
176
     1
 76
     1
176
     1
 77
     6
176
     1
 78
     2
176
     1
 67
     7
176
     1
 79
     5
176
     1
170
     0
176
     1
171
     0
176
     1
290
     0
176
     1
 93
        1
176
     1
 44
0.0
176
     1
173
     0
176
     1
  0
ENDSEC
  0
EOF
