  0
SECTION
  2
HEADER
  9
$ACADVER
  1
AC1024
  9
$ACADMAINTVER
 70
     6
  9
$DWGCODEPAGE
  3
ANSI_1252
  9
$INSBASE
 10
0.0
 20
0.0
 30
0.0
  9
$EXTMIN
 10
1.000000000000000E+20
 20
1.000000000000000E+20
 30
1.000000000000000E+20
  9
$EXTMAX
 10
-1.000000000000000E+20
 20
-1.000000000000000E+20
 30
-1.000000000000000E+20
  9
$LIMMIN
 10
0.0
 20
0.0
  9
$LIMMAX
 10
12.0
 20
9.0
  9
$ORTHOMODE
 70
     0
  9
$REGENMODE
 70
     1
  9
$FILLMODE
 70
     1
  9
$QTEXTMODE
 70
     0
  9
$MIRRTEXT
 70
     1
  9
$LTSCALE
 40
1.0
  9
$ATTMODE
 70
     1
  9
$TEXTSIZE
 40
0.2
  9
$TRACEWID
 40
0.05
  9
$TEXTSTYLE
  7
Standard
  9
$CLAYER
  8
0
  9
$CELTYPE
  6
ByLayer
  9
$CECOLOR
 62
   256
  9
$CELTSCALE
 40
1.0
  9
$DISPSILH
 70
     0
  9
$DIMSCALE
 40
1.0
  9
$DIMASZ
 40
0.18
  9
$DIMEXO
 40
0.0625
  9
$DIMDLI
 40
0.38
  9
$DIMRND
 40
0.0
  9
$DIMDLE
 40
0.0
  9
$DIMEXE
 40
0.18
  9
$DIMTP
 40
0.0
  9
$DIMTM
 40
0.0
  9
$DIMTXT
 40
0.18
  9
$DIMCEN
 40
0.09
  9
$DIMTSZ
 40
0.0
  9
$DIMTOL
 70
     0
  9
$DIMLIM
 70
     0
  9
$DIMTIH
 70
     1
  9
$DIMTOH
 70
     1
  9
$DIMSE1
 70
     0
  9
$DIMSE2
 70
     0
  9
$DIMTAD
 70
     0
  9
$DIMZIN
 70
     0
  9
$DIMBLK
  1

  9
$DIMASO
 70
     1
  9
$DIMSHO
 70
     1
  9
$DIMPOST
  1

  9
$DIMAPOST
  1

  9
$DIMALT
 70
     0
  9
$DIMALTD
 70
     2
  9
$DIMALTF
 40
25.4
  9
$DIMLFAC
 40
1.0
  9
$DIMTOFL
 70
     0
  9
$DIMTVP
 40
0.0
  9
$DIMTIX
 70
     0
  9
$DIMSOXD
 70
     0
  9
$DIMSAH
 70
     0
  9
$DIMBLK1
  1

  9
$DIMBLK2
  1

  9
$DIMSTYLE
  2
Standard
  9
$DIMCLRD
 70
     0
  9
$DIMCLRE
 70
     0
  9
$DIMCLRT
 70
     0
  9
$DIMTFAC
 40
1.0
  9
$DIMGAP
 40
0.09
  9
$DIMJUST
 70
     0
  9
$DIMSD1
 70
     0
  9
$DIMSD2
 70
     0
  9
$DIMTOLJ
 70
     1
  9
$DIMTZIN
 70
     0
  9
$DIMALTZ
 70
     0
  9
$DIMALTTZ
 70
     0
  9
$DIMUPT
 70
     0
  9
$DIMDEC
 70
     4
  9
$DIMTDEC
 70
     4
  9
$DIMALTU
 70
     2
  9
$DIMALTTD
 70
     2
  9
$DIMTXSTY
  7
Standard
  9
$DIMAUNIT
 70
     0
  9
$DIMADEC
 70
     0
  9
$DIMALTRND
 40
0.0
  9
$DIMAZIN
 70
     0
  9
$DIMDSEP
 70
    46
  9
$DIMATFIT
 70
     3
  9
$DIMFRAC
 70
     0
  9
$DIMLDRBLK
  1

  9
$DIMLUNIT
 70
     2
  9
$DIMLWD
 70
    -2
  9
$DIMLWE
 70
    -2
  9
$DIMTMOVE
 70
     0
  9
$DIMFXL
 40
1.0
  9
$DIMFXLON
 70
     0
  9
$DIMJOGANG
 40
0.7853981633974483
  9
$DIMTFILL
 70
     0
  9
$DIMTFILLCLR
 70
     0
  9
$DIMARCSYM
 70
     0
  9
$DIMLTYPE
  6

  9
$DIMLTEX1
  6

  9
$DIMLTEX2
  6

  9
$DIMTXTDIRECTION
 70
     0
  9
$LUNITS
 70
     2
  9
$LUPREC
 70
     4
  9
$SKETCHINC
 40
0.1
  9
$FILLETRAD
 40
0.5
  9
$AUNITS
 70
     0
  9
$AUPREC
 70
     0
  9
$MENU
  1
.
  9
$ELEVATION
 40
0.0
  9
$PELEVATION
 40
0.0
  9
$THICKNESS
 40
0.0
  9
$LIMCHECK
 70
     0
  9
$CHAMFERA
 40
0.5
  9
$CHAMFERB
 40
0.5
  9
$CHAMFERC
 40
1.0
  9
$CHAMFERD
 40
0.0
  9
$SKPOLY
 70
     0
  9
$TDCREATE
 40
2456396.705589421
  9
$TDUCREATE
 40
2456396.872256088
  9
$TDUPDATE
 40
2456396.705589433
  9
$TDUUPDATE
 40
2456396.8722561
  9
$TDINDWG
 40
0.0000000116
  9
$TDUSRTIMER
 40
0.0000000116
  9
$USRTIMER
 70
     1
  9
$ANGBASE
 50
0.0
  9
$ANGDIR
 70
     0
  9
$PDMODE
 70
     0
  9
$PDSIZE
 40
0.0
  9
$PLINEWID
 40
0.0
  9
$SPLFRAME
 70
     0
  9
$SPLINETYPE
 70
     6
  9
$SPLINESEGS
 70
     8
  9
$HANDSEED
  5
440
  9
$SURFTAB1
 70
     6
  9
$SURFTAB2
 70
     6
  9
$SURFTYPE
 70
     6
  9
$SURFU
 70
     6
  9
$SURFV
 70
     6
  9
$UCSBASE
  2

  9
$UCSNAME
  2

  9
$UCSORG
 10
0.0
 20
0.0
 30
0.0
  9
$UCSXDIR
 10
1.0
 20
0.0
 30
0.0
  9
$UCSYDIR
 10
0.0
 20
1.0
 30
0.0
  9
$UCSORTHOREF
  2

  9
$UCSORTHOVIEW
 70
     0
  9
$UCSORGTOP
 10
0.0
 20
0.0
 30
0.0
  9
$UCSORGBOTTOM
 10
0.0
 20
0.0
 30
0.0
  9
$UCSORGLEFT
 10
0.0
 20
0.0
 30
0.0
  9
$UCSORGRIGHT
 10
0.0
 20
0.0
 30
0.0
  9
$UCSORGFRONT
 10
0.0
 20
0.0
 30
0.0
  9
$UCSORGBACK
 10
0.0
 20
0.0
 30
0.0
  9
$PUCSBASE
  2

  9
$PUCSNAME
  2

  9
$PUCSORG
 10
0.0
 20
0.0
 30
0.0
  9
$PUCSXDIR
 10
1.0
 20
0.0
 30
0.0
  9
$PUCSYDIR
 10
0.0
 20
1.0
 30
0.0
  9
$PUCSORTHOREF
  2

  9
$PUCSORTHOVIEW
 70
     0
  9
$PUCSORGTOP
 10
0.0
 20
0.0
 30
0.0
  9
$PUCSORGBOTTOM
 10
0.0
 20
0.0
 30
0.0
  9
$PUCSORGLEFT
 10
0.0
 20
0.0
 30
0.0
  9
$PUCSORGRIGHT
 10
0.0
 20
0.0
 30
0.0
  9
$PUCSORGFRONT
 10
0.0
 20
0.0
 30
0.0
  9
$PUCSORGBACK
 10
0.0
 20
0.0
 30
0.0
  9
$USERI1
 70
     0
  9
$USERI2
 70
     0
  9
$USERI3
 70
     0
  9
$USERI4
 70
     0
  9
$USERI5
 70
     0
  9
$USERR1
 40
0.0
  9
$USERR2
 40
0.0
  9
$USERR3
 40
0.0
  9
$USERR4
 40
0.0
  9
$USERR5
 40
0.0
  9
$WORLDVIEW
 70
     1
  9
$SHADEDGE
 70
     3
  9
$SHADEDIF
 70
    70
  9
$TILEMODE
 70
     1
  9
$MAXACTVP
 70
    64
  9
$PINSBASE
 10
0.0
 20
0.0
 30
0.0
  9
$PLIMCHECK
 70
     0
  9
$PEXTMIN
 10
1.000000000000000E+20
 20
1.000000000000000E+20
 30
1.000000000000000E+20
  9
$PEXTMAX
 10
-1.000000000000000E+20
 20
-1.000000000000000E+20
 30
-1.000000000000000E+20
  9
$PLIMMIN
 10
0.0
 20
0.0
  9
$PLIMMAX
 10
12.0
 20
9.0
  9
$UNITMODE
 70
     0
  9
$VISRETAIN
 70
     1
  9
$PLINEGEN
 70
     0
  9
$PSLTSCALE
 70
     1
  9
$TREEDEPTH
 70
  3020
  9
$CMLSTYLE
  2
Standard
  9
$CMLJUST
 70
     0
  9
$CMLSCALE
 40
1.0
  9
$PROXYGRAPHICS
 70
     1
  9
$MEASUREMENT
 70
     0
  9
$CELWEIGHT
370
    -1
  9
$ENDCAPS
280
     0
  9
$JOINSTYLE
280
     0
  9
$LWDISPLAY
290
     0
  9
$INSUNITS
 70
     1
  9
$HYPERLINKBASE
  1

  9
$STYLESHEET
  1

  9
$XEDIT
290
     1
  9
$CEPSNTYPE
380
     0
  9
$PSTYLEMODE
290
     1
  9
$FINGERPRINTGUID
  2
{7950689A-80A2-46E6-A392-24AE7EFBE40B}
  9
$VERSIONGUID
  2
{FAEB1C32-E019-11D5-929B-00C0DF256EC4}
  9
$EXTNAMES
290
     1
  9
$PSVPSCALE
 40
0.0
  9
$OLESTARTUP
290
     0
  9
$SORTENTS
280
   127
  9
$INDEXCTL
280
     0
  9
$HIDETEXT
280
     1
  9
$XCLIPFRAME
280
     2
  9
$HALOGAP
280
     0
  9
$OBSCOLOR
 70
   257
  9
$OBSLTYPE
280
     0
  9
$INTERSECTIONDISPLAY
280
     0
  9
$INTERSECTIONCOLOR
 70
   257
  9
$DIMASSOC
280
     2
  9
$PROJECTNAME
  1

  9
$CAMERADISPLAY
290
     0
  9
$LENSLENGTH
 40
50.0
  9
$CAMERAHEIGHT
 40
0.0
  9
$STEPSPERSEC
 40
2.0
  9
$STEPSIZE
 40
6.0
  9
$3DDWFPREC
 40
2.0
  9
$PSOLWIDTH
 40
0.25
  9
$PSOLHEIGHT
 40
4.0
  9
$LOFTANG1
 40
1.570796326794897
  9
$LOFTANG2
 40
1.570796326794897
  9
$LOFTMAG1
 40
0.0
  9
$LOFTMAG2
 40
0.0
  9
$LOFTPARAM
 70
     7
  9
$LOFTNORMALS
280
     1
  9
$LATITUDE
 40
37.795
  9
$LONGITUDE
 40
-122.394
  9
$NORTHDIRECTION
 40
0.0
  9
$TIMEZONE
 70
 -8000
  9
$LIGHTGLYPHDISPLAY
280
     1
  9
$TILEMODELIGHTSYNCH
280
     1
  9
$SOLIDHIST
280
     1
  9
$SHOWHIST
280
     1
  9
$DWFFRAME
280
     2
  9
$DGNFRAME
280
     2
  9
$REALWORLDSCALE
290
     1
  9
$INTERFERECOLOR
 62
   256
  9
$CSHADOW
280
     0
  9
$SHADOWPLANELOCATION
 40
0.0
  0
ENDSEC
  0
SECTION
  2
CLASSES
  0
CLASS
  1
ACDBDICTIONARYWDFLT
  2
AcDbDictionaryWithDefault
  3
ObjectDBX Classes
 90
        0
 91
        4
280
     0
281
     0
  0
CLASS
  1
VISUALSTYLE
  2
AcDbVisualStyle
  3
ObjectDBX Classes
 90
     4095
 91
        4
280
     0
281
     0
  0
CLASS
  1
MATERIAL
  2
AcDbMaterial
  3
ObjectDBX Classes
 90
     1153
 91
        4
280
     0
281
     0
  0
ENDSEC
  0
SECTION
  2
TABLES
  0
TABLE
  2
VPORT
  5
8
330
0
100
AcDbSymbolTable
 70
     1
  0
VPORT
  5
29
330
8
100
AcDbSymbolTableRecord
100
AcDbViewportTableRecord
  2
*Active
 70
     0
 10
0.0
 20
0.0
 11
1.0
 21
1.0
 12
0.0
 22
0.0
 13
0.0
 23
0.0
 14
0.5
 24
0.5
 15
0.5
 25
0.5
 16
0.0
 26
0.0
 36
1.0
 17
0.0
 27
0.0
 37
-1000.0
 40
125.4303141489695
 41
1.822857142857143
 42
50.0
 43
2962.788636882669
 44
3649.126109510285
 50
0.0
 51
0.0
 71
     0
 72
   100
 73
     1
 74
     3
 75
     0
 76
     0
 77
     0
 78
     0
281
     0
 65
     1
110
0.0
120
0.0
130
0.0
111
1.0
121
0.0
131
0.0
112
0.0
122
1.0
132
0.0
 79
     0
146
0.0
 60
     3
 61
     5
292
     1
282
     1
141
0.0
142
0.0
 63
   250
  0
ENDTAB
  0
TABLE
  2
LTYPE
  5
5
330
0
100
AcDbSymbolTable
 70
     1
  0
LTYPE
  5
14
330
5
100
AcDbSymbolTableRecord
100
AcDbLinetypeTableRecord
  2
ByBlock
 70
     0
  3

 72
    65
 73
     0
 40
0.0
  0
LTYPE
  5
15
330
5
100
AcDbSymbolTableRecord
100
AcDbLinetypeTableRecord
  2
ByLayer
 70
     0
  3

 72
    65
 73
     0
 40
0.0
  0
LTYPE
  5
16
330
5
100
AcDbSymbolTableRecord
100
AcDbLinetypeTableRecord
  2
Continuous
 70
     0
  3
Solid line
 72
    65
 73
     0
 40
0.0
  0
ENDTAB
  0
TABLE
  2
LAYER
  5
2
330
0
100
AcDbSymbolTable
 70
     3
  0
LAYER
  5
10
330
2
100
AcDbSymbolTableRecord
100
AcDbLayerTableRecord
  2
0
 70
     0
 62
     7
  6
Continuous
370
    -3
390
F
347
3E
  0
LAYER
  5
3F
330
2
100
AcDbSymbolTableRecord
100
AcDbLayerTableRecord
  2
ProfileEdges
 70
     0
 62
     7
  6
Continuous
370
    -3
390
F
347
3E
  0
LAYER
  5
40
330
2
100
AcDbSymbolTableRecord
100
AcDbLayerTableRecord
  2
SectionCutEdges
 70
     0
 62
     7
  6
Continuous
370
    -3
390
F
347
3E
  0
ENDTAB
  0
TABLE
  2
STYLE
  5
3
330
0
100
AcDbSymbolTable
 70
     1
  0
STYLE
  5
11
330
3
100
AcDbSymbolTableRecord
100
AcDbTextStyleTableRecord
  2
Standard
 70
     0
 40
0.0
 41
1.0
 50
0.0
 71
     0
 42
0.2
  3
txt
  4

  0
ENDTAB
  0
TABLE
  2
VIEW
  5
6
330
0
100
AcDbSymbolTable
 70
     0
  0
ENDTAB
  0
TABLE
  2
UCS
  5
7
330
0
100
AcDbSymbolTable
 70
     0
  0
ENDTAB
  0
TABLE
  2
APPID
  5
9
330
0
100
AcDbSymbolTable
 70
     1
  0
APPID
  5
12
330
9
100
AcDbSymbolTableRecord
100
AcDbRegAppTableRecord
  2
ACAD
 70
     0
  0
ENDTAB
  0
TABLE
  2
DIMSTYLE
  5
A
330
0
100
AcDbSymbolTable
 70
     1
100
AcDbDimStyleTable
  0
DIMSTYLE
105
27
330
A
100
AcDbSymbolTableRecord
100
AcDbDimStyleTableRecord
  2
Standard
 70
     0
340
11
  0
ENDTAB
  0
TABLE
  2
BLOCK_RECORD
  5
1
330
0
100
AcDbSymbolTable
 70
     1
  0
BLOCK_RECORD
  5
1F
330
1
100
AcDbSymbolTableRecord
100
AcDbBlockTableRecord
  2
*Model_Space
340
22
 70
     0
280
     1
281
     0
  0
BLOCK_RECORD
  5
1B
330
1
100
AcDbSymbolTableRecord
100
AcDbBlockTableRecord
  2
*Paper_Space
340
1E
 70
     0
280
     1
281
     0
  0
BLOCK_RECORD
  5
23
330
1
100
AcDbSymbolTableRecord
100
AcDbBlockTableRecord
  2
*Paper_Space0
340
26
 70
     0
280
     1
281
     0
  0
ENDTAB
  0
ENDSEC
  0
SECTION
  2
BLOCKS
  0
BLOCK
  5
20
330
1F
100
AcDbEntity
  8
0
100
AcDbBlockBegin
  2
*Model_Space
 70
     0
 10
0.0
 20
0.0
 30
0.0
  3
*Model_Space
  1

  0
ENDBLK
  5
21
330
1F
100
AcDbEntity
  8
0
100
AcDbBlockEnd
  0
BLOCK
  5
1C
330
1B
100
AcDbEntity
 67
     1
  8
0
100
AcDbBlockBegin
  2
*Paper_Space
 70
     0
 10
0.0
 20
0.0
 30
0.0
  3
*Paper_Space
  1

  0
ENDBLK
  5
1D
330
1B
100
AcDbEntity
 67
     1
  8
0
100
AcDbBlockEnd
  0
BLOCK
  5
24
330
23
100
AcDbEntity
  8
0
100
AcDbBlockBegin
  2
*Paper_Space0
 70
     0
 10
0.0
 20
0.0
 30
0.0
  3
*Paper_Space0
  1

  0
ENDBLK
  5
25
330
23
100
AcDbEntity
  8
0
100
AcDbBlockEnd
  0
ENDSEC
  0
SECTION
  2
ENTITIES
  0
LINE
  5
41
330
1F
100
AcDbEntity
  8
0
100
AcDbLine
 10
32.53649318573932
 20
-25.82811670890785
 30
0.0
 11
32.4365927712268
 21
-25.58693577330479
 31
0.0
  0
LINE
  5
42
330
1F
100
AcDbEntity
  8
0
100
AcDbLine
 10
32.4365927712268
 20
-25.58693577330479
 30
0.0
 11
32.27767416134232
 21
-25.3798290086868
 31
0.0
  0
LINE
  5
43
330
1F
100
AcDbEntity
  8
0
100
AcDbLine
 10
32.27767416134232
 20
-25.3798290086868
 30
0.0
 11
32.07056739672433
 21
-25.22091039880232
 31
0.0
  0
LINE
  5
44
330
1F
100
AcDbEntity
  8
0
100
AcDbLine
 10
32.07056739672433
 20
-25.22091039880232
 30
0.0
 11
31.82938646112145
 21
-25.12100998428979
 31
0.0
  0
LINE
  5
45
330
1F
100
AcDbEntity
  8
0
100
AcDbLine
 10
13.60210971239245
 20
-25.08693581330472
 30
0.0
 11
31.57056743672444
 21
-25.08693581330472
 31
0.0
  0
LINE
  5
46
330
1F
100
AcDbEntity
  8
0
100
AcDbLine
 10
13.34329068799543
 20
-25.12100998428979
 30
0.0
 11
13.60210971239245
 21
-25.08693581330472
 31
0.0
  0
LINE
  5
47
330
1F
100
AcDbEntity
  8
0
100
AcDbLine
 10
12.89500298777457
 20
-25.3798290086868
 30
0.0
 11
13.10210975239256
 21
-25.22091039880232
 31
0.0
  0
LINE
  5
48
330
1F
100
AcDbEntity
  8
0
100
AcDbLine
 10
37.07056699672449
 20
-42.45295982780722
 30
0.0
 11
36.82938606112143
 21
-42.55286024231975
 31
0.0
  0
LINE
  5
49
330
1F
100
AcDbEntity
  8
0
100
AcDbLine
 10
37.27767376134248
 20
-42.29404121792274
 30
0.0
 11
37.07056699672449
 21
-42.45295982780722
 31
0.0
  0
LINE
  5
4A
330
1F
100
AcDbEntity
  8
0
100
AcDbLine
 10
37.53649278573948
 20
-41.84575351770178
 30
0.0
 11
37.43659237122696
 21
-42.08693445330484
 31
0.0
  0
LINE
  5
4B
330
1F
100
AcDbEntity
  8
0
100
AcDbLine
 10
37.57056695672456
 20
-41.58693449330477
 30
0.0
 11
37.53649278573948
 21
-41.84575351770178
 31
0.0
  0
LINE
  5
4C
330
1F
100
AcDbEntity
  8
0
100
AcDbLine
 10
62.14569833004608
 20
-37.56887061940382
 30
0.0
 11
62.14569833004608
 21
-41.56887029940383
 31
0.0
  0
LINE
  5
4D
330
1F
100
AcDbEntity
  8
0
100
AcDbLine
 10
45.94570462215978
 20
-37.56887061940382
 30
0.0
 11
62.14569833004608
 21
-37.56887061940382
 31
0.0
  0
LINE
  5
4E
330
1F
100
AcDbEntity
  8
0
100
AcDbLine
 10
44.07724061371371
 20
-30.06887121940385
 30
0.0
 11
44.07724061371371
 21
-26.06887153940383
 31
0.0
  0
LINE
  5
4F
330
1F
100
AcDbEntity
  8
0
100
AcDbLine
 10
7.295756478478407
 20
38.73082554044449
 30
0.0
 11
7.125770634835265
 21
39.16889565273205
 31
0.0
  0
LINE
  5
50
330
1F
100
AcDbEntity
  8
0
100
AcDbLine
 10
7.125770634835265
 20
39.16889565273205
 30
0.0
 11
6.848196030206599
 21
39.54804331418338
 31
0.0
  0
LINE
  5
51
330
1F
100
AcDbEntity
  8
0
100
AcDbLine
 10
6.848196030206599
 20
39.54804331418338
 30
0.0
 11
6.481948915184159
 21
39.84243023824164
 31
0.0
  0
LINE
  5
52
330
1F
100
AcDbEntity
  8
0
100
AcDbLine
 10
6.481948915184159
 20
39.84243023824164
 30
0.0
 11
6.051988425404692
 21
40.03199444252952
 31
0.0
  0
LINE
  5
53
330
1F
100
AcDbEntity
  8
0
100
AcDbLine
 10
6.051988425404692
 20
40.03199444252952
 30
0.0
 11
5.587615657703284
 21
40.10381743979465
 31
0.0
  0
LINE
  5
54
330
1F
100
AcDbEntity
  8
0
100
AcDbLine
 10
71.93871096619777
 20
37.33961169156768
 30
0.0
 11
72.097629576082
 21
37.13250492694969
 31
0.0
  0
LINE
  5
55
330
1F
100
AcDbEntity
  8
0
100
AcDbLine
 10
-67.8047367006998
 20
42.35427493710895
 30
0.0
 11
-67.8047367006998
 21
49.15427439310871
 31
0.0
  0
LINE
  5
56
330
1F
100
AcDbEntity
  8
0
100
AcDbLine
 10
-97.8775265010127
 20
33.52706784942123
 30
0.0
 11
-98.16357999880465
 21
33.15427567310881
 31
0.0
  0
LINE
  5
57
330
1F
100
AcDbEntity
  8
0
100
AcDbLine
 10
-97.50473432470046
 20
33.81312134721305
 30
0.0
 11
-97.8775265010127
 21
33.52706784942123
 31
0.0
  0
LINE
  5
58
330
1F
100
AcDbEntity
  8
0
100
AcDbLine
 10
-97.0706086406151
 20
33.99294209333566
 30
0.0
 11
-97.50473432470046
 21
33.81312134721305
 31
0.0
  0
LINE
  5
59
330
1F
100
AcDbEntity
  8
0
100
AcDbLine
 10
-96.60473439670031
 20
34.0542756011088
 30
0.0
 11
-97.0706086406151
 21
33.99294209333566
 31
0.0
  0
LINE
  5
5A
330
1F
100
AcDbEntity
  8
0
100
AcDbLine
 10
-96.13886015278587
 20
33.99294209333566
 30
0.0
 11
-96.60473439670031
 21
34.0542756011088
 31
0.0
  0
LINE
  5
5B
330
1F
100
AcDbEntity
  8
0
100
AcDbLine
 10
21.54473022359612
 20
12.25357318965015
 30
0.0
 11
22.39386795852993
 21
12.90513949017622
 31
0.0
  0
LINE
  5
5C
330
1F
100
AcDbEntity
  8
0
100
AcDbLine
 10
19.49473038759603
 20
11.70427738910994
 30
0.0
 11
20.55588838762369
 21
11.84398149014856
 31
0.0
  0
LINE
  5
5D
330
1F
100
AcDbEntity
  8
0
100
AcDbLine
 10
68.30451688244305
 20
-42.53479604841881
 30
0.0
 11
68.04569785804604
 21
-42.56887021940388
 31
0.0
  0
LINE
  5
5E
330
1F
100
AcDbEntity
  8
0
100
AcDbLine
 10
68.91172319254841
 20
-42.06887025940381
 30
0.0
 11
68.75280458266391
 21
-42.2759770240218
 31
0.0
  0
LINE
  5
5F
330
1F
100
AcDbEntity
  8
0
100
AcDbLine
 10
69.01162360706093
 20
-41.82768932380085
 30
0.0
 11
68.91172319254841
 21
-42.06887025940381
 31
0.0
  0
LINE
  5
60
330
1F
100
AcDbEntity
  8
0
100
AcDbLine
 10
69.04569777804599
 20
-41.56887029940383
 30
0.0
 11
69.01162360706093
 21
-41.82768932380085
 31
0.0
  0
LINE
  5
61
330
1F
100
AcDbEntity
  8
0
100
AcDbLine
 10
64.04569817804602
 20
-26.06887153940383
 30
0.0
 11
64.04569817804602
 21
-30.06887121940385
 31
0.0
  0
LINE
  5
62
330
1F
100
AcDbEntity
  8
0
100
AcDbLine
 10
64.04569817804602
 20
-26.06887153940383
 30
0.0
 11
64.01162400706096
 21
-25.81005251500681
 31
0.0
  0
LINE
  5
63
330
1F
100
AcDbEntity
  8
0
100
AcDbLine
 10
64.01162400706096
 20
-25.81005251500681
 30
0.0
 11
63.91172359254843
 21
-25.56887157940385
 31
0.0
  0
LINE
  5
64
330
1F
100
AcDbEntity
  8
0
100
AcDbLine
 10
63.30451728244289
 20
-25.10294579038885
 30
0.0
 11
63.04569825804588
 21
-25.06887161940378
 31
0.0
  0
LINE
  5
65
330
1F
100
AcDbEntity
  8
0
100
AcDbLine
 10
-36.91884375579385
 20
-2.384387971117771
 30
0.0
 11
-36.45296951187923
 21
-2.445721478890719
 31
0.0
  0
LINE
  5
66
330
1F
100
AcDbEntity
  8
0
100
AcDbLine
 10
98.40473425270018
 20
52.39845621367198
 30
0.0
 11
97.97060856861482
 21
52.57827695979478
 31
0.0
  0
LINE
  5
67
330
1F
100
AcDbEntity
  8
0
100
AcDbLine
 10
39.37013420909599
 20
-42.2759770240218
 30
0.0
 11
39.21121559921151
 21
-42.06887025940381
 31
0.0
  0
LINE
  5
68
330
1F
100
AcDbEntity
  8
0
100
AcDbLine
 10
39.57724097371398
 20
-42.43489563390629
 30
0.0
 11
39.37013420909599
 21
-42.2759770240218
 31
0.0
  0
LINE
  5
69
330
1F
100
AcDbEntity
  8
0
100
AcDbLine
 10
-40.33845679882812
 20
-54.75427394510851
 30
0.0
 11
-40.30438262784368
 21
-55.0130929695048
 31
0.0
  0
LINE
  5
6A
330
1F
100
AcDbEntity
  8
0
100
AcDbLine
 10
-40.30438262784368
 20
-55.0130929695048
 30
0.0
 11
-40.20448221333016
 21
-55.25427390510836
 31
0.0
  0
LINE
  5
6B
330
1F
100
AcDbEntity
  8
0
100
AcDbLine
 10
-40.20448221333016
 20
-55.25427390510836
 30
0.0
 11
-40.04556360344586
 21
-55.46138066972647
 31
0.0
  0
LINE
  5
6C
330
1F
100
AcDbEntity
  8
0
100
AcDbLine
 10
-40.04556360344586
 20
-55.46138066972647
 30
0.0
 11
-39.83845683882832
 21
-55.62029927960987
 31
0.0
  0
LINE
  5
6D
330
1F
100
AcDbEntity
  8
0
100
AcDbLine
 10
-39.83845683882832
 20
-55.62029927960987
 30
0.0
 11
-39.59727590322481
 21
-55.72019969412389
 31
0.0
  0
LINE
  5
6E
330
1F
100
AcDbEntity
  8
0
100
AcDbLine
 10
-39.59727590322481
 20
-55.72019969412389
 30
0.0
 11
-39.33845687882852
 21
-55.7542738651083
 31
0.0
  0
LINE
  5
6F
330
1F
100
AcDbEntity
  8
0
100
AcDbLine
 10
-37.43326515346884
 20
-40.15427511310767
 30
0.0
 11
-37.43845703082849
 21
-33.55427564110786
 31
0.0
  0
LINE
  5
70
330
1F
100
AcDbEntity
  8
0
100
AcDbLine
 10
63.54569821804595
 20
-25.20284620490138
 30
0.0
 11
63.30451728244289
 21
-25.10294579038885
 31
0.0
  0
LINE
  5
71
330
1F
100
AcDbEntity
  8
0
100
AcDbLine
 10
63.75280498266394
 20
-25.36176481478586
 30
0.0
 11
63.54569821804595
 21
-25.20284620490138
 31
0.0
  0
LINE
  5
72
330
1F
100
AcDbEntity
  8
0
100
AcDbLine
 10
63.91172359254843
 20
-25.56887157940385
 30
0.0
 11
63.75280498266394
 21
-25.36176481478586
 31
0.0
  0
LINE
  5
73
330
1F
100
AcDbEntity
  8
0
100
AcDbLine
 10
63.14569825004604
 20
-42.56887021940388
 30
0.0
 11
68.04569785804604
 21
-42.56887021940388
 31
0.0
  0
LINE
  5
74
330
1F
100
AcDbEntity
  8
0
100
AcDbLine
 10
-98.16357999880465
 20
33.15427567310881
 30
0.0
 11
-98.34340074492745
 21
32.72014998902345
 31
0.0
  0
LINE
  5
75
330
1F
100
AcDbEntity
  8
0
100
AcDbLine
 10
-98.34340074492745
 20
32.72014998902345
 30
0.0
 11
-98.40473425270022
 21
32.25427574510883
 31
0.0
  0
LINE
  5
76
330
1F
100
AcDbEntity
  8
0
100
AcDbLine
 10
-98.40473425270022
 20
32.25427574510883
 30
0.0
 11
-98.34340074492745
 21
31.78840150119421
 31
0.0
  0
LINE
  5
77
330
1F
100
AcDbEntity
  8
0
100
AcDbLine
 10
-98.34340074492745
 20
31.78840150119421
 30
0.0
 11
-98.16357999880465
 21
31.35427581710885
 31
0.0
  0
LINE
  5
78
330
1F
100
AcDbEntity
  8
0
100
AcDbLine
 10
-56.35329794451863
 20
37.87703206201113
 30
0.0
 11
-56.18313852411765
 21
37.43902934287855
 31
0.0
  0
LINE
  5
79
330
1F
100
AcDbEntity
  8
0
100
AcDbLine
 10
-56.18313852411765
 20
37.43902934287855
 30
0.0
 11
-55.90541369984786
 21
37.0599917031868
 31
0.0
  0
LINE
  5
7A
330
1F
100
AcDbEntity
  8
0
100
AcDbLine
 10
-55.90541369984786
 20
37.0599917031868
 30
0.0
 11
-55.53904995952117
 21
36.76574993169168
 31
0.0
  0
LINE
  5
7B
330
1F
100
AcDbEntity
  8
0
100
AcDbLine
 10
23.49473006759627
 20
34.05427560111006
 30
0.0
 11
23.02885582368165
 21
33.99294209333711
 31
0.0
  0
LINE
  5
7C
330
1F
100
AcDbEntity
  8
0
100
AcDbLine
 10
23.96060431151089
 20
33.99294209333711
 30
0.0
 11
23.49473006759627
 21
34.05427560111006
 31
0.0
  0
LINE
  5
7D
330
1F
100
AcDbEntity
  8
0
100
AcDbLine
 10
24.39472999559643
 20
33.81312134721449
 30
0.0
 11
23.96060431151089
 21
33.99294209333711
 31
0.0
  0
LINE
  5
7E
330
1F
100
AcDbEntity
  8
0
100
AcDbLine
 10
24.76752217190884
 20
33.52706784942249
 30
0.0
 11
24.39472999559643
 21
33.81312134721449
 31
0.0
  0
LINE
  5
7F
330
1F
100
AcDbEntity
  8
0
100
AcDbLine
 10
25.23339641582328
 20
32.72014998902471
 30
0.0
 11
25.05357566970067
 21
33.15427567311008
 31
0.0
  0
LINE
  5
80
330
1F
100
AcDbEntity
  8
0
100
AcDbLine
 10
25.29472992359641
 20
32.25427574511009
 30
0.0
 11
25.23339641582328
 21
32.72014998902471
 31
0.0
  0
LINE
  5
81
330
1F
100
AcDbEntity
  8
0
100
AcDbLine
 10
25.23339641582328
 20
31.78840150119547
 30
0.0
 11
25.29472992359641
 21
32.25427574511009
 31
0.0
  0
LINE
  5
82
330
1F
100
AcDbEntity
  8
0
100
AcDbLine
 10
37.43659237122696
 20
-42.08693445330484
 30
0.0
 11
37.27767376134248
 21
-42.29404121792274
 31
0.0
  0
LINE
  5
83
330
1F
100
AcDbEntity
  8
0
100
AcDbLine
 10
23.04543425905599
 20
13.75427722511003
 30
0.0
 11
23.45502595855759
 21
14.74311906108237
 31
0.0
  0
LINE
  5
84
330
1F
100
AcDbEntity
  8
0
100
AcDbLine
 10
23.45502595855759
 20
14.74311906108237
 30
0.0
 11
23.59473005959602
 21
15.80427706111003
 31
0.0
  0
LINE
  5
85
330
1F
100
AcDbEntity
  8
0
100
AcDbLine
 10
14.49473078759645
 20
-24.14571974289143
 30
0.0
 11
14.49473078759645
 21
8.3151915658597
 31
0.0
  0
LINE
  5
86
330
1F
100
AcDbEntity
  8
0
100
AcDbLine
 10
14.49473078759645
 20
55.75427386510888
 30
0.0
 11
70.49472630759693
 21
55.75427386510888
 31
0.0
  0
LINE
  5
87
330
1F
100
AcDbEntity
  8
0
100
AcDbLine
 10
70.49472630759693
 20
55.75427386510888
 30
0.0
 11
70.49472630759693
 21
-24.14571974289143
 31
0.0
  0
LINE
  5
88
330
1F
100
AcDbEntity
  8
0
100
AcDbLine
 10
72.097629576082
 20
37.13250492694969
 30
0.0
 11
72.30473634070034
 21
36.97358631706521
 31
0.0
  0
LINE
  5
89
330
1F
100
AcDbEntity
  8
0
100
AcDbLine
 10
-1.252972327878566
 20
48.22029987161183
 30
0.0
 11
-1.494153263481443
 21
48.32020028612435
 31
0.0
  0
LINE
  5
8A
330
1F
100
AcDbEntity
  8
0
100
AcDbLine
 10
22.22193796328387
 20
30.98148364079752
 30
0.0
 11
22.59473013959629
 21
30.6954301430057
 31
0.0
  0
LINE
  5
8B
330
1F
100
AcDbEntity
  8
0
100
AcDbLine
 10
22.59473013959629
 20
30.6954301430057
 30
0.0
 11
23.02885582368165
 21
30.51560939688308
 31
0.0
  0
LINE
  5
8C
330
1F
100
AcDbEntity
  8
0
100
AcDbLine
 10
23.02885582368165
 20
30.51560939688308
 30
0.0
 11
23.49473006759627
 21
30.45427588910995
 31
0.0
  0
LINE
  5
8D
330
1F
100
AcDbEntity
  8
0
100
AcDbLine
 10
-28.13845777482829
 20
-33.55427564110832
 30
0.0
 11
-4.638459654827886
 21
-33.55427564110796
 31
0.0
  0
LINE
  5
8E
330
1F
100
AcDbEntity
  8
0
100
AcDbLine
 10
-4.638459654827886
 20
-33.55427564110796
 30
0.0
 11
-4.638459654828427
 21
-40.15427511310813
 31
0.0
  0
LINE
  5
8F
330
1F
100
AcDbEntity
  8
0
100
AcDbLine
 10
-4.638459654828427
 20
-40.15427511310813
 30
0.0
 11
-10.42099560334715
 21
-40.15427511310786
 31
0.0
  0
LINE
  5
90
330
1F
100
AcDbEntity
  8
0
100
AcDbLine
 10
-10.42099560334634
 20
-49.15427439310794
 30
0.0
 11
-10.42099560334715
 21
-40.15427511310786
 31
0.0
  0
LINE
  5
91
330
1F
100
AcDbEntity
  8
0
100
AcDbLine
 10
-5.138459614828407
 20
-49.15427439310839
 30
0.0
 11
-10.42099560334634
 21
-49.15427439310794
 31
0.0
  0
LINE
  5
92
330
1F
100
AcDbEntity
  8
0
100
AcDbLine
 10
-5.138459614828948
 20
-54.7542739451082
 30
0.0
 11
-5.138459614828407
 21
-49.15427439310839
 31
0.0
  0
LINE
  5
93
330
1F
100
AcDbEntity
  8
0
100
AcDbLine
 10
-5.138459614828948
 20
-54.7542739451082
 30
0.0
 11
-5.104385443843877
 21
-55.01309296950552
 31
0.0
  0
LINE
  5
94
330
1F
100
AcDbEntity
  8
0
100
AcDbLine
 10
-39.79727588722495
 20
-18.98835098009224
 30
0.0
 11
-39.53845686282811
 21
-18.95427680910753
 31
0.0
  0
LINE
  5
95
330
1F
100
AcDbEntity
  8
0
100
AcDbLine
 10
96.60473439670012
 20
2.280768769462926
 30
0.0
 11
97.03886008078567
 21
2.100948023340306
 31
0.0
  0
LINE
  5
96
330
1F
100
AcDbEntity
  8
0
100
AcDbLine
 10
94.50473456470023
 20
15.45707703104737
 30
0.0
 11
94.60695707765508
 21
14.68061995785633
 31
0.0
  0
LINE
  5
97
330
1F
100
AcDbEntity
  8
0
100
AcDbLine
 10
95.9458887225958
 20
4.739614299567574
 30
0.0
 11
95.7660679764731
 21
4.305488615481853
 31
0.0
  0
LINE
  5
98
330
1F
100
AcDbEntity
  8
0
100
AcDbLine
 10
72.54591727630304
 20
46.8055367605825
 30
0.0
 11
72.30473634070034
 21
46.70563634606979
 31
0.0
  0
LINE
  5
99
330
1F
100
AcDbEntity
  8
0
100
AcDbLine
 10
96.00473444469989
 20
18.05515303455482
 30
0.0
 11
95.38341415084602
 21
17.57839720490154
 31
0.0
  0
LINE
  5
9A
330
1F
100
AcDbEntity
  8
0
100
AcDbLine
 10
-44.55296886387946
 20
15.8042770611094
 30
0.0
 11
-44.41326476284085
 21
14.74311906108174
 31
0.0
  0
LINE
  5
9B
330
1F
100
AcDbEntity
  8
0
100
AcDbLine
 10
-36.49267362091791
 20
14.74311906108174
 30
0.0
 11
-36.35296951987947
 21
15.8042770611094
 31
0.0
  0
LINE
  5
9C
330
1F
100
AcDbEntity
  8
0
100
AcDbLine
 10
-30.79967362949343
 20
-42.532954579254
 30
0.0
 11
-31.42099392334856
 21
-42.05619874960108
 31
0.0
  0
LINE
  5
9D
330
1F
100
AcDbEntity
  8
0
100
AcDbLine
 10
108.6047334367002
 20
21.95188834658036
 30
0.0
 11
108.5706592657154
 21
22.21070737097738
 31
0.0
  0
LINE
  5
9E
330
1F
100
AcDbEntity
  8
0
100
AcDbLine
 10
98.28119139789142
 20
12.55929978400234
 30
0.0
 11
99.00473420470021
 21
12.8590010275401
 31
0.0
  0
LINE
  5
9F
330
1F
100
AcDbEntity
  8
0
100
AcDbLine
 10
108.3118402413184
 20
22.65899507119878
 30
0.0
 11
108.1047334767002
 21
22.81791368108273
 31
0.0
  0
LINE
  5
A0
330
1F
100
AcDbEntity
  8
0
100
AcDbLine
 10
94.60695707765498
 20
16.23353410423859
 30
0.0
 11
94.50473456470023
 21
15.45707703104737
 31
0.0
  0
LINE
  5
A1
330
1F
100
AcDbEntity
  8
0
100
AcDbLine
 10
-57.40473753269976
 20
-17.54572027089135
 30
0.0
 11
-67.8047367006998
 21
-17.54572027089135
 31
0.0
  0
LINE
  5
A2
330
1F
100
AcDbEntity
  8
0
100
AcDbLine
 10
-67.8047367006998
 20
-17.54572027089135
 30
0.0
 11
-67.8047367006998
 21
-10.74572081489132
 31
0.0
  0
LINE
  5
A3
330
1F
100
AcDbEntity
  8
0
100
AcDbLine
 10
-67.8047367006998
 20
49.15427439310871
 30
0.0
 11
-57.40473753269976
 21
49.15427439310871
 31
0.0
  0
LINE
  5
A4
330
1F
100
AcDbEntity
  8
0
100
AcDbLine
 10
-57.40473753269976
 20
49.15427439310871
 30
0.0
 11
-57.40473753269976
 21
42.35427493710895
 31
0.0
  0
LINE
  5
A5
330
1F
100
AcDbEntity
  8
0
100
AcDbLine
 10
-57.40473753269976
 20
42.35427493710895
 30
0.0
 11
-67.8047367006998
 21
42.35427493710895
 31
0.0
  0
LINE
  5
A6
330
1F
100
AcDbEntity
  8
0
100
AcDbLine
 10
22.39386795852993
 20
12.90513949017622
 30
0.0
 11
23.04543425905599
 21
13.75427722511003
 31
0.0
  0
LINE
  5
A7
330
1F
100
AcDbEntity
  8
0
100
AcDbLine
 10
-42.79979011460144
 20
-45.12014899702288
 30
0.0
 11
-42.73845660682868
 21
-44.65427475310857
 31
0.0
  0
LINE
  5
A8
330
1F
100
AcDbEntity
  8
0
100
AcDbLine
 10
-42.97961086072406
 20
-45.55427468110761
 30
0.0
 11
-42.79979011460144
 21
-45.12014899702288
 31
0.0
  0
LINE
  5
A9
330
1F
100
AcDbEntity
  8
0
100
AcDbLine
 10
-43.26566435851588
 20
-45.92706685742024
 30
0.0
 11
-42.97961086072406
 21
-45.55427468110761
 31
0.0
  0
LINE
  5
AA
330
1F
100
AcDbEntity
  8
0
100
AcDbLine
 10
-43.6384565348282
 20
-46.21312035521225
 30
0.0
 11
-43.26566435851588
 21
-45.92706685742024
 31
0.0
  0
LINE
  5
AB
330
1F
100
AcDbEntity
  8
0
100
AcDbLine
 10
-44.07258221891356
 20
-46.39294110133482
 30
0.0
 11
-43.6384565348282
 21
-46.21312035521225
 31
0.0
  0
LINE
  5
AC
330
1F
100
AcDbEntity
  8
0
100
AcDbLine
 10
-44.53845646282854
 20
-46.45427460910836
 30
0.0
 11
-44.07258221891356
 21
-46.39294110133482
 31
0.0
  0
LINE
  5
AD
330
1F
100
AcDbEntity
  8
0
100
AcDbLine
 10
-45.00433070674308
 20
-46.39294110133545
 30
0.0
 11
-44.53845646282854
 21
-46.45427460910836
 31
0.0
  0
LINE
  5
AE
330
1F
100
AcDbEntity
  8
0
100
AcDbLine
 10
-40.53845678282844
 20
-19.95427672910704
 30
0.0
 11
-40.50438261184382
 21
-19.69545770471079
 31
0.0
  0
LINE
  5
AF
330
1F
100
AcDbEntity
  8
0
100
AcDbLine
 10
-40.53845678282844
 20
-19.95427672910704
 30
0.0
 11
-40.53845678282871
 21
-25.55427628110819
 31
0.0
  0
LINE
  5
B0
330
1F
100
AcDbEntity
  8
0
100
AcDbLine
 10
-40.53845678282871
 20
-25.55427628110819
 30
0.0
 11
-48.53845614282847
 21
-25.55427628110783
 31
0.0
  0
LINE
  5
B1
330
1F
100
AcDbEntity
  8
0
100
AcDbLine
 10
-48.53845614282811
 20
-49.1542743931083
 30
0.0
 11
-48.53845614282847
 21
-25.55427628110783
 31
0.0
  0
LINE
  5
B2
330
1F
100
AcDbEntity
  8
0
100
AcDbLine
 10
-40.33845679882794
 20
-49.15427439310848
 30
0.0
 11
-48.53845614282811
 21
-49.1542743931083
 31
0.0
  0
LINE
  5
B3
330
1F
100
AcDbEntity
  8
0
100
AcDbLine
 10
-40.33845679882794
 20
-49.15427439310848
 30
0.0
 11
-40.33845679882812
 21
-54.75427394510851
 31
0.0
  0
LINE
  5
B4
330
1F
100
AcDbEntity
  8
0
100
AcDbLine
 10
-55.01164476531403
 20
-43.7116385813964
 30
0.0
 11
-55.2976982631055
 21
-44.08443075770882
 31
0.0
  0
LINE
  5
B5
330
1F
100
AcDbEntity
  8
0
100
AcDbLine
 10
-54.63885258900144
 20
-43.4255850836044
 30
0.0
 11
-55.01164476531403
 21
-43.7116385813964
 31
0.0
  0
LINE
  5
B6
330
1F
100
AcDbEntity
  8
0
100
AcDbLine
 10
-54.2047269049159
 20
-43.24576433748178
 30
0.0
 11
-54.63885258900144
 21
-43.4255850836044
 31
0.0
  0
LINE
  5
B7
330
1F
100
AcDbEntity
  8
0
100
AcDbLine
 10
-53.73885266100146
 20
-43.18443082970883
 30
0.0
 11
-54.2047269049159
 21
-43.24576433748178
 31
0.0
  0
LINE
  5
B8
330
1F
100
AcDbEntity
  8
0
100
AcDbLine
 10
-53.27297841708666
 20
-43.24576433748178
 30
0.0
 11
-53.73885266100146
 21
-43.18443082970883
 31
0.0
  0
LINE
  5
B9
330
1F
100
AcDbEntity
  8
0
100
AcDbLine
 10
-52.8388527330013
 20
-43.4255850836044
 30
0.0
 11
-53.27297841708666
 21
-43.24576433748178
 31
0.0
  0
LINE
  5
BA
330
1F
100
AcDbEntity
  8
0
100
AcDbLine
 10
1.561539849171556
 20
-46.21312035521252
 30
0.0
 11
1.995665533257007
 21
-46.39294110133446
 31
0.0
  0
LINE
  5
BB
330
1F
100
AcDbEntity
  8
0
100
AcDbLine
 10
1.188747672859506
 20
-45.92706685742156
 30
0.0
 11
1.561539849171556
 21
-46.21312035521252
 31
0.0
  0
LINE
  5
BC
330
1F
100
AcDbEntity
  8
0
100
AcDbLine
 10
0.7228734289444327
 20
-45.12014899702206
 30
0.0
 11
0.9026941750677743
 21
-45.55427468110847
 31
0.0
  0
LINE
  5
BD
330
1F
100
AcDbEntity
  8
0
100
AcDbLine
 10
0.6615399211722968
 20
-44.65427475310803
 30
0.0
 11
0.7228734289444327
 21
-45.12014899702206
 31
0.0
  0
LINE
  5
BE
330
1F
100
AcDbEntity
  8
0
100
AcDbLine
 10
0.7228734289448839
 20
-44.18840050919323
 30
0.0
 11
0.6615399211722968
 21
-44.65427475310803
 31
0.0
  0
LINE
  5
BF
330
1F
100
AcDbEntity
  8
0
100
AcDbLine
 10
0.9026941750683157
 20
-43.75427482510841
 30
0.0
 11
0.7228734289448839
 21
-44.18840050919323
 31
0.0
  0
LINE
  5
C0
330
1F
100
AcDbEntity
  8
0
100
AcDbLine
 10
-35.5012104775566
 20
-49.16669151455956
 30
0.0
 11
-30.30505847054243
 21
-49.16669151455961
 31
0.0
  0
LINE
  5
C1
330
1F
100
AcDbEntity
  8
0
100
AcDbLine
 10
72.30473634070007
 20
7.973588637064847
 30
0.0
 11
72.0976295760821
 21
8.132507246949514
 31
0.0
  0
LINE
  5
C2
330
1F
100
AcDbEntity
  8
0
100
AcDbLine
 10
78.40473585270009
 20
7.839614051567069
 30
0.0
 11
78.4047358527
 21
-0.1603853084328778
 31
0.0
  0
LINE
  5
C3
330
1F
100
AcDbEntity
  8
0
100
AcDbLine
 10
95.76606797647301
 20
3.373740127652519
 30
0.0
 11
95.94588872259563
 21
2.939614443567339
 31
0.0
  0
LINE
  5
C4
330
1F
100
AcDbEntity
  8
0
100
AcDbLine
 10
-5.104385443843877
 20
-55.01309296950552
 30
0.0
 11
-5.00448502933081
 21
-55.25427390510809
 31
0.0
  0
LINE
  5
C5
330
1F
100
AcDbEntity
  8
0
100
AcDbLine
 10
-5.00448502933081
 20
-55.25427390510809
 30
0.0
 11
-4.845566419446866
 21
-55.46138066972549
 31
0.0
  0
LINE
  5
C6
330
1F
100
AcDbEntity
  8
0
100
AcDbLine
 10
-4.845566419446866
 20
-55.46138066972549
 30
0.0
 11
-4.63845965482906
 21
-55.62029927961105
 31
0.0
  0
LINE
  5
C7
330
1F
100
AcDbEntity
  8
0
100
AcDbLine
 10
-4.63845965482906
 20
-55.62029927961105
 30
0.0
 11
-4.397278719225549
 21
-55.72019969412308
 31
0.0
  0
LINE
  5
C8
330
1F
100
AcDbEntity
  8
0
100
AcDbLine
 10
-4.397278719225549
 20
-55.72019969412308
 30
0.0
 11
-4.138459694828899
 21
-55.75427386510847
 31
0.0
  0
LINE
  5
C9
330
1F
100
AcDbEntity
  8
0
100
AcDbLine
 10
96.60473439670012
 20
52.39845621367181
 30
0.0
 11
96.2319422203879
 21
52.1124027158798
 31
0.0
  0
LINE
  5
CA
330
1F
100
AcDbEntity
  8
0
100
AcDbLine
 10
99.24340067292721
 20
4.305488615482033
 30
0.0
 11
99.0635799268046
 21
4.739614299567574
 31
0.0
  0
LINE
  5
CB
330
1F
100
AcDbEntity
  8
0
100
AcDbLine
 10
44.37013380909578
 20
-25.36176481478586
 30
0.0
 11
44.57724057371377
 21
-25.20284620490138
 31
0.0
  0
LINE
  5
CC
330
1F
100
AcDbEntity
  8
0
100
AcDbLine
 10
-53.73949183846332
 20
-5.117320371476294
 30
0.0
 11
-54.17749455759535
 21
-4.947160951073869
 31
0.0
  0
LINE
  5
CD
330
1F
100
AcDbEntity
  8
0
100
AcDbLine
 10
-54.17749455759535
 20
-4.947160951073869
 30
0.0
 11
-54.64461319469354
 21
-4.896163017838771
 31
0.0
  0
LINE
  5
CE
330
1F
100
AcDbEntity
  8
0
100
AcDbLine
 10
-54.64461319469354
 20
-4.896163017838771
 30
0.0
 11
-55.10901438658981
 21
-4.967801996643046
 31
0.0
  0
LINE
  5
CF
330
1F
100
AcDbEntity
  8
0
100
AcDbLine
 10
-55.10901438658981
 20
-4.967801996643046
 30
0.0
 11
-55.53904995951558
 21
-5.157195809469993
 31
0.0
  0
LINE
  5
D0
330
1F
100
AcDbEntity
  8
0
100
AcDbLine
 10
-55.53904995951558
 20
-5.157195809469993
 30
0.0
 11
-55.90541369984334
 21
-5.451437580963845
 31
0.0
  0
LINE
  5
D1
330
1F
100
AcDbEntity
  8
0
100
AcDbLine
 10
-55.90541369984334
 20
-5.451437580963845
 30
0.0
 11
-56.18313852411459
 21
-5.830475220654516
 31
0.0
  0
LINE
  5
D2
330
1F
100
AcDbEntity
  8
0
100
AcDbLine
 10
-56.18313852411459
 20
-5.830475220654516
 30
0.0
 11
-56.35329794451701
 21
-6.268477939786556
 31
0.0
  0
LINE
  5
D3
330
1F
100
AcDbEntity
  8
0
100
AcDbLine
 10
-24.70396852278784
 20
34.55427556110941
 30
0.0
 11
-24.70396852278784
 21
27.6542761131093
 31
0.0
  0
LINE
  5
D4
330
1F
100
AcDbEntity
  8
0
100
AcDbLine
 10
-24.70396852278784
 20
27.6542761131093
 30
0.0
 11
-17.33550495434153
 21
27.6542761131093
 31
0.0
  0
LINE
  5
D5
330
1F
100
AcDbEntity
  8
0
100
AcDbLine
 10
-1.635511206455531
 20
34.55427556110959
 30
0.0
 11
-1.635511206455531
 21
27.65427611310967
 31
0.0
  0
LINE
  5
D6
330
1F
100
AcDbEntity
  8
0
100
AcDbLine
 10
6.064488177544572
 20
34.55427556110959
 30
0.0
 11
-1.635511206455531
 21
34.55427556110959
 31
0.0
  0
LINE
  5
D7
330
1F
100
AcDbEntity
  8
0
100
AcDbLine
 10
-1.635511206455531
 20
27.65427611310967
 30
0.0
 11
6.064488177544572
 21
27.65427611310967
 31
0.0
  0
LINE
  5
D8
330
1F
100
AcDbEntity
  8
0
100
AcDbLine
 10
6.064488177544572
 20
27.65427611310967
 30
0.0
 11
6.064488177544572
 21
34.55427556110959
 31
0.0
  0
LINE
  5
D9
330
1F
100
AcDbEntity
  8
0
100
AcDbLine
 10
-17.33550495434117
 20
3.95427800910931
 30
0.0
 11
-24.7039685227873
 21
3.95427800910931
 31
0.0
  0
LINE
  5
DA
330
1F
100
AcDbEntity
  8
0
100
AcDbLine
 10
-1.63551120645517
 20
3.954278009109671
 30
0.0
 11
-1.63551120645517
 21
-2.945721438890429
 31
0.0
  0
LINE
  5
DB
330
1F
100
AcDbEntity
  8
0
100
AcDbLine
 10
-24.7039685227873
 20
-2.9457214388907
 30
0.0
 11
-17.33550495434117
 21
-2.9457214388907
 31
0.0
  0
LINE
  5
DC
330
1F
100
AcDbEntity
  8
0
100
AcDbLine
 10
-24.7039685227873
 20
3.95427800910931
 30
0.0
 11
-24.7039685227873
 21
-2.9457214388907
 31
0.0
  0
LINE
  5
DD
330
1F
100
AcDbEntity
  8
0
100
AcDbLine
 10
6.064488177544932
 20
-2.945721438890429
 30
0.0
 11
6.064488177544932
 21
3.954278009109671
 31
0.0
  0
LINE
  5
DE
330
1F
100
AcDbEntity
  8
0
100
AcDbLine
 10
96.72827725150916
 20
18.35485427809203
 30
0.0
 11
96.00473444469989
 21
18.05515303455482
 31
0.0
  0
LINE
  5
DF
330
1F
100
AcDbEntity
  8
0
100
AcDbLine
 10
95.38341415084602
 20
17.57839720490154
 30
0.0
 11
94.90665832119302
 21
16.95707691104758
 31
0.0
  0
LINE
  5
E0
330
1F
100
AcDbEntity
  8
0
100
AcDbLine
 10
96.23194222038799
 20
5.112406475879985
 30
0.0
 11
95.9458887225958
 21
4.739614299567574
 31
0.0
  0
LINE
  5
E1
330
1F
100
AcDbEntity
  8
0
100
AcDbLine
 10
108.1047334767004
 20
8.173588621065344
 30
0.0
 11
108.3118402413184
 21
8.33250723094965
 31
0.0
  0
LINE
  5
E2
330
1F
100
AcDbEntity
  8
0
100
AcDbLine
 10
78.40473585270027
 20
54.8396102915676
 30
0.0
 11
78.40473585270036
 21
46.83961093156774
 31
0.0
  0
LINE
  5
E3
330
1F
100
AcDbEntity
  8
0
100
AcDbLine
 10
71.80473638070009
 20
37.83961165156757
 30
0.0
 11
71.83881055168499
 21
37.58079262717055
 31
0.0
  0
LINE
  5
E4
330
1F
100
AcDbEntity
  8
0
100
AcDbLine
 10
-37.64707864442381
 20
-16.6118768276062
 30
0.0
 11
-37.40599816888762
 21
-16.71168008884807
 31
0.0
  0
LINE
  5
E5
330
1F
100
AcDbEntity
  8
0
100
AcDbLine
 10
-37.40599816888762
 20
-16.71168008884807
 30
0.0
 11
-37.14730578730546
 21
-16.74572033489099
 31
0.0
  0
LINE
  5
E6
330
1F
100
AcDbEntity
  8
0
100
AcDbLine
 10
-1.494153263481443
 20
48.32020028612435
 30
0.0
 11
-1.752972287878455
 21
48.35427445710943
 31
0.0
  0
LINE
  5
E7
330
1F
100
AcDbEntity
  8
0
100
AcDbLine
 10
72.54591727630323
 20
7.873688222552321
 30
0.0
 11
72.30473634070007
 21
7.973588637064847
 31
0.0
  0
LINE
  5
E8
330
1F
100
AcDbEntity
  8
0
100
AcDbLine
 10
100.1028103282075
 20
13.95707715104716
 30
0.0
 11
100.4025115717453
 21
14.68061995785651
 31
0.0
  0
LINE
  5
E9
330
1F
100
AcDbEntity
  8
0
100
AcDbLine
 10
100.4025115717453
 20
14.68061995785651
 30
0.0
 11
100.5047340847001
 21
15.45707703104737
 31
0.0
  0
LINE
  5
EA
330
1F
100
AcDbEntity
  8
0
100
AcDbLine
 10
100.5047340847001
 20
15.45707703104737
 30
0.0
 11
100.4025115717456
 21
16.23353410423877
 31
0.0
  0
LINE
  5
EB
330
1F
100
AcDbEntity
  8
0
100
AcDbLine
 10
100.4025115717456
 20
16.23353410423877
 30
0.0
 11
100.1028103282075
 21
16.95707691104722
 31
0.0
  0
LINE
  5
EC
330
1F
100
AcDbEntity
  8
0
100
AcDbLine
 10
100.1028103282075
 20
16.95707691104722
 30
0.0
 11
99.62605449855408
 21
17.57839720490154
 31
0.0
  0
LINE
  5
ED
330
1F
100
AcDbEntity
  8
0
100
AcDbLine
 10
99.62605449855408
 20
17.57839720490154
 30
0.0
 11
99.0047342047004
 21
18.05515303455482
 31
0.0
  0
LINE
  5
EE
330
1F
100
AcDbEntity
  8
0
100
AcDbLine
 10
99.0047342047004
 20
18.05515303455482
 30
0.0
 11
98.28119139789142
 21
18.35485427809276
 31
0.0
  0
LINE
  5
EF
330
1F
100
AcDbEntity
  8
0
100
AcDbLine
 10
98.28119139789142
 20
18.35485427809276
 30
0.0
 11
97.50473432470028
 21
18.45707679104761
 31
0.0
  0
LINE
  5
F0
330
1F
100
AcDbEntity
  8
0
100
AcDbLine
 10
97.50473432470028
 20
18.45707679104761
 30
0.0
 11
96.72827725150916
 21
18.35485427809203
 31
0.0
  0
LINE
  5
F1
330
1F
100
AcDbEntity
  8
0
100
AcDbLine
 10
94.90665832119302
 20
16.95707691104758
 30
0.0
 11
94.60695707765498
 21
16.23353410423859
 31
0.0
  0
LINE
  5
F2
330
1F
100
AcDbEntity
  8
0
100
AcDbLine
 10
94.60695707765508
 20
14.68061995785633
 30
0.0
 11
94.90665832119284
 21
13.95707715104734
 31
0.0
  0
LINE
  5
F3
330
1F
100
AcDbEntity
  8
0
100
AcDbLine
 10
94.90665832119284
 20
13.95707715104734
 30
0.0
 11
95.38341415084629
 21
13.33575685719338
 31
0.0
  0
LINE
  5
F4
330
1F
100
AcDbEntity
  8
0
100
AcDbLine
 10
95.38341415084629
 20
13.33575685719338
 30
0.0
 11
96.00473444470016
 21
12.8590010275401
 31
0.0
  0
LINE
  5
F5
330
1F
100
AcDbEntity
  8
0
100
AcDbLine
 10
96.00473444470016
 20
12.8590010275401
 30
0.0
 11
96.72827725150924
 21
12.55929978400252
 31
0.0
  0
LINE
  5
F6
330
1F
100
AcDbEntity
  8
0
100
AcDbLine
 10
96.72827725150924
 20
12.55929978400252
 30
0.0
 11
97.50473432470011
 21
12.45707727104713
 31
0.0
  0
LINE
  5
F7
330
1F
100
AcDbEntity
  8
0
100
AcDbLine
 10
97.50473432470011
 20
12.45707727104713
 30
0.0
 11
98.28119139789142
 21
12.55929978400234
 31
0.0
  0
LINE
  5
F8
330
1F
100
AcDbEntity
  8
0
100
AcDbLine
 10
99.00473420470021
 20
12.8590010275401
 30
0.0
 11
99.62605449855418
 21
13.33575685719338
 31
0.0
  0
LINE
  5
F9
330
1F
100
AcDbEntity
  8
0
100
AcDbLine
 10
99.62605449855418
 20
13.33575685719338
 30
0.0
 11
100.1028103282075
 21
13.95707715104716
 31
0.0
  0
LINE
  5
FA
330
1F
100
AcDbEntity
  8
0
100
AcDbLine
 10
0.9026941750677743
 20
-45.55427468110847
 30
0.0
 11
1.188747672859506
 21
-45.92706685742156
 31
0.0
  0
LINE
  5
FB
330
1F
100
AcDbEntity
  8
0
100
AcDbLine
 10
-97.8775265010127
 20
30.98148364079644
 30
0.0
 11
-97.50473432470046
 21
30.69543014300444
 31
0.0
  0
LINE
  5
FC
330
1F
100
AcDbEntity
  8
0
100
AcDbLine
 10
-97.50473432470046
 20
30.69543014300444
 30
0.0
 11
-97.0706086406151
 21
30.51560939688181
 31
0.0
  0
LINE
  5
FD
330
1F
100
AcDbEntity
  8
0
100
AcDbLine
 10
-97.0706086406151
 20
30.51560939688181
 30
0.0
 11
-96.60473439670031
 21
30.45427588910887
 31
0.0
  0
LINE
  5
FE
330
1F
100
AcDbEntity
  8
0
100
AcDbLine
 10
-96.60473439670031
 20
30.45427588910887
 30
0.0
 11
-96.13886015278587
 21
30.51560939688181
 31
0.0
  0
LINE
  5
FF
330
1F
100
AcDbEntity
  8
0
100
AcDbLine
 10
108.1047334767002
 20
22.81791368108273
 30
0.0
 11
107.8635525410971
 21
22.91781409559525
 31
0.0
  0
LINE
  5
100
330
1F
100
AcDbEntity
  8
0
100
AcDbLine
 10
64.04569817804602
 20
-30.06887121940385
 30
0.0
 11
69.04569777804599
 21
-30.06887121940385
 31
0.0
  0
LINE
  5
101
330
1F
100
AcDbEntity
  8
0
100
AcDbLine
 10
-17.33550495434117
 20
3.95427800910931
 30
0.0
 11
-17.33550495434153
 21
27.6542761131093
 31
0.0
  0
LINE
  5
102
330
1F
100
AcDbEntity
  8
0
100
AcDbLine
 10
-17.33550495434153
 20
34.55427556110941
 30
0.0
 11
-17.33550495434172
 21
40.8042649099682
 31
0.0
  0
LINE
  5
103
330
1F
100
AcDbEntity
  8
0
100
AcDbLine
 10
-79.65573382360911
 20
34.55427556110887
 30
0.0
 11
-59.28727629127694
 21
34.55427556110923
 31
0.0
  0
LINE
  5
104
330
1F
100
AcDbEntity
  8
0
100
AcDbLine
 10
10.54702672812171
 20
-10.74572081489033
 30
0.0
 11
-0.7529723678784961
 21
-10.74572081489033
 31
0.0
  0
LINE
  5
105
330
1F
100
AcDbEntity
  8
0
100
AcDbLine
 10
-0.7529723678784961
 20
-10.74572081489033
 30
0.0
 11
-0.7529723678784961
 21
-15.74572041489139
 31
0.0
  0
LINE
  5
106
330
1F
100
AcDbEntity
  8
0
100
AcDbLine
 10
-33.55296974387878
 20
-10.74572081489078
 30
0.0
 11
-33.55296974387878
 21
-15.74572041489121
 31
0.0
  0
LINE
  5
107
330
1F
100
AcDbEntity
  8
0
100
AcDbLine
 10
10.54702672812171
 20
42.35427493710967
 30
0.0
 11
10.54702672812171
 21
-10.74572081489033
 31
0.0
  0
LINE
  5
108
330
1F
100
AcDbEntity
  8
0
100
AcDbLine
 10
10.54702672812171
 20
42.35427493710967
 30
0.0
 11
-0.7529723678784961
 21
42.35427493710967
 31
0.0
  0
LINE
  5
109
330
1F
100
AcDbEntity
  8
0
100
AcDbLine
 10
70.49472630759693
 20
-24.14571974289143
 30
0.0
 11
14.49473078759645
 21
-24.14571974289143
 31
0.0
  0
LINE
  5
10A
330
1F
100
AcDbEntity
  8
0
100
AcDbLine
 10
14.49473078759645
 20
23.29336255636009
 30
0.0
 11
14.49473078759645
 21
55.75427386510888
 31
0.0
  0
LINE
  5
10B
330
1F
100
AcDbEntity
  8
0
100
AcDbLine
 10
11.49473102759603
 20
20.29336279636003
 30
0.0
 11
14.49473078759645
 21
23.29336255636009
 31
0.0
  0
LINE
  5
10C
330
1F
100
AcDbEntity
  8
0
100
AcDbLine
 10
11.49473102759603
 20
20.29336279636003
 30
0.0
 11
11.49473102759603
 21
11.31519132585967
 31
0.0
  0
LINE
  5
10D
330
1F
100
AcDbEntity
  8
0
100
AcDbLine
 10
11.49473102759603
 20
11.31519132585967
 30
0.0
 11
14.49473078759645
 21
8.3151915658597
 31
0.0
  0
LINE
  5
10E
330
1F
100
AcDbEntity
  8
0
100
AcDbLine
 10
53.61218874902019
 20
-9.195710787748858
 30
0.0
 11
42.61219462513401
 21
-9.195710787748496
 31
0.0
  0
LINE
  5
10F
330
1F
100
AcDbEntity
  8
0
100
AcDbLine
 10
42.61219462513401
 20
-9.195710787748496
 30
0.0
 11
42.61219462513347
 21
40.80426490996874
 31
0.0
  0
LINE
  5
110
330
1F
100
AcDbEntity
  8
0
100
AcDbLine
 10
42.61219462513347
 20
40.80426490996874
 30
0.0
 11
53.61218874901956
 21
40.80426490996874
 31
0.0
  0
LINE
  5
111
330
1F
100
AcDbEntity
  8
0
100
AcDbLine
 10
53.61218874901956
 20
40.80426490996874
 30
0.0
 11
53.61218874902019
 21
-9.195710787748858
 31
0.0
  0
LINE
  5
112
330
1F
100
AcDbEntity
  8
0
100
AcDbLine
 10
23.45502595855759
 20
16.86543506113769
 30
0.0
 11
23.04543425905599
 21
17.85427689710994
 31
0.0
  0
LINE
  5
113
330
1F
100
AcDbEntity
  8
0
100
AcDbLine
 10
23.59473005959602
 20
15.80427706111003
 30
0.0
 11
23.45502595855759
 21
16.86543506113769
 31
0.0
  0
LINE
  5
114
330
1F
100
AcDbEntity
  8
0
100
AcDbLine
 10
20.55588838762369
 20
11.84398149014856
 30
0.0
 11
21.54473022359612
 21
12.25357318965015
 31
0.0
  0
LINE
  5
115
330
1F
100
AcDbEntity
  8
0
100
AcDbLine
 10
18.43357238756836
 20
11.84398149014856
 30
0.0
 11
19.49473038759603
 21
11.70427738910994
 31
0.0
  0
LINE
  5
116
330
1F
100
AcDbEntity
  8
0
100
AcDbLine
 10
17.44473055159612
 20
12.25357318965015
 30
0.0
 11
18.43357238756836
 21
11.84398149014856
 31
0.0
  0
LINE
  5
117
330
1F
100
AcDbEntity
  8
0
100
AcDbLine
 10
16.5955928166623
 20
12.90513949017622
 30
0.0
 11
17.44473055159612
 21
12.25357318965015
 31
0.0
  0
LINE
  5
118
330
1F
100
AcDbEntity
  8
0
100
AcDbLine
 10
15.94402651613623
 20
13.75427722511003
 30
0.0
 11
16.5955928166623
 21
12.90513949017622
 31
0.0
  0
LINE
  5
119
330
1F
100
AcDbEntity
  8
0
100
AcDbLine
 10
15.53443481663464
 20
14.74311906108237
 30
0.0
 11
15.94402651613623
 21
13.75427722511003
 31
0.0
  0
LINE
  5
11A
330
1F
100
AcDbEntity
  8
0
100
AcDbLine
 10
15.39473071559603
 20
15.80427706111003
 30
0.0
 11
15.53443481663464
 21
14.74311906108237
 31
0.0
  0
LINE
  5
11B
330
1F
100
AcDbEntity
  8
0
100
AcDbLine
 10
15.53443481663464
 20
16.86543506113769
 30
0.0
 11
15.39473071559603
 21
15.80427706111003
 31
0.0
  0
LINE
  5
11C
330
1F
100
AcDbEntity
  8
0
100
AcDbLine
 10
15.94402651613623
 20
17.85427689710994
 30
0.0
 11
15.53443481663464
 21
16.86543506113769
 31
0.0
  0
LINE
  5
11D
330
1F
100
AcDbEntity
  8
0
100
AcDbLine
 10
16.5955928166623
 20
18.70341463204376
 30
0.0
 11
15.94402651613623
 21
17.85427689710994
 31
0.0
  0
LINE
  5
11E
330
1F
100
AcDbEntity
  8
0
100
AcDbLine
 10
17.44473055159612
 20
19.35498093256973
 30
0.0
 11
16.5955928166623
 21
18.70341463204376
 31
0.0
  0
LINE
  5
11F
330
1F
100
AcDbEntity
  8
0
100
AcDbLine
 10
18.43357238756836
 20
19.76457263207132
 30
0.0
 11
17.44473055159612
 21
19.35498093256973
 31
0.0
  0
LINE
  5
120
330
1F
100
AcDbEntity
  8
0
100
AcDbLine
 10
19.49473038759603
 20
19.90427673310993
 30
0.0
 11
18.43357238756836
 21
19.76457263207132
 31
0.0
  0
LINE
  5
121
330
1F
100
AcDbEntity
  8
0
100
AcDbLine
 10
20.55588838762369
 20
19.76457263207132
 30
0.0
 11
19.49473038759603
 21
19.90427673310993
 31
0.0
  0
LINE
  5
122
330
1F
100
AcDbEntity
  8
0
100
AcDbLine
 10
21.54473022359612
 20
19.35498093256973
 30
0.0
 11
20.55588838762369
 21
19.76457263207132
 31
0.0
  0
LINE
  5
123
330
1F
100
AcDbEntity
  8
0
100
AcDbLine
 10
22.39386795852993
 20
18.70341463204376
 30
0.0
 11
21.54473022359612
 21
19.35498093256973
 31
0.0
  0
LINE
  5
124
330
1F
100
AcDbEntity
  8
0
100
AcDbLine
 10
23.04543425905599
 20
17.85427689710994
 30
0.0
 11
22.39386795852993
 21
18.70341463204376
 31
0.0
  0
LINE
  5
125
330
1F
100
AcDbEntity
  8
0
100
AcDbLine
 10
65.69472669159691
 20
-17.34572028688986
 30
0.0
 11
65.69472669159691
 21
-10.74572081488979
 31
0.0
  0
LINE
  5
126
330
1F
100
AcDbEntity
  8
0
100
AcDbLine
 10
58.69472725159675
 20
-17.34572028688986
 30
0.0
 11
65.69472669159691
 21
-17.34572028688986
 31
0.0
  0
LINE
  5
127
330
1F
100
AcDbEntity
  8
0
100
AcDbLine
 10
58.69472725159675
 20
-10.74572081488979
 30
0.0
 11
58.69472725159675
 21
-17.34572028688986
 31
0.0
  0
LINE
  5
128
330
1F
100
AcDbEntity
  8
0
100
AcDbLine
 10
65.69472669159691
 20
-10.74572081488979
 30
0.0
 11
58.69472725159675
 21
-10.74572081488979
 31
0.0
  0
LINE
  5
129
330
1F
100
AcDbEntity
  8
0
100
AcDbLine
 10
23.49473006759717
 20
-10.74572081489015
 30
0.0
 11
23.49473006759717
 21
-17.54572027089018
 31
0.0
  0
LINE
  5
12A
330
1F
100
AcDbEntity
  8
0
100
AcDbLine
 10
38.80700426660939
 20
-10.74572081489015
 30
0.0
 11
23.49473006759717
 21
-10.74572081489015
 31
0.0
  0
LINE
  5
12B
330
1F
100
AcDbEntity
  8
0
100
AcDbLine
 10
38.80700426660939
 20
-17.54572027089018
 30
0.0
 11
38.80700426660939
 21
-10.74572081489015
 31
0.0
  0
LINE
  5
12C
330
1F
100
AcDbEntity
  8
0
100
AcDbLine
 10
23.49473006759717
 20
-17.54572027089018
 30
0.0
 11
38.80700426660939
 21
-17.54572027089018
 31
0.0
  0
LINE
  5
12D
330
1F
100
AcDbEntity
  8
0
100
AcDbLine
 10
23.49473006759681
 20
42.35427493710985
 30
0.0
 11
23.49473006759681
 21
49.15427439310979
 31
0.0
  0
LINE
  5
12E
330
1F
100
AcDbEntity
  8
0
100
AcDbLine
 10
23.49473006759681
 20
49.15427439310979
 30
0.0
 11
38.80700426660867
 21
49.15427439310979
 31
0.0
  0
LINE
  5
12F
330
1F
100
AcDbEntity
  8
0
100
AcDbLine
 10
38.80700426660867
 20
49.15427439310979
 30
0.0
 11
38.80700426660867
 21
42.35427493710985
 31
0.0
  0
LINE
  5
130
330
1F
100
AcDbEntity
  8
0
100
AcDbLine
 10
38.80700426660867
 20
42.35427493710985
 30
0.0
 11
23.49473006759681
 21
42.35427493710985
 31
0.0
  0
LINE
  5
131
330
1F
100
AcDbEntity
  8
0
100
AcDbLine
 10
65.69472669159691
 20
42.35427493711021
 30
0.0
 11
58.69472725159675
 21
42.35427493711021
 31
0.0
  0
LINE
  5
132
330
1F
100
AcDbEntity
  8
0
100
AcDbLine
 10
58.69472725159675
 20
42.35427493711021
 30
0.0
 11
58.69472725159675
 21
49.15427439311015
 31
0.0
  0
LINE
  5
133
330
1F
100
AcDbEntity
  8
0
100
AcDbLine
 10
58.69472725159675
 20
49.15427439311015
 30
0.0
 11
65.69472669159691
 21
49.15427439311015
 31
0.0
  0
LINE
  5
134
330
1F
100
AcDbEntity
  8
0
100
AcDbLine
 10
65.69472669159691
 20
49.15427439311015
 30
0.0
 11
65.69472669159691
 21
42.35427493711021
 31
0.0
  0
LINE
  5
135
330
1F
100
AcDbEntity
  8
0
100
AcDbLine
 10
63.95810104721847
 20
-5.758287908485282
 30
0.0
 11
63.76783472335813
 21
-6.187938157319588
 31
0.0
  0
LINE
  5
136
330
1F
100
AcDbEntity
  8
0
100
AcDbLine
 10
64.25308587043952
 20
-5.392522185121257
 30
0.0
 11
63.95810104721847
 21
-5.758287908485282
 31
0.0
  0
LINE
  5
137
330
1F
100
AcDbEntity
  8
0
100
AcDbLine
 10
64.63268646480444
 20
-5.115567316818574
 30
0.0
 11
64.25308587043952
 21
-5.392522185121257
 31
0.0
  0
LINE
  5
138
330
1F
100
AcDbEntity
  8
0
100
AcDbLine
 10
65.07103367712675
 20
-4.946297320162325
 30
0.0
 11
64.63268646480444
 21
-5.115567316818574
 31
0.0
  0
LINE
  5
139
330
1F
100
AcDbEntity
  8
0
100
AcDbLine
 10
65.53825486928977
 20
-4.89624766569275
 30
0.0
 11
65.07103367712675
 21
-4.946297320162325
 31
0.0
  0
LINE
  5
13A
330
1F
100
AcDbEntity
  8
0
100
AcDbLine
 10
66.00250968916706
 20
-4.968829154651138
 30
0.0
 11
65.53825486928977
 21
-4.89624766569275
 31
0.0
  0
LINE
  5
13B
330
1F
100
AcDbEntity
  8
0
100
AcDbLine
 10
66.43215993800146
 20
-5.159095478511377
 30
0.0
 11
66.00250968916706
 21
-4.968829154651138
 31
0.0
  0
LINE
  5
13C
330
1F
100
AcDbEntity
  8
0
100
AcDbLine
 10
66.7979256613654
 20
-5.454080301732428
 30
0.0
 11
66.43215993800146
 21
-5.159095478511377
 31
0.0
  0
LINE
  5
13D
330
1F
100
AcDbEntity
  8
0
100
AcDbLine
 10
67.07488052966816
 20
-5.83368089609734
 30
0.0
 11
66.7979256613654
 21
-5.454080301732428
 31
0.0
  0
LINE
  5
13E
330
1F
100
AcDbEntity
  8
0
100
AcDbLine
 10
67.24415052632442
 20
-6.272028108419571
 30
0.0
 11
67.07488052966816
 21
-5.83368089609734
 31
0.0
  0
LINE
  5
13F
330
1F
100
AcDbEntity
  8
0
100
AcDbLine
 10
67.29420018079391
 20
-6.739249300582585
 30
0.0
 11
67.24415052632442
 21
-6.272028108419571
 31
0.0
  0
LINE
  5
140
330
1F
100
AcDbEntity
  8
0
100
AcDbLine
 10
67.2216186918356
 20
-7.203504120459973
 30
0.0
 11
67.29420018079391
 21
-6.739249300582585
 31
0.0
  0
LINE
  5
141
330
1F
100
AcDbEntity
  8
0
100
AcDbLine
 10
67.03135236797527
 20
-7.63315436929428
 30
0.0
 11
67.2216186918356
 21
-7.203504120459973
 31
0.0
  0
LINE
  5
142
330
1F
100
AcDbEntity
  8
0
100
AcDbLine
 10
66.73636754475423
 20
-7.998920092658304
 30
0.0
 11
67.03135236797527
 21
-7.63315436929428
 31
0.0
  0
LINE
  5
143
330
1F
100
AcDbEntity
  8
0
100
AcDbLine
 10
66.3567669503893
 20
-8.275874960960987
 30
0.0
 11
66.73636754475423
 21
-7.998920092658304
 31
0.0
  0
LINE
  5
144
330
1F
100
AcDbEntity
  8
0
100
AcDbLine
 10
65.91841973806699
 20
-8.445144957617236
 30
0.0
 11
66.3567669503893
 21
-8.275874960960987
 31
0.0
  0
LINE
  5
145
330
1F
100
AcDbEntity
  8
0
100
AcDbLine
 10
65.45119854590398
 20
-8.495194612086811
 30
0.0
 11
65.91841973806699
 21
-8.445144957617236
 31
0.0
  0
LINE
  5
146
330
1F
100
AcDbEntity
  8
0
100
AcDbLine
 10
64.98694372602668
 20
-8.422613123128425
 30
0.0
 11
65.45119854590398
 21
-8.495194612086811
 31
0.0
  0
LINE
  5
147
330
1F
100
AcDbEntity
  8
0
100
AcDbLine
 10
64.55729347719227
 20
-8.232346799268184
 30
0.0
 11
64.98694372602668
 21
-8.422613123128425
 31
0.0
  0
LINE
  5
148
330
1F
100
AcDbEntity
  8
0
100
AcDbLine
 10
64.19152775382834
 20
-7.937361976047134
 30
0.0
 11
64.55729347719227
 21
-8.232346799268184
 31
0.0
  0
LINE
  5
149
330
1F
100
AcDbEntity
  8
0
100
AcDbLine
 10
63.91457288552558
 20
-7.557761381682221
 30
0.0
 11
64.19152775382834
 21
-7.937361976047134
 31
0.0
  0
LINE
  5
14A
330
1F
100
AcDbEntity
  8
0
100
AcDbLine
 10
63.74530288886933
 20
-7.119414169359991
 30
0.0
 11
63.91457288552558
 21
-7.557761381682221
 31
0.0
  0
LINE
  5
14B
330
1F
100
AcDbEntity
  8
0
100
AcDbLine
 10
63.69525323439984
 20
-6.652192977196977
 30
0.0
 11
63.74530288886933
 21
-7.119414169359991
 31
0.0
  0
LINE
  5
14C
330
1F
100
AcDbEntity
  8
0
100
AcDbLine
 10
63.76783472335813
 20
-6.187938157319588
 30
0.0
 11
63.69525323439984
 21
-6.652192977196977
 31
0.0
  0
LINE
  5
14D
330
1F
100
AcDbEntity
  8
0
100
AcDbLine
 10
21.69473021159667
 20
-0.6457216228912979
 30
0.0
 11
21.75606371936979
 21
-1.11159586680592
 31
0.0
  0
LINE
  5
14E
330
1F
100
AcDbEntity
  8
0
100
AcDbLine
 10
21.75606371936979
 20
-0.179847378976676
 30
0.0
 11
21.69473021159667
 21
-0.6457216228912979
 31
0.0
  0
LINE
  5
14F
330
1F
100
AcDbEntity
  8
0
100
AcDbLine
 10
21.93588446549241
 20
0.2542783051086838
 30
0.0
 11
21.75606371936979
 21
-0.179847378976676
 31
0.0
  0
LINE
  5
150
330
1F
100
AcDbEntity
  8
0
100
AcDbLine
 10
22.22193796328424
 20
0.6270704814210956
 30
0.0
 11
21.93588446549241
 21
0.2542783051086838
 31
0.0
  0
LINE
  5
151
330
1F
100
AcDbEntity
  8
0
100
AcDbLine
 10
22.59473013959683
 20
0.9131239792130976
 30
0.0
 11
22.22193796328424
 21
0.6270704814210956
 31
0.0
  0
LINE
  5
152
330
1F
100
AcDbEntity
  8
0
100
AcDbLine
 10
23.02885582368219
 20
1.092944725335717
 30
0.0
 11
22.59473013959683
 21
0.9131239792130976
 31
0.0
  0
LINE
  5
153
330
1F
100
AcDbEntity
  8
0
100
AcDbLine
 10
23.49473006759681
 20
1.154278233108756
 30
0.0
 11
23.02885582368219
 21
1.092944725335717
 31
0.0
  0
LINE
  5
154
330
1F
100
AcDbEntity
  8
0
100
AcDbLine
 10
23.96060431151143
 20
1.092944725335717
 30
0.0
 11
23.49473006759681
 21
1.154278233108756
 31
0.0
  0
LINE
  5
155
330
1F
100
AcDbEntity
  8
0
100
AcDbLine
 10
24.39472999559679
 20
0.9131239792130976
 30
0.0
 11
23.96060431151143
 21
1.092944725335717
 31
0.0
  0
LINE
  5
156
330
1F
100
AcDbEntity
  8
0
100
AcDbLine
 10
24.7675221719092
 20
0.6270704814210956
 30
0.0
 11
24.39472999559679
 21
0.9131239792130976
 31
0.0
  0
LINE
  5
157
330
1F
100
AcDbEntity
  8
0
100
AcDbLine
 10
25.05357566970121
 20
0.2542783051086838
 30
0.0
 11
24.7675221719092
 21
0.6270704814210956
 31
0.0
  0
LINE
  5
158
330
1F
100
AcDbEntity
  8
0
100
AcDbLine
 10
25.23339641582383
 20
-0.179847378976676
 30
0.0
 11
25.05357566970121
 21
0.2542783051086838
 31
0.0
  0
LINE
  5
159
330
1F
100
AcDbEntity
  8
0
100
AcDbLine
 10
25.29472992359677
 20
-0.6457216228912979
 30
0.0
 11
25.23339641582383
 21
-0.179847378976676
 31
0.0
  0
LINE
  5
15A
330
1F
100
AcDbEntity
  8
0
100
AcDbLine
 10
25.23339641582383
 20
-1.11159586680592
 30
0.0
 11
25.29472992359677
 21
-0.6457216228912979
 31
0.0
  0
LINE
  5
15B
330
1F
100
AcDbEntity
  8
0
100
AcDbLine
 10
25.05357566970121
 20
-1.545721550891279
 30
0.0
 11
25.23339641582383
 21
-1.11159586680592
 31
0.0
  0
LINE
  5
15C
330
1F
100
AcDbEntity
  8
0
100
AcDbLine
 10
24.7675221719092
 20
-1.918513727203691
 30
0.0
 11
25.05357566970121
 21
-1.545721550891279
 31
0.0
  0
LINE
  5
15D
330
1F
100
AcDbEntity
  8
0
100
AcDbLine
 10
24.39472999559679
 20
-2.204567224995693
 30
0.0
 11
24.7675221719092
 21
-1.918513727203691
 31
0.0
  0
LINE
  5
15E
330
1F
100
AcDbEntity
  8
0
100
AcDbLine
 10
23.96060431151143
 20
-2.384387971118313
 30
0.0
 11
24.39472999559679
 21
-2.204567224995693
 31
0.0
  0
LINE
  5
15F
330
1F
100
AcDbEntity
  8
0
100
AcDbLine
 10
23.49473006759681
 20
-2.445721478891351
 30
0.0
 11
23.96060431151143
 21
-2.384387971118313
 31
0.0
  0
LINE
  5
160
330
1F
100
AcDbEntity
  8
0
100
AcDbLine
 10
23.02885582368219
 20
-2.384387971118313
 30
0.0
 11
23.49473006759681
 21
-2.445721478891351
 31
0.0
  0
LINE
  5
161
330
1F
100
AcDbEntity
  8
0
100
AcDbLine
 10
22.59473013959665
 20
-2.204567224995693
 30
0.0
 11
23.02885582368219
 21
-2.384387971118313
 31
0.0
  0
LINE
  5
162
330
1F
100
AcDbEntity
  8
0
100
AcDbLine
 10
22.22193796328424
 20
-1.918513727203691
 30
0.0
 11
22.59473013959665
 21
-2.204567224995693
 31
0.0
  0
LINE
  5
163
330
1F
100
AcDbEntity
  8
0
100
AcDbLine
 10
21.93588446549241
 20
-1.545721550891279
 30
0.0
 11
22.22193796328424
 21
-1.918513727203691
 31
0.0
  0
LINE
  5
164
330
1F
100
AcDbEntity
  8
0
100
AcDbLine
 10
21.75606371936979
 20
-1.11159586680592
 30
0.0
 11
21.93588446549241
 21
-1.545721550891279
 31
0.0
  0
LINE
  5
165
330
1F
100
AcDbEntity
  8
0
100
AcDbLine
 10
25.05357566970067
 20
31.35427581710993
 30
0.0
 11
25.23339641582328
 21
31.78840150119547
 31
0.0
  0
LINE
  5
166
330
1F
100
AcDbEntity
  8
0
100
AcDbLine
 10
24.76752217190884
 20
30.98148364079752
 30
0.0
 11
25.05357566970067
 21
31.35427581710993
 31
0.0
  0
LINE
  5
167
330
1F
100
AcDbEntity
  8
0
100
AcDbLine
 10
24.39472999559625
 20
30.6954301430057
 30
0.0
 11
24.76752217190884
 21
30.98148364079752
 31
0.0
  0
LINE
  5
168
330
1F
100
AcDbEntity
  8
0
100
AcDbLine
 10
23.96060431151089
 20
30.51560939688308
 30
0.0
 11
24.39472999559625
 21
30.6954301430057
 31
0.0
  0
LINE
  5
169
330
1F
100
AcDbEntity
  8
0
100
AcDbLine
 10
23.49473006759627
 20
30.45427588910995
 30
0.0
 11
23.96060431151089
 21
30.51560939688308
 31
0.0
  0
LINE
  5
16A
330
1F
100
AcDbEntity
  8
0
100
AcDbLine
 10
21.93588446549187
 20
31.35427581711011
 30
0.0
 11
22.22193796328387
 21
30.98148364079752
 31
0.0
  0
LINE
  5
16B
330
1F
100
AcDbEntity
  8
0
100
AcDbLine
 10
21.75606371936925
 20
31.78840150119547
 30
0.0
 11
21.93588446549187
 21
31.35427581711011
 31
0.0
  0
LINE
  5
16C
330
1F
100
AcDbEntity
  8
0
100
AcDbLine
 10
21.6947302115963
 20
32.25427574511009
 30
0.0
 11
21.75606371936925
 21
31.78840150119547
 31
0.0
  0
LINE
  5
16D
330
1F
100
AcDbEntity
  8
0
100
AcDbLine
 10
21.75606371936925
 20
32.72014998902471
 30
0.0
 11
21.6947302115963
 21
32.25427574511009
 31
0.0
  0
LINE
  5
16E
330
1F
100
AcDbEntity
  8
0
100
AcDbLine
 10
21.93588446549187
 20
33.15427567311008
 30
0.0
 11
21.75606371936925
 21
32.72014998902471
 31
0.0
  0
LINE
  5
16F
330
1F
100
AcDbEntity
  8
0
100
AcDbLine
 10
22.22193796328387
 20
33.52706784942249
 30
0.0
 11
21.93588446549187
 21
33.15427567311008
 31
0.0
  0
LINE
  5
170
330
1F
100
AcDbEntity
  8
0
100
AcDbLine
 10
22.59473013959629
 20
33.81312134721449
 30
0.0
 11
22.22193796328387
 21
33.52706784942249
 31
0.0
  0
LINE
  5
171
330
1F
100
AcDbEntity
  8
0
100
AcDbLine
 10
23.02885582368165
 20
33.99294209333711
 30
0.0
 11
22.59473013959629
 21
33.81312134721449
 31
0.0
  0
LINE
  5
172
330
1F
100
AcDbEntity
  8
0
100
AcDbLine
 10
25.05357566970067
 20
33.15427567311008
 30
0.0
 11
24.76752217190884
 21
33.52706784942249
 31
0.0
  0
LINE
  5
173
330
1F
100
AcDbEntity
  8
0
100
AcDbLine
 10
64.63023079368574
 20
39.88308693335962
 30
0.0
 11
64.25106124822044
 21
39.60554222324902
 31
0.0
  0
LINE
  5
174
330
1F
100
AcDbEntity
  8
0
100
AcDbLine
 10
65.06831430703708
 20
40.05303823711613
 30
0.0
 11
64.63023079368574
 21
39.88308693335962
 31
0.0
  0
LINE
  5
175
330
1F
100
AcDbEntity
  8
0
100
AcDbLine
 10
65.53545712080673
 20
40.10381423402526
 30
0.0
 11
65.06831430703708
 21
40.05303823711613
 31
0.0
  0
LINE
  5
176
330
1F
100
AcDbEntity
  8
0
100
AcDbLine
 10
65.99982422422636
 20
40.03195462380899
 30
0.0
 11
65.53545712080673
 21
40.10381423402526
 31
0.0
  0
LINE
  5
177
330
1F
100
AcDbEntity
  8
0
100
AcDbLine
 10
66.4297697666007
 20
39.84235652014978
 30
0.0
 11
65.99982422422636
 21
40.03195462380899
 31
0.0
  0
LINE
  5
178
330
1F
100
AcDbEntity
  8
0
100
AcDbLine
 10
66.79599366973568
 20
39.54794072048673
 30
0.0
 11
66.4297697666007
 21
39.84235652014978
 31
0.0
  0
LINE
  5
179
330
1F
100
AcDbEntity
  8
0
100
AcDbLine
 10
67.0735383798463
 20
39.16877117502142
 30
0.0
 11
66.79599366973568
 21
39.54794072048673
 31
0.0
  0
LINE
  5
17A
330
1F
100
AcDbEntity
  8
0
100
AcDbLine
 10
67.2434896836027
 20
38.73068766167
 30
0.0
 11
67.0735383798463
 21
39.16877117502142
 31
0.0
  0
LINE
  5
17B
330
1F
100
AcDbEntity
  8
0
100
AcDbLine
 10
67.29426568051183
 20
38.26354484790036
 30
0.0
 11
67.2434896836027
 21
38.73068766167
 31
0.0
  0
LINE
  5
17C
330
1F
100
AcDbEntity
  8
0
100
AcDbLine
 10
67.22240607029556
 20
37.7991777444808
 30
0.0
 11
67.29426568051183
 21
38.26354484790036
 31
0.0
  0
LINE
  5
17D
330
1F
100
AcDbEntity
  8
0
100
AcDbLine
 10
67.03280796663644
 20
37.36923220210655
 30
0.0
 11
67.22240607029556
 21
37.7991777444808
 31
0.0
  0
LINE
  5
17E
330
1F
100
AcDbEntity
  8
0
100
AcDbLine
 10
66.7383921669733
 20
37.00300829897157
 30
0.0
 11
67.03280796663644
 21
37.36923220210655
 31
0.0
  0
LINE
  5
17F
330
1F
100
AcDbEntity
  8
0
100
AcDbLine
 10
66.359222621508
 20
36.72546358886095
 30
0.0
 11
66.7383921669733
 21
37.00300829897157
 31
0.0
  0
LINE
  5
180
330
1F
100
AcDbEntity
  8
0
100
AcDbLine
 10
65.92113910815665
 20
36.55551228510446
 30
0.0
 11
66.359222621508
 21
36.72546358886095
 31
0.0
  0
LINE
  5
181
330
1F
100
AcDbEntity
  8
0
100
AcDbLine
 10
65.45399629438701
 20
36.50473628819533
 30
0.0
 11
65.92113910815665
 21
36.55551228510446
 31
0.0
  0
LINE
  5
182
330
1F
100
AcDbEntity
  8
0
100
AcDbLine
 10
64.98962919096738
 20
36.5765958984116
 30
0.0
 11
65.45399629438701
 21
36.50473628819533
 31
0.0
  0
LINE
  5
183
330
1F
100
AcDbEntity
  8
0
100
AcDbLine
 10
64.55968364859305
 20
36.76619400207081
 30
0.0
 11
64.98962919096738
 21
36.5765958984116
 31
0.0
  0
LINE
  5
184
330
1F
100
AcDbEntity
  8
0
100
AcDbLine
 10
64.19345974545806
 20
37.06060980173386
 30
0.0
 11
64.55968364859305
 21
36.76619400207081
 31
0.0
  0
LINE
  5
185
330
1F
100
AcDbEntity
  8
0
100
AcDbLine
 10
63.91591503534745
 20
37.43977934719916
 30
0.0
 11
64.19345974545806
 21
37.06060980173386
 31
0.0
  0
LINE
  5
186
330
1F
100
AcDbEntity
  8
0
100
AcDbLine
 10
63.74596373159103
 20
37.87786286055042
 30
0.0
 11
63.91591503534745
 21
37.43977934719916
 31
0.0
  0
LINE
  5
187
330
1F
100
AcDbEntity
  8
0
100
AcDbLine
 10
63.69518773468191
 20
38.34500567432006
 30
0.0
 11
63.74596373159103
 21
37.87786286055042
 31
0.0
  0
LINE
  5
188
330
1F
100
AcDbEntity
  8
0
100
AcDbLine
 10
63.76704734489817
 20
38.80937277773978
 30
0.0
 11
63.69518773468191
 21
38.34500567432006
 31
0.0
  0
LINE
  5
189
330
1F
100
AcDbEntity
  8
0
100
AcDbLine
 10
63.9566454485573
 20
39.23931832011404
 30
0.0
 11
63.76704734489817
 21
38.80937277773978
 31
0.0
  0
LINE
  5
18A
330
1F
100
AcDbEntity
  8
0
100
AcDbLine
 10
64.25106124822044
 20
39.60554222324902
 30
0.0
 11
63.9566454485573
 21
39.23931832011404
 31
0.0
  0
LINE
  5
18B
330
1F
100
AcDbEntity
  8
0
100
AcDbLine
 10
108.6047334367002
 20
21.95188834658036
 30
0.0
 11
108.6047334367005
 21
9.039613955567887
 31
0.0
  0
LINE
  5
18C
330
1F
100
AcDbEntity
  8
0
100
AcDbLine
 10
108.5706592657154
 20
22.21070737097738
 30
0.0
 11
108.4707588512025
 21
22.45188830658025
 31
0.0
  0
LINE
  5
18D
330
1F
100
AcDbEntity
  8
0
100
AcDbLine
 10
108.4707588512025
 20
22.45188830658025
 30
0.0
 11
108.3118402413184
 21
22.65899507119878
 31
0.0
  0
LINE
  5
18E
330
1F
100
AcDbEntity
  8
0
100
AcDbLine
 10
107.8635525410971
 20
22.91781409559525
 30
0.0
 11
107.6047335167003
 21
22.95188826658014
 31
0.0
  0
LINE
  5
18F
330
1F
100
AcDbEntity
  8
0
100
AcDbLine
 10
107.6047335167003
 20
22.95188826658014
 30
0.0
 11
93.00473468470037
 21
22.9518882665805
 31
0.0
  0
LINE
  5
190
330
1F
100
AcDbEntity
  8
0
100
AcDbLine
 10
93.00473468470037
 20
22.9518882665805
 30
0.0
 11
93.00473468470028
 21
20.23961305956749
 31
0.0
  0
LINE
  5
191
330
1F
100
AcDbEntity
  8
0
100
AcDbLine
 10
93.00473468470028
 20
20.23961305956749
 30
0.0
 11
86.40473521270003
 21
20.23961305956731
 31
0.0
  0
LINE
  5
192
330
1F
100
AcDbEntity
  8
0
100
AcDbLine
 10
86.40473521270003
 20
20.23961305956731
 30
0.0
 11
86.40473521270013
 21
43.73961117956771
 31
0.0
  0
LINE
  5
193
330
1F
100
AcDbEntity
  8
0
100
AcDbLine
 10
86.40473521270013
 20
43.73961117956771
 30
0.0
 11
93.00473468470028
 21
43.73961117956789
 31
0.0
  0
LINE
  5
194
330
1F
100
AcDbEntity
  8
0
100
AcDbLine
 10
93.00473468470028
 20
43.73961117956789
 30
0.0
 11
93.0047346847002
 21
37.95707523104853
 31
0.0
  0
LINE
  5
195
330
1F
100
AcDbEntity
  8
0
100
AcDbLine
 10
102.0047339647001
 20
37.95707523104853
 30
0.0
 11
93.0047346847002
 21
37.95707523104853
 31
0.0
  0
LINE
  5
196
330
1F
100
AcDbEntity
  8
0
100
AcDbLine
 10
102.0047339647005
 20
43.23961121956674
 30
0.0
 11
102.0047339647001
 21
37.95707523104853
 31
0.0
  0
LINE
  5
197
330
1F
100
AcDbEntity
  8
0
100
AcDbLine
 10
107.6047335167004
 20
43.23961121956692
 30
0.0
 11
102.0047339647005
 21
43.23961121956674
 31
0.0
  0
LINE
  5
198
330
1F
100
AcDbEntity
  8
0
100
AcDbLine
 10
107.6047335167004
 20
43.23961121956692
 30
0.0
 11
107.8635525410972
 21
43.27368539055199
 31
0.0
  0
LINE
  5
199
330
1F
100
AcDbEntity
  8
0
100
AcDbLine
 10
107.8635525410972
 20
43.27368539055199
 30
0.0
 11
108.1047334767004
 21
43.3735858050647
 31
0.0
  0
LINE
  5
19A
330
1F
100
AcDbEntity
  8
0
100
AcDbLine
 10
108.1047334767004
 20
43.3735858050647
 30
0.0
 11
108.3118402413184
 21
43.532504414949
 31
0.0
  0
LINE
  5
19B
330
1F
100
AcDbEntity
  8
0
100
AcDbLine
 10
108.3118402413184
 20
43.532504414949
 30
0.0
 11
108.4707588512028
 21
43.73961117956717
 31
0.0
  0
LINE
  5
19C
330
1F
100
AcDbEntity
  8
0
100
AcDbLine
 10
108.4707588512028
 20
43.73961117956717
 30
0.0
 11
108.5706592657153
 21
43.98079211516987
 31
0.0
  0
LINE
  5
19D
330
1F
100
AcDbEntity
  8
0
100
AcDbLine
 10
108.5706592657153
 20
43.98079211516987
 30
0.0
 11
108.6047334367004
 21
44.23961113956688
 31
0.0
  0
LINE
  5
19E
330
1F
100
AcDbEntity
  8
0
100
AcDbLine
 10
108.6047334367001
 20
48.83961077156695
 30
0.0
 11
108.6047334367004
 21
44.23961113956688
 31
0.0
  0
LINE
  5
19F
330
1F
100
AcDbEntity
  8
0
100
AcDbLine
 10
108.5706592657154
 20
49.0984297959636
 30
0.0
 11
108.6047334367001
 21
48.83961077156695
 31
0.0
  0
LINE
  5
1A0
330
1F
100
AcDbEntity
  8
0
100
AcDbLine
 10
108.4707588512027
 20
49.33961073156684
 30
0.0
 11
108.5706592657154
 21
49.0984297959636
 31
0.0
  0
LINE
  5
1A1
330
1F
100
AcDbEntity
  8
0
100
AcDbLine
 10
108.3118402413185
 20
49.54671749618482
 30
0.0
 11
108.4707588512027
 21
49.33961073156684
 31
0.0
  0
LINE
  5
1A2
330
1F
100
AcDbEntity
  8
0
100
AcDbLine
 10
108.1047334767001
 20
49.70563610606894
 30
0.0
 11
108.3118402413185
 21
49.54671749618482
 31
0.0
  0
LINE
  5
1A3
330
1F
100
AcDbEntity
  8
0
100
AcDbLine
 10
107.8635525410976
 20
49.80553652058183
 30
0.0
 11
108.1047334767001
 21
49.70563610606894
 31
0.0
  0
LINE
  5
1A4
330
1F
100
AcDbEntity
  8
0
100
AcDbLine
 10
107.6047335167006
 20
49.83961069156673
 30
0.0
 11
107.8635525410976
 21
49.80553652058183
 31
0.0
  0
LINE
  5
1A5
330
1F
100
AcDbEntity
  8
0
100
AcDbLine
 10
107.6047335167006
 20
49.83961069156673
 30
0.0
 11
102.0047339647003
 21
49.83961069156709
 31
0.0
  0
LINE
  5
1A6
330
1F
100
AcDbEntity
  8
0
100
AcDbLine
 10
102.0047339647003
 20
49.83961069156709
 30
0.0
 11
102.0047339647002
 21
54.8396102915676
 31
0.0
  0
LINE
  5
1A7
330
1F
100
AcDbEntity
  8
0
100
AcDbLine
 10
78.40473585270027
 20
54.8396102915676
 30
0.0
 11
102.0047339647002
 21
54.8396102915676
 31
0.0
  0
LINE
  5
1A8
330
1F
100
AcDbEntity
  8
0
100
AcDbLine
 10
72.80473630069987
 20
46.83961093156756
 30
0.0
 11
78.40473585270036
 21
46.83961093156774
 31
0.0
  0
LINE
  5
1A9
330
1F
100
AcDbEntity
  8
0
100
AcDbLine
 10
72.80473630069987
 20
46.83961093156756
 30
0.0
 11
72.54591727630304
 21
46.8055367605825
 31
0.0
  0
LINE
  5
1AA
330
1F
100
AcDbEntity
  8
0
100
AcDbLine
 10
72.30473634070034
 20
46.70563634606979
 30
0.0
 11
72.0976295760821
 21
46.54671773618548
 31
0.0
  0
LINE
  5
1AB
330
1F
100
AcDbEntity
  8
0
100
AcDbLine
 10
72.0976295760821
 20
46.54671773618548
 30
0.0
 11
71.93871096619769
 21
46.3396109715675
 31
0.0
  0
LINE
  5
1AC
330
1F
100
AcDbEntity
  8
0
100
AcDbLine
 10
71.93871096619769
 20
46.3396109715675
 30
0.0
 11
71.83881055168526
 21
46.09843003596462
 31
0.0
  0
LINE
  5
1AD
330
1F
100
AcDbEntity
  8
0
100
AcDbLine
 10
71.83881055168526
 20
46.09843003596462
 30
0.0
 11
71.80473638070009
 21
45.83961101156761
 31
0.0
  0
LINE
  5
1AE
330
1F
100
AcDbEntity
  8
0
100
AcDbLine
 10
71.80473638070009
 20
37.83961165156757
 30
0.0
 11
71.80473638070009
 21
45.83961101156761
 31
0.0
  0
LINE
  5
1AF
330
1F
100
AcDbEntity
  8
0
100
AcDbLine
 10
71.83881055168499
 20
37.58079262717055
 30
0.0
 11
71.93871096619777
 21
37.33961169156768
 31
0.0
  0
LINE
  5
1B0
330
1F
100
AcDbEntity
  8
0
100
AcDbLine
 10
72.30473634070034
 20
36.97358631706521
 30
0.0
 11
72.54591727630296
 21
36.87368590255232
 31
0.0
  0
LINE
  5
1B1
330
1F
100
AcDbEntity
  8
0
100
AcDbLine
 10
72.54591727630296
 20
36.87368590255232
 30
0.0
 11
72.80473630070014
 21
36.83961173156779
 31
0.0
  0
LINE
  5
1B2
330
1F
100
AcDbEntity
  8
0
100
AcDbLine
 10
72.80473630070014
 20
36.83961173156779
 30
0.0
 11
78.40473585270027
 21
36.83961173156743
 31
0.0
  0
LINE
  5
1B3
330
1F
100
AcDbEntity
  8
0
100
AcDbLine
 10
78.40473585270027
 20
36.83961173156743
 30
0.0
 11
78.40473585270036
 21
17.83961325156748
 31
0.0
  0
LINE
  5
1B4
330
1F
100
AcDbEntity
  8
0
100
AcDbLine
 10
78.40473585270036
 20
17.83961325156748
 30
0.0
 11
72.80473630069997
 21
17.83961325156748
 31
0.0
  0
LINE
  5
1B5
330
1F
100
AcDbEntity
  8
0
100
AcDbLine
 10
72.80473630069997
 20
17.83961325156748
 30
0.0
 11
72.54591727630304
 21
17.80553908058222
 31
0.0
  0
LINE
  5
1B6
330
1F
100
AcDbEntity
  8
0
100
AcDbLine
 10
72.54591727630304
 20
17.80553908058222
 30
0.0
 11
72.30473634069999
 21
17.70563866606988
 31
0.0
  0
LINE
  5
1B7
330
1F
100
AcDbEntity
  8
0
100
AcDbLine
 10
72.30473634069999
 20
17.70563866606988
 30
0.0
 11
72.09762957608191
 21
17.54672005618503
 31
0.0
  0
LINE
  5
1B8
330
1F
100
AcDbEntity
  8
0
100
AcDbLine
 10
72.09762957608191
 20
17.54672005618503
 30
0.0
 11
71.93871096619804
 21
17.33961329156741
 31
0.0
  0
LINE
  5
1B9
330
1F
100
AcDbEntity
  8
0
100
AcDbLine
 10
71.93871096619804
 20
17.33961329156741
 30
0.0
 11
71.83881055168489
 21
17.09843235596435
 31
0.0
  0
LINE
  5
1BA
330
1F
100
AcDbEntity
  8
0
100
AcDbLine
 10
71.83881055168489
 20
17.09843235596435
 30
0.0
 11
71.80473638070019
 21
16.83961333156734
 31
0.0
  0
LINE
  5
1BB
330
1F
100
AcDbEntity
  8
0
100
AcDbLine
 10
71.80473638070036
 20
8.83961397156739
 30
0.0
 11
71.80473638070019
 21
16.83961333156734
 31
0.0
  0
LINE
  5
1BC
330
1F
100
AcDbEntity
  8
0
100
AcDbLine
 10
71.83881055168526
 20
8.580794947170377
 30
0.0
 11
71.80473638070036
 21
8.83961397156739
 31
0.0
  0
LINE
  5
1BD
330
1F
100
AcDbEntity
  8
0
100
AcDbLine
 10
71.9387109661976
 20
8.339614011566958
 30
0.0
 11
71.83881055168526
 21
8.580794947170377
 31
0.0
  0
LINE
  5
1BE
330
1F
100
AcDbEntity
  8
0
100
AcDbLine
 10
72.0976295760821
 20
8.132507246949514
 30
0.0
 11
71.9387109661976
 21
8.339614011566958
 31
0.0
  0
LINE
  5
1BF
330
1F
100
AcDbEntity
  8
0
100
AcDbLine
 10
72.80473630070033
 20
7.83961405156743
 30
0.0
 11
72.54591727630323
 21
7.873688222552321
 31
0.0
  0
LINE
  5
1C0
330
1F
100
AcDbEntity
  8
0
100
AcDbLine
 10
72.80473630070033
 20
7.83961405156743
 30
0.0
 11
78.40473585270009
 21
7.839614051567069
 31
0.0
  0
LINE
  5
1C1
330
1F
100
AcDbEntity
  8
0
100
AcDbLine
 10
102.0047339647004
 20
-0.1603853084325169
 30
0.0
 11
78.4047358527
 21
-0.1603853084328778
 31
0.0
  0
LINE
  5
1C2
330
1F
100
AcDbEntity
  8
0
100
AcDbLine
 10
102.0047339647005
 20
8.039614035567567
 30
0.0
 11
102.0047339647004
 21
-0.1603853084325169
 31
0.0
  0
LINE
  5
1C3
330
1F
100
AcDbEntity
  8
0
100
AcDbLine
 10
102.0047339647005
 20
8.039614035567567
 30
0.0
 11
107.6047335167001
 21
8.039614035567567
 31
0.0
  0
LINE
  5
1C4
330
1F
100
AcDbEntity
  8
0
100
AcDbLine
 10
107.6047335167001
 20
8.039614035567567
 30
0.0
 11
107.8635525410974
 21
8.073688206552818
 31
0.0
  0
LINE
  5
1C5
330
1F
100
AcDbEntity
  8
0
100
AcDbLine
 10
107.8635525410974
 20
8.073688206552818
 30
0.0
 11
108.1047334767004
 21
8.173588621065344
 31
0.0
  0
LINE
  5
1C6
330
1F
100
AcDbEntity
  8
0
100
AcDbLine
 10
108.3118402413184
 20
8.33250723094965
 30
0.0
 11
108.4707588512028
 21
8.539613995567818
 31
0.0
  0
LINE
  5
1C7
330
1F
100
AcDbEntity
  8
0
100
AcDbLine
 10
108.4707588512028
 20
8.539613995567818
 30
0.0
 11
108.5706592657152
 21
8.780794931170513
 31
0.0
  0
LINE
  5
1C8
330
1F
100
AcDbEntity
  8
0
100
AcDbLine
 10
108.5706592657152
 20
8.780794931170513
 30
0.0
 11
108.6047334367005
 21
9.039613955567887
 31
0.0
  0
LINE
  5
1C9
330
1F
100
AcDbEntity
  8
0
100
AcDbLine
 10
93.0047346847001
 20
10.94480568092667
 30
0.0
 11
86.40473521270022
 21
10.9396138035672
 31
0.0
  0
LINE
  5
1CA
330
1F
100
AcDbEntity
  8
0
100
AcDbLine
 10
93.00866792390698
 20
5.944807627964424
 30
0.0
 11
93.0047346847001
 21
10.94480568092667
 31
0.0
  0
LINE
  5
1CB
330
1F
100
AcDbEntity
  8
0
100
AcDbLine
 10
86.40867049399624
 20
5.93961575221102
 30
0.0
 11
93.00866792390698
 21
5.944807627964424
 31
0.0
  0
LINE
  5
1CC
330
1F
100
AcDbEntity
  8
0
100
AcDbLine
 10
86.40473521270022
 20
10.9396138035672
 30
0.0
 11
86.40867049399624
 21
5.93961575221102
 31
0.0
  0
LINE
  5
1CD
330
1F
100
AcDbEntity
  8
0
100
AcDbLine
 10
95.94588872259563
 20
2.939614443567339
 30
0.0
 11
96.23194222038808
 21
2.566822267254747
 31
0.0
  0
LINE
  5
1CE
330
1F
100
AcDbEntity
  8
0
100
AcDbLine
 10
95.70473446870041
 20
3.839614371567862
 30
0.0
 11
95.76606797647301
 21
3.373740127652519
 31
0.0
  0
LINE
  5
1CF
330
1F
100
AcDbEntity
  8
0
100
AcDbLine
 10
95.7660679764731
 20
4.305488615481853
 30
0.0
 11
95.70473446870041
 21
3.839614371567862
 31
0.0
  0
LINE
  5
1D0
330
1F
100
AcDbEntity
  8
0
100
AcDbLine
 10
96.60473439670004
 20
5.398459973671807
 30
0.0
 11
96.23194222038799
 21
5.112406475879985
 31
0.0
  0
LINE
  5
1D1
330
1F
100
AcDbEntity
  8
0
100
AcDbLine
 10
97.03886008078557
 20
5.578280719794426
 30
0.0
 11
96.60473439670004
 21
5.398459973671807
 31
0.0
  0
LINE
  5
1D2
330
1F
100
AcDbEntity
  8
0
100
AcDbLine
 10
97.5047343247002
 20
5.639614227567555
 30
0.0
 11
97.03886008078557
 21
5.578280719794426
 31
0.0
  0
LINE
  5
1D3
330
1F
100
AcDbEntity
  8
0
100
AcDbLine
 10
97.97060856861499
 20
5.578280719794607
 30
0.0
 11
97.5047343247002
 21
5.639614227567555
 31
0.0
  0
LINE
  5
1D4
330
1F
100
AcDbEntity
  8
0
100
AcDbLine
 10
98.40473425270045
 20
5.398459973671807
 30
0.0
 11
97.97060856861499
 21
5.578280719794607
 31
0.0
  0
LINE
  5
1D5
330
1F
100
AcDbEntity
  8
0
100
AcDbLine
 10
98.77752642901267
 20
5.112406475879805
 30
0.0
 11
98.40473425270045
 21
5.398459973671807
 31
0.0
  0
LINE
  5
1D6
330
1F
100
AcDbEntity
  8
0
100
AcDbLine
 10
99.0635799268046
 20
4.739614299567574
 30
0.0
 11
98.77752642901267
 21
5.112406475879805
 31
0.0
  0
LINE
  5
1D7
330
1F
100
AcDbEntity
  8
0
100
AcDbLine
 10
99.30473418070025
 20
3.839614371567502
 30
0.0
 11
99.24340067292721
 21
4.305488615482033
 31
0.0
  0
LINE
  5
1D8
330
1F
100
AcDbEntity
  8
0
100
AcDbLine
 10
99.24340067292711
 20
3.37374012765288
 30
0.0
 11
99.30473418070025
 21
3.839614371567502
 31
0.0
  0
LINE
  5
1D9
330
1F
100
AcDbEntity
  8
0
100
AcDbLine
 10
99.06357992680441
 20
2.939614443567159
 30
0.0
 11
99.24340067292711
 21
3.37374012765288
 31
0.0
  0
LINE
  5
1DA
330
1F
100
AcDbEntity
  8
0
100
AcDbLine
 10
98.77752642901258
 20
2.566822267255108
 30
0.0
 11
99.06357992680441
 21
2.939614443567159
 31
0.0
  0
LINE
  5
1DB
330
1F
100
AcDbEntity
  8
0
100
AcDbLine
 10
98.40473425270008
 20
2.280768769463106
 30
0.0
 11
98.77752642901258
 21
2.566822267255108
 31
0.0
  0
LINE
  5
1DC
330
1F
100
AcDbEntity
  8
0
100
AcDbLine
 10
97.97060856861472
 20
2.100948023340306
 30
0.0
 11
98.40473425270008
 21
2.280768769463106
 31
0.0
  0
LINE
  5
1DD
330
1F
100
AcDbEntity
  8
0
100
AcDbLine
 10
97.50473432470028
 20
2.039614515567358
 30
0.0
 11
97.97060856861472
 21
2.100948023340306
 31
0.0
  0
LINE
  5
1DE
330
1F
100
AcDbEntity
  8
0
100
AcDbLine
 10
97.03886008078567
 20
2.100948023340306
 30
0.0
 11
97.50473432470028
 21
2.039614515567358
 31
0.0
  0
LINE
  5
1DF
330
1F
100
AcDbEntity
  8
0
100
AcDbLine
 10
96.23194222038808
 20
2.566822267254747
 30
0.0
 11
96.60473439670012
 21
2.280768769462926
 31
0.0
  0
LINE
  5
1E0
330
1F
100
AcDbEntity
  8
0
100
AcDbLine
 10
96.23194222038781
 20
49.56681850725501
 30
0.0
 11
96.60473439670031
 21
49.28076500946301
 31
0.0
  0
LINE
  5
1E1
330
1F
100
AcDbEntity
  8
0
100
AcDbLine
 10
95.9458887225958
 20
49.93961068356779
 30
0.0
 11
96.23194222038781
 21
49.56681850725501
 31
0.0
  0
LINE
  5
1E2
330
1F
100
AcDbEntity
  8
0
100
AcDbLine
 10
95.7660679764731
 20
50.37373636765297
 30
0.0
 11
95.9458887225958
 21
49.93961068356779
 31
0.0
  0
LINE
  5
1E3
330
1F
100
AcDbEntity
  8
0
100
AcDbLine
 10
95.70473446870014
 20
50.83961061156741
 30
0.0
 11
95.7660679764731
 21
50.37373636765297
 31
0.0
  0
LINE
  5
1E4
330
1F
100
AcDbEntity
  8
0
100
AcDbLine
 10
95.76606797647364
 20
51.30548485548239
 30
0.0
 11
95.70473446870014
 21
50.83961061156741
 31
0.0
  0
LINE
  5
1E5
330
1F
100
AcDbEntity
  8
0
100
AcDbLine
 10
95.94588872259598
 20
51.73961053956738
 30
0.0
 11
95.76606797647364
 21
51.30548485548239
 31
0.0
  0
LINE
  5
1E6
330
1F
100
AcDbEntity
  8
0
100
AcDbLine
 10
96.2319422203879
 20
52.1124027158798
 30
0.0
 11
95.94588872259598
 21
51.73961053956738
 31
0.0
  0
LINE
  5
1E7
330
1F
100
AcDbEntity
  8
0
100
AcDbLine
 10
97.03886008078575
 20
52.5782769597946
 30
0.0
 11
96.60473439670012
 21
52.39845621367181
 31
0.0
  0
LINE
  5
1E8
330
1F
100
AcDbEntity
  8
0
100
AcDbLine
 10
97.50473432470046
 20
52.63961046756754
 30
0.0
 11
97.03886008078575
 21
52.5782769597946
 31
0.0
  0
LINE
  5
1E9
330
1F
100
AcDbEntity
  8
0
100
AcDbLine
 10
97.97060856861482
 20
52.57827695979478
 30
0.0
 11
97.50473432470046
 21
52.63961046756754
 31
0.0
  0
LINE
  5
1EA
330
1F
100
AcDbEntity
  8
0
100
AcDbLine
 10
98.77752642901277
 20
52.1124027158798
 30
0.0
 11
98.40473425270018
 21
52.39845621367198
 31
0.0
  0
LINE
  5
1EB
330
1F
100
AcDbEntity
  8
0
100
AcDbLine
 10
99.0635799268045
 20
51.73961053956756
 30
0.0
 11
98.77752642901277
 21
52.1124027158798
 31
0.0
  0
LINE
  5
1EC
330
1F
100
AcDbEntity
  8
0
100
AcDbLine
 10
99.24340067292738
 20
51.30548485548203
 30
0.0
 11
99.0635799268045
 21
51.73961053956756
 31
0.0
  0
LINE
  5
1ED
330
1F
100
AcDbEntity
  8
0
100
AcDbLine
 10
99.30473418070025
 20
50.83961061156723
 30
0.0
 11
99.24340067292738
 21
51.30548485548203
 31
0.0
  0
LINE
  5
1EE
330
1F
100
AcDbEntity
  8
0
100
AcDbLine
 10
99.24340067292748
 20
50.37373636765314
 30
0.0
 11
99.30473418070025
 21
50.83961061156723
 31
0.0
  0
LINE
  5
1EF
330
1F
100
AcDbEntity
  8
0
100
AcDbLine
 10
99.06357992680476
 20
49.9396106835676
 30
0.0
 11
99.24340067292748
 21
50.37373636765314
 31
0.0
  0
LINE
  5
1F0
330
1F
100
AcDbEntity
  8
0
100
AcDbLine
 10
98.7775264290125
 20
49.56681850725501
 30
0.0
 11
99.06357992680476
 21
49.9396106835676
 31
0.0
  0
LINE
  5
1F1
330
1F
100
AcDbEntity
  8
0
100
AcDbLine
 10
98.40473425270027
 20
49.28076500946337
 30
0.0
 11
98.7775264290125
 21
49.56681850725501
 31
0.0
  0
LINE
  5
1F2
330
1F
100
AcDbEntity
  8
0
100
AcDbLine
 10
97.97060856861499
 20
49.10094426334075
 30
0.0
 11
98.40473425270027
 21
49.28076500946337
 31
0.0
  0
LINE
  5
1F3
330
1F
100
AcDbEntity
  8
0
100
AcDbLine
 10
97.50473432470001
 20
49.03961075556744
 30
0.0
 11
97.97060856861499
 21
49.10094426334075
 31
0.0
  0
LINE
  5
1F4
330
1F
100
AcDbEntity
  8
0
100
AcDbLine
 10
97.03886008078575
 20
49.10094426334075
 30
0.0
 11
97.50473432470001
 21
49.03961075556744
 31
0.0
  0
LINE
  5
1F5
330
1F
100
AcDbEntity
  8
0
100
AcDbLine
 10
96.60473439670031
 20
49.28076500946301
 30
0.0
 11
97.03886008078575
 21
49.10094426334075
 31
0.0
  0
LINE
  5
1F6
330
1F
100
AcDbEntity
  8
0
100
AcDbLine
 10
93.00473468470037
 20
12.85900102754028
 30
0.0
 11
97.50473432470028
 21
10.26092502403293
 31
0.0
  0
LINE
  5
1F7
330
1F
100
AcDbEntity
  8
0
100
AcDbLine
 10
93.00473468470028
 20
18.05515303455464
 30
0.0
 11
93.00473468470037
 21
12.85900102754028
 31
0.0
  0
LINE
  5
1F8
330
1F
100
AcDbEntity
  8
0
100
AcDbLine
 10
97.5047343247002
 20
20.6532290380619
 30
0.0
 11
93.00473468470028
 21
18.05515303455464
 31
0.0
  0
LINE
  5
1F9
330
1F
100
AcDbEntity
  8
0
100
AcDbLine
 10
102.0047339647001
 20
18.05515303455464
 30
0.0
 11
97.5047343247002
 21
20.6532290380619
 31
0.0
  0
LINE
  5
1FA
330
1F
100
AcDbEntity
  8
0
100
AcDbLine
 10
102.0047339647002
 20
12.8590010275401
 30
0.0
 11
102.0047339647001
 21
18.05515303455464
 31
0.0
  0
LINE
  5
1FB
330
1F
100
AcDbEntity
  8
0
100
AcDbLine
 10
97.50473432470028
 20
10.26092502403293
 30
0.0
 11
102.0047339647002
 21
12.8590010275401
 31
0.0
  0
LINE
  5
1FC
330
1F
100
AcDbEntity
  8
0
100
AcDbLine
 10
45.6528114267777
 20
-42.2759770240218
 30
0.0
 11
45.44570466215971
 21
-42.43489563390629
 31
0.0
  0
LINE
  5
1FD
330
1F
100
AcDbEntity
  8
0
100
AcDbLine
 10
45.81173003666219
 20
-42.06887025940381
 30
0.0
 11
45.6528114267777
 21
-42.2759770240218
 31
0.0
  0
LINE
  5
1FE
330
1F
100
AcDbEntity
  8
0
100
AcDbLine
 10
45.91163045117472
 20
-41.82768932380085
 30
0.0
 11
45.81173003666219
 21
-42.06887025940381
 31
0.0
  0
LINE
  5
1FF
330
1F
100
AcDbEntity
  8
0
100
AcDbLine
 10
45.94570462215978
 20
-41.56887029940383
 30
0.0
 11
45.91163045117472
 21
-41.82768932380085
 31
0.0
  0
LINE
  5
200
330
1F
100
AcDbEntity
  8
0
100
AcDbLine
 10
45.94570462215978
 20
-41.56887029940383
 30
0.0
 11
45.94570462215978
 21
-37.56887061940382
 31
0.0
  0
LINE
  5
201
330
1F
100
AcDbEntity
  8
0
100
AcDbLine
 10
62.27967291554369
 20
-42.06887025940381
 30
0.0
 11
62.43859152542817
 21
-42.2759770240218
 31
0.0
  0
LINE
  5
202
330
1F
100
AcDbEntity
  8
0
100
AcDbLine
 10
62.43859152542817
 20
-42.2759770240218
 30
0.0
 11
62.64569829004615
 21
-42.43489563390629
 31
0.0
  0
LINE
  5
203
330
1F
100
AcDbEntity
  8
0
100
AcDbLine
 10
62.64569829004615
 20
-42.43489563390629
 30
0.0
 11
62.88687922564903
 21
-42.53479604841881
 31
0.0
  0
LINE
  5
204
330
1F
100
AcDbEntity
  8
0
100
AcDbLine
 10
62.17977250103116
 20
-41.82768932380085
 30
0.0
 11
62.27967291554369
 21
-42.06887025940381
 31
0.0
  0
LINE
  5
205
330
1F
100
AcDbEntity
  8
0
100
AcDbLine
 10
62.14569833004608
 20
-41.56887029940383
 30
0.0
 11
62.17977250103116
 21
-41.82768932380085
 31
0.0
  0
LINE
  5
206
330
1F
100
AcDbEntity
  8
0
100
AcDbLine
 10
69.04569777804599
 20
-41.56887029940383
 30
0.0
 11
69.04569777804599
 21
-30.06887121940385
 31
0.0
  0
LINE
  5
207
330
1F
100
AcDbEntity
  8
0
100
AcDbLine
 10
-87.6760173259383
 20
-47.58250668921598
 30
0.0
 11
-87.05469703208452
 21
-47.10575085956287
 31
0.0
  0
LINE
  5
208
330
1F
100
AcDbEntity
  8
0
100
AcDbLine
 10
-88.39956013274711
 20
-47.88220793275382
 30
0.0
 11
-87.6760173259383
 21
-47.58250668921598
 31
0.0
  0
LINE
  5
209
330
1F
100
AcDbEntity
  8
0
100
AcDbLine
 10
-89.17601720593834
 20
-47.98443044570877
 30
0.0
 11
-88.39956013274711
 21
-47.88220793275382
 31
0.0
  0
LINE
  5
20A
330
1F
100
AcDbEntity
  8
0
100
AcDbLine
 10
-11.50438493184327
 20
-19.69545770471106
 30
0.0
 11
-11.53845910282826
 21
-19.95427672910817
 31
0.0
  0
LINE
  5
20B
330
1F
100
AcDbEntity
  8
0
100
AcDbLine
 10
-11.53845910282826
 20
-19.95427672910817
 30
0.0
 11
-11.53845910282808
 21
-25.55427628110801
 31
0.0
  0
LINE
  5
20C
330
1F
100
AcDbEntity
  8
0
100
AcDbLine
 10
-11.53845910282808
 20
-25.55427628110801
 30
0.0
 11
-30.53845758282848
 21
-25.55427628110806
 31
0.0
  0
LINE
  5
20D
330
1F
100
AcDbEntity
  8
0
100
AcDbLine
 10
-30.53845758282848
 20
-25.55427628110806
 30
0.0
 11
-30.53845758282803
 21
-19.95427672910753
 31
0.0
  0
LINE
  5
20E
330
1F
100
AcDbEntity
  8
0
100
AcDbLine
 10
-30.53845758282803
 20
-19.95427672910753
 30
0.0
 11
-30.57253175381292
 21
-19.69545770471057
 31
0.0
  0
LINE
  5
20F
330
1F
100
AcDbEntity
  8
0
100
AcDbLine
 10
-30.57253175381292
 20
-19.69545770471057
 30
0.0
 11
-30.67243216832517
 21
-19.45427676910809
 31
0.0
  0
LINE
  5
210
330
1F
100
AcDbEntity
  8
0
100
AcDbLine
 10
-55.53904995952117
 20
36.76574993169168
 30
0.0
 11
-55.10901438659613
 21
36.57635611886311
 31
0.0
  0
LINE
  5
211
330
1F
100
AcDbEntity
  8
0
100
AcDbLine
 10
-55.10901438659613
 20
36.57635611886311
 30
0.0
 11
-54.64461319470021
 21
36.50471714005702
 31
0.0
  0
LINE
  5
212
330
1F
100
AcDbEntity
  8
0
100
AcDbLine
 10
-54.64461319470021
 20
36.50471714005702
 30
0.0
 11
-54.17749455760184
 21
36.5557150732905
 31
0.0
  0
LINE
  5
213
330
1F
100
AcDbEntity
  8
0
100
AcDbLine
 10
-53.73949183846927
 20
36.7258744936913
 30
0.0
 11
-53.36045419877751
 21
37.0035993179611
 31
0.0
  0
LINE
  5
214
330
1F
100
AcDbEntity
  8
0
100
AcDbLine
 10
-53.36045419877751
 20
37.0035993179611
 30
0.0
 11
-53.0662124272824
 21
37.36996305828778
 31
0.0
  0
LINE
  5
215
330
1F
100
AcDbEntity
  8
0
100
AcDbLine
 10
-23.05297058387966
 20
48.35427445710925
 30
0.0
 11
-1.752972287878455
 21
48.35427445710943
 31
0.0
  0
LINE
  5
216
330
1F
100
AcDbEntity
  8
0
100
AcDbLine
 10
37.57056695672456
 20
-41.58693449330477
 30
0.0
 11
37.57056695672456
 21
-30.08693541330479
 31
0.0
  0
LINE
  5
217
330
1F
100
AcDbEntity
  8
0
100
AcDbLine
 10
32.5705673567244
 20
-30.08693541330479
 30
0.0
 11
37.57056695672456
 21
-30.08693541330479
 31
0.0
  0
LINE
  5
218
330
1F
100
AcDbEntity
  8
0
100
AcDbLine
 10
32.5705673567244
 20
-26.08693573330486
 30
0.0
 11
32.5705673567244
 21
-30.08693541330479
 31
0.0
  0
LINE
  5
219
330
1F
100
AcDbEntity
  8
0
100
AcDbLine
 10
32.5705673567244
 20
-26.08693573330486
 30
0.0
 11
32.53649318573932
 21
-25.82811670890785
 31
0.0
  0
LINE
  5
21A
330
1F
100
AcDbEntity
  8
0
100
AcDbLine
 10
31.82938646112145
 20
-25.12100998428979
 30
0.0
 11
31.57056743672444
 21
-25.08693581330472
 31
0.0
  0
LINE
  5
21B
330
1F
100
AcDbEntity
  8
0
100
AcDbLine
 10
13.10210975239256
 20
-25.22091039880232
 30
0.0
 11
13.34329068799543
 21
-25.12100998428979
 31
0.0
  0
LINE
  5
21C
330
1F
100
AcDbEntity
  8
0
100
AcDbLine
 10
12.73608437789009
 20
-25.58693577330479
 30
0.0
 11
12.89500298777457
 21
-25.3798290086868
 31
0.0
  0
LINE
  5
21D
330
1F
100
AcDbEntity
  8
0
100
AcDbLine
 10
12.63618396337756
 20
-25.82811670890785
 30
0.0
 11
12.73608437789009
 21
-25.58693577330479
 31
0.0
  0
LINE
  5
21E
330
1F
100
AcDbEntity
  8
0
100
AcDbLine
 10
12.60210979239249
 20
-26.08693573330486
 30
0.0
 11
12.63618396337756
 21
-25.82811670890785
 31
0.0
  0
LINE
  5
21F
330
1F
100
AcDbEntity
  8
0
100
AcDbLine
 10
12.60210979239249
 20
-30.08693541330479
 30
0.0
 11
12.60210979239249
 21
-26.08693573330486
 31
0.0
  0
LINE
  5
220
330
1F
100
AcDbEntity
  8
0
100
AcDbLine
 10
7.60211019239251
 20
-30.08693541330479
 30
0.0
 11
12.60210979239249
 21
-30.08693541330479
 31
0.0
  0
LINE
  5
221
330
1F
100
AcDbEntity
  8
0
100
AcDbLine
 10
7.60211019239251
 20
-30.08693541330479
 30
0.0
 11
7.60211019239251
 21
-41.58693449330477
 31
0.0
  0
LINE
  5
222
330
1F
100
AcDbEntity
  8
0
100
AcDbLine
 10
7.636184363377581
 20
-41.84575351770178
 30
0.0
 11
7.60211019239251
 21
-41.58693449330477
 31
0.0
  0
LINE
  5
223
330
1F
100
AcDbEntity
  8
0
100
AcDbLine
 10
7.736084777889928
 20
-42.08693445330484
 30
0.0
 11
7.636184363377581
 21
-41.84575351770178
 31
0.0
  0
LINE
  5
224
330
1F
100
AcDbEntity
  8
0
100
AcDbLine
 10
7.895003387774413
 20
-42.29404121792274
 30
0.0
 11
7.736084777889928
 21
-42.08693445330484
 31
0.0
  0
LINE
  5
225
330
1F
100
AcDbEntity
  8
0
100
AcDbLine
 10
8.102110152392399
 20
-42.45295982780722
 30
0.0
 11
7.895003387774413
 21
-42.29404121792274
 31
0.0
  0
LINE
  5
226
330
1F
100
AcDbEntity
  8
0
100
AcDbLine
 10
8.343291087995457
 20
-42.55286024231975
 30
0.0
 11
8.102110152392399
 21
-42.45295982780722
 31
0.0
  0
LINE
  5
227
330
1F
100
AcDbEntity
  8
0
100
AcDbLine
 10
8.60211011239265
 20
-42.58693441330482
 30
0.0
 11
8.343291087995457
 21
-42.55286024231975
 31
0.0
  0
LINE
  5
228
330
1F
100
AcDbEntity
  8
0
100
AcDbLine
 10
8.60211011239265
 20
-42.58693441330482
 30
0.0
 11
13.47057388083843
 21
-42.58693441330482
 31
0.0
  0
LINE
  5
229
330
1F
100
AcDbEntity
  8
0
100
AcDbLine
 10
13.72939290523544
 20
-42.55286024231975
 30
0.0
 11
13.47057388083843
 21
-42.58693441330482
 31
0.0
  0
LINE
  5
22A
330
1F
100
AcDbEntity
  8
0
100
AcDbLine
 10
13.9705738408385
 20
-42.45295982780722
 30
0.0
 11
13.72939290523544
 21
-42.55286024231975
 31
0.0
  0
LINE
  5
22B
330
1F
100
AcDbEntity
  8
0
100
AcDbLine
 10
14.17768060545649
 20
-42.29404121792274
 30
0.0
 11
13.9705738408385
 21
-42.45295982780722
 31
0.0
  0
LINE
  5
22C
330
1F
100
AcDbEntity
  8
0
100
AcDbLine
 10
14.33659921534097
 20
-42.08693445330484
 30
0.0
 11
14.17768060545649
 21
-42.29404121792274
 31
0.0
  0
LINE
  5
22D
330
1F
100
AcDbEntity
  8
0
100
AcDbLine
 10
14.4364996298535
 20
-41.84575351770178
 30
0.0
 11
14.33659921534097
 21
-42.08693445330484
 31
0.0
  0
LINE
  5
22E
330
1F
100
AcDbEntity
  8
0
100
AcDbLine
 10
14.47057380083857
 20
-41.58693449330477
 30
0.0
 11
14.4364996298535
 21
-41.84575351770178
 31
0.0
  0
LINE
  5
22F
330
1F
100
AcDbEntity
  8
0
100
AcDbLine
 10
14.47057380083857
 20
-41.58693449330477
 30
0.0
 11
14.47057380083857
 21
-37.58693481330475
 31
0.0
  0
LINE
  5
230
330
1F
100
AcDbEntity
  8
0
100
AcDbLine
 10
14.47057380083857
 20
-37.58693481330475
 30
0.0
 11
30.67056750872446
 21
-37.58693481330475
 31
0.0
  0
LINE
  5
231
330
1F
100
AcDbEntity
  8
0
100
AcDbLine
 10
30.67056750872446
 20
-37.58693481330475
 30
0.0
 11
30.67056750872446
 21
-41.58693449330477
 31
0.0
  0
LINE
  5
232
330
1F
100
AcDbEntity
  8
0
100
AcDbLine
 10
30.70464167970954
 20
-41.84575351770178
 30
0.0
 11
30.67056750872446
 21
-41.58693449330477
 31
0.0
  0
LINE
  5
233
330
1F
100
AcDbEntity
  8
0
100
AcDbLine
 10
30.80454209422206
 20
-42.08693445330484
 30
0.0
 11
30.70464167970954
 21
-41.84575351770178
 31
0.0
  0
LINE
  5
234
330
1F
100
AcDbEntity
  8
0
100
AcDbLine
 10
30.96346070410654
 20
-42.29404121792274
 30
0.0
 11
30.80454209422206
 21
-42.08693445330484
 31
0.0
  0
LINE
  5
235
330
1F
100
AcDbEntity
  8
0
100
AcDbLine
 10
31.17056746872453
 20
-42.45295982780722
 30
0.0
 11
30.96346070410654
 21
-42.29404121792274
 31
0.0
  0
LINE
  5
236
330
1F
100
AcDbEntity
  8
0
100
AcDbLine
 10
31.41174840432759
 20
-42.55286024231975
 30
0.0
 11
31.17056746872453
 21
-42.45295982780722
 31
0.0
  0
LINE
  5
237
330
1F
100
AcDbEntity
  8
0
100
AcDbLine
 10
31.6705674287246
 20
-42.58693441330482
 30
0.0
 11
31.41174840432759
 21
-42.55286024231975
 31
0.0
  0
LINE
  5
238
330
1F
100
AcDbEntity
  8
0
100
AcDbLine
 10
31.6705674287246
 20
-42.58693441330482
 30
0.0
 11
36.57056703672442
 21
-42.58693441330482
 31
0.0
  0
LINE
  5
239
330
1F
100
AcDbEntity
  8
0
100
AcDbLine
 10
36.82938606112143
 20
-42.55286024231975
 30
0.0
 11
36.57056703672442
 21
-42.58693441330482
 31
0.0
  0
LINE
  5
23A
330
1F
100
AcDbEntity
  8
0
100
AcDbLine
 10
-99.54357607667289
 20
19.76457263207006
 30
0.0
 11
-100.6047340767006
 21
19.90427673310867
 31
0.0
  0
LINE
  5
23B
330
1F
100
AcDbEntity
  8
0
100
AcDbLine
 10
-97.70559650576661
 20
18.70341463204249
 30
0.0
 11
-98.55473424070024
 21
19.35498093256847
 31
0.0
  0
LINE
  5
23C
330
1F
100
AcDbEntity
  8
0
100
AcDbLine
 10
-23.31178960827667
 20
48.32020028612417
 30
0.0
 11
-23.55297054387973
 21
48.22029987161147
 31
0.0
  0
LINE
  5
23D
330
1F
100
AcDbEntity
  8
0
100
AcDbLine
 10
-34.29272773568802
 20
48.32020028612417
 30
0.0
 11
-34.55154676008503
 21
48.35427445710925
 31
0.0
  0
LINE
  5
23E
330
1F
100
AcDbEntity
  8
0
100
AcDbLine
 10
68.75280458266391
 20
-42.2759770240218
 30
0.0
 11
68.54569781804594
 21
-42.43489563390629
 31
0.0
  0
LINE
  5
23F
330
1F
100
AcDbEntity
  8
0
100
AcDbLine
 10
-33.58704391486386
 20
-16.00453943928822
 30
0.0
 11
-33.68694432937638
 21
-16.24572037489128
 31
0.0
  0
LINE
  5
240
330
1F
100
AcDbEntity
  8
0
100
AcDbLine
 10
-33.68694432937638
 20
-16.24572037489128
 30
0.0
 11
-33.84586293926087
 21
-16.45282713950927
 31
0.0
  0
LINE
  5
241
330
1F
100
AcDbEntity
  8
0
100
AcDbLine
 10
-66.13885166900106
 20
-45.98443060570875
 30
0.0
 11
-66.34329669491113
 21
-44.43151645932677
 31
0.0
  0
LINE
  5
242
330
1F
100
AcDbEntity
  8
0
100
AcDbLine
 10
-66.13885166900106
 20
-45.98443060570875
 30
0.0
 11
-66.13885166900106
 21
-49.48443032570871
 31
0.0
  0
LINE
  5
243
330
1F
100
AcDbEntity
  8
0
100
AcDbLine
 10
-66.13885166900106
 20
-49.48443032570871
 30
0.0
 11
-49.73885298100139
 21
-49.48443032570871
 31
0.0
  0
LINE
  5
244
330
1F
100
AcDbEntity
  8
0
100
AcDbLine
 10
-49.73885298100139
 20
-25.8844322137086
 30
0.0
 11
-49.73885298100139
 21
-49.48443032570871
 31
0.0
  0
LINE
  5
245
330
1F
100
AcDbEntity
  8
0
100
AcDbLine
 10
-104.7388485810014
 20
-25.8844322137086
 30
0.0
 11
-49.73885298100139
 21
-25.8844322137086
 31
0.0
  0
LINE
  5
246
330
1F
100
AcDbEntity
  8
0
100
AcDbLine
 10
-53.73885266100146
 20
-46.78443054170867
 30
0.0
 11
-53.27297841708666
 21
-46.72309703393572
 31
0.0
  0
LINE
  5
247
330
1F
100
AcDbEntity
  8
0
100
AcDbLine
 10
-54.2047269049159
 20
-46.72309703393572
 30
0.0
 11
-53.73885266100146
 21
-46.78443054170867
 31
0.0
  0
LINE
  5
248
330
1F
100
AcDbEntity
  8
0
100
AcDbLine
 10
-25.56015715331314
 20
-55.25427390510795
 30
0.0
 11
-25.4602567388008
 21
-55.01309296950579
 31
0.0
  0
LINE
  5
249
330
1F
100
AcDbEntity
  8
0
100
AcDbLine
 10
-25.4602567388008
 20
-55.01309296950579
 30
0.0
 11
-25.42618256781563
 21
-54.75427394510833
 31
0.0
  0
LINE
  5
24A
330
1F
100
AcDbEntity
  8
0
100
AcDbLine
 10
-25.42618256781563
 20
-54.75427394510833
 30
0.0
 11
-25.42618256781572
 21
-40.15427511310777
 31
0.0
  0
LINE
  5
24B
330
1F
100
AcDbEntity
  8
0
100
AcDbLine
 10
-25.42618256781572
 20
-40.15427511310777
 30
0.0
 11
-28.13845777482883
 21
-40.15427511310817
 31
0.0
  0
LINE
  5
24C
330
1F
100
AcDbEntity
  8
0
100
AcDbLine
 10
-28.13845777482883
 20
-40.15427511310817
 30
0.0
 11
-28.13845777482829
 21
-33.55427564110832
 31
0.0
  0
LINE
  5
24D
330
1F
100
AcDbEntity
  8
0
100
AcDbLine
 10
-104.7388485810014
 20
-49.48443032570871
 30
0.0
 11
-104.7388485810014
 21
-25.8844322137086
 31
0.0
  0
LINE
  5
24E
330
1F
100
AcDbEntity
  8
0
100
AcDbLine
 10
-104.7388485810014
 20
-49.48443032570871
 30
0.0
 11
-78.13885070900126
 21
-49.48443032570871
 31
0.0
  0
LINE
  5
24F
330
1F
100
AcDbEntity
  8
0
100
AcDbLine
 10
-78.13885070900126
 20
-45.98443060570875
 30
0.0
 11
-78.13885070900126
 21
-49.48443032570871
 31
0.0
  0
LINE
  5
250
330
1F
100
AcDbEntity
  8
0
100
AcDbLine
 10
-77.93440568309119
 20
-44.43151645932677
 30
0.0
 11
-78.13885070900126
 21
-45.98443060570875
 31
0.0
  0
LINE
  5
251
330
1F
100
AcDbEntity
  8
0
100
AcDbLine
 10
-77.33500319601568
 20
-42.98443084570869
 30
0.0
 11
-77.93440568309119
 21
-44.43151645932677
 31
0.0
  0
LINE
  5
252
330
1F
100
AcDbEntity
  8
0
100
AcDbLine
 10
-76.38149153670912
 20
-41.74179025800068
 30
0.0
 11
-77.33500319601568
 21
-42.98443084570869
 31
0.0
  0
LINE
  5
253
330
1F
100
AcDbEntity
  8
0
100
AcDbLine
 10
-75.13885094900157
 20
-40.78827859869431
 30
0.0
 11
-76.38149153670912
 21
-41.74179025800068
 31
0.0
  0
LINE
  5
254
330
1F
100
AcDbEntity
  8
0
100
AcDbLine
 10
-53.36045419877264
 20
-5.395045195747534
 30
0.0
 11
-53.73949183846332
 21
-5.117320371476294
 31
0.0
  0
LINE
  5
255
330
1F
100
AcDbEntity
  8
0
100
AcDbLine
 10
-53.06621242727879
 20
-5.761408936075298
 30
0.0
 11
-53.36045419877264
 21
-5.395045195747534
 31
0.0
  0
LINE
  5
256
330
1F
100
AcDbEntity
  8
0
100
AcDbLine
 10
-52.87681861445184
 20
-6.191444509001067
 30
0.0
 11
-53.06621242727879
 21
-5.761408936075298
 31
0.0
  0
LINE
  5
257
330
1F
100
AcDbEntity
  8
0
100
AcDbLine
 10
-52.80517963564756
 20
-6.655845700897344
 30
0.0
 11
-52.87681861445184
 21
-6.191444509001067
 31
0.0
  0
LINE
  5
258
330
1F
100
AcDbEntity
  8
0
100
AcDbLine
 10
-52.85617756888266
 20
-7.122964337995532
 30
0.0
 11
-52.80517963564756
 21
-6.655845700897344
 31
0.0
  0
LINE
  5
259
330
1F
100
AcDbEntity
  8
0
100
AcDbLine
 10
-53.02633698928508
 20
-7.560967057127572
 30
0.0
 11
-52.85617756888266
 21
-7.122964337995532
 31
0.0
  0
LINE
  5
25A
330
1F
100
AcDbEntity
  8
0
100
AcDbLine
 10
-53.30406181355632
 20
-7.940004696818243
 30
0.0
 11
-53.02633698928508
 21
-7.560967057127572
 31
0.0
  0
LINE
  5
25B
330
1F
100
AcDbEntity
  8
0
100
AcDbLine
 10
-53.67042555388409
 20
-8.234246468312096
 30
0.0
 11
-53.30406181355632
 21
-7.940004696818243
 31
0.0
  0
LINE
  5
25C
330
1F
100
AcDbEntity
  8
0
100
AcDbLine
 10
-54.10046112680985
 20
-8.423640281139043
 30
0.0
 11
-53.67042555388409
 21
-8.234246468312096
 31
0.0
  0
LINE
  5
25D
330
1F
100
AcDbEntity
  8
0
100
AcDbLine
 10
-54.56486231870614
 20
-8.495279259943317
 30
0.0
 11
-54.10046112680985
 21
-8.423640281139043
 31
0.0
  0
LINE
  5
25E
330
1F
100
AcDbEntity
  8
0
100
AcDbLine
 10
-55.03198095580432
 20
-8.44428132670822
 30
0.0
 11
-54.56486231870614
 21
-8.495279259943317
 31
0.0
  0
LINE
  5
25F
330
1F
100
AcDbEntity
  8
0
100
AcDbLine
 10
-55.46998367493637
 20
-8.274121906305794
 30
0.0
 11
-55.03198095580432
 21
-8.44428132670822
 31
0.0
  0
LINE
  5
260
330
1F
100
AcDbEntity
  8
0
100
AcDbLine
 10
-55.84902131462704
 20
-7.996397082034554
 30
0.0
 11
-55.46998367493637
 21
-8.274121906305794
 31
0.0
  0
LINE
  5
261
330
1F
100
AcDbEntity
  8
0
100
AcDbLine
 10
-56.14326308612089
 20
-7.630033341706789
 30
0.0
 11
-55.84902131462704
 21
-7.996397082034554
 31
0.0
  0
LINE
  5
262
330
1F
100
AcDbEntity
  8
0
100
AcDbLine
 10
-56.33265689894783
 20
-7.199997768781021
 30
0.0
 11
-56.14326308612089
 21
-7.630033341706789
 31
0.0
  0
LINE
  5
263
330
1F
100
AcDbEntity
  8
0
100
AcDbLine
 10
-56.40429587775211
 20
-6.735596576884743
 30
0.0
 11
-56.33265689894783
 21
-7.199997768781021
 31
0.0
  0
LINE
  5
264
330
1F
100
AcDbEntity
  8
0
100
AcDbLine
 10
-36.91884375579385
 20
33.99294209333639
 30
0.0
 11
-37.3529694398792
 21
33.81312134721377
 31
0.0
  0
LINE
  5
265
330
1F
100
AcDbEntity
  8
0
100
AcDbLine
 10
-37.3529694398792
 20
33.81312134721377
 30
0.0
 11
-37.72576161619162
 21
33.52706784942195
 31
0.0
  0
LINE
  5
266
330
1F
100
AcDbEntity
  8
0
100
AcDbLine
 10
-37.72576161619162
 20
33.52706784942195
 30
0.0
 11
-38.01181511398362
 21
33.15427567310954
 31
0.0
  0
LINE
  5
267
330
1F
100
AcDbEntity
  8
0
100
AcDbLine
 10
-38.01181511398362
 20
33.15427567310954
 30
0.0
 11
-38.19163586010624
 21
32.72014998902399
 31
0.0
  0
LINE
  5
268
330
1F
100
AcDbEntity
  8
0
100
AcDbLine
 10
5.587615657703284
 20
40.10381743979465
 30
0.0
 11
5.120476848786732
 21
40.05300461146633
 31
0.0
  0
LINE
  5
269
330
1F
100
AcDbEntity
  8
0
100
AcDbLine
 10
5.120476848786732
 20
40.05300461146633
 30
0.0
 11
4.682406736499163
 21
39.88301876782337
 31
0.0
  0
LINE
  5
26A
330
1F
100
AcDbEntity
  8
0
100
AcDbLine
 10
4.682406736499163
 20
39.88301876782337
 30
0.0
 11
4.30325907504784
 21
39.6054441631947
 31
0.0
  0
LINE
  5
26B
330
1F
100
AcDbEntity
  8
0
100
AcDbLine
 10
4.30325907504784
 20
39.6054441631947
 30
0.0
 11
4.008872150989575
 21
39.23919704817209
 31
0.0
  0
LINE
  5
26C
330
1F
100
AcDbEntity
  8
0
100
AcDbLine
 10
-1.752972287878455
 20
-16.74572033489135
 30
0.0
 11
-23.05297058387894
 21
-16.74572033489072
 31
0.0
  0
LINE
  5
26D
330
1F
100
AcDbEntity
  8
0
100
AcDbLine
 10
-38.01181511398362
 20
31.35427581710939
 30
0.0
 11
-37.72576161619162
 21
30.98148364079698
 31
0.0
  0
LINE
  5
26E
330
1F
100
AcDbEntity
  8
0
100
AcDbLine
 10
-37.72576161619162
 20
30.98148364079698
 30
0.0
 11
-37.3529694398792
 21
30.69543014300498
 31
0.0
  0
LINE
  5
26F
330
1F
100
AcDbEntity
  8
0
100
AcDbLine
 10
-37.3529694398792
 20
30.69543014300498
 30
0.0
 11
-36.91884375579385
 21
30.51560939688236
 31
0.0
  0
LINE
  5
270
330
1F
100
AcDbEntity
  8
0
100
AcDbLine
 10
-36.91884375579385
 20
30.51560939688236
 30
0.0
 11
-36.45296951187923
 21
30.45427588910941
 31
0.0
  0
LINE
  5
271
330
1F
100
AcDbEntity
  8
0
100
AcDbLine
 10
-36.45296951187923
 20
30.45427588910941
 30
0.0
 11
-35.98709526796461
 21
30.51560939688236
 31
0.0
  0
LINE
  5
272
330
1F
100
AcDbEntity
  8
0
100
AcDbLine
 10
-35.98709526796461
 20
30.51560939688236
 30
0.0
 11
-35.55296958387925
 21
30.69543014300498
 31
0.0
  0
LINE
  5
273
330
1F
100
AcDbEntity
  8
0
100
AcDbLine
 10
-35.55296958387925
 20
30.69543014300498
 30
0.0
 11
-35.18017740756665
 21
30.98148364079698
 31
0.0
  0
LINE
  5
274
330
1F
100
AcDbEntity
  8
0
100
AcDbLine
 10
-35.18017740756665
 20
30.98148364079698
 30
0.0
 11
-34.89412390977483
 21
31.35427581710939
 31
0.0
  0
LINE
  5
275
330
1F
100
AcDbEntity
  8
0
100
AcDbLine
 10
-34.89412390977483
 20
31.35427581710939
 30
0.0
 11
-34.71430316365221
 21
31.78840150119475
 31
0.0
  0
LINE
  5
276
330
1F
100
AcDbEntity
  8
0
100
AcDbLine
 10
-34.71430316365221
 20
31.78840150119475
 30
0.0
 11
-34.65296965587908
 21
32.25427574510937
 31
0.0
  0
LINE
  5
277
330
1F
100
AcDbEntity
  8
0
100
AcDbLine
 10
-34.65296965587908
 20
32.25427574510937
 30
0.0
 11
-34.71430316365221
 21
32.72014998902399
 31
0.0
  0
LINE
  5
278
330
1F
100
AcDbEntity
  8
0
100
AcDbLine
 10
-34.71430316365221
 20
32.72014998902399
 30
0.0
 11
-34.89412390977483
 21
33.15427567310935
 31
0.0
  0
LINE
  5
279
330
1F
100
AcDbEntity
  8
0
100
AcDbLine
 10
-30.32291779984096
 20
-43.15427487310773
 30
0.0
 11
-30.79967362949343
 21
-42.532954579254
 31
0.0
  0
LINE
  5
27A
330
1F
100
AcDbEntity
  8
0
100
AcDbLine
 10
-23.76007730849772
 20
48.06138126172716
 30
0.0
 11
-23.9189959183822
 21
47.85427449710917
 31
0.0
  0
LINE
  5
27B
330
1F
100
AcDbEntity
  8
0
100
AcDbLine
 10
-33.55154684008489
 20
47.35427453710911
 30
0.0
 11
-33.58562101106996
 21
47.61309356150612
 31
0.0
  0
LINE
  5
27C
330
1F
100
AcDbEntity
  8
0
100
AcDbLine
 10
-34.05154680008496
 20
48.22029987161164
 30
0.0
 11
-34.29272773568802
 21
48.32020028612417
 31
0.0
  0
LINE
  5
27D
330
1F
100
AcDbEntity
  8
0
100
AcDbLine
 10
-6.335510830455035
 20
-9.195710787749489
 30
0.0
 11
-17.33550495434117
 21
-9.195710787749219
 31
0.0
  0
LINE
  5
27E
330
1F
100
AcDbEntity
  8
0
100
AcDbLine
 10
-6.335510830455757
 20
40.8042649099682
 30
0.0
 11
-6.335510830455035
 21
-9.195710787749489
 31
0.0
  0
LINE
  5
27F
330
1F
100
AcDbEntity
  8
0
100
AcDbLine
 10
-17.33550495434172
 20
40.8042649099682
 30
0.0
 11
-6.335510830455757
 21
40.8042649099682
 31
0.0
  0
LINE
  5
280
330
1F
100
AcDbEntity
  8
0
100
AcDbLine
 10
-17.33550495434117
 20
-9.195710787749219
 30
0.0
 11
-17.33550495434117
 21
-2.9457214388907
 31
0.0
  0
LINE
  5
281
330
1F
100
AcDbEntity
  8
0
100
AcDbLine
 10
-36.49267362091791
 20
16.86543506113706
 30
0.0
 11
-36.9022653204195
 21
17.85427689710931
 31
0.0
  0
LINE
  5
282
330
1F
100
AcDbEntity
  8
0
100
AcDbLine
 10
-36.9022653204195
 20
17.85427689710931
 30
0.0
 11
-37.55383162094557
 21
18.70341463204312
 31
0.0
  0
LINE
  5
283
330
1F
100
AcDbEntity
  8
0
100
AcDbLine
 10
-1.63551120645517
 20
-2.945721438890429
 30
0.0
 11
6.064488177544932
 21
-2.945721438890429
 31
0.0
  0
LINE
  5
284
330
1F
100
AcDbEntity
  8
0
100
AcDbLine
 10
6.064488177544932
 20
3.954278009109671
 30
0.0
 11
-1.63551120645517
 21
3.954278009109671
 31
0.0
  0
LINE
  5
285
330
1F
100
AcDbEntity
  8
0
100
AcDbLine
 10
-33.55296974387878
 20
-15.74572041489121
 30
0.0
 11
-33.58704391486386
 21
-16.00453943928822
 31
0.0
  0
LINE
  5
286
330
1F
100
AcDbEntity
  8
0
100
AcDbLine
 10
-24.01889633289473
 20
47.61309356150612
 30
0.0
 11
-24.0529705038798
 21
47.35427453710911
 31
0.0
  0
LINE
  5
287
330
1F
100
AcDbEntity
  8
0
100
AcDbLine
 10
62.88687922564903
 20
-42.53479604841881
 30
0.0
 11
63.14569825004604
 21
-42.56887021940388
 31
0.0
  0
LINE
  5
288
330
1F
100
AcDbEntity
  8
0
100
AcDbLine
 10
40.07724093371386
 20
-42.56887021940388
 30
0.0
 11
39.81842190931703
 21
-42.53479604841881
 31
0.0
  0
LINE
  5
289
330
1F
100
AcDbEntity
  8
0
100
AcDbLine
 10
45.20452372655684
 20
-42.53479604841881
 30
0.0
 11
44.94570470215982
 21
-42.56887021940388
 31
0.0
  0
LINE
  5
28A
330
1F
100
AcDbEntity
  8
0
100
AcDbLine
 10
44.81842150931683
 20
-25.10294579038885
 30
0.0
 11
45.07724053371384
 21
-25.06887161940378
 31
0.0
  0
LINE
  5
28B
330
1F
100
AcDbEntity
  8
0
100
AcDbLine
 10
45.07724053371384
 20
-25.06887161940378
 30
0.0
 11
63.04569825804588
 21
-25.06887161940378
 31
0.0
  0
LINE
  5
28C
330
1F
100
AcDbEntity
  8
0
100
AcDbLine
 10
-37.85834606175494
 20
48.06138126172716
 30
0.0
 11
-37.65123929713696
 21
48.22029987161164
 31
0.0
  0
LINE
  5
28D
330
1F
100
AcDbEntity
  8
0
100
AcDbLine
 10
-44.00367306333926
 20
13.75427722510931
 30
0.0
 11
-43.3521067628132
 21
12.90513949017549
 31
0.0
  0
LINE
  5
28E
330
1F
100
AcDbEntity
  8
0
100
AcDbLine
 10
-43.3521067628132
 20
12.90513949017549
 30
0.0
 11
-42.50296902787938
 21
12.25357318964943
 31
0.0
  0
LINE
  5
28F
330
1F
100
AcDbEntity
  8
0
100
AcDbLine
 10
-42.50296902787938
 20
12.25357318964943
 30
0.0
 11
-41.51412719190713
 21
11.84398149014783
 31
0.0
  0
LINE
  5
290
330
1F
100
AcDbEntity
  8
0
100
AcDbLine
 10
-41.51412719190713
 20
11.84398149014783
 30
0.0
 11
-40.45296919187947
 21
11.70427738910931
 31
0.0
  0
LINE
  5
291
330
1F
100
AcDbEntity
  8
0
100
AcDbLine
 10
-40.45296919187947
 20
11.70427738910931
 30
0.0
 11
-39.39181119185181
 21
11.84398149014783
 31
0.0
  0
LINE
  5
292
330
1F
100
AcDbEntity
  8
0
100
AcDbLine
 10
-38.40296935587939
 20
12.25357318964943
 30
0.0
 11
-37.55383162094557
 21
12.90513949017549
 31
0.0
  0
LINE
  5
293
330
1F
100
AcDbEntity
  8
0
100
AcDbLine
 10
-37.55383162094557
 20
12.90513949017549
 30
0.0
 11
-36.9022653204195
 21
13.75427722510931
 31
0.0
  0
LINE
  5
294
330
1F
100
AcDbEntity
  8
0
100
AcDbLine
 10
-36.35296951987947
 20
15.8042770611094
 30
0.0
 11
-36.49267362091791
 21
16.86543506113706
 31
0.0
  0
LINE
  5
295
330
1F
100
AcDbEntity
  8
0
100
AcDbLine
 10
-17.33550495434153
 20
34.55427556110941
 30
0.0
 11
-24.70396852278784
 21
34.55427556110941
 31
0.0
  0
LINE
  5
296
330
1F
100
AcDbEntity
  8
0
100
AcDbLine
 10
-23.55297054387883
 20
-16.61174574939312
 30
0.0
 11
-23.31178960827595
 21
-16.71164616390574
 31
0.0
  0
LINE
  5
297
330
1F
100
AcDbEntity
  8
0
100
AcDbLine
 10
-23.31178960827595
 20
-16.71164616390574
 30
0.0
 11
-23.05297058387894
 21
-16.74572033489072
 31
0.0
  0
LINE
  5
298
330
1F
100
AcDbEntity
  8
0
100
AcDbLine
 10
-30.30505847054243
 20
-49.16669151455961
 30
0.0
 11
-27.70698246703508
 21
-44.66669187455812
 31
0.0
  0
LINE
  5
299
330
1F
100
AcDbEntity
  8
0
100
AcDbLine
 10
-27.70698246703508
 20
-44.66669187455812
 30
0.0
 11
-30.30505847054234
 21
-40.1666922345592
 31
0.0
  0
LINE
  5
29A
330
1F
100
AcDbEntity
  8
0
100
AcDbLine
 10
-30.30505847054234
 20
-40.1666922345592
 30
0.0
 11
-35.50121047755579
 21
-40.16669223455961
 31
0.0
  0
LINE
  5
29B
330
1F
100
AcDbEntity
  8
0
100
AcDbLine
 10
-35.50121047755579
 20
-40.16669223455961
 30
0.0
 11
-38.09928648106423
 21
-44.6666918745588
 31
0.0
  0
LINE
  5
29C
330
1F
100
AcDbEntity
  8
0
100
AcDbLine
 10
-38.09928648106423
 20
-44.6666918745588
 30
0.0
 11
-35.5012104775566
 21
-49.16669151455956
 31
0.0
  0
LINE
  5
29D
330
1F
100
AcDbEntity
  8
0
100
AcDbLine
 10
-31.42099392334856
 20
-42.05619874960108
 30
0.0
 11
-32.14453673015674
 21
-41.75649750606337
 31
0.0
  0
LINE
  5
29E
330
1F
100
AcDbEntity
  8
0
100
AcDbLine
 10
-30.02321655630293
 20
-43.87781767991718
 30
0.0
 11
-30.32291779984096
 21
-43.15427487310773
 31
0.0
  0
LINE
  5
29F
330
1F
100
AcDbEntity
  8
0
100
AcDbLine
 10
-29.92099404334808
 20
-44.65427475310798
 30
0.0
 11
-30.02321655630293
 21
-43.87781767991718
 31
0.0
  0
LINE
  5
2A0
330
1F
100
AcDbEntity
  8
0
100
AcDbLine
 10
-30.02321655630383
 20
-45.43073182629862
 30
0.0
 11
-29.92099404334808
 21
-44.65427475310798
 31
0.0
  0
LINE
  5
2A1
330
1F
100
AcDbEntity
  8
0
100
AcDbLine
 10
-30.32291779984132
 20
-46.15427463310811
 30
0.0
 11
-30.02321655630383
 21
-45.43073182629862
 31
0.0
  0
LINE
  5
2A2
330
1F
100
AcDbEntity
  8
0
100
AcDbLine
 10
-30.79967362949379
 20
-46.77559492696248
 30
0.0
 11
-30.32291779984132
 21
-46.15427463310811
 31
0.0
  0
LINE
  5
2A3
330
1F
100
AcDbEntity
  8
0
100
AcDbLine
 10
-31.4209939233482
 20
-47.25235075661557
 30
0.0
 11
-30.79967362949379
 21
-46.77559492696248
 31
0.0
  0
LINE
  5
2A4
330
1F
100
AcDbEntity
  8
0
100
AcDbLine
 10
-32.14453673015728
 20
-47.55205200015324
 30
0.0
 11
-31.4209939233482
 21
-47.25235075661557
 31
0.0
  0
LINE
  5
2A5
330
1F
100
AcDbEntity
  8
0
100
AcDbLine
 10
-32.92099380334841
 20
-47.65427451310813
 30
0.0
 11
-32.14453673015728
 21
-47.55205200015324
 31
0.0
  0
LINE
  5
2A6
330
1F
100
AcDbEntity
  8
0
100
AcDbLine
 10
-33.69745087653917
 20
-47.55205200015297
 30
0.0
 11
-32.92099380334841
 21
-47.65427451310813
 31
0.0
  0
LINE
  5
2A7
330
1F
100
AcDbEntity
  8
0
100
AcDbLine
 10
-34.42099368334853
 20
-47.2523507566153
 30
0.0
 11
-33.69745087653917
 21
-47.55205200015297
 31
0.0
  0
LINE
  5
2A8
330
1F
100
AcDbEntity
  8
0
100
AcDbLine
 10
-35.0423139772024
 20
-46.77559492696265
 30
0.0
 11
-34.42099368334853
 21
-47.2523507566153
 31
0.0
  0
LINE
  5
2A9
330
1F
100
AcDbEntity
  8
0
100
AcDbLine
 10
-35.51906980685558
 20
-46.15427463310824
 30
0.0
 11
-35.0423139772024
 21
-46.77559492696265
 31
0.0
  0
LINE
  5
2AA
330
1F
100
AcDbEntity
  8
0
100
AcDbLine
 10
-35.81877105039361
 20
-45.43073182629921
 30
0.0
 11
-35.51906980685558
 21
-46.15427463310824
 31
0.0
  0
LINE
  5
2AB
330
1F
100
AcDbEntity
  8
0
100
AcDbLine
 10
-35.92099356334828
 20
-44.65427475310867
 30
0.0
 11
-35.81877105039361
 21
-45.43073182629921
 31
0.0
  0
LINE
  5
2AC
330
1F
100
AcDbEntity
  8
0
100
AcDbLine
 10
-35.81877105039334
 20
-43.87781767991727
 30
0.0
 11
-35.92099356334828
 21
-44.65427475310867
 31
0.0
  0
LINE
  5
2AD
330
1F
100
AcDbEntity
  8
0
100
AcDbLine
 10
-35.51906980685558
 20
-43.15427487310814
 30
0.0
 11
-35.81877105039334
 21
-43.87781767991727
 31
0.0
  0
LINE
  5
2AE
330
1F
100
AcDbEntity
  8
0
100
AcDbLine
 10
-35.04231397720276
 20
-42.53295457925414
 30
0.0
 11
-35.51906980685558
 21
-43.15427487310814
 31
0.0
  0
LINE
  5
2AF
330
1F
100
AcDbEntity
  8
0
100
AcDbLine
 10
-34.42099368334807
 20
-42.05619874960117
 30
0.0
 11
-35.04231397720276
 21
-42.53295457925414
 31
0.0
  0
LINE
  5
2B0
330
1F
100
AcDbEntity
  8
0
100
AcDbLine
 10
-33.69745087653926
 20
-41.75649750606256
 30
0.0
 11
-34.42099368334807
 21
-42.05619874960117
 31
0.0
  0
LINE
  5
2B1
330
1F
100
AcDbEntity
  8
0
100
AcDbLine
 10
-32.92099380334868
 20
-41.65427499310825
 30
0.0
 11
-33.69745087653926
 21
-41.75649750606256
 31
0.0
  0
LINE
  5
2B2
330
1F
100
AcDbEntity
  8
0
100
AcDbLine
 10
-32.14453673015674
 20
-41.75649750606337
 30
0.0
 11
-32.92099380334868
 21
-41.65427499310825
 31
0.0
  0
LINE
  5
2B3
330
1F
100
AcDbEntity
  8
0
100
AcDbLine
 10
-34.55296966387892
 20
-16.74572033489126
 30
0.0
 11
-37.14730578730546
 21
-16.74572033489099
 31
0.0
  0
LINE
  5
2B4
330
1F
100
AcDbEntity
  8
0
100
AcDbLine
 10
-95.7047344687005
 20
30.69543014300444
 30
0.0
 11
-95.33194229238791
 21
30.98148364079644
 31
0.0
  0
LINE
  5
2B5
330
1F
100
AcDbEntity
  8
0
100
AcDbLine
 10
-96.13886015278587
 20
30.51560939688181
 30
0.0
 11
-95.7047344687005
 21
30.69543014300444
 31
0.0
  0
LINE
  5
2B6
330
1F
100
AcDbEntity
  8
0
100
AcDbLine
 10
-36.45296951187923
 20
-2.445721478890719
 30
0.0
 11
-35.98709526796461
 21
-2.384387971117771
 31
0.0
  0
LINE
  5
2B7
330
1F
100
AcDbEntity
  8
0
100
AcDbLine
 10
-35.98709526796461
 20
-2.384387971117771
 30
0.0
 11
-35.55296958387925
 21
-2.204567224995152
 31
0.0
  0
LINE
  5
2B8
330
1F
100
AcDbEntity
  8
0
100
AcDbLine
 10
-35.55296958387925
 20
-2.204567224995152
 30
0.0
 11
-35.18017740756665
 21
-1.91851372720315
 31
0.0
  0
LINE
  5
2B9
330
1F
100
AcDbEntity
  8
0
100
AcDbLine
 10
-35.18017740756665
 20
-1.91851372720315
 30
0.0
 11
-34.89412390977483
 21
-1.545721550890738
 31
0.0
  0
LINE
  5
2BA
330
1F
100
AcDbEntity
  8
0
100
AcDbLine
 10
-34.89412390977483
 20
-1.545721550890738
 30
0.0
 11
-34.71430316365221
 21
-1.111595866805378
 31
0.0
  0
LINE
  5
2BB
330
1F
100
AcDbEntity
  8
0
100
AcDbLine
 10
-34.71430316365221
 20
-1.111595866805378
 30
0.0
 11
-34.65296965587908
 21
-0.6457216228907564
 31
0.0
  0
LINE
  5
2BC
330
1F
100
AcDbEntity
  8
0
100
AcDbLine
 10
-34.65296965587908
 20
-0.6457216228907564
 30
0.0
 11
-34.71430316365221
 21
-0.1798473789761346
 31
0.0
  0
LINE
  5
2BD
330
1F
100
AcDbEntity
  8
0
100
AcDbLine
 10
-34.71430316365221
 20
-0.1798473789761346
 30
0.0
 11
-34.89412390977483
 21
0.2542783051093155
 31
0.0
  0
LINE
  5
2BE
330
1F
100
AcDbEntity
  8
0
100
AcDbLine
 10
-34.89412390977483
 20
0.2542783051093155
 30
0.0
 11
-35.18017740756665
 21
0.6270704814217273
 31
0.0
  0
LINE
  5
2BF
330
1F
100
AcDbEntity
  8
0
100
AcDbLine
 10
-35.18017740756665
 20
0.6270704814217273
 30
0.0
 11
-35.55296958387907
 21
0.913123979213639
 31
0.0
  0
LINE
  5
2C0
330
1F
100
AcDbEntity
  8
0
100
AcDbLine
 10
-35.55296958387907
 20
0.913123979213639
 30
0.0
 11
-35.98709526796461
 21
1.092944725336349
 31
0.0
  0
LINE
  5
2C1
330
1F
100
AcDbEntity
  8
0
100
AcDbLine
 10
-35.98709526796461
 20
1.092944725336349
 30
0.0
 11
-36.45296951187923
 21
1.154278233109387
 31
0.0
  0
LINE
  5
2C2
330
1F
100
AcDbEntity
  8
0
100
AcDbLine
 10
-36.45296951187923
 20
1.154278233109387
 30
0.0
 11
-36.91884375579385
 21
1.092944725336349
 31
0.0
  0
LINE
  5
2C3
330
1F
100
AcDbEntity
  8
0
100
AcDbLine
 10
-53.0662124272824
 20
37.36996305828778
 30
0.0
 11
-52.87681861445382
 21
37.79999863121282
 31
0.0
  0
LINE
  5
2C4
330
1F
100
AcDbEntity
  8
0
100
AcDbLine
 10
-52.87681861445382
 20
37.79999863121282
 30
0.0
 11
-52.80517963564775
 21
38.26439982310874
 31
0.0
  0
LINE
  5
2C5
330
1F
100
AcDbEntity
  8
0
100
AcDbLine
 10
-52.80517963564775
 20
38.26439982310874
 30
0.0
 11
-52.85617756888121
 21
38.73151846020711
 31
0.0
  0
LINE
  5
2C6
330
1F
100
AcDbEntity
  8
0
100
AcDbLine
 10
-52.85617756888121
 20
38.73151846020711
 30
0.0
 11
-53.02633698928202
 21
39.1695211793397
 31
0.0
  0
LINE
  5
2C7
330
1F
100
AcDbEntity
  8
0
100
AcDbLine
 10
-53.02633698928202
 20
39.1695211793397
 30
0.0
 11
-53.30406181355181
 21
39.54855881903144
 31
0.0
  0
LINE
  5
2C8
330
1F
100
AcDbEntity
  8
0
100
AcDbLine
 10
-53.30406181355181
 20
39.54855881903144
 30
0.0
 11
-53.67042555387849
 21
39.84280059052656
 31
0.0
  0
LINE
  5
2C9
330
1F
100
AcDbEntity
  8
0
100
AcDbLine
 10
-53.67042555387849
 20
39.84280059052656
 30
0.0
 11
-54.10046112680354
 21
40.03219440335513
 31
0.0
  0
LINE
  5
2CA
330
1F
100
AcDbEntity
  8
0
100
AcDbLine
 10
-67.8047367006998
 20
-10.74572081489132
 30
0.0
 11
-57.40473753269976
 21
-10.74572081489132
 31
0.0
  0
LINE
  5
2CB
330
1F
100
AcDbEntity
  8
0
100
AcDbLine
 10
-57.40473753269976
 20
-10.74572081489132
 30
0.0
 11
-57.40473753269976
 21
-17.54572027089135
 31
0.0
  0
LINE
  5
2CC
330
1F
100
AcDbEntity
  8
0
100
AcDbLine
 10
-95.7047344687005
 20
0.9131239792130074
 30
0.0
 11
-96.13886015278587
 21
1.092944725335717
 31
0.0
  0
LINE
  5
2CD
330
1F
100
AcDbEntity
  8
0
100
AcDbLine
 10
-95.33194229238791
 20
0.6270704814210956
 30
0.0
 11
-95.7047344687005
 21
0.9131239792130074
 31
0.0
  0
LINE
  5
2CE
330
1F
100
AcDbEntity
  8
0
100
AcDbLine
 10
-95.04588879459627
 20
0.2542783051086838
 30
0.0
 11
-95.33194229238791
 21
0.6270704814210956
 31
0.0
  0
LINE
  5
2CF
330
1F
100
AcDbEntity
  8
0
100
AcDbLine
 10
-94.86606804847347
 20
-0.179847378976676
 30
0.0
 11
-95.04588879459627
 21
0.2542783051086838
 31
0.0
  0
LINE
  5
2D0
330
1F
100
AcDbEntity
  8
0
100
AcDbLine
 10
7.346569306806551
 20
38.26368673152793
 30
0.0
 11
7.295756478478407
 21
38.73082554044449
 31
0.0
  0
LINE
  5
2D1
330
1F
100
AcDbEntity
  8
0
100
AcDbLine
 10
-98.16357999880465
 20
0.2542783051086838
 30
0.0
 11
-98.34340074492745
 21
-0.179847378976676
 31
0.0
  0
LINE
  5
2D2
330
1F
100
AcDbEntity
  8
0
100
AcDbLine
 10
-97.8775265010127
 20
0.6270704814210956
 30
0.0
 11
-98.16357999880465
 21
0.2542783051086838
 31
0.0
  0
LINE
  5
2D3
330
1F
100
AcDbEntity
  8
0
100
AcDbLine
 10
0.4615399371716191
 20
-55.75427386510807
 30
0.0
 11
-4.138459694828899
 21
-55.75427386510847
 31
0.0
  0
LINE
  5
2D4
330
1F
100
AcDbEntity
  8
0
100
AcDbLine
 10
0.7203589615679995
 20
-55.72019969412312
 30
0.0
 11
0.4615399371716191
 21
-55.75427386510807
 31
0.0
  0
LINE
  5
2D5
330
1F
100
AcDbEntity
  8
0
100
AcDbLine
 10
0.9615398971711476
 20
-55.62029927961069
 30
0.0
 11
0.7203589615679995
 21
-55.72019969412312
 31
0.0
  0
LINE
  5
2D6
330
1F
100
AcDbEntity
  8
0
100
AcDbLine
 10
1.168646661789134
 20
-55.46138066972647
 30
0.0
 11
0.9615398971711476
 21
-55.62029927961069
 31
0.0
  0
LINE
  5
2D7
330
1F
100
AcDbEntity
  8
0
100
AcDbLine
 10
1.327565271673891
 20
-55.25427390510895
 30
0.0
 11
1.168646661789134
 21
-55.46138066972647
 31
0.0
  0
LINE
  5
2D8
330
1F
100
AcDbEntity
  8
0
100
AcDbLine
 10
-0.7529723678784961
 20
47.35427453710947
 30
0.0
 11
-0.7870465388635675
 21
47.61309356150647
 31
0.0
  0
LINE
  5
2D9
330
1F
100
AcDbEntity
  8
0
100
AcDbLine
 10
-94.80473454070034
 20
-0.6457216228912979
 30
0.0
 11
-94.86606804847347
 21
-0.179847378976676
 31
0.0
  0
LINE
  5
2DA
330
1F
100
AcDbEntity
  8
0
100
AcDbLine
 10
-94.86606804847347
 20
-1.11159586680592
 30
0.0
 11
-94.80473454070034
 21
-0.6457216228912979
 31
0.0
  0
LINE
  5
2DB
330
1F
100
AcDbEntity
  8
0
100
AcDbLine
 10
-95.04588879459627
 20
-1.545721550891279
 30
0.0
 11
-94.86606804847347
 21
-1.11159586680592
 31
0.0
  0
LINE
  5
2DC
330
1F
100
AcDbEntity
  8
0
100
AcDbLine
 10
-95.33194229238791
 20
-1.918513727203691
 30
0.0
 11
-95.04588879459627
 21
-1.545721550891279
 31
0.0
  0
LINE
  5
2DD
330
1F
100
AcDbEntity
  8
0
100
AcDbLine
 10
-95.7047344687005
 20
-2.204567224995603
 30
0.0
 11
-95.33194229238791
 21
-1.918513727203691
 31
0.0
  0
LINE
  5
2DE
330
1F
100
AcDbEntity
  8
0
100
AcDbLine
 10
-96.13886015278587
 20
-2.384387971118313
 30
0.0
 11
-95.7047344687005
 21
-2.204567224995603
 31
0.0
  0
LINE
  5
2DF
330
1F
100
AcDbEntity
  8
0
100
AcDbLine
 10
-96.60473439670031
 20
-2.445721478891261
 30
0.0
 11
-96.13886015278587
 21
-2.384387971118313
 31
0.0
  0
LINE
  5
2E0
330
1F
100
AcDbEntity
  8
0
100
AcDbLine
 10
-97.0706086406151
 20
-2.384387971118313
 30
0.0
 11
-96.60473439670031
 21
-2.445721478891261
 31
0.0
  0
LINE
  5
2E1
330
1F
100
AcDbEntity
  8
0
100
AcDbLine
 10
-97.50473432470046
 20
-2.204567224995603
 30
0.0
 11
-97.0706086406151
 21
-2.384387971118313
 31
0.0
  0
LINE
  5
2E2
330
1F
100
AcDbEntity
  8
0
100
AcDbLine
 10
-97.8775265010127
 20
-1.918513727203691
 30
0.0
 11
-97.50473432470046
 21
-2.204567224995603
 31
0.0
  0
LINE
  5
2E3
330
1F
100
AcDbEntity
  8
0
100
AcDbLine
 10
-98.16357999880465
 20
-1.545721550891279
 30
0.0
 11
-97.8775265010127
 21
-1.918513727203691
 31
0.0
  0
LINE
  5
2E4
330
1F
100
AcDbEntity
  8
0
100
AcDbLine
 10
-98.34340074492745
 20
-1.11159586680592
 30
0.0
 11
-98.16357999880465
 21
-1.545721550891279
 31
0.0
  0
LINE
  5
2E5
330
1F
100
AcDbEntity
  8
0
100
AcDbLine
 10
-98.40473425270022
 20
-0.6457216228912979
 30
0.0
 11
-98.34340074492745
 21
-1.11159586680592
 31
0.0
  0
LINE
  5
2E6
330
1F
100
AcDbEntity
  8
0
100
AcDbLine
 10
-98.34340074492745
 20
-0.179847378976676
 30
0.0
 11
-98.40473425270022
 21
-0.6457216228912979
 31
0.0
  0
LINE
  5
2E7
330
1F
100
AcDbEntity
  8
0
100
AcDbLine
 10
-1.752972287878455
 20
-16.74572033489135
 30
0.0
 11
-1.494153263481443
 21
-16.71164616390637
 31
0.0
  0
LINE
  5
2E8
330
1F
100
AcDbEntity
  8
0
100
AcDbLine
 10
-1.04586556326058
 20
48.06138126172753
 30
0.0
 11
-1.252972327878566
 21
48.22029987161183
 31
0.0
  0
LINE
  5
2E9
330
1F
100
AcDbEntity
  8
0
100
AcDbLine
 10
-36.91884375579385
 20
1.092944725336349
 30
0.0
 11
-37.3529694398792
 21
0.913123979213639
 31
0.0
  0
LINE
  5
2EA
330
1F
100
AcDbEntity
  8
0
100
AcDbLine
 10
-37.3529694398792
 20
0.913123979213639
 30
0.0
 11
-37.72576161619162
 21
0.6270704814217273
 31
0.0
  0
LINE
  5
2EB
330
1F
100
AcDbEntity
  8
0
100
AcDbLine
 10
-37.72576161619162
 20
0.6270704814217273
 30
0.0
 11
-38.01181511398362
 21
0.2542783051093155
 31
0.0
  0
LINE
  5
2EC
330
1F
100
AcDbEntity
  8
0
100
AcDbLine
 10
4.01195767422334
 20
-5.755741749058751
 30
0.0
 11
3.820979329361499
 21
-6.185075980296562
 31
0.0
  0
LINE
  5
2ED
330
1F
100
AcDbEntity
  8
0
100
AcDbLine
 10
3.820979329361499
 20
-6.185075980296562
 30
0.0
 11
3.747628289556231
 21
-6.649209835211634
 31
0.0
  0
LINE
  5
2EE
330
1F
100
AcDbEntity
  8
0
100
AcDbLine
 10
3.747628289556231
 20
-6.649209835211634
 30
0.0
 11
3.796903306952245
 21
-7.11651335860866
 31
0.0
  0
LINE
  5
2EF
330
1F
100
AcDbEntity
  8
0
100
AcDbLine
 10
3.796903306952245
 20
-7.11651335860866
 30
0.0
 11
3.965446370544291
 21
-7.555140587624077
 31
0.0
  0
LINE
  5
2F0
330
1F
100
AcDbEntity
  8
0
100
AcDbLine
 10
3.965446370544291
 20
-7.555140587624077
 30
0.0
 11
4.241771549079656
 21
-7.935199801466053
 31
0.0
  0
LINE
  5
2F1
330
1F
100
AcDbEntity
  8
0
100
AcDbLine
 10
4.241771549079656
 20
-7.935199801466053
 30
0.0
 11
4.607047738289985
 21
-8.230790592788809
 31
0.0
  0
LINE
  5
2F2
330
1F
100
AcDbEntity
  8
0
100
AcDbLine
 10
4.607047738289985
 20
-8.230790592788809
 30
0.0
 11
5.036381969527796
 21
-8.421768937650558
 31
0.0
  0
LINE
  5
2F3
330
1F
100
AcDbEntity
  8
0
100
AcDbLine
 10
5.036381969527796
 20
-8.421768937650558
 30
0.0
 11
5.500515824442687
 21
-8.495119977455827
 31
0.0
  0
LINE
  5
2F4
330
1F
100
AcDbEntity
  8
0
100
AcDbLine
 10
5.500515824442687
 20
-8.495119977455827
 30
0.0
 11
5.967819347839893
 21
-8.445844960059903
 31
0.0
  0
LINE
  5
2F5
330
1F
100
AcDbEntity
  8
0
100
AcDbLine
 10
6.40644657685531
 20
-8.277301896467677
 30
0.0
 11
6.786505790697107
 21
-8.000976717932403
 31
0.0
  0
LINE
  5
2F6
330
1F
100
AcDbEntity
  8
0
100
AcDbLine
 10
-24.01889633289383
 20
-16.00453943928768
 30
0.0
 11
-23.9189959183813
 21
-16.24572037489074
 31
0.0
  0
LINE
  5
2F7
330
1F
100
AcDbEntity
  8
0
100
AcDbLine
 10
-23.9189959183813
 20
-16.24572037489074
 30
0.0
 11
-23.760077308497
 21
-16.45282713950873
 31
0.0
  0
LINE
  5
2F8
330
1F
100
AcDbEntity
  8
0
100
AcDbLine
 10
-23.760077308497
 20
-16.45282713950873
 30
0.0
 11
-23.55297054387883
 21
-16.61174574939312
 31
0.0
  0
LINE
  5
2F9
330
1F
100
AcDbEntity
  8
0
100
AcDbLine
 10
-1.494153263481443
 20
-16.71164616390637
 30
0.0
 11
-1.252972327878566
 21
-16.61174574939375
 31
0.0
  0
LINE
  5
2FA
330
1F
100
AcDbEntity
  8
0
100
AcDbLine
 10
-38.14730539789782
 20
-15.7465070627323
 30
0.0
 11
-38.11306166256749
 21
-16.00517258658486
 31
0.0
  0
LINE
  5
2FB
330
1F
100
AcDbEntity
  8
0
100
AcDbLine
 10
-0.7870465388635675
 20
-16.0045394392884
 30
0.0
 11
-0.7529723678784961
 21
-15.74572041489139
 31
0.0
  0
LINE
  5
2FC
330
1F
100
AcDbEntity
  8
0
100
AcDbLine
 10
-1.252972327878566
 20
-16.61174574939375
 30
0.0
 11
-1.04586556326058
 21
-16.45282713950936
 31
0.0
  0
LINE
  5
2FD
330
1F
100
AcDbEntity
  8
0
100
AcDbLine
 10
-1.04586556326058
 20
-16.45282713950936
 30
0.0
 11
-0.8869469533760939
 21
-16.24572037489137
 31
0.0
  0
LINE
  5
2FE
330
1F
100
AcDbEntity
  8
0
100
AcDbLine
 10
-23.55297054387973
 20
48.22029987161147
 30
0.0
 11
-23.76007730849772
 21
48.06138126172716
 31
0.0
  0
LINE
  5
2FF
330
1F
100
AcDbEntity
  8
0
100
AcDbLine
 10
-38.15123925713704
 20
47.35427453710911
 30
0.0
 11
-38.11716508615196
 21
47.61309356150612
 31
0.0
  0
LINE
  5
300
330
1F
100
AcDbEntity
  8
0
100
AcDbLine
 10
-33.55154684008489
 20
47.35427453710911
 30
0.0
 11
-33.55154684008489
 21
42.35427493710931
 31
0.0
  0
LINE
  5
301
330
1F
100
AcDbEntity
  8
0
100
AcDbLine
 10
-0.8869469533760939
 20
-16.24572037489137
 30
0.0
 11
-0.7870465388635675
 21
-16.0045394392884
 31
0.0
  0
LINE
  5
302
330
1F
100
AcDbEntity
  8
0
100
AcDbLine
 10
-38.01181511398362
 20
0.2542783051093155
 30
0.0
 11
-38.19163586010624
 21
-0.1798473789761346
 31
0.0
  0
LINE
  5
303
330
1F
100
AcDbEntity
  8
0
100
AcDbLine
 10
-38.19163586010624
 20
-0.1798473789761346
 30
0.0
 11
-38.25296936787919
 21
-0.6457216228907564
 31
0.0
  0
LINE
  5
304
330
1F
100
AcDbEntity
  8
0
100
AcDbLine
 10
-38.25296936787919
 20
-0.6457216228907564
 30
0.0
 11
-38.19163586010624
 21
-1.111595866805378
 31
0.0
  0
LINE
  5
305
330
1F
100
AcDbEntity
  8
0
100
AcDbLine
 10
-38.19163586010624
 20
-1.111595866805378
 30
0.0
 11
-38.01181511398362
 21
-1.545721550890738
 31
0.0
  0
LINE
  5
306
330
1F
100
AcDbEntity
  8
0
100
AcDbLine
 10
-97.50473432470046
 20
0.9131239792130074
 30
0.0
 11
-97.8775265010127
 21
0.6270704814210956
 31
0.0
  0
LINE
  5
307
330
1F
100
AcDbEntity
  8
0
100
AcDbLine
 10
-97.0706086406151
 20
1.092944725335717
 30
0.0
 11
-97.50473432470046
 21
0.9131239792130074
 31
0.0
  0
LINE
  5
308
330
1F
100
AcDbEntity
  8
0
100
AcDbLine
 10
-96.60473439670031
 20
1.154278233108665
 30
0.0
 11
-97.0706086406151
 21
1.092944725335717
 31
0.0
  0
LINE
  5
309
330
1F
100
AcDbEntity
  8
0
100
AcDbLine
 10
-96.13886015278587
 20
1.092944725335717
 30
0.0
 11
-96.60473439670031
 21
1.154278233108665
 31
0.0
  0
LINE
  5
30A
330
1F
100
AcDbEntity
  8
0
100
AcDbLine
 10
-56.35329794451701
 20
-6.268477939786556
 30
0.0
 11
-56.40429587775211
 21
-6.735596576884743
 31
0.0
  0
LINE
  5
30B
330
1F
100
AcDbEntity
  8
0
100
AcDbLine
 10
-34.89412390977483
 20
33.15427567310935
 30
0.0
 11
-35.18017740756665
 21
33.52706784942195
 31
0.0
  0
LINE
  5
30C
330
1F
100
AcDbEntity
  8
0
100
AcDbLine
 10
-35.18017740756665
 20
33.52706784942195
 30
0.0
 11
-35.55296958387907
 21
33.81312134721377
 31
0.0
  0
LINE
  5
30D
330
1F
100
AcDbEntity
  8
0
100
AcDbLine
 10
-35.55296958387907
 20
33.81312134721377
 30
0.0
 11
-35.98709526796461
 21
33.99294209333639
 31
0.0
  0
LINE
  5
30E
330
1F
100
AcDbEntity
  8
0
100
AcDbLine
 10
-35.98709526796461
 20
33.99294209333639
 30
0.0
 11
-36.45296951187923
 21
34.05427560110952
 31
0.0
  0
LINE
  5
30F
330
1F
100
AcDbEntity
  8
0
100
AcDbLine
 10
-36.45296951187923
 20
34.05427560110952
 30
0.0
 11
-36.91884375579385
 21
33.99294209333639
 31
0.0
  0
LINE
  5
310
330
1F
100
AcDbEntity
  8
0
100
AcDbLine
 10
-38.25296936787919
 20
32.25427574510937
 30
0.0
 11
-38.19163586010624
 21
31.78840150119475
 31
0.0
  0
LINE
  5
311
330
1F
100
AcDbEntity
  8
0
100
AcDbLine
 10
-38.19163586010624
 20
31.78840150119475
 30
0.0
 11
-38.01181511398362
 21
31.35427581710939
 31
0.0
  0
LINE
  5
312
330
1F
100
AcDbEntity
  8
0
100
AcDbLine
 10
-37.55383162094557
 20
18.70341463204312
 30
0.0
 11
-38.40296935587939
 21
19.3549809325691
 31
0.0
  0
LINE
  5
313
330
1F
100
AcDbEntity
  8
0
100
AcDbLine
 10
-39.39181119185181
 20
19.76457263207069
 30
0.0
 11
-40.45296919187947
 21
19.90427673310931
 31
0.0
  0
LINE
  5
314
330
1F
100
AcDbEntity
  8
0
100
AcDbLine
 10
-42.50296902787938
 20
19.3549809325691
 30
0.0
 11
-43.3521067628132
 21
18.70341463204312
 31
0.0
  0
LINE
  5
315
330
1F
100
AcDbEntity
  8
0
100
AcDbLine
 10
-43.3521067628132
 20
18.70341463204312
 30
0.0
 11
-44.00367306333926
 21
17.85427689710931
 31
0.0
  0
LINE
  5
316
330
1F
100
AcDbEntity
  8
0
100
AcDbLine
 10
-44.00367306333926
 20
17.85427689710931
 30
0.0
 11
-44.41326476284085
 21
16.86543506113706
 31
0.0
  0
LINE
  5
317
330
1F
100
AcDbEntity
  8
0
100
AcDbLine
 10
-44.41326476284085
 20
16.86543506113706
 30
0.0
 11
-44.55296886387946
 21
15.8042770611094
 31
0.0
  0
LINE
  5
318
330
1F
100
AcDbEntity
  8
0
100
AcDbLine
 10
-44.41326476284085
 20
14.74311906108174
 30
0.0
 11
-44.00367306333926
 21
13.75427722510931
 31
0.0
  0
LINE
  5
319
330
1F
100
AcDbEntity
  8
0
100
AcDbLine
 10
-0.7870465388635675
 20
47.61309356150647
 30
0.0
 11
-0.8869469533760939
 21
47.85427449710935
 31
0.0
  0
LINE
  5
31A
330
1F
100
AcDbEntity
  8
0
100
AcDbLine
 10
-87.6760173259383
 20
-42.38635468220153
 30
0.0
 11
-88.3623927558104
 21
-42.08665343866367
 31
0.0
  0
LINE
  5
31B
330
1F
100
AcDbEntity
  8
0
100
AcDbLine
 10
-87.63884994900123
 20
-42.38635468220153
 30
0.0
 11
-87.6760173259383
 21
-42.38635468220153
 31
0.0
  0
LINE
  5
31C
330
1F
100
AcDbEntity
  8
0
100
AcDbLine
 10
-87.05469703208452
 20
-42.86311051185463
 30
0.0
 11
-87.63884994900123
 21
-42.38635468220153
 31
0.0
  0
LINE
  5
31D
330
1F
100
AcDbEntity
  8
0
100
AcDbLine
 10
-86.57794120243108
 20
-43.48443080570877
 30
0.0
 11
-87.05469703208452
 21
-42.86311051185463
 31
0.0
  0
LINE
  5
31E
330
1F
100
AcDbEntity
  8
0
100
AcDbLine
 10
-86.27823995889331
 20
-44.20797361251776
 30
0.0
 11
-86.57794120243108
 21
-43.48443080570877
 31
0.0
  0
LINE
  5
31F
330
1F
100
AcDbEntity
  8
0
100
AcDbLine
 10
-86.17601744593846
 20
-44.98443068570879
 30
0.0
 11
-86.27823995889331
 21
-44.20797361251776
 31
0.0
  0
LINE
  5
320
330
1F
100
AcDbEntity
  8
0
100
AcDbLine
 10
-48.45296855187946
 20
20.29336279635931
 30
0.0
 11
-48.45296855187946
 21
15.83232374127767
 31
0.0
  0
LINE
  5
321
330
1F
100
AcDbEntity
  8
0
100
AcDbLine
 10
-48.45296855187946
 20
20.29336279635931
 30
0.0
 11
-45.45296879187904
 21
23.29336255635937
 31
0.0
  0
LINE
  5
322
330
1F
100
AcDbEntity
  8
0
100
AcDbLine
 10
-45.45296879187904
 20
23.29336255635937
 30
0.0
 11
-45.45296879187904
 21
42.35427493710931
 31
0.0
  0
LINE
  5
323
330
1F
100
AcDbEntity
  8
0
100
AcDbLine
 10
-2.038459862827829
 20
-19.08825139460522
 30
0.0
 11
-2.279640798431067
 21
-18.98835098009287
 31
0.0
  0
LINE
  5
324
330
1F
100
AcDbEntity
  8
0
100
AcDbLine
 10
-89.95247427912915
 20
-42.08665343866367
 30
0.0
 11
-90.63884970900125
 21
-42.38635468220153
 31
0.0
  0
LINE
  5
325
330
1F
100
AcDbEntity
  8
0
100
AcDbLine
 10
-89.91530690219243
 20
-42.08665343866367
 30
0.0
 11
-89.95247427912915
 21
-42.08665343866367
 31
0.0
  0
LINE
  5
326
330
1F
100
AcDbEntity
  8
0
100
AcDbLine
 10
-89.17601720593834
 20
-41.98443092570874
 30
0.0
 11
-89.91530690219243
 21
-42.08665343866367
 31
0.0
  0
LINE
  5
327
330
1F
100
AcDbEntity
  8
0
100
AcDbLine
 10
-89.13884982900126
 20
-41.98443092570874
 30
0.0
 11
-89.17601720593834
 21
-41.98443092570874
 31
0.0
  0
LINE
  5
328
330
1F
100
AcDbEntity
  8
0
100
AcDbLine
 10
-88.39956013274711
 20
-42.08665343866367
 30
0.0
 11
-89.13884982900126
 21
-41.98443092570874
 31
0.0
  0
LINE
  5
329
330
1F
100
AcDbEntity
  8
0
100
AcDbLine
 10
-88.3623927558104
 20
-42.08665343866367
 30
0.0
 11
-88.39956013274711
 21
-42.08665343866367
 31
0.0
  0
LINE
  5
32A
330
1F
100
AcDbEntity
  8
0
100
AcDbLine
 10
-41.51412719190713
 20
19.76457263207069
 30
0.0
 11
-42.50296902787938
 21
19.3549809325691
 31
0.0
  0
LINE
  5
32B
330
1F
100
AcDbEntity
  8
0
100
AcDbLine
 10
-39.39181119185181
 20
11.84398149014783
 30
0.0
 11
-38.40296935587939
 21
12.25357318964943
 31
0.0
  0
LINE
  5
32C
330
1F
100
AcDbEntity
  8
0
100
AcDbLine
 10
-40.45296919187947
 20
19.90427673310931
 30
0.0
 11
-41.51412719190713
 21
19.76457263207069
 31
0.0
  0
LINE
  5
32D
330
1F
100
AcDbEntity
  8
0
100
AcDbLine
 10
-38.40296935587939
 20
19.3549809325691
 30
0.0
 11
-39.39181119185181
 21
19.76457263207069
 31
0.0
  0
LINE
  5
32E
330
1F
100
AcDbEntity
  8
0
100
AcDbLine
 10
-36.9022653204195
 20
13.75427722510931
 30
0.0
 11
-36.49267362091791
 21
14.74311906108174
 31
0.0
  0
LINE
  5
32F
330
1F
100
AcDbEntity
  8
0
100
AcDbLine
 10
-48.45296855187946
 20
11.31519132585904
 30
0.0
 11
-45.45296879187904
 21
8.31519156585898
 31
0.0
  0
LINE
  5
330
330
1F
100
AcDbEntity
  8
0
100
AcDbLine
 10
-38.11306166256749
 20
-16.00517258658486
 30
0.0
 11
-38.01306878675462
 21
-16.24617447750269
 31
0.0
  0
LINE
  5
331
330
1F
100
AcDbEntity
  8
0
100
AcDbLine
 10
-38.01306878675462
 20
-16.24617447750269
 30
0.0
 11
-37.85413433519433
 21
-16.45310520684596
 31
0.0
  0
LINE
  5
332
330
1F
100
AcDbEntity
  8
0
100
AcDbLine
 10
-49.60473815669963
 20
55.75427386510888
 30
0.0
 11
-105.6047336767002
 21
55.75427386510888
 31
0.0
  0
LINE
  5
333
330
1F
100
AcDbEntity
  8
0
100
AcDbLine
 10
-23.05297058387966
 20
48.35427445710925
 30
0.0
 11
-23.31178960827667
 21
48.32020028612417
 31
0.0
  0
LINE
  5
334
330
1F
100
AcDbEntity
  8
0
100
AcDbLine
 10
-79.6557338236084
 20
-2.945721438891241
 30
0.0
 11
-79.6557338236084
 21
3.954278009108769
 31
0.0
  0
LINE
  5
335
330
1F
100
AcDbEntity
  8
0
100
AcDbLine
 10
-42.43326320643171
 20
-40.15820835231477
 30
0.0
 11
-37.43326515346884
 21
-40.15427511310767
 31
0.0
  0
LINE
  5
336
330
1F
100
AcDbEntity
  8
0
100
AcDbLine
 10
-42.43845508218467
 20
-33.55821092240418
 30
0.0
 11
-42.43326320643171
 21
-40.15820835231477
 31
0.0
  0
LINE
  5
337
330
1F
100
AcDbEntity
  8
0
100
AcDbLine
 10
-37.43845703082849
 20
-33.55427564110786
 30
0.0
 11
-42.43845508218467
 21
-33.55821092240418
 31
0.0
  0
LINE
  5
338
330
1F
100
AcDbEntity
  8
0
100
AcDbLine
 10
-45.43845639082843
 20
-43.09542915100404
 30
0.0
 11
-45.81124856714112
 21
-43.38148264879501
 31
0.0
  0
LINE
  5
339
330
1F
100
AcDbEntity
  8
0
100
AcDbLine
 10
-45.00433070674298
 20
-42.91560840488116
 30
0.0
 11
-45.43845639082843
 21
-43.09542915100404
 31
0.0
  0
LINE
  5
33A
330
1F
100
AcDbEntity
  8
0
100
AcDbLine
 10
-44.53845646282846
 20
-42.85427489710825
 30
0.0
 11
-45.00433070674298
 21
-42.91560840488116
 31
0.0
  0
LINE
  5
33B
330
1F
100
AcDbEntity
  8
0
100
AcDbLine
 10
-26.42618248781487
 20
-55.75427386510888
 30
0.0
 11
-39.33845687882852
 21
-55.7542738651083
 31
0.0
  0
LINE
  5
33C
330
1F
100
AcDbEntity
  8
0
100
AcDbLine
 10
-26.42618248781487
 20
-55.75427386510888
 30
0.0
 11
-26.16736346341885
 21
-55.72019969412357
 31
0.0
  0
LINE
  5
33D
330
1F
100
AcDbEntity
  8
0
100
AcDbLine
 10
-26.16736346341885
 20
-55.72019969412357
 30
0.0
 11
-25.92618252781579
 21
-55.6202992796106
 31
0.0
  0
LINE
  5
33E
330
1F
100
AcDbEntity
  8
0
100
AcDbLine
 10
-25.92618252781579
 20
-55.6202992796106
 30
0.0
 11
-25.71907576319735
 21
-55.46138066972566
 31
0.0
  0
LINE
  5
33F
330
1F
100
AcDbEntity
  8
0
100
AcDbLine
 10
-25.71907576319735
 20
-55.46138066972566
 30
0.0
 11
-25.56015715331314
 21
-55.25427390510795
 31
0.0
  0
LINE
  5
340
330
1F
100
AcDbEntity
  8
0
100
AcDbLine
 10
1.427465686186507
 20
-55.01309296950561
 30
0.0
 11
1.327565271673891
 21
-55.25427390510895
 31
0.0
  0
LINE
  5
341
330
1F
100
AcDbEntity
  8
0
100
AcDbLine
 10
1.461539857171398
 20
-54.7542739451086
 30
0.0
 11
1.427465686186507
 21
-55.01309296950561
 31
0.0
  0
LINE
  5
342
330
1F
100
AcDbEntity
  8
0
100
AcDbLine
 10
1.461539857171398
 20
-54.7542739451086
 30
0.0
 11
1.461539857171488
 21
-49.15427439310852
 31
0.0
  0
LINE
  5
343
330
1F
100
AcDbEntity
  8
0
100
AcDbLine
 10
1.461539857171488
 20
-49.15427439310852
 30
0.0
 11
6.461539457171828
 21
-49.15427439310803
 31
0.0
  0
LINE
  5
344
330
1F
100
AcDbEntity
  8
0
100
AcDbLine
 10
6.461539457172188
 20
-25.55427628110842
 30
0.0
 11
6.461539457171828
 21
-49.15427439310803
 31
0.0
  0
LINE
  5
345
330
1F
100
AcDbEntity
  8
0
100
AcDbLine
 10
6.461539457172188
 20
-25.55427628110842
 30
0.0
 11
-1.538459902827668
 21
-25.55427628110792
 31
0.0
  0
LINE
  5
346
330
1F
100
AcDbEntity
  8
0
100
AcDbLine
 10
-1.538459902827759
 20
-19.95427672910771
 30
0.0
 11
-1.538459902827668
 21
-25.55427628110792
 31
0.0
  0
LINE
  5
347
330
1F
100
AcDbEntity
  8
0
100
AcDbLine
 10
-1.538459902827759
 20
-19.95427672910771
 30
0.0
 11
-1.57253407381292
 21
-19.69545770471098
 31
0.0
  0
LINE
  5
348
330
1F
100
AcDbEntity
  8
0
100
AcDbLine
 10
-1.57253407381292
 20
-19.69545770471098
 30
0.0
 11
-1.672434488324996
 21
-19.45427676910755
 31
0.0
  0
LINE
  5
349
330
1F
100
AcDbEntity
  8
0
100
AcDbLine
 10
-1.672434488324996
 20
-19.45427676910755
 30
0.0
 11
-1.831353098209842
 21
-19.24717000449002
 31
0.0
  0
LINE
  5
34A
330
1F
100
AcDbEntity
  8
0
100
AcDbLine
 10
-1.831353098209842
 20
-19.24717000449002
 30
0.0
 11
-2.038459862827829
 21
-19.08825139460522
 31
0.0
  0
LINE
  5
34B
330
1F
100
AcDbEntity
  8
0
100
AcDbLine
 10
-2.279640798431067
 20
-18.98835098009287
 30
0.0
 11
-2.538459822827808
 21
-18.95427680910776
 31
0.0
  0
LINE
  5
34C
330
1F
100
AcDbEntity
  8
0
100
AcDbLine
 10
-10.5384591828283
 20
-18.95427680910762
 30
0.0
 11
-2.538459822827808
 21
-18.95427680910776
 31
0.0
  0
LINE
  5
34D
330
1F
100
AcDbEntity
  8
0
100
AcDbLine
 10
-10.5384591828283
 20
-18.95427680910762
 30
0.0
 11
-10.79727820722549
 21
-18.98835098009283
 31
0.0
  0
LINE
  5
34E
330
1F
100
AcDbEntity
  8
0
100
AcDbLine
 10
-10.79727820722549
 20
-18.98835098009283
 30
0.0
 11
-11.03845914282819
 21
-19.0882513946054
 31
0.0
  0
LINE
  5
34F
330
1F
100
AcDbEntity
  8
0
100
AcDbLine
 10
-11.03845914282819
 20
-19.0882513946054
 30
0.0
 11
-11.24556590744572
 21
-19.24717000448984
 31
0.0
  0
LINE
  5
350
330
1F
100
AcDbEntity
  8
0
100
AcDbLine
 10
-11.24556590744572
 20
-19.24717000448984
 30
0.0
 11
-11.40448451733075
 21
-19.45427676910764
 31
0.0
  0
LINE
  5
351
330
1F
100
AcDbEntity
  8
0
100
AcDbLine
 10
-11.40448451733075
 20
-19.45427676910764
 30
0.0
 11
-11.50438493184327
 21
-19.69545770471106
 31
0.0
  0
LINE
  5
352
330
1F
100
AcDbEntity
  8
0
100
AcDbLine
 10
-30.67243216832517
 20
-19.45427676910809
 30
0.0
 11
-30.83135077821056
 21
-19.24717000449029
 31
0.0
  0
LINE
  5
353
330
1F
100
AcDbEntity
  8
0
100
AcDbLine
 10
-30.83135077821056
 20
-19.24717000449029
 30
0.0
 11
-31.03845754282764
 21
-19.08825139460576
 31
0.0
  0
LINE
  5
354
330
1F
100
AcDbEntity
  8
0
100
AcDbLine
 10
-31.03845754282764
 20
-19.08825139460576
 30
0.0
 11
-31.2796384784308
 21
-18.98835098009283
 31
0.0
  0
LINE
  5
355
330
1F
100
AcDbEntity
  8
0
100
AcDbLine
 10
-31.2796384784308
 20
-18.98835098009283
 30
0.0
 11
-31.53845750282844
 21
-18.95427680910785
 31
0.0
  0
LINE
  5
356
330
1F
100
AcDbEntity
  8
0
100
AcDbLine
 10
-39.53845686282811
 20
-18.95427680910753
 30
0.0
 11
-31.53845750282844
 21
-18.95427680910785
 31
0.0
  0
LINE
  5
357
330
1F
100
AcDbEntity
  8
0
100
AcDbLine
 10
-40.03845682282873
 20
-19.08825139460571
 30
0.0
 11
-39.79727588722495
 21
-18.98835098009224
 31
0.0
  0
LINE
  5
358
330
1F
100
AcDbEntity
  8
0
100
AcDbLine
 10
-40.24556358744626
 20
-19.24717000448952
 30
0.0
 11
-40.03845682282873
 21
-19.08825139460571
 31
0.0
  0
LINE
  5
359
330
1F
100
AcDbEntity
  8
0
100
AcDbLine
 10
-40.40448219733048
 20
-19.45427676910818
 30
0.0
 11
-40.24556358744626
 21
-19.24717000448952
 31
0.0
  0
LINE
  5
35A
330
1F
100
AcDbEntity
  8
0
100
AcDbLine
 10
-40.50438261184382
 20
-19.69545770471079
 30
0.0
 11
-40.40448219733048
 21
-19.45427676910818
 31
0.0
  0
LINE
  5
35B
330
1F
100
AcDbEntity
  8
0
100
AcDbLine
 10
-44.07258221891383
 20
-42.91560840488084
 30
0.0
 11
-44.53845646282846
 21
-42.85427489710825
 31
0.0
  0
LINE
  5
35C
330
1F
100
AcDbEntity
  8
0
100
AcDbLine
 10
-43.63845653482838
 20
-43.0954291510035
 30
0.0
 11
-44.07258221891383
 21
-42.91560840488084
 31
0.0
  0
LINE
  5
35D
330
1F
100
AcDbEntity
  8
0
100
AcDbLine
 10
-43.26566435851543
 20
-43.38148264879545
 30
0.0
 11
-43.63845653482838
 21
-43.0954291510035
 31
0.0
  0
LINE
  5
35E
330
1F
100
AcDbEntity
  8
0
100
AcDbLine
 10
-42.97961086072424
 20
-43.75427482510801
 30
0.0
 11
-43.26566435851543
 21
-43.38148264879545
 31
0.0
  0
LINE
  5
35F
330
1F
100
AcDbEntity
  8
0
100
AcDbLine
 10
-42.79979011460135
 20
-44.18840050919386
 30
0.0
 11
-42.97961086072424
 21
-43.75427482510801
 31
0.0
  0
LINE
  5
360
330
1F
100
AcDbEntity
  8
0
100
AcDbLine
 10
-42.73845660682868
 20
-44.65427475310857
 30
0.0
 11
-42.79979011460135
 21
-44.18840050919386
 31
0.0
  0
LINE
  5
361
330
1F
100
AcDbEntity
  8
0
100
AcDbLine
 10
-45.43845639082834
 20
-46.21312035521225
 30
0.0
 11
-45.00433070674308
 21
-46.39294110133545
 31
0.0
  0
LINE
  5
362
330
1F
100
AcDbEntity
  8
0
100
AcDbLine
 10
-45.8112485671413
 20
-45.92706685742061
 30
0.0
 11
-45.43845639082834
 21
-46.21312035521225
 31
0.0
  0
LINE
  5
363
330
1F
100
AcDbEntity
  8
0
100
AcDbLine
 10
-46.09730206493294
 20
-45.55427468110747
 30
0.0
 11
-45.8112485671413
 21
-45.92706685742061
 31
0.0
  0
LINE
  5
364
330
1F
100
AcDbEntity
  8
0
100
AcDbLine
 10
-46.27712281105556
 20
-45.12014899702288
 30
0.0
 11
-46.09730206493294
 21
-45.55427468110747
 31
0.0
  0
LINE
  5
365
330
1F
100
AcDbEntity
  8
0
100
AcDbLine
 10
-46.33845631882787
 20
-44.6542747531079
 30
0.0
 11
-46.27712281105556
 21
-45.12014899702288
 31
0.0
  0
LINE
  5
366
330
1F
100
AcDbEntity
  8
0
100
AcDbLine
 10
-46.27712281105538
 20
-44.18840050919409
 30
0.0
 11
-46.33845631882787
 21
-44.6542747531079
 31
0.0
  0
LINE
  5
367
330
1F
100
AcDbEntity
  8
0
100
AcDbLine
 10
-46.09730206493267
 20
-43.75427482510814
 30
0.0
 11
-46.27712281105538
 21
-44.18840050919409
 31
0.0
  0
LINE
  5
368
330
1F
100
AcDbEntity
  8
0
100
AcDbLine
 10
-45.81124856714112
 20
-43.38148264879501
 30
0.0
 11
-46.09730206493267
 21
-43.75427482510814
 31
0.0
  0
LINE
  5
369
330
1F
100
AcDbEntity
  8
0
100
AcDbLine
 10
1.188747672859867
 20
-43.38148264879609
 30
0.0
 11
0.9026941750683157
 21
-43.75427482510841
 31
0.0
  0
LINE
  5
36A
330
1F
100
AcDbEntity
  8
0
100
AcDbLine
 10
1.561539849171827
 20
-43.09542915100382
 30
0.0
 11
1.188747672859867
 21
-43.38148264879609
 31
0.0
  0
LINE
  5
36B
330
1F
100
AcDbEntity
  8
0
100
AcDbLine
 10
1.995665533257007
 20
-42.91560840488111
 30
0.0
 11
1.561539849171827
 21
-43.09542915100382
 31
0.0
  0
LINE
  5
36C
330
1F
100
AcDbEntity
  8
0
100
AcDbLine
 10
2.46153977717235
 20
-42.85427489710825
 30
0.0
 11
1.995665533257007
 21
-42.91560840488111
 31
0.0
  0
LINE
  5
36D
330
1F
100
AcDbEntity
  8
0
100
AcDbLine
 10
2.927414021086701
 20
-42.91560840488133
 30
0.0
 11
2.46153977717235
 21
-42.85427489710825
 31
0.0
  0
LINE
  5
36E
330
1F
100
AcDbEntity
  8
0
100
AcDbLine
 10
3.361539705172241
 20
-43.09542915100373
 30
0.0
 11
2.927414021086701
 21
-42.91560840488133
 31
0.0
  0
LINE
  5
36F
330
1F
100
AcDbEntity
  8
0
100
AcDbLine
 10
3.734331881484292
 20
-43.38148264879555
 30
0.0
 11
3.361539705172241
 21
-43.09542915100373
 31
0.0
  0
LINE
  5
370
330
1F
100
AcDbEntity
  8
0
100
AcDbLine
 10
4.020385379276204
 20
-43.75427482510823
 30
0.0
 11
3.734331881484292
 21
-43.38148264879555
 31
0.0
  0
LINE
  5
371
330
1F
100
AcDbEntity
  8
0
100
AcDbLine
 10
4.200206125399185
 20
-44.18840050919332
 30
0.0
 11
4.020385379276204
 21
-43.75427482510823
 31
0.0
  0
LINE
  5
372
330
1F
100
AcDbEntity
  8
0
100
AcDbLine
 10
4.261539633171952
 20
-44.65427475310867
 30
0.0
 11
4.200206125399185
 21
-44.18840050919332
 31
0.0
  0
LINE
  5
373
330
1F
100
AcDbEntity
  8
0
100
AcDbLine
 10
4.200206125399366
 20
-45.12014899702261
 30
0.0
 11
4.261539633171952
 21
-44.65427475310867
 31
0.0
  0
LINE
  5
374
330
1F
100
AcDbEntity
  8
0
100
AcDbLine
 10
4.020385379276385
 20
-45.55427468110779
 30
0.0
 11
4.200206125399366
 21
-45.12014899702261
 31
0.0
  0
LINE
  5
375
330
1F
100
AcDbEntity
  8
0
100
AcDbLine
 10
3.734331881483931
 20
-45.92706685742052
 30
0.0
 11
4.020385379276385
 21
-45.55427468110779
 31
0.0
  0
LINE
  5
376
330
1F
100
AcDbEntity
  8
0
100
AcDbLine
 10
3.361539705172061
 20
-46.21312035521265
 30
0.0
 11
3.734331881483931
 21
-45.92706685742052
 31
0.0
  0
LINE
  5
377
330
1F
100
AcDbEntity
  8
0
100
AcDbLine
 10
2.927414021086972
 20
-46.39294110133518
 30
0.0
 11
3.361539705172061
 21
-46.21312035521265
 31
0.0
  0
LINE
  5
378
330
1F
100
AcDbEntity
  8
0
100
AcDbLine
 10
2.461539777171989
 20
-46.45427460910804
 30
0.0
 11
2.927414021086972
 21
-46.39294110133518
 31
0.0
  0
LINE
  5
379
330
1F
100
AcDbEntity
  8
0
100
AcDbLine
 10
1.995665533257007
 20
-46.39294110133446
 30
0.0
 11
2.461539777171989
 21
-46.45427460910804
 31
0.0
  0
LINE
  5
37A
330
1F
100
AcDbEntity
  8
0
100
AcDbLine
 10
-73.69176533538356
 20
-40.1888761116187
 30
0.0
 11
-75.13885094900157
 21
-40.78827859869431
 31
0.0
  0
LINE
  5
37B
330
1F
100
AcDbEntity
  8
0
100
AcDbLine
 10
-72.13885118900154
 20
-39.98443108570873
 30
0.0
 11
-73.69176533538356
 21
-40.1888761116187
 31
0.0
  0
LINE
  5
37C
330
1F
100
AcDbEntity
  8
0
100
AcDbLine
 10
-70.58593704261948
 20
-40.1888761116187
 30
0.0
 11
-72.13885118900154
 21
-39.98443108570873
 31
0.0
  0
LINE
  5
37D
330
1F
100
AcDbEntity
  8
0
100
AcDbLine
 10
-69.13885142900112
 20
-40.78827859869431
 30
0.0
 11
-70.58593704261948
 21
-40.1888761116187
 31
0.0
  0
LINE
  5
37E
330
1F
100
AcDbEntity
  8
0
100
AcDbLine
 10
-67.89621084129321
 20
-41.74179025800068
 30
0.0
 11
-69.13885142900112
 21
-40.78827859869431
 31
0.0
  0
LINE
  5
37F
330
1F
100
AcDbEntity
  8
0
100
AcDbLine
 10
-66.94269918198664
 20
-42.98443084570869
 30
0.0
 11
-67.89621084129321
 21
-41.74179025800068
 31
0.0
  0
LINE
  5
380
330
1F
100
AcDbEntity
  8
0
100
AcDbLine
 10
-66.34329669491113
 20
-44.43151645932677
 30
0.0
 11
-66.94269918198664
 21
-42.98443084570869
 31
0.0
  0
LINE
  5
381
330
1F
100
AcDbEntity
  8
0
100
AcDbLine
 10
-54.63885258900144
 20
-46.5432762878131
 30
0.0
 11
-54.2047269049159
 21
-46.72309703393572
 31
0.0
  0
LINE
  5
382
330
1F
100
AcDbEntity
  8
0
100
AcDbLine
 10
-55.01164476531403
 20
-46.2572227900211
 30
0.0
 11
-54.63885258900144
 21
-46.5432762878131
 31
0.0
  0
LINE
  5
383
330
1F
100
AcDbEntity
  8
0
100
AcDbLine
 10
-55.2976982631055
 20
-45.88443061370877
 30
0.0
 11
-55.01164476531403
 21
-46.2572227900211
 31
0.0
  0
LINE
  5
384
330
1F
100
AcDbEntity
  8
0
100
AcDbLine
 10
-55.47751900922829
 20
-45.45030492962333
 30
0.0
 11
-55.2976982631055
 21
-45.88443061370877
 31
0.0
  0
LINE
  5
385
330
1F
100
AcDbEntity
  8
0
100
AcDbLine
 10
-55.53885251700142
 20
-44.98443068570879
 30
0.0
 11
-55.47751900922829
 21
-45.45030492962333
 31
0.0
  0
LINE
  5
386
330
1F
100
AcDbEntity
  8
0
100
AcDbLine
 10
-55.47751900922829
 20
-44.51855644179417
 30
0.0
 11
-55.53885251700142
 21
-44.98443068570879
 31
0.0
  0
LINE
  5
387
330
1F
100
AcDbEntity
  8
0
100
AcDbLine
 10
-55.2976982631055
 20
-44.08443075770882
 30
0.0
 11
-55.47751900922829
 21
-44.51855644179417
 31
0.0
  0
LINE
  5
388
330
1F
100
AcDbEntity
  8
0
100
AcDbLine
 10
-52.46606055668902
 20
-43.7116385813964
 30
0.0
 11
-52.8388527330013
 21
-43.4255850836044
 31
0.0
  0
LINE
  5
389
330
1F
100
AcDbEntity
  8
0
100
AcDbLine
 10
-52.18000705889702
 20
-44.08443075770882
 30
0.0
 11
-52.46606055668902
 21
-43.7116385813964
 31
0.0
  0
LINE
  5
38A
330
1F
100
AcDbEntity
  8
0
100
AcDbLine
 10
-52.00018631277421
 20
-44.51855644179417
 30
0.0
 11
-52.18000705889702
 21
-44.08443075770882
 31
0.0
  0
LINE
  5
38B
330
1F
100
AcDbEntity
  8
0
100
AcDbLine
 10
-51.93885280500145
 20
-44.98443068570879
 30
0.0
 11
-52.00018631277421
 21
-44.51855644179417
 31
0.0
  0
LINE
  5
38C
330
1F
100
AcDbEntity
  8
0
100
AcDbLine
 10
-52.00018631277421
 20
-45.45030492962333
 30
0.0
 11
-51.93885280500145
 21
-44.98443068570879
 31
0.0
  0
LINE
  5
38D
330
1F
100
AcDbEntity
  8
0
100
AcDbLine
 10
-52.18000705889702
 20
-45.88443061370877
 30
0.0
 11
-52.00018631277421
 21
-45.45030492962333
 31
0.0
  0
LINE
  5
38E
330
1F
100
AcDbEntity
  8
0
100
AcDbLine
 10
-52.46606055668902
 20
-46.2572227900211
 30
0.0
 11
-52.18000705889702
 21
-45.88443061370877
 31
0.0
  0
LINE
  5
38F
330
1F
100
AcDbEntity
  8
0
100
AcDbLine
 10
-52.8388527330013
 20
-46.5432762878131
 30
0.0
 11
-52.46606055668902
 21
-46.2572227900211
 31
0.0
  0
LINE
  5
390
330
1F
100
AcDbEntity
  8
0
100
AcDbLine
 10
-53.27297841708666
 20
-46.72309703393572
 30
0.0
 11
-52.8388527330013
 21
-46.5432762878131
 31
0.0
  0
LINE
  5
391
330
1F
100
AcDbEntity
  8
0
100
AcDbLine
 10
-100.2729746570868
 20
-46.72309703393572
 30
0.0
 11
-99.83884897300138
 21
-46.5432762878131
 31
0.0
  0
LINE
  5
392
330
1F
100
AcDbEntity
  8
0
100
AcDbLine
 10
-100.7388489010016
 20
-46.78443054170867
 30
0.0
 11
-100.2729746570868
 21
-46.72309703393572
 31
0.0
  0
LINE
  5
393
330
1F
100
AcDbEntity
  8
0
100
AcDbLine
 10
-101.204723144916
 20
-46.72309703393572
 30
0.0
 11
-100.7388489010016
 21
-46.78443054170867
 31
0.0
  0
LINE
  5
394
330
1F
100
AcDbEntity
  8
0
100
AcDbLine
 10
-101.6388488290014
 20
-46.5432762878131
 30
0.0
 11
-101.204723144916
 21
-46.72309703393572
 31
0.0
  0
LINE
  5
395
330
1F
100
AcDbEntity
  8
0
100
AcDbLine
 10
-102.011641005314
 20
-46.2572227900211
 30
0.0
 11
-101.6388488290014
 21
-46.5432762878131
 31
0.0
  0
LINE
  5
396
330
1F
100
AcDbEntity
  8
0
100
AcDbLine
 10
-102.2976945031057
 20
-45.88443061370877
 30
0.0
 11
-102.011641005314
 21
-46.2572227900211
 31
0.0
  0
LINE
  5
397
330
1F
100
AcDbEntity
  8
0
100
AcDbLine
 10
-102.4775152492285
 20
-45.45030492962333
 30
0.0
 11
-102.2976945031057
 21
-45.88443061370877
 31
0.0
  0
LINE
  5
398
330
1F
100
AcDbEntity
  8
0
100
AcDbLine
 10
-102.5388487570016
 20
-44.98443068570879
 30
0.0
 11
-102.4775152492285
 21
-45.45030492962333
 31
0.0
  0
LINE
  5
399
330
1F
100
AcDbEntity
  8
0
100
AcDbLine
 10
-102.4775152492285
 20
-44.51855644179417
 30
0.0
 11
-102.5388487570016
 21
-44.98443068570879
 31
0.0
  0
LINE
  5
39A
330
1F
100
AcDbEntity
  8
0
100
AcDbLine
 10
-102.2976945031057
 20
-44.08443075770882
 30
0.0
 11
-102.4775152492285
 21
-44.51855644179417
 31
0.0
  0
LINE
  5
39B
330
1F
100
AcDbEntity
  8
0
100
AcDbLine
 10
-102.011641005314
 20
-43.7116385813964
 30
0.0
 11
-102.2976945031057
 21
-44.08443075770882
 31
0.0
  0
LINE
  5
39C
330
1F
100
AcDbEntity
  8
0
100
AcDbLine
 10
-101.6388488290014
 20
-43.4255850836044
 30
0.0
 11
-102.011641005314
 21
-43.7116385813964
 31
0.0
  0
LINE
  5
39D
330
1F
100
AcDbEntity
  8
0
100
AcDbLine
 10
-101.204723144916
 20
-43.24576433748178
 30
0.0
 11
-101.6388488290014
 21
-43.4255850836044
 31
0.0
  0
LINE
  5
39E
330
1F
100
AcDbEntity
  8
0
100
AcDbLine
 10
-100.7388489010016
 20
-43.18443082970883
 30
0.0
 11
-101.204723144916
 21
-43.24576433748178
 31
0.0
  0
LINE
  5
39F
330
1F
100
AcDbEntity
  8
0
100
AcDbLine
 10
-100.2729746570868
 20
-43.24576433748178
 30
0.0
 11
-100.7388489010016
 21
-43.18443082970883
 31
0.0
  0
LINE
  5
3A0
330
1F
100
AcDbEntity
  8
0
100
AcDbLine
 10
-99.83884897300138
 20
-43.4255850836044
 30
0.0
 11
-100.2729746570868
 21
-43.24576433748178
 31
0.0
  0
LINE
  5
3A1
330
1F
100
AcDbEntity
  8
0
100
AcDbLine
 10
-99.46605679668914
 20
-43.7116385813964
 30
0.0
 11
-99.83884897300138
 21
-43.4255850836044
 31
0.0
  0
LINE
  5
3A2
330
1F
100
AcDbEntity
  8
0
100
AcDbLine
 10
-99.18000329889715
 20
-44.08443075770882
 30
0.0
 11
-99.46605679668914
 21
-43.7116385813964
 31
0.0
  0
LINE
  5
3A3
330
1F
100
AcDbEntity
  8
0
100
AcDbLine
 10
-99.00018255277429
 20
-44.51855644179417
 30
0.0
 11
-99.18000329889715
 21
-44.08443075770882
 31
0.0
  0
LINE
  5
3A4
330
1F
100
AcDbEntity
  8
0
100
AcDbLine
 10
-98.93884904500153
 20
-44.98443068570879
 30
0.0
 11
-99.00018255277429
 21
-44.51855644179417
 31
0.0
  0
LINE
  5
3A5
330
1F
100
AcDbEntity
  8
0
100
AcDbLine
 10
-99.00018255277429
 20
-45.45030492962333
 30
0.0
 11
-98.93884904500153
 21
-44.98443068570879
 31
0.0
  0
LINE
  5
3A6
330
1F
100
AcDbEntity
  8
0
100
AcDbLine
 10
-99.18000329889715
 20
-45.88443061370877
 30
0.0
 11
-99.00018255277429
 21
-45.45030492962333
 31
0.0
  0
LINE
  5
3A7
330
1F
100
AcDbEntity
  8
0
100
AcDbLine
 10
-99.46605679668914
 20
-46.2572227900211
 30
0.0
 11
-99.18000329889715
 21
-45.88443061370877
 31
0.0
  0
LINE
  5
3A8
330
1F
100
AcDbEntity
  8
0
100
AcDbLine
 10
-99.83884897300138
 20
-46.5432762878131
 30
0.0
 11
-99.46605679668914
 21
-46.2572227900211
 31
0.0
  0
LINE
  5
3A9
330
1F
100
AcDbEntity
  8
0
100
AcDbLine
 10
-90.63884970900125
 20
-42.38635468220153
 30
0.0
 11
-90.67601708593831
 21
-42.38635468220153
 31
0.0
  0
LINE
  5
3AA
330
1F
100
AcDbEntity
  8
0
100
AcDbLine
 10
-86.27823995889331
 20
-45.76088775889974
 30
0.0
 11
-86.17601744593846
 21
-44.98443068570879
 31
0.0
  0
LINE
  5
3AB
330
1F
100
AcDbEntity
  8
0
100
AcDbLine
 10
-86.57794120243108
 20
-46.48443056570873
 30
0.0
 11
-86.27823995889331
 21
-45.76088775889974
 31
0.0
  0
LINE
  5
3AC
330
1F
100
AcDbEntity
  8
0
100
AcDbLine
 10
-87.05469703208452
 20
-47.10575085956287
 30
0.0
 11
-86.57794120243108
 21
-46.48443056570873
 31
0.0
  0
LINE
  5
3AD
330
1F
100
AcDbEntity
  8
0
100
AcDbLine
 10
-89.95247427912915
 20
-47.88220793275382
 30
0.0
 11
-89.17601720593834
 21
-47.98443044570877
 31
0.0
  0
LINE
  5
3AE
330
1F
100
AcDbEntity
  8
0
100
AcDbLine
 10
-90.67601708593831
 20
-47.58250668921598
 30
0.0
 11
-89.95247427912915
 21
-47.88220793275382
 31
0.0
  0
LINE
  5
3AF
330
1F
100
AcDbEntity
  8
0
100
AcDbLine
 10
-91.29733737979228
 20
-47.10575085956278
 30
0.0
 11
-90.67601708593831
 21
-47.58250668921598
 31
0.0
  0
LINE
  5
3B0
330
1F
100
AcDbEntity
  8
0
100
AcDbLine
 10
-91.77409320944537
 20
-46.48443056570873
 30
0.0
 11
-91.29733737979228
 21
-47.10575085956278
 31
0.0
  0
LINE
  5
3B1
330
1F
100
AcDbEntity
  8
0
100
AcDbLine
 10
-92.07379445298314
 20
-45.76088775889974
 30
0.0
 11
-91.77409320944537
 21
-46.48443056570873
 31
0.0
  0
LINE
  5
3B2
330
1F
100
AcDbEntity
  8
0
100
AcDbLine
 10
-92.07379445298314
 20
-44.20797361251776
 30
0.0
 11
-92.17601696593835
 21
-44.98443068570879
 31
0.0
  0
LINE
  5
3B3
330
1F
100
AcDbEntity
  8
0
100
AcDbLine
 10
-91.77409320944537
 20
-43.48443080570877
 30
0.0
 11
-92.07379445298314
 21
-44.20797361251776
 31
0.0
  0
LINE
  5
3B4
330
1F
100
AcDbEntity
  8
0
100
AcDbLine
 10
-91.29733737979228
 20
-42.86311051185463
 30
0.0
 11
-91.77409320944537
 21
-43.48443080570877
 31
0.0
  0
LINE
  5
3B5
330
1F
100
AcDbEntity
  8
0
100
AcDbLine
 10
-91.2601700028552
 20
-42.86311051185463
 30
0.0
 11
-91.29733737979228
 21
-42.86311051185463
 31
0.0
  0
LINE
  5
3B6
330
1F
100
AcDbEntity
  8
0
100
AcDbLine
 10
-90.67601708593831
 20
-42.38635468220153
 30
0.0
 11
-91.2601700028552
 21
-42.86311051185463
 31
0.0
  0
LINE
  5
3B7
330
1F
100
AcDbEntity
  8
0
100
AcDbLine
 10
44.57724057371377
 20
-25.20284620490138
 30
0.0
 11
44.81842150931683
 21
-25.10294579038885
 31
0.0
  0
LINE
  5
3B8
330
1F
100
AcDbEntity
  8
0
100
AcDbLine
 10
44.2112151992113
 20
-25.56887157940385
 30
0.0
 11
44.37013380909578
 21
-25.36176481478586
 31
0.0
  0
LINE
  5
3B9
330
1F
100
AcDbEntity
  8
0
100
AcDbLine
 10
44.11131478469878
 20
-25.81005251500681
 30
0.0
 11
44.2112151992113
 21
-25.56887157940385
 31
0.0
  0
LINE
  5
3BA
330
1F
100
AcDbEntity
  8
0
100
AcDbLine
 10
44.07724061371371
 20
-26.06887153940383
 30
0.0
 11
44.11131478469878
 21
-25.81005251500681
 31
0.0
  0
LINE
  5
3BB
330
1F
100
AcDbEntity
  8
0
100
AcDbLine
 10
39.1113151846988
 20
-41.82768932380085
 30
0.0
 11
39.07724101371372
 21
-41.56887029940383
 31
0.0
  0
LINE
  5
3BC
330
1F
100
AcDbEntity
  8
0
100
AcDbLine
 10
39.21121559921151
 20
-42.06887025940381
 30
0.0
 11
39.1113151846988
 21
-41.82768932380085
 31
0.0
  0
LINE
  5
3BD
330
1F
100
AcDbEntity
  8
0
100
AcDbLine
 10
45.44570466215971
 20
-42.43489563390629
 30
0.0
 11
45.20452372655684
 21
-42.53479604841881
 31
0.0
  0
LINE
  5
3BE
330
1F
100
AcDbEntity
  8
0
100
AcDbLine
 10
-95.7047344687005
 20
33.81312134721305
 30
0.0
 11
-96.13886015278587
 21
33.99294209333566
 31
0.0
  0
LINE
  5
3BF
330
1F
100
AcDbEntity
  8
0
100
AcDbLine
 10
-95.33194229238791
 20
33.52706784942123
 30
0.0
 11
-95.7047344687005
 21
33.81312134721305
 31
0.0
  0
LINE
  5
3C0
330
1F
100
AcDbEntity
  8
0
100
AcDbLine
 10
-95.04588879459627
 20
33.15427567310881
 30
0.0
 11
-95.33194229238791
 21
33.52706784942123
 31
0.0
  0
LINE
  5
3C1
330
1F
100
AcDbEntity
  8
0
100
AcDbLine
 10
-94.86606804847347
 20
32.72014998902345
 30
0.0
 11
-95.04588879459627
 21
33.15427567310881
 31
0.0
  0
LINE
  5
3C2
330
1F
100
AcDbEntity
  8
0
100
AcDbLine
 10
-94.80473454070034
 20
32.25427574510883
 30
0.0
 11
-94.86606804847347
 21
32.72014998902345
 31
0.0
  0
LINE
  5
3C3
330
1F
100
AcDbEntity
  8
0
100
AcDbLine
 10
-94.86606804847347
 20
31.78840150119421
 30
0.0
 11
-94.80473454070034
 21
32.25427574510883
 31
0.0
  0
LINE
  5
3C4
330
1F
100
AcDbEntity
  8
0
100
AcDbLine
 10
-95.04588879459627
 20
31.35427581710885
 30
0.0
 11
-94.86606804847347
 21
31.78840150119421
 31
0.0
  0
LINE
  5
3C5
330
1F
100
AcDbEntity
  8
0
100
AcDbLine
 10
-95.33194229238791
 20
30.98148364079644
 30
0.0
 11
-95.04588879459627
 21
31.35427581710885
 31
0.0
  0
LINE
  5
3C6
330
1F
100
AcDbEntity
  8
0
100
AcDbLine
 10
-56.40429587775193
 20
38.3441506991095
 30
0.0
 11
-56.35329794451863
 21
37.87703206201113
 31
0.0
  0
LINE
  5
3C7
330
1F
100
AcDbEntity
  8
0
100
AcDbLine
 10
-96.50473440470032
 20
15.80427706110877
 30
0.0
 11
-96.64443850573893
 21
16.86543506113643
 31
0.0
  0
LINE
  5
3C8
330
1F
100
AcDbEntity
  8
0
100
AcDbLine
 10
-98.55473424070024
 20
12.25357318964889
 30
0.0
 11
-97.70559650576661
 21
12.90513949017495
 31
0.0
  0
LINE
  5
3C9
330
1F
100
AcDbEntity
  8
0
100
AcDbLine
 10
-100.6047340767006
 20
11.70427738910868
 30
0.0
 11
-99.54357607667289
 21
11.84398149014729
 31
0.0
  0
LINE
  5
3CA
330
1F
100
AcDbEntity
  8
0
100
AcDbLine
 10
-101.6658920767282
 20
11.84398149014729
 30
0.0
 11
-100.6047340767006
 21
11.70427738910868
 31
0.0
  0
LINE
  5
3CB
330
1F
100
AcDbEntity
  8
0
100
AcDbLine
 10
-103.5038716476341
 20
12.90513949017495
 30
0.0
 11
-102.6547339127004
 21
12.25357318964889
 31
0.0
  0
LINE
  5
3CC
330
1F
100
AcDbEntity
  8
0
100
AcDbLine
 10
-104.1554379481603
 20
13.75427722510877
 30
0.0
 11
-103.5038716476341
 21
12.90513949017495
 31
0.0
  0
LINE
  5
3CD
330
1F
100
AcDbEntity
  8
0
100
AcDbLine
 10
-104.5650296476618
 20
16.86543506113643
 30
0.0
 11
-104.7047337487004
 21
15.80427706110877
 31
0.0
  0
LINE
  5
3CE
330
1F
100
AcDbEntity
  8
0
100
AcDbLine
 10
-104.1554379481603
 20
17.85427689710868
 30
0.0
 11
-104.5650296476618
 21
16.86543506113643
 31
0.0
  0
LINE
  5
3CF
330
1F
100
AcDbEntity
  8
0
100
AcDbLine
 10
-103.5038716476341
 20
18.70341463204249
 30
0.0
 11
-104.1554379481603
 21
17.85427689710868
 31
0.0
  0
LINE
  5
3D0
330
1F
100
AcDbEntity
  8
0
100
AcDbLine
 10
-102.6547339127004
 20
19.35498093256847
 30
0.0
 11
-103.5038716476341
 21
18.70341463204249
 31
0.0
  0
LINE
  5
3D1
330
1F
100
AcDbEntity
  8
0
100
AcDbLine
 10
-59.28727629127658
 20
3.95427800910913
 30
0.0
 11
-59.28727629127658
 21
-2.945721438891061
 31
0.0
  0
LINE
  5
3D2
330
1F
100
AcDbEntity
  8
0
100
AcDbLine
 10
-54.10046112680354
 20
40.03219440335513
 30
0.0
 11
-54.56486231869946
 21
40.10383338216121
 31
0.0
  0
LINE
  5
3D3
330
1F
100
AcDbEntity
  8
0
100
AcDbLine
 10
-54.56486231869946
 20
40.10383338216121
 30
0.0
 11
-55.03198095579783
 21
40.05283544892774
 31
0.0
  0
LINE
  5
3D4
330
1F
100
AcDbEntity
  8
0
100
AcDbLine
 10
-55.03198095579783
 20
40.05283544892774
 30
0.0
 11
-55.46998367493059
 21
39.88267602852694
 31
0.0
  0
LINE
  5
3D5
330
1F
100
AcDbEntity
  8
0
100
AcDbLine
 10
-55.46998367493059
 20
39.88267602852694
 30
0.0
 11
-55.84902131462216
 21
39.60495120425714
 31
0.0
  0
LINE
  5
3D6
330
1F
100
AcDbEntity
  8
0
100
AcDbLine
 10
-55.84902131462216
 20
39.60495120425714
 30
0.0
 11
-56.14326308611728
 21
39.23858746393046
 31
0.0
  0
LINE
  5
3D7
330
1F
100
AcDbEntity
  8
0
100
AcDbLine
 10
-56.14326308611728
 20
39.23858746393046
 30
0.0
 11
-56.33265689894603
 21
38.80855189100541
 31
0.0
  0
LINE
  5
3D8
330
1F
100
AcDbEntity
  8
0
100
AcDbLine
 10
-56.33265689894603
 20
38.80855189100541
 30
0.0
 11
-56.40429587775193
 21
38.3441506991095
 31
0.0
  0
LINE
  5
3D9
330
1F
100
AcDbEntity
  8
0
100
AcDbLine
 10
-0.8869469533760939
 20
47.85427449710935
 30
0.0
 11
-1.04586556326058
 21
48.06138126172753
 31
0.0
  0
LINE
  5
3DA
330
1F
100
AcDbEntity
  8
0
100
AcDbLine
 10
-33.84586293926087
 20
-16.45282713950927
 30
0.0
 11
-34.05296970387886
 21
-16.61174574939375
 31
0.0
  0
LINE
  5
3DB
330
1F
100
AcDbEntity
  8
0
100
AcDbLine
 10
-34.05296970387886
 20
-16.61174574939375
 30
0.0
 11
-34.29415063948191
 21
-16.71164616390628
 31
0.0
  0
LINE
  5
3DC
330
1F
100
AcDbEntity
  8
0
100
AcDbLine
 10
-0.7529723678784961
 20
42.35427493710967
 30
0.0
 11
-0.7529723678784961
 21
47.35427453710947
 31
0.0
  0
LINE
  5
3DD
330
1F
100
AcDbEntity
  8
0
100
AcDbLine
 10
-45.45296879187904
 20
42.35427493710931
 30
0.0
 11
-38.15123925713704
 21
42.35427493710931
 31
0.0
  0
LINE
  5
3DE
330
1F
100
AcDbEntity
  8
0
100
AcDbLine
 10
-24.05297050387962
 20
42.35427493710931
 30
0.0
 11
-24.0529705038798
 21
47.35427453710911
 31
0.0
  0
LINE
  5
3DF
330
1F
100
AcDbEntity
  8
0
100
AcDbLine
 10
-49.60473815669963
 20
55.75427386510888
 30
0.0
 11
-49.60473815669963
 21
-24.14571974289269
 31
0.0
  0
LINE
  5
3E0
330
1F
100
AcDbEntity
  8
0
100
AcDbLine
 10
-105.6047336767002
 20
-24.14571974289269
 30
0.0
 11
-105.6047336767002
 21
8.315191565858438
 31
0.0
  0
LINE
  5
3E1
330
1F
100
AcDbEntity
  8
0
100
AcDbLine
 10
-49.60473815669963
 20
-24.14571974289269
 30
0.0
 11
-105.6047336767002
 21
-24.14571974289269
 31
0.0
  0
LINE
  5
3E2
330
1F
100
AcDbEntity
  8
0
100
AcDbLine
 10
-79.65573382360911
 20
27.65427611310876
 30
0.0
 11
-59.28727629127694
 21
27.65427611310912
 31
0.0
  0
LINE
  5
3E3
330
1F
100
AcDbEntity
  8
0
100
AcDbLine
 10
-79.6557338236084
 20
3.954278009108769
 30
0.0
 11
-59.28727629127658
 21
3.95427800910913
 31
0.0
  0
LINE
  5
3E4
330
1F
100
AcDbEntity
  8
0
100
AcDbLine
 10
-23.9189959183822
 20
47.85427449710917
 30
0.0
 11
-24.01889633289473
 21
47.61309356150612
 31
0.0
  0
LINE
  5
3E5
330
1F
100
AcDbEntity
  8
0
100
AcDbLine
 10
-38.01726467163943
 20
47.85427449710917
 30
0.0
 11
-37.85834606175494
 21
48.06138126172716
 31
0.0
  0
LINE
  5
3E6
330
1F
100
AcDbEntity
  8
0
100
AcDbLine
 10
-38.11716508615196
 20
47.61309356150612
 30
0.0
 11
-38.01726467163943
 21
47.85427449710917
 31
0.0
  0
LINE
  5
3E7
330
1F
100
AcDbEntity
  8
0
100
AcDbLine
 10
-33.58562101106996
 20
47.61309356150612
 30
0.0
 11
-33.68552142558249
 21
47.85427449710917
 31
0.0
  0
LINE
  5
3E8
330
1F
100
AcDbEntity
  8
0
100
AcDbLine
 10
-34.29415063948191
 20
-16.71164616390628
 30
0.0
 11
-34.55296966387892
 21
-16.74572033489126
 31
0.0
  0
LINE
  5
3E9
330
1F
100
AcDbEntity
  8
0
100
AcDbLine
 10
68.54569781804594
 20
-42.43489563390629
 30
0.0
 11
68.30451688244305
 21
-42.53479604841881
 31
0.0
  0
LINE
  5
3EA
330
1F
100
AcDbEntity
  8
0
100
AcDbLine
 10
-97.05403020524035
 20
17.85427689710868
 30
0.0
 11
-97.70559650576661
 21
18.70341463204249
 31
0.0
  0
LINE
  5
3EB
330
1F
100
AcDbEntity
  8
0
100
AcDbLine
 10
-96.64443850573893
 20
16.86543506113643
 30
0.0
 11
-97.05403020524035
 21
17.85427689710868
 31
0.0
  0
LINE
  5
3EC
330
1F
100
AcDbEntity
  8
0
100
AcDbLine
 10
-108.6047334367005
 20
11.31519132585841
 30
0.0
 11
-105.6047336767002
 21
8.315191565858438
 31
0.0
  0
LINE
  5
3ED
330
1F
100
AcDbEntity
  8
0
100
AcDbLine
 10
-108.6047334367005
 20
20.29336279635877
 30
0.0
 11
-108.6047334367005
 21
11.31519132585841
 31
0.0
  0
LINE
  5
3EE
330
1F
100
AcDbEntity
  8
0
100
AcDbLine
 10
-108.6047334367005
 20
20.29336279635877
 30
0.0
 11
-105.6047336767002
 21
23.29336255635883
 31
0.0
  0
LINE
  5
3EF
330
1F
100
AcDbEntity
  8
0
100
AcDbLine
 10
-105.6047336767002
 20
23.29336255635883
 30
0.0
 11
-105.6047336767002
 21
55.75427386510888
 31
0.0
  0
LINE
  5
3F0
330
1F
100
AcDbEntity
  8
0
100
AcDbLine
 10
-98.55473424070024
 20
19.35498093256847
 30
0.0
 11
-99.54357607667289
 21
19.76457263207006
 31
0.0
  0
LINE
  5
3F1
330
1F
100
AcDbEntity
  8
0
100
AcDbLine
 10
-100.6047340767006
 20
19.90427673310867
 30
0.0
 11
-101.6658920767282
 21
19.76457263207006
 31
0.0
  0
LINE
  5
3F2
330
1F
100
AcDbEntity
  8
0
100
AcDbLine
 10
-101.6658920767282
 20
19.76457263207006
 30
0.0
 11
-102.6547339127004
 21
19.35498093256847
 31
0.0
  0
LINE
  5
3F3
330
1F
100
AcDbEntity
  8
0
100
AcDbLine
 10
-104.7047337487004
 20
15.80427706110877
 30
0.0
 11
-104.5650296476618
 21
14.74311906108111
 31
0.0
  0
LINE
  5
3F4
330
1F
100
AcDbEntity
  8
0
100
AcDbLine
 10
-104.5650296476618
 20
14.74311906108111
 30
0.0
 11
-104.1554379481603
 21
13.75427722510877
 31
0.0
  0
LINE
  5
3F5
330
1F
100
AcDbEntity
  8
0
100
AcDbLine
 10
-102.6547339127004
 20
12.25357318964889
 30
0.0
 11
-101.6658920767282
 21
11.84398149014729
 31
0.0
  0
LINE
  5
3F6
330
1F
100
AcDbEntity
  8
0
100
AcDbLine
 10
-99.54357607667289
 20
11.84398149014729
 30
0.0
 11
-98.55473424070024
 21
12.25357318964889
 31
0.0
  0
LINE
  5
3F7
330
1F
100
AcDbEntity
  8
0
100
AcDbLine
 10
-97.70559650576661
 20
12.90513949017495
 30
0.0
 11
-97.05403020524035
 21
13.75427722510877
 31
0.0
  0
LINE
  5
3F8
330
1F
100
AcDbEntity
  8
0
100
AcDbLine
 10
-97.05403020524035
 20
13.75427722510877
 30
0.0
 11
-96.64443850573893
 21
14.74311906108111
 31
0.0
  0
LINE
  5
3F9
330
1F
100
AcDbEntity
  8
0
100
AcDbLine
 10
-96.64443850573893
 20
14.74311906108111
 30
0.0
 11
-96.50473440470032
 21
15.80427706110877
 31
0.0
  0
LINE
  5
3FA
330
1F
100
AcDbEntity
  8
0
100
AcDbLine
 10
-59.28727629127694
 20
34.55427556110923
 30
0.0
 11
-59.28727629127694
 21
27.65427611310912
 31
0.0
  0
LINE
  5
3FB
330
1F
100
AcDbEntity
  8
0
100
AcDbLine
 10
-79.65573382360911
 20
27.65427611310876
 30
0.0
 11
-79.65573382360911
 21
34.55427556110887
 31
0.0
  0
LINE
  5
3FC
330
1F
100
AcDbEntity
  8
0
100
AcDbLine
 10
39.07724101371372
 20
-30.06887121940385
 30
0.0
 11
39.07724101371372
 21
-41.56887029940383
 31
0.0
  0
LINE
  5
3FD
330
1F
100
AcDbEntity
  8
0
100
AcDbLine
 10
44.07724061371371
 20
-30.06887121940385
 30
0.0
 11
39.07724101371372
 21
-30.06887121940385
 31
0.0
  0
LINE
  5
3FE
330
1F
100
AcDbEntity
  8
0
100
AcDbLine
 10
39.81842190931703
 20
-42.53479604841881
 30
0.0
 11
39.57724097371398
 21
-42.43489563390629
 31
0.0
  0
LINE
  5
3FF
330
1F
100
AcDbEntity
  8
0
100
AcDbLine
 10
40.07724093371386
 20
-42.56887021940388
 30
0.0
 11
44.94570470215982
 21
-42.56887021940388
 31
0.0
  0
LINE
  5
400
330
1F
100
AcDbEntity
  8
0
100
AcDbLine
 10
-79.6557338236084
 20
-2.945721438891241
 30
0.0
 11
-59.28727629127658
 21
-2.945721438891061
 31
0.0
  0
LINE
  5
401
330
1F
100
AcDbEntity
  8
0
100
AcDbLine
 10
-86.40473521270026
 20
-17.54572027089135
 30
0.0
 11
-86.40473521270026
 21
-10.74572081489132
 31
0.0
  0
LINE
  5
402
330
1F
100
AcDbEntity
  8
0
100
AcDbLine
 10
-86.40473521270026
 20
-17.54572027089135
 30
0.0
 11
-96.80473438070027
 21
-17.54572027089135
 31
0.0
  0
LINE
  5
403
330
1F
100
AcDbEntity
  8
0
100
AcDbLine
 10
-96.80473438070027
 20
-17.54572027089135
 30
0.0
 11
-96.80473438070027
 21
-10.74572081489132
 31
0.0
  0
LINE
  5
404
330
1F
100
AcDbEntity
  8
0
100
AcDbLine
 10
-96.80473438070027
 20
-10.74572081489132
 30
0.0
 11
-86.40473521270026
 21
-10.74572081489132
 31
0.0
  0
LINE
  5
405
330
1F
100
AcDbEntity
  8
0
100
AcDbLine
 10
-86.40473521270026
 20
42.35427493710895
 30
0.0
 11
-86.40473521270026
 21
49.15427439310871
 31
0.0
  0
LINE
  5
406
330
1F
100
AcDbEntity
  8
0
100
AcDbLine
 10
-86.40473521270026
 20
42.35427493710895
 30
0.0
 11
-96.80473438070027
 21
42.35427493710895
 31
0.0
  0
LINE
  5
407
330
1F
100
AcDbEntity
  8
0
100
AcDbLine
 10
-96.80473438070027
 20
42.35427493710895
 30
0.0
 11
-96.80473438070027
 21
49.15427439310871
 31
0.0
  0
LINE
  5
408
330
1F
100
AcDbEntity
  8
0
100
AcDbLine
 10
-96.80473438070027
 20
49.15427439310871
 30
0.0
 11
-86.40473521270026
 21
49.15427439310871
 31
0.0
  0
LINE
  5
409
330
1F
100
AcDbEntity
  8
0
100
AcDbLine
 10
-98.16357999880465
 20
31.35427581710885
 30
0.0
 11
-97.8775265010127
 21
30.98148364079644
 31
0.0
  0
LINE
  5
40A
330
1F
100
AcDbEntity
  8
0
100
AcDbLine
 10
-54.17749455760184
 20
36.5557150732905
 30
0.0
 11
-53.73949183846927
 21
36.7258744936913
 31
0.0
  0
LINE
  5
40B
330
1F
100
AcDbEntity
  8
0
100
AcDbLine
 10
-48.45666096737265
 20
15.8042770611094
 30
0.0
 11
-48.45296855187946
 21
15.77623038094113
 31
0.0
  0
LINE
  5
40C
330
1F
100
AcDbEntity
  8
0
100
AcDbLine
 10
-48.45296855187946
 20
15.77623038094113
 30
0.0
 11
-48.45296855187946
 21
11.31519132585904
 31
0.0
  0
LINE
  5
40D
330
1F
100
AcDbEntity
  8
0
100
AcDbLine
 10
-48.45296855187946
 20
15.83232374127767
 30
0.0
 11
-48.45666096737265
 21
15.8042770611094
 31
0.0
  0
LINE
  5
40E
330
1F
100
AcDbEntity
  8
0
100
AcDbLine
 10
-45.45296879187904
 20
-10.74572081489078
 30
0.0
 11
-45.45296879187904
 21
8.31519156585898
 31
0.0
  0
LINE
  5
40F
330
1F
100
AcDbEntity
  8
0
100
AcDbLine
 10
-45.45296879187904
 20
-10.74572081489078
 30
0.0
 11
-38.15123925713667
 21
-10.74572081489069
 31
0.0
  0
LINE
  5
410
330
1F
100
AcDbEntity
  8
0
100
AcDbLine
 10
-38.19163586010624
 20
32.72014998902399
 30
0.0
 11
-38.25296936787919
 21
32.25427574510937
 31
0.0
  0
LINE
  5
411
330
1F
100
AcDbEntity
  8
0
100
AcDbLine
 10
-33.68552142558249
 20
47.85427449710917
 30
0.0
 11
-33.84444003546697
 21
48.06138126172716
 31
0.0
  0
LINE
  5
412
330
1F
100
AcDbEntity
  8
0
100
AcDbLine
 10
-33.84444003546697
 20
48.06138126172716
 30
0.0
 11
-34.05154680008496
 21
48.22029987161164
 31
0.0
  0
LINE
  5
413
330
1F
100
AcDbEntity
  8
0
100
AcDbLine
 10
5.973577407456559
 20
36.55554591075299
 30
0.0
 11
6.411647519744129
 21
36.72553175439595
 31
0.0
  0
LINE
  5
414
330
1F
100
AcDbEntity
  8
0
100
AcDbLine
 10
-37.85413433519433
 20
-16.45310520684596
 30
0.0
 11
-37.64707864442381
 21
-16.6118768276062
 31
0.0
  0
LINE
  5
415
330
1F
100
AcDbEntity
  8
0
100
AcDbLine
 10
6.411647519744129
 20
36.72553175439595
 30
0.0
 11
6.790795181195271
 21
37.00310635902462
 31
0.0
  0
LINE
  5
416
330
1F
100
AcDbEntity
  8
0
100
AcDbLine
 10
6.790795181195271
 20
37.00310635902462
 30
0.0
 11
7.085182105253537
 21
37.36935347404724
 31
0.0
  0
LINE
  5
417
330
1F
100
AcDbEntity
  8
0
100
AcDbLine
 10
7.085182105253537
 20
37.36935347404724
 30
0.0
 11
7.274746309541421
 21
37.79931396382671
 31
0.0
  0
LINE
  5
418
330
1F
100
AcDbEntity
  8
0
100
AcDbLine
 10
7.274746309541421
 20
37.79931396382671
 30
0.0
 11
7.346569306806551
 21
38.26368673152793
 31
0.0
  0
LINE
  5
419
330
1F
100
AcDbEntity
  8
0
100
AcDbLine
 10
6.786505790697107
 20
-8.000976717932403
 30
0.0
 11
7.082096582019952
 21
-7.635700528722162
 31
0.0
  0
LINE
  5
41A
330
1F
100
AcDbEntity
  8
0
100
AcDbLine
 10
7.082096582019952
 20
-7.635700528722162
 30
0.0
 11
7.273074926881793
 21
-7.206366297484262
 31
0.0
  0
LINE
  5
41B
330
1F
100
AcDbEntity
  8
0
100
AcDbLine
 10
7.273074926881793
 20
-7.206366297484262
 30
0.0
 11
7.346425966686882
 21
-6.742232442569372
 31
0.0
  0
LINE
  5
41C
330
1F
100
AcDbEntity
  8
0
100
AcDbLine
 10
7.346425966686882
 20
-6.742232442569372
 30
0.0
 11
7.297150949291047
 21
-6.274928919172165
 31
0.0
  0
LINE
  5
41D
330
1F
100
AcDbEntity
  8
0
100
AcDbLine
 10
7.297150949291047
 20
-6.274928919172165
 30
0.0
 11
7.128607885698821
 21
-5.836301690156838
 31
0.0
  0
LINE
  5
41E
330
1F
100
AcDbEntity
  8
0
100
AcDbLine
 10
7.128607885698821
 20
-5.836301690156838
 30
0.0
 11
6.852282707163456
 21
-5.456242476314862
 31
0.0
  0
LINE
  5
41F
330
1F
100
AcDbEntity
  8
0
100
AcDbLine
 10
6.852282707163456
 20
-5.456242476314862
 30
0.0
 11
6.487006517953306
 21
-5.160651684992106
 31
0.0
  0
LINE
  5
420
330
1F
100
AcDbEntity
  8
0
100
AcDbLine
 10
6.487006517953306
 20
-5.160651684992106
 30
0.0
 11
6.057672286715496
 21
-4.969673340130265
 31
0.0
  0
LINE
  5
421
330
1F
100
AcDbEntity
  8
0
100
AcDbLine
 10
6.057672286715496
 20
-4.969673340130265
 30
0.0
 11
5.593538431800424
 21
-4.896322300325178
 31
0.0
  0
LINE
  5
422
330
1F
100
AcDbEntity
  8
0
100
AcDbLine
 10
5.593538431800424
 20
-4.896322300325178
 30
0.0
 11
5.126234908403399
 21
-4.945597317721012
 31
0.0
  0
LINE
  5
423
330
1F
100
AcDbEntity
  8
0
100
AcDbLine
 10
5.126234908403399
 20
-4.945597317721012
 30
0.0
 11
4.687607679387981
 21
-5.114140381313238
 31
0.0
  0
LINE
  5
424
330
1F
100
AcDbEntity
  8
0
100
AcDbLine
 10
4.687607679387981
 20
-5.114140381313238
 30
0.0
 11
4.307548465546005
 21
-5.390465559848603
 31
0.0
  0
LINE
  5
425
330
1F
100
AcDbEntity
  8
0
100
AcDbLine
 10
4.307548465546005
 20
-5.390465559848603
 30
0.0
 11
4.01195767422334
 21
-5.755741749058751
 31
0.0
  0
LINE
  5
426
330
1F
100
AcDbEntity
  8
0
100
AcDbLine
 10
4.008872150989575
 20
39.23919704817209
 30
0.0
 11
3.819307946701691
 21
38.80923655839262
 31
0.0
  0
LINE
  5
427
330
1F
100
AcDbEntity
  8
0
100
AcDbLine
 10
3.819307946701691
 20
38.80923655839262
 30
0.0
 11
3.747484949436561
 21
38.34486379069139
 31
0.0
  0
LINE
  5
428
330
1F
100
AcDbEntity
  8
0
100
AcDbLine
 10
3.747484949436561
 20
38.34486379069139
 30
0.0
 11
3.798297777764885
 21
37.87772498177466
 31
0.0
  0
LINE
  5
429
330
1F
100
AcDbEntity
  8
0
100
AcDbLine
 10
3.798297777764885
 20
37.87772498177466
 30
0.0
 11
3.968283621407847
 21
37.43965486948727
 31
0.0
  0
LINE
  5
42A
330
1F
100
AcDbEntity
  8
0
100
AcDbLine
 10
3.968283621407847
 20
37.43965486948727
 30
0.0
 11
4.245858226036513
 21
37.06050720803594
 31
0.0
  0
LINE
  5
42B
330
1F
100
AcDbEntity
  8
0
100
AcDbLine
 10
4.245858226036513
 20
37.06050720803594
 30
0.0
 11
4.612105341059134
 21
36.76612028397768
 31
0.0
  0
LINE
  5
42C
330
1F
100
AcDbEntity
  8
0
100
AcDbLine
 10
4.612105341059134
 20
36.76612028397768
 30
0.0
 11
5.042065830838601
 21
36.57655607968979
 31
0.0
  0
LINE
  5
42D
330
1F
100
AcDbEntity
  8
0
100
AcDbLine
 10
5.042065830838601
 20
36.57655607968979
 30
0.0
 11
5.506438598539828
 21
36.50473308242467
 31
0.0
  0
LINE
  5
42E
330
1F
100
AcDbEntity
  8
0
100
AcDbLine
 10
5.506438598539828
 20
36.50473308242467
 30
0.0
 11
5.973577407456559
 21
36.55554591075299
 31
0.0
  0
LINE
  5
42F
330
1F
100
AcDbEntity
  8
0
100
AcDbLine
 10
-37.41005836153391
 20
48.32020028612417
 30
0.0
 11
-37.15123933713689
 21
48.35427445710925
 31
0.0
  0
LINE
  5
430
330
1F
100
AcDbEntity
  8
0
100
AcDbLine
 10
-37.15123933713689
 20
48.35427445710925
 30
0.0
 11
-34.55154676008503
 21
48.35427445710925
 31
0.0
  0
LINE
  5
431
330
1F
100
AcDbEntity
  8
0
100
AcDbLine
 10
-37.65123929713696
 20
48.22029987161164
 30
0.0
 11
-37.41005836153391
 21
48.32020028612417
 31
0.0
  0
LINE
  5
432
330
1F
100
AcDbEntity
  8
0
100
AcDbLine
 10
-24.0529705038789
 20
-15.74572041489067
 30
0.0
 11
-24.0529705038789
 21
-10.74572081489069
 31
0.0
  0
LINE
  5
433
330
1F
100
AcDbEntity
  8
0
100
AcDbLine
 10
-24.0529705038789
 20
-15.74572041489067
 30
0.0
 11
-24.01889633289383
 21
-16.00453943928768
 31
0.0
  0
LINE
  5
434
330
1F
100
AcDbEntity
  8
0
100
AcDbLine
 10
5.967819347839893
 20
-8.445844960059903
 30
0.0
 11
6.40644657685531
 21
-8.277301896467677
 31
0.0
  0
LINE
  5
435
330
1F
100
AcDbEntity
  8
0
100
AcDbLine
 10
-38.01181511398362
 20
-1.545721550890738
 30
0.0
 11
-37.72576161619162
 21
-1.91851372720315
 31
0.0
  0
LINE
  5
436
330
1F
100
AcDbEntity
  8
0
100
AcDbLine
 10
-37.72576161619162
 20
-1.91851372720315
 30
0.0
 11
-37.3529694398792
 21
-2.204567224995152
 31
0.0
  0
LINE
  5
437
330
1F
100
AcDbEntity
  8
0
100
AcDbLine
 10
-37.3529694398792
 20
-2.204567224995152
 30
0.0
 11
-36.91884375579385
 21
-2.384387971117771
 31
0.0
  0
LINE
  5
438
330
1F
100
AcDbEntity
  8
0
100
AcDbLine
 10
-38.15123925713704
 20
42.35427493710931
 30
0.0
 11
-38.15123925713704
 21
47.35427453710911
 31
0.0
  0
LINE
  5
439
330
1F
100
AcDbEntity
  8
0
100
AcDbLine
 10
-33.55154684008489
 20
42.35427493710931
 30
0.0
 11
-24.05297050387962
 21
42.35427493710931
 31
0.0
  0
LINE
  5
43A
330
1F
100
AcDbEntity
  8
0
100
AcDbLine
 10
-38.15123925713667
 20
-10.74572081489069
 30
0.0
 11
-38.14730539789782
 21
-15.7465070627323
 31
0.0
  0
LINE
  5
43B
330
1F
100
AcDbEntity
  8
0
100
AcDbLine
 10
-33.55296974387878
 20
-10.74572081489078
 30
0.0
 11
-24.0529705038789
 21
-10.74572081489069
 31
0.0
  0
LINE
  5
43C
330
1F
100
AcDbEntity
  8
0
100
AcDbLine
 10
-92.07379445298314
 20
-45.76088775889974
 30
0.0
 11
-92.17601696593835
 21
-44.98443068570879
 31
0.0
  0
LINE
  5
43D
330
1F
100
AcDbEntity
  8
0
100
AcDbLine
 10
-64.1601721708556
 20
-47.8631101118547
 30
0.0
 11
-64.12300479391851
 21
-47.8631101118547
 31
0.0
  0
ENDSEC
  0
SECTION
  2
OBJECTS
  0
DICTIONARY
  5
C
330
0
100
AcDbDictionary
281
     1
  3
ACAD_GROUP
350
D
  3
ACAD_LAYOUT
350
1A
  3
ACAD_MATERIAL
350
3B
  3
ACAD_MLEADERSTYLE
350
43F
  3
ACAD_MLINESTYLE
350
17
  3
ACAD_PLOTSETTINGS
350
19
  3
ACAD_PLOTSTYLENAME
350
E
  3
ACAD_TABLESTYLE
350
43E
  3
ACAD_VISUALSTYLE
350
2A
  0
DICTIONARY
  5
D
102
{ACAD_REACTORS
330
C
102
}
330
C
100
AcDbDictionary
281
     1
  0
DICTIONARY
  5
1A
102
{ACAD_REACTORS
330
C
102
}
330
C
100
AcDbDictionary
281
     1
  3
Layout1
350
1E
  3
Layout2
350
26
  3
Model
350
22
  0
DICTIONARY
  5
3B
102
{ACAD_REACTORS
330
C
102
}
330
C
100
AcDbDictionary
281
     1
  3
ByBlock
350
3D
  3
ByLayer
350
3C
  3
Global
350
3E
  0
DICTIONARY
  5
43F
102
{ACAD_REACTORS
330
C
102
}
330
C
100
AcDbDictionary
281
     1
  0
DICTIONARY
  5
17
102
{ACAD_REACTORS
330
C
102
}
330
C
100
AcDbDictionary
281
     1
  3
Standard
350
18
  0
DICTIONARY
  5
19
102
{ACAD_REACTORS
330
C
102
}
330
C
100
AcDbDictionary
281
     1
  0
ACDBDICTIONARYWDFLT
  5
E
102
{ACAD_REACTORS
330
C
102
}
330
C
100
AcDbDictionary
281
     1
  3
Normal
350
F
100
AcDbDictionaryWithDefault
340
F
  0
DICTIONARY
  5
43E
102
{ACAD_REACTORS
330
C
102
}
330
C
100
AcDbDictionary
281
     1
  0
DICTIONARY
  5
2A
102
{ACAD_REACTORS
330
C
102
}
330
C
100
AcDbDictionary
281
     1
  3
2dWireframe
350
2F
  3
3D Hidden
350
31
  3
3dWireframe
350
30
  3
Basic
350
32
  3
Brighten
350
36
  3
ColorChange
350
3A
  3
Conceptual
350
34
  3
Dim
350
35
  3
Facepattern
350
39
  3
Flat
350
2B
  3
FlatWithEdges
350
2C
  3
Gouraud
350
2D
  3
GouraudWithEdges
350
2E
  3
Linepattern
350
38
  3
Realistic
350
33
  3
Thicken
350
37
  0
LAYOUT
  5
1E
102
{ACAD_REACTORS
330
1A
102
}
330
1A
100
AcDbPlotSettings
  1

  2
none_device
  4

  6

 40
0.0
 41
0.0
 42
0.0
 43
0.0
 44
0.0
 45
0.0
 46
0.0
 47
0.0
 48
0.0
 49
0.0
140
0.0
141
0.0
142
1.0
143
1.0
 70
   688
 72
     0
 73
     0
 74
     5
  7

 75
    16
 76
     0
 77
     2
 78
   300
147
1.0
148
0.0
149
0.0
100
AcDbLayout
  1
Layout1
 70
     1
 71
     1
 10
0.0
 20
0.0
 11
12.0
 21
9.0
 12
0.0
 22
0.0
 32
0.0
 14
1.000000000000000E+20
 24
1.000000000000000E+20
 34
1.000000000000000E+20
 15
-1.000000000000000E+20
 25
-1.000000000000000E+20
 35
-1.000000000000000E+20
146
0.0
 13
0.0
 23
0.0
 33
0.0
 16
1.0
 26
0.0
 36
0.0
 17
0.0
 27
1.0
 37
0.0
 76
     0
330
1B
  0
LAYOUT
  5
26
102
{ACAD_REACTORS
330
1A
102
}
330
1A
100
AcDbPlotSettings
  1

  2
none_device
  4

  6

 40
0.0
 41
0.0
 42
0.0
 43
0.0
 44
0.0
 45
0.0
 46
0.0
 47
0.0
 48
0.0
 49
0.0
140
0.0
141
0.0
142
1.0
143
1.0
 70
   688
 72
     0
 73
     0
 74
     5
  7

 75
    16
 76
     0
 77
     2
 78
   300
147
1.0
148
0.0
149
0.0
100
AcDbLayout
  1
Layout2
 70
     1
 71
     2
 10
0.0
 20
0.0
 11
0.0
 21
0.0
 12
0.0
 22
0.0
 32
0.0
 14
0.0
 24
0.0
 34
0.0
 15
0.0
 25
0.0
 35
0.0
146
0.0
 13
0.0
 23
0.0
 33
0.0
 16
1.0
 26
0.0
 36
0.0
 17
0.0
 27
1.0
 37
0.0
 76
     0
330
23
  0
LAYOUT
  5
22
102
{ACAD_REACTORS
330
1A
102
}
330
1A
100
AcDbPlotSettings
  1

  2
none_device
  4

  6

 40
0.0
 41
0.0
 42
0.0
 43
0.0
 44
0.0
 45
0.0
 46
0.0
 47
0.0
 48
0.0
 49
0.0
140
0.0
141
0.0
142
1.0
143
1.0
 70
  1712
 72
     0
 73
     0
 74
     0
  7

 75
     0
 76
     0
 77
     2
 78
   300
147
1.0
148
0.0
149
0.0
100
AcDbLayout
  1
Model
 70
     1
 71
     0
 10
0.0
 20
0.0
 11
12.0
 21
9.0
 12
0.0
 22
0.0
 32
0.0
 14
1.000000000000000E+20
 24
1.000000000000000E+20
 34
1.000000000000000E+20
 15
-1.000000000000000E+20
 25
-1.000000000000000E+20
 35
-1.000000000000000E+20
146
0.0
 13
0.0
 23
0.0
 33
0.0
 16
1.0
 26
0.0
 36
0.0
 17
0.0
 27
1.0
 37
0.0
 76
     0
330
1F
331
29
  0
MATERIAL
  5
3D
102
{ACAD_REACTORS
330
3B
102
}
330
3B
100
AcDbMaterial
  1
ByBlock
 72
     1
 94
      127
  0
MATERIAL
  5
3C
102
{ACAD_REACTORS
330
3B
102
}
330
3B
100
AcDbMaterial
  1
ByLayer
 72
     1
 94
      127
  0
MATERIAL
  5
3E
102
{ACAD_REACTORS
330
3B
102
}
330
3B
100
AcDbMaterial
  1
Global
 72
     1
 94
      127
  0
MLINESTYLE
  5
18
102
{ACAD_REACTORS
330
17
102
}
330
17
100
AcDbMlineStyle
  2
Standard
 70
     0
  3

 62
   256
 51
90.0
 52
90.0
 71
     2
 49
0.5
 62
   256
  6
BYLAYER
 49
-0.5
 62
   256
  6
BYLAYER
  0
ACDBPLACEHOLDER
  5
F
102
{ACAD_REACTORS
330
E
102
}
330
E
  0
VISUALSTYLE
  5
2F
102
{ACAD_REACTORS
330
2A
102
}
330
2A
100
AcDbVisualStyle
  2
2dWireframe
 70
     4
177
     2
291
     0
 71
     0
176
     1
 72
     2
176
     1
 73
     0
176
     1
 90
        0
176
     1
 40
-0.6
176
     1
 41
-30.0
176
     1
 62
     5
 63
     7
421
 16777215
176
     1
 74
     1
176
     1
 91
        4
176
     1
 64
     7
176
     1
 65
   257
176
     1
 75
     1
176
     1
175
     1
176
     1
 42
1.0
176
     1
 92
        0
176
     1
 66
   257
176
     1
 43
1.0
176
     1
 76
     1
176
     1
 77
     6
176
     1
 78
     2
176
     1
 67
     7
176
     1
 79
     5
176
     1
170
     0
176
     1
171
     0
176
     1
290
     0
176
     1
 93
        1
176
     1
 44
0.0
176
     1
173
     0
176
     1
  0
VISUALSTYLE
  5
31
102
{ACAD_REACTORS
330
2A
102
}
330
2A
100
AcDbVisualStyle
  2
3D Hidden
 70
     6
177
     2
291
     0
 71
     1
176
     1
 72
     2
176
     1
 73
     2
176
     1
 90
        0
176
     1
 40
-0.6
176
     1
 41
-30.0
176
     1
 62
     5
 63
     7
421
 16777215
176
     1
 74
     2
176
     1
 91
        2
176
     1
 64
     7
176
     1
 65
   257
176
     1
 75
     2
176
     1
175
     1
176
     1
 42
40.0
176
     1
 92
        0
176
     1
 66
   257
176
     1
 43
1.0
176
     1
 76
     1
176
     1
 77
     6
176
     1
 78
     2
176
     1
 67
     7
176
     1
 79
     3
176
     1
170
     0
176
     1
171
     0
176
     1
290
     0
176
     1
 93
        1
176
     1
 44
0.0
176
     1
173
     0
176
     1
  0
VISUALSTYLE
  5
30
102
{ACAD_REACTORS
330
2A
102
}
330
2A
100
AcDbVisualStyle
  2
3dWireframe
 70
     5
177
     2
291
     0
 71
     0
176
     1
 72
     2
176
     1
 73
     0
176
     1
 90
        0
176
     1
 40
-0.6
176
     1
 41
-30.0
176
     1
 62
     5
 63
     7
421
 16777215
176
     1
 74
     1
176
     1
 91
        4
176
     1
 64
     7
176
     1
 65
   257
176
     1
 75
     1
176
     1
175
     1
176
     1
 42
1.0
176
     1
 92
        0
176
     1
 66
   257
176
     1
 43
1.0
176
     1
 76
     1
176
     1
 77
     6
176
     1
 78
     2
176
     1
 67
     7
176
     1
 79
     5
176
     1
170
     0
176
     1
171
     0
176
     1
290
     0
176
     1
 93
        1
176
     1
 44
0.0
176
     1
173
     0
176
     1
  0
VISUALSTYLE
  5
32
102
{ACAD_REACTORS
330
2A
102
}
330
2A
100
AcDbVisualStyle
  2
Basic
 70
     7
177
     2
291
     1
 71
     1
176
     1
 72
     0
176
     1
 73
     1
176
     1
 90
        0
176
     1
 40
-0.6
176
     1
 41
-30.0
176
     1
 62
     5
 63
     7
421
 16777215
176
     1
 74
     0
176
     1
 91
        4
176
     1
 64
     7
176
     1
 65
   257
176
     1
 75
     1
176
     1
175
     1
176
     1
 42
1.0
176
     1
 92
        8
176
     1
 66
     7
176
     1
 43
1.0
176
     1
 76
     1
176
     1
 77
     6
176
     1
 78
     2
176
     1
 67
     7
176
     1
 79
     5
176
     1
170
     0
176
     1
171
     0
176
     1
290
     0
176
     1
 93
        1
176
     1
 44
0.0
176
     1
173
     0
176
     1
  0
VISUALSTYLE
  5
36
102
{ACAD_REACTORS
330
2A
102
}
330
2A
100
AcDbVisualStyle
  2
Brighten
 70
    12
177
     2
291
     1
 71
     2
176
     1
 72
     2
176
     1
 73
     0
176
     1
 90
        0
176
     1
 40
-0.6
176
     1
 41
-30.0
176
     1
 62
     5
 63
     7
421
 16777215
176
     1
 74
     1
176
     1
 91
        4
176
     1
 64
     7
176
     1
 65
   257
176
     1
 75
     1
176
     1
175
     1
176
     1
 42
1.0
176
     1
 92
        8
176
     1
 66
     7
176
     1
 43
1.0
176
     1
 76
     1
176
     1
 77
     6
176
     1
 78
     2
176
     1
 67
     7
176
     1
 79
     5
176
     1
170
     0
176
     1
171
     0
176
     1
290
     0
176
     1
 93
        1
176
     1
 44
50.0
176
     1
173
     0
176
     1
  0
VISUALSTYLE
  5
3A
102
{ACAD_REACTORS
330
2A
102
}
330
2A
100
AcDbVisualStyle
  2
ColorChange
 70
    16
177
     2
291
     1
 71
     2
176
     1
 72
     2
176
     1
 73
     3
176
     1
 90
        0
176
     1
 40
-0.6
176
     1
 41
-30.0
176
     1
 62
     5
 63
     8
421
  8421504
176
     1
 74
     1
176
     1
 91
        4
176
     1
 64
     7
176
     1
 65
   257
176
     1
 75
     1
176
     1
175
     1
176
     1
 42
1.0
176
     1
 92
        8
176
     1
 66
     8
424
  8421504
176
     1
 43
1.0
176
     1
 76
     1
176
     1
 77
     6
176
     1
 78
     2
176
     1
 67
     7
176
     1
 79
     5
176
     1
170
     0
176
     1
171
     0
176
     1
290
     0
176
     1
 93
        1
176
     1
 44
0.0
176
     1
173
     0
176
     1
  0
VISUALSTYLE
  5
34
102
{ACAD_REACTORS
330
2A
102
}
330
2A
100
AcDbVisualStyle
  2
Conceptual
 70
     9
177
     2
291
     0
 71
     3
176
     1
 72
     2
176
     1
 73
     0
176
     1
 90
        0
176
     1
 40
-0.6
176
     1
 41
-30.0
176
     1
 62
     5
 63
     7
421
 16777215
176
     1
 74
     2
176
     1
 91
        2
176
     1
 64
     7
176
     1
 65
   257
176
     1
 75
     1
176
     1
175
     1
176
     1
 42
40.0
176
     1
 92
        8
176
     1
 66
     7
176
     1
 43
1.0
176
     1
 76
     1
176
     1
 77
     6
176
     1
 78
     2
176
     1
 67
     7
176
     1
 79
     3
176
     1
170
     0
176
     1
171
     0
176
     1
290
     0
176
     1
 93
        1
176
     1
 44
0.0
176
     1
173
     0
176
     1
  0
VISUALSTYLE
  5
35
102
{ACAD_REACTORS
330
2A
102
}
330
2A
100
AcDbVisualStyle
  2
Dim
 70
    11
177
     2
291
     1
 71
     2
176
     1
 72
     2
176
     1
 73
     0
176
     1
 90
        0
176
     1
 40
-0.6
176
     1
 41
-30.0
176
     1
 62
     5
 63
     7
421
 16777215
176
     1
 74
     1
176
     1
 91
        4
176
     1
 64
     7
176
     1
 65
   257
176
     1
 75
     1
176
     1
175
     1
176
     1
 42
1.0
176
     1
 92
        8
176
     1
 66
     7
176
     1
 43
1.0
176
     1
 76
     1
176
     1
 77
     6
176
     1
 78
     2
176
     1
 67
     7
176
     1
 79
     5
176
     1
170
     0
176
     1
171
     0
176
     1
290
     0
176
     1
 93
        1
176
     1
 44
-50.0
176
     1
173
     0
176
     1
  0
VISUALSTYLE
  5
39
102
{ACAD_REACTORS
330
2A
102
}
330
2A
100
AcDbVisualStyle
  2
Facepattern
 70
    15
177
     2
291
     1
 71
     2
176
     1
 72
     2
176
     1
 73
     0
176
     1
 90
        0
176
     1
 40
-0.6
176
     1
 41
-30.0
176
     1
 62
     5
 63
     7
421
 16777215
176
     1
 74
     1
176
     1
 91
        4
176
     1
 64
     7
176
     1
 65
   257
176
     1
 75
     1
176
     1
175
     1
176
     1
 42
1.0
176
     1
 92
        8
176
     1
 66
     7
176
     1
 43
1.0
176
     1
 76
     1
176
     1
 77
     6
176
     1
 78
     2
176
     1
 67
     7
176
     1
 79
     5
176
     1
170
     0
176
     1
171
     0
176
     1
290
     0
176
     1
 93
        1
176
     1
 44
0.0
176
     1
173
     0
176
     1
  0
VISUALSTYLE
  5
2B
102
{ACAD_REACTORS
330
2A
102
}
330
2A
100
AcDbVisualStyle
  2
Flat
 70
     0
177
     2
291
     1
 71
     2
176
     1
 72
     1
176
     1
 73
     1
176
     1
 90
        2
176
     1
 40
-0.6
176
     1
 41
30.0
176
     1
 62
     5
 63
     7
421
 16777215
176
     1
 74
     0
176
     1
 91
        4
176
     1
 64
     7
176
     1
 65
   257
176
     1
 75
     1
176
     1
175
     1
176
     1
 42
1.0
176
     1
 92
        8
176
     1
 66
     7
176
     1
 43
1.0
176
     1
 76
     1
176
     1
 77
     6
176
     1
 78
     2
176
     1
 67
     7
176
     1
 79
     5
176
     1
170
     0
176
     1
171
     0
176
     1
290
     0
176
     1
 93
       13
176
     1
 44
0.0
176
     1
173
     0
176
     1
  0
VISUALSTYLE
  5
2C
102
{ACAD_REACTORS
330
2A
102
}
330
2A
100
AcDbVisualStyle
  2
FlatWithEdges
 70
     1
177
     2
291
     1
 71
     2
176
     1
 72
     1
176
     1
 73
     1
176
     1
 90
        2
176
     1
 40
-0.6
176
     1
 41
30.0
176
     1
 62
     5
 63
     7
421
 16777215
176
     1
 74
     1
176
     1
 91
        4
176
     1
 64
     7
176
     1
 65
   257
176
     1
 75
     1
176
     1
175
     1
176
     1
 42
1.0
176
     1
 92
        0
176
     1
 66
   257
176
     1
 43
1.0
176
     1
 76
     1
176
     1
 77
     6
176
     1
 78
     2
176
     1
 67
     7
176
     1
 79
     5
176
     1
170
     0
176
     1
171
     0
176
     1
290
     0
176
     1
 93
       13
176
     1
 44
0.0
176
     1
173
     0
176
     1
  0
VISUALSTYLE
  5
2D
102
{ACAD_REACTORS
330
2A
102
}
330
2A
100
AcDbVisualStyle
  2
Gouraud
 70
     2
177
     2
291
     1
 71
     2
176
     1
 72
     2
176
     1
 73
     1
176
     1
 90
        2
176
     1
 40
-0.6
176
     1
 41
30.0
176
     1
 62
     5
 63
     7
421
 16777215
176
     1
 74
     0
176
     1
 91
        4
176
     1
 64
     7
176
     1
 65
   257
176
     1
 75
     1
176
     1
175
     1
176
     1
 42
1.0
176
     1
 92
        0
176
     1
 66
     7
176
     1
 43
1.0
176
     1
 76
     1
176
     1
 77
     6
176
     1
 78
     2
176
     1
 67
     7
176
     1
 79
     5
176
     1
170
     0
176
     1
171
     0
176
     1
290
     0
176
     1
 93
       13
176
     1
 44
0.0
176
     1
173
     0
176
     1
  0
VISUALSTYLE
  5
2E
102
{ACAD_REACTORS
330
2A
102
}
330
2A
100
AcDbVisualStyle
  2
GouraudWithEdges
 70
     3
177
     2
291
     1
 71
     2
176
     1
 72
     2
176
     1
 73
     1
176
     1
 90
        2
176
     1
 40
-0.6
176
     1
 41
30.0
176
     1
 62
     5
 63
     7
421
 16777215
176
     1
 74
     1
176
     1
 91
        4
176
     1
 64
     7
176
     1
 65
   257
176
     1
 75
     1
176
     1
175
     1
176
     1
 42
1.0
176
     1
 92
        0
176
     1
 66
   257
176
     1
 43
1.0
176
     1
 76
     1
176
     1
 77
     6
176
     1
 78
     2
176
     1
 67
     7
176
     1
 79
     5
176
     1
170
     0
176
     1
171
     0
176
     1
290
     0
176
     1
 93
       13
176
     1
 44
0.0
176
     1
173
     0
176
     1
  0
VISUALSTYLE
  5
38
102
{ACAD_REACTORS
330
2A
102
}
330
2A
100
AcDbVisualStyle
  2
Linepattern
 70
    14
177
     2
291
     1
 71
     2
176
     1
 72
     2
176
     1
 73
     0
176
     1
 90
        0
176
     1
 40
-0.6
176
     1
 41
-30.0
176
     1
 62
     5
 63
     7
421
 16777215
176
     1
 74
     1
176
     1
 91
        4
176
     1
 64
     7
176
     1
 65
   257
176
     1
 75
     7
176
     1
175
     7
176
     1
 42
1.0
176
     1
 92
        8
176
     1
 66
     7
176
     1
 43
1.0
176
     1
 76
     1
176
     1
 77
     6
176
     1
 78
     2
176
     1
 67
     7
176
     1
 79
     5
176
     1
170
     0
176
     1
171
     0
176
     1
290
     0
176
     1
 93
        1
176
     1
 44
0.0
176
     1
173
     0
176
     1
  0
VISUALSTYLE
  5
33
102
{ACAD_REACTORS
330
2A
102
}
330
2A
100
AcDbVisualStyle
  2
Realistic
 70
     8
177
     2
291
     0
 71
     2
176
     1
 72
     2
176
     1
 73
     0
176
     1
 90
        0
176
     1
 40
-0.6
176
     1
 41
-30.0
176
     1
 62
     5
 63
     7
421
 16777215
176
     1
 74
     1
176
     1
 91
        0
176
     1
 64
     7
176
     1
 65
   257
176
     1
 75
     1
176
     1
175
     1
176
     1
 42
1.0
176
     1
 92
        8
176
     1
 66
     8
424
  7895160
176
     1
 43
1.0
176
     1
 76
     1
176
     1
 77
     6
176
     1
 78
     2
176
     1
 67
     7
176
     1
 79
     5
176
     1
170
     0
176
     1
171
     0
176
     1
290
     0
176
     1
 93
       13
176
     1
 44
0.0
176
     1
173
     0
176
     1
  0
VISUALSTYLE
  5
37
102
{ACAD_REACTORS
330
2A
102
}
330
2A
100
AcDbVisualStyle
  2
Thicken
 70
    13
177
     2
291
     1
 71
     2
176
     1
 72
     2
176
     1
 73
     0
176
     1
 90
        0
176
     1
 40
-0.6
176
     1
 41
-30.0
176
     1
 62
     5
 63
     7
421
 16777215
176
     1
 74
     1
176
     1
 91
        4
176
     1
 64
     7
176
     1
 65
   257
176
     1
 75
     1
176
     1
175
     1
176
     1
 42
1.0
176
     1
 92
       12
176
     1
 66
     7
176
     1
 43
1.0
176
     1
 76
     1
176
     1
 77
     6
176
     1
 78
     2
176
     1
 67
     7
176
     1
 79
     5
176
     1
170
     0
176
     1
171
     0
176
     1
290
     0
176
     1
 93
        1
176
     1
 44
0.0
176
     1
173
     0
176
     1
  0
ENDSEC
  0
EOF
