  0
SECTION
  2
HEADER
  9
$ACADVER
  1
AC1024
  9
$ACADMAINTVER
 70
     6
  9
$DWGCODEPAGE
  3
ANSI_1252
  9
$INSBASE
 10
0.0
 20
0.0
 30
0.0
  9
$EXTMIN
 10
1.000000000000000E+20
 20
1.000000000000000E+20
 30
1.000000000000000E+20
  9
$EXTMAX
 10
-1.000000000000000E+20
 20
-1.000000000000000E+20
 30
-1.000000000000000E+20
  9
$LIMMIN
 10
0.0
 20
0.0
  9
$LIMMAX
 10
12.0
 20
9.0
  9
$ORTHOMODE
 70
     0
  9
$REGENMODE
 70
     1
  9
$FILLMODE
 70
     1
  9
$QTEXTMODE
 70
     0
  9
$MIRRTEXT
 70
     1
  9
$LTSCALE
 40
1.0
  9
$ATTMODE
 70
     1
  9
$TEXTSIZE
 40
0.2
  9
$TRACEWID
 40
0.05
  9
$TEXTSTYLE
  7
Standard
  9
$CLAYER
  8
0
  9
$CELTYPE
  6
ByLayer
  9
$CECOLOR
 62
   256
  9
$CELTSCALE
 40
1.0
  9
$DISPSILH
 70
     0
  9
$DIMSCALE
 40
1.0
  9
$DIMASZ
 40
0.18
  9
$DIMEXO
 40
0.0625
  9
$DIMDLI
 40
0.38
  9
$DIMRND
 40
0.0
  9
$DIMDLE
 40
0.0
  9
$DIMEXE
 40
0.18
  9
$DIMTP
 40
0.0
  9
$DIMTM
 40
0.0
  9
$DIMTXT
 40
0.18
  9
$DIMCEN
 40
0.09
  9
$DIMTSZ
 40
0.0
  9
$DIMTOL
 70
     0
  9
$DIMLIM
 70
     0
  9
$DIMTIH
 70
     1
  9
$DIMTOH
 70
     1
  9
$DIMSE1
 70
     0
  9
$DIMSE2
 70
     0
  9
$DIMTAD
 70
     0
  9
$DIMZIN
 70
     0
  9
$DIMBLK
  1

  9
$DIMASO
 70
     1
  9
$DIMSHO
 70
     1
  9
$DIMPOST
  1

  9
$DIMAPOST
  1

  9
$DIMALT
 70
     0
  9
$DIMALTD
 70
     2
  9
$DIMALTF
 40
25.4
  9
$DIMLFAC
 40
1.0
  9
$DIMTOFL
 70
     0
  9
$DIMTVP
 40
0.0
  9
$DIMTIX
 70
     0
  9
$DIMSOXD
 70
     0
  9
$DIMSAH
 70
     0
  9
$DIMBLK1
  1

  9
$DIMBLK2
  1

  9
$DIMSTYLE
  2
Standard
  9
$DIMCLRD
 70
     0
  9
$DIMCLRE
 70
     0
  9
$DIMCLRT
 70
     0
  9
$DIMTFAC
 40
1.0
  9
$DIMGAP
 40
0.09
  9
$DIMJUST
 70
     0
  9
$DIMSD1
 70
     0
  9
$DIMSD2
 70
     0
  9
$DIMTOLJ
 70
     1
  9
$DIMTZIN
 70
     0
  9
$DIMALTZ
 70
     0
  9
$DIMALTTZ
 70
     0
  9
$DIMUPT
 70
     0
  9
$DIMDEC
 70
     4
  9
$DIMTDEC
 70
     4
  9
$DIMALTU
 70
     2
  9
$DIMALTTD
 70
     2
  9
$DIMTXSTY
  7
Standard
  9
$DIMAUNIT
 70
     0
  9
$DIMADEC
 70
     0
  9
$DIMALTRND
 40
0.0
  9
$DIMAZIN
 70
     0
  9
$DIMDSEP
 70
    46
  9
$DIMATFIT
 70
     3
  9
$DIMFRAC
 70
     0
  9
$DIMLDRBLK
  1

  9
$DIMLUNIT
 70
     2
  9
$DIMLWD
 70
    -2
  9
$DIMLWE
 70
    -2
  9
$DIMTMOVE
 70
     0
  9
$DIMFXL
 40
1.0
  9
$DIMFXLON
 70
     0
  9
$DIMJOGANG
 40
0.7853981633974483
  9
$DIMTFILL
 70
     0
  9
$DIMTFILLCLR
 70
     0
  9
$DIMARCSYM
 70
     0
  9
$DIMLTYPE
  6

  9
$DIMLTEX1
  6

  9
$DIMLTEX2
  6

  9
$DIMTXTDIRECTION
 70
     0
  9
$LUNITS
 70
     2
  9
$LUPREC
 70
     4
  9
$SKETCHINC
 40
0.1
  9
$FILLETRAD
 40
0.5
  9
$AUNITS
 70
     0
  9
$AUPREC
 70
     0
  9
$MENU
  1
.
  9
$ELEVATION
 40
0.0
  9
$PELEVATION
 40
0.0
  9
$THICKNESS
 40
0.0
  9
$LIMCHECK
 70
     0
  9
$CHAMFERA
 40
0.5
  9
$CHAMFERB
 40
0.5
  9
$CHAMFERC
 40
1.0
  9
$CHAMFERD
 40
0.0
  9
$SKPOLY
 70
     0
  9
$TDCREATE
 40
2456396.574941991
  9
$TDUCREATE
 40
2456396.741608657
  9
$TDUPDATE
 40
2456396.574942003
  9
$TDUUPDATE
 40
2456396.741608669
  9
$TDINDWG
 40
0.0000000116
  9
$TDUSRTIMER
 40
0.0000000116
  9
$USRTIMER
 70
     1
  9
$ANGBASE
 50
0.0
  9
$ANGDIR
 70
     0
  9
$PDMODE
 70
     0
  9
$PDSIZE
 40
0.0
  9
$PLINEWID
 40
0.0
  9
$SPLFRAME
 70
     0
  9
$SPLINETYPE
 70
     6
  9
$SPLINESEGS
 70
     8
  9
$HANDSEED
  5
459
  9
$SURFTAB1
 70
     6
  9
$SURFTAB2
 70
     6
  9
$SURFTYPE
 70
     6
  9
$SURFU
 70
     6
  9
$SURFV
 70
     6
  9
$UCSBASE
  2

  9
$UCSNAME
  2

  9
$UCSORG
 10
0.0
 20
0.0
 30
0.0
  9
$UCSXDIR
 10
1.0
 20
0.0
 30
0.0
  9
$UCSYDIR
 10
0.0
 20
1.0
 30
0.0
  9
$UCSORTHOREF
  2

  9
$UCSORTHOVIEW
 70
     0
  9
$UCSORGTOP
 10
0.0
 20
0.0
 30
0.0
  9
$UCSORGBOTTOM
 10
0.0
 20
0.0
 30
0.0
  9
$UCSORGLEFT
 10
0.0
 20
0.0
 30
0.0
  9
$UCSORGRIGHT
 10
0.0
 20
0.0
 30
0.0
  9
$UCSORGFRONT
 10
0.0
 20
0.0
 30
0.0
  9
$UCSORGBACK
 10
0.0
 20
0.0
 30
0.0
  9
$PUCSBASE
  2

  9
$PUCSNAME
  2

  9
$PUCSORG
 10
0.0
 20
0.0
 30
0.0
  9
$PUCSXDIR
 10
1.0
 20
0.0
 30
0.0
  9
$PUCSYDIR
 10
0.0
 20
1.0
 30
0.0
  9
$PUCSORTHOREF
  2

  9
$PUCSORTHOVIEW
 70
     0
  9
$PUCSORGTOP
 10
0.0
 20
0.0
 30
0.0
  9
$PUCSORGBOTTOM
 10
0.0
 20
0.0
 30
0.0
  9
$PUCSORGLEFT
 10
0.0
 20
0.0
 30
0.0
  9
$PUCSORGRIGHT
 10
0.0
 20
0.0
 30
0.0
  9
$PUCSORGFRONT
 10
0.0
 20
0.0
 30
0.0
  9
$PUCSORGBACK
 10
0.0
 20
0.0
 30
0.0
  9
$USERI1
 70
     0
  9
$USERI2
 70
     0
  9
$USERI3
 70
     0
  9
$USERI4
 70
     0
  9
$USERI5
 70
     0
  9
$USERR1
 40
0.0
  9
$USERR2
 40
0.0
  9
$USERR3
 40
0.0
  9
$USERR4
 40
0.0
  9
$USERR5
 40
0.0
  9
$WORLDVIEW
 70
     1
  9
$SHADEDGE
 70
     3
  9
$SHADEDIF
 70
    70
  9
$TILEMODE
 70
     1
  9
$MAXACTVP
 70
    64
  9
$PINSBASE
 10
0.0
 20
0.0
 30
0.0
  9
$PLIMCHECK
 70
     0
  9
$PEXTMIN
 10
1.000000000000000E+20
 20
1.000000000000000E+20
 30
1.000000000000000E+20
  9
$PEXTMAX
 10
-1.000000000000000E+20
 20
-1.000000000000000E+20
 30
-1.000000000000000E+20
  9
$PLIMMIN
 10
0.0
 20
0.0
  9
$PLIMMAX
 10
12.0
 20
9.0
  9
$UNITMODE
 70
     0
  9
$VISRETAIN
 70
     1
  9
$PLINEGEN
 70
     0
  9
$PSLTSCALE
 70
     1
  9
$TREEDEPTH
 70
  3020
  9
$CMLSTYLE
  2
Standard
  9
$CMLJUST
 70
     0
  9
$CMLSCALE
 40
1.0
  9
$PROXYGRAPHICS
 70
     1
  9
$MEASUREMENT
 70
     0
  9
$CELWEIGHT
370
    -1
  9
$ENDCAPS
280
     0
  9
$JOINSTYLE
280
     0
  9
$LWDISPLAY
290
     0
  9
$INSUNITS
 70
     1
  9
$HYPERLINKBASE
  1

  9
$STYLESHEET
  1

  9
$XEDIT
290
     1
  9
$CEPSNTYPE
380
     0
  9
$PSTYLEMODE
290
     1
  9
$FINGERPRINTGUID
  2
{D5D49B62-4CAE-4DF9-B459-5B7D52B26BF9}
  9
$VERSIONGUID
  2
{FAEB1C32-E019-11D5-929B-00C0DF256EC4}
  9
$EXTNAMES
290
     1
  9
$PSVPSCALE
 40
0.0
  9
$OLESTARTUP
290
     0
  9
$SORTENTS
280
   127
  9
$INDEXCTL
280
     0
  9
$HIDETEXT
280
     1
  9
$XCLIPFRAME
280
     2
  9
$HALOGAP
280
     0
  9
$OBSCOLOR
 70
   257
  9
$OBSLTYPE
280
     0
  9
$INTERSECTIONDISPLAY
280
     0
  9
$INTERSECTIONCOLOR
 70
   257
  9
$DIMASSOC
280
     2
  9
$PROJECTNAME
  1

  9
$CAMERADISPLAY
290
     0
  9
$LENSLENGTH
 40
50.0
  9
$CAMERAHEIGHT
 40
0.0
  9
$STEPSPERSEC
 40
2.0
  9
$STEPSIZE
 40
6.0
  9
$3DDWFPREC
 40
2.0
  9
$PSOLWIDTH
 40
0.25
  9
$PSOLHEIGHT
 40
4.0
  9
$LOFTANG1
 40
1.570796326794897
  9
$LOFTANG2
 40
1.570796326794897
  9
$LOFTMAG1
 40
0.0
  9
$LOFTMAG2
 40
0.0
  9
$LOFTPARAM
 70
     7
  9
$LOFTNORMALS
280
     1
  9
$LATITUDE
 40
37.795
  9
$LONGITUDE
 40
-122.394
  9
$NORTHDIRECTION
 40
0.0
  9
$TIMEZONE
 70
 -8000
  9
$LIGHTGLYPHDISPLAY
280
     1
  9
$TILEMODELIGHTSYNCH
280
     1
  9
$SOLIDHIST
280
     1
  9
$SHOWHIST
280
     1
  9
$DWFFRAME
280
     2
  9
$DGNFRAME
280
     2
  9
$REALWORLDSCALE
290
     1
  9
$INTERFERECOLOR
 62
   256
  9
$CSHADOW
280
     0
  9
$SHADOWPLANELOCATION
 40
0.0
  0
ENDSEC
  0
SECTION
  2
CLASSES
  0
CLASS
  1
ACDBDICTIONARYWDFLT
  2
AcDbDictionaryWithDefault
  3
ObjectDBX Classes
 90
        0
 91
        4
280
     0
281
     0
  0
CLASS
  1
VISUALSTYLE
  2
AcDbVisualStyle
  3
ObjectDBX Classes
 90
     4095
 91
        4
280
     0
281
     0
  0
CLASS
  1
MATERIAL
  2
AcDbMaterial
  3
ObjectDBX Classes
 90
     1153
 91
        4
280
     0
281
     0
  0
ENDSEC
  0
SECTION
  2
TABLES
  0
TABLE
  2
VPORT
  5
8
330
0
100
AcDbSymbolTable
 70
     1
  0
VPORT
  5
29
330
8
100
AcDbSymbolTableRecord
100
AcDbViewportTableRecord
  2
*Active
 70
     0
 10
0.0
 20
0.0
 11
1.0
 21
1.0
 12
0.0
 22
0.0
 13
0.0
 23
0.0
 14
0.5
 24
0.5
 15
0.5
 25
0.5
 16
0.0
 26
0.0
 36
1.0
 17
0.0
 27
0.0
 37
-1000.0
 40
200.233666634279
 41
1.822857142857143
 42
50.0
 43
3609.813813334118
 44
4439.9346585065
 50
0.0
 51
0.0
 71
     0
 72
   100
 73
     1
 74
     3
 75
     0
 76
     0
 77
     0
 78
     0
281
     0
 65
     1
110
0.0
120
0.0
130
0.0
111
1.0
121
0.0
131
0.0
112
0.0
122
1.0
132
0.0
 79
     0
146
0.0
 60
     3
 61
     5
292
     1
282
     1
141
0.0
142
0.0
 63
   250
  0
ENDTAB
  0
TABLE
  2
LTYPE
  5
5
330
0
100
AcDbSymbolTable
 70
     1
  0
LTYPE
  5
14
330
5
100
AcDbSymbolTableRecord
100
AcDbLinetypeTableRecord
  2
ByBlock
 70
     0
  3

 72
    65
 73
     0
 40
0.0
  0
LTYPE
  5
15
330
5
100
AcDbSymbolTableRecord
100
AcDbLinetypeTableRecord
  2
ByLayer
 70
     0
  3

 72
    65
 73
     0
 40
0.0
  0
LTYPE
  5
16
330
5
100
AcDbSymbolTableRecord
100
AcDbLinetypeTableRecord
  2
Continuous
 70
     0
  3
Solid line
 72
    65
 73
     0
 40
0.0
  0
ENDTAB
  0
TABLE
  2
LAYER
  5
2
330
0
100
AcDbSymbolTable
 70
     3
  0
LAYER
  5
10
330
2
100
AcDbSymbolTableRecord
100
AcDbLayerTableRecord
  2
0
 70
     0
 62
     7
  6
Continuous
370
    -3
390
F
347
3E
  0
LAYER
  5
3F
330
2
100
AcDbSymbolTableRecord
100
AcDbLayerTableRecord
  2
ProfileEdges
 70
     0
 62
     7
  6
Continuous
370
    -3
390
F
347
3E
  0
LAYER
  5
40
330
2
100
AcDbSymbolTableRecord
100
AcDbLayerTableRecord
  2
SectionCutEdges
 70
     0
 62
     7
  6
Continuous
370
    -3
390
F
347
3E
  0
ENDTAB
  0
TABLE
  2
STYLE
  5
3
330
0
100
AcDbSymbolTable
 70
     1
  0
STYLE
  5
11
330
3
100
AcDbSymbolTableRecord
100
AcDbTextStyleTableRecord
  2
Standard
 70
     0
 40
0.0
 41
1.0
 50
0.0
 71
     0
 42
0.2
  3
txt
  4

  0
ENDTAB
  0
TABLE
  2
VIEW
  5
6
330
0
100
AcDbSymbolTable
 70
     0
  0
ENDTAB
  0
TABLE
  2
UCS
  5
7
330
0
100
AcDbSymbolTable
 70
     0
  0
ENDTAB
  0
TABLE
  2
APPID
  5
9
330
0
100
AcDbSymbolTable
 70
     1
  0
APPID
  5
12
330
9
100
AcDbSymbolTableRecord
100
AcDbRegAppTableRecord
  2
ACAD
 70
     0
  0
ENDTAB
  0
TABLE
  2
DIMSTYLE
  5
A
330
0
100
AcDbSymbolTable
 70
     1
100
AcDbDimStyleTable
  0
DIMSTYLE
105
27
330
A
100
AcDbSymbolTableRecord
100
AcDbDimStyleTableRecord
  2
Standard
 70
     0
340
11
  0
ENDTAB
  0
TABLE
  2
BLOCK_RECORD
  5
1
330
0
100
AcDbSymbolTable
 70
     1
  0
BLOCK_RECORD
  5
1F
330
1
100
AcDbSymbolTableRecord
100
AcDbBlockTableRecord
  2
*Model_Space
340
22
 70
     0
280
     1
281
     0
  0
BLOCK_RECORD
  5
1B
330
1
100
AcDbSymbolTableRecord
100
AcDbBlockTableRecord
  2
*Paper_Space
340
1E
 70
     0
280
     1
281
     0
  0
BLOCK_RECORD
  5
23
330
1
100
AcDbSymbolTableRecord
100
AcDbBlockTableRecord
  2
*Paper_Space0
340
26
 70
     0
280
     1
281
     0
  0
ENDTAB
  0
ENDSEC
  0
SECTION
  2
BLOCKS
  0
BLOCK
  5
20
330
1F
100
AcDbEntity
  8
0
100
AcDbBlockBegin
  2
*Model_Space
 70
     0
 10
0.0
 20
0.0
 30
0.0
  3
*Model_Space
  1

  0
ENDBLK
  5
21
330
1F
100
AcDbEntity
  8
0
100
AcDbBlockEnd
  0
BLOCK
  5
1C
330
1B
100
AcDbEntity
 67
     1
  8
0
100
AcDbBlockBegin
  2
*Paper_Space
 70
     0
 10
0.0
 20
0.0
 30
0.0
  3
*Paper_Space
  1

  0
ENDBLK
  5
1D
330
1B
100
AcDbEntity
 67
     1
  8
0
100
AcDbBlockEnd
  0
BLOCK
  5
24
330
23
100
AcDbEntity
  8
0
100
AcDbBlockBegin
  2
*Paper_Space0
 70
     0
 10
0.0
 20
0.0
 30
0.0
  3
*Paper_Space0
  1

  0
ENDBLK
  5
25
330
23
100
AcDbEntity
  8
0
100
AcDbBlockEnd
  0
ENDSEC
  0
SECTION
  2
ENTITIES
  0
LINE
  5
41
330
1F
100
AcDbEntity
  8
0
100
AcDbLine
 10
-29.90318691397611
 20
24.76767788072152
 30
0.0
 11
-29.49359521447434
 21
23.77883604474905
 31
0.0
  0
LINE
  5
42
330
1F
100
AcDbEntity
  8
0
100
AcDbLine
 10
-29.49359521447434
 20
23.77883604474905
 30
0.0
 11
-28.84202891394846
 21
22.92969830981523
 31
0.0
  0
LINE
  5
43
330
1F
100
AcDbEntity
  8
0
100
AcDbLine
 10
-28.84202891394846
 20
22.92969830981523
 30
0.0
 11
-27.99289117901446
 21
22.27813200928912
 31
0.0
  0
LINE
  5
44
330
1F
100
AcDbEntity
  8
0
100
AcDbLine
 10
-27.99289117901446
 20
22.27813200928912
 30
0.0
 11
-27.00404934304221
 21
21.86854030978752
 31
0.0
  0
LINE
  5
45
330
1F
100
AcDbEntity
  8
0
100
AcDbLine
 10
-27.00404934304221
 20
21.86854030978752
 30
0.0
 11
-25.94289134301455
 21
21.72883620874891
 31
0.0
  0
LINE
  5
46
330
1F
100
AcDbEntity
  8
0
100
AcDbLine
 10
-27.68155769124157
 20
8.662962972834322
 30
0.0
 11
-27.50173694511895
 21
8.228837288748915
 31
0.0
  0
LINE
  5
47
330
1F
100
AcDbEntity
  8
0
100
AcDbLine
 10
9.757105800986043
 20
52.37883375674964
 30
0.0
 11
9.757105800986043
 21
57.37883335674952
 31
0.0
  0
LINE
  5
48
330
1F
100
AcDbEntity
  8
0
100
AcDbLine
 10
14.2575631183011
 20
48.36942261033117
 30
0.0
 11
14.30837594662924
 21
47.90228380141462
 31
0.0
  0
LINE
  5
49
330
1F
100
AcDbEntity
  8
0
100
AcDbLine
 10
16.56775045558004
 20
5.054885479509333
 30
0.0
 11
16.10361660066496
 21
5.128236519314512
 31
0.0
  0
LINE
  5
4A
330
1F
100
AcDbEntity
  8
0
100
AcDbLine
 10
17.59217475088431
 20
2.388858290917481
 30
0.0
 11
17.78315309574633
 21
2.818192522155337
 31
0.0
  0
LINE
  5
4B
330
1F
100
AcDbEntity
  8
0
100
AcDbLine
 10
-25.94289134301455
 20
44.32883440074933
 30
0.0
 11
-26.40876558692917
 21
44.2675008929762
 31
0.0
  0
LINE
  5
4C
330
1F
100
AcDbEntity
  8
0
100
AcDbLine
 10
16.01059399330723
 20
1.529438842183861
 30
0.0
 11
16.47789751670443
 21
1.578713859579741
 31
0.0
  0
LINE
  5
4D
330
1F
100
AcDbEntity
  8
0
100
AcDbLine
 10
71.03310899520257
 20
9.328837200746326
 30
0.0
 11
71.09444250297551
 21
8.86296295683175
 31
0.0
  0
LINE
  5
4E
330
1F
100
AcDbEntity
  8
0
100
AcDbLine
 10
-87.01560435606332
 20
40.54016821651528
 30
0.0
 11
-86.54973011214871
 21
40.47883470874224
 31
0.0
  0
LINE
  5
4F
330
1F
100
AcDbEntity
  8
0
100
AcDbLine
 10
-87.4497300401487
 20
40.7199889626379
 30
0.0
 11
-87.01560435606332
 21
40.54016821651528
 31
0.0
  0
LINE
  5
50
330
1F
100
AcDbEntity
  8
0
100
AcDbLine
 10
-46.29829365996686
 20
47.90159088164459
 30
0.0
 11
-46.12813423956587
 21
47.46358816251192
 31
0.0
  0
LINE
  5
51
330
1F
100
AcDbEntity
  8
0
100
AcDbLine
 10
-54.52912628429983
 20
-58.31099459528231
 30
0.0
 11
-46.52912692429978
 21
-58.31099459528231
 31
0.0
  0
LINE
  5
52
330
1F
100
AcDbEntity
  8
0
100
AcDbLine
 10
47.07485530973831
 20
-39.76085607680052
 30
0.0
 11
47.55161113939177
 21
-39.13953578294647
 31
0.0
  0
LINE
  5
53
330
1F
100
AcDbEntity
  8
0
100
AcDbLine
 10
32.92482919690664
 20
-35.90086955471947
 30
0.0
 11
32.49070351282127
 21
-36.08069030084213
 31
0.0
  0
LINE
  5
54
330
1F
100
AcDbEntity
  8
0
100
AcDbLine
 10
33.77281608824023
 20
24.76767788071453
 30
0.0
 11
34.18240778774201
 21
23.77883604474214
 31
0.0
  0
LINE
  5
55
330
1F
100
AcDbEntity
  8
0
100
AcDbLine
 10
-76.30013338002342
 20
-46.67138466213367
 30
0.0
 11
-73.70205737651634
 21
-42.17138502213363
 31
0.0
  0
LINE
  5
56
330
1F
100
AcDbEntity
  8
0
100
AcDbLine
 10
-73.70205737651634
 20
-42.17138502213363
 30
0.0
 11
-76.30013338002342
 21
-37.67138538213363
 31
0.0
  0
LINE
  5
57
330
1F
100
AcDbEntity
  8
0
100
AcDbLine
 10
-76.30013338002342
 20
-37.67138538213363
 30
0.0
 11
-81.49628538703796
 21
-37.67138538213363
 31
0.0
  0
LINE
  5
58
330
1F
100
AcDbEntity
  8
0
100
AcDbLine
 10
-81.49628538703796
 20
-37.67138538213363
 30
0.0
 11
-84.09436139054522
 21
-42.17138502213363
 31
0.0
  0
LINE
  5
59
330
1F
100
AcDbEntity
  8
0
100
AcDbLine
 10
-84.09436139054522
 20
-42.17138502213363
 30
0.0
 11
-81.49628538703796
 21
-46.67138466213367
 31
0.0
  0
LINE
  5
5A
330
1F
100
AcDbEntity
  8
0
100
AcDbLine
 10
-81.49628538703796
 20
-46.67138466213367
 30
0.0
 11
-76.30013338002342
 21
-46.67138466213367
 31
0.0
  0
LINE
  5
5B
330
1F
100
AcDbEntity
  8
0
100
AcDbLine
 10
-80.39820926353073
 20
-44.76946102564089
 30
0.0
 11
-79.67466645672172
 21
-45.0691622691787
 31
0.0
  0
LINE
  5
5C
330
1F
100
AcDbEntity
  8
0
100
AcDbLine
 10
-81.01952955738486
 20
-44.29270519598766
 30
0.0
 11
-80.39820926353073
 21
-44.76946102564089
 31
0.0
  0
LINE
  5
5D
330
1F
100
AcDbEntity
  8
0
100
AcDbLine
 10
-81.49628538703796
 20
-43.67138490213366
 30
0.0
 11
-81.01952955738486
 21
-44.29270519598766
 31
0.0
  0
LINE
  5
5E
330
1F
100
AcDbEntity
  8
0
100
AcDbLine
 10
-81.79598663057571
 20
-42.94784209532462
 30
0.0
 11
-81.49628538703796
 21
-43.67138490213366
 31
0.0
  0
LINE
  5
5F
330
1F
100
AcDbEntity
  8
0
100
AcDbLine
 10
-81.89820914353075
 20
-42.17138502213363
 30
0.0
 11
-81.79598663057571
 21
-42.94784209532462
 31
0.0
  0
LINE
  5
60
330
1F
100
AcDbEntity
  8
0
100
AcDbLine
 10
-81.79598663057571
 20
-41.39492794894264
 30
0.0
 11
-81.89820914353075
 21
-42.17138502213363
 31
0.0
  0
LINE
  5
61
330
1F
100
AcDbEntity
  8
0
100
AcDbLine
 10
-81.49628538703796
 20
-40.6713851421336
 30
0.0
 11
-81.79598663057571
 21
-41.39492794894264
 31
0.0
  0
LINE
  5
62
330
1F
100
AcDbEntity
  8
0
100
AcDbLine
 10
-81.01952955738486
 20
-40.05006484827955
 30
0.0
 11
-81.49628538703796
 21
-40.6713851421336
 31
0.0
  0
LINE
  5
63
330
1F
100
AcDbEntity
  8
0
100
AcDbLine
 10
-80.39820926353073
 20
-39.57330901862636
 30
0.0
 11
-81.01952955738486
 21
-40.05006484827955
 31
0.0
  0
LINE
  5
64
330
1F
100
AcDbEntity
  8
0
100
AcDbLine
 10
-79.67466645672172
 20
-39.27360777508856
 30
0.0
 11
-80.39820926353073
 21
-39.57330901862636
 31
0.0
  0
LINE
  5
65
330
1F
100
AcDbEntity
  8
0
100
AcDbLine
 10
-78.89820938353068
 20
-39.17138526213357
 30
0.0
 11
-79.67466645672172
 21
-39.27360777508856
 31
0.0
  0
LINE
  5
66
330
1F
100
AcDbEntity
  8
0
100
AcDbLine
 10
-78.12175231033964
 20
-39.27360777508856
 30
0.0
 11
-78.89820938353068
 21
-39.17138526213357
 31
0.0
  0
LINE
  5
67
330
1F
100
AcDbEntity
  8
0
100
AcDbLine
 10
-77.39820950353067
 20
-39.57330901862636
 30
0.0
 11
-78.12175231033964
 21
-39.27360777508856
 31
0.0
  0
LINE
  5
68
330
1F
100
AcDbEntity
  8
0
100
AcDbLine
 10
-76.77688920967653
 20
-40.05006484827955
 30
0.0
 11
-77.39820950353067
 21
-39.57330901862636
 31
0.0
  0
LINE
  5
69
330
1F
100
AcDbEntity
  8
0
100
AcDbLine
 10
-76.30013338002342
 20
-40.6713851421336
 30
0.0
 11
-76.77688920967653
 21
-40.05006484827955
 31
0.0
  0
LINE
  5
6A
330
1F
100
AcDbEntity
  8
0
100
AcDbLine
 10
-76.00043213648567
 20
-41.39492794894264
 30
0.0
 11
-76.30013338002342
 21
-40.6713851421336
 31
0.0
  0
LINE
  5
6B
330
1F
100
AcDbEntity
  8
0
100
AcDbLine
 10
-75.89820962353063
 20
-42.17138502213363
 30
0.0
 11
-76.00043213648567
 21
-41.39492794894264
 31
0.0
  0
LINE
  5
6C
330
1F
100
AcDbEntity
  8
0
100
AcDbLine
 10
-76.00043213648567
 20
-42.94784209532462
 30
0.0
 11
-75.89820962353063
 21
-42.17138502213363
 31
0.0
  0
LINE
  5
6D
330
1F
100
AcDbEntity
  8
0
100
AcDbLine
 10
-76.30013338002342
 20
-43.67138490213366
 30
0.0
 11
-76.00043213648567
 21
-42.94784209532462
 31
0.0
  0
LINE
  5
6E
330
1F
100
AcDbEntity
  8
0
100
AcDbLine
 10
-76.77688920967653
 20
-44.29270519598771
 30
0.0
 11
-76.30013338002342
 21
-43.67138490213366
 31
0.0
  0
LINE
  5
6F
330
1F
100
AcDbEntity
  8
0
100
AcDbLine
 10
-77.39820950353067
 20
-44.76946102564089
 30
0.0
 11
-76.77688920967653
 21
-44.29270519598771
 31
0.0
  0
LINE
  5
70
330
1F
100
AcDbEntity
  8
0
100
AcDbLine
 10
-78.12175231033964
 20
-45.0691622691787
 30
0.0
 11
-77.39820950353067
 21
-44.76946102564089
 31
0.0
  0
LINE
  5
71
330
1F
100
AcDbEntity
  8
0
100
AcDbLine
 10
-78.89820938353068
 20
-45.17138478213369
 30
0.0
 11
-78.12175231033964
 21
-45.0691622691787
 31
0.0
  0
LINE
  5
72
330
1F
100
AcDbEntity
  8
0
100
AcDbLine
 10
-79.67466645672172
 20
-45.0691622691787
 30
0.0
 11
-78.89820938353068
 21
-45.17138478213369
 31
0.0
  0
LINE
  5
73
330
1F
100
AcDbEntity
  8
0
100
AcDbLine
 10
29.73311229920212
 20
-14.12116092325797
 30
0.0
 11
29.73311229920212
 21
18.33975038549181
 31
0.0
  0
LINE
  5
74
330
1F
100
AcDbEntity
  8
0
100
AcDbLine
 10
84.7331078992026
 20
-14.12116092325797
 30
0.0
 11
29.73311229920212
 21
-14.12116092325797
 31
0.0
  0
LINE
  5
75
330
1F
100
AcDbEntity
  8
0
100
AcDbLine
 10
84.7331078992026
 20
65.77883268474126
 30
0.0
 11
84.7331078992026
 21
-14.12116092325797
 31
0.0
  0
LINE
  5
76
330
1F
100
AcDbEntity
  8
0
100
AcDbLine
 10
29.73311229920212
 20
65.77883268474126
 30
0.0
 11
84.7331078992026
 21
65.77883268474126
 31
0.0
  0
LINE
  5
77
330
1F
100
AcDbEntity
  8
0
100
AcDbLine
 10
29.73311229920212
 20
33.3179213759922
 30
0.0
 11
29.73311229920212
 21
65.77883268474126
 31
0.0
  0
LINE
  5
78
330
1F
100
AcDbEntity
  8
0
100
AcDbLine
 10
26.7331125392017
 20
30.31792161599219
 30
0.0
 11
29.73311229920212
 21
33.3179213759922
 31
0.0
  0
LINE
  5
79
330
1F
100
AcDbEntity
  8
0
100
AcDbLine
 10
26.7331125392017
 20
30.31792161599219
 30
0.0
 11
26.7331125392017
 21
21.33975014549187
 31
0.0
  0
LINE
  5
7A
330
1F
100
AcDbEntity
  8
0
100
AcDbLine
 10
26.7331125392017
 20
21.33975014549187
 30
0.0
 11
29.73311229920212
 21
18.33975038549181
 31
0.0
  0
LINE
  5
7B
330
1F
100
AcDbEntity
  8
0
100
AcDbLine
 10
67.85057034062567
 20
0.8288480318833413
 30
0.0
 11
56.85057621673949
 21
0.828848031883612
 31
0.0
  0
LINE
  5
7C
330
1F
100
AcDbEntity
  8
0
100
AcDbLine
 10
56.85057621673949
 20
0.828848031883612
 30
0.0
 11
56.85057621673913
 21
50.82882372960103
 31
0.0
  0
LINE
  5
7D
330
1F
100
AcDbEntity
  8
0
100
AcDbLine
 10
56.85057621673913
 20
50.82882372960103
 30
0.0
 11
67.85057034062513
 21
50.82882372960103
 31
0.0
  0
LINE
  5
7E
330
1F
100
AcDbEntity
  8
0
100
AcDbLine
 10
67.85057034062513
 20
50.82882372960103
 30
0.0
 11
67.85057034062567
 21
0.8288480318833413
 31
0.0
  0
LINE
  5
7F
330
1F
100
AcDbEntity
  8
0
100
AcDbLine
 10
41.69340723016336
 20
26.88999388076984
 30
0.0
 11
41.28381553066159
 21
27.87883571674209
 31
0.0
  0
LINE
  5
80
330
1F
100
AcDbEntity
  8
0
100
AcDbLine
 10
41.83311133120179
 20
25.82883588074218
 30
0.0
 11
41.69340723016336
 21
26.88999388076984
 31
0.0
  0
LINE
  5
81
330
1F
100
AcDbEntity
  8
0
100
AcDbLine
 10
41.69340723016336
 20
24.76767788071453
 30
0.0
 11
41.83311133120179
 21
25.82883588074218
 31
0.0
  0
LINE
  5
82
330
1F
100
AcDbEntity
  8
0
100
AcDbLine
 10
41.28381553066159
 20
23.77883604474214
 30
0.0
 11
41.69340723016336
 21
24.76767788071453
 31
0.0
  0
LINE
  5
83
330
1F
100
AcDbEntity
  8
0
100
AcDbLine
 10
40.63224923013571
 20
22.92969830980833
 30
0.0
 11
41.28381553066159
 21
23.77883604474214
 31
0.0
  0
LINE
  5
84
330
1F
100
AcDbEntity
  8
0
100
AcDbLine
 10
39.78311149520171
 20
22.27813200928226
 30
0.0
 11
40.63224923013571
 21
22.92969830980833
 31
0.0
  0
LINE
  5
85
330
1F
100
AcDbEntity
  8
0
100
AcDbLine
 10
38.79426965922946
 20
21.86854030978067
 30
0.0
 11
39.78311149520171
 21
22.27813200928226
 31
0.0
  0
LINE
  5
86
330
1F
100
AcDbEntity
  8
0
100
AcDbLine
 10
37.7331116592018
 20
21.72883620874214
 30
0.0
 11
38.79426965922946
 21
21.86854030978067
 31
0.0
  0
LINE
  5
87
330
1F
100
AcDbEntity
  8
0
100
AcDbLine
 10
36.67195365917414
 20
21.86854030978067
 30
0.0
 11
37.7331116592018
 21
21.72883620874214
 31
0.0
  0
LINE
  5
88
330
1F
100
AcDbEntity
  8
0
100
AcDbLine
 10
35.68311182320188
 20
22.27813200928226
 30
0.0
 11
36.67195365917414
 21
21.86854030978067
 31
0.0
  0
LINE
  5
89
330
1F
100
AcDbEntity
  8
0
100
AcDbLine
 10
34.83397408826789
 20
22.92969830980833
 30
0.0
 11
35.68311182320188
 21
22.27813200928226
 31
0.0
  0
LINE
  5
8A
330
1F
100
AcDbEntity
  8
0
100
AcDbLine
 10
34.18240778774201
 20
23.77883604474214
 30
0.0
 11
34.83397408826789
 21
22.92969830980833
 31
0.0
  0
LINE
  5
8B
330
1F
100
AcDbEntity
  8
0
100
AcDbLine
 10
33.6331119872018
 20
25.82883588074218
 30
0.0
 11
33.77281608824023
 21
24.76767788071453
 31
0.0
  0
LINE
  5
8C
330
1F
100
AcDbEntity
  8
0
100
AcDbLine
 10
33.77281608824023
 20
26.88999388076984
 30
0.0
 11
33.6331119872018
 21
25.82883588074218
 31
0.0
  0
LINE
  5
8D
330
1F
100
AcDbEntity
  8
0
100
AcDbLine
 10
34.18240778774201
 20
27.87883571674209
 30
0.0
 11
33.77281608824023
 21
26.88999388076984
 31
0.0
  0
LINE
  5
8E
330
1F
100
AcDbEntity
  8
0
100
AcDbLine
 10
34.83397408826789
 20
28.72797345167591
 30
0.0
 11
34.18240778774201
 21
27.87883571674209
 31
0.0
  0
LINE
  5
8F
330
1F
100
AcDbEntity
  8
0
100
AcDbLine
 10
35.68311182320188
 20
29.37953975220193
 30
0.0
 11
34.83397408826789
 21
28.72797345167591
 31
0.0
  0
LINE
  5
90
330
1F
100
AcDbEntity
  8
0
100
AcDbLine
 10
36.67195365917414
 20
29.78913145170353
 30
0.0
 11
35.68311182320188
 21
29.37953975220193
 31
0.0
  0
LINE
  5
91
330
1F
100
AcDbEntity
  8
0
100
AcDbLine
 10
37.7331116592018
 20
29.92883555274214
 30
0.0
 11
36.67195365917414
 21
29.78913145170353
 31
0.0
  0
LINE
  5
92
330
1F
100
AcDbEntity
  8
0
100
AcDbLine
 10
38.79426965922946
 20
29.78913145170353
 30
0.0
 11
37.7331116592018
 21
29.92883555274214
 31
0.0
  0
LINE
  5
93
330
1F
100
AcDbEntity
  8
0
100
AcDbLine
 10
39.78311149520171
 20
29.37953975220193
 30
0.0
 11
38.79426965922946
 21
29.78913145170353
 31
0.0
  0
LINE
  5
94
330
1F
100
AcDbEntity
  8
0
100
AcDbLine
 10
40.63224923013571
 20
28.72797345167591
 30
0.0
 11
39.78311149520171
 21
29.37953975220193
 31
0.0
  0
LINE
  5
95
330
1F
100
AcDbEntity
  8
0
100
AcDbLine
 10
41.28381553066159
 20
27.87883571674209
 30
0.0
 11
40.63224923013571
 21
28.72797345167591
 31
0.0
  0
LINE
  5
96
330
1F
100
AcDbEntity
  8
0
100
AcDbLine
 10
79.93310828320257
 20
-7.32116146725771
 30
0.0
 11
79.93310828320257
 21
-0.7211619952576794
 31
0.0
  0
LINE
  5
97
330
1F
100
AcDbEntity
  8
0
100
AcDbLine
 10
72.93310884320232
 20
-7.32116146725771
 30
0.0
 11
79.93310828320257
 21
-7.32116146725771
 31
0.0
  0
LINE
  5
98
330
1F
100
AcDbEntity
  8
0
100
AcDbLine
 10
72.93310884320232
 20
-0.7211619952576794
 30
0.0
 11
72.93310884320232
 21
-7.32116146725771
 31
0.0
  0
LINE
  5
99
330
1F
100
AcDbEntity
  8
0
100
AcDbLine
 10
79.93310828320257
 20
-0.7211619952576794
 30
0.0
 11
72.93310884320232
 21
-0.7211619952576794
 31
0.0
  0
LINE
  5
9A
330
1F
100
AcDbEntity
  8
0
100
AcDbLine
 10
37.7331116592027
 20
-0.7211619952579953
 30
0.0
 11
37.7331116592027
 21
-7.521161451258028
 31
0.0
  0
LINE
  5
9B
330
1F
100
AcDbEntity
  8
0
100
AcDbLine
 10
53.04538585821511
 20
-0.7211619952579953
 30
0.0
 11
37.7331116592027
 21
-0.7211619952579953
 31
0.0
  0
LINE
  5
9C
330
1F
100
AcDbEntity
  8
0
100
AcDbLine
 10
53.04538585821511
 20
-7.521161451258028
 30
0.0
 11
53.04538585821511
 21
-0.7211619952579953
 31
0.0
  0
LINE
  5
9D
330
1F
100
AcDbEntity
  8
0
100
AcDbLine
 10
37.7331116592027
 20
-7.521161451258028
 30
0.0
 11
53.04538585821511
 21
-7.521161451258028
 31
0.0
  0
LINE
  5
9E
330
1F
100
AcDbEntity
  8
0
100
AcDbLine
 10
37.73311165920216
 20
52.37883375674215
 30
0.0
 11
37.73311165920216
 21
59.17883321274217
 31
0.0
  0
LINE
  5
9F
330
1F
100
AcDbEntity
  8
0
100
AcDbLine
 10
37.73311165920216
 20
59.17883321274217
 30
0.0
 11
53.04538585821438
 21
59.17883321274217
 31
0.0
  0
LINE
  5
A0
330
1F
100
AcDbEntity
  8
0
100
AcDbLine
 10
53.04538585821438
 20
59.17883321274217
 30
0.0
 11
53.04538585821438
 21
52.37883375674215
 31
0.0
  0
LINE
  5
A1
330
1F
100
AcDbEntity
  8
0
100
AcDbLine
 10
53.04538585821438
 20
52.37883375674215
 30
0.0
 11
37.73311165920216
 21
52.37883375674215
 31
0.0
  0
LINE
  5
A2
330
1F
100
AcDbEntity
  8
0
100
AcDbLine
 10
79.93310828320257
 20
52.3788337567425
 30
0.0
 11
72.93310884320232
 21
52.3788337567425
 31
0.0
  0
LINE
  5
A3
330
1F
100
AcDbEntity
  8
0
100
AcDbLine
 10
72.93310884320232
 20
52.3788337567425
 30
0.0
 11
72.93310884320232
 21
59.17883321274253
 31
0.0
  0
LINE
  5
A4
330
1F
100
AcDbEntity
  8
0
100
AcDbLine
 10
72.93310884320232
 20
59.17883321274253
 30
0.0
 11
79.93310828320257
 21
59.17883321274253
 31
0.0
  0
LINE
  5
A5
330
1F
100
AcDbEntity
  8
0
100
AcDbLine
 10
79.93310828320257
 20
59.17883321274253
 30
0.0
 11
79.93310828320257
 21
52.3788337567425
 31
0.0
  0
LINE
  5
A6
330
1F
100
AcDbEntity
  8
0
100
AcDbLine
 10
78.19648263882404
 20
4.266270911146917
 30
0.0
 11
78.0062163149638
 21
3.836620662312566
 31
0.0
  0
LINE
  5
A7
330
1F
100
AcDbEntity
  8
0
100
AcDbLine
 10
78.49146746204518
 20
4.632036634510897
 30
0.0
 11
78.19648263882404
 21
4.266270911146917
 31
0.0
  0
LINE
  5
A8
330
1F
100
AcDbEntity
  8
0
100
AcDbLine
 10
78.87106805641
 20
4.908991502813626
 30
0.0
 11
78.49146746204518
 21
4.632036634510897
 31
0.0
  0
LINE
  5
A9
330
1F
100
AcDbEntity
  8
0
100
AcDbLine
 10
79.30941526873224
 20
5.078261499469873
 30
0.0
 11
78.87106805641
 21
4.908991502813626
 31
0.0
  0
LINE
  5
AA
330
1F
100
AcDbEntity
  8
0
100
AcDbLine
 10
79.77663646089525
 20
5.128311153939404
 30
0.0
 11
79.30941526873224
 21
5.078261499469873
 31
0.0
  0
LINE
  5
AB
330
1F
100
AcDbEntity
  8
0
100
AcDbLine
 10
80.24089128077263
 20
5.055729664981063
 30
0.0
 11
79.77663646089525
 21
5.128311153939404
 31
0.0
  0
LINE
  5
AC
330
1F
100
AcDbEntity
  8
0
100
AcDbLine
 10
80.67054152960694
 20
4.865463341120776
 30
0.0
 11
80.24089128077263
 21
5.055729664981063
 31
0.0
  0
LINE
  5
AD
330
1F
100
AcDbEntity
  8
0
100
AcDbLine
 10
81.03630725297106
 20
4.570478517899726
 30
0.0
 11
80.67054152960694
 21
4.865463341120776
 31
0.0
  0
LINE
  5
AE
330
1F
100
AcDbEntity
  8
0
100
AcDbLine
 10
81.31326212127384
 20
4.19087792353486
 30
0.0
 11
81.03630725297106
 21
4.570478517899726
 31
0.0
  0
LINE
  5
AF
330
1F
100
AcDbEntity
  8
0
100
AcDbLine
 10
81.48253211792989
 20
3.752530711212537
 30
0.0
 11
81.31326212127384
 21
4.19087792353486
 31
0.0
  0
LINE
  5
B0
330
1F
100
AcDbEntity
  8
0
100
AcDbLine
 10
81.53258177239938
 20
3.285309519049524
 30
0.0
 11
81.48253211792989
 21
3.752530711212537
 31
0.0
  0
LINE
  5
B1
330
1F
100
AcDbEntity
  8
0
100
AcDbLine
 10
81.46000028344108
 20
2.821054699172181
 30
0.0
 11
81.53258177239938
 21
3.285309519049524
 31
0.0
  0
LINE
  5
B2
330
1F
100
AcDbEntity
  8
0
100
AcDbLine
 10
81.26973395958085
 20
2.391404450337829
 30
0.0
 11
81.46000028344108
 21
2.821054699172181
 31
0.0
  0
LINE
  5
B3
330
1F
100
AcDbEntity
  8
0
100
AcDbLine
 10
80.9747491363597
 20
2.025638726973849
 30
0.0
 11
81.26973395958085
 21
2.391404450337829
 31
0.0
  0
LINE
  5
B4
330
1F
100
AcDbEntity
  8
0
100
AcDbLine
 10
80.59514854199489
 20
1.748683858671121
 30
0.0
 11
80.9747491363597
 21
2.025638726973849
 31
0.0
  0
LINE
  5
B5
330
1F
100
AcDbEntity
  8
0
100
AcDbLine
 10
80.15680132967265
 20
1.579413862014873
 30
0.0
 11
80.59514854199489
 21
1.748683858671121
 31
0.0
  0
LINE
  5
B6
330
1F
100
AcDbEntity
  8
0
100
AcDbLine
 10
79.68958013750964
 20
1.529364207545342
 30
0.0
 11
80.15680132967265
 21
1.579413862014873
 31
0.0
  0
LINE
  5
B7
330
1F
100
AcDbEntity
  8
0
100
AcDbLine
 10
79.22532531763224
 20
1.601945696503684
 30
0.0
 11
79.68958013750964
 21
1.529364207545342
 31
0.0
  0
LINE
  5
B8
330
1F
100
AcDbEntity
  8
0
100
AcDbLine
 10
78.79567506879793
 20
1.79221202036397
 30
0.0
 11
79.22532531763224
 21
1.601945696503684
 31
0.0
  0
LINE
  5
B9
330
1F
100
AcDbEntity
  8
0
100
AcDbLine
 10
78.42990934543383
 20
2.087196843585021
 30
0.0
 11
78.79567506879793
 21
1.79221202036397
 31
0.0
  0
LINE
  5
BA
330
1F
100
AcDbEntity
  8
0
100
AcDbLine
 10
78.15295447713106
 20
2.466797437949887
 30
0.0
 11
78.42990934543383
 21
2.087196843585021
 31
0.0
  0
LINE
  5
BB
330
1F
100
AcDbEntity
  8
0
100
AcDbLine
 10
77.98368448047498
 20
2.905144650272209
 30
0.0
 11
78.15295447713106
 21
2.466797437949887
 31
0.0
  0
LINE
  5
BC
330
1F
100
AcDbEntity
  8
0
100
AcDbLine
 10
77.9336348260055
 20
3.372365842435222
 30
0.0
 11
77.98368448047498
 21
2.905144650272209
 31
0.0
  0
LINE
  5
BD
330
1F
100
AcDbEntity
  8
0
100
AcDbLine
 10
78.0062163149638
 20
3.836620662312566
 30
0.0
 11
77.9336348260055
 21
3.372365842435222
 31
0.0
  0
LINE
  5
BE
330
1F
100
AcDbEntity
  8
0
100
AcDbLine
 10
35.93311180320219
 20
9.378837196740855
 30
0.0
 11
35.99444531097532
 21
8.912962952826234
 31
0.0
  0
LINE
  5
BF
330
1F
100
AcDbEntity
  8
0
100
AcDbLine
 10
35.99444531097532
 20
9.844711440655477
 30
0.0
 11
35.93311180320219
 21
9.378837196740855
 31
0.0
  0
LINE
  5
C0
330
1F
100
AcDbEntity
  8
0
100
AcDbLine
 10
36.17426605709776
 20
10.27883712474088
 30
0.0
 11
35.99444531097532
 21
9.844711440655477
 31
0.0
  0
LINE
  5
C1
330
1F
100
AcDbEntity
  8
0
100
AcDbLine
 10
36.46031955488976
 20
10.65162930105329
 30
0.0
 11
36.17426605709776
 21
10.27883712474088
 31
0.0
  0
LINE
  5
C2
330
1F
100
AcDbEntity
  8
0
100
AcDbLine
 10
36.83311173120236
 20
10.93768279884525
 30
0.0
 11
36.46031955488976
 21
10.65162930105329
 31
0.0
  0
LINE
  5
C3
330
1F
100
AcDbEntity
  8
0
100
AcDbLine
 10
37.26723741528772
 20
11.11750354496792
 30
0.0
 11
36.83311173120236
 21
10.93768279884525
 31
0.0
  0
LINE
  5
C4
330
1F
100
AcDbEntity
  8
0
100
AcDbLine
 10
37.73311165920216
 20
11.17883705274091
 30
0.0
 11
37.26723741528772
 21
11.11750354496792
 31
0.0
  0
LINE
  5
C5
330
1F
100
AcDbEntity
  8
0
100
AcDbLine
 10
38.19898590311696
 20
11.11750354496792
 30
0.0
 11
37.73311165920216
 21
11.17883705274091
 31
0.0
  0
LINE
  5
C6
330
1F
100
AcDbEntity
  8
0
100
AcDbLine
 10
38.63311158720232
 20
10.93768279884525
 30
0.0
 11
38.19898590311696
 21
11.11750354496792
 31
0.0
  0
LINE
  5
C7
330
1F
100
AcDbEntity
  8
0
100
AcDbLine
 10
39.00590376351473
 20
10.65162930105329
 30
0.0
 11
38.63311158720232
 21
10.93768279884525
 31
0.0
  0
LINE
  5
C8
330
1F
100
AcDbEntity
  8
0
100
AcDbLine
 10
39.29195726130655
 20
10.27883712474088
 30
0.0
 11
39.00590376351473
 21
10.65162930105329
 31
0.0
  0
LINE
  5
C9
330
1F
100
AcDbEntity
  8
0
100
AcDbLine
 10
39.47177800742935
 20
9.844711440655477
 30
0.0
 11
39.29195726130655
 21
10.27883712474088
 31
0.0
  0
LINE
  5
CA
330
1F
100
AcDbEntity
  8
0
100
AcDbLine
 10
39.5331115152023
 20
9.378837196740855
 30
0.0
 11
39.47177800742935
 21
9.844711440655477
 31
0.0
  0
LINE
  5
CB
330
1F
100
AcDbEntity
  8
0
100
AcDbLine
 10
39.47177800742935
 20
8.912962952826234
 30
0.0
 11
39.5331115152023
 21
9.378837196740855
 31
0.0
  0
LINE
  5
CC
330
1F
100
AcDbEntity
  8
0
100
AcDbLine
 10
39.29195726130655
 20
8.478837268740829
 30
0.0
 11
39.47177800742935
 21
8.912962952826234
 31
0.0
  0
LINE
  5
CD
330
1F
100
AcDbEntity
  8
0
100
AcDbLine
 10
39.00590376351473
 20
8.106045092428417
 30
0.0
 11
39.29195726130655
 21
8.478837268740829
 31
0.0
  0
LINE
  5
CE
330
1F
100
AcDbEntity
  8
0
100
AcDbLine
 10
38.63311158720232
 20
7.819991594636461
 30
0.0
 11
39.00590376351473
 21
8.106045092428417
 31
0.0
  0
LINE
  5
CF
330
1F
100
AcDbEntity
  8
0
100
AcDbLine
 10
38.19898590311696
 20
7.640170848513796
 30
0.0
 11
38.63311158720232
 21
7.819991594636461
 31
0.0
  0
LINE
  5
D0
330
1F
100
AcDbEntity
  8
0
100
AcDbLine
 10
37.73311165920216
 20
7.578837340740803
 30
0.0
 11
38.19898590311696
 21
7.640170848513796
 31
0.0
  0
LINE
  5
D1
330
1F
100
AcDbEntity
  8
0
100
AcDbLine
 10
37.26723741528772
 20
7.640170848513796
 30
0.0
 11
37.73311165920216
 21
7.578837340740803
 31
0.0
  0
LINE
  5
D2
330
1F
100
AcDbEntity
  8
0
100
AcDbLine
 10
36.83311173120217
 20
7.819991594636461
 30
0.0
 11
37.26723741528772
 21
7.640170848513796
 31
0.0
  0
LINE
  5
D3
330
1F
100
AcDbEntity
  8
0
100
AcDbLine
 10
36.46031955488976
 20
8.106045092428417
 30
0.0
 11
36.83311173120217
 21
7.819991594636461
 31
0.0
  0
LINE
  5
D4
330
1F
100
AcDbEntity
  8
0
100
AcDbLine
 10
36.17426605709776
 20
8.478837268740829
 30
0.0
 11
36.46031955488976
 21
8.106045092428417
 31
0.0
  0
LINE
  5
D5
330
1F
100
AcDbEntity
  8
0
100
AcDbLine
 10
35.99444531097532
 20
8.912962952826234
 30
0.0
 11
36.17426605709776
 21
8.478837268740829
 31
0.0
  0
LINE
  5
D6
330
1F
100
AcDbEntity
  8
0
100
AcDbLine
 10
39.29195726130619
 20
41.37883463674213
 30
0.0
 11
39.47177800742881
 21
41.81296032082759
 31
0.0
  0
LINE
  5
D7
330
1F
100
AcDbEntity
  8
0
100
AcDbLine
 10
39.00590376351419
 20
41.00604246042972
 30
0.0
 11
39.29195726130619
 21
41.37883463674213
 31
0.0
  0
LINE
  5
D8
330
1F
100
AcDbEntity
  8
0
100
AcDbLine
 10
38.63311158720177
 20
40.71998896263781
 30
0.0
 11
39.00590376351419
 21
41.00604246042972
 31
0.0
  0
LINE
  5
D9
330
1F
100
AcDbEntity
  8
0
100
AcDbLine
 10
38.19898590311642
 20
40.54016821651519
 30
0.0
 11
38.63311158720177
 21
40.71998896263781
 31
0.0
  0
LINE
  5
DA
330
1F
100
AcDbEntity
  8
0
100
AcDbLine
 10
37.7331116592018
 20
40.47883470874215
 30
0.0
 11
38.19898590311642
 21
40.54016821651519
 31
0.0
  0
LINE
  5
DB
330
1F
100
AcDbEntity
  8
0
100
AcDbLine
 10
37.26723741528718
 20
40.54016821651519
 30
0.0
 11
37.7331116592018
 21
40.47883470874215
 31
0.0
  0
LINE
  5
DC
330
1F
100
AcDbEntity
  8
0
100
AcDbLine
 10
36.83311173120163
 20
40.71998896263781
 30
0.0
 11
37.26723741528718
 21
40.54016821651519
 31
0.0
  0
LINE
  5
DD
330
1F
100
AcDbEntity
  8
0
100
AcDbLine
 10
36.4603195548894
 20
41.00604246042972
 30
0.0
 11
36.83311173120163
 21
40.71998896263781
 31
0.0
  0
LINE
  5
DE
330
1F
100
AcDbEntity
  8
0
100
AcDbLine
 10
36.1742660570974
 20
41.37883463674223
 30
0.0
 11
36.4603195548894
 21
41.00604246042972
 31
0.0
  0
LINE
  5
DF
330
1F
100
AcDbEntity
  8
0
100
AcDbLine
 10
35.99444531097478
 20
41.81296032082759
 30
0.0
 11
36.1742660570974
 21
41.37883463674223
 31
0.0
  0
LINE
  5
E0
330
1F
100
AcDbEntity
  8
0
100
AcDbLine
 10
35.93311180320183
 20
42.2788345647422
 30
0.0
 11
35.99444531097478
 21
41.81296032082759
 31
0.0
  0
LINE
  5
E1
330
1F
100
AcDbEntity
  8
0
100
AcDbLine
 10
35.99444531097478
 20
42.74470880865682
 30
0.0
 11
35.93311180320183
 21
42.2788345647422
 31
0.0
  0
LINE
  5
E2
330
1F
100
AcDbEntity
  8
0
100
AcDbLine
 10
36.1742660570974
 20
43.17883449274228
 30
0.0
 11
35.99444531097478
 21
42.74470880865682
 31
0.0
  0
LINE
  5
E3
330
1F
100
AcDbEntity
  8
0
100
AcDbLine
 10
36.4603195548894
 20
43.55162666905468
 30
0.0
 11
36.1742660570974
 21
43.17883449274228
 31
0.0
  0
LINE
  5
E4
330
1F
100
AcDbEntity
  8
0
100
AcDbLine
 10
36.83311173120181
 20
43.8376801668466
 30
0.0
 11
36.4603195548894
 21
43.55162666905468
 31
0.0
  0
LINE
  5
E5
330
1F
100
AcDbEntity
  8
0
100
AcDbLine
 10
37.26723741528718
 20
44.01750091296923
 30
0.0
 11
36.83311173120181
 21
43.8376801668466
 31
0.0
  0
LINE
  5
E6
330
1F
100
AcDbEntity
  8
0
100
AcDbLine
 10
37.7331116592018
 20
44.07883442074225
 30
0.0
 11
37.26723741528718
 21
44.01750091296923
 31
0.0
  0
LINE
  5
E7
330
1F
100
AcDbEntity
  8
0
100
AcDbLine
 10
38.19898590311642
 20
44.01750091296923
 30
0.0
 11
37.7331116592018
 21
44.07883442074225
 31
0.0
  0
LINE
  5
E8
330
1F
100
AcDbEntity
  8
0
100
AcDbLine
 10
38.63311158720196
 20
43.8376801668466
 30
0.0
 11
38.19898590311642
 21
44.01750091296923
 31
0.0
  0
LINE
  5
E9
330
1F
100
AcDbEntity
  8
0
100
AcDbLine
 10
39.00590376351419
 20
43.55162666905468
 30
0.0
 11
38.63311158720196
 21
43.8376801668466
 31
0.0
  0
LINE
  5
EA
330
1F
100
AcDbEntity
  8
0
100
AcDbLine
 10
39.29195726130619
 20
43.17883449274219
 30
0.0
 11
39.00590376351419
 21
43.55162666905468
 31
0.0
  0
LINE
  5
EB
330
1F
100
AcDbEntity
  8
0
100
AcDbLine
 10
39.47177800742881
 20
42.74470880865682
 30
0.0
 11
39.29195726130619
 21
43.17883449274219
 31
0.0
  0
LINE
  5
EC
330
1F
100
AcDbEntity
  8
0
100
AcDbLine
 10
39.53311151520176
 20
42.2788345647422
 30
0.0
 11
39.47177800742881
 21
42.74470880865682
 31
0.0
  0
LINE
  5
ED
330
1F
100
AcDbEntity
  8
0
100
AcDbLine
 10
39.47177800742881
 20
41.81296032082759
 30
0.0
 11
39.53311151520176
 21
42.2788345647422
 31
0.0
  0
LINE
  5
EE
330
1F
100
AcDbEntity
  8
0
100
AcDbLine
 10
78.8686123852914
 20
49.90764575299192
 30
0.0
 11
78.4894428398261
 21
49.63010104288131
 31
0.0
  0
LINE
  5
EF
330
1F
100
AcDbEntity
  8
0
100
AcDbLine
 10
79.30669589864264
 20
50.07759705674832
 30
0.0
 11
78.8686123852914
 21
49.90764575299192
 31
0.0
  0
LINE
  5
F0
330
1F
100
AcDbEntity
  8
0
100
AcDbLine
 10
79.7738387124123
 20
50.12837305365745
 30
0.0
 11
79.30669589864264
 21
50.07759705674832
 31
0.0
  0
LINE
  5
F1
330
1F
100
AcDbEntity
  8
0
100
AcDbLine
 10
80.23820581583183
 20
50.05651344344118
 30
0.0
 11
79.7738387124123
 21
50.12837305365745
 31
0.0
  0
LINE
  5
F2
330
1F
100
AcDbEntity
  8
0
100
AcDbLine
 10
80.66815135820627
 20
49.86691533978206
 30
0.0
 11
80.23820581583183
 21
50.05651344344118
 31
0.0
  0
LINE
  5
F3
330
1F
100
AcDbEntity
  8
0
100
AcDbLine
 10
81.03437526134125
 20
49.57249954011893
 30
0.0
 11
80.66815135820627
 21
49.86691533978206
 31
0.0
  0
LINE
  5
F4
330
1F
100
AcDbEntity
  8
0
100
AcDbLine
 10
81.31191997145187
 20
49.19332999465362
 30
0.0
 11
81.03437526134125
 21
49.57249954011893
 31
0.0
  0
LINE
  5
F5
330
1F
100
AcDbEntity
  8
0
100
AcDbLine
 10
81.48187127520836
 20
48.75524648130228
 30
0.0
 11
81.31191997145187
 21
49.19332999465362
 31
0.0
  0
LINE
  5
F6
330
1F
100
AcDbEntity
  8
0
100
AcDbLine
 10
81.53264727211749
 20
48.28810366753264
 30
0.0
 11
81.48187127520836
 21
48.75524648130228
 31
0.0
  0
LINE
  5
F7
330
1F
100
AcDbEntity
  8
0
100
AcDbLine
 10
81.46078766190105
 20
47.82373656411301
 30
0.0
 11
81.53264727211749
 21
48.28810366753264
 31
0.0
  0
LINE
  5
F8
330
1F
100
AcDbEntity
  8
0
100
AcDbLine
 10
81.27118955824201
 20
47.39379102173866
 30
0.0
 11
81.46078766190105
 21
47.82373656411301
 31
0.0
  0
LINE
  5
F9
330
1F
100
AcDbEntity
  8
0
100
AcDbLine
 10
80.97677375857879
 20
47.02756711860368
 30
0.0
 11
81.27118955824201
 21
47.39379102173866
 31
0.0
  0
LINE
  5
FA
330
1F
100
AcDbEntity
  8
0
100
AcDbLine
 10
80.59760421311348
 20
46.75002240849307
 30
0.0
 11
80.97677375857879
 21
47.02756711860368
 31
0.0
  0
LINE
  5
FB
330
1F
100
AcDbEntity
  8
0
100
AcDbLine
 10
80.15952069976223
 20
46.58007110473666
 30
0.0
 11
80.59760421311348
 21
46.75002240849307
 31
0.0
  0
LINE
  5
FC
330
1F
100
AcDbEntity
  8
0
100
AcDbLine
 10
79.69237788599258
 20
46.52929510782754
 30
0.0
 11
80.15952069976223
 21
46.58007110473666
 31
0.0
  0
LINE
  5
FD
330
1F
100
AcDbEntity
  8
0
100
AcDbLine
 10
79.22801078257304
 20
46.60115471804379
 30
0.0
 11
79.69237788599258
 21
46.52929510782754
 31
0.0
  0
LINE
  5
FE
330
1F
100
AcDbEntity
  8
0
100
AcDbLine
 10
78.79806524019861
 20
46.79075282170292
 30
0.0
 11
79.22801078257304
 21
46.60115471804379
 31
0.0
  0
LINE
  5
FF
330
1F
100
AcDbEntity
  8
0
100
AcDbLine
 10
78.43184133706363
 20
47.08516862136606
 30
0.0
 11
78.79806524019861
 21
46.79075282170292
 31
0.0
  0
LINE
  5
100
330
1F
100
AcDbEntity
  8
0
100
AcDbLine
 10
78.15429662695303
 20
47.46433816683136
 30
0.0
 11
78.43184133706363
 21
47.08516862136606
 31
0.0
  0
LINE
  5
101
330
1F
100
AcDbEntity
  8
0
100
AcDbLine
 10
77.98434532319651
 20
47.90242168018271
 30
0.0
 11
78.15429662695303
 21
47.46433816683136
 31
0.0
  0
LINE
  5
102
330
1F
100
AcDbEntity
  8
0
100
AcDbLine
 10
77.9335693262874
 20
48.36956449395235
 30
0.0
 11
77.98434532319651
 21
47.90242168018271
 31
0.0
  0
LINE
  5
103
330
1F
100
AcDbEntity
  8
0
100
AcDbLine
 10
78.00542893650385
 20
48.83393159737198
 30
0.0
 11
77.9335693262874
 21
48.36956449395235
 31
0.0
  0
LINE
  5
104
330
1F
100
AcDbEntity
  8
0
100
AcDbLine
 10
78.19502704016287
 20
49.26387713974632
 30
0.0
 11
78.00542893650385
 21
48.83393159737198
 31
0.0
  0
LINE
  5
105
330
1F
100
AcDbEntity
  8
0
100
AcDbLine
 10
78.4894428398261
 20
49.63010104288131
 30
0.0
 11
78.19502704016287
 21
49.26387713974632
 31
0.0
  0
LINE
  5
106
330
1F
100
AcDbEntity
  8
0
100
AcDbLine
 10
74.39195445330674
 20
43.22883448874515
 30
0.0
 11
74.10590095551474
 21
43.60162666505757
 31
0.0
  0
LINE
  5
107
330
1F
100
AcDbEntity
  8
0
100
AcDbLine
 10
74.57177519942935
 20
42.7947088046598
 30
0.0
 11
74.39195445330674
 21
43.22883448874515
 31
0.0
  0
LINE
  5
108
330
1F
100
AcDbEntity
  8
0
100
AcDbLine
 10
74.63310870720231
 20
42.32883456074517
 30
0.0
 11
74.57177519942935
 21
42.7947088046598
 31
0.0
  0
LINE
  5
109
330
1F
100
AcDbEntity
  8
0
100
AcDbLine
 10
74.57177519942935
 20
41.86296031683055
 30
0.0
 11
74.63310870720231
 21
42.32883456074517
 31
0.0
  0
LINE
  5
10A
330
1F
100
AcDbEntity
  8
0
100
AcDbLine
 10
74.39195445330657
 20
41.42883463274519
 30
0.0
 11
74.57177519942935
 21
41.86296031683055
 31
0.0
  0
LINE
  5
10B
330
1F
100
AcDbEntity
  8
0
100
AcDbLine
 10
74.10590095551474
 20
41.05604245643278
 30
0.0
 11
74.39195445330657
 21
41.42883463274519
 31
0.0
  0
LINE
  5
10C
330
1F
100
AcDbEntity
  8
0
100
AcDbLine
 10
73.73310877920233
 20
40.76998895864095
 30
0.0
 11
74.10590095551474
 21
41.05604245643278
 31
0.0
  0
LINE
  5
10D
330
1F
100
AcDbEntity
  8
0
100
AcDbLine
 10
73.29898309511678
 20
40.59016821251825
 30
0.0
 11
73.73310877920233
 21
40.76998895864095
 31
0.0
  0
LINE
  5
10E
330
1F
100
AcDbEntity
  8
0
100
AcDbLine
 10
72.83310885120217
 20
40.5288347047453
 30
0.0
 11
73.29898309511678
 21
40.59016821251825
 31
0.0
  0
LINE
  5
10F
330
1F
100
AcDbEntity
  8
0
100
AcDbLine
 10
72.36723460728773
 20
40.59016821251834
 30
0.0
 11
72.83310885120217
 21
40.5288347047453
 31
0.0
  0
LINE
  5
110
330
1F
100
AcDbEntity
  8
0
100
AcDbLine
 10
71.93310892320237
 20
40.76998895864104
 30
0.0
 11
72.36723460728773
 21
40.59016821251834
 31
0.0
  0
LINE
  5
111
330
1F
100
AcDbEntity
  8
0
100
AcDbLine
 10
71.56031674688994
 20
41.05604245643296
 30
0.0
 11
71.93310892320237
 21
40.76998895864104
 31
0.0
  0
LINE
  5
112
330
1F
100
AcDbEntity
  8
0
100
AcDbLine
 10
71.27426324909796
 20
41.42883463274537
 30
0.0
 11
71.56031674688994
 21
41.05604245643296
 31
0.0
  0
LINE
  5
113
330
1F
100
AcDbEntity
  8
0
100
AcDbLine
 10
71.09444250297533
 20
41.86296031683073
 30
0.0
 11
71.27426324909796
 21
41.42883463274537
 31
0.0
  0
LINE
  5
114
330
1F
100
AcDbEntity
  8
0
100
AcDbLine
 10
71.03310899520238
 20
42.32883456074535
 30
0.0
 11
71.09444250297533
 21
41.86296031683073
 31
0.0
  0
LINE
  5
115
330
1F
100
AcDbEntity
  8
0
100
AcDbLine
 10
71.09444250297533
 20
42.79470880465998
 30
0.0
 11
71.03310899520238
 21
42.32883456074535
 31
0.0
  0
LINE
  5
116
330
1F
100
AcDbEntity
  8
0
100
AcDbLine
 10
71.27426324909813
 20
43.22883448874533
 30
0.0
 11
71.09444250297533
 21
42.79470880465998
 31
0.0
  0
LINE
  5
117
330
1F
100
AcDbEntity
  8
0
100
AcDbLine
 10
71.56031674688994
 20
43.60162666505774
 30
0.0
 11
71.27426324909813
 21
43.22883448874533
 31
0.0
  0
LINE
  5
118
330
1F
100
AcDbEntity
  8
0
100
AcDbLine
 10
71.93310892320237
 20
43.88768016284957
 30
0.0
 11
71.56031674688994
 21
43.60162666505774
 31
0.0
  0
LINE
  5
119
330
1F
100
AcDbEntity
  8
0
100
AcDbLine
 10
72.36723460728791
 20
44.06750090897228
 30
0.0
 11
71.93310892320237
 21
43.88768016284957
 31
0.0
  0
LINE
  5
11A
330
1F
100
AcDbEntity
  8
0
100
AcDbLine
 10
72.83310885120252
 20
44.12883441674522
 30
0.0
 11
72.36723460728791
 21
44.06750090897228
 31
0.0
  0
LINE
  5
11B
330
1F
100
AcDbEntity
  8
0
100
AcDbLine
 10
73.29898309511697
 20
44.06750090897219
 30
0.0
 11
72.83310885120252
 21
44.12883441674522
 31
0.0
  0
LINE
  5
11C
330
1F
100
AcDbEntity
  8
0
100
AcDbLine
 10
73.73310877920233
 20
43.88768016284948
 30
0.0
 11
73.29898309511697
 21
44.06750090897219
 31
0.0
  0
LINE
  5
11D
330
1F
100
AcDbEntity
  8
0
100
AcDbLine
 10
74.10590095551474
 20
43.60162666505757
 30
0.0
 11
73.73310877920233
 21
43.88768016284948
 31
0.0
  0
LINE
  5
11E
330
1F
100
AcDbEntity
  8
0
100
AcDbLine
 10
71.93310892320254
 20
10.88768280285059
 30
0.0
 11
71.56031674689012
 21
10.60162930505868
 31
0.0
  0
LINE
  5
11F
330
1F
100
AcDbEntity
  8
0
100
AcDbLine
 10
72.36723460728791
 20
11.06750354897325
 30
0.0
 11
71.93310892320254
 21
10.88768280285059
 31
0.0
  0
LINE
  5
120
330
1F
100
AcDbEntity
  8
0
100
AcDbLine
 10
72.83310885120252
 20
11.12883705674625
 30
0.0
 11
72.36723460728791
 21
11.06750354897325
 31
0.0
  0
LINE
  5
121
330
1F
100
AcDbEntity
  8
0
100
AcDbLine
 10
73.29898309511715
 20
11.06750354897325
 30
0.0
 11
72.83310885120252
 21
11.12883705674625
 31
0.0
  0
LINE
  5
122
330
1F
100
AcDbEntity
  8
0
100
AcDbLine
 10
73.73310877920251
 20
10.88768280285054
 30
0.0
 11
73.29898309511715
 21
11.06750354897325
 31
0.0
  0
LINE
  5
123
330
1F
100
AcDbEntity
  8
0
100
AcDbLine
 10
74.10590095551491
 20
10.60162930505863
 30
0.0
 11
73.73310877920251
 21
10.88768280285054
 31
0.0
  0
LINE
  5
124
330
1F
100
AcDbEntity
  8
0
100
AcDbLine
 10
74.39195445330692
 20
10.22883712874622
 30
0.0
 11
74.10590095551491
 21
10.60162930505863
 31
0.0
  0
LINE
  5
125
330
1F
100
AcDbEntity
  8
0
100
AcDbLine
 10
74.57177519942954
 20
9.794711444660813
 30
0.0
 11
74.39195445330692
 21
10.22883712874622
 31
0.0
  0
LINE
  5
126
330
1F
100
AcDbEntity
  8
0
100
AcDbLine
 10
74.6331087072025
 20
9.328837200746237
 30
0.0
 11
74.57177519942954
 21
9.794711444660813
 31
0.0
  0
LINE
  5
127
330
1F
100
AcDbEntity
  8
0
100
AcDbLine
 10
74.57177519942954
 20
8.862962956831659
 30
0.0
 11
74.6331087072025
 21
9.328837200746237
 31
0.0
  0
LINE
  5
128
330
1F
100
AcDbEntity
  8
0
100
AcDbLine
 10
74.39195445330674
 20
8.428837272746254
 30
0.0
 11
74.57177519942954
 21
8.862962956831659
 31
0.0
  0
LINE
  5
129
330
1F
100
AcDbEntity
  8
0
100
AcDbLine
 10
74.10590095551491
 20
8.056045096433888
 30
0.0
 11
74.39195445330674
 21
8.428837272746254
 31
0.0
  0
LINE
  5
12A
330
1F
100
AcDbEntity
  8
0
100
AcDbLine
 10
73.73310877920251
 20
7.769991598641975
 30
0.0
 11
74.10590095551491
 21
8.056045096433888
 31
0.0
  0
LINE
  5
12B
330
1F
100
AcDbEntity
  8
0
100
AcDbLine
 10
73.29898309511715
 20
7.590170852519311
 30
0.0
 11
73.73310877920251
 21
7.769991598641975
 31
0.0
  0
LINE
  5
12C
330
1F
100
AcDbEntity
  8
0
100
AcDbLine
 10
72.83310885120252
 20
7.528837344746318
 30
0.0
 11
73.29898309511715
 21
7.590170852519311
 31
0.0
  0
LINE
  5
12D
330
1F
100
AcDbEntity
  8
0
100
AcDbLine
 10
72.36723460728791
 20
7.590170852519311
 30
0.0
 11
72.83310885120252
 21
7.528837344746318
 31
0.0
  0
LINE
  5
12E
330
1F
100
AcDbEntity
  8
0
100
AcDbLine
 10
71.93310892320254
 20
7.76999159864202
 30
0.0
 11
72.36723460728791
 21
7.590170852519311
 31
0.0
  0
LINE
  5
12F
330
1F
100
AcDbEntity
  8
0
100
AcDbLine
 10
71.56031674689012
 20
8.056045096433934
 30
0.0
 11
71.93310892320254
 21
7.76999159864202
 31
0.0
  0
LINE
  5
130
330
1F
100
AcDbEntity
  8
0
100
AcDbLine
 10
71.27426324909813
 20
8.428837272746344
 30
0.0
 11
71.56031674689012
 21
8.056045096433934
 31
0.0
  0
LINE
  5
131
330
1F
100
AcDbEntity
  8
0
100
AcDbLine
 10
71.09444250297551
 20
8.86296295683175
 30
0.0
 11
71.27426324909813
 21
8.428837272746344
 31
0.0
  0
LINE
  5
132
330
1F
100
AcDbEntity
  8
0
100
AcDbLine
 10
71.09444250297551
 20
9.794711444660903
 30
0.0
 11
71.03310899520257
 21
9.328837200746326
 31
0.0
  0
LINE
  5
133
330
1F
100
AcDbEntity
  8
0
100
AcDbLine
 10
71.27426324909831
 20
10.22883712874631
 30
0.0
 11
71.09444250297551
 21
9.794711444660903
 31
0.0
  0
LINE
  5
134
330
1F
100
AcDbEntity
  8
0
100
AcDbLine
 10
71.56031674689012
 20
10.60162930505868
 30
0.0
 11
71.27426324909831
 21
10.22883712874631
 31
0.0
  0
LINE
  5
135
330
1F
100
AcDbEntity
  8
0
100
AcDbLine
 10
-94.54972947214837
 20
-14.12116092325797
 30
0.0
 11
-94.54972947214837
 21
18.33975038549181
 31
0.0
  0
LINE
  5
136
330
1F
100
AcDbEntity
  8
0
100
AcDbLine
 10
-39.5497338721479
 20
-14.12116092325797
 30
0.0
 11
-94.54972947214837
 21
-14.12116092325797
 31
0.0
  0
LINE
  5
137
330
1F
100
AcDbEntity
  8
0
100
AcDbLine
 10
-39.5497338721479
 20
65.77883268474253
 30
0.0
 11
-39.5497338721479
 21
-14.12116092325797
 31
0.0
  0
LINE
  5
138
330
1F
100
AcDbEntity
  8
0
100
AcDbLine
 10
-94.54972947214837
 20
65.77883268474253
 30
0.0
 11
-39.5497338721479
 21
65.77883268474253
 31
0.0
  0
LINE
  5
139
330
1F
100
AcDbEntity
  8
0
100
AcDbLine
 10
-94.54972947214837
 20
33.3179213759922
 30
0.0
 11
-94.54972947214837
 21
65.77883268474253
 31
0.0
  0
LINE
  5
13A
330
1F
100
AcDbEntity
  8
0
100
AcDbLine
 10
-97.54972923214879
 20
30.31792161599219
 30
0.0
 11
-94.54972947214837
 21
33.3179213759922
 31
0.0
  0
LINE
  5
13B
330
1F
100
AcDbEntity
  8
0
100
AcDbLine
 10
-97.54972923214879
 20
30.31792161599219
 30
0.0
 11
-97.54972923214879
 21
21.33975014549187
 31
0.0
  0
LINE
  5
13C
330
1F
100
AcDbEntity
  8
0
100
AcDbLine
 10
-97.54972923214879
 20
21.33975014549187
 30
0.0
 11
-94.54972947214837
 21
18.33975038549181
 31
0.0
  0
LINE
  5
13D
330
1F
100
AcDbEntity
  8
0
100
AcDbLine
 10
-82.58943454118713
 20
26.88999388076984
 30
0.0
 11
-82.99902624068855
 21
27.87883571674209
 31
0.0
  0
LINE
  5
13E
330
1F
100
AcDbEntity
  8
0
100
AcDbLine
 10
-82.44973044014853
 20
25.82883588074218
 30
0.0
 11
-82.58943454118713
 21
26.88999388076984
 31
0.0
  0
LINE
  5
13F
330
1F
100
AcDbEntity
  8
0
100
AcDbLine
 10
-82.58943454118713
 20
24.76767788071453
 30
0.0
 11
-82.44973044014853
 21
25.82883588074218
 31
0.0
  0
LINE
  5
140
330
1F
100
AcDbEntity
  8
0
100
AcDbLine
 10
-82.99902624068855
 20
23.77883604474214
 30
0.0
 11
-82.58943454118713
 21
24.76767788071453
 31
0.0
  0
LINE
  5
141
330
1F
100
AcDbEntity
  8
0
100
AcDbLine
 10
-83.65059254121479
 20
22.92969830980833
 30
0.0
 11
-82.99902624068855
 21
23.77883604474214
 31
0.0
  0
LINE
  5
142
330
1F
100
AcDbEntity
  8
0
100
AcDbLine
 10
-84.49973027614843
 20
22.27813200928226
 30
0.0
 11
-83.65059254121479
 21
22.92969830980833
 31
0.0
  0
LINE
  5
143
330
1F
100
AcDbEntity
  8
0
100
AcDbLine
 10
-85.48857211212103
 20
21.86854030978067
 30
0.0
 11
-84.49973027614843
 21
22.27813200928226
 31
0.0
  0
LINE
  5
144
330
1F
100
AcDbEntity
  8
0
100
AcDbLine
 10
-86.54973011214871
 20
21.72883620874214
 30
0.0
 11
-85.48857211212103
 21
21.86854030978067
 31
0.0
  0
LINE
  5
145
330
1F
100
AcDbEntity
  8
0
100
AcDbLine
 10
-87.61088811217637
 20
21.86854030978067
 30
0.0
 11
-86.54973011214871
 21
21.72883620874214
 31
0.0
  0
LINE
  5
146
330
1F
100
AcDbEntity
  8
0
100
AcDbLine
 10
-88.5997299481486
 20
22.27813200928226
 30
0.0
 11
-87.61088811217637
 21
21.86854030978067
 31
0.0
  0
LINE
  5
147
330
1F
100
AcDbEntity
  8
0
100
AcDbLine
 10
-89.44886768308224
 20
22.92969830980833
 30
0.0
 11
-88.5997299481486
 21
22.27813200928226
 31
0.0
  0
LINE
  5
148
330
1F
100
AcDbEntity
  8
0
100
AcDbLine
 10
-90.10043398360848
 20
23.77883604474214
 30
0.0
 11
-89.44886768308224
 21
22.92969830980833
 31
0.0
  0
LINE
  5
149
330
1F
100
AcDbEntity
  8
0
100
AcDbLine
 10
-90.5100256831099
 20
24.76767788071453
 30
0.0
 11
-90.10043398360848
 21
23.77883604474214
 31
0.0
  0
LINE
  5
14A
330
1F
100
AcDbEntity
  8
0
100
AcDbLine
 10
-90.64972978414852
 20
25.82883588074218
 30
0.0
 11
-90.5100256831099
 21
24.76767788071453
 31
0.0
  0
LINE
  5
14B
330
1F
100
AcDbEntity
  8
0
100
AcDbLine
 10
-90.5100256831099
 20
26.88999388076984
 30
0.0
 11
-90.64972978414852
 21
25.82883588074218
 31
0.0
  0
LINE
  5
14C
330
1F
100
AcDbEntity
  8
0
100
AcDbLine
 10
-90.10043398360848
 20
27.87883571674209
 30
0.0
 11
-90.5100256831099
 21
26.88999388076984
 31
0.0
  0
LINE
  5
14D
330
1F
100
AcDbEntity
  8
0
100
AcDbLine
 10
-89.44886768308224
 20
28.72797345167591
 30
0.0
 11
-90.10043398360848
 21
27.87883571674209
 31
0.0
  0
LINE
  5
14E
330
1F
100
AcDbEntity
  8
0
100
AcDbLine
 10
-88.5997299481486
 20
29.37953975220193
 30
0.0
 11
-89.44886768308224
 21
28.72797345167591
 31
0.0
  0
LINE
  5
14F
330
1F
100
AcDbEntity
  8
0
100
AcDbLine
 10
-87.61088811217637
 20
29.78913145170353
 30
0.0
 11
-88.5997299481486
 21
29.37953975220193
 31
0.0
  0
LINE
  5
150
330
1F
100
AcDbEntity
  8
0
100
AcDbLine
 10
-86.54973011214871
 20
29.92883555274214
 30
0.0
 11
-87.61088811217637
 21
29.78913145170353
 31
0.0
  0
LINE
  5
151
330
1F
100
AcDbEntity
  8
0
100
AcDbLine
 10
-85.48857211212103
 20
29.78913145170353
 30
0.0
 11
-86.54973011214871
 21
29.92883555274214
 31
0.0
  0
LINE
  5
152
330
1F
100
AcDbEntity
  8
0
100
AcDbLine
 10
-84.49973027614843
 20
29.37953975220193
 30
0.0
 11
-85.48857211212103
 21
29.78913145170353
 31
0.0
  0
LINE
  5
153
330
1F
100
AcDbEntity
  8
0
100
AcDbLine
 10
-83.65059254121479
 20
28.72797345167591
 30
0.0
 11
-84.49973027614843
 21
29.37953975220193
 31
0.0
  0
LINE
  5
154
330
1F
100
AcDbEntity
  8
0
100
AcDbLine
 10
-82.99902624068855
 20
27.87883571674209
 30
0.0
 11
-83.65059254121479
 21
28.72797345167591
 31
0.0
  0
LINE
  5
155
330
1F
100
AcDbEntity
  8
0
100
AcDbLine
 10
-57.74973241614803
 20
-0.721161995257905
 30
0.0
 11
-47.34973324814798
 21
-0.721161995257905
 31
0.0
  0
LINE
  5
156
330
1F
100
AcDbEntity
  8
0
100
AcDbLine
 10
-47.34973324814798
 20
-0.721161995257905
 30
0.0
 11
-47.34973324814798
 21
-7.521161451257937
 31
0.0
  0
LINE
  5
157
330
1F
100
AcDbEntity
  8
0
100
AcDbLine
 10
-47.34973324814798
 20
-7.521161451257937
 30
0.0
 11
-57.74973241614803
 21
-7.521161451257937
 31
0.0
  0
LINE
  5
158
330
1F
100
AcDbEntity
  8
0
100
AcDbLine
 10
-57.74973241614803
 20
-7.521161451257937
 30
0.0
 11
-57.74973241614803
 21
-0.721161995257905
 31
0.0
  0
LINE
  5
159
330
1F
100
AcDbEntity
  8
0
100
AcDbLine
 10
-57.74973241614803
 20
59.17883321274244
 30
0.0
 11
-47.34973324814798
 21
59.17883321274244
 31
0.0
  0
LINE
  5
15A
330
1F
100
AcDbEntity
  8
0
100
AcDbLine
 10
-47.34973324814798
 20
59.17883321274244
 30
0.0
 11
-47.34973324814798
 21
52.37883375674242
 31
0.0
  0
LINE
  5
15B
330
1F
100
AcDbEntity
  8
0
100
AcDbLine
 10
-47.34973324814798
 20
52.37883375674242
 30
0.0
 11
-57.74973241614803
 21
52.3788337567425
 31
0.0
  0
LINE
  5
15C
330
1F
100
AcDbEntity
  8
0
100
AcDbLine
 10
-57.74973241614803
 20
52.3788337567425
 30
0.0
 11
-57.74973241614803
 21
59.17883321274244
 31
0.0
  0
LINE
  5
15D
330
1F
100
AcDbEntity
  8
0
100
AcDbLine
 10
-76.34973092814825
 20
-7.521161451257937
 30
0.0
 11
-76.34973092814825
 21
-0.721161995257905
 31
0.0
  0
LINE
  5
15E
330
1F
100
AcDbEntity
  8
0
100
AcDbLine
 10
-76.34973092814825
 20
-7.521161451257937
 30
0.0
 11
-86.74973009614865
 21
-7.521161451257937
 31
0.0
  0
LINE
  5
15F
330
1F
100
AcDbEntity
  8
0
100
AcDbLine
 10
-86.74973009614865
 20
-7.521161451257937
 30
0.0
 11
-86.74973009614865
 21
-0.721161995257905
 31
0.0
  0
LINE
  5
160
330
1F
100
AcDbEntity
  8
0
100
AcDbLine
 10
-86.74973009614865
 20
-0.721161995257905
 30
0.0
 11
-76.34973092814825
 21
-0.721161995257905
 31
0.0
  0
LINE
  5
161
330
1F
100
AcDbEntity
  8
0
100
AcDbLine
 10
-76.34973092814825
 20
52.37883375674242
 30
0.0
 11
-76.34973092814825
 21
59.17883321274244
 31
0.0
  0
LINE
  5
162
330
1F
100
AcDbEntity
  8
0
100
AcDbLine
 10
-76.34973092814825
 20
52.37883375674242
 30
0.0
 11
-86.74973009614865
 21
52.37883375674242
 31
0.0
  0
LINE
  5
163
330
1F
100
AcDbEntity
  8
0
100
AcDbLine
 10
-86.74973009614865
 20
52.37883375674242
 30
0.0
 11
-86.74973009614865
 21
59.17883321274244
 31
0.0
  0
LINE
  5
164
330
1F
100
AcDbEntity
  8
0
100
AcDbLine
 10
-86.74973009614865
 20
59.17883321274244
 30
0.0
 11
-76.34973092814825
 21
59.17883321274244
 31
0.0
  0
LINE
  5
165
330
1F
100
AcDbEntity
  8
0
100
AcDbLine
 10
-88.10857571425292
 20
41.37883463674223
 30
0.0
 11
-87.8225222164611
 21
41.00604246042981
 31
0.0
  0
LINE
  5
166
330
1F
100
AcDbEntity
  8
0
100
AcDbLine
 10
-88.28839646037572
 20
41.81296032082759
 30
0.0
 11
-88.10857571425292
 21
41.37883463674223
 31
0.0
  0
LINE
  5
167
330
1F
100
AcDbEntity
  8
0
100
AcDbLine
 10
-88.34972996814867
 20
42.2788345647422
 30
0.0
 11
-88.28839646037572
 21
41.81296032082759
 31
0.0
  0
LINE
  5
168
330
1F
100
AcDbEntity
  8
0
100
AcDbLine
 10
-88.28839646037572
 20
42.74470880865682
 30
0.0
 11
-88.34972996814867
 21
42.2788345647422
 31
0.0
  0
LINE
  5
169
330
1F
100
AcDbEntity
  8
0
100
AcDbLine
 10
-88.10857571425292
 20
43.17883449274219
 30
0.0
 11
-88.28839646037572
 21
42.74470880865682
 31
0.0
  0
LINE
  5
16A
330
1F
100
AcDbEntity
  8
0
100
AcDbLine
 10
-87.8225222164611
 20
43.5516266690546
 30
0.0
 11
-88.10857571425292
 21
43.17883449274219
 31
0.0
  0
LINE
  5
16B
330
1F
100
AcDbEntity
  8
0
100
AcDbLine
 10
-87.4497300401487
 20
43.83768016684651
 30
0.0
 11
-87.8225222164611
 21
43.5516266690546
 31
0.0
  0
LINE
  5
16C
330
1F
100
AcDbEntity
  8
0
100
AcDbLine
 10
-87.01560435606332
 20
44.01750091296913
 30
0.0
 11
-87.4497300401487
 21
43.83768016684651
 31
0.0
  0
LINE
  5
16D
330
1F
100
AcDbEntity
  8
0
100
AcDbLine
 10
-86.54973011214871
 20
44.07883442074217
 30
0.0
 11
-87.01560435606332
 21
44.01750091296913
 31
0.0
  0
LINE
  5
16E
330
1F
100
AcDbEntity
  8
0
100
AcDbLine
 10
-86.08385586823408
 20
44.01750091296913
 30
0.0
 11
-86.54973011214871
 21
44.07883442074217
 31
0.0
  0
LINE
  5
16F
330
1F
100
AcDbEntity
  8
0
100
AcDbLine
 10
-85.64973018414872
 20
43.83768016684651
 30
0.0
 11
-86.08385586823408
 21
44.01750091296913
 31
0.0
  0
LINE
  5
170
330
1F
100
AcDbEntity
  8
0
100
AcDbLine
 10
-85.2769380078363
 20
43.5516266690546
 30
0.0
 11
-85.64973018414872
 21
43.83768016684651
 31
0.0
  0
LINE
  5
171
330
1F
100
AcDbEntity
  8
0
100
AcDbLine
 10
-84.9908845100445
 20
43.17883449274219
 30
0.0
 11
-85.2769380078363
 21
43.5516266690546
 31
0.0
  0
LINE
  5
172
330
1F
100
AcDbEntity
  8
0
100
AcDbLine
 10
-84.81106376392168
 20
42.74470880865682
 30
0.0
 11
-84.9908845100445
 21
43.17883449274219
 31
0.0
  0
LINE
  5
173
330
1F
100
AcDbEntity
  8
0
100
AcDbLine
 10
-84.74973025614874
 20
42.2788345647422
 30
0.0
 11
-84.81106376392168
 21
42.74470880865682
 31
0.0
  0
LINE
  5
174
330
1F
100
AcDbEntity
  8
0
100
AcDbLine
 10
-84.81106376392168
 20
41.81296032082759
 30
0.0
 11
-84.74973025614874
 21
42.2788345647422
 31
0.0
  0
LINE
  5
175
330
1F
100
AcDbEntity
  8
0
100
AcDbLine
 10
-84.9908845100445
 20
41.37883463674223
 30
0.0
 11
-84.81106376392168
 21
41.81296032082759
 31
0.0
  0
LINE
  5
176
330
1F
100
AcDbEntity
  8
0
100
AcDbLine
 10
-85.2769380078363
 20
41.00604246042981
 30
0.0
 11
-84.9908845100445
 21
41.37883463674223
 31
0.0
  0
LINE
  5
177
330
1F
100
AcDbEntity
  8
0
100
AcDbLine
 10
-85.64973018414872
 20
40.7199889626379
 30
0.0
 11
-85.2769380078363
 21
41.00604246042981
 31
0.0
  0
LINE
  5
178
330
1F
100
AcDbEntity
  8
0
100
AcDbLine
 10
-86.08385586823408
 20
40.54016821651528
 30
0.0
 11
-85.64973018414872
 21
40.7199889626379
 31
0.0
  0
LINE
  5
179
330
1F
100
AcDbEntity
  8
0
100
AcDbLine
 10
-86.54973011214871
 20
40.47883470874224
 30
0.0
 11
-86.08385586823408
 21
40.54016821651528
 31
0.0
  0
LINE
  5
17A
330
1F
100
AcDbEntity
  8
0
100
AcDbLine
 10
-87.8225222164611
 20
41.00604246042981
 30
0.0
 11
-87.4497300401487
 21
40.7199889626379
 31
0.0
  0
LINE
  5
17B
330
1F
100
AcDbEntity
  8
0
100
AcDbLine
 10
-46.34929159320015
 20
48.36870951874296
 30
0.0
 11
-46.29829365996686
 21
47.90159088164459
 31
0.0
  0
LINE
  5
17C
330
1F
100
AcDbEntity
  8
0
100
AcDbLine
 10
-46.27765261439425
 20
48.83311071063897
 30
0.0
 11
-46.34929159320015
 21
48.36870951874296
 31
0.0
  0
LINE
  5
17D
330
1F
100
AcDbEntity
  8
0
100
AcDbLine
 10
-46.08825880156549
 20
49.26314628356401
 30
0.0
 11
-46.27765261439425
 21
48.83311071063897
 31
0.0
  0
LINE
  5
17E
330
1F
100
AcDbEntity
  8
0
100
AcDbLine
 10
-45.79401703007039
 20
49.6295100238907
 30
0.0
 11
-46.08825880156549
 21
49.26314628356401
 31
0.0
  0
LINE
  5
17F
330
1F
100
AcDbEntity
  8
0
100
AcDbLine
 10
-45.4149793903788
 20
49.90723484816049
 30
0.0
 11
-45.79401703007039
 21
49.6295100238907
 31
0.0
  0
LINE
  5
180
330
1F
100
AcDbEntity
  8
0
100
AcDbLine
 10
-44.97697667124605
 20
50.07739426856129
 30
0.0
 11
-45.4149793903788
 21
49.90723484816049
 31
0.0
  0
LINE
  5
181
330
1F
100
AcDbEntity
  8
0
100
AcDbLine
 10
-44.50985803414768
 20
50.12839220179468
 30
0.0
 11
-44.97697667124605
 21
50.07739426856129
 31
0.0
  0
LINE
  5
182
330
1F
100
AcDbEntity
  8
0
100
AcDbLine
 10
-44.04545684225176
 20
50.05675322298868
 30
0.0
 11
-44.50985803414768
 21
50.12839220179468
 31
0.0
  0
LINE
  5
183
330
1F
100
AcDbEntity
  8
0
100
AcDbLine
 10
-43.61542126932672
 20
49.86735941016011
 30
0.0
 11
-44.04545684225176
 21
50.05675322298868
 31
0.0
  0
LINE
  5
184
330
1F
100
AcDbEntity
  8
0
100
AcDbLine
 10
-43.24905752899985
 20
49.573117638665
 30
0.0
 11
-43.61542126932672
 21
49.86735941016011
 31
0.0
  0
LINE
  5
185
330
1F
100
AcDbEntity
  8
0
100
AcDbLine
 10
-42.97133270473005
 20
49.19407999897324
 30
0.0
 11
-43.24905752899985
 21
49.573117638665
 31
0.0
  0
LINE
  5
186
330
1F
100
AcDbEntity
  8
0
100
AcDbLine
 10
-42.80117328432944
 20
48.75607727984058
 30
0.0
 11
-42.97133270473005
 21
49.19407999897324
 31
0.0
  0
LINE
  5
187
330
1F
100
AcDbEntity
  8
0
100
AcDbLine
 10
-42.75017535109596
 20
48.28895864274221
 30
0.0
 11
-42.80117328432944
 21
48.75607727984058
 31
0.0
  0
LINE
  5
188
330
1F
100
AcDbEntity
  8
0
100
AcDbLine
 10
-42.82181432990204
 20
47.8245574508462
 30
0.0
 11
-42.75017535109596
 21
48.28895864274221
 31
0.0
  0
LINE
  5
189
330
1F
100
AcDbEntity
  8
0
100
AcDbLine
 10
-43.01120814273043
 20
47.39452187792116
 30
0.0
 11
-42.82181432990204
 21
47.8245574508462
 31
0.0
  0
LINE
  5
18A
330
1F
100
AcDbEntity
  8
0
100
AcDbLine
 10
-43.30544991422555
 20
47.02815813759447
 30
0.0
 11
-43.01120814273043
 21
47.39452187792116
 31
0.0
  0
LINE
  5
18B
330
1F
100
AcDbEntity
  8
0
100
AcDbLine
 10
-43.6844875539173
 20
46.75043331332467
 30
0.0
 11
-43.30544991422555
 21
47.02815813759447
 31
0.0
  0
LINE
  5
18C
330
1F
100
AcDbEntity
  8
0
100
AcDbLine
 10
-44.12249027305006
 20
46.58027389292388
 30
0.0
 11
-43.6844875539173
 21
46.75043331332467
 31
0.0
  0
LINE
  5
18D
330
1F
100
AcDbEntity
  8
0
100
AcDbLine
 10
-44.58960891014843
 20
46.52927595969049
 30
0.0
 11
-44.12249027305006
 21
46.58027389292388
 31
0.0
  0
LINE
  5
18E
330
1F
100
AcDbEntity
  8
0
100
AcDbLine
 10
-45.05401010204435
 20
46.60091493849648
 30
0.0
 11
-44.58960891014843
 21
46.52927595969049
 31
0.0
  0
LINE
  5
18F
330
1F
100
AcDbEntity
  8
0
100
AcDbLine
 10
-45.48404567496939
 20
46.79030875132505
 30
0.0
 11
-45.05401010204435
 21
46.60091493849648
 31
0.0
  0
LINE
  5
190
330
1F
100
AcDbEntity
  8
0
100
AcDbLine
 10
-45.85040941529608
 20
47.08455052282017
 30
0.0
 11
-45.48404567496939
 21
46.79030875132505
 31
0.0
  0
LINE
  5
191
330
1F
100
AcDbEntity
  8
0
100
AcDbLine
 10
-46.12813423956587
 20
47.46358816251192
 30
0.0
 11
-45.85040941529608
 21
47.08455052282017
 31
0.0
  0
LINE
  5
192
330
1F
100
AcDbEntity
  8
0
100
AcDbLine
 10
-88.10857571425292
 20
10.2788371247421
 30
0.0
 11
-88.28839646037572
 21
9.844711440656695
 31
0.0
  0
LINE
  5
193
330
1F
100
AcDbEntity
  8
0
100
AcDbLine
 10
-87.8225222164611
 20
10.65162930105451
 30
0.0
 11
-88.10857571425292
 21
10.2788371247421
 31
0.0
  0
LINE
  5
194
330
1F
100
AcDbEntity
  8
0
100
AcDbLine
 10
-87.4497300401487
 20
10.93768279884642
 30
0.0
 11
-87.8225222164611
 21
10.65162930105451
 31
0.0
  0
LINE
  5
195
330
1F
100
AcDbEntity
  8
0
100
AcDbLine
 10
-87.01560435606332
 20
11.11750354496909
 30
0.0
 11
-87.4497300401487
 21
10.93768279884642
 31
0.0
  0
LINE
  5
196
330
1F
100
AcDbEntity
  8
0
100
AcDbLine
 10
-86.54973011214871
 20
11.17883705274208
 30
0.0
 11
-87.01560435606332
 21
11.11750354496909
 31
0.0
  0
LINE
  5
197
330
1F
100
AcDbEntity
  8
0
100
AcDbLine
 10
-86.08385586823408
 20
11.11750354496909
 30
0.0
 11
-86.54973011214871
 21
11.17883705274208
 31
0.0
  0
LINE
  5
198
330
1F
100
AcDbEntity
  8
0
100
AcDbLine
 10
-85.64973018414872
 20
10.93768279884642
 30
0.0
 11
-86.08385586823408
 21
11.11750354496909
 31
0.0
  0
LINE
  5
199
330
1F
100
AcDbEntity
  8
0
100
AcDbLine
 10
-85.2769380078363
 20
10.65162930105451
 30
0.0
 11
-85.64973018414872
 21
10.93768279884642
 31
0.0
  0
LINE
  5
19A
330
1F
100
AcDbEntity
  8
0
100
AcDbLine
 10
-84.9908845100445
 20
10.2788371247421
 30
0.0
 11
-85.2769380078363
 21
10.65162930105451
 31
0.0
  0
LINE
  5
19B
330
1F
100
AcDbEntity
  8
0
100
AcDbLine
 10
-84.81106376392168
 20
9.844711440656695
 30
0.0
 11
-84.9908845100445
 21
10.2788371247421
 31
0.0
  0
LINE
  5
19C
330
1F
100
AcDbEntity
  8
0
100
AcDbLine
 10
-84.74973025614874
 20
9.37883719674212
 30
0.0
 11
-84.81106376392168
 21
9.844711440656695
 31
0.0
  0
LINE
  5
19D
330
1F
100
AcDbEntity
  8
0
100
AcDbLine
 10
-84.81106376392168
 20
8.912962952827542
 30
0.0
 11
-84.74973025614874
 21
9.37883719674212
 31
0.0
  0
LINE
  5
19E
330
1F
100
AcDbEntity
  8
0
100
AcDbLine
 10
-84.9908845100445
 20
8.478837268742137
 30
0.0
 11
-84.81106376392168
 21
8.912962952827542
 31
0.0
  0
LINE
  5
19F
330
1F
100
AcDbEntity
  8
0
100
AcDbLine
 10
-85.2769380078363
 20
8.106045092429726
 30
0.0
 11
-84.9908845100445
 21
8.478837268742137
 31
0.0
  0
LINE
  5
1A0
330
1F
100
AcDbEntity
  8
0
100
AcDbLine
 10
-85.64973018414872
 20
7.819991594637814
 30
0.0
 11
-85.2769380078363
 21
8.106045092429726
 31
0.0
  0
LINE
  5
1A1
330
1F
100
AcDbEntity
  8
0
100
AcDbLine
 10
-86.08385586823408
 20
7.640170848515149
 30
0.0
 11
-85.64973018414872
 21
7.819991594637814
 31
0.0
  0
LINE
  5
1A2
330
1F
100
AcDbEntity
  8
0
100
AcDbLine
 10
-86.54973011214871
 20
7.578837340742156
 30
0.0
 11
-86.08385586823408
 21
7.640170848515149
 31
0.0
  0
LINE
  5
1A3
330
1F
100
AcDbEntity
  8
0
100
AcDbLine
 10
-87.01560435606332
 20
7.640170848515149
 30
0.0
 11
-86.54973011214871
 21
7.578837340742156
 31
0.0
  0
LINE
  5
1A4
330
1F
100
AcDbEntity
  8
0
100
AcDbLine
 10
-87.4497300401487
 20
7.819991594637814
 30
0.0
 11
-87.01560435606332
 21
7.640170848515149
 31
0.0
  0
LINE
  5
1A5
330
1F
100
AcDbEntity
  8
0
100
AcDbLine
 10
-87.8225222164611
 20
8.106045092429726
 30
0.0
 11
-87.4497300401487
 21
7.819991594637814
 31
0.0
  0
LINE
  5
1A6
330
1F
100
AcDbEntity
  8
0
100
AcDbLine
 10
-88.10857571425292
 20
8.478837268742137
 30
0.0
 11
-87.8225222164611
 21
8.106045092429726
 31
0.0
  0
LINE
  5
1A7
330
1F
100
AcDbEntity
  8
0
100
AcDbLine
 10
-88.28839646037572
 20
8.912962952827542
 30
0.0
 11
-88.10857571425292
 21
8.478837268742137
 31
0.0
  0
LINE
  5
1A8
330
1F
100
AcDbEntity
  8
0
100
AcDbLine
 10
-88.34972996814867
 20
9.37883719674212
 30
0.0
 11
-88.28839646037572
 21
8.912962952827542
 31
0.0
  0
LINE
  5
1A9
330
1F
100
AcDbEntity
  8
0
100
AcDbLine
 10
-88.28839646037572
 20
9.844711440656695
 30
0.0
 11
-88.34972996814867
 21
9.37883719674212
 31
0.0
  0
LINE
  5
1AA
330
1F
100
AcDbEntity
  8
0
100
AcDbLine
 10
-46.29829365996523
 20
3.756080879846907
 30
0.0
 11
-46.34929159320033
 21
3.288962242748674
 31
0.0
  0
LINE
  5
1AB
330
1F
100
AcDbEntity
  8
0
100
AcDbLine
 10
-46.1281342395628
 20
4.194083598978946
 30
0.0
 11
-46.29829365996523
 21
3.756080879846907
 31
0.0
  0
LINE
  5
1AC
330
1F
100
AcDbEntity
  8
0
100
AcDbLine
 10
-45.85040941529157
 20
4.573121238669617
 30
0.0
 11
-46.1281342395628
 21
4.194083598978946
 31
0.0
  0
LINE
  5
1AD
330
1F
100
AcDbEntity
  8
0
100
AcDbLine
 10
-45.4840456749638
 20
4.867363010163379
 30
0.0
 11
-45.85040941529157
 21
4.573121238669617
 31
0.0
  0
LINE
  5
1AE
330
1F
100
AcDbEntity
  8
0
100
AcDbLine
 10
-45.05401010203803
 20
5.056756822990416
 30
0.0
 11
-45.4840456749638
 21
4.867363010163379
 31
0.0
  0
LINE
  5
1AF
330
1F
100
AcDbEntity
  8
0
100
AcDbLine
 10
-44.58960891014176
 20
5.128395801794646
 30
0.0
 11
-45.05401010203803
 21
5.056756822990416
 31
0.0
  0
LINE
  5
1B0
330
1F
100
AcDbEntity
  8
0
100
AcDbLine
 10
-44.12249027304357
 20
5.077397868559548
 30
0.0
 11
-44.58960891014176
 21
5.128395801794646
 31
0.0
  0
LINE
  5
1B1
330
1F
100
AcDbEntity
  8
0
100
AcDbLine
 10
-43.68448755391152
 20
4.907238448157079
 30
0.0
 11
-44.12249027304357
 21
5.077397868559548
 31
0.0
  0
LINE
  5
1B2
330
1F
100
AcDbEntity
  8
0
100
AcDbLine
 10
-43.30544991422086
 20
4.629513623885883
 30
0.0
 11
-43.68448755391152
 21
4.907238448157079
 31
0.0
  0
LINE
  5
1B3
330
1F
100
AcDbEntity
  8
0
100
AcDbLine
 10
-43.011208142727
 20
4.263149883558073
 30
0.0
 11
-43.30544991422086
 21
4.629513623885883
 31
0.0
  0
LINE
  5
1B4
330
1F
100
AcDbEntity
  8
0
100
AcDbLine
 10
-42.82181432989987
 20
3.833114310632305
 30
0.0
 11
-43.011208142727
 21
4.263149883558073
 31
0.0
  0
LINE
  5
1B5
330
1F
100
AcDbEntity
  8
0
100
AcDbLine
 10
-42.75017535109578
 20
3.368713118736072
 30
0.0
 11
-42.82181432989987
 21
3.833114310632305
 31
0.0
  0
LINE
  5
1B6
330
1F
100
AcDbEntity
  8
0
100
AcDbLine
 10
-42.80117328433088
 20
2.90159448163784
 30
0.0
 11
-42.75017535109578
 21
3.368713118736072
 31
0.0
  0
LINE
  5
1B7
330
1F
100
AcDbEntity
  8
0
100
AcDbLine
 10
-42.97133270473331
 20
2.4635917625058
 30
0.0
 11
-42.80117328433088
 21
2.90159448163784
 31
0.0
  0
LINE
  5
1B8
330
1F
100
AcDbEntity
  8
0
100
AcDbLine
 10
-43.24905752900455
 20
2.084554122815129
 30
0.0
 11
-42.97133270473331
 21
2.4635917625058
 31
0.0
  0
LINE
  5
1B9
330
1F
100
AcDbEntity
  8
0
100
AcDbLine
 10
-43.61542126933232
 20
1.790312351321367
 30
0.0
 11
-43.24905752900455
 21
2.084554122815129
 31
0.0
  0
LINE
  5
1BA
330
1F
100
AcDbEntity
  8
0
100
AcDbLine
 10
-44.04545684225808
 20
1.60091853849433
 30
0.0
 11
-43.61542126933232
 21
1.790312351321367
 31
0.0
  0
LINE
  5
1BB
330
1F
100
AcDbEntity
  8
0
100
AcDbLine
 10
-44.50985803415436
 20
1.5292795596901
 30
0.0
 11
-44.04545684225808
 21
1.60091853849433
 31
0.0
  0
LINE
  5
1BC
330
1F
100
AcDbEntity
  8
0
100
AcDbLine
 10
-44.97697667125254
 20
1.580277492925198
 30
0.0
 11
-44.50985803415436
 21
1.5292795596901
 31
0.0
  0
LINE
  5
1BD
330
1F
100
AcDbEntity
  8
0
100
AcDbLine
 10
-45.41497939038458
 20
1.750436913327668
 30
0.0
 11
-44.97697667125254
 21
1.580277492925198
 31
0.0
  0
LINE
  5
1BE
330
1F
100
AcDbEntity
  8
0
100
AcDbLine
 10
-45.79401703007525
 20
2.028161737598863
 30
0.0
 11
-45.41497939038458
 21
1.750436913327668
 31
0.0
  0
LINE
  5
1BF
330
1F
100
AcDbEntity
  8
0
100
AcDbLine
 10
-46.0882588015691
 20
2.394525477926673
 30
0.0
 11
-45.79401703007525
 21
2.028161737598863
 31
0.0
  0
LINE
  5
1C0
330
1F
100
AcDbEntity
  8
0
100
AcDbLine
 10
-46.27765261439605
 20
2.824561050852441
 30
0.0
 11
-46.0882588015691
 21
2.394525477926673
 31
0.0
  0
LINE
  5
1C1
330
1F
100
AcDbEntity
  8
0
100
AcDbLine
 10
-46.34929159320033
 20
3.288962242748674
 30
0.0
 11
-46.27765261439605
 21
2.824561050852441
 31
0.0
  0
LINE
  5
1C2
330
1F
100
AcDbEntity
  8
0
100
AcDbLine
 10
-52.34973284814795
 20
43.88768016285264
 30
0.0
 11
-52.72252502446037
 21
43.60162666506072
 31
0.0
  0
LINE
  5
1C3
330
1F
100
AcDbEntity
  8
0
100
AcDbLine
 10
-51.9156071640626
 20
44.06750090897525
 30
0.0
 11
-52.34973284814795
 21
43.88768016285264
 31
0.0
  0
LINE
  5
1C4
330
1F
100
AcDbEntity
  8
0
100
AcDbLine
 10
-51.44973292014798
 20
44.12883441674829
 30
0.0
 11
-51.9156071640626
 21
44.06750090897525
 31
0.0
  0
LINE
  5
1C5
330
1F
100
AcDbEntity
  8
0
100
AcDbLine
 10
-50.98385867623335
 20
44.06750090897525
 30
0.0
 11
-51.44973292014798
 21
44.12883441674829
 31
0.0
  0
LINE
  5
1C6
330
1F
100
AcDbEntity
  8
0
100
AcDbLine
 10
-50.54973299214799
 20
43.88768016285264
 30
0.0
 11
-50.98385867623335
 21
44.06750090897525
 31
0.0
  0
LINE
  5
1C7
330
1F
100
AcDbEntity
  8
0
100
AcDbLine
 10
-50.17694081583558
 20
43.60162666506072
 30
0.0
 11
-50.54973299214799
 21
43.88768016285264
 31
0.0
  0
LINE
  5
1C8
330
1F
100
AcDbEntity
  8
0
100
AcDbLine
 10
-49.89088731804376
 20
43.22883448874831
 30
0.0
 11
-50.17694081583558
 21
43.60162666506072
 31
0.0
  0
LINE
  5
1C9
330
1F
100
AcDbEntity
  8
0
100
AcDbLine
 10
-49.71106657192096
 20
42.79470880466295
 30
0.0
 11
-49.89088731804376
 21
43.22883448874831
 31
0.0
  0
LINE
  5
1CA
330
1F
100
AcDbEntity
  8
0
100
AcDbLine
 10
-49.64973306414801
 20
42.32883456074833
 30
0.0
 11
-49.71106657192096
 21
42.79470880466295
 31
0.0
  0
LINE
  5
1CB
330
1F
100
AcDbEntity
  8
0
100
AcDbLine
 10
-49.71106657192096
 20
41.86296031683371
 30
0.0
 11
-49.64973306414801
 21
42.32883456074833
 31
0.0
  0
LINE
  5
1CC
330
1F
100
AcDbEntity
  8
0
100
AcDbLine
 10
-49.89088731804376
 20
41.42883463274835
 30
0.0
 11
-49.71106657192096
 21
41.86296031683371
 31
0.0
  0
LINE
  5
1CD
330
1F
100
AcDbEntity
  8
0
100
AcDbLine
 10
-50.17694081583558
 20
41.05604245643594
 30
0.0
 11
-49.89088731804376
 21
41.42883463274835
 31
0.0
  0
LINE
  5
1CE
330
1F
100
AcDbEntity
  8
0
100
AcDbLine
 10
-50.54973299214799
 20
40.76998895864402
 30
0.0
 11
-50.17694081583558
 21
41.05604245643594
 31
0.0
  0
LINE
  5
1CF
330
1F
100
AcDbEntity
  8
0
100
AcDbLine
 10
-50.98385867623335
 20
40.59016821252141
 30
0.0
 11
-50.54973299214799
 21
40.76998895864402
 31
0.0
  0
LINE
  5
1D0
330
1F
100
AcDbEntity
  8
0
100
AcDbLine
 10
-51.44973292014798
 20
40.52883470474837
 30
0.0
 11
-50.98385867623335
 21
40.59016821252141
 31
0.0
  0
LINE
  5
1D1
330
1F
100
AcDbEntity
  8
0
100
AcDbLine
 10
-51.9156071640626
 20
40.59016821252141
 30
0.0
 11
-51.44973292014798
 21
40.52883470474837
 31
0.0
  0
LINE
  5
1D2
330
1F
100
AcDbEntity
  8
0
100
AcDbLine
 10
-52.34973284814795
 20
40.76998895864402
 30
0.0
 11
-51.9156071640626
 21
40.59016821252141
 31
0.0
  0
LINE
  5
1D3
330
1F
100
AcDbEntity
  8
0
100
AcDbLine
 10
-52.72252502446037
 20
41.05604245643594
 30
0.0
 11
-52.34973284814795
 21
40.76998895864402
 31
0.0
  0
LINE
  5
1D4
330
1F
100
AcDbEntity
  8
0
100
AcDbLine
 10
-53.00857852225219
 20
41.42883463274835
 30
0.0
 11
-52.72252502446037
 21
41.05604245643594
 31
0.0
  0
LINE
  5
1D5
330
1F
100
AcDbEntity
  8
0
100
AcDbLine
 10
-53.18839926837499
 20
41.86296031683371
 30
0.0
 11
-53.00857852225219
 21
41.42883463274835
 31
0.0
  0
LINE
  5
1D6
330
1F
100
AcDbEntity
  8
0
100
AcDbLine
 10
-53.24973277614794
 20
42.32883456074833
 30
0.0
 11
-53.18839926837499
 21
41.86296031683371
 31
0.0
  0
LINE
  5
1D7
330
1F
100
AcDbEntity
  8
0
100
AcDbLine
 10
-53.18839926837499
 20
42.79470880466295
 30
0.0
 11
-53.24973277614794
 21
42.32883456074833
 31
0.0
  0
LINE
  5
1D8
330
1F
100
AcDbEntity
  8
0
100
AcDbLine
 10
-53.00857852225219
 20
43.22883448874831
 30
0.0
 11
-53.18839926837499
 21
42.79470880466295
 31
0.0
  0
LINE
  5
1D9
330
1F
100
AcDbEntity
  8
0
100
AcDbLine
 10
-52.72252502446037
 20
43.60162666506072
 30
0.0
 11
-53.00857852225219
 21
43.22883448874831
 31
0.0
  0
LINE
  5
1DA
330
1F
100
AcDbEntity
  8
0
100
AcDbLine
 10
-52.34973284814795
 20
10.88768280285366
 30
0.0
 11
-52.72252502446037
 21
10.60162930506174
 31
0.0
  0
LINE
  5
1DB
330
1F
100
AcDbEntity
  8
0
100
AcDbLine
 10
-51.9156071640626
 20
11.06750354897632
 30
0.0
 11
-52.34973284814795
 21
10.88768280285366
 31
0.0
  0
LINE
  5
1DC
330
1F
100
AcDbEntity
  8
0
100
AcDbLine
 10
-51.44973292014798
 20
11.12883705674931
 30
0.0
 11
-51.9156071640626
 21
11.06750354897632
 31
0.0
  0
LINE
  5
1DD
330
1F
100
AcDbEntity
  8
0
100
AcDbLine
 10
-50.98385867623335
 20
11.06750354897632
 30
0.0
 11
-51.44973292014798
 21
11.12883705674931
 31
0.0
  0
LINE
  5
1DE
330
1F
100
AcDbEntity
  8
0
100
AcDbLine
 10
-50.54973299214799
 20
10.88768280285361
 30
0.0
 11
-50.98385867623335
 21
11.06750354897632
 31
0.0
  0
LINE
  5
1DF
330
1F
100
AcDbEntity
  8
0
100
AcDbLine
 10
-50.17694081583558
 20
10.6016293050617
 30
0.0
 11
-50.54973299214799
 21
10.88768280285361
 31
0.0
  0
LINE
  5
1E0
330
1F
100
AcDbEntity
  8
0
100
AcDbLine
 10
-49.89088731804358
 20
10.22883712874929
 30
0.0
 11
-50.17694081583558
 21
10.6016293050617
 31
0.0
  0
LINE
  5
1E1
330
1F
100
AcDbEntity
  8
0
100
AcDbLine
 10
-49.71106657192096
 20
9.79471144466388
 30
0.0
 11
-49.89088731804358
 21
10.22883712874929
 31
0.0
  0
LINE
  5
1E2
330
1F
100
AcDbEntity
  8
0
100
AcDbLine
 10
-49.64973306414801
 20
9.328837200749305
 30
0.0
 11
-49.71106657192096
 21
9.79471144466388
 31
0.0
  0
LINE
  5
1E3
330
1F
100
AcDbEntity
  8
0
100
AcDbLine
 10
-49.71106657192096
 20
8.862962956834728
 30
0.0
 11
-49.64973306414801
 21
9.328837200749305
 31
0.0
  0
LINE
  5
1E4
330
1F
100
AcDbEntity
  8
0
100
AcDbLine
 10
-49.89088731804376
 20
8.428837272749321
 30
0.0
 11
-49.71106657192096
 21
8.862962956834728
 31
0.0
  0
LINE
  5
1E5
330
1F
100
AcDbEntity
  8
0
100
AcDbLine
 10
-50.17694081583558
 20
8.056045096436955
 30
0.0
 11
-49.89088731804376
 21
8.428837272749321
 31
0.0
  0
LINE
  5
1E6
330
1F
100
AcDbEntity
  8
0
100
AcDbLine
 10
-50.54973299214799
 20
7.769991598645044
 30
0.0
 11
-50.17694081583558
 21
8.056045096436955
 31
0.0
  0
LINE
  5
1E7
330
1F
100
AcDbEntity
  8
0
100
AcDbLine
 10
-50.98385867623335
 20
7.590170852522379
 30
0.0
 11
-50.54973299214799
 21
7.769991598645044
 31
0.0
  0
LINE
  5
1E8
330
1F
100
AcDbEntity
  8
0
100
AcDbLine
 10
-51.44973292014798
 20
7.528837344749387
 30
0.0
 11
-50.98385867623335
 21
7.590170852522379
 31
0.0
  0
LINE
  5
1E9
330
1F
100
AcDbEntity
  8
0
100
AcDbLine
 10
-51.9156071640626
 20
7.590170852522379
 30
0.0
 11
-51.44973292014798
 21
7.528837344749387
 31
0.0
  0
LINE
  5
1EA
330
1F
100
AcDbEntity
  8
0
100
AcDbLine
 10
-52.34973284814795
 20
7.769991598645089
 30
0.0
 11
-51.9156071640626
 21
7.590170852522379
 31
0.0
  0
LINE
  5
1EB
330
1F
100
AcDbEntity
  8
0
100
AcDbLine
 10
-52.72252502446037
 20
8.056045096437002
 30
0.0
 11
-52.34973284814795
 21
7.769991598645089
 31
0.0
  0
LINE
  5
1EC
330
1F
100
AcDbEntity
  8
0
100
AcDbLine
 10
-53.00857852225238
 20
8.428837272749412
 30
0.0
 11
-52.72252502446037
 21
8.056045096437002
 31
0.0
  0
LINE
  5
1ED
330
1F
100
AcDbEntity
  8
0
100
AcDbLine
 10
-53.18839926837499
 20
8.862962956834817
 30
0.0
 11
-53.00857852225238
 21
8.428837272749412
 31
0.0
  0
LINE
  5
1EE
330
1F
100
AcDbEntity
  8
0
100
AcDbLine
 10
-53.24973277614794
 20
9.328837200749396
 30
0.0
 11
-53.18839926837499
 21
8.862962956834817
 31
0.0
  0
LINE
  5
1EF
330
1F
100
AcDbEntity
  8
0
100
AcDbLine
 10
-53.18839926837499
 20
9.794711444663971
 30
0.0
 11
-53.24973277614794
 21
9.328837200749396
 31
0.0
  0
LINE
  5
1F0
330
1F
100
AcDbEntity
  8
0
100
AcDbLine
 10
-53.00857852225219
 20
10.22883712874938
 30
0.0
 11
-53.18839926837499
 21
9.794711444663971
 31
0.0
  0
LINE
  5
1F1
330
1F
100
AcDbEntity
  8
0
100
AcDbLine
 10
-52.72252502446037
 20
10.60162930506174
 30
0.0
 11
-53.00857852225219
 21
10.22883712874938
 31
0.0
  0
LINE
  5
1F2
330
1F
100
AcDbEntity
  8
0
100
AcDbLine
 10
-72.4033980679977
 20
-53.2713841341337
 30
0.0
 11
-85.31567245901044
 21
-53.2713841341337
 31
0.0
  0
LINE
  5
1F3
330
1F
100
AcDbEntity
  8
0
100
AcDbLine
 10
-72.4033980679977
 20
-53.2713841341337
 30
0.0
 11
-72.14457904360087
 21
-53.23730996314872
 31
0.0
  0
LINE
  5
1F4
330
1F
100
AcDbEntity
  8
0
100
AcDbLine
 10
-72.14457904360087
 20
-53.23730996314872
 30
0.0
 11
-71.9033981079978
 21
-53.1374095486361
 31
0.0
  0
LINE
  5
1F5
330
1F
100
AcDbEntity
  8
0
100
AcDbLine
 10
-71.9033981079978
 20
-53.1374095486361
 30
0.0
 11
-71.69629134337981
 21
-52.9784909387517
 31
0.0
  0
LINE
  5
1F6
330
1F
100
AcDbEntity
  8
0
100
AcDbLine
 10
-71.69629134337981
 20
-52.9784909387517
 30
0.0
 11
-71.53737273349533
 21
-52.77138417413372
 31
0.0
  0
LINE
  5
1F7
330
1F
100
AcDbEntity
  8
0
100
AcDbLine
 10
-71.53737273349533
 20
-52.77138417413372
 30
0.0
 11
-71.43747231898281
 21
-52.5302032385307
 31
0.0
  0
LINE
  5
1F8
330
1F
100
AcDbEntity
  8
0
100
AcDbLine
 10
-71.43747231898281
 20
-52.5302032385307
 30
0.0
 11
-71.40339814799773
 21
-52.2713842141337
 31
0.0
  0
LINE
  5
1F9
330
1F
100
AcDbEntity
  8
0
100
AcDbLine
 10
-71.40339814799773
 20
-52.2713842141337
 30
0.0
 11
-71.40339814799773
 21
-37.67138538213358
 31
0.0
  0
LINE
  5
1FA
330
1F
100
AcDbEntity
  8
0
100
AcDbLine
 10
-71.40339814799773
 20
-37.67138538213358
 30
0.0
 11
-74.11567335501074
 21
-37.67138538213358
 31
0.0
  0
LINE
  5
1FB
330
1F
100
AcDbEntity
  8
0
100
AcDbLine
 10
-74.11567335501074
 20
-37.67138538213358
 30
0.0
 11
-74.11567335501074
 21
-31.07138591013355
 31
0.0
  0
LINE
  5
1FC
330
1F
100
AcDbEntity
  8
0
100
AcDbLine
 10
-74.11567335501074
 20
-31.07138591013355
 30
0.0
 11
-50.61567523501053
 21
-31.07138591013355
 31
0.0
  0
LINE
  5
1FD
330
1F
100
AcDbEntity
  8
0
100
AcDbLine
 10
-50.61567523501053
 20
-31.07138591013355
 30
0.0
 11
-50.61567523501053
 21
-37.67138538213358
 31
0.0
  0
LINE
  5
1FE
330
1F
100
AcDbEntity
  8
0
100
AcDbLine
 10
-50.61567523501053
 20
-37.67138538213358
 30
0.0
 11
-56.39821118352935
 21
-37.67138538213358
 31
0.0
  0
LINE
  5
1FF
330
1F
100
AcDbEntity
  8
0
100
AcDbLine
 10
-56.39821118352935
 20
-46.67138466213363
 30
0.0
 11
-56.39821118352935
 21
-37.67138538213358
 31
0.0
  0
LINE
  5
200
330
1F
100
AcDbEntity
  8
0
100
AcDbLine
 10
-51.11567519501131
 20
-46.67138466213367
 30
0.0
 11
-56.39821118352935
 21
-46.67138466213363
 31
0.0
  0
LINE
  5
201
330
1F
100
AcDbEntity
  8
0
100
AcDbLine
 10
-51.11567519501131
 20
-52.2713842141337
 30
0.0
 11
-51.11567519501131
 21
-46.67138466213367
 31
0.0
  0
LINE
  5
202
330
1F
100
AcDbEntity
  8
0
100
AcDbLine
 10
-51.11567519501131
 20
-52.2713842141337
 30
0.0
 11
-51.08160102402625
 21
-52.5302032385307
 31
0.0
  0
LINE
  5
203
330
1F
100
AcDbEntity
  8
0
100
AcDbLine
 10
-51.08160102402625
 20
-52.5302032385307
 30
0.0
 11
-50.98170060951372
 21
-52.77138417413372
 31
0.0
  0
LINE
  5
204
330
1F
100
AcDbEntity
  8
0
100
AcDbLine
 10
-50.98170060951372
 20
-52.77138417413372
 30
0.0
 11
-50.82278199962924
 21
-52.9784909387517
 31
0.0
  0
LINE
  5
205
330
1F
100
AcDbEntity
  8
0
100
AcDbLine
 10
-50.82278199962924
 20
-52.9784909387517
 30
0.0
 11
-50.61567523501125
 21
-53.1374095486361
 31
0.0
  0
LINE
  5
206
330
1F
100
AcDbEntity
  8
0
100
AcDbLine
 10
-50.61567523501125
 20
-53.1374095486361
 30
0.0
 11
-50.37449429940819
 21
-53.23730996314872
 31
0.0
  0
LINE
  5
207
330
1F
100
AcDbEntity
  8
0
100
AcDbLine
 10
-50.37449429940819
 20
-53.23730996314872
 30
0.0
 11
-50.11567527501136
 21
-53.2713841341337
 31
0.0
  0
LINE
  5
208
330
1F
100
AcDbEntity
  8
0
100
AcDbLine
 10
-45.5156756430113
 20
-53.2713841341337
 30
0.0
 11
-50.11567527501136
 21
-53.2713841341337
 31
0.0
  0
LINE
  5
209
330
1F
100
AcDbEntity
  8
0
100
AcDbLine
 10
-45.25685661861429
 20
-53.23730996314872
 30
0.0
 11
-45.5156756430113
 21
-53.2713841341337
 31
0.0
  0
LINE
  5
20A
330
1F
100
AcDbEntity
  8
0
100
AcDbLine
 10
-45.01567568301141
 20
-53.1374095486361
 30
0.0
 11
-45.25685661861429
 21
-53.23730996314872
 31
0.0
  0
LINE
  5
20B
330
1F
100
AcDbEntity
  8
0
100
AcDbLine
 10
-44.80856891839342
 20
-52.9784909387517
 30
0.0
 11
-45.01567568301141
 21
-53.1374095486361
 31
0.0
  0
LINE
  5
20C
330
1F
100
AcDbEntity
  8
0
100
AcDbLine
 10
-44.64965030850893
 20
-52.77138417413372
 30
0.0
 11
-44.80856891839342
 21
-52.9784909387517
 31
0.0
  0
LINE
  5
20D
330
1F
100
AcDbEntity
  8
0
100
AcDbLine
 10
-44.54974989399623
 20
-52.5302032385307
 30
0.0
 11
-44.64965030850893
 21
-52.77138417413372
 31
0.0
  0
LINE
  5
20E
330
1F
100
AcDbEntity
  8
0
100
AcDbLine
 10
-44.51567572301116
 20
-52.2713842141337
 30
0.0
 11
-44.54974989399623
 21
-52.5302032385307
 31
0.0
  0
LINE
  5
20F
330
1F
100
AcDbEntity
  8
0
100
AcDbLine
 10
-44.51567572301116
 20
-52.2713842141337
 30
0.0
 11
-44.51567572301116
 21
-46.67138466213367
 31
0.0
  0
LINE
  5
210
330
1F
100
AcDbEntity
  8
0
100
AcDbLine
 10
-44.51567572301116
 20
-46.67138466213367
 30
0.0
 11
-39.51567612301045
 21
-46.67138466213367
 31
0.0
  0
LINE
  5
211
330
1F
100
AcDbEntity
  8
0
100
AcDbLine
 10
-39.51567612301045
 20
-23.07138655013351
 30
0.0
 11
-39.51567612301045
 21
-46.67138466213367
 31
0.0
  0
LINE
  5
212
330
1F
100
AcDbEntity
  8
0
100
AcDbLine
 10
-39.51567612301045
 20
-23.07138655013351
 30
0.0
 11
-47.51567548301049
 21
-23.07138655013351
 31
0.0
  0
LINE
  5
213
330
1F
100
AcDbEntity
  8
0
100
AcDbLine
 10
-47.51567548301049
 20
-17.47138699813349
 30
0.0
 11
-47.51567548301049
 21
-23.07138655013351
 31
0.0
  0
LINE
  5
214
330
1F
100
AcDbEntity
  8
0
100
AcDbLine
 10
-47.51567548301049
 20
-17.47138699813349
 30
0.0
 11
-47.54974965399556
 21
-17.21256797373648
 31
0.0
  0
LINE
  5
215
330
1F
100
AcDbEntity
  8
0
100
AcDbLine
 10
-47.54974965399556
 20
-17.21256797373648
 30
0.0
 11
-47.64965006850809
 21
-16.97138703813346
 31
0.0
  0
LINE
  5
216
330
1F
100
AcDbEntity
  8
0
100
AcDbLine
 10
-47.64965006850809
 20
-16.97138703813346
 30
0.0
 11
-47.80856867839258
 21
-16.76428027351548
 31
0.0
  0
LINE
  5
217
330
1F
100
AcDbEntity
  8
0
100
AcDbLine
 10
-47.80856867839258
 20
-16.76428027351548
 30
0.0
 11
-48.01567544301057
 21
-16.60536166363108
 31
0.0
  0
LINE
  5
218
330
1F
100
AcDbEntity
  8
0
100
AcDbLine
 10
-48.01567544301057
 20
-16.60536166363108
 30
0.0
 11
-48.25685637861344
 21
-16.50546124911847
 31
0.0
  0
LINE
  5
219
330
1F
100
AcDbEntity
  8
0
100
AcDbLine
 10
-48.25685637861344
 20
-16.50546124911847
 30
0.0
 11
-48.51567540301063
 21
-16.47138707813349
 31
0.0
  0
LINE
  5
21A
330
1F
100
AcDbEntity
  8
0
100
AcDbLine
 10
-56.51567476301067
 20
-16.47138707813349
 30
0.0
 11
-48.51567540301063
 21
-16.47138707813349
 31
0.0
  0
LINE
  5
21B
330
1F
100
AcDbEntity
  8
0
100
AcDbLine
 10
-56.51567476301067
 20
-16.47138707813349
 30
0.0
 11
-56.7744937874075
 21
-16.50546124911847
 31
0.0
  0
LINE
  5
21C
330
1F
100
AcDbEntity
  8
0
100
AcDbLine
 10
-56.7744937874075
 20
-16.50546124911847
 30
0.0
 11
-57.01567472301056
 21
-16.60536166363108
 31
0.0
  0
LINE
  5
21D
330
1F
100
AcDbEntity
  8
0
100
AcDbLine
 10
-57.01567472301056
 20
-16.60536166363108
 30
0.0
 11
-57.22278148762854
 21
-16.76428027351548
 31
0.0
  0
LINE
  5
21E
330
1F
100
AcDbEntity
  8
0
100
AcDbLine
 10
-57.22278148762854
 20
-16.76428027351548
 30
0.0
 11
-57.38170009751303
 21
-16.97138703813346
 31
0.0
  0
LINE
  5
21F
330
1F
100
AcDbEntity
  8
0
100
AcDbLine
 10
-57.38170009751303
 20
-16.97138703813346
 30
0.0
 11
-57.48160051202555
 21
-17.21256797373648
 31
0.0
  0
LINE
  5
220
330
1F
100
AcDbEntity
  8
0
100
AcDbLine
 10
-57.48160051202555
 20
-17.21256797373648
 30
0.0
 11
-57.51567468301063
 21
-17.47138699813349
 31
0.0
  0
LINE
  5
221
330
1F
100
AcDbEntity
  8
0
100
AcDbLine
 10
-57.51567468301063
 20
-17.47138699813349
 30
0.0
 11
-57.51567468301063
 21
-23.07138655013351
 31
0.0
  0
LINE
  5
222
330
1F
100
AcDbEntity
  8
0
100
AcDbLine
 10
-57.51567468301063
 20
-23.07138655013351
 30
0.0
 11
-76.51567316301076
 21
-23.07138655013351
 31
0.0
  0
LINE
  5
223
330
1F
100
AcDbEntity
  8
0
100
AcDbLine
 10
-76.51567316301076
 20
-23.07138655013351
 30
0.0
 11
-76.51567316301076
 21
-17.47138699813349
 31
0.0
  0
LINE
  5
224
330
1F
100
AcDbEntity
  8
0
100
AcDbLine
 10
-76.51567316301076
 20
-17.47138699813349
 30
0.0
 11
-76.54974733399582
 21
-17.21256797373648
 31
0.0
  0
LINE
  5
225
330
1F
100
AcDbEntity
  8
0
100
AcDbLine
 10
-76.54974733399582
 20
-17.21256797373648
 30
0.0
 11
-76.64964774850836
 21
-16.97138703813346
 31
0.0
  0
LINE
  5
226
330
1F
100
AcDbEntity
  8
0
100
AcDbLine
 10
-76.64964774850836
 20
-16.97138703813346
 30
0.0
 11
-76.80856635839285
 21
-16.76428027351548
 31
0.0
  0
LINE
  5
227
330
1F
100
AcDbEntity
  8
0
100
AcDbLine
 10
-76.80856635839285
 20
-16.76428027351548
 30
0.0
 11
-77.01567312301084
 21
-16.60536166363108
 31
0.0
  0
LINE
  5
228
330
1F
100
AcDbEntity
  8
0
100
AcDbLine
 10
-77.01567312301084
 20
-16.60536166363108
 30
0.0
 11
-77.25685405861388
 21
-16.50546124911847
 31
0.0
  0
LINE
  5
229
330
1F
100
AcDbEntity
  8
0
100
AcDbLine
 10
-77.25685405861388
 20
-16.50546124911847
 30
0.0
 11
-77.51567308301073
 21
-16.47138707813349
 31
0.0
  0
LINE
  5
22A
330
1F
100
AcDbEntity
  8
0
100
AcDbLine
 10
-85.51567244301076
 20
-16.47138707813349
 30
0.0
 11
-77.51567308301073
 21
-16.47138707813349
 31
0.0
  0
LINE
  5
22B
330
1F
100
AcDbEntity
  8
0
100
AcDbLine
 10
-85.77449146740794
 20
-16.50546124911847
 30
0.0
 11
-85.51567244301076
 21
-16.47138707813349
 31
0.0
  0
LINE
  5
22C
330
1F
100
AcDbEntity
  8
0
100
AcDbLine
 10
-86.01567240301083
 20
-16.60536166363108
 30
0.0
 11
-85.77449146740794
 21
-16.50546124911847
 31
0.0
  0
LINE
  5
22D
330
1F
100
AcDbEntity
  8
0
100
AcDbLine
 10
-86.22277916762881
 20
-16.76428027351548
 30
0.0
 11
-86.01567240301083
 21
-16.60536166363108
 31
0.0
  0
LINE
  5
22E
330
1F
100
AcDbEntity
  8
0
100
AcDbLine
 10
-86.38169777751331
 20
-16.97138703813346
 30
0.0
 11
-86.22277916762881
 21
-16.76428027351548
 31
0.0
  0
LINE
  5
22F
330
1F
100
AcDbEntity
  8
0
100
AcDbLine
 10
-86.48159819202583
 20
-17.21256797373648
 30
0.0
 11
-86.38169777751331
 21
-16.97138703813346
 31
0.0
  0
LINE
  5
230
330
1F
100
AcDbEntity
  8
0
100
AcDbLine
 10
-86.5156723630109
 20
-17.47138699813349
 30
0.0
 11
-86.48159819202583
 21
-17.21256797373648
 31
0.0
  0
LINE
  5
231
330
1F
100
AcDbEntity
  8
0
100
AcDbLine
 10
-86.5156723630109
 20
-17.47138699813349
 30
0.0
 11
-86.5156723630109
 21
-23.07138655013351
 31
0.0
  0
LINE
  5
232
330
1F
100
AcDbEntity
  8
0
100
AcDbLine
 10
-86.5156723630109
 20
-23.07138655013351
 30
0.0
 11
-94.51567172301093
 21
-23.07138655013351
 31
0.0
  0
LINE
  5
233
330
1F
100
AcDbEntity
  8
0
100
AcDbLine
 10
-94.51567172301075
 20
-46.67138466213363
 30
0.0
 11
-94.51567172301093
 21
-23.07138655013351
 31
0.0
  0
LINE
  5
234
330
1F
100
AcDbEntity
  8
0
100
AcDbLine
 10
-86.31567237901058
 20
-46.67138466213363
 30
0.0
 11
-94.51567172301075
 21
-46.67138466213363
 31
0.0
  0
LINE
  5
235
330
1F
100
AcDbEntity
  8
0
100
AcDbLine
 10
-86.31567237901058
 20
-46.67138466213363
 30
0.0
 11
-86.31567237901058
 21
-52.2713842141337
 31
0.0
  0
LINE
  5
236
330
1F
100
AcDbEntity
  8
0
100
AcDbLine
 10
-86.31567237901058
 20
-52.2713842141337
 30
0.0
 11
-86.28159820802551
 21
-52.5302032385307
 31
0.0
  0
LINE
  5
237
330
1F
100
AcDbEntity
  8
0
100
AcDbLine
 10
-86.28159820802551
 20
-52.5302032385307
 30
0.0
 11
-86.18169779351298
 21
-52.77138417413372
 31
0.0
  0
LINE
  5
238
330
1F
100
AcDbEntity
  8
0
100
AcDbLine
 10
-86.18169779351298
 20
-52.77138417413372
 30
0.0
 11
-86.0227791836285
 21
-52.9784909387517
 31
0.0
  0
LINE
  5
239
330
1F
100
AcDbEntity
  8
0
100
AcDbLine
 10
-86.0227791836285
 20
-52.9784909387517
 30
0.0
 11
-85.81567241901051
 21
-53.1374095486361
 31
0.0
  0
LINE
  5
23A
330
1F
100
AcDbEntity
  8
0
100
AcDbLine
 10
-85.81567241901051
 20
-53.1374095486361
 30
0.0
 11
-85.57449148340764
 21
-53.23730996314872
 31
0.0
  0
LINE
  5
23B
330
1F
100
AcDbEntity
  8
0
100
AcDbLine
 10
-85.57449148340764
 20
-53.23730996314872
 30
0.0
 11
-85.31567245901044
 21
-53.2713841341337
 31
0.0
  0
LINE
  5
23C
330
1F
100
AcDbEntity
  8
0
100
AcDbLine
 10
-83.41048073365157
 20
-37.67138538213358
 30
0.0
 11
-83.41567261101086
 21
-31.07138591013355
 31
0.0
  0
LINE
  5
23D
330
1F
100
AcDbEntity
  8
0
100
AcDbLine
 10
-88.41047878661409
 20
-37.67531862134037
 30
0.0
 11
-83.41048073365157
 21
-37.67138538213358
 31
0.0
  0
LINE
  5
23E
330
1F
100
AcDbEntity
  8
0
100
AcDbLine
 10
-88.41567066236712
 20
-31.07532119142973
 30
0.0
 11
-88.41047878661409
 21
-37.67531862134037
 31
0.0
  0
LINE
  5
23F
330
1F
100
AcDbEntity
  8
0
100
AcDbLine
 10
-83.41567261101086
 20
-31.07138591013355
 30
0.0
 11
-88.41567066236712
 21
-31.07532119142973
 31
0.0
  0
LINE
  5
240
330
1F
100
AcDbEntity
  8
0
100
AcDbLine
 10
-91.41567197101072
 20
-40.61253942002924
 30
0.0
 11
-91.78846414732313
 21
-40.89859291782119
 31
0.0
  0
LINE
  5
241
330
1F
100
AcDbEntity
  8
0
100
AcDbLine
 10
-90.98154628692537
 20
-40.43271867390657
 30
0.0
 11
-91.41567197101072
 21
-40.61253942002924
 31
0.0
  0
LINE
  5
242
330
1F
100
AcDbEntity
  8
0
100
AcDbLine
 10
-90.51567204301074
 20
-40.37138516613357
 30
0.0
 11
-90.98154628692537
 21
-40.43271867390657
 31
0.0
  0
LINE
  5
243
330
1F
100
AcDbEntity
  8
0
100
AcDbLine
 10
-90.04979779909613
 20
-40.43271867390657
 30
0.0
 11
-90.51567204301074
 21
-40.37138516613357
 31
0.0
  0
LINE
  5
244
330
1F
100
AcDbEntity
  8
0
100
AcDbLine
 10
-89.61567211501058
 20
-40.61253942002924
 30
0.0
 11
-90.04979779909613
 21
-40.43271867390657
 31
0.0
  0
LINE
  5
245
330
1F
100
AcDbEntity
  8
0
100
AcDbLine
 10
-89.24287993869834
 20
-40.89859291782119
 30
0.0
 11
-89.61567211501058
 21
-40.61253942002924
 31
0.0
  0
LINE
  5
246
330
1F
100
AcDbEntity
  8
0
100
AcDbLine
 10
-88.95682644090634
 20
-41.2713850941336
 30
0.0
 11
-89.24287993869834
 21
-40.89859291782119
 31
0.0
  0
LINE
  5
247
330
1F
100
AcDbEntity
  8
0
100
AcDbLine
 10
-88.77700569478372
 20
-41.70551077821901
 30
0.0
 11
-88.95682644090634
 21
-41.2713850941336
 31
0.0
  0
LINE
  5
248
330
1F
100
AcDbEntity
  8
0
100
AcDbLine
 10
-88.71567218701078
 20
-42.17138502213363
 30
0.0
 11
-88.77700569478372
 21
-41.70551077821901
 31
0.0
  0
LINE
  5
249
330
1F
100
AcDbEntity
  8
0
100
AcDbLine
 10
-88.77700569478372
 20
-42.63725926604825
 30
0.0
 11
-88.71567218701078
 21
-42.17138502213363
 31
0.0
  0
LINE
  5
24A
330
1F
100
AcDbEntity
  8
0
100
AcDbLine
 10
-88.95682644090634
 20
-43.07138495013366
 30
0.0
 11
-88.77700569478372
 21
-42.63725926604825
 31
0.0
  0
LINE
  5
24B
330
1F
100
AcDbEntity
  8
0
100
AcDbLine
 10
-89.24287993869834
 20
-43.44417712644606
 30
0.0
 11
-88.95682644090634
 21
-43.07138495013366
 31
0.0
  0
LINE
  5
24C
330
1F
100
AcDbEntity
  8
0
100
AcDbLine
 10
-89.61567211501075
 20
-43.73023062423803
 30
0.0
 11
-89.24287993869834
 21
-43.44417712644606
 31
0.0
  0
LINE
  5
24D
330
1F
100
AcDbEntity
  8
0
100
AcDbLine
 10
-90.04979779909613
 20
-43.91005137036069
 30
0.0
 11
-89.61567211501075
 21
-43.73023062423803
 31
0.0
  0
LINE
  5
24E
330
1F
100
AcDbEntity
  8
0
100
AcDbLine
 10
-90.51567204301074
 20
-43.97138487813368
 30
0.0
 11
-90.04979779909613
 21
-43.91005137036069
 31
0.0
  0
LINE
  5
24F
330
1F
100
AcDbEntity
  8
0
100
AcDbLine
 10
-90.98154628692537
 20
-43.91005137036069
 30
0.0
 11
-90.51567204301074
 21
-43.97138487813368
 31
0.0
  0
LINE
  5
250
330
1F
100
AcDbEntity
  8
0
100
AcDbLine
 10
-91.41567197101091
 20
-43.73023062423803
 30
0.0
 11
-90.98154628692537
 21
-43.91005137036069
 31
0.0
  0
LINE
  5
251
330
1F
100
AcDbEntity
  8
0
100
AcDbLine
 10
-91.78846414732313
 20
-43.44417712644606
 30
0.0
 11
-91.41567197101091
 21
-43.73023062423803
 31
0.0
  0
LINE
  5
252
330
1F
100
AcDbEntity
  8
0
100
AcDbLine
 10
-92.07451764511514
 20
-43.07138495013366
 30
0.0
 11
-91.78846414732313
 21
-43.44417712644606
 31
0.0
  0
LINE
  5
253
330
1F
100
AcDbEntity
  8
0
100
AcDbLine
 10
-92.25433839123775
 20
-42.63725926604825
 30
0.0
 11
-92.07451764511514
 21
-43.07138495013366
 31
0.0
  0
LINE
  5
254
330
1F
100
AcDbEntity
  8
0
100
AcDbLine
 10
-92.31567189901071
 20
-42.17138502213363
 30
0.0
 11
-92.25433839123775
 21
-42.63725926604825
 31
0.0
  0
LINE
  5
255
330
1F
100
AcDbEntity
  8
0
100
AcDbLine
 10
-92.25433839123775
 20
-41.70551077821901
 30
0.0
 11
-92.31567189901071
 21
-42.17138502213363
 31
0.0
  0
LINE
  5
256
330
1F
100
AcDbEntity
  8
0
100
AcDbLine
 10
-92.07451764511514
 20
-41.2713850941336
 30
0.0
 11
-92.25433839123775
 21
-41.70551077821901
 31
0.0
  0
LINE
  5
257
330
1F
100
AcDbEntity
  8
0
100
AcDbLine
 10
-91.78846414732313
 20
-40.89859291782119
 30
0.0
 11
-92.07451764511514
 21
-41.2713850941336
 31
0.0
  0
LINE
  5
258
330
1F
100
AcDbEntity
  8
0
100
AcDbLine
 10
-44.78846790732305
 20
-40.89859291782119
 30
0.0
 11
-45.07452140511487
 21
-41.2713850941336
 31
0.0
  0
LINE
  5
259
330
1F
100
AcDbEntity
  8
0
100
AcDbLine
 10
-44.41567573101046
 20
-40.61253942002924
 30
0.0
 11
-44.78846790732305
 21
-40.89859291782119
 31
0.0
  0
LINE
  5
25A
330
1F
100
AcDbEntity
  8
0
100
AcDbLine
 10
-43.98155004692509
 20
-40.43271867390657
 30
0.0
 11
-44.41567573101046
 21
-40.61253942002924
 31
0.0
  0
LINE
  5
25B
330
1F
100
AcDbEntity
  8
0
100
AcDbLine
 10
-43.51567580301047
 20
-40.37138516613357
 30
0.0
 11
-43.98155004692509
 21
-40.43271867390657
 31
0.0
  0
LINE
  5
25C
330
1F
100
AcDbEntity
  8
0
100
AcDbLine
 10
-43.04980155909585
 20
-40.43271867390657
 30
0.0
 11
-43.51567580301047
 21
-40.37138516613357
 31
0.0
  0
LINE
  5
25D
330
1F
100
AcDbEntity
  8
0
100
AcDbLine
 10
-42.6156758750105
 20
-40.61253942002924
 30
0.0
 11
-43.04980155909585
 21
-40.43271867390657
 31
0.0
  0
LINE
  5
25E
330
1F
100
AcDbEntity
  8
0
100
AcDbLine
 10
-42.2428836986979
 20
-40.89859291782119
 30
0.0
 11
-42.6156758750105
 21
-40.61253942002924
 31
0.0
  0
LINE
  5
25F
330
1F
100
AcDbEntity
  8
0
100
AcDbLine
 10
-41.95683020090608
 20
-41.2713850941336
 30
0.0
 11
-42.2428836986979
 21
-40.89859291782119
 31
0.0
  0
LINE
  5
260
330
1F
100
AcDbEntity
  8
0
100
AcDbLine
 10
-41.77700945478346
 20
-41.70551077821901
 30
0.0
 11
-41.95683020090608
 21
-41.2713850941336
 31
0.0
  0
LINE
  5
261
330
1F
100
AcDbEntity
  8
0
100
AcDbLine
 10
-41.71567594701033
 20
-42.17138502213363
 30
0.0
 11
-41.77700945478346
 21
-41.70551077821901
 31
0.0
  0
LINE
  5
262
330
1F
100
AcDbEntity
  8
0
100
AcDbLine
 10
-41.77700945478346
 20
-42.63725926604825
 30
0.0
 11
-41.71567594701033
 21
-42.17138502213363
 31
0.0
  0
LINE
  5
263
330
1F
100
AcDbEntity
  8
0
100
AcDbLine
 10
-41.95683020090608
 20
-43.07138495013366
 30
0.0
 11
-41.77700945478346
 21
-42.63725926604825
 31
0.0
  0
LINE
  5
264
330
1F
100
AcDbEntity
  8
0
100
AcDbLine
 10
-42.2428836986979
 20
-43.44417712644606
 30
0.0
 11
-41.95683020090608
 21
-43.07138495013366
 31
0.0
  0
LINE
  5
265
330
1F
100
AcDbEntity
  8
0
100
AcDbLine
 10
-42.6156758750105
 20
-43.73023062423803
 30
0.0
 11
-42.2428836986979
 21
-43.44417712644606
 31
0.0
  0
LINE
  5
266
330
1F
100
AcDbEntity
  8
0
100
AcDbLine
 10
-43.04980155909585
 20
-43.91005137036069
 30
0.0
 11
-42.6156758750105
 21
-43.73023062423803
 31
0.0
  0
LINE
  5
267
330
1F
100
AcDbEntity
  8
0
100
AcDbLine
 10
-43.51567580301047
 20
-43.97138487813368
 30
0.0
 11
-43.04980155909585
 21
-43.91005137036069
 31
0.0
  0
LINE
  5
268
330
1F
100
AcDbEntity
  8
0
100
AcDbLine
 10
-43.98155004692509
 20
-43.91005137036069
 30
0.0
 11
-43.51567580301047
 21
-43.97138487813368
 31
0.0
  0
LINE
  5
269
330
1F
100
AcDbEntity
  8
0
100
AcDbLine
 10
-44.41567573101046
 20
-43.73023062423803
 30
0.0
 11
-43.98155004692509
 21
-43.91005137036069
 31
0.0
  0
LINE
  5
26A
330
1F
100
AcDbEntity
  8
0
100
AcDbLine
 10
-44.78846790732305
 20
-43.44417712644606
 30
0.0
 11
-44.41567573101046
 21
-43.73023062423803
 31
0.0
  0
LINE
  5
26B
330
1F
100
AcDbEntity
  8
0
100
AcDbLine
 10
-45.07452140511487
 20
-43.07138495013366
 30
0.0
 11
-44.78846790732305
 21
-43.44417712644606
 31
0.0
  0
LINE
  5
26C
330
1F
100
AcDbEntity
  8
0
100
AcDbLine
 10
-45.25434215123749
 20
-42.63725926604825
 30
0.0
 11
-45.07452140511487
 21
-43.07138495013366
 31
0.0
  0
LINE
  5
26D
330
1F
100
AcDbEntity
  8
0
100
AcDbLine
 10
-45.31567565901062
 20
-42.17138502213363
 30
0.0
 11
-45.25434215123749
 21
-42.63725926604825
 31
0.0
  0
LINE
  5
26E
330
1F
100
AcDbEntity
  8
0
100
AcDbLine
 10
-45.25434215123749
 20
-41.70551077821901
 30
0.0
 11
-45.31567565901062
 21
-42.17138502213363
 31
0.0
  0
LINE
  5
26F
330
1F
100
AcDbEntity
  8
0
100
AcDbLine
 10
-45.07452140511487
 20
-41.2713850941336
 30
0.0
 11
-45.25434215123749
 21
-41.70551077821901
 31
0.0
  0
LINE
  5
270
330
1F
100
AcDbEntity
  8
0
100
AcDbLine
 10
-48.62912675629968
 20
-79.51099289928241
 30
0.0
 11
-54.4116627048185
 21
-79.51099289928241
 31
0.0
  0
LINE
  5
271
330
1F
100
AcDbEntity
  8
0
100
AcDbLine
 10
64.99070091282167
 20
-33.443383815932
 30
0.0
 11
63.54361529920333
 21
-32.84398132885639
 31
0.0
  0
LINE
  5
272
330
1F
100
AcDbEntity
  8
0
100
AcDbLine
 10
29.39070376082123
 20
-18.53953743094628
 30
0.0
 11
84.39069936082134
 21
-18.53953743094628
 31
0.0
  0
LINE
  5
273
330
1F
100
AcDbEntity
  8
0
100
AcDbLine
 10
29.39070376082123
 20
-42.13953554294644
 30
0.0
 11
55.9907016328215
 21
-42.13953554294644
 31
0.0
  0
LINE
  5
274
330
1F
100
AcDbEntity
  8
0
100
AcDbLine
 10
17.63868605456336
 20
4.188257129482806
 30
0.0
 11
17.36236087602799
 21
4.568316343324782
 31
0.0
  0
LINE
  5
275
330
1F
100
AcDbEntity
  8
0
100
AcDbLine
 10
17.80722911815559
 20
3.749629900467434
 30
0.0
 11
17.63868605456336
 21
4.188257129482806
 31
0.0
  0
LINE
  5
276
330
1F
100
AcDbEntity
  8
0
100
AcDbLine
 10
10.9745667944089
 20
42.52883454474748
 30
0.0
 11
10.91323328663596
 21
42.99470878866209
 31
0.0
  0
LINE
  5
277
330
1F
100
AcDbEntity
  8
0
100
AcDbLine
 10
10.91323328663596
 20
42.06296030083285
 30
0.0
 11
10.9745667944089
 21
42.52883454474748
 31
0.0
  0
LINE
  5
278
330
1F
100
AcDbEntity
  8
0
100
AcDbLine
 10
10.73341254051316
 20
41.6288346167475
 30
0.0
 11
10.91323328663596
 21
42.06296030083285
 31
0.0
  0
LINE
  5
279
330
1F
100
AcDbEntity
  8
0
100
AcDbLine
 10
10.44735904272133
 20
41.25604244043508
 30
0.0
 11
10.73341254051316
 21
41.6288346167475
 31
0.0
  0
LINE
  5
27A
330
1F
100
AcDbEntity
  8
0
100
AcDbLine
 10
10.07456686640892
 20
40.96998894264316
 30
0.0
 11
10.44735904272133
 21
41.25604244043508
 31
0.0
  0
LINE
  5
27B
330
1F
100
AcDbEntity
  8
0
100
AcDbLine
 10
9.640441182323563
 20
40.79016819652055
 30
0.0
 11
10.07456686640892
 21
40.96998894264316
 31
0.0
  0
LINE
  5
27C
330
1F
100
AcDbEntity
  8
0
100
AcDbLine
 10
10.73341254051316
 20
10.02883714474784
 30
0.0
 11
10.44735904272133
 21
10.40162932106025
 31
0.0
  0
LINE
  5
27D
330
1F
100
AcDbEntity
  8
0
100
AcDbLine
 10
10.44735904272133
 20
10.40162932106025
 30
0.0
 11
10.07456686640892
 21
10.68768281885217
 31
0.0
  0
LINE
  5
27E
330
1F
100
AcDbEntity
  8
0
100
AcDbLine
 10
10.07456686640892
 20
10.68768281885217
 30
0.0
 11
9.640441182323563
 21
10.86750356497483
 31
0.0
  0
LINE
  5
27F
330
1F
100
AcDbEntity
  8
0
100
AcDbLine
 10
9.640441182323563
 20
10.86750356497483
 30
0.0
 11
9.17456693840894
 21
10.92883707274782
 31
0.0
  0
LINE
  5
280
330
1F
100
AcDbEntity
  8
0
100
AcDbLine
 10
78.83185407871713
 20
-38.53953583094642
 30
0.0
 11
79.11790757650876
 21
-38.91232800725883
 31
0.0
  0
LINE
  5
281
330
1F
100
AcDbEntity
  8
0
100
AcDbLine
 10
-88.06324932038544
 20
-82.27232619105538
 30
0.0
 11
-88.52912356429988
 21
-82.2109926832824
 31
0.0
  0
LINE
  5
282
330
1F
100
AcDbEntity
  8
0
100
AcDbLine
 10
-87.62912363629991
 20
-82.45214693717806
 30
0.0
 11
-88.06324932038544
 21
-82.27232619105538
 31
0.0
  0
LINE
  5
283
330
1F
100
AcDbEntity
  8
0
100
AcDbLine
 10
-87.25633145998749
 20
-82.73820043497001
 30
0.0
 11
-87.62912363629991
 21
-82.45214693717806
 31
0.0
  0
LINE
  5
284
330
1F
100
AcDbEntity
  8
0
100
AcDbLine
 10
-84.32912390029973
 20
-88.51099217928245
 30
0.0
 11
-84.32912390029973
 21
-94.11099173128252
 31
0.0
  0
LINE
  5
285
330
1F
100
AcDbEntity
  8
0
100
AcDbLine
 10
-69.45092384027214
 20
-94.36981075567954
 30
0.0
 11
-69.41684966928706
 21
-94.11099173128252
 31
0.0
  0
LINE
  5
286
330
1F
100
AcDbEntity
  8
0
100
AcDbLine
 10
-45.82202019968191
 20
-58.6038877906643
 30
0.0
 11
-46.0291269642999
 21
-58.44496918077991
 31
0.0
  0
LINE
  5
287
330
1F
100
AcDbEntity
  8
0
100
AcDbLine
 10
-69.55082425478449
 20
-94.61099169128255
 30
0.0
 11
-69.45092384027214
 21
-94.36981075567954
 31
0.0
  0
LINE
  5
288
330
1F
100
AcDbEntity
  8
0
100
AcDbLine
 10
-55.49505203331489
 20
-59.0521754908853
 30
0.0
 11
-55.52912620429996
 21
-59.31099451528232
 31
0.0
  0
LINE
  5
289
330
1F
100
AcDbEntity
  8
0
100
AcDbLine
 10
-70.41684958928703
 20
-95.11099165128253
 30
0.0
 11
-83.32912398029977
 21
-95.11099165128253
 31
0.0
  0
LINE
  5
28A
330
1F
100
AcDbEntity
  8
0
100
AcDbLine
 10
-43.32912718029977
 20
-84.01099253928246
 30
0.0
 11
-43.26779367252664
 21
-84.47686678319708
 31
0.0
  0
LINE
  5
28B
330
1F
100
AcDbEntity
  8
0
100
AcDbLine
 10
-43.26779367252664
 20
-83.54511829536784
 30
0.0
 11
-43.32912718029977
 21
-84.01099253928246
 31
0.0
  0
LINE
  5
28C
330
1F
100
AcDbEntity
  8
0
100
AcDbLine
 10
16.99708468681785
 20
4.863907134647538
 30
0.0
 11
16.56775045558004
 21
5.054885479509333
 31
0.0
  0
LINE
  5
28D
330
1F
100
AcDbEntity
  8
0
100
AcDbLine
 10
14.32938611556623
 20
48.83379537803258
 30
0.0
 11
14.2575631183011
 21
48.36942261033117
 31
0.0
  0
LINE
  5
28E
330
1F
100
AcDbEntity
  8
0
100
AcDbLine
 10
-27.50173694511895
 20
43.42883447274935
 30
0.0
 11
-27.68155769124157
 21
42.99470878866381
 31
0.0
  0
LINE
  5
28F
330
1F
100
AcDbEntity
  8
0
100
AcDbLine
 10
17.80583464734295
 20
48.75538436008444
 30
0.0
 11
17.6358488036998
 21
49.19345447237201
 31
0.0
  0
LINE
  5
290
330
1F
100
AcDbEntity
  8
0
100
AcDbLine
 10
-22.39218747155476
 20
27.87883571674909
 30
0.0
 11
-23.04375377208065
 21
28.7279734516829
 31
0.0
  0
LINE
  5
291
330
1F
100
AcDbEntity
  8
0
100
AcDbLine
 10
15.19768584825252
 20
4.910418438326406
 30
0.0
 11
14.81762663441055
 21
4.634093259791086
 31
0.0
  0
LINE
  5
292
330
1F
100
AcDbEntity
  8
0
100
AcDbLine
 10
-33.94289070301423
 20
-0.7211619952511371
 30
0.0
 11
-27.64116108827199
 21
-0.721161995251092
 31
0.0
  0
LINE
  5
293
330
1F
100
AcDbEntity
  8
0
100
AcDbLine
 10
-23.0414686712204
 20
52.37883375674927
 30
0.0
 11
-13.54289233501513
 21
52.37883375674927
 31
0.0
  0
LINE
  5
294
330
1F
100
AcDbEntity
  8
0
100
AcDbLine
 10
-27.21568344732695
 20
7.856045112436504
 30
0.0
 11
-26.84289127101471
 21
7.569991614644547
 31
0.0
  0
LINE
  5
295
330
1F
100
AcDbEntity
  8
0
100
AcDbLine
 10
-21.84289167101456
 20
25.82883588074917
 30
0.0
 11
-21.98259577205298
 21
26.88999388077684
 31
0.0
  0
LINE
  5
296
330
1F
100
AcDbEntity
  8
0
100
AcDbLine
 10
-55.02912624429972
 20
-58.44496918077991
 30
0.0
 11
-55.2362330089177
 21
-58.6038877906643
 31
0.0
  0
LINE
  5
297
330
1F
100
AcDbEntity
  8
0
100
AcDbLine
 10
-13.54289233501513
 20
52.37883375674927
 30
0.0
 11
-13.54289233501531
 21
57.37883335674925
 31
0.0
  0
LINE
  5
298
330
1F
100
AcDbEntity
  8
0
100
AcDbLine
 10
-23.0414686712204
 20
57.37883335674915
 30
0.0
 11
-23.0414686712204
 21
52.37883375674927
 31
0.0
  0
LINE
  5
299
330
1F
100
AcDbEntity
  8
0
100
AcDbLine
 10
-23.07554284220529
 20
57.63765238114616
 30
0.0
 11
-23.0414686712204
 21
57.37883335674915
 31
0.0
  0
LINE
  5
29A
330
1F
100
AcDbEntity
  8
0
100
AcDbLine
 10
-23.17544325671799
 20
57.87883331674914
 30
0.0
 11
-23.07554284220529
 21
57.63765238114616
 31
0.0
  0
LINE
  5
29B
330
1F
100
AcDbEntity
  8
0
100
AcDbLine
 10
-23.3343618666023
 20
58.08594008136712
 30
0.0
 11
-23.17544325671799
 21
57.87883331674914
 31
0.0
  0
LINE
  5
29C
330
1F
100
AcDbEntity
  8
0
100
AcDbLine
 10
-23.54146863122029
 20
58.2448586912516
 30
0.0
 11
-23.3343618666023
 21
58.08594008136712
 31
0.0
  0
LINE
  5
29D
330
1F
100
AcDbEntity
  8
0
100
AcDbLine
 10
-23.78264956682334
 20
58.34475910576413
 30
0.0
 11
-23.54146863122029
 21
58.2448586912516
 31
0.0
  0
LINE
  5
29E
330
1F
100
AcDbEntity
  8
0
100
AcDbLine
 10
-24.04146859122036
 20
58.37883327674921
 30
0.0
 11
-23.78264956682334
 21
58.34475910576413
 31
0.0
  0
LINE
  5
29F
330
1F
100
AcDbEntity
  8
0
100
AcDbLine
 10
-26.6411611682724
 20
58.37883327674921
 30
0.0
 11
-24.04146859122036
 21
58.37883327674921
 31
0.0
  0
LINE
  5
2A0
330
1F
100
AcDbEntity
  8
0
100
AcDbLine
 10
-26.6411611682724
 20
58.37883327674921
 30
0.0
 11
-26.89998019266941
 21
58.34475910576413
 31
0.0
  0
LINE
  5
2A1
330
1F
100
AcDbEntity
  8
0
100
AcDbLine
 10
-26.89998019266941
 20
58.34475910576413
 30
0.0
 11
-27.14116112827247
 21
58.2448586912516
 31
0.0
  0
LINE
  5
2A2
330
1F
100
AcDbEntity
  8
0
100
AcDbLine
 10
-27.14116112827247
 20
58.2448586912516
 30
0.0
 11
-27.34826789289045
 21
58.08594008136712
 31
0.0
  0
LINE
  5
2A3
330
1F
100
AcDbEntity
  8
0
100
AcDbLine
 10
-27.34826789289045
 20
58.08594008136712
 30
0.0
 11
-27.50718650277476
 21
57.87883331674914
 31
0.0
  0
LINE
  5
2A4
330
1F
100
AcDbEntity
  8
0
100
AcDbLine
 10
-27.50718650277476
 20
57.87883331674914
 30
0.0
 11
-27.60708691728747
 21
57.63765238114616
 31
0.0
  0
LINE
  5
2A5
330
1F
100
AcDbEntity
  8
0
100
AcDbLine
 10
-27.60708691728747
 20
57.63765238114616
 30
0.0
 11
-27.64116108827236
 21
57.37883335674915
 31
0.0
  0
LINE
  5
2A6
330
1F
100
AcDbEntity
  8
0
100
AcDbLine
 10
-27.64116108827236
 20
52.37883375674927
 30
0.0
 11
-27.64116108827236
 21
57.37883335674915
 31
0.0
  0
LINE
  5
2A7
330
1F
100
AcDbEntity
  8
0
100
AcDbLine
 10
-33.94289070301423
 20
52.3788337567491
 30
0.0
 11
-27.64116108827236
 21
52.37883375674927
 31
0.0
  0
LINE
  5
2A8
330
1F
100
AcDbEntity
  8
0
100
AcDbLine
 10
-33.94289070301423
 20
33.31792137599915
 30
0.0
 11
-33.94289070301423
 21
52.3788337567491
 31
0.0
  0
LINE
  5
2A9
330
1F
100
AcDbEntity
  8
0
100
AcDbLine
 10
-36.94289046301465
 20
30.31792161599909
 30
0.0
 11
-33.94289070301423
 21
33.31792137599915
 31
0.0
  0
LINE
  5
2AA
330
1F
100
AcDbEntity
  8
0
100
AcDbLine
 10
-36.94289046301465
 20
30.31792161599909
 30
0.0
 11
-36.94289046301465
 21
25.85688256091736
 31
0.0
  0
LINE
  5
2AB
330
1F
100
AcDbEntity
  8
0
100
AcDbLine
 10
-36.94289046301465
 20
25.85688256091736
 30
0.0
 11
-36.94658287850783
 21
25.82883588074917
 31
0.0
  0
LINE
  5
2AC
330
1F
100
AcDbEntity
  8
0
100
AcDbLine
 10
-36.94658287850783
 20
25.82883588074917
 30
0.0
 11
-36.94289046301465
 21
25.80078920058082
 31
0.0
  0
LINE
  5
2AD
330
1F
100
AcDbEntity
  8
0
100
AcDbLine
 10
-36.94289046301465
 20
25.80078920058082
 30
0.0
 11
-36.94289046301465
 21
21.33975014549864
 31
0.0
  0
LINE
  5
2AE
330
1F
100
AcDbEntity
  8
0
100
AcDbLine
 10
-36.94289046301465
 20
21.33975014549864
 30
0.0
 11
-33.94289070301423
 21
18.33975038549858
 31
0.0
  0
LINE
  5
2AF
330
1F
100
AcDbEntity
  8
0
100
AcDbLine
 10
-33.94289070301423
 20
-0.7211619952511371
 30
0.0
 11
-33.94289070301423
 21
18.33975038549858
 31
0.0
  0
LINE
  5
2B0
330
1F
100
AcDbEntity
  8
0
100
AcDbLine
 10
-27.64116108827199
 20
-0.721161995251092
 30
0.0
 11
-27.63722722903332
 21
-5.721948243092652
 31
0.0
  0
LINE
  5
2B1
330
1F
100
AcDbEntity
  8
0
100
AcDbLine
 10
-27.63722722903332
 20
-5.721948243092652
 30
0.0
 11
-27.602983493703
 21
-5.980613766945167
 31
0.0
  0
LINE
  5
2B2
330
1F
100
AcDbEntity
  8
0
100
AcDbLine
 10
-27.602983493703
 20
-5.980613766945167
 30
0.0
 11
-27.50299061789013
 21
-6.221615657862999
 31
0.0
  0
LINE
  5
2B3
330
1F
100
AcDbEntity
  8
0
100
AcDbLine
 10
-27.50299061789013
 20
-6.221615657862999
 30
0.0
 11
-27.34405616632984
 21
-6.428546387206269
 31
0.0
  0
LINE
  5
2B4
330
1F
100
AcDbEntity
  8
0
100
AcDbLine
 10
-27.34405616632984
 20
-6.428546387206269
 30
0.0
 11
-27.13700047555932
 21
-6.587318007966512
 31
0.0
  0
LINE
  5
2B5
330
1F
100
AcDbEntity
  8
0
100
AcDbLine
 10
-27.13700047555932
 20
-6.587318007966512
 30
0.0
 11
-26.89592000002295
 21
-6.687121269208381
 31
0.0
  0
LINE
  5
2B6
330
1F
100
AcDbEntity
  8
0
100
AcDbLine
 10
-26.89592000002295
 20
-6.687121269208381
 30
0.0
 11
-26.63722761844096
 21
-6.721161515251301
 31
0.0
  0
LINE
  5
2B7
330
1F
100
AcDbEntity
  8
0
100
AcDbLine
 10
-24.04289149501425
 20
-6.721161515251617
 30
0.0
 11
-26.63722761844096
 21
-6.721161515251301
 31
0.0
  0
LINE
  5
2B8
330
1F
100
AcDbEntity
  8
0
100
AcDbLine
 10
-24.04289149501425
 20
-6.721161515251617
 30
0.0
 11
-23.78407247061724
 21
-6.687087344266636
 31
0.0
  0
LINE
  5
2B9
330
1F
100
AcDbEntity
  8
0
100
AcDbLine
 10
-23.78407247061724
 20
-6.687087344266636
 30
0.0
 11
-23.54289153501418
 21
-6.587186929754064
 31
0.0
  0
LINE
  5
2BA
330
1F
100
AcDbEntity
  8
0
100
AcDbLine
 10
-23.54289153501418
 20
-6.587186929754064
 30
0.0
 11
-23.3357847703962
 21
-6.428268319869669
 31
0.0
  0
LINE
  5
2BB
330
1F
100
AcDbEntity
  8
0
100
AcDbLine
 10
-23.3357847703962
 20
-6.428268319869669
 30
0.0
 11
-23.17686616051171
 21
-6.221161555251636
 31
0.0
  0
LINE
  5
2BC
330
1F
100
AcDbEntity
  8
0
100
AcDbLine
 10
-23.17686616051171
 20
-6.221161555251636
 30
0.0
 11
-23.076965745999
 21
-5.979980619648623
 31
0.0
  0
LINE
  5
2BD
330
1F
100
AcDbEntity
  8
0
100
AcDbLine
 10
-23.076965745999
 20
-5.979980619648623
 30
0.0
 11
-23.04289157501411
 21
-5.721161595251612
 31
0.0
  0
LINE
  5
2BE
330
1F
100
AcDbEntity
  8
0
100
AcDbLine
 10
-23.04289157501411
 20
-0.7211619952511371
 30
0.0
 11
-23.04289157501411
 21
-5.721161595251612
 31
0.0
  0
LINE
  5
2BF
330
1F
100
AcDbEntity
  8
0
100
AcDbLine
 10
-23.04289157501411
 20
-0.7211619952511371
 30
0.0
 11
-13.5428923350144
 21
-0.7211619952510018
 31
0.0
  0
LINE
  5
2C0
330
1F
100
AcDbEntity
  8
0
100
AcDbLine
 10
-13.5428923350144
 20
-5.72116159525107
 30
0.0
 11
-13.5428923350144
 21
-0.7211619952510018
 31
0.0
  0
LINE
  5
2C1
330
1F
100
AcDbEntity
  8
0
100
AcDbLine
 10
-13.5428923350144
 20
-5.72116159525107
 30
0.0
 11
-13.50881816402951
 21
-5.979980619648082
 31
0.0
  0
LINE
  5
2C2
330
1F
100
AcDbEntity
  8
0
100
AcDbLine
 10
-13.50881816402951
 20
-5.979980619648082
 30
0.0
 11
-13.4089177495168
 21
-6.22116155525105
 31
0.0
  0
LINE
  5
2C3
330
1F
100
AcDbEntity
  8
0
100
AcDbLine
 10
-13.4089177495168
 20
-6.22116155525105
 30
0.0
 11
-13.2499991396325
 21
-6.428268319869082
 31
0.0
  0
LINE
  5
2C4
330
1F
100
AcDbEntity
  8
0
100
AcDbLine
 10
-13.2499991396325
 20
-6.428268319869082
 30
0.0
 11
-13.04289237501451
 21
-6.587186929753477
 31
0.0
  0
LINE
  5
2C5
330
1F
100
AcDbEntity
  8
0
100
AcDbLine
 10
-13.04289237501451
 20
-6.587186929753477
 30
0.0
 11
-12.80171143941146
 21
-6.687087344266094
 31
0.0
  0
LINE
  5
2C6
330
1F
100
AcDbEntity
  8
0
100
AcDbLine
 10
-12.80171143941146
 20
-6.687087344266094
 30
0.0
 11
-12.54289241501444
 21
-6.721161515251075
 31
0.0
  0
LINE
  5
2C7
330
1F
100
AcDbEntity
  8
0
100
AcDbLine
 10
8.757105880986085
 20
-6.721161515251707
 30
0.0
 11
-12.54289241501444
 21
-6.721161515251075
 31
0.0
  0
LINE
  5
2C8
330
1F
100
AcDbEntity
  8
0
100
AcDbLine
 10
9.015924905383097
 20
-6.687087344266725
 30
0.0
 11
8.757105880986085
 21
-6.721161515251707
 31
0.0
  0
LINE
  5
2C9
330
1F
100
AcDbEntity
  8
0
100
AcDbLine
 10
9.257105840986155
 20
-6.587186929754109
 30
0.0
 11
9.015924905383097
 21
-6.687087344266725
 31
0.0
  0
LINE
  5
2CA
330
1F
100
AcDbEntity
  8
0
100
AcDbLine
 10
9.46421260560414
 20
-6.428268319869714
 30
0.0
 11
9.257105840986155
 21
-6.587186929754109
 31
0.0
  0
LINE
  5
2CB
330
1F
100
AcDbEntity
  8
0
100
AcDbLine
 10
9.623131215488446
 20
-6.221161555251727
 30
0.0
 11
9.46421260560414
 21
-6.428268319869714
 31
0.0
  0
LINE
  5
2CC
330
1F
100
AcDbEntity
  8
0
100
AcDbLine
 10
9.723031630001152
 20
-5.979980619648714
 30
0.0
 11
9.623131215488446
 21
-6.221161555251727
 31
0.0
  0
LINE
  5
2CD
330
1F
100
AcDbEntity
  8
0
100
AcDbLine
 10
9.757105800986043
 20
-5.721161595251702
 30
0.0
 11
9.723031630001152
 21
-5.979980619648714
 31
0.0
  0
LINE
  5
2CE
330
1F
100
AcDbEntity
  8
0
100
AcDbLine
 10
9.757105800986043
 20
-0.7211619952507311
 30
0.0
 11
9.757105800986043
 21
-5.721161595251702
 31
0.0
  0
LINE
  5
2CF
330
1F
100
AcDbEntity
  8
0
100
AcDbLine
 10
21.05710489698626
 20
-0.7211619952507311
 30
0.0
 11
9.757105800986043
 21
-0.7211619952507311
 31
0.0
  0
LINE
  5
2D0
330
1F
100
AcDbEntity
  8
0
100
AcDbLine
 10
21.05710489698626
 20
52.37883375674964
 30
0.0
 11
21.05710489698626
 21
-0.7211619952507311
 31
0.0
  0
LINE
  5
2D1
330
1F
100
AcDbEntity
  8
0
100
AcDbLine
 10
21.05710489698626
 20
52.37883375674964
 30
0.0
 11
9.757105800986043
 21
52.37883375674964
 31
0.0
  0
LINE
  5
2D2
330
1F
100
AcDbEntity
  8
0
100
AcDbLine
 10
9.757105800986043
 20
57.37883335674952
 30
0.0
 11
9.723031630001152
 21
57.63765238114652
 31
0.0
  0
LINE
  5
2D3
330
1F
100
AcDbEntity
  8
0
100
AcDbLine
 10
9.723031630001152
 20
57.63765238114652
 30
0.0
 11
9.623131215488446
 21
57.8788333167495
 31
0.0
  0
LINE
  5
2D4
330
1F
100
AcDbEntity
  8
0
100
AcDbLine
 10
9.623131215488446
 20
57.8788333167495
 30
0.0
 11
9.46421260560414
 21
58.08594008136757
 31
0.0
  0
LINE
  5
2D5
330
1F
100
AcDbEntity
  8
0
100
AcDbLine
 10
9.46421260560414
 20
58.08594008136757
 30
0.0
 11
9.257105840986155
 21
58.24485869125196
 31
0.0
  0
LINE
  5
2D6
330
1F
100
AcDbEntity
  8
0
100
AcDbLine
 10
9.257105840986155
 20
58.24485869125196
 30
0.0
 11
9.015924905383097
 21
58.34475910576449
 31
0.0
  0
LINE
  5
2D7
330
1F
100
AcDbEntity
  8
0
100
AcDbLine
 10
9.015924905383097
 20
58.34475910576449
 30
0.0
 11
8.757105880986085
 21
58.37883327674957
 31
0.0
  0
LINE
  5
2D8
330
1F
100
AcDbEntity
  8
0
100
AcDbLine
 10
-12.54289241501535
 20
58.3788332767493
 30
0.0
 11
8.757105880986085
 21
58.37883327674957
 31
0.0
  0
LINE
  5
2D9
330
1F
100
AcDbEntity
  8
0
100
AcDbLine
 10
-12.80171143941236
 20
58.34475910576422
 30
0.0
 11
-12.54289241501535
 21
58.3788332767493
 31
0.0
  0
LINE
  5
2DA
330
1F
100
AcDbEntity
  8
0
100
AcDbLine
 10
-13.04289237501542
 20
58.2448586912516
 30
0.0
 11
-12.80171143941236
 21
58.34475910576422
 31
0.0
  0
LINE
  5
2DB
330
1F
100
AcDbEntity
  8
0
100
AcDbLine
 10
-13.2499991396334
 20
58.08594008136721
 30
0.0
 11
-13.04289237501542
 21
58.2448586912516
 31
0.0
  0
LINE
  5
2DC
330
1F
100
AcDbEntity
  8
0
100
AcDbLine
 10
-13.40891774951771
 20
57.87883331674923
 30
0.0
 11
-13.2499991396334
 21
58.08594008136721
 31
0.0
  0
LINE
  5
2DD
330
1F
100
AcDbEntity
  8
0
100
AcDbLine
 10
-13.50881816403041
 20
57.63765238114625
 30
0.0
 11
-13.40891774951771
 21
57.87883331674923
 31
0.0
  0
LINE
  5
2DE
330
1F
100
AcDbEntity
  8
0
100
AcDbLine
 10
-13.54289233501531
 20
57.37883335674925
 30
0.0
 11
-13.50881816403041
 21
57.63765238114625
 31
0.0
  0
LINE
  5
2DF
330
1F
100
AcDbEntity
  8
0
100
AcDbLine
 10
8.70869269449432
 20
40.79016819652055
 30
0.0
 11
9.17456693840894
 21
40.72883468874751
 31
0.0
  0
LINE
  5
2E0
330
1F
100
AcDbEntity
  8
0
100
AcDbLine
 10
8.27456701040896
 20
40.96998894264316
 30
0.0
 11
8.70869269449432
 21
40.79016819652055
 31
0.0
  0
LINE
  5
2E1
330
1F
100
AcDbEntity
  8
0
100
AcDbLine
 10
7.901774834096549
 20
41.25604244043508
 30
0.0
 11
8.27456701040896
 21
40.96998894264316
 31
0.0
  0
LINE
  5
2E2
330
1F
100
AcDbEntity
  8
0
100
AcDbLine
 10
7.615721336304726
 20
41.6288346167475
 30
0.0
 11
7.901774834096549
 21
41.25604244043508
 31
0.0
  0
LINE
  5
2E3
330
1F
100
AcDbEntity
  8
0
100
AcDbLine
 10
7.435900590181927
 20
42.06296030083285
 30
0.0
 11
7.615721336304726
 21
41.6288346167475
 31
0.0
  0
LINE
  5
2E4
330
1F
100
AcDbEntity
  8
0
100
AcDbLine
 10
7.374567082408979
 20
42.52883454474748
 30
0.0
 11
7.435900590181927
 21
42.06296030083285
 31
0.0
  0
LINE
  5
2E5
330
1F
100
AcDbEntity
  8
0
100
AcDbLine
 10
7.435900590181927
 20
42.99470878866209
 30
0.0
 11
7.374567082408979
 21
42.52883454474748
 31
0.0
  0
LINE
  5
2E6
330
1F
100
AcDbEntity
  8
0
100
AcDbLine
 10
7.615721336304726
 20
43.42883447274745
 30
0.0
 11
7.435900590181927
 21
42.99470878866209
 31
0.0
  0
LINE
  5
2E7
330
1F
100
AcDbEntity
  8
0
100
AcDbLine
 10
7.901774834096549
 20
43.80162664905986
 30
0.0
 11
7.615721336304726
 21
43.42883447274745
 31
0.0
  0
LINE
  5
2E8
330
1F
100
AcDbEntity
  8
0
100
AcDbLine
 10
8.27456701040896
 20
44.08768014685178
 30
0.0
 11
7.901774834096549
 21
43.80162664905986
 31
0.0
  0
LINE
  5
2E9
330
1F
100
AcDbEntity
  8
0
100
AcDbLine
 10
8.70869269449432
 20
44.2675008929744
 30
0.0
 11
8.27456701040896
 21
44.08768014685178
 31
0.0
  0
LINE
  5
2EA
330
1F
100
AcDbEntity
  8
0
100
AcDbLine
 10
9.17456693840894
 20
44.32883440074743
 30
0.0
 11
8.70869269449432
 21
44.2675008929744
 31
0.0
  0
LINE
  5
2EB
330
1F
100
AcDbEntity
  8
0
100
AcDbLine
 10
9.554354613646865
 20
44.27883440474943
 30
0.0
 11
9.17456693840894
 21
44.32883440074743
 31
0.0
  0
LINE
  5
2EC
330
1F
100
AcDbEntity
  8
0
100
AcDbLine
 10
10.07456686640892
 20
44.08768014685178
 30
0.0
 11
9.554354613646865
 21
44.27883440474943
 31
0.0
  0
LINE
  5
2ED
330
1F
100
AcDbEntity
  8
0
100
AcDbLine
 10
10.44735904272133
 20
43.80162664905986
 30
0.0
 11
10.07456686640892
 21
44.08768014685178
 31
0.0
  0
LINE
  5
2EE
330
1F
100
AcDbEntity
  8
0
100
AcDbLine
 10
10.73341254051316
 20
43.42883447274745
 30
0.0
 11
10.44735904272133
 21
43.80162664905986
 31
0.0
  0
LINE
  5
2EF
330
1F
100
AcDbEntity
  8
0
100
AcDbLine
 10
10.91323328663596
 20
42.99470878866209
 30
0.0
 11
10.73341254051316
 21
43.42883447274745
 31
0.0
  0
LINE
  5
2F0
330
1F
100
AcDbEntity
  8
0
100
AcDbLine
 10
9.17456693840894
 20
40.72883468874751
 30
0.0
 11
9.640441182323563
 21
40.79016819652055
 31
0.0
  0
LINE
  5
2F1
330
1F
100
AcDbEntity
  8
0
100
AcDbLine
 10
-21.98259577205298
 20
26.88999388077684
 30
0.0
 11
-22.39218747155476
 21
27.87883571674909
 31
0.0
  0
LINE
  5
2F2
330
1F
100
AcDbEntity
  8
0
100
AcDbLine
 10
-21.98259577205298
 20
24.76767788072152
 30
0.0
 11
-21.84289167101456
 21
25.82883588074917
 31
0.0
  0
LINE
  5
2F3
330
1F
100
AcDbEntity
  8
0
100
AcDbLine
 10
-22.39218747155476
 20
23.77883604474905
 30
0.0
 11
-21.98259577205298
 21
24.76767788072152
 31
0.0
  0
LINE
  5
2F4
330
1F
100
AcDbEntity
  8
0
100
AcDbLine
 10
-23.04375377208065
 20
22.92969830981523
 30
0.0
 11
-22.39218747155476
 21
23.77883604474905
 31
0.0
  0
LINE
  5
2F5
330
1F
100
AcDbEntity
  8
0
100
AcDbLine
 10
-23.89289150701464
 20
22.27813200928912
 30
0.0
 11
-23.04375377208065
 21
22.92969830981523
 31
0.0
  0
LINE
  5
2F6
330
1F
100
AcDbEntity
  8
0
100
AcDbLine
 10
-24.88173334298689
 20
21.86854030978752
 30
0.0
 11
-23.89289150701464
 21
22.27813200928912
 31
0.0
  0
LINE
  5
2F7
330
1F
100
AcDbEntity
  8
0
100
AcDbLine
 10
-25.94289134301455
 20
21.72883620874891
 30
0.0
 11
-24.88173334298689
 21
21.86854030978752
 31
0.0
  0
LINE
  5
2F8
330
1F
100
AcDbEntity
  8
0
100
AcDbLine
 10
-30.04289101501455
 20
25.82883588074917
 30
0.0
 11
-29.90318691397611
 21
24.76767788072152
 31
0.0
  0
LINE
  5
2F9
330
1F
100
AcDbEntity
  8
0
100
AcDbLine
 10
-29.90318691397611
 20
26.88999388077684
 30
0.0
 11
-30.04289101501455
 21
25.82883588074917
 31
0.0
  0
LINE
  5
2FA
330
1F
100
AcDbEntity
  8
0
100
AcDbLine
 10
-29.49359521447434
 20
27.87883571674909
 30
0.0
 11
-29.90318691397611
 21
26.88999388077684
 31
0.0
  0
LINE
  5
2FB
330
1F
100
AcDbEntity
  8
0
100
AcDbLine
 10
-28.84202891394846
 20
28.7279734516829
 30
0.0
 11
-29.49359521447434
 21
27.87883571674909
 31
0.0
  0
LINE
  5
2FC
330
1F
100
AcDbEntity
  8
0
100
AcDbLine
 10
-27.99289117901446
 20
29.37953975220879
 30
0.0
 11
-28.84202891394846
 21
28.7279734516829
 31
0.0
  0
LINE
  5
2FD
330
1F
100
AcDbEntity
  8
0
100
AcDbLine
 10
-27.00404934304221
 20
29.78913145171039
 30
0.0
 11
-27.99289117901446
 21
29.37953975220879
 31
0.0
  0
LINE
  5
2FE
330
1F
100
AcDbEntity
  8
0
100
AcDbLine
 10
-25.94289134301455
 20
29.928835552749
 30
0.0
 11
-27.00404934304221
 21
29.78913145171039
 31
0.0
  0
LINE
  5
2FF
330
1F
100
AcDbEntity
  8
0
100
AcDbLine
 10
-24.88173334298689
 20
29.78913145171039
 30
0.0
 11
-25.94289134301455
 21
29.928835552749
 31
0.0
  0
LINE
  5
300
330
1F
100
AcDbEntity
  8
0
100
AcDbLine
 10
-23.89289150701464
 20
29.37953975220879
 30
0.0
 11
-24.88173334298689
 21
29.78913145171039
 31
0.0
  0
LINE
  5
301
330
1F
100
AcDbEntity
  8
0
100
AcDbLine
 10
-23.04375377208065
 20
28.7279734516829
 30
0.0
 11
-23.89289150701464
 21
29.37953975220879
 31
0.0
  0
LINE
  5
302
330
1F
100
AcDbEntity
  8
0
100
AcDbLine
 10
-27.50173694511895
 20
10.02883714474897
 30
0.0
 11
-27.68155769124157
 21
9.594711460663564
 31
0.0
  0
LINE
  5
303
330
1F
100
AcDbEntity
  8
0
100
AcDbLine
 10
-27.21568344732695
 20
10.40162932106138
 30
0.0
 11
-27.50173694511895
 21
10.02883714474897
 31
0.0
  0
LINE
  5
304
330
1F
100
AcDbEntity
  8
0
100
AcDbLine
 10
-26.84289127101453
 20
10.68768281885334
 30
0.0
 11
-27.21568344732695
 21
10.40162932106138
 31
0.0
  0
LINE
  5
305
330
1F
100
AcDbEntity
  8
0
100
AcDbLine
 10
-26.40876558692917
 20
10.867503564976
 30
0.0
 11
-26.84289127101453
 21
10.68768281885334
 31
0.0
  0
LINE
  5
306
330
1F
100
AcDbEntity
  8
0
100
AcDbLine
 10
-25.94289134301455
 20
10.928837072749
 30
0.0
 11
-26.40876558692917
 21
10.867503564976
 31
0.0
  0
LINE
  5
307
330
1F
100
AcDbEntity
  8
0
100
AcDbLine
 10
-25.47701709909993
 20
10.867503564976
 30
0.0
 11
-25.94289134301455
 21
10.928837072749
 31
0.0
  0
LINE
  5
308
330
1F
100
AcDbEntity
  8
0
100
AcDbLine
 10
-25.04289141501439
 20
10.68768281885334
 30
0.0
 11
-25.47701709909993
 21
10.867503564976
 31
0.0
  0
LINE
  5
309
330
1F
100
AcDbEntity
  8
0
100
AcDbLine
 10
-24.67009923870216
 20
10.40162932106138
 30
0.0
 11
-25.04289141501439
 21
10.68768281885334
 31
0.0
  0
LINE
  5
30A
330
1F
100
AcDbEntity
  8
0
100
AcDbLine
 10
-24.38404574091015
 20
10.02883714474897
 30
0.0
 11
-24.67009923870216
 21
10.40162932106138
 31
0.0
  0
LINE
  5
30B
330
1F
100
AcDbEntity
  8
0
100
AcDbLine
 10
-24.20422499478754
 20
9.594711460663564
 30
0.0
 11
-24.38404574091015
 21
10.02883714474897
 31
0.0
  0
LINE
  5
30C
330
1F
100
AcDbEntity
  8
0
100
AcDbLine
 10
-24.14289148701459
 20
9.128837216748941
 30
0.0
 11
-24.20422499478754
 21
9.594711460663564
 31
0.0
  0
LINE
  5
30D
330
1F
100
AcDbEntity
  8
0
100
AcDbLine
 10
-24.20422499478754
 20
8.662962972834322
 30
0.0
 11
-24.14289148701459
 21
9.128837216748941
 31
0.0
  0
LINE
  5
30E
330
1F
100
AcDbEntity
  8
0
100
AcDbLine
 10
-24.38404574091015
 20
8.228837288748915
 30
0.0
 11
-24.20422499478754
 21
8.662962972834322
 31
0.0
  0
LINE
  5
30F
330
1F
100
AcDbEntity
  8
0
100
AcDbLine
 10
-24.67009923870216
 20
7.856045112436504
 30
0.0
 11
-24.38404574091015
 21
8.228837288748915
 31
0.0
  0
LINE
  5
310
330
1F
100
AcDbEntity
  8
0
100
AcDbLine
 10
-25.04289141501457
 20
7.569991614644547
 30
0.0
 11
-24.67009923870216
 21
7.856045112436504
 31
0.0
  0
LINE
  5
311
330
1F
100
AcDbEntity
  8
0
100
AcDbLine
 10
-25.47701709909993
 20
7.390170868521882
 30
0.0
 11
-25.04289141501457
 21
7.569991614644547
 31
0.0
  0
LINE
  5
312
330
1F
100
AcDbEntity
  8
0
100
AcDbLine
 10
-25.94289134301455
 20
7.328837360748889
 30
0.0
 11
-25.47701709909993
 21
7.390170868521882
 31
0.0
  0
LINE
  5
313
330
1F
100
AcDbEntity
  8
0
100
AcDbLine
 10
-26.40876558692917
 20
7.390170868521882
 30
0.0
 11
-25.94289134301455
 21
7.328837360748889
 31
0.0
  0
LINE
  5
314
330
1F
100
AcDbEntity
  8
0
100
AcDbLine
 10
-26.84289127101471
 20
7.569991614644547
 30
0.0
 11
-26.40876558692917
 21
7.390170868521882
 31
0.0
  0
LINE
  5
315
330
1F
100
AcDbEntity
  8
0
100
AcDbLine
 10
-27.50173694511895
 20
8.228837288748915
 30
0.0
 11
-27.21568344732695
 21
7.856045112436504
 31
0.0
  0
LINE
  5
316
330
1F
100
AcDbEntity
  8
0
100
AcDbLine
 10
-27.74289119901452
 20
9.128837216748941
 30
0.0
 11
-27.68155769124157
 21
8.662962972834322
 31
0.0
  0
LINE
  5
317
330
1F
100
AcDbEntity
  8
0
100
AcDbLine
 10
-27.68155769124157
 20
9.594711460663564
 30
0.0
 11
-27.74289119901452
 21
9.128837216748941
 31
0.0
  0
LINE
  5
318
330
1F
100
AcDbEntity
  8
0
100
AcDbLine
 10
14.52203584308788
 20
4.268817070580892
 30
0.0
 11
14.33105749822586
 21
3.839482839343036
 31
0.0
  0
LINE
  5
319
330
1F
100
AcDbEntity
  8
0
100
AcDbLine
 10
14.81762663441055
 20
4.634093259791086
 30
0.0
 11
14.52203584308788
 21
4.268817070580892
 31
0.0
  0
LINE
  5
31A
330
1F
100
AcDbEntity
  8
0
100
AcDbLine
 10
15.63631307726776
 20
5.078961501918632
 30
0.0
 11
15.19768584825252
 21
4.910418438326406
 31
0.0
  0
LINE
  5
31B
330
1F
100
AcDbEntity
  8
0
100
AcDbLine
 10
16.10361660066496
 20
5.128236519314512
 30
0.0
 11
15.63631307726776
 21
5.078961501918632
 31
0.0
  0
LINE
  5
31C
330
1F
100
AcDbEntity
  8
0
100
AcDbLine
 10
17.36236087602799
 20
4.568316343324782
 30
0.0
 11
16.99708468681785
 21
4.863907134647538
 31
0.0
  0
LINE
  5
31D
330
1F
100
AcDbEntity
  8
0
100
AcDbLine
 10
17.85650413555142
 20
3.282326377070318
 30
0.0
 11
17.80722911815559
 21
3.749629900467434
 31
0.0
  0
LINE
  5
31E
330
1F
100
AcDbEntity
  8
0
100
AcDbLine
 10
17.78315309574633
 20
2.818192522155337
 30
0.0
 11
17.85650413555142
 21
3.282326377070318
 31
0.0
  0
LINE
  5
31F
330
1F
100
AcDbEntity
  8
0
100
AcDbLine
 10
17.29658395956164
 20
2.023582101707286
 30
0.0
 11
17.59217475088431
 21
2.388858290917481
 31
0.0
  0
LINE
  5
320
330
1F
100
AcDbEntity
  8
0
100
AcDbLine
 10
16.91652474571967
 20
1.747256923171967
 30
0.0
 11
17.29658395956164
 21
2.023582101707286
 31
0.0
  0
LINE
  5
321
330
1F
100
AcDbEntity
  8
0
100
AcDbLine
 10
16.47789751670443
 20
1.578713859579741
 30
0.0
 11
16.91652474571967
 21
1.747256923171967
 31
0.0
  0
LINE
  5
322
330
1F
100
AcDbEntity
  8
0
100
AcDbLine
 10
15.54646013839215
 20
1.602789881989039
 30
0.0
 11
16.01059399330723
 21
1.529438842183861
 31
0.0
  0
LINE
  5
323
330
1F
100
AcDbEntity
  8
0
100
AcDbLine
 10
15.11712590715435
 20
1.793768226850835
 30
0.0
 11
15.54646013839215
 21
1.602789881989039
 31
0.0
  0
LINE
  5
324
330
1F
100
AcDbEntity
  8
0
100
AcDbLine
 10
14.7518497179442
 20
2.08935901817359
 30
0.0
 11
15.11712590715435
 21
1.793768226850835
 31
0.0
  0
LINE
  5
325
330
1F
100
AcDbEntity
  8
0
100
AcDbLine
 10
14.47552453940883
 20
2.469418232015567
 30
0.0
 11
14.7518497179442
 21
2.08935901817359
 31
0.0
  0
LINE
  5
326
330
1F
100
AcDbEntity
  8
0
100
AcDbLine
 10
14.3069814758166
 20
2.908045461030939
 30
0.0
 11
14.47552453940883
 21
2.469418232015567
 31
0.0
  0
LINE
  5
327
330
1F
100
AcDbEntity
  8
0
100
AcDbLine
 10
14.25770645842077
 20
3.375348984428054
 30
0.0
 11
14.3069814758166
 21
2.908045461030939
 31
0.0
  0
LINE
  5
328
330
1F
100
AcDbEntity
  8
0
100
AcDbLine
 10
14.33105749822586
 20
3.839482839343036
 30
0.0
 11
14.25770645842077
 21
3.375348984428054
 31
0.0
  0
LINE
  5
329
330
1F
100
AcDbEntity
  8
0
100
AcDbLine
 10
-27.68155769124157
 20
42.99470878866381
 30
0.0
 11
-27.74289119901452
 21
42.52883454474919
 31
0.0
  0
LINE
  5
32A
330
1F
100
AcDbEntity
  8
0
100
AcDbLine
 10
-27.21568344732695
 20
43.80162664906176
 30
0.0
 11
-27.50173694511895
 21
43.42883447274935
 31
0.0
  0
LINE
  5
32B
330
1F
100
AcDbEntity
  8
0
100
AcDbLine
 10
-26.84289127101453
 20
44.08768014685359
 30
0.0
 11
-27.21568344732695
 21
43.80162664906176
 31
0.0
  0
LINE
  5
32C
330
1F
100
AcDbEntity
  8
0
100
AcDbLine
 10
-26.40876558692917
 20
44.2675008929762
 30
0.0
 11
-26.84289127101453
 21
44.08768014685359
 31
0.0
  0
LINE
  5
32D
330
1F
100
AcDbEntity
  8
0
100
AcDbLine
 10
-25.47701709909993
 20
44.2675008929762
 30
0.0
 11
-25.94289134301455
 21
44.32883440074933
 31
0.0
  0
LINE
  5
32E
330
1F
100
AcDbEntity
  8
0
100
AcDbLine
 10
-25.04289141501439
 20
44.08768014685359
 30
0.0
 11
-25.47701709909993
 21
44.2675008929762
 31
0.0
  0
LINE
  5
32F
330
1F
100
AcDbEntity
  8
0
100
AcDbLine
 10
-24.67009923870216
 20
43.80162664906176
 30
0.0
 11
-25.04289141501439
 21
44.08768014685359
 31
0.0
  0
LINE
  5
330
330
1F
100
AcDbEntity
  8
0
100
AcDbLine
 10
-24.38404574091015
 20
43.42883447274917
 30
0.0
 11
-24.67009923870216
 21
43.80162664906176
 31
0.0
  0
LINE
  5
331
330
1F
100
AcDbEntity
  8
0
100
AcDbLine
 10
-24.20422499478754
 20
42.99470878866381
 30
0.0
 11
-24.38404574091015
 21
43.42883447274917
 31
0.0
  0
LINE
  5
332
330
1F
100
AcDbEntity
  8
0
100
AcDbLine
 10
-24.14289148701459
 20
42.52883454474919
 30
0.0
 11
-24.20422499478754
 21
42.99470878866381
 31
0.0
  0
LINE
  5
333
330
1F
100
AcDbEntity
  8
0
100
AcDbLine
 10
-24.20422499478754
 20
42.06296030083456
 30
0.0
 11
-24.14289148701459
 21
42.52883454474919
 31
0.0
  0
LINE
  5
334
330
1F
100
AcDbEntity
  8
0
100
AcDbLine
 10
-24.38404574091015
 20
41.62883461674921
 30
0.0
 11
-24.20422499478754
 21
42.06296030083456
 31
0.0
  0
LINE
  5
335
330
1F
100
AcDbEntity
  8
0
100
AcDbLine
 10
-24.67009923870216
 20
41.25604244043679
 30
0.0
 11
-24.38404574091015
 21
41.62883461674921
 31
0.0
  0
LINE
  5
336
330
1F
100
AcDbEntity
  8
0
100
AcDbLine
 10
-25.04289141501457
 20
40.96998894264479
 30
0.0
 11
-24.67009923870216
 21
41.25604244043679
 31
0.0
  0
LINE
  5
337
330
1F
100
AcDbEntity
  8
0
100
AcDbLine
 10
-25.47701709909993
 20
40.79016819652217
 30
0.0
 11
-25.04289141501457
 21
40.96998894264479
 31
0.0
  0
LINE
  5
338
330
1F
100
AcDbEntity
  8
0
100
AcDbLine
 10
-25.94289134301455
 20
40.72883468874922
 30
0.0
 11
-25.47701709909993
 21
40.79016819652217
 31
0.0
  0
LINE
  5
339
330
1F
100
AcDbEntity
  8
0
100
AcDbLine
 10
-26.40876558692917
 20
40.79016819652217
 30
0.0
 11
-25.94289134301455
 21
40.72883468874922
 31
0.0
  0
LINE
  5
33A
330
1F
100
AcDbEntity
  8
0
100
AcDbLine
 10
-26.84289127101471
 20
40.96998894264479
 30
0.0
 11
-26.40876558692917
 21
40.79016819652217
 31
0.0
  0
LINE
  5
33B
330
1F
100
AcDbEntity
  8
0
100
AcDbLine
 10
-27.21568344732695
 20
41.25604244043679
 30
0.0
 11
-26.84289127101471
 21
40.96998894264479
 31
0.0
  0
LINE
  5
33C
330
1F
100
AcDbEntity
  8
0
100
AcDbLine
 10
-27.50173694511895
 20
41.62883461674921
 30
0.0
 11
-27.21568344732695
 21
41.25604244043679
 31
0.0
  0
LINE
  5
33D
330
1F
100
AcDbEntity
  8
0
100
AcDbLine
 10
-27.68155769124157
 20
42.06296030083456
 30
0.0
 11
-27.50173694511895
 21
41.62883461674921
 31
0.0
  0
LINE
  5
33E
330
1F
100
AcDbEntity
  8
0
100
AcDbLine
 10
-27.74289119901452
 20
42.52883454474919
 30
0.0
 11
-27.68155769124157
 21
42.06296030083456
 31
0.0
  0
LINE
  5
33F
330
1F
100
AcDbEntity
  8
0
100
AcDbLine
 10
16.09769382656782
 20
50.12837625943443
 30
0.0
 11
15.63055501765127
 21
50.07756343110629
 31
0.0
  0
LINE
  5
340
330
1F
100
AcDbEntity
  8
0
100
AcDbLine
 10
16.56206659426923
 20
50.0565532621693
 30
0.0
 11
16.09769382656782
 21
50.12837625943443
 31
0.0
  0
LINE
  5
341
330
1F
100
AcDbEntity
  8
0
100
AcDbLine
 10
16.9920270840487
 20
49.86698905788142
 30
0.0
 11
16.56206659426923
 21
50.0565532621693
 31
0.0
  0
LINE
  5
342
330
1F
100
AcDbEntity
  8
0
100
AcDbLine
 10
17.35827419907114
 20
49.57260213382315
 30
0.0
 11
16.9920270840487
 21
49.86698905788142
 31
0.0
  0
LINE
  5
343
330
1F
100
AcDbEntity
  8
0
100
AcDbLine
 10
17.6358488036998
 20
49.19345447237201
 30
0.0
 11
17.35827419907114
 21
49.57260213382315
 31
0.0
  0
LINE
  5
344
330
1F
100
AcDbEntity
  8
0
100
AcDbLine
 10
17.85664747567109
 20
48.28824555116771
 30
0.0
 11
17.80583464734295
 21
48.75538436008444
 31
0.0
  0
LINE
  5
345
330
1F
100
AcDbEntity
  8
0
100
AcDbLine
 10
17.78482447840596
 20
47.82387278346649
 30
0.0
 11
17.85664747567109
 21
48.28824555116771
 31
0.0
  0
LINE
  5
346
330
1F
100
AcDbEntity
  8
0
100
AcDbLine
 10
17.59526027411808
 20
47.39391229368702
 30
0.0
 11
17.78482447840596
 21
47.82387278346649
 31
0.0
  0
LINE
  5
347
330
1F
100
AcDbEntity
  8
0
100
AcDbLine
 10
17.30087335005981
 20
47.0276651786644
 30
0.0
 11
17.59526027411808
 21
47.39391229368702
 31
0.0
  0
LINE
  5
348
330
1F
100
AcDbEntity
  8
0
100
AcDbLine
 10
16.92172568860849
 20
46.75009057403573
 30
0.0
 11
17.30087335005981
 21
47.0276651786644
 31
0.0
  0
LINE
  5
349
330
1F
100
AcDbEntity
  8
0
100
AcDbLine
 10
16.48365557632092
 20
46.58010473039277
 30
0.0
 11
16.92172568860849
 21
46.75009057403573
 31
0.0
  0
LINE
  5
34A
330
1F
100
AcDbEntity
  8
0
100
AcDbLine
 10
16.01651676740437
 20
46.52929190206444
 30
0.0
 11
16.48365557632092
 21
46.58010473039277
 31
0.0
  0
LINE
  5
34B
330
1F
100
AcDbEntity
  8
0
100
AcDbLine
 10
15.55214399970296
 20
46.60111489932957
 30
0.0
 11
16.01651676740437
 21
46.52929190206444
 31
0.0
  0
LINE
  5
34C
330
1F
100
AcDbEntity
  8
0
100
AcDbLine
 10
15.12218350992349
 20
46.79067910361746
 30
0.0
 11
15.55214399970296
 21
46.60111489932957
 31
0.0
  0
LINE
  5
34D
330
1F
100
AcDbEntity
  8
0
100
AcDbLine
 10
14.75593639490105
 20
47.08506602767573
 30
0.0
 11
15.12218350992349
 21
46.79067910361746
 31
0.0
  0
LINE
  5
34E
330
1F
100
AcDbEntity
  8
0
100
AcDbLine
 10
14.47836179027239
 20
47.46421368912705
 30
0.0
 11
14.75593639490105
 21
47.08506602767573
 31
0.0
  0
LINE
  5
34F
330
1F
100
AcDbEntity
  8
0
100
AcDbLine
 10
14.30837594662924
 20
47.90228380141462
 30
0.0
 11
14.47836179027239
 21
47.46421368912705
 31
0.0
  0
LINE
  5
350
330
1F
100
AcDbEntity
  8
0
100
AcDbLine
 10
14.51895031985411
 20
49.26375586781204
 30
0.0
 11
14.32938611556623
 21
48.83379537803258
 31
0.0
  0
LINE
  5
351
330
1F
100
AcDbEntity
  8
0
100
AcDbLine
 10
14.81333724391238
 20
49.63000298283448
 30
0.0
 11
14.51895031985411
 21
49.26375586781204
 31
0.0
  0
LINE
  5
352
330
1F
100
AcDbEntity
  8
0
100
AcDbLine
 10
15.1924849053637
 20
49.90757758746315
 30
0.0
 11
14.81333724391238
 21
49.63000298283448
 31
0.0
  0
LINE
  5
353
330
1F
100
AcDbEntity
  8
0
100
AcDbLine
 10
15.63055501765127
 20
50.07756343110629
 30
0.0
 11
15.1924849053637
 21
49.90757758746315
 31
0.0
  0
LINE
  5
354
330
1F
100
AcDbEntity
  8
0
100
AcDbLine
 10
-6.825426785476858
 20
0.8288480318904251
 30
0.0
 11
-6.825426785477219
 21
50.82882372960798
 31
0.0
  0
LINE
  5
355
330
1F
100
AcDbEntity
  8
0
100
AcDbLine
 10
-6.825426785477219
 20
50.82882372960798
 30
0.0
 11
4.174567338408782
 21
50.82882372960798
 31
0.0
  0
LINE
  5
356
330
1F
100
AcDbEntity
  8
0
100
AcDbLine
 10
4.174567338408782
 20
50.82882372960798
 30
0.0
 11
4.174567338409324
 21
0.8288480318901543
 31
0.0
  0
LINE
  5
357
330
1F
100
AcDbEntity
  8
0
100
AcDbLine
 10
4.174567338409324
 20
0.8288480318901543
 30
0.0
 11
-6.825426785476858
 21
0.8288480318904251
 31
0.0
  0
LINE
  5
358
330
1F
100
AcDbEntity
  8
0
100
AcDbLine
 10
10.44735904272133
 20
7.856045112435467
 30
0.0
 11
10.73341254051316
 21
8.228837288747878
 31
0.0
  0
LINE
  5
359
330
1F
100
AcDbEntity
  8
0
100
AcDbLine
 10
10.07456686640892
 20
7.569991614643555
 30
0.0
 11
10.44735904272133
 21
7.856045112435467
 31
0.0
  0
LINE
  5
35A
330
1F
100
AcDbEntity
  8
0
100
AcDbLine
 10
9.640441182323563
 20
7.390170868520889
 30
0.0
 11
10.07456686640892
 21
7.569991614643555
 31
0.0
  0
LINE
  5
35B
330
1F
100
AcDbEntity
  8
0
100
AcDbLine
 10
9.17456693840894
 20
7.328837360747897
 30
0.0
 11
9.640441182323563
 21
7.390170868520889
 31
0.0
  0
LINE
  5
35C
330
1F
100
AcDbEntity
  8
0
100
AcDbLine
 10
8.70869269449432
 20
7.390170868520889
 30
0.0
 11
9.17456693840894
 21
7.328837360747897
 31
0.0
  0
LINE
  5
35D
330
1F
100
AcDbEntity
  8
0
100
AcDbLine
 10
8.27456701040896
 20
7.569991614643555
 30
0.0
 11
8.70869269449432
 21
7.390170868520889
 31
0.0
  0
LINE
  5
35E
330
1F
100
AcDbEntity
  8
0
100
AcDbLine
 10
7.901774834096549
 20
7.856045112435467
 30
0.0
 11
8.27456701040896
 21
7.569991614643555
 31
0.0
  0
LINE
  5
35F
330
1F
100
AcDbEntity
  8
0
100
AcDbLine
 10
7.615721336304726
 20
8.228837288747878
 30
0.0
 11
7.901774834096549
 21
7.856045112435467
 31
0.0
  0
LINE
  5
360
330
1F
100
AcDbEntity
  8
0
100
AcDbLine
 10
7.435900590181927
 20
8.662962972833283
 30
0.0
 11
7.615721336304726
 21
8.228837288747878
 31
0.0
  0
LINE
  5
361
330
1F
100
AcDbEntity
  8
0
100
AcDbLine
 10
7.374567082408979
 20
9.12883721674786
 30
0.0
 11
7.435900590181927
 21
8.662962972833283
 31
0.0
  0
LINE
  5
362
330
1F
100
AcDbEntity
  8
0
100
AcDbLine
 10
7.435900590181927
 20
9.594711460662436
 30
0.0
 11
7.374567082408979
 21
9.12883721674786
 31
0.0
  0
LINE
  5
363
330
1F
100
AcDbEntity
  8
0
100
AcDbLine
 10
7.615721336304726
 20
10.02883714474784
 30
0.0
 11
7.435900590181927
 21
9.594711460662436
 31
0.0
  0
LINE
  5
364
330
1F
100
AcDbEntity
  8
0
100
AcDbLine
 10
7.901774834096549
 20
10.40162932106025
 30
0.0
 11
7.615721336304726
 21
10.02883714474784
 31
0.0
  0
LINE
  5
365
330
1F
100
AcDbEntity
  8
0
100
AcDbLine
 10
8.27456701040896
 20
10.68768281885217
 30
0.0
 11
7.901774834096549
 21
10.40162932106025
 31
0.0
  0
LINE
  5
366
330
1F
100
AcDbEntity
  8
0
100
AcDbLine
 10
8.70869269449432
 20
10.86750356497483
 30
0.0
 11
8.27456701040896
 21
10.68768281885217
 31
0.0
  0
LINE
  5
367
330
1F
100
AcDbEntity
  8
0
100
AcDbLine
 10
9.17456693840894
 20
10.92883707274782
 30
0.0
 11
8.70869269449432
 21
10.86750356497483
 31
0.0
  0
LINE
  5
368
330
1F
100
AcDbEntity
  8
0
100
AcDbLine
 10
10.91323328663596
 20
9.594711460662436
 30
0.0
 11
10.73341254051316
 21
10.02883714474784
 31
0.0
  0
LINE
  5
369
330
1F
100
AcDbEntity
  8
0
100
AcDbLine
 10
10.9745667944089
 20
9.12883721674786
 30
0.0
 11
10.91323328663596
 21
9.594711460662436
 31
0.0
  0
LINE
  5
36A
330
1F
100
AcDbEntity
  8
0
100
AcDbLine
 10
10.91323328663596
 20
8.662962972833283
 30
0.0
 11
10.9745667944089
 21
9.12883721674786
 31
0.0
  0
LINE
  5
36B
330
1F
100
AcDbEntity
  8
0
100
AcDbLine
 10
10.73341254051316
 20
8.228837288747878
 30
0.0
 11
10.91323328663596
 21
8.662962972833283
 31
0.0
  0
LINE
  5
36C
330
1F
100
AcDbEntity
  8
0
100
AcDbLine
 10
-74.01388365777483
 20
-83.23453546609146
 30
0.0
 11
-74.31358490131258
 21
-82.51099265928242
 31
0.0
  0
LINE
  5
36D
330
1F
100
AcDbEntity
  8
0
100
AcDbLine
 10
-73.91166114481997
 20
-84.01099253928246
 30
0.0
 11
-74.01388365777483
 21
-83.23453546609146
 31
0.0
  0
LINE
  5
36E
330
1F
100
AcDbEntity
  8
0
100
AcDbLine
 10
-74.01388365777483
 20
-84.78744961247344
 30
0.0
 11
-73.91166114481997
 21
-84.01099253928246
 31
0.0
  0
LINE
  5
36F
330
1F
100
AcDbEntity
  8
0
100
AcDbLine
 10
-74.31358490131258
 20
-85.51099241928247
 30
0.0
 11
-74.01388365777483
 21
-84.78744961247344
 31
0.0
  0
LINE
  5
370
330
1F
100
AcDbEntity
  8
0
100
AcDbLine
 10
-86.79045721607305
 20
-84.47686678319708
 30
0.0
 11
-86.72912370829994
 21
-84.01099253928246
 31
0.0
  0
LINE
  5
371
330
1F
100
AcDbEntity
  8
0
100
AcDbLine
 10
-86.9702779621955
 20
-84.91099246728248
 30
0.0
 11
-86.79045721607305
 21
-84.47686678319708
 31
0.0
  0
LINE
  5
372
330
1F
100
AcDbEntity
  8
0
100
AcDbLine
 10
-87.25633145998749
 20
-85.28378464359488
 30
0.0
 11
-86.9702779621955
 21
-84.91099246728248
 31
0.0
  0
LINE
  5
373
330
1F
100
AcDbEntity
  8
0
100
AcDbLine
 10
-41.99500156821424
 20
-85.74965888750951
 30
0.0
 11
-41.52912732429981
 21
-85.81099239528251
 31
0.0
  0
LINE
  5
374
330
1F
100
AcDbEntity
  8
0
100
AcDbLine
 10
-42.42912725229979
 20
-85.56983814138685
 30
0.0
 11
-41.99500156821424
 21
-85.74965888750951
 31
0.0
  0
LINE
  5
375
330
1F
100
AcDbEntity
  8
0
100
AcDbLine
 10
-77.68811797801088
 20
-81.11321529223738
 30
0.0
 11
-78.41166078482004
 21
-81.4129165357752
 31
0.0
  0
LINE
  5
376
330
1F
100
AcDbEntity
  8
0
100
AcDbLine
 10
-76.91166090482002
 20
-81.0109927792824
 30
0.0
 11
-77.68811797801088
 21
-81.11321529223738
 31
0.0
  0
LINE
  5
377
330
1F
100
AcDbEntity
  8
0
100
AcDbLine
 10
-69.91684962928696
 20
-94.97701706578493
 30
0.0
 11
-69.70974286466897
 21
-94.81809845590054
 31
0.0
  0
LINE
  5
378
330
1F
100
AcDbEntity
  8
0
100
AcDbLine
 10
43.49070263282137
 20
-35.04145989943917
 30
0.0
 11
43.45353525588429
 21
-35.04145989943922
 31
0.0
  0
LINE
  5
379
330
1F
100
AcDbEntity
  8
0
100
AcDbLine
 10
80.85657392473595
 20
-39.37820225117341
 30
0.0
 11
81.29069960882133
 21
-39.19838150505075
 31
0.0
  0
LINE
  5
37A
330
1F
100
AcDbEntity
  8
0
100
AcDbLine
 10
34.66349554513347
 20
-36.36674379863405
 30
0.0
 11
34.29070336882123
 21
-36.08069030084213
 31
0.0
  0
LINE
  5
37B
330
1F
100
AcDbEntity
  8
0
100
AcDbLine
 10
-55.2362330089177
 20
-58.6038877906643
 30
0.0
 11
-55.39515161880218
 21
-58.81099455528229
 31
0.0
  0
LINE
  5
37C
330
1F
100
AcDbEntity
  8
0
100
AcDbLine
 10
80.39069968082134
 20
-39.4395357589464
 30
0.0
 11
80.85657392473595
 21
-39.37820225117341
 31
0.0
  0
LINE
  5
37D
330
1F
100
AcDbEntity
  8
0
100
AcDbLine
 10
79.49069975282136
 20
-39.19838150505075
 30
0.0
 11
79.92482543690672
 21
-39.37820225117341
 31
0.0
  0
LINE
  5
37E
330
1F
100
AcDbEntity
  8
0
100
AcDbLine
 10
79.11790757650876
 20
-38.91232800725883
 30
0.0
 11
79.49069975282136
 21
-39.19838150505075
 31
0.0
  0
LINE
  5
37F
330
1F
100
AcDbEntity
  8
0
100
AcDbLine
 10
78.5906998248212
 20
-37.63953590294644
 30
0.0
 11
78.65203333259431
 21
-38.10541014686102
 31
0.0
  0
LINE
  5
380
330
1F
100
AcDbEntity
  8
0
100
AcDbLine
 10
78.65203333259431
 20
-37.17366165903186
 30
0.0
 11
78.5906998248212
 21
-37.63953590294644
 31
0.0
  0
LINE
  5
381
330
1F
100
AcDbEntity
  8
0
100
AcDbLine
 10
82.12936602904836
 20
-37.17366165903186
 30
0.0
 11
81.94954528292556
 21
-36.73953597494646
 31
0.0
  0
LINE
  5
382
330
1F
100
AcDbEntity
  8
0
100
AcDbLine
 10
82.1906995368213
 20
-37.63953590294644
 30
0.0
 11
82.12936602904836
 21
-37.17366165903186
 31
0.0
  0
LINE
  5
383
330
1F
100
AcDbEntity
  8
0
100
AcDbLine
 10
82.12936602904836
 20
-38.10541014686102
 30
0.0
 11
82.1906995368213
 21
-37.63953590294644
 31
0.0
  0
LINE
  5
384
330
1F
100
AcDbEntity
  8
0
100
AcDbLine
 10
81.94954528292556
 20
-38.53953583094642
 30
0.0
 11
82.12936602904836
 21
-38.10541014686102
 31
0.0
  0
LINE
  5
385
330
1F
100
AcDbEntity
  8
0
100
AcDbLine
 10
81.66349178513373
 20
-38.91232800725883
 30
0.0
 11
81.94954528292556
 21
-38.53953583094642
 31
0.0
  0
LINE
  5
386
330
1F
100
AcDbEntity
  8
0
100
AcDbLine
 10
81.29069960882133
 20
-39.19838150505075
 30
0.0
 11
81.66349178513373
 21
-38.91232800725883
 31
0.0
  0
LINE
  5
387
330
1F
100
AcDbEntity
  8
0
100
AcDbLine
 10
42.83221496203033
 20
-35.51821572909236
 30
0.0
 11
42.35545913237724
 21
-36.13953602294641
 31
0.0
  0
LINE
  5
388
330
1F
100
AcDbEntity
  8
0
100
AcDbLine
 10
78.83185407871713
 20
-36.73953597494646
 30
0.0
 11
78.65203333259431
 21
-37.17366165903186
 31
0.0
  0
LINE
  5
389
330
1F
100
AcDbEntity
  8
0
100
AcDbLine
 10
-46.27030789990278
 20
-58.34506876626729
 30
0.0
 11
-46.52912692429978
 21
-58.31099459528231
 31
0.0
  0
LINE
  5
38A
330
1F
100
AcDbEntity
  8
0
100
AcDbLine
 10
-74.822017879682
 20
-58.6038877906643
 30
0.0
 11
-75.02912464429998
 21
-58.44496918077991
 31
0.0
  0
LINE
  5
38B
330
1F
100
AcDbEntity
  8
0
100
AcDbLine
 10
-40.25633521998724
 20
-82.73820043497001
 30
0.0
 11
-40.62912739629964
 21
-82.45214693717806
 31
0.0
  0
LINE
  5
38C
330
1F
100
AcDbEntity
  8
0
100
AcDbLine
 10
-39.97028172219541
 20
-83.11099261128243
 30
0.0
 11
-40.25633521998724
 21
-82.73820043497001
 31
0.0
  0
LINE
  5
38D
330
1F
100
AcDbEntity
  8
0
100
AcDbLine
 10
-39.79046097607261
 20
-83.54511829536784
 30
0.0
 11
-39.97028172219541
 21
-83.11099261128243
 31
0.0
  0
LINE
  5
38E
330
1F
100
AcDbEntity
  8
0
100
AcDbLine
 10
79.49069975282136
 20
-36.08069030084213
 30
0.0
 11
79.11790757650876
 21
-36.36674379863405
 31
0.0
  0
LINE
  5
38F
330
1F
100
AcDbEntity
  8
0
100
AcDbLine
 10
79.92482543690672
 20
-35.90086955471947
 30
0.0
 11
79.49069975282136
 21
-36.08069030084213
 31
0.0
  0
LINE
  5
390
330
1F
100
AcDbEntity
  8
0
100
AcDbLine
 10
80.39069968082134
 20
-35.83953604694648
 30
0.0
 11
79.92482543690672
 21
-35.90086955471947
 31
0.0
  0
LINE
  5
391
330
1F
100
AcDbEntity
  8
0
100
AcDbLine
 10
81.29069960882133
 20
-36.08069030084213
 30
0.0
 11
80.85657392473595
 21
-35.90086955471947
 31
0.0
  0
LINE
  5
392
330
1F
100
AcDbEntity
  8
0
100
AcDbLine
 10
81.94954528292556
 20
-36.73953597494646
 30
0.0
 11
81.66349178513373
 21
-36.36674379863405
 31
0.0
  0
LINE
  5
393
330
1F
100
AcDbEntity
  8
0
100
AcDbLine
 10
34.29070336882123
 20
-36.08069030084213
 30
0.0
 11
33.85657768473587
 21
-35.90086955471947
 31
0.0
  0
LINE
  5
394
330
1F
100
AcDbEntity
  8
0
100
AcDbLine
 10
35.12936978904827
 20
-37.17366165903186
 30
0.0
 11
34.94954904292547
 21
-36.73953597494646
 31
0.0
  0
LINE
  5
395
330
1F
100
AcDbEntity
  8
0
100
AcDbLine
 10
34.94954904292547
 20
-38.53953583094642
 30
0.0
 11
35.12936978904827
 21
-38.10541014686102
 31
0.0
  0
LINE
  5
396
330
1F
100
AcDbEntity
  8
0
100
AcDbLine
 10
44.17707806269347
 20
-34.74175865590136
 30
0.0
 11
43.49070263282137
 21
-35.04145989943917
 31
0.0
  0
LINE
  5
397
330
1F
100
AcDbEntity
  8
0
100
AcDbLine
 10
-72.1291248762999
 20
-72.91099342728238
 30
0.0
 11
-48.62912675629968
 21
-72.91099342728238
 31
0.0
  0
LINE
  5
398
330
1F
100
AcDbEntity
  8
0
100
AcDbLine
 10
-87.62912363630008
 20
-85.56983814138685
 30
0.0
 11
-87.25633145998749
 21
-85.28378464359488
 31
0.0
  0
LINE
  5
399
330
1F
100
AcDbEntity
  8
0
100
AcDbLine
 10
-88.06324932038544
 20
-85.74965888750951
 30
0.0
 11
-87.62912363630008
 21
-85.56983814138685
 31
0.0
  0
LINE
  5
39A
330
1F
100
AcDbEntity
  8
0
100
AcDbLine
 10
-43.27030813990362
 20
-95.07691748029755
 30
0.0
 11
-43.52912716430045
 21
-95.11099165128253
 31
0.0
  0
LINE
  5
39B
330
1F
100
AcDbEntity
  8
0
100
AcDbLine
 10
42.86938233896741
 20
-35.51821572909236
 30
0.0
 11
42.83221496203033
 21
-35.51821572909236
 31
0.0
  0
LINE
  5
39C
330
1F
100
AcDbEntity
  8
0
100
AcDbLine
 10
43.45353525588429
 20
-35.04145989943922
 30
0.0
 11
42.86938233896741
 21
-35.51821572909236
 31
0.0
  0
LINE
  5
39D
330
1F
100
AcDbEntity
  8
0
100
AcDbLine
 10
-84.02912392430017
 20
-58.44496918077991
 30
0.0
 11
-83.7879429886971
 21
-58.34506876626729
 31
0.0
  0
LINE
  5
39E
330
1F
100
AcDbEntity
  8
0
100
AcDbLine
 10
-84.23623068891814
 20
-58.6038877906643
 30
0.0
 11
-84.02912392430017
 21
-58.44496918077991
 31
0.0
  0
LINE
  5
39F
330
1F
100
AcDbEntity
  8
0
100
AcDbLine
 10
-84.39514929880264
 20
-58.81099455528229
 30
0.0
 11
-84.23623068891814
 21
-58.6038877906643
 31
0.0
  0
LINE
  5
3A0
330
1F
100
AcDbEntity
  8
0
100
AcDbLine
 10
-37.52912764429979
 20
-64.91099406728235
 30
0.0
 11
-45.52912700429965
 21
-64.91099406728235
 31
0.0
  0
LINE
  5
3A1
330
1F
100
AcDbEntity
  8
0
100
AcDbLine
 10
44.95353513588433
 20
-34.63953614294643
 30
0.0
 11
44.21424543963018
 21
-34.74175865590136
 31
0.0
  0
LINE
  5
3A2
330
1F
100
AcDbEntity
  8
0
100
AcDbLine
 10
-55.52912620429996
 20
-64.91099406728235
 30
0.0
 11
-74.5291246843001
 21
-64.91099406728235
 31
0.0
  0
LINE
  5
3A3
330
1F
100
AcDbEntity
  8
0
100
AcDbLine
 10
-74.5291246843001
 20
-64.91099406728235
 30
0.0
 11
-74.5291246843001
 21
-59.31099451528232
 31
0.0
  0
LINE
  5
3A4
330
1F
100
AcDbEntity
  8
0
100
AcDbLine
 10
42.35545913237724
 20
-36.13953602294641
 30
0.0
 11
42.05575788883948
 21
-36.86307882975545
 31
0.0
  0
LINE
  5
3A5
330
1F
100
AcDbEntity
  8
0
100
AcDbLine
 10
46.45353501588436
 20
-40.23761190645371
 30
0.0
 11
47.07485530973831
 21
-39.76085607680052
 31
0.0
  0
LINE
  5
3A6
330
1F
100
AcDbEntity
  8
0
100
AcDbLine
 10
-43.0879729264042
 20
-83.11099261128243
 30
0.0
 11
-43.26779367252664
 21
-83.54511829536784
 31
0.0
  0
LINE
  5
3A7
330
1F
100
AcDbEntity
  8
0
100
AcDbLine
 10
-40.25633521998724
 20
-85.28378464359488
 30
0.0
 11
-39.97028172219541
 21
-84.91099246728248
 31
0.0
  0
LINE
  5
3A8
330
1F
100
AcDbEntity
  8
0
100
AcDbLine
 10
-40.62912739629964
 20
-85.56983814138685
 30
0.0
 11
-40.25633521998724
 21
-85.28378464359488
 31
0.0
  0
LINE
  5
3A9
330
1F
100
AcDbEntity
  8
0
100
AcDbLine
 10
-41.063253080385
 20
-85.74965888750951
 30
0.0
 11
-40.62912739629964
 21
-85.56983814138685
 31
0.0
  0
LINE
  5
3AA
330
1F
100
AcDbEntity
  8
0
100
AcDbLine
 10
-41.52912732429981
 20
-85.81099239528251
 30
0.0
 11
-41.063253080385
 21
-85.74965888750951
 31
0.0
  0
LINE
  5
3AB
330
1F
100
AcDbEntity
  8
0
100
AcDbLine
 10
-84.52912388430005
 20
-64.91099406728235
 30
0.0
 11
-92.52912324430008
 21
-64.91099406728235
 31
0.0
  0
LINE
  5
3AC
330
1F
100
AcDbEntity
  8
0
100
AcDbLine
 10
-92.52912324430008
 20
-88.51099217928245
 30
0.0
 11
-92.52912324430008
 21
-64.91099406728235
 31
0.0
  0
LINE
  5
3AD
330
1F
100
AcDbEntity
  8
0
100
AcDbLine
 10
-84.32912390029973
 20
-88.51099217928245
 30
0.0
 11
-92.52912324430008
 21
-88.51099217928245
 31
0.0
  0
LINE
  5
3AE
330
1F
100
AcDbEntity
  8
0
100
AcDbLine
 10
-43.0879729264042
 20
-84.91099246728248
 30
0.0
 11
-42.8019194286122
 21
-85.28378464359488
 31
0.0
  0
LINE
  5
3AF
330
1F
100
AcDbEntity
  8
0
100
AcDbLine
 10
-43.26779367252664
 20
-84.47686678319708
 30
0.0
 11
-43.0879729264042
 21
-84.91099246728248
 31
0.0
  0
LINE
  5
3B0
330
1F
100
AcDbEntity
  8
0
100
AcDbLine
 10
-79.49187757902813
 20
-88.5234093007334
 30
0.0
 11
-74.2957255720136
 21
-88.5234093007334
 31
0.0
  0
LINE
  5
3B1
330
1F
100
AcDbEntity
  8
0
100
AcDbLine
 10
-74.2957255720136
 20
-88.5234093007334
 30
0.0
 11
-71.6976495685065
 21
-84.02340966073335
 31
0.0
  0
LINE
  5
3B2
330
1F
100
AcDbEntity
  8
0
100
AcDbLine
 10
-71.6976495685065
 20
-84.02340966073335
 30
0.0
 11
-74.2957255720136
 21
-79.52341002073335
 31
0.0
  0
LINE
  5
3B3
330
1F
100
AcDbEntity
  8
0
100
AcDbLine
 10
-74.2957255720136
 20
-79.52341002073335
 30
0.0
 11
-79.49187757902813
 21
-79.52341002073335
 31
0.0
  0
LINE
  5
3B4
330
1F
100
AcDbEntity
  8
0
100
AcDbLine
 10
-79.49187757902813
 20
-79.52341002073335
 30
0.0
 11
-82.08995358253539
 21
-84.02340966073335
 31
0.0
  0
LINE
  5
3B5
330
1F
100
AcDbEntity
  8
0
100
AcDbLine
 10
-82.08995358253539
 20
-84.02340966073335
 30
0.0
 11
-79.49187757902813
 21
-88.5234093007334
 31
0.0
  0
LINE
  5
3B6
330
1F
100
AcDbEntity
  8
0
100
AcDbLine
 10
-75.41166102481999
 20
-81.4129165357752
 30
0.0
 11
-76.1352038316288
 21
-81.11321529223738
 31
0.0
  0
LINE
  5
3B7
330
1F
100
AcDbEntity
  8
0
100
AcDbLine
 10
-74.79034073096585
 20
-81.88967236542837
 30
0.0
 11
-75.41166102481999
 21
-81.4129165357752
 31
0.0
  0
LINE
  5
3B8
330
1F
100
AcDbEntity
  8
0
100
AcDbLine
 10
-74.31358490131258
 20
-82.51099265928242
 30
0.0
 11
-74.79034073096585
 21
-81.88967236542837
 31
0.0
  0
LINE
  5
3B9
330
1F
100
AcDbEntity
  8
0
100
AcDbLine
 10
-74.79034073096585
 20
-86.13231271313653
 30
0.0
 11
-74.31358490131258
 21
-85.51099241928247
 31
0.0
  0
LINE
  5
3BA
330
1F
100
AcDbEntity
  8
0
100
AcDbLine
 10
-75.41166102481999
 20
-86.60906854278973
 30
0.0
 11
-74.79034073096585
 21
-86.13231271313653
 31
0.0
  0
LINE
  5
3BB
330
1F
100
AcDbEntity
  8
0
100
AcDbLine
 10
-76.1352038316288
 20
-86.90876978632753
 30
0.0
 11
-75.41166102481999
 21
-86.60906854278973
 31
0.0
  0
LINE
  5
3BC
330
1F
100
AcDbEntity
  8
0
100
AcDbLine
 10
-76.91166090482002
 20
-87.01099229928252
 30
0.0
 11
-76.1352038316288
 21
-86.90876978632753
 31
0.0
  0
LINE
  5
3BD
330
1F
100
AcDbEntity
  8
0
100
AcDbLine
 10
-77.68811797801088
 20
-86.90876978632753
 30
0.0
 11
-76.91166090482002
 21
-87.01099229928252
 31
0.0
  0
LINE
  5
3BE
330
1F
100
AcDbEntity
  8
0
100
AcDbLine
 10
-78.41166078482004
 20
-86.60906854278973
 30
0.0
 11
-77.68811797801088
 21
-86.90876978632753
 31
0.0
  0
LINE
  5
3BF
330
1F
100
AcDbEntity
  8
0
100
AcDbLine
 10
-79.03298107867401
 20
-86.13231271313649
 30
0.0
 11
-78.41166078482004
 21
-86.60906854278973
 31
0.0
  0
LINE
  5
3C0
330
1F
100
AcDbEntity
  8
0
100
AcDbLine
 10
-79.50973690832711
 20
-85.51099241928247
 30
0.0
 11
-79.03298107867401
 21
-86.13231271313649
 31
0.0
  0
LINE
  5
3C1
330
1F
100
AcDbEntity
  8
0
100
AcDbLine
 10
-79.80943815186487
 20
-84.78744961247344
 30
0.0
 11
-79.50973690832711
 21
-85.51099241928247
 31
0.0
  0
LINE
  5
3C2
330
1F
100
AcDbEntity
  8
0
100
AcDbLine
 10
-79.91166066482008
 20
-84.01099253928246
 30
0.0
 11
-79.80943815186487
 21
-84.78744961247344
 31
0.0
  0
LINE
  5
3C3
330
1F
100
AcDbEntity
  8
0
100
AcDbLine
 10
-79.80943815186487
 20
-83.23453546609146
 30
0.0
 11
-79.91166066482008
 21
-84.01099253928246
 31
0.0
  0
LINE
  5
3C4
330
1F
100
AcDbEntity
  8
0
100
AcDbLine
 10
-79.50973690832711
 20
-82.51099265928242
 30
0.0
 11
-79.80943815186487
 21
-83.23453546609146
 31
0.0
  0
LINE
  5
3C5
330
1F
100
AcDbEntity
  8
0
100
AcDbLine
 10
-79.03298107867401
 20
-81.88967236542837
 30
0.0
 11
-79.50973690832711
 21
-82.51099265928242
 31
0.0
  0
LINE
  5
3C6
330
1F
100
AcDbEntity
  8
0
100
AcDbLine
 10
-78.41166078482004
 20
-81.4129165357752
 30
0.0
 11
-79.03298107867401
 21
-81.88967236542837
 31
0.0
  0
LINE
  5
3C7
330
1F
100
AcDbEntity
  8
0
100
AcDbLine
 10
-76.1352038316288
 20
-81.11321529223738
 30
0.0
 11
-76.91166090482002
 21
-81.0109927792824
 31
0.0
  0
LINE
  5
3C8
330
1F
100
AcDbEntity
  8
0
100
AcDbLine
 10
-46.0291269642999
 20
-58.44496918077991
 30
0.0
 11
-46.27030789990278
 21
-58.34506876626729
 31
0.0
  0
LINE
  5
3C9
330
1F
100
AcDbEntity
  8
0
100
AcDbLine
 10
-86.72912370829994
 20
-84.01099253928246
 30
0.0
 11
-86.79045721607305
 21
-83.54511829536784
 31
0.0
  0
LINE
  5
3CA
330
1F
100
AcDbEntity
  8
0
100
AcDbLine
 10
-88.52912356429988
 20
-85.81099239528251
 30
0.0
 11
-88.06324932038544
 21
-85.74965888750951
 31
0.0
  0
LINE
  5
3CB
330
1F
100
AcDbEntity
  8
0
100
AcDbLine
 10
-88.99499780821469
 20
-85.74965888750951
 30
0.0
 11
-88.52912356429988
 21
-85.81099239528251
 31
0.0
  0
LINE
  5
3CC
330
1F
100
AcDbEntity
  8
0
100
AcDbLine
 10
-89.42912349230005
 20
-85.56983814138685
 30
0.0
 11
-88.99499780821469
 21
-85.74965888750951
 31
0.0
  0
LINE
  5
3CD
330
1F
100
AcDbEntity
  8
0
100
AcDbLine
 10
-54.4116627048185
 20
-88.51099217928245
 30
0.0
 11
-54.4116627048185
 21
-79.51099289928241
 31
0.0
  0
LINE
  5
3CE
330
1F
100
AcDbEntity
  8
0
100
AcDbLine
 10
-69.70974286466897
 20
-94.81809845590054
 30
0.0
 11
-69.55082425478449
 21
-94.61099169128255
 31
0.0
  0
LINE
  5
3CF
330
1F
100
AcDbEntity
  8
0
100
AcDbLine
 10
67.99070067282173
 20
-38.63953582294644
 30
0.0
 11
67.78625564691166
 21
-37.08662167656446
 31
0.0
  0
LINE
  5
3D0
330
1F
100
AcDbEntity
  8
0
100
AcDbLine
 10
29.39070376082123
 20
-42.13953554294644
 30
0.0
 11
29.39070376082123
 21
-18.53953743094628
 31
0.0
  0
LINE
  5
3D1
330
1F
100
AcDbEntity
  8
0
100
AcDbLine
 10
-49.12912671630065
 20
-94.11099173128252
 30
0.0
 11
-49.12912671630065
 21
-88.5109921792825
 31
0.0
  0
LINE
  5
3D2
330
1F
100
AcDbEntity
  8
0
100
AcDbLine
 10
60.43778700643917
 20
-32.84398132885639
 30
0.0
 11
58.99070139282119
 21
-33.443383815932
 31
0.0
  0
LINE
  5
3D3
330
1F
100
AcDbEntity
  8
0
100
AcDbLine
 10
-54.52912628429983
 20
-58.31099459528231
 30
0.0
 11
-54.78794530869683
 21
-58.34506876626729
 31
0.0
  0
LINE
  5
3D4
330
1F
100
AcDbEntity
  8
0
100
AcDbLine
 10
-74.66309926979751
 20
-58.81099455528229
 30
0.0
 11
-74.822017879682
 21
-58.6038877906643
 31
0.0
  0
LINE
  5
3D5
330
1F
100
AcDbEntity
  8
0
100
AcDbLine
 10
33.39070344082108
 20
-39.4395357589464
 30
0.0
 11
33.85657768473587
 21
-39.37820225117341
 31
0.0
  0
LINE
  5
3D6
330
1F
100
AcDbEntity
  8
0
100
AcDbLine
 10
31.65203709259424
 20
-38.10541014686102
 30
0.0
 11
31.83185783871704
 21
-38.53953583094642
 31
0.0
  0
LINE
  5
3D7
330
1F
100
AcDbEntity
  8
0
100
AcDbLine
 10
31.59070358482111
 20
-37.63953590294644
 30
0.0
 11
31.65203709259424
 21
-38.10541014686102
 31
0.0
  0
LINE
  5
3D8
330
1F
100
AcDbEntity
  8
0
100
AcDbLine
 10
31.65203709259424
 20
-37.17366165903186
 30
0.0
 11
31.59070358482111
 21
-37.63953590294644
 31
0.0
  0
LINE
  5
3D9
330
1F
100
AcDbEntity
  8
0
100
AcDbLine
 10
-75.27030557990304
 20
-58.34506876626729
 30
0.0
 11
-75.52912460430005
 21
-58.31099459528231
 31
0.0
  0
LINE
  5
3DA
330
1F
100
AcDbEntity
  8
0
100
AcDbLine
 10
-83.5291239643001
 20
-58.31099459528231
 30
0.0
 11
-75.52912460430005
 21
-58.31099459528231
 31
0.0
  0
LINE
  5
3DB
330
1F
100
AcDbEntity
  8
0
100
AcDbLine
 10
56.79454914580708
 20
-35.63953606294643
 30
0.0
 11
56.19514665873156
 21
-37.08662167656446
 31
0.0
  0
LINE
  5
3DC
330
1F
100
AcDbEntity
  8
0
100
AcDbLine
 10
42.83221496203033
 20
-39.76085607680047
 30
0.0
 11
43.45353525588429
 21
-40.23761190645371
 31
0.0
  0
LINE
  5
3DD
330
1F
100
AcDbEntity
  8
0
100
AcDbLine
 10
-84.49504971331498
 20
-59.0521754908853
 30
0.0
 11
-84.39514929880264
 21
-58.81099455528229
 31
0.0
  0
LINE
  5
3DE
330
1F
100
AcDbEntity
  8
0
100
AcDbLine
 10
-84.52912388430005
 20
-59.31099451528232
 30
0.0
 11
-84.49504971331498
 21
-59.0521754908853
 31
0.0
  0
LINE
  5
3DF
330
1F
100
AcDbEntity
  8
0
100
AcDbLine
 10
-84.52912388430005
 20
-59.31099451528232
 30
0.0
 11
-84.52912388430005
 21
-64.91099406728235
 31
0.0
  0
LINE
  5
3E0
330
1F
100
AcDbEntity
  8
0
100
AcDbLine
 10
-72.1291248762999
 20
-79.51099289928241
 30
0.0
 11
-72.1291248762999
 21
-72.91099342728238
 31
0.0
  0
LINE
  5
3E1
330
1F
100
AcDbEntity
  8
0
100
AcDbLine
 10
67.99070067282173
 20
-38.63953582294644
 30
0.0
 11
67.99070067282173
 21
-42.13953554294644
 31
0.0
  0
LINE
  5
3E2
330
1F
100
AcDbEntity
  8
0
100
AcDbLine
 10
55.9907016328215
 20
-38.63953582294644
 30
0.0
 11
55.9907016328215
 21
-42.13953554294644
 31
0.0
  0
LINE
  5
3E3
330
1F
100
AcDbEntity
  8
0
100
AcDbLine
 10
56.19514665873156
 20
-37.08662167656446
 30
0.0
 11
55.9907016328215
 21
-38.63953582294644
 31
0.0
  0
LINE
  5
3E4
330
1F
100
AcDbEntity
  8
0
100
AcDbLine
 10
57.74806080511364
 20
-34.39689547523837
 30
0.0
 11
56.79454914580708
 21
-35.63953606294643
 31
0.0
  0
LINE
  5
3E5
330
1F
100
AcDbEntity
  8
0
100
AcDbLine
 10
58.99070139282119
 20
-33.443383815932
 30
0.0
 11
57.74806080511364
 21
-34.39689547523837
 31
0.0
  0
LINE
  5
3E6
330
1F
100
AcDbEntity
  8
0
100
AcDbLine
 10
61.99070115282125
 20
-32.63953630294642
 30
0.0
 11
60.43778700643917
 21
-32.84398132885639
 31
0.0
  0
LINE
  5
3E7
330
1F
100
AcDbEntity
  8
0
100
AcDbLine
 10
63.54361529920333
 20
-32.84398132885639
 30
0.0
 11
61.99070115282125
 21
-32.63953630294642
 31
0.0
  0
LINE
  5
3E8
330
1F
100
AcDbEntity
  8
0
100
AcDbLine
 10
66.23334150052959
 20
-34.39689547523837
 30
0.0
 11
64.99070091282167
 21
-33.443383815932
 31
0.0
  0
LINE
  5
3E9
330
1F
100
AcDbEntity
  8
0
100
AcDbLine
 10
67.18685315983615
 20
-35.63953606294643
 30
0.0
 11
66.23334150052959
 21
-34.39689547523837
 31
0.0
  0
LINE
  5
3EA
330
1F
100
AcDbEntity
  8
0
100
AcDbLine
 10
67.78625564691166
 20
-37.08662167656446
 30
0.0
 11
67.18685315983615
 21
-35.63953606294643
 31
0.0
  0
LINE
  5
3EB
330
1F
100
AcDbEntity
  8
0
100
AcDbLine
 10
67.99070067282173
 20
-42.13953554294644
 30
0.0
 11
84.39069936082134
 21
-42.13953554294644
 31
0.0
  0
LINE
  5
3EC
330
1F
100
AcDbEntity
  8
0
100
AcDbLine
 10
84.39069936082134
 20
-18.53953743094628
 30
0.0
 11
84.39069936082134
 21
-42.13953554294644
 31
0.0
  0
LINE
  5
3ED
330
1F
100
AcDbEntity
  8
0
100
AcDbLine
 10
79.92482543690672
 20
-39.37820225117341
 30
0.0
 11
80.39069968082134
 21
-39.4395357589464
 31
0.0
  0
LINE
  5
3EE
330
1F
100
AcDbEntity
  8
0
100
AcDbLine
 10
78.65203333259431
 20
-38.10541014686102
 30
0.0
 11
78.83185407871713
 21
-38.53953583094642
 31
0.0
  0
LINE
  5
3EF
330
1F
100
AcDbEntity
  8
0
100
AcDbLine
 10
79.11790757650876
 20
-36.36674379863405
 30
0.0
 11
78.83185407871713
 21
-36.73953597494646
 31
0.0
  0
LINE
  5
3F0
330
1F
100
AcDbEntity
  8
0
100
AcDbLine
 10
80.85657392473595
 20
-35.90086955471947
 30
0.0
 11
80.39069968082134
 21
-35.83953604694648
 31
0.0
  0
LINE
  5
3F1
330
1F
100
AcDbEntity
  8
0
100
AcDbLine
 10
81.66349178513373
 20
-36.36674379863405
 30
0.0
 11
81.29069960882133
 21
-36.08069030084213
 31
0.0
  0
LINE
  5
3F2
330
1F
100
AcDbEntity
  8
0
100
AcDbLine
 10
33.85657768473587
 20
-39.37820225117341
 30
0.0
 11
34.29070336882123
 21
-39.19838150505075
 31
0.0
  0
LINE
  5
3F3
330
1F
100
AcDbEntity
  8
0
100
AcDbLine
 10
32.92482919690664
 20
-39.37820225117341
 30
0.0
 11
33.39070344082108
 21
-39.4395357589464
 31
0.0
  0
LINE
  5
3F4
330
1F
100
AcDbEntity
  8
0
100
AcDbLine
 10
32.49070351282127
 20
-39.19838150505075
 30
0.0
 11
32.92482919690664
 21
-39.37820225117341
 31
0.0
  0
LINE
  5
3F5
330
1F
100
AcDbEntity
  8
0
100
AcDbLine
 10
32.11791133650868
 20
-38.91232800725883
 30
0.0
 11
32.49070351282127
 21
-39.19838150505075
 31
0.0
  0
LINE
  5
3F6
330
1F
100
AcDbEntity
  8
0
100
AcDbLine
 10
31.83185783871704
 20
-38.53953583094642
 30
0.0
 11
32.11791133650868
 21
-38.91232800725883
 31
0.0
  0
LINE
  5
3F7
330
1F
100
AcDbEntity
  8
0
100
AcDbLine
 10
31.83185783871704
 20
-36.73953597494646
 30
0.0
 11
31.65203709259424
 21
-37.17366165903186
 31
0.0
  0
LINE
  5
3F8
330
1F
100
AcDbEntity
  8
0
100
AcDbLine
 10
32.11791133650868
 20
-36.36674379863405
 30
0.0
 11
31.83185783871704
 21
-36.73953597494646
 31
0.0
  0
LINE
  5
3F9
330
1F
100
AcDbEntity
  8
0
100
AcDbLine
 10
32.49070351282127
 20
-36.08069030084213
 30
0.0
 11
32.11791133650868
 21
-36.36674379863405
 31
0.0
  0
LINE
  5
3FA
330
1F
100
AcDbEntity
  8
0
100
AcDbLine
 10
33.39070344082108
 20
-35.83953604694648
 30
0.0
 11
32.92482919690664
 21
-35.90086955471947
 31
0.0
  0
LINE
  5
3FB
330
1F
100
AcDbEntity
  8
0
100
AcDbLine
 10
33.85657768473587
 20
-35.90086955471947
 30
0.0
 11
33.39070344082108
 21
-35.83953604694648
 31
0.0
  0
LINE
  5
3FC
330
1F
100
AcDbEntity
  8
0
100
AcDbLine
 10
34.94954904292547
 20
-36.73953597494646
 30
0.0
 11
34.66349554513347
 21
-36.36674379863405
 31
0.0
  0
LINE
  5
3FD
330
1F
100
AcDbEntity
  8
0
100
AcDbLine
 10
35.19070329682104
 20
-37.63953590294644
 30
0.0
 11
35.12936978904827
 21
-37.17366165903186
 31
0.0
  0
LINE
  5
3FE
330
1F
100
AcDbEntity
  8
0
100
AcDbLine
 10
35.12936978904827
 20
-38.10541014686102
 30
0.0
 11
35.19070329682104
 21
-37.63953590294644
 31
0.0
  0
LINE
  5
3FF
330
1F
100
AcDbEntity
  8
0
100
AcDbLine
 10
34.66349554513347
 20
-38.91232800725883
 30
0.0
 11
34.94954904292547
 21
-38.53953583094642
 31
0.0
  0
LINE
  5
400
330
1F
100
AcDbEntity
  8
0
100
AcDbLine
 10
34.29070336882123
 20
-39.19838150505075
 30
0.0
 11
34.66349554513347
 21
-38.91232800725883
 31
0.0
  0
LINE
  5
401
330
1F
100
AcDbEntity
  8
0
100
AcDbLine
 10
44.21424543963018
 20
-34.74175865590136
 30
0.0
 11
44.17707806269347
 21
-34.74175865590136
 31
0.0
  0
LINE
  5
402
330
1F
100
AcDbEntity
  8
0
100
AcDbLine
 10
44.99070251282139
 20
-34.63953614294638
 30
0.0
 11
44.95353513588433
 21
-34.63953614294643
 31
0.0
  0
LINE
  5
403
330
1F
100
AcDbEntity
  8
0
100
AcDbLine
 10
45.72999220907554
 20
-34.74175865590136
 30
0.0
 11
44.99070251282139
 21
-34.63953614294638
 31
0.0
  0
LINE
  5
404
330
1F
100
AcDbEntity
  8
0
100
AcDbLine
 10
45.76715958601226
 20
-34.74175865590136
 30
0.0
 11
45.72999220907554
 21
-34.74175865590136
 31
0.0
  0
LINE
  5
405
330
1F
100
AcDbEntity
  8
0
100
AcDbLine
 10
46.45353501588436
 20
-35.04145989943922
 30
0.0
 11
45.76715958601226
 21
-34.74175865590136
 31
0.0
  0
LINE
  5
406
330
1F
100
AcDbEntity
  8
0
100
AcDbLine
 10
46.49070239282143
 20
-35.04145989943917
 30
0.0
 11
46.45353501588436
 21
-35.04145989943922
 31
0.0
  0
LINE
  5
407
330
1F
100
AcDbEntity
  8
0
100
AcDbLine
 10
47.07485530973831
 20
-35.51821572909236
 30
0.0
 11
46.49070239282143
 21
-35.04145989943917
 31
0.0
  0
LINE
  5
408
330
1F
100
AcDbEntity
  8
0
100
AcDbLine
 10
47.55161113939177
 20
-36.13953602294641
 30
0.0
 11
47.07485530973831
 21
-35.51821572909236
 31
0.0
  0
LINE
  5
409
330
1F
100
AcDbEntity
  8
0
100
AcDbLine
 10
47.85131238292954
 20
-36.86307882975545
 30
0.0
 11
47.55161113939177
 21
-36.13953602294641
 31
0.0
  0
LINE
  5
40A
330
1F
100
AcDbEntity
  8
0
100
AcDbLine
 10
47.95353489588439
 20
-37.63953590294644
 30
0.0
 11
47.85131238292954
 21
-36.86307882975545
 31
0.0
  0
LINE
  5
40B
330
1F
100
AcDbEntity
  8
0
100
AcDbLine
 10
47.85131238292954
 20
-38.41599297613743
 30
0.0
 11
47.95353489588439
 21
-37.63953590294644
 31
0.0
  0
LINE
  5
40C
330
1F
100
AcDbEntity
  8
0
100
AcDbLine
 10
47.55161113939177
 20
-39.13953578294647
 30
0.0
 11
47.85131238292954
 21
-38.41599297613743
 31
0.0
  0
LINE
  5
40D
330
1F
100
AcDbEntity
  8
0
100
AcDbLine
 10
45.72999220907554
 20
-40.53731314999151
 30
0.0
 11
46.45353501588436
 21
-40.23761190645371
 31
0.0
  0
LINE
  5
40E
330
1F
100
AcDbEntity
  8
0
100
AcDbLine
 10
44.95353513588433
 20
-40.6395356629465
 30
0.0
 11
45.72999220907554
 21
-40.53731314999151
 31
0.0
  0
LINE
  5
40F
330
1F
100
AcDbEntity
  8
0
100
AcDbLine
 10
44.17707806269347
 20
-40.53731314999151
 30
0.0
 11
44.95353513588433
 21
-40.6395356629465
 31
0.0
  0
LINE
  5
410
330
1F
100
AcDbEntity
  8
0
100
AcDbLine
 10
43.45353525588429
 20
-40.23761190645371
 30
0.0
 11
44.17707806269347
 21
-40.53731314999151
 31
0.0
  0
LINE
  5
411
330
1F
100
AcDbEntity
  8
0
100
AcDbLine
 10
42.35545913237724
 20
-39.13953578294647
 30
0.0
 11
42.83221496203033
 21
-39.76085607680047
 31
0.0
  0
LINE
  5
412
330
1F
100
AcDbEntity
  8
0
100
AcDbLine
 10
42.05575788883948
 20
-38.41599297613743
 30
0.0
 11
42.35545913237724
 21
-39.13953578294647
 31
0.0
  0
LINE
  5
413
330
1F
100
AcDbEntity
  8
0
100
AcDbLine
 10
42.05575788883948
 20
-36.86307882975545
 30
0.0
 11
41.95353537588426
 21
-37.63953590294644
 31
0.0
  0
LINE
  5
414
330
1F
100
AcDbEntity
  8
0
100
AcDbLine
 10
-70.41684958928703
 20
-95.11099165128253
 30
0.0
 11
-70.15803056489001
 21
-95.07691748029755
 31
0.0
  0
LINE
  5
415
330
1F
100
AcDbEntity
  8
0
100
AcDbLine
 10
-70.15803056489001
 20
-95.07691748029755
 30
0.0
 11
-69.91684962928696
 21
-94.97701706578493
 31
0.0
  0
LINE
  5
416
330
1F
100
AcDbEntity
  8
0
100
AcDbLine
 10
-69.41684966928706
 20
-94.11099173128252
 30
0.0
 11
-69.41684966928706
 21
-79.51099289928241
 31
0.0
  0
LINE
  5
417
330
1F
100
AcDbEntity
  8
0
100
AcDbLine
 10
-69.41684966928706
 20
-79.51099289928241
 30
0.0
 11
-72.1291248762999
 21
-79.51099289928241
 31
0.0
  0
LINE
  5
418
330
1F
100
AcDbEntity
  8
0
100
AcDbLine
 10
-48.62912675629968
 20
-72.91099342728238
 30
0.0
 11
-48.62912675629968
 21
-79.51099289928241
 31
0.0
  0
LINE
  5
419
330
1F
100
AcDbEntity
  8
0
100
AcDbLine
 10
-49.12912671630065
 20
-88.5109921792825
 30
0.0
 11
-54.4116627048185
 21
-88.51099217928245
 31
0.0
  0
LINE
  5
41A
330
1F
100
AcDbEntity
  8
0
100
AcDbLine
 10
-49.12912671630065
 20
-94.11099173128252
 30
0.0
 11
-49.09505254531558
 21
-94.36981075567954
 31
0.0
  0
LINE
  5
41B
330
1F
100
AcDbEntity
  8
0
100
AcDbLine
 10
-49.09505254531558
 20
-94.36981075567954
 30
0.0
 11
-48.99515213080288
 21
-94.61099169128255
 31
0.0
  0
LINE
  5
41C
330
1F
100
AcDbEntity
  8
0
100
AcDbLine
 10
-48.99515213080288
 20
-94.61099169128255
 30
0.0
 11
-48.83623352091839
 21
-94.81809845590054
 31
0.0
  0
LINE
  5
41D
330
1F
100
AcDbEntity
  8
0
100
AcDbLine
 10
-48.83623352091839
 20
-94.81809845590054
 30
0.0
 11
-48.62912675630041
 21
-94.97701706578493
 31
0.0
  0
LINE
  5
41E
330
1F
100
AcDbEntity
  8
0
100
AcDbLine
 10
-48.62912675630041
 20
-94.97701706578493
 30
0.0
 11
-48.38794582069752
 21
-95.07691748029755
 31
0.0
  0
LINE
  5
41F
330
1F
100
AcDbEntity
  8
0
100
AcDbLine
 10
-48.38794582069752
 20
-95.07691748029755
 30
0.0
 11
-48.12912679630051
 21
-95.11099165128253
 31
0.0
  0
LINE
  5
420
330
1F
100
AcDbEntity
  8
0
100
AcDbLine
 10
-43.52912716430045
 20
-95.11099165128253
 30
0.0
 11
-48.12912679630051
 21
-95.11099165128253
 31
0.0
  0
LINE
  5
421
330
1F
100
AcDbEntity
  8
0
100
AcDbLine
 10
-43.02912720430056
 20
-94.97701706578493
 30
0.0
 11
-43.27030813990362
 21
-95.07691748029755
 31
0.0
  0
LINE
  5
422
330
1F
100
AcDbEntity
  8
0
100
AcDbLine
 10
-42.82202043968257
 20
-94.81809845590054
 30
0.0
 11
-43.02912720430056
 21
-94.97701706578493
 31
0.0
  0
LINE
  5
423
330
1F
100
AcDbEntity
  8
0
100
AcDbLine
 10
-42.66310182979808
 20
-94.61099169128255
 30
0.0
 11
-42.82202043968257
 21
-94.81809845590054
 31
0.0
  0
LINE
  5
424
330
1F
100
AcDbEntity
  8
0
100
AcDbLine
 10
-42.56320141528555
 20
-94.36981075567954
 30
0.0
 11
-42.66310182979808
 21
-94.61099169128255
 31
0.0
  0
LINE
  5
425
330
1F
100
AcDbEntity
  8
0
100
AcDbLine
 10
-42.52912724430049
 20
-94.11099173128252
 30
0.0
 11
-42.56320141528555
 21
-94.36981075567954
 31
0.0
  0
LINE
  5
426
330
1F
100
AcDbEntity
  8
0
100
AcDbLine
 10
-42.52912724430049
 20
-94.11099173128252
 30
0.0
 11
-42.52912724430049
 21
-88.5109921792825
 31
0.0
  0
LINE
  5
427
330
1F
100
AcDbEntity
  8
0
100
AcDbLine
 10
-42.52912724430049
 20
-88.5109921792825
 30
0.0
 11
-37.52912764429961
 21
-88.5109921792825
 31
0.0
  0
LINE
  5
428
330
1F
100
AcDbEntity
  8
0
100
AcDbLine
 10
-37.52912764429979
 20
-64.91099406728235
 30
0.0
 11
-37.52912764429961
 21
-88.5109921792825
 31
0.0
  0
LINE
  5
429
330
1F
100
AcDbEntity
  8
0
100
AcDbLine
 10
-45.52912700429965
 20
-59.31099451528232
 30
0.0
 11
-45.52912700429965
 21
-64.91099406728235
 31
0.0
  0
LINE
  5
42A
330
1F
100
AcDbEntity
  8
0
100
AcDbLine
 10
-45.52912700429965
 20
-59.31099451528232
 30
0.0
 11
-45.56320117528472
 21
-59.0521754908853
 31
0.0
  0
LINE
  5
42B
330
1F
100
AcDbEntity
  8
0
100
AcDbLine
 10
-45.56320117528472
 20
-59.0521754908853
 30
0.0
 11
-45.66310158979743
 21
-58.81099455528229
 31
0.0
  0
LINE
  5
42C
330
1F
100
AcDbEntity
  8
0
100
AcDbLine
 10
-45.66310158979743
 20
-58.81099455528229
 30
0.0
 11
-45.82202019968191
 21
-58.6038877906643
 31
0.0
  0
LINE
  5
42D
330
1F
100
AcDbEntity
  8
0
100
AcDbLine
 10
-54.78794530869683
 20
-58.34506876626729
 30
0.0
 11
-55.02912624429972
 21
-58.44496918077991
 31
0.0
  0
LINE
  5
42E
330
1F
100
AcDbEntity
  8
0
100
AcDbLine
 10
-55.39515161880218
 20
-58.81099455528229
 30
0.0
 11
-55.49505203331489
 21
-59.0521754908853
 31
0.0
  0
LINE
  5
42F
330
1F
100
AcDbEntity
  8
0
100
AcDbLine
 10
-55.52912620429996
 20
-59.31099451528232
 30
0.0
 11
-55.52912620429996
 21
-64.91099406728235
 31
0.0
  0
LINE
  5
430
330
1F
100
AcDbEntity
  8
0
100
AcDbLine
 10
-74.5291246843001
 20
-59.31099451528232
 30
0.0
 11
-74.56319885528517
 21
-59.0521754908853
 31
0.0
  0
LINE
  5
431
330
1F
100
AcDbEntity
  8
0
100
AcDbLine
 10
-74.56319885528517
 20
-59.0521754908853
 30
0.0
 11
-74.66309926979751
 21
-58.81099455528229
 31
0.0
  0
LINE
  5
432
330
1F
100
AcDbEntity
  8
0
100
AcDbLine
 10
-75.02912464429998
 20
-58.44496918077991
 30
0.0
 11
-75.27030557990304
 21
-58.34506876626729
 31
0.0
  0
LINE
  5
433
330
1F
100
AcDbEntity
  8
0
100
AcDbLine
 10
-83.7879429886971
 20
-58.34506876626729
 30
0.0
 11
-83.5291239643001
 21
-58.31099459528231
 31
0.0
  0
LINE
  5
434
330
1F
100
AcDbEntity
  8
0
100
AcDbLine
 10
-84.32912390029973
 20
-94.11099173128252
 30
0.0
 11
-84.29504972931467
 21
-94.36981075567954
 31
0.0
  0
LINE
  5
435
330
1F
100
AcDbEntity
  8
0
100
AcDbLine
 10
-84.29504972931467
 20
-94.36981075567954
 30
0.0
 11
-84.19514931480232
 21
-94.61099169128255
 31
0.0
  0
LINE
  5
436
330
1F
100
AcDbEntity
  8
0
100
AcDbLine
 10
-84.19514931480232
 20
-94.61099169128255
 30
0.0
 11
-84.03623070491783
 21
-94.81809845590054
 31
0.0
  0
LINE
  5
437
330
1F
100
AcDbEntity
  8
0
100
AcDbLine
 10
-84.03623070491783
 20
-94.81809845590054
 30
0.0
 11
-83.82912394029984
 21
-94.97701706578493
 31
0.0
  0
LINE
  5
438
330
1F
100
AcDbEntity
  8
0
100
AcDbLine
 10
-83.82912394029984
 20
-94.97701706578493
 30
0.0
 11
-83.5879430046968
 21
-95.07691748029755
 31
0.0
  0
LINE
  5
439
330
1F
100
AcDbEntity
  8
0
100
AcDbLine
 10
-83.5879430046968
 20
-95.07691748029755
 30
0.0
 11
-83.32912398029977
 21
-95.11099165128253
 31
0.0
  0
LINE
  5
43A
330
1F
100
AcDbEntity
  8
0
100
AcDbLine
 10
-81.4239322549409
 20
-79.51099289928241
 30
0.0
 11
-81.42912413230002
 21
-72.91099342728238
 31
0.0
  0
LINE
  5
43B
330
1F
100
AcDbEntity
  8
0
100
AcDbLine
 10
-86.42393030790323
 20
-79.51492613848919
 30
0.0
 11
-81.4239322549409
 21
-79.51099289928241
 31
0.0
  0
LINE
  5
43C
330
1F
100
AcDbEntity
  8
0
100
AcDbLine
 10
-86.42912218365646
 20
-72.91492870857856
 30
0.0
 11
-86.42393030790323
 21
-79.51492613848919
 31
0.0
  0
LINE
  5
43D
330
1F
100
AcDbEntity
  8
0
100
AcDbLine
 10
-81.42912413230002
 20
-72.91099342728238
 30
0.0
 11
-86.42912218365646
 21
-72.91492870857856
 31
0.0
  0
LINE
  5
43E
330
1F
100
AcDbEntity
  8
0
100
AcDbLine
 10
-89.42912349230005
 20
-82.45214693717806
 30
0.0
 11
-89.80191566861247
 21
-82.73820043497001
 31
0.0
  0
LINE
  5
43F
330
1F
100
AcDbEntity
  8
0
100
AcDbLine
 10
-88.99499780821469
 20
-82.27232619105538
 30
0.0
 11
-89.42912349230005
 21
-82.45214693717806
 31
0.0
  0
LINE
  5
440
330
1F
100
AcDbEntity
  8
0
100
AcDbLine
 10
-88.52912356429988
 20
-82.2109926832824
 30
0.0
 11
-88.99499780821469
 21
-82.27232619105538
 31
0.0
  0
LINE
  5
441
330
1F
100
AcDbEntity
  8
0
100
AcDbLine
 10
-86.9702779621955
 20
-83.11099261128243
 30
0.0
 11
-87.25633145998749
 21
-82.73820043497001
 31
0.0
  0
LINE
  5
442
330
1F
100
AcDbEntity
  8
0
100
AcDbLine
 10
-86.79045721607305
 20
-83.54511829536784
 30
0.0
 11
-86.9702779621955
 21
-83.11099261128243
 31
0.0
  0
LINE
  5
443
330
1F
100
AcDbEntity
  8
0
100
AcDbLine
 10
-89.80191566861247
 20
-85.28378464359488
 30
0.0
 11
-89.42912349230005
 21
-85.56983814138685
 31
0.0
  0
LINE
  5
444
330
1F
100
AcDbEntity
  8
0
100
AcDbLine
 10
-90.08796916640428
 20
-84.91099246728248
 30
0.0
 11
-89.80191566861247
 21
-85.28378464359488
 31
0.0
  0
LINE
  5
445
330
1F
100
AcDbEntity
  8
0
100
AcDbLine
 10
-90.26778991252709
 20
-84.47686678319708
 30
0.0
 11
-90.08796916640428
 21
-84.91099246728248
 31
0.0
  0
LINE
  5
446
330
1F
100
AcDbEntity
  8
0
100
AcDbLine
 10
-90.32912342030004
 20
-84.01099253928246
 30
0.0
 11
-90.26778991252709
 21
-84.47686678319708
 31
0.0
  0
LINE
  5
447
330
1F
100
AcDbEntity
  8
0
100
AcDbLine
 10
-90.26778991252709
 20
-83.54511829536784
 30
0.0
 11
-90.32912342030004
 21
-84.01099253928246
 31
0.0
  0
LINE
  5
448
330
1F
100
AcDbEntity
  8
0
100
AcDbLine
 10
-90.08796916640428
 20
-83.11099261128243
 30
0.0
 11
-90.26778991252709
 21
-83.54511829536784
 31
0.0
  0
LINE
  5
449
330
1F
100
AcDbEntity
  8
0
100
AcDbLine
 10
-89.80191566861247
 20
-82.73820043497001
 30
0.0
 11
-90.08796916640428
 21
-83.11099261128243
 31
0.0
  0
LINE
  5
44A
330
1F
100
AcDbEntity
  8
0
100
AcDbLine
 10
-42.8019194286122
 20
-82.73820043497001
 30
0.0
 11
-43.0879729264042
 21
-83.11099261128243
 31
0.0
  0
LINE
  5
44B
330
1F
100
AcDbEntity
  8
0
100
AcDbLine
 10
-42.42912725229961
 20
-82.45214693717806
 30
0.0
 11
-42.8019194286122
 21
-82.73820043497001
 31
0.0
  0
LINE
  5
44C
330
1F
100
AcDbEntity
  8
0
100
AcDbLine
 10
-41.99500156821424
 20
-82.27232619105538
 30
0.0
 11
-42.42912725229961
 21
-82.45214693717806
 31
0.0
  0
LINE
  5
44D
330
1F
100
AcDbEntity
  8
0
100
AcDbLine
 10
-41.52912732429981
 20
-82.2109926832824
 30
0.0
 11
-41.99500156821424
 21
-82.27232619105538
 31
0.0
  0
LINE
  5
44E
330
1F
100
AcDbEntity
  8
0
100
AcDbLine
 10
-41.063253080385
 20
-82.27232619105538
 30
0.0
 11
-41.52912732429981
 21
-82.2109926832824
 31
0.0
  0
LINE
  5
44F
330
1F
100
AcDbEntity
  8
0
100
AcDbLine
 10
-40.62912739629964
 20
-82.45214693717806
 30
0.0
 11
-41.063253080385
 21
-82.27232619105538
 31
0.0
  0
LINE
  5
450
330
1F
100
AcDbEntity
  8
0
100
AcDbLine
 10
-39.72912746829967
 20
-84.01099253928246
 30
0.0
 11
-39.79046097607261
 21
-83.54511829536784
 31
0.0
  0
LINE
  5
451
330
1F
100
AcDbEntity
  8
0
100
AcDbLine
 10
-39.79046097607261
 20
-84.47686678319708
 30
0.0
 11
-39.72912746829967
 21
-84.01099253928246
 31
0.0
  0
LINE
  5
452
330
1F
100
AcDbEntity
  8
0
100
AcDbLine
 10
-39.97028172219541
 20
-84.91099246728248
 30
0.0
 11
-39.79046097607261
 21
-84.47686678319708
 31
0.0
  0
LINE
  5
453
330
1F
100
AcDbEntity
  8
0
100
AcDbLine
 10
-42.8019194286122
 20
-85.28378464359488
 30
0.0
 11
-42.42912725229979
 21
-85.56983814138685
 31
0.0
  0
LINE
  5
454
330
1F
100
AcDbEntity
  8
0
100
AcDbLine
 10
41.95353537588426
 20
-37.63953590294644
 30
0.0
 11
42.05575788883948
 21
-38.41599297613743
 31
0.0
  0
LINE
  5
455
330
1F
100
AcDbEntity
  8
0
100
AcDbLine
 10
47.11202268667539
 20
-35.5182157290924
 30
0.0
 11
47.07485530973831
 21
-35.51821572909236
 31
0.0
  0
LINE
  5
456
330
1F
100
AcDbEntity
  8
0
100
AcDbLine
 10
9.554354613646865
 20
44.27883440474943
 30
0.0
 11
9.17456693840894
 21
44.27883440474943
 31
0.0
  0
ENDSEC
  0
SECTION
  2
OBJECTS
  0
DICTIONARY
  5
C
330
0
100
AcDbDictionary
281
     1
  3
ACAD_GROUP
350
D
  3
ACAD_LAYOUT
350
1A
  3
ACAD_MATERIAL
350
3B
  3
ACAD_MLEADERSTYLE
350
458
  3
ACAD_MLINESTYLE
350
17
  3
ACAD_PLOTSETTINGS
350
19
  3
ACAD_PLOTSTYLENAME
350
E
  3
ACAD_TABLESTYLE
350
457
  3
ACAD_VISUALSTYLE
350
2A
  0
DICTIONARY
  5
D
102
{ACAD_REACTORS
330
C
102
}
330
C
100
AcDbDictionary
281
     1
  0
DICTIONARY
  5
1A
102
{ACAD_REACTORS
330
C
102
}
330
C
100
AcDbDictionary
281
     1
  3
Layout1
350
1E
  3
Layout2
350
26
  3
Model
350
22
  0
DICTIONARY
  5
3B
102
{ACAD_REACTORS
330
C
102
}
330
C
100
AcDbDictionary
281
     1
  3
ByBlock
350
3D
  3
ByLayer
350
3C
  3
Global
350
3E
  0
DICTIONARY
  5
458
102
{ACAD_REACTORS
330
C
102
}
330
C
100
AcDbDictionary
281
     1
  0
DICTIONARY
  5
17
102
{ACAD_REACTORS
330
C
102
}
330
C
100
AcDbDictionary
281
     1
  3
Standard
350
18
  0
DICTIONARY
  5
19
102
{ACAD_REACTORS
330
C
102
}
330
C
100
AcDbDictionary
281
     1
  0
ACDBDICTIONARYWDFLT
  5
E
102
{ACAD_REACTORS
330
C
102
}
330
C
100
AcDbDictionary
281
     1
  3
Normal
350
F
100
AcDbDictionaryWithDefault
340
F
  0
DICTIONARY
  5
457
102
{ACAD_REACTORS
330
C
102
}
330
C
100
AcDbDictionary
281
     1
  0
DICTIONARY
  5
2A
102
{ACAD_REACTORS
330
C
102
}
330
C
100
AcDbDictionary
281
     1
  3
2dWireframe
350
2F
  3
3D Hidden
350
31
  3
3dWireframe
350
30
  3
Basic
350
32
  3
Brighten
350
36
  3
ColorChange
350
3A
  3
Conceptual
350
34
  3
Dim
350
35
  3
Facepattern
350
39
  3
Flat
350
2B
  3
FlatWithEdges
350
2C
  3
Gouraud
350
2D
  3
GouraudWithEdges
350
2E
  3
Linepattern
350
38
  3
Realistic
350
33
  3
Thicken
350
37
  0
LAYOUT
  5
1E
102
{ACAD_REACTORS
330
1A
102
}
330
1A
100
AcDbPlotSettings
  1

  2
none_device
  4

  6

 40
0.0
 41
0.0
 42
0.0
 43
0.0
 44
0.0
 45
0.0
 46
0.0
 47
0.0
 48
0.0
 49
0.0
140
0.0
141
0.0
142
1.0
143
1.0
 70
   688
 72
     0
 73
     0
 74
     5
  7

 75
    16
 76
     0
 77
     2
 78
   300
147
1.0
148
0.0
149
0.0
100
AcDbLayout
  1
Layout1
 70
     1
 71
     1
 10
0.0
 20
0.0
 11
12.0
 21
9.0
 12
0.0
 22
0.0
 32
0.0
 14
1.000000000000000E+20
 24
1.000000000000000E+20
 34
1.000000000000000E+20
 15
-1.000000000000000E+20
 25
-1.000000000000000E+20
 35
-1.000000000000000E+20
146
0.0
 13
0.0
 23
0.0
 33
0.0
 16
1.0
 26
0.0
 36
0.0
 17
0.0
 27
1.0
 37
0.0
 76
     0
330
1B
  0
LAYOUT
  5
26
102
{ACAD_REACTORS
330
1A
102
}
330
1A
100
AcDbPlotSettings
  1

  2
none_device
  4

  6

 40
0.0
 41
0.0
 42
0.0
 43
0.0
 44
0.0
 45
0.0
 46
0.0
 47
0.0
 48
0.0
 49
0.0
140
0.0
141
0.0
142
1.0
143
1.0
 70
   688
 72
     0
 73
     0
 74
     5
  7

 75
    16
 76
     0
 77
     2
 78
   300
147
1.0
148
0.0
149
0.0
100
AcDbLayout
  1
Layout2
 70
     1
 71
     2
 10
0.0
 20
0.0
 11
0.0
 21
0.0
 12
0.0
 22
0.0
 32
0.0
 14
0.0
 24
0.0
 34
0.0
 15
0.0
 25
0.0
 35
0.0
146
0.0
 13
0.0
 23
0.0
 33
0.0
 16
1.0
 26
0.0
 36
0.0
 17
0.0
 27
1.0
 37
0.0
 76
     0
330
23
  0
LAYOUT
  5
22
102
{ACAD_REACTORS
330
1A
102
}
330
1A
100
AcDbPlotSettings
  1

  2
none_device
  4

  6

 40
0.0
 41
0.0
 42
0.0
 43
0.0
 44
0.0
 45
0.0
 46
0.0
 47
0.0
 48
0.0
 49
0.0
140
0.0
141
0.0
142
1.0
143
1.0
 70
  1712
 72
     0
 73
     0
 74
     0
  7

 75
     0
 76
     0
 77
     2
 78
   300
147
1.0
148
0.0
149
0.0
100
AcDbLayout
  1
Model
 70
     1
 71
     0
 10
0.0
 20
0.0
 11
12.0
 21
9.0
 12
0.0
 22
0.0
 32
0.0
 14
1.000000000000000E+20
 24
1.000000000000000E+20
 34
1.000000000000000E+20
 15
-1.000000000000000E+20
 25
-1.000000000000000E+20
 35
-1.000000000000000E+20
146
0.0
 13
0.0
 23
0.0
 33
0.0
 16
1.0
 26
0.0
 36
0.0
 17
0.0
 27
1.0
 37
0.0
 76
     0
330
1F
331
29
  0
MATERIAL
  5
3D
102
{ACAD_REACTORS
330
3B
102
}
330
3B
100
AcDbMaterial
  1
ByBlock
 72
     1
 94
      127
  0
MATERIAL
  5
3C
102
{ACAD_REACTORS
330
3B
102
}
330
3B
100
AcDbMaterial
  1
ByLayer
 72
     1
 94
      127
  0
MATERIAL
  5
3E
102
{ACAD_REACTORS
330
3B
102
}
330
3B
100
AcDbMaterial
  1
Global
 72
     1
 94
      127
  0
MLINESTYLE
  5
18
102
{ACAD_REACTORS
330
17
102
}
330
17
100
AcDbMlineStyle
  2
Standard
 70
     0
  3

 62
   256
 51
90.0
 52
90.0
 71
     2
 49
0.5
 62
   256
  6
BYLAYER
 49
-0.5
 62
   256
  6
BYLAYER
  0
ACDBPLACEHOLDER
  5
F
102
{ACAD_REACTORS
330
E
102
}
330
E
  0
VISUALSTYLE
  5
2F
102
{ACAD_REACTORS
330
2A
102
}
330
2A
100
AcDbVisualStyle
  2
2dWireframe
 70
     4
177
     2
291
     0
 71
     0
176
     1
 72
     2
176
     1
 73
     0
176
     1
 90
        0
176
     1
 40
-0.6
176
     1
 41
-30.0
176
     1
 62
     5
 63
     7
421
 16777215
176
     1
 74
     1
176
     1
 91
        4
176
     1
 64
     7
176
     1
 65
   257
176
     1
 75
     1
176
     1
175
     1
176
     1
 42
1.0
176
     1
 92
        0
176
     1
 66
   257
176
     1
 43
1.0
176
     1
 76
     1
176
     1
 77
     6
176
     1
 78
     2
176
     1
 67
     7
176
     1
 79
     5
176
     1
170
     0
176
     1
171
     0
176
     1
290
     0
176
     1
 93
        1
176
     1
 44
0.0
176
     1
173
     0
176
     1
  0
VISUALSTYLE
  5
31
102
{ACAD_REACTORS
330
2A
102
}
330
2A
100
AcDbVisualStyle
  2
3D Hidden
 70
     6
177
     2
291
     0
 71
     1
176
     1
 72
     2
176
     1
 73
     2
176
     1
 90
        0
176
     1
 40
-0.6
176
     1
 41
-30.0
176
     1
 62
     5
 63
     7
421
 16777215
176
     1
 74
     2
176
     1
 91
        2
176
     1
 64
     7
176
     1
 65
   257
176
     1
 75
     2
176
     1
175
     1
176
     1
 42
40.0
176
     1
 92
        0
176
     1
 66
   257
176
     1
 43
1.0
176
     1
 76
     1
176
     1
 77
     6
176
     1
 78
     2
176
     1
 67
     7
176
     1
 79
     3
176
     1
170
     0
176
     1
171
     0
176
     1
290
     0
176
     1
 93
        1
176
     1
 44
0.0
176
     1
173
     0
176
     1
  0
VISUALSTYLE
  5
30
102
{ACAD_REACTORS
330
2A
102
}
330
2A
100
AcDbVisualStyle
  2
3dWireframe
 70
     5
177
     2
291
     0
 71
     0
176
     1
 72
     2
176
     1
 73
     0
176
     1
 90
        0
176
     1
 40
-0.6
176
     1
 41
-30.0
176
     1
 62
     5
 63
     7
421
 16777215
176
     1
 74
     1
176
     1
 91
        4
176
     1
 64
     7
176
     1
 65
   257
176
     1
 75
     1
176
     1
175
     1
176
     1
 42
1.0
176
     1
 92
        0
176
     1
 66
   257
176
     1
 43
1.0
176
     1
 76
     1
176
     1
 77
     6
176
     1
 78
     2
176
     1
 67
     7
176
     1
 79
     5
176
     1
170
     0
176
     1
171
     0
176
     1
290
     0
176
     1
 93
        1
176
     1
 44
0.0
176
     1
173
     0
176
     1
  0
VISUALSTYLE
  5
32
102
{ACAD_REACTORS
330
2A
102
}
330
2A
100
AcDbVisualStyle
  2
Basic
 70
     7
177
     2
291
     1
 71
     1
176
     1
 72
     0
176
     1
 73
     1
176
     1
 90
        0
176
     1
 40
-0.6
176
     1
 41
-30.0
176
     1
 62
     5
 63
     7
421
 16777215
176
     1
 74
     0
176
     1
 91
        4
176
     1
 64
     7
176
     1
 65
   257
176
     1
 75
     1
176
     1
175
     1
176
     1
 42
1.0
176
     1
 92
        8
176
     1
 66
     7
176
     1
 43
1.0
176
     1
 76
     1
176
     1
 77
     6
176
     1
 78
     2
176
     1
 67
     7
176
     1
 79
     5
176
     1
170
     0
176
     1
171
     0
176
     1
290
     0
176
     1
 93
        1
176
     1
 44
0.0
176
     1
173
     0
176
     1
  0
VISUALSTYLE
  5
36
102
{ACAD_REACTORS
330
2A
102
}
330
2A
100
AcDbVisualStyle
  2
Brighten
 70
    12
177
     2
291
     1
 71
     2
176
     1
 72
     2
176
     1
 73
     0
176
     1
 90
        0
176
     1
 40
-0.6
176
     1
 41
-30.0
176
     1
 62
     5
 63
     7
421
 16777215
176
     1
 74
     1
176
     1
 91
        4
176
     1
 64
     7
176
     1
 65
   257
176
     1
 75
     1
176
     1
175
     1
176
     1
 42
1.0
176
     1
 92
        8
176
     1
 66
     7
176
     1
 43
1.0
176
     1
 76
     1
176
     1
 77
     6
176
     1
 78
     2
176
     1
 67
     7
176
     1
 79
     5
176
     1
170
     0
176
     1
171
     0
176
     1
290
     0
176
     1
 93
        1
176
     1
 44
50.0
176
     1
173
     0
176
     1
  0
VISUALSTYLE
  5
3A
102
{ACAD_REACTORS
330
2A
102
}
330
2A
100
AcDbVisualStyle
  2
ColorChange
 70
    16
177
     2
291
     1
 71
     2
176
     1
 72
     2
176
     1
 73
     3
176
     1
 90
        0
176
     1
 40
-0.6
176
     1
 41
-30.0
176
     1
 62
     5
 63
     8
421
  8421504
176
     1
 74
     1
176
     1
 91
        4
176
     1
 64
     7
176
     1
 65
   257
176
     1
 75
     1
176
     1
175
     1
176
     1
 42
1.0
176
     1
 92
        8
176
     1
 66
     8
424
  8421504
176
     1
 43
1.0
176
     1
 76
     1
176
     1
 77
     6
176
     1
 78
     2
176
     1
 67
     7
176
     1
 79
     5
176
     1
170
     0
176
     1
171
     0
176
     1
290
     0
176
     1
 93
        1
176
     1
 44
0.0
176
     1
173
     0
176
     1
  0
VISUALSTYLE
  5
34
102
{ACAD_REACTORS
330
2A
102
}
330
2A
100
AcDbVisualStyle
  2
Conceptual
 70
     9
177
     2
291
     0
 71
     3
176
     1
 72
     2
176
     1
 73
     0
176
     1
 90
        0
176
     1
 40
-0.6
176
     1
 41
-30.0
176
     1
 62
     5
 63
     7
421
 16777215
176
     1
 74
     2
176
     1
 91
        2
176
     1
 64
     7
176
     1
 65
   257
176
     1
 75
     1
176
     1
175
     1
176
     1
 42
40.0
176
     1
 92
        8
176
     1
 66
     7
176
     1
 43
1.0
176
     1
 76
     1
176
     1
 77
     6
176
     1
 78
     2
176
     1
 67
     7
176
     1
 79
     3
176
     1
170
     0
176
     1
171
     0
176
     1
290
     0
176
     1
 93
        1
176
     1
 44
0.0
176
     1
173
     0
176
     1
  0
VISUALSTYLE
  5
35
102
{ACAD_REACTORS
330
2A
102
}
330
2A
100
AcDbVisualStyle
  2
Dim
 70
    11
177
     2
291
     1
 71
     2
176
     1
 72
     2
176
     1
 73
     0
176
     1
 90
        0
176
     1
 40
-0.6
176
     1
 41
-30.0
176
     1
 62
     5
 63
     7
421
 16777215
176
     1
 74
     1
176
     1
 91
        4
176
     1
 64
     7
176
     1
 65
   257
176
     1
 75
     1
176
     1
175
     1
176
     1
 42
1.0
176
     1
 92
        8
176
     1
 66
     7
176
     1
 43
1.0
176
     1
 76
     1
176
     1
 77
     6
176
     1
 78
     2
176
     1
 67
     7
176
     1
 79
     5
176
     1
170
     0
176
     1
171
     0
176
     1
290
     0
176
     1
 93
        1
176
     1
 44
-50.0
176
     1
173
     0
176
     1
  0
VISUALSTYLE
  5
39
102
{ACAD_REACTORS
330
2A
102
}
330
2A
100
AcDbVisualStyle
  2
Facepattern
 70
    15
177
     2
291
     1
 71
     2
176
     1
 72
     2
176
     1
 73
     0
176
     1
 90
        0
176
     1
 40
-0.6
176
     1
 41
-30.0
176
     1
 62
     5
 63
     7
421
 16777215
176
     1
 74
     1
176
     1
 91
        4
176
     1
 64
     7
176
     1
 65
   257
176
     1
 75
     1
176
     1
175
     1
176
     1
 42
1.0
176
     1
 92
        8
176
     1
 66
     7
176
     1
 43
1.0
176
     1
 76
     1
176
     1
 77
     6
176
     1
 78
     2
176
     1
 67
     7
176
     1
 79
     5
176
     1
170
     0
176
     1
171
     0
176
     1
290
     0
176
     1
 93
        1
176
     1
 44
0.0
176
     1
173
     0
176
     1
  0
VISUALSTYLE
  5
2B
102
{ACAD_REACTORS
330
2A
102
}
330
2A
100
AcDbVisualStyle
  2
Flat
 70
     0
177
     2
291
     1
 71
     2
176
     1
 72
     1
176
     1
 73
     1
176
     1
 90
        2
176
     1
 40
-0.6
176
     1
 41
30.0
176
     1
 62
     5
 63
     7
421
 16777215
176
     1
 74
     0
176
     1
 91
        4
176
     1
 64
     7
176
     1
 65
   257
176
     1
 75
     1
176
     1
175
     1
176
     1
 42
1.0
176
     1
 92
        8
176
     1
 66
     7
176
     1
 43
1.0
176
     1
 76
     1
176
     1
 77
     6
176
     1
 78
     2
176
     1
 67
     7
176
     1
 79
     5
176
     1
170
     0
176
     1
171
     0
176
     1
290
     0
176
     1
 93
       13
176
     1
 44
0.0
176
     1
173
     0
176
     1
  0
VISUALSTYLE
  5
2C
102
{ACAD_REACTORS
330
2A
102
}
330
2A
100
AcDbVisualStyle
  2
FlatWithEdges
 70
     1
177
     2
291
     1
 71
     2
176
     1
 72
     1
176
     1
 73
     1
176
     1
 90
        2
176
     1
 40
-0.6
176
     1
 41
30.0
176
     1
 62
     5
 63
     7
421
 16777215
176
     1
 74
     1
176
     1
 91
        4
176
     1
 64
     7
176
     1
 65
   257
176
     1
 75
     1
176
     1
175
     1
176
     1
 42
1.0
176
     1
 92
        0
176
     1
 66
   257
176
     1
 43
1.0
176
     1
 76
     1
176
     1
 77
     6
176
     1
 78
     2
176
     1
 67
     7
176
     1
 79
     5
176
     1
170
     0
176
     1
171
     0
176
     1
290
     0
176
     1
 93
       13
176
     1
 44
0.0
176
     1
173
     0
176
     1
  0
VISUALSTYLE
  5
2D
102
{ACAD_REACTORS
330
2A
102
}
330
2A
100
AcDbVisualStyle
  2
Gouraud
 70
     2
177
     2
291
     1
 71
     2
176
     1
 72
     2
176
     1
 73
     1
176
     1
 90
        2
176
     1
 40
-0.6
176
     1
 41
30.0
176
     1
 62
     5
 63
     7
421
 16777215
176
     1
 74
     0
176
     1
 91
        4
176
     1
 64
     7
176
     1
 65
   257
176
     1
 75
     1
176
     1
175
     1
176
     1
 42
1.0
176
     1
 92
        0
176
     1
 66
     7
176
     1
 43
1.0
176
     1
 76
     1
176
     1
 77
     6
176
     1
 78
     2
176
     1
 67
     7
176
     1
 79
     5
176
     1
170
     0
176
     1
171
     0
176
     1
290
     0
176
     1
 93
       13
176
     1
 44
0.0
176
     1
173
     0
176
     1
  0
VISUALSTYLE
  5
2E
102
{ACAD_REACTORS
330
2A
102
}
330
2A
100
AcDbVisualStyle
  2
GouraudWithEdges
 70
     3
177
     2
291
     1
 71
     2
176
     1
 72
     2
176
     1
 73
     1
176
     1
 90
        2
176
     1
 40
-0.6
176
     1
 41
30.0
176
     1
 62
     5
 63
     7
421
 16777215
176
     1
 74
     1
176
     1
 91
        4
176
     1
 64
     7
176
     1
 65
   257
176
     1
 75
     1
176
     1
175
     1
176
     1
 42
1.0
176
     1
 92
        0
176
     1
 66
   257
176
     1
 43
1.0
176
     1
 76
     1
176
     1
 77
     6
176
     1
 78
     2
176
     1
 67
     7
176
     1
 79
     5
176
     1
170
     0
176
     1
171
     0
176
     1
290
     0
176
     1
 93
       13
176
     1
 44
0.0
176
     1
173
     0
176
     1
  0
VISUALSTYLE
  5
38
102
{ACAD_REACTORS
330
2A
102
}
330
2A
100
AcDbVisualStyle
  2
Linepattern
 70
    14
177
     2
291
     1
 71
     2
176
     1
 72
     2
176
     1
 73
     0
176
     1
 90
        0
176
     1
 40
-0.6
176
     1
 41
-30.0
176
     1
 62
     5
 63
     7
421
 16777215
176
     1
 74
     1
176
     1
 91
        4
176
     1
 64
     7
176
     1
 65
   257
176
     1
 75
     7
176
     1
175
     7
176
     1
 42
1.0
176
     1
 92
        8
176
     1
 66
     7
176
     1
 43
1.0
176
     1
 76
     1
176
     1
 77
     6
176
     1
 78
     2
176
     1
 67
     7
176
     1
 79
     5
176
     1
170
     0
176
     1
171
     0
176
     1
290
     0
176
     1
 93
        1
176
     1
 44
0.0
176
     1
173
     0
176
     1
  0
VISUALSTYLE
  5
33
102
{ACAD_REACTORS
330
2A
102
}
330
2A
100
AcDbVisualStyle
  2
Realistic
 70
     8
177
     2
291
     0
 71
     2
176
     1
 72
     2
176
     1
 73
     0
176
     1
 90
        0
176
     1
 40
-0.6
176
     1
 41
-30.0
176
     1
 62
     5
 63
     7
421
 16777215
176
     1
 74
     1
176
     1
 91
        0
176
     1
 64
     7
176
     1
 65
   257
176
     1
 75
     1
176
     1
175
     1
176
     1
 42
1.0
176
     1
 92
        8
176
     1
 66
     8
424
  7895160
176
     1
 43
1.0
176
     1
 76
     1
176
     1
 77
     6
176
     1
 78
     2
176
     1
 67
     7
176
     1
 79
     5
176
     1
170
     0
176
     1
171
     0
176
     1
290
     0
176
     1
 93
       13
176
     1
 44
0.0
176
     1
173
     0
176
     1
  0
VISUALSTYLE
  5
37
102
{ACAD_REACTORS
330
2A
102
}
330
2A
100
AcDbVisualStyle
  2
Thicken
 70
    13
177
     2
291
     1
 71
     2
176
     1
 72
     2
176
     1
 73
     0
176
     1
 90
        0
176
     1
 40
-0.6
176
     1
 41
-30.0
176
     1
 62
     5
 63
     7
421
 16777215
176
     1
 74
     1
176
     1
 91
        4
176
     1
 64
     7
176
     1
 65
   257
176
     1
 75
     1
176
     1
175
     1
176
     1
 42
1.0
176
     1
 92
       12
176
     1
 66
     7
176
     1
 43
1.0
176
     1
 76
     1
176
     1
 77
     6
176
     1
 78
     2
176
     1
 67
     7
176
     1
 79
     5
176
     1
170
     0
176
     1
171
     0
176
     1
290
     0
176
     1
 93
        1
176
     1
 44
0.0
176
     1
173
     0
176
     1
  0
ENDSEC
  0
EOF
