  0
SECTION
  2
HEADER
  9
$ACADVER
  1
AC1024
  9
$ACADMAINTVER
 70
     6
  9
$DWGCODEPAGE
  3
ANSI_1252
  9
$INSBASE
 10
0.0
 20
0.0
 30
0.0
  9
$EXTMIN
 10
1.000000000000000E+20
 20
1.000000000000000E+20
 30
1.000000000000000E+20
  9
$EXTMAX
 10
-1.000000000000000E+20
 20
-1.000000000000000E+20
 30
-1.000000000000000E+20
  9
$LIMMIN
 10
0.0
 20
0.0
  9
$LIMMAX
 10
12.0
 20
9.0
  9
$ORTHOMODE
 70
     0
  9
$REGENMODE
 70
     1
  9
$FILLMODE
 70
     1
  9
$QTEXTMODE
 70
     0
  9
$MIRRTEXT
 70
     1
  9
$LTSCALE
 40
1.0
  9
$ATTMODE
 70
     1
  9
$TEXTSIZE
 40
0.2
  9
$TRACEWID
 40
0.05
  9
$TEXTSTYLE
  7
Standard
  9
$CLAYER
  8
0
  9
$CELTYPE
  6
ByLayer
  9
$CECOLOR
 62
   256
  9
$CELTSCALE
 40
1.0
  9
$DISPSILH
 70
     0
  9
$DIMSCALE
 40
1.0
  9
$DIMASZ
 40
0.18
  9
$DIMEXO
 40
0.0625
  9
$DIMDLI
 40
0.38
  9
$DIMRND
 40
0.0
  9
$DIMDLE
 40
0.0
  9
$DIMEXE
 40
0.18
  9
$DIMTP
 40
0.0
  9
$DIMTM
 40
0.0
  9
$DIMTXT
 40
0.18
  9
$DIMCEN
 40
0.09
  9
$DIMTSZ
 40
0.0
  9
$DIMTOL
 70
     0
  9
$DIMLIM
 70
     0
  9
$DIMTIH
 70
     1
  9
$DIMTOH
 70
     1
  9
$DIMSE1
 70
     0
  9
$DIMSE2
 70
     0
  9
$DIMTAD
 70
     0
  9
$DIMZIN
 70
     0
  9
$DIMBLK
  1

  9
$DIMASO
 70
     1
  9
$DIMSHO
 70
     1
  9
$DIMPOST
  1

  9
$DIMAPOST
  1

  9
$DIMALT
 70
     0
  9
$DIMALTD
 70
     2
  9
$DIMALTF
 40
25.4
  9
$DIMLFAC
 40
1.0
  9
$DIMTOFL
 70
     0
  9
$DIMTVP
 40
0.0
  9
$DIMTIX
 70
     0
  9
$DIMSOXD
 70
     0
  9
$DIMSAH
 70
     0
  9
$DIMBLK1
  1

  9
$DIMBLK2
  1

  9
$DIMSTYLE
  2
Standard
  9
$DIMCLRD
 70
     0
  9
$DIMCLRE
 70
     0
  9
$DIMCLRT
 70
     0
  9
$DIMTFAC
 40
1.0
  9
$DIMGAP
 40
0.09
  9
$DIMJUST
 70
     0
  9
$DIMSD1
 70
     0
  9
$DIMSD2
 70
     0
  9
$DIMTOLJ
 70
     1
  9
$DIMTZIN
 70
     0
  9
$DIMALTZ
 70
     0
  9
$DIMALTTZ
 70
     0
  9
$DIMUPT
 70
     0
  9
$DIMDEC
 70
     4
  9
$DIMTDEC
 70
     4
  9
$DIMALTU
 70
     2
  9
$DIMALTTD
 70
     2
  9
$DIMTXSTY
  7
Standard
  9
$DIMAUNIT
 70
     0
  9
$DIMADEC
 70
     0
  9
$DIMALTRND
 40
0.0
  9
$DIMAZIN
 70
     0
  9
$DIMDSEP
 70
    46
  9
$DIMATFIT
 70
     3
  9
$DIMFRAC
 70
     0
  9
$DIMLDRBLK
  1

  9
$DIMLUNIT
 70
     2
  9
$DIMLWD
 70
    -2
  9
$DIMLWE
 70
    -2
  9
$DIMTMOVE
 70
     0
  9
$DIMFXL
 40
1.0
  9
$DIMFXLON
 70
     0
  9
$DIMJOGANG
 40
0.7853981633974483
  9
$DIMTFILL
 70
     0
  9
$DIMTFILLCLR
 70
     0
  9
$DIMARCSYM
 70
     0
  9
$DIMLTYPE
  6

  9
$DIMLTEX1
  6

  9
$DIMLTEX2
  6

  9
$DIMTXTDIRECTION
 70
     0
  9
$LUNITS
 70
     2
  9
$LUPREC
 70
     4
  9
$SKETCHINC
 40
0.1
  9
$FILLETRAD
 40
0.5
  9
$AUNITS
 70
     0
  9
$AUPREC
 70
     0
  9
$MENU
  1
.
  9
$ELEVATION
 40
0.0
  9
$PELEVATION
 40
0.0
  9
$THICKNESS
 40
0.0
  9
$LIMCHECK
 70
     0
  9
$CHAMFERA
 40
0.5
  9
$CHAMFERB
 40
0.5
  9
$CHAMFERC
 40
1.0
  9
$CHAMFERD
 40
0.0
  9
$SKPOLY
 70
     0
  9
$TDCREATE
 40
2456396.374165625
  9
$TDUCREATE
 40
2456396.540832292
  9
$TDUPDATE
 40
2456396.374165636
  9
$TDUUPDATE
 40
2456396.540832303
  9
$TDINDWG
 40
0.0000000116
  9
$TDUSRTIMER
 40
0.0000000116
  9
$USRTIMER
 70
     1
  9
$ANGBASE
 50
0.0
  9
$ANGDIR
 70
     0
  9
$PDMODE
 70
     0
  9
$PDSIZE
 40
0.0
  9
$PLINEWID
 40
0.0
  9
$SPLFRAME
 70
     0
  9
$SPLINETYPE
 70
     6
  9
$SPLINESEGS
 70
     8
  9
$HANDSEED
  5
419
  9
$SURFTAB1
 70
     6
  9
$SURFTAB2
 70
     6
  9
$SURFTYPE
 70
     6
  9
$SURFU
 70
     6
  9
$SURFV
 70
     6
  9
$UCSBASE
  2

  9
$UCSNAME
  2

  9
$UCSORG
 10
0.0
 20
0.0
 30
0.0
  9
$UCSXDIR
 10
1.0
 20
0.0
 30
0.0
  9
$UCSYDIR
 10
0.0
 20
1.0
 30
0.0
  9
$UCSORTHOREF
  2

  9
$UCSORTHOVIEW
 70
     0
  9
$UCSORGTOP
 10
0.0
 20
0.0
 30
0.0
  9
$UCSORGBOTTOM
 10
0.0
 20
0.0
 30
0.0
  9
$UCSORGLEFT
 10
0.0
 20
0.0
 30
0.0
  9
$UCSORGRIGHT
 10
0.0
 20
0.0
 30
0.0
  9
$UCSORGFRONT
 10
0.0
 20
0.0
 30
0.0
  9
$UCSORGBACK
 10
0.0
 20
0.0
 30
0.0
  9
$PUCSBASE
  2

  9
$PUCSNAME
  2

  9
$PUCSORG
 10
0.0
 20
0.0
 30
0.0
  9
$PUCSXDIR
 10
1.0
 20
0.0
 30
0.0
  9
$PUCSYDIR
 10
0.0
 20
1.0
 30
0.0
  9
$PUCSORTHOREF
  2

  9
$PUCSORTHOVIEW
 70
     0
  9
$PUCSORGTOP
 10
0.0
 20
0.0
 30
0.0
  9
$PUCSORGBOTTOM
 10
0.0
 20
0.0
 30
0.0
  9
$PUCSORGLEFT
 10
0.0
 20
0.0
 30
0.0
  9
$PUCSORGRIGHT
 10
0.0
 20
0.0
 30
0.0
  9
$PUCSORGFRONT
 10
0.0
 20
0.0
 30
0.0
  9
$PUCSORGBACK
 10
0.0
 20
0.0
 30
0.0
  9
$USERI1
 70
     0
  9
$USERI2
 70
     0
  9
$USERI3
 70
     0
  9
$USERI4
 70
     0
  9
$USERI5
 70
     0
  9
$USERR1
 40
0.0
  9
$USERR2
 40
0.0
  9
$USERR3
 40
0.0
  9
$USERR4
 40
0.0
  9
$USERR5
 40
0.0
  9
$WORLDVIEW
 70
     1
  9
$SHADEDGE
 70
     3
  9
$SHADEDIF
 70
    70
  9
$TILEMODE
 70
     1
  9
$MAXACTVP
 70
    64
  9
$PINSBASE
 10
0.0
 20
0.0
 30
0.0
  9
$PLIMCHECK
 70
     0
  9
$PEXTMIN
 10
1.000000000000000E+20
 20
1.000000000000000E+20
 30
1.000000000000000E+20
  9
$PEXTMAX
 10
-1.000000000000000E+20
 20
-1.000000000000000E+20
 30
-1.000000000000000E+20
  9
$PLIMMIN
 10
0.0
 20
0.0
  9
$PLIMMAX
 10
12.0
 20
9.0
  9
$UNITMODE
 70
     0
  9
$VISRETAIN
 70
     1
  9
$PLINEGEN
 70
     0
  9
$PSLTSCALE
 70
     1
  9
$TREEDEPTH
 70
  3020
  9
$CMLSTYLE
  2
Standard
  9
$CMLJUST
 70
     0
  9
$CMLSCALE
 40
1.0
  9
$PROXYGRAPHICS
 70
     1
  9
$MEASUREMENT
 70
     0
  9
$CELWEIGHT
370
    -1
  9
$ENDCAPS
280
     0
  9
$JOINSTYLE
280
     0
  9
$LWDISPLAY
290
     0
  9
$INSUNITS
 70
     1
  9
$HYPERLINKBASE
  1

  9
$STYLESHEET
  1

  9
$XEDIT
290
     1
  9
$CEPSNTYPE
380
     0
  9
$PSTYLEMODE
290
     1
  9
$FINGERPRINTGUID
  2
{58BE6159-F499-485B-B49B-8596CD56D834}
  9
$VERSIONGUID
  2
{FAEB1C32-E019-11D5-929B-00C0DF256EC4}
  9
$EXTNAMES
290
     1
  9
$PSVPSCALE
 40
0.0
  9
$OLESTARTUP
290
     0
  9
$SORTENTS
280
   127
  9
$INDEXCTL
280
     0
  9
$HIDETEXT
280
     1
  9
$XCLIPFRAME
280
     2
  9
$HALOGAP
280
     0
  9
$OBSCOLOR
 70
   257
  9
$OBSLTYPE
280
     0
  9
$INTERSECTIONDISPLAY
280
     0
  9
$INTERSECTIONCOLOR
 70
   257
  9
$DIMASSOC
280
     2
  9
$PROJECTNAME
  1

  9
$CAMERADISPLAY
290
     0
  9
$LENSLENGTH
 40
50.0
  9
$CAMERAHEIGHT
 40
0.0
  9
$STEPSPERSEC
 40
2.0
  9
$STEPSIZE
 40
6.0
  9
$3DDWFPREC
 40
2.0
  9
$PSOLWIDTH
 40
0.25
  9
$PSOLHEIGHT
 40
4.0
  9
$LOFTANG1
 40
1.570796326794897
  9
$LOFTANG2
 40
1.570796326794897
  9
$LOFTMAG1
 40
0.0
  9
$LOFTMAG2
 40
0.0
  9
$LOFTPARAM
 70
     7
  9
$LOFTNORMALS
280
     1
  9
$LATITUDE
 40
37.795
  9
$LONGITUDE
 40
-122.394
  9
$NORTHDIRECTION
 40
0.0
  9
$TIMEZONE
 70
 -8000
  9
$LIGHTGLYPHDISPLAY
280
     1
  9
$TILEMODELIGHTSYNCH
280
     1
  9
$SOLIDHIST
280
     1
  9
$SHOWHIST
280
     1
  9
$DWFFRAME
280
     2
  9
$DGNFRAME
280
     2
  9
$REALWORLDSCALE
290
     1
  9
$INTERFERECOLOR
 62
   256
  9
$CSHADOW
280
     0
  9
$SHADOWPLANELOCATION
 40
0.0
  0
ENDSEC
  0
SECTION
  2
CLASSES
  0
CLASS
  1
ACDBDICTIONARYWDFLT
  2
AcDbDictionaryWithDefault
  3
ObjectDBX Classes
 90
        0
 91
        4
280
     0
281
     0
  0
CLASS
  1
VISUALSTYLE
  2
AcDbVisualStyle
  3
ObjectDBX Classes
 90
     4095
 91
        4
280
     0
281
     0
  0
CLASS
  1
MATERIAL
  2
AcDbMaterial
  3
ObjectDBX Classes
 90
     1153
 91
        4
280
     0
281
     0
  0
ENDSEC
  0
SECTION
  2
TABLES
  0
TABLE
  2
VPORT
  5
8
330
0
100
AcDbSymbolTable
 70
     1
  0
VPORT
  5
29
330
8
100
AcDbSymbolTableRecord
100
AcDbViewportTableRecord
  2
*Active
 70
     0
 10
0.0
 20
0.0
 11
1.0
 21
1.0
 12
0.0
 22
0.0
 13
0.0
 23
0.0
 14
0.5
 24
0.5
 15
0.5
 25
0.5
 16
0.0
 26
0.0
 36
1.0
 17
0.0
 27
0.0
 37
-1000.0
 40
258.183384568587
 41
1.822857142857143
 42
50.0
 43
3985.455138884457
 44
4899.051834179137
 50
0.0
 51
0.0
 71
     0
 72
   100
 73
     1
 74
     3
 75
     0
 76
     0
 77
     0
 78
     0
281
     0
 65
     1
110
0.0
120
0.0
130
0.0
111
1.0
121
0.0
131
0.0
112
0.0
122
1.0
132
0.0
 79
     0
146
0.0
 60
     3
 61
     5
292
     1
282
     1
141
0.0
142
0.0
 63
   250
  0
ENDTAB
  0
TABLE
  2
LTYPE
  5
5
330
0
100
AcDbSymbolTable
 70
     1
  0
LTYPE
  5
14
330
5
100
AcDbSymbolTableRecord
100
AcDbLinetypeTableRecord
  2
ByBlock
 70
     0
  3

 72
    65
 73
     0
 40
0.0
  0
LTYPE
  5
15
330
5
100
AcDbSymbolTableRecord
100
AcDbLinetypeTableRecord
  2
ByLayer
 70
     0
  3

 72
    65
 73
     0
 40
0.0
  0
LTYPE
  5
16
330
5
100
AcDbSymbolTableRecord
100
AcDbLinetypeTableRecord
  2
Continuous
 70
     0
  3
Solid line
 72
    65
 73
     0
 40
0.0
  0
ENDTAB
  0
TABLE
  2
LAYER
  5
2
330
0
100
AcDbSymbolTable
 70
     3
  0
LAYER
  5
10
330
2
100
AcDbSymbolTableRecord
100
AcDbLayerTableRecord
  2
0
 70
     0
 62
     7
  6
Continuous
370
    -3
390
F
347
3E
  0
LAYER
  5
3F
330
2
100
AcDbSymbolTableRecord
100
AcDbLayerTableRecord
  2
ProfileEdges
 70
     0
 62
     7
  6
Continuous
370
    -3
390
F
347
3E
  0
LAYER
  5
40
330
2
100
AcDbSymbolTableRecord
100
AcDbLayerTableRecord
  2
SectionCutEdges
 70
     0
 62
     7
  6
Continuous
370
    -3
390
F
347
3E
  0
ENDTAB
  0
TABLE
  2
STYLE
  5
3
330
0
100
AcDbSymbolTable
 70
     1
  0
STYLE
  5
11
330
3
100
AcDbSymbolTableRecord
100
AcDbTextStyleTableRecord
  2
Standard
 70
     0
 40
0.0
 41
1.0
 50
0.0
 71
     0
 42
0.2
  3
txt
  4

  0
ENDTAB
  0
TABLE
  2
VIEW
  5
6
330
0
100
AcDbSymbolTable
 70
     0
  0
ENDTAB
  0
TABLE
  2
UCS
  5
7
330
0
100
AcDbSymbolTable
 70
     0
  0
ENDTAB
  0
TABLE
  2
APPID
  5
9
330
0
100
AcDbSymbolTable
 70
     1
  0
APPID
  5
12
330
9
100
AcDbSymbolTableRecord
100
AcDbRegAppTableRecord
  2
ACAD
 70
     0
  0
ENDTAB
  0
TABLE
  2
DIMSTYLE
  5
A
330
0
100
AcDbSymbolTable
 70
     1
100
AcDbDimStyleTable
  0
DIMSTYLE
105
27
330
A
100
AcDbSymbolTableRecord
100
AcDbDimStyleTableRecord
  2
Standard
 70
     0
340
11
  0
ENDTAB
  0
TABLE
  2
BLOCK_RECORD
  5
1
330
0
100
AcDbSymbolTable
 70
     1
  0
BLOCK_RECORD
  5
1F
330
1
100
AcDbSymbolTableRecord
100
AcDbBlockTableRecord
  2
*Model_Space
340
22
 70
     0
280
     1
281
     0
  0
BLOCK_RECORD
  5
1B
330
1
100
AcDbSymbolTableRecord
100
AcDbBlockTableRecord
  2
*Paper_Space
340
1E
 70
     0
280
     1
281
     0
  0
BLOCK_RECORD
  5
23
330
1
100
AcDbSymbolTableRecord
100
AcDbBlockTableRecord
  2
*Paper_Space0
340
26
 70
     0
280
     1
281
     0
  0
ENDTAB
  0
ENDSEC
  0
SECTION
  2
BLOCKS
  0
BLOCK
  5
20
330
1F
100
AcDbEntity
  8
0
100
AcDbBlockBegin
  2
*Model_Space
 70
     0
 10
0.0
 20
0.0
 30
0.0
  3
*Model_Space
  1

  0
ENDBLK
  5
21
330
1F
100
AcDbEntity
  8
0
100
AcDbBlockEnd
  0
BLOCK
  5
1C
330
1B
100
AcDbEntity
 67
     1
  8
0
100
AcDbBlockBegin
  2
*Paper_Space
 70
     0
 10
0.0
 20
0.0
 30
0.0
  3
*Paper_Space
  1

  0
ENDBLK
  5
1D
330
1B
100
AcDbEntity
 67
     1
  8
0
100
AcDbBlockEnd
  0
BLOCK
  5
24
330
23
100
AcDbEntity
  8
0
100
AcDbBlockBegin
  2
*Paper_Space0
 70
     0
 10
0.0
 20
0.0
 30
0.0
  3
*Paper_Space0
  1

  0
ENDBLK
  5
25
330
23
100
AcDbEntity
  8
0
100
AcDbBlockEnd
  0
ENDSEC
  0
SECTION
  2
ENTITIES
  0
LINE
  5
41
330
1F
100
AcDbEntity
  8
0
100
AcDbLine
 10
-92.26230539154928
 20
-10.98117269817022
 30
0.0
 11
-92.16240497703657
 21
-10.73999176256721
 31
0.0
  0
LINE
  5
42
330
1F
100
AcDbEntity
  8
0
100
AcDbLine
 10
-92.29637956253417
 20
-11.23999172256723
 30
0.0
 11
-92.26230539154928
 21
-10.98117269817022
 31
0.0
  0
LINE
  5
43
330
1F
100
AcDbEntity
  8
0
100
AcDbLine
 10
-92.29637956253417
 20
-11.23999172256723
 30
0.0
 11
-92.29637956253417
 21
-16.83999127456726
 31
0.0
  0
LINE
  5
44
330
1F
100
AcDbEntity
  8
0
100
AcDbLine
 10
-92.29637956253417
 20
-16.83999127456726
 30
0.0
 11
-100.2963789225342
 21
-16.83999127456726
 31
0.0
  0
LINE
  5
45
330
1F
100
AcDbEntity
  8
0
100
AcDbLine
 10
-100.296378922534
 20
-40.43998938656737
 30
0.0
 11
-100.2963789225342
 21
-16.83999127456726
 31
0.0
  0
LINE
  5
46
330
1F
100
AcDbEntity
  8
0
100
AcDbLine
 10
-92.09637957853404
 20
-40.43998938656737
 30
0.0
 11
-100.296378922534
 21
-40.43998938656737
 31
0.0
  0
LINE
  5
47
330
1F
100
AcDbEntity
  8
0
100
AcDbLine
 10
-92.09637957853404
 20
-40.43998938656737
 30
0.0
 11
-92.09637957853386
 21
-46.03998893856748
 31
0.0
  0
LINE
  5
48
330
1F
100
AcDbEntity
  8
0
100
AcDbLine
 10
66.41598461949604
 20
48.26794134615252
 30
0.0
 11
66.47731812726899
 21
47.80206710223789
 31
0.0
  0
LINE
  5
49
330
1F
100
AcDbEntity
  8
0
100
AcDbLine
 10
-95.02358713822107
 20
-34.66719764225493
 30
0.0
 11
-95.39637931453349
 21
-34.38114414446298
 31
0.0
  0
LINE
  5
4A
330
1F
100
AcDbEntity
  8
0
100
AcDbLine
 10
-94.73753364042908
 20
-35.03998981856734
 30
0.0
 11
-95.02358713822107
 21
-34.66719764225493
 31
0.0
  0
LINE
  5
4B
330
1F
100
AcDbEntity
  8
0
100
AcDbLine
 10
-94.55771289430663
 20
-35.47411550265275
 30
0.0
 11
-94.73753364042908
 21
-35.03998981856734
 31
0.0
  0
LINE
  5
4C
330
1F
100
AcDbEntity
  8
0
100
AcDbLine
 10
-94.4963793865335
 20
-35.93998974656737
 30
0.0
 11
-94.55771289430663
 21
-35.47411550265275
 31
0.0
  0
LINE
  5
4D
330
1F
100
AcDbEntity
  8
0
100
AcDbLine
 10
-97.19637917053363
 20
-37.49883534867177
 30
0.0
 11
-96.76225348644827
 21
-37.67865609479443
 31
0.0
  0
LINE
  5
4E
330
1F
100
AcDbEntity
  8
0
100
AcDbLine
 10
-27.66001595072044
 20
5.217944790156031
 30
0.0
 11
-18.16001671072074
 21
5.217944790156166
 31
0.0
  0
LINE
  5
4F
330
1F
100
AcDbEntity
  8
0
100
AcDbLine
 10
-31.83280782303328
 20
47.19514922584396
 30
0.0
 11
-31.46001564672105
 21
46.90909572805196
 31
0.0
  0
LINE
  5
50
330
1F
100
AcDbEntity
  8
0
100
AcDbLine
 10
-32.11886132082528
 20
15.96794393015613
 30
0.0
 11
-32.2986820669479
 21
15.53381824607073
 31
0.0
  0
LINE
  5
51
330
1F
100
AcDbEntity
  8
0
100
AcDbLine
 10
-31.02588996263551
 20
16.80661035038316
 30
0.0
 11
-31.46001564672087
 21
16.6267896042605
 31
0.0
  0
LINE
  5
52
330
1F
100
AcDbEntity
  8
0
100
AcDbLine
 10
-30.56001571872088
 20
16.86794385815616
 30
0.0
 11
-31.02588996263551
 21
16.80661035038316
 31
0.0
  0
LINE
  5
53
330
1F
100
AcDbEntity
  8
0
100
AcDbLine
 10
-30.09414147480626
 20
16.80661035038316
 30
0.0
 11
-30.56001571872088
 21
16.86794385815616
 31
0.0
  0
LINE
  5
54
330
1F
100
AcDbEntity
  8
0
100
AcDbLine
 10
-29.66001579072072
 20
16.6267896042605
 30
0.0
 11
-30.09414147480626
 21
16.80661035038316
 31
0.0
  0
LINE
  5
55
330
1F
100
AcDbEntity
  8
0
100
AcDbLine
 10
-29.28722361440849
 20
16.34073610646854
 30
0.0
 11
-29.66001579072072
 21
16.6267896042605
 31
0.0
  0
LINE
  5
56
330
1F
100
AcDbEntity
  8
0
100
AcDbLine
 10
-29.00117011661649
 20
15.96794393015613
 30
0.0
 11
-29.28722361440849
 21
16.34073610646854
 31
0.0
  0
LINE
  5
57
330
1F
100
AcDbEntity
  8
0
100
AcDbLine
 10
-28.82134937049387
 20
15.53381824607073
 30
0.0
 11
-29.00117011661649
 21
15.96794393015613
 31
0.0
  0
LINE
  5
58
330
1F
100
AcDbEntity
  8
0
100
AcDbLine
 10
-28.76001586272092
 20
15.0679440021561
 30
0.0
 11
-28.82134937049387
 21
15.53381824607073
 31
0.0
  0
LINE
  5
59
330
1F
100
AcDbEntity
  8
0
100
AcDbLine
 10
-28.82134937049387
 20
14.60206975824148
 30
0.0
 11
-28.76001586272092
 21
15.0679440021561
 31
0.0
  0
LINE
  5
5A
330
1F
100
AcDbEntity
  8
0
100
AcDbLine
 10
75.38210116918528
 20
-28.91862821495431
 30
0.0
 11
75.75489334549769
 21
-29.20468171274622
 31
0.0
  0
LINE
  5
5B
330
1F
100
AcDbEntity
  8
0
100
AcDbLine
 10
75.09604767139345
 20
-28.54583603864189
 30
0.0
 11
75.38210116918528
 21
-28.91862821495431
 31
0.0
  0
LINE
  5
5C
330
1F
100
AcDbEntity
  8
0
100
AcDbLine
 10
74.91622692527065
 20
-28.11171035455649
 30
0.0
 11
75.09604767139345
 21
-28.54583603864189
 31
0.0
  0
LINE
  5
5D
330
1F
100
AcDbEntity
  8
0
100
AcDbLine
 10
74.8548934174977
 20
-27.64583611064191
 30
0.0
 11
74.91622692527065
 21
-28.11171035455649
 31
0.0
  0
LINE
  5
5E
330
1F
100
AcDbEntity
  8
0
100
AcDbLine
 10
74.91622692527065
 20
-27.17996186672734
 30
0.0
 11
74.8548934174977
 21
-27.64583611064191
 31
0.0
  0
LINE
  5
5F
330
1F
100
AcDbEntity
  8
0
100
AcDbLine
 10
75.09604767139345
 20
-26.74583618264193
 30
0.0
 11
74.91622692527065
 21
-27.17996186672734
 31
0.0
  0
LINE
  5
60
330
1F
100
AcDbEntity
  8
0
100
AcDbLine
 10
75.38210116918528
 20
-26.37304400632953
 30
0.0
 11
75.09604767139345
 21
-26.74583618264193
 31
0.0
  0
LINE
  5
61
330
1F
100
AcDbEntity
  8
0
100
AcDbLine
 10
76.18901902958305
 20
-25.90716976241494
 30
0.0
 11
75.75489334549769
 21
-26.08699050853761
 31
0.0
  0
LINE
  5
62
330
1F
100
AcDbEntity
  8
0
100
AcDbLine
 10
76.65489327349766
 20
-25.84583625464195
 30
0.0
 11
76.18901902958305
 21
-25.90716976241494
 31
0.0
  0
LINE
  5
63
330
1F
100
AcDbEntity
  8
0
100
AcDbLine
 10
77.1207675174123
 20
-25.90716976241494
 30
0.0
 11
76.65489327349766
 21
-25.84583625464195
 31
0.0
  0
LINE
  5
64
330
1F
100
AcDbEntity
  8
0
100
AcDbLine
 10
77.55489320149765
 20
-26.08699050853761
 30
0.0
 11
77.1207675174123
 21
-25.90716976241494
 31
0.0
  0
LINE
  5
65
330
1F
100
AcDbEntity
  8
0
100
AcDbLine
 10
10.93501962399663
 20
52.54022168473674
 30
0.0
 11
11.39939239169803
 21
52.46839868747161
 31
0.0
  0
LINE
  5
66
330
1F
100
AcDbEntity
  8
0
100
AcDbLine
 10
-18.16001671072146
 20
58.31794054215643
 30
0.0
 11
-18.16001671072164
 21
63.31794014215641
 31
0.0
  0
LINE
  5
67
330
1F
100
AcDbEntity
  8
0
100
AcDbLine
 10
-27.65859304692673
 20
58.31794054215643
 30
0.0
 11
-18.16001671072146
 21
58.31794054215643
 31
0.0
  0
LINE
  5
68
330
1F
100
AcDbEntity
  8
0
100
AcDbLine
 10
-27.65859304692673
 20
63.31794014215632
 30
0.0
 11
-27.65859304692673
 21
58.31794054215643
 31
0.0
  0
LINE
  5
69
330
1F
100
AcDbEntity
  8
0
100
AcDbLine
 10
-27.69266721791162
 20
63.57675916655333
 30
0.0
 11
-27.65859304692673
 21
63.31794014215632
 31
0.0
  0
LINE
  5
6A
330
1F
100
AcDbEntity
  8
0
100
AcDbLine
 10
-27.79256763242433
 20
63.8179401021563
 30
0.0
 11
-27.69266721791162
 21
63.57675916655333
 31
0.0
  0
LINE
  5
6B
330
1F
100
AcDbEntity
  8
0
100
AcDbLine
 10
-27.95148624230864
 20
64.02504686677429
 30
0.0
 11
-27.79256763242433
 21
63.8179401021563
 31
0.0
  0
LINE
  5
6C
330
1F
100
AcDbEntity
  8
0
100
AcDbLine
 10
-28.15859300692662
 20
64.18396547665877
 30
0.0
 11
-27.95148624230864
 21
64.02504686677429
 31
0.0
  0
LINE
  5
6D
330
1F
100
AcDbEntity
  8
0
100
AcDbLine
 10
-28.39977394252968
 20
64.2838658911713
 30
0.0
 11
-28.15859300692662
 21
64.18396547665877
 31
0.0
  0
LINE
  5
6E
330
1F
100
AcDbEntity
  8
0
100
AcDbLine
 10
-28.65859296692669
 20
64.31794006215637
 30
0.0
 11
-28.39977394252968
 21
64.2838658911713
 31
0.0
  0
LINE
  5
6F
330
1F
100
AcDbEntity
  8
0
100
AcDbLine
 10
-31.25828554397873
 20
64.31794006215637
 30
0.0
 11
-28.65859296692669
 21
64.31794006215637
 31
0.0
  0
LINE
  5
70
330
1F
100
AcDbEntity
  8
0
100
AcDbLine
 10
-31.25828554397873
 20
64.31794006215637
 30
0.0
 11
-31.51710456837574
 21
64.2838658911713
 31
0.0
  0
LINE
  5
71
330
1F
100
AcDbEntity
  8
0
100
AcDbLine
 10
-31.51710456837574
 20
64.2838658911713
 30
0.0
 11
-31.7582855039788
 21
64.18396547665877
 31
0.0
  0
LINE
  5
72
330
1F
100
AcDbEntity
  8
0
100
AcDbLine
 10
-31.7582855039788
 20
64.18396547665877
 30
0.0
 11
-31.96539226859679
 21
64.02504686677429
 31
0.0
  0
LINE
  5
73
330
1F
100
AcDbEntity
  8
0
100
AcDbLine
 10
-31.96539226859679
 20
64.02504686677429
 30
0.0
 11
-32.12431087848109
 21
63.8179401021563
 31
0.0
  0
LINE
  5
74
330
1F
100
AcDbEntity
  8
0
100
AcDbLine
 10
-32.12431087848109
 20
63.8179401021563
 30
0.0
 11
-32.22421129299379
 21
63.57675916655333
 31
0.0
  0
LINE
  5
75
330
1F
100
AcDbEntity
  8
0
100
AcDbLine
 10
-32.22421129299379
 20
63.57675916655333
 30
0.0
 11
-32.25828546397869
 21
63.31794014215632
 31
0.0
  0
LINE
  5
76
330
1F
100
AcDbEntity
  8
0
100
AcDbLine
 10
-32.25828546397869
 20
58.31794054215643
 30
0.0
 11
-32.25828546397869
 21
63.31794014215632
 31
0.0
  0
LINE
  5
77
330
1F
100
AcDbEntity
  8
0
100
AcDbLine
 10
-38.56001507872056
 20
58.31794054215625
 30
0.0
 11
-32.25828546397869
 21
58.31794054215643
 31
0.0
  0
LINE
  5
78
330
1F
100
AcDbEntity
  8
0
100
AcDbLine
 10
-38.56001507872056
 20
39.25702816140631
 30
0.0
 11
-38.56001507872056
 21
58.31794054215625
 31
0.0
  0
LINE
  5
79
330
1F
100
AcDbEntity
  8
0
100
AcDbLine
 10
-41.56001483872098
 20
36.25702840140625
 30
0.0
 11
-38.56001507872056
 21
39.25702816140631
 31
0.0
  0
LINE
  5
7A
330
1F
100
AcDbEntity
  8
0
100
AcDbLine
 10
-41.56001483872098
 20
36.25702840140625
 30
0.0
 11
-41.56001483872098
 21
31.79598934632452
 31
0.0
  0
LINE
  5
7B
330
1F
100
AcDbEntity
  8
0
100
AcDbLine
 10
-41.56001483872098
 20
31.79598934632452
 30
0.0
 11
-41.56370725421417
 21
31.76794266615634
 31
0.0
  0
LINE
  5
7C
330
1F
100
AcDbEntity
  8
0
100
AcDbLine
 10
-41.56370725421417
 20
31.76794266615634
 30
0.0
 11
-41.56001483872098
 21
31.73989598598798
 31
0.0
  0
LINE
  5
7D
330
1F
100
AcDbEntity
  8
0
100
AcDbLine
 10
-41.56001483872098
 20
31.73989598598798
 30
0.0
 11
-41.56001483872098
 21
27.2788569309058
 31
0.0
  0
LINE
  5
7E
330
1F
100
AcDbEntity
  8
0
100
AcDbLine
 10
-41.56001483872098
 20
27.2788569309058
 30
0.0
 11
-38.56001507872056
 21
24.27885717090574
 31
0.0
  0
LINE
  5
7F
330
1F
100
AcDbEntity
  8
0
100
AcDbLine
 10
-38.56001507872056
 20
5.217944790156031
 30
0.0
 11
-38.56001507872056
 21
24.27885717090574
 31
0.0
  0
LINE
  5
80
330
1F
100
AcDbEntity
  8
0
100
AcDbLine
 10
-38.56001507872056
 20
5.217944790156031
 30
0.0
 11
-32.25828546397832
 21
5.217944790156077
 31
0.0
  0
LINE
  5
81
330
1F
100
AcDbEntity
  8
0
100
AcDbLine
 10
-32.25828546397832
 20
5.217944790156077
 30
0.0
 11
-32.25435160473965
 21
0.2171585423145163
 31
0.0
  0
LINE
  5
82
330
1F
100
AcDbEntity
  8
0
100
AcDbLine
 10
-32.25435160473965
 20
0.2171585423145163
 30
0.0
 11
-32.22010786940933
 21
-0.041506981537998
 31
0.0
  0
LINE
  5
83
330
1F
100
AcDbEntity
  8
0
100
AcDbLine
 10
-32.22010786940933
 20
-0.041506981537998
 30
0.0
 11
-32.12011499359646
 21
-0.282508872455831
 31
0.0
  0
LINE
  5
84
330
1F
100
AcDbEntity
  8
0
100
AcDbLine
 10
-32.12011499359646
 20
-0.282508872455831
 30
0.0
 11
-31.96118054203617
 21
-0.4894396017990997
 31
0.0
  0
LINE
  5
85
330
1F
100
AcDbEntity
  8
0
100
AcDbLine
 10
-31.96118054203617
 20
-0.4894396017990997
 30
0.0
 11
-31.75412485126565
 21
-0.6482112225593428
 31
0.0
  0
LINE
  5
86
330
1F
100
AcDbEntity
  8
0
100
AcDbLine
 10
-31.75412485126565
 20
-0.6482112225593428
 30
0.0
 11
-31.51304437572928
 21
-0.7480144838012123
 31
0.0
  0
LINE
  5
87
330
1F
100
AcDbEntity
  8
0
100
AcDbLine
 10
-31.51304437572928
 20
-0.7480144838012123
 30
0.0
 11
-31.25435199414729
 21
-0.7820547298441319
 31
0.0
  0
LINE
  5
88
330
1F
100
AcDbEntity
  8
0
100
AcDbLine
 10
-28.66001587072058
 20
-0.7820547298444478
 30
0.0
 11
-31.25435199414729
 21
-0.7820547298441319
 31
0.0
  0
LINE
  5
89
330
1F
100
AcDbEntity
  8
0
100
AcDbLine
 10
-28.66001587072058
 20
-0.7820547298444478
 30
0.0
 11
-28.40119684632357
 21
-0.7479805588594667
 31
0.0
  0
LINE
  5
8A
330
1F
100
AcDbEntity
  8
0
100
AcDbLine
 10
-28.40119684632357
 20
-0.7479805588594667
 30
0.0
 11
-28.16001591072051
 21
-0.6480801443468952
 31
0.0
  0
LINE
  5
8B
330
1F
100
AcDbEntity
  8
0
100
AcDbLine
 10
-28.16001591072051
 20
-0.6480801443468952
 30
0.0
 11
-27.95290914610253
 21
-0.4891615344624997
 31
0.0
  0
LINE
  5
8C
330
1F
100
AcDbEntity
  8
0
100
AcDbLine
 10
-27.95290914610253
 20
-0.4891615344624997
 30
0.0
 11
-27.79399053621804
 21
-0.2820547698444681
 31
0.0
  0
LINE
  5
8D
330
1F
100
AcDbEntity
  8
0
100
AcDbLine
 10
-27.79399053621804
 20
-0.2820547698444681
 30
0.0
 11
-27.69409012170533
 21
-0.0408738342414553
 31
0.0
  0
LINE
  5
8E
330
1F
100
AcDbEntity
  8
0
100
AcDbLine
 10
-27.69409012170533
 20
-0.0408738342414553
 30
0.0
 11
-27.66001595072044
 21
0.2179451901555569
 31
0.0
  0
LINE
  5
8F
330
1F
100
AcDbEntity
  8
0
100
AcDbLine
 10
-27.66001595072044
 20
5.217944790156031
 30
0.0
 11
-27.66001595072044
 21
0.2179451901555569
 31
0.0
  0
LINE
  5
90
330
1F
100
AcDbEntity
  8
0
100
AcDbLine
 10
-18.16001671072074
 20
0.2179451901560983
 30
0.0
 11
-18.16001671072074
 21
5.217944790156166
 31
0.0
  0
LINE
  5
91
330
1F
100
AcDbEntity
  8
0
100
AcDbLine
 10
-18.16001671072074
 20
0.2179451901560983
 30
0.0
 11
-18.12594253973585
 21
-0.0408738342409138
 31
0.0
  0
LINE
  5
92
330
1F
100
AcDbEntity
  8
0
100
AcDbLine
 10
-18.12594253973585
 20
-0.0408738342409138
 30
0.0
 11
-18.02604212522314
 21
-0.2820547698438815
 31
0.0
  0
LINE
  5
93
330
1F
100
AcDbEntity
  8
0
100
AcDbLine
 10
-18.02604212522314
 20
-0.2820547698438815
 30
0.0
 11
-17.86712351533884
 21
-0.4891615344619131
 31
0.0
  0
LINE
  5
94
330
1F
100
AcDbEntity
  8
0
100
AcDbLine
 10
-17.86712351533884
 20
-0.4891615344619131
 30
0.0
 11
-17.66001675072085
 21
-0.6480801443463086
 31
0.0
  0
LINE
  5
95
330
1F
100
AcDbEntity
  8
0
100
AcDbLine
 10
-17.66001675072085
 20
-0.6480801443463086
 30
0.0
 11
-17.41883581511779
 21
-0.7479805588589252
 31
0.0
  0
LINE
  5
96
330
1F
100
AcDbEntity
  8
0
100
AcDbLine
 10
-17.41883581511779
 20
-0.7479805588589252
 30
0.0
 11
-17.16001679072078
 21
-0.7820547298439063
 31
0.0
  0
LINE
  5
97
330
1F
100
AcDbEntity
  8
0
100
AcDbLine
 10
4.139981505279749
 20
-0.782054729844538
 30
0.0
 11
-17.16001679072078
 21
-0.7820547298439063
 31
0.0
  0
LINE
  5
98
330
1F
100
AcDbEntity
  8
0
100
AcDbLine
 10
4.398800529676762
 20
-0.7479805588595569
 30
0.0
 11
4.139981505279749
 21
-0.782054729844538
 31
0.0
  0
LINE
  5
99
330
1F
100
AcDbEntity
  8
0
100
AcDbLine
 10
4.63998146527982
 20
-0.6480801443469403
 30
0.0
 11
4.398800529676762
 21
-0.7479805588595569
 31
0.0
  0
LINE
  5
9A
330
1F
100
AcDbEntity
  8
0
100
AcDbLine
 10
4.847088229897807
 20
-0.4891615344625448
 30
0.0
 11
4.63998146527982
 21
-0.6480801443469403
 31
0.0
  0
LINE
  5
9B
330
1F
100
AcDbEntity
  8
0
100
AcDbLine
 10
5.006006839782112
 20
-0.2820547698445583
 30
0.0
 11
4.847088229897807
 21
-0.4891615344625448
 31
0.0
  0
LINE
  5
9C
330
1F
100
AcDbEntity
  8
0
100
AcDbLine
 10
5.105907254294818
 20
-0.0408738342415455
 30
0.0
 11
5.006006839782112
 21
-0.2820547698445583
 31
0.0
  0
LINE
  5
9D
330
1F
100
AcDbEntity
  8
0
100
AcDbLine
 10
5.13998142527971
 20
0.2179451901554666
 30
0.0
 11
5.105907254294818
 21
-0.0408738342415455
 31
0.0
  0
LINE
  5
9E
330
1F
100
AcDbEntity
  8
0
100
AcDbLine
 10
5.13998142527971
 20
5.217944790156437
 30
0.0
 11
5.13998142527971
 21
0.2179451901554666
 31
0.0
  0
LINE
  5
9F
330
1F
100
AcDbEntity
  8
0
100
AcDbLine
 10
16.43998052127992
 20
5.217944790156437
 30
0.0
 11
5.13998142527971
 21
5.217944790156437
 31
0.0
  0
LINE
  5
A0
330
1F
100
AcDbEntity
  8
0
100
AcDbLine
 10
16.43998052127992
 20
58.31794054215679
 30
0.0
 11
16.43998052127992
 21
5.217944790156437
 31
0.0
  0
LINE
  5
A1
330
1F
100
AcDbEntity
  8
0
100
AcDbLine
 10
16.43998052127992
 20
58.31794054215679
 30
0.0
 11
5.13998142527971
 21
58.31794054215679
 31
0.0
  0
LINE
  5
A2
330
1F
100
AcDbEntity
  8
0
100
AcDbLine
 10
5.13998142527971
 20
58.31794054215679
 30
0.0
 11
5.13998142527971
 21
63.31794014215668
 31
0.0
  0
LINE
  5
A3
330
1F
100
AcDbEntity
  8
0
100
AcDbLine
 10
5.13998142527971
 20
63.31794014215668
 30
0.0
 11
5.105907254294818
 21
63.57675916655369
 31
0.0
  0
LINE
  5
A4
330
1F
100
AcDbEntity
  8
0
100
AcDbLine
 10
5.105907254294818
 20
63.57675916655369
 30
0.0
 11
5.006006839782112
 21
63.81794010215666
 31
0.0
  0
LINE
  5
A5
330
1F
100
AcDbEntity
  8
0
100
AcDbLine
 10
5.006006839782112
 20
63.81794010215666
 30
0.0
 11
4.847088229897807
 21
64.02504686677474
 31
0.0
  0
LINE
  5
A6
330
1F
100
AcDbEntity
  8
0
100
AcDbLine
 10
4.847088229897807
 20
64.02504686677474
 30
0.0
 11
4.63998146527982
 21
64.18396547665913
 31
0.0
  0
LINE
  5
A7
330
1F
100
AcDbEntity
  8
0
100
AcDbLine
 10
4.63998146527982
 20
64.18396547665913
 30
0.0
 11
4.398800529676762
 21
64.28386589117166
 31
0.0
  0
LINE
  5
A8
330
1F
100
AcDbEntity
  8
0
100
AcDbLine
 10
4.398800529676762
 20
64.28386589117166
 30
0.0
 11
4.139981505279749
 21
64.31794006215672
 31
0.0
  0
LINE
  5
A9
330
1F
100
AcDbEntity
  8
0
100
AcDbLine
 10
-17.16001679072168
 20
64.31794006215645
 30
0.0
 11
4.139981505279749
 21
64.31794006215672
 31
0.0
  0
LINE
  5
AA
330
1F
100
AcDbEntity
  8
0
100
AcDbLine
 10
-17.41883581511869
 20
64.28386589117139
 30
0.0
 11
-17.16001679072168
 21
64.31794006215645
 31
0.0
  0
LINE
  5
AB
330
1F
100
AcDbEntity
  8
0
100
AcDbLine
 10
-17.66001675072175
 20
64.18396547665877
 30
0.0
 11
-17.41883581511869
 21
64.28386589117139
 31
0.0
  0
LINE
  5
AC
330
1F
100
AcDbEntity
  8
0
100
AcDbLine
 10
-17.86712351533974
 20
64.02504686677437
 30
0.0
 11
-17.66001675072175
 21
64.18396547665877
 31
0.0
  0
LINE
  5
AD
330
1F
100
AcDbEntity
  8
0
100
AcDbLine
 10
-18.02604212522404
 20
63.81794010215639
 30
0.0
 11
-17.86712351533974
 21
64.02504686677437
 31
0.0
  0
LINE
  5
AE
330
1F
100
AcDbEntity
  8
0
100
AcDbLine
 10
-18.12594253973675
 20
63.57675916655342
 30
0.0
 11
-18.02604212522404
 21
63.81794010215639
 31
0.0
  0
LINE
  5
AF
330
1F
100
AcDbEntity
  8
0
100
AcDbLine
 10
-18.16001671072164
 20
63.31794014215641
 30
0.0
 11
-18.12594253973675
 21
63.57675916655342
 31
0.0
  0
LINE
  5
B0
330
1F
100
AcDbEntity
  8
0
100
AcDbLine
 10
4.091568318787986
 20
46.72927498192771
 30
0.0
 11
4.557442562702607
 21
46.66794147415467
 31
0.0
  0
LINE
  5
B1
330
1F
100
AcDbEntity
  8
0
100
AcDbLine
 10
3.657442634702626
 20
46.90909572805033
 30
0.0
 11
4.091568318787986
 21
46.72927498192771
 31
0.0
  0
LINE
  5
B2
330
1F
100
AcDbEntity
  8
0
100
AcDbLine
 10
3.284650458390214
 20
47.19514922584224
 30
0.0
 11
3.657442634702626
 21
46.90909572805033
 31
0.0
  0
LINE
  5
B3
330
1F
100
AcDbEntity
  8
0
100
AcDbLine
 10
2.998596960598393
 20
47.56794140215465
 30
0.0
 11
3.284650458390214
 21
47.19514922584224
 31
0.0
  0
LINE
  5
B4
330
1F
100
AcDbEntity
  8
0
100
AcDbLine
 10
2.818776214475593
 20
48.00206708624002
 30
0.0
 11
2.998596960598393
 21
47.56794140215465
 31
0.0
  0
LINE
  5
B5
330
1F
100
AcDbEntity
  8
0
100
AcDbLine
 10
2.757442706702644
 20
48.46794133015464
 30
0.0
 11
2.818776214475593
 21
48.00206708624002
 31
0.0
  0
LINE
  5
B6
330
1F
100
AcDbEntity
  8
0
100
AcDbLine
 10
2.818776214475593
 20
48.93381557406926
 30
0.0
 11
2.757442706702644
 21
48.46794133015464
 31
0.0
  0
LINE
  5
B7
330
1F
100
AcDbEntity
  8
0
100
AcDbLine
 10
2.998596960598393
 20
49.36794125815462
 30
0.0
 11
2.818776214475593
 21
48.93381557406926
 31
0.0
  0
LINE
  5
B8
330
1F
100
AcDbEntity
  8
0
100
AcDbLine
 10
3.284650458390214
 20
49.74073343446703
 30
0.0
 11
2.998596960598393
 21
49.36794125815462
 31
0.0
  0
LINE
  5
B9
330
1F
100
AcDbEntity
  8
0
100
AcDbLine
 10
3.657442634702626
 20
50.02678693225894
 30
0.0
 11
3.284650458390214
 21
49.74073343446703
 31
0.0
  0
LINE
  5
BA
330
1F
100
AcDbEntity
  8
0
100
AcDbLine
 10
4.091568318787986
 20
50.20660767838157
 30
0.0
 11
3.657442634702626
 21
50.02678693225894
 31
0.0
  0
LINE
  5
BB
330
1F
100
AcDbEntity
  8
0
100
AcDbLine
 10
4.557442562702607
 20
50.2679411861546
 30
0.0
 11
4.091568318787986
 21
50.20660767838157
 31
0.0
  0
LINE
  5
BC
330
1F
100
AcDbEntity
  8
0
100
AcDbLine
 10
4.937230237940531
 20
50.21794119015659
 30
0.0
 11
4.557442562702607
 21
50.2679411861546
 31
0.0
  0
LINE
  5
BD
330
1F
100
AcDbEntity
  8
0
100
AcDbLine
 10
5.457442490702589
 20
50.02678693225894
 30
0.0
 11
4.937230237940531
 21
50.21794119015659
 31
0.0
  0
LINE
  5
BE
330
1F
100
AcDbEntity
  8
0
100
AcDbLine
 10
5.830234667015001
 20
49.74073343446703
 30
0.0
 11
5.457442490702589
 21
50.02678693225894
 31
0.0
  0
LINE
  5
BF
330
1F
100
AcDbEntity
  8
0
100
AcDbLine
 10
6.116288164806822
 20
49.36794125815462
 30
0.0
 11
5.830234667015001
 21
49.74073343446703
 31
0.0
  0
LINE
  5
C0
330
1F
100
AcDbEntity
  8
0
100
AcDbLine
 10
6.296108910929623
 20
48.93381557406926
 30
0.0
 11
6.116288164806822
 21
49.36794125815462
 31
0.0
  0
LINE
  5
C1
330
1F
100
AcDbEntity
  8
0
100
AcDbLine
 10
6.35744241870257
 20
48.46794133015464
 30
0.0
 11
6.296108910929623
 21
48.93381557406926
 31
0.0
  0
LINE
  5
C2
330
1F
100
AcDbEntity
  8
0
100
AcDbLine
 10
6.296108910929623
 20
48.00206708624002
 30
0.0
 11
6.35744241870257
 21
48.46794133015464
 31
0.0
  0
LINE
  5
C3
330
1F
100
AcDbEntity
  8
0
100
AcDbLine
 10
6.116288164806822
 20
47.56794140215465
 30
0.0
 11
6.296108910929623
 21
48.00206708624002
 31
0.0
  0
LINE
  5
C4
330
1F
100
AcDbEntity
  8
0
100
AcDbLine
 10
5.830234667015001
 20
47.19514922584224
 30
0.0
 11
6.116288164806822
 21
47.56794140215465
 31
0.0
  0
LINE
  5
C5
330
1F
100
AcDbEntity
  8
0
100
AcDbLine
 10
5.457442490702589
 20
46.90909572805033
 30
0.0
 11
5.830234667015001
 21
47.19514922584224
 31
0.0
  0
LINE
  5
C6
330
1F
100
AcDbEntity
  8
0
100
AcDbLine
 10
5.023316806617229
 20
46.72927498192771
 30
0.0
 11
5.457442490702589
 21
46.90909572805033
 31
0.0
  0
LINE
  5
C7
330
1F
100
AcDbEntity
  8
0
100
AcDbLine
 10
4.557442562702607
 20
46.66794147415467
 30
0.0
 11
5.023316806617229
 21
46.72927498192771
 31
0.0
  0
LINE
  5
C8
330
1F
100
AcDbEntity
  8
0
100
AcDbLine
 10
-26.59972014775932
 20
32.829100666184
 30
0.0
 11
-27.00931184726109
 21
33.81794250215625
 31
0.0
  0
LINE
  5
C9
330
1F
100
AcDbEntity
  8
0
100
AcDbLine
 10
-26.46001604672089
 20
31.76794266615634
 30
0.0
 11
-26.59972014775932
 21
32.829100666184
 31
0.0
  0
LINE
  5
CA
330
1F
100
AcDbEntity
  8
0
100
AcDbLine
 10
-26.59972014775932
 20
30.70678466612868
 30
0.0
 11
-26.46001604672089
 21
31.76794266615634
 31
0.0
  0
LINE
  5
CB
330
1F
100
AcDbEntity
  8
0
100
AcDbLine
 10
-27.00931184726109
 20
29.71794283015621
 30
0.0
 11
-26.59972014775932
 21
30.70678466612868
 31
0.0
  0
LINE
  5
CC
330
1F
100
AcDbEntity
  8
0
100
AcDbLine
 10
-27.66087814778698
 20
28.86880509522239
 30
0.0
 11
-27.00931184726109
 21
29.71794283015621
 31
0.0
  0
LINE
  5
CD
330
1F
100
AcDbEntity
  8
0
100
AcDbLine
 10
-28.51001588272097
 20
28.21723879469628
 30
0.0
 11
-27.66087814778698
 21
28.86880509522239
 31
0.0
  0
LINE
  5
CE
330
1F
100
AcDbEntity
  8
0
100
AcDbLine
 10
-29.49885771869322
 20
27.80764709519469
 30
0.0
 11
-28.51001588272097
 21
28.21723879469628
 31
0.0
  0
LINE
  5
CF
330
1F
100
AcDbEntity
  8
0
100
AcDbLine
 10
-30.56001571872088
 20
27.66794299415607
 30
0.0
 11
-29.49885771869322
 21
27.80764709519469
 31
0.0
  0
LINE
  5
D0
330
1F
100
AcDbEntity
  8
0
100
AcDbLine
 10
-31.62117371874855
 20
27.80764709519469
 30
0.0
 11
-30.56001571872088
 21
27.66794299415607
 31
0.0
  0
LINE
  5
D1
330
1F
100
AcDbEntity
  8
0
100
AcDbLine
 10
-32.6100155547208
 20
28.21723879469628
 30
0.0
 11
-31.62117371874855
 21
27.80764709519469
 31
0.0
  0
LINE
  5
D2
330
1F
100
AcDbEntity
  8
0
100
AcDbLine
 10
-33.45915328965479
 20
28.86880509522239
 30
0.0
 11
-32.6100155547208
 21
28.21723879469628
 31
0.0
  0
LINE
  5
D3
330
1F
100
AcDbEntity
  8
0
100
AcDbLine
 10
-34.11071959018067
 20
29.71794283015621
 30
0.0
 11
-33.45915328965479
 21
28.86880509522239
 31
0.0
  0
LINE
  5
D4
330
1F
100
AcDbEntity
  8
0
100
AcDbLine
 10
-34.52031128968245
 20
30.70678466612868
 30
0.0
 11
-34.11071959018067
 21
29.71794283015621
 31
0.0
  0
LINE
  5
D5
330
1F
100
AcDbEntity
  8
0
100
AcDbLine
 10
-34.66001539072088
 20
31.76794266615634
 30
0.0
 11
-34.52031128968245
 21
30.70678466612868
 31
0.0
  0
LINE
  5
D6
330
1F
100
AcDbEntity
  8
0
100
AcDbLine
 10
-34.52031128968245
 20
32.829100666184
 30
0.0
 11
-34.66001539072088
 21
31.76794266615634
 31
0.0
  0
LINE
  5
D7
330
1F
100
AcDbEntity
  8
0
100
AcDbLine
 10
-34.11071959018067
 20
33.81794250215625
 30
0.0
 11
-34.52031128968245
 21
32.829100666184
 31
0.0
  0
LINE
  5
D8
330
1F
100
AcDbEntity
  8
0
100
AcDbLine
 10
-33.45915328965479
 20
34.66708023709006
 30
0.0
 11
-34.11071959018067
 21
33.81794250215625
 31
0.0
  0
LINE
  5
D9
330
1F
100
AcDbEntity
  8
0
100
AcDbLine
 10
-32.6100155547208
 20
35.31864653761595
 30
0.0
 11
-33.45915328965479
 21
34.66708023709006
 31
0.0
  0
LINE
  5
DA
330
1F
100
AcDbEntity
  8
0
100
AcDbLine
 10
-31.62117371874855
 20
35.72823823711754
 30
0.0
 11
-32.6100155547208
 21
35.31864653761595
 31
0.0
  0
LINE
  5
DB
330
1F
100
AcDbEntity
  8
0
100
AcDbLine
 10
-30.56001571872088
 20
35.86794233815615
 30
0.0
 11
-31.62117371874855
 21
35.72823823711754
 31
0.0
  0
LINE
  5
DC
330
1F
100
AcDbEntity
  8
0
100
AcDbLine
 10
-29.49885771869322
 20
35.72823823711754
 30
0.0
 11
-30.56001571872088
 21
35.86794233815615
 31
0.0
  0
LINE
  5
DD
330
1F
100
AcDbEntity
  8
0
100
AcDbLine
 10
-28.51001588272097
 20
35.31864653761595
 30
0.0
 11
-29.49885771869322
 21
35.72823823711754
 31
0.0
  0
LINE
  5
DE
330
1F
100
AcDbEntity
  8
0
100
AcDbLine
 10
-27.66087814778698
 20
34.66708023709006
 30
0.0
 11
-28.51001588272097
 21
35.31864653761595
 31
0.0
  0
LINE
  5
DF
330
1F
100
AcDbEntity
  8
0
100
AcDbLine
 10
-27.00931184726109
 20
33.81794250215625
 30
0.0
 11
-27.66087814778698
 21
34.66708023709006
 31
0.0
  0
LINE
  5
E0
330
1F
100
AcDbEntity
  8
0
100
AcDbLine
 10
-31.83280782303328
 20
16.34073610646854
 30
0.0
 11
-32.11886132082528
 21
15.96794393015613
 31
0.0
  0
LINE
  5
E1
330
1F
100
AcDbEntity
  8
0
100
AcDbLine
 10
-31.46001564672087
 20
16.6267896042605
 30
0.0
 11
-31.83280782303328
 21
16.34073610646854
 31
0.0
  0
LINE
  5
E2
330
1F
100
AcDbEntity
  8
0
100
AcDbLine
 10
-29.00117011661649
 20
14.16794407415608
 30
0.0
 11
-28.82134937049387
 21
14.60206975824148
 31
0.0
  0
LINE
  5
E3
330
1F
100
AcDbEntity
  8
0
100
AcDbLine
 10
-29.28722361440849
 20
13.79515189784367
 30
0.0
 11
-29.00117011661649
 21
14.16794407415608
 31
0.0
  0
LINE
  5
E4
330
1F
100
AcDbEntity
  8
0
100
AcDbLine
 10
-29.6600157907209
 20
13.50909840005171
 30
0.0
 11
-29.28722361440849
 21
13.79515189784367
 31
0.0
  0
LINE
  5
E5
330
1F
100
AcDbEntity
  8
0
100
AcDbLine
 10
-30.09414147480626
 20
13.32927765392905
 30
0.0
 11
-29.6600157907209
 21
13.50909840005171
 31
0.0
  0
LINE
  5
E6
330
1F
100
AcDbEntity
  8
0
100
AcDbLine
 10
-30.56001571872088
 20
13.26794414615605
 30
0.0
 11
-30.09414147480626
 21
13.32927765392905
 31
0.0
  0
LINE
  5
E7
330
1F
100
AcDbEntity
  8
0
100
AcDbLine
 10
-31.02588996263551
 20
13.32927765392905
 30
0.0
 11
-30.56001571872088
 21
13.26794414615605
 31
0.0
  0
LINE
  5
E8
330
1F
100
AcDbEntity
  8
0
100
AcDbLine
 10
-31.46001564672105
 20
13.50909840005171
 30
0.0
 11
-31.02588996263551
 21
13.32927765392905
 31
0.0
  0
LINE
  5
E9
330
1F
100
AcDbEntity
  8
0
100
AcDbLine
 10
-31.83280782303328
 20
13.79515189784367
 30
0.0
 11
-31.46001564672105
 21
13.50909840005171
 31
0.0
  0
LINE
  5
EA
330
1F
100
AcDbEntity
  8
0
100
AcDbLine
 10
-32.11886132082528
 20
14.16794407415608
 30
0.0
 11
-31.83280782303328
 21
13.79515189784367
 31
0.0
  0
LINE
  5
EB
330
1F
100
AcDbEntity
  8
0
100
AcDbLine
 10
-32.2986820669479
 20
14.60206975824148
 30
0.0
 11
-32.11886132082528
 21
14.16794407415608
 31
0.0
  0
LINE
  5
EC
330
1F
100
AcDbEntity
  8
0
100
AcDbLine
 10
-32.36001557472085
 20
15.0679440021561
 30
0.0
 11
-32.2986820669479
 21
14.60206975824148
 31
0.0
  0
LINE
  5
ED
330
1F
100
AcDbEntity
  8
0
100
AcDbLine
 10
-32.2986820669479
 20
15.53381824607073
 30
0.0
 11
-32.36001557472085
 21
15.0679440021561
 31
0.0
  0
LINE
  5
EE
330
1F
100
AcDbEntity
  8
0
100
AcDbLine
 10
9.904911467381545
 20
10.20792385598806
 30
0.0
 11
9.713933122519524
 21
9.778589624750204
 31
0.0
  0
LINE
  5
EF
330
1F
100
AcDbEntity
  8
0
100
AcDbLine
 10
10.20050225870421
 20
10.57320004519825
 30
0.0
 11
9.904911467381545
 21
10.20792385598806
 31
0.0
  0
LINE
  5
F0
330
1F
100
AcDbEntity
  8
0
100
AcDbLine
 10
10.58056147254619
 20
10.84952522373357
 30
0.0
 11
10.20050225870421
 21
10.57320004519825
 31
0.0
  0
LINE
  5
F1
330
1F
100
AcDbEntity
  8
0
100
AcDbLine
 10
11.01918870156142
 20
11.0180682873258
 30
0.0
 11
10.58056147254619
 21
10.84952522373357
 31
0.0
  0
LINE
  5
F2
330
1F
100
AcDbEntity
  8
0
100
AcDbLine
 10
11.48649222495863
 20
11.06734330472168
 30
0.0
 11
11.01918870156142
 21
11.0180682873258
 31
0.0
  0
LINE
  5
F3
330
1F
100
AcDbEntity
  8
0
100
AcDbLine
 10
11.9506260798737
 20
10.9939922649165
 30
0.0
 11
11.48649222495863
 21
11.06734330472168
 31
0.0
  0
LINE
  5
F4
330
1F
100
AcDbEntity
  8
0
100
AcDbLine
 10
12.37996031111151
 20
10.8030139200547
 30
0.0
 11
11.9506260798737
 21
10.9939922649165
 31
0.0
  0
LINE
  5
F5
330
1F
100
AcDbEntity
  8
0
100
AcDbLine
 10
12.74523650032166
 20
10.50742312873195
 30
0.0
 11
12.37996031111151
 21
10.8030139200547
 31
0.0
  0
LINE
  5
F6
330
1F
100
AcDbEntity
  8
0
100
AcDbLine
 10
13.02156167885703
 20
10.12736391488997
 30
0.0
 11
12.74523650032166
 21
10.50742312873195
 31
0.0
  0
LINE
  5
F7
330
1F
100
AcDbEntity
  8
0
100
AcDbLine
 10
13.19010474244925
 20
9.688736685874602
 30
0.0
 11
13.02156167885703
 21
10.12736391488997
 31
0.0
  0
LINE
  5
F8
330
1F
100
AcDbEntity
  8
0
100
AcDbLine
 10
13.23937975984509
 20
9.221433162477485
 30
0.0
 11
13.19010474244925
 21
9.688736685874602
 31
0.0
  0
LINE
  5
F9
330
1F
100
AcDbEntity
  8
0
100
AcDbLine
 10
13.16602872004
 20
8.757299307562505
 30
0.0
 11
13.23937975984509
 21
9.221433162477485
 31
0.0
  0
LINE
  5
FA
330
1F
100
AcDbEntity
  8
0
100
AcDbLine
 10
12.97505037517798
 20
8.32796507632465
 30
0.0
 11
13.16602872004
 21
8.757299307562505
 31
0.0
  0
LINE
  5
FB
330
1F
100
AcDbEntity
  8
0
100
AcDbLine
 10
12.67945958385531
 20
7.962688887114455
 30
0.0
 11
12.97505037517798
 21
8.32796507632465
 31
0.0
  0
LINE
  5
FC
330
1F
100
AcDbEntity
  8
0
100
AcDbLine
 10
12.29940037001334
 20
7.686363708579136
 30
0.0
 11
12.67945958385531
 21
7.962688887114455
 31
0.0
  0
LINE
  5
FD
330
1F
100
AcDbEntity
  8
0
100
AcDbLine
 10
11.8607731409981
 20
7.517820644986909
 30
0.0
 11
12.29940037001334
 21
7.686363708579136
 31
0.0
  0
LINE
  5
FE
330
1F
100
AcDbEntity
  8
0
100
AcDbLine
 10
11.39346961760089
 20
7.46854562759103
 30
0.0
 11
11.8607731409981
 21
7.517820644986909
 31
0.0
  0
LINE
  5
FF
330
1F
100
AcDbEntity
  8
0
100
AcDbLine
 10
10.92933576268582
 20
7.541896667396208
 30
0.0
 11
11.39346961760089
 21
7.46854562759103
 31
0.0
  0
LINE
  5
100
330
1F
100
AcDbEntity
  8
0
100
AcDbLine
 10
10.50000153144801
 20
7.732875012258003
 30
0.0
 11
10.92933576268582
 21
7.541896667396208
 31
0.0
  0
LINE
  5
101
330
1F
100
AcDbEntity
  8
0
100
AcDbLine
 10
10.13472534223786
 20
8.028465803580758
 30
0.0
 11
10.50000153144801
 21
7.732875012258003
 31
0.0
  0
LINE
  5
102
330
1F
100
AcDbEntity
  8
0
100
AcDbLine
 10
9.858400163702496
 20
8.408525017422734
 30
0.0
 11
10.13472534223786
 21
8.028465803580758
 31
0.0
  0
LINE
  5
103
330
1F
100
AcDbEntity
  8
0
100
AcDbLine
 10
9.68985710011027
 20
8.847152246438107
 30
0.0
 11
9.858400163702496
 21
8.408525017422734
 31
0.0
  0
LINE
  5
104
330
1F
100
AcDbEntity
  8
0
100
AcDbLine
 10
9.640582082714436
 20
9.314455769835224
 30
0.0
 11
9.68985710011027
 21
8.847152246438107
 31
0.0
  0
LINE
  5
105
330
1F
100
AcDbEntity
  8
0
100
AcDbLine
 10
9.713933122519524
 20
9.778589624750204
 30
0.0
 11
9.640582082714436
 21
9.314455769835224
 31
0.0
  0
LINE
  5
106
330
1F
100
AcDbEntity
  8
0
100
AcDbLine
 10
-32.2986820669479
 20
48.93381557407097
 30
0.0
 11
-32.36001557472085
 21
48.46794133015635
 31
0.0
  0
LINE
  5
107
330
1F
100
AcDbEntity
  8
0
100
AcDbLine
 10
-32.11886132082528
 20
49.36794125815651
 30
0.0
 11
-32.2986820669479
 21
48.93381557407097
 31
0.0
  0
LINE
  5
108
330
1F
100
AcDbEntity
  8
0
100
AcDbLine
 10
-31.83280782303328
 20
49.74073343446893
 30
0.0
 11
-32.11886132082528
 21
49.36794125815651
 31
0.0
  0
LINE
  5
109
330
1F
100
AcDbEntity
  8
0
100
AcDbLine
 10
-31.46001564672087
 20
50.02678693226075
 30
0.0
 11
-31.83280782303328
 21
49.74073343446893
 31
0.0
  0
LINE
  5
10A
330
1F
100
AcDbEntity
  8
0
100
AcDbLine
 10
-31.02588996263551
 20
50.20660767838337
 30
0.0
 11
-31.46001564672087
 21
50.02678693226075
 31
0.0
  0
LINE
  5
10B
330
1F
100
AcDbEntity
  8
0
100
AcDbLine
 10
-30.56001571872088
 20
50.2679411861565
 30
0.0
 11
-31.02588996263551
 21
50.20660767838337
 31
0.0
  0
LINE
  5
10C
330
1F
100
AcDbEntity
  8
0
100
AcDbLine
 10
-30.09414147480626
 20
50.20660767838337
 30
0.0
 11
-30.56001571872088
 21
50.2679411861565
 31
0.0
  0
LINE
  5
10D
330
1F
100
AcDbEntity
  8
0
100
AcDbLine
 10
-29.66001579072072
 20
50.02678693226075
 30
0.0
 11
-30.09414147480626
 21
50.20660767838337
 31
0.0
  0
LINE
  5
10E
330
1F
100
AcDbEntity
  8
0
100
AcDbLine
 10
-29.28722361440849
 20
49.74073343446893
 30
0.0
 11
-29.66001579072072
 21
50.02678693226075
 31
0.0
  0
LINE
  5
10F
330
1F
100
AcDbEntity
  8
0
100
AcDbLine
 10
-29.00117011661649
 20
49.36794125815634
 30
0.0
 11
-29.28722361440849
 21
49.74073343446893
 31
0.0
  0
LINE
  5
110
330
1F
100
AcDbEntity
  8
0
100
AcDbLine
 10
-28.82134937049387
 20
48.93381557407097
 30
0.0
 11
-29.00117011661649
 21
49.36794125815634
 31
0.0
  0
LINE
  5
111
330
1F
100
AcDbEntity
  8
0
100
AcDbLine
 10
-28.76001586272092
 20
48.46794133015635
 30
0.0
 11
-28.82134937049387
 21
48.93381557407097
 31
0.0
  0
LINE
  5
112
330
1F
100
AcDbEntity
  8
0
100
AcDbLine
 10
-28.82134937049387
 20
48.00206708624173
 30
0.0
 11
-28.76001586272092
 21
48.46794133015635
 31
0.0
  0
LINE
  5
113
330
1F
100
AcDbEntity
  8
0
100
AcDbLine
 10
-29.00117011661649
 20
47.56794140215637
 30
0.0
 11
-28.82134937049387
 21
48.00206708624173
 31
0.0
  0
LINE
  5
114
330
1F
100
AcDbEntity
  8
0
100
AcDbLine
 10
-29.28722361440849
 20
47.19514922584396
 30
0.0
 11
-29.00117011661649
 21
47.56794140215637
 31
0.0
  0
LINE
  5
115
330
1F
100
AcDbEntity
  8
0
100
AcDbLine
 10
-29.6600157907209
 20
46.90909572805196
 30
0.0
 11
-29.28722361440849
 21
47.19514922584396
 31
0.0
  0
LINE
  5
116
330
1F
100
AcDbEntity
  8
0
100
AcDbLine
 10
-30.09414147480626
 20
46.72927498192934
 30
0.0
 11
-29.6600157907209
 21
46.90909572805196
 31
0.0
  0
LINE
  5
117
330
1F
100
AcDbEntity
  8
0
100
AcDbLine
 10
-30.56001571872088
 20
46.66794147415639
 30
0.0
 11
-30.09414147480626
 21
46.72927498192934
 31
0.0
  0
LINE
  5
118
330
1F
100
AcDbEntity
  8
0
100
AcDbLine
 10
-31.02588996263551
 20
46.72927498192934
 30
0.0
 11
-30.56001571872088
 21
46.66794147415639
 31
0.0
  0
LINE
  5
119
330
1F
100
AcDbEntity
  8
0
100
AcDbLine
 10
-31.46001564672105
 20
46.90909572805196
 30
0.0
 11
-31.02588996263551
 21
46.72927498192934
 31
0.0
  0
LINE
  5
11A
330
1F
100
AcDbEntity
  8
0
100
AcDbLine
 10
-32.11886132082528
 20
47.56794140215637
 30
0.0
 11
-31.83280782303328
 21
47.19514922584396
 31
0.0
  0
LINE
  5
11B
330
1F
100
AcDbEntity
  8
0
100
AcDbLine
 10
-32.2986820669479
 20
48.00206708624173
 30
0.0
 11
-32.11886132082528
 21
47.56794140215637
 31
0.0
  0
LINE
  5
11C
330
1F
100
AcDbEntity
  8
0
100
AcDbLine
 10
-32.36001557472085
 20
48.46794133015635
 30
0.0
 11
-32.2986820669479
 21
48.00206708624173
 31
0.0
  0
LINE
  5
11D
330
1F
100
AcDbEntity
  8
0
100
AcDbLine
 10
11.48056945086149
 20
56.06748304484159
 30
0.0
 11
11.01343064194494
 21
56.01667021651345
 31
0.0
  0
LINE
  5
11E
330
1F
100
AcDbEntity
  8
0
100
AcDbLine
 10
11.9449422185629
 20
55.99566004757646
 30
0.0
 11
11.48056945086149
 21
56.06748304484159
 31
0.0
  0
LINE
  5
11F
330
1F
100
AcDbEntity
  8
0
100
AcDbLine
 10
12.37490270834236
 20
55.80609584328858
 30
0.0
 11
11.9449422185629
 21
55.99566004757646
 31
0.0
  0
LINE
  5
120
330
1F
100
AcDbEntity
  8
0
100
AcDbLine
 10
12.7411498233648
 20
55.51170891923032
 30
0.0
 11
12.37490270834236
 21
55.80609584328858
 31
0.0
  0
LINE
  5
121
330
1F
100
AcDbEntity
  8
0
100
AcDbLine
 10
13.01872442799347
 20
55.13256125777917
 30
0.0
 11
12.7411498233648
 21
55.51170891923032
 31
0.0
  0
LINE
  5
122
330
1F
100
AcDbEntity
  8
0
100
AcDbLine
 10
13.18871027163661
 20
54.6944911454916
 30
0.0
 11
13.01872442799347
 21
55.13256125777917
 31
0.0
  0
LINE
  5
123
330
1F
100
AcDbEntity
  8
0
100
AcDbLine
 10
13.23952309996475
 20
54.22735233657487
 30
0.0
 11
13.18871027163661
 21
54.6944911454916
 31
0.0
  0
LINE
  5
124
330
1F
100
AcDbEntity
  8
0
100
AcDbLine
 10
13.16770010269962
 20
53.76297956887365
 30
0.0
 11
13.23952309996475
 21
54.22735233657487
 31
0.0
  0
LINE
  5
125
330
1F
100
AcDbEntity
  8
0
100
AcDbLine
 10
12.97813589841174
 20
53.33301907909418
 30
0.0
 11
13.16770010269962
 21
53.76297956887365
 31
0.0
  0
LINE
  5
126
330
1F
100
AcDbEntity
  8
0
100
AcDbLine
 10
12.68374897435348
 20
52.96677196407155
 30
0.0
 11
12.97813589841174
 21
53.33301907909418
 31
0.0
  0
LINE
  5
127
330
1F
100
AcDbEntity
  8
0
100
AcDbLine
 10
12.30460131290215
 20
52.68919735944289
 30
0.0
 11
12.68374897435348
 21
52.96677196407155
 31
0.0
  0
LINE
  5
128
330
1F
100
AcDbEntity
  8
0
100
AcDbLine
 10
11.86653120061458
 20
52.51921151579994
 30
0.0
 11
12.30460131290215
 21
52.68919735944289
 31
0.0
  0
LINE
  5
129
330
1F
100
AcDbEntity
  8
0
100
AcDbLine
 10
11.39939239169803
 20
52.46839868747161
 30
0.0
 11
11.86653120061458
 21
52.51921151579994
 31
0.0
  0
LINE
  5
12A
330
1F
100
AcDbEntity
  8
0
100
AcDbLine
 10
10.50505913421716
 20
52.72978588902463
 30
0.0
 11
10.93501962399663
 21
52.54022168473674
 31
0.0
  0
LINE
  5
12B
330
1F
100
AcDbEntity
  8
0
100
AcDbLine
 10
10.13881201919472
 20
53.02417281308288
 30
0.0
 11
10.50505913421716
 21
52.72978588902463
 31
0.0
  0
LINE
  5
12C
330
1F
100
AcDbEntity
  8
0
100
AcDbLine
 10
9.861237414566052
 20
53.40332047453421
 30
0.0
 11
10.13881201919472
 21
53.02417281308288
 31
0.0
  0
LINE
  5
12D
330
1F
100
AcDbEntity
  8
0
100
AcDbLine
 10
9.69125157092291
 20
53.84139058682178
 30
0.0
 11
9.861237414566052
 21
53.40332047453421
 31
0.0
  0
LINE
  5
12E
330
1F
100
AcDbEntity
  8
0
100
AcDbLine
 10
9.640438742594768
 20
54.30852939573833
 30
0.0
 11
9.69125157092291
 21
53.84139058682178
 31
0.0
  0
LINE
  5
12F
330
1F
100
AcDbEntity
  8
0
100
AcDbLine
 10
9.712261739859896
 20
54.77290216343974
 30
0.0
 11
9.640438742594768
 21
54.30852939573833
 31
0.0
  0
LINE
  5
130
330
1F
100
AcDbEntity
  8
0
100
AcDbLine
 10
9.901825944147781
 20
55.20286265321921
 30
0.0
 11
9.712261739859896
 21
54.77290216343974
 31
0.0
  0
LINE
  5
131
330
1F
100
AcDbEntity
  8
0
100
AcDbLine
 10
10.19621286820604
 20
55.56910976824165
 30
0.0
 11
9.901825944147781
 21
55.20286265321921
 31
0.0
  0
LINE
  5
132
330
1F
100
AcDbEntity
  8
0
100
AcDbLine
 10
10.57536052965737
 20
55.84668437287031
 30
0.0
 11
10.19621286820604
 21
55.56910976824165
 31
0.0
  0
LINE
  5
133
330
1F
100
AcDbEntity
  8
0
100
AcDbLine
 10
11.01343064194494
 20
56.01667021651345
 30
0.0
 11
10.57536052965737
 21
55.84668437287031
 31
0.0
  0
LINE
  5
134
330
1F
100
AcDbEntity
  8
0
100
AcDbLine
 10
-11.44255116118319
 20
6.767954817297594
 30
0.0
 11
-11.44255116118355
 21
56.76793051501514
 31
0.0
  0
LINE
  5
135
330
1F
100
AcDbEntity
  8
0
100
AcDbLine
 10
-11.44255116118355
 20
56.76793051501514
 30
0.0
 11
-0.4425570372975511
 21
56.76793051501514
 31
0.0
  0
LINE
  5
136
330
1F
100
AcDbEntity
  8
0
100
AcDbLine
 10
-0.4425570372975511
 20
56.76793051501514
 30
0.0
 11
-0.4425570372970096
 21
6.767954817297323
 31
0.0
  0
LINE
  5
137
330
1F
100
AcDbEntity
  8
0
100
AcDbLine
 10
-0.4425570372970096
 20
6.767954817297323
 30
0.0
 11
-11.44255116118319
 21
6.767954817297594
 31
0.0
  0
LINE
  5
138
330
1F
100
AcDbEntity
  8
0
100
AcDbLine
 10
5.830234667015001
 20
13.79515189784263
 30
0.0
 11
6.116288164806822
 21
14.16794407415504
 31
0.0
  0
LINE
  5
139
330
1F
100
AcDbEntity
  8
0
100
AcDbLine
 10
5.457442490702589
 20
13.50909840005072
 30
0.0
 11
5.830234667015001
 21
13.79515189784263
 31
0.0
  0
LINE
  5
13A
330
1F
100
AcDbEntity
  8
0
100
AcDbLine
 10
5.023316806617229
 20
13.32927765392805
 30
0.0
 11
5.457442490702589
 21
13.50909840005072
 31
0.0
  0
LINE
  5
13B
330
1F
100
AcDbEntity
  8
0
100
AcDbLine
 10
4.557442562702607
 20
13.26794414615506
 30
0.0
 11
5.023316806617229
 21
13.32927765392805
 31
0.0
  0
LINE
  5
13C
330
1F
100
AcDbEntity
  8
0
100
AcDbLine
 10
4.091568318787986
 20
13.32927765392805
 30
0.0
 11
4.557442562702607
 21
13.26794414615506
 31
0.0
  0
LINE
  5
13D
330
1F
100
AcDbEntity
  8
0
100
AcDbLine
 10
3.657442634702626
 20
13.50909840005072
 30
0.0
 11
4.091568318787986
 21
13.32927765392805
 31
0.0
  0
LINE
  5
13E
330
1F
100
AcDbEntity
  8
0
100
AcDbLine
 10
3.284650458390214
 20
13.79515189784263
 30
0.0
 11
3.657442634702626
 21
13.50909840005072
 31
0.0
  0
LINE
  5
13F
330
1F
100
AcDbEntity
  8
0
100
AcDbLine
 10
2.998596960598393
 20
14.16794407415504
 30
0.0
 11
3.284650458390214
 21
13.79515189784263
 31
0.0
  0
LINE
  5
140
330
1F
100
AcDbEntity
  8
0
100
AcDbLine
 10
2.818776214475593
 20
14.60206975824044
 30
0.0
 11
2.998596960598393
 21
14.16794407415504
 31
0.0
  0
LINE
  5
141
330
1F
100
AcDbEntity
  8
0
100
AcDbLine
 10
2.757442706702644
 20
15.06794400215502
 30
0.0
 11
2.818776214475593
 21
14.60206975824044
 31
0.0
  0
LINE
  5
142
330
1F
100
AcDbEntity
  8
0
100
AcDbLine
 10
2.818776214475593
 20
15.5338182460696
 30
0.0
 11
2.757442706702644
 21
15.06794400215502
 31
0.0
  0
LINE
  5
143
330
1F
100
AcDbEntity
  8
0
100
AcDbLine
 10
2.998596960598393
 20
15.967943930155
 30
0.0
 11
2.818776214475593
 21
15.5338182460696
 31
0.0
  0
LINE
  5
144
330
1F
100
AcDbEntity
  8
0
100
AcDbLine
 10
3.284650458390214
 20
16.34073610646742
 30
0.0
 11
2.998596960598393
 21
15.967943930155
 31
0.0
  0
LINE
  5
145
330
1F
100
AcDbEntity
  8
0
100
AcDbLine
 10
3.657442634702626
 20
16.62678960425933
 30
0.0
 11
3.284650458390214
 21
16.34073610646742
 31
0.0
  0
LINE
  5
146
330
1F
100
AcDbEntity
  8
0
100
AcDbLine
 10
4.091568318787986
 20
16.80661035038199
 30
0.0
 11
3.657442634702626
 21
16.62678960425933
 31
0.0
  0
LINE
  5
147
330
1F
100
AcDbEntity
  8
0
100
AcDbLine
 10
4.557442562702607
 20
16.86794385815499
 30
0.0
 11
4.091568318787986
 21
16.80661035038199
 31
0.0
  0
LINE
  5
148
330
1F
100
AcDbEntity
  8
0
100
AcDbLine
 10
5.023316806617229
 20
16.80661035038199
 30
0.0
 11
4.557442562702607
 21
16.86794385815499
 31
0.0
  0
LINE
  5
149
330
1F
100
AcDbEntity
  8
0
100
AcDbLine
 10
5.457442490702589
 20
16.62678960425933
 30
0.0
 11
5.023316806617229
 21
16.80661035038199
 31
0.0
  0
LINE
  5
14A
330
1F
100
AcDbEntity
  8
0
100
AcDbLine
 10
5.830234667015001
 20
16.34073610646742
 30
0.0
 11
5.457442490702589
 21
16.62678960425933
 31
0.0
  0
LINE
  5
14B
330
1F
100
AcDbEntity
  8
0
100
AcDbLine
 10
6.116288164806822
 20
15.967943930155
 30
0.0
 11
5.830234667015001
 21
16.34073610646742
 31
0.0
  0
LINE
  5
14C
330
1F
100
AcDbEntity
  8
0
100
AcDbLine
 10
6.296108910929623
 20
15.5338182460696
 30
0.0
 11
6.116288164806822
 21
15.967943930155
 31
0.0
  0
LINE
  5
14D
330
1F
100
AcDbEntity
  8
0
100
AcDbLine
 10
6.35744241870257
 20
15.06794400215502
 30
0.0
 11
6.296108910929623
 21
15.5338182460696
 31
0.0
  0
LINE
  5
14E
330
1F
100
AcDbEntity
  8
0
100
AcDbLine
 10
6.296108910929623
 20
14.60206975824044
 30
0.0
 11
6.35744241870257
 21
15.06794400215502
 31
0.0
  0
LINE
  5
14F
330
1F
100
AcDbEntity
  8
0
100
AcDbLine
 10
6.116288164806822
 20
14.16794407415504
 30
0.0
 11
6.296108910929623
 21
14.60206975824044
 31
0.0
  0
LINE
  5
150
330
1F
100
AcDbEntity
  8
0
100
AcDbLine
 10
64.05044923958782
 20
-26.09292196425993
 30
0.0
 11
63.4510467525123
 21
-24.6458363506419
 31
0.0
  0
LINE
  5
151
330
1F
100
AcDbEntity
  8
0
100
AcDbLine
 10
43.37621627935155
 20
-25.52451593678788
 30
0.0
 11
42.75489598549758
 21
-25.04776010713465
 31
0.0
  0
LINE
  5
152
330
1F
100
AcDbEntity
  8
0
100
AcDbLine
 10
25.65489735349739
 20
-32.14583575064191
 30
0.0
 11
25.65489735349739
 21
-8.545837638641759
 31
0.0
  0
LINE
  5
153
330
1F
100
AcDbEntity
  8
0
100
AcDbLine
 10
31.45489688949737
 20
-27.64583611064191
 30
0.0
 11
31.39356338172442
 21
-27.17996186672734
 31
0.0
  0
LINE
  5
154
330
1F
100
AcDbEntity
  8
0
100
AcDbLine
 10
78.21373887560189
 20
-28.54583603864189
 30
0.0
 11
78.39355962172469
 21
-28.11171035455649
 31
0.0
  0
LINE
  5
155
330
1F
100
AcDbEntity
  8
0
100
AcDbLine
 10
38.35711885845253
 20
-26.86937903745093
 30
0.0
 11
38.25489634549749
 21
-27.64583611064191
 31
0.0
  0
LINE
  5
156
330
1F
100
AcDbEntity
  8
0
100
AcDbLine
 10
38.65682010199028
 20
-26.14583623064188
 30
0.0
 11
38.35711885845253
 21
-26.86937903745093
 31
0.0
  0
LINE
  5
157
330
1F
100
AcDbEntity
  8
0
100
AcDbLine
 10
39.13357593164357
 20
-25.52451593678784
 30
0.0
 11
38.65682010199028
 21
-26.14583623064188
 31
0.0
  0
LINE
  5
158
330
1F
100
AcDbEntity
  8
0
100
AcDbLine
 10
39.75489622549753
 20
-25.04776010713465
 30
0.0
 11
39.13357593164357
 21
-25.52451593678784
 31
0.0
  0
LINE
  5
159
330
1F
100
AcDbEntity
  8
0
100
AcDbLine
 10
40.47843903230651
 20
-24.74805886359684
 30
0.0
 11
39.75489622549753
 21
-25.04776010713465
 31
0.0
  0
LINE
  5
15A
330
1F
100
AcDbEntity
  8
0
100
AcDbLine
 10
41.25489610549755
 20
-24.64583635064185
 30
0.0
 11
40.47843903230651
 21
-24.74805886359684
 31
0.0
  0
LINE
  5
15B
330
1F
100
AcDbEntity
  8
0
100
AcDbLine
 10
42.03135317868859
 20
-24.74805886359684
 30
0.0
 11
41.25489610549755
 21
-24.64583635064185
 31
0.0
  0
LINE
  5
15C
330
1F
100
AcDbEntity
  8
0
100
AcDbLine
 10
42.75489598549758
 20
-25.04776010713465
 30
0.0
 11
42.03135317868859
 21
-24.74805886359684
 31
0.0
  0
LINE
  5
15D
330
1F
100
AcDbEntity
  8
0
100
AcDbLine
 10
43.85297210900482
 20
-26.14583623064188
 30
0.0
 11
43.37621627935155
 21
-25.52451593678788
 31
0.0
  0
LINE
  5
15E
330
1F
100
AcDbEntity
  8
0
100
AcDbLine
 10
44.15267335254258
 20
-26.86937903745093
 30
0.0
 11
43.85297210900482
 21
-26.14583623064188
 31
0.0
  0
LINE
  5
15F
330
1F
100
AcDbEntity
  8
0
100
AcDbLine
 10
44.25489586549761
 20
-27.64583611064191
 30
0.0
 11
44.15267335254258
 21
-26.86937903745093
 31
0.0
  0
LINE
  5
160
330
1F
100
AcDbEntity
  8
0
100
AcDbLine
 10
44.25489586549761
 20
-27.64583611064191
 30
0.0
 11
44.25489586549761
 21
-32.14583575064191
 31
0.0
  0
LINE
  5
161
330
1F
100
AcDbEntity
  8
0
100
AcDbLine
 10
44.25489586549761
 20
-32.14583575064191
 30
0.0
 11
52.25489522549766
 21
-32.14583575064191
 31
0.0
  0
LINE
  5
162
330
1F
100
AcDbEntity
  8
0
100
AcDbLine
 10
52.25489522549766
 20
-27.64583611064191
 30
0.0
 11
52.25489522549766
 21
-32.14583575064191
 31
0.0
  0
LINE
  5
163
330
1F
100
AcDbEntity
  8
0
100
AcDbLine
 10
52.45934025140772
 20
-26.09292196425993
 30
0.0
 11
52.25489522549766
 21
-27.64583611064191
 31
0.0
  0
LINE
  5
164
330
1F
100
AcDbEntity
  8
0
100
AcDbLine
 10
53.05874273848324
 20
-24.6458363506419
 30
0.0
 11
52.45934025140772
 21
-26.09292196425993
 31
0.0
  0
LINE
  5
165
330
1F
100
AcDbEntity
  8
0
100
AcDbLine
 10
54.01225439778978
 20
-23.40319576293384
 30
0.0
 11
53.05874273848324
 21
-24.6458363506419
 31
0.0
  0
LINE
  5
166
330
1F
100
AcDbEntity
  8
0
100
AcDbLine
 10
55.25489498549771
 20
-22.44968410362747
 30
0.0
 11
54.01225439778978
 21
-23.40319576293384
 31
0.0
  0
LINE
  5
167
330
1F
100
AcDbEntity
  8
0
100
AcDbLine
 10
56.70198059911569
 20
-21.85028161655186
 30
0.0
 11
55.25489498549771
 21
-22.44968410362747
 31
0.0
  0
LINE
  5
168
330
1F
100
AcDbEntity
  8
0
100
AcDbLine
 10
58.25489474549777
 20
-21.64583659064189
 30
0.0
 11
56.70198059911569
 21
-21.85028161655186
 31
0.0
  0
LINE
  5
169
330
1F
100
AcDbEntity
  8
0
100
AcDbLine
 10
59.80780889187984
 20
-21.85028161655186
 30
0.0
 11
58.25489474549777
 21
-21.64583659064189
 31
0.0
  0
LINE
  5
16A
330
1F
100
AcDbEntity
  8
0
100
AcDbLine
 10
61.25489450549782
 20
-22.44968410362747
 30
0.0
 11
59.80780889187984
 21
-21.85028161655186
 31
0.0
  0
LINE
  5
16B
330
1F
100
AcDbEntity
  8
0
100
AcDbLine
 10
62.49753509320574
 20
-23.40319576293384
 30
0.0
 11
61.25489450549782
 21
-22.44968410362747
 31
0.0
  0
LINE
  5
16C
330
1F
100
AcDbEntity
  8
0
100
AcDbLine
 10
63.4510467525123
 20
-24.6458363506419
 30
0.0
 11
62.49753509320574
 21
-23.40319576293384
 31
0.0
  0
LINE
  5
16D
330
1F
100
AcDbEntity
  8
0
100
AcDbLine
 10
64.25489426549788
 20
-27.64583611064191
 30
0.0
 11
64.05044923958782
 21
-26.09292196425993
 31
0.0
  0
LINE
  5
16E
330
1F
100
AcDbEntity
  8
0
100
AcDbLine
 10
64.25489426549788
 20
-27.64583611064191
 30
0.0
 11
64.25489426549788
 21
-32.14583575064191
 31
0.0
  0
LINE
  5
16F
330
1F
100
AcDbEntity
  8
0
100
AcDbLine
 10
64.25489426549788
 20
-32.14583575064191
 30
0.0
 11
80.6548929534977
 21
-32.14583575064191
 31
0.0
  0
LINE
  5
170
330
1F
100
AcDbEntity
  8
0
100
AcDbLine
 10
80.6548929534977
 20
-8.545837638641759
 30
0.0
 11
80.6548929534977
 21
-32.14583575064191
 31
0.0
  0
LINE
  5
171
330
1F
100
AcDbEntity
  8
0
100
AcDbLine
 10
25.65489735349739
 20
-8.545837638641759
 30
0.0
 11
80.6548929534977
 21
-8.545837638641759
 31
0.0
  0
LINE
  5
172
330
1F
100
AcDbEntity
  8
0
100
AcDbLine
 10
25.65489735349739
 20
-32.14583575064191
 30
0.0
 11
38.25489634549749
 21
-32.14583575064191
 31
0.0
  0
LINE
  5
173
330
1F
100
AcDbEntity
  8
0
100
AcDbLine
 10
38.25489634549749
 20
-27.64583611064191
 30
0.0
 11
38.25489634549749
 21
-32.14583575064191
 31
0.0
  0
LINE
  5
174
330
1F
100
AcDbEntity
  8
0
100
AcDbLine
 10
30.12077127741203
 20
-29.38450245886888
 30
0.0
 11
30.55489696149739
 21
-29.20468171274622
 31
0.0
  0
LINE
  5
175
330
1F
100
AcDbEntity
  8
0
100
AcDbLine
 10
29.65489703349741
 20
-29.44583596664188
 30
0.0
 11
30.12077127741203
 21
-29.38450245886888
 31
0.0
  0
LINE
  5
176
330
1F
100
AcDbEntity
  8
0
100
AcDbLine
 10
29.18902278958279
 20
-29.38450245886888
 30
0.0
 11
29.65489703349741
 21
-29.44583596664188
 31
0.0
  0
LINE
  5
177
330
1F
100
AcDbEntity
  8
0
100
AcDbLine
 10
28.75489710549743
 20
-29.20468171274622
 30
0.0
 11
29.18902278958279
 21
-29.38450245886888
 31
0.0
  0
LINE
  5
178
330
1F
100
AcDbEntity
  8
0
100
AcDbLine
 10
28.38210492918502
 20
-28.91862821495431
 30
0.0
 11
28.75489710549743
 21
-29.20468171274622
 31
0.0
  0
LINE
  5
179
330
1F
100
AcDbEntity
  8
0
100
AcDbLine
 10
28.09605143139319
 20
-28.54583603864189
 30
0.0
 11
28.38210492918502
 21
-28.91862821495431
 31
0.0
  0
LINE
  5
17A
330
1F
100
AcDbEntity
  8
0
100
AcDbLine
 10
27.9162306852704
 20
-28.11171035455649
 30
0.0
 11
28.09605143139319
 21
-28.54583603864189
 31
0.0
  0
LINE
  5
17B
330
1F
100
AcDbEntity
  8
0
100
AcDbLine
 10
27.85489717749745
 20
-27.64583611064191
 30
0.0
 11
27.9162306852704
 21
-28.11171035455649
 31
0.0
  0
LINE
  5
17C
330
1F
100
AcDbEntity
  8
0
100
AcDbLine
 10
27.9162306852704
 20
-27.17996186672734
 30
0.0
 11
27.85489717749745
 21
-27.64583611064191
 31
0.0
  0
LINE
  5
17D
330
1F
100
AcDbEntity
  8
0
100
AcDbLine
 10
28.09605143139319
 20
-26.74583618264193
 30
0.0
 11
27.9162306852704
 21
-27.17996186672734
 31
0.0
  0
LINE
  5
17E
330
1F
100
AcDbEntity
  8
0
100
AcDbLine
 10
28.38210492918502
 20
-26.37304400632953
 30
0.0
 11
28.09605143139319
 21
-26.74583618264193
 31
0.0
  0
LINE
  5
17F
330
1F
100
AcDbEntity
  8
0
100
AcDbLine
 10
28.75489710549743
 20
-26.08699050853761
 30
0.0
 11
28.38210492918502
 21
-26.37304400632953
 31
0.0
  0
LINE
  5
180
330
1F
100
AcDbEntity
  8
0
100
AcDbLine
 10
29.18902278958279
 20
-25.90716976241494
 30
0.0
 11
28.75489710549743
 21
-26.08699050853761
 31
0.0
  0
LINE
  5
181
330
1F
100
AcDbEntity
  8
0
100
AcDbLine
 10
29.65489703349741
 20
-25.84583625464195
 30
0.0
 11
29.18902278958279
 21
-25.90716976241494
 31
0.0
  0
LINE
  5
182
330
1F
100
AcDbEntity
  8
0
100
AcDbLine
 10
30.12077127741203
 20
-25.90716976241494
 30
0.0
 11
29.65489703349741
 21
-25.84583625464195
 31
0.0
  0
LINE
  5
183
330
1F
100
AcDbEntity
  8
0
100
AcDbLine
 10
30.55489696149739
 20
-26.08699050853761
 30
0.0
 11
30.12077127741203
 21
-25.90716976241494
 31
0.0
  0
LINE
  5
184
330
1F
100
AcDbEntity
  8
0
100
AcDbLine
 10
30.9276891378098
 20
-26.37304400632953
 30
0.0
 11
30.55489696149739
 21
-26.08699050853761
 31
0.0
  0
LINE
  5
185
330
1F
100
AcDbEntity
  8
0
100
AcDbLine
 10
31.21374263560163
 20
-26.74583618264193
 30
0.0
 11
30.9276891378098
 21
-26.37304400632953
 31
0.0
  0
LINE
  5
186
330
1F
100
AcDbEntity
  8
0
100
AcDbLine
 10
31.39356338172442
 20
-27.17996186672734
 30
0.0
 11
31.21374263560163
 21
-26.74583618264193
 31
0.0
  0
LINE
  5
187
330
1F
100
AcDbEntity
  8
0
100
AcDbLine
 10
31.39356338172442
 20
-28.11171035455649
 30
0.0
 11
31.45489688949737
 21
-27.64583611064191
 31
0.0
  0
LINE
  5
188
330
1F
100
AcDbEntity
  8
0
100
AcDbLine
 10
31.21374263560163
 20
-28.54583603864189
 30
0.0
 11
31.39356338172442
 21
-28.11171035455649
 31
0.0
  0
LINE
  5
189
330
1F
100
AcDbEntity
  8
0
100
AcDbLine
 10
30.9276891378098
 20
-28.91862821495431
 30
0.0
 11
31.21374263560163
 21
-28.54583603864189
 31
0.0
  0
LINE
  5
18A
330
1F
100
AcDbEntity
  8
0
100
AcDbLine
 10
30.55489696149739
 20
-29.20468171274622
 30
0.0
 11
30.9276891378098
 21
-28.91862821495431
 31
0.0
  0
LINE
  5
18B
330
1F
100
AcDbEntity
  8
0
100
AcDbLine
 10
76.65489327349766
 20
-29.44583596664188
 30
0.0
 11
77.1207675174123
 21
-29.38450245886888
 31
0.0
  0
LINE
  5
18C
330
1F
100
AcDbEntity
  8
0
100
AcDbLine
 10
76.18901902958305
 20
-29.38450245886888
 30
0.0
 11
76.65489327349766
 21
-29.44583596664188
 31
0.0
  0
LINE
  5
18D
330
1F
100
AcDbEntity
  8
0
100
AcDbLine
 10
75.75489334549769
 20
-29.20468171274622
 30
0.0
 11
76.18901902958305
 21
-29.38450245886888
 31
0.0
  0
LINE
  5
18E
330
1F
100
AcDbEntity
  8
0
100
AcDbLine
 10
75.75489334549769
 20
-26.08699050853761
 30
0.0
 11
75.38210116918528
 21
-26.37304400632953
 31
0.0
  0
LINE
  5
18F
330
1F
100
AcDbEntity
  8
0
100
AcDbLine
 10
77.92768537781006
 20
-26.37304400632953
 30
0.0
 11
77.55489320149765
 21
-26.08699050853761
 31
0.0
  0
LINE
  5
190
330
1F
100
AcDbEntity
  8
0
100
AcDbLine
 10
78.21373887560189
 20
-26.74583618264193
 30
0.0
 11
77.92768537781006
 21
-26.37304400632953
 31
0.0
  0
LINE
  5
191
330
1F
100
AcDbEntity
  8
0
100
AcDbLine
 10
78.39355962172469
 20
-27.17996186672734
 30
0.0
 11
78.21373887560189
 21
-26.74583618264193
 31
0.0
  0
LINE
  5
192
330
1F
100
AcDbEntity
  8
0
100
AcDbLine
 10
78.45489312949763
 20
-27.64583611064191
 30
0.0
 11
78.39355962172469
 21
-27.17996186672734
 31
0.0
  0
LINE
  5
193
330
1F
100
AcDbEntity
  8
0
100
AcDbLine
 10
78.39355962172469
 20
-28.11171035455649
 30
0.0
 11
78.45489312949763
 21
-27.64583611064191
 31
0.0
  0
LINE
  5
194
330
1F
100
AcDbEntity
  8
0
100
AcDbLine
 10
77.92768537781006
 20
-28.91862821495431
 30
0.0
 11
78.21373887560189
 21
-28.54583603864189
 31
0.0
  0
LINE
  5
195
330
1F
100
AcDbEntity
  8
0
100
AcDbLine
 10
77.55489320149765
 20
-29.20468171274622
 30
0.0
 11
77.92768537781006
 21
-28.91862821495431
 31
0.0
  0
LINE
  5
196
330
1F
100
AcDbEntity
  8
0
100
AcDbLine
 10
77.1207675174123
 20
-29.38450245886888
 30
0.0
 11
77.55489320149765
 21
-29.20468171274622
 31
0.0
  0
LINE
  5
197
330
1F
100
AcDbEntity
  8
0
100
AcDbLine
 10
-56.39638243453308
 20
-71.81351859479291
 30
0.0
 11
-62.17891838305189
 21
-71.81351859479291
 31
0.0
  0
LINE
  5
198
330
1F
100
AcDbEntity
  8
0
100
AcDbLine
 10
-50.56917510684541
 20
-75.04072613048051
 30
0.0
 11
-50.85522860463742
 21
-75.41351830679294
 31
0.0
  0
LINE
  5
199
330
1F
100
AcDbEntity
  8
0
100
AcDbLine
 10
-89.07891623105317
 20
-76.31351823479295
 30
0.0
 11
-86.8789164070533
 21
-80.12402970660361
 31
0.0
  0
LINE
  5
19A
330
1F
100
AcDbEntity
  8
0
100
AcDbLine
 10
-92.29637956253345
 20
-57.21351976279285
 30
0.0
 11
-100.2963789225335
 21
-57.21351976279285
 31
0.0
  0
LINE
  5
19B
330
1F
100
AcDbEntity
  8
0
100
AcDbLine
 10
-51.03504935076004
 20
-76.77939247870758
 30
0.0
 11
-50.85522860463742
 21
-77.21351816279298
 31
0.0
  0
LINE
  5
19C
330
1F
100
AcDbEntity
  8
0
100
AcDbLine
 10
-79.89638055453331
 20
-65.21351912279287
 30
0.0
 11
-56.39638243453308
 21
-65.21351912279287
 31
0.0
  0
LINE
  5
19D
330
1F
100
AcDbEntity
  8
0
100
AcDbLine
 10
-50.85522860463742
 20
-77.21351816279298
 30
0.0
 11
-50.56917510684541
 21
-77.5863103391054
 31
0.0
  0
LINE
  5
19E
330
1F
100
AcDbEntity
  8
0
100
AcDbLine
 10
-94.55771289430628
 20
-76.77939247870758
 30
0.0
 11
-94.49637938653314
 21
-76.31351823479295
 31
0.0
  0
LINE
  5
19F
330
1F
100
AcDbEntity
  8
0
100
AcDbLine
 10
-82.47891675905318
 20
-80.12402970660361
 30
0.0
 11
-80.27891693505332
 21
-76.31351823479295
 31
0.0
  0
LINE
  5
1A0
330
1F
100
AcDbEntity
  8
0
100
AcDbLine
 10
-77.18410534752101
 20
-31.43999010656733
 30
0.0
 11
-79.8963805545342
 21
-31.43999010656733
 31
0.0
  0
LINE
  5
1A1
330
1F
100
AcDbEntity
  8
0
100
AcDbLine
 10
-79.8963805545342
 20
-31.43999010656733
 30
0.0
 11
-79.8963805545342
 21
-24.8399906345673
 31
0.0
  0
LINE
  5
1A2
330
1F
100
AcDbEntity
  8
0
100
AcDbLine
 10
-79.8963805545342
 20
-24.8399906345673
 30
0.0
 11
-56.3963824345338
 21
-24.8399906345673
 31
0.0
  0
LINE
  5
1A3
330
1F
100
AcDbEntity
  8
0
100
AcDbLine
 10
-56.3963824345338
 20
-24.8399906345673
 30
0.0
 11
-56.3963824345338
 21
-31.43999010656733
 31
0.0
  0
LINE
  5
1A4
330
1F
100
AcDbEntity
  8
0
100
AcDbLine
 10
-56.3963824345338
 20
-31.43999010656733
 30
0.0
 11
-62.17891838305261
 21
-31.43999010656733
 31
0.0
  0
LINE
  5
1A5
330
1F
100
AcDbEntity
  8
0
100
AcDbLine
 10
-62.17891838305261
 20
-40.43998938656737
 30
0.0
 11
-62.17891838305261
 21
-31.43999010656733
 31
0.0
  0
LINE
  5
1A6
330
1F
100
AcDbEntity
  8
0
100
AcDbLine
 10
-89.07891623105407
 20
-35.93998974656737
 30
0.0
 11
-86.878916407054
 21
-39.75050121837801
 31
0.0
  0
LINE
  5
1A7
330
1F
100
AcDbEntity
  8
0
100
AcDbLine
 10
-50.2963829225346
 20
-40.43998938656741
 30
0.0
 11
-45.29638332253373
 21
-40.43998938656741
 31
0.0
  0
LINE
  5
1A8
330
1F
100
AcDbEntity
  8
0
100
AcDbLine
 10
-45.29638332253391
 20
-16.83999127456726
 30
0.0
 11
-45.29638332253373
 21
-40.43998938656741
 31
0.0
  0
LINE
  5
1A9
330
1F
100
AcDbEntity
  8
0
100
AcDbLine
 10
-45.29638332253391
 20
-16.83999127456726
 30
0.0
 11
-53.29638268253376
 21
-16.83999127456726
 31
0.0
  0
LINE
  5
1AA
330
1F
100
AcDbEntity
  8
0
100
AcDbLine
 10
-53.29638268253376
 20
-11.23999172256723
 30
0.0
 11
-53.29638268253376
 21
-16.83999127456726
 31
0.0
  0
LINE
  5
1AB
330
1F
100
AcDbEntity
  8
0
100
AcDbLine
 10
-53.29638268253376
 20
-11.23999172256723
 30
0.0
 11
-53.33045685351865
 21
-10.98117269817022
 31
0.0
  0
LINE
  5
1AC
330
1F
100
AcDbEntity
  8
0
100
AcDbLine
 10
-53.33045685351865
 20
-10.98117269817022
 30
0.0
 11
-53.43035726803136
 21
-10.73999176256721
 31
0.0
  0
LINE
  5
1AD
330
1F
100
AcDbEntity
  8
0
100
AcDbLine
 10
-53.43035726803136
 20
-10.73999176256721
 30
0.0
 11
-53.58927587791567
 21
-10.53288499794922
 31
0.0
  0
LINE
  5
1AE
330
1F
100
AcDbEntity
  8
0
100
AcDbLine
 10
-53.58927587791567
 20
-10.53288499794922
 30
0.0
 11
-53.79638264253366
 21
-10.37396638806483
 31
0.0
  0
LINE
  5
1AF
330
1F
100
AcDbEntity
  8
0
100
AcDbLine
 10
-53.79638264253366
 20
-10.37396638806483
 30
0.0
 11
-54.03756357813671
 21
-10.27406597355221
 31
0.0
  0
LINE
  5
1B0
330
1F
100
AcDbEntity
  8
0
100
AcDbLine
 10
-48.83050875861858
 20
-37.67865609479443
 30
0.0
 11
-48.39638307453323
 21
-37.49883534867177
 31
0.0
  0
LINE
  5
1B1
330
1F
100
AcDbEntity
  8
0
100
AcDbLine
 10
-47.73753740042863
 20
-77.21351816279298
 30
0.0
 11
-47.55771665430601
 21
-76.77939247870758
 31
0.0
  0
LINE
  5
1B2
330
1F
100
AcDbEntity
  8
0
100
AcDbLine
 10
29.1556917125339
 20
30.70678466612169
 30
0.0
 11
29.56528341203567
 21
29.7179428301493
 31
0.0
  0
LINE
  5
1B3
330
1F
100
AcDbEntity
  8
0
100
AcDbLine
 10
30.21684971256156
 20
28.86880509521549
 30
0.0
 11
31.06598744749556
 21
28.21723879468942
 31
0.0
  0
LINE
  5
1B4
330
1F
100
AcDbEntity
  8
0
100
AcDbLine
 10
32.0548292834678
 20
27.80764709518783
 30
0.0
 11
33.11598728349546
 21
27.66794299414931
 31
0.0
  0
LINE
  5
1B5
330
1F
100
AcDbEntity
  8
0
100
AcDbLine
 10
34.17714528352312
 20
27.80764709518783
 30
0.0
 11
35.16598711949537
 21
28.21723879468942
 31
0.0
  0
LINE
  5
1B6
330
1F
100
AcDbEntity
  8
0
100
AcDbLine
 10
37.07628285445703
 20
30.70678466612169
 30
0.0
 11
37.21598695549546
 21
31.76794266614935
 31
0.0
  0
LINE
  5
1B7
330
1F
100
AcDbEntity
  8
0
100
AcDbLine
 10
31.55714168139107
 20
49.11794127814944
 30
0.0
 11
31.37732093526844
 21
48.68381559406399
 31
0.0
  0
LINE
  5
1B8
330
1F
100
AcDbEntity
  8
0
100
AcDbLine
 10
73.3672209474902
 20
53.84152846558987
 30
0.0
 11
73.53717225124669
 21
53.40344495223852
 31
0.0
  0
LINE
  5
1B9
330
1F
100
AcDbEntity
  8
0
100
AcDbLine
 10
-97.19637917053326
 20
-74.75467263268857
 30
0.0
 11
-97.56917134684586
 21
-75.04072613048051
 31
0.0
  0
LINE
  5
1BA
330
1F
100
AcDbEntity
  8
0
100
AcDbLine
 10
-96.7622534864479
 20
-78.05218458302001
 30
0.0
 11
-96.29637924253329
 21
-78.11351809079301
 31
0.0
  0
LINE
  5
1BB
330
1F
100
AcDbEntity
  8
0
100
AcDbLine
 10
-97.85522484463768
 20
-77.21351816279298
 30
0.0
 11
-97.56917134684586
 21
-77.5863103391054
 31
0.0
  0
LINE
  5
1BC
330
1F
100
AcDbEntity
  8
0
100
AcDbLine
 10
32.65011303958084
 20
46.47927500192235
 30
0.0
 11
33.11598728349546
 21
46.41794149414931
 31
0.0
  0
LINE
  5
1BD
330
1F
100
AcDbEntity
  8
0
100
AcDbLine
 10
32.2159873554953
 20
46.65909574804497
 30
0.0
 11
32.65011303958084
 21
46.47927500192235
 31
0.0
  0
LINE
  5
1BE
330
1F
100
AcDbEntity
  8
0
100
AcDbLine
 10
31.3159874274955
 20
48.21794135014937
 30
0.0
 11
31.37732093526844
 21
47.75206710623475
 31
0.0
  0
LINE
  5
1BF
330
1F
100
AcDbEntity
  8
0
100
AcDbLine
 10
31.84319517918307
 20
49.49073345446185
 30
0.0
 11
31.55714168139107
 21
49.11794127814944
 31
0.0
  0
LINE
  5
1C0
330
1F
100
AcDbEntity
  8
0
100
AcDbLine
 10
32.21598735549548
 20
49.77678695225377
 30
0.0
 11
31.84319517918307
 21
49.49073345446185
 31
0.0
  0
LINE
  5
1C1
330
1F
100
AcDbEntity
  8
0
100
AcDbLine
 10
33.11598728349546
 20
50.01794120614942
 30
0.0
 11
32.65011303958084
 21
49.95660769837638
 31
0.0
  0
LINE
  5
1C2
330
1F
100
AcDbEntity
  8
0
100
AcDbLine
 10
33.58186152741008
 20
49.95660769837638
 30
0.0
 11
33.11598728349546
 21
50.01794120614942
 31
0.0
  0
LINE
  5
1C3
330
1F
100
AcDbEntity
  8
0
100
AcDbLine
 10
34.01598721149562
 20
49.77678695225377
 30
0.0
 11
33.58186152741008
 21
49.95660769837638
 31
0.0
  0
LINE
  5
1C4
330
1F
100
AcDbEntity
  8
0
100
AcDbLine
 10
34.38877938780786
 20
49.49073345446185
 30
0.0
 11
34.01598721149562
 21
49.77678695225377
 31
0.0
  0
LINE
  5
1C5
330
1F
100
AcDbEntity
  8
0
100
AcDbLine
 10
34.67483288559986
 20
49.11794127814935
 30
0.0
 11
34.38877938780786
 21
49.49073345446185
 31
0.0
  0
LINE
  5
1C6
330
1F
100
AcDbEntity
  8
0
100
AcDbLine
 10
34.85465363172248
 20
48.68381559406399
 30
0.0
 11
34.67483288559986
 21
49.11794127814935
 31
0.0
  0
LINE
  5
1C7
330
1F
100
AcDbEntity
  8
0
100
AcDbLine
 10
73.31644495058106
 20
54.30867127935951
 30
0.0
 11
73.3672209474902
 21
53.84152846558987
 31
0.0
  0
LINE
  5
1C8
330
1F
100
AcDbEntity
  8
0
100
AcDbLine
 10
73.53717225124669
 20
53.40344495223852
 30
0.0
 11
73.81471696135729
 21
53.02427540677322
 31
0.0
  0
LINE
  5
1C9
330
1F
100
AcDbEntity
  8
0
100
AcDbLine
 10
73.81471696135729
 20
53.02427540677322
 30
0.0
 11
74.18094086449229
 21
52.72985960711009
 31
0.0
  0
LINE
  5
1CA
330
1F
100
AcDbEntity
  8
0
100
AcDbLine
 10
74.18094086449229
 20
52.72985960711009
 30
0.0
 11
74.61088640686671
 21
52.54026150345096
 31
0.0
  0
LINE
  5
1CB
330
1F
100
AcDbEntity
  8
0
100
AcDbLine
 10
74.61088640686671
 20
52.54026150345096
 30
0.0
 11
75.07525351028626
 21
52.4684018932347
 31
0.0
  0
LINE
  5
1CC
330
1F
100
AcDbEntity
  8
0
100
AcDbLine
 10
75.07525351028626
 20
52.4684018932347
 30
0.0
 11
75.5423963240559
 21
52.51917789014382
 31
0.0
  0
LINE
  5
1CD
330
1F
100
AcDbEntity
  8
0
100
AcDbLine
 10
75.5423963240559
 20
52.51917789014382
 30
0.0
 11
75.98047983740715
 21
52.68912919390024
 31
0.0
  0
LINE
  5
1CE
330
1F
100
AcDbEntity
  8
0
100
AcDbLine
 10
75.98047983740715
 20
52.68912919390024
 30
0.0
 11
76.35964938287246
 21
52.96667390401084
 31
0.0
  0
LINE
  5
1CF
330
1F
100
AcDbEntity
  8
0
100
AcDbLine
 10
76.65406518253569
 20
53.33289780714582
 30
0.0
 11
76.84366328619471
 21
53.76284334952017
 31
0.0
  0
LINE
  5
1D0
330
1F
100
AcDbEntity
  8
0
100
AcDbLine
 10
76.91552289641115
 20
54.2272104529398
 30
0.0
 11
76.86474689950202
 21
54.69435326670944
 31
0.0
  0
LINE
  5
1D1
330
1F
100
AcDbEntity
  8
0
100
AcDbLine
 10
76.86474689950202
 20
54.69435326670944
 30
0.0
 11
76.69479559574553
 21
55.13243678006079
 31
0.0
  0
LINE
  5
1D2
330
1F
100
AcDbEntity
  8
0
100
AcDbLine
 10
76.69479559574553
 20
55.13243678006079
 30
0.0
 11
76.41725088563493
 21
55.51160632552609
 31
0.0
  0
LINE
  5
1D3
330
1F
100
AcDbEntity
  8
0
100
AcDbLine
 10
-48.02359089822063
 20
-75.04072613048051
 30
0.0
 11
-48.39638307453286
 21
-74.75467263268857
 31
0.0
  0
LINE
  5
1D4
330
1F
100
AcDbEntity
  8
0
100
AcDbLine
 10
-94.49637938653314
 20
-76.31351823479295
 30
0.0
 11
-94.55771289430628
 21
-75.84764399087834
 31
0.0
  0
LINE
  5
1D5
330
1F
100
AcDbEntity
  8
0
100
AcDbLine
 10
-48.8305087586184
 20
-74.5748518865659
 30
0.0
 11
-49.29638300253303
 21
-74.51351837879291
 31
0.0
  0
LINE
  5
1D6
330
1F
100
AcDbEntity
  8
0
100
AcDbLine
 10
-77.18410534752029
 20
-71.81351859479291
 30
0.0
 11
-79.89638055453331
 21
-71.81351859479291
 31
0.0
  0
LINE
  5
1D7
330
1F
100
AcDbEntity
  8
0
100
AcDbLine
 10
-98.09637909853343
 20
-76.31351823479295
 30
0.0
 11
-98.03504559076029
 21
-76.77939247870758
 31
0.0
  0
LINE
  5
1D8
330
1F
100
AcDbEntity
  8
0
100
AcDbLine
 10
-47.55771665430601
 20
-75.84764399087834
 30
0.0
 11
-47.73753740042863
 21
-75.41351830679294
 31
0.0
  0
LINE
  5
1D9
330
1F
100
AcDbEntity
  8
0
100
AcDbLine
 10
-47.49638314653306
 20
-76.31351823479295
 30
0.0
 11
-47.55771665430601
 21
-75.84764399087834
 31
0.0
  0
LINE
  5
1DA
330
1F
100
AcDbEntity
  8
0
100
AcDbLine
 10
76.41725088563493
 20
55.51160632552609
 30
0.0
 11
76.05102698249993
 21
55.80602212518922
 31
0.0
  0
LINE
  5
1DB
330
1F
100
AcDbEntity
  8
0
100
AcDbLine
 10
76.05102698249993
 20
55.80602212518922
 30
0.0
 11
75.62108144012551
 21
55.99562022884835
 31
0.0
  0
LINE
  5
1DC
330
1F
100
AcDbEntity
  8
0
100
AcDbLine
 10
75.62108144012551
 20
55.99562022884835
 30
0.0
 11
75.15671433670596
 21
56.06747983906461
 31
0.0
  0
LINE
  5
1DD
330
1F
100
AcDbEntity
  8
0
100
AcDbLine
 10
75.15671433670596
 20
56.06747983906461
 30
0.0
 11
74.68957152293632
 21
56.01670384215549
 31
0.0
  0
LINE
  5
1DE
330
1F
100
AcDbEntity
  8
0
100
AcDbLine
 10
74.68957152293632
 20
56.01670384215549
 30
0.0
 11
74.25148800958506
 21
55.84675253839908
 31
0.0
  0
LINE
  5
1DF
330
1F
100
AcDbEntity
  8
0
100
AcDbLine
 10
69.77483007760041
 20
49.16794127415232
 30
0.0
 11
69.4887765798084
 21
49.54073345046473
 31
0.0
  0
LINE
  5
1E0
330
1F
100
AcDbEntity
  8
0
100
AcDbLine
 10
69.4887765798084
 20
49.54073345046473
 30
0.0
 11
69.115984403496
 21
49.82678694825664
 31
0.0
  0
LINE
  5
1E1
330
1F
100
AcDbEntity
  8
0
100
AcDbLine
 10
69.115984403496
 20
49.82678694825664
 30
0.0
 11
68.68185871941063
 21
50.00660769437935
 31
0.0
  0
LINE
  5
1E2
330
1F
100
AcDbEntity
  8
0
100
AcDbLine
 10
68.68185871941063
 20
50.00660769437935
 30
0.0
 11
68.21598447549619
 21
50.06794120215238
 31
0.0
  0
LINE
  5
1E3
330
1F
100
AcDbEntity
  8
0
100
AcDbLine
 10
68.21598447549619
 20
50.06794120215238
 30
0.0
 11
67.75011023158157
 21
50.00660769437944
 31
0.0
  0
LINE
  5
1E4
330
1F
100
AcDbEntity
  8
0
100
AcDbLine
 10
67.75011023158157
 20
50.00660769437944
 30
0.0
 11
67.31598454749603
 21
49.82678694825673
 31
0.0
  0
LINE
  5
1E5
330
1F
100
AcDbEntity
  8
0
100
AcDbLine
 10
67.31598454749603
 20
49.82678694825673
 30
0.0
 11
66.94319237118361
 21
49.54073345046491
 31
0.0
  0
LINE
  5
1E6
330
1F
100
AcDbEntity
  8
0
100
AcDbLine
 10
-77.3180799330186
 20
-46.53998889856747
 30
0.0
 11
-77.21817951850589
 21
-46.29880796296445
 31
0.0
  0
LINE
  5
1E7
330
1F
100
AcDbEntity
  8
0
100
AcDbLine
 10
-77.21817951850589
 20
-46.29880796296445
 30
0.0
 11
-77.18410534752101
 21
-46.03998893856744
 31
0.0
  0
LINE
  5
1E8
330
1F
100
AcDbEntity
  8
0
100
AcDbLine
 10
-77.18410534752101
 20
-46.03998893856744
 30
0.0
 11
-77.18410534752101
 21
-31.43999010656733
 31
0.0
  0
LINE
  5
1E9
330
1F
100
AcDbEntity
  8
0
100
AcDbLine
 10
-91.29637964253422
 20
-10.23999180256723
 30
0.0
 11
-83.29638028253399
 21
-10.23999180256723
 31
0.0
  0
LINE
  5
1EA
330
1F
100
AcDbEntity
  8
0
100
AcDbLine
 10
-91.55519866693122
 20
-10.27406597355221
 30
0.0
 11
-91.29637964253422
 21
-10.23999180256723
 31
0.0
  0
LINE
  5
1EB
330
1F
100
AcDbEntity
  8
0
100
AcDbLine
 10
-97.56917134684603
 20
-37.21278185087981
 30
0.0
 11
-97.19637917053363
 21
-37.49883534867177
 31
0.0
  0
LINE
  5
1EC
330
1F
100
AcDbEntity
  8
0
100
AcDbLine
 10
-98.09637909853362
 20
-35.93998974656737
 30
0.0
 11
-98.03504559076066
 21
-36.405863990482
 31
0.0
  0
LINE
  5
1ED
330
1F
100
AcDbEntity
  8
0
100
AcDbLine
 10
-97.56917134684603
 20
-34.66719764225493
 30
0.0
 11
-97.85522484463786
 21
-35.03998981856734
 31
0.0
  0
LINE
  5
1EE
330
1F
100
AcDbEntity
  8
0
100
AcDbLine
 10
-97.19637917053363
 20
-34.38114414446298
 30
0.0
 11
-97.56917134684603
 21
-34.66719764225493
 31
0.0
  0
LINE
  5
1EF
330
1F
100
AcDbEntity
  8
0
100
AcDbLine
 10
76.84287590773475
 20
8.76016148457935
 30
0.0
 11
76.91545739669304
 21
9.224416304456692
 31
0.0
  0
LINE
  5
1F0
330
1F
100
AcDbEntity
  8
0
100
AcDbLine
 10
31.31598742749586
 20
15.31794398214802
 30
0.0
 11
31.37732093526899
 21
14.8520697382334
 31
0.0
  0
LINE
  5
1F1
330
1F
100
AcDbEntity
  8
0
100
AcDbLine
 10
36.66669115495525
 20
29.7179428301493
 30
0.0
 11
37.07628285445703
 21
30.70678466612169
 31
0.0
  0
LINE
  5
1F2
330
1F
100
AcDbEntity
  8
0
100
AcDbLine
 10
-49.76225724644765
 20
-74.5748518865659
 30
0.0
 11
-50.19638293053301
 21
-74.75467263268857
 31
0.0
  0
LINE
  5
1F3
330
1F
100
AcDbEntity
  8
0
100
AcDbLine
 10
-50.19638293053318
 20
-77.87236383689735
 30
0.0
 11
-49.76225724644765
 21
-78.05218458302001
 31
0.0
  0
LINE
  5
1F4
330
1F
100
AcDbEntity
  8
0
100
AcDbLine
 10
-95.83050499861866
 20
-78.05218458302001
 30
0.0
 11
-95.3963793145333
 21
-77.87236383689735
 31
0.0
  0
LINE
  5
1F5
330
1F
100
AcDbEntity
  8
0
100
AcDbLine
 10
-96.7622534864479
 20
-74.5748518865659
 30
0.0
 11
-97.19637917053326
 21
-74.75467263268857
 31
0.0
  0
LINE
  5
1F6
330
1F
100
AcDbEntity
  8
0
100
AcDbLine
 10
-48.39638307453286
 20
-74.75467263268857
 30
0.0
 11
-48.8305087586184
 21
-74.5748518865659
 31
0.0
  0
LINE
  5
1F7
330
1F
100
AcDbEntity
  8
0
100
AcDbLine
 10
-51.03504935076004
 20
-75.84764399087834
 30
0.0
 11
-51.09638285853298
 21
-76.31351823479295
 31
0.0
  0
LINE
  5
1F8
330
1F
100
AcDbEntity
  8
0
100
AcDbLine
 10
-82.29638036253331
 20
-57.21351976279285
 30
0.0
 11
-82.29638036253331
 21
-51.61352021079282
 31
0.0
  0
LINE
  5
1F9
330
1F
100
AcDbEntity
  8
0
100
AcDbLine
 10
37.21598695549546
 20
31.76794266614935
 30
0.0
 11
37.07628285445703
 21
32.82910066617701
 31
0.0
  0
LINE
  5
1FA
330
1F
100
AcDbEntity
  8
0
100
AcDbLine
 10
75.31598390749625
 20
-1.382054681850542
 30
0.0
 11
75.31598390749625
 21
5.217944790149489
 31
0.0
  0
LINE
  5
1FB
330
1F
100
AcDbEntity
  8
0
100
AcDbLine
 10
75.31598390749625
 20
5.217944790149489
 30
0.0
 11
68.315984467496
 21
5.217944790149489
 31
0.0
  0
LINE
  5
1FC
330
1F
100
AcDbEntity
  8
0
100
AcDbLine
 10
68.315984467496
 20
5.217944790149489
 30
0.0
 11
68.315984467496
 21
-1.382054681850542
 31
0.0
  0
LINE
  5
1FD
330
1F
100
AcDbEntity
  8
0
100
AcDbLine
 10
68.315984467496
 20
-1.382054681850542
 30
0.0
 11
75.31598390749625
 21
-1.382054681850542
 31
0.0
  0
LINE
  5
1FE
330
1F
100
AcDbEntity
  8
0
100
AcDbLine
 10
33.11598728349636
 20
5.217944790149173
 30
0.0
 11
33.11598728349636
 21
-1.582054665850859
 31
0.0
  0
LINE
  5
1FF
330
1F
100
AcDbEntity
  8
0
100
AcDbLine
 10
48.42826148250876
 20
-1.582054665850859
 30
0.0
 11
48.42826148250876
 21
5.217944790149173
 31
0.0
  0
LINE
  5
200
330
1F
100
AcDbEntity
  8
0
100
AcDbLine
 10
48.42826148250876
 20
5.217944790149173
 30
0.0
 11
33.11598728349636
 21
5.217944790149173
 31
0.0
  0
LINE
  5
201
330
1F
100
AcDbEntity
  8
0
100
AcDbLine
 10
33.11598728349582
 20
58.3179405421493
 30
0.0
 11
33.11598728349582
 21
65.11793999814934
 31
0.0
  0
LINE
  5
202
330
1F
100
AcDbEntity
  8
0
100
AcDbLine
 10
48.42826148250804
 20
58.3179405421493
 30
0.0
 11
33.11598728349582
 21
58.3179405421493
 31
0.0
  0
LINE
  5
203
330
1F
100
AcDbEntity
  8
0
100
AcDbLine
 10
-63.26230771154829
 20
-51.3547011863958
 30
0.0
 11
-63.16240729703559
 21
-51.1135202507928
 31
0.0
  0
LINE
  5
204
330
1F
100
AcDbEntity
  8
0
100
AcDbLine
 10
-63.16240729703559
 20
-51.1135202507928
 30
0.0
 11
-63.00348868715127
 21
-50.90641348617481
 31
0.0
  0
LINE
  5
205
330
1F
100
AcDbEntity
  8
0
100
AcDbLine
 10
-77.92528624312395
 20
-47.00591468758247
 30
0.0
 11
-77.6841053075209
 21
-46.90601427306985
 31
0.0
  0
LINE
  5
206
330
1F
100
AcDbEntity
  8
0
100
AcDbLine
 10
-77.6841053075209
 20
-46.90601427306985
 30
0.0
 11
-77.4769985429029
 21
-46.74709566318545
 31
0.0
  0
LINE
  5
207
330
1F
100
AcDbEntity
  8
0
100
AcDbLine
 10
-77.4769985429029
 20
-46.74709566318545
 30
0.0
 11
-77.3180799330186
 21
-46.53998889856747
 31
0.0
  0
LINE
  5
208
330
1F
100
AcDbEntity
  8
0
100
AcDbLine
 10
34.67483288560022
 20
14.41794405414799
 30
0.0
 11
34.85465363172302
 21
14.8520697382334
 31
0.0
  0
LINE
  5
209
330
1F
100
AcDbEntity
  8
0
100
AcDbLine
 10
34.3887793878084
 20
14.04515187783558
 30
0.0
 11
34.67483288560022
 21
14.41794405414799
 31
0.0
  0
LINE
  5
20A
330
1F
100
AcDbEntity
  8
0
100
AcDbLine
 10
34.01598721149598
 20
13.75909838004362
 30
0.0
 11
34.3887793878084
 21
14.04515187783558
 31
0.0
  0
LINE
  5
20B
330
1F
100
AcDbEntity
  8
0
100
AcDbLine
 10
33.58186152741062
 20
13.57927763392096
 30
0.0
 11
34.01598721149598
 21
13.75909838004362
 31
0.0
  0
LINE
  5
20C
330
1F
100
AcDbEntity
  8
0
100
AcDbLine
 10
33.11598728349582
 20
13.51794412614797
 30
0.0
 11
33.58186152741062
 21
13.57927763392096
 31
0.0
  0
LINE
  5
20D
330
1F
100
AcDbEntity
  8
0
100
AcDbLine
 10
31.84319517918343
 20
14.04515187783558
 30
0.0
 11
32.21598735549584
 21
13.75909838004362
 31
0.0
  0
LINE
  5
20E
330
1F
100
AcDbEntity
  8
0
100
AcDbLine
 10
31.55714168139142
 20
14.41794405414799
 30
0.0
 11
31.84319517918343
 21
14.04515187783558
 31
0.0
  0
LINE
  5
20F
330
1F
100
AcDbEntity
  8
0
100
AcDbLine
 10
31.37732093526899
 20
14.8520697382334
 30
0.0
 11
31.55714168139142
 21
14.41794405414799
 31
0.0
  0
LINE
  5
210
330
1F
100
AcDbEntity
  8
0
100
AcDbLine
 10
34.38877938780786
 20
46.94514924583688
 30
0.0
 11
34.67483288559986
 21
47.3179414221493
 31
0.0
  0
LINE
  5
211
330
1F
100
AcDbEntity
  8
0
100
AcDbLine
 10
34.01598721149544
 20
46.65909574804497
 30
0.0
 11
34.38877938780786
 21
46.94514924583688
 31
0.0
  0
LINE
  5
212
330
1F
100
AcDbEntity
  8
0
100
AcDbLine
 10
33.58186152741008
 20
46.47927500192235
 30
0.0
 11
34.01598721149544
 21
46.65909574804497
 31
0.0
  0
LINE
  5
213
330
1F
100
AcDbEntity
  8
0
100
AcDbLine
 10
33.11598728349546
 20
46.41794149414931
 30
0.0
 11
33.58186152741008
 21
46.47927500192235
 31
0.0
  0
LINE
  5
214
330
1F
100
AcDbEntity
  8
0
100
AcDbLine
 10
-63.29638188253318
 20
-57.21351976279285
 30
0.0
 11
-82.29638036253331
 21
-57.21351976279285
 31
0.0
  0
LINE
  5
215
330
1F
100
AcDbEntity
  8
0
100
AcDbLine
 10
-91.2963796425335
 20
-50.61352029079281
 30
0.0
 11
-83.29638028253328
 21
-50.61352029079281
 31
0.0
  0
LINE
  5
216
330
1F
100
AcDbEntity
  8
0
100
AcDbLine
 10
-91.2963796425335
 20
-50.61352029079281
 30
0.0
 11
-91.55519866693051
 21
-50.64759446177779
 31
0.0
  0
LINE
  5
217
330
1F
100
AcDbEntity
  8
0
100
AcDbLine
 10
-91.55519866693051
 20
-50.64759446177779
 30
0.0
 11
-91.79637960253355
 21
-50.74749487629041
 31
0.0
  0
LINE
  5
218
330
1F
100
AcDbEntity
  8
0
100
AcDbLine
 10
-91.79637960253355
 20
-50.74749487629041
 30
0.0
 11
-92.00348636715155
 21
-50.90641348617481
 31
0.0
  0
LINE
  5
219
330
1F
100
AcDbEntity
  8
0
100
AcDbLine
 10
-92.00348636715155
 20
-50.90641348617481
 30
0.0
 11
-92.16240497703585
 21
-51.1135202507928
 31
0.0
  0
LINE
  5
21A
330
1F
100
AcDbEntity
  8
0
100
AcDbLine
 10
-92.16240497703585
 20
-51.1135202507928
 30
0.0
 11
-92.26230539154857
 21
-51.3547011863958
 31
0.0
  0
LINE
  5
21B
330
1F
100
AcDbEntity
  8
0
100
AcDbLine
 10
-92.26230539154857
 20
-51.3547011863958
 30
0.0
 11
-92.29637956253345
 21
-51.61352021079282
 31
0.0
  0
LINE
  5
21C
330
1F
100
AcDbEntity
  8
0
100
AcDbLine
 10
-92.29637956253345
 20
-51.61352021079282
 30
0.0
 11
-92.29637956253345
 21
-57.21351976279285
 31
0.0
  0
LINE
  5
21D
330
1F
100
AcDbEntity
  8
0
100
AcDbLine
 10
-92.09637957853313
 20
-80.81351787479295
 30
0.0
 11
-100.2963789225333
 21
-80.81351787479295
 31
0.0
  0
LINE
  5
21E
330
1F
100
AcDbEntity
  8
0
100
AcDbLine
 10
66.94319237118378
 20
16.54073609046584
 30
0.0
 11
66.65713887339197
 21
16.16794391415347
 31
0.0
  0
LINE
  5
21F
330
1F
100
AcDbEntity
  8
0
100
AcDbLine
 10
66.65713887339197
 20
16.16794391415347
 30
0.0
 11
66.47731812726917
 21
15.73381823006807
 31
0.0
  0
LINE
  5
220
330
1F
100
AcDbEntity
  8
0
100
AcDbLine
 10
66.47731812726917
 20
15.73381823006807
 30
0.0
 11
66.41598461949623
 21
15.26794398615349
 31
0.0
  0
LINE
  5
221
330
1F
100
AcDbEntity
  8
0
100
AcDbLine
 10
66.41598461949623
 20
15.26794398615349
 30
0.0
 11
66.47731812726917
 21
14.80206974223891
 31
0.0
  0
LINE
  5
222
330
1F
100
AcDbEntity
  8
0
100
AcDbLine
 10
66.47731812726917
 20
14.80206974223891
 30
0.0
 11
66.6571388733918
 21
14.36794405815351
 31
0.0
  0
LINE
  5
223
330
1F
100
AcDbEntity
  8
0
100
AcDbLine
 10
66.6571388733918
 20
14.36794405815351
 30
0.0
 11
66.94319237118378
 21
13.9951518818411
 31
0.0
  0
LINE
  5
224
330
1F
100
AcDbEntity
  8
0
100
AcDbLine
 10
-80.27891693505332
 20
-76.31351823479295
 30
0.0
 11
-82.47891675905318
 21
-72.50300676298231
 31
0.0
  0
LINE
  5
225
330
1F
100
AcDbEntity
  8
0
100
AcDbLine
 10
-94.19118598613663
 20
-71.8174518339997
 30
0.0
 11
-89.19118793317412
 21
-71.81351859479291
 31
0.0
  0
LINE
  5
226
330
1F
100
AcDbEntity
  8
0
100
AcDbLine
 10
-94.19637786188969
 20
-65.21745440408905
 30
0.0
 11
-94.19118598613663
 21
-71.8174518339997
 31
0.0
  0
LINE
  5
227
330
1F
100
AcDbEntity
  8
0
100
AcDbLine
 10
-94.55771289430628
 20
-75.84764399087834
 30
0.0
 11
-94.7375336404289
 21
-75.41351830679294
 31
0.0
  0
LINE
  5
228
330
1F
100
AcDbEntity
  8
0
100
AcDbLine
 10
-94.7375336404289
 20
-77.21351816279298
 30
0.0
 11
-94.55771289430628
 21
-76.77939247870758
 31
0.0
  0
LINE
  5
229
330
1F
100
AcDbEntity
  8
0
100
AcDbLine
 10
-95.02358713822072
 20
-77.5863103391054
 30
0.0
 11
-94.7375336404289
 21
-77.21351816279298
 31
0.0
  0
LINE
  5
22A
330
1F
100
AcDbEntity
  8
0
100
AcDbLine
 10
-96.29637924253329
 20
-78.11351809079301
 30
0.0
 11
-95.83050499861866
 21
-78.05218458302001
 31
0.0
  0
LINE
  5
22B
330
1F
100
AcDbEntity
  8
0
100
AcDbLine
 10
-97.19637917053326
 20
-77.87236383689735
 30
0.0
 11
-96.7622534864479
 21
-78.05218458302001
 31
0.0
  0
LINE
  5
22C
330
1F
100
AcDbEntity
  8
0
100
AcDbLine
 10
-97.56917134684586
 20
-77.5863103391054
 30
0.0
 11
-97.19637917053326
 21
-77.87236383689735
 31
0.0
  0
LINE
  5
22D
330
1F
100
AcDbEntity
  8
0
100
AcDbLine
 10
-92.09637957853313
 20
-80.81351787479295
 30
0.0
 11
-92.09637957853313
 21
-86.41351742679304
 31
0.0
  0
LINE
  5
22E
330
1F
100
AcDbEntity
  8
0
100
AcDbLine
 10
-95.3963793145333
 20
-74.75467263268857
 30
0.0
 11
-95.83050499861866
 21
-74.5748518865659
 31
0.0
  0
LINE
  5
22F
330
1F
100
AcDbEntity
  8
0
100
AcDbLine
 10
-92.09637957853313
 20
-86.41351742679304
 30
0.0
 11
-92.06230540754824
 21
-86.67233645119003
 31
0.0
  0
LINE
  5
230
330
1F
100
AcDbEntity
  8
0
100
AcDbLine
 10
-92.06230540754824
 20
-86.67233645119003
 30
0.0
 11
-91.96240499303553
 21
-86.91351738679305
 31
0.0
  0
LINE
  5
231
330
1F
100
AcDbEntity
  8
0
100
AcDbLine
 10
-91.96240499303553
 20
-86.91351738679305
 30
0.0
 11
-91.80348638315122
 21
-87.12062415141104
 31
0.0
  0
LINE
  5
232
330
1F
100
AcDbEntity
  8
0
100
AcDbLine
 10
-91.80348638315122
 20
-87.12062415141104
 30
0.0
 11
-91.59637961853325
 21
-87.27954276129543
 31
0.0
  0
LINE
  5
233
330
1F
100
AcDbEntity
  8
0
100
AcDbLine
 10
-91.59637961853325
 20
-87.27954276129543
 30
0.0
 11
-91.35519868293018
 21
-87.37944317580805
 31
0.0
  0
LINE
  5
234
330
1F
100
AcDbEntity
  8
0
100
AcDbLine
 10
-91.35519868293018
 20
-87.37944317580805
 30
0.0
 11
-91.09637965853317
 21
-87.41351734679303
 31
0.0
  0
LINE
  5
235
330
1F
100
AcDbEntity
  8
0
100
AcDbLine
 10
48.42826148250804
 20
65.11793999814934
 30
0.0
 11
48.42826148250804
 21
58.3179405421493
 31
0.0
  0
LINE
  5
236
330
1F
100
AcDbEntity
  8
0
100
AcDbLine
 10
75.31598390749625
 20
65.1179399981497
 30
0.0
 11
75.31598390749625
 21
58.31794054214966
 31
0.0
  0
LINE
  5
237
330
1F
100
AcDbEntity
  8
0
100
AcDbLine
 10
73.57935826311771
 20
10.20537769655409
 30
0.0
 11
73.38909193925745
 21
9.775727447719733
 31
0.0
  0
LINE
  5
238
330
1F
100
AcDbEntity
  8
0
100
AcDbLine
 10
73.38909193925745
 20
9.775727447719733
 30
0.0
 11
73.31651045029918
 21
9.31147262784239
 31
0.0
  0
LINE
  5
239
330
1F
100
AcDbEntity
  8
0
100
AcDbLine
 10
73.31651045029918
 20
9.31147262784239
 30
0.0
 11
73.36656010476865
 21
8.844251435679377
 31
0.0
  0
LINE
  5
23A
330
1F
100
AcDbEntity
  8
0
100
AcDbLine
 10
73.36656010476865
 20
8.844251435679377
 30
0.0
 11
73.53583010142472
 21
8.405904223357055
 31
0.0
  0
LINE
  5
23B
330
1F
100
AcDbEntity
  8
0
100
AcDbLine
 10
73.53583010142472
 20
8.405904223357055
 30
0.0
 11
73.8127849697275
 21
8.026303628992189
 31
0.0
  0
LINE
  5
23C
330
1F
100
AcDbEntity
  8
0
100
AcDbLine
 10
73.8127849697275
 20
8.026303628992189
 30
0.0
 11
74.17855069309161
 21
7.731318805771139
 31
0.0
  0
LINE
  5
23D
330
1F
100
AcDbEntity
  8
0
100
AcDbLine
 10
74.17855069309161
 20
7.731318805771139
 30
0.0
 11
74.60820094192592
 21
7.541052481910852
 31
0.0
  0
LINE
  5
23E
330
1F
100
AcDbEntity
  8
0
100
AcDbLine
 10
74.60820094192592
 20
7.541052481910852
 30
0.0
 11
75.07245576180331
 21
7.468470992952511
 31
0.0
  0
LINE
  5
23F
330
1F
100
AcDbEntity
  8
0
100
AcDbLine
 10
75.07245576180331
 20
7.468470992952511
 30
0.0
 11
75.53967695396632
 21
7.518520647422041
 31
0.0
  0
LINE
  5
240
330
1F
100
AcDbEntity
  8
0
100
AcDbLine
 10
75.53967695396632
 20
7.518520647422041
 30
0.0
 11
75.97802416628855
 21
7.687790644078289
 31
0.0
  0
LINE
  5
241
330
1F
100
AcDbEntity
  8
0
100
AcDbLine
 10
75.97802416628855
 20
7.687790644078289
 30
0.0
 11
76.35762476065337
 21
7.964745512381018
 31
0.0
  0
LINE
  5
242
330
1F
100
AcDbEntity
  8
0
100
AcDbLine
 10
76.35762476065337
 20
7.964745512381018
 30
0.0
 11
76.65260958387451
 21
8.330511235744998
 31
0.0
  0
LINE
  5
243
330
1F
100
AcDbEntity
  8
0
100
AcDbLine
 10
76.65260958387451
 20
8.330511235744998
 30
0.0
 11
76.84287590773475
 21
8.76016148457935
 31
0.0
  0
LINE
  5
244
330
1F
100
AcDbEntity
  8
0
100
AcDbLine
 10
-53.43035726803063
 20
-51.1135202507928
 30
0.0
 11
-53.58927587791495
 21
-50.90641348617481
 31
0.0
  0
LINE
  5
245
330
1F
100
AcDbEntity
  8
0
100
AcDbLine
 10
-53.58927587791495
 20
-50.90641348617481
 30
0.0
 11
-53.79638264253293
 21
-50.74749487629041
 31
0.0
  0
LINE
  5
246
330
1F
100
AcDbEntity
  8
0
100
AcDbLine
 10
-56.89638239453387
 20
-86.41351742679304
 30
0.0
 11
-56.89638239453387
 21
-80.81351787479299
 31
0.0
  0
LINE
  5
247
330
1F
100
AcDbEntity
  8
0
100
AcDbLine
 10
-56.89638239453387
 20
-86.41351742679304
 30
0.0
 11
-56.86230822354897
 21
-86.67233645119003
 31
0.0
  0
LINE
  5
248
330
1F
100
AcDbEntity
  8
0
100
AcDbLine
 10
-56.86230822354897
 20
-86.67233645119003
 30
0.0
 11
-56.76240780903627
 21
-86.91351738679305
 31
0.0
  0
LINE
  5
249
330
1F
100
AcDbEntity
  8
0
100
AcDbLine
 10
-56.76240780903627
 20
-86.91351738679305
 30
0.0
 11
-56.60348919915197
 21
-87.12062415141104
 31
0.0
  0
LINE
  5
24A
330
1F
100
AcDbEntity
  8
0
100
AcDbLine
 10
-56.60348919915197
 20
-87.12062415141104
 30
0.0
 11
-56.39638243453398
 21
-87.27954276129543
 31
0.0
  0
LINE
  5
24B
330
1F
100
AcDbEntity
  8
0
100
AcDbLine
 10
-56.39638243453398
 20
-87.27954276129543
 30
0.0
 11
-56.15520149893092
 21
-87.37944317580805
 31
0.0
  0
LINE
  5
24C
330
1F
100
AcDbEntity
  8
0
100
AcDbLine
 10
-56.15520149893092
 20
-87.37944317580805
 30
0.0
 11
-55.89638247453391
 21
-87.41351734679303
 31
0.0
  0
LINE
  5
24D
330
1F
100
AcDbEntity
  8
0
100
AcDbLine
 10
-54.03756357813671
 20
-10.27406597355221
 30
0.0
 11
-54.29638260253373
 21
-10.23999180256723
 31
0.0
  0
LINE
  5
24E
330
1F
100
AcDbEntity
  8
0
100
AcDbLine
 10
-82.4789167590539
 20
-32.12947827475673
 30
0.0
 11
-86.87891640705384
 21
-32.12947827475673
 31
0.0
  0
LINE
  5
24F
330
1F
100
AcDbEntity
  8
0
100
AcDbLine
 10
-86.87891640705384
 20
-32.12947827475673
 30
0.0
 11
-89.07891623105407
 21
-35.93998974656737
 31
0.0
  0
LINE
  5
250
330
1F
100
AcDbEntity
  8
0
100
AcDbLine
 10
-49.76225724644782
 20
-37.67865609479443
 30
0.0
 11
-49.2963830025332
 21
-37.73998960256742
 31
0.0
  0
LINE
  5
251
330
1F
100
AcDbEntity
  8
0
100
AcDbLine
 10
-95.39637931453366
 20
-37.49883534867177
 30
0.0
 11
-95.02358713822107
 21
-37.21278185087981
 31
0.0
  0
LINE
  5
252
330
1F
100
AcDbEntity
  8
0
100
AcDbLine
 10
-95.02358713822107
 20
-37.21278185087981
 30
0.0
 11
-94.73753364042908
 21
-36.8399896745674
 31
0.0
  0
LINE
  5
253
330
1F
100
AcDbEntity
  8
0
100
AcDbLine
 10
-50.8552286046376
 20
-36.8399896745674
 30
0.0
 11
-50.56917510684578
 21
-37.21278185087981
 31
0.0
  0
LINE
  5
254
330
1F
100
AcDbEntity
  8
0
100
AcDbLine
 10
-50.8552286046376
 20
-35.03998981856734
 30
0.0
 11
-51.03504935076023
 21
-35.47411550265275
 31
0.0
  0
LINE
  5
255
330
1F
100
AcDbEntity
  8
0
100
AcDbLine
 10
-50.56917510684578
 20
-34.66719764225493
 30
0.0
 11
-50.8552286046376
 21
-35.03998981856734
 31
0.0
  0
LINE
  5
256
330
1F
100
AcDbEntity
  8
0
100
AcDbLine
 10
-49.2963830025332
 20
-34.13998989056732
 30
0.0
 11
-49.76225724644782
 21
-34.20132339834031
 31
0.0
  0
LINE
  5
257
330
1F
100
AcDbEntity
  8
0
100
AcDbLine
 10
-94.73753364042908
 20
-36.8399896745674
 30
0.0
 11
-94.55771289430663
 21
-36.405863990482
 31
0.0
  0
LINE
  5
258
330
1F
100
AcDbEntity
  8
0
100
AcDbLine
 10
-94.55771289430663
 20
-36.405863990482
 30
0.0
 11
-94.4963793865335
 21
-35.93998974656737
 31
0.0
  0
LINE
  5
259
330
1F
100
AcDbEntity
  8
0
100
AcDbLine
 10
-47.55771665430619
 20
-35.47411550265275
 30
0.0
 11
-47.73753740042881
 21
-35.03998981856734
 31
0.0
  0
LINE
  5
25A
330
1F
100
AcDbEntity
  8
0
100
AcDbLine
 10
74.6922908930259
 20
11.01736828487704
 30
0.0
 11
74.25394368070367
 21
10.8480982882208
 31
0.0
  0
LINE
  5
25B
330
1F
100
AcDbEntity
  8
0
100
AcDbLine
 10
76.05341715390061
 20
10.80457012652795
 30
0.0
 11
75.62376690506629
 21
10.99483645038823
 31
0.0
  0
LINE
  5
25C
330
1F
100
AcDbEntity
  8
0
100
AcDbLine
 10
76.6961377455675
 20
10.12998470894203
 30
0.0
 11
76.41918287726472
 21
10.50958530330689
 31
0.0
  0
LINE
  5
25D
330
1F
100
AcDbEntity
  8
0
100
AcDbLine
 10
76.86540774222355
 20
9.691637496619705
 30
0.0
 11
76.6961377455675
 21
10.12998470894203
 31
0.0
  0
LINE
  5
25E
330
1F
100
AcDbEntity
  8
0
100
AcDbLine
 10
76.91545739669304
 20
9.224416304456692
 30
0.0
 11
76.86540774222355
 21
9.691637496619705
 31
0.0
  0
LINE
  5
25F
330
1F
100
AcDbEntity
  8
0
100
AcDbLine
 10
-50.85522860463742
 20
-75.41351830679294
 30
0.0
 11
-51.03504935076004
 21
-75.84764399087834
 31
0.0
  0
LINE
  5
260
330
1F
100
AcDbEntity
  8
0
100
AcDbLine
 10
-53.79638264253293
 20
-50.74749487629041
 30
0.0
 11
-54.03756357813598
 21
-50.64759446177779
 31
0.0
  0
LINE
  5
261
330
1F
100
AcDbEntity
  8
0
100
AcDbLine
 10
-63.29638188253318
 20
-51.61352021079282
 30
0.0
 11
-63.29638188253318
 21
-57.21351976279285
 31
0.0
  0
LINE
  5
262
330
1F
100
AcDbEntity
  8
0
100
AcDbLine
 10
-54.03756357813598
 20
-50.64759446177779
 30
0.0
 11
-54.296382602533
 21
-50.61352029079281
 31
0.0
  0
LINE
  5
263
330
1F
100
AcDbEntity
  8
0
100
AcDbLine
 10
-63.29638188253318
 20
-51.61352021079282
 30
0.0
 11
-63.26230771154829
 21
-51.3547011863958
 31
0.0
  0
LINE
  5
264
330
1F
100
AcDbEntity
  8
0
100
AcDbLine
 10
74.25148800958506
 20
55.84675253839908
 30
0.0
 11
73.87231846411976
 21
55.56920782828847
 31
0.0
  0
LINE
  5
265
330
1F
100
AcDbEntity
  8
0
100
AcDbLine
 10
73.87231846411976
 20
55.56920782828847
 30
0.0
 11
73.57790266445653
 21
55.20298392515349
 31
0.0
  0
LINE
  5
266
330
1F
100
AcDbEntity
  8
0
100
AcDbLine
 10
73.57790266445653
 20
55.20298392515349
 30
0.0
 11
73.38830456079751
 21
54.77303838277914
 31
0.0
  0
LINE
  5
267
330
1F
100
AcDbEntity
  8
0
100
AcDbLine
 10
73.38830456079751
 20
54.77303838277914
 30
0.0
 11
73.31644495058106
 21
54.30867127935951
 31
0.0
  0
LINE
  5
268
330
1F
100
AcDbEntity
  8
0
100
AcDbLine
 10
66.94319237118361
 20
49.54073345046491
 30
0.0
 11
66.6571388733918
 21
49.1679412741525
 31
0.0
  0
LINE
  5
269
330
1F
100
AcDbEntity
  8
0
100
AcDbLine
 10
66.6571388733918
 20
49.1679412741525
 30
0.0
 11
66.47731812726899
 21
48.73381559006714
 31
0.0
  0
LINE
  5
26A
330
1F
100
AcDbEntity
  8
0
100
AcDbLine
 10
25.11598792349578
 20
-6.310619126792747
 30
0.0
 11
25.11598792349578
 21
24.27885717089897
 31
0.0
  0
LINE
  5
26B
330
1F
100
AcDbEntity
  8
0
100
AcDbLine
 10
80.11598352349627
 20
-6.310619126792747
 30
0.0
 11
25.11598792349578
 21
-6.310619126792747
 31
0.0
  0
LINE
  5
26C
330
1F
100
AcDbEntity
  8
0
100
AcDbLine
 10
80.11598352349627
 20
71.71793947014841
 30
0.0
 11
80.11598352349627
 21
-6.310619126792747
 31
0.0
  0
LINE
  5
26D
330
1F
100
AcDbEntity
  8
0
100
AcDbLine
 10
25.11598792349578
 20
71.71793947014841
 30
0.0
 11
80.11598352349627
 21
71.71793947014841
 31
0.0
  0
LINE
  5
26E
330
1F
100
AcDbEntity
  8
0
100
AcDbLine
 10
25.11598792349578
 20
39.25702816139936
 30
0.0
 11
25.11598792349578
 21
71.71793947014841
 31
0.0
  0
LINE
  5
26F
330
1F
100
AcDbEntity
  8
0
100
AcDbLine
 10
22.11598816349537
 20
36.25702840139935
 30
0.0
 11
25.11598792349578
 21
39.25702816139936
 31
0.0
  0
LINE
  5
270
330
1F
100
AcDbEntity
  8
0
100
AcDbLine
 10
22.11598816349537
 20
36.25702840139935
 30
0.0
 11
22.11598816349537
 21
27.27885693089904
 31
0.0
  0
LINE
  5
271
330
1F
100
AcDbEntity
  8
0
100
AcDbLine
 10
22.11598816349537
 20
27.27885693089904
 30
0.0
 11
25.11598792349578
 21
24.27885717089897
 31
0.0
  0
LINE
  5
272
330
1F
100
AcDbEntity
  8
0
100
AcDbLine
 10
63.23344596491933
 20
6.76795481729051
 30
0.0
 11
52.23345184103315
 21
6.76795481729078
 31
0.0
  0
LINE
  5
273
330
1F
100
AcDbEntity
  8
0
100
AcDbLine
 10
52.23345184103315
 20
6.76795481729078
 30
0.0
 11
52.23345184103279
 21
56.7679305150082
 31
0.0
  0
LINE
  5
274
330
1F
100
AcDbEntity
  8
0
100
AcDbLine
 10
52.23345184103279
 20
56.7679305150082
 30
0.0
 11
63.23344596491879
 21
56.7679305150082
 31
0.0
  0
LINE
  5
275
330
1F
100
AcDbEntity
  8
0
100
AcDbLine
 10
63.23344596491879
 20
56.7679305150082
 30
0.0
 11
63.23344596491933
 21
6.76795481729051
 31
0.0
  0
LINE
  5
276
330
1F
100
AcDbEntity
  8
0
100
AcDbLine
 10
37.07628285445703
 20
32.82910066617701
 30
0.0
 11
36.66669115495525
 21
33.81794250214925
 31
0.0
  0
LINE
  5
277
330
1F
100
AcDbEntity
  8
0
100
AcDbLine
 10
36.01512485442937
 20
28.86880509521549
 30
0.0
 11
36.66669115495525
 21
29.7179428301493
 31
0.0
  0
LINE
  5
278
330
1F
100
AcDbEntity
  8
0
100
AcDbLine
 10
35.16598711949537
 20
28.21723879468942
 30
0.0
 11
36.01512485442937
 21
28.86880509521549
 31
0.0
  0
LINE
  5
279
330
1F
100
AcDbEntity
  8
0
100
AcDbLine
 10
33.11598728349546
 20
27.66794299414931
 30
0.0
 11
34.17714528352312
 21
27.80764709518783
 31
0.0
  0
LINE
  5
27A
330
1F
100
AcDbEntity
  8
0
100
AcDbLine
 10
31.06598744749556
 20
28.21723879468942
 30
0.0
 11
32.0548292834678
 21
27.80764709518783
 31
0.0
  0
LINE
  5
27B
330
1F
100
AcDbEntity
  8
0
100
AcDbLine
 10
29.56528341203567
 20
29.7179428301493
 30
0.0
 11
30.21684971256156
 21
28.86880509521549
 31
0.0
  0
LINE
  5
27C
330
1F
100
AcDbEntity
  8
0
100
AcDbLine
 10
29.01598761149546
 20
31.76794266614935
 30
0.0
 11
29.1556917125339
 21
30.70678466612169
 31
0.0
  0
LINE
  5
27D
330
1F
100
AcDbEntity
  8
0
100
AcDbLine
 10
29.1556917125339
 20
32.82910066617701
 30
0.0
 11
29.01598761149546
 21
31.76794266614935
 31
0.0
  0
LINE
  5
27E
330
1F
100
AcDbEntity
  8
0
100
AcDbLine
 10
29.56528341203567
 20
33.81794250214925
 30
0.0
 11
29.1556917125339
 21
32.82910066617701
 31
0.0
  0
LINE
  5
27F
330
1F
100
AcDbEntity
  8
0
100
AcDbLine
 10
30.21684971256156
 20
34.66708023708307
 30
0.0
 11
29.56528341203567
 21
33.81794250214925
 31
0.0
  0
LINE
  5
280
330
1F
100
AcDbEntity
  8
0
100
AcDbLine
 10
31.06598744749556
 20
35.31864653760909
 30
0.0
 11
30.21684971256156
 21
34.66708023708307
 31
0.0
  0
LINE
  5
281
330
1F
100
AcDbEntity
  8
0
100
AcDbLine
 10
32.0548292834678
 20
35.72823823711069
 30
0.0
 11
31.06598744749556
 21
35.31864653760909
 31
0.0
  0
LINE
  5
282
330
1F
100
AcDbEntity
  8
0
100
AcDbLine
 10
33.11598728349546
 20
35.8679423381493
 30
0.0
 11
32.0548292834678
 21
35.72823823711069
 31
0.0
  0
LINE
  5
283
330
1F
100
AcDbEntity
  8
0
100
AcDbLine
 10
34.17714528352312
 20
35.72823823711069
 30
0.0
 11
33.11598728349546
 21
35.8679423381493
 31
0.0
  0
LINE
  5
284
330
1F
100
AcDbEntity
  8
0
100
AcDbLine
 10
35.16598711949537
 20
35.31864653760909
 30
0.0
 11
34.17714528352312
 21
35.72823823711069
 31
0.0
  0
LINE
  5
285
330
1F
100
AcDbEntity
  8
0
100
AcDbLine
 10
36.01512485442937
 20
34.66708023708307
 30
0.0
 11
35.16598711949537
 21
35.31864653760909
 31
0.0
  0
LINE
  5
286
330
1F
100
AcDbEntity
  8
0
100
AcDbLine
 10
36.66669115495525
 20
33.81794250214925
 30
0.0
 11
36.01512485442937
 21
34.66708023708307
 31
0.0
  0
LINE
  5
287
330
1F
100
AcDbEntity
  8
0
100
AcDbLine
 10
33.11598728349636
 20
-1.582054665850859
 30
0.0
 11
48.42826148250876
 21
-1.582054665850859
 31
0.0
  0
LINE
  5
288
330
1F
100
AcDbEntity
  8
0
100
AcDbLine
 10
33.11598728349582
 20
65.11793999814934
 30
0.0
 11
48.42826148250804
 21
65.11793999814934
 31
0.0
  0
LINE
  5
289
330
1F
100
AcDbEntity
  8
0
100
AcDbLine
 10
75.31598390749625
 20
58.31794054214966
 30
0.0
 11
68.315984467496
 21
58.31794054214966
 31
0.0
  0
LINE
  5
28A
330
1F
100
AcDbEntity
  8
0
100
AcDbLine
 10
68.315984467496
 20
58.31794054214966
 30
0.0
 11
68.315984467496
 21
65.1179399981497
 31
0.0
  0
LINE
  5
28B
330
1F
100
AcDbEntity
  8
0
100
AcDbLine
 10
68.315984467496
 20
65.1179399981497
 30
0.0
 11
75.31598390749625
 21
65.1179399981497
 31
0.0
  0
LINE
  5
28C
330
1F
100
AcDbEntity
  8
0
100
AcDbLine
 10
73.87434308633884
 20
10.57114341991807
 30
0.0
 11
73.57935826311771
 21
10.20537769655409
 31
0.0
  0
LINE
  5
28D
330
1F
100
AcDbEntity
  8
0
100
AcDbLine
 10
74.25394368070367
 20
10.8480982882208
 30
0.0
 11
73.87434308633884
 21
10.57114341991807
 31
0.0
  0
LINE
  5
28E
330
1F
100
AcDbEntity
  8
0
100
AcDbLine
 10
75.15951208518891
 20
11.06741793934657
 30
0.0
 11
74.6922908930259
 21
11.01736828487704
 31
0.0
  0
LINE
  5
28F
330
1F
100
AcDbEntity
  8
0
100
AcDbLine
 10
75.62376690506629
 20
10.99483645038823
 30
0.0
 11
75.15951208518891
 21
11.06741793934657
 31
0.0
  0
LINE
  5
290
330
1F
100
AcDbEntity
  8
0
100
AcDbLine
 10
76.41918287726472
 20
10.50958530330689
 30
0.0
 11
76.05341715390061
 21
10.80457012652795
 31
0.0
  0
LINE
  5
291
330
1F
100
AcDbEntity
  8
0
100
AcDbLine
 10
31.37732093526899
 20
15.78381822606264
 30
0.0
 11
31.31598742749586
 21
15.31794398214802
 31
0.0
  0
LINE
  5
292
330
1F
100
AcDbEntity
  8
0
100
AcDbLine
 10
31.55714168139142
 20
16.21794391014805
 30
0.0
 11
31.37732093526899
 21
15.78381822606264
 31
0.0
  0
LINE
  5
293
330
1F
100
AcDbEntity
  8
0
100
AcDbLine
 10
31.84319517918343
 20
16.59073608646046
 30
0.0
 11
31.55714168139142
 21
16.21794391014805
 31
0.0
  0
LINE
  5
294
330
1F
100
AcDbEntity
  8
0
100
AcDbLine
 10
32.21598735549602
 20
16.87678958425241
 30
0.0
 11
31.84319517918343
 21
16.59073608646046
 31
0.0
  0
LINE
  5
295
330
1F
100
AcDbEntity
  8
0
100
AcDbLine
 10
32.65011303958138
 20
17.05661033037508
 30
0.0
 11
32.21598735549602
 21
16.87678958425241
 31
0.0
  0
LINE
  5
296
330
1F
100
AcDbEntity
  8
0
100
AcDbLine
 10
33.11598728349582
 20
17.11794383814807
 30
0.0
 11
32.65011303958138
 21
17.05661033037508
 31
0.0
  0
LINE
  5
297
330
1F
100
AcDbEntity
  8
0
100
AcDbLine
 10
33.58186152741062
 20
17.05661033037508
 30
0.0
 11
33.11598728349582
 21
17.11794383814807
 31
0.0
  0
LINE
  5
298
330
1F
100
AcDbEntity
  8
0
100
AcDbLine
 10
34.01598721149598
 20
16.87678958425241
 30
0.0
 11
33.58186152741062
 21
17.05661033037508
 31
0.0
  0
LINE
  5
299
330
1F
100
AcDbEntity
  8
0
100
AcDbLine
 10
34.3887793878084
 20
16.59073608646046
 30
0.0
 11
34.01598721149598
 21
16.87678958425241
 31
0.0
  0
LINE
  5
29A
330
1F
100
AcDbEntity
  8
0
100
AcDbLine
 10
34.67483288560022
 20
16.21794391014805
 30
0.0
 11
34.3887793878084
 21
16.59073608646046
 31
0.0
  0
LINE
  5
29B
330
1F
100
AcDbEntity
  8
0
100
AcDbLine
 10
34.85465363172302
 20
15.78381822606264
 30
0.0
 11
34.67483288560022
 21
16.21794391014805
 31
0.0
  0
LINE
  5
29C
330
1F
100
AcDbEntity
  8
0
100
AcDbLine
 10
34.91598713949597
 20
15.31794398214802
 30
0.0
 11
34.85465363172302
 21
15.78381822606264
 31
0.0
  0
LINE
  5
29D
330
1F
100
AcDbEntity
  8
0
100
AcDbLine
 10
34.85465363172302
 20
14.8520697382334
 30
0.0
 11
34.91598713949597
 21
15.31794398214802
 31
0.0
  0
LINE
  5
29E
330
1F
100
AcDbEntity
  8
0
100
AcDbLine
 10
32.65011303958138
 20
13.57927763392096
 30
0.0
 11
33.11598728349582
 21
13.51794412614797
 31
0.0
  0
LINE
  5
29F
330
1F
100
AcDbEntity
  8
0
100
AcDbLine
 10
32.21598735549584
 20
13.75909838004362
 30
0.0
 11
32.65011303958138
 21
13.57927763392096
 31
0.0
  0
LINE
  5
2A0
330
1F
100
AcDbEntity
  8
0
100
AcDbLine
 10
34.67483288559986
 20
47.3179414221493
 30
0.0
 11
34.85465363172248
 21
47.75206710623475
 31
0.0
  0
LINE
  5
2A1
330
1F
100
AcDbEntity
  8
0
100
AcDbLine
 10
31.84319517918307
 20
46.94514924583688
 30
0.0
 11
32.2159873554953
 21
46.65909574804497
 31
0.0
  0
LINE
  5
2A2
330
1F
100
AcDbEntity
  8
0
100
AcDbLine
 10
31.55714168139107
 20
47.31794142214938
 30
0.0
 11
31.84319517918307
 21
46.94514924583688
 31
0.0
  0
LINE
  5
2A3
330
1F
100
AcDbEntity
  8
0
100
AcDbLine
 10
31.37732093526844
 20
47.75206710623475
 30
0.0
 11
31.55714168139107
 21
47.31794142214938
 31
0.0
  0
LINE
  5
2A4
330
1F
100
AcDbEntity
  8
0
100
AcDbLine
 10
31.37732093526844
 20
48.68381559406399
 30
0.0
 11
31.3159874274955
 21
48.21794135014937
 31
0.0
  0
LINE
  5
2A5
330
1F
100
AcDbEntity
  8
0
100
AcDbLine
 10
32.65011303958084
 20
49.95660769837638
 30
0.0
 11
32.21598735549548
 21
49.77678695225377
 31
0.0
  0
LINE
  5
2A6
330
1F
100
AcDbEntity
  8
0
100
AcDbLine
 10
34.91598713949543
 20
48.21794135014937
 30
0.0
 11
34.85465363172248
 21
48.68381559406399
 31
0.0
  0
LINE
  5
2A7
330
1F
100
AcDbEntity
  8
0
100
AcDbLine
 10
34.85465363172248
 20
47.75206710623475
 30
0.0
 11
34.91598713949543
 21
48.21794135014937
 31
0.0
  0
LINE
  5
2A8
330
1F
100
AcDbEntity
  8
0
100
AcDbLine
 10
76.84366328619471
 20
53.76284334952017
 30
0.0
 11
76.91552289641115
 21
54.2272104529398
 31
0.0
  0
LINE
  5
2A9
330
1F
100
AcDbEntity
  8
0
100
AcDbLine
 10
76.35964938287246
 20
52.96667390401084
 30
0.0
 11
76.65406518253569
 21
53.33289780714582
 31
0.0
  0
LINE
  5
2AA
330
1F
100
AcDbEntity
  8
0
100
AcDbLine
 10
69.95465082372301
 20
48.73381559006695
 30
0.0
 11
69.77483007760041
 21
49.16794127415232
 31
0.0
  0
LINE
  5
2AB
330
1F
100
AcDbEntity
  8
0
100
AcDbLine
 10
70.01598433149597
 20
48.26794134615233
 30
0.0
 11
69.95465082372301
 21
48.73381559006695
 31
0.0
  0
LINE
  5
2AC
330
1F
100
AcDbEntity
  8
0
100
AcDbLine
 10
69.95465082372301
 20
47.80206710223771
 30
0.0
 11
70.01598433149597
 21
48.26794134615233
 31
0.0
  0
LINE
  5
2AD
330
1F
100
AcDbEntity
  8
0
100
AcDbLine
 10
69.77483007760023
 20
47.36794141815236
 30
0.0
 11
69.95465082372301
 21
47.80206710223771
 31
0.0
  0
LINE
  5
2AE
330
1F
100
AcDbEntity
  8
0
100
AcDbLine
 10
69.4887765798084
 20
46.99514924183994
 30
0.0
 11
69.77483007760023
 21
47.36794141815236
 31
0.0
  0
LINE
  5
2AF
330
1F
100
AcDbEntity
  8
0
100
AcDbLine
 10
69.115984403496
 20
46.70909574404812
 30
0.0
 11
69.4887765798084
 21
46.99514924183994
 31
0.0
  0
LINE
  5
2B0
330
1F
100
AcDbEntity
  8
0
100
AcDbLine
 10
68.68185871941046
 20
46.52927499792541
 30
0.0
 11
69.115984403496
 21
46.70909574404812
 31
0.0
  0
LINE
  5
2B1
330
1F
100
AcDbEntity
  8
0
100
AcDbLine
 10
68.21598447549583
 20
46.46794149015246
 30
0.0
 11
68.68185871941046
 21
46.52927499792541
 31
0.0
  0
LINE
  5
2B2
330
1F
100
AcDbEntity
  8
0
100
AcDbLine
 10
67.75011023158139
 20
46.5292749979255
 30
0.0
 11
68.21598447549583
 21
46.46794149015246
 31
0.0
  0
LINE
  5
2B3
330
1F
100
AcDbEntity
  8
0
100
AcDbLine
 10
67.31598454749603
 20
46.70909574404821
 30
0.0
 11
67.75011023158139
 21
46.5292749979255
 31
0.0
  0
LINE
  5
2B4
330
1F
100
AcDbEntity
  8
0
100
AcDbLine
 10
66.94319237118361
 20
46.99514924184012
 30
0.0
 11
67.31598454749603
 21
46.70909574404821
 31
0.0
  0
LINE
  5
2B5
330
1F
100
AcDbEntity
  8
0
100
AcDbLine
 10
66.65713887339162
 20
47.36794141815253
 30
0.0
 11
66.94319237118361
 21
46.99514924184012
 31
0.0
  0
LINE
  5
2B6
330
1F
100
AcDbEntity
  8
0
100
AcDbLine
 10
66.47731812726899
 20
47.80206710223789
 30
0.0
 11
66.65713887339162
 21
47.36794141815253
 31
0.0
  0
LINE
  5
2B7
330
1F
100
AcDbEntity
  8
0
100
AcDbLine
 10
66.47731812726899
 20
48.73381559006714
 30
0.0
 11
66.41598461949604
 21
48.26794134615252
 31
0.0
  0
LINE
  5
2B8
330
1F
100
AcDbEntity
  8
0
100
AcDbLine
 10
67.31598454749621
 20
16.82678958825775
 30
0.0
 11
66.94319237118378
 21
16.54073609046584
 31
0.0
  0
LINE
  5
2B9
330
1F
100
AcDbEntity
  8
0
100
AcDbLine
 10
67.75011023158157
 20
17.00661033438041
 30
0.0
 11
67.31598454749621
 21
16.82678958825775
 31
0.0
  0
LINE
  5
2BA
330
1F
100
AcDbEntity
  8
0
100
AcDbLine
 10
68.21598447549619
 20
17.06794384215341
 30
0.0
 11
67.75011023158157
 21
17.00661033438041
 31
0.0
  0
LINE
  5
2BB
330
1F
100
AcDbEntity
  8
0
100
AcDbLine
 10
68.68185871941081
 20
17.00661033438041
 30
0.0
 11
68.21598447549619
 21
17.06794384215341
 31
0.0
  0
LINE
  5
2BC
330
1F
100
AcDbEntity
  8
0
100
AcDbLine
 10
69.11598440349617
 20
16.8267895882577
 30
0.0
 11
68.68185871941081
 21
17.00661033438041
 31
0.0
  0
LINE
  5
2BD
330
1F
100
AcDbEntity
  8
0
100
AcDbLine
 10
69.48877657980859
 20
16.54073609046579
 30
0.0
 11
69.11598440349617
 21
16.8267895882577
 31
0.0
  0
LINE
  5
2BE
330
1F
100
AcDbEntity
  8
0
100
AcDbLine
 10
69.77483007760058
 20
16.16794391415338
 30
0.0
 11
69.48877657980859
 21
16.54073609046579
 31
0.0
  0
LINE
  5
2BF
330
1F
100
AcDbEntity
  8
0
100
AcDbLine
 10
69.9546508237232
 20
15.73381823006798
 30
0.0
 11
69.77483007760058
 21
16.16794391415338
 31
0.0
  0
LINE
  5
2C0
330
1F
100
AcDbEntity
  8
0
100
AcDbLine
 10
70.01598433149616
 20
15.2679439861534
 30
0.0
 11
69.9546508237232
 21
15.73381823006798
 31
0.0
  0
LINE
  5
2C1
330
1F
100
AcDbEntity
  8
0
100
AcDbLine
 10
69.9546508237232
 20
14.80206974223882
 30
0.0
 11
70.01598433149616
 21
15.2679439861534
 31
0.0
  0
LINE
  5
2C2
330
1F
100
AcDbEntity
  8
0
100
AcDbLine
 10
69.77483007760041
 20
14.36794405815342
 30
0.0
 11
69.9546508237232
 21
14.80206974223882
 31
0.0
  0
LINE
  5
2C3
330
1F
100
AcDbEntity
  8
0
100
AcDbLine
 10
69.48877657980859
 20
13.99515188184105
 30
0.0
 11
69.77483007760041
 21
14.36794405815342
 31
0.0
  0
LINE
  5
2C4
330
1F
100
AcDbEntity
  8
0
100
AcDbLine
 10
69.11598440349617
 20
13.70909838404914
 30
0.0
 11
69.48877657980859
 21
13.99515188184105
 31
0.0
  0
LINE
  5
2C5
330
1F
100
AcDbEntity
  8
0
100
AcDbLine
 10
68.68185871941081
 20
13.52927763792647
 30
0.0
 11
69.11598440349617
 21
13.70909838404914
 31
0.0
  0
LINE
  5
2C6
330
1F
100
AcDbEntity
  8
0
100
AcDbLine
 10
68.21598447549619
 20
13.46794413015348
 30
0.0
 11
68.68185871941081
 21
13.52927763792647
 31
0.0
  0
LINE
  5
2C7
330
1F
100
AcDbEntity
  8
0
100
AcDbLine
 10
67.75011023158157
 20
13.52927763792647
 30
0.0
 11
68.21598447549619
 21
13.46794413015348
 31
0.0
  0
LINE
  5
2C8
330
1F
100
AcDbEntity
  8
0
100
AcDbLine
 10
67.31598454749621
 20
13.70909838404918
 30
0.0
 11
67.75011023158157
 21
13.52927763792647
 31
0.0
  0
LINE
  5
2C9
330
1F
100
AcDbEntity
  8
0
100
AcDbLine
 10
66.94319237118378
 20
13.9951518818411
 30
0.0
 11
67.31598454749621
 21
13.70909838404918
 31
0.0
  0
LINE
  5
2CA
330
1F
100
AcDbEntity
  8
0
100
AcDbLine
 10
-98.03504559076029
 20
-76.77939247870758
 30
0.0
 11
-97.85522484463768
 21
-77.21351816279298
 31
0.0
  0
LINE
  5
2CB
330
1F
100
AcDbEntity
  8
0
100
AcDbLine
 10
-56.39638243453308
 20
-65.21351912279287
 30
0.0
 11
-56.39638243453308
 21
-71.81351859479291
 31
0.0
  0
LINE
  5
2CC
330
1F
100
AcDbEntity
  8
0
100
AcDbLine
 10
-95.83050499861866
 20
-74.5748518865659
 30
0.0
 11
-96.29637924253329
 21
-74.51351837879291
 31
0.0
  0
LINE
  5
2CD
330
1F
100
AcDbEntity
  8
0
100
AcDbLine
 10
-89.19118793317412
 20
-71.81351859479291
 30
0.0
 11
-89.1963798105334
 21
-65.21351912279287
 31
0.0
  0
LINE
  5
2CE
330
1F
100
AcDbEntity
  8
0
100
AcDbLine
 10
-50.19638293053318
 20
-37.49883534867177
 30
0.0
 11
-49.76225724644782
 21
-37.67865609479443
 31
0.0
  0
LINE
  5
2CF
330
1F
100
AcDbEntity
  8
0
100
AcDbLine
 10
-89.19637981053413
 20
-24.8399906345673
 30
0.0
 11
-94.1963778618904
 21
-24.84392591586347
 31
0.0
  0
LINE
  5
2D0
330
1F
100
AcDbEntity
  8
0
100
AcDbLine
 10
-96.29637924253329
 20
-74.51351837879291
 30
0.0
 11
-96.7622534864479
 21
-74.5748518865659
 31
0.0
  0
LINE
  5
2D1
330
1F
100
AcDbEntity
  8
0
100
AcDbLine
 10
-56.8963823945346
 20
-40.43998938656741
 30
0.0
 11
-62.17891838305261
 21
-40.43998938656737
 31
0.0
  0
LINE
  5
2D2
330
1F
100
AcDbEntity
  8
0
100
AcDbLine
 10
-56.8963823945346
 20
-46.03998893856744
 30
0.0
 11
-56.8963823945346
 21
-40.43998938656741
 31
0.0
  0
LINE
  5
2D3
330
1F
100
AcDbEntity
  8
0
100
AcDbLine
 10
-56.8963823945346
 20
-46.03998893856744
 30
0.0
 11
-56.8623082235497
 21
-46.29880796296445
 31
0.0
  0
LINE
  5
2D4
330
1F
100
AcDbEntity
  8
0
100
AcDbLine
 10
-56.8623082235497
 20
-46.29880796296445
 30
0.0
 11
-56.76240780903699
 21
-46.53998889856747
 31
0.0
  0
LINE
  5
2D5
330
1F
100
AcDbEntity
  8
0
100
AcDbLine
 10
-56.76240780903699
 20
-46.53998889856747
 30
0.0
 11
-56.60348919915269
 21
-46.74709566318545
 31
0.0
  0
LINE
  5
2D6
330
1F
100
AcDbEntity
  8
0
100
AcDbLine
 10
-56.60348919915269
 20
-46.74709566318545
 30
0.0
 11
-56.3963824345347
 21
-46.90601427306985
 31
0.0
  0
LINE
  5
2D7
330
1F
100
AcDbEntity
  8
0
100
AcDbLine
 10
-56.3963824345347
 20
-46.90601427306985
 30
0.0
 11
-56.15520149893164
 21
-47.00591468758247
 31
0.0
  0
LINE
  5
2D8
330
1F
100
AcDbEntity
  8
0
100
AcDbLine
 10
-56.15520149893164
 20
-47.00591468758247
 30
0.0
 11
-55.89638247453463
 21
-47.03998885856745
 31
0.0
  0
LINE
  5
2D9
330
1F
100
AcDbEntity
  8
0
100
AcDbLine
 10
-86.878916407054
 20
-39.75050121837801
 30
0.0
 11
-82.47891675905409
 21
-39.75050121837801
 31
0.0
  0
LINE
  5
2DA
330
1F
100
AcDbEntity
  8
0
100
AcDbLine
 10
-82.47891675905409
 20
-39.75050121837801
 30
0.0
 11
-80.27891693505386
 21
-35.93998974656737
 31
0.0
  0
LINE
  5
2DB
330
1F
100
AcDbEntity
  8
0
100
AcDbLine
 10
-89.19118793317485
 20
-31.43999010656733
 30
0.0
 11
-89.19637981053413
 21
-24.8399906345673
 31
0.0
  0
LINE
  5
2DC
330
1F
100
AcDbEntity
  8
0
100
AcDbLine
 10
-92.09637957853386
 20
-46.03998893856748
 30
0.0
 11
-92.06230540754896
 21
-46.29880796296445
 31
0.0
  0
LINE
  5
2DD
330
1F
100
AcDbEntity
  8
0
100
AcDbLine
 10
-92.06230540754896
 20
-46.29880796296445
 30
0.0
 11
-91.96240499303626
 21
-46.53998889856747
 31
0.0
  0
LINE
  5
2DE
330
1F
100
AcDbEntity
  8
0
100
AcDbLine
 10
-91.96240499303626
 20
-46.53998889856747
 30
0.0
 11
-91.80348638315195
 21
-46.74709566318545
 31
0.0
  0
LINE
  5
2DF
330
1F
100
AcDbEntity
  8
0
100
AcDbLine
 10
-91.80348638315195
 20
-46.74709566318545
 30
0.0
 11
-91.59637961853397
 21
-46.90601427306985
 31
0.0
  0
LINE
  5
2E0
330
1F
100
AcDbEntity
  8
0
100
AcDbLine
 10
-78.18410526752096
 20
-47.03998885856745
 30
0.0
 11
-91.09637965853389
 21
-47.03998885856745
 31
0.0
  0
LINE
  5
2E1
330
1F
100
AcDbEntity
  8
0
100
AcDbLine
 10
-78.18410526752096
 20
-47.03998885856745
 30
0.0
 11
-77.92528624312395
 21
-47.00591468758247
 31
0.0
  0
LINE
  5
2E2
330
1F
100
AcDbEntity
  8
0
100
AcDbLine
 10
-82.79638032253392
 20
-10.37396638806483
 30
0.0
 11
-83.03756125813699
 21
-10.27406597355221
 31
0.0
  0
LINE
  5
2E3
330
1F
100
AcDbEntity
  8
0
100
AcDbLine
 10
-83.03756125813699
 20
-10.27406597355221
 30
0.0
 11
-83.29638028253399
 21
-10.23999180256723
 31
0.0
  0
LINE
  5
2E4
330
1F
100
AcDbEntity
  8
0
100
AcDbLine
 10
-83.03756125813626
 20
-50.64759446177779
 30
0.0
 11
-83.29638028253328
 21
-50.61352029079281
 31
0.0
  0
LINE
  5
2E5
330
1F
100
AcDbEntity
  8
0
100
AcDbLine
 10
-82.29638036253331
 20
-51.61352021079282
 30
0.0
 11
-82.3304545335182
 21
-51.3547011863958
 31
0.0
  0
LINE
  5
2E6
330
1F
100
AcDbEntity
  8
0
100
AcDbLine
 10
-82.3304545335182
 20
-51.3547011863958
 30
0.0
 11
-82.43035494803091
 21
-51.1135202507928
 31
0.0
  0
LINE
  5
2E7
330
1F
100
AcDbEntity
  8
0
100
AcDbLine
 10
-82.43035494803091
 20
-51.1135202507928
 30
0.0
 11
-82.58927355791522
 21
-50.90641348617481
 31
0.0
  0
LINE
  5
2E8
330
1F
100
AcDbEntity
  8
0
100
AcDbLine
 10
-82.58927355791522
 20
-50.90641348617481
 30
0.0
 11
-82.7963803225332
 21
-50.74749487629041
 31
0.0
  0
LINE
  5
2E9
330
1F
100
AcDbEntity
  8
0
100
AcDbLine
 10
-82.7963803225332
 20
-50.74749487629041
 30
0.0
 11
-83.03756125813626
 21
-50.64759446177779
 31
0.0
  0
LINE
  5
2EA
330
1F
100
AcDbEntity
  8
0
100
AcDbLine
 10
-45.29638332253319
 20
-57.21351976279285
 30
0.0
 11
-45.296383322533
 21
-80.81351787479299
 31
0.0
  0
LINE
  5
2EB
330
1F
100
AcDbEntity
  8
0
100
AcDbLine
 10
-48.39638307453304
 20
-77.87236383689735
 30
0.0
 11
-48.02359089822063
 21
-77.5863103391054
 31
0.0
  0
LINE
  5
2EC
330
1F
100
AcDbEntity
  8
0
100
AcDbLine
 10
-50.56917510684541
 20
-77.5863103391054
 30
0.0
 11
-50.19638293053318
 21
-77.87236383689735
 31
0.0
  0
LINE
  5
2ED
330
1F
100
AcDbEntity
  8
0
100
AcDbLine
 10
-51.29638284253385
 20
-87.41351734679303
 30
0.0
 11
-55.89638247453391
 21
-87.41351734679303
 31
0.0
  0
LINE
  5
2EE
330
1F
100
AcDbEntity
  8
0
100
AcDbLine
 10
-51.03756381813683
 20
-87.37944317580805
 30
0.0
 11
-51.29638284253385
 21
-87.41351734679303
 31
0.0
  0
LINE
  5
2EF
330
1F
100
AcDbEntity
  8
0
100
AcDbLine
 10
-50.79638288253378
 20
-87.27954276129543
 30
0.0
 11
-51.03756381813683
 21
-87.37944317580805
 31
0.0
  0
LINE
  5
2F0
330
1F
100
AcDbEntity
  8
0
100
AcDbLine
 10
-50.58927611791579
 20
-87.12062415141104
 30
0.0
 11
-50.79638288253378
 21
-87.27954276129543
 31
0.0
  0
LINE
  5
2F1
330
1F
100
AcDbEntity
  8
0
100
AcDbLine
 10
-50.43035750803148
 20
-86.91351738679305
 30
0.0
 11
-50.58927611791579
 21
-87.12062415141104
 31
0.0
  0
LINE
  5
2F2
330
1F
100
AcDbEntity
  8
0
100
AcDbLine
 10
-50.33045709351878
 20
-86.67233645119003
 30
0.0
 11
-50.43035750803148
 21
-86.91351738679305
 31
0.0
  0
LINE
  5
2F3
330
1F
100
AcDbEntity
  8
0
100
AcDbLine
 10
-50.29638292253389
 20
-86.41351742679304
 30
0.0
 11
-50.33045709351878
 21
-86.67233645119003
 31
0.0
  0
LINE
  5
2F4
330
1F
100
AcDbEntity
  8
0
100
AcDbLine
 10
-50.29638292253389
 20
-86.41351742679304
 30
0.0
 11
-50.29638292253389
 21
-80.81351787479299
 31
0.0
  0
LINE
  5
2F5
330
1F
100
AcDbEntity
  8
0
100
AcDbLine
 10
-50.29638292253389
 20
-80.81351787479299
 30
0.0
 11
-45.296383322533
 21
-80.81351787479299
 31
0.0
  0
LINE
  5
2F6
330
1F
100
AcDbEntity
  8
0
100
AcDbLine
 10
-45.29638332253319
 20
-57.21351976279285
 30
0.0
 11
-53.29638268253304
 21
-57.21351976279285
 31
0.0
  0
LINE
  5
2F7
330
1F
100
AcDbEntity
  8
0
100
AcDbLine
 10
-53.29638268253304
 20
-51.61352021079282
 30
0.0
 11
-53.29638268253304
 21
-57.21351976279285
 31
0.0
  0
LINE
  5
2F8
330
1F
100
AcDbEntity
  8
0
100
AcDbLine
 10
-53.29638268253304
 20
-51.61352021079282
 30
0.0
 11
-53.33045685351793
 21
-51.3547011863958
 31
0.0
  0
LINE
  5
2F9
330
1F
100
AcDbEntity
  8
0
100
AcDbLine
 10
-53.33045685351793
 20
-51.3547011863958
 30
0.0
 11
-53.43035726803063
 21
-51.1135202507928
 31
0.0
  0
LINE
  5
2FA
330
1F
100
AcDbEntity
  8
0
100
AcDbLine
 10
-62.29638196253322
 20
-50.61352029079281
 30
0.0
 11
-54.296382602533
 21
-50.61352029079281
 31
0.0
  0
LINE
  5
2FB
330
1F
100
AcDbEntity
  8
0
100
AcDbLine
 10
-62.55520098693024
 20
-50.64759446177779
 30
0.0
 11
-62.29638196253322
 21
-50.61352029079281
 31
0.0
  0
LINE
  5
2FC
330
1F
100
AcDbEntity
  8
0
100
AcDbLine
 10
-62.79638192253329
 20
-50.74749487629041
 30
0.0
 11
-62.55520098693024
 21
-50.64759446177779
 31
0.0
  0
LINE
  5
2FD
330
1F
100
AcDbEntity
  8
0
100
AcDbLine
 10
-63.00348868715127
 20
-50.90641348617481
 30
0.0
 11
-62.79638192253329
 21
-50.74749487629041
 31
0.0
  0
LINE
  5
2FE
330
1F
100
AcDbEntity
  8
0
100
AcDbLine
 10
-100.2963789225333
 20
-80.81351787479295
 30
0.0
 11
-100.2963789225335
 21
-57.21351976279285
 31
0.0
  0
LINE
  5
2FF
330
1F
100
AcDbEntity
  8
0
100
AcDbLine
 10
-78.18410526752024
 20
-87.41351734679303
 30
0.0
 11
-91.09637965853317
 21
-87.41351734679303
 31
0.0
  0
LINE
  5
300
330
1F
100
AcDbEntity
  8
0
100
AcDbLine
 10
-77.92528624312322
 20
-87.37944317580805
 30
0.0
 11
-78.18410526752024
 21
-87.41351734679303
 31
0.0
  0
LINE
  5
301
330
1F
100
AcDbEntity
  8
0
100
AcDbLine
 10
-77.68410530752018
 20
-87.27954276129543
 30
0.0
 11
-77.92528624312322
 21
-87.37944317580805
 31
0.0
  0
LINE
  5
302
330
1F
100
AcDbEntity
  8
0
100
AcDbLine
 10
-77.47699854290218
 20
-87.12062415141104
 30
0.0
 11
-77.68410530752018
 21
-87.27954276129543
 31
0.0
  0
LINE
  5
303
330
1F
100
AcDbEntity
  8
0
100
AcDbLine
 10
-77.31807993301788
 20
-86.91351738679305
 30
0.0
 11
-77.47699854290218
 21
-87.12062415141104
 31
0.0
  0
LINE
  5
304
330
1F
100
AcDbEntity
  8
0
100
AcDbLine
 10
-77.21817951850517
 20
-86.67233645119003
 30
0.0
 11
-77.31807993301788
 21
-86.91351738679305
 31
0.0
  0
LINE
  5
305
330
1F
100
AcDbEntity
  8
0
100
AcDbLine
 10
-77.18410534752029
 20
-86.41351742679304
 30
0.0
 11
-77.21817951850517
 21
-86.67233645119003
 31
0.0
  0
LINE
  5
306
330
1F
100
AcDbEntity
  8
0
100
AcDbLine
 10
-77.18410534752029
 20
-86.41351742679304
 30
0.0
 11
-77.18410534752029
 21
-71.81351859479291
 31
0.0
  0
LINE
  5
307
330
1F
100
AcDbEntity
  8
0
100
AcDbLine
 10
-79.89638055453331
 20
-71.81351859479291
 30
0.0
 11
-79.89638055453331
 21
-65.21351912279287
 31
0.0
  0
LINE
  5
308
330
1F
100
AcDbEntity
  8
0
100
AcDbLine
 10
-62.17891838305189
 20
-80.81351787479295
 30
0.0
 11
-62.17891838305189
 21
-71.81351859479291
 31
0.0
  0
LINE
  5
309
330
1F
100
AcDbEntity
  8
0
100
AcDbLine
 10
-56.89638239453387
 20
-80.81351787479299
 30
0.0
 11
-62.17891838305189
 21
-80.81351787479295
 31
0.0
  0
LINE
  5
30A
330
1F
100
AcDbEntity
  8
0
100
AcDbLine
 10
-82.47891675905318
 20
-72.50300676298231
 30
0.0
 11
-86.8789164070533
 21
-72.50300676298231
 31
0.0
  0
LINE
  5
30B
330
1F
100
AcDbEntity
  8
0
100
AcDbLine
 10
-86.8789164070533
 20
-80.12402970660361
 30
0.0
 11
-82.47891675905318
 21
-80.12402970660361
 31
0.0
  0
LINE
  5
30C
330
1F
100
AcDbEntity
  8
0
100
AcDbLine
 10
-86.8789164070533
 20
-72.50300676298231
 30
0.0
 11
-89.07891623105317
 21
-76.31351823479295
 31
0.0
  0
LINE
  5
30D
330
1F
100
AcDbEntity
  8
0
100
AcDbLine
 10
-89.1963798105334
 20
-65.21351912279287
 30
0.0
 11
-94.19637786188969
 21
-65.21745440408905
 31
0.0
  0
LINE
  5
30E
330
1F
100
AcDbEntity
  8
0
100
AcDbLine
 10
-95.02358713822072
 20
-75.04072613048051
 30
0.0
 11
-95.3963793145333
 21
-74.75467263268857
 31
0.0
  0
LINE
  5
30F
330
1F
100
AcDbEntity
  8
0
100
AcDbLine
 10
-94.7375336404289
 20
-75.41351830679294
 30
0.0
 11
-95.02358713822072
 21
-75.04072613048051
 31
0.0
  0
LINE
  5
310
330
1F
100
AcDbEntity
  8
0
100
AcDbLine
 10
-95.3963793145333
 20
-77.87236383689735
 30
0.0
 11
-95.02358713822072
 21
-77.5863103391054
 31
0.0
  0
LINE
  5
311
330
1F
100
AcDbEntity
  8
0
100
AcDbLine
 10
-98.03504559076029
 20
-75.84764399087834
 30
0.0
 11
-98.09637909853343
 21
-76.31351823479295
 31
0.0
  0
LINE
  5
312
330
1F
100
AcDbEntity
  8
0
100
AcDbLine
 10
-97.85522484463768
 20
-75.41351830679294
 30
0.0
 11
-98.03504559076029
 21
-75.84764399087834
 31
0.0
  0
LINE
  5
313
330
1F
100
AcDbEntity
  8
0
100
AcDbLine
 10
-97.56917134684586
 20
-75.04072613048051
 30
0.0
 11
-97.85522484463768
 21
-75.41351830679294
 31
0.0
  0
LINE
  5
314
330
1F
100
AcDbEntity
  8
0
100
AcDbLine
 10
-50.19638293053301
 20
-74.75467263268857
 30
0.0
 11
-50.56917510684541
 21
-75.04072613048051
 31
0.0
  0
LINE
  5
315
330
1F
100
AcDbEntity
  8
0
100
AcDbLine
 10
-49.29638300253303
 20
-74.51351837879291
 30
0.0
 11
-49.76225724644765
 21
-74.5748518865659
 31
0.0
  0
LINE
  5
316
330
1F
100
AcDbEntity
  8
0
100
AcDbLine
 10
-47.73753740042863
 20
-75.41351830679294
 30
0.0
 11
-48.02359089822063
 21
-75.04072613048051
 31
0.0
  0
LINE
  5
317
330
1F
100
AcDbEntity
  8
0
100
AcDbLine
 10
-47.55771665430601
 20
-76.77939247870758
 30
0.0
 11
-47.49638314653306
 21
-76.31351823479295
 31
0.0
  0
LINE
  5
318
330
1F
100
AcDbEntity
  8
0
100
AcDbLine
 10
-48.02359089822063
 20
-77.5863103391054
 30
0.0
 11
-47.73753740042863
 21
-77.21351816279298
 31
0.0
  0
LINE
  5
319
330
1F
100
AcDbEntity
  8
0
100
AcDbLine
 10
-48.8305087586184
 20
-78.05218458302001
 30
0.0
 11
-48.39638307453304
 21
-77.87236383689735
 31
0.0
  0
LINE
  5
31A
330
1F
100
AcDbEntity
  8
0
100
AcDbLine
 10
-49.29638300253303
 20
-78.11351809079301
 30
0.0
 11
-48.8305087586184
 21
-78.05218458302001
 31
0.0
  0
LINE
  5
31B
330
1F
100
AcDbEntity
  8
0
100
AcDbLine
 10
-49.76225724644765
 20
-78.05218458302001
 30
0.0
 11
-49.29638300253303
 21
-78.11351809079301
 31
0.0
  0
LINE
  5
31C
330
1F
100
AcDbEntity
  8
0
100
AcDbLine
 10
-51.09638285853298
 20
-76.31351823479295
 30
0.0
 11
-51.03504935076004
 21
-76.77939247870758
 31
0.0
  0
LINE
  5
31D
330
1F
100
AcDbEntity
  8
0
100
AcDbLine
 10
-95.39637931453349
 20
-34.38114414446298
 30
0.0
 11
-95.83050499861902
 21
-34.20132339834031
 31
0.0
  0
LINE
  5
31E
330
1F
100
AcDbEntity
  8
0
100
AcDbLine
 10
-80.27891693505386
 20
-35.93998974656737
 30
0.0
 11
-82.4789167590539
 21
-32.12947827475673
 31
0.0
  0
LINE
  5
31F
330
1F
100
AcDbEntity
  8
0
100
AcDbLine
 10
-98.03504559076066
 20
-36.405863990482
 30
0.0
 11
-97.85522484463786
 21
-36.8399896745674
 31
0.0
  0
LINE
  5
320
330
1F
100
AcDbEntity
  8
0
100
AcDbLine
 10
-50.56917510684578
 20
-37.21278185087981
 30
0.0
 11
-50.19638293053318
 21
-37.49883534867177
 31
0.0
  0
LINE
  5
321
330
1F
100
AcDbEntity
  8
0
100
AcDbLine
 10
-47.73753740042881
 20
-35.03998981856734
 30
0.0
 11
-48.02359089822063
 21
-34.66719764225493
 31
0.0
  0
LINE
  5
322
330
1F
100
AcDbEntity
  8
0
100
AcDbLine
 10
-96.76225348644827
 20
-37.67865609479443
 30
0.0
 11
-96.29637924253346
 21
-37.73998960256742
 31
0.0
  0
LINE
  5
323
330
1F
100
AcDbEntity
  8
0
100
AcDbLine
 10
-96.29637924253346
 20
-37.73998960256742
 30
0.0
 11
-95.83050499861902
 21
-37.67865609479443
 31
0.0
  0
LINE
  5
324
330
1F
100
AcDbEntity
  8
0
100
AcDbLine
 10
-95.83050499861902
 20
-37.67865609479443
 30
0.0
 11
-95.39637931453366
 21
-37.49883534867177
 31
0.0
  0
LINE
  5
325
330
1F
100
AcDbEntity
  8
0
100
AcDbLine
 10
-50.19638293053318
 20
-34.38114414446298
 30
0.0
 11
-50.56917510684578
 21
-34.66719764225493
 31
0.0
  0
LINE
  5
326
330
1F
100
AcDbEntity
  8
0
100
AcDbLine
 10
-51.03504935076023
 20
-35.47411550265275
 30
0.0
 11
-51.09638285853335
 21
-35.93998974656737
 31
0.0
  0
LINE
  5
327
330
1F
100
AcDbEntity
  8
0
100
AcDbLine
 10
-51.03504935076023
 20
-36.405863990482
 30
0.0
 11
-50.8552286046376
 21
-36.8399896745674
 31
0.0
  0
LINE
  5
328
330
1F
100
AcDbEntity
  8
0
100
AcDbLine
 10
-95.83050499861902
 20
-34.20132339834031
 30
0.0
 11
-96.29637924253346
 21
-34.13998989056732
 31
0.0
  0
LINE
  5
329
330
1F
100
AcDbEntity
  8
0
100
AcDbLine
 10
-96.76225348644827
 20
-34.20132339834031
 30
0.0
 11
-97.19637917053363
 21
-34.38114414446298
 31
0.0
  0
LINE
  5
32A
330
1F
100
AcDbEntity
  8
0
100
AcDbLine
 10
-97.85522484463786
 20
-35.03998981856734
 30
0.0
 11
-98.03504559076066
 21
-35.47411550265275
 31
0.0
  0
LINE
  5
32B
330
1F
100
AcDbEntity
  8
0
100
AcDbLine
 10
-98.03504559076066
 20
-35.47411550265275
 30
0.0
 11
-98.09637909853362
 21
-35.93998974656737
 31
0.0
  0
LINE
  5
32C
330
1F
100
AcDbEntity
  8
0
100
AcDbLine
 10
-48.39638307453323
 20
-37.49883534867177
 30
0.0
 11
-48.02359089822063
 21
-37.21278185087981
 31
0.0
  0
LINE
  5
32D
330
1F
100
AcDbEntity
  8
0
100
AcDbLine
 10
-50.3304570935195
 20
-46.29880796296445
 30
0.0
 11
-50.2963829225346
 21
-46.03998893856744
 31
0.0
  0
LINE
  5
32E
330
1F
100
AcDbEntity
  8
0
100
AcDbLine
 10
-94.1963778618904
 20
-24.84392591586347
 30
0.0
 11
-94.19118598613754
 21
-31.44392334577411
 31
0.0
  0
LINE
  5
32F
330
1F
100
AcDbEntity
  8
0
100
AcDbLine
 10
-94.19118598613754
 20
-31.44392334577411
 30
0.0
 11
-89.19118793317485
 21
-31.43999010656733
 31
0.0
  0
LINE
  5
330
330
1F
100
AcDbEntity
  8
0
100
AcDbLine
 10
-49.2963830025332
 20
-37.73998960256742
 30
0.0
 11
-48.83050875861858
 21
-37.67865609479443
 31
0.0
  0
LINE
  5
331
330
1F
100
AcDbEntity
  8
0
100
AcDbLine
 10
-48.02359089822063
 20
-37.21278185087981
 30
0.0
 11
-47.73753740042881
 21
-36.8399896745674
 31
0.0
  0
LINE
  5
332
330
1F
100
AcDbEntity
  8
0
100
AcDbLine
 10
-47.73753740042881
 20
-36.8399896745674
 30
0.0
 11
-47.55771665430619
 21
-36.405863990482
 31
0.0
  0
LINE
  5
333
330
1F
100
AcDbEntity
  8
0
100
AcDbLine
 10
-47.55771665430619
 20
-36.405863990482
 30
0.0
 11
-47.49638314653306
 21
-35.93998974656737
 31
0.0
  0
LINE
  5
334
330
1F
100
AcDbEntity
  8
0
100
AcDbLine
 10
-47.49638314653306
 20
-35.93998974656737
 30
0.0
 11
-47.55771665430619
 21
-35.47411550265275
 31
0.0
  0
LINE
  5
335
330
1F
100
AcDbEntity
  8
0
100
AcDbLine
 10
-48.02359089822063
 20
-34.66719764225493
 30
0.0
 11
-48.39638307453323
 21
-34.38114414446298
 31
0.0
  0
LINE
  5
336
330
1F
100
AcDbEntity
  8
0
100
AcDbLine
 10
-48.39638307453323
 20
-34.38114414446298
 30
0.0
 11
-48.83050875861858
 21
-34.20132339834031
 31
0.0
  0
LINE
  5
337
330
1F
100
AcDbEntity
  8
0
100
AcDbLine
 10
-48.83050875861858
 20
-34.20132339834031
 30
0.0
 11
-49.2963830025332
 21
-34.13998989056732
 31
0.0
  0
LINE
  5
338
330
1F
100
AcDbEntity
  8
0
100
AcDbLine
 10
-49.76225724644782
 20
-34.20132339834031
 30
0.0
 11
-50.19638293053318
 21
-34.38114414446298
 31
0.0
  0
LINE
  5
339
330
1F
100
AcDbEntity
  8
0
100
AcDbLine
 10
-57.86685715185427
 20
15.26794398615656
 30
0.0
 11
-57.80552364408133
 21
14.80206974224198
 31
0.0
  0
LINE
  5
33A
330
1F
100
AcDbEntity
  8
0
100
AcDbLine
 10
-57.80552364408133
 20
15.73381823007113
 30
0.0
 11
-57.86685715185427
 21
15.26794398615656
 31
0.0
  0
LINE
  5
33B
330
1F
100
AcDbEntity
  8
0
100
AcDbLine
 10
-57.62570289795852
 20
16.16794391415654
 30
0.0
 11
-57.80552364408133
 21
15.73381823007113
 31
0.0
  0
LINE
  5
33C
330
1F
100
AcDbEntity
  8
0
100
AcDbLine
 10
-57.33964940016671
 20
16.5407360904689
 30
0.0
 11
-57.62570289795852
 21
16.16794391415654
 31
0.0
  0
LINE
  5
33D
330
1F
100
AcDbEntity
  8
0
100
AcDbLine
 10
-51.29638284253457
 20
-47.03998885856745
 30
0.0
 11
-55.89638247453463
 21
-47.03998885856745
 31
0.0
  0
LINE
  5
33E
330
1F
100
AcDbEntity
  8
0
100
AcDbLine
 10
-51.29638284253457
 20
-47.03998885856745
 30
0.0
 11
-51.03756381813755
 21
-47.00591468758247
 31
0.0
  0
LINE
  5
33F
330
1F
100
AcDbEntity
  8
0
100
AcDbLine
 10
-51.03756381813755
 20
-47.00591468758247
 30
0.0
 11
-50.7963828825345
 21
-46.90601427306985
 31
0.0
  0
LINE
  5
340
330
1F
100
AcDbEntity
  8
0
100
AcDbLine
 10
-50.7963828825345
 20
-46.90601427306985
 30
0.0
 11
-50.58927611791651
 21
-46.74709566318545
 31
0.0
  0
LINE
  5
341
330
1F
100
AcDbEntity
  8
0
100
AcDbLine
 10
-50.58927611791651
 20
-46.74709566318545
 30
0.0
 11
-50.43035750803221
 21
-46.53998889856747
 31
0.0
  0
LINE
  5
342
330
1F
100
AcDbEntity
  8
0
100
AcDbLine
 10
-50.43035750803221
 20
-46.53998889856747
 30
0.0
 11
-50.3304570935195
 21
-46.29880796296445
 31
0.0
  0
LINE
  5
343
330
1F
100
AcDbEntity
  8
0
100
AcDbLine
 10
-50.2963829225346
 20
-46.03998893856744
 30
0.0
 11
-50.2963829225346
 21
-40.43998938656741
 31
0.0
  0
LINE
  5
344
330
1F
100
AcDbEntity
  8
0
100
AcDbLine
 10
-97.85522484463786
 20
-36.8399896745674
 30
0.0
 11
-97.56917134684603
 21
-37.21278185087981
 31
0.0
  0
LINE
  5
345
330
1F
100
AcDbEntity
  8
0
100
AcDbLine
 10
-57.33964940016671
 20
49.54073345046789
 30
0.0
 11
-57.62570289795852
 21
49.16794127415547
 31
0.0
  0
LINE
  5
346
330
1F
100
AcDbEntity
  8
0
100
AcDbLine
 10
-56.96685722385429
 20
16.82678958826082
 30
0.0
 11
-57.33964940016671
 21
16.5407360904689
 31
0.0
  0
LINE
  5
347
330
1F
100
AcDbEntity
  8
0
100
AcDbLine
 10
-54.79406519154192
 20
16.54073609046886
 30
0.0
 11
-55.16685736785432
 21
16.82678958826077
 31
0.0
  0
LINE
  5
348
330
1F
100
AcDbEntity
  8
0
100
AcDbLine
 10
-54.50801169374991
 20
16.16794391415645
 30
0.0
 11
-54.79406519154192
 21
16.54073609046886
 31
0.0
  0
LINE
  5
349
330
1F
100
AcDbEntity
  8
0
100
AcDbLine
 10
-54.32819094762729
 20
15.73381823007104
 30
0.0
 11
-54.50801169374991
 21
16.16794391415645
 31
0.0
  0
LINE
  5
34A
330
1F
100
AcDbEntity
  8
0
100
AcDbLine
 10
-56.96685722385429
 20
46.70909574405119
 30
0.0
 11
-56.53273153976892
 21
46.52927499792857
 31
0.0
  0
LINE
  5
34B
330
1F
100
AcDbEntity
  8
0
100
AcDbLine
 10
-57.33964940016671
 20
46.9951492418431
 30
0.0
 11
-56.96685722385429
 21
46.70909574405119
 31
0.0
  0
LINE
  5
34C
330
1F
100
AcDbEntity
  8
0
100
AcDbLine
 10
-57.62570289795852
 20
47.36794141815551
 30
0.0
 11
-57.33964940016671
 21
46.9951492418431
 31
0.0
  0
LINE
  5
34D
330
1F
100
AcDbEntity
  8
0
100
AcDbLine
 10
-57.80552364408133
 20
47.80206710224088
 30
0.0
 11
-57.62570289795852
 21
47.36794141815551
 31
0.0
  0
LINE
  5
34E
330
1F
100
AcDbEntity
  8
0
100
AcDbLine
 10
-57.86685715185427
 20
48.2679413461555
 30
0.0
 11
-57.80552364408133
 21
47.80206710224088
 31
0.0
  0
LINE
  5
34F
330
1F
100
AcDbEntity
  8
0
100
AcDbLine
 10
-57.80552364408133
 20
48.73381559007012
 30
0.0
 11
-57.86685715185427
 21
48.2679413461555
 31
0.0
  0
LINE
  5
350
330
1F
100
AcDbEntity
  8
0
100
AcDbLine
 10
-57.62570289795852
 20
49.16794127415547
 30
0.0
 11
-57.80552364408133
 21
48.73381559007012
 31
0.0
  0
LINE
  5
351
330
1F
100
AcDbEntity
  8
0
100
AcDbLine
 10
-56.06685729585431
 20
13.46794413015655
 30
0.0
 11
-55.60098305193969
 21
13.52927763792954
 31
0.0
  0
LINE
  5
352
330
1F
100
AcDbEntity
  8
0
100
AcDbLine
 10
-56.53273153976892
 20
13.52927763792954
 30
0.0
 11
-56.06685729585431
 21
13.46794413015655
 31
0.0
  0
LINE
  5
353
330
1F
100
AcDbEntity
  8
0
100
AcDbLine
 10
-56.96685722385429
 20
13.70909838405225
 30
0.0
 11
-56.53273153976892
 21
13.52927763792954
 31
0.0
  0
LINE
  5
354
330
1F
100
AcDbEntity
  8
0
100
AcDbLine
 10
-57.33964940016671
 20
13.99515188184416
 30
0.0
 11
-56.96685722385429
 21
13.70909838405225
 31
0.0
  0
LINE
  5
355
330
1F
100
AcDbEntity
  8
0
100
AcDbLine
 10
-57.6257028979587
 20
14.36794405815658
 30
0.0
 11
-57.33964940016671
 21
13.99515188184416
 31
0.0
  0
LINE
  5
356
330
1F
100
AcDbEntity
  8
0
100
AcDbLine
 10
-57.80552364408133
 20
14.80206974224198
 30
0.0
 11
-57.6257028979587
 21
14.36794405815658
 31
0.0
  0
LINE
  5
357
330
1F
100
AcDbEntity
  8
0
100
AcDbLine
 10
-54.26685743985435
 20
15.26794398615647
 30
0.0
 11
-54.32819094762729
 21
15.73381823007104
 31
0.0
  0
LINE
  5
358
330
1F
100
AcDbEntity
  8
0
100
AcDbLine
 10
-54.32819094762729
 20
14.80206974224189
 30
0.0
 11
-54.26685743985435
 21
15.26794398615647
 31
0.0
  0
LINE
  5
359
330
1F
100
AcDbEntity
  8
0
100
AcDbLine
 10
-54.50801169375009
 20
14.36794405815649
 30
0.0
 11
-54.32819094762729
 21
14.80206974224189
 31
0.0
  0
LINE
  5
35A
330
1F
100
AcDbEntity
  8
0
100
AcDbLine
 10
-54.79406519154192
 20
13.99515188184412
 30
0.0
 11
-54.50801169375009
 21
14.36794405815649
 31
0.0
  0
LINE
  5
35B
330
1F
100
AcDbEntity
  8
0
100
AcDbLine
 10
-55.16685736785432
 20
13.70909838405221
 30
0.0
 11
-54.79406519154192
 21
13.99515188184412
 31
0.0
  0
LINE
  5
35C
330
1F
100
AcDbEntity
  8
0
100
AcDbLine
 10
-55.60098305193969
 20
13.52927763792954
 30
0.0
 11
-55.16685736785432
 21
13.70909838405221
 31
0.0
  0
LINE
  5
35D
330
1F
100
AcDbEntity
  8
0
100
AcDbLine
 10
-55.16685736785432
 20
49.8267869482598
 30
0.0
 11
-55.60098305193969
 21
50.00660769438242
 31
0.0
  0
LINE
  5
35E
330
1F
100
AcDbEntity
  8
0
100
AcDbLine
 10
-54.79406519154192
 20
46.9951492418431
 30
0.0
 11
-54.50801169375009
 21
47.36794141815551
 31
0.0
  0
LINE
  5
35F
330
1F
100
AcDbEntity
  8
0
100
AcDbLine
 10
-55.16685736785432
 20
46.70909574405119
 30
0.0
 11
-54.79406519154192
 21
46.9951492418431
 31
0.0
  0
LINE
  5
360
330
1F
100
AcDbEntity
  8
0
100
AcDbLine
 10
-55.60098305193969
 20
46.52927499792857
 30
0.0
 11
-55.16685736785432
 21
46.70909574405119
 31
0.0
  0
LINE
  5
361
330
1F
100
AcDbEntity
  8
0
100
AcDbLine
 10
-56.06685729585431
 20
46.46794149015553
 30
0.0
 11
-55.60098305193969
 21
46.52927499792857
 31
0.0
  0
LINE
  5
362
330
1F
100
AcDbEntity
  8
0
100
AcDbLine
 10
-56.53273153976892
 20
46.52927499792857
 30
0.0
 11
-56.06685729585431
 21
46.46794149015553
 31
0.0
  0
LINE
  5
363
330
1F
100
AcDbEntity
  8
0
100
AcDbLine
 10
-48.30161192961786
 20
10.84634523356425
 30
0.0
 11
-48.7396146487499
 21
11.01650465396672
 31
0.0
  0
LINE
  5
364
330
1F
100
AcDbEntity
  8
0
100
AcDbLine
 10
-54.79406519154192
 20
49.54073345046789
 30
0.0
 11
-55.16685736785432
 21
49.8267869482598
 31
0.0
  0
LINE
  5
365
330
1F
100
AcDbEntity
  8
0
100
AcDbLine
 10
-54.50801169375009
 20
49.16794127415547
 30
0.0
 11
-54.79406519154192
 21
49.54073345046789
 31
0.0
  0
LINE
  5
366
330
1F
100
AcDbEntity
  8
0
100
AcDbLine
 10
-54.32819094762729
 20
48.73381559007012
 30
0.0
 11
-54.50801169375009
 21
49.16794127415547
 31
0.0
  0
LINE
  5
367
330
1F
100
AcDbEntity
  8
0
100
AcDbLine
 10
-54.26685743985435
 20
48.2679413461555
 30
0.0
 11
-54.32819094762729
 21
48.73381559007012
 31
0.0
  0
LINE
  5
368
330
1F
100
AcDbEntity
  8
0
100
AcDbLine
 10
-54.32819094762729
 20
47.80206710224088
 30
0.0
 11
-54.26685743985435
 21
48.2679413461555
 31
0.0
  0
LINE
  5
369
330
1F
100
AcDbEntity
  8
0
100
AcDbLine
 10
-54.50801169375009
 20
47.36794141815551
 30
0.0
 11
-54.32819094762729
 21
47.80206710224088
 31
0.0
  0
LINE
  5
36A
330
1F
100
AcDbEntity
  8
0
100
AcDbLine
 10
-48.7396146487499
 20
11.01650465396672
 30
0.0
 11
-49.20673328584809
 21
11.06750258720182
 31
0.0
  0
LINE
  5
36B
330
1F
100
AcDbEntity
  8
0
100
AcDbLine
 10
-49.67113447774437
 20
10.99586360839758
 30
0.0
 11
-50.10117005067013
 21
10.80646979557055
 31
0.0
  0
LINE
  5
36C
330
1F
100
AcDbEntity
  8
0
100
AcDbLine
 10
-49.20673328584809
 20
11.06750258720182
 30
0.0
 11
-49.67113447774437
 21
10.99586360839758
 31
0.0
  0
LINE
  5
36D
330
1F
100
AcDbEntity
  8
0
100
AcDbLine
 10
-47.9225742899272
 20
10.56862040929305
 30
0.0
 11
-48.30161192961786
 21
10.84634523356425
 31
0.0
  0
LINE
  5
36E
330
1F
100
AcDbEntity
  8
0
100
AcDbLine
 10
-47.62833251843334
 20
10.20225666896524
 30
0.0
 11
-47.9225742899272
 21
10.56862040929305
 31
0.0
  0
LINE
  5
36F
330
1F
100
AcDbEntity
  8
0
100
AcDbLine
 10
-47.43893870560621
 20
9.772221096039473
 30
0.0
 11
-47.62833251843334
 21
10.20225666896524
 31
0.0
  0
LINE
  5
370
330
1F
100
AcDbEntity
  8
0
100
AcDbLine
 10
-47.36729972680212
 20
9.307819904143242
 30
0.0
 11
-47.43893870560621
 21
9.772221096039473
 31
0.0
  0
LINE
  5
371
330
1F
100
AcDbEntity
  8
0
100
AcDbLine
 10
-47.41829766003722
 20
8.84070126704501
 30
0.0
 11
-47.36729972680212
 21
9.307819904143242
 31
0.0
  0
LINE
  5
372
330
1F
100
AcDbEntity
  8
0
100
AcDbLine
 10
-92.96685434385499
 20
15.31794398214928
 30
0.0
 11
-92.90552083608205
 21
14.85206973823471
 31
0.0
  0
LINE
  5
373
330
1F
100
AcDbEntity
  8
0
100
AcDbLine
 10
-92.90552083608205
 20
15.78381822606386
 30
0.0
 11
-92.96685434385499
 21
15.31794398214928
 31
0.0
  0
LINE
  5
374
330
1F
100
AcDbEntity
  8
0
100
AcDbLine
 10
-50.91541803567156
 20
9.695187665254075
 30
0.0
 11
-50.96641596890666
 21
9.228069028155842
 31
0.0
  0
LINE
  5
375
330
1F
100
AcDbEntity
  8
0
100
AcDbLine
 10
-50.74525861526914
 20
10.13319038438611
 30
0.0
 11
-50.91541803567156
 21
9.695187665254075
 31
0.0
  0
LINE
  5
376
330
1F
100
AcDbEntity
  8
0
100
AcDbLine
 10
-50.4675337909979
 20
10.51222802407679
 30
0.0
 11
-50.74525861526914
 21
10.13319038438611
 31
0.0
  0
LINE
  5
377
330
1F
100
AcDbEntity
  8
0
100
AcDbLine
 10
-50.10117005067013
 20
10.80646979557055
 30
0.0
 11
-50.4675337909979
 21
10.51222802407679
 31
0.0
  0
LINE
  5
378
330
1F
100
AcDbEntity
  8
0
100
AcDbLine
 10
-49.59410104695888
 20
7.519384278332366
 30
0.0
 11
-49.12698240986069
 21
7.46838634509727
 31
0.0
  0
LINE
  5
379
330
1F
100
AcDbEntity
  8
0
100
AcDbLine
 10
-50.03210376609092
 20
7.689543698734837
 30
0.0
 11
-49.59410104695888
 21
7.519384278332366
 31
0.0
  0
LINE
  5
37A
330
1F
100
AcDbEntity
  8
0
100
AcDbLine
 10
-50.41114140578159
 20
7.967268523006031
 30
0.0
 11
-50.03210376609092
 21
7.689543698734837
 31
0.0
  0
LINE
  5
37B
330
1F
100
AcDbEntity
  8
0
100
AcDbLine
 10
-50.70538317727544
 20
8.333632263333842
 30
0.0
 11
-50.41114140578159
 21
7.967268523006031
 31
0.0
  0
LINE
  5
37C
330
1F
100
AcDbEntity
  8
0
100
AcDbLine
 10
-50.96641596890666
 20
9.228069028155842
 30
0.0
 11
-50.89477699010239
 21
8.76366783625961
 31
0.0
  0
LINE
  5
37D
330
1F
100
AcDbEntity
  8
0
100
AcDbLine
 10
-89.42818813962802
 20
15.78381822606386
 30
0.0
 11
-89.60800888575082
 21
16.21794391014926
 31
0.0
  0
LINE
  5
37E
330
1F
100
AcDbEntity
  8
0
100
AcDbLine
 10
-47.58845708043964
 20
8.40269854791297
 30
0.0
 11
-47.41829766003722
 21
8.84070126704501
 31
0.0
  0
LINE
  5
37F
330
1F
100
AcDbEntity
  8
0
100
AcDbLine
 10
-47.86618190471088
 20
8.023660908222297
 30
0.0
 11
-47.58845708043964
 21
8.40269854791297
 31
0.0
  0
LINE
  5
380
330
1F
100
AcDbEntity
  8
0
100
AcDbLine
 10
-48.23254564503864
 20
7.729419136728535
 30
0.0
 11
-47.86618190471088
 21
8.023660908222297
 31
0.0
  0
LINE
  5
381
330
1F
100
AcDbEntity
  8
0
100
AcDbLine
 10
-48.66258121796442
 20
7.540025323901498
 30
0.0
 11
-48.23254564503864
 21
7.729419136728535
 31
0.0
  0
LINE
  5
382
330
1F
100
AcDbEntity
  8
0
100
AcDbLine
 10
-49.12698240986069
 20
7.46838634509727
 30
0.0
 11
-48.66258121796442
 21
7.540025323901498
 31
0.0
  0
LINE
  5
383
330
1F
100
AcDbEntity
  8
0
100
AcDbLine
 10
-89.36685463185508
 20
15.31794398214928
 30
0.0
 11
-89.42818813962802
 21
15.78381822606386
 31
0.0
  0
LINE
  5
384
330
1F
100
AcDbEntity
  8
0
100
AcDbLine
 10
-89.42818813962802
 20
14.85206973823471
 30
0.0
 11
-89.36685463185508
 21
15.31794398214928
 31
0.0
  0
LINE
  5
385
330
1F
100
AcDbEntity
  8
0
100
AcDbLine
 10
-92.06685441585502
 20
16.87678958425359
 30
0.0
 11
-92.43964659216743
 21
16.59073608646168
 31
0.0
  0
LINE
  5
386
330
1F
100
AcDbEntity
  8
0
100
AcDbLine
 10
-91.63272873176966
 20
17.05661033037625
 30
0.0
 11
-92.06685441585502
 21
16.87678958425359
 31
0.0
  0
LINE
  5
387
330
1F
100
AcDbEntity
  8
0
100
AcDbLine
 10
-91.16685448785505
 20
17.11794383814925
 30
0.0
 11
-91.63272873176966
 21
17.05661033037625
 31
0.0
  0
LINE
  5
388
330
1F
100
AcDbEntity
  8
0
100
AcDbLine
 10
-90.7009802439404
 20
17.05661033037625
 30
0.0
 11
-91.16685448785505
 21
17.11794383814925
 31
0.0
  0
LINE
  5
389
330
1F
100
AcDbEntity
  8
0
100
AcDbLine
 10
-90.26685455985506
 20
16.87678958425359
 30
0.0
 11
-90.7009802439404
 21
17.05661033037625
 31
0.0
  0
LINE
  5
38A
330
1F
100
AcDbEntity
  8
0
100
AcDbLine
 10
-89.89406238354265
 20
16.59073608646168
 30
0.0
 11
-90.26685455985506
 21
16.87678958425359
 31
0.0
  0
LINE
  5
38B
330
1F
100
AcDbEntity
  8
0
100
AcDbLine
 10
-89.60800888575082
 20
16.21794391014926
 30
0.0
 11
-89.89406238354265
 21
16.59073608646168
 31
0.0
  0
LINE
  5
38C
330
1F
100
AcDbEntity
  8
0
100
AcDbLine
 10
-91.63272873176966
 20
13.57927763392231
 30
0.0
 11
-91.16685448785505
 21
13.51794412614932
 31
0.0
  0
LINE
  5
38D
330
1F
100
AcDbEntity
  8
0
100
AcDbLine
 10
-92.06685441585502
 20
13.75909838004498
 30
0.0
 11
-91.63272873176966
 21
13.57927763392231
 31
0.0
  0
LINE
  5
38E
330
1F
100
AcDbEntity
  8
0
100
AcDbLine
 10
-92.43964659216743
 20
14.04515187783689
 30
0.0
 11
-92.06685441585502
 21
13.75909838004498
 31
0.0
  0
LINE
  5
38F
330
1F
100
AcDbEntity
  8
0
100
AcDbLine
 10
-92.72570008995926
 20
14.4179440541493
 30
0.0
 11
-92.43964659216743
 21
14.04515187783689
 31
0.0
  0
LINE
  5
390
330
1F
100
AcDbEntity
  8
0
100
AcDbLine
 10
-92.90552083608205
 20
14.85206973823471
 30
0.0
 11
-92.72570008995926
 21
14.4179440541493
 31
0.0
  0
LINE
  5
391
330
1F
100
AcDbEntity
  8
0
100
AcDbLine
 10
-47.41829766003578
 20
54.69518406524774
 30
0.0
 11
-47.58845708043639
 21
55.13318678438041
 31
0.0
  0
LINE
  5
392
330
1F
100
AcDbEntity
  8
0
100
AcDbLine
 10
-47.36729972680229
 20
54.22806542814936
 30
0.0
 11
-47.41829766003578
 21
54.69518406524774
 31
0.0
  0
LINE
  5
393
330
1F
100
AcDbEntity
  8
0
100
AcDbLine
 10
-89.89406238354265
 20
14.04515187783689
 30
0.0
 11
-89.60800888575082
 21
14.4179440541493
 31
0.0
  0
LINE
  5
394
330
1F
100
AcDbEntity
  8
0
100
AcDbLine
 10
-90.26685455985506
 20
13.75909838004498
 30
0.0
 11
-89.89406238354265
 21
14.04515187783689
 31
0.0
  0
LINE
  5
395
330
1F
100
AcDbEntity
  8
0
100
AcDbLine
 10
-90.7009802439404
 20
13.57927763392231
 30
0.0
 11
-90.26685455985506
 21
13.75909838004498
 31
0.0
  0
LINE
  5
396
330
1F
100
AcDbEntity
  8
0
100
AcDbLine
 10
-91.16685448785505
 20
13.51794412614932
 30
0.0
 11
-90.7009802439404
 21
13.57927763392231
 31
0.0
  0
LINE
  5
397
330
1F
100
AcDbEntity
  8
0
100
AcDbLine
 10
-47.86618190470619
 20
55.51222442407217
 30
0.0
 11
-48.23254564503305
 21
55.80646619556728
 31
0.0
  0
LINE
  5
398
330
1F
100
AcDbEntity
  8
0
100
AcDbLine
 10
-48.6625812179581
 20
55.99586000839584
 30
0.0
 11
-49.12698240985401
 21
56.06749898720184
 31
0.0
  0
LINE
  5
399
330
1F
100
AcDbEntity
  8
0
100
AcDbLine
 10
-48.23254564503305
 20
55.80646619556728
 30
0.0
 11
-48.6625812179581
 21
55.99586000839584
 31
0.0
  0
LINE
  5
39A
330
1F
100
AcDbEntity
  8
0
100
AcDbLine
 10
-47.43893870560838
 20
53.76366423625336
 30
0.0
 11
-47.36729972680229
 21
54.22806542814936
 31
0.0
  0
LINE
  5
39B
330
1F
100
AcDbEntity
  8
0
100
AcDbLine
 10
-47.62833251843676
 20
53.33362866332831
 30
0.0
 11
-47.43893870560838
 21
53.76366423625336
 31
0.0
  0
LINE
  5
39C
330
1F
100
AcDbEntity
  8
0
100
AcDbLine
 10
-47.92257428993189
 20
52.96726492300163
 30
0.0
 11
-47.62833251843676
 21
53.33362866332831
 31
0.0
  0
LINE
  5
39D
330
1F
100
AcDbEntity
  8
0
100
AcDbLine
 10
-48.30161192962364
 20
52.68954009873183
 30
0.0
 11
-47.92257428993189
 21
52.96726492300163
 31
0.0
  0
LINE
  5
39E
330
1F
100
AcDbEntity
  8
0
100
AcDbLine
 10
-92.06685441585502
 20
46.65909574804506
 30
0.0
 11
-91.63272873176966
 21
46.47927500192244
 31
0.0
  0
LINE
  5
39F
330
1F
100
AcDbEntity
  8
0
100
AcDbLine
 10
-50.91541803567319
 20
53.84069766705175
 30
0.0
 11
-50.74525861527221
 21
53.40269494791908
 31
0.0
  0
LINE
  5
3A0
330
1F
100
AcDbEntity
  8
0
100
AcDbLine
 10
-50.96641596890648
 20
54.30781630415012
 30
0.0
 11
-50.91541803567319
 21
53.84069766705175
 31
0.0
  0
LINE
  5
3A1
330
1F
100
AcDbEntity
  8
0
100
AcDbLine
 10
-50.89477699010058
 20
54.77221749604613
 30
0.0
 11
-50.96641596890648
 21
54.30781630415012
 31
0.0
  0
LINE
  5
3A2
330
1F
100
AcDbEntity
  8
0
100
AcDbLine
 10
-50.70538317727183
 20
55.20225306897117
 30
0.0
 11
-50.89477699010058
 21
54.77221749604613
 31
0.0
  0
LINE
  5
3A3
330
1F
100
AcDbEntity
  8
0
100
AcDbLine
 10
-50.41114140577672
 20
55.56861680929786
 30
0.0
 11
-50.70538317727183
 21
55.20225306897117
 31
0.0
  0
LINE
  5
3A4
330
1F
100
AcDbEntity
  8
0
100
AcDbLine
 10
-82.29638036253404
 20
-11.23999172256723
 30
0.0
 11
-82.33045453351893
 21
-10.98117269817022
 31
0.0
  0
LINE
  5
3A5
330
1F
100
AcDbEntity
  8
0
100
AcDbLine
 10
-82.33045453351893
 20
-10.98117269817022
 30
0.0
 11
-82.43035494803163
 21
-10.73999176256721
 31
0.0
  0
LINE
  5
3A6
330
1F
100
AcDbEntity
  8
0
100
AcDbLine
 10
-82.43035494803163
 20
-10.73999176256721
 30
0.0
 11
-82.58927355791594
 21
-10.53288499794922
 31
0.0
  0
LINE
  5
3A7
330
1F
100
AcDbEntity
  8
0
100
AcDbLine
 10
-82.58927355791594
 20
-10.53288499794922
 30
0.0
 11
-82.79638032253392
 21
-10.37396638806483
 31
0.0
  0
LINE
  5
3A8
330
1F
100
AcDbEntity
  8
0
100
AcDbLine
 10
-91.79637960253427
 20
-10.37396638806483
 30
0.0
 11
-91.55519866693122
 21
-10.27406597355221
 31
0.0
  0
LINE
  5
3A9
330
1F
100
AcDbEntity
  8
0
100
AcDbLine
 10
-92.00348636715228
 20
-10.53288499794922
 30
0.0
 11
-91.79637960253427
 21
-10.37396638806483
 31
0.0
  0
LINE
  5
3AA
330
1F
100
AcDbEntity
  8
0
100
AcDbLine
 10
-92.16240497703657
 20
-10.73999176256721
 30
0.0
 11
-92.00348636715228
 21
-10.53288499794922
 31
0.0
  0
LINE
  5
3AB
330
1F
100
AcDbEntity
  8
0
100
AcDbLine
 10
-50.46753379100241
 20
53.02365730822734
 30
0.0
 11
-50.10117005067573
 21
52.72941553673221
 31
0.0
  0
LINE
  5
3AC
330
1F
100
AcDbEntity
  8
0
100
AcDbLine
 10
-50.74525861527221
 20
53.40269494791908
 30
0.0
 11
-50.46753379100241
 21
53.02365730822734
 31
0.0
  0
LINE
  5
3AD
330
1F
100
AcDbEntity
  8
0
100
AcDbLine
 10
-92.72570008995926
 20
16.21794391014926
 30
0.0
 11
-92.90552083608205
 21
15.78381822606386
 31
0.0
  0
LINE
  5
3AE
330
1F
100
AcDbEntity
  8
0
100
AcDbLine
 10
-92.43964659216743
 20
16.59073608646168
 30
0.0
 11
-92.72570008995926
 21
16.21794391014926
 31
0.0
  0
LINE
  5
3AF
330
1F
100
AcDbEntity
  8
0
100
AcDbLine
 10
-89.60800888575082
 20
49.11794127814935
 30
0.0
 11
-89.89406238354265
 21
49.49073345446176
 31
0.0
  0
LINE
  5
3B0
330
1F
100
AcDbEntity
  8
0
100
AcDbLine
 10
-89.42818813962802
 20
48.68381559406399
 30
0.0
 11
-89.60800888575082
 21
49.11794127814935
 31
0.0
  0
LINE
  5
3B1
330
1F
100
AcDbEntity
  8
0
100
AcDbLine
 10
-89.36685463185508
 20
48.21794135014937
 30
0.0
 11
-89.42818813962802
 21
48.68381559406399
 31
0.0
  0
LINE
  5
3B2
330
1F
100
AcDbEntity
  8
0
100
AcDbLine
 10
-48.7396146487564
 20
52.51938067833103
 30
0.0
 11
-48.30161192962364
 21
52.68954009873183
 31
0.0
  0
LINE
  5
3B3
330
1F
100
AcDbEntity
  8
0
100
AcDbLine
 10
-49.20673328585477
 20
52.46838274509766
 30
0.0
 11
-48.7396146487564
 21
52.51938067833103
 31
0.0
  0
LINE
  5
3B4
330
1F
100
AcDbEntity
  8
0
100
AcDbLine
 10
-49.67113447775068
 20
52.54002172390364
 30
0.0
 11
-49.20673328585477
 21
52.46838274509766
 31
0.0
  0
LINE
  5
3B5
330
1F
100
AcDbEntity
  8
0
100
AcDbLine
 10
-50.10117005067573
 20
52.72941553673221
 30
0.0
 11
-49.67113447775068
 21
52.54002172390364
 31
0.0
  0
LINE
  5
3B6
330
1F
100
AcDbEntity
  8
0
100
AcDbLine
 10
-90.26685455985506
 20
49.77678695225367
 30
0.0
 11
-90.7009802439404
 21
49.9566076983763
 31
0.0
  0
LINE
  5
3B7
330
1F
100
AcDbEntity
  8
0
100
AcDbLine
 10
-89.89406238354265
 20
49.49073345446176
 30
0.0
 11
-90.26685455985506
 21
49.77678695225367
 31
0.0
  0
LINE
  5
3B8
330
1F
100
AcDbEntity
  8
0
100
AcDbLine
 10
-92.90552083608205
 20
48.68381559406399
 30
0.0
 11
-92.96685434385499
 21
48.21794135014937
 31
0.0
  0
LINE
  5
3B9
330
1F
100
AcDbEntity
  8
0
100
AcDbLine
 10
-92.72570008995926
 20
49.11794127814935
 30
0.0
 11
-92.90552083608205
 21
48.68381559406399
 31
0.0
  0
LINE
  5
3BA
330
1F
100
AcDbEntity
  8
0
100
AcDbLine
 10
-92.43964659216743
 20
49.49073345446176
 30
0.0
 11
-92.72570008995926
 21
49.11794127814935
 31
0.0
  0
LINE
  5
3BB
330
1F
100
AcDbEntity
  8
0
100
AcDbLine
 10
-92.06685441585502
 20
49.77678695225367
 30
0.0
 11
-92.43964659216743
 21
49.49073345446176
 31
0.0
  0
LINE
  5
3BC
330
1F
100
AcDbEntity
  8
0
100
AcDbLine
 10
-91.63272873176966
 20
49.9566076983763
 30
0.0
 11
-92.06685441585502
 21
49.77678695225367
 31
0.0
  0
LINE
  5
3BD
330
1F
100
AcDbEntity
  8
0
100
AcDbLine
 10
-91.16685448785505
 20
50.01794120614933
 30
0.0
 11
-91.63272873176966
 21
49.9566076983763
 31
0.0
  0
LINE
  5
3BE
330
1F
100
AcDbEntity
  8
0
100
AcDbLine
 10
-90.7009802439404
 20
49.9566076983763
 30
0.0
 11
-91.16685448785505
 21
50.01794120614933
 31
0.0
  0
LINE
  5
3BF
330
1F
100
AcDbEntity
  8
0
100
AcDbLine
 10
-56.96685722385429
 20
49.8267869482598
 30
0.0
 11
-57.33964940016671
 21
49.54073345046789
 31
0.0
  0
LINE
  5
3C0
330
1F
100
AcDbEntity
  8
0
100
AcDbLine
 10
-56.53273153976892
 20
50.00660769438242
 30
0.0
 11
-56.96685722385429
 21
49.8267869482598
 31
0.0
  0
LINE
  5
3C1
330
1F
100
AcDbEntity
  8
0
100
AcDbLine
 10
-56.06685729585431
 20
50.06794120215545
 30
0.0
 11
-56.53273153976892
 21
50.00660769438242
 31
0.0
  0
LINE
  5
3C2
330
1F
100
AcDbEntity
  8
0
100
AcDbLine
 10
-55.60098305193969
 20
50.00660769438242
 30
0.0
 11
-56.06685729585431
 21
50.06794120215545
 31
0.0
  0
LINE
  5
3C3
330
1F
100
AcDbEntity
  8
0
100
AcDbLine
 10
-80.96685530385459
 20
58.31794054214957
 30
0.0
 11
-80.96685530385459
 21
65.11793999814961
 31
0.0
  0
LINE
  5
3C4
330
1F
100
AcDbEntity
  8
0
100
AcDbLine
 10
-89.42818813962802
 20
47.75206710623475
 30
0.0
 11
-89.36685463185508
 21
48.21794135014937
 31
0.0
  0
LINE
  5
3C5
330
1F
100
AcDbEntity
  8
0
100
AcDbLine
 10
-89.60800888575082
 20
47.31794142214938
 30
0.0
 11
-89.42818813962802
 21
47.75206710623475
 31
0.0
  0
LINE
  5
3C6
330
1F
100
AcDbEntity
  8
0
100
AcDbLine
 10
-89.89406238354265
 20
46.94514924583697
 30
0.0
 11
-89.60800888575082
 21
47.31794142214938
 31
0.0
  0
LINE
  5
3C7
330
1F
100
AcDbEntity
  8
0
100
AcDbLine
 10
-51.96685762385432
 20
65.11793999814961
 30
0.0
 11
-51.96685762385432
 21
58.31794054214957
 31
0.0
  0
LINE
  5
3C8
330
1F
100
AcDbEntity
  8
0
100
AcDbLine
 10
-51.96685762385432
 20
58.31794054214957
 30
0.0
 11
-62.36685679185436
 21
58.31794054214966
 31
0.0
  0
LINE
  5
3C9
330
1F
100
AcDbEntity
  8
0
100
AcDbLine
 10
-51.96685762385432
 20
5.217944790149263
 30
0.0
 11
-51.96685762385432
 21
-1.582054665850768
 31
0.0
  0
LINE
  5
3CA
330
1F
100
AcDbEntity
  8
0
100
AcDbLine
 10
-51.96685762385432
 20
-1.582054665850768
 30
0.0
 11
-62.36685679185436
 21
-1.582054665850768
 31
0.0
  0
LINE
  5
3CB
330
1F
100
AcDbEntity
  8
0
100
AcDbLine
 10
-62.36685679185436
 20
65.11793999814961
 30
0.0
 11
-51.96685762385432
 21
65.11793999814961
 31
0.0
  0
LINE
  5
3CC
330
1F
100
AcDbEntity
  8
0
100
AcDbLine
 10
-90.26685455985506
 20
46.65909574804506
 30
0.0
 11
-89.89406238354265
 21
46.94514924583697
 31
0.0
  0
LINE
  5
3CD
330
1F
100
AcDbEntity
  8
0
100
AcDbLine
 10
-90.7009802439404
 20
46.47927500192244
 30
0.0
 11
-90.26685455985506
 21
46.65909574804506
 31
0.0
  0
LINE
  5
3CE
330
1F
100
AcDbEntity
  8
0
100
AcDbLine
 10
-91.16685448785505
 20
46.4179414941494
 30
0.0
 11
-90.7009802439404
 21
46.47927500192244
 31
0.0
  0
LINE
  5
3CF
330
1F
100
AcDbEntity
  8
0
100
AcDbLine
 10
-91.63272873176966
 20
46.47927500192244
 30
0.0
 11
-91.16685448785505
 21
46.4179414941494
 31
0.0
  0
LINE
  5
3D0
330
1F
100
AcDbEntity
  8
0
100
AcDbLine
 10
-92.2280124878827
 20
35.72823823711069
 30
0.0
 11
-93.21685432385495
 21
35.31864653760909
 31
0.0
  0
LINE
  5
3D1
330
1F
100
AcDbEntity
  8
0
100
AcDbLine
 10
-91.16685448785505
 20
35.8679423381493
 30
0.0
 11
-92.2280124878827
 21
35.72823823711069
 31
0.0
  0
LINE
  5
3D2
330
1F
100
AcDbEntity
  8
0
100
AcDbLine
 10
-90.10569648782737
 20
35.72823823711069
 30
0.0
 11
-91.16685448785505
 21
35.8679423381493
 31
0.0
  0
LINE
  5
3D3
330
1F
100
AcDbEntity
  8
0
100
AcDbLine
 10
-89.11685465185477
 20
35.31864653760909
 30
0.0
 11
-90.10569648782737
 21
35.72823823711069
 31
0.0
  0
LINE
  5
3D4
330
1F
100
AcDbEntity
  8
0
100
AcDbLine
 10
-88.26771691692113
 20
34.66708023708307
 30
0.0
 11
-89.11685465185477
 21
35.31864653760909
 31
0.0
  0
LINE
  5
3D5
330
1F
100
AcDbEntity
  8
0
100
AcDbLine
 10
-87.61615061639489
 20
33.81794250214925
 30
0.0
 11
-88.26771691692113
 21
34.66708023708307
 31
0.0
  0
LINE
  5
3D6
330
1F
100
AcDbEntity
  8
0
100
AcDbLine
 10
-62.36685679185436
 20
5.217944790149263
 30
0.0
 11
-51.96685762385432
 21
5.217944790149263
 31
0.0
  0
LINE
  5
3D7
330
1F
100
AcDbEntity
  8
0
100
AcDbLine
 10
-63.2963818825339
 20
-11.23999172256723
 30
0.0
 11
-63.26230771154901
 21
-10.98117269817022
 31
0.0
  0
LINE
  5
3D8
330
1F
100
AcDbEntity
  8
0
100
AcDbLine
 10
-63.2963818825339
 20
-11.23999172256723
 30
0.0
 11
-63.2963818825339
 21
-16.83999127456726
 31
0.0
  0
LINE
  5
3D9
330
1F
100
AcDbEntity
  8
0
100
AcDbLine
 10
-63.2963818825339
 20
-16.83999127456726
 30
0.0
 11
-82.29638036253404
 21
-16.83999127456726
 31
0.0
  0
LINE
  5
3DA
330
1F
100
AcDbEntity
  8
0
100
AcDbLine
 10
-82.29638036253404
 20
-16.83999127456726
 30
0.0
 11
-82.29638036253404
 21
-11.23999172256723
 31
0.0
  0
LINE
  5
3DB
330
1F
100
AcDbEntity
  8
0
100
AcDbLine
 10
-95.12715005881624
 20
30.70678466612169
 30
0.0
 11
-94.71755835931482
 21
29.7179428301493
 31
0.0
  0
LINE
  5
3DC
330
1F
100
AcDbEntity
  8
0
100
AcDbLine
 10
-95.26685415985484
 20
31.76794266614935
 30
0.0
 11
-95.12715005881624
 21
30.70678466612169
 31
0.0
  0
LINE
  5
3DD
330
1F
100
AcDbEntity
  8
0
100
AcDbLine
 10
-95.12715005881624
 20
32.82910066617701
 30
0.0
 11
-95.26685415985484
 21
31.76794266614935
 31
0.0
  0
LINE
  5
3DE
330
1F
100
AcDbEntity
  8
0
100
AcDbLine
 10
-94.71755835931482
 20
33.81794250214925
 30
0.0
 11
-95.12715005881624
 21
32.82910066617701
 31
0.0
  0
LINE
  5
3DF
330
1F
100
AcDbEntity
  8
0
100
AcDbLine
 10
-94.06599205878858
 20
34.66708023708307
 30
0.0
 11
-94.71755835931482
 21
33.81794250214925
 31
0.0
  0
LINE
  5
3E0
330
1F
100
AcDbEntity
  8
0
100
AcDbLine
 10
-93.21685432385495
 20
35.31864653760909
 30
0.0
 11
-94.06599205878858
 21
34.66708023708307
 31
0.0
  0
LINE
  5
3E1
330
1F
100
AcDbEntity
  8
0
100
AcDbLine
 10
-62.36685679185436
 20
58.31794054214966
 30
0.0
 11
-62.36685679185436
 21
65.11793999814961
 31
0.0
  0
LINE
  5
3E2
330
1F
100
AcDbEntity
  8
0
100
AcDbLine
 10
-80.96685530385459
 20
-1.582054665850768
 30
0.0
 11
-91.36685447185499
 21
-1.582054665850768
 31
0.0
  0
LINE
  5
3E3
330
1F
100
AcDbEntity
  8
0
100
AcDbLine
 10
-91.36685447185499
 20
-1.582054665850768
 30
0.0
 11
-91.36685447185499
 21
5.217944790149263
 31
0.0
  0
LINE
  5
3E4
330
1F
100
AcDbEntity
  8
0
100
AcDbLine
 10
-91.36685447185499
 20
5.217944790149263
 30
0.0
 11
-80.96685530385459
 21
5.217944790149263
 31
0.0
  0
LINE
  5
3E5
330
1F
100
AcDbEntity
  8
0
100
AcDbLine
 10
-80.96685530385459
 20
58.31794054214957
 30
0.0
 11
-91.36685447185499
 21
58.31794054214957
 31
0.0
  0
LINE
  5
3E6
330
1F
100
AcDbEntity
  8
0
100
AcDbLine
 10
-91.36685447185499
 20
58.31794054214957
 30
0.0
 11
-91.36685447185499
 21
65.11793999814961
 31
0.0
  0
LINE
  5
3E7
330
1F
100
AcDbEntity
  8
0
100
AcDbLine
 10
-91.36685447185499
 20
65.11793999814961
 30
0.0
 11
-80.96685530385459
 21
65.11793999814961
 31
0.0
  0
LINE
  5
3E8
330
1F
100
AcDbEntity
  8
0
100
AcDbLine
 10
-102.1668536078551
 20
36.25702840139935
 30
0.0
 11
-99.16685384785471
 21
39.25702816139936
 31
0.0
  0
LINE
  5
3E9
330
1F
100
AcDbEntity
  8
0
100
AcDbLine
 10
-102.1668536078551
 20
36.25702840139935
 30
0.0
 11
-102.1668536078551
 21
27.27885693089904
 31
0.0
  0
LINE
  5
3EA
330
1F
100
AcDbEntity
  8
0
100
AcDbLine
 10
-102.1668536078551
 20
27.27885693089904
 30
0.0
 11
-99.16685384785471
 21
24.27885717089897
 31
0.0
  0
LINE
  5
3EB
330
1F
100
AcDbEntity
  8
0
100
AcDbLine
 10
-87.20655891689347
 20
32.82910066617701
 30
0.0
 11
-87.61615061639489
 21
33.81794250214925
 31
0.0
  0
LINE
  5
3EC
330
1F
100
AcDbEntity
  8
0
100
AcDbLine
 10
-87.06685481585485
 20
31.76794266614935
 30
0.0
 11
-87.20655891689347
 21
32.82910066617701
 31
0.0
  0
LINE
  5
3ED
330
1F
100
AcDbEntity
  8
0
100
AcDbLine
 10
-87.61615061639489
 20
29.7179428301493
 30
0.0
 11
-87.20655891689347
 21
30.70678466612169
 31
0.0
  0
LINE
  5
3EE
330
1F
100
AcDbEntity
  8
0
100
AcDbLine
 10
-88.26771691692113
 20
28.86880509521549
 30
0.0
 11
-87.61615061639489
 21
29.7179428301493
 31
0.0
  0
LINE
  5
3EF
330
1F
100
AcDbEntity
  8
0
100
AcDbLine
 10
-99.16685384785471
 20
-6.310619126792747
 30
0.0
 11
-99.16685384785471
 21
24.27885717089897
 31
0.0
  0
LINE
  5
3F0
330
1F
100
AcDbEntity
  8
0
100
AcDbLine
 10
-44.16685824785424
 20
-6.310619126792747
 30
0.0
 11
-99.16685384785471
 21
-6.310619126792747
 31
0.0
  0
LINE
  5
3F1
330
1F
100
AcDbEntity
  8
0
100
AcDbLine
 10
-44.16685824785424
 20
71.71793947014967
 30
0.0
 11
-44.16685824785424
 21
-6.310619126792747
 31
0.0
  0
LINE
  5
3F2
330
1F
100
AcDbEntity
  8
0
100
AcDbLine
 10
-99.16685384785471
 20
71.71793947014967
 30
0.0
 11
-44.16685824785424
 21
71.71793947014967
 31
0.0
  0
LINE
  5
3F3
330
1F
100
AcDbEntity
  8
0
100
AcDbLine
 10
-99.16685384785471
 20
39.25702816139936
 30
0.0
 11
-99.16685384785471
 21
71.71793947014967
 31
0.0
  0
LINE
  5
3F4
330
1F
100
AcDbEntity
  8
0
100
AcDbLine
 10
-87.20655891689347
 20
30.70678466612169
 30
0.0
 11
-87.06685481585485
 21
31.76794266614935
 31
0.0
  0
LINE
  5
3F5
330
1F
100
AcDbEntity
  8
0
100
AcDbLine
 10
-89.11685465185477
 20
28.21723879468942
 30
0.0
 11
-88.26771691692113
 21
28.86880509521549
 31
0.0
  0
LINE
  5
3F6
330
1F
100
AcDbEntity
  8
0
100
AcDbLine
 10
-90.10569648782737
 20
27.80764709518783
 30
0.0
 11
-89.11685465185477
 21
28.21723879468942
 31
0.0
  0
LINE
  5
3F7
330
1F
100
AcDbEntity
  8
0
100
AcDbLine
 10
-91.16685448785505
 20
27.66794299414931
 30
0.0
 11
-90.10569648782737
 21
27.80764709518783
 31
0.0
  0
LINE
  5
3F8
330
1F
100
AcDbEntity
  8
0
100
AcDbLine
 10
-92.2280124878827
 20
27.80764709518783
 30
0.0
 11
-91.16685448785505
 21
27.66794299414931
 31
0.0
  0
LINE
  5
3F9
330
1F
100
AcDbEntity
  8
0
100
AcDbLine
 10
-93.21685432385495
 20
28.21723879468942
 30
0.0
 11
-92.2280124878827
 21
27.80764709518783
 31
0.0
  0
LINE
  5
3FA
330
1F
100
AcDbEntity
  8
0
100
AcDbLine
 10
-94.06599205878858
 20
28.86880509521549
 30
0.0
 11
-93.21685432385495
 21
28.21723879468942
 31
0.0
  0
LINE
  5
3FB
330
1F
100
AcDbEntity
  8
0
100
AcDbLine
 10
-94.71755835931482
 20
29.7179428301493
 30
0.0
 11
-94.06599205878858
 21
28.86880509521549
 31
0.0
  0
LINE
  5
3FC
330
1F
100
AcDbEntity
  8
0
100
AcDbLine
 10
-62.36685679185436
 20
-1.582054665850768
 30
0.0
 11
-62.36685679185436
 21
5.217944790149263
 31
0.0
  0
LINE
  5
3FD
330
1F
100
AcDbEntity
  8
0
100
AcDbLine
 10
-80.96685530385459
 20
-1.582054665850768
 30
0.0
 11
-80.96685530385459
 21
5.217944790149263
 31
0.0
  0
LINE
  5
3FE
330
1F
100
AcDbEntity
  8
0
100
AcDbLine
 10
-92.72570008995926
 20
47.31794142214938
 30
0.0
 11
-92.43964659216743
 21
46.94514924583697
 31
0.0
  0
LINE
  5
3FF
330
1F
100
AcDbEntity
  8
0
100
AcDbLine
 10
-92.90552083608205
 20
47.75206710623475
 30
0.0
 11
-92.72570008995926
 21
47.31794142214938
 31
0.0
  0
LINE
  5
400
330
1F
100
AcDbEntity
  8
0
100
AcDbLine
 10
-92.96685434385499
 20
48.21794135014937
 30
0.0
 11
-92.90552083608205
 21
47.75206710623475
 31
0.0
  0
LINE
  5
401
330
1F
100
AcDbEntity
  8
0
100
AcDbLine
 10
-92.43964659216743
 20
46.94514924583697
 30
0.0
 11
-92.06685441585502
 21
46.65909574804506
 31
0.0
  0
LINE
  5
402
330
1F
100
AcDbEntity
  8
0
100
AcDbLine
 10
-50.03210376608514
 20
55.84634163356765
 30
0.0
 11
-50.41114140577672
 21
55.56861680929786
 31
0.0
  0
LINE
  5
403
330
1F
100
AcDbEntity
  8
0
100
AcDbLine
 10
-49.59410104695238
 20
56.01650105396845
 30
0.0
 11
-50.03210376608514
 21
55.84634163356765
 31
0.0
  0
LINE
  5
404
330
1F
100
AcDbEntity
  8
0
100
AcDbLine
 10
-49.12698240985401
 20
56.06749898720184
 30
0.0
 11
-49.59410104695238
 21
56.01650105396845
 31
0.0
  0
LINE
  5
405
330
1F
100
AcDbEntity
  8
0
100
AcDbLine
 10
-47.58845708043639
 20
55.13318678438041
 30
0.0
 11
-47.86618190470619
 21
55.51222442407217
 31
0.0
  0
LINE
  5
406
330
1F
100
AcDbEntity
  8
0
100
AcDbLine
 10
-89.60800888575082
 20
14.4179440541493
 30
0.0
 11
-89.42818813962802
 21
14.85206973823471
 31
0.0
  0
LINE
  5
407
330
1F
100
AcDbEntity
  8
0
100
AcDbLine
 10
-50.89477699010239
 20
8.76366783625961
 30
0.0
 11
-50.70538317727544
 21
8.333632263333842
 31
0.0
  0
LINE
  5
408
330
1F
100
AcDbEntity
  8
0
100
AcDbLine
 10
-56.53273153976892
 20
17.00661033438348
 30
0.0
 11
-56.96685722385429
 21
16.82678958826082
 31
0.0
  0
LINE
  5
409
330
1F
100
AcDbEntity
  8
0
100
AcDbLine
 10
-56.06685729585431
 20
17.06794384215647
 30
0.0
 11
-56.53273153976892
 21
17.00661033438348
 31
0.0
  0
LINE
  5
40A
330
1F
100
AcDbEntity
  8
0
100
AcDbLine
 10
-55.60098305193969
 20
17.00661033438348
 30
0.0
 11
-56.06685729585431
 21
17.06794384215647
 31
0.0
  0
LINE
  5
40B
330
1F
100
AcDbEntity
  8
0
100
AcDbLine
 10
-55.16685736785432
 20
16.82678958826077
 30
0.0
 11
-55.60098305193969
 21
17.00661033438348
 31
0.0
  0
LINE
  5
40C
330
1F
100
AcDbEntity
  8
0
100
AcDbLine
 10
-91.59637961853397
 20
-46.90601427306985
 30
0.0
 11
-91.3551986829309
 21
-47.00591468758247
 31
0.0
  0
LINE
  5
40D
330
1F
100
AcDbEntity
  8
0
100
AcDbLine
 10
-91.3551986829309
 20
-47.00591468758247
 30
0.0
 11
-91.09637965853389
 21
-47.03998885856745
 31
0.0
  0
LINE
  5
40E
330
1F
100
AcDbEntity
  8
0
100
AcDbLine
 10
-96.29637924253346
 20
-34.13998989056732
 30
0.0
 11
-96.76225348644827
 21
-34.20132339834031
 31
0.0
  0
LINE
  5
40F
330
1F
100
AcDbEntity
  8
0
100
AcDbLine
 10
-51.09638285853335
 20
-35.93998974656737
 30
0.0
 11
-51.03504935076023
 21
-36.405863990482
 31
0.0
  0
LINE
  5
410
330
1F
100
AcDbEntity
  8
0
100
AcDbLine
 10
-62.29638196253394
 20
-10.23999180256723
 30
0.0
 11
-54.29638260253373
 21
-10.23999180256723
 31
0.0
  0
LINE
  5
411
330
1F
100
AcDbEntity
  8
0
100
AcDbLine
 10
-62.55520098693096
 20
-10.27406597355221
 30
0.0
 11
-62.29638196253394
 21
-10.23999180256723
 31
0.0
  0
LINE
  5
412
330
1F
100
AcDbEntity
  8
0
100
AcDbLine
 10
-62.79638192253401
 20
-10.37396638806483
 30
0.0
 11
-62.55520098693096
 21
-10.27406597355221
 31
0.0
  0
LINE
  5
413
330
1F
100
AcDbEntity
  8
0
100
AcDbLine
 10
-63.00348868715199
 20
-10.53288499794922
 30
0.0
 11
-62.79638192253401
 21
-10.37396638806483
 31
0.0
  0
LINE
  5
414
330
1F
100
AcDbEntity
  8
0
100
AcDbLine
 10
-63.1624072970363
 20
-10.73999176256721
 30
0.0
 11
-63.00348868715199
 21
-10.53288499794922
 31
0.0
  0
LINE
  5
415
330
1F
100
AcDbEntity
  8
0
100
AcDbLine
 10
-63.26230771154901
 20
-10.98117269817022
 30
0.0
 11
-63.1624072970363
 21
-10.73999176256721
 31
0.0
  0
LINE
  5
416
330
1F
100
AcDbEntity
  8
0
100
AcDbLine
 10
4.937230237940531
 20
50.21794119015659
 30
0.0
 11
4.557442562702607
 21
50.21794119015659
 31
0.0
  0
ENDSEC
  0
SECTION
  2
OBJECTS
  0
DICTIONARY
  5
C
330
0
100
AcDbDictionary
281
     1
  3
ACAD_GROUP
350
D
  3
ACAD_LAYOUT
350
1A
  3
ACAD_MATERIAL
350
3B
  3
ACAD_MLEADERSTYLE
350
418
  3
ACAD_MLINESTYLE
350
17
  3
ACAD_PLOTSETTINGS
350
19
  3
ACAD_PLOTSTYLENAME
350
E
  3
ACAD_TABLESTYLE
350
417
  3
ACAD_VISUALSTYLE
350
2A
  0
DICTIONARY
  5
D
102
{ACAD_REACTORS
330
C
102
}
330
C
100
AcDbDictionary
281
     1
  0
DICTIONARY
  5
1A
102
{ACAD_REACTORS
330
C
102
}
330
C
100
AcDbDictionary
281
     1
  3
Layout1
350
1E
  3
Layout2
350
26
  3
Model
350
22
  0
DICTIONARY
  5
3B
102
{ACAD_REACTORS
330
C
102
}
330
C
100
AcDbDictionary
281
     1
  3
ByBlock
350
3D
  3
ByLayer
350
3C
  3
Global
350
3E
  0
DICTIONARY
  5
418
102
{ACAD_REACTORS
330
C
102
}
330
C
100
AcDbDictionary
281
     1
  0
DICTIONARY
  5
17
102
{ACAD_REACTORS
330
C
102
}
330
C
100
AcDbDictionary
281
     1
  3
Standard
350
18
  0
DICTIONARY
  5
19
102
{ACAD_REACTORS
330
C
102
}
330
C
100
AcDbDictionary
281
     1
  0
ACDBDICTIONARYWDFLT
  5
E
102
{ACAD_REACTORS
330
C
102
}
330
C
100
AcDbDictionary
281
     1
  3
Normal
350
F
100
AcDbDictionaryWithDefault
340
F
  0
DICTIONARY
  5
417
102
{ACAD_REACTORS
330
C
102
}
330
C
100
AcDbDictionary
281
     1
  0
DICTIONARY
  5
2A
102
{ACAD_REACTORS
330
C
102
}
330
C
100
AcDbDictionary
281
     1
  3
2dWireframe
350
2F
  3
3D Hidden
350
31
  3
3dWireframe
350
30
  3
Basic
350
32
  3
Brighten
350
36
  3
ColorChange
350
3A
  3
Conceptual
350
34
  3
Dim
350
35
  3
Facepattern
350
39
  3
Flat
350
2B
  3
FlatWithEdges
350
2C
  3
Gouraud
350
2D
  3
GouraudWithEdges
350
2E
  3
Linepattern
350
38
  3
Realistic
350
33
  3
Thicken
350
37
  0
LAYOUT
  5
1E
102
{ACAD_REACTORS
330
1A
102
}
330
1A
100
AcDbPlotSettings
  1

  2
none_device
  4

  6

 40
0.0
 41
0.0
 42
0.0
 43
0.0
 44
0.0
 45
0.0
 46
0.0
 47
0.0
 48
0.0
 49
0.0
140
0.0
141
0.0
142
1.0
143
1.0
 70
   688
 72
     0
 73
     0
 74
     5
  7

 75
    16
 76
     0
 77
     2
 78
   300
147
1.0
148
0.0
149
0.0
100
AcDbLayout
  1
Layout1
 70
     1
 71
     1
 10
0.0
 20
0.0
 11
12.0
 21
9.0
 12
0.0
 22
0.0
 32
0.0
 14
1.000000000000000E+20
 24
1.000000000000000E+20
 34
1.000000000000000E+20
 15
-1.000000000000000E+20
 25
-1.000000000000000E+20
 35
-1.000000000000000E+20
146
0.0
 13
0.0
 23
0.0
 33
0.0
 16
1.0
 26
0.0
 36
0.0
 17
0.0
 27
1.0
 37
0.0
 76
     0
330
1B
  0
LAYOUT
  5
26
102
{ACAD_REACTORS
330
1A
102
}
330
1A
100
AcDbPlotSettings
  1

  2
none_device
  4

  6

 40
0.0
 41
0.0
 42
0.0
 43
0.0
 44
0.0
 45
0.0
 46
0.0
 47
0.0
 48
0.0
 49
0.0
140
0.0
141
0.0
142
1.0
143
1.0
 70
   688
 72
     0
 73
     0
 74
     5
  7

 75
    16
 76
     0
 77
     2
 78
   300
147
1.0
148
0.0
149
0.0
100
AcDbLayout
  1
Layout2
 70
     1
 71
     2
 10
0.0
 20
0.0
 11
0.0
 21
0.0
 12
0.0
 22
0.0
 32
0.0
 14
0.0
 24
0.0
 34
0.0
 15
0.0
 25
0.0
 35
0.0
146
0.0
 13
0.0
 23
0.0
 33
0.0
 16
1.0
 26
0.0
 36
0.0
 17
0.0
 27
1.0
 37
0.0
 76
     0
330
23
  0
LAYOUT
  5
22
102
{ACAD_REACTORS
330
1A
102
}
330
1A
100
AcDbPlotSettings
  1

  2
none_device
  4

  6

 40
0.0
 41
0.0
 42
0.0
 43
0.0
 44
0.0
 45
0.0
 46
0.0
 47
0.0
 48
0.0
 49
0.0
140
0.0
141
0.0
142
1.0
143
1.0
 70
  1712
 72
     0
 73
     0
 74
     0
  7

 75
     0
 76
     0
 77
     2
 78
   300
147
1.0
148
0.0
149
0.0
100
AcDbLayout
  1
Model
 70
     1
 71
     0
 10
0.0
 20
0.0
 11
12.0
 21
9.0
 12
0.0
 22
0.0
 32
0.0
 14
1.000000000000000E+20
 24
1.000000000000000E+20
 34
1.000000000000000E+20
 15
-1.000000000000000E+20
 25
-1.000000000000000E+20
 35
-1.000000000000000E+20
146
0.0
 13
0.0
 23
0.0
 33
0.0
 16
1.0
 26
0.0
 36
0.0
 17
0.0
 27
1.0
 37
0.0
 76
     0
330
1F
331
29
  0
MATERIAL
  5
3D
102
{ACAD_REACTORS
330
3B
102
}
330
3B
100
AcDbMaterial
  1
ByBlock
 72
     1
 94
      127
  0
MATERIAL
  5
3C
102
{ACAD_REACTORS
330
3B
102
}
330
3B
100
AcDbMaterial
  1
ByLayer
 72
     1
 94
      127
  0
MATERIAL
  5
3E
102
{ACAD_REACTORS
330
3B
102
}
330
3B
100
AcDbMaterial
  1
Global
 72
     1
 94
      127
  0
MLINESTYLE
  5
18
102
{ACAD_REACTORS
330
17
102
}
330
17
100
AcDbMlineStyle
  2
Standard
 70
     0
  3

 62
   256
 51
90.0
 52
90.0
 71
     2
 49
0.5
 62
   256
  6
BYLAYER
 49
-0.5
 62
   256
  6
BYLAYER
  0
ACDBPLACEHOLDER
  5
F
102
{ACAD_REACTORS
330
E
102
}
330
E
  0
VISUALSTYLE
  5
2F
102
{ACAD_REACTORS
330
2A
102
}
330
2A
100
AcDbVisualStyle
  2
2dWireframe
 70
     4
177
     2
291
     0
 71
     0
176
     1
 72
     2
176
     1
 73
     0
176
     1
 90
        0
176
     1
 40
-0.6
176
     1
 41
-30.0
176
     1
 62
     5
 63
     7
421
 16777215
176
     1
 74
     1
176
     1
 91
        4
176
     1
 64
     7
176
     1
 65
   257
176
     1
 75
     1
176
     1
175
     1
176
     1
 42
1.0
176
     1
 92
        0
176
     1
 66
   257
176
     1
 43
1.0
176
     1
 76
     1
176
     1
 77
     6
176
     1
 78
     2
176
     1
 67
     7
176
     1
 79
     5
176
     1
170
     0
176
     1
171
     0
176
     1
290
     0
176
     1
 93
        1
176
     1
 44
0.0
176
     1
173
     0
176
     1
  0
VISUALSTYLE
  5
31
102
{ACAD_REACTORS
330
2A
102
}
330
2A
100
AcDbVisualStyle
  2
3D Hidden
 70
     6
177
     2
291
     0
 71
     1
176
     1
 72
     2
176
     1
 73
     2
176
     1
 90
        0
176
     1
 40
-0.6
176
     1
 41
-30.0
176
     1
 62
     5
 63
     7
421
 16777215
176
     1
 74
     2
176
     1
 91
        2
176
     1
 64
     7
176
     1
 65
   257
176
     1
 75
     2
176
     1
175
     1
176
     1
 42
40.0
176
     1
 92
        0
176
     1
 66
   257
176
     1
 43
1.0
176
     1
 76
     1
176
     1
 77
     6
176
     1
 78
     2
176
     1
 67
     7
176
     1
 79
     3
176
     1
170
     0
176
     1
171
     0
176
     1
290
     0
176
     1
 93
        1
176
     1
 44
0.0
176
     1
173
     0
176
     1
  0
VISUALSTYLE
  5
30
102
{ACAD_REACTORS
330
2A
102
}
330
2A
100
AcDbVisualStyle
  2
3dWireframe
 70
     5
177
     2
291
     0
 71
     0
176
     1
 72
     2
176
     1
 73
     0
176
     1
 90
        0
176
     1
 40
-0.6
176
     1
 41
-30.0
176
     1
 62
     5
 63
     7
421
 16777215
176
     1
 74
     1
176
     1
 91
        4
176
     1
 64
     7
176
     1
 65
   257
176
     1
 75
     1
176
     1
175
     1
176
     1
 42
1.0
176
     1
 92
        0
176
     1
 66
   257
176
     1
 43
1.0
176
     1
 76
     1
176
     1
 77
     6
176
     1
 78
     2
176
     1
 67
     7
176
     1
 79
     5
176
     1
170
     0
176
     1
171
     0
176
     1
290
     0
176
     1
 93
        1
176
     1
 44
0.0
176
     1
173
     0
176
     1
  0
VISUALSTYLE
  5
32
102
{ACAD_REACTORS
330
2A
102
}
330
2A
100
AcDbVisualStyle
  2
Basic
 70
     7
177
     2
291
     1
 71
     1
176
     1
 72
     0
176
     1
 73
     1
176
     1
 90
        0
176
     1
 40
-0.6
176
     1
 41
-30.0
176
     1
 62
     5
 63
     7
421
 16777215
176
     1
 74
     0
176
     1
 91
        4
176
     1
 64
     7
176
     1
 65
   257
176
     1
 75
     1
176
     1
175
     1
176
     1
 42
1.0
176
     1
 92
        8
176
     1
 66
     7
176
     1
 43
1.0
176
     1
 76
     1
176
     1
 77
     6
176
     1
 78
     2
176
     1
 67
     7
176
     1
 79
     5
176
     1
170
     0
176
     1
171
     0
176
     1
290
     0
176
     1
 93
        1
176
     1
 44
0.0
176
     1
173
     0
176
     1
  0
VISUALSTYLE
  5
36
102
{ACAD_REACTORS
330
2A
102
}
330
2A
100
AcDbVisualStyle
  2
Brighten
 70
    12
177
     2
291
     1
 71
     2
176
     1
 72
     2
176
     1
 73
     0
176
     1
 90
        0
176
     1
 40
-0.6
176
     1
 41
-30.0
176
     1
 62
     5
 63
     7
421
 16777215
176
     1
 74
     1
176
     1
 91
        4
176
     1
 64
     7
176
     1
 65
   257
176
     1
 75
     1
176
     1
175
     1
176
     1
 42
1.0
176
     1
 92
        8
176
     1
 66
     7
176
     1
 43
1.0
176
     1
 76
     1
176
     1
 77
     6
176
     1
 78
     2
176
     1
 67
     7
176
     1
 79
     5
176
     1
170
     0
176
     1
171
     0
176
     1
290
     0
176
     1
 93
        1
176
     1
 44
50.0
176
     1
173
     0
176
     1
  0
VISUALSTYLE
  5
3A
102
{ACAD_REACTORS
330
2A
102
}
330
2A
100
AcDbVisualStyle
  2
ColorChange
 70
    16
177
     2
291
     1
 71
     2
176
     1
 72
     2
176
     1
 73
     3
176
     1
 90
        0
176
     1
 40
-0.6
176
     1
 41
-30.0
176
     1
 62
     5
 63
     8
421
  8421504
176
     1
 74
     1
176
     1
 91
        4
176
     1
 64
     7
176
     1
 65
   257
176
     1
 75
     1
176
     1
175
     1
176
     1
 42
1.0
176
     1
 92
        8
176
     1
 66
     8
424
  8421504
176
     1
 43
1.0
176
     1
 76
     1
176
     1
 77
     6
176
     1
 78
     2
176
     1
 67
     7
176
     1
 79
     5
176
     1
170
     0
176
     1
171
     0
176
     1
290
     0
176
     1
 93
        1
176
     1
 44
0.0
176
     1
173
     0
176
     1
  0
VISUALSTYLE
  5
34
102
{ACAD_REACTORS
330
2A
102
}
330
2A
100
AcDbVisualStyle
  2
Conceptual
 70
     9
177
     2
291
     0
 71
     3
176
     1
 72
     2
176
     1
 73
     0
176
     1
 90
        0
176
     1
 40
-0.6
176
     1
 41
-30.0
176
     1
 62
     5
 63
     7
421
 16777215
176
     1
 74
     2
176
     1
 91
        2
176
     1
 64
     7
176
     1
 65
   257
176
     1
 75
     1
176
     1
175
     1
176
     1
 42
40.0
176
     1
 92
        8
176
     1
 66
     7
176
     1
 43
1.0
176
     1
 76
     1
176
     1
 77
     6
176
     1
 78
     2
176
     1
 67
     7
176
     1
 79
     3
176
     1
170
     0
176
     1
171
     0
176
     1
290
     0
176
     1
 93
        1
176
     1
 44
0.0
176
     1
173
     0
176
     1
  0
VISUALSTYLE
  5
35
102
{ACAD_REACTORS
330
2A
102
}
330
2A
100
AcDbVisualStyle
  2
Dim
 70
    11
177
     2
291
     1
 71
     2
176
     1
 72
     2
176
     1
 73
     0
176
     1
 90
        0
176
     1
 40
-0.6
176
     1
 41
-30.0
176
     1
 62
     5
 63
     7
421
 16777215
176
     1
 74
     1
176
     1
 91
        4
176
     1
 64
     7
176
     1
 65
   257
176
     1
 75
     1
176
     1
175
     1
176
     1
 42
1.0
176
     1
 92
        8
176
     1
 66
     7
176
     1
 43
1.0
176
     1
 76
     1
176
     1
 77
     6
176
     1
 78
     2
176
     1
 67
     7
176
     1
 79
     5
176
     1
170
     0
176
     1
171
     0
176
     1
290
     0
176
     1
 93
        1
176
     1
 44
-50.0
176
     1
173
     0
176
     1
  0
VISUALSTYLE
  5
39
102
{ACAD_REACTORS
330
2A
102
}
330
2A
100
AcDbVisualStyle
  2
Facepattern
 70
    15
177
     2
291
     1
 71
     2
176
     1
 72
     2
176
     1
 73
     0
176
     1
 90
        0
176
     1
 40
-0.6
176
     1
 41
-30.0
176
     1
 62
     5
 63
     7
421
 16777215
176
     1
 74
     1
176
     1
 91
        4
176
     1
 64
     7
176
     1
 65
   257
176
     1
 75
     1
176
     1
175
     1
176
     1
 42
1.0
176
     1
 92
        8
176
     1
 66
     7
176
     1
 43
1.0
176
     1
 76
     1
176
     1
 77
     6
176
     1
 78
     2
176
     1
 67
     7
176
     1
 79
     5
176
     1
170
     0
176
     1
171
     0
176
     1
290
     0
176
     1
 93
        1
176
     1
 44
0.0
176
     1
173
     0
176
     1
  0
VISUALSTYLE
  5
2B
102
{ACAD_REACTORS
330
2A
102
}
330
2A
100
AcDbVisualStyle
  2
Flat
 70
     0
177
     2
291
     1
 71
     2
176
     1
 72
     1
176
     1
 73
     1
176
     1
 90
        2
176
     1
 40
-0.6
176
     1
 41
30.0
176
     1
 62
     5
 63
     7
421
 16777215
176
     1
 74
     0
176
     1
 91
        4
176
     1
 64
     7
176
     1
 65
   257
176
     1
 75
     1
176
     1
175
     1
176
     1
 42
1.0
176
     1
 92
        8
176
     1
 66
     7
176
     1
 43
1.0
176
     1
 76
     1
176
     1
 77
     6
176
     1
 78
     2
176
     1
 67
     7
176
     1
 79
     5
176
     1
170
     0
176
     1
171
     0
176
     1
290
     0
176
     1
 93
       13
176
     1
 44
0.0
176
     1
173
     0
176
     1
  0
VISUALSTYLE
  5
2C
102
{ACAD_REACTORS
330
2A
102
}
330
2A
100
AcDbVisualStyle
  2
FlatWithEdges
 70
     1
177
     2
291
     1
 71
     2
176
     1
 72
     1
176
     1
 73
     1
176
     1
 90
        2
176
     1
 40
-0.6
176
     1
 41
30.0
176
     1
 62
     5
 63
     7
421
 16777215
176
     1
 74
     1
176
     1
 91
        4
176
     1
 64
     7
176
     1
 65
   257
176
     1
 75
     1
176
     1
175
     1
176
     1
 42
1.0
176
     1
 92
        0
176
     1
 66
   257
176
     1
 43
1.0
176
     1
 76
     1
176
     1
 77
     6
176
     1
 78
     2
176
     1
 67
     7
176
     1
 79
     5
176
     1
170
     0
176
     1
171
     0
176
     1
290
     0
176
     1
 93
       13
176
     1
 44
0.0
176
     1
173
     0
176
     1
  0
VISUALSTYLE
  5
2D
102
{ACAD_REACTORS
330
2A
102
}
330
2A
100
AcDbVisualStyle
  2
Gouraud
 70
     2
177
     2
291
     1
 71
     2
176
     1
 72
     2
176
     1
 73
     1
176
     1
 90
        2
176
     1
 40
-0.6
176
     1
 41
30.0
176
     1
 62
     5
 63
     7
421
 16777215
176
     1
 74
     0
176
     1
 91
        4
176
     1
 64
     7
176
     1
 65
   257
176
     1
 75
     1
176
     1
175
     1
176
     1
 42
1.0
176
     1
 92
        0
176
     1
 66
     7
176
     1
 43
1.0
176
     1
 76
     1
176
     1
 77
     6
176
     1
 78
     2
176
     1
 67
     7
176
     1
 79
     5
176
     1
170
     0
176
     1
171
     0
176
     1
290
     0
176
     1
 93
       13
176
     1
 44
0.0
176
     1
173
     0
176
     1
  0
VISUALSTYLE
  5
2E
102
{ACAD_REACTORS
330
2A
102
}
330
2A
100
AcDbVisualStyle
  2
GouraudWithEdges
 70
     3
177
     2
291
     1
 71
     2
176
     1
 72
     2
176
     1
 73
     1
176
     1
 90
        2
176
     1
 40
-0.6
176
     1
 41
30.0
176
     1
 62
     5
 63
     7
421
 16777215
176
     1
 74
     1
176
     1
 91
        4
176
     1
 64
     7
176
     1
 65
   257
176
     1
 75
     1
176
     1
175
     1
176
     1
 42
1.0
176
     1
 92
        0
176
     1
 66
   257
176
     1
 43
1.0
176
     1
 76
     1
176
     1
 77
     6
176
     1
 78
     2
176
     1
 67
     7
176
     1
 79
     5
176
     1
170
     0
176
     1
171
     0
176
     1
290
     0
176
     1
 93
       13
176
     1
 44
0.0
176
     1
173
     0
176
     1
  0
VISUALSTYLE
  5
38
102
{ACAD_REACTORS
330
2A
102
}
330
2A
100
AcDbVisualStyle
  2
Linepattern
 70
    14
177
     2
291
     1
 71
     2
176
     1
 72
     2
176
     1
 73
     0
176
     1
 90
        0
176
     1
 40
-0.6
176
     1
 41
-30.0
176
     1
 62
     5
 63
     7
421
 16777215
176
     1
 74
     1
176
     1
 91
        4
176
     1
 64
     7
176
     1
 65
   257
176
     1
 75
     7
176
     1
175
     7
176
     1
 42
1.0
176
     1
 92
        8
176
     1
 66
     7
176
     1
 43
1.0
176
     1
 76
     1
176
     1
 77
     6
176
     1
 78
     2
176
     1
 67
     7
176
     1
 79
     5
176
     1
170
     0
176
     1
171
     0
176
     1
290
     0
176
     1
 93
        1
176
     1
 44
0.0
176
     1
173
     0
176
     1
  0
VISUALSTYLE
  5
33
102
{ACAD_REACTORS
330
2A
102
}
330
2A
100
AcDbVisualStyle
  2
Realistic
 70
     8
177
     2
291
     0
 71
     2
176
     1
 72
     2
176
     1
 73
     0
176
     1
 90
        0
176
     1
 40
-0.6
176
     1
 41
-30.0
176
     1
 62
     5
 63
     7
421
 16777215
176
     1
 74
     1
176
     1
 91
        0
176
     1
 64
     7
176
     1
 65
   257
176
     1
 75
     1
176
     1
175
     1
176
     1
 42
1.0
176
     1
 92
        8
176
     1
 66
     8
424
  7895160
176
     1
 43
1.0
176
     1
 76
     1
176
     1
 77
     6
176
     1
 78
     2
176
     1
 67
     7
176
     1
 79
     5
176
     1
170
     0
176
     1
171
     0
176
     1
290
     0
176
     1
 93
       13
176
     1
 44
0.0
176
     1
173
     0
176
     1
  0
VISUALSTYLE
  5
37
102
{ACAD_REACTORS
330
2A
102
}
330
2A
100
AcDbVisualStyle
  2
Thicken
 70
    13
177
     2
291
     1
 71
     2
176
     1
 72
     2
176
     1
 73
     0
176
     1
 90
        0
176
     1
 40
-0.6
176
     1
 41
-30.0
176
     1
 62
     5
 63
     7
421
 16777215
176
     1
 74
     1
176
     1
 91
        4
176
     1
 64
     7
176
     1
 65
   257
176
     1
 75
     1
176
     1
175
     1
176
     1
 42
1.0
176
     1
 92
       12
176
     1
 66
     7
176
     1
 43
1.0
176
     1
 76
     1
176
     1
 77
     6
176
     1
 78
     2
176
     1
 67
     7
176
     1
 79
     5
176
     1
170
     0
176
     1
171
     0
176
     1
290
     0
176
     1
 93
        1
176
     1
 44
0.0
176
     1
173
     0
176
     1
  0
ENDSEC
  0
EOF
