  0
SECTION
  2
HEADER
  9
$ACADVER
  1
AC1024
  9
$ACADMAINTVER
 70
     6
  9
$DWGCODEPAGE
  3
ANSI_1252
  9
$INSBASE
 10
0.0
 20
0.0
 30
0.0
  9
$EXTMIN
 10
1.000000000000000E+20
 20
1.000000000000000E+20
 30
1.000000000000000E+20
  9
$EXTMAX
 10
-1.000000000000000E+20
 20
-1.000000000000000E+20
 30
-1.000000000000000E+20
  9
$LIMMIN
 10
0.0
 20
0.0
  9
$LIMMAX
 10
12.0
 20
9.0
  9
$ORTHOMODE
 70
     0
  9
$REGENMODE
 70
     1
  9
$FILLMODE
 70
     1
  9
$QTEXTMODE
 70
     0
  9
$MIRRTEXT
 70
     1
  9
$LTSCALE
 40
1.0
  9
$ATTMODE
 70
     1
  9
$TEXTSIZE
 40
0.2
  9
$TRACEWID
 40
0.05
  9
$TEXTSTYLE
  7
Standard
  9
$CLAYER
  8
0
  9
$CELTYPE
  6
ByLayer
  9
$CECOLOR
 62
   256
  9
$CELTSCALE
 40
1.0
  9
$DISPSILH
 70
     0
  9
$DIMSCALE
 40
1.0
  9
$DIMASZ
 40
0.18
  9
$DIMEXO
 40
0.0625
  9
$DIMDLI
 40
0.38
  9
$DIMRND
 40
0.0
  9
$DIMDLE
 40
0.0
  9
$DIMEXE
 40
0.18
  9
$DIMTP
 40
0.0
  9
$DIMTM
 40
0.0
  9
$DIMTXT
 40
0.18
  9
$DIMCEN
 40
0.09
  9
$DIMTSZ
 40
0.0
  9
$DIMTOL
 70
     0
  9
$DIMLIM
 70
     0
  9
$DIMTIH
 70
     1
  9
$DIMTOH
 70
     1
  9
$DIMSE1
 70
     0
  9
$DIMSE2
 70
     0
  9
$DIMTAD
 70
     0
  9
$DIMZIN
 70
     0
  9
$DIMBLK
  1

  9
$DIMASO
 70
     1
  9
$DIMSHO
 70
     1
  9
$DIMPOST
  1

  9
$DIMAPOST
  1

  9
$DIMALT
 70
     0
  9
$DIMALTD
 70
     2
  9
$DIMALTF
 40
25.4
  9
$DIMLFAC
 40
1.0
  9
$DIMTOFL
 70
     0
  9
$DIMTVP
 40
0.0
  9
$DIMTIX
 70
     0
  9
$DIMSOXD
 70
     0
  9
$DIMSAH
 70
     0
  9
$DIMBLK1
  1

  9
$DIMBLK2
  1

  9
$DIMSTYLE
  2
Standard
  9
$DIMCLRD
 70
     0
  9
$DIMCLRE
 70
     0
  9
$DIMCLRT
 70
     0
  9
$DIMTFAC
 40
1.0
  9
$DIMGAP
 40
0.09
  9
$DIMJUST
 70
     0
  9
$DIMSD1
 70
     0
  9
$DIMSD2
 70
     0
  9
$DIMTOLJ
 70
     1
  9
$DIMTZIN
 70
     0
  9
$DIMALTZ
 70
     0
  9
$DIMALTTZ
 70
     0
  9
$DIMUPT
 70
     0
  9
$DIMDEC
 70
     4
  9
$DIMTDEC
 70
     4
  9
$DIMALTU
 70
     2
  9
$DIMALTTD
 70
     2
  9
$DIMTXSTY
  7
Standard
  9
$DIMAUNIT
 70
     0
  9
$DIMADEC
 70
     0
  9
$DIMALTRND
 40
0.0
  9
$DIMAZIN
 70
     0
  9
$DIMDSEP
 70
    46
  9
$DIMATFIT
 70
     3
  9
$DIMFRAC
 70
     0
  9
$DIMLDRBLK
  1

  9
$DIMLUNIT
 70
     2
  9
$DIMLWD
 70
    -2
  9
$DIMLWE
 70
    -2
  9
$DIMTMOVE
 70
     0
  9
$DIMFXL
 40
1.0
  9
$DIMFXLON
 70
     0
  9
$DIMJOGANG
 40
0.7853981633974483
  9
$DIMTFILL
 70
     0
  9
$DIMTFILLCLR
 70
     0
  9
$DIMARCSYM
 70
     0
  9
$DIMLTYPE
  6

  9
$DIMLTEX1
  6

  9
$DIMLTEX2
  6

  9
$DIMTXTDIRECTION
 70
     0
  9
$LUNITS
 70
     2
  9
$LUPREC
 70
     4
  9
$SKETCHINC
 40
0.1
  9
$FILLETRAD
 40
0.5
  9
$AUNITS
 70
     0
  9
$AUPREC
 70
     0
  9
$MENU
  1
.
  9
$ELEVATION
 40
0.0
  9
$PELEVATION
 40
0.0
  9
$THICKNESS
 40
0.0
  9
$LIMCHECK
 70
     0
  9
$CHAMFERA
 40
0.5
  9
$CHAMFERB
 40
0.5
  9
$CHAMFERC
 40
1.0
  9
$CHAMFERD
 40
0.0
  9
$SKPOLY
 70
     0
  9
$TDCREATE
 40
2456396.373949873
  9
$TDUCREATE
 40
2456396.540616539
  9
$TDUPDATE
 40
2456396.373949884
  9
$TDUUPDATE
 40
2456396.540616551
  9
$TDINDWG
 40
0.0000000116
  9
$TDUSRTIMER
 40
0.0000000116
  9
$USRTIMER
 70
     1
  9
$ANGBASE
 50
0.0
  9
$ANGDIR
 70
     0
  9
$PDMODE
 70
     0
  9
$PDSIZE
 40
0.0
  9
$PLINEWID
 40
0.0
  9
$SPLFRAME
 70
     0
  9
$SPLINETYPE
 70
     6
  9
$SPLINESEGS
 70
     8
  9
$HANDSEED
  5
400
  9
$SURFTAB1
 70
     6
  9
$SURFTAB2
 70
     6
  9
$SURFTYPE
 70
     6
  9
$SURFU
 70
     6
  9
$SURFV
 70
     6
  9
$UCSBASE
  2

  9
$UCSNAME
  2

  9
$UCSORG
 10
0.0
 20
0.0
 30
0.0
  9
$UCSXDIR
 10
1.0
 20
0.0
 30
0.0
  9
$UCSYDIR
 10
0.0
 20
1.0
 30
0.0
  9
$UCSORTHOREF
  2

  9
$UCSORTHOVIEW
 70
     0
  9
$UCSORGTOP
 10
0.0
 20
0.0
 30
0.0
  9
$UCSORGBOTTOM
 10
0.0
 20
0.0
 30
0.0
  9
$UCSORGLEFT
 10
0.0
 20
0.0
 30
0.0
  9
$UCSORGRIGHT
 10
0.0
 20
0.0
 30
0.0
  9
$UCSORGFRONT
 10
0.0
 20
0.0
 30
0.0
  9
$UCSORGBACK
 10
0.0
 20
0.0
 30
0.0
  9
$PUCSBASE
  2

  9
$PUCSNAME
  2

  9
$PUCSORG
 10
0.0
 20
0.0
 30
0.0
  9
$PUCSXDIR
 10
1.0
 20
0.0
 30
0.0
  9
$PUCSYDIR
 10
0.0
 20
1.0
 30
0.0
  9
$PUCSORTHOREF
  2

  9
$PUCSORTHOVIEW
 70
     0
  9
$PUCSORGTOP
 10
0.0
 20
0.0
 30
0.0
  9
$PUCSORGBOTTOM
 10
0.0
 20
0.0
 30
0.0
  9
$PUCSORGLEFT
 10
0.0
 20
0.0
 30
0.0
  9
$PUCSORGRIGHT
 10
0.0
 20
0.0
 30
0.0
  9
$PUCSORGFRONT
 10
0.0
 20
0.0
 30
0.0
  9
$PUCSORGBACK
 10
0.0
 20
0.0
 30
0.0
  9
$USERI1
 70
     0
  9
$USERI2
 70
     0
  9
$USERI3
 70
     0
  9
$USERI4
 70
     0
  9
$USERI5
 70
     0
  9
$USERR1
 40
0.0
  9
$USERR2
 40
0.0
  9
$USERR3
 40
0.0
  9
$USERR4
 40
0.0
  9
$USERR5
 40
0.0
  9
$WORLDVIEW
 70
     1
  9
$SHADEDGE
 70
     3
  9
$SHADEDIF
 70
    70
  9
$TILEMODE
 70
     1
  9
$MAXACTVP
 70
    64
  9
$PINSBASE
 10
0.0
 20
0.0
 30
0.0
  9
$PLIMCHECK
 70
     0
  9
$PEXTMIN
 10
1.000000000000000E+20
 20
1.000000000000000E+20
 30
1.000000000000000E+20
  9
$PEXTMAX
 10
-1.000000000000000E+20
 20
-1.000000000000000E+20
 30
-1.000000000000000E+20
  9
$PLIMMIN
 10
0.0
 20
0.0
  9
$PLIMMAX
 10
12.0
 20
9.0
  9
$UNITMODE
 70
     0
  9
$VISRETAIN
 70
     1
  9
$PLINEGEN
 70
     0
  9
$PSLTSCALE
 70
     1
  9
$TREEDEPTH
 70
  3020
  9
$CMLSTYLE
  2
Standard
  9
$CMLJUST
 70
     0
  9
$CMLSCALE
 40
1.0
  9
$PROXYGRAPHICS
 70
     1
  9
$MEASUREMENT
 70
     0
  9
$CELWEIGHT
370
    -1
  9
$ENDCAPS
280
     0
  9
$JOINSTYLE
280
     0
  9
$LWDISPLAY
290
     0
  9
$INSUNITS
 70
     1
  9
$HYPERLINKBASE
  1

  9
$STYLESHEET
  1

  9
$XEDIT
290
     1
  9
$CEPSNTYPE
380
     0
  9
$PSTYLEMODE
290
     1
  9
$FINGERPRINTGUID
  2
{6EEED358-DA21-4518-9BD3-67AD59B11350}
  9
$VERSIONGUID
  2
{FAEB1C32-E019-11D5-929B-00C0DF256EC4}
  9
$EXTNAMES
290
     1
  9
$PSVPSCALE
 40
0.0
  9
$OLESTARTUP
290
     0
  9
$SORTENTS
280
   127
  9
$INDEXCTL
280
     0
  9
$HIDETEXT
280
     1
  9
$XCLIPFRAME
280
     2
  9
$HALOGAP
280
     0
  9
$OBSCOLOR
 70
   257
  9
$OBSLTYPE
280
     0
  9
$INTERSECTIONDISPLAY
280
     0
  9
$INTERSECTIONCOLOR
 70
   257
  9
$DIMASSOC
280
     2
  9
$PROJECTNAME
  1

  9
$CAMERADISPLAY
290
     0
  9
$LENSLENGTH
 40
50.0
  9
$CAMERAHEIGHT
 40
0.0
  9
$STEPSPERSEC
 40
2.0
  9
$STEPSIZE
 40
6.0
  9
$3DDWFPREC
 40
2.0
  9
$PSOLWIDTH
 40
0.25
  9
$PSOLHEIGHT
 40
4.0
  9
$LOFTANG1
 40
1.570796326794897
  9
$LOFTANG2
 40
1.570796326794897
  9
$LOFTMAG1
 40
0.0
  9
$LOFTMAG2
 40
0.0
  9
$LOFTPARAM
 70
     7
  9
$LOFTNORMALS
280
     1
  9
$LATITUDE
 40
37.795
  9
$LONGITUDE
 40
-122.394
  9
$NORTHDIRECTION
 40
0.0
  9
$TIMEZONE
 70
 -8000
  9
$LIGHTGLYPHDISPLAY
280
     1
  9
$TILEMODELIGHTSYNCH
280
     1
  9
$SOLIDHIST
280
     1
  9
$SHOWHIST
280
     1
  9
$DWFFRAME
280
     2
  9
$DGNFRAME
280
     2
  9
$REALWORLDSCALE
290
     1
  9
$INTERFERECOLOR
 62
   256
  9
$CSHADOW
280
     0
  9
$SHADOWPLANELOCATION
 40
0.0
  0
ENDSEC
  0
SECTION
  2
CLASSES
  0
CLASS
  1
ACDBDICTIONARYWDFLT
  2
AcDbDictionaryWithDefault
  3
ObjectDBX Classes
 90
        0
 91
        4
280
     0
281
     0
  0
CLASS
  1
VISUALSTYLE
  2
AcDbVisualStyle
  3
ObjectDBX Classes
 90
     4095
 91
        4
280
     0
281
     0
  0
CLASS
  1
MATERIAL
  2
AcDbMaterial
  3
ObjectDBX Classes
 90
     1153
 91
        4
280
     0
281
     0
  0
ENDSEC
  0
SECTION
  2
TABLES
  0
TABLE
  2
VPORT
  5
8
330
0
100
AcDbSymbolTable
 70
     1
  0
VPORT
  5
29
330
8
100
AcDbSymbolTableRecord
100
AcDbViewportTableRecord
  2
*Active
 70
     0
 10
0.0
 20
0.0
 11
1.0
 21
1.0
 12
0.0
 22
0.0
 13
0.0
 23
0.0
 14
0.5
 24
0.5
 15
0.5
 25
0.5
 16
0.0
 26
0.0
 36
1.0
 17
0.0
 27
0.0
 37
-1000.0
 40
258.183384568587
 41
1.822857142857143
 42
50.0
 43
3985.455138884457
 44
4899.051834179137
 50
0.0
 51
0.0
 71
     0
 72
   100
 73
     1
 74
     3
 75
     0
 76
     0
 77
     0
 78
     0
281
     0
 65
     1
110
0.0
120
0.0
130
0.0
111
1.0
121
0.0
131
0.0
112
0.0
122
1.0
132
0.0
 79
     0
146
0.0
 60
     3
 61
     5
292
     1
282
     1
141
0.0
142
0.0
 63
   250
  0
ENDTAB
  0
TABLE
  2
LTYPE
  5
5
330
0
100
AcDbSymbolTable
 70
     1
  0
LTYPE
  5
14
330
5
100
AcDbSymbolTableRecord
100
AcDbLinetypeTableRecord
  2
ByBlock
 70
     0
  3

 72
    65
 73
     0
 40
0.0
  0
LTYPE
  5
15
330
5
100
AcDbSymbolTableRecord
100
AcDbLinetypeTableRecord
  2
ByLayer
 70
     0
  3

 72
    65
 73
     0
 40
0.0
  0
LTYPE
  5
16
330
5
100
AcDbSymbolTableRecord
100
AcDbLinetypeTableRecord
  2
Continuous
 70
     0
  3
Solid line
 72
    65
 73
     0
 40
0.0
  0
ENDTAB
  0
TABLE
  2
LAYER
  5
2
330
0
100
AcDbSymbolTable
 70
     3
  0
LAYER
  5
10
330
2
100
AcDbSymbolTableRecord
100
AcDbLayerTableRecord
  2
0
 70
     0
 62
     7
  6
Continuous
370
    -3
390
F
347
3E
  0
LAYER
  5
3F
330
2
100
AcDbSymbolTableRecord
100
AcDbLayerTableRecord
  2
ProfileEdges
 70
     0
 62
     7
  6
Continuous
370
    -3
390
F
347
3E
  0
LAYER
  5
40
330
2
100
AcDbSymbolTableRecord
100
AcDbLayerTableRecord
  2
SectionCutEdges
 70
     0
 62
     7
  6
Continuous
370
    -3
390
F
347
3E
  0
ENDTAB
  0
TABLE
  2
STYLE
  5
3
330
0
100
AcDbSymbolTable
 70
     1
  0
STYLE
  5
11
330
3
100
AcDbSymbolTableRecord
100
AcDbTextStyleTableRecord
  2
Standard
 70
     0
 40
0.0
 41
1.0
 50
0.0
 71
     0
 42
0.2
  3
txt
  4

  0
ENDTAB
  0
TABLE
  2
VIEW
  5
6
330
0
100
AcDbSymbolTable
 70
     0
  0
ENDTAB
  0
TABLE
  2
UCS
  5
7
330
0
100
AcDbSymbolTable
 70
     0
  0
ENDTAB
  0
TABLE
  2
APPID
  5
9
330
0
100
AcDbSymbolTable
 70
     1
  0
APPID
  5
12
330
9
100
AcDbSymbolTableRecord
100
AcDbRegAppTableRecord
  2
ACAD
 70
     0
  0
ENDTAB
  0
TABLE
  2
DIMSTYLE
  5
A
330
0
100
AcDbSymbolTable
 70
     1
100
AcDbDimStyleTable
  0
DIMSTYLE
105
27
330
A
100
AcDbSymbolTableRecord
100
AcDbDimStyleTableRecord
  2
Standard
 70
     0
340
11
  0
ENDTAB
  0
TABLE
  2
BLOCK_RECORD
  5
1
330
0
100
AcDbSymbolTable
 70
     1
  0
BLOCK_RECORD
  5
1F
330
1
100
AcDbSymbolTableRecord
100
AcDbBlockTableRecord
  2
*Model_Space
340
22
 70
     0
280
     1
281
     0
  0
BLOCK_RECORD
  5
1B
330
1
100
AcDbSymbolTableRecord
100
AcDbBlockTableRecord
  2
*Paper_Space
340
1E
 70
     0
280
     1
281
     0
  0
BLOCK_RECORD
  5
23
330
1
100
AcDbSymbolTableRecord
100
AcDbBlockTableRecord
  2
*Paper_Space0
340
26
 70
     0
280
     1
281
     0
  0
ENDTAB
  0
ENDSEC
  0
SECTION
  2
BLOCKS
  0
BLOCK
  5
20
330
1F
100
AcDbEntity
  8
0
100
AcDbBlockBegin
  2
*Model_Space
 70
     0
 10
0.0
 20
0.0
 30
0.0
  3
*Model_Space
  1

  0
ENDBLK
  5
21
330
1F
100
AcDbEntity
  8
0
100
AcDbBlockEnd
  0
BLOCK
  5
1C
330
1B
100
AcDbEntity
 67
     1
  8
0
100
AcDbBlockBegin
  2
*Paper_Space
 70
     0
 10
0.0
 20
0.0
 30
0.0
  3
*Paper_Space
  1

  0
ENDBLK
  5
1D
330
1B
100
AcDbEntity
 67
     1
  8
0
100
AcDbBlockEnd
  0
BLOCK
  5
24
330
23
100
AcDbEntity
  8
0
100
AcDbBlockBegin
  2
*Paper_Space0
 70
     0
 10
0.0
 20
0.0
 30
0.0
  3
*Paper_Space0
  1

  0
ENDBLK
  5
25
330
23
100
AcDbEntity
  8
0
100
AcDbBlockEnd
  0
ENDSEC
  0
SECTION
  2
ENTITIES
  0
LINE
  5
41
330
1F
100
AcDbEntity
  8
0
100
AcDbLine
 10
-2.69332991140938
 20
-91.43661064760013
 30
0.0
 11
-2.452148975806412
 21
-91.33671023308753
 31
0.0
  0
LINE
  5
42
330
1F
100
AcDbEntity
  8
0
100
AcDbLine
 10
52.43397974011405
 20
21.86662136243176
 30
0.0
 11
52.84357143961564
 21
22.85546319840414
 31
0.0
  0
LINE
  5
43
330
1F
100
AcDbEntity
  8
0
100
AcDbLine
 10
-20.16442298281927
 20
-78.81184010448064
 30
0.0
 11
-20.59854866690473
 21
-78.63201935835798
 31
0.0
  0
LINE
  5
44
330
1F
100
AcDbEntity
  8
0
100
AcDbLine
 10
-19.79163080650686
 20
-79.0978936022726
 30
0.0
 11
-20.16442298281927
 21
-78.81184010448064
 31
0.0
  0
LINE
  5
45
330
1F
100
AcDbEntity
  8
0
100
AcDbLine
 10
-47.79459136305979
 20
45.55137348020028
 30
0.0
 11
-47.51686653879
 21
45.17233584050852
 31
0.0
  0
LINE
  5
46
330
1F
100
AcDbEntity
  8
0
100
AcDbLine
 10
-47.51686653879
 20
45.17233584050852
 30
0.0
 11
-47.15050279846331
 21
44.8780940690134
 31
0.0
  0
LINE
  5
47
330
1F
100
AcDbEntity
  8
0
100
AcDbLine
 10
-47.15050279846331
 20
44.8780940690134
 30
0.0
 11
-46.72046722553826
 21
44.68870025618483
 31
0.0
  0
LINE
  5
48
330
1F
100
AcDbEntity
  8
0
100
AcDbLine
 10
-46.72046722553826
 20
44.68870025618483
 30
0.0
 11
-46.25606603364235
 21
44.61706127737884
 31
0.0
  0
LINE
  5
49
330
1F
100
AcDbEntity
  8
0
100
AcDbLine
 10
-46.25606603364235
 20
44.61706127737884
 30
0.0
 11
-45.78894739654398
 21
44.66805921061223
 31
0.0
  0
LINE
  5
4A
330
1F
100
AcDbEntity
  8
0
100
AcDbLine
 10
-45.78894739654398
 20
44.66805921061223
 30
0.0
 11
-45.35094467741131
 21
44.83821863101303
 31
0.0
  0
LINE
  5
4B
330
1F
100
AcDbEntity
  8
0
100
AcDbLine
 10
-45.35094467741131
 20
44.83821863101303
 30
0.0
 11
-44.97190703771956
 21
45.11594345528282
 31
0.0
  0
LINE
  5
4C
330
1F
100
AcDbEntity
  8
0
100
AcDbLine
 10
-44.97190703771956
 20
45.11594345528282
 30
0.0
 11
-44.67766526622444
 21
45.48230719560951
 31
0.0
  0
LINE
  5
4D
330
1F
100
AcDbEntity
  8
0
100
AcDbLine
 10
-13.84695989934004
 20
-39.99715721835946
 30
0.0
 11
-11.64696007534008
 21
-43.80766869017011
 31
0.0
  0
LINE
  5
4E
330
1F
100
AcDbEntity
  8
0
100
AcDbLine
 10
40.88327650865449
 20
63.86661800243087
 30
0.0
 11
95.88327210865488
 21
63.86661800243087
 31
0.0
  0
LINE
  5
4F
330
1F
100
AcDbEntity
  8
0
100
AcDbLine
 10
-11.64696007533999
 20
-36.18664574654881
 30
0.0
 11
-13.84695989934004
 21
-39.99715721835946
 31
0.0
  0
LINE
  5
50
330
1F
100
AcDbEntity
  8
0
100
AcDbLine
 10
49.78327579665469
 20
9.02546811653487
 30
0.0
 11
49.34915011256924
 21
9.205288862657534
 31
0.0
  0
LINE
  5
51
330
1F
100
AcDbEntity
  8
0
100
AcDbLine
 10
13.05303794866205
 20
-84.87068534658503
 30
0.0
 11
13.05303794866205
 21
-75.870686066585
 31
0.0
  0
LINE
  5
52
330
1F
100
AcDbEntity
  8
0
100
AcDbLine
 10
92.68281148156977
 20
46.37588898522226
 30
0.0
 11
92.63203548466063
 21
46.8430317989919
 31
0.0
  0
LINE
  5
53
330
1F
100
AcDbEntity
  8
0
100
AcDbLine
 10
-76.67384585875268
 20
-38.97430890134193
 30
0.0
 11
-77.45030293194354
 21
-38.87208638838694
 31
0.0
  0
LINE
  5
54
330
1F
100
AcDbEntity
  8
0
100
AcDbLine
 10
-79.57162310579753
 20
-39.75076597453292
 30
0.0
 11
-80.04837893545098
 21
-40.37208626838697
 31
0.0
  0
LINE
  5
55
330
1F
100
AcDbEntity
  8
0
100
AcDbLine
 10
26.17505207175498
 20
0.1113674193894152
 30
0.0
 11
26.47064286307773
 21
0.4766436085996094
 31
0.0
  0
LINE
  5
56
330
1F
100
AcDbEntity
  8
0
100
AcDbLine
 10
26.47064286307773
 20
0.4766436085996094
 30
0.0
 11
26.66162120793957
 21
0.9059778398374653
 31
0.0
  0
LINE
  5
57
330
1F
100
AcDbEntity
  8
0
100
AcDbLine
 10
26.66162120793957
 20
0.9059778398374653
 30
0.0
 11
26.73497224774475
 21
1.370111694752446
 31
0.0
  0
LINE
  5
58
330
1F
100
AcDbEntity
  8
0
100
AcDbLine
 10
26.73497224774475
 20
1.370111694752446
 30
0.0
 11
26.68569723034882
 21
1.837415218149563
 31
0.0
  0
LINE
  5
59
330
1F
100
AcDbEntity
  8
0
100
AcDbLine
 10
26.68569723034882
 20
1.837415218149563
 30
0.0
 11
26.51715416675669
 21
2.276042447164934
 31
0.0
  0
LINE
  5
5A
330
1F
100
AcDbEntity
  8
0
100
AcDbLine
 10
26.51715416675669
 20
2.276042447164934
 30
0.0
 11
26.24082898822132
 21
2.656101661006911
 31
0.0
  0
LINE
  5
5B
330
1F
100
AcDbEntity
  8
0
100
AcDbLine
 10
26.24082898822132
 20
2.656101661006911
 30
0.0
 11
25.87555279901108
 21
2.951692452329666
 31
0.0
  0
LINE
  5
5C
330
1F
100
AcDbEntity
  8
0
100
AcDbLine
 10
25.87555279901108
 20
2.951692452329666
 30
0.0
 11
25.44621856777328
 21
3.142670797191462
 31
0.0
  0
LINE
  5
5D
330
1F
100
AcDbEntity
  8
0
100
AcDbLine
 10
44.78327619665417
 20
23.91662119843181
 30
0.0
 11
44.9229802976927
 21
22.85546319840414
 31
0.0
  0
LINE
  5
5E
330
1F
100
AcDbEntity
  8
0
100
AcDbLine
 10
18.62846713256215
 20
-91.17779162320312
 30
0.0
 11
18.83557389718014
 21
-91.33671023308753
 31
0.0
  0
LINE
  5
5F
330
1F
100
AcDbEntity
  8
0
100
AcDbLine
 10
25.80019380080191
 20
44.83787589171777
 30
0.0
 11
26.17934146225314
 21
45.11545049634643
 31
0.0
  0
LINE
  5
60
330
1F
100
AcDbEntity
  8
0
100
AcDbLine
 10
24.64268021379806
 20
-91.17779162320312
 30
0.0
 11
24.43557344918008
 21
-91.33671023308753
 31
0.0
  0
LINE
  5
61
330
1F
100
AcDbEntity
  8
0
100
AcDbLine
 10
-28.06442235082132
 20
28.40570693368113
 30
0.0
 11
-28.06442235082132
 21
23.94466787859944
 31
0.0
  0
LINE
  5
62
330
1F
100
AcDbEntity
  8
0
100
AcDbLine
 10
25.4696990852663
 20
-82.1093520548121
 30
0.0
 11
25.93557332918092
 21
-82.17068556258509
 31
0.0
  0
LINE
  5
63
330
1F
100
AcDbEntity
  8
0
100
AcDbLine
 10
25.03557340118084
 20
-81.92953130868945
 30
0.0
 11
25.4696990852663
 21
-82.1093520548121
 31
0.0
  0
LINE
  5
64
330
1F
100
AcDbEntity
  8
0
100
AcDbLine
 10
21.9355736491809
 20
-55.6706876825849
 30
0.0
 11
21.90149947819583
 21
-55.41186865818789
 31
0.0
  0
LINE
  5
65
330
1F
100
AcDbEntity
  8
0
100
AcDbLine
 10
-2.245042211188426
 20
-91.17779162320312
 30
0.0
 11
-2.08612360130394
 21
-90.97068485858513
 31
0.0
  0
LINE
  5
66
330
1F
100
AcDbEntity
  8
0
100
AcDbLine
 10
-89.51617624785831
 20
-43.61075249661397
 30
0.0
 11
-89.05030200394386
 21
-43.67208600438696
 31
0.0
  0
LINE
  5
67
330
1F
100
AcDbEntity
  8
0
100
AcDbLine
 10
-3.664424302821927
 20
56.46661859443124
 30
0.0
 11
-3.923243327218939
 21
56.43254442344617
 31
0.0
  0
LINE
  5
68
330
1F
100
AcDbEntity
  8
0
100
AcDbLine
 10
-4.622529078348115
 20
60.83962206863291
 30
0.0
 11
-4.7814476882326
 21
61.0467288332509
 31
0.0
  0
LINE
  5
69
330
1F
100
AcDbEntity
  8
0
100
AcDbLine
 10
-4.415422313730129
 20
60.68070345874842
 30
0.0
 11
-4.622529078348115
 21
60.83962206863291
 31
0.0
  0
LINE
  5
6A
330
1F
100
AcDbEntity
  8
0
100
AcDbLine
 10
-90.7889683521707
 20
-42.33796039230158
 30
0.0
 11
-90.6091476060479
 21
-42.77208607638698
 31
0.0
  0
LINE
  5
6B
330
1F
100
AcDbEntity
  8
0
100
AcDbLine
 10
-43.32309786825599
 20
-43.14487825269939
 30
0.0
 11
-42.9503056919434
 21
-43.4309317504913
 31
0.0
  0
LINE
  5
6C
330
1F
100
AcDbEntity
  8
0
100
AcDbLine
 10
-87.77750989963147
 20
-40.59929404407461
 30
0.0
 11
-88.15030207594371
 21
-40.31324054628269
 31
0.0
  0
LINE
  5
6D
330
1F
100
AcDbEntity
  8
0
100
AcDbLine
 10
24.93557340918014
 20
-84.87068534658509
 30
0.0
 11
29.93557300918094
 21
-84.87068534658509
 31
0.0
  0
LINE
  5
6E
330
1F
100
AcDbEntity
  8
0
100
AcDbLine
 10
24.93557340918014
 20
-90.4706848985851
 30
0.0
 11
24.93557340918014
 21
-84.87068534658509
 31
0.0
  0
LINE
  5
6F
330
1F
100
AcDbEntity
  8
0
100
AcDbLine
 10
92.6109518713535
 20
45.91152188180263
 30
0.0
 11
92.68281148156977
 21
46.37588898522226
 31
0.0
  0
LINE
  5
70
330
1F
100
AcDbEntity
  8
0
100
AcDbLine
 10
18.83557389718086
 20
-69.27068659458497
 30
0.0
 11
18.83557389718086
 21
-75.870686066585
 31
0.0
  0
LINE
  5
71
330
1F
100
AcDbEntity
  8
0
100
AcDbLine
 10
19.07675483278311
 20
-91.43661064760013
 30
0.0
 11
19.33557385718012
 21
-91.47068481858511
 31
0.0
  0
LINE
  5
72
330
1F
100
AcDbEntity
  8
0
100
AcDbLine
 10
23.9355734891801
 20
-91.47068481858511
 30
0.0
 11
19.33557385718012
 21
-91.47068481858511
 31
0.0
  0
LINE
  5
73
330
1F
100
AcDbEntity
  8
0
100
AcDbLine
 10
-7.198398616316968
 20
-55.17068772258489
 30
0.0
 11
-7.357317226201455
 21
-54.96358095796689
 31
0.0
  0
LINE
  5
74
330
1F
100
AcDbEntity
  8
0
100
AcDbLine
 10
0.0845773262698701
 20
77.04672755325088
 30
0.0
 11
0.1186514972549414
 21
77.30554657764789
 31
0.0
  0
LINE
  5
75
330
1F
100
AcDbEntity
  8
0
100
AcDbLine
 10
21.8015990636833
 20
-55.17068772258489
 30
0.0
 11
21.64268045379882
 21
-54.96358095796689
 31
0.0
  0
LINE
  5
76
330
1F
100
AcDbEntity
  8
0
100
AcDbLine
 10
18.83557389718014
 20
-28.89715810635939
 30
0.0
 11
18.83557389718014
 21
-35.49715757835942
 31
0.0
  0
LINE
  5
77
330
1F
100
AcDbEntity
  8
0
100
AcDbLine
 10
18.83557389718014
 20
-35.49715757835942
 30
0.0
 11
13.05303794866132
 21
-35.49715757835942
 31
0.0
  0
LINE
  5
78
330
1F
100
AcDbEntity
  8
0
100
AcDbLine
 10
13.05303794866132
 20
-44.49715685835946
 30
0.0
 11
13.05303794866132
 21
-35.49715757835942
 31
0.0
  0
LINE
  5
79
330
1F
100
AcDbEntity
  8
0
100
AcDbLine
 10
18.33557393717935
 20
-44.4971568583595
 30
0.0
 11
13.05303794866132
 21
-44.49715685835946
 31
0.0
  0
LINE
  5
7A
330
1F
100
AcDbEntity
  8
0
100
AcDbLine
 10
18.33557393717935
 20
-50.09715641035953
 30
0.0
 11
18.33557393717935
 21
-44.4971568583595
 31
0.0
  0
LINE
  5
7B
330
1F
100
AcDbEntity
  8
0
100
AcDbLine
 10
18.33557393717935
 20
-50.09715641035953
 30
0.0
 11
18.36964810816442
 21
-50.35597543475654
 31
0.0
  0
LINE
  5
7C
330
1F
100
AcDbEntity
  8
0
100
AcDbLine
 10
18.36964810816442
 20
-50.35597543475654
 30
0.0
 11
18.46954852267695
 21
-50.59715637035956
 31
0.0
  0
LINE
  5
7D
330
1F
100
AcDbEntity
  8
0
100
AcDbLine
 10
24.64268021379734
 20
-50.80426313497755
 30
0.0
 11
24.80159882368183
 21
-50.59715637035956
 31
0.0
  0
LINE
  5
7E
330
1F
100
AcDbEntity
  8
0
100
AcDbLine
 10
24.80159882368183
 20
-50.59715637035956
 30
0.0
 11
24.90149923819435
 21
-50.35597543475654
 31
0.0
  0
LINE
  5
7F
330
1F
100
AcDbEntity
  8
0
100
AcDbLine
 10
24.93557340917942
 20
-50.09715641035953
 30
0.0
 11
24.93557340917942
 21
-44.4971568583595
 31
0.0
  0
LINE
  5
80
330
1F
100
AcDbEntity
  8
0
100
AcDbLine
 10
24.90149923819435
 20
-50.35597543475654
 30
0.0
 11
24.93557340917942
 21
-50.09715641035953
 31
0.0
  0
LINE
  5
81
330
1F
100
AcDbEntity
  8
0
100
AcDbLine
 10
-4.622529078348295
 20
81.54419307936192
 30
0.0
 11
-4.781447688232781
 21
81.7512998439799
 31
0.0
  0
LINE
  5
82
330
1F
100
AcDbEntity
  8
0
100
AcDbLine
 10
26.66329259059929
 20
45.91165810114843
 30
0.0
 11
26.73511558786442
 21
46.37603086884975
 31
0.0
  0
LINE
  5
83
330
1F
100
AcDbEntity
  8
0
100
AcDbLine
 10
48.88327586865462
 20
9.266622370430527
 30
0.0
 11
48.41740162473999
 21
9.205288862657534
 31
0.0
  0
LINE
  5
84
330
1F
100
AcDbEntity
  8
0
100
AcDbLine
 10
90.01877659474368
 20
47.99543107068153
 30
0.0
 11
89.63960704927837
 21
47.71788636057092
 31
0.0
  0
LINE
  5
85
330
1F
100
AcDbEntity
  8
0
100
AcDbLine
 10
-89.77503283774683
 20
8.366622442430456
 30
0.0
 11
-89.95485358386964
 21
7.932496758345051
 31
0.0
  0
LINE
  5
86
330
1F
100
AcDbEntity
  8
0
100
AcDbLine
 10
-89.48897933995502
 20
8.739414618742867
 30
0.0
 11
-89.77503283774683
 21
8.366622442430456
 31
0.0
  0
LINE
  5
87
330
1F
100
AcDbEntity
  8
0
100
AcDbLine
 10
-89.11618716364259
 20
9.02546811653478
 30
0.0
 11
-89.48897933995502
 21
8.739414618742867
 31
0.0
  0
LINE
  5
88
330
1F
100
AcDbEntity
  8
0
100
AcDbLine
 10
-88.68206147955723
 20
9.205288862657445
 30
0.0
 11
-89.11618716364259
 21
9.02546811653478
 31
0.0
  0
LINE
  5
89
330
1F
100
AcDbEntity
  8
0
100
AcDbLine
 10
-88.21618723564262
 20
9.266622370430438
 30
0.0
 11
-88.68206147955723
 21
9.205288862657445
 31
0.0
  0
LINE
  5
8A
330
1F
100
AcDbEntity
  8
0
100
AcDbLine
 10
-87.750312991728
 20
9.205288862657445
 30
0.0
 11
-88.21618723564262
 21
9.266622370430438
 31
0.0
  0
LINE
  5
8B
330
1F
100
AcDbEntity
  8
0
100
AcDbLine
 10
-87.31618730764264
 20
9.02546811653478
 30
0.0
 11
-87.750312991728
 21
9.205288862657445
 31
0.0
  0
LINE
  5
8C
330
1F
100
AcDbEntity
  8
0
100
AcDbLine
 10
-38.05030608394349
 20
-22.77208767638685
 30
0.0
 11
-38.05030608394349
 21
-46.372085788387
 31
0.0
  0
LINE
  5
8D
330
1F
100
AcDbEntity
  8
0
100
AcDbLine
 10
-42.51618000785805
 20
-43.61075249661397
 30
0.0
 11
-42.05030576394351
 21
-43.67208600438696
 31
0.0
  0
LINE
  5
8E
330
1F
100
AcDbEntity
  8
0
100
AcDbLine
 10
-43.78897211217043
 20
-42.33796039230158
 30
0.0
 11
-43.60915136604764
 21
-42.77208607638698
 31
0.0
  0
LINE
  5
8F
330
1F
100
AcDbEntity
  8
0
100
AcDbLine
 10
-42.51618000785805
 20
-40.13341980016003
 30
0.0
 11
-42.9503056919434
 21
-40.31324054628269
 31
0.0
  0
LINE
  5
90
330
1F
100
AcDbEntity
  8
0
100
AcDbLine
 10
-88.15030207594371
 20
-43.4309317504913
 30
0.0
 11
-87.77750989963147
 21
-43.14487825269939
 31
0.0
  0
LINE
  5
91
330
1F
100
AcDbEntity
  8
0
100
AcDbLine
 10
-43.78897211217043
 20
-41.40621190447242
 30
0.0
 11
-43.85030561994356
 21
-41.872086148387
 31
0.0
  0
LINE
  5
92
330
1F
100
AcDbEntity
  8
0
100
AcDbLine
 10
-87.31163565571667
 20
-41.40621190447242
 30
0.0
 11
-87.49145640183946
 21
-40.97208622038702
 31
0.0
  0
LINE
  5
93
330
1F
100
AcDbEntity
  8
0
100
AcDbLine
 10
-93.0503016839437
 20
-22.77208767638685
 30
0.0
 11
-38.05030608394349
 21
-22.77208767638685
 31
0.0
  0
LINE
  5
94
330
1F
100
AcDbEntity
  8
0
100
AcDbLine
 10
-41.15030583594353
 20
-40.31324054628269
 30
0.0
 11
-41.58443152002889
 21
-40.13341980016003
 31
0.0
  0
LINE
  5
95
330
1F
100
AcDbEntity
  8
0
100
AcDbLine
 10
-74.45030317194347
 20
-41.872086148387
 30
0.0
 11
-74.5525256848987
 21
-41.09562907519601
 31
0.0
  0
LINE
  5
96
330
1F
100
AcDbEntity
  8
0
100
AcDbLine
 10
-16.77153003543815
 20
-14.59005246974131
 30
0.0
 11
-16.93044864532263
 21
-14.7971592343593
 31
0.0
  0
LINE
  5
97
330
1F
100
AcDbEntity
  8
0
100
AcDbLine
 10
-16.93044864532263
 20
-14.7971592343593
 30
0.0
 11
-17.03034905983516
 21
-15.03834016996231
 31
0.0
  0
LINE
  5
98
330
1F
100
AcDbEntity
  8
0
100
AcDbLine
 10
-17.03034905983516
 20
-15.03834016996231
 30
0.0
 11
-17.06442323082023
 21
-15.29715919435933
 31
0.0
  0
LINE
  5
99
330
1F
100
AcDbEntity
  8
0
100
AcDbLine
 10
-17.06442323082023
 20
-15.29715919435933
 30
0.0
 11
-17.06442323082023
 21
-20.89715874635935
 31
0.0
  0
LINE
  5
9A
330
1F
100
AcDbEntity
  8
0
100
AcDbLine
 10
-25.06442259082009
 20
-44.49715685835946
 30
0.0
 11
-25.06442259082027
 21
-20.89715874635935
 31
0.0
  0
LINE
  5
9B
330
1F
100
AcDbEntity
  8
0
100
AcDbLine
 10
-16.86442324682
 20
-44.49715685835946
 30
0.0
 11
-25.06442259082009
 21
-44.49715685835946
 31
0.0
  0
LINE
  5
9C
330
1F
100
AcDbEntity
  8
0
100
AcDbLine
 10
91.74776842256594
 20
44.83780772618269
 30
0.0
 11
92.12693796803124
 21
45.11535243629329
 31
0.0
  0
LINE
  5
9D
330
1F
100
AcDbEntity
  8
0
100
AcDbLine
 10
49.94443386868182
 20
19.95632562747028
 30
0.0
 11
50.93327570465416
 21
20.36591732697188
 31
0.0
  0
LINE
  5
9E
330
1F
100
AcDbEntity
  8
0
100
AcDbLine
 10
-7.56442399081944
 20
-54.80466234808249
 30
0.0
 11
-7.805604926422409
 21
-54.70476193356988
 31
0.0
  0
LINE
  5
9F
330
1F
100
AcDbEntity
  8
0
100
AcDbLine
 10
18.1530350426018
 20
82.25129980397988
 30
0.0
 11
18.18710921358687
 21
81.99248077958288
 31
0.0
  0
LINE
  5
A0
330
1F
100
AcDbEntity
  8
0
100
AcDbLine
 10
18.18710921358687
 20
81.99248077958288
 30
0.0
 11
18.28700962809939
 21
81.7512998439799
 31
0.0
  0
LINE
  5
A1
330
1F
100
AcDbEntity
  8
0
100
AcDbLine
 10
25.05303449060181
 20
82.25129980397988
 30
0.0
 11
25.05303449060181
 21
93.75129888397987
 31
0.0
  0
LINE
  5
A2
330
1F
100
AcDbEntity
  8
0
100
AcDbLine
 10
23.20785422775956
 20
46.92158069571452
 30
0.0
 11
23.13603123049443
 21
46.4572079280132
 31
0.0
  0
LINE
  5
A3
330
1F
100
AcDbEntity
  8
0
100
AcDbLine
 10
23.13603123049443
 20
46.4572079280132
 30
0.0
 11
23.18684405882266
 21
45.99006911909657
 31
0.0
  0
LINE
  5
A4
330
1F
100
AcDbEntity
  8
0
100
AcDbLine
 10
23.39741843204744
 20
47.35154118549399
 30
0.0
 11
23.20785422775956
 21
46.92158069571452
 31
0.0
  0
LINE
  5
A5
330
1F
100
AcDbEntity
  8
0
100
AcDbLine
 10
-19.79163080650686
 20
-81.64347781089748
 30
0.0
 11
-19.50557730871495
 21
-81.27068563458506
 31
0.0
  0
LINE
  5
A6
330
1F
100
AcDbEntity
  8
0
100
AcDbLine
 10
-20.16442298281936
 20
-81.92953130868945
 30
0.0
 11
-19.79163080650686
 21
-81.64347781089748
 31
0.0
  0
LINE
  5
A7
330
1F
100
AcDbEntity
  8
0
100
AcDbLine
 10
25.03557340118094
 20
-78.81184010448064
 30
0.0
 11
24.66278122486844
 21
-79.0978936022726
 31
0.0
  0
LINE
  5
A8
330
1F
100
AcDbEntity
  8
0
100
AcDbLine
 10
25.4696990852663
 20
-78.63201935835798
 30
0.0
 11
25.03557340118094
 21
-78.81184010448064
 31
0.0
  0
LINE
  5
A9
330
1F
100
AcDbEntity
  8
0
100
AcDbLine
 10
-19.26442305481956
 20
-39.99715721835946
 30
0.0
 11
-19.3257565625926
 21
-39.53128297444484
 31
0.0
  0
LINE
  5
AA
330
1F
100
AcDbEntity
  8
0
100
AcDbLine
 10
-19.3257565625926
 20
-40.46303146227408
 30
0.0
 11
-19.26442305481956
 21
-39.99715721835946
 31
0.0
  0
LINE
  5
AB
330
1F
100
AcDbEntity
  8
0
100
AcDbLine
 10
-19.50557730871522
 20
-40.89715714635949
 30
0.0
 11
-19.3257565625926
 21
-40.46303146227408
 31
0.0
  0
LINE
  5
AC
330
1F
100
AcDbEntity
  8
0
100
AcDbLine
 10
-19.79163080650713
 20
-41.26994932267191
 30
0.0
 11
-19.50557730871522
 21
-40.89715714635949
 31
0.0
  0
LINE
  5
AD
330
1F
100
AcDbEntity
  8
0
100
AcDbLine
 10
-20.16442298281963
 20
-41.55600282046386
 30
0.0
 11
-19.79163080650713
 21
-41.26994932267191
 31
0.0
  0
LINE
  5
AE
330
1F
100
AcDbEntity
  8
0
100
AcDbLine
 10
-20.598548666905
 20
-41.73582356658653
 30
0.0
 11
-20.16442298281963
 21
-41.55600282046386
 31
0.0
  0
LINE
  5
AF
330
1F
100
AcDbEntity
  8
0
100
AcDbLine
 10
-21.06442291081962
 20
-41.79715707435952
 30
0.0
 11
-20.598548666905
 21
-41.73582356658653
 31
0.0
  0
LINE
  5
B0
330
1F
100
AcDbEntity
  8
0
100
AcDbLine
 10
-21.53029715473424
 20
-41.73582356658653
 30
0.0
 11
-21.06442291081962
 21
-41.79715707435952
 31
0.0
  0
LINE
  5
B1
330
1F
100
AcDbEntity
  8
0
100
AcDbLine
 10
-21.96442283881969
 20
-41.55600282046386
 30
0.0
 11
-21.53029715473424
 21
-41.73582356658653
 31
0.0
  0
LINE
  5
B2
330
1F
100
AcDbEntity
  8
0
100
AcDbLine
 10
64.19555006766666
 20
57.26661853043178
 30
0.0
 11
64.19555006766666
 21
50.46661907443175
 31
0.0
  0
LINE
  5
B3
330
1F
100
AcDbEntity
  8
0
100
AcDbLine
 10
64.19555006766666
 20
50.46661907443175
 30
0.0
 11
48.88327586865462
 21
50.46661907443175
 31
0.0
  0
LINE
  5
B4
330
1F
100
AcDbEntity
  8
0
100
AcDbLine
 10
91.08327249265486
 20
50.46661907443212
 30
0.0
 11
84.08327305265469
 21
50.46661907443212
 31
0.0
  0
LINE
  5
B5
330
1F
100
AcDbEntity
  8
0
100
AcDbLine
 10
84.08327305265469
 20
50.46661907443212
 30
0.0
 11
84.08327305265469
 21
57.26661853043215
 31
0.0
  0
LINE
  5
B6
330
1F
100
AcDbEntity
  8
0
100
AcDbLine
 10
84.08327305265469
 20
57.26661853043215
 30
0.0
 11
91.08327249265486
 21
57.26661853043215
 31
0.0
  0
LINE
  5
B7
330
1F
100
AcDbEntity
  8
0
100
AcDbLine
 10
91.08327249265486
 20
57.26661853043215
 30
0.0
 11
91.08327249265486
 21
50.46661907443212
 31
0.0
  0
LINE
  5
B8
330
1F
100
AcDbEntity
  8
0
100
AcDbLine
 10
-89.11618716364259
 20
38.80777428032625
 30
0.0
 11
-88.68206147955723
 21
38.62795353420363
 31
0.0
  0
LINE
  5
B9
330
1F
100
AcDbEntity
  8
0
100
AcDbLine
 10
-88.68206147955723
 20
38.62795353420363
 30
0.0
 11
-88.21618723564262
 21
38.5666200264306
 31
0.0
  0
LINE
  5
BA
330
1F
100
AcDbEntity
  8
0
100
AcDbLine
 10
-88.21618723564262
 20
38.5666200264306
 30
0.0
 11
-87.750312991728
 21
38.62795353420363
 31
0.0
  0
LINE
  5
BB
330
1F
100
AcDbEntity
  8
0
100
AcDbLine
 10
20.05303489060174
 20
93.75129888397987
 30
0.0
 11
25.05303449060181
 21
93.75129888397987
 31
0.0
  0
LINE
  5
BC
330
1F
100
AcDbEntity
  8
0
100
AcDbLine
 10
2.053041326716651
 20
11.76662217043106
 30
0.0
 11
2.0530413267162
 21
36.06662022643115
 31
0.0
  0
LINE
  5
BD
330
1F
100
AcDbEntity
  8
0
100
AcDbLine
 10
2.0530413267162
 20
42.3666197224312
 30
0.0
 11
2.05304132671611
 21
48.91660904729002
 31
0.0
  0
LINE
  5
BE
330
1F
100
AcDbEntity
  8
0
100
AcDbLine
 10
-71.16718667055133
 20
42.36661972243057
 30
0.0
 11
-50.99872912221905
 21
42.36661972243093
 31
0.0
  0
LINE
  5
BF
330
1F
100
AcDbEntity
  8
0
100
AcDbLine
 10
-71.16718667055133
 20
36.06662022643052
 30
0.0
 11
-50.99872912221905
 21
36.06662022643088
 31
0.0
  0
LINE
  5
C0
330
1F
100
AcDbEntity
  8
0
100
AcDbLine
 10
-71.1671866705506
 20
11.76662217043047
 30
0.0
 11
-50.99872912221869
 21
11.76662217043083
 31
0.0
  0
LINE
  5
C1
330
1F
100
AcDbEntity
  8
0
100
AcDbLine
 10
-71.1671866705506
 20
5.46662267443051
 30
0.0
 11
-50.99872912221869
 21
5.466622674430781
 31
0.0
  0
LINE
  5
C2
330
1F
100
AcDbEntity
  8
0
100
AcDbLine
 10
-28.0681147663145
 20
23.91662119843117
 30
0.0
 11
-28.06442235082132
 21
23.8885745182629
 31
0.0
  0
LINE
  5
C3
330
1F
100
AcDbEntity
  8
0
100
AcDbLine
 10
26.4737283863114
 20
45.48169761136896
 30
0.0
 11
26.66329259059929
 21
45.91165810114843
 31
0.0
  0
LINE
  5
C4
330
1F
100
AcDbEntity
  8
0
100
AcDbLine
 10
24.91905990510439
 20
61.0467288332509
 30
0.0
 11
24.7601412952199
 21
60.83962206863291
 31
0.0
  0
LINE
  5
C5
330
1F
100
AcDbEntity
  8
0
100
AcDbLine
 10
25.01896031961692
 20
61.28790976885385
 30
0.0
 11
24.91905990510439
 21
61.0467288332509
 31
0.0
  0
LINE
  5
C6
330
1F
100
AcDbEntity
  8
0
100
AcDbLine
 10
25.05303449060199
 20
61.54672879325087
 30
0.0
 11
25.01896031961692
 21
61.28790976885385
 31
0.0
  0
LINE
  5
C7
330
1F
100
AcDbEntity
  8
0
100
AcDbLine
 10
18.1530350426018
 20
86.2512994839799
 30
0.0
 11
18.1530350426018
 21
82.25129980397988
 31
0.0
  0
LINE
  5
C8
330
1F
100
AcDbEntity
  8
0
100
AcDbLine
 10
1.953041334715771
 20
86.2512994839799
 30
0.0
 11
18.1530350426018
 21
86.2512994839799
 31
0.0
  0
LINE
  5
C9
330
1F
100
AcDbEntity
  8
0
100
AcDbLine
 10
0.0845773262696896
 20
93.75129888397987
 30
0.0
 11
0.0845773262696896
 21
97.75129856397989
 31
0.0
  0
LINE
  5
CA
330
1F
100
AcDbEntity
  8
0
100
AcDbLine
 10
24.90149923819508
 20
-90.72950392298212
 30
0.0
 11
24.80159882368255
 21
-90.97068485858513
 31
0.0
  0
LINE
  5
CB
330
1F
100
AcDbEntity
  8
0
100
AcDbLine
 10
50.62194221688164
 20
7.932496758345096
 30
0.0
 11
50.44212147075901
 21
8.3666224424305
 31
0.0
  0
LINE
  5
CC
330
1F
100
AcDbEntity
  8
0
100
AcDbLine
 10
-75.95030305194351
 20
-39.27401014487973
 30
0.0
 11
-76.67384585875268
 21
-38.97430890134193
 31
0.0
  0
LINE
  5
CD
330
1F
100
AcDbEntity
  8
0
100
AcDbLine
 10
89.13450953264898
 20
45.99020699787232
 30
0.0
 11
89.30446083640538
 21
45.55212348452098
 31
0.0
  0
LINE
  5
CE
330
1F
100
AcDbEntity
  8
0
100
AcDbLine
 10
18.6014997421943
 20
55.72543769882848
 30
0.0
 11
18.50159932768177
 21
55.96661863443144
 31
0.0
  0
LINE
  5
CF
330
1F
100
AcDbEntity
  8
0
100
AcDbLine
 10
50.1560679729671
 20
8.739414618742913
 30
0.0
 11
49.78327579665469
 21
9.02546811653487
 31
0.0
  0
LINE
  5
D0
330
1F
100
AcDbEntity
  8
0
100
AcDbLine
 10
47.32443026655022
 20
8.3666224424305
 30
0.0
 11
47.1446095204276
 21
7.932496758345096
 31
0.0
  0
LINE
  5
D1
330
1F
100
AcDbEntity
  8
0
100
AcDbLine
 10
0.5845772862697596
 20
98.61732389848234
 30
0.0
 11
0.8257582218727272
 21
98.71722431299487
 31
0.0
  0
LINE
  5
D2
330
1F
100
AcDbEntity
  8
0
100
AcDbLine
 10
0.2185519117672874
 20
98.25129852397986
 30
0.0
 11
0.3774705216517731
 21
98.45840528859786
 31
0.0
  0
LINE
  5
D3
330
1F
100
AcDbEntity
  8
0
100
AcDbLine
 10
0.118651497254761
 20
98.0101175883769
 30
0.0
 11
0.2185519117672874
 21
98.25129852397986
 31
0.0
  0
LINE
  5
D4
330
1F
100
AcDbEntity
  8
0
100
AcDbLine
 10
0.0845773262696896
 20
97.75129856397989
 30
0.0
 11
0.118651497254761
 21
98.0101175883769
 31
0.0
  0
LINE
  5
D5
330
1F
100
AcDbEntity
  8
0
100
AcDbLine
 10
-4.881348102745307
 20
81.99248077958288
 30
0.0
 11
-4.915422273730379
 21
82.25129980397988
 31
0.0
  0
LINE
  5
D6
330
1F
100
AcDbEntity
  8
0
100
AcDbLine
 10
20.05303489060192
 20
77.04672755325088
 30
0.0
 11
20.01896071961685
 21
77.30554657764789
 31
0.0
  0
LINE
  5
D7
330
1F
100
AcDbEntity
  8
0
100
AcDbLine
 10
20.01896071961685
 20
77.30554657764789
 30
0.0
 11
19.91906030510432
 21
77.54672751325086
 31
0.0
  0
LINE
  5
D8
330
1F
100
AcDbEntity
  8
0
100
AcDbLine
 10
-18.96442153017574
 20
-69.27462187588114
 30
0.0
 11
-18.95922965442269
 21
-75.87461930579178
 31
0.0
  0
LINE
  5
D9
330
1F
100
AcDbEntity
  8
0
100
AcDbLine
 10
-1.952149015806342
 20
-90.4706848985851
 30
0.0
 11
-1.952149015806342
 21
-75.870686066585
 31
0.0
  0
LINE
  5
DA
330
1F
100
AcDbEntity
  8
0
100
AcDbLine
 10
25.36212368851434
 20
44.66789004807472
 30
0.0
 11
25.80019380080191
 21
44.83787589171777
 31
0.0
  0
LINE
  5
DB
330
1F
100
AcDbEntity
  8
0
100
AcDbLine
 10
-22.3372150151321
 20
-41.26994932267191
 30
0.0
 11
-21.96442283881969
 21
-41.55600282046386
 31
0.0
  0
LINE
  5
DC
330
1F
100
AcDbEntity
  8
0
100
AcDbLine
 10
-22.62326851292401
 20
-40.89715714635949
 30
0.0
 11
-22.3372150151321
 21
-41.26994932267191
 31
0.0
  0
LINE
  5
DD
330
1F
100
AcDbEntity
  8
0
100
AcDbLine
 10
-22.80308925904663
 20
-40.46303146227408
 30
0.0
 11
-22.62326851292401
 21
-40.89715714635949
 31
0.0
  0
LINE
  5
DE
330
1F
100
AcDbEntity
  8
0
100
AcDbLine
 10
-22.86442276681967
 20
-39.99715721835946
 30
0.0
 11
-22.80308925904663
 21
-40.46303146227408
 31
0.0
  0
LINE
  5
DF
330
1F
100
AcDbEntity
  8
0
100
AcDbLine
 10
-22.80308925904663
 20
-39.53128297444484
 30
0.0
 11
-22.86442276681967
 21
-39.99715721835946
 31
0.0
  0
LINE
  5
E0
330
1F
100
AcDbEntity
  8
0
100
AcDbLine
 10
-22.62326851292401
 20
-39.09715729035943
 30
0.0
 11
-22.80308925904663
 21
-39.53128297444484
 31
0.0
  0
LINE
  5
E1
330
1F
100
AcDbEntity
  8
0
100
AcDbLine
 10
-22.3372150151321
 20
-38.72436511404702
 30
0.0
 11
-22.62326851292401
 21
-39.09715729035943
 31
0.0
  0
LINE
  5
E2
330
1F
100
AcDbEntity
  8
0
100
AcDbLine
 10
-21.9644228388196
 20
-38.43831161625507
 30
0.0
 11
-22.3372150151321
 21
-38.72436511404702
 31
0.0
  0
LINE
  5
E3
330
1F
100
AcDbEntity
  8
0
100
AcDbLine
 10
-21.53029715473424
 20
-38.25849087013241
 30
0.0
 11
-21.9644228388196
 21
-38.43831161625507
 31
0.0
  0
LINE
  5
E4
330
1F
100
AcDbEntity
  8
0
100
AcDbLine
 10
-21.06442291081962
 20
-38.19715736235941
 30
0.0
 11
-21.53029715473424
 21
-38.25849087013241
 31
0.0
  0
LINE
  5
E5
330
1F
100
AcDbEntity
  8
0
100
AcDbLine
 10
-80.04837893545098
 20
-40.37208626838697
 30
0.0
 11
-80.34808017898874
 21
-41.09562907519601
 31
0.0
  0
LINE
  5
E6
330
1F
100
AcDbEntity
  8
0
100
AcDbLine
 10
-66.45030381194344
 20
-41.872086148387
 30
0.0
 11
-66.45030381194344
 21
-46.372085788387
 31
0.0
  0
LINE
  5
E7
330
1F
100
AcDbEntity
  8
0
100
AcDbLine
 10
-43.60915136604764
 20
-42.77208607638698
 30
0.0
 11
-43.32309786825599
 21
-43.14487825269939
 31
0.0
  0
LINE
  5
E8
330
1F
100
AcDbEntity
  8
0
100
AcDbLine
 10
-56.20766394423535
 20
-37.62944580067893
 30
0.0
 11
-57.45030453194326
 21
-36.67593414137256
 31
0.0
  0
LINE
  5
E9
330
1F
100
AcDbEntity
  8
0
100
AcDbLine
 10
26.17934146225314
 20
45.11545049634643
 30
0.0
 11
26.4737283863114
 21
45.48169761136896
 31
0.0
  0
LINE
  5
EA
330
1F
100
AcDbEntity
  8
0
100
AcDbLine
 10
-4.530449637324379
 20
55.96661863443117
 30
0.0
 11
-4.630350051836905
 21
55.72543769882821
 31
0.0
  0
LINE
  5
EB
330
1F
100
AcDbEntity
  8
0
100
AcDbLine
 10
49.34915011256924
 20
9.205288862657534
 30
0.0
 11
48.88327586865462
 21
9.266622370430527
 31
0.0
  0
LINE
  5
EC
330
1F
100
AcDbEntity
  8
0
100
AcDbLine
 10
47.82211786862651
 20
19.95632562747028
 30
0.0
 11
48.88327586865417
 21
19.81662152643176
 31
0.0
  0
LINE
  5
ED
330
1F
100
AcDbEntity
  8
0
100
AcDbLine
 10
18.1355739531793
 20
56.33264400893392
 30
0.0
 11
17.89439301757633
 21
56.43254442344644
 31
0.0
  0
LINE
  5
EE
330
1F
100
AcDbEntity
  8
0
100
AcDbLine
 10
18.63557391317937
 20
55.46661867443146
 30
0.0
 11
18.6014997421943
 21
55.72543769882848
 31
0.0
  0
LINE
  5
EF
330
1F
100
AcDbEntity
  8
0
100
AcDbLine
 10
0.2185519117674679
 20
77.54672751325086
 30
0.0
 11
0.3774705216519536
 21
77.75383427786885
 31
0.0
  0
LINE
  5
F0
330
1F
100
AcDbEntity
  8
0
100
AcDbLine
 10
0.1186514972549414
 20
77.30554657764789
 30
0.0
 11
0.2185519117674679
 21
77.54672751325086
 31
0.0
  0
LINE
  5
F1
330
1F
100
AcDbEntity
  8
0
100
AcDbLine
 10
-18.02151208047599
 20
56.43254442344617
 30
0.0
 11
-17.76269305607898
 21
56.46661859443124
 31
0.0
  0
LINE
  5
F2
330
1F
100
AcDbEntity
  8
0
100
AcDbLine
 10
12.22846764456285
 20
-54.96358095796689
 30
0.0
 11
12.06954903467836
 21
-55.17068772258489
 31
0.0
  0
LINE
  5
F3
330
1F
100
AcDbEntity
  8
0
100
AcDbLine
 10
27.67423967740793
 20
-79.90481146267042
 30
0.0
 11
27.49441893128531
 21
-79.47068577858502
 31
0.0
  0
LINE
  5
F4
330
1F
100
AcDbEntity
  8
0
100
AcDbLine
 10
27.73557318518097
 20
-80.37068570658504
 30
0.0
 11
27.67423967740793
 21
-79.90481146267042
 31
0.0
  0
LINE
  5
F5
330
1F
100
AcDbEntity
  8
0
100
AcDbLine
 10
27.67423967740793
 20
-80.83655995049968
 30
0.0
 11
27.73557318518097
 21
-80.37068570658504
 31
0.0
  0
LINE
  5
F6
330
1F
100
AcDbEntity
  8
0
100
AcDbLine
 10
-2.08612360130394
 20
-90.97068485858513
 30
0.0
 11
-1.986223186791414
 21
-90.72950392298212
 31
0.0
  0
LINE
  5
F7
330
1F
100
AcDbEntity
  8
0
100
AcDbLine
 10
-18.12558123084888
 20
27.87691676939246
 30
0.0
 11
-19.11442306682122
 21
27.46732506989087
 31
0.0
  0
LINE
  5
F8
330
1F
100
AcDbEntity
  8
0
100
AcDbLine
 10
47.61048376434213
 20
8.739414618742913
 30
0.0
 11
47.32443026655022
 21
8.3666224424305
 31
0.0
  0
LINE
  5
F9
330
1F
100
AcDbEntity
  8
0
100
AcDbLine
 10
-14.45589375440906
 20
56.17372539904917
 30
0.0
 11
-14.66300051902705
 21
56.33264400893365
 31
0.0
  0
LINE
  5
FA
330
1F
100
AcDbEntity
  8
0
100
AcDbLine
 10
-78.01618805164217
 20
-9.433376133569581
 30
0.0
 11
-78.01618805164217
 21
-2.63337667756955
 31
0.0
  0
LINE
  5
FB
330
1F
100
AcDbEntity
  8
0
100
AcDbLine
 10
-88.41618721964258
 20
-2.63337667756955
 30
0.0
 11
-78.01618805164217
 21
-2.63337667756955
 31
0.0
  0
LINE
  5
FC
330
1F
100
AcDbEntity
  8
0
100
AcDbLine
 10
-88.41618721964258
 20
-9.433376133569581
 30
0.0
 11
-88.41618721964258
 21
-2.63337667756955
 31
0.0
  0
LINE
  5
FD
330
1F
100
AcDbEntity
  8
0
100
AcDbLine
 10
-78.01618805164217
 20
-9.433376133569581
 30
0.0
 11
-88.41618721964258
 21
-9.433376133569581
 31
0.0
  0
LINE
  5
FE
330
1F
100
AcDbEntity
  8
0
100
AcDbLine
 10
-78.01618805164217
 20
50.46661907443077
 30
0.0
 11
-78.01618805164217
 21
57.26661853043079
 31
0.0
  0
LINE
  5
FF
330
1F
100
AcDbEntity
  8
0
100
AcDbLine
 10
-88.41618721964258
 20
57.26661853043079
 30
0.0
 11
-78.01618805164217
 21
57.26661853043079
 31
0.0
  0
LINE
  5
100
330
1F
100
AcDbEntity
  8
0
100
AcDbLine
 10
-88.41618721964258
 20
50.46661907443077
 30
0.0
 11
-88.41618721964258
 21
57.26661853043079
 31
0.0
  0
LINE
  5
101
330
1F
100
AcDbEntity
  8
0
100
AcDbLine
 10
-78.01618805164217
 20
50.46661907443077
 30
0.0
 11
-88.41618721964258
 21
50.46661907443077
 31
0.0
  0
LINE
  5
102
330
1F
100
AcDbEntity
  8
0
100
AcDbLine
 10
-89.77503283774683
 20
39.46661995443058
 30
0.0
 11
-89.48897933995502
 21
39.09382777811817
 31
0.0
  0
LINE
  5
103
330
1F
100
AcDbEntity
  8
0
100
AcDbLine
 10
-89.48897933995502
 20
39.09382777811817
 30
0.0
 11
-89.11618716364259
 21
38.80777428032625
 31
0.0
  0
LINE
  5
104
330
1F
100
AcDbEntity
  8
0
100
AcDbLine
 10
11.96964862016583
 20
-55.41186865818789
 30
0.0
 11
11.93557444918076
 21
-55.6706876825849
 31
0.0
  0
LINE
  5
105
330
1F
100
AcDbEntity
  8
0
100
AcDbLine
 10
12.93557436918081
 20
-54.6706877625849
 30
0.0
 11
20.93557372918085
 21
-54.6706877625849
 31
0.0
  0
LINE
  5
106
330
1F
100
AcDbEntity
  8
0
100
AcDbLine
 10
12.93557436918081
 20
-54.6706877625849
 30
0.0
 11
12.6767553447838
 21
-54.70476193356988
 31
0.0
  0
LINE
  5
107
330
1F
100
AcDbEntity
  8
0
100
AcDbLine
 10
47.1446095204276
 20
7.932496758345096
 30
0.0
 11
47.08327601265457
 21
7.466622514430474
 31
0.0
  0
LINE
  5
108
330
1F
100
AcDbEntity
  8
0
100
AcDbLine
 10
91.39105549022501
 20
3.14351498267068
 30
0.0
 11
90.9268006703477
 21
3.216096471629022
 31
0.0
  0
LINE
  5
109
330
1F
100
AcDbEntity
  8
0
100
AcDbLine
 10
91.8207057390594
 20
2.953248658810395
 30
0.0
 11
91.39105549022501
 21
3.14351498267068
 31
0.0
  0
LINE
  5
10A
330
1F
100
AcDbEntity
  8
0
100
AcDbLine
 10
92.18647146242334
 20
2.658263835589345
 30
0.0
 11
91.8207057390594
 21
2.953248658810395
 31
0.0
  0
LINE
  5
10B
330
1F
100
AcDbEntity
  8
0
100
AcDbLine
 10
92.46342633072611
 20
2.278663241224478
 30
0.0
 11
92.18647146242334
 21
2.658263835589345
 31
0.0
  0
LINE
  5
10C
330
1F
100
AcDbEntity
  8
0
100
AcDbLine
 10
92.63269632738236
 20
1.840316028902156
 30
0.0
 11
92.46342633072611
 21
2.278663241224478
 31
0.0
  0
LINE
  5
10D
330
1F
100
AcDbEntity
  8
0
100
AcDbLine
 10
92.68274598185184
 20
1.373094836739142
 30
0.0
 11
92.63269632738236
 21
1.840316028902156
 31
0.0
  0
LINE
  5
10E
330
1F
100
AcDbEntity
  8
0
100
AcDbLine
 10
-5.04696060334
 20
-39.99715721835946
 30
0.0
 11
-7.246960427339966
 21
-36.18664574654881
 31
0.0
  0
LINE
  5
10F
330
1F
100
AcDbEntity
  8
0
100
AcDbLine
 10
25.46969908526611
 20
-41.73582356658653
 30
0.0
 11
25.93557332918074
 21
-41.79715707435952
 31
0.0
  0
LINE
  5
110
330
1F
100
AcDbEntity
  8
0
100
AcDbLine
 10
25.03557340118066
 20
-41.55600282046386
 30
0.0
 11
25.46969908526611
 21
-41.73582356658653
 31
0.0
  0
LINE
  5
111
330
1F
100
AcDbEntity
  8
0
100
AcDbLine
 10
24.66278122486825
 20
-41.26994932267191
 30
0.0
 11
25.03557340118066
 21
-41.55600282046386
 31
0.0
  0
LINE
  5
112
330
1F
100
AcDbEntity
  8
0
100
AcDbLine
 10
52.98327554065416
 20
23.91662119843181
 30
0.0
 11
52.84357143961564
 21
24.97777919845946
 31
0.0
  0
LINE
  5
113
330
1F
100
AcDbEntity
  8
0
100
AcDbLine
 10
51.78241343958798
 20
21.01748362749795
 30
0.0
 11
52.43397974011405
 21
21.86662136243176
 31
0.0
  0
LINE
  5
114
330
1F
100
AcDbEntity
  8
0
100
AcDbLine
 10
50.93327570465416
 20
20.36591732697188
 30
0.0
 11
51.78241343958798
 21
21.01748362749795
 31
0.0
  0
LINE
  5
115
330
1F
100
AcDbEntity
  8
0
100
AcDbLine
 10
50.68327572465422
 20
40.36661988243183
 30
0.0
 11
50.62194221688118
 21
40.83249412634645
 31
0.0
  0
LINE
  5
116
330
1F
100
AcDbEntity
  8
0
100
AcDbLine
 10
50.62194221688118
 20
39.9007456385172
 30
0.0
 11
50.68327572465422
 21
40.36661988243183
 31
0.0
  0
LINE
  5
117
330
1F
100
AcDbEntity
  8
0
100
AcDbLine
 10
47.1446095204276
 20
7.000748270515853
 30
0.0
 11
47.32443026655022
 21
6.566622586430448
 31
0.0
  0
LINE
  5
118
330
1F
100
AcDbEntity
  8
0
100
AcDbLine
 10
47.32443026654977
 20
39.46661995443184
 30
0.0
 11
47.61048376434168
 21
39.09382777811934
 31
0.0
  0
LINE
  5
119
330
1F
100
AcDbEntity
  8
0
100
AcDbLine
 10
-16.93044864532191
 20
-55.17068772258489
 30
0.0
 11
-16.77153003543742
 21
-54.96358095796689
 31
0.0
  0
LINE
  5
11A
330
1F
100
AcDbEntity
  8
0
100
AcDbLine
 10
-25.06442259081937
 20
-84.87068534658503
 30
0.0
 11
-25.06442259081954
 21
-61.27068723458493
 31
0.0
  0
LINE
  5
11B
330
1F
100
AcDbEntity
  8
0
100
AcDbLine
 10
-15.32575688259421
 20
7.000748270516439
 30
0.0
 11
-15.26442337482117
 21
7.466622514431061
 31
0.0
  0
LINE
  5
11C
330
1F
100
AcDbEntity
  8
0
100
AcDbLine
 10
-15.26442337482117
 20
7.466622514431061
 30
0.0
 11
-15.32575688259421
 21
7.932496758345683
 31
0.0
  0
LINE
  5
11D
330
1F
100
AcDbEntity
  8
0
100
AcDbLine
 10
-15.32575688259421
 20
7.932496758345683
 30
0.0
 11
-15.50557762871683
 21
8.366622442431089
 31
0.0
  0
LINE
  5
11E
330
1F
100
AcDbEntity
  8
0
100
AcDbLine
 10
-15.50557762871683
 20
8.366622442431089
 30
0.0
 11
-15.79163112650874
 21
8.7394146187435
 31
0.0
  0
LINE
  5
11F
330
1F
100
AcDbEntity
  8
0
100
AcDbLine
 10
-15.79163112650874
 20
8.7394146187435
 30
0.0
 11
-16.16442330282115
 21
9.025468116535457
 31
0.0
  0
LINE
  5
120
330
1F
100
AcDbEntity
  8
0
100
AcDbLine
 10
-16.16442330282115
 20
9.025468116535457
 30
0.0
 11
-16.5985489869066
 21
9.205288862658122
 31
0.0
  0
LINE
  5
121
330
1F
100
AcDbEntity
  8
0
100
AcDbLine
 10
-16.5985489869066
 20
9.205288862658122
 30
0.0
 11
-17.06442323082122
 21
9.266622370431115
 31
0.0
  0
LINE
  5
122
330
1F
100
AcDbEntity
  8
0
100
AcDbLine
 10
-17.06442323082122
 20
9.266622370431115
 30
0.0
 11
-17.53029747473584
 21
9.205288862658122
 31
0.0
  0
LINE
  5
123
330
1F
100
AcDbEntity
  8
0
100
AcDbLine
 10
-44.67766526622444
 20
45.48230719560951
 30
0.0
 11
-44.48827145339587
 21
45.91234276853456
 31
0.0
  0
LINE
  5
124
330
1F
100
AcDbEntity
  8
0
100
AcDbLine
 10
-44.48827145339587
 20
45.91234276853456
 30
0.0
 11
-44.41663247458988
 21
46.37674396043056
 31
0.0
  0
LINE
  5
125
330
1F
100
AcDbEntity
  8
0
100
AcDbLine
 10
-44.41663247458988
 20
46.37674396043056
 30
0.0
 11
-44.46763040782326
 21
46.84386259752893
 31
0.0
  0
LINE
  5
126
330
1F
100
AcDbEntity
  8
0
100
AcDbLine
 10
-44.46763040782326
 20
46.84386259752893
 30
0.0
 11
-44.63778982822407
 21
47.2818653166616
 31
0.0
  0
LINE
  5
127
330
1F
100
AcDbEntity
  8
0
100
AcDbLine
 10
-44.63778982822407
 20
47.2818653166616
 30
0.0
 11
-44.91551465249386
 21
47.66090295635335
 31
0.0
  0
LINE
  5
128
330
1F
100
AcDbEntity
  8
0
100
AcDbLine
 10
-44.91551465249386
 20
47.66090295635335
 30
0.0
 11
-45.28187839282054
 21
47.95514472784847
 31
0.0
  0
LINE
  5
129
330
1F
100
AcDbEntity
  8
0
100
AcDbLine
 10
-45.28187839282054
 20
47.95514472784847
 30
0.0
 11
-45.71191396574568
 21
48.14453854067704
 31
0.0
  0
LINE
  5
12A
330
1F
100
AcDbEntity
  8
0
100
AcDbLine
 10
-45.71191396574568
 20
48.14453854067704
 30
0.0
 11
-46.1763151576416
 21
48.21617751948303
 31
0.0
  0
LINE
  5
12B
330
1F
100
AcDbEntity
  8
0
100
AcDbLine
 10
-46.1763151576416
 20
48.21617751948303
 30
0.0
 11
-46.64343379473996
 21
48.16517958624965
 31
0.0
  0
LINE
  5
12C
330
1F
100
AcDbEntity
  8
0
100
AcDbLine
 10
26.68430275953618
 20
46.84316967776639
 30
0.0
 11
26.51431691589314
 21
47.28123979005396
 31
0.0
  0
LINE
  5
12D
330
1F
100
AcDbEntity
  8
0
100
AcDbLine
 10
26.51431691589314
 20
47.28123979005396
 30
0.0
 11
26.23674231126447
 21
47.66038745150519
 31
0.0
  0
LINE
  5
12E
330
1F
100
AcDbEntity
  8
0
100
AcDbLine
 10
26.23674231126447
 20
47.66038745150519
 30
0.0
 11
25.87049519624194
 21
47.95477437556346
 31
0.0
  0
LINE
  5
12F
330
1F
100
AcDbEntity
  8
0
100
AcDbLine
 10
25.87049519624194
 20
47.95477437556346
 30
0.0
 11
25.44053470646247
 21
48.14433857985134
 31
0.0
  0
LINE
  5
130
330
1F
100
AcDbEntity
  8
0
100
AcDbLine
 10
25.44053470646247
 20
48.14433857985134
 30
0.0
 11
24.97616193876115
 21
48.21616157711647
 31
0.0
  0
LINE
  5
131
330
1F
100
AcDbEntity
  8
0
100
AcDbLine
 10
-18.25853236336581
 20
-8.499532690284383
 30
0.0
 11
-18.01745188782962
 21
-8.599335951526296
 31
0.0
  0
LINE
  5
132
330
1F
100
AcDbEntity
  8
0
100
AcDbLine
 10
-19.32575656259233
 20
-80.83655995049968
 30
0.0
 11
-19.26442305481929
 21
-80.37068570658504
 31
0.0
  0
LINE
  5
133
330
1F
100
AcDbEntity
  8
0
100
AcDbLine
 10
-19.50557730871495
 20
-81.27068563458506
 30
0.0
 11
-19.32575656259233
 21
-80.83655995049968
 31
0.0
  0
LINE
  5
134
330
1F
100
AcDbEntity
  8
0
100
AcDbLine
 10
-4.7814476882326
 20
61.0467288332509
 30
0.0
 11
-4.881348102745126
 21
61.28790976885385
 31
0.0
  0
LINE
  5
135
330
1F
100
AcDbEntity
  8
0
100
AcDbLine
 10
19.15303496260203
 20
60.54672887325082
 30
0.0
 11
18.89421593820501
 21
60.58080304423589
 31
0.0
  0
LINE
  5
136
330
1F
100
AcDbEntity
  8
0
100
AcDbLine
 10
19.31185399499888
 20
78.01265330226585
 30
0.0
 11
19.05303497060187
 21
78.04672747325093
 31
0.0
  0
LINE
  5
137
330
1F
100
AcDbEntity
  8
0
100
AcDbLine
 10
-22.80308925904636
 20
-80.83655995049968
 30
0.0
 11
-22.62326851292374
 21
-81.27068563458506
 31
0.0
  0
LINE
  5
138
330
1F
100
AcDbEntity
  8
0
100
AcDbLine
 10
-22.8644227668194
 20
-80.37068570658504
 30
0.0
 11
-22.80308925904636
 21
-80.83655995049968
 31
0.0
  0
LINE
  5
139
330
1F
100
AcDbEntity
  8
0
100
AcDbLine
 10
79.00073455007751
 20
48.91660904729064
 30
0.0
 11
79.00073455007814
 21
-1.08336665042704
 31
0.0
  0
LINE
  5
13A
330
1F
100
AcDbEntity
  8
0
100
AcDbLine
 10
-2.952148935806392
 20
-91.47068481858511
 30
0.0
 11
-15.86442332681914
 21
-91.47068481858511
 31
0.0
  0
LINE
  5
13B
330
1F
100
AcDbEntity
  8
0
100
AcDbLine
 10
-21.16442290282122
 20
23.91662119843113
 30
0.0
 11
-21.0247188017827
 21
22.85546319840347
 31
0.0
  0
LINE
  5
13C
330
1F
100
AcDbEntity
  8
0
100
AcDbLine
 10
-7.246960427340056
 20
-43.80766869017011
 30
0.0
 11
-5.04696060334
 21
-39.99715721835946
 31
0.0
  0
LINE
  5
13D
330
1F
100
AcDbEntity
  8
0
100
AcDbLine
 10
24.13557347318087
 20
-80.37068570658504
 30
0.0
 11
24.1969069809539
 21
-80.83655995049968
 31
0.0
  0
LINE
  5
13E
330
1F
100
AcDbEntity
  8
0
100
AcDbLine
 10
24.1969069809539
 20
-79.90481146267042
 30
0.0
 11
24.13557347318087
 21
-80.37068570658504
 31
0.0
  0
LINE
  5
13F
330
1F
100
AcDbEntity
  8
0
100
AcDbLine
 10
24.37672772707652
 20
-79.47068577858502
 30
0.0
 11
24.1969069809539
 21
-79.90481146267042
 31
0.0
  0
LINE
  5
140
330
1F
100
AcDbEntity
  8
0
100
AcDbLine
 10
-90.32309410825626
 20
-43.14487825269939
 30
0.0
 11
-89.95030193194366
 21
-43.4309317504913
 31
0.0
  0
LINE
  5
141
330
1F
100
AcDbEntity
  8
0
100
AcDbLine
 10
26.8355732571809
 20
-81.92953130868945
 30
0.0
 11
27.2083654334934
 21
-81.64347781089748
 31
0.0
  0
LINE
  5
142
330
1F
100
AcDbEntity
  8
0
100
AcDbLine
 10
26.40144757309554
 20
-82.1093520548121
 30
0.0
 11
26.8355732571809
 21
-81.92953130868945
 31
0.0
  0
LINE
  5
143
330
1F
100
AcDbEntity
  8
0
100
AcDbLine
 10
25.93557332918092
 20
-82.17068556258509
 30
0.0
 11
26.40144757309554
 21
-82.1093520548121
 31
0.0
  0
LINE
  5
144
330
1F
100
AcDbEntity
  8
0
100
AcDbLine
 10
-87.49145640183946
 20
-40.97208622038702
 30
0.0
 11
-87.77750989963147
 21
-40.59929404407461
 31
0.0
  0
LINE
  5
145
330
1F
100
AcDbEntity
  8
0
100
AcDbLine
 10
-40.25030590794355
 20
-41.872086148387
 30
0.0
 11
-40.3116394157165
 21
-41.40621190447242
 31
0.0
  0
LINE
  5
146
330
1F
100
AcDbEntity
  8
0
100
AcDbLine
 10
-54.4503047719432
 20
-41.872086148387
 30
0.0
 11
-54.65474979785327
 21
-40.31917200200502
 31
0.0
  0
LINE
  5
147
330
1F
100
AcDbEntity
  8
0
100
AcDbLine
 10
-88.15030207594371
 20
-40.31324054628269
 30
0.0
 11
-88.58442776002906
 21
-40.13341980016003
 31
0.0
  0
LINE
  5
148
330
1F
100
AcDbEntity
  8
0
100
AcDbLine
 10
-41.58443152002889
 20
-40.13341980016003
 30
0.0
 11
-42.05030576394351
 21
-40.07208629238704
 31
0.0
  0
LINE
  5
149
330
1F
100
AcDbEntity
  8
0
100
AcDbLine
 10
-17.03034905983444
 20
-55.41186865818789
 30
0.0
 11
-16.93044864532191
 21
-55.17068772258489
 31
0.0
  0
LINE
  5
14A
330
1F
100
AcDbEntity
  8
0
100
AcDbLine
 10
-17.06442323081951
 20
-55.6706876825849
 30
0.0
 11
-17.03034905983444
 21
-55.41186865818789
 31
0.0
  0
LINE
  5
14B
330
1F
100
AcDbEntity
  8
0
100
AcDbLine
 10
-59.41618953964195
 20
-2.63337667756955
 30
0.0
 11
-49.0161903716419
 21
-2.63337667756955
 31
0.0
  0
LINE
  5
14C
330
1F
100
AcDbEntity
  8
0
100
AcDbLine
 10
-49.0161903716419
 20
-2.63337667756955
 30
0.0
 11
-49.0161903716419
 21
-9.433376133569581
 31
0.0
  0
LINE
  5
14D
330
1F
100
AcDbEntity
  8
0
100
AcDbLine
 10
20.05303489060174
 20
97.75129856397989
 30
0.0
 11
20.01896071961666
 21
98.0101175883769
 31
0.0
  0
LINE
  5
14E
330
1F
100
AcDbEntity
  8
0
100
AcDbLine
 10
20.01896071961666
 20
98.0101175883769
 30
0.0
 11
19.91906030510414
 21
98.25129852397986
 31
0.0
  0
LINE
  5
14F
330
1F
100
AcDbEntity
  8
0
100
AcDbLine
 10
19.3118539949987
 20
98.71722431299487
 30
0.0
 11
19.05303497060169
 21
98.75129848397994
 31
0.0
  0
LINE
  5
150
330
1F
100
AcDbEntity
  8
0
100
AcDbLine
 10
-17.53029747473584
 20
5.727956166204001
 30
0.0
 11
-17.06442323082122
 21
5.666622658431008
 31
0.0
  0
LINE
  5
151
330
1F
100
AcDbEntity
  8
0
100
AcDbLine
 10
-17.06442323082122
 20
5.666622658431008
 30
0.0
 11
-16.5985489869066
 21
5.727956166204001
 31
0.0
  0
LINE
  5
152
330
1F
100
AcDbEntity
  8
0
100
AcDbLine
 10
-16.5985489869066
 20
5.727956166204001
 30
0.0
 11
-16.16442330282124
 21
5.907776912326666
 31
0.0
  0
LINE
  5
153
330
1F
100
AcDbEntity
  8
0
100
AcDbLine
 10
-16.16442330282124
 20
5.907776912326666
 30
0.0
 11
-15.79163112650874
 21
6.193830410118623
 31
0.0
  0
LINE
  5
154
330
1F
100
AcDbEntity
  8
0
100
AcDbLine
 10
-15.79163112650874
 20
6.193830410118623
 30
0.0
 11
-15.50557762871683
 21
6.566622586431034
 31
0.0
  0
LINE
  5
155
330
1F
100
AcDbEntity
  8
0
100
AcDbLine
 10
-15.50557762871683
 20
6.566622586431034
 30
0.0
 11
-15.32575688259421
 21
7.000748270516439
 31
0.0
  0
LINE
  5
156
330
1F
100
AcDbEntity
  8
0
100
AcDbLine
 10
-47.75471592506302
 20
0.4823107956150283
 30
0.0
 11
-47.46047415356917
 21
0.1159470552872185
 31
0.0
  0
LINE
  5
157
330
1F
100
AcDbEntity
  8
0
100
AcDbLine
 10
-47.94410973788997
 20
0.9123463685407964
 30
0.0
 11
-47.75471592506302
 21
0.4823107956150283
 31
0.0
  0
LINE
  5
158
330
1F
100
AcDbEntity
  8
0
100
AcDbLine
 10
-48.01574871669425
 20
1.376747560437029
 30
0.0
 11
-47.94410973788997
 21
0.9123463685407964
 31
0.0
  0
LINE
  5
159
330
1F
100
AcDbEntity
  8
0
100
AcDbLine
 10
-15.50557762871683
 20
41.26661981043117
 30
0.0
 11
-15.79163112650874
 21
41.63941198674367
 31
0.0
  0
LINE
  5
15A
330
1F
100
AcDbEntity
  8
0
100
AcDbLine
 10
-15.79163112650874
 20
41.63941198674367
 30
0.0
 11
-16.16442330282115
 21
41.92546548453559
 31
0.0
  0
LINE
  5
15B
330
1F
100
AcDbEntity
  8
0
100
AcDbLine
 10
-16.16442330282115
 20
41.92546548453559
 30
0.0
 11
-16.5985489869066
 21
42.1052862306582
 31
0.0
  0
LINE
  5
15C
330
1F
100
AcDbEntity
  8
0
100
AcDbLine
 10
-16.5985489869066
 20
42.1052862306582
 30
0.0
 11
-17.06442323082122
 21
42.16661973843124
 31
0.0
  0
LINE
  5
15D
330
1F
100
AcDbEntity
  8
0
100
AcDbLine
 10
-17.06442323082122
 20
42.16661973843124
 30
0.0
 11
-17.53029747473584
 21
42.1052862306582
 31
0.0
  0
LINE
  5
15E
330
1F
100
AcDbEntity
  8
0
100
AcDbLine
 10
-17.53029747473584
 20
42.1052862306582
 30
0.0
 11
-17.9644231588212
 21
41.92546548453559
 31
0.0
  0
LINE
  5
15F
330
1F
100
AcDbEntity
  8
0
100
AcDbLine
 10
-17.9644231588212
 20
41.92546548453559
 30
0.0
 11
-18.33721533513371
 21
41.63941198674367
 31
0.0
  0
LINE
  5
160
330
1F
100
AcDbEntity
  8
0
100
AcDbLine
 10
-18.33721533513371
 20
41.63941198674367
 30
0.0
 11
-18.62326883292562
 21
41.26661981043126
 31
0.0
  0
LINE
  5
161
330
1F
100
AcDbEntity
  8
0
100
AcDbLine
 10
-87.77750989963147
 20
-43.14487825269939
 30
0.0
 11
-87.49145640183946
 21
-42.77208607638698
 31
0.0
  0
LINE
  5
162
330
1F
100
AcDbEntity
  8
0
100
AcDbLine
 10
17.63557399317932
 20
-8.633376197569579
 30
0.0
 11
-3.664424302821115
 21
-8.633376197568946
 31
0.0
  0
LINE
  5
163
330
1F
100
AcDbEntity
  8
0
100
AcDbLine
 10
-89.95030193194366
 20
-40.31324054628269
 30
0.0
 11
-90.32309410825626
 21
-40.59929404407461
 31
0.0
  0
LINE
  5
164
330
1F
100
AcDbEntity
  8
0
100
AcDbLine
 10
-89.95030193194366
 20
-43.4309317504913
 30
0.0
 11
-89.51617624785831
 21
-43.61075249661397
 31
0.0
  0
LINE
  5
165
330
1F
100
AcDbEntity
  8
0
100
AcDbLine
 10
-89.51617624785831
 20
-40.13341980016003
 30
0.0
 11
-89.95030193194366
 21
-40.31324054628269
 31
0.0
  0
LINE
  5
166
330
1F
100
AcDbEntity
  8
0
100
AcDbLine
 10
-54.4503047719432
 20
-46.372085788387
 30
0.0
 11
-38.05030608394349
 21
-46.372085788387
 31
0.0
  0
LINE
  5
167
330
1F
100
AcDbEntity
  8
0
100
AcDbLine
 10
-93.0503016839437
 20
-46.372085788387
 30
0.0
 11
-93.0503016839437
 21
-22.77208767638685
 31
0.0
  0
LINE
  5
168
330
1F
100
AcDbEntity
  8
0
100
AcDbLine
 10
-87.2503021479439
 20
-41.872086148387
 30
0.0
 11
-87.31163565571667
 21
-41.40621190447242
 31
0.0
  0
LINE
  5
169
330
1F
100
AcDbEntity
  8
0
100
AcDbLine
 10
-74.45030317194347
 20
-46.372085788387
 30
0.0
 11
-66.45030381194344
 21
-46.372085788387
 31
0.0
  0
LINE
  5
16A
330
1F
100
AcDbEntity
  8
0
100
AcDbLine
 10
-18.86442308682128
 20
40.36661988243119
 30
0.0
 11
-18.80308957904824
 21
39.90074563851657
 31
0.0
  0
LINE
  5
16B
330
1F
100
AcDbEntity
  8
0
100
AcDbLine
 10
-18.80308957904824
 20
39.90074563851657
 30
0.0
 11
-18.62326883292562
 21
39.46661995443121
 31
0.0
  0
LINE
  5
16C
330
1F
100
AcDbEntity
  8
0
100
AcDbLine
 10
-18.62326883292562
 20
39.46661995443121
 30
0.0
 11
-18.33721533513371
 21
39.09382777811871
 31
0.0
  0
LINE
  5
16D
330
1F
100
AcDbEntity
  8
0
100
AcDbLine
 10
-18.33721533513371
 20
39.09382777811871
 30
0.0
 11
-17.96442315882129
 21
38.8077742803268
 31
0.0
  0
LINE
  5
16E
330
1F
100
AcDbEntity
  8
0
100
AcDbLine
 10
-17.96442315882129
 20
38.8077742803268
 30
0.0
 11
-17.53029747473584
 21
38.62795353420418
 31
0.0
  0
LINE
  5
16F
330
1F
100
AcDbEntity
  8
0
100
AcDbLine
 10
-17.53029747473584
 20
38.62795353420418
 30
0.0
 11
-17.06442323082122
 21
38.56662002643114
 31
0.0
  0
LINE
  5
170
330
1F
100
AcDbEntity
  8
0
100
AcDbLine
 10
-17.06442323082122
 20
38.56662002643114
 30
0.0
 11
-16.5985489869066
 21
38.62795353420418
 31
0.0
  0
LINE
  5
171
330
1F
100
AcDbEntity
  8
0
100
AcDbLine
 10
-16.5985489869066
 20
38.62795353420418
 30
0.0
 11
-16.16442330282124
 21
38.8077742803268
 31
0.0
  0
LINE
  5
172
330
1F
100
AcDbEntity
  8
0
100
AcDbLine
 10
-16.16442330282124
 20
38.8077742803268
 30
0.0
 11
-15.79163112650874
 21
39.09382777811871
 31
0.0
  0
LINE
  5
173
330
1F
100
AcDbEntity
  8
0
100
AcDbLine
 10
24.37672772707634
 20
-40.89715714635949
 30
0.0
 11
24.66278122486825
 21
-41.26994932267191
 31
0.0
  0
LINE
  5
174
330
1F
100
AcDbEntity
  8
0
100
AcDbLine
 10
13.05303545060274
 20
-1.083366650427717
 30
0.0
 11
2.053041326716561
 21
-1.083366650427446
 31
0.0
  0
LINE
  5
175
330
1F
100
AcDbEntity
  8
0
100
AcDbLine
 10
13.05303545060211
 20
48.91660904729002
 30
0.0
 11
13.05303545060274
 21
-1.083366650427717
 31
0.0
  0
LINE
  5
176
330
1F
100
AcDbEntity
  8
0
100
AcDbLine
 10
2.05304132671611
 20
48.91660904729002
 30
0.0
 11
13.05303545060211
 21
48.91660904729002
 31
0.0
  0
LINE
  5
177
330
1F
100
AcDbEntity
  8
0
100
AcDbLine
 10
2.053041326716561
 20
-1.083366650427446
 30
0.0
 11
2.053041326716651
 21
5.466622674431097
 31
0.0
  0
LINE
  5
178
330
1F
100
AcDbEntity
  8
0
100
AcDbLine
 10
-13.10412765985975
 20
24.97777919845879
 30
0.0
 11
-13.51371935936134
 21
25.96662103443104
 31
0.0
  0
LINE
  5
179
330
1F
100
AcDbEntity
  8
0
100
AcDbLine
 10
-13.51371935936134
 20
25.96662103443104
 30
0.0
 11
-14.16528565988741
 21
26.81575876936485
 31
0.0
  0
LINE
  5
17A
330
1F
100
AcDbEntity
  8
0
100
AcDbLine
 10
-14.16528565988741
 20
26.81575876936485
 30
0.0
 11
-15.01442339482123
 21
27.46732506989087
 31
0.0
  0
LINE
  5
17B
330
1F
100
AcDbEntity
  8
0
100
AcDbLine
 10
-16.00326523079356
 20
27.87691676939246
 30
0.0
 11
-17.06442323082122
 21
28.01662087043108
 31
0.0
  0
LINE
  5
17C
330
1F
100
AcDbEntity
  8
0
100
AcDbLine
 10
-19.11442306682122
 20
27.46732506989087
 30
0.0
 11
-19.96356080175504
 21
26.81575876936485
 31
0.0
  0
LINE
  5
17D
330
1F
100
AcDbEntity
  8
0
100
AcDbLine
 10
-14.16528565988741
 20
21.01748362749727
 30
0.0
 11
-13.51371935936134
 21
21.86662136243108
 31
0.0
  0
LINE
  5
17E
330
1F
100
AcDbEntity
  8
0
100
AcDbLine
 10
-12.96442355882122
 20
23.91662119843113
 30
0.0
 11
-13.10412765985975
 21
24.97777919845879
 31
0.0
  0
LINE
  5
17F
330
1F
100
AcDbEntity
  8
0
100
AcDbLine
 10
2.0530413267162
 20
42.3666197224312
 30
0.0
 11
-5.015422265729995
 21
42.3666197224312
 31
0.0
  0
LINE
  5
180
330
1F
100
AcDbEntity
  8
0
100
AcDbLine
 10
-4.164424262821094
 20
-8.499401612071347
 30
0.0
 11
-3.923243327218127
 21
-8.599302026583965
 31
0.0
  0
LINE
  5
181
330
1F
100
AcDbEntity
  8
0
100
AcDbLine
 10
-3.923243327218127
 20
-8.599302026583965
 30
0.0
 11
-3.664424302821115
 21
-8.633376197568946
 31
0.0
  0
LINE
  5
182
330
1F
100
AcDbEntity
  8
0
100
AcDbLine
 10
17.63557399317932
 20
-8.633376197569579
 30
0.0
 11
17.89439301757633
 21
-8.599302026584596
 31
0.0
  0
LINE
  5
183
330
1F
100
AcDbEntity
  8
0
100
AcDbLine
 10
18.34268071779729
 20
56.17372539904952
 30
0.0
 11
18.1355739531793
 21
56.33264400893392
 31
0.0
  0
LINE
  5
184
330
1F
100
AcDbEntity
  8
0
100
AcDbLine
 10
-17.53029747473584
 20
9.205288862658122
 30
0.0
 11
-17.9644231588212
 21
9.025468116535457
 31
0.0
  0
LINE
  5
185
330
1F
100
AcDbEntity
  8
0
100
AcDbLine
 10
-17.9644231588212
 20
9.025468116535457
 30
0.0
 11
-18.33721533513371
 21
8.7394146187435
 31
0.0
  0
LINE
  5
186
330
1F
100
AcDbEntity
  8
0
100
AcDbLine
 10
-18.33721533513371
 20
8.7394146187435
 30
0.0
 11
-18.62326883292562
 21
8.366622442431089
 31
0.0
  0
LINE
  5
187
330
1F
100
AcDbEntity
  8
0
100
AcDbLine
 10
23.40050395528112
 20
2.35660238826302
 30
0.0
 11
23.20952561041928
 21
1.927268157025164
 31
0.0
  0
LINE
  5
188
330
1F
100
AcDbEntity
  8
0
100
AcDbLine
 10
23.20952561041928
 20
1.927268157025164
 30
0.0
 11
23.1361745706141
 21
1.463134302110183
 31
0.0
  0
LINE
  5
189
330
1F
100
AcDbEntity
  8
0
100
AcDbLine
 10
23.1361745706141
 20
1.463134302110183
 30
0.0
 11
23.18544958801002
 21
0.9958307787130672
 31
0.0
  0
LINE
  5
18A
330
1F
100
AcDbEntity
  8
0
100
AcDbLine
 10
-59.41618953964195
 20
50.46661907443085
 30
0.0
 11
-59.41618953964195
 21
57.26661853043079
 31
0.0
  0
LINE
  5
18B
330
1F
100
AcDbEntity
  8
0
100
AcDbLine
 10
-89.48897933995502
 20
41.63941198674295
 30
0.0
 11
-89.77503283774683
 21
41.26661981043054
 31
0.0
  0
LINE
  5
18C
330
1F
100
AcDbEntity
  8
0
100
AcDbLine
 10
-89.11618716364259
 20
41.92546548453487
 30
0.0
 11
-89.48897933995502
 21
41.63941198674295
 31
0.0
  0
LINE
  5
18D
330
1F
100
AcDbEntity
  8
0
100
AcDbLine
 10
-88.68206147955723
 20
42.10528623065748
 30
0.0
 11
-89.11618716364259
 21
41.92546548453487
 31
0.0
  0
LINE
  5
18E
330
1F
100
AcDbEntity
  8
0
100
AcDbLine
 10
-88.21618723564262
 20
42.16661973843052
 30
0.0
 11
-88.68206147955723
 21
42.10528623065748
 31
0.0
  0
LINE
  5
18F
330
1F
100
AcDbEntity
  8
0
100
AcDbLine
 10
-87.750312991728
 20
42.10528623065748
 30
0.0
 11
-88.21618723564262
 21
42.16661973843052
 31
0.0
  0
LINE
  5
190
330
1F
100
AcDbEntity
  8
0
100
AcDbLine
 10
-16.06442331082018
 20
-14.29715927435932
 30
0.0
 11
-8.064423950820142
 21
-14.29715927435932
 31
0.0
  0
LINE
  5
191
330
1F
100
AcDbEntity
  8
0
100
AcDbLine
 10
-14.16442346282078
 20
-7.633376277569482
 30
0.0
 11
-14.19849763380585
 21
-7.892195301966495
 31
0.0
  0
LINE
  5
192
330
1F
100
AcDbEntity
  8
0
100
AcDbLine
 10
-4.630350051836905
 20
55.72543769882821
 30
0.0
 11
-4.664424222821977
 21
55.46661867443119
 31
0.0
  0
LINE
  5
193
330
1F
100
AcDbEntity
  8
0
100
AcDbLine
 10
18.89421593820484
 20
81.2853740549649
 30
0.0
 11
19.15303496260185
 21
81.25129988397984
 31
0.0
  0
LINE
  5
194
330
1F
100
AcDbEntity
  8
0
100
AcDbLine
 10
-3.915422353730329
 20
81.25129988397984
 30
0.0
 11
-4.174241378127341
 21
81.2853740549649
 31
0.0
  0
LINE
  5
195
330
1F
100
AcDbEntity
  8
0
100
AcDbLine
 10
1.211860439112733
 20
81.2853740549649
 30
0.0
 11
0.9530414147157213
 21
81.25129988397984
 31
0.0
  0
LINE
  5
196
330
1F
100
AcDbEntity
  8
0
100
AcDbLine
 10
0.8257582218727272
 20
98.71722431299487
 30
0.0
 11
1.084577246269739
 21
98.75129848397994
 31
0.0
  0
LINE
  5
197
330
1F
100
AcDbEntity
  8
0
100
AcDbLine
 10
37.88327674865407
 20
28.40570693368181
 30
0.0
 11
37.88327674865407
 21
19.42753546318149
 31
0.0
  0
LINE
  5
198
330
1F
100
AcDbEntity
  8
0
100
AcDbLine
 10
37.88327674865407
 20
19.42753546318149
 30
0.0
 11
40.88327650865449
 21
16.42753570318143
 31
0.0
  0
LINE
  5
199
330
1F
100
AcDbEntity
  8
0
100
AcDbLine
 10
79.00073455007814
 20
-1.08336665042704
 30
0.0
 11
68.00074042619194
 21
-1.08336665042677
 31
0.0
  0
LINE
  5
19A
330
1F
100
AcDbEntity
  8
0
100
AcDbLine
 10
68.00074042619194
 20
-1.08336665042677
 30
0.0
 11
68.0007404261915
 21
48.91660904729064
 31
0.0
  0
LINE
  5
19B
330
1F
100
AcDbEntity
  8
0
100
AcDbLine
 10
68.0007404261915
 20
48.91660904729064
 30
0.0
 11
79.00073455007751
 21
48.91660904729064
 31
0.0
  0
LINE
  5
19C
330
1F
100
AcDbEntity
  8
0
100
AcDbLine
 10
-89.48897933995502
 20
6.193830410118081
 30
0.0
 11
-89.11618716364259
 21
5.907776912326169
 31
0.0
  0
LINE
  5
19D
330
1F
100
AcDbEntity
  8
0
100
AcDbLine
 10
-89.77503283774683
 20
6.566622586430493
 30
0.0
 11
-89.48897933995502
 21
6.193830410118081
 31
0.0
  0
LINE
  5
19E
330
1F
100
AcDbEntity
  8
0
100
AcDbLine
 10
-89.95485358386964
 20
7.000748270515898
 30
0.0
 11
-89.77503283774683
 21
6.566622586430493
 31
0.0
  0
LINE
  5
19F
330
1F
100
AcDbEntity
  8
0
100
AcDbLine
 10
-90.01618709164258
 20
7.466622514430474
 30
0.0
 11
-89.95485358386964
 21
7.000748270515898
 31
0.0
  0
LINE
  5
1A0
330
1F
100
AcDbEntity
  8
0
100
AcDbLine
 10
-89.95485358386964
 20
7.932496758345051
 30
0.0
 11
-90.01618709164258
 21
7.466622514430474
 31
0.0
  0
LINE
  5
1A1
330
1F
100
AcDbEntity
  8
0
100
AcDbLine
 10
-47.96475078345915
 20
1.843866197535262
 30
0.0
 11
-48.01574871669425
 21
1.376747560437029
 31
0.0
  0
LINE
  5
1A2
330
1F
100
AcDbEntity
  8
0
100
AcDbLine
 10
-44.97190703771469
 20
2.717298941574238
 30
0.0
 11
-45.35094467740544
 21
2.995023765845434
 31
0.0
  0
LINE
  5
1A3
330
1F
100
AcDbEntity
  8
0
100
AcDbLine
 10
-44.67766526622092
 20
2.350935201246428
 30
0.0
 11
-44.97190703771469
 21
2.717298941574238
 31
0.0
  0
LINE
  5
1A4
330
1F
100
AcDbEntity
  8
0
100
AcDbLine
 10
-44.48827145339389
 20
1.92089962832066
 30
0.0
 11
-44.67766526622092
 21
2.350935201246428
 31
0.0
  0
LINE
  5
1A5
330
1F
100
AcDbEntity
  8
0
100
AcDbLine
 10
-44.4166324745897
 20
1.456498436424428
 30
0.0
 11
-44.48827145339389
 21
1.92089962832066
 31
0.0
  0
LINE
  5
1A6
330
1F
100
AcDbEntity
  8
0
100
AcDbLine
 10
-44.4676304078248
 20
0.9893797993261947
 30
0.0
 11
-44.4166324745897
 21
1.456498436424428
 31
0.0
  0
LINE
  5
1A7
330
1F
100
AcDbEntity
  8
0
100
AcDbLine
 10
-44.63778982822723
 20
0.5513770801941554
 30
0.0
 11
-44.4676304078248
 21
0.9893797993261947
 31
0.0
  0
LINE
  5
1A8
330
1F
100
AcDbEntity
  8
0
100
AcDbLine
 10
21.90149947819511
 20
-15.03834016996231
 30
0.0
 11
21.80159906368258
 21
-14.7971592343593
 31
0.0
  0
LINE
  5
1A9
330
1F
100
AcDbEntity
  8
0
100
AcDbLine
 10
21.80159906368258
 20
-14.7971592343593
 30
0.0
 11
21.6426804537981
 21
-14.59005246974131
 31
0.0
  0
LINE
  5
1AA
330
1F
100
AcDbEntity
  8
0
100
AcDbLine
 10
21.6426804537981
 20
-14.59005246974131
 30
0.0
 11
21.43557368918011
 21
-14.43113385985692
 31
0.0
  0
LINE
  5
1AB
330
1F
100
AcDbEntity
  8
0
100
AcDbLine
 10
21.43557368918011
 20
-14.43113385985692
 30
0.0
 11
21.19439275357714
 21
-14.3312334453443
 31
0.0
  0
LINE
  5
1AC
330
1F
100
AcDbEntity
  8
0
100
AcDbLine
 10
21.19439275357714
 20
-14.3312334453443
 30
0.0
 11
20.93557372918013
 21
-14.29715927435932
 31
0.0
  0
LINE
  5
1AD
330
1F
100
AcDbEntity
  8
0
100
AcDbLine
 10
12.93557436918009
 20
-14.29715927435932
 30
0.0
 11
20.93557372918013
 21
-14.29715927435932
 31
0.0
  0
LINE
  5
1AE
330
1F
100
AcDbEntity
  8
0
100
AcDbLine
 10
12.43557440918011
 20
-14.43113385985692
 30
0.0
 11
12.22846764456212
 21
-14.59005246974131
 31
0.0
  0
LINE
  5
1AF
330
1F
100
AcDbEntity
  8
0
100
AcDbLine
 10
25.15303448260233
 20
36.06662022643142
 30
0.0
 11
25.15303448260233
 21
42.36661972243147
 31
0.0
  0
LINE
  5
1B0
330
1F
100
AcDbEntity
  8
0
100
AcDbLine
 10
2.053041326716651
 20
11.76662217043106
 30
0.0
 11
-5.015422265729544
 21
11.76662217043106
 31
0.0
  0
LINE
  5
1B1
330
1F
100
AcDbEntity
  8
0
100
AcDbLine
 10
18.05303505060272
 20
11.76662217043142
 30
0.0
 11
18.05303505060272
 21
5.466622674431367
 31
0.0
  0
LINE
  5
1B2
330
1F
100
AcDbEntity
  8
0
100
AcDbLine
 10
-5.015422265729544
 20
5.466622674431097
 30
0.0
 11
2.053041326716651
 21
5.466622674431097
 31
0.0
  0
LINE
  5
1B3
330
1F
100
AcDbEntity
  8
0
100
AcDbLine
 10
-5.015422265729544
 20
11.76662217043106
 30
0.0
 11
-5.015422265729544
 21
5.466622674431097
 31
0.0
  0
LINE
  5
1B4
330
1F
100
AcDbEntity
  8
0
100
AcDbLine
 10
25.15303448260278
 20
5.466622674431367
 30
0.0
 11
25.15303448260278
 21
11.76662217043142
 31
0.0
  0
LINE
  5
1B5
330
1F
100
AcDbEntity
  8
0
100
AcDbLine
 10
18.05303505060272
 20
5.466622674431367
 30
0.0
 11
25.15303448260278
 21
5.466622674431367
 31
0.0
  0
LINE
  5
1B6
330
1F
100
AcDbEntity
  8
0
100
AcDbLine
 10
25.15303448260278
 20
11.76662217043142
 30
0.0
 11
18.05303505060272
 21
11.76662217043142
 31
0.0
  0
LINE
  5
1B7
330
1F
100
AcDbEntity
  8
0
100
AcDbLine
 10
-4.664424222820172
 20
-35.49715757835942
 30
0.0
 11
-4.664424222820172
 21
-28.89715810635939
 31
0.0
  0
LINE
  5
1B8
330
1F
100
AcDbEntity
  8
0
100
AcDbLine
 10
-1.952149015807064
 20
-35.49715757835942
 30
0.0
 11
-4.664424222820172
 21
-35.49715757835942
 31
0.0
  0
LINE
  5
1B9
330
1F
100
AcDbEntity
  8
0
100
AcDbLine
 10
-13.9592316014609
 20
-35.49715757835942
 30
0.0
 11
-13.96442347882019
 21
-28.89715810635939
 31
0.0
  0
LINE
  5
1BA
330
1F
100
AcDbEntity
  8
0
100
AcDbLine
 10
-20.598548666905
 20
-38.25849087013241
 30
0.0
 11
-21.06442291081962
 21
-38.19715736235941
 31
0.0
  0
LINE
  5
1BB
330
1F
100
AcDbEntity
  8
0
100
AcDbLine
 10
-20.16442298281954
 20
-38.43831161625507
 30
0.0
 11
-20.598548666905
 21
-38.25849087013241
 31
0.0
  0
LINE
  5
1BC
330
1F
100
AcDbEntity
  8
0
100
AcDbLine
 10
-19.79163080650713
 20
-38.72436511404702
 30
0.0
 11
-20.16442298281954
 21
-38.43831161625507
 31
0.0
  0
LINE
  5
1BD
330
1F
100
AcDbEntity
  8
0
100
AcDbLine
 10
-19.50557730871522
 20
-39.09715729035943
 30
0.0
 11
-19.79163080650713
 21
-38.72436511404702
 31
0.0
  0
LINE
  5
1BE
330
1F
100
AcDbEntity
  8
0
100
AcDbLine
 10
-19.3257565625926
 20
-39.53128297444484
 30
0.0
 11
-19.50557730871522
 21
-39.09715729035943
 31
0.0
  0
LINE
  5
1BF
330
1F
100
AcDbEntity
  8
0
100
AcDbLine
 10
48.88327586865417
 20
19.81662152643176
 30
0.0
 11
49.94443386868182
 21
19.95632562747028
 31
0.0
  0
LINE
  5
1C0
330
1F
100
AcDbEntity
  8
0
100
AcDbLine
 10
45.98413829772035
 20
21.01748362749795
 30
0.0
 11
46.83327603265417
 21
20.36591732697188
 31
0.0
  0
LINE
  5
1C1
330
1F
100
AcDbEntity
  8
0
100
AcDbLine
 10
45.33257199719428
 20
25.96662103443171
 30
0.0
 11
44.9229802976927
 21
24.97777919845946
 31
0.0
  0
LINE
  5
1C2
330
1F
100
AcDbEntity
  8
0
100
AcDbLine
 10
-16.86442324681919
 20
-84.87068534658503
 30
0.0
 11
-25.06442259081937
 21
-84.87068534658503
 31
0.0
  0
LINE
  5
1C3
330
1F
100
AcDbEntity
  8
0
100
AcDbLine
 10
-16.86442324681919
 20
-84.87068534658503
 30
0.0
 11
-16.86442324681919
 21
-90.4706848985851
 31
0.0
  0
LINE
  5
1C4
330
1F
100
AcDbEntity
  8
0
100
AcDbLine
 10
-1.952149015806342
 20
-75.870686066585
 30
0.0
 11
-4.66442422281936
 21
-75.870686066585
 31
0.0
  0
LINE
  5
1C5
330
1F
100
AcDbEntity
  8
0
100
AcDbLine
 10
27.49441893128513
 20
-40.89715714635949
 30
0.0
 11
27.67423967740775
 21
-40.46303146227408
 31
0.0
  0
LINE
  5
1C6
330
1F
100
AcDbEntity
  8
0
100
AcDbLine
 10
27.67423967740775
 20
-40.46303146227408
 30
0.0
 11
27.73557318518079
 21
-39.99715721835946
 31
0.0
  0
LINE
  5
1C7
330
1F
100
AcDbEntity
  8
0
100
AcDbLine
 10
-62.00321843832558
 20
-36.07653165429695
 30
0.0
 11
-63.45030405194356
 21
-36.67593414137256
 31
0.0
  0
LINE
  5
1C8
330
1F
100
AcDbEntity
  8
0
100
AcDbLine
 10
-42.9503056919434
 20
-40.31324054628269
 30
0.0
 11
-43.32309786825599
 21
-40.59929404407461
 31
0.0
  0
LINE
  5
1C9
330
1F
100
AcDbEntity
  8
0
100
AcDbLine
 10
-42.05030576394351
 20
-40.07208629238704
 30
0.0
 11
-42.51618000785805
 21
-40.13341980016003
 31
0.0
  0
LINE
  5
1CA
330
1F
100
AcDbEntity
  8
0
100
AcDbLine
 10
-28.06442235082132
 20
28.40570693368113
 30
0.0
 11
-25.0644225908209
 21
31.40570669368114
 31
0.0
  0
LINE
  5
1CB
330
1F
100
AcDbEntity
  8
0
100
AcDbLine
 10
18.83557389718086
 20
-75.870686066585
 30
0.0
 11
13.05303794866205
 21
-75.870686066585
 31
0.0
  0
LINE
  5
1CC
330
1F
100
AcDbEntity
  8
0
100
AcDbLine
 10
12.22846764456212
 20
-14.59005246974131
 30
0.0
 11
12.06954903467764
 21
-14.7971592343593
 31
0.0
  0
LINE
  5
1CD
330
1F
100
AcDbEntity
  8
0
100
AcDbLine
 10
12.06954903467764
 20
-14.7971592343593
 30
0.0
 11
11.96964862016511
 21
-15.03834016996231
 31
0.0
  0
LINE
  5
1CE
330
1F
100
AcDbEntity
  8
0
100
AcDbLine
 10
11.96964862016511
 20
-15.03834016996231
 30
0.0
 11
11.93557444918004
 21
-15.29715919435933
 31
0.0
  0
LINE
  5
1CF
330
1F
100
AcDbEntity
  8
0
100
AcDbLine
 10
11.93557444918004
 20
-15.29715919435933
 30
0.0
 11
11.93557444918004
 21
-20.89715874635935
 31
0.0
  0
LINE
  5
1D0
330
1F
100
AcDbEntity
  8
0
100
AcDbLine
 10
-7.064424030820093
 20
-15.29715919435933
 30
0.0
 11
-7.098498201805164
 21
-15.03834016996231
 31
0.0
  0
LINE
  5
1D1
330
1F
100
AcDbEntity
  8
0
100
AcDbLine
 10
-28.06442235082132
 20
23.8885745182629
 30
0.0
 11
-28.06442235082132
 21
19.42753546318081
 31
0.0
  0
LINE
  5
1D2
330
1F
100
AcDbEntity
  8
0
100
AcDbLine
 10
-28.06442235082132
 20
23.94466787859944
 30
0.0
 11
-28.0681147663145
 21
23.91662119843117
 31
0.0
  0
LINE
  5
1D3
330
1F
100
AcDbEntity
  8
0
100
AcDbLine
 10
-25.0644225908209
 20
-2.633376677569009
 30
0.0
 11
-25.0644225908209
 21
16.42753570318075
 31
0.0
  0
LINE
  5
1D4
330
1F
100
AcDbEntity
  8
0
100
AcDbLine
 10
-25.0644225908209
 20
-2.633376677569009
 30
0.0
 11
-18.76269297607866
 21
-2.633376677568963
 31
0.0
  0
LINE
  5
1D5
330
1F
100
AcDbEntity
  8
0
100
AcDbLine
 10
29.9355730091795
 20
-2.633376677568602
 30
0.0
 11
18.63557391317937
 21
-2.633376677568602
 31
0.0
  0
LINE
  5
1D6
330
1F
100
AcDbEntity
  8
0
100
AcDbLine
 10
18.63557391317937
 20
-2.633376677568602
 30
0.0
 11
18.63557391317937
 21
-7.633376277569573
 31
0.0
  0
LINE
  5
1D7
330
1F
100
AcDbEntity
  8
0
100
AcDbLine
 10
-14.16442346282078
 20
-2.633376677569009
 30
0.0
 11
-14.16442346282078
 21
-7.633376277569482
 31
0.0
  0
LINE
  5
1D8
330
1F
100
AcDbEntity
  8
0
100
AcDbLine
 10
29.9355730091795
 20
50.46661907443158
 30
0.0
 11
29.9355730091795
 21
-2.633376677568602
 31
0.0
  0
LINE
  5
1D9
330
1F
100
AcDbEntity
  8
0
100
AcDbLine
 10
-4.915422273730198
 20
73.04672787325086
 30
0.0
 11
-4.915422273730198
 21
61.54672879325087
 31
0.0
  0
LINE
  5
1DA
330
1F
100
AcDbEntity
  8
0
100
AcDbLine
 10
-4.881348102745126
 20
61.28790976885385
 30
0.0
 11
-4.915422273730198
 21
61.54672879325087
 31
0.0
  0
LINE
  5
1DB
330
1F
100
AcDbEntity
  8
0
100
AcDbLine
 10
-3.915422353730149
 20
60.54672887325082
 30
0.0
 11
-4.174241378127161
 21
60.58080304423589
 31
0.0
  0
LINE
  5
1DC
330
1F
100
AcDbEntity
  8
0
100
AcDbLine
 10
-87.31618730764264
 20
41.92546548453487
 30
0.0
 11
-87.750312991728
 21
42.10528623065748
 31
0.0
  0
LINE
  5
1DD
330
1F
100
AcDbEntity
  8
0
100
AcDbLine
 10
-86.94339513133022
 20
41.63941198674295
 30
0.0
 11
-87.31618730764264
 21
41.92546548453487
 31
0.0
  0
LINE
  5
1DE
330
1F
100
AcDbEntity
  8
0
100
AcDbLine
 10
-86.65734163353841
 20
41.26661981043054
 30
0.0
 11
-86.94339513133022
 21
41.63941198674295
 31
0.0
  0
LINE
  5
1DF
330
1F
100
AcDbEntity
  8
0
100
AcDbLine
 10
-86.47752088741561
 20
40.83249412634518
 30
0.0
 11
-86.65734163353841
 21
41.26661981043054
 31
0.0
  0
LINE
  5
1E0
330
1F
100
AcDbEntity
  8
0
100
AcDbLine
 10
-86.41618737964266
 20
40.36661988243056
 30
0.0
 11
-86.47752088741561
 21
40.83249412634518
 31
0.0
  0
LINE
  5
1E1
330
1F
100
AcDbEntity
  8
0
100
AcDbLine
 10
-87.750312991728
 20
38.62795353420363
 30
0.0
 11
-87.31618730764264
 21
38.80777428032625
 31
0.0
  0
LINE
  5
1E2
330
1F
100
AcDbEntity
  8
0
100
AcDbLine
 10
-48.01574871669407
 20
46.45649483643132
 30
0.0
 11
-47.96475078346077
 21
45.98937619933294
 31
0.0
  0
LINE
  5
1E3
330
1F
100
AcDbEntity
  8
0
100
AcDbLine
 10
-2.452148975807134
 20
-50.96318174486194
 30
0.0
 11
-2.693329911410102
 21
-51.06308215937455
 31
0.0
  0
LINE
  5
1E4
330
1F
100
AcDbEntity
  8
0
100
AcDbLine
 10
-2.245042211189148
 20
-50.80426313497755
 30
0.0
 11
-2.452148975807134
 21
-50.96318174486194
 31
0.0
  0
LINE
  5
1E5
330
1F
100
AcDbEntity
  8
0
100
AcDbLine
 10
-2.086123601304662
 20
-50.59715637035956
 30
0.0
 11
-2.245042211189148
 21
-50.80426313497755
 31
0.0
  0
LINE
  5
1E6
330
1F
100
AcDbEntity
  8
0
100
AcDbLine
 10
-1.986223186792136
 20
-50.35597543475654
 30
0.0
 11
-2.086123601304662
 21
-50.59715637035956
 31
0.0
  0
LINE
  5
1E7
330
1F
100
AcDbEntity
  8
0
100
AcDbLine
 10
-1.952149015807064
 20
-50.09715641035953
 30
0.0
 11
-1.986223186792136
 21
-50.35597543475654
 31
0.0
  0
LINE
  5
1E8
330
1F
100
AcDbEntity
  8
0
100
AcDbLine
 10
-4.664424222820172
 20
-28.89715810635939
 30
0.0
 11
18.83557389718014
 21
-28.89715810635939
 31
0.0
  0
LINE
  5
1E9
330
1F
100
AcDbEntity
  8
0
100
AcDbLine
 10
-7.805604926422409
 20
-54.70476193356988
 30
0.0
 11
-8.064423950819421
 21
-54.6706877625849
 31
0.0
  0
LINE
  5
1EA
330
1F
100
AcDbEntity
  8
0
100
AcDbLine
 10
-16.32324233521647
 20
-54.70476193356988
 30
0.0
 11
-16.06442331081946
 21
-54.6706877625849
 31
0.0
  0
LINE
  5
1EB
330
1F
100
AcDbEntity
  8
0
100
AcDbLine
 10
-18.72451538150949
 20
-7.892828449263083
 30
0.0
 11
-18.62452250569661
 21
-8.133830340180916
 31
0.0
  0
LINE
  5
1EC
330
1F
100
AcDbEntity
  8
0
100
AcDbLine
 10
12.93557436918009
 20
-14.29715927435932
 30
0.0
 11
12.67675534478308
 21
-14.3312334453443
 31
0.0
  0
LINE
  5
1ED
330
1F
100
AcDbEntity
  8
0
100
AcDbLine
 10
12.67675534478308
 20
-14.3312334453443
 30
0.0
 11
12.43557440918011
 21
-14.43113385985692
 31
0.0
  0
LINE
  5
1EE
330
1F
100
AcDbEntity
  8
0
100
AcDbLine
 10
25.05303449060199
 20
61.54672879325087
 30
0.0
 11
25.05303449060199
 21
73.04672787325086
 31
0.0
  0
LINE
  5
1EF
330
1F
100
AcDbEntity
  8
0
100
AcDbLine
 10
24.93557340918014
 20
-90.4706848985851
 30
0.0
 11
24.90149923819508
 21
-90.72950392298212
 31
0.0
  0
LINE
  5
1F0
330
1F
100
AcDbEntity
  8
0
100
AcDbLine
 10
89.582005546516
 20
45.17295393905567
 30
0.0
 11
89.94822944965098
 21
44.87853813939254
 31
0.0
  0
LINE
  5
1F1
330
1F
100
AcDbEntity
  8
0
100
AcDbLine
 10
21.64268045379882
 20
-54.96358095796689
 30
0.0
 11
21.43557368918083
 21
-54.80466234808249
 31
0.0
  0
LINE
  5
1F2
330
1F
100
AcDbEntity
  8
0
100
AcDbLine
 10
89.30446083640538
 20
45.55212348452098
 30
0.0
 11
89.582005546516
 21
45.17295393905567
 31
0.0
  0
LINE
  5
1F3
330
1F
100
AcDbEntity
  8
0
100
AcDbLine
 10
-18.62452250569661
 20
-8.133830340180916
 30
0.0
 11
-18.46558805413633
 21
-8.34076106952414
 31
0.0
  0
LINE
  5
1F4
330
1F
100
AcDbEntity
  8
0
100
AcDbLine
 10
-28.06442235082132
 20
19.42753546318081
 30
0.0
 11
-25.0644225908209
 21
16.42753570318075
 31
0.0
  0
LINE
  5
1F5
330
1F
100
AcDbEntity
  8
0
100
AcDbLine
 10
-18.46558805413633
 20
-8.34076106952414
 30
0.0
 11
-18.25853236336581
 21
-8.499532690284383
 31
0.0
  0
LINE
  5
1F6
330
1F
100
AcDbEntity
  8
0
100
AcDbLine
 10
-22.80308925904636
 20
-79.90481146267042
 30
0.0
 11
-22.8644227668194
 21
-80.37068570658504
 31
0.0
  0
LINE
  5
1F7
330
1F
100
AcDbEntity
  8
0
100
AcDbLine
 10
-22.62326851292374
 20
-79.47068577858502
 30
0.0
 11
-22.80308925904636
 21
-79.90481146267042
 31
0.0
  0
LINE
  5
1F8
330
1F
100
AcDbEntity
  8
0
100
AcDbLine
 10
-19.32575656259233
 20
-79.90481146267042
 30
0.0
 11
-19.50557730871495
 21
-79.47068577858502
 31
0.0
  0
LINE
  5
1F9
330
1F
100
AcDbEntity
  8
0
100
AcDbLine
 10
-19.26442305481929
 20
-80.37068570658504
 30
0.0
 11
-19.32575656259233
 21
-79.90481146267042
 31
0.0
  0
LINE
  5
1FA
330
1F
100
AcDbEntity
  8
0
100
AcDbLine
 10
-5.046960603339368
 20
-80.37068570658504
 30
0.0
 11
-7.246960427339244
 21
-76.56017423477441
 31
0.0
  0
LINE
  5
1FB
330
1F
100
AcDbEntity
  8
0
100
AcDbLine
 10
-4.66442422281936
 20
-75.870686066585
 30
0.0
 11
-4.66442422281936
 21
-69.27068659458497
 31
0.0
  0
LINE
  5
1FC
330
1F
100
AcDbEntity
  8
0
100
AcDbLine
 10
-7.246960427339244
 20
-84.18119717839568
 30
0.0
 11
-5.046960603339368
 21
-80.37068570658504
 31
0.0
  0
LINE
  5
1FD
330
1F
100
AcDbEntity
  8
0
100
AcDbLine
 10
-3.664424302821927
 20
56.46661859443124
 30
0.0
 11
17.63557399317932
 21
56.46661859443151
 31
0.0
  0
LINE
  5
1FE
330
1F
100
AcDbEntity
  8
0
100
AcDbLine
 10
19.91906030510432
 20
77.54672751325086
 30
0.0
 11
19.76014169521984
 21
77.75383427786885
 31
0.0
  0
LINE
  5
1FF
330
1F
100
AcDbEntity
  8
0
100
AcDbLine
 10
19.76014169521984
 20
77.75383427786885
 30
0.0
 11
19.55303493060185
 21
77.91275288775333
 31
0.0
  0
LINE
  5
200
330
1F
100
AcDbEntity
  8
0
100
AcDbLine
 10
19.55303493060185
 20
77.91275288775333
 30
0.0
 11
19.31185399499888
 21
78.01265330226585
 31
0.0
  0
LINE
  5
201
330
1F
100
AcDbEntity
  8
0
100
AcDbLine
 10
1.08457724626992
 20
78.04672747325093
 30
0.0
 11
19.05303497060187
 21
78.04672747325093
 31
0.0
  0
LINE
  5
202
330
1F
100
AcDbEntity
  8
0
100
AcDbLine
 10
0.8257582218729077
 20
78.01265330226585
 30
0.0
 11
1.08457724626992
 21
78.04672747325093
 31
0.0
  0
LINE
  5
203
330
1F
100
AcDbEntity
  8
0
100
AcDbLine
 10
89.94822944965098
 20
44.87853813939254
 30
0.0
 11
90.37817499202532
 21
44.68894003573342
 31
0.0
  0
LINE
  5
204
330
1F
100
AcDbEntity
  8
0
100
AcDbLine
 10
-16.12324235121615
 20
-91.43661064760013
 30
0.0
 11
-15.86442332681914
 21
-91.47068481858511
 31
0.0
  0
LINE
  5
205
330
1F
100
AcDbEntity
  8
0
100
AcDbLine
 10
-7.246960427339244
 20
-76.56017423477441
 30
0.0
 11
-11.64696007533935
 21
-76.56017423477441
 31
0.0
  0
LINE
  5
206
330
1F
100
AcDbEntity
  8
0
100
AcDbLine
 10
24.19439251357711
 20
-91.43661064760013
 30
0.0
 11
23.9355734891801
 21
-91.47068481858511
 31
0.0
  0
LINE
  5
207
330
1F
100
AcDbEntity
  8
0
100
AcDbLine
 10
-7.064424030819372
 20
-61.27068723458493
 30
0.0
 11
-7.064424030819372
 21
-55.6706876825849
 31
0.0
  0
LINE
  5
208
330
1F
100
AcDbEntity
  8
0
100
AcDbLine
 10
21.9355736491809
 20
-55.6706876825849
 30
0.0
 11
21.9355736491809
 21
-61.27068723458493
 31
0.0
  0
LINE
  5
209
330
1F
100
AcDbEntity
  8
0
100
AcDbLine
 10
95.88327210865488
 20
63.86661800243087
 30
0.0
 11
95.88327210865488
 21
-14.1619405945103
 31
0.0
  0
LINE
  5
20A
330
1F
100
AcDbEntity
  8
0
100
AcDbLine
 10
23.18684405882266
 20
45.99006911909657
 30
0.0
 11
23.35682990246571
 21
45.55199900680899
 31
0.0
  0
LINE
  5
20B
330
1F
100
AcDbEntity
  8
0
100
AcDbLine
 10
48.88327586865417
 20
28.01662087043175
 30
0.0
 11
47.82211786862651
 21
27.87691676939314
 31
0.0
  0
LINE
  5
20C
330
1F
100
AcDbEntity
  8
0
100
AcDbLine
 10
44.9229802976927
 20
24.97777919845946
 30
0.0
 11
44.78327619665417
 21
23.91662119843181
 31
0.0
  0
LINE
  5
20D
330
1F
100
AcDbEntity
  8
0
100
AcDbLine
 10
23.35682990246571
 20
45.55199900680899
 30
0.0
 11
23.63440450709438
 21
45.17285134535776
 31
0.0
  0
LINE
  5
20E
330
1F
100
AcDbEntity
  8
0
100
AcDbLine
 10
23.63440450709438
 20
45.17285134535776
 30
0.0
 11
24.00065162211691
 21
44.8784644212995
 31
0.0
  0
LINE
  5
20F
330
1F
100
AcDbEntity
  8
0
100
AcDbLine
 10
-19.50557730871495
 20
-79.47068577858502
 30
0.0
 11
-19.79163080650686
 21
-79.0978936022726
 31
0.0
  0
LINE
  5
210
330
1F
100
AcDbEntity
  8
0
100
AcDbLine
 10
12.43557440918083
 20
-54.80466234808249
 30
0.0
 11
12.22846764456285
 21
-54.96358095796689
 31
0.0
  0
LINE
  5
211
330
1F
100
AcDbEntity
  8
0
100
AcDbLine
 10
24.80159882368255
 20
-90.97068485858513
 30
0.0
 11
24.64268021379806
 21
-91.17779162320312
 31
0.0
  0
LINE
  5
212
330
1F
100
AcDbEntity
  8
0
100
AcDbLine
 10
-21.06442291081935
 20
-78.570685850585
 30
0.0
 11
-21.53029715473397
 21
-78.63201935835798
 31
0.0
  0
LINE
  5
213
330
1F
100
AcDbEntity
  8
0
100
AcDbLine
 10
-20.59854866690473
 20
-78.63201935835798
 30
0.0
 11
-21.06442291081935
 21
-78.570685850585
 31
0.0
  0
LINE
  5
214
330
1F
100
AcDbEntity
  8
0
100
AcDbLine
 10
-13.96442347881947
 20
-69.27068659458497
 30
0.0
 11
-18.96442153017574
 21
-69.27462187588114
 31
0.0
  0
LINE
  5
215
330
1F
100
AcDbEntity
  8
0
100
AcDbLine
 10
-21.96442283881933
 20
-78.81184010448064
 30
0.0
 11
-22.33721501513183
 21
-79.0978936022726
 31
0.0
  0
LINE
  5
216
330
1F
100
AcDbEntity
  8
0
100
AcDbLine
 10
21.90149947819583
 20
-55.41186865818789
 30
0.0
 11
21.8015990636833
 21
-55.17068772258489
 31
0.0
  0
LINE
  5
217
330
1F
100
AcDbEntity
  8
0
100
AcDbLine
 10
-3.915422353730149
 20
60.54672887325082
 30
0.0
 11
0.9530414147159019
 21
60.54672887325082
 31
0.0
  0
LINE
  5
218
330
1F
100
AcDbEntity
  8
0
100
AcDbLine
 10
1.211860439112914
 20
60.58080304423589
 30
0.0
 11
0.9530414147159019
 21
60.54672887325082
 31
0.0
  0
LINE
  5
219
330
1F
100
AcDbEntity
  8
0
100
AcDbLine
 10
1.453041374715881
 20
60.68070345874842
 30
0.0
 11
1.211860439112914
 21
60.58080304423589
 31
0.0
  0
LINE
  5
21A
330
1F
100
AcDbEntity
  8
0
100
AcDbLine
 10
1.660148139333868
 20
60.83962206863291
 30
0.0
 11
1.453041374715881
 21
60.68070345874842
 31
0.0
  0
LINE
  5
21B
330
1F
100
AcDbEntity
  8
0
100
AcDbLine
 10
-90.26618707164253
 20
27.46732506989029
 30
0.0
 11
-91.11532480657617
 21
26.81575876936427
 31
0.0
  0
LINE
  5
21C
330
1F
100
AcDbEntity
  8
0
100
AcDbLine
 10
-50.99872912221869
 20
11.76662217043083
 30
0.0
 11
-50.99872912221869
 21
5.466622674430781
 31
0.0
  0
LINE
  5
21D
330
1F
100
AcDbEntity
  8
0
100
AcDbLine
 10
-87.15502923561496
 20
27.87691676939188
 30
0.0
 11
-88.21618723564262
 21
28.01662087043049
 31
0.0
  0
LINE
  5
21E
330
1F
100
AcDbEntity
  8
0
100
AcDbLine
 10
-85.31704966470872
 20
26.81575876936427
 30
0.0
 11
-86.16618739964235
 21
27.46732506989029
 31
0.0
  0
LINE
  5
21F
330
1F
100
AcDbEntity
  8
0
100
AcDbLine
 10
-3.923243327218939
 20
56.43254442344617
 30
0.0
 11
-4.164424262821907
 21
56.33264400893356
 31
0.0
  0
LINE
  5
220
330
1F
100
AcDbEntity
  8
0
100
AcDbLine
 10
-14.90418145463002
 20
56.43254442344617
 30
0.0
 11
-15.16300047902703
 21
56.46661859443124
 31
0.0
  0
LINE
  5
221
330
1F
100
AcDbEntity
  8
0
100
AcDbLine
 10
-89.27734523567028
 20
19.95632562746902
 30
0.0
 11
-88.21618723564262
 21
19.8166215264305
 31
0.0
  0
LINE
  5
222
330
1F
100
AcDbEntity
  8
0
100
AcDbLine
 10
-91.11532480657617
 20
21.01748362749668
 30
0.0
 11
-90.26618707164253
 21
20.36591732697061
 31
0.0
  0
LINE
  5
223
330
1F
100
AcDbEntity
  8
0
100
AcDbLine
 10
-91.76689110710241
 20
21.8666213624305
 30
0.0
 11
-91.11532480657617
 21
21.01748362749668
 31
0.0
  0
LINE
  5
224
330
1F
100
AcDbEntity
  8
0
100
AcDbLine
 10
-92.17648280660383
 20
24.9777791984582
 30
0.0
 11
-92.31618690764243
 21
23.91662119843054
 31
0.0
  0
LINE
  5
225
330
1F
100
AcDbEntity
  8
0
100
AcDbLine
 10
-91.76689110710241
 20
25.96662103443045
 30
0.0
 11
-92.17648280660383
 21
24.9777791984582
 31
0.0
  0
LINE
  5
226
330
1F
100
AcDbEntity
  8
0
100
AcDbLine
 10
-91.11532480657617
 20
26.81575876936427
 30
0.0
 11
-91.76689110710241
 21
25.96662103443045
 31
0.0
  0
LINE
  5
227
330
1F
100
AcDbEntity
  8
0
100
AcDbLine
 10
48.41740162473955
 20
38.62795353420481
 30
0.0
 11
48.88327586865417
 21
38.56662002643177
 31
0.0
  0
LINE
  5
228
330
1F
100
AcDbEntity
  8
0
100
AcDbLine
 10
48.88327586865417
 20
38.56662002643177
 30
0.0
 11
49.34915011256879
 21
38.62795353420481
 31
0.0
  0
LINE
  5
229
330
1F
100
AcDbEntity
  8
0
100
AcDbLine
 10
-7.357317226201455
 20
-54.96358095796689
 30
0.0
 11
-7.56442399081944
 21
-54.80466234808249
 31
0.0
  0
LINE
  5
22A
330
1F
100
AcDbEntity
  8
0
100
AcDbLine
 10
26.73511558786442
 20
46.37603086884975
 30
0.0
 11
26.68430275953618
 21
46.84316967776639
 31
0.0
  0
LINE
  5
22B
330
1F
100
AcDbEntity
  8
0
100
AcDbLine
 10
92.12693796803124
 20
45.11535243629329
 30
0.0
 11
92.42135376769438
 21
45.48157633942828
 31
0.0
  0
LINE
  5
22C
330
1F
100
AcDbEntity
  8
0
100
AcDbLine
 10
92.42135376769438
 20
45.48157633942828
 30
0.0
 11
92.6109518713535
 21
45.91152188180263
 31
0.0
  0
LINE
  5
22D
330
1F
100
AcDbEntity
  8
0
100
AcDbLine
 10
90.37817499202532
 20
44.68894003573342
 30
0.0
 11
90.84254209544495
 21
44.61708042551715
 31
0.0
  0
LINE
  5
22E
330
1F
100
AcDbEntity
  8
0
100
AcDbLine
 10
90.84254209544495
 20
44.61708042551715
 30
0.0
 11
91.30968490921461
 21
44.66785642242628
 31
0.0
  0
LINE
  5
22F
330
1F
100
AcDbEntity
  8
0
100
AcDbLine
 10
49.94443386868182
 20
27.87691676939314
 30
0.0
 11
48.88327586865417
 21
28.01662087043175
 31
0.0
  0
LINE
  5
230
330
1F
100
AcDbEntity
  8
0
100
AcDbLine
 10
46.83327603265417
 20
20.36591732697188
 30
0.0
 11
47.82211786862651
 21
19.95632562747028
 31
0.0
  0
LINE
  5
231
330
1F
100
AcDbEntity
  8
0
100
AcDbLine
 10
-4.66442422281936
 20
-69.27068659458497
 30
0.0
 11
18.83557389718086
 21
-69.27068659458497
 31
0.0
  0
LINE
  5
232
330
1F
100
AcDbEntity
  8
0
100
AcDbLine
 10
-4.781447688232781
 20
81.7512998439799
 30
0.0
 11
-4.881348102745307
 21
81.99248077958288
 31
0.0
  0
LINE
  5
233
330
1F
100
AcDbEntity
  8
0
100
AcDbLine
 10
1.453041374715701
 20
81.38527446947744
 30
0.0
 11
1.211860439112733
 21
81.2853740549649
 31
0.0
  0
LINE
  5
234
330
1F
100
AcDbEntity
  8
0
100
AcDbLine
 10
1.660148139333687
 20
81.54419307936192
 30
0.0
 11
1.453041374715701
 21
81.38527446947744
 31
0.0
  0
LINE
  5
235
330
1F
100
AcDbEntity
  8
0
100
AcDbLine
 10
1.819066749218173
 20
81.7512998439799
 30
0.0
 11
1.660148139333687
 21
81.54419307936192
 31
0.0
  0
LINE
  5
236
330
1F
100
AcDbEntity
  8
0
100
AcDbLine
 10
1.819066749218354
 20
61.0467288332509
 30
0.0
 11
1.660148139333868
 21
60.83962206863291
 31
0.0
  0
LINE
  5
237
330
1F
100
AcDbEntity
  8
0
100
AcDbLine
 10
1.91896716373088
 20
61.28790976885385
 30
0.0
 11
1.819066749218354
 21
61.0467288332509
 31
0.0
  0
LINE
  5
238
330
1F
100
AcDbEntity
  8
0
100
AcDbLine
 10
1.953041334715952
 20
61.54672879325087
 30
0.0
 11
1.91896716373088
 21
61.28790976885385
 31
0.0
  0
LINE
  5
239
330
1F
100
AcDbEntity
  8
0
100
AcDbLine
 10
49.34915011256924
 20
5.727956166203414
 30
0.0
 11
49.7832757966546
 21
5.907776912326079
 31
0.0
  0
LINE
  5
23A
330
1F
100
AcDbEntity
  8
0
100
AcDbLine
 10
48.88327586865462
 20
5.666622658430421
 30
0.0
 11
49.34915011256924
 21
5.727956166203414
 31
0.0
  0
LINE
  5
23B
330
1F
100
AcDbEntity
  8
0
100
AcDbLine
 10
48.41740162473999
 20
5.727956166203414
 30
0.0
 11
48.88327586865462
 21
5.666622658430421
 31
0.0
  0
LINE
  5
23C
330
1F
100
AcDbEntity
  8
0
100
AcDbLine
 10
47.98327594065454
 20
5.907776912326079
 30
0.0
 11
48.41740162473999
 21
5.727956166203414
 31
0.0
  0
LINE
  5
23D
330
1F
100
AcDbEntity
  8
0
100
AcDbLine
 10
47.61048376434213
 20
6.193830410118036
 30
0.0
 11
47.98327594065454
 21
5.907776912326079
 31
0.0
  0
LINE
  5
23E
330
1F
100
AcDbEntity
  8
0
100
AcDbLine
 10
47.32443026655022
 20
6.566622586430448
 30
0.0
 11
47.61048376434213
 21
6.193830410118036
 31
0.0
  0
LINE
  5
23F
330
1F
100
AcDbEntity
  8
0
100
AcDbLine
 10
50.62194221688164
 20
7.000748270515853
 30
0.0
 11
50.68327572465467
 21
7.466622514430474
 31
0.0
  0
LINE
  5
240
330
1F
100
AcDbEntity
  8
0
100
AcDbLine
 10
50.44212147075901
 20
6.566622586430448
 30
0.0
 11
50.62194221688164
 21
7.000748270515853
 31
0.0
  0
LINE
  5
241
330
1F
100
AcDbEntity
  8
0
100
AcDbLine
 10
50.1560679729671
 20
6.193830410118036
 30
0.0
 11
50.44212147075901
 21
6.566622586430448
 31
0.0
  0
LINE
  5
242
330
1F
100
AcDbEntity
  8
0
100
AcDbLine
 10
49.7832757966546
 20
5.907776912326079
 30
0.0
 11
50.1560679729671
 21
6.193830410118036
 31
0.0
  0
LINE
  5
243
330
1F
100
AcDbEntity
  8
0
100
AcDbLine
 10
89.34664684827641
 20
2.354056228836536
 30
0.0
 11
89.15638052441608
 21
1.924405980002184
 31
0.0
  0
LINE
  5
244
330
1F
100
AcDbEntity
  8
0
100
AcDbLine
 10
89.64163167149745
 20
2.719821952200516
 30
0.0
 11
89.34664684827641
 21
2.354056228836536
 31
0.0
  0
LINE
  5
245
330
1F
100
AcDbEntity
  8
0
100
AcDbLine
 10
90.02123226586237
 20
2.996776820503244
 30
0.0
 11
89.64163167149745
 21
2.719821952200516
 31
0.0
  0
LINE
  5
246
330
1F
100
AcDbEntity
  8
0
100
AcDbLine
 10
90.4595794781847
 20
3.166046817159492
 30
0.0
 11
90.02123226586237
 21
2.996776820503244
 31
0.0
  0
LINE
  5
247
330
1F
100
AcDbEntity
  8
0
100
AcDbLine
 10
90.9268006703477
 20
3.216096471629022
 30
0.0
 11
90.4595794781847
 21
3.166046817159492
 31
0.0
  0
LINE
  5
248
330
1F
100
AcDbEntity
  8
0
100
AcDbLine
 10
89.15638052441608
 20
1.924405980002184
 30
0.0
 11
89.08379903545779
 21
1.460151160124841
 31
0.0
  0
LINE
  5
249
330
1F
100
AcDbEntity
  8
0
100
AcDbLine
 10
47.08327601265457
 20
7.466622514430474
 30
0.0
 11
47.1446095204276
 21
7.000748270515853
 31
0.0
  0
LINE
  5
24A
330
1F
100
AcDbEntity
  8
0
100
AcDbLine
 10
90.37548952708462
 20
-0.310268985806697
 30
0.0
 11
90.83974434696192
 21
-0.3828504747650391
 31
0.0
  0
LINE
  5
24B
330
1F
100
AcDbEntity
  8
0
100
AcDbLine
 10
89.94583927825022
 20
-0.1200026619464116
 30
0.0
 11
90.37548952708462
 21
-0.310268985806697
 31
0.0
  0
LINE
  5
24C
330
1F
100
AcDbEntity
  8
0
100
AcDbLine
 10
89.5800735548863
 20
0.1749821612746387
 30
0.0
 11
89.94583927825022
 21
-0.1200026619464116
 31
0.0
  0
LINE
  5
24D
330
1F
100
AcDbEntity
  8
0
100
AcDbLine
 10
89.30311868658352
 20
0.5545827556395053
 30
0.0
 11
89.5800735548863
 21
0.1749821612746387
 31
0.0
  0
LINE
  5
24E
330
1F
100
AcDbEntity
  8
0
100
AcDbLine
 10
89.13384868992726
 20
0.9929299679618271
 30
0.0
 11
89.30311868658352
 21
0.5545827556395053
 31
0.0
  0
LINE
  5
24F
330
1F
100
AcDbEntity
  8
0
100
AcDbLine
 10
89.08379903545779
 20
1.460151160124841
 30
0.0
 11
89.13384868992726
 21
0.9929299679618271
 31
0.0
  0
LINE
  5
250
330
1F
100
AcDbEntity
  8
0
100
AcDbLine
 10
52.43397974011405
 20
25.96662103443171
 30
0.0
 11
51.78241343958798
 21
26.81575876936553
 31
0.0
  0
LINE
  5
251
330
1F
100
AcDbEntity
  8
0
100
AcDbLine
 10
91.08327249265486
 20
-9.233376149568091
 30
0.0
 11
91.08327249265486
 21
-2.633376677568061
 31
0.0
  0
LINE
  5
252
330
1F
100
AcDbEntity
  8
0
100
AcDbLine
 10
84.08327305265469
 20
-9.233376149568091
 30
0.0
 11
91.08327249265486
 21
-9.233376149568091
 31
0.0
  0
LINE
  5
253
330
1F
100
AcDbEntity
  8
0
100
AcDbLine
 10
84.08327305265469
 20
-2.633376677568061
 30
0.0
 11
84.08327305265469
 21
-9.233376149568091
 31
0.0
  0
LINE
  5
254
330
1F
100
AcDbEntity
  8
0
100
AcDbLine
 10
91.08327249265486
 20
-2.633376677568061
 30
0.0
 11
84.08327305265469
 21
-2.633376677568061
 31
0.0
  0
LINE
  5
255
330
1F
100
AcDbEntity
  8
0
100
AcDbLine
 10
48.88327586865507
 20
-2.633376677568377
 30
0.0
 11
48.88327586865507
 21
-9.433376133568409
 31
0.0
  0
LINE
  5
256
330
1F
100
AcDbEntity
  8
0
100
AcDbLine
 10
-16.73044866132159
 20
-90.97068485858513
 30
0.0
 11
-16.57153005143711
 21
-91.17779162320312
 31
0.0
  0
LINE
  5
257
330
1F
100
AcDbEntity
  8
0
100
AcDbLine
 10
-21.53029715473397
 20
-82.1093520548121
 30
0.0
 11
-21.06442291081935
 21
-82.17068556258509
 31
0.0
  0
LINE
  5
258
330
1F
100
AcDbEntity
  8
0
100
AcDbLine
 10
-21.96442283881942
 20
-81.92953130868945
 30
0.0
 11
-21.53029715473397
 21
-82.1093520548121
 31
0.0
  0
LINE
  5
259
330
1F
100
AcDbEntity
  8
0
100
AcDbLine
 10
49.34915011256879
 20
38.62795353420481
 30
0.0
 11
49.78327579665415
 21
38.80777428032742
 31
0.0
  0
LINE
  5
25A
330
1F
100
AcDbEntity
  8
0
100
AcDbLine
 10
-20.59854866690473
 20
-82.1093520548121
 30
0.0
 11
-20.16442298281936
 21
-81.92953130868945
 31
0.0
  0
LINE
  5
25B
330
1F
100
AcDbEntity
  8
0
100
AcDbLine
 10
-21.06442291081935
 20
-82.17068556258509
 30
0.0
 11
-20.59854866690473
 21
-82.1093520548121
 31
0.0
  0
LINE
  5
25C
330
1F
100
AcDbEntity
  8
0
100
AcDbLine
 10
-16.77153003543742
 20
-54.96358095796689
 30
0.0
 11
-16.56442327081944
 21
-54.80466234808249
 31
0.0
  0
LINE
  5
25D
330
1F
100
AcDbEntity
  8
0
100
AcDbLine
 10
29.93557300918085
 20
-61.27068723458493
 30
0.0
 11
21.9355736491809
 21
-61.27068723458493
 31
0.0
  0
LINE
  5
25E
330
1F
100
AcDbEntity
  8
0
100
AcDbLine
 10
29.93557300918085
 20
-61.27068723458493
 30
0.0
 11
29.93557300918094
 21
-84.87068534658509
 31
0.0
  0
LINE
  5
25F
330
1F
100
AcDbEntity
  8
0
100
AcDbLine
 10
21.19439275357786
 20
-54.70476193356988
 30
0.0
 11
20.93557372918085
 21
-54.6706877625849
 31
0.0
  0
LINE
  5
260
330
1F
100
AcDbEntity
  8
0
100
AcDbLine
 10
-84.25589166468106
 20
24.9777791984582
 30
0.0
 11
-84.66548336418248
 21
25.96662103443045
 31
0.0
  0
LINE
  5
261
330
1F
100
AcDbEntity
  8
0
100
AcDbLine
 10
-99.21618635564272
 20
19.42753546318022
 30
0.0
 11
-96.2161865956423
 21
16.42753570318017
 31
0.0
  0
LINE
  5
262
330
1F
100
AcDbEntity
  8
0
100
AcDbLine
 10
-99.21618635564272
 20
28.40570693368054
 30
0.0
 11
-99.21618635564272
 21
19.42753546318022
 31
0.0
  0
LINE
  5
263
330
1F
100
AcDbEntity
  8
0
100
AcDbLine
 10
-99.21618635564272
 20
28.40570693368054
 30
0.0
 11
-96.2161865956423
 21
31.40570669368055
 31
0.0
  0
LINE
  5
264
330
1F
100
AcDbEntity
  8
0
100
AcDbLine
 10
-96.2161865956423
 20
31.40570669368055
 30
0.0
 11
-96.2161865956423
 21
63.86661800243087
 31
0.0
  0
LINE
  5
265
330
1F
100
AcDbEntity
  8
0
100
AcDbLine
 10
-86.16618739964235
 20
27.46732506989029
 30
0.0
 11
-87.15502923561496
 21
27.87691676939188
 31
0.0
  0
LINE
  5
266
330
1F
100
AcDbEntity
  8
0
100
AcDbLine
 10
-88.21618723564262
 20
28.01662087043049
 30
0.0
 11
-89.27734523567028
 21
27.87691676939188
 31
0.0
  0
LINE
  5
267
330
1F
100
AcDbEntity
  8
0
100
AcDbLine
 10
-89.27734523567028
 20
27.87691676939188
 30
0.0
 11
-90.26618707164253
 21
27.46732506989029
 31
0.0
  0
LINE
  5
268
330
1F
100
AcDbEntity
  8
0
100
AcDbLine
 10
-92.31618690764243
 20
23.91662119843054
 30
0.0
 11
-92.17648280660383
 21
22.85546319840288
 31
0.0
  0
LINE
  5
269
330
1F
100
AcDbEntity
  8
0
100
AcDbLine
 10
-92.17648280660383
 20
22.85546319840288
 30
0.0
 11
-91.76689110710241
 21
21.8666213624305
 31
0.0
  0
LINE
  5
26A
330
1F
100
AcDbEntity
  8
0
100
AcDbLine
 10
-90.26618707164253
 20
20.36591732697061
 30
0.0
 11
-89.27734523567028
 21
19.95632562746902
 31
0.0
  0
LINE
  5
26B
330
1F
100
AcDbEntity
  8
0
100
AcDbLine
 10
-87.15502923561496
 20
19.95632562746902
 30
0.0
 11
-86.16618739964235
 21
20.36591732697061
 31
0.0
  0
LINE
  5
26C
330
1F
100
AcDbEntity
  8
0
100
AcDbLine
 10
-85.31704966470872
 20
21.01748362749668
 30
0.0
 11
-84.66548336418248
 21
21.8666213624305
 31
0.0
  0
LINE
  5
26D
330
1F
100
AcDbEntity
  8
0
100
AcDbLine
 10
-84.66548336418248
 20
21.8666213624305
 30
0.0
 11
-84.25589166468106
 21
22.85546319840288
 31
0.0
  0
LINE
  5
26E
330
1F
100
AcDbEntity
  8
0
100
AcDbLine
 10
-84.25589166468106
 20
22.85546319840288
 30
0.0
 11
-84.11618756364244
 21
23.91662119843054
 31
0.0
  0
LINE
  5
26F
330
1F
100
AcDbEntity
  8
0
100
AcDbLine
 10
-50.99872912221905
 20
42.36661972243093
 30
0.0
 11
-50.99872912221905
 21
36.06662022643088
 31
0.0
  0
LINE
  5
270
330
1F
100
AcDbEntity
  8
0
100
AcDbLine
 10
-71.16718667055133
 20
36.06662022643052
 30
0.0
 11
-71.16718667055133
 21
42.36661972243057
 31
0.0
  0
LINE
  5
271
330
1F
100
AcDbEntity
  8
0
100
AcDbLine
 10
-4.915422273730379
 20
93.75129888397987
 30
0.0
 11
-4.915422273730379
 21
82.25129980397988
 31
0.0
  0
LINE
  5
272
330
1F
100
AcDbEntity
  8
0
100
AcDbLine
 10
0.0845773262696896
 20
93.75129888397987
 30
0.0
 11
-4.915422273730379
 21
93.75129888397987
 31
0.0
  0
LINE
  5
273
330
1F
100
AcDbEntity
  8
0
100
AcDbLine
 10
1.084577246269739
 20
98.75129848397994
 30
0.0
 11
19.05303497060169
 21
98.75129848397994
 31
0.0
  0
LINE
  5
274
330
1F
100
AcDbEntity
  8
0
100
AcDbLine
 10
0.3774705216517731
 20
98.45840528859786
 30
0.0
 11
0.5845772862697596
 21
98.61732389848234
 31
0.0
  0
LINE
  5
275
330
1F
100
AcDbEntity
  8
0
100
AcDbLine
 10
-4.415422313730309
 20
81.38527446947744
 30
0.0
 11
-4.622529078348295
 21
81.54419307936192
 31
0.0
  0
LINE
  5
276
330
1F
100
AcDbEntity
  8
0
100
AcDbLine
 10
-4.174241378127341
 20
81.2853740549649
 30
0.0
 11
-4.415422313730309
 21
81.38527446947744
 31
0.0
  0
LINE
  5
277
330
1F
100
AcDbEntity
  8
0
100
AcDbLine
 10
-3.915422353730329
 20
81.25129988397984
 30
0.0
 11
0.9530414147157213
 21
81.25129988397984
 31
0.0
  0
LINE
  5
278
330
1F
100
AcDbEntity
  8
0
100
AcDbLine
 10
1.9189671637307
 20
81.99248077958288
 30
0.0
 11
1.819066749218173
 21
81.7512998439799
 31
0.0
  0
LINE
  5
279
330
1F
100
AcDbEntity
  8
0
100
AcDbLine
 10
1.953041334715771
 20
82.25129980397988
 30
0.0
 11
1.9189671637307
 21
81.99248077958288
 31
0.0
  0
LINE
  5
27A
330
1F
100
AcDbEntity
  8
0
100
AcDbLine
 10
1.953041334715771
 20
82.25129980397988
 30
0.0
 11
1.953041334715771
 21
86.2512994839799
 31
0.0
  0
LINE
  5
27B
330
1F
100
AcDbEntity
  8
0
100
AcDbLine
 10
18.28700962809939
 20
81.7512998439799
 30
0.0
 11
18.44592823798388
 21
81.54419307936192
 31
0.0
  0
LINE
  5
27C
330
1F
100
AcDbEntity
  8
0
100
AcDbLine
 10
18.44592823798388
 20
81.54419307936192
 30
0.0
 11
18.65303500260186
 21
81.38527446947744
 31
0.0
  0
LINE
  5
27D
330
1F
100
AcDbEntity
  8
0
100
AcDbLine
 10
18.65303500260186
 20
81.38527446947744
 30
0.0
 11
18.89421593820484
 21
81.2853740549649
 31
0.0
  0
LINE
  5
27E
330
1F
100
AcDbEntity
  8
0
100
AcDbLine
 10
19.15303496260185
 20
81.25129988397984
 30
0.0
 11
24.05303457060176
 21
81.25129988397984
 31
0.0
  0
LINE
  5
27F
330
1F
100
AcDbEntity
  8
0
100
AcDbLine
 10
24.31185359499877
 20
81.2853740549649
 30
0.0
 11
24.05303457060176
 21
81.25129988397984
 31
0.0
  0
LINE
  5
280
330
1F
100
AcDbEntity
  8
0
100
AcDbLine
 10
24.55303453060174
 20
81.38527446947744
 30
0.0
 11
24.31185359499877
 21
81.2853740549649
 31
0.0
  0
LINE
  5
281
330
1F
100
AcDbEntity
  8
0
100
AcDbLine
 10
24.76014129521972
 20
81.54419307936192
 30
0.0
 11
24.55303453060174
 21
81.38527446947744
 31
0.0
  0
LINE
  5
282
330
1F
100
AcDbEntity
  8
0
100
AcDbLine
 10
24.91905990510421
 20
81.7512998439799
 30
0.0
 11
24.76014129521972
 21
81.54419307936192
 31
0.0
  0
LINE
  5
283
330
1F
100
AcDbEntity
  8
0
100
AcDbLine
 10
25.01896031961673
 20
81.99248077958288
 30
0.0
 11
24.91905990510421
 21
81.7512998439799
 31
0.0
  0
LINE
  5
284
330
1F
100
AcDbEntity
  8
0
100
AcDbLine
 10
25.05303449060181
 20
82.25129980397988
 30
0.0
 11
25.01896031961673
 21
81.99248077958288
 31
0.0
  0
LINE
  5
285
330
1F
100
AcDbEntity
  8
0
100
AcDbLine
 10
20.05303489060174
 20
97.75129856397989
 30
0.0
 11
20.05303489060174
 21
93.75129888397987
 31
0.0
  0
LINE
  5
286
330
1F
100
AcDbEntity
  8
0
100
AcDbLine
 10
19.91906030510414
 20
98.25129852397986
 30
0.0
 11
19.76014169521966
 21
98.45840528859786
 31
0.0
  0
LINE
  5
287
330
1F
100
AcDbEntity
  8
0
100
AcDbLine
 10
19.76014169521966
 20
98.45840528859786
 30
0.0
 11
19.55303493060167
 21
98.61732389848234
 31
0.0
  0
LINE
  5
288
330
1F
100
AcDbEntity
  8
0
100
AcDbLine
 10
19.55303493060167
 20
98.61732389848234
 30
0.0
 11
19.3118539949987
 21
98.71722431299487
 31
0.0
  0
LINE
  5
289
330
1F
100
AcDbEntity
  8
0
100
AcDbLine
 10
20.05303489060192
 20
73.04672787325086
 30
0.0
 11
25.05303449060199
 21
73.04672787325086
 31
0.0
  0
LINE
  5
28A
330
1F
100
AcDbEntity
  8
0
100
AcDbLine
 10
20.05303489060192
 20
77.04672755325088
 30
0.0
 11
20.05303489060192
 21
73.04672787325086
 31
0.0
  0
LINE
  5
28B
330
1F
100
AcDbEntity
  8
0
100
AcDbLine
 10
0.58457728626994
 20
77.91275288775333
 30
0.0
 11
0.8257582218729077
 21
78.01265330226585
 31
0.0
  0
LINE
  5
28C
330
1F
100
AcDbEntity
  8
0
100
AcDbLine
 10
0.3774705216519536
 20
77.75383427786885
 30
0.0
 11
0.58457728626994
 21
77.91275288775333
 31
0.0
  0
LINE
  5
28D
330
1F
100
AcDbEntity
  8
0
100
AcDbLine
 10
0.0845773262698701
 20
73.04672787325086
 30
0.0
 11
0.0845773262698701
 21
77.04672755325088
 31
0.0
  0
LINE
  5
28E
330
1F
100
AcDbEntity
  8
0
100
AcDbLine
 10
-4.915422273730198
 20
73.04672787325086
 30
0.0
 11
0.0845773262698701
 21
73.04672787325086
 31
0.0
  0
LINE
  5
28F
330
1F
100
AcDbEntity
  8
0
100
AcDbLine
 10
-4.174241378127161
 20
60.58080304423589
 30
0.0
 11
-4.415422313730129
 21
60.68070345874842
 31
0.0
  0
LINE
  5
290
330
1F
100
AcDbEntity
  8
0
100
AcDbLine
 10
1.953041334715952
 20
61.54672879325087
 30
0.0
 11
1.953041334715952
 21
65.54672847325088
 31
0.0
  0
LINE
  5
291
330
1F
100
AcDbEntity
  8
0
100
AcDbLine
 10
1.953041334715952
 20
65.54672847325088
 30
0.0
 11
18.15303504260198
 21
65.54672847325088
 31
0.0
  0
LINE
  5
292
330
1F
100
AcDbEntity
  8
0
100
AcDbLine
 10
18.15303504260198
 20
65.54672847325088
 30
0.0
 11
18.15303504260198
 21
61.54672879325087
 31
0.0
  0
LINE
  5
293
330
1F
100
AcDbEntity
  8
0
100
AcDbLine
 10
18.18710921358705
 20
61.28790976885385
 30
0.0
 11
18.15303504260198
 21
61.54672879325087
 31
0.0
  0
LINE
  5
294
330
1F
100
AcDbEntity
  8
0
100
AcDbLine
 10
18.28700962809958
 20
61.0467288332509
 30
0.0
 11
18.18710921358705
 21
61.28790976885385
 31
0.0
  0
LINE
  5
295
330
1F
100
AcDbEntity
  8
0
100
AcDbLine
 10
18.44592823798406
 20
60.83962206863291
 30
0.0
 11
18.28700962809958
 21
61.0467288332509
 31
0.0
  0
LINE
  5
296
330
1F
100
AcDbEntity
  8
0
100
AcDbLine
 10
18.65303500260205
 20
60.68070345874842
 30
0.0
 11
18.44592823798406
 21
60.83962206863291
 31
0.0
  0
LINE
  5
297
330
1F
100
AcDbEntity
  8
0
100
AcDbLine
 10
18.89421593820501
 20
60.58080304423589
 30
0.0
 11
18.65303500260205
 21
60.68070345874842
 31
0.0
  0
LINE
  5
298
330
1F
100
AcDbEntity
  8
0
100
AcDbLine
 10
19.15303496260203
 20
60.54672887325082
 30
0.0
 11
24.05303457060194
 21
60.54672887325082
 31
0.0
  0
LINE
  5
299
330
1F
100
AcDbEntity
  8
0
100
AcDbLine
 10
24.31185359499895
 20
60.58080304423589
 30
0.0
 11
24.05303457060194
 21
60.54672887325082
 31
0.0
  0
LINE
  5
29A
330
1F
100
AcDbEntity
  8
0
100
AcDbLine
 10
24.55303453060192
 20
60.68070345874842
 30
0.0
 11
24.31185359499895
 21
60.58080304423589
 31
0.0
  0
LINE
  5
29B
330
1F
100
AcDbEntity
  8
0
100
AcDbLine
 10
24.7601412952199
 20
60.83962206863291
 30
0.0
 11
24.55303453060192
 21
60.68070345874842
 31
0.0
  0
LINE
  5
29C
330
1F
100
AcDbEntity
  8
0
100
AcDbLine
 10
-16.57153005143711
 20
-91.17779162320312
 30
0.0
 11
-16.36442328681912
 21
-91.33671023308753
 31
0.0
  0
LINE
  5
29D
330
1F
100
AcDbEntity
  8
0
100
AcDbLine
 10
-16.36442328681912
 20
-91.33671023308753
 30
0.0
 11
-16.12324235121615
 21
-91.43661064760013
 31
0.0
  0
LINE
  5
29E
330
1F
100
AcDbEntity
  8
0
100
AcDbLine
 10
18.36964810816514
 20
-90.72950392298212
 30
0.0
 11
18.46954852267767
 21
-90.97068485858513
 31
0.0
  0
LINE
  5
29F
330
1F
100
AcDbEntity
  8
0
100
AcDbLine
 10
18.33557393718007
 20
-90.4706848985851
 30
0.0
 11
18.36964810816514
 21
-90.72950392298212
 31
0.0
  0
LINE
  5
2A0
330
1F
100
AcDbEntity
  8
0
100
AcDbLine
 10
-4.664424222821165
 20
-7.633376277568941
 30
0.0
 11
-4.630350051836093
 21
-7.892195301965955
 31
0.0
  0
LINE
  5
2A1
330
1F
100
AcDbEntity
  8
0
100
AcDbLine
 10
-80.45030269194359
 20
-41.872086148387
 30
0.0
 11
-80.45030269194359
 21
-46.372085788387
 31
0.0
  0
LINE
  5
2A2
330
1F
100
AcDbEntity
  8
0
100
AcDbLine
 10
-90.6091476060479
 20
-42.77208607638698
 30
0.0
 11
-90.32309410825626
 21
-43.14487825269939
 31
0.0
  0
LINE
  5
2A3
330
1F
100
AcDbEntity
  8
0
100
AcDbLine
 10
-88.58442776002906
 20
-43.61075249661397
 30
0.0
 11
-88.15030207594371
 21
-43.4309317504913
 31
0.0
  0
LINE
  5
2A4
330
1F
100
AcDbEntity
  8
0
100
AcDbLine
 10
24.8949848795977
 20
44.61707721974648
 30
0.0
 11
25.36212368851434
 21
44.66789004807472
 31
0.0
  0
LINE
  5
2A5
330
1F
100
AcDbEntity
  8
0
100
AcDbLine
 10
-77.45030293194354
 20
-38.87208638838694
 30
0.0
 11
-78.22676000513475
 21
-38.97430890134193
 31
0.0
  0
LINE
  5
2A6
330
1F
100
AcDbEntity
  8
0
100
AcDbLine
 10
-63.45030405194356
 20
-36.67593414137256
 30
0.0
 11
-64.6929446396513
 21
-37.62944580067893
 31
0.0
  0
LINE
  5
2A7
330
1F
100
AcDbEntity
  8
0
100
AcDbLine
 10
-58.89739014556144
 20
-36.07653165429695
 30
0.0
 11
-60.4503042919435
 21
-35.87208662838697
 31
0.0
  0
LINE
  5
2A8
330
1F
100
AcDbEntity
  8
0
100
AcDbLine
 10
-54.4503047719432
 20
-41.872086148387
 30
0.0
 11
-54.4503047719432
 21
-46.372085788387
 31
0.0
  0
LINE
  5
2A9
330
1F
100
AcDbEntity
  8
0
100
AcDbLine
 10
-78.95030281194357
 20
-39.27401014487973
 30
0.0
 11
-79.57162310579753
 21
-39.75076597453292
 31
0.0
  0
LINE
  5
2AA
330
1F
100
AcDbEntity
  8
0
100
AcDbLine
 10
-7.098498201804442
 20
-55.41186865818789
 30
0.0
 11
-7.198398616316968
 21
-55.17068772258489
 31
0.0
  0
LINE
  5
2AB
330
1F
100
AcDbEntity
  8
0
100
AcDbLine
 10
-16.56442327081944
 20
-54.80466234808249
 30
0.0
 11
-16.32324233521647
 21
-54.70476193356988
 31
0.0
  0
LINE
  5
2AC
330
1F
100
AcDbEntity
  8
0
100
AcDbLine
 10
-90.85030185994383
 20
-41.872086148387
 30
0.0
 11
-90.7889683521707
 21
-42.33796039230158
 31
0.0
  0
LINE
  5
2AD
330
1F
100
AcDbEntity
  8
0
100
AcDbLine
 10
24.43061211189638
 20
44.68890021701161
 30
0.0
 11
24.8949848795977
 21
44.61707721974648
 31
0.0
  0
LINE
  5
2AE
330
1F
100
AcDbEntity
  8
0
100
AcDbLine
 10
50.68327572465467
 20
7.466622514430474
 30
0.0
 11
50.62194221688164
 21
7.932496758345096
 31
0.0
  0
LINE
  5
2AF
330
1F
100
AcDbEntity
  8
0
100
AcDbLine
 10
24.66278122486844
 20
-81.64347781089748
 30
0.0
 11
25.03557340118084
 21
-81.92953130868945
 31
0.0
  0
LINE
  5
2B0
330
1F
100
AcDbEntity
  8
0
100
AcDbLine
 10
24.37672772707652
 20
-81.27068563458506
 30
0.0
 11
24.66278122486844
 21
-81.64347781089748
 31
0.0
  0
LINE
  5
2B1
330
1F
100
AcDbEntity
  8
0
100
AcDbLine
 10
24.1969069809539
 20
-80.83655995049968
 30
0.0
 11
24.37672772707652
 21
-81.27068563458506
 31
0.0
  0
LINE
  5
2B2
330
1F
100
AcDbEntity
  8
0
100
AcDbLine
 10
27.49441893128531
 20
-81.27068563458506
 30
0.0
 11
27.67423967740793
 21
-80.83655995049968
 31
0.0
  0
LINE
  5
2B3
330
1F
100
AcDbEntity
  8
0
100
AcDbLine
 10
27.2083654334934
 20
-81.64347781089748
 30
0.0
 11
27.49441893128531
 21
-81.27068563458506
 31
0.0
  0
LINE
  5
2B4
330
1F
100
AcDbEntity
  8
0
100
AcDbLine
 10
50.44212147075901
 20
8.3666224424305
 30
0.0
 11
50.1560679729671
 21
8.739414618742913
 31
0.0
  0
LINE
  5
2B5
330
1F
100
AcDbEntity
  8
0
100
AcDbLine
 10
18.83557389718014
 20
-91.33671023308753
 30
0.0
 11
19.07675483278311
 21
-91.43661064760013
 31
0.0
  0
LINE
  5
2B6
330
1F
100
AcDbEntity
  8
0
100
AcDbLine
 10
11.93557444918076
 20
-55.6706876825849
 30
0.0
 11
11.93557444918076
 21
-61.27068723458493
 31
0.0
  0
LINE
  5
2B7
330
1F
100
AcDbEntity
  8
0
100
AcDbLine
 10
11.93557444918076
 20
-61.27068723458493
 30
0.0
 11
-7.064424030819372
 21
-61.27068723458493
 31
0.0
  0
LINE
  5
2B8
330
1F
100
AcDbEntity
  8
0
100
AcDbLine
 10
92.46208418090423
 20
47.28111531234325
 30
0.0
 11
92.18453947079362
 21
47.66028485780854
 31
0.0
  0
LINE
  5
2B9
330
1F
100
AcDbEntity
  8
0
100
AcDbLine
 10
92.18453947079362
 20
47.66028485780854
 30
0.0
 11
91.81831556765864
 21
47.95470065747168
 31
0.0
  0
LINE
  5
2BA
330
1F
100
AcDbEntity
  8
0
100
AcDbLine
 10
24.00065162211691
 20
44.8784644212995
 30
0.0
 11
24.43061211189638
 21
44.68890021701161
 31
0.0
  0
LINE
  5
2BB
330
1F
100
AcDbEntity
  8
0
100
AcDbLine
 10
-17.06442323081951
 20
-61.27068723458493
 30
0.0
 11
-25.06442259081954
 21
-61.27068723458493
 31
0.0
  0
LINE
  5
2BC
330
1F
100
AcDbEntity
  8
0
100
AcDbLine
 10
-11.64696007533935
 20
-76.56017423477441
 30
0.0
 11
-13.84695989933923
 21
-80.37068570658504
 31
0.0
  0
LINE
  5
2BD
330
1F
100
AcDbEntity
  8
0
100
AcDbLine
 10
-13.95923160146017
 20
-75.870686066585
 30
0.0
 11
-13.96442347881947
 21
-69.27068659458497
 31
0.0
  0
LINE
  5
2BE
330
1F
100
AcDbEntity
  8
0
100
AcDbLine
 10
12.6767553447838
 20
-54.70476193356988
 30
0.0
 11
12.43557440918083
 21
-54.80466234808249
 31
0.0
  0
LINE
  5
2BF
330
1F
100
AcDbEntity
  8
0
100
AcDbLine
 10
18.62846713256143
 20
-50.80426313497755
 30
0.0
 11
18.83557389717942
 21
-50.96318174486194
 31
0.0
  0
LINE
  5
2C0
330
1F
100
AcDbEntity
  8
0
100
AcDbLine
 10
18.83557389717942
 20
-50.96318174486194
 30
0.0
 11
19.07675483278239
 21
-51.06308215937455
 31
0.0
  0
LINE
  5
2C1
330
1F
100
AcDbEntity
  8
0
100
AcDbLine
 10
-1.952149015807064
 20
-50.09715641035953
 30
0.0
 11
-1.952149015807064
 21
-35.49715757835942
 31
0.0
  0
LINE
  5
2C2
330
1F
100
AcDbEntity
  8
0
100
AcDbLine
 10
19.07675483278239
 20
-51.06308215937455
 30
0.0
 11
19.3355738571794
 21
-51.09715633035953
 31
0.0
  0
LINE
  5
2C3
330
1F
100
AcDbEntity
  8
0
100
AcDbLine
 10
-4.664424222821165
 20
-7.633376277568941
 30
0.0
 11
-4.664424222821165
 21
-2.633376677568873
 31
0.0
  0
LINE
  5
2C4
330
1F
100
AcDbEntity
  8
0
100
AcDbLine
 10
12.06954903467836
 20
-55.17068772258489
 30
0.0
 11
11.96964862016583
 21
-55.41186865818789
 31
0.0
  0
LINE
  5
2C5
330
1F
100
AcDbEntity
  8
0
100
AcDbLine
 10
52.84357143961564
 20
24.97777919845946
 30
0.0
 11
52.43397974011405
 21
25.96662103443171
 31
0.0
  0
LINE
  5
2C6
330
1F
100
AcDbEntity
  8
0
100
AcDbLine
 10
45.98413829772035
 20
26.81575876936553
 30
0.0
 11
45.33257199719428
 21
25.96662103443171
 31
0.0
  0
LINE
  5
2C7
330
1F
100
AcDbEntity
  8
0
100
AcDbLine
 10
46.83327603265417
 20
27.46732506989155
 30
0.0
 11
45.98413829772035
 21
26.81575876936553
 31
0.0
  0
LINE
  5
2C8
330
1F
100
AcDbEntity
  8
0
100
AcDbLine
 10
47.82211786862651
 20
27.87691676939314
 30
0.0
 11
46.83327603265417
 21
27.46732506989155
 31
0.0
  0
LINE
  5
2C9
330
1F
100
AcDbEntity
  8
0
100
AcDbLine
 10
50.93327570465416
 20
27.46732506989155
 30
0.0
 11
49.94443386868182
 21
27.87691676939314
 31
0.0
  0
LINE
  5
2CA
330
1F
100
AcDbEntity
  8
0
100
AcDbLine
 10
51.78241343958798
 20
26.81575876936553
 30
0.0
 11
50.93327570465416
 21
27.46732506989155
 31
0.0
  0
LINE
  5
2CB
330
1F
100
AcDbEntity
  8
0
100
AcDbLine
 10
89.15559314595612
 20
46.9217169150616
 30
0.0
 11
89.08373353573985
 21
46.45734981164196
 31
0.0
  0
LINE
  5
2CC
330
1F
100
AcDbEntity
  8
0
100
AcDbLine
 10
89.08373353573985
 20
46.45734981164196
 30
0.0
 11
89.13450953264898
 21
45.99020699787232
 31
0.0
  0
LINE
  5
2CD
330
1F
100
AcDbEntity
  8
0
100
AcDbLine
 10
-13.10412765985975
 20
22.85546319840347
 30
0.0
 11
-12.96442355882122
 21
23.91662119843113
 31
0.0
  0
LINE
  5
2CE
330
1F
100
AcDbEntity
  8
0
100
AcDbLine
 10
18.46954852267695
 20
-50.59715637035956
 30
0.0
 11
18.62846713256143
 21
-50.80426313497755
 31
0.0
  0
LINE
  5
2CF
330
1F
100
AcDbEntity
  8
0
100
AcDbLine
 10
91.30968490921461
 20
44.66785642242628
 30
0.0
 11
91.74776842256594
 21
44.83780772618269
 31
0.0
  0
LINE
  5
2D0
330
1F
100
AcDbEntity
  8
0
100
AcDbLine
 10
48.41740162473999
 20
9.205288862657534
 30
0.0
 11
47.98327594065464
 21
9.02546811653487
 31
0.0
  0
LINE
  5
2D1
330
1F
100
AcDbEntity
  8
0
100
AcDbLine
 10
-16.86442324681919
 20
-90.4706848985851
 30
0.0
 11
-16.83034907583412
 21
-90.72950392298212
 31
0.0
  0
LINE
  5
2D2
330
1F
100
AcDbEntity
  8
0
100
AcDbLine
 10
-7.064424030819372
 20
-55.6706876825849
 30
0.0
 11
-7.098498201804442
 21
-55.41186865818789
 31
0.0
  0
LINE
  5
2D3
330
1F
100
AcDbEntity
  8
0
100
AcDbLine
 10
-16.83034907583412
 20
-90.72950392298212
 30
0.0
 11
-16.73044866132159
 21
-90.97068485858513
 31
0.0
  0
LINE
  5
2D4
330
1F
100
AcDbEntity
  8
0
100
AcDbLine
 10
64.19555006766738
 20
-2.633376677568377
 30
0.0
 11
48.88327586865507
 21
-2.633376677568377
 31
0.0
  0
LINE
  5
2D5
330
1F
100
AcDbEntity
  8
0
100
AcDbLine
 10
64.19555006766738
 20
-9.433376133568409
 30
0.0
 11
64.19555006766738
 21
-2.633376677568377
 31
0.0
  0
LINE
  5
2D6
330
1F
100
AcDbEntity
  8
0
100
AcDbLine
 10
48.88327586865507
 20
-9.433376133568409
 30
0.0
 11
64.19555006766738
 21
-9.433376133568409
 31
0.0
  0
LINE
  5
2D7
330
1F
100
AcDbEntity
  8
0
100
AcDbLine
 10
48.88327586865462
 20
50.46661907443175
 30
0.0
 11
48.88327586865462
 21
57.26661853043178
 31
0.0
  0
LINE
  5
2D8
330
1F
100
AcDbEntity
  8
0
100
AcDbLine
 10
48.88327586865462
 20
57.26661853043178
 30
0.0
 11
64.19555006766666
 21
57.26661853043178
 31
0.0
  0
LINE
  5
2D9
330
1F
100
AcDbEntity
  8
0
100
AcDbLine
 10
92.61016449289355
 20
0.9088400168617993
 30
0.0
 11
92.68274598185184
 21
1.373094836739142
 31
0.0
  0
LINE
  5
2DA
330
1F
100
AcDbEntity
  8
0
100
AcDbLine
 10
92.41989816903322
 20
0.4791897680274472
 30
0.0
 11
92.61016449289355
 21
0.9088400168617993
 31
0.0
  0
LINE
  5
2DB
330
1F
100
AcDbEntity
  8
0
100
AcDbLine
 10
92.12491334581216
 20
0.1134240446634675
 30
0.0
 11
92.41989816903322
 21
0.4791897680274472
 31
0.0
  0
LINE
  5
2DC
330
1F
100
AcDbEntity
  8
0
100
AcDbLine
 10
91.74531275144726
 20
-0.1635308236392609
 30
0.0
 11
92.12491334581216
 21
0.1134240446634675
 31
0.0
  0
LINE
  5
2DD
330
1F
100
AcDbEntity
  8
0
100
AcDbLine
 10
91.30696553912493
 20
-0.3328008202955086
 30
0.0
 11
91.74531275144726
 21
-0.1635308236392609
 31
0.0
  0
LINE
  5
2DE
330
1F
100
AcDbEntity
  8
0
100
AcDbLine
 10
90.83974434696192
 20
-0.3828504747650391
 30
0.0
 11
91.30696553912493
 21
-0.3328008202955086
 31
0.0
  0
LINE
  5
2DF
330
1F
100
AcDbEntity
  8
0
100
AcDbLine
 10
24.13557347318068
 20
-39.99715721835946
 30
0.0
 11
24.19690698095372
 21
-40.46303146227408
 31
0.0
  0
LINE
  5
2E0
330
1F
100
AcDbEntity
  8
0
100
AcDbLine
 10
24.19690698095372
 20
-40.46303146227408
 30
0.0
 11
24.37672772707634
 21
-40.89715714635949
 31
0.0
  0
LINE
  5
2E1
330
1F
100
AcDbEntity
  8
0
100
AcDbLine
 10
-16.32324233521719
 20
-14.3312334453443
 30
0.0
 11
-16.56442327082016
 21
-14.43113385985692
 31
0.0
  0
LINE
  5
2E2
330
1F
100
AcDbEntity
  8
0
100
AcDbLine
 10
-16.56442327082016
 20
-14.43113385985692
 30
0.0
 11
-16.77153003543815
 21
-14.59005246974131
 31
0.0
  0
LINE
  5
2E3
330
1F
100
AcDbEntity
  8
0
100
AcDbLine
 10
-18.46979978069695
 20
56.17372539904917
 30
0.0
 11
-18.26269301607896
 21
56.33264400893365
 31
0.0
  0
LINE
  5
2E4
330
1F
100
AcDbEntity
  8
0
100
AcDbLine
 10
-18.62871839058143
 20
55.96661863443117
 30
0.0
 11
-18.46979978069695
 21
56.17372539904917
 31
0.0
  0
LINE
  5
2E5
330
1F
100
AcDbEntity
  8
0
100
AcDbLine
 10
-18.72861880509396
 20
55.72543769882821
 30
0.0
 11
-18.62871839058143
 21
55.96661863443117
 31
0.0
  0
LINE
  5
2E6
330
1F
100
AcDbEntity
  8
0
100
AcDbLine
 10
-14.19707473001205
 20
55.72543769882821
 30
0.0
 11
-14.29697514452458
 21
55.96661863443117
 31
0.0
  0
LINE
  5
2E7
330
1F
100
AcDbEntity
  8
0
100
AcDbLine
 10
-15.16442338282092
 20
-8.633376197569488
 30
0.0
 11
-17.75875950624745
 21
-8.633376197569172
 31
0.0
  0
LINE
  5
2E8
330
1F
100
AcDbEntity
  8
0
100
AcDbLine
 10
-14.90560435842391
 20
-8.599302026584507
 30
0.0
 11
-15.16442338282092
 21
-8.633376197569488
 31
0.0
  0
LINE
  5
2E9
330
1F
100
AcDbEntity
  8
0
100
AcDbLine
 10
-84.66548336418248
 20
25.96662103443045
 30
0.0
 11
-85.31704966470872
 21
26.81575876936427
 31
0.0
  0
LINE
  5
2EA
330
1F
100
AcDbEntity
  8
0
100
AcDbLine
 10
47.14460952042715
 20
39.9007456385172
 30
0.0
 11
47.32443026654977
 21
39.46661995443184
 31
0.0
  0
LINE
  5
2EB
330
1F
100
AcDbEntity
  8
0
100
AcDbLine
 10
47.08327601265411
 20
40.36661988243183
 30
0.0
 11
47.14460952042715
 21
39.9007456385172
 31
0.0
  0
LINE
  5
2EC
330
1F
100
AcDbEntity
  8
0
100
AcDbLine
 10
47.14460952042715
 20
40.83249412634645
 30
0.0
 11
47.08327601265411
 21
40.36661988243183
 31
0.0
  0
LINE
  5
2ED
330
1F
100
AcDbEntity
  8
0
100
AcDbLine
 10
47.32443026654977
 20
41.26661981043189
 30
0.0
 11
47.14460952042715
 21
40.83249412634645
 31
0.0
  0
LINE
  5
2EE
330
1F
100
AcDbEntity
  8
0
100
AcDbLine
 10
47.61048376434168
 20
41.63941198674431
 30
0.0
 11
47.32443026654977
 21
41.26661981043189
 31
0.0
  0
LINE
  5
2EF
330
1F
100
AcDbEntity
  8
0
100
AcDbLine
 10
47.98327594065418
 20
41.92546548453622
 30
0.0
 11
47.61048376434168
 21
41.63941198674431
 31
0.0
  0
LINE
  5
2F0
330
1F
100
AcDbEntity
  8
0
100
AcDbLine
 10
48.41740162473955
 20
42.10528623065883
 30
0.0
 11
47.98327594065418
 21
41.92546548453622
 31
0.0
  0
LINE
  5
2F1
330
1F
100
AcDbEntity
  8
0
100
AcDbLine
 10
-11.64696007534008
 20
-43.80766869017011
 30
0.0
 11
-7.246960427340056
 21
-43.80766869017011
 31
0.0
  0
LINE
  5
2F2
330
1F
100
AcDbEntity
  8
0
100
AcDbLine
 10
-11.64696007533935
 20
-84.18119717839568
 30
0.0
 11
-7.246960427339244
 21
-84.18119717839568
 31
0.0
  0
LINE
  5
2F3
330
1F
100
AcDbEntity
  8
0
100
AcDbLine
 10
-13.84695989933923
 20
-80.37068570658504
 30
0.0
 11
-11.64696007533935
 21
-84.18119717839568
 31
0.0
  0
LINE
  5
2F4
330
1F
100
AcDbEntity
  8
0
100
AcDbLine
 10
-22.33721501513183
 20
-79.0978936022726
 30
0.0
 11
-22.62326851292374
 21
-79.47068577858502
 31
0.0
  0
LINE
  5
2F5
330
1F
100
AcDbEntity
  8
0
100
AcDbLine
 10
24.66278122486844
 20
-79.0978936022726
 30
0.0
 11
24.37672772707652
 21
-79.47068577858502
 31
0.0
  0
LINE
  5
2F6
330
1F
100
AcDbEntity
  8
0
100
AcDbLine
 10
52.84357143961564
 20
22.85546319840414
 30
0.0
 11
52.98327554065416
 21
23.91662119843181
 31
0.0
  0
LINE
  5
2F7
330
1F
100
AcDbEntity
  8
0
100
AcDbLine
 10
40.88327650865449
 20
-14.1619405945103
 30
0.0
 11
40.88327650865449
 21
16.42753570318143
 31
0.0
  0
LINE
  5
2F8
330
1F
100
AcDbEntity
  8
0
100
AcDbLine
 10
26.83557325718099
 20
-78.81184010448064
 30
0.0
 11
26.40144757309554
 21
-78.63201935835798
 31
0.0
  0
LINE
  5
2F9
330
1F
100
AcDbEntity
  8
0
100
AcDbLine
 10
27.2083654334934
 20
-79.0978936022726
 30
0.0
 11
26.83557325718099
 21
-78.81184010448064
 31
0.0
  0
LINE
  5
2FA
330
1F
100
AcDbEntity
  8
0
100
AcDbLine
 10
27.49441893128531
 20
-79.47068577858502
 30
0.0
 11
27.2083654334934
 21
-79.0978936022726
 31
0.0
  0
LINE
  5
2FB
330
1F
100
AcDbEntity
  8
0
100
AcDbLine
 10
25.44621856777328
 20
3.142670797191462
 30
0.0
 11
24.98208471285829
 21
3.21602183699664
 31
0.0
  0
LINE
  5
2FC
330
1F
100
AcDbEntity
  8
0
100
AcDbLine
 10
24.98208471285829
 20
3.21602183699664
 30
0.0
 11
24.51478118946117
 21
3.16674681960076
 31
0.0
  0
LINE
  5
2FD
330
1F
100
AcDbEntity
  8
0
100
AcDbLine
 10
24.51478118946117
 20
3.16674681960076
 30
0.0
 11
24.07615396044576
 21
2.998203756008534
 31
0.0
  0
LINE
  5
2FE
330
1F
100
AcDbEntity
  8
0
100
AcDbLine
 10
24.07615396044576
 20
2.998203756008534
 30
0.0
 11
23.69609474660388
 21
2.721878577473214
 31
0.0
  0
LINE
  5
2FF
330
1F
100
AcDbEntity
  8
0
100
AcDbLine
 10
23.69609474660388
 20
2.721878577473214
 30
0.0
 11
23.40050395528112
 21
2.35660238826302
 31
0.0
  0
LINE
  5
300
330
1F
100
AcDbEntity
  8
0
100
AcDbLine
 10
-18.80308957904824
 20
40.83249412634581
 30
0.0
 11
-18.86442308682128
 21
40.36661988243119
 31
0.0
  0
LINE
  5
301
330
1F
100
AcDbEntity
  8
0
100
AcDbLine
 10
24.43557344917935
 20
-50.96318174486194
 30
0.0
 11
24.64268021379734
 21
-50.80426313497755
 31
0.0
  0
LINE
  5
302
330
1F
100
AcDbEntity
  8
0
100
AcDbLine
 10
-22.33721501513183
 20
-81.64347781089748
 30
0.0
 11
-21.96442283881942
 21
-81.92953130868945
 31
0.0
  0
LINE
  5
303
330
1F
100
AcDbEntity
  8
0
100
AcDbLine
 10
-22.62326851292374
 20
-81.27068563458506
 30
0.0
 11
-22.33721501513183
 21
-81.64347781089748
 31
0.0
  0
LINE
  5
304
330
1F
100
AcDbEntity
  8
0
100
AcDbLine
 10
-17.76269305607898
 20
56.46661859443124
 30
0.0
 11
-15.16300047902703
 21
56.46661859443124
 31
0.0
  0
LINE
  5
305
330
1F
100
AcDbEntity
  8
0
100
AcDbLine
 10
-18.26269301607896
 20
56.33264400893365
 30
0.0
 11
-18.02151208047599
 21
56.43254442344617
 31
0.0
  0
LINE
  5
306
330
1F
100
AcDbEntity
  8
0
100
AcDbLine
 10
-7.098498201805164
 20
-15.03834016996231
 30
0.0
 11
-7.19839861631769
 21
-14.7971592343593
 31
0.0
  0
LINE
  5
307
330
1F
100
AcDbEntity
  8
0
100
AcDbLine
 10
-7.19839861631769
 20
-14.7971592343593
 30
0.0
 11
-7.357317226202177
 21
-14.59005246974131
 31
0.0
  0
LINE
  5
308
330
1F
100
AcDbEntity
  8
0
100
AcDbLine
 10
-7.357317226202177
 20
-14.59005246974131
 30
0.0
 11
-7.564423990820162
 21
-14.43113385985692
 31
0.0
  0
LINE
  5
309
330
1F
100
AcDbEntity
  8
0
100
AcDbLine
 10
-1.986223186791414
 20
-90.72950392298212
 30
0.0
 11
-1.952149015806342
 21
-90.4706848985851
 31
0.0
  0
LINE
  5
30A
330
1F
100
AcDbEntity
  8
0
100
AcDbLine
 10
18.46954852267767
 20
-90.97068485858513
 30
0.0
 11
18.62846713256215
 21
-91.17779162320312
 31
0.0
  0
LINE
  5
30B
330
1F
100
AcDbEntity
  8
0
100
AcDbLine
 10
-80.34808017898874
 20
-41.09562907519601
 30
0.0
 11
-80.45030269194359
 21
-41.872086148387
 31
0.0
  0
LINE
  5
30C
330
1F
100
AcDbEntity
  8
0
100
AcDbLine
 10
-16.00326523079356
 20
19.95632562746961
 30
0.0
 11
-15.01442339482123
 21
20.3659173269712
 31
0.0
  0
LINE
  5
30D
330
1F
100
AcDbEntity
  8
0
100
AcDbLine
 10
-2.952148935806392
 20
-91.47068481858511
 30
0.0
 11
-2.69332991140938
 21
-91.43661064760013
 31
0.0
  0
LINE
  5
30E
330
1F
100
AcDbEntity
  8
0
100
AcDbLine
 10
-2.452148975806412
 20
-91.33671023308753
 30
0.0
 11
-2.245042211188426
 21
-91.17779162320312
 31
0.0
  0
LINE
  5
30F
330
1F
100
AcDbEntity
  8
0
100
AcDbLine
 10
18.33557393718007
 20
-84.87068534658509
 30
0.0
 11
13.05303794866205
 21
-84.87068534658503
 31
0.0
  0
LINE
  5
310
330
1F
100
AcDbEntity
  8
0
100
AcDbLine
 10
18.33557393718007
 20
-90.4706848985851
 30
0.0
 11
18.33557393718007
 21
-84.87068534658509
 31
0.0
  0
LINE
  5
311
330
1F
100
AcDbEntity
  8
0
100
AcDbLine
 10
24.43557344918008
 20
-91.33671023308753
 30
0.0
 11
24.19439251357711
 21
-91.43661064760013
 31
0.0
  0
LINE
  5
312
330
1F
100
AcDbEntity
  8
0
100
AcDbLine
 10
21.43557368918083
 20
-54.80466234808249
 30
0.0
 11
21.19439275357786
 21
-54.70476193356988
 31
0.0
  0
LINE
  5
313
330
1F
100
AcDbEntity
  8
0
100
AcDbLine
 10
-16.06442331081946
 20
-54.6706877625849
 30
0.0
 11
-8.064423950819421
 21
-54.6706877625849
 31
0.0
  0
LINE
  5
314
330
1F
100
AcDbEntity
  8
0
100
AcDbLine
 10
-17.06442323081951
 20
-55.6706876825849
 30
0.0
 11
-17.06442323081951
 21
-61.27068723458493
 31
0.0
  0
LINE
  5
315
330
1F
100
AcDbEntity
  8
0
100
AcDbLine
 10
-18.95922965442269
 20
-75.87461930579178
 30
0.0
 11
-13.95923160146017
 21
-75.870686066585
 31
0.0
  0
LINE
  5
316
330
1F
100
AcDbEntity
  8
0
100
AcDbLine
 10
-21.53029715473397
 20
-78.63201935835798
 30
0.0
 11
-21.96442283881933
 21
-78.81184010448064
 31
0.0
  0
LINE
  5
317
330
1F
100
AcDbEntity
  8
0
100
AcDbLine
 10
25.93557332918092
 20
-78.570685850585
 30
0.0
 11
25.4696990852663
 21
-78.63201935835798
 31
0.0
  0
LINE
  5
318
330
1F
100
AcDbEntity
  8
0
100
AcDbLine
 10
26.40144757309554
 20
-78.63201935835798
 30
0.0
 11
25.93557332918092
 21
-78.570685850585
 31
0.0
  0
LINE
  5
319
330
1F
100
AcDbEntity
  8
0
100
AcDbLine
 10
-45.35094467740544
 20
2.995023765845434
 30
0.0
 11
-45.78894739653748
 21
3.165183186247904
 31
0.0
  0
LINE
  5
31A
330
1F
100
AcDbEntity
  8
0
100
AcDbLine
 10
-45.78894739653748
 20
3.165183186247904
 30
0.0
 11
-46.25606603363567
 21
3.216181119483001
 31
0.0
  0
LINE
  5
31B
330
1F
100
AcDbEntity
  8
0
100
AcDbLine
 10
-46.25606603363567
 20
3.216181119483001
 30
0.0
 11
-46.72046722553195
 21
3.144542140678771
 31
0.0
  0
LINE
  5
31C
330
1F
100
AcDbEntity
  8
0
100
AcDbLine
 10
-46.72046722553195
 20
3.144542140678771
 30
0.0
 11
-47.15050279845772
 21
2.955148327851734
 31
0.0
  0
LINE
  5
31D
330
1F
100
AcDbEntity
  8
0
100
AcDbLine
 10
-47.15050279845772
 20
2.955148327851734
 30
0.0
 11
-47.51686653878549
 21
2.660906556357972
 31
0.0
  0
LINE
  5
31E
330
1F
100
AcDbEntity
  8
0
100
AcDbLine
 10
-47.51686653878549
 20
2.660906556357972
 30
0.0
 11
-47.79459136305672
 21
2.281868916667301
 31
0.0
  0
LINE
  5
31F
330
1F
100
AcDbEntity
  8
0
100
AcDbLine
 10
47.98327594065464
 20
9.02546811653487
 30
0.0
 11
47.61048376434213
 21
8.739414618742913
 31
0.0
  0
LINE
  5
320
330
1F
100
AcDbEntity
  8
0
100
AcDbLine
 10
92.63203548466063
 20
46.8430317989919
 30
0.0
 11
92.46208418090423
 21
47.28111531234325
 31
0.0
  0
LINE
  5
321
330
1F
100
AcDbEntity
  8
0
100
AcDbLine
 10
49.78327579665415
 20
38.80777428032742
 30
0.0
 11
50.15606797296665
 21
39.09382777811934
 31
0.0
  0
LINE
  5
322
330
1F
100
AcDbEntity
  8
0
100
AcDbLine
 10
50.15606797296665
 20
39.09382777811934
 30
0.0
 11
50.44212147075856
 21
39.46661995443176
 31
0.0
  0
LINE
  5
323
330
1F
100
AcDbEntity
  8
0
100
AcDbLine
 10
89.63960704927837
 20
47.71788636057092
 30
0.0
 11
89.34519124961524
 21
47.35166245743594
 31
0.0
  0
LINE
  5
324
330
1F
100
AcDbEntity
  8
0
100
AcDbLine
 10
89.34519124961524
 20
47.35166245743594
 30
0.0
 11
89.15559314595612
 21
46.9217169150616
 31
0.0
  0
LINE
  5
325
330
1F
100
AcDbEntity
  8
0
100
AcDbLine
 10
47.61048376434168
 20
39.09382777811934
 30
0.0
 11
47.9832759406541
 21
38.80777428032742
 31
0.0
  0
LINE
  5
326
330
1F
100
AcDbEntity
  8
0
100
AcDbLine
 10
-46.64343379473996
 20
48.16517958624965
 30
0.0
 11
-47.08143651387273
 21
47.99502016584884
 31
0.0
  0
LINE
  5
327
330
1F
100
AcDbEntity
  8
0
100
AcDbLine
 10
-47.08143651387273
 20
47.99502016584884
 30
0.0
 11
-47.4604741535643
 21
47.71729534157905
 31
0.0
  0
LINE
  5
328
330
1F
100
AcDbEntity
  8
0
100
AcDbLine
 10
-47.4604741535643
 20
47.71729534157905
 30
0.0
 11
-47.75471592505941
 21
47.35093160125237
 31
0.0
  0
LINE
  5
329
330
1F
100
AcDbEntity
  8
0
100
AcDbLine
 10
-47.75471592505941
 20
47.35093160125237
 30
0.0
 11
-47.94410973788817
 21
46.92089602832732
 31
0.0
  0
LINE
  5
32A
330
1F
100
AcDbEntity
  8
0
100
AcDbLine
 10
-47.94410973788817
 20
46.92089602832732
 30
0.0
 11
-48.01574871669407
 21
46.45649483643132
 31
0.0
  0
LINE
  5
32B
330
1F
100
AcDbEntity
  8
0
100
AcDbLine
 10
18.50159932768177
 20
55.96661863443144
 30
0.0
 11
18.34268071779729
 21
56.17372539904952
 31
0.0
  0
LINE
  5
32C
330
1F
100
AcDbEntity
  8
0
100
AcDbLine
 10
-14.45731665820286
 20
-8.34048300218754
 30
0.0
 11
-14.66442342282094
 21
-8.499401612071935
 31
0.0
  0
LINE
  5
32D
330
1F
100
AcDbEntity
  8
0
100
AcDbLine
 10
-14.66442342282094
 20
-8.499401612071935
 30
0.0
 11
-14.90560435842391
 21
-8.599302026584507
 31
0.0
  0
LINE
  5
32E
330
1F
100
AcDbEntity
  8
0
100
AcDbLine
 10
-7.564423990820162
 20
-14.43113385985692
 30
0.0
 11
-7.80560492642313
 21
-14.3312334453443
 31
0.0
  0
LINE
  5
32F
330
1F
100
AcDbEntity
  8
0
100
AcDbLine
 10
21.93557364918018
 20
-15.29715919435933
 30
0.0
 11
21.93557364918018
 21
-20.89715874635935
 31
0.0
  0
LINE
  5
330
330
1F
100
AcDbEntity
  8
0
100
AcDbLine
 10
-7.80560492642313
 20
-14.3312334453443
 30
0.0
 11
-8.064423950820142
 21
-14.29715927435932
 31
0.0
  0
LINE
  5
331
330
1F
100
AcDbEntity
  8
0
100
AcDbLine
 10
24.93557340917942
 20
-44.4971568583595
 30
0.0
 11
29.93557300918022
 21
-44.4971568583595
 31
0.0
  0
LINE
  5
332
330
1F
100
AcDbEntity
  8
0
100
AcDbLine
 10
-2.952148935807114
 20
-51.09715633035953
 30
0.0
 11
-15.86442332681995
 21
-51.09715633035953
 31
0.0
  0
LINE
  5
333
330
1F
100
AcDbEntity
  8
0
100
AcDbLine
 10
-2.693329911410102
 20
-51.06308215937455
 30
0.0
 11
-2.952148935807114
 21
-51.09715633035953
 31
0.0
  0
LINE
  5
334
330
1F
100
AcDbEntity
  8
0
100
AcDbLine
 10
23.93557348917938
 20
-51.09715633035953
 30
0.0
 11
19.3355738571794
 21
-51.09715633035953
 31
0.0
  0
LINE
  5
335
330
1F
100
AcDbEntity
  8
0
100
AcDbLine
 10
23.93557348917938
 20
-51.09715633035953
 30
0.0
 11
24.19439251357639
 21
-51.06308215937455
 31
0.0
  0
LINE
  5
336
330
1F
100
AcDbEntity
  8
0
100
AcDbLine
 10
24.19439251357639
 20
-51.06308215937455
 30
0.0
 11
24.43557344917935
 21
-50.96318174486194
 31
0.0
  0
LINE
  5
337
330
1F
100
AcDbEntity
  8
0
100
AcDbLine
 10
29.93557300918012
 20
-20.89715874635935
 30
0.0
 11
29.93557300918022
 21
-44.4971568583595
 31
0.0
  0
LINE
  5
338
330
1F
100
AcDbEntity
  8
0
100
AcDbLine
 10
29.93557300918012
 20
-20.89715874635935
 30
0.0
 11
21.93557364918018
 21
-20.89715874635935
 31
0.0
  0
LINE
  5
339
330
1F
100
AcDbEntity
  8
0
100
AcDbLine
 10
21.93557364918018
 20
-15.29715919435933
 30
0.0
 11
21.90149947819511
 21
-15.03834016996231
 31
0.0
  0
LINE
  5
33A
330
1F
100
AcDbEntity
  8
0
100
AcDbLine
 10
11.93557444918004
 20
-20.89715874635935
 30
0.0
 11
-7.064424030820093
 21
-20.89715874635935
 31
0.0
  0
LINE
  5
33B
330
1F
100
AcDbEntity
  8
0
100
AcDbLine
 10
-7.064424030820093
 20
-20.89715874635935
 30
0.0
 11
-7.064424030820093
 21
-15.29715919435933
 31
0.0
  0
LINE
  5
33C
330
1F
100
AcDbEntity
  8
0
100
AcDbLine
 10
-16.06442331082018
 20
-14.29715927435932
 30
0.0
 11
-16.32324233521719
 21
-14.3312334453443
 31
0.0
  0
LINE
  5
33D
330
1F
100
AcDbEntity
  8
0
100
AcDbLine
 10
-17.06442323082023
 20
-20.89715874635935
 30
0.0
 11
-25.06442259082027
 21
-20.89715874635935
 31
0.0
  0
LINE
  5
33E
330
1F
100
AcDbEntity
  8
0
100
AcDbLine
 10
-16.86442324682
 20
-44.49715685835946
 30
0.0
 11
-16.86442324682
 21
-50.09715641035953
 31
0.0
  0
LINE
  5
33F
330
1F
100
AcDbEntity
  8
0
100
AcDbLine
 10
-16.86442324682
 20
-50.09715641035953
 30
0.0
 11
-16.83034907583493
 21
-50.35597543475654
 31
0.0
  0
LINE
  5
340
330
1F
100
AcDbEntity
  8
0
100
AcDbLine
 10
-16.83034907583493
 20
-50.35597543475654
 30
0.0
 11
-16.73044866132241
 21
-50.59715637035956
 31
0.0
  0
LINE
  5
341
330
1F
100
AcDbEntity
  8
0
100
AcDbLine
 10
-16.73044866132241
 20
-50.59715637035956
 30
0.0
 11
-16.57153005143792
 21
-50.80426313497755
 31
0.0
  0
LINE
  5
342
330
1F
100
AcDbEntity
  8
0
100
AcDbLine
 10
-16.57153005143792
 20
-50.80426313497755
 30
0.0
 11
-16.36442328681993
 21
-50.96318174486194
 31
0.0
  0
LINE
  5
343
330
1F
100
AcDbEntity
  8
0
100
AcDbLine
 10
-16.36442328681993
 20
-50.96318174486194
 30
0.0
 11
-16.12324235121697
 21
-51.06308215937455
 31
0.0
  0
LINE
  5
344
330
1F
100
AcDbEntity
  8
0
100
AcDbLine
 10
-16.12324235121697
 20
-51.06308215937455
 30
0.0
 11
-15.86442332681995
 21
-51.09715633035953
 31
0.0
  0
LINE
  5
345
330
1F
100
AcDbEntity
  8
0
100
AcDbLine
 10
-7.246960427339966
 20
-36.18664574654881
 30
0.0
 11
-11.64696007533999
 21
-36.18664574654881
 31
0.0
  0
LINE
  5
346
330
1F
100
AcDbEntity
  8
0
100
AcDbLine
 10
-18.95922965442351
 20
-35.5010908175662
 30
0.0
 11
-13.9592316014609
 21
-35.49715757835942
 31
0.0
  0
LINE
  5
347
330
1F
100
AcDbEntity
  8
0
100
AcDbLine
 10
-18.96442153017646
 20
-28.90109338765556
 30
0.0
 11
-18.95922965442351
 21
-35.5010908175662
 31
0.0
  0
LINE
  5
348
330
1F
100
AcDbEntity
  8
0
100
AcDbLine
 10
-13.96442347882019
 20
-28.89715810635939
 30
0.0
 11
-18.96442153017646
 21
-28.90109338765556
 31
0.0
  0
LINE
  5
349
330
1F
100
AcDbEntity
  8
0
100
AcDbLine
 10
25.93557332918074
 20
-41.79715707435952
 30
0.0
 11
26.40144757309536
 21
-41.73582356658653
 31
0.0
  0
LINE
  5
34A
330
1F
100
AcDbEntity
  8
0
100
AcDbLine
 10
24.19690698095372
 20
-39.53128297444484
 30
0.0
 11
24.13557347318068
 21
-39.99715721835946
 31
0.0
  0
LINE
  5
34B
330
1F
100
AcDbEntity
  8
0
100
AcDbLine
 10
24.37672772707634
 20
-39.09715729035943
 30
0.0
 11
24.19690698095372
 21
-39.53128297444484
 31
0.0
  0
LINE
  5
34C
330
1F
100
AcDbEntity
  8
0
100
AcDbLine
 10
24.66278122486825
 20
-38.72436511404702
 30
0.0
 11
24.37672772707634
 21
-39.09715729035943
 31
0.0
  0
LINE
  5
34D
330
1F
100
AcDbEntity
  8
0
100
AcDbLine
 10
25.03557340118076
 20
-38.43831161625507
 30
0.0
 11
24.66278122486825
 21
-38.72436511404702
 31
0.0
  0
LINE
  5
34E
330
1F
100
AcDbEntity
  8
0
100
AcDbLine
 10
25.46969908526611
 20
-38.25849087013241
 30
0.0
 11
25.03557340118076
 21
-38.43831161625507
 31
0.0
  0
LINE
  5
34F
330
1F
100
AcDbEntity
  8
0
100
AcDbLine
 10
25.93557332918074
 20
-38.19715736235941
 30
0.0
 11
25.46969908526611
 21
-38.25849087013241
 31
0.0
  0
LINE
  5
350
330
1F
100
AcDbEntity
  8
0
100
AcDbLine
 10
26.40144757309536
 20
-38.25849087013241
 30
0.0
 11
25.93557332918074
 21
-38.19715736235941
 31
0.0
  0
LINE
  5
351
330
1F
100
AcDbEntity
  8
0
100
AcDbLine
 10
26.83557325718081
 20
-38.43831161625507
 30
0.0
 11
26.40144757309536
 21
-38.25849087013241
 31
0.0
  0
LINE
  5
352
330
1F
100
AcDbEntity
  8
0
100
AcDbLine
 10
27.20836543349322
 20
-38.72436511404702
 30
0.0
 11
26.83557325718081
 21
-38.43831161625507
 31
0.0
  0
LINE
  5
353
330
1F
100
AcDbEntity
  8
0
100
AcDbLine
 10
27.49441893128513
 20
-39.09715729035943
 30
0.0
 11
27.20836543349322
 21
-38.72436511404702
 31
0.0
  0
LINE
  5
354
330
1F
100
AcDbEntity
  8
0
100
AcDbLine
 10
27.67423967740775
 20
-39.53128297444484
 30
0.0
 11
27.49441893128513
 21
-39.09715729035943
 31
0.0
  0
LINE
  5
355
330
1F
100
AcDbEntity
  8
0
100
AcDbLine
 10
27.73557318518079
 20
-39.99715721835946
 30
0.0
 11
27.67423967740775
 21
-39.53128297444484
 31
0.0
  0
LINE
  5
356
330
1F
100
AcDbEntity
  8
0
100
AcDbLine
 10
27.20836543349322
 20
-41.26994932267191
 30
0.0
 11
27.49441893128513
 21
-40.89715714635949
 31
0.0
  0
LINE
  5
357
330
1F
100
AcDbEntity
  8
0
100
AcDbLine
 10
26.83557325718072
 20
-41.55600282046386
 30
0.0
 11
27.20836543349322
 21
-41.26994932267191
 31
0.0
  0
LINE
  5
358
330
1F
100
AcDbEntity
  8
0
100
AcDbLine
 10
26.40144757309536
 20
-41.73582356658653
 30
0.0
 11
26.83557325718072
 21
-41.55600282046386
 31
0.0
  0
LINE
  5
359
330
1F
100
AcDbEntity
  8
0
100
AcDbLine
 10
-18.01745188782962
 20
-8.599335951526296
 30
0.0
 11
-17.75875950624745
 21
-8.633376197569172
 31
0.0
  0
LINE
  5
35A
330
1F
100
AcDbEntity
  8
0
100
AcDbLine
 10
17.89439301757633
 20
56.43254442344644
 30
0.0
 11
17.63557399317932
 21
56.46661859443151
 31
0.0
  0
LINE
  5
35B
330
1F
100
AcDbEntity
  8
0
100
AcDbLine
 10
-41.58443152002889
 20
-43.61075249661397
 30
0.0
 11
-41.15030583594353
 21
-43.4309317504913
 31
0.0
  0
LINE
  5
35C
330
1F
100
AcDbEntity
  8
0
100
AcDbLine
 10
-64.6929446396513
 20
-37.62944580067893
 30
0.0
 11
-65.64645629895786
 21
-38.87208638838699
 31
0.0
  0
LINE
  5
35D
330
1F
100
AcDbEntity
  8
0
100
AcDbLine
 10
-65.64645629895786
 20
-38.87208638838699
 30
0.0
 11
-66.24585878603337
 21
-40.31917200200502
 31
0.0
  0
LINE
  5
35E
330
1F
100
AcDbEntity
  8
0
100
AcDbLine
 10
-78.22676000513475
 20
-38.97430890134193
 30
0.0
 11
-78.95030281194357
 21
-39.27401014487973
 31
0.0
  0
LINE
  5
35F
330
1F
100
AcDbEntity
  8
0
100
AcDbLine
 10
-54.65474979785327
 20
-40.31917200200502
 30
0.0
 11
-55.25415228492879
 21
-38.87208638838699
 31
0.0
  0
LINE
  5
360
330
1F
100
AcDbEntity
  8
0
100
AcDbLine
 10
-75.32898275808955
 20
-39.75076597453297
 30
0.0
 11
-75.95030305194351
 21
-39.27401014487973
 31
0.0
  0
LINE
  5
361
330
1F
100
AcDbEntity
  8
0
100
AcDbLine
 10
-25.0644225908209
 20
31.40570669368114
 30
0.0
 11
-25.0644225908209
 21
50.46661907443112
 31
0.0
  0
LINE
  5
362
330
1F
100
AcDbEntity
  8
0
100
AcDbLine
 10
47.9832759406541
 20
38.80777428032742
 30
0.0
 11
48.41740162473955
 21
38.62795353420481
 31
0.0
  0
LINE
  5
363
330
1F
100
AcDbEntity
  8
0
100
AcDbLine
 10
29.9355730091795
 20
50.46661907443158
 30
0.0
 11
18.63557391317937
 21
50.46661907443158
 31
0.0
  0
LINE
  5
364
330
1F
100
AcDbEntity
  8
0
100
AcDbLine
 10
95.88327210865488
 20
-14.1619405945103
 30
0.0
 11
40.88327650865449
 21
-14.1619405945103
 31
0.0
  0
LINE
  5
365
330
1F
100
AcDbEntity
  8
0
100
AcDbLine
 10
40.88327650865449
 20
31.40570669368182
 30
0.0
 11
40.88327650865449
 21
63.86661800243087
 31
0.0
  0
LINE
  5
366
330
1F
100
AcDbEntity
  8
0
100
AcDbLine
 10
37.88327674865407
 20
28.40570693368181
 30
0.0
 11
40.88327650865449
 21
31.40570669368182
 31
0.0
  0
LINE
  5
367
330
1F
100
AcDbEntity
  8
0
100
AcDbLine
 10
45.33257199719428
 20
21.86662136243176
 30
0.0
 11
45.98413829772035
 21
21.01748362749795
 31
0.0
  0
LINE
  5
368
330
1F
100
AcDbEntity
  8
0
100
AcDbLine
 10
44.9229802976927
 20
22.85546319840414
 30
0.0
 11
45.33257199719428
 21
21.86662136243176
 31
0.0
  0
LINE
  5
369
330
1F
100
AcDbEntity
  8
0
100
AcDbLine
 10
50.44212147075856
 20
39.46661995443176
 30
0.0
 11
50.62194221688118
 21
39.9007456385172
 31
0.0
  0
LINE
  5
36A
330
1F
100
AcDbEntity
  8
0
100
AcDbLine
 10
48.88327586865417
 20
42.16661973843188
 30
0.0
 11
48.41740162473955
 21
42.10528623065883
 31
0.0
  0
LINE
  5
36B
330
1F
100
AcDbEntity
  8
0
100
AcDbLine
 10
49.34915011256879
 20
42.10528623065883
 30
0.0
 11
48.88327586865417
 21
42.16661973843188
 31
0.0
  0
LINE
  5
36C
330
1F
100
AcDbEntity
  8
0
100
AcDbLine
 10
49.78327579665424
 20
41.92546548453622
 30
0.0
 11
49.34915011256879
 21
42.10528623065883
 31
0.0
  0
LINE
  5
36D
330
1F
100
AcDbEntity
  8
0
100
AcDbLine
 10
50.15606797296665
 20
41.63941198674431
 30
0.0
 11
49.78327579665424
 21
41.92546548453622
 31
0.0
  0
LINE
  5
36E
330
1F
100
AcDbEntity
  8
0
100
AcDbLine
 10
50.44212147075856
 20
41.26661981043181
 30
0.0
 11
50.15606797296665
 21
41.63941198674431
 31
0.0
  0
LINE
  5
36F
330
1F
100
AcDbEntity
  8
0
100
AcDbLine
 10
50.62194221688118
 20
40.83249412634645
 30
0.0
 11
50.44212147075856
 21
41.26661981043181
 31
0.0
  0
LINE
  5
370
330
1F
100
AcDbEntity
  8
0
100
AcDbLine
 10
90.45686010809503
 20
48.16538237443794
 30
0.0
 11
90.01877659474368
 21
47.99543107068153
 31
0.0
  0
LINE
  5
371
330
1F
100
AcDbEntity
  8
0
100
AcDbLine
 10
90.92400292186467
 20
48.21615837134707
 30
0.0
 11
90.45686010809503
 21
48.16538237443794
 31
0.0
  0
LINE
  5
372
330
1F
100
AcDbEntity
  8
0
100
AcDbLine
 10
91.3883700252843
 20
48.14429876113081
 30
0.0
 11
90.92400292186467
 21
48.21615837134707
 31
0.0
  0
LINE
  5
373
330
1F
100
AcDbEntity
  8
0
100
AcDbLine
 10
91.81831556765864
 20
47.95470065747168
 30
0.0
 11
91.3883700252843
 21
48.14429876113081
 31
0.0
  0
LINE
  5
374
330
1F
100
AcDbEntity
  8
0
100
AcDbLine
 10
-17.06442323082122
 20
28.01662087043108
 30
0.0
 11
-18.12558123084888
 21
27.87691676939246
 31
0.0
  0
LINE
  5
375
330
1F
100
AcDbEntity
  8
0
100
AcDbLine
 10
-14.19849763380585
 20
-7.892195301966495
 30
0.0
 11
-14.29839804831847
 21
-8.133376237569507
 31
0.0
  0
LINE
  5
376
330
1F
100
AcDbEntity
  8
0
100
AcDbLine
 10
-14.29839804831847
 20
-8.133376237569507
 30
0.0
 11
-14.45731665820286
 21
-8.34048300218754
 31
0.0
  0
LINE
  5
377
330
1F
100
AcDbEntity
  8
0
100
AcDbLine
 10
-15.01442339482123
 20
27.46732506989087
 30
0.0
 11
-16.00326523079356
 21
27.87691676939246
 31
0.0
  0
LINE
  5
378
330
1F
100
AcDbEntity
  8
0
100
AcDbLine
 10
-13.51371935936134
 20
21.86662136243108
 30
0.0
 11
-13.10412765985975
 21
22.85546319840347
 31
0.0
  0
LINE
  5
379
330
1F
100
AcDbEntity
  8
0
100
AcDbLine
 10
-89.77503283774683
 20
41.26661981043054
 30
0.0
 11
-89.95485358386964
 21
40.83249412634518
 31
0.0
  0
LINE
  5
37A
330
1F
100
AcDbEntity
  8
0
100
AcDbLine
 10
-89.95485358386964
 20
40.83249412634518
 30
0.0
 11
-90.01618709164258
 21
40.36661988243056
 31
0.0
  0
LINE
  5
37B
330
1F
100
AcDbEntity
  8
0
100
AcDbLine
 10
-90.01618709164258
 20
40.36661988243056
 30
0.0
 11
-89.95485358386964
 21
39.90074563851594
 31
0.0
  0
LINE
  5
37C
330
1F
100
AcDbEntity
  8
0
100
AcDbLine
 10
-89.95485358386964
 20
39.90074563851594
 30
0.0
 11
-89.77503283774683
 21
39.46661995443058
 31
0.0
  0
LINE
  5
37D
330
1F
100
AcDbEntity
  8
0
100
AcDbLine
 10
-47.96475078346077
 20
45.98937619933294
 30
0.0
 11
-47.79459136305979
 21
45.55137348020028
 31
0.0
  0
LINE
  5
37E
330
1F
100
AcDbEntity
  8
0
100
AcDbLine
 10
-40.3116394157165
 20
-41.40621190447242
 30
0.0
 11
-40.49146016183929
 21
-40.97208622038702
 31
0.0
  0
LINE
  5
37F
330
1F
100
AcDbEntity
  8
0
100
AcDbLine
 10
-71.1671866705506
 20
5.46662267443051
 30
0.0
 11
-71.1671866705506
 21
11.76662217043047
 31
0.0
  0
LINE
  5
380
330
1F
100
AcDbEntity
  8
0
100
AcDbLine
 10
-84.11618756364244
 20
23.91662119843054
 30
0.0
 11
-84.25589166468106
 21
24.9777791984582
 31
0.0
  0
LINE
  5
381
330
1F
100
AcDbEntity
  8
0
100
AcDbLine
 10
-86.16618739964235
 20
20.36591732697061
 30
0.0
 11
-85.31704966470872
 21
21.01748362749668
 31
0.0
  0
LINE
  5
382
330
1F
100
AcDbEntity
  8
0
100
AcDbLine
 10
-88.21618723564262
 20
19.8166215264305
 30
0.0
 11
-87.15502923561496
 21
19.95632562746902
 31
0.0
  0
LINE
  5
383
330
1F
100
AcDbEntity
  8
0
100
AcDbLine
 10
-42.9503056919434
 20
-43.4309317504913
 30
0.0
 11
-42.51618000785805
 21
-43.61075249661397
 31
0.0
  0
LINE
  5
384
330
1F
100
AcDbEntity
  8
0
100
AcDbLine
 10
-74.85222692843645
 20
-40.37208626838697
 30
0.0
 11
-75.32898275808955
 21
-39.75076597453297
 31
0.0
  0
LINE
  5
385
330
1F
100
AcDbEntity
  8
0
100
AcDbLine
 10
-40.77751365963112
 20
-40.59929404407461
 30
0.0
 11
-41.15030583594353
 21
-40.31324054628269
 31
0.0
  0
LINE
  5
386
330
1F
100
AcDbEntity
  8
0
100
AcDbLine
 10
-60.4503042919435
 20
-35.87208662838697
 30
0.0
 11
-62.00321843832558
 21
-36.07653165429695
 31
0.0
  0
LINE
  5
387
330
1F
100
AcDbEntity
  8
0
100
AcDbLine
 10
-43.60915136604764
 20
-40.97208622038702
 30
0.0
 11
-43.78897211217043
 21
-41.40621190447242
 31
0.0
  0
LINE
  5
388
330
1F
100
AcDbEntity
  8
0
100
AcDbLine
 10
-47.79459136305672
 20
2.281868916667301
 30
0.0
 11
-47.96475078345915
 21
1.843866197535262
 31
0.0
  0
LINE
  5
389
330
1F
100
AcDbEntity
  8
0
100
AcDbLine
 10
-5.015422265729995
 20
42.3666197224312
 30
0.0
 11
-5.015422265729995
 21
36.06662022643115
 31
0.0
  0
LINE
  5
38A
330
1F
100
AcDbEntity
  8
0
100
AcDbLine
 10
-5.015422265729995
 20
36.06662022643115
 30
0.0
 11
2.0530413267162
 21
36.06662022643115
 31
0.0
  0
LINE
  5
38B
330
1F
100
AcDbEntity
  8
0
100
AcDbLine
 10
18.05303505060227
 20
42.36661972243147
 30
0.0
 11
18.05303505060227
 21
36.06662022643142
 31
0.0
  0
LINE
  5
38C
330
1F
100
AcDbEntity
  8
0
100
AcDbLine
 10
25.15303448260233
 20
42.36661972243147
 30
0.0
 11
18.05303505060227
 21
42.36661972243147
 31
0.0
  0
LINE
  5
38D
330
1F
100
AcDbEntity
  8
0
100
AcDbLine
 10
18.05303505060227
 20
36.06662022643142
 30
0.0
 11
25.15303448260233
 21
36.06662022643142
 31
0.0
  0
LINE
  5
38E
330
1F
100
AcDbEntity
  8
0
100
AcDbLine
 10
-14.29697514452458
 20
55.96661863443117
 30
0.0
 11
-14.45589375440906
 21
56.17372539904917
 31
0.0
  0
LINE
  5
38F
330
1F
100
AcDbEntity
  8
0
100
AcDbLine
 10
-15.79163112650874
 20
39.09382777811871
 30
0.0
 11
-15.50557762871683
 21
39.46661995443112
 31
0.0
  0
LINE
  5
390
330
1F
100
AcDbEntity
  8
0
100
AcDbLine
 10
-15.50557762871683
 20
39.46661995443112
 30
0.0
 11
-15.32575688259421
 21
39.90074563851657
 31
0.0
  0
LINE
  5
391
330
1F
100
AcDbEntity
  8
0
100
AcDbLine
 10
-15.32575688259421
 20
39.90074563851657
 30
0.0
 11
-15.26442337482117
 21
40.36661988243119
 31
0.0
  0
LINE
  5
392
330
1F
100
AcDbEntity
  8
0
100
AcDbLine
 10
-15.26442337482117
 20
40.36661988243119
 30
0.0
 11
-15.32575688259421
 21
40.83249412634581
 31
0.0
  0
LINE
  5
393
330
1F
100
AcDbEntity
  8
0
100
AcDbLine
 10
-15.32575688259421
 20
40.83249412634581
 30
0.0
 11
-15.50557762871683
 21
41.26661981043117
 31
0.0
  0
LINE
  5
394
330
1F
100
AcDbEntity
  8
0
100
AcDbLine
 10
-4.371531027439984
 20
56.17372539904917
 30
0.0
 11
-4.530449637324379
 21
55.96661863443117
 31
0.0
  0
LINE
  5
395
330
1F
100
AcDbEntity
  8
0
100
AcDbLine
 10
18.63557391317937
 20
50.46661907443158
 30
0.0
 11
18.63557391317937
 21
55.46661867443146
 31
0.0
  0
LINE
  5
396
330
1F
100
AcDbEntity
  8
0
100
AcDbLine
 10
-25.0644225908209
 20
50.46661907443112
 30
0.0
 11
-18.76269297607903
 21
50.46661907443121
 31
0.0
  0
LINE
  5
397
330
1F
100
AcDbEntity
  8
0
100
AcDbLine
 10
-4.664424222821887
 20
50.46661907443121
 30
0.0
 11
-4.664424222821977
 21
55.46661867443119
 31
0.0
  0
LINE
  5
398
330
1F
100
AcDbEntity
  8
0
100
AcDbLine
 10
-41.21619099564182
 20
63.86661800243087
 30
0.0
 11
-41.21619099564182
 21
-14.16194059451156
 31
0.0
  0
LINE
  5
399
330
1F
100
AcDbEntity
  8
0
100
AcDbLine
 10
-96.2161865956423
 20
63.86661800243087
 30
0.0
 11
-41.21619099564182
 21
63.86661800243087
 31
0.0
  0
LINE
  5
39A
330
1F
100
AcDbEntity
  8
0
100
AcDbLine
 10
-96.2161865956423
 20
-14.16194059451156
 30
0.0
 11
-96.2161865956423
 21
16.42753570318017
 31
0.0
  0
LINE
  5
39B
330
1F
100
AcDbEntity
  8
0
100
AcDbLine
 10
-41.21619099564182
 20
-14.16194059451156
 30
0.0
 11
-96.2161865956423
 21
-14.16194059451156
 31
0.0
  0
LINE
  5
39C
330
1F
100
AcDbEntity
  8
0
100
AcDbLine
 10
-49.0161903716419
 20
-9.433376133569581
 30
0.0
 11
-59.41618953964195
 21
-9.433376133569581
 31
0.0
  0
LINE
  5
39D
330
1F
100
AcDbEntity
  8
0
100
AcDbLine
 10
-59.41618953964195
 20
-9.433376133569581
 30
0.0
 11
-59.41618953964195
 21
-2.63337667756955
 31
0.0
  0
LINE
  5
39E
330
1F
100
AcDbEntity
  8
0
100
AcDbLine
 10
-59.41618953964195
 20
57.26661853043079
 30
0.0
 11
-49.0161903716419
 21
57.26661853043079
 31
0.0
  0
LINE
  5
39F
330
1F
100
AcDbEntity
  8
0
100
AcDbLine
 10
-49.0161903716419
 20
57.26661853043079
 30
0.0
 11
-49.0161903716419
 21
50.46661907443077
 31
0.0
  0
LINE
  5
3A0
330
1F
100
AcDbEntity
  8
0
100
AcDbLine
 10
-49.0161903716419
 20
50.46661907443077
 30
0.0
 11
-59.41618953964195
 21
50.46661907443085
 31
0.0
  0
LINE
  5
3A1
330
1F
100
AcDbEntity
  8
0
100
AcDbLine
 10
-86.47752088741561
 20
39.90074563851594
 30
0.0
 11
-86.41618737964266
 21
40.36661988243056
 31
0.0
  0
LINE
  5
3A2
330
1F
100
AcDbEntity
  8
0
100
AcDbLine
 10
-86.65734163353841
 20
39.46661995443058
 30
0.0
 11
-86.47752088741561
 21
39.90074563851594
 31
0.0
  0
LINE
  5
3A3
330
1F
100
AcDbEntity
  8
0
100
AcDbLine
 10
-86.94339513133022
 20
39.09382777811817
 30
0.0
 11
-86.65734163353841
 21
39.46661995443058
 31
0.0
  0
LINE
  5
3A4
330
1F
100
AcDbEntity
  8
0
100
AcDbLine
 10
-87.31618730764264
 20
38.80777428032625
 30
0.0
 11
-86.94339513133022
 21
39.09382777811817
 31
0.0
  0
LINE
  5
3A5
330
1F
100
AcDbEntity
  8
0
100
AcDbLine
 10
-86.94339513133022
 20
8.739414618742867
 30
0.0
 11
-87.31618730764264
 21
9.02546811653478
 31
0.0
  0
LINE
  5
3A6
330
1F
100
AcDbEntity
  8
0
100
AcDbLine
 10
-86.65734163353841
 20
8.366622442430456
 30
0.0
 11
-86.94339513133022
 21
8.739414618742867
 31
0.0
  0
LINE
  5
3A7
330
1F
100
AcDbEntity
  8
0
100
AcDbLine
 10
-86.47752088741561
 20
7.932496758345051
 30
0.0
 11
-86.65734163353841
 21
8.366622442430456
 31
0.0
  0
LINE
  5
3A8
330
1F
100
AcDbEntity
  8
0
100
AcDbLine
 10
-86.41618737964266
 20
7.466622514430474
 30
0.0
 11
-86.47752088741561
 21
7.932496758345051
 31
0.0
  0
LINE
  5
3A9
330
1F
100
AcDbEntity
  8
0
100
AcDbLine
 10
-86.47752088741561
 20
7.000748270515898
 30
0.0
 11
-86.41618737964266
 21
7.466622514430474
 31
0.0
  0
LINE
  5
3AA
330
1F
100
AcDbEntity
  8
0
100
AcDbLine
 10
-86.65734163353841
 20
6.566622586430493
 30
0.0
 11
-86.47752088741561
 21
7.000748270515898
 31
0.0
  0
LINE
  5
3AB
330
1F
100
AcDbEntity
  8
0
100
AcDbLine
 10
-86.94339513133022
 20
6.193830410118081
 30
0.0
 11
-86.65734163353841
 21
6.566622586430493
 31
0.0
  0
LINE
  5
3AC
330
1F
100
AcDbEntity
  8
0
100
AcDbLine
 10
-87.31618730764264
 20
5.907776912326169
 30
0.0
 11
-86.94339513133022
 21
6.193830410118081
 31
0.0
  0
LINE
  5
3AD
330
1F
100
AcDbEntity
  8
0
100
AcDbLine
 10
-87.750312991728
 20
5.727956166203505
 30
0.0
 11
-87.31618730764264
 21
5.907776912326169
 31
0.0
  0
LINE
  5
3AE
330
1F
100
AcDbEntity
  8
0
100
AcDbLine
 10
-88.21618723564262
 20
5.666622658430511
 30
0.0
 11
-87.750312991728
 21
5.727956166203505
 31
0.0
  0
LINE
  5
3AF
330
1F
100
AcDbEntity
  8
0
100
AcDbLine
 10
-88.68206147955723
 20
5.727956166203505
 30
0.0
 11
-88.21618723564262
 21
5.666622658430511
 31
0.0
  0
LINE
  5
3B0
330
1F
100
AcDbEntity
  8
0
100
AcDbLine
 10
-89.11618716364259
 20
5.907776912326169
 30
0.0
 11
-88.68206147955723
 21
5.727956166203505
 31
0.0
  0
LINE
  5
3B1
330
1F
100
AcDbEntity
  8
0
100
AcDbLine
 10
-44.91551465249847
 20
0.1723394405034847
 30
0.0
 11
-44.63778982822723
 21
0.5513770801941554
 31
0.0
  0
LINE
  5
3B2
330
1F
100
AcDbEntity
  8
0
100
AcDbLine
 10
-45.28187839282623
 20
-0.1219023309902777
 30
0.0
 11
-44.91551465249847
 21
0.1723394405034847
 31
0.0
  0
LINE
  5
3B3
330
1F
100
AcDbEntity
  8
0
100
AcDbLine
 10
-45.711913965752
 20
-0.311296143817315
 30
0.0
 11
-45.28187839282623
 21
-0.1219023309902777
 31
0.0
  0
LINE
  5
3B4
330
1F
100
AcDbEntity
  8
0
100
AcDbLine
 10
-46.17631515764828
 20
-0.3829351226215446
 30
0.0
 11
-45.711913965752
 21
-0.311296143817315
 31
0.0
  0
LINE
  5
3B5
330
1F
100
AcDbEntity
  8
0
100
AcDbLine
 10
-46.64343379474646
 20
-0.3319371893864472
 30
0.0
 11
-46.17631515764828
 21
-0.3829351226215446
 31
0.0
  0
LINE
  5
3B6
330
1F
100
AcDbEntity
  8
0
100
AcDbLine
 10
-47.0814365138785
 20
-0.1617777689839771
 30
0.0
 11
-46.64343379474646
 21
-0.3319371893864472
 31
0.0
  0
LINE
  5
3B7
330
1F
100
AcDbEntity
  8
0
100
AcDbLine
 10
-47.46047415356917
 20
0.1159470552872185
 30
0.0
 11
-47.0814365138785
 21
-0.1617777689839771
 31
0.0
  0
LINE
  5
3B8
330
1F
100
AcDbEntity
  8
0
100
AcDbLine
 10
23.18544958801002
 20
0.9958307787130672
 30
0.0
 11
23.35399265160216
 21
0.5572035496976954
 31
0.0
  0
LINE
  5
3B9
330
1F
100
AcDbEntity
  8
0
100
AcDbLine
 10
23.35399265160216
 20
0.5572035496976954
 30
0.0
 11
23.63031783013752
 21
0.177144335855719
 31
0.0
  0
LINE
  5
3BA
330
1F
100
AcDbEntity
  8
0
100
AcDbLine
 10
23.63031783013752
 20
0.177144335855719
 30
0.0
 11
23.99559401934776
 21
-0.1184464554670363
 31
0.0
  0
LINE
  5
3BB
330
1F
100
AcDbEntity
  8
0
100
AcDbLine
 10
23.99559401934776
 20
-0.1184464554670363
 30
0.0
 11
24.42492825058557
 21
-0.3094248003288324
 31
0.0
  0
LINE
  5
3BC
330
1F
100
AcDbEntity
  8
0
100
AcDbLine
 10
24.42492825058557
 20
-0.3094248003288324
 30
0.0
 11
24.88906210550056
 21
-0.3827758401340102
 31
0.0
  0
LINE
  5
3BD
330
1F
100
AcDbEntity
  8
0
100
AcDbLine
 10
24.88906210550056
 20
-0.3827758401340102
 30
0.0
 11
25.35636562889767
 21
-0.3335008227381307
 31
0.0
  0
LINE
  5
3BE
330
1F
100
AcDbEntity
  8
0
100
AcDbLine
 10
25.35636562889767
 20
-0.3335008227381307
 30
0.0
 11
25.79499285791309
 21
-0.1649577591459047
 31
0.0
  0
LINE
  5
3BF
330
1F
100
AcDbEntity
  8
0
100
AcDbLine
 10
25.79499285791309
 20
-0.1649577591459047
 30
0.0
 11
26.17505207175498
 21
0.1113674193894152
 31
0.0
  0
LINE
  5
3C0
330
1F
100
AcDbEntity
  8
0
100
AcDbLine
 10
-4.630350051836093
 20
-7.892195301965955
 30
0.0
 11
-4.530449637323566
 21
-8.133376237568966
 31
0.0
  0
LINE
  5
3C1
330
1F
100
AcDbEntity
  8
0
100
AcDbLine
 10
-4.530449637323566
 20
-8.133376237568966
 30
0.0
 11
-4.371531027439171
 21
-8.340483002186952
 31
0.0
  0
LINE
  5
3C2
330
1F
100
AcDbEntity
  8
0
100
AcDbLine
 10
-4.371531027439171
 20
-8.340483002186952
 30
0.0
 11
-4.164424262821094
 21
-8.499401612071347
 31
0.0
  0
LINE
  5
3C3
330
1F
100
AcDbEntity
  8
0
100
AcDbLine
 10
17.89439301757633
 20
-8.599302026584596
 30
0.0
 11
18.1355739531793
 21
-8.49940161207198
 31
0.0
  0
LINE
  5
3C4
330
1F
100
AcDbEntity
  8
0
100
AcDbLine
 10
-18.7587591168399
 20
-7.634162925410523
 30
0.0
 11
-18.72451538150949
 21
-7.892828449263083
 31
0.0
  0
LINE
  5
3C5
330
1F
100
AcDbEntity
  8
0
100
AcDbLine
 10
-18.86442308682128
 20
7.466622514431061
 30
0.0
 11
-18.80308957904824
 21
7.000748270516439
 31
0.0
  0
LINE
  5
3C6
330
1F
100
AcDbEntity
  8
0
100
AcDbLine
 10
-18.80308957904824
 20
7.000748270516439
 30
0.0
 11
-18.62326883292562
 21
6.566622586431034
 31
0.0
  0
LINE
  5
3C7
330
1F
100
AcDbEntity
  8
0
100
AcDbLine
 10
-18.62326883292562
 20
6.566622586431034
 30
0.0
 11
-18.33721533513371
 21
6.193830410118623
 31
0.0
  0
LINE
  5
3C8
330
1F
100
AcDbEntity
  8
0
100
AcDbLine
 10
-18.33721533513371
 20
6.193830410118623
 30
0.0
 11
-17.96442315882129
 21
5.907776912326666
 31
0.0
  0
LINE
  5
3C9
330
1F
100
AcDbEntity
  8
0
100
AcDbLine
 10
-17.96442315882129
 20
5.907776912326666
 30
0.0
 11
-17.53029747473584
 21
5.727956166204001
 31
0.0
  0
LINE
  5
3CA
330
1F
100
AcDbEntity
  8
0
100
AcDbLine
 10
-18.76269297607903
 20
50.46661907443121
 30
0.0
 11
-18.76269297607903
 21
55.46661867443119
 31
0.0
  0
LINE
  5
3CB
330
1F
100
AcDbEntity
  8
0
100
AcDbLine
 10
-14.16300055902698
 20
50.46661907443121
 30
0.0
 11
-4.664424222821887
 21
50.46661907443121
 31
0.0
  0
LINE
  5
3CC
330
1F
100
AcDbEntity
  8
0
100
AcDbLine
 10
-18.76269297607866
 20
-2.633376677568963
 30
0.0
 11
-18.7587591168399
 21
-7.634162925410523
 31
0.0
  0
LINE
  5
3CD
330
1F
100
AcDbEntity
  8
0
100
AcDbLine
 10
-14.16442346282078
 20
-2.633376677569009
 30
0.0
 11
-4.664424222821165
 21
-2.633376677568873
 31
0.0
  0
LINE
  5
3CE
330
1F
100
AcDbEntity
  8
0
100
AcDbLine
 10
18.1355739531793
 20
-8.49940161207198
 30
0.0
 11
18.34268071779729
 21
-8.340483002187584
 31
0.0
  0
LINE
  5
3CF
330
1F
100
AcDbEntity
  8
0
100
AcDbLine
 10
18.34268071779729
 20
-8.340483002187584
 30
0.0
 11
18.50159932768169
 21
-8.133376237569598
 31
0.0
  0
LINE
  5
3D0
330
1F
100
AcDbEntity
  8
0
100
AcDbLine
 10
18.50159932768169
 20
-8.133376237569598
 30
0.0
 11
18.6014997421943
 21
-7.892195301966586
 31
0.0
  0
LINE
  5
3D1
330
1F
100
AcDbEntity
  8
0
100
AcDbLine
 10
18.6014997421943
 20
-7.892195301966586
 30
0.0
 11
18.63557391317937
 21
-7.633376277569573
 31
0.0
  0
LINE
  5
3D2
330
1F
100
AcDbEntity
  8
0
100
AcDbLine
 10
-4.164424262821907
 20
56.33264400893356
 30
0.0
 11
-4.371531027439984
 21
56.17372539904917
 31
0.0
  0
LINE
  5
3D3
330
1F
100
AcDbEntity
  8
0
100
AcDbLine
 10
-14.16300055902698
 20
55.46661867443119
 30
0.0
 11
-14.16300055902698
 21
50.46661907443121
 31
0.0
  0
LINE
  5
3D4
330
1F
100
AcDbEntity
  8
0
100
AcDbLine
 10
-14.16300055902698
 20
55.46661867443119
 30
0.0
 11
-14.19707473001205
 21
55.72543769882821
 31
0.0
  0
LINE
  5
3D5
330
1F
100
AcDbEntity
  8
0
100
AcDbLine
 10
-14.66300051902705
 20
56.33264400893365
 30
0.0
 11
-14.90418145463002
 21
56.43254442344617
 31
0.0
  0
LINE
  5
3D6
330
1F
100
AcDbEntity
  8
0
100
AcDbLine
 10
-18.76269297607903
 20
55.46661867443119
 30
0.0
 11
-18.72861880509396
 21
55.72543769882821
 31
0.0
  0
LINE
  5
3D7
330
1F
100
AcDbEntity
  8
0
100
AcDbLine
 10
-15.01442339482123
 20
20.3659173269712
 30
0.0
 11
-14.16528565988741
 21
21.01748362749727
 31
0.0
  0
LINE
  5
3D8
330
1F
100
AcDbEntity
  8
0
100
AcDbLine
 10
-17.06442323082122
 20
19.81662152643108
 30
0.0
 11
-16.00326523079356
 21
19.95632562746961
 31
0.0
  0
LINE
  5
3D9
330
1F
100
AcDbEntity
  8
0
100
AcDbLine
 10
-18.12558123084888
 20
19.95632562746961
 30
0.0
 11
-17.06442323082122
 21
19.81662152643108
 31
0.0
  0
LINE
  5
3DA
330
1F
100
AcDbEntity
  8
0
100
AcDbLine
 10
-19.11442306682122
 20
20.3659173269712
 30
0.0
 11
-18.12558123084888
 21
19.95632562746961
 31
0.0
  0
LINE
  5
3DB
330
1F
100
AcDbEntity
  8
0
100
AcDbLine
 10
-19.96356080175504
 20
21.01748362749727
 30
0.0
 11
-19.11442306682122
 21
20.3659173269712
 31
0.0
  0
LINE
  5
3DC
330
1F
100
AcDbEntity
  8
0
100
AcDbLine
 10
-20.6151271022811
 20
21.86662136243108
 30
0.0
 11
-19.96356080175504
 21
21.01748362749727
 31
0.0
  0
LINE
  5
3DD
330
1F
100
AcDbEntity
  8
0
100
AcDbLine
 10
-21.0247188017827
 20
22.85546319840347
 30
0.0
 11
-20.6151271022811
 21
21.86662136243108
 31
0.0
  0
LINE
  5
3DE
330
1F
100
AcDbEntity
  8
0
100
AcDbLine
 10
-21.0247188017827
 20
24.97777919845879
 30
0.0
 11
-21.16442290282122
 21
23.91662119843113
 31
0.0
  0
LINE
  5
3DF
330
1F
100
AcDbEntity
  8
0
100
AcDbLine
 10
-20.6151271022811
 20
25.96662103443104
 30
0.0
 11
-21.0247188017827
 21
24.97777919845879
 31
0.0
  0
LINE
  5
3E0
330
1F
100
AcDbEntity
  8
0
100
AcDbLine
 10
-19.96356080175504
 20
26.81575876936485
 30
0.0
 11
-20.6151271022811
 21
25.96662103443104
 31
0.0
  0
LINE
  5
3E1
330
1F
100
AcDbEntity
  8
0
100
AcDbLine
 10
-18.62326883292562
 20
8.366622442431089
 30
0.0
 11
-18.80308957904824
 21
7.932496758345683
 31
0.0
  0
LINE
  5
3E2
330
1F
100
AcDbEntity
  8
0
100
AcDbLine
 10
-18.80308957904824
 20
7.932496758345683
 30
0.0
 11
-18.86442308682128
 21
7.466622514431061
 31
0.0
  0
LINE
  5
3E3
330
1F
100
AcDbEntity
  8
0
100
AcDbLine
 10
-18.62326883292562
 20
41.26661981043126
 30
0.0
 11
-18.80308957904824
 21
40.83249412634581
 31
0.0
  0
LINE
  5
3E4
330
1F
100
AcDbEntity
  8
0
100
AcDbLine
 10
24.97616193876115
 20
48.21616157711647
 30
0.0
 11
24.50902312984451
 21
48.16534874878824
 31
0.0
  0
LINE
  5
3E5
330
1F
100
AcDbEntity
  8
0
100
AcDbLine
 10
23.69180535610571
 20
47.71778830051652
 30
0.0
 11
23.39741843204744
 21
47.35154118549399
 31
0.0
  0
LINE
  5
3E6
330
1F
100
AcDbEntity
  8
0
100
AcDbLine
 10
24.07095301755694
 20
47.99536290514519
 30
0.0
 11
23.69180535610571
 21
47.71778830051652
 31
0.0
  0
LINE
  5
3E7
330
1F
100
AcDbEntity
  8
0
100
AcDbLine
 10
24.50902312984451
 20
48.16534874878824
 30
0.0
 11
24.07095301755694
 21
47.99536290514519
 31
0.0
  0
LINE
  5
3E8
330
1F
100
AcDbEntity
  8
0
100
AcDbLine
 10
-43.85030561994356
 20
-41.872086148387
 30
0.0
 11
-43.78897211217043
 21
-42.33796039230158
 31
0.0
  0
LINE
  5
3E9
330
1F
100
AcDbEntity
  8
0
100
AcDbLine
 10
-89.05030200394386
 20
-43.67208600438696
 30
0.0
 11
-88.58442776002906
 21
-43.61075249661397
 31
0.0
  0
LINE
  5
3EA
330
1F
100
AcDbEntity
  8
0
100
AcDbLine
 10
-90.7889683521707
 20
-41.40621190447242
 30
0.0
 11
-90.85030185994383
 21
-41.872086148387
 31
0.0
  0
LINE
  5
3EB
330
1F
100
AcDbEntity
  8
0
100
AcDbLine
 10
-57.45030453194326
 20
-36.67593414137256
 30
0.0
 11
-58.89739014556144
 21
-36.07653165429695
 31
0.0
  0
LINE
  5
3EC
330
1F
100
AcDbEntity
  8
0
100
AcDbLine
 10
-55.25415228492879
 20
-38.87208638838699
 30
0.0
 11
-56.20766394423535
 21
-37.62944580067893
 31
0.0
  0
LINE
  5
3ED
330
1F
100
AcDbEntity
  8
0
100
AcDbLine
 10
-89.05030200394386
 20
-40.07208629238704
 30
0.0
 11
-89.51617624785831
 21
-40.13341980016003
 31
0.0
  0
LINE
  5
3EE
330
1F
100
AcDbEntity
  8
0
100
AcDbLine
 10
-88.58442776002906
 20
-40.13341980016003
 30
0.0
 11
-89.05030200394386
 21
-40.07208629238704
 31
0.0
  0
LINE
  5
3EF
330
1F
100
AcDbEntity
  8
0
100
AcDbLine
 10
-40.77751365963112
 20
-43.14487825269939
 30
0.0
 11
-40.49146016183929
 21
-42.77208607638698
 31
0.0
  0
LINE
  5
3F0
330
1F
100
AcDbEntity
  8
0
100
AcDbLine
 10
-74.45030317194347
 20
-41.872086148387
 30
0.0
 11
-74.45030317194347
 21
-46.372085788387
 31
0.0
  0
LINE
  5
3F1
330
1F
100
AcDbEntity
  8
0
100
AcDbLine
 10
-40.49146016183929
 20
-42.77208607638698
 30
0.0
 11
-40.3116394157165
 21
-42.33796039230158
 31
0.0
  0
LINE
  5
3F2
330
1F
100
AcDbEntity
  8
0
100
AcDbLine
 10
-74.5525256848987
 20
-41.09562907519601
 30
0.0
 11
-74.85222692843645
 21
-40.37208626838697
 31
0.0
  0
LINE
  5
3F3
330
1F
100
AcDbEntity
  8
0
100
AcDbLine
 10
-66.24585878603337
 20
-40.31917200200502
 30
0.0
 11
-66.45030381194344
 21
-41.872086148387
 31
0.0
  0
LINE
  5
3F4
330
1F
100
AcDbEntity
  8
0
100
AcDbLine
 10
-93.0503016839437
 20
-46.372085788387
 30
0.0
 11
-80.45030269194359
 21
-46.372085788387
 31
0.0
  0
LINE
  5
3F5
330
1F
100
AcDbEntity
  8
0
100
AcDbLine
 10
-90.6091476060479
 20
-40.97208622038702
 30
0.0
 11
-90.7889683521707
 21
-41.40621190447242
 31
0.0
  0
LINE
  5
3F6
330
1F
100
AcDbEntity
  8
0
100
AcDbLine
 10
-90.32309410825626
 20
-40.59929404407461
 30
0.0
 11
-90.6091476060479
 21
-40.97208622038702
 31
0.0
  0
LINE
  5
3F7
330
1F
100
AcDbEntity
  8
0
100
AcDbLine
 10
-87.31163565571667
 20
-42.33796039230158
 30
0.0
 11
-87.2503021479439
 21
-41.872086148387
 31
0.0
  0
LINE
  5
3F8
330
1F
100
AcDbEntity
  8
0
100
AcDbLine
 10
-87.49145640183946
 20
-42.77208607638698
 30
0.0
 11
-87.31163565571667
 21
-42.33796039230158
 31
0.0
  0
LINE
  5
3F9
330
1F
100
AcDbEntity
  8
0
100
AcDbLine
 10
-42.05030576394351
 20
-43.67208600438696
 30
0.0
 11
-41.58443152002889
 21
-43.61075249661397
 31
0.0
  0
LINE
  5
3FA
330
1F
100
AcDbEntity
  8
0
100
AcDbLine
 10
-43.32309786825599
 20
-40.59929404407461
 30
0.0
 11
-43.60915136604764
 21
-40.97208622038702
 31
0.0
  0
LINE
  5
3FB
330
1F
100
AcDbEntity
  8
0
100
AcDbLine
 10
-40.49146016183929
 20
-40.97208622038702
 30
0.0
 11
-40.77751365963112
 21
-40.59929404407461
 31
0.0
  0
LINE
  5
3FC
330
1F
100
AcDbEntity
  8
0
100
AcDbLine
 10
-40.3116394157165
 20
-42.33796039230158
 30
0.0
 11
-40.25030590794355
 21
-41.872086148387
 31
0.0
  0
LINE
  5
3FD
330
1F
100
AcDbEntity
  8
0
100
AcDbLine
 10
-41.15030583594353
 20
-43.4309317504913
 30
0.0
 11
-40.77751365963112
 21
-43.14487825269939
 31
0.0
  0
ENDSEC
  0
SECTION
  2
OBJECTS
  0
DICTIONARY
  5
C
330
0
100
AcDbDictionary
281
     1
  3
ACAD_GROUP
350
D
  3
ACAD_LAYOUT
350
1A
  3
ACAD_MATERIAL
350
3B
  3
ACAD_MLEADERSTYLE
350
3FF
  3
ACAD_MLINESTYLE
350
17
  3
ACAD_PLOTSETTINGS
350
19
  3
ACAD_PLOTSTYLENAME
350
E
  3
ACAD_TABLESTYLE
350
3FE
  3
ACAD_VISUALSTYLE
350
2A
  0
DICTIONARY
  5
D
102
{ACAD_REACTORS
330
C
102
}
330
C
100
AcDbDictionary
281
     1
  0
DICTIONARY
  5
1A
102
{ACAD_REACTORS
330
C
102
}
330
C
100
AcDbDictionary
281
     1
  3
Layout1
350
1E
  3
Layout2
350
26
  3
Model
350
22
  0
DICTIONARY
  5
3B
102
{ACAD_REACTORS
330
C
102
}
330
C
100
AcDbDictionary
281
     1
  3
ByBlock
350
3D
  3
ByLayer
350
3C
  3
Global
350
3E
  0
DICTIONARY
  5
3FF
102
{ACAD_REACTORS
330
C
102
}
330
C
100
AcDbDictionary
281
     1
  0
DICTIONARY
  5
17
102
{ACAD_REACTORS
330
C
102
}
330
C
100
AcDbDictionary
281
     1
  3
Standard
350
18
  0
DICTIONARY
  5
19
102
{ACAD_REACTORS
330
C
102
}
330
C
100
AcDbDictionary
281
     1
  0
ACDBDICTIONARYWDFLT
  5
E
102
{ACAD_REACTORS
330
C
102
}
330
C
100
AcDbDictionary
281
     1
  3
Normal
350
F
100
AcDbDictionaryWithDefault
340
F
  0
DICTIONARY
  5
3FE
102
{ACAD_REACTORS
330
C
102
}
330
C
100
AcDbDictionary
281
     1
  0
DICTIONARY
  5
2A
102
{ACAD_REACTORS
330
C
102
}
330
C
100
AcDbDictionary
281
     1
  3
2dWireframe
350
2F
  3
3D Hidden
350
31
  3
3dWireframe
350
30
  3
Basic
350
32
  3
Brighten
350
36
  3
ColorChange
350
3A
  3
Conceptual
350
34
  3
Dim
350
35
  3
Facepattern
350
39
  3
Flat
350
2B
  3
FlatWithEdges
350
2C
  3
Gouraud
350
2D
  3
GouraudWithEdges
350
2E
  3
Linepattern
350
38
  3
Realistic
350
33
  3
Thicken
350
37
  0
LAYOUT
  5
1E
102
{ACAD_REACTORS
330
1A
102
}
330
1A
100
AcDbPlotSettings
  1

  2
none_device
  4

  6

 40
0.0
 41
0.0
 42
0.0
 43
0.0
 44
0.0
 45
0.0
 46
0.0
 47
0.0
 48
0.0
 49
0.0
140
0.0
141
0.0
142
1.0
143
1.0
 70
   688
 72
     0
 73
     0
 74
     5
  7

 75
    16
 76
     0
 77
     2
 78
   300
147
1.0
148
0.0
149
0.0
100
AcDbLayout
  1
Layout1
 70
     1
 71
     1
 10
0.0
 20
0.0
 11
12.0
 21
9.0
 12
0.0
 22
0.0
 32
0.0
 14
1.000000000000000E+20
 24
1.000000000000000E+20
 34
1.000000000000000E+20
 15
-1.000000000000000E+20
 25
-1.000000000000000E+20
 35
-1.000000000000000E+20
146
0.0
 13
0.0
 23
0.0
 33
0.0
 16
1.0
 26
0.0
 36
0.0
 17
0.0
 27
1.0
 37
0.0
 76
     0
330
1B
  0
LAYOUT
  5
26
102
{ACAD_REACTORS
330
1A
102
}
330
1A
100
AcDbPlotSettings
  1

  2
none_device
  4

  6

 40
0.0
 41
0.0
 42
0.0
 43
0.0
 44
0.0
 45
0.0
 46
0.0
 47
0.0
 48
0.0
 49
0.0
140
0.0
141
0.0
142
1.0
143
1.0
 70
   688
 72
     0
 73
     0
 74
     5
  7

 75
    16
 76
     0
 77
     2
 78
   300
147
1.0
148
0.0
149
0.0
100
AcDbLayout
  1
Layout2
 70
     1
 71
     2
 10
0.0
 20
0.0
 11
0.0
 21
0.0
 12
0.0
 22
0.0
 32
0.0
 14
0.0
 24
0.0
 34
0.0
 15
0.0
 25
0.0
 35
0.0
146
0.0
 13
0.0
 23
0.0
 33
0.0
 16
1.0
 26
0.0
 36
0.0
 17
0.0
 27
1.0
 37
0.0
 76
     0
330
23
  0
LAYOUT
  5
22
102
{ACAD_REACTORS
330
1A
102
}
330
1A
100
AcDbPlotSettings
  1

  2
none_device
  4

  6

 40
0.0
 41
0.0
 42
0.0
 43
0.0
 44
0.0
 45
0.0
 46
0.0
 47
0.0
 48
0.0
 49
0.0
140
0.0
141
0.0
142
1.0
143
1.0
 70
  1712
 72
     0
 73
     0
 74
     0
  7

 75
     0
 76
     0
 77
     2
 78
   300
147
1.0
148
0.0
149
0.0
100
AcDbLayout
  1
Model
 70
     1
 71
     0
 10
0.0
 20
0.0
 11
12.0
 21
9.0
 12
0.0
 22
0.0
 32
0.0
 14
1.000000000000000E+20
 24
1.000000000000000E+20
 34
1.000000000000000E+20
 15
-1.000000000000000E+20
 25
-1.000000000000000E+20
 35
-1.000000000000000E+20
146
0.0
 13
0.0
 23
0.0
 33
0.0
 16
1.0
 26
0.0
 36
0.0
 17
0.0
 27
1.0
 37
0.0
 76
     0
330
1F
331
29
  0
MATERIAL
  5
3D
102
{ACAD_REACTORS
330
3B
102
}
330
3B
100
AcDbMaterial
  1
ByBlock
 72
     1
 94
      127
  0
MATERIAL
  5
3C
102
{ACAD_REACTORS
330
3B
102
}
330
3B
100
AcDbMaterial
  1
ByLayer
 72
     1
 94
      127
  0
MATERIAL
  5
3E
102
{ACAD_REACTORS
330
3B
102
}
330
3B
100
AcDbMaterial
  1
Global
 72
     1
 94
      127
  0
MLINESTYLE
  5
18
102
{ACAD_REACTORS
330
17
102
}
330
17
100
AcDbMlineStyle
  2
Standard
 70
     0
  3

 62
   256
 51
90.0
 52
90.0
 71
     2
 49
0.5
 62
   256
  6
BYLAYER
 49
-0.5
 62
   256
  6
BYLAYER
  0
ACDBPLACEHOLDER
  5
F
102
{ACAD_REACTORS
330
E
102
}
330
E
  0
VISUALSTYLE
  5
2F
102
{ACAD_REACTORS
330
2A
102
}
330
2A
100
AcDbVisualStyle
  2
2dWireframe
 70
     4
177
     2
291
     0
 71
     0
176
     1
 72
     2
176
     1
 73
     0
176
     1
 90
        0
176
     1
 40
-0.6
176
     1
 41
-30.0
176
     1
 62
     5
 63
     7
421
 16777215
176
     1
 74
     1
176
     1
 91
        4
176
     1
 64
     7
176
     1
 65
   257
176
     1
 75
     1
176
     1
175
     1
176
     1
 42
1.0
176
     1
 92
        0
176
     1
 66
   257
176
     1
 43
1.0
176
     1
 76
     1
176
     1
 77
     6
176
     1
 78
     2
176
     1
 67
     7
176
     1
 79
     5
176
     1
170
     0
176
     1
171
     0
176
     1
290
     0
176
     1
 93
        1
176
     1
 44
0.0
176
     1
173
     0
176
     1
  0
VISUALSTYLE
  5
31
102
{ACAD_REACTORS
330
2A
102
}
330
2A
100
AcDbVisualStyle
  2
3D Hidden
 70
     6
177
     2
291
     0
 71
     1
176
     1
 72
     2
176
     1
 73
     2
176
     1
 90
        0
176
     1
 40
-0.6
176
     1
 41
-30.0
176
     1
 62
     5
 63
     7
421
 16777215
176
     1
 74
     2
176
     1
 91
        2
176
     1
 64
     7
176
     1
 65
   257
176
     1
 75
     2
176
     1
175
     1
176
     1
 42
40.0
176
     1
 92
        0
176
     1
 66
   257
176
     1
 43
1.0
176
     1
 76
     1
176
     1
 77
     6
176
     1
 78
     2
176
     1
 67
     7
176
     1
 79
     3
176
     1
170
     0
176
     1
171
     0
176
     1
290
     0
176
     1
 93
        1
176
     1
 44
0.0
176
     1
173
     0
176
     1
  0
VISUALSTYLE
  5
30
102
{ACAD_REACTORS
330
2A
102
}
330
2A
100
AcDbVisualStyle
  2
3dWireframe
 70
     5
177
     2
291
     0
 71
     0
176
     1
 72
     2
176
     1
 73
     0
176
     1
 90
        0
176
     1
 40
-0.6
176
     1
 41
-30.0
176
     1
 62
     5
 63
     7
421
 16777215
176
     1
 74
     1
176
     1
 91
        4
176
     1
 64
     7
176
     1
 65
   257
176
     1
 75
     1
176
     1
175
     1
176
     1
 42
1.0
176
     1
 92
        0
176
     1
 66
   257
176
     1
 43
1.0
176
     1
 76
     1
176
     1
 77
     6
176
     1
 78
     2
176
     1
 67
     7
176
     1
 79
     5
176
     1
170
     0
176
     1
171
     0
176
     1
290
     0
176
     1
 93
        1
176
     1
 44
0.0
176
     1
173
     0
176
     1
  0
VISUALSTYLE
  5
32
102
{ACAD_REACTORS
330
2A
102
}
330
2A
100
AcDbVisualStyle
  2
Basic
 70
     7
177
     2
291
     1
 71
     1
176
     1
 72
     0
176
     1
 73
     1
176
     1
 90
        0
176
     1
 40
-0.6
176
     1
 41
-30.0
176
     1
 62
     5
 63
     7
421
 16777215
176
     1
 74
     0
176
     1
 91
        4
176
     1
 64
     7
176
     1
 65
   257
176
     1
 75
     1
176
     1
175
     1
176
     1
 42
1.0
176
     1
 92
        8
176
     1
 66
     7
176
     1
 43
1.0
176
     1
 76
     1
176
     1
 77
     6
176
     1
 78
     2
176
     1
 67
     7
176
     1
 79
     5
176
     1
170
     0
176
     1
171
     0
176
     1
290
     0
176
     1
 93
        1
176
     1
 44
0.0
176
     1
173
     0
176
     1
  0
VISUALSTYLE
  5
36
102
{ACAD_REACTORS
330
2A
102
}
330
2A
100
AcDbVisualStyle
  2
Brighten
 70
    12
177
     2
291
     1
 71
     2
176
     1
 72
     2
176
     1
 73
     0
176
     1
 90
        0
176
     1
 40
-0.6
176
     1
 41
-30.0
176
     1
 62
     5
 63
     7
421
 16777215
176
     1
 74
     1
176
     1
 91
        4
176
     1
 64
     7
176
     1
 65
   257
176
     1
 75
     1
176
     1
175
     1
176
     1
 42
1.0
176
     1
 92
        8
176
     1
 66
     7
176
     1
 43
1.0
176
     1
 76
     1
176
     1
 77
     6
176
     1
 78
     2
176
     1
 67
     7
176
     1
 79
     5
176
     1
170
     0
176
     1
171
     0
176
     1
290
     0
176
     1
 93
        1
176
     1
 44
50.0
176
     1
173
     0
176
     1
  0
VISUALSTYLE
  5
3A
102
{ACAD_REACTORS
330
2A
102
}
330
2A
100
AcDbVisualStyle
  2
ColorChange
 70
    16
177
     2
291
     1
 71
     2
176
     1
 72
     2
176
     1
 73
     3
176
     1
 90
        0
176
     1
 40
-0.6
176
     1
 41
-30.0
176
     1
 62
     5
 63
     8
421
  8421504
176
     1
 74
     1
176
     1
 91
        4
176
     1
 64
     7
176
     1
 65
   257
176
     1
 75
     1
176
     1
175
     1
176
     1
 42
1.0
176
     1
 92
        8
176
     1
 66
     8
424
  8421504
176
     1
 43
1.0
176
     1
 76
     1
176
     1
 77
     6
176
     1
 78
     2
176
     1
 67
     7
176
     1
 79
     5
176
     1
170
     0
176
     1
171
     0
176
     1
290
     0
176
     1
 93
        1
176
     1
 44
0.0
176
     1
173
     0
176
     1
  0
VISUALSTYLE
  5
34
102
{ACAD_REACTORS
330
2A
102
}
330
2A
100
AcDbVisualStyle
  2
Conceptual
 70
     9
177
     2
291
     0
 71
     3
176
     1
 72
     2
176
     1
 73
     0
176
     1
 90
        0
176
     1
 40
-0.6
176
     1
 41
-30.0
176
     1
 62
     5
 63
     7
421
 16777215
176
     1
 74
     2
176
     1
 91
        2
176
     1
 64
     7
176
     1
 65
   257
176
     1
 75
     1
176
     1
175
     1
176
     1
 42
40.0
176
     1
 92
        8
176
     1
 66
     7
176
     1
 43
1.0
176
     1
 76
     1
176
     1
 77
     6
176
     1
 78
     2
176
     1
 67
     7
176
     1
 79
     3
176
     1
170
     0
176
     1
171
     0
176
     1
290
     0
176
     1
 93
        1
176
     1
 44
0.0
176
     1
173
     0
176
     1
  0
VISUALSTYLE
  5
35
102
{ACAD_REACTORS
330
2A
102
}
330
2A
100
AcDbVisualStyle
  2
Dim
 70
    11
177
     2
291
     1
 71
     2
176
     1
 72
     2
176
     1
 73
     0
176
     1
 90
        0
176
     1
 40
-0.6
176
     1
 41
-30.0
176
     1
 62
     5
 63
     7
421
 16777215
176
     1
 74
     1
176
     1
 91
        4
176
     1
 64
     7
176
     1
 65
   257
176
     1
 75
     1
176
     1
175
     1
176
     1
 42
1.0
176
     1
 92
        8
176
     1
 66
     7
176
     1
 43
1.0
176
     1
 76
     1
176
     1
 77
     6
176
     1
 78
     2
176
     1
 67
     7
176
     1
 79
     5
176
     1
170
     0
176
     1
171
     0
176
     1
290
     0
176
     1
 93
        1
176
     1
 44
-50.0
176
     1
173
     0
176
     1
  0
VISUALSTYLE
  5
39
102
{ACAD_REACTORS
330
2A
102
}
330
2A
100
AcDbVisualStyle
  2
Facepattern
 70
    15
177
     2
291
     1
 71
     2
176
     1
 72
     2
176
     1
 73
     0
176
     1
 90
        0
176
     1
 40
-0.6
176
     1
 41
-30.0
176
     1
 62
     5
 63
     7
421
 16777215
176
     1
 74
     1
176
     1
 91
        4
176
     1
 64
     7
176
     1
 65
   257
176
     1
 75
     1
176
     1
175
     1
176
     1
 42
1.0
176
     1
 92
        8
176
     1
 66
     7
176
     1
 43
1.0
176
     1
 76
     1
176
     1
 77
     6
176
     1
 78
     2
176
     1
 67
     7
176
     1
 79
     5
176
     1
170
     0
176
     1
171
     0
176
     1
290
     0
176
     1
 93
        1
176
     1
 44
0.0
176
     1
173
     0
176
     1
  0
VISUALSTYLE
  5
2B
102
{ACAD_REACTORS
330
2A
102
}
330
2A
100
AcDbVisualStyle
  2
Flat
 70
     0
177
     2
291
     1
 71
     2
176
     1
 72
     1
176
     1
 73
     1
176
     1
 90
        2
176
     1
 40
-0.6
176
     1
 41
30.0
176
     1
 62
     5
 63
     7
421
 16777215
176
     1
 74
     0
176
     1
 91
        4
176
     1
 64
     7
176
     1
 65
   257
176
     1
 75
     1
176
     1
175
     1
176
     1
 42
1.0
176
     1
 92
        8
176
     1
 66
     7
176
     1
 43
1.0
176
     1
 76
     1
176
     1
 77
     6
176
     1
 78
     2
176
     1
 67
     7
176
     1
 79
     5
176
     1
170
     0
176
     1
171
     0
176
     1
290
     0
176
     1
 93
       13
176
     1
 44
0.0
176
     1
173
     0
176
     1
  0
VISUALSTYLE
  5
2C
102
{ACAD_REACTORS
330
2A
102
}
330
2A
100
AcDbVisualStyle
  2
FlatWithEdges
 70
     1
177
     2
291
     1
 71
     2
176
     1
 72
     1
176
     1
 73
     1
176
     1
 90
        2
176
     1
 40
-0.6
176
     1
 41
30.0
176
     1
 62
     5
 63
     7
421
 16777215
176
     1
 74
     1
176
     1
 91
        4
176
     1
 64
     7
176
     1
 65
   257
176
     1
 75
     1
176
     1
175
     1
176
     1
 42
1.0
176
     1
 92
        0
176
     1
 66
   257
176
     1
 43
1.0
176
     1
 76
     1
176
     1
 77
     6
176
     1
 78
     2
176
     1
 67
     7
176
     1
 79
     5
176
     1
170
     0
176
     1
171
     0
176
     1
290
     0
176
     1
 93
       13
176
     1
 44
0.0
176
     1
173
     0
176
     1
  0
VISUALSTYLE
  5
2D
102
{ACAD_REACTORS
330
2A
102
}
330
2A
100
AcDbVisualStyle
  2
Gouraud
 70
     2
177
     2
291
     1
 71
     2
176
     1
 72
     2
176
     1
 73
     1
176
     1
 90
        2
176
     1
 40
-0.6
176
     1
 41
30.0
176
     1
 62
     5
 63
     7
421
 16777215
176
     1
 74
     0
176
     1
 91
        4
176
     1
 64
     7
176
     1
 65
   257
176
     1
 75
     1
176
     1
175
     1
176
     1
 42
1.0
176
     1
 92
        0
176
     1
 66
     7
176
     1
 43
1.0
176
     1
 76
     1
176
     1
 77
     6
176
     1
 78
     2
176
     1
 67
     7
176
     1
 79
     5
176
     1
170
     0
176
     1
171
     0
176
     1
290
     0
176
     1
 93
       13
176
     1
 44
0.0
176
     1
173
     0
176
     1
  0
VISUALSTYLE
  5
2E
102
{ACAD_REACTORS
330
2A
102
}
330
2A
100
AcDbVisualStyle
  2
GouraudWithEdges
 70
     3
177
     2
291
     1
 71
     2
176
     1
 72
     2
176
     1
 73
     1
176
     1
 90
        2
176
     1
 40
-0.6
176
     1
 41
30.0
176
     1
 62
     5
 63
     7
421
 16777215
176
     1
 74
     1
176
     1
 91
        4
176
     1
 64
     7
176
     1
 65
   257
176
     1
 75
     1
176
     1
175
     1
176
     1
 42
1.0
176
     1
 92
        0
176
     1
 66
   257
176
     1
 43
1.0
176
     1
 76
     1
176
     1
 77
     6
176
     1
 78
     2
176
     1
 67
     7
176
     1
 79
     5
176
     1
170
     0
176
     1
171
     0
176
     1
290
     0
176
     1
 93
       13
176
     1
 44
0.0
176
     1
173
     0
176
     1
  0
VISUALSTYLE
  5
38
102
{ACAD_REACTORS
330
2A
102
}
330
2A
100
AcDbVisualStyle
  2
Linepattern
 70
    14
177
     2
291
     1
 71
     2
176
     1
 72
     2
176
     1
 73
     0
176
     1
 90
        0
176
     1
 40
-0.6
176
     1
 41
-30.0
176
     1
 62
     5
 63
     7
421
 16777215
176
     1
 74
     1
176
     1
 91
        4
176
     1
 64
     7
176
     1
 65
   257
176
     1
 75
     7
176
     1
175
     7
176
     1
 42
1.0
176
     1
 92
        8
176
     1
 66
     7
176
     1
 43
1.0
176
     1
 76
     1
176
     1
 77
     6
176
     1
 78
     2
176
     1
 67
     7
176
     1
 79
     5
176
     1
170
     0
176
     1
171
     0
176
     1
290
     0
176
     1
 93
        1
176
     1
 44
0.0
176
     1
173
     0
176
     1
  0
VISUALSTYLE
  5
33
102
{ACAD_REACTORS
330
2A
102
}
330
2A
100
AcDbVisualStyle
  2
Realistic
 70
     8
177
     2
291
     0
 71
     2
176
     1
 72
     2
176
     1
 73
     0
176
     1
 90
        0
176
     1
 40
-0.6
176
     1
 41
-30.0
176
     1
 62
     5
 63
     7
421
 16777215
176
     1
 74
     1
176
     1
 91
        0
176
     1
 64
     7
176
     1
 65
   257
176
     1
 75
     1
176
     1
175
     1
176
     1
 42
1.0
176
     1
 92
        8
176
     1
 66
     8
424
  7895160
176
     1
 43
1.0
176
     1
 76
     1
176
     1
 77
     6
176
     1
 78
     2
176
     1
 67
     7
176
     1
 79
     5
176
     1
170
     0
176
     1
171
     0
176
     1
290
     0
176
     1
 93
       13
176
     1
 44
0.0
176
     1
173
     0
176
     1
  0
VISUALSTYLE
  5
37
102
{ACAD_REACTORS
330
2A
102
}
330
2A
100
AcDbVisualStyle
  2
Thicken
 70
    13
177
     2
291
     1
 71
     2
176
     1
 72
     2
176
     1
 73
     0
176
     1
 90
        0
176
     1
 40
-0.6
176
     1
 41
-30.0
176
     1
 62
     5
 63
     7
421
 16777215
176
     1
 74
     1
176
     1
 91
        4
176
     1
 64
     7
176
     1
 65
   257
176
     1
 75
     1
176
     1
175
     1
176
     1
 42
1.0
176
     1
 92
       12
176
     1
 66
     7
176
     1
 43
1.0
176
     1
 76
     1
176
     1
 77
     6
176
     1
 78
     2
176
     1
 67
     7
176
     1
 79
     5
176
     1
170
     0
176
     1
171
     0
176
     1
290
     0
176
     1
 93
        1
176
     1
 44
0.0
176
     1
173
     0
176
     1
  0
ENDSEC
  0
EOF
