  0
SECTION
  2
HEADER
  9
$ACADVER
  1
AC1024
  9
$ACADMAINTVER
 70
     6
  9
$DWGCODEPAGE
  3
ANSI_1252
  9
$INSBASE
 10
0.0
 20
0.0
 30
0.0
  9
$EXTMIN
 10
1.000000000000000E+20
 20
1.000000000000000E+20
 30
1.000000000000000E+20
  9
$EXTMAX
 10
-1.000000000000000E+20
 20
-1.000000000000000E+20
 30
-1.000000000000000E+20
  9
$LIMMIN
 10
0.0
 20
0.0
  9
$LIMMAX
 10
12.0
 20
9.0
  9
$ORTHOMODE
 70
     0
  9
$REGENMODE
 70
     1
  9
$FILLMODE
 70
     1
  9
$QTEXTMODE
 70
     0
  9
$MIRRTEXT
 70
     1
  9
$LTSCALE
 40
1.0
  9
$ATTMODE
 70
     1
  9
$TEXTSIZE
 40
0.2
  9
$TRACEWID
 40
0.05
  9
$TEXTSTYLE
  7
Standard
  9
$CLAYER
  8
0
  9
$CELTYPE
  6
ByLayer
  9
$CECOLOR
 62
   256
  9
$CELTSCALE
 40
1.0
  9
$DISPSILH
 70
     0
  9
$DIMSCALE
 40
1.0
  9
$DIMASZ
 40
0.18
  9
$DIMEXO
 40
0.0625
  9
$DIMDLI
 40
0.38
  9
$DIMRND
 40
0.0
  9
$DIMDLE
 40
0.0
  9
$DIMEXE
 40
0.18
  9
$DIMTP
 40
0.0
  9
$DIMTM
 40
0.0
  9
$DIMTXT
 40
0.18
  9
$DIMCEN
 40
0.09
  9
$DIMTSZ
 40
0.0
  9
$DIMTOL
 70
     0
  9
$DIMLIM
 70
     0
  9
$DIMTIH
 70
     1
  9
$DIMTOH
 70
     1
  9
$DIMSE1
 70
     0
  9
$DIMSE2
 70
     0
  9
$DIMTAD
 70
     0
  9
$DIMZIN
 70
     0
  9
$DIMBLK
  1

  9
$DIMASO
 70
     1
  9
$DIMSHO
 70
     1
  9
$DIMPOST
  1

  9
$DIMAPOST
  1

  9
$DIMALT
 70
     0
  9
$DIMALTD
 70
     2
  9
$DIMALTF
 40
25.4
  9
$DIMLFAC
 40
1.0
  9
$DIMTOFL
 70
     0
  9
$DIMTVP
 40
0.0
  9
$DIMTIX
 70
     0
  9
$DIMSOXD
 70
     0
  9
$DIMSAH
 70
     0
  9
$DIMBLK1
  1

  9
$DIMBLK2
  1

  9
$DIMSTYLE
  2
Standard
  9
$DIMCLRD
 70
     0
  9
$DIMCLRE
 70
     0
  9
$DIMCLRT
 70
     0
  9
$DIMTFAC
 40
1.0
  9
$DIMGAP
 40
0.09
  9
$DIMJUST
 70
     0
  9
$DIMSD1
 70
     0
  9
$DIMSD2
 70
     0
  9
$DIMTOLJ
 70
     1
  9
$DIMTZIN
 70
     0
  9
$DIMALTZ
 70
     0
  9
$DIMALTTZ
 70
     0
  9
$DIMUPT
 70
     0
  9
$DIMDEC
 70
     4
  9
$DIMTDEC
 70
     4
  9
$DIMALTU
 70
     2
  9
$DIMALTTD
 70
     2
  9
$DIMTXSTY
  7
Standard
  9
$DIMAUNIT
 70
     0
  9
$DIMADEC
 70
     0
  9
$DIMALTRND
 40
0.0
  9
$DIMAZIN
 70
     0
  9
$DIMDSEP
 70
    46
  9
$DIMATFIT
 70
     3
  9
$DIMFRAC
 70
     0
  9
$DIMLDRBLK
  1

  9
$DIMLUNIT
 70
     2
  9
$DIMLWD
 70
    -2
  9
$DIMLWE
 70
    -2
  9
$DIMTMOVE
 70
     0
  9
$DIMFXL
 40
1.0
  9
$DIMFXLON
 70
     0
  9
$DIMJOGANG
 40
0.7853981633974483
  9
$DIMTFILL
 70
     0
  9
$DIMTFILLCLR
 70
     0
  9
$DIMARCSYM
 70
     0
  9
$DIMLTYPE
  6

  9
$DIMLTEX1
  6

  9
$DIMLTEX2
  6

  9
$DIMTXTDIRECTION
 70
     0
  9
$LUNITS
 70
     2
  9
$LUPREC
 70
     4
  9
$SKETCHINC
 40
0.1
  9
$FILLETRAD
 40
0.5
  9
$AUNITS
 70
     0
  9
$AUPREC
 70
     0
  9
$MENU
  1
.
  9
$ELEVATION
 40
0.0
  9
$PELEVATION
 40
0.0
  9
$THICKNESS
 40
0.0
  9
$LIMCHECK
 70
     0
  9
$CHAMFERA
 40
0.5
  9
$CHAMFERB
 40
0.5
  9
$CHAMFERC
 40
1.0
  9
$CHAMFERD
 40
0.0
  9
$SKPOLY
 70
     0
  9
$TDCREATE
 40
2456396.704912153
  9
$TDUCREATE
 40
2456396.87157882
  9
$TDUPDATE
 40
2456396.704912164
  9
$TDUUPDATE
 40
2456396.871578831
  9
$TDINDWG
 40
0.0000000116
  9
$TDUSRTIMER
 40
0.0000000116
  9
$USRTIMER
 70
     1
  9
$ANGBASE
 50
0.0
  9
$ANGDIR
 70
     0
  9
$PDMODE
 70
     0
  9
$PDSIZE
 40
0.0
  9
$PLINEWID
 40
0.0
  9
$SPLFRAME
 70
     0
  9
$SPLINETYPE
 70
     6
  9
$SPLINESEGS
 70
     8
  9
$HANDSEED
  5
459
  9
$SURFTAB1
 70
     6
  9
$SURFTAB2
 70
     6
  9
$SURFTYPE
 70
     6
  9
$SURFU
 70
     6
  9
$SURFV
 70
     6
  9
$UCSBASE
  2

  9
$UCSNAME
  2

  9
$UCSORG
 10
0.0
 20
0.0
 30
0.0
  9
$UCSXDIR
 10
1.0
 20
0.0
 30
0.0
  9
$UCSYDIR
 10
0.0
 20
1.0
 30
0.0
  9
$UCSORTHOREF
  2

  9
$UCSORTHOVIEW
 70
     0
  9
$UCSORGTOP
 10
0.0
 20
0.0
 30
0.0
  9
$UCSORGBOTTOM
 10
0.0
 20
0.0
 30
0.0
  9
$UCSORGLEFT
 10
0.0
 20
0.0
 30
0.0
  9
$UCSORGRIGHT
 10
0.0
 20
0.0
 30
0.0
  9
$UCSORGFRONT
 10
0.0
 20
0.0
 30
0.0
  9
$UCSORGBACK
 10
0.0
 20
0.0
 30
0.0
  9
$PUCSBASE
  2

  9
$PUCSNAME
  2

  9
$PUCSORG
 10
0.0
 20
0.0
 30
0.0
  9
$PUCSXDIR
 10
1.0
 20
0.0
 30
0.0
  9
$PUCSYDIR
 10
0.0
 20
1.0
 30
0.0
  9
$PUCSORTHOREF
  2

  9
$PUCSORTHOVIEW
 70
     0
  9
$PUCSORGTOP
 10
0.0
 20
0.0
 30
0.0
  9
$PUCSORGBOTTOM
 10
0.0
 20
0.0
 30
0.0
  9
$PUCSORGLEFT
 10
0.0
 20
0.0
 30
0.0
  9
$PUCSORGRIGHT
 10
0.0
 20
0.0
 30
0.0
  9
$PUCSORGFRONT
 10
0.0
 20
0.0
 30
0.0
  9
$PUCSORGBACK
 10
0.0
 20
0.0
 30
0.0
  9
$USERI1
 70
     0
  9
$USERI2
 70
     0
  9
$USERI3
 70
     0
  9
$USERI4
 70
     0
  9
$USERI5
 70
     0
  9
$USERR1
 40
0.0
  9
$USERR2
 40
0.0
  9
$USERR3
 40
0.0
  9
$USERR4
 40
0.0
  9
$USERR5
 40
0.0
  9
$WORLDVIEW
 70
     1
  9
$SHADEDGE
 70
     3
  9
$SHADEDIF
 70
    70
  9
$TILEMODE
 70
     1
  9
$MAXACTVP
 70
    64
  9
$PINSBASE
 10
0.0
 20
0.0
 30
0.0
  9
$PLIMCHECK
 70
     0
  9
$PEXTMIN
 10
1.000000000000000E+20
 20
1.000000000000000E+20
 30
1.000000000000000E+20
  9
$PEXTMAX
 10
-1.000000000000000E+20
 20
-1.000000000000000E+20
 30
-1.000000000000000E+20
  9
$PLIMMIN
 10
0.0
 20
0.0
  9
$PLIMMAX
 10
12.0
 20
9.0
  9
$UNITMODE
 70
     0
  9
$VISRETAIN
 70
     1
  9
$PLINEGEN
 70
     0
  9
$PSLTSCALE
 70
     1
  9
$TREEDEPTH
 70
  3020
  9
$CMLSTYLE
  2
Standard
  9
$CMLJUST
 70
     0
  9
$CMLSCALE
 40
1.0
  9
$PROXYGRAPHICS
 70
     1
  9
$MEASUREMENT
 70
     0
  9
$CELWEIGHT
370
    -1
  9
$ENDCAPS
280
     0
  9
$JOINSTYLE
280
     0
  9
$LWDISPLAY
290
     0
  9
$INSUNITS
 70
     1
  9
$HYPERLINKBASE
  1

  9
$STYLESHEET
  1

  9
$XEDIT
290
     1
  9
$CEPSNTYPE
380
     0
  9
$PSTYLEMODE
290
     1
  9
$FINGERPRINTGUID
  2
{89B201BE-1856-4999-BF1F-EF95D1F2CBCE}
  9
$VERSIONGUID
  2
{FAEB1C32-E019-11D5-929B-00C0DF256EC4}
  9
$EXTNAMES
290
     1
  9
$PSVPSCALE
 40
0.0
  9
$OLESTARTUP
290
     0
  9
$SORTENTS
280
   127
  9
$INDEXCTL
280
     0
  9
$HIDETEXT
280
     1
  9
$XCLIPFRAME
280
     2
  9
$HALOGAP
280
     0
  9
$OBSCOLOR
 70
   257
  9
$OBSLTYPE
280
     0
  9
$INTERSECTIONDISPLAY
280
     0
  9
$INTERSECTIONCOLOR
 70
   257
  9
$DIMASSOC
280
     2
  9
$PROJECTNAME
  1

  9
$CAMERADISPLAY
290
     0
  9
$LENSLENGTH
 40
50.0
  9
$CAMERAHEIGHT
 40
0.0
  9
$STEPSPERSEC
 40
2.0
  9
$STEPSIZE
 40
6.0
  9
$3DDWFPREC
 40
2.0
  9
$PSOLWIDTH
 40
0.25
  9
$PSOLHEIGHT
 40
4.0
  9
$LOFTANG1
 40
1.570796326794897
  9
$LOFTANG2
 40
1.570796326794897
  9
$LOFTMAG1
 40
0.0
  9
$LOFTMAG2
 40
0.0
  9
$LOFTPARAM
 70
     7
  9
$LOFTNORMALS
280
     1
  9
$LATITUDE
 40
37.795
  9
$LONGITUDE
 40
-122.394
  9
$NORTHDIRECTION
 40
0.0
  9
$TIMEZONE
 70
 -8000
  9
$LIGHTGLYPHDISPLAY
280
     1
  9
$TILEMODELIGHTSYNCH
280
     1
  9
$SOLIDHIST
280
     1
  9
$SHOWHIST
280
     1
  9
$DWFFRAME
280
     2
  9
$DGNFRAME
280
     2
  9
$REALWORLDSCALE
290
     1
  9
$INTERFERECOLOR
 62
   256
  9
$CSHADOW
280
     0
  9
$SHADOWPLANELOCATION
 40
0.0
  0
ENDSEC
  0
SECTION
  2
CLASSES
  0
CLASS
  1
ACDBDICTIONARYWDFLT
  2
AcDbDictionaryWithDefault
  3
ObjectDBX Classes
 90
        0
 91
        4
280
     0
281
     0
  0
CLASS
  1
VISUALSTYLE
  2
AcDbVisualStyle
  3
ObjectDBX Classes
 90
     4095
 91
        4
280
     0
281
     0
  0
CLASS
  1
MATERIAL
  2
AcDbMaterial
  3
ObjectDBX Classes
 90
     1153
 91
        4
280
     0
281
     0
  0
ENDSEC
  0
SECTION
  2
TABLES
  0
TABLE
  2
VPORT
  5
8
330
0
100
AcDbSymbolTable
 70
     1
  0
VPORT
  5
29
330
8
100
AcDbSymbolTableRecord
100
AcDbViewportTableRecord
  2
*Active
 70
     0
 10
0.0
 20
0.0
 11
1.0
 21
1.0
 12
0.0
 22
0.0
 13
0.0
 23
0.0
 14
0.5
 24
0.5
 15
0.5
 25
0.5
 16
0.0
 26
0.0
 36
1.0
 17
0.0
 27
0.0
 37
-1000.0
 40
224.8684099331553
 41
1.822857142857143
 42
50.0
 43
3279.287375330077
 44
4035.957900946006
 50
0.0
 51
0.0
 71
     0
 72
   100
 73
     1
 74
     3
 75
     0
 76
     0
 77
     0
 78
     0
281
     0
 65
     1
110
0.0
120
0.0
130
0.0
111
1.0
121
0.0
131
0.0
112
0.0
122
1.0
132
0.0
 79
     0
146
0.0
 60
     3
 61
     5
292
     1
282
     1
141
0.0
142
0.0
 63
   250
  0
ENDTAB
  0
TABLE
  2
LTYPE
  5
5
330
0
100
AcDbSymbolTable
 70
     1
  0
LTYPE
  5
14
330
5
100
AcDbSymbolTableRecord
100
AcDbLinetypeTableRecord
  2
ByBlock
 70
     0
  3

 72
    65
 73
     0
 40
0.0
  0
LTYPE
  5
15
330
5
100
AcDbSymbolTableRecord
100
AcDbLinetypeTableRecord
  2
ByLayer
 70
     0
  3

 72
    65
 73
     0
 40
0.0
  0
LTYPE
  5
16
330
5
100
AcDbSymbolTableRecord
100
AcDbLinetypeTableRecord
  2
Continuous
 70
     0
  3
Solid line
 72
    65
 73
     0
 40
0.0
  0
ENDTAB
  0
TABLE
  2
LAYER
  5
2
330
0
100
AcDbSymbolTable
 70
     3
  0
LAYER
  5
10
330
2
100
AcDbSymbolTableRecord
100
AcDbLayerTableRecord
  2
0
 70
     0
 62
     7
  6
Continuous
370
    -3
390
F
347
3E
  0
LAYER
  5
3F
330
2
100
AcDbSymbolTableRecord
100
AcDbLayerTableRecord
  2
ProfileEdges
 70
     0
 62
     7
  6
Continuous
370
    -3
390
F
347
3E
  0
LAYER
  5
40
330
2
100
AcDbSymbolTableRecord
100
AcDbLayerTableRecord
  2
SectionCutEdges
 70
     0
 62
     7
  6
Continuous
370
    -3
390
F
347
3E
  0
ENDTAB
  0
TABLE
  2
STYLE
  5
3
330
0
100
AcDbSymbolTable
 70
     1
  0
STYLE
  5
11
330
3
100
AcDbSymbolTableRecord
100
AcDbTextStyleTableRecord
  2
Standard
 70
     0
 40
0.0
 41
1.0
 50
0.0
 71
     0
 42
0.2
  3
txt
  4

  0
ENDTAB
  0
TABLE
  2
VIEW
  5
6
330
0
100
AcDbSymbolTable
 70
     0
  0
ENDTAB
  0
TABLE
  2
UCS
  5
7
330
0
100
AcDbSymbolTable
 70
     0
  0
ENDTAB
  0
TABLE
  2
APPID
  5
9
330
0
100
AcDbSymbolTable
 70
     1
  0
APPID
  5
12
330
9
100
AcDbSymbolTableRecord
100
AcDbRegAppTableRecord
  2
ACAD
 70
     0
  0
ENDTAB
  0
TABLE
  2
DIMSTYLE
  5
A
330
0
100
AcDbSymbolTable
 70
     1
100
AcDbDimStyleTable
  0
DIMSTYLE
105
27
330
A
100
AcDbSymbolTableRecord
100
AcDbDimStyleTableRecord
  2
Standard
 70
     0
340
11
  0
ENDTAB
  0
TABLE
  2
BLOCK_RECORD
  5
1
330
0
100
AcDbSymbolTable
 70
     1
  0
BLOCK_RECORD
  5
1F
330
1
100
AcDbSymbolTableRecord
100
AcDbBlockTableRecord
  2
*Model_Space
340
22
 70
     0
280
     1
281
     0
  0
BLOCK_RECORD
  5
1B
330
1
100
AcDbSymbolTableRecord
100
AcDbBlockTableRecord
  2
*Paper_Space
340
1E
 70
     0
280
     1
281
     0
  0
BLOCK_RECORD
  5
23
330
1
100
AcDbSymbolTableRecord
100
AcDbBlockTableRecord
  2
*Paper_Space0
340
26
 70
     0
280
     1
281
     0
  0
ENDTAB
  0
ENDSEC
  0
SECTION
  2
BLOCKS
  0
BLOCK
  5
20
330
1F
100
AcDbEntity
  8
0
100
AcDbBlockBegin
  2
*Model_Space
 70
     0
 10
0.0
 20
0.0
 30
0.0
  3
*Model_Space
  1

  0
ENDBLK
  5
21
330
1F
100
AcDbEntity
  8
0
100
AcDbBlockEnd
  0
BLOCK
  5
1C
330
1B
100
AcDbEntity
 67
     1
  8
0
100
AcDbBlockBegin
  2
*Paper_Space
 70
     0
 10
0.0
 20
0.0
 30
0.0
  3
*Paper_Space
  1

  0
ENDBLK
  5
1D
330
1B
100
AcDbEntity
 67
     1
  8
0
100
AcDbBlockEnd
  0
BLOCK
  5
24
330
23
100
AcDbEntity
  8
0
100
AcDbBlockBegin
  2
*Paper_Space0
 70
     0
 10
0.0
 20
0.0
 30
0.0
  3
*Paper_Space0
  1

  0
ENDBLK
  5
25
330
23
100
AcDbEntity
  8
0
100
AcDbBlockEnd
  0
ENDSEC
  0
SECTION
  2
ENTITIES
  0
LINE
  5
41
330
1F
100
AcDbEntity
  8
0
100
AcDbLine
 10
-24.09573839656904
 20
36.53461979305753
 30
0.0
 11
-23.03458039654138
 21
36.39491569201892
 31
0.0
  0
LINE
  5
42
330
1F
100
AcDbEntity
  8
0
100
AcDbLine
 10
-20.77324706476838
 20
23.32904245610433
 30
0.0
 11
-20.59342631864575
 21
22.89491677201892
 31
0.0
  0
LINE
  5
43
330
1F
100
AcDbEntity
  8
0
100
AcDbLine
 10
-37.60154740767449
 20
64.79447168506468
 30
0.0
 11
-38.06866604477285
 21
64.74347375183129
 31
0.0
  0
LINE
  5
44
330
1F
100
AcDbEntity
  8
0
100
AcDbLine
 10
-50.84142178967483
 20
7.144918032012069
 30
0.0
 11
-50.84142178967483
 21
13.9449174880121
 31
0.0
  0
LINE
  5
45
330
1F
100
AcDbEntity
  8
0
100
AcDbLine
 10
44.64142228567535
 20
25.84491653601091
 30
0.0
 11
44.17554804176091
 21
25.78358302823792
 31
0.0
  0
LINE
  5
46
330
1F
100
AcDbEntity
  8
0
100
AcDbLine
 10
-77.18605076407198
 20
-27.50530553886362
 30
0.0
 11
-74.58797476056489
 21
-32.00530517886367
 31
0.0
  0
LINE
  5
47
330
1F
100
AcDbEntity
  8
0
100
AcDbLine
 10
-74.58797476056489
 20
-32.00530517886367
 30
0.0
 11
-69.39182275355037
 21
-32.00530517886367
 31
0.0
  0
LINE
  5
48
330
1F
100
AcDbEntity
  8
0
100
AcDbLine
 10
-74.58797476056489
 20
-29.00530541886365
 30
0.0
 11
-74.1112189309118
 21
-29.62662571271766
 31
0.0
  0
LINE
  5
49
330
1F
100
AcDbEntity
  8
0
100
AcDbLine
 10
-74.88767600410266
 20
-28.28176261205461
 30
0.0
 11
-74.58797476056489
 21
-29.00530541886365
 31
0.0
  0
LINE
  5
4A
330
1F
100
AcDbEntity
  8
0
100
AcDbLine
 10
-74.98989851705751
 20
-27.50530553886362
 30
0.0
 11
-74.88767600410266
 21
-28.28176261205461
 31
0.0
  0
LINE
  5
4B
330
1F
100
AcDbEntity
  8
0
100
AcDbLine
 10
-74.88767600410266
 20
-26.72884846567263
 30
0.0
 11
-74.98989851705751
 21
-27.50530553886362
 31
0.0
  0
LINE
  5
4C
330
1F
100
AcDbEntity
  8
0
100
AcDbLine
 10
-45.0072965375894
 20
25.73358303224633
 30
0.0
 11
-45.44142222167476
 21
25.55376228612366
 31
0.0
  0
LINE
  5
4D
330
1F
100
AcDbEntity
  8
0
100
AcDbLine
 10
86.68494708736844
 20
19.79439063720941
 30
0.0
 11
86.21772589520542
 21
19.74434098273988
 31
0.0
  0
LINE
  5
4E
330
1F
100
AcDbEntity
  8
0
100
AcDbLine
 10
-69.44142030167501
 20
7.144918032012069
 30
0.0
 11
-69.44142030167501
 21
13.9449174880121
 31
0.0
  0
LINE
  5
4F
330
1F
100
AcDbEntity
  8
0
100
AcDbLine
 10
-80.91421158998804
 20
55.67212194369981
 30
0.0
 11
-80.54141941367546
 21
55.3860684459079
 31
0.0
  0
LINE
  5
50
330
1F
100
AcDbEntity
  8
0
100
AcDbLine
 10
-27.13458006854137
 20
40.49491536401919
 30
0.0
 11
-26.99487596750294
 21
39.43375736399152
 31
0.0
  0
LINE
  5
51
330
1F
100
AcDbEntity
  8
0
100
AcDbLine
 10
-48.62081557782677
 20
-50.24491458401234
 30
0.0
 11
-67.62081405782686
 21
-50.24491458401234
 31
0.0
  0
LINE
  5
52
330
1F
100
AcDbEntity
  8
0
100
AcDbLine
 10
-6.500607123043615
 20
8.444917928018956
 30
0.0
 11
-6.341688513159309
 21
8.237811163400924
 31
0.0
  0
LINE
  5
53
330
1F
100
AcDbEntity
  8
0
100
AcDbLine
 10
-6.341688513159309
 20
8.237811163400924
 30
0.0
 11
-6.134581748541322
 21
8.078892553516528
 31
0.0
  0
LINE
  5
54
330
1F
100
AcDbEntity
  8
0
100
AcDbLine
 10
27.96541552345944
 20
13.94491748801927
 30
0.0
 11
16.66541642745923
 21
13.94491748801927
 31
0.0
  0
LINE
  5
55
330
1F
100
AcDbEntity
  8
0
100
AcDbLine
 10
-26.99487596750294
 20
39.43375736399152
 30
0.0
 11
-26.58528426800117
 21
38.44491552801905
 31
0.0
  0
LINE
  5
56
330
1F
100
AcDbEntity
  8
0
100
AcDbLine
 10
-26.58528426800117
 20
38.44491552801905
 30
0.0
 11
-25.93371796747529
 21
37.59577779308523
 31
0.0
  0
LINE
  5
57
330
1F
100
AcDbEntity
  8
0
100
AcDbLine
 10
-6.134581748541322
 20
8.078892553516528
 30
0.0
 11
-5.893400812938265
 21
7.978992139003911
 31
0.0
  0
LINE
  5
58
330
1F
100
AcDbEntity
  8
0
100
AcDbLine
 10
44.64142228567535
 20
73.84491269601217
 30
0.0
 11
59.95369648468756
 21
73.84491269601217
 31
0.0
  0
LINE
  5
59
330
1F
100
AcDbEntity
  8
0
100
AcDbLine
 10
-80.09071529421551
 20
38.44491552801215
 30
0.0
 11
-79.6811235947141
 21
39.43375736398453
 31
0.0
  0
LINE
  5
5A
330
1F
100
AcDbEntity
  8
0
100
AcDbLine
 10
-80.74228159474175
 20
37.59577779307833
 30
0.0
 11
-80.09071529421551
 21
38.44491552801215
 31
0.0
  0
LINE
  5
5B
330
1F
100
AcDbEntity
  8
0
100
AcDbLine
 10
-81.59141932967539
 20
36.94421149255226
 30
0.0
 11
-80.74228159474175
 21
37.59577779307833
 31
0.0
  0
LINE
  5
5C
330
1F
100
AcDbEntity
  8
0
100
AcDbLine
 10
86.02621820298195
 20
-21.70066431536404
 30
0.0
 11
85.74016470519032
 21
-22.07345649167645
 31
0.0
  0
LINE
  5
5D
330
1F
100
AcDbEntity
  8
0
100
AcDbLine
 10
85.56034395906751
 20
-23.43933066359101
 30
0.0
 11
85.74016470519032
 21
-23.87345634767642
 31
0.0
  0
LINE
  5
5E
330
1F
100
AcDbEntity
  8
0
100
AcDbLine
 10
-43.466183672935
 20
-38.57123047987871
 30
0.0
 11
-43.20736464853817
 21
-38.60530465086369
 31
0.0
  0
LINE
  5
5F
330
1F
100
AcDbEntity
  8
0
100
AcDbLine
 10
-6.634581708541211
 20
8.944917888018935
 30
0.0
 11
-6.634581708541211
 21
13.944917488019
 31
0.0
  0
LINE
  5
60
330
1F
100
AcDbEntity
  8
0
100
AcDbLine
 10
53.98316593621151
 20
-25.09477659353051
 30
0.0
 11
54.45992176586497
 21
-24.47345629967646
 31
0.0
  0
LINE
  5
61
330
1F
100
AcDbEntity
  8
0
100
AcDbLine
 10
-79.47338715104007
 20
-2.30530755486346
 30
0.0
 11
-79.31446854115558
 21
-2.098200790245473
 31
0.0
  0
LINE
  5
62
330
1F
100
AcDbEntity
  8
0
100
AcDbLine
 10
-78.36862738136325
 20
55.67212194369981
 30
0.0
 11
-78.08257388357126
 21
56.04491412001223
 31
0.0
  0
LINE
  5
63
330
1F
100
AcDbEntity
  8
0
100
AcDbLine
 10
-78.74141955767548
 20
55.3860684459079
 30
0.0
 11
-78.36862738136325
 21
55.67212194369981
 31
0.0
  0
LINE
  5
64
330
1F
100
AcDbEntity
  8
0
100
AcDbLine
 10
-79.17554524176084
 20
55.20624769978529
 30
0.0
 11
-78.74141955767548
 21
55.3860684459079
 31
0.0
  0
LINE
  5
65
330
1F
100
AcDbEntity
  8
0
100
AcDbLine
 10
-79.64141948567566
 20
55.14491419201225
 30
0.0
 11
-79.17554524176084
 21
55.20624769978529
 31
0.0
  0
LINE
  5
66
330
1F
100
AcDbEntity
  8
0
100
AcDbLine
 10
46.38008863390201
 20
56.47903980409758
 30
0.0
 11
46.44142214167496
 21
56.94491404801222
 31
0.0
  0
LINE
  5
67
330
1F
100
AcDbEntity
  8
0
100
AcDbLine
 10
46.44142214167496
 20
56.94491404801222
 30
0.0
 11
46.38008863390201
 21
57.41078829192683
 31
0.0
  0
LINE
  5
68
330
1F
100
AcDbEntity
  8
0
100
AcDbLine
 10
-74.51562162846784
 20
-64.8449134160124
 30
0.0
 11
-74.52081350582696
 21
-58.24491394401238
 31
0.0
  0
LINE
  5
69
330
1F
100
AcDbEntity
  8
0
100
AcDbLine
 10
-78.08257388357126
 20
23.14491675201214
 30
0.0
 11
-77.90275313744844
 21
23.57904243609755
 31
0.0
  0
LINE
  5
6A
330
1F
100
AcDbEntity
  8
0
100
AcDbLine
 10
-47.62081565782663
 20
-43.64491511201231
 30
0.0
 11
-39.62081629782659
 21
-43.64491511201231
 31
0.0
  0
LINE
  5
6B
330
1F
100
AcDbEntity
  8
0
100
AcDbLine
 10
-20.72891660256013
 20
8.944131240177354
 30
0.0
 11
-20.69467286722981
 21
8.685465716324838
 31
0.0
  0
LINE
  5
6C
330
1F
100
AcDbEntity
  8
0
100
AcDbLine
 10
-20.69467286722981
 20
8.685465716324838
 30
0.0
 11
-20.59467999141693
 21
8.444463825407006
 31
0.0
  0
LINE
  5
6D
330
1F
100
AcDbEntity
  8
0
100
AcDbLine
 10
-20.59467999141693
 20
8.444463825407006
 30
0.0
 11
-20.43574553985665
 21
8.237533096063737
 31
0.0
  0
LINE
  5
6E
330
1F
100
AcDbEntity
  8
0
100
AcDbLine
 10
-17.13458086854106
 20
7.944917968018388
 30
0.0
 11
-19.72891699196777
 21
7.944917968018705
 31
0.0
  0
LINE
  5
6F
330
1F
100
AcDbEntity
  8
0
100
AcDbLine
 10
-17.13458086854106
 20
7.944917968018388
 30
0.0
 11
-16.87576184414404
 21
7.97899213900337
 31
0.0
  0
LINE
  5
70
330
1F
100
AcDbEntity
  8
0
100
AcDbLine
 10
-16.87576184414404
 20
7.97899213900337
 30
0.0
 11
-16.63458090854099
 21
8.078892553515942
 31
0.0
  0
LINE
  5
71
330
1F
100
AcDbEntity
  8
0
100
AcDbLine
 10
-74.1112189309118
 20
-25.38398536500954
 30
0.0
 11
-74.58797476056489
 21
-26.00530565886359
 31
0.0
  0
LINE
  5
72
330
1F
100
AcDbEntity
  8
0
100
AcDbLine
 10
-72.76635583024867
 20
-24.60752829181855
 30
0.0
 11
-73.4898986370575
 21
-24.90722953535635
 31
0.0
  0
LINE
  5
73
330
1F
100
AcDbEntity
  8
0
100
AcDbLine
 10
-69.22689320515575
 20
-66.44713580896737
 30
0.0
 11
-70.00335027834697
 21
-66.3449132960124
 31
0.0
  0
LINE
  5
74
330
1F
100
AcDbEntity
  8
0
100
AcDbLine
 10
-36.62081653782725
 20
-80.44491216801252
 30
0.0
 11
-41.22081616982732
 21
-80.44491216801252
 31
0.0
  0
LINE
  5
75
330
1F
100
AcDbEntity
  8
0
100
AcDbLine
 10
-82.89360504213927
 20
-70.61770516032489
 30
0.0
 11
-82.52081286582704
 21
-70.90375865811684
 31
0.0
  0
LINE
  5
76
330
1F
100
AcDbEntity
  8
0
100
AcDbLine
 10
87.76488455120915
 20
-21.23479007144946
 30
0.0
 11
87.29901030729454
 21
-21.17345656367647
 31
0.0
  0
LINE
  5
77
330
1F
100
AcDbEntity
  8
0
100
AcDbLine
 10
78.18257387557114
 20
56.09491411601537
 30
0.0
 11
78.46862737336313
 21
55.72212193970297
 31
0.0
  0
LINE
  5
78
330
1F
100
AcDbEntity
  8
0
100
AcDbLine
 10
78.46862737336313
 20
55.72212193970297
 30
0.0
 11
78.84141954967555
 21
55.43606844191105
 31
0.0
  0
LINE
  5
79
330
1F
100
AcDbEntity
  8
0
100
AcDbLine
 10
78.84141954967555
 20
55.43606844191105
 30
0.0
 11
79.27554523376091
 21
55.25624769578834
 31
0.0
  0
LINE
  5
7A
330
1F
100
AcDbEntity
  8
0
100
AcDbLine
 10
79.27554523376091
 20
55.25624769578834
 30
0.0
 11
79.74141947767536
 21
55.19491418801531
 31
0.0
  0
LINE
  5
7B
330
1F
100
AcDbEntity
  8
0
100
AcDbLine
 10
79.74141947767536
 20
55.19491418801531
 30
0.0
 11
80.20729372158998
 21
55.25624769578825
 31
0.0
  0
LINE
  5
7C
330
1F
100
AcDbEntity
  8
0
100
AcDbLine
 10
80.20729372158998
 20
55.25624769578825
 30
0.0
 11
80.6414194056755
 21
55.43606844191095
 31
0.0
  0
LINE
  5
7D
330
1F
100
AcDbEntity
  8
0
100
AcDbLine
 10
80.6414194056755
 20
55.43606844191095
 30
0.0
 11
81.01421158198792
 21
55.72212193970278
 31
0.0
  0
LINE
  5
7E
330
1F
100
AcDbEntity
  8
0
100
AcDbLine
 10
81.01421158198792
 20
55.72212193970278
 30
0.0
 11
81.30026507977975
 21
56.09491411601519
 31
0.0
  0
LINE
  5
7F
330
1F
100
AcDbEntity
  8
0
100
AcDbLine
 10
81.30026507977975
 20
56.09491411601519
 30
0.0
 11
81.48008582590255
 21
56.52903980010055
 31
0.0
  0
LINE
  5
80
330
1F
100
AcDbEntity
  8
0
100
AcDbLine
 10
81.48008582590255
 20
56.52903980010055
 30
0.0
 11
81.54141933367549
 21
56.99491404401518
 31
0.0
  0
LINE
  5
81
330
1F
100
AcDbEntity
  8
0
100
AcDbLine
 10
81.54141933367549
 20
56.99491404401518
 30
0.0
 11
81.48008582590255
 21
57.46078828792979
 31
0.0
  0
LINE
  5
82
330
1F
100
AcDbEntity
  8
0
100
AcDbLine
 10
81.48008582590255
 20
57.46078828792979
 30
0.0
 11
81.30026507977993
 21
57.89491397201515
 31
0.0
  0
LINE
  5
83
330
1F
100
AcDbEntity
  8
0
100
AcDbLine
 10
-36.36199751343042
 20
-80.41083799702754
 30
0.0
 11
-36.62081653782725
 21
-80.44491216801252
 31
0.0
  0
LINE
  5
84
330
1F
100
AcDbEntity
  8
0
100
AcDbLine
 10
-25.93371796747529
 20
43.3940529349529
 30
0.0
 11
-26.58528426800117
 21
42.54491520001909
 31
0.0
  0
LINE
  5
85
330
1F
100
AcDbEntity
  8
0
100
AcDbLine
 10
-20.13544282560747
 20
43.3940529349529
 30
0.0
 11
-20.98458056054147
 21
44.04561923547879
 31
0.0
  0
LINE
  5
86
330
1F
100
AcDbEntity
  8
0
100
AcDbLine
 10
-20.59342631864575
 20
24.69491662801897
 30
0.0
 11
-20.77324706476838
 21
24.26079094393357
 31
0.0
  0
LINE
  5
87
330
1F
100
AcDbEntity
  8
0
100
AcDbLine
 10
-19.50045496045598
 20
25.53358304824601
 30
0.0
 11
-19.93458064454134
 21
25.35376230212334
 31
0.0
  0
LINE
  5
88
330
1F
100
AcDbEntity
  8
0
100
AcDbLine
 10
-19.03458071654136
 20
25.594916556019
 30
0.0
 11
-19.50045496045598
 21
25.53358304824601
 31
0.0
  0
LINE
  5
89
330
1F
100
AcDbEntity
  8
0
100
AcDbLine
 10
-6.634581708541211
 20
8.944917888018935
 30
0.0
 11
-6.600507537556322
 21
8.686098863621924
 31
0.0
  0
LINE
  5
8A
330
1F
100
AcDbEntity
  8
0
100
AcDbLine
 10
-38.10736505653821
 20
-38.4713300653661
 30
0.0
 11
-38.34854599214109
 21
-38.57123047987871
 31
0.0
  0
LINE
  5
8B
330
1F
100
AcDbEntity
  8
0
100
AcDbLine
 10
-68.36199495342998
 20
-43.67898928299729
 30
0.0
 11
-68.62081397782681
 21
-43.64491511201231
 31
0.0
  0
LINE
  5
8C
330
1F
100
AcDbEntity
  8
0
100
AcDbLine
 10
-76.62081333782686
 20
-43.64491511201231
 30
0.0
 11
-68.62081397782681
 21
-43.64491511201231
 31
0.0
  0
LINE
  5
8D
330
1F
100
AcDbEntity
  8
0
100
AcDbLine
 10
63.70285977228028
 20
-20.97345657967643
 30
0.0
 11
63.10345728520475
 21
-22.42054219329446
 31
0.0
  0
LINE
  5
8E
330
1F
100
AcDbEntity
  8
0
100
AcDbLine
 10
24.69146372221952
 20
17.48427200542534
 30
0.0
 11
24.76481476202461
 21
17.94840586034032
 31
0.0
  0
LINE
  5
8F
330
1F
100
AcDbEntity
  8
0
100
AcDbLine
 10
-28.03457999654104
 20
67.04491324001908
 30
0.0
 11
-20.73285046179916
 21
67.04491324001927
 31
0.0
  0
LINE
  5
90
330
1F
100
AcDbEntity
  8
0
100
AcDbLine
 10
16.66541642745923
 20
67.04491324001962
 30
0.0
 11
16.66541642745923
 21
72.04491284001952
 31
0.0
  0
LINE
  5
91
330
1F
100
AcDbEntity
  8
0
100
AcDbLine
 10
15.61700332096751
 20
22.05625035179089
 30
0.0
 11
16.08287756488213
 21
21.9949168440179
 31
0.0
  0
LINE
  5
92
330
1F
100
AcDbEntity
  8
0
100
AcDbLine
 10
15.18287763688215
 20
22.23607109791356
 30
0.0
 11
15.61700332096751
 21
22.05625035179089
 31
0.0
  0
LINE
  5
93
330
1F
100
AcDbEntity
  8
0
100
AcDbLine
 10
14.52403196277792
 20
22.89491677201788
 30
0.0
 11
14.81008546056974
 21
22.52212459570547
 31
0.0
  0
LINE
  5
94
330
1F
100
AcDbEntity
  8
0
100
AcDbLine
 10
14.34421121665512
 20
23.32904245610329
 30
0.0
 11
14.52403196277792
 21
22.89491677201788
 31
0.0
  0
LINE
  5
95
330
1F
100
AcDbEntity
  8
0
100
AcDbLine
 10
14.28287770888217
 20
23.79491670001786
 30
0.0
 11
14.34421121665512
 21
23.32904245610329
 31
0.0
  0
LINE
  5
96
330
1F
100
AcDbEntity
  8
0
100
AcDbLine
 10
14.34421121665512
 20
24.26079094393244
 30
0.0
 11
14.28287770888217
 21
23.79491670001786
 31
0.0
  0
LINE
  5
97
330
1F
100
AcDbEntity
  8
0
100
AcDbLine
 10
14.52403196277792
 20
24.69491662801785
 30
0.0
 11
14.34421121665512
 21
24.26079094393244
 31
0.0
  0
LINE
  5
98
330
1F
100
AcDbEntity
  8
0
100
AcDbLine
 10
14.81008546056974
 20
25.06770880433026
 30
0.0
 11
14.52403196277792
 21
24.69491662801785
 31
0.0
  0
LINE
  5
99
330
1F
100
AcDbEntity
  8
0
100
AcDbLine
 10
15.18287763688215
 20
25.35376230212217
 30
0.0
 11
14.81008546056974
 21
25.06770880433026
 31
0.0
  0
LINE
  5
9A
330
1F
100
AcDbEntity
  8
0
100
AcDbLine
 10
15.61700332096751
 20
25.53358304824484
 30
0.0
 11
15.18287763688215
 21
25.35376230212217
 31
0.0
  0
LINE
  5
9B
330
1F
100
AcDbEntity
  8
0
100
AcDbLine
 10
16.08287756488213
 20
25.59491655601783
 30
0.0
 11
15.61700332096751
 21
25.53358304824484
 31
0.0
  0
LINE
  5
9C
330
1F
100
AcDbEntity
  8
0
100
AcDbLine
 10
-16.63458090854099
 20
8.078892553515942
 30
0.0
 11
-16.427474143923
 21
8.237811163400337
 31
0.0
  0
LINE
  5
9D
330
1F
100
AcDbEntity
  8
0
100
AcDbLine
 10
-16.427474143923
 20
8.237811163400337
 30
0.0
 11
-16.26855553403852
 21
8.444917928018368
 31
0.0
  0
LINE
  5
9E
330
1F
100
AcDbEntity
  8
0
100
AcDbLine
 10
-16.26855553403852
 20
8.444917928018368
 30
0.0
 11
-16.16865511952581
 21
8.686098863621382
 31
0.0
  0
LINE
  5
9F
330
1F
100
AcDbEntity
  8
0
100
AcDbLine
 10
-16.16865511952581
 20
8.686098863621382
 30
0.0
 11
-16.13458094854092
 21
8.944917888018393
 31
0.0
  0
LINE
  5
A0
330
1F
100
AcDbEntity
  8
0
100
AcDbLine
 10
-6.600507537556322
 20
8.686098863621924
 30
0.0
 11
-6.500607123043615
 21
8.444917928018956
 31
0.0
  0
LINE
  5
A1
330
1F
100
AcDbEntity
  8
0
100
AcDbLine
 10
84.8926559496697
 20
62.56850116345271
 30
0.0
 11
85.06260725342621
 21
62.13041765010136
 31
0.0
  0
LINE
  5
A2
330
1F
100
AcDbEntity
  8
0
100
AcDbLine
 10
35.64142300567531
 20
80.44491216801126
 30
0.0
 11
91.64141852567579
 21
80.44491216801126
 31
0.0
  0
LINE
  5
A3
330
1F
100
AcDbEntity
  8
0
100
AcDbLine
 10
88.36909828837425
 20
62.48981604738301
 30
0.0
 11
88.44095789859068
 21
62.95418315080264
 31
0.0
  0
LINE
  5
A4
330
1F
100
AcDbEntity
  8
0
100
AcDbLine
 10
63.75888684321232
 20
65.49490321287104
 30
0.0
 11
74.75888096709832
 21
65.49490321287104
 31
0.0
  0
LINE
  5
A5
330
1F
100
AcDbEntity
  8
0
100
AcDbLine
 10
16.16541646745934
 20
8.078892553515896
 30
0.0
 11
15.92423553185629
 21
7.97899213900328
 31
0.0
  0
LINE
  5
A6
330
1F
100
AcDbEntity
  8
0
100
AcDbLine
 10
15.66541650745927
 20
7.944917968018299
 30
0.0
 11
-5.634581788541253
 21
7.94491796801893
 31
0.0
  0
LINE
  5
A7
330
1F
100
AcDbEntity
  8
0
100
AcDbLine
 10
15.92423553185629
 20
7.97899213900328
 30
0.0
 11
15.66541650745927
 21
7.944917968018299
 31
0.0
  0
LINE
  5
A8
330
1F
100
AcDbEntity
  8
0
100
AcDbLine
 10
39.39901413929447
 20
-24.53230202178074
 30
0.0
 11
39.83313982337982
 21
-24.71212276790341
 31
0.0
  0
LINE
  5
A9
330
1F
100
AcDbEntity
  8
0
100
AcDbLine
 10
41.57180617160665
 20
-24.24624852398883
 30
0.0
 11
41.85785966939866
 21
-23.87345634767642
 31
0.0
  0
LINE
  5
AA
330
1F
100
AcDbEntity
  8
0
100
AcDbLine
 10
16.66541642745923
 20
13.94491748801927
 30
0.0
 11
16.66541642745923
 21
8.944917888018304
 31
0.0
  0
LINE
  5
AB
330
1F
100
AcDbEntity
  8
0
100
AcDbLine
 10
-18.1345807885412
 20
58.75375963012359
 30
0.0
 11
-18.56870647262674
 21
58.9335803762462
 31
0.0
  0
LINE
  5
AC
330
1F
100
AcDbEntity
  8
0
100
AcDbLine
 10
-28.03457999654104
 20
13.94491748801887
 30
0.0
 11
-28.03457999654104
 21
33.00582986876858
 31
0.0
  0
LINE
  5
AD
330
1F
100
AcDbEntity
  8
0
100
AcDbLine
 10
11.08287796488252
 20
15.49492751516016
 30
0.0
 11
0.0828838409963331
 21
15.49492751516043
 31
0.0
  0
LINE
  5
AE
330
1F
100
AcDbEntity
  8
0
100
AcDbLine
 10
-20.7328504617988
 20
13.94491748801891
 30
0.0
 11
-20.72891660256013
 21
8.944131240177354
 31
0.0
  0
LINE
  5
AF
330
1F
100
AcDbEntity
  8
0
100
AcDbLine
 10
-18.13458078854138
 20
22.23607109791455
 30
0.0
 11
-17.76178861222897
 21
22.52212459570651
 31
0.0
  0
LINE
  5
B0
330
1F
100
AcDbEntity
  8
0
100
AcDbLine
 10
87.76488455120915
 20
-24.71212276790341
 30
0.0
 11
88.19901023529451
 21
-24.53230202178074
 31
0.0
  0
LINE
  5
B1
330
1F
100
AcDbEntity
  8
0
100
AcDbLine
 10
46.20026788777938
 20
56.04491412001214
 30
0.0
 11
46.38008863390201
 21
56.47903980409758
 31
0.0
  0
LINE
  5
B2
330
1F
100
AcDbEntity
  8
0
100
AcDbLine
 10
-67.62081405782686
 20
-50.24491458401234
 30
0.0
 11
-67.62081405782686
 21
-44.64491503201231
 31
0.0
  0
LINE
  5
B3
330
1F
100
AcDbEntity
  8
0
100
AcDbLine
 10
49.26376975885043
 20
-21.47345653967641
 30
0.0
 11
48.96406851531267
 21
-22.19699934648544
 31
0.0
  0
LINE
  5
B4
330
1F
100
AcDbEntity
  8
0
100
AcDbLine
 10
44.74142227767496
 20
40.49491536401219
 30
0.0
 11
44.60171817663653
 21
41.55607336403985
 31
0.0
  0
LINE
  5
B5
330
1F
100
AcDbEntity
  8
0
100
AcDbLine
 10
41.70258060570263
 20
36.53461979305067
 30
0.0
 11
42.69142244167488
 21
36.94421149255226
 31
0.0
  0
LINE
  5
B6
330
1F
100
AcDbEntity
  8
0
100
AcDbLine
 10
74.89901129929493
 20
-23.97345633967644
 30
0.0
 11
74.69456627338485
 21
-22.42054219329446
 31
0.0
  0
LINE
  5
B7
330
1F
100
AcDbEntity
  8
0
100
AcDbLine
 10
81.48008582590273
 20
23.52904244010166
 30
0.0
 11
81.54141933367568
 21
23.99491668401624
 31
0.0
  0
LINE
  5
B8
330
1F
100
AcDbEntity
  8
0
100
AcDbLine
 10
81.54141933367568
 20
23.99491668401624
 30
0.0
 11
81.48008582590273
 21
24.46079092793082
 31
0.0
  0
LINE
  5
B9
330
1F
100
AcDbEntity
  8
0
100
AcDbLine
 10
81.48008582590273
 20
24.46079092793082
 30
0.0
 11
81.30026507978012
 21
24.89491661201622
 31
0.0
  0
LINE
  5
BA
330
1F
100
AcDbEntity
  8
0
100
AcDbLine
 10
81.30026507978012
 20
24.89491661201622
 30
0.0
 11
81.0142115819881
 21
25.26770878832863
 31
0.0
  0
LINE
  5
BB
330
1F
100
AcDbEntity
  8
0
100
AcDbLine
 10
81.0142115819881
 20
25.26770878832863
 30
0.0
 11
80.64141940567569
 21
25.55376228612055
 31
0.0
  0
LINE
  5
BC
330
1F
100
AcDbEntity
  8
0
100
AcDbLine
 10
80.64141940567569
 20
25.55376228612055
 30
0.0
 11
80.20729372159035
 21
25.73358303224326
 31
0.0
  0
LINE
  5
BD
330
1F
100
AcDbEntity
  8
0
100
AcDbLine
 10
80.20729372159035
 20
25.73358303224326
 30
0.0
 11
79.74141947767572
 21
25.79491654001625
 31
0.0
  0
LINE
  5
BE
330
1F
100
AcDbEntity
  8
0
100
AcDbLine
 10
79.74141947767572
 20
25.79491654001625
 30
0.0
 11
79.2755452337611
 21
25.73358303224326
 31
0.0
  0
LINE
  5
BF
330
1F
100
AcDbEntity
  8
0
100
AcDbLine
 10
79.2755452337611
 20
25.73358303224326
 30
0.0
 11
78.84141954967573
 21
25.55376228612059
 31
0.0
  0
LINE
  5
C0
330
1F
100
AcDbEntity
  8
0
100
AcDbLine
 10
36.29901438729443
 20
-27.47345605967643
 30
0.0
 11
36.29901438729443
 21
-3.873457947676278
 31
0.0
  0
LINE
  5
C1
330
1F
100
AcDbEntity
  8
0
100
AcDbLine
 10
36.29901438729443
 20
-27.47345605967643
 30
0.0
 11
62.89901225929469
 21
-27.47345605967643
 31
0.0
  0
LINE
  5
C2
330
1F
100
AcDbEntity
  8
0
100
AcDbLine
 10
62.89901225929469
 20
-23.97345633967644
 30
0.0
 11
62.89901225929469
 21
-27.47345605967643
 31
0.0
  0
LINE
  5
C3
330
1F
100
AcDbEntity
  8
0
100
AcDbLine
 10
63.10345728520475
 20
-22.42054219329446
 30
0.0
 11
62.89901225929469
 21
-23.97345633967644
 31
0.0
  0
LINE
  5
C4
330
1F
100
AcDbEntity
  8
0
100
AcDbLine
 10
64.65637143158682
 20
-19.73081599196837
 30
0.0
 11
63.70285977228028
 21
-20.97345657967643
 31
0.0
  0
LINE
  5
C5
330
1F
100
AcDbEntity
  8
0
100
AcDbLine
 10
65.89901201929439
 20
-18.777304332662
 30
0.0
 11
64.65637143158682
 21
-19.73081599196837
 31
0.0
  0
LINE
  5
C6
330
1F
100
AcDbEntity
  8
0
100
AcDbLine
 10
67.34609763291236
 20
-18.17790184558639
 30
0.0
 11
65.89901201929439
 21
-18.777304332662
 31
0.0
  0
LINE
  5
C7
330
1F
100
AcDbEntity
  8
0
100
AcDbLine
 10
68.89901177929444
 20
-17.97345681967641
 30
0.0
 11
67.34609763291236
 21
-18.17790184558639
 31
0.0
  0
LINE
  5
C8
330
1F
100
AcDbEntity
  8
0
100
AcDbLine
 10
70.45192592567652
 20
-18.17790184558639
 30
0.0
 11
68.89901177929444
 21
-17.97345681967641
 31
0.0
  0
LINE
  5
C9
330
1F
100
AcDbEntity
  8
0
100
AcDbLine
 10
71.89901153929486
 20
-18.777304332662
 30
0.0
 11
70.45192592567652
 21
-18.17790184558639
 31
0.0
  0
LINE
  5
CA
330
1F
100
AcDbEntity
  8
0
100
AcDbLine
 10
73.14165212700277
 20
-19.73081599196837
 30
0.0
 11
71.89901153929486
 21
-18.777304332662
 31
0.0
  0
LINE
  5
CB
330
1F
100
AcDbEntity
  8
0
100
AcDbLine
 10
74.09516378630933
 20
-20.97345657967643
 30
0.0
 11
73.14165212700277
 21
-19.73081599196837
 31
0.0
  0
LINE
  5
CC
330
1F
100
AcDbEntity
  8
0
100
AcDbLine
 10
74.69456627338485
 20
-22.42054219329446
 30
0.0
 11
74.09516378630933
 21
-20.97345657967643
 31
0.0
  0
LINE
  5
CD
330
1F
100
AcDbEntity
  8
0
100
AcDbLine
 10
74.89901129929493
 20
-23.97345633967644
 30
0.0
 11
74.89901129929493
 21
-27.47345605967643
 31
0.0
  0
LINE
  5
CE
330
1F
100
AcDbEntity
  8
0
100
AcDbLine
 10
74.89901129929493
 20
-27.47345605967643
 30
0.0
 11
91.29900998729454
 21
-27.47345605967643
 31
0.0
  0
LINE
  5
CF
330
1F
100
AcDbEntity
  8
0
100
AcDbLine
 10
91.29900998729454
 20
-3.873457947676278
 30
0.0
 11
91.29900998729454
 21
-27.47345605967643
 31
0.0
  0
LINE
  5
D0
330
1F
100
AcDbEntity
  8
0
100
AcDbLine
 10
36.29901438729443
 20
-3.873457947676278
 30
0.0
 11
91.29900998729454
 21
-3.873457947676278
 31
0.0
  0
LINE
  5
D1
330
1F
100
AcDbEntity
  8
0
100
AcDbLine
 10
87.29901030729454
 20
-24.7734562756764
 30
0.0
 11
87.76488455120915
 21
-24.71212276790341
 31
0.0
  0
LINE
  5
D2
330
1F
100
AcDbEntity
  8
0
100
AcDbLine
 10
86.83313606337991
 20
-24.71212276790341
 30
0.0
 11
87.29901030729454
 21
-24.7734562756764
 31
0.0
  0
LINE
  5
D3
330
1F
100
AcDbEntity
  8
0
100
AcDbLine
 10
86.39901037929455
 20
-24.53230202178074
 30
0.0
 11
86.83313606337991
 21
-24.71212276790341
 31
0.0
  0
LINE
  5
D4
330
1F
100
AcDbEntity
  8
0
100
AcDbLine
 10
86.02621820298195
 20
-24.24624852398883
 30
0.0
 11
86.39901037929455
 21
-24.53230202178074
 31
0.0
  0
LINE
  5
D5
330
1F
100
AcDbEntity
  8
0
100
AcDbLine
 10
85.74016470519032
 20
-23.87345634767642
 30
0.0
 11
86.02621820298195
 21
-24.24624852398883
 31
0.0
  0
LINE
  5
D6
330
1F
100
AcDbEntity
  8
0
100
AcDbLine
 10
85.49901045129438
 20
-22.97345641967643
 30
0.0
 11
85.56034395906751
 21
-23.43933066359101
 31
0.0
  0
LINE
  5
D7
330
1F
100
AcDbEntity
  8
0
100
AcDbLine
 10
85.56034395906751
 20
-22.50758217576186
 30
0.0
 11
85.49901045129438
 21
-22.97345641967643
 31
0.0
  0
LINE
  5
D8
330
1F
100
AcDbEntity
  8
0
100
AcDbLine
 10
85.74016470519032
 20
-22.07345649167645
 30
0.0
 11
85.56034395906751
 21
-22.50758217576186
 31
0.0
  0
LINE
  5
D9
330
1F
100
AcDbEntity
  8
0
100
AcDbLine
 10
86.39901037929455
 20
-21.41461081757213
 30
0.0
 11
86.02621820298195
 21
-21.70066431536404
 31
0.0
  0
LINE
  5
DA
330
1F
100
AcDbEntity
  8
0
100
AcDbLine
 10
86.83313606337991
 20
-21.23479007144946
 30
0.0
 11
86.39901037929455
 21
-21.41461081757213
 31
0.0
  0
LINE
  5
DB
330
1F
100
AcDbEntity
  8
0
100
AcDbLine
 10
87.29901030729454
 20
-21.17345656367647
 30
0.0
 11
86.83313606337991
 21
-21.23479007144946
 31
0.0
  0
LINE
  5
DC
330
1F
100
AcDbEntity
  8
0
100
AcDbLine
 10
88.19901023529451
 20
-21.41461081757213
 30
0.0
 11
87.76488455120915
 21
-21.23479007144946
 31
0.0
  0
LINE
  5
DD
330
1F
100
AcDbEntity
  8
0
100
AcDbLine
 10
88.57180241160692
 20
-21.70066431536404
 30
0.0
 11
88.19901023529451
 21
-21.41461081757213
 31
0.0
  0
LINE
  5
DE
330
1F
100
AcDbEntity
  8
0
100
AcDbLine
 10
88.85785590939875
 20
-22.07345649167645
 30
0.0
 11
88.57180241160692
 21
-21.70066431536404
 31
0.0
  0
LINE
  5
DF
330
1F
100
AcDbEntity
  8
0
100
AcDbLine
 10
89.03767665552154
 20
-22.50758217576186
 30
0.0
 11
88.85785590939875
 21
-22.07345649167645
 31
0.0
  0
LINE
  5
E0
330
1F
100
AcDbEntity
  8
0
100
AcDbLine
 10
89.09901016329448
 20
-22.97345641967643
 30
0.0
 11
89.03767665552154
 21
-22.50758217576186
 31
0.0
  0
LINE
  5
E1
330
1F
100
AcDbEntity
  8
0
100
AcDbLine
 10
89.03767665552154
 20
-23.43933066359101
 30
0.0
 11
89.09901016329448
 21
-22.97345641967643
 31
0.0
  0
LINE
  5
E2
330
1F
100
AcDbEntity
  8
0
100
AcDbLine
 10
88.85785590939875
 20
-23.87345634767642
 30
0.0
 11
89.03767665552154
 21
-23.43933066359101
 31
0.0
  0
LINE
  5
E3
330
1F
100
AcDbEntity
  8
0
100
AcDbLine
 10
88.57180241160692
 20
-24.24624852398883
 30
0.0
 11
88.85785590939875
 21
-23.87345634767642
 31
0.0
  0
LINE
  5
E4
330
1F
100
AcDbEntity
  8
0
100
AcDbLine
 10
88.19901023529451
 20
-24.53230202178074
 30
0.0
 11
88.57180241160692
 21
-24.24624852398883
 31
0.0
  0
LINE
  5
E5
330
1F
100
AcDbEntity
  8
0
100
AcDbLine
 10
40.76488831120907
 20
-24.71212276790341
 30
0.0
 11
41.19901399529443
 21
-24.53230202178074
 31
0.0
  0
LINE
  5
E6
330
1F
100
AcDbEntity
  8
0
100
AcDbLine
 10
40.29901406729427
 20
-24.7734562756764
 30
0.0
 11
40.76488831120907
 21
-24.71212276790341
 31
0.0
  0
LINE
  5
E7
330
1F
100
AcDbEntity
  8
0
100
AcDbLine
 10
39.83313982337982
 20
-24.71212276790341
 30
0.0
 11
40.29901406729427
 21
-24.7734562756764
 31
0.0
  0
LINE
  5
E8
330
1F
100
AcDbEntity
  8
0
100
AcDbLine
 10
39.02622196298187
 20
-24.24624852398883
 30
0.0
 11
39.39901413929447
 21
-24.53230202178074
 31
0.0
  0
LINE
  5
E9
330
1F
100
AcDbEntity
  8
0
100
AcDbLine
 10
38.74016846519023
 20
-23.87345634767642
 30
0.0
 11
39.02622196298187
 21
-24.24624852398883
 31
0.0
  0
LINE
  5
EA
330
1F
100
AcDbEntity
  8
0
100
AcDbLine
 10
38.56034771906743
 20
-23.43933066359101
 30
0.0
 11
38.74016846519023
 21
-23.87345634767642
 31
0.0
  0
LINE
  5
EB
330
1F
100
AcDbEntity
  8
0
100
AcDbLine
 10
38.4990142112943
 20
-22.97345641967643
 30
0.0
 11
38.56034771906743
 21
-23.43933066359101
 31
0.0
  0
LINE
  5
EC
330
1F
100
AcDbEntity
  8
0
100
AcDbLine
 10
38.56034771906743
 20
-22.50758217576186
 30
0.0
 11
38.4990142112943
 21
-22.97345641967643
 31
0.0
  0
LINE
  5
ED
330
1F
100
AcDbEntity
  8
0
100
AcDbLine
 10
38.74016846519023
 20
-22.07345649167645
 30
0.0
 11
38.56034771906743
 21
-22.50758217576186
 31
0.0
  0
LINE
  5
EE
330
1F
100
AcDbEntity
  8
0
100
AcDbLine
 10
39.02622196298187
 20
-21.70066431536404
 30
0.0
 11
38.74016846519023
 21
-22.07345649167645
 31
0.0
  0
LINE
  5
EF
330
1F
100
AcDbEntity
  8
0
100
AcDbLine
 10
39.39901413929447
 20
-21.41461081757213
 30
0.0
 11
39.02622196298187
 21
-21.70066431536404
 31
0.0
  0
LINE
  5
F0
330
1F
100
AcDbEntity
  8
0
100
AcDbLine
 10
39.83313982337982
 20
-21.23479007144946
 30
0.0
 11
39.39901413929447
 21
-21.41461081757213
 31
0.0
  0
LINE
  5
F1
330
1F
100
AcDbEntity
  8
0
100
AcDbLine
 10
40.29901406729427
 20
-21.17345656367647
 30
0.0
 11
39.83313982337982
 21
-21.23479007144946
 31
0.0
  0
LINE
  5
F2
330
1F
100
AcDbEntity
  8
0
100
AcDbLine
 10
40.76488831120907
 20
-21.23479007144946
 30
0.0
 11
40.29901406729427
 21
-21.17345656367647
 31
0.0
  0
LINE
  5
F3
330
1F
100
AcDbEntity
  8
0
100
AcDbLine
 10
41.19901399529443
 20
-21.41461081757213
 30
0.0
 11
40.76488831120907
 21
-21.23479007144946
 31
0.0
  0
LINE
  5
F4
330
1F
100
AcDbEntity
  8
0
100
AcDbLine
 10
41.57180617160665
 20
-21.70066431536404
 30
0.0
 11
41.19901399529443
 21
-21.41461081757213
 31
0.0
  0
LINE
  5
F5
330
1F
100
AcDbEntity
  8
0
100
AcDbLine
 10
41.85785966939866
 20
-22.07345649167645
 30
0.0
 11
41.57180617160665
 21
-21.70066431536404
 31
0.0
  0
LINE
  5
F6
330
1F
100
AcDbEntity
  8
0
100
AcDbLine
 10
42.03768041552146
 20
-22.50758217576186
 30
0.0
 11
41.85785966939866
 21
-22.07345649167645
 31
0.0
  0
LINE
  5
F7
330
1F
100
AcDbEntity
  8
0
100
AcDbLine
 10
42.09901392329422
 20
-22.97345641967643
 30
0.0
 11
42.03768041552146
 21
-22.50758217576186
 31
0.0
  0
LINE
  5
F8
330
1F
100
AcDbEntity
  8
0
100
AcDbLine
 10
42.03768041552146
 20
-23.43933066359101
 30
0.0
 11
42.09901392329422
 21
-22.97345641967643
 31
0.0
  0
LINE
  5
F9
330
1F
100
AcDbEntity
  8
0
100
AcDbLine
 10
41.85785966939866
 20
-23.87345634767642
 30
0.0
 11
42.03768041552146
 21
-23.43933066359101
 31
0.0
  0
LINE
  5
FA
330
1F
100
AcDbEntity
  8
0
100
AcDbLine
 10
41.19901399529443
 20
-24.53230202178074
 30
0.0
 11
41.57180617160665
 21
-24.24624852398883
 31
0.0
  0
LINE
  5
FB
330
1F
100
AcDbEntity
  8
0
100
AcDbLine
 10
50.39901325929456
 20
-20.37538041616917
 30
0.0
 11
50.36184588235749
 21
-20.37538041616921
 31
0.0
  0
LINE
  5
FC
330
1F
100
AcDbEntity
  8
0
100
AcDbLine
 10
51.08538868916666
 20
-20.07567917263136
 30
0.0
 11
50.39901325929456
 21
-20.37538041616917
 31
0.0
  0
LINE
  5
FD
330
1F
100
AcDbEntity
  8
0
100
AcDbLine
 10
51.12255606610337
 20
-20.07567917263136
 30
0.0
 11
51.08538868916666
 21
-20.07567917263136
 31
0.0
  0
LINE
  5
FE
330
1F
100
AcDbEntity
  8
0
100
AcDbLine
 10
51.86184576235752
 20
-19.97345665967642
 30
0.0
 11
51.12255606610337
 21
-20.07567917263136
 31
0.0
  0
LINE
  5
FF
330
1F
100
AcDbEntity
  8
0
100
AcDbLine
 10
51.89901313929459
 20
-19.97345665967638
 30
0.0
 11
51.86184576235752
 21
-19.97345665967642
 31
0.0
  0
LINE
  5
100
330
1F
100
AcDbEntity
  8
0
100
AcDbLine
 10
52.63830283554873
 20
-20.07567917263136
 30
0.0
 11
51.89901313929459
 21
-19.97345665967638
 31
0.0
  0
LINE
  5
101
330
1F
100
AcDbEntity
  8
0
100
AcDbLine
 10
52.67547021248544
 20
-20.07567917263136
 30
0.0
 11
52.63830283554873
 21
-20.07567917263136
 31
0.0
  0
LINE
  5
102
330
1F
100
AcDbEntity
  8
0
100
AcDbLine
 10
53.36184564235754
 20
-20.37538041616921
 30
0.0
 11
52.67547021248544
 21
-20.07567917263136
 31
0.0
  0
LINE
  5
103
330
1F
100
AcDbEntity
  8
0
100
AcDbLine
 10
53.39901301929462
 20
-20.37538041616917
 30
0.0
 11
53.36184564235754
 21
-20.37538041616921
 31
0.0
  0
LINE
  5
104
330
1F
100
AcDbEntity
  8
0
100
AcDbLine
 10
53.98316593621151
 20
-20.85213624582235
 30
0.0
 11
53.39901301929462
 21
-20.37538041616917
 31
0.0
  0
LINE
  5
105
330
1F
100
AcDbEntity
  8
0
100
AcDbLine
 10
54.45992176586497
 20
-21.47345653967641
 30
0.0
 11
53.98316593621151
 21
-20.85213624582235
 31
0.0
  0
LINE
  5
106
330
1F
100
AcDbEntity
  8
0
100
AcDbLine
 10
54.75962300940272
 20
-22.19699934648544
 30
0.0
 11
54.45992176586497
 21
-21.47345653967641
 31
0.0
  0
LINE
  5
107
330
1F
100
AcDbEntity
  8
0
100
AcDbLine
 10
54.86184552235758
 20
-22.97345641967643
 30
0.0
 11
54.75962300940272
 21
-22.19699934648544
 31
0.0
  0
LINE
  5
108
330
1F
100
AcDbEntity
  8
0
100
AcDbLine
 10
54.75962300940272
 20
-23.74991349286742
 30
0.0
 11
54.86184552235758
 21
-22.97345641967643
 31
0.0
  0
LINE
  5
109
330
1F
100
AcDbEntity
  8
0
100
AcDbLine
 10
54.45992176586497
 20
-24.47345629967646
 30
0.0
 11
54.75962300940272
 21
-23.74991349286742
 31
0.0
  0
LINE
  5
10A
330
1F
100
AcDbEntity
  8
0
100
AcDbLine
 10
53.36184564235754
 20
-25.5715324231837
 30
0.0
 11
53.98316593621151
 21
-25.09477659353051
 31
0.0
  0
LINE
  5
10B
330
1F
100
AcDbEntity
  8
0
100
AcDbLine
 10
52.63830283554873
 20
-25.8712336667215
 30
0.0
 11
53.36184564235754
 21
-25.5715324231837
 31
0.0
  0
LINE
  5
10C
330
1F
100
AcDbEntity
  8
0
100
AcDbLine
 10
51.86184576235752
 20
-25.97345617967649
 30
0.0
 11
52.63830283554873
 21
-25.8712336667215
 31
0.0
  0
LINE
  5
10D
330
1F
100
AcDbEntity
  8
0
100
AcDbLine
 10
51.08538868916666
 20
-25.8712336667215
 30
0.0
 11
51.86184576235752
 21
-25.97345617967649
 31
0.0
  0
LINE
  5
10E
330
1F
100
AcDbEntity
  8
0
100
AcDbLine
 10
50.36184588235749
 20
-25.5715324231837
 30
0.0
 11
51.08538868916666
 21
-25.8712336667215
 31
0.0
  0
LINE
  5
10F
330
1F
100
AcDbEntity
  8
0
100
AcDbLine
 10
49.74052558850353
 20
-25.09477659353047
 30
0.0
 11
50.36184588235749
 21
-25.5715324231837
 31
0.0
  0
LINE
  5
110
330
1F
100
AcDbEntity
  8
0
100
AcDbLine
 10
49.26376975885043
 20
-24.47345629967646
 30
0.0
 11
49.74052558850353
 21
-25.09477659353047
 31
0.0
  0
LINE
  5
111
330
1F
100
AcDbEntity
  8
0
100
AcDbLine
 10
48.96406851531267
 20
-23.74991349286742
 30
0.0
 11
49.26376975885043
 21
-24.47345629967646
 31
0.0
  0
LINE
  5
112
330
1F
100
AcDbEntity
  8
0
100
AcDbLine
 10
48.96406851531267
 20
-22.19699934648544
 30
0.0
 11
48.86184600235746
 21
-22.97345641967643
 31
0.0
  0
LINE
  5
113
330
1F
100
AcDbEntity
  8
0
100
AcDbLine
 10
49.74052558850353
 20
-20.85213624582235
 30
0.0
 11
49.26376975885043
 21
-21.47345653967641
 31
0.0
  0
LINE
  5
114
330
1F
100
AcDbEntity
  8
0
100
AcDbLine
 10
49.7776929654406
 20
-20.85213624582235
 30
0.0
 11
49.74052558850353
 21
-20.85213624582235
 31
0.0
  0
LINE
  5
115
330
1F
100
AcDbEntity
  8
0
100
AcDbLine
 10
50.36184588235749
 20
-20.37538041616921
 30
0.0
 11
49.7776929654406
 21
-20.85213624582235
 31
0.0
  0
LINE
  5
116
330
1F
100
AcDbEntity
  8
0
100
AcDbLine
 10
-6.341688513160212
 20
72.75201956463722
 30
0.0
 11
-6.134581748542224
 21
72.91093817452162
 31
0.0
  0
LINE
  5
117
330
1F
100
AcDbEntity
  8
0
100
AcDbLine
 10
-6.500607123044517
 20
72.54491280001923
 30
0.0
 11
-6.341688513160212
 21
72.75201956463722
 31
0.0
  0
LINE
  5
118
330
1F
100
AcDbEntity
  8
0
100
AcDbLine
 10
-6.600507537557224
 20
72.30373186441626
 30
0.0
 11
-6.500607123044517
 21
72.54491280001923
 31
0.0
  0
LINE
  5
119
330
1F
100
AcDbEntity
  8
0
100
AcDbLine
 10
-6.634581708542114
 20
72.04491284001925
 30
0.0
 11
-6.600507537557224
 21
72.30373186441626
 31
0.0
  0
LINE
  5
11A
330
1F
100
AcDbEntity
  8
0
100
AcDbLine
 10
15.61700332096751
 20
55.45624767979056
 30
0.0
 11
16.08287756488213
 21
55.39491417201751
 31
0.0
  0
LINE
  5
11B
330
1F
100
AcDbEntity
  8
0
100
AcDbLine
 10
15.18287763688215
 20
55.63606842591317
 30
0.0
 11
15.61700332096751
 21
55.45624767979056
 31
0.0
  0
LINE
  5
11C
330
1F
100
AcDbEntity
  8
0
100
AcDbLine
 10
14.81008546056974
 20
55.92212192370509
 30
0.0
 11
15.18287763688215
 21
55.63606842591317
 31
0.0
  0
LINE
  5
11D
330
1F
100
AcDbEntity
  8
0
100
AcDbLine
 10
14.52403196277792
 20
56.29491410001749
 30
0.0
 11
14.81008546056974
 21
55.92212192370509
 31
0.0
  0
LINE
  5
11E
330
1F
100
AcDbEntity
  8
0
100
AcDbLine
 10
-84.70257716570333
 20
36.53461979305067
 30
0.0
 11
-83.64141916567567
 21
36.39491569201215
 31
0.0
  0
LINE
  5
11F
330
1F
100
AcDbEntity
  8
0
100
AcDbLine
 10
-85.69141900167563
 20
36.94421149255226
 30
0.0
 11
-84.70257716570333
 21
36.53461979305067
 31
0.0
  0
LINE
  5
120
330
1F
100
AcDbEntity
  8
0
100
AcDbLine
 10
-87.60171473663691
 20
39.43375736398453
 30
0.0
 11
-87.1921230371355
 21
38.44491552801215
 31
0.0
  0
LINE
  5
121
330
1F
100
AcDbEntity
  8
0
100
AcDbLine
 10
-32.64142324567471
 20
0.5449185600120378
 30
0.0
 11
-88.64141876567537
 21
0.5449185600120378
 31
0.0
  0
LINE
  5
122
330
1F
100
AcDbEntity
  8
0
100
AcDbLine
 10
-32.64142324567471
 20
80.44491216801252
 30
0.0
 11
-32.64142324567471
 21
0.5449185600120378
 31
0.0
  0
LINE
  5
123
330
1F
100
AcDbEntity
  8
0
100
AcDbLine
 10
44.64142228567589
 20
13.94491748801201
 30
0.0
 11
44.64142228567589
 21
7.144918032011979
 31
0.0
  0
LINE
  5
124
330
1F
100
AcDbEntity
  8
0
100
AcDbLine
 10
79.84141946967551
 20
13.94491748801232
 30
0.0
 11
79.84141946967551
 21
7.344918016012294
 31
0.0
  0
LINE
  5
125
330
1F
100
AcDbEntity
  8
0
100
AcDbLine
 10
59.95369648468829
 20
7.144918032011979
 30
0.0
 11
59.95369648468829
 21
13.94491748801201
 31
0.0
  0
LINE
  5
126
330
1F
100
AcDbEntity
  8
0
100
AcDbLine
 10
44.60171817663653
 20
39.43375736398453
 30
0.0
 11
44.74142227767496
 21
40.49491536401219
 31
0.0
  0
LINE
  5
127
330
1F
100
AcDbEntity
  8
0
100
AcDbLine
 10
86.84141890967577
 20
13.94491748801232
 30
0.0
 11
79.84141946967551
 21
13.94491748801232
 31
0.0
  0
LINE
  5
128
330
1F
100
AcDbEntity
  8
0
100
AcDbLine
 10
-62.50853904281387
 20
-64.8449134160124
 30
0.0
 11
-65.22081424982666
 21
-64.8449134160124
 31
0.0
  0
LINE
  5
129
330
1F
100
AcDbEntity
  8
0
100
AcDbLine
 10
86.84141890967577
 20
7.344918016012294
 30
0.0
 11
86.84141890967577
 21
13.94491748801232
 31
0.0
  0
LINE
  5
12A
330
1F
100
AcDbEntity
  8
0
100
AcDbLine
 10
-19.50045496045598
 20
55.45624767979218
 30
0.0
 11
-19.03458071654136
 21
55.39491417201923
 31
0.0
  0
LINE
  5
12B
330
1F
100
AcDbEntity
  8
0
100
AcDbLine
 10
-19.03458071654136
 20
21.9949168440189
 30
0.0
 11
-18.56870647262674
 21
22.05625035179189
 31
0.0
  0
LINE
  5
12C
330
1F
100
AcDbEntity
  8
0
100
AcDbLine
 10
-19.50045496045598
 20
22.05625035179189
 30
0.0
 11
-19.03458071654136
 21
21.9949168440189
 31
0.0
  0
LINE
  5
12D
330
1F
100
AcDbEntity
  8
0
100
AcDbLine
 10
-19.93458064454152
 20
22.23607109791455
 30
0.0
 11
-19.50045496045598
 21
22.05625035179189
 31
0.0
  0
LINE
  5
12E
330
1F
100
AcDbEntity
  8
0
100
AcDbLine
 10
-20.59342631864575
 20
22.89491677201892
 30
0.0
 11
-20.30737282085375
 21
22.52212459570651
 31
0.0
  0
LINE
  5
12F
330
1F
100
AcDbEntity
  8
0
100
AcDbLine
 10
-20.83458057254132
 20
23.79491670001895
 30
0.0
 11
-20.77324706476838
 21
23.32904245610433
 31
0.0
  0
LINE
  5
130
330
1F
100
AcDbEntity
  8
0
100
AcDbLine
 10
21.43034646956107
 20
18.9348965538509
 30
0.0
 11
21.23936812469905
 21
18.50556232261304
 31
0.0
  0
LINE
  5
131
330
1F
100
AcDbEntity
  8
0
100
AcDbLine
 10
24.54699668103655
 20
18.85433661275281
 30
0.0
 11
24.27067150250119
 21
19.23439582659479
 31
0.0
  0
LINE
  5
132
330
1F
100
AcDbEntity
  8
0
100
AcDbLine
 10
-73.4898986370575
 20
-24.90722953535635
 30
0.0
 11
-74.1112189309118
 21
-25.38398536500954
 31
0.0
  0
LINE
  5
133
330
1F
100
AcDbEntity
  8
0
100
AcDbLine
 10
-71.21344168386659
 20
-24.60752829181855
 30
0.0
 11
-71.98989875705745
 21
-24.50530577886356
 31
0.0
  0
LINE
  5
134
330
1F
100
AcDbEntity
  8
0
100
AcDbLine
 10
-50.84142178967483
 20
67.0449132400125
 30
0.0
 11
-50.84142178967483
 21
73.84491269601246
 31
0.0
  0
LINE
  5
135
330
1F
100
AcDbEntity
  8
0
100
AcDbLine
 10
-69.44142030167501
 20
7.144918032012069
 30
0.0
 11
-79.8414194696756
 21
7.144918032012069
 31
0.0
  0
LINE
  5
136
330
1F
100
AcDbEntity
  8
0
100
AcDbLine
 10
-79.8414194696756
 20
7.144918032012069
 30
0.0
 11
-79.8414194696756
 21
13.9449174880121
 31
0.0
  0
LINE
  5
137
330
1F
100
AcDbEntity
  8
0
100
AcDbLine
 10
-79.8414194696756
 20
13.9449174880121
 30
0.0
 11
-69.44142030167501
 21
13.9449174880121
 31
0.0
  0
LINE
  5
138
330
1F
100
AcDbEntity
  8
0
100
AcDbLine
 10
14.34421121665512
 20
56.72903978410286
 30
0.0
 11
14.52403196277792
 21
56.29491410001749
 31
0.0
  0
LINE
  5
139
330
1F
100
AcDbEntity
  8
0
100
AcDbLine
 10
14.28287770888217
 20
57.19491402801748
 30
0.0
 11
14.34421121665512
 21
56.72903978410286
 31
0.0
  0
LINE
  5
13A
330
1F
100
AcDbEntity
  8
0
100
AcDbLine
 10
14.34421121665512
 20
57.6607882719321
 30
0.0
 11
14.28287770888217
 21
57.19491402801748
 31
0.0
  0
LINE
  5
13B
330
1F
100
AcDbEntity
  8
0
100
AcDbLine
 10
14.52403196277792
 20
58.09491395601746
 30
0.0
 11
14.34421121665512
 21
57.6607882719321
 31
0.0
  0
LINE
  5
13C
330
1F
100
AcDbEntity
  8
0
100
AcDbLine
 10
14.81008546056974
 20
58.46770613232987
 30
0.0
 11
14.52403196277792
 21
58.09491395601746
 31
0.0
  0
LINE
  5
13D
330
1F
100
AcDbEntity
  8
0
100
AcDbLine
 10
15.18287763688215
 20
58.75375963012178
 30
0.0
 11
14.81008546056974
 21
58.46770613232987
 31
0.0
  0
LINE
  5
13E
330
1F
100
AcDbEntity
  8
0
100
AcDbLine
 10
15.61700332096751
 20
58.9335803762444
 30
0.0
 11
15.18287763688215
 21
58.75375963012178
 31
0.0
  0
LINE
  5
13F
330
1F
100
AcDbEntity
  8
0
100
AcDbLine
 10
16.08287756488213
 20
58.99491388401744
 30
0.0
 11
15.61700332096751
 21
58.9335803762444
 31
0.0
  0
LINE
  5
140
330
1F
100
AcDbEntity
  8
0
100
AcDbLine
 10
16.46266524012006
 20
58.94491388801944
 30
0.0
 11
16.08287756488213
 21
58.99491388401744
 31
0.0
  0
LINE
  5
141
330
1F
100
AcDbEntity
  8
0
100
AcDbLine
 10
-77.620813257827
 20
-44.64491503201231
 30
0.0
 11
-77.58673908684192
 21
-44.3860960076153
 31
0.0
  0
LINE
  5
142
330
1F
100
AcDbEntity
  8
0
100
AcDbLine
 10
-77.620813257827
 20
-44.64491503201231
 30
0.0
 11
-77.620813257827
 21
-50.24491458401234
 31
0.0
  0
LINE
  5
143
330
1F
100
AcDbEntity
  8
0
100
AcDbLine
 10
-65.22081424982666
 20
-64.8449134160124
 30
0.0
 11
-65.22081424982666
 21
-58.24491394401238
 31
0.0
  0
LINE
  5
144
330
1F
100
AcDbEntity
  8
0
100
AcDbLine
 10
-43.70736460853733
 20
-23.00530589886358
 30
0.0
 11
-49.48990055705615
 21
-23.00530589886358
 31
0.0
  0
LINE
  5
145
330
1F
100
AcDbEntity
  8
0
100
AcDbLine
 10
24.544159430173
 20
63.85953395564201
 30
0.0
 11
24.26658482554433
 21
64.23868161709316
 31
0.0
  0
LINE
  5
146
330
1F
100
AcDbEntity
  8
0
100
AcDbLine
 10
24.26658482554433
 20
64.23868161709316
 30
0.0
 11
23.90033771052189
 21
64.53306854115142
 31
0.0
  0
LINE
  5
147
330
1F
100
AcDbEntity
  8
0
100
AcDbLine
 10
23.90033771052189
 20
64.53306854115142
 30
0.0
 11
23.47037722074242
 21
64.72263274543931
 31
0.0
  0
LINE
  5
148
330
1F
100
AcDbEntity
  8
0
100
AcDbLine
 10
23.47037722074242
 20
64.72263274543931
 30
0.0
 11
23.00600445304102
 21
64.79445574270444
 31
0.0
  0
LINE
  5
149
330
1F
100
AcDbEntity
  8
0
100
AcDbLine
 10
17.35566966919453
 20
22.52212459570547
 30
0.0
 11
17.64172316698635
 21
22.89491677201788
 31
0.0
  0
LINE
  5
14A
330
1F
100
AcDbEntity
  8
0
100
AcDbLine
 10
-72.60142628185405
 20
-70.84491293601248
 30
0.0
 11
-72.12467045220096
 21
-71.46623322986648
 31
0.0
  0
LINE
  5
14B
330
1F
100
AcDbEntity
  8
0
100
AcDbLine
 10
-72.90112752539181
 20
-70.12137012920344
 30
0.0
 11
-72.60142628185405
 21
-70.84491293601248
 31
0.0
  0
LINE
  5
14C
330
1F
100
AcDbEntity
  8
0
100
AcDbLine
 10
-73.00335003834702
 20
-69.34491305601244
 30
0.0
 11
-72.90112752539181
 21
-70.12137012920344
 31
0.0
  0
LINE
  5
14D
330
1F
100
AcDbEntity
  8
0
100
AcDbLine
 10
-72.90112752539181
 20
-68.56845598282146
 30
0.0
 11
-73.00335003834702
 21
-69.34491305601244
 31
0.0
  0
LINE
  5
14E
330
1F
100
AcDbEntity
  8
0
100
AcDbLine
 10
-72.60142628185405
 20
-67.84491317601241
 30
0.0
 11
-72.90112752539181
 21
-68.56845598282146
 31
0.0
  0
LINE
  5
14F
330
1F
100
AcDbEntity
  8
0
100
AcDbLine
 10
-72.12467045220096
 20
-67.22359288215837
 30
0.0
 11
-72.60142628185405
 21
-67.84491317601241
 31
0.0
  0
LINE
  5
150
330
1F
100
AcDbEntity
  8
0
100
AcDbLine
 10
-68.50335039834694
 20
-71.94298905951972
 30
0.0
 11
-67.88203010449261
 21
-71.46623322986652
 31
0.0
  0
LINE
  5
151
330
1F
100
AcDbEntity
  8
0
100
AcDbLine
 10
-69.22689320515575
 20
-72.24269030305751
 30
0.0
 11
-68.50335039834694
 21
-71.94298905951972
 31
0.0
  0
LINE
  5
152
330
1F
100
AcDbEntity
  8
0
100
AcDbLine
 10
-70.77980735153783
 20
-72.24269030305751
 30
0.0
 11
-70.00335027834697
 21
-72.34491281601251
 31
0.0
  0
LINE
  5
153
330
1F
100
AcDbEntity
  8
0
100
AcDbLine
 10
-71.50335015834699
 20
-71.94298905951972
 30
0.0
 11
-70.77980735153783
 21
-72.24269030305751
 31
0.0
  0
LINE
  5
154
330
1F
100
AcDbEntity
  8
0
100
AcDbLine
 10
-72.12467045220096
 20
-71.46623322986648
 30
0.0
 11
-71.50335015834699
 21
-71.94298905951972
 31
0.0
  0
LINE
  5
155
330
1F
100
AcDbEntity
  8
0
100
AcDbLine
 10
-30.6208170178266
 20
-50.24491458401234
 30
0.0
 11
-38.62081637782645
 21
-50.24491458401234
 31
0.0
  0
LINE
  5
156
330
1F
100
AcDbEntity
  8
0
100
AcDbLine
 10
-36.06302207825687
 20
63.86015948224325
 30
0.0
 11
-36.34074690252666
 21
64.239197121935
 31
0.0
  0
LINE
  5
157
330
1F
100
AcDbEntity
  8
0
100
AcDbLine
 10
-64.6290621070221
 20
-38.10530469086372
 30
0.0
 11
-64.52916169250958
 21
-37.8641237552607
 31
0.0
  0
LINE
  5
158
330
1F
100
AcDbEntity
  8
0
100
AcDbLine
 10
-69.60736253653752
 20
-2.805307514863485
 30
0.0
 11
-69.64143670752259
 21
-2.546488490466472
 31
0.0
  0
LINE
  5
159
330
1F
100
AcDbEntity
  8
0
100
AcDbLine
 10
-82.70736148853757
 20
-29.06415114096801
 30
0.0
 11
-82.33456931222533
 21
-28.77809764317606
 31
0.0
  0
LINE
  5
15A
330
1F
100
AcDbEntity
  8
0
100
AcDbLine
 10
23.90539531329104
 20
19.52998661791754
 30
0.0
 11
23.47606108205322
 21
19.72096496277934
 31
0.0
  0
LINE
  5
15B
330
1F
100
AcDbEntity
  8
0
100
AcDbLine
 10
21.23769674203942
 20
63.49987486130258
 30
0.0
 11
21.16587374477429
 21
63.03550209360117
 31
0.0
  0
LINE
  5
15C
330
1F
100
AcDbEntity
  8
0
100
AcDbLine
 10
-20.59342631864575
 20
58.09491395601935
 30
0.0
 11
-20.77324706476838
 21
57.66078827193382
 31
0.0
  0
LINE
  5
15D
330
1F
100
AcDbEntity
  8
0
100
AcDbLine
 10
24.71414527381614
 20
63.42146384335445
 30
0.0
 11
24.544159430173
 21
63.85953395564201
 31
0.0
  0
LINE
  5
15E
330
1F
100
AcDbEntity
  8
0
100
AcDbLine
 10
-19.48387652508159
 20
42.54491520001909
 30
0.0
 11
-20.13544282560747
 21
43.3940529349529
 31
0.0
  0
LINE
  5
15F
330
1F
100
AcDbEntity
  8
0
100
AcDbLine
 10
22.10599647472571
 20
19.57649792159641
 30
0.0
 11
21.72593726088374
 21
19.30017274306109
 31
0.0
  0
LINE
  5
160
330
1F
100
AcDbEntity
  8
0
100
AcDbLine
 10
-28.03457999654104
 20
13.94491748801887
 30
0.0
 11
-20.7328504617988
 21
13.94491748801891
 31
0.0
  0
LINE
  5
161
330
1F
100
AcDbEntity
  8
0
100
AcDbLine
 10
-16.1331580447472
 20
67.04491324001927
 30
0.0
 11
-6.634581708541933
 21
67.04491324001927
 31
0.0
  0
LINE
  5
162
330
1F
100
AcDbEntity
  8
0
100
AcDbLine
 10
-20.30737282085375
 20
22.52212459570651
 30
0.0
 11
-19.93458064454152
 21
22.23607109791455
 31
0.0
  0
LINE
  5
163
330
1F
100
AcDbEntity
  8
0
100
AcDbLine
 10
-18.93458072454138
 20
40.49491536401919
 30
0.0
 11
-19.07428482557981
 21
41.55607336404684
 31
0.0
  0
LINE
  5
164
330
1F
100
AcDbEntity
  8
0
100
AcDbLine
 10
24.76481476202461
 20
17.94840586034032
 30
0.0
 11
24.71553974462878
 21
18.41570938373744
 31
0.0
  0
LINE
  5
165
330
1F
100
AcDbEntity
  8
0
100
AcDbLine
 10
-32.60736549653726
 20
-8.40530706686351
 30
0.0
 11
-40.6073648565373
 21
-8.40530706686351
 31
0.0
  0
LINE
  5
166
330
1F
100
AcDbEntity
  8
0
100
AcDbLine
 10
-49.60736413653748
 20
-1.80530759486348
 30
0.0
 11
-49.86618316093431
 21
-1.839381765848461
 31
0.0
  0
LINE
  5
167
330
1F
100
AcDbEntity
  8
0
100
AcDbLine
 10
-79.57328756555277
 20
-2.546488490466472
 30
0.0
 11
-79.47338715104007
 21
-2.30530755486346
 31
0.0
  0
LINE
  5
168
330
1F
100
AcDbEntity
  8
0
100
AcDbLine
 10
-73.4898986370575
 20
-30.10338154237089
 30
0.0
 11
-72.76635583024867
 21
-30.40308278590869
 31
0.0
  0
LINE
  5
169
330
1F
100
AcDbEntity
  8
0
100
AcDbLine
 10
-74.1112189309118
 20
-29.62662571271766
 30
0.0
 11
-73.4898986370575
 21
-30.10338154237089
 31
0.0
  0
LINE
  5
16A
330
1F
100
AcDbEntity
  8
0
100
AcDbLine
 10
-5.893400812938265
 20
7.978992139003911
 30
0.0
 11
-5.634581788541253
 21
7.94491796801893
 31
0.0
  0
LINE
  5
16B
330
1F
100
AcDbEntity
  8
0
100
AcDbLine
 10
27.96541552345944
 20
67.04491324001962
 30
0.0
 11
27.96541552345944
 21
13.94491748801927
 31
0.0
  0
LINE
  5
16C
330
1F
100
AcDbEntity
  8
0
100
AcDbLine
 10
27.96541552345944
 20
67.04491324001962
 30
0.0
 11
16.66541642745923
 21
67.04491324001962
 31
0.0
  0
LINE
  5
16D
330
1F
100
AcDbEntity
  8
0
100
AcDbLine
 10
-67.10557303130159
 20
-68.56845598282146
 30
0.0
 11
-67.40527427483934
 21
-67.84491317601241
 31
0.0
  0
LINE
  5
16E
330
1F
100
AcDbEntity
  8
0
100
AcDbLine
 10
-67.00335051834674
 20
-69.34491305601244
 30
0.0
 11
-67.10557303130159
 21
-68.56845598282146
 31
0.0
  0
LINE
  5
16F
330
1F
100
AcDbEntity
  8
0
100
AcDbLine
 10
-67.10557303130159
 20
-70.12137012920344
 30
0.0
 11
-67.00335051834674
 21
-69.34491305601244
 31
0.0
  0
LINE
  5
170
330
1F
100
AcDbEntity
  8
0
100
AcDbLine
 10
-67.40527427483934
 20
-70.84491293601248
 30
0.0
 11
-67.10557303130159
 21
-70.12137012920344
 31
0.0
  0
LINE
  5
171
330
1F
100
AcDbEntity
  8
0
100
AcDbLine
 10
-67.88203010449261
 20
-71.46623322986652
 30
0.0
 11
-67.40527427483934
 21
-70.84491293601248
 31
0.0
  0
LINE
  5
172
330
1F
100
AcDbEntity
  8
0
100
AcDbLine
 10
-70.48989887705743
 20
-24.90722953535635
 30
0.0
 11
-71.21344168386659
 21
-24.60752829181855
 31
0.0
  0
LINE
  5
173
330
1F
100
AcDbEntity
  8
0
100
AcDbLine
 10
-69.86857858320347
 20
-25.38398536500954
 30
0.0
 11
-70.48989887705743
 21
-24.90722953535635
 31
0.0
  0
LINE
  5
174
330
1F
100
AcDbEntity
  8
0
100
AcDbLine
 10
-69.39182275355037
 20
-26.00530565886359
 30
0.0
 11
-69.86857858320347
 21
-25.38398536500954
 31
0.0
  0
LINE
  5
175
330
1F
100
AcDbEntity
  8
0
100
AcDbLine
 10
-69.0921215100126
 20
-26.72884846567263
 30
0.0
 11
-69.39182275355037
 21
-26.00530565886359
 31
0.0
  0
LINE
  5
176
330
1F
100
AcDbEntity
  8
0
100
AcDbLine
 10
-69.0921215100126
 20
-28.28176261205461
 30
0.0
 11
-68.9898989970574
 21
-27.50530553886362
 31
0.0
  0
LINE
  5
177
330
1F
100
AcDbEntity
  8
0
100
AcDbLine
 10
-70.48989887705743
 20
-30.10338154237089
 30
0.0
 11
-69.86857858320347
 21
-29.6266257127177
 31
0.0
  0
LINE
  5
178
330
1F
100
AcDbEntity
  8
0
100
AcDbLine
 10
-17.76178861222897
 20
55.9221219237068
 30
0.0
 11
-17.47573511443697
 21
56.29491410001921
 31
0.0
  0
LINE
  5
179
330
1F
100
AcDbEntity
  8
0
100
AcDbLine
 10
16.98287749288211
 20
22.23607109791356
 30
0.0
 11
17.35566966919453
 21
22.52212459570547
 31
0.0
  0
LINE
  5
17A
330
1F
100
AcDbEntity
  8
0
100
AcDbLine
 10
16.54875180879676
 20
22.05625035179089
 30
0.0
 11
16.98287749288211
 21
22.23607109791356
 31
0.0
  0
LINE
  5
17B
330
1F
100
AcDbEntity
  8
0
100
AcDbLine
 10
16.08287756488213
 20
21.9949168440179
 30
0.0
 11
16.54875180879676
 21
22.05625035179089
 31
0.0
  0
LINE
  5
17C
330
1F
100
AcDbEntity
  8
0
100
AcDbLine
 10
-16.1672322157321
 20
72.30373186441618
 30
0.0
 11
-16.1331580447472
 21
72.04491284001917
 31
0.0
  0
LINE
  5
17D
330
1F
100
AcDbEntity
  8
0
100
AcDbLine
 10
-16.26713263024481
 20
72.54491280001915
 30
0.0
 11
-16.1672322157321
 21
72.30373186441618
 31
0.0
  0
LINE
  5
17E
330
1F
100
AcDbEntity
  8
0
100
AcDbLine
 10
-88.64141876567537
 20
47.9840008592622
 30
0.0
 11
-88.64141876567537
 21
80.44491216801252
 31
0.0
  0
LINE
  5
17F
330
1F
100
AcDbEntity
  8
0
100
AcDbLine
 10
-26.99487596750294
 20
41.55607336404684
 30
0.0
 11
-27.13458006854137
 21
40.49491536401919
 31
0.0
  0
LINE
  5
180
330
1F
100
AcDbEntity
  8
0
100
AcDbLine
 10
-18.56870647262674
 20
25.53358304824601
 30
0.0
 11
-19.03458071654136
 21
25.594916556019
 31
0.0
  0
LINE
  5
181
330
1F
100
AcDbEntity
  8
0
100
AcDbLine
 10
-18.1345807885412
 20
25.35376230212334
 30
0.0
 11
-18.56870647262674
 21
25.53358304824601
 31
0.0
  0
LINE
  5
182
330
1F
100
AcDbEntity
  8
0
100
AcDbLine
 10
-17.76178861222897
 20
25.06770880433139
 30
0.0
 11
-18.1345807885412
 21
25.35376230212334
 31
0.0
  0
LINE
  5
183
330
1F
100
AcDbEntity
  8
0
100
AcDbLine
 10
-17.47573511443697
 20
24.69491662801897
 30
0.0
 11
-17.76178861222897
 21
25.06770880433139
 31
0.0
  0
LINE
  5
184
330
1F
100
AcDbEntity
  8
0
100
AcDbLine
 10
-17.29591436831435
 20
24.26079094393357
 30
0.0
 11
-17.47573511443697
 21
24.69491662801897
 31
0.0
  0
LINE
  5
185
330
1F
100
AcDbEntity
  8
0
100
AcDbLine
 10
-17.2345808605414
 20
23.79491670001895
 30
0.0
 11
-17.29591436831435
 21
24.26079094393357
 31
0.0
  0
LINE
  5
186
330
1F
100
AcDbEntity
  8
0
100
AcDbLine
 10
-17.29591436831435
 20
23.32904245610433
 30
0.0
 11
-17.2345808605414
 21
23.79491670001895
 31
0.0
  0
LINE
  5
187
330
1F
100
AcDbEntity
  8
0
100
AcDbLine
 10
-17.47573511443697
 20
22.89491677201892
 30
0.0
 11
-17.29591436831435
 21
23.32904245610433
 31
0.0
  0
LINE
  5
188
330
1F
100
AcDbEntity
  8
0
100
AcDbLine
 10
-17.76178861222897
 20
22.52212459570651
 30
0.0
 11
-17.47573511443697
 21
22.89491677201892
 31
0.0
  0
LINE
  5
189
330
1F
100
AcDbEntity
  8
0
100
AcDbLine
 10
-18.56870647262674
 20
22.05625035179189
 30
0.0
 11
-18.13458078854138
 21
22.23607109791455
 31
0.0
  0
LINE
  5
18A
330
1F
100
AcDbEntity
  8
0
100
AcDbLine
 10
-19.48387652508159
 20
38.44491552801905
 30
0.0
 11
-19.07428482557981
 21
39.43375736399152
 31
0.0
  0
LINE
  5
18B
330
1F
100
AcDbEntity
  8
0
100
AcDbLine
 10
-17.29591436831435
 20
57.66078827193382
 30
0.0
 11
-17.47573511443697
 21
58.09491395601918
 31
0.0
  0
LINE
  5
18C
330
1F
100
AcDbEntity
  8
0
100
AcDbLine
 10
11.08287796488198
 20
65.49490321287799
 30
0.0
 11
11.08287796488252
 21
15.49492751516016
 31
0.0
  0
LINE
  5
18D
330
1F
100
AcDbEntity
  8
0
100
AcDbLine
 10
-31.03457975654146
 20
44.98400109926909
 30
0.0
 11
-28.03457999654104
 21
47.98400085926915
 31
0.0
  0
LINE
  5
18E
330
1F
100
AcDbEntity
  8
0
100
AcDbLine
 10
-20.98458056054147
 20
36.94421149255912
 30
0.0
 11
-20.13544282560747
 21
37.59577779308523
 31
0.0
  0
LINE
  5
18F
330
1F
100
AcDbEntity
  8
0
100
AcDbLine
 10
23.39196620279411
 20
61.24618421366278
 30
0.0
 11
23.83003631508168
 21
61.41617005730573
 31
0.0
  0
LINE
  5
190
330
1F
100
AcDbEntity
  8
0
100
AcDbLine
 10
-19.93458064454152
 20
55.6360684259148
 30
0.0
 11
-19.50045496045598
 21
55.45624767979218
 31
0.0
  0
LINE
  5
191
330
1F
100
AcDbEntity
  8
0
100
AcDbLine
 10
0.0828838409963331
 20
15.49492751516043
 30
0.0
 11
0.0828838409959721
 21
65.49490321287799
 31
0.0
  0
LINE
  5
192
330
1F
100
AcDbEntity
  8
0
100
AcDbLine
 10
-37.74133968203574
 20
-38.10530469086372
 30
0.0
 11
-37.90025829192023
 21
-38.3124114554817
 31
0.0
  0
LINE
  5
193
330
1F
100
AcDbEntity
  8
0
100
AcDbLine
 10
-48.32792238244451
 20
-43.9378083073943
 30
0.0
 11
-48.48684099232899
 21
-44.14491507201229
 31
0.0
  0
LINE
  5
194
330
1F
100
AcDbEntity
  8
0
100
AcDbLine
 10
88.36831090991427
 20
17.48713418244219
 30
0.0
 11
88.44089239887258
 21
17.95138900231953
 31
0.0
  0
LINE
  5
195
330
1F
100
AcDbEntity
  8
0
100
AcDbLine
 10
21.66016034441738
 20
16.7554385014436
 30
0.0
 11
22.02543653362753
 21
16.45984771012084
 31
0.0
  0
LINE
  5
196
330
1F
100
AcDbEntity
  8
0
100
AcDbLine
 10
21.38383516588202
 20
17.13549771528557
 30
0.0
 11
21.66016034441738
 21
16.7554385014436
 31
0.0
  0
LINE
  5
197
330
1F
100
AcDbEntity
  8
0
100
AcDbLine
 10
21.2152921022898
 20
17.57412494430094
 30
0.0
 11
21.38383516588202
 21
17.13549771528557
 31
0.0
  0
LINE
  5
198
330
1F
100
AcDbEntity
  8
0
100
AcDbLine
 10
-20.77324706476838
 20
57.66078827193382
 30
0.0
 11
-20.83458057254132
 21
57.19491402801919
 31
0.0
  0
LINE
  5
199
330
1F
100
AcDbEntity
  8
0
100
AcDbLine
 10
-19.93458064454134
 20
58.75375963012359
 30
0.0
 11
-20.30737282085375
 21
58.46770613233176
 31
0.0
  0
LINE
  5
19A
330
1F
100
AcDbEntity
  8
0
100
AcDbLine
 10
-19.50045496045598
 20
58.9335803762462
 30
0.0
 11
-19.93458064454134
 21
58.75375963012359
 31
0.0
  0
LINE
  5
19B
330
1F
100
AcDbEntity
  8
0
100
AcDbLine
 10
-17.2345808605414
 20
57.19491402801919
 30
0.0
 11
-17.29591436831435
 21
57.66078827193382
 31
0.0
  0
LINE
  5
19C
330
1F
100
AcDbEntity
  8
0
100
AcDbLine
 10
-50.31447086115535
 20
-2.098200790245473
 30
0.0
 11
-50.47338947103984
 21
-2.30530755486346
 31
0.0
  0
LINE
  5
19D
330
1F
100
AcDbEntity
  8
0
100
AcDbLine
 10
44.17554804176091
 20
25.78358302823792
 30
0.0
 11
43.74142235767555
 21
25.60376228211526
 31
0.0
  0
LINE
  5
19E
330
1F
100
AcDbEntity
  8
0
100
AcDbLine
 10
43.08257668357096
 20
24.94491660801089
 30
0.0
 11
42.90275593744851
 21
24.51079092392548
 31
0.0
  0
LINE
  5
19F
330
1F
100
AcDbEntity
  8
0
100
AcDbLine
 10
-50.84142178967483
 20
73.84491269601246
 30
0.0
 11
-40.44142262167479
 21
73.84491269601246
 31
0.0
  0
LINE
  5
1A0
330
1F
100
AcDbEntity
  8
0
100
AcDbLine
 10
-40.44142262167479
 20
73.84491269601246
 30
0.0
 11
-40.44142262167479
 21
67.0449132400124
 31
0.0
  0
LINE
  5
1A1
330
1F
100
AcDbEntity
  8
0
100
AcDbLine
 10
-40.44142262167479
 20
67.0449132400124
 30
0.0
 11
-50.84142178967483
 21
67.0449132400125
 31
0.0
  0
LINE
  5
1A2
330
1F
100
AcDbEntity
  8
0
100
AcDbLine
 10
-40.6073648565373
 20
-2.805307514863485
 30
0.0
 11
-40.6073648565373
 21
-8.40530706686351
 31
0.0
  0
LINE
  5
1A3
330
1F
100
AcDbEntity
  8
0
100
AcDbLine
 10
-40.6073648565373
 20
-2.805307514863485
 30
0.0
 11
-40.64143902752237
 21
-2.546488490466472
 31
0.0
  0
LINE
  5
1A4
330
1F
100
AcDbEntity
  8
0
100
AcDbLine
 10
-40.7413394420349
 20
-2.30530755486346
 30
0.0
 11
-40.90025805191939
 21
-2.098200790245473
 31
0.0
  0
LINE
  5
1A5
330
1F
100
AcDbEntity
  8
0
100
AcDbLine
 10
-49.60736413653748
 20
-1.80530759486348
 30
0.0
 11
-41.60736477653744
 21
-1.80530759486348
 31
0.0
  0
LINE
  5
1A6
330
1F
100
AcDbEntity
  8
0
100
AcDbLine
 10
-50.10736409653737
 20
-1.939282180361078
 30
0.0
 11
-50.31447086115535
 21
-2.098200790245473
 31
0.0
  0
LINE
  5
1A7
330
1F
100
AcDbEntity
  8
0
100
AcDbLine
 10
-50.47338947103984
 20
-2.30530755486346
 30
0.0
 11
-50.57328988555237
 21
-2.546488490466472
 31
0.0
  0
LINE
  5
1A8
330
1F
100
AcDbEntity
  8
0
100
AcDbLine
 10
-50.60736405653744
 20
-2.805307514863485
 30
0.0
 11
-50.60736405653744
 21
-8.40530706686351
 31
0.0
  0
LINE
  5
1A9
330
1F
100
AcDbEntity
  8
0
100
AcDbLine
 10
-69.7413371220353
 20
-2.30530755486346
 30
0.0
 11
-69.9002557319198
 21
-2.098200790245473
 31
0.0
  0
LINE
  5
1AA
330
1F
100
AcDbEntity
  8
0
100
AcDbLine
 10
-70.10736249653777
 20
-1.939282180361078
 30
0.0
 11
-70.34854343214083
 21
-1.839381765848461
 31
0.0
  0
LINE
  5
1AB
330
1F
100
AcDbEntity
  8
0
100
AcDbLine
 10
-70.34854343214083
 20
-1.839381765848461
 30
0.0
 11
-70.60736245653767
 21
-1.80530759486348
 31
0.0
  0
LINE
  5
1AC
330
1F
100
AcDbEntity
  8
0
100
AcDbLine
 10
-78.8661808409349
 20
-1.839381765848461
 30
0.0
 11
-78.6073618165377
 21
-1.80530759486348
 31
0.0
  0
LINE
  5
1AD
330
1F
100
AcDbEntity
  8
0
100
AcDbLine
 10
-79.31446854115558
 20
-2.098200790245473
 30
0.0
 11
-79.10736177653759
 21
-1.939282180361078
 31
0.0
  0
LINE
  5
1AE
330
1F
100
AcDbEntity
  8
0
100
AcDbLine
 10
-6.634581708541933
 20
67.04491324001927
 30
0.0
 11
-6.634581708542114
 21
72.04491284001925
 31
0.0
  0
LINE
  5
1AF
330
1F
100
AcDbEntity
  8
0
100
AcDbLine
 10
-16.1331580447472
 20
72.04491284001917
 30
0.0
 11
-16.1331580447472
 21
67.04491324001927
 31
0.0
  0
LINE
  5
1B0
330
1F
100
AcDbEntity
  8
0
100
AcDbLine
 10
-16.42605124012911
 20
72.75201956463712
 30
0.0
 11
-16.26713263024481
 21
72.54491280001915
 31
0.0
  0
LINE
  5
1B1
330
1F
100
AcDbEntity
  8
0
100
AcDbLine
 10
-16.6331580047471
 20
72.91093817452162
 30
0.0
 11
-16.42605124012911
 21
72.75201956463712
 31
0.0
  0
LINE
  5
1B2
330
1F
100
AcDbEntity
  8
0
100
AcDbLine
 10
-16.87433894035015
 20
73.01083858903414
 30
0.0
 11
-16.6331580047471
 21
72.91093817452162
 31
0.0
  0
LINE
  5
1B3
330
1F
100
AcDbEntity
  8
0
100
AcDbLine
 10
-71.98989875705745
 20
-30.50530529886368
 30
0.0
 11
-71.21344168386659
 21
-30.40308278590869
 31
0.0
  0
LINE
  5
1B4
330
1F
100
AcDbEntity
  8
0
100
AcDbLine
 10
-72.76635583024867
 20
-30.40308278590869
 30
0.0
 11
-71.98989875705745
 21
-30.50530529886368
 31
0.0
  0
LINE
  5
1B5
330
1F
100
AcDbEntity
  8
0
100
AcDbLine
 10
43.74142235767555
 20
25.60376228211526
 30
0.0
 11
43.36863018136295
 21
25.3177087843233
 31
0.0
  0
LINE
  5
1B6
330
1F
100
AcDbEntity
  8
0
100
AcDbLine
 10
74.75888096709886
 20
15.49492751515335
 30
0.0
 11
63.75888684321268
 21
15.49492751515362
 31
0.0
  0
LINE
  5
1B7
330
1F
100
AcDbEntity
  8
0
100
AcDbLine
 10
36.54142293367497
 20
40.49491536401219
 30
0.0
 11
36.68112703471341
 21
39.43375736398453
 31
0.0
  0
LINE
  5
1B8
330
1F
100
AcDbEntity
  8
0
100
AcDbLine
 10
79.84141946967551
 20
67.0449132400125
 30
0.0
 11
79.84141946967551
 21
73.84491269601254
 31
0.0
  0
LINE
  5
1B9
330
1F
100
AcDbEntity
  8
0
100
AcDbLine
 10
43.36863018136259
 20
55.67212194369972
 30
0.0
 11
43.74142235767483
 21
55.38606844590781
 31
0.0
  0
LINE
  5
1BA
330
1F
100
AcDbEntity
  8
0
100
AcDbLine
 10
42.69142244167488
 20
36.94421149255226
 30
0.0
 11
43.54056017660888
 21
37.59577779307833
 31
0.0
  0
LINE
  5
1BB
330
1F
100
AcDbEntity
  8
0
100
AcDbLine
 10
44.17554804176036
 20
58.68358039623922
 30
0.0
 11
43.74142235767501
 21
58.50375965011661
 31
0.0
  0
LINE
  5
1BC
330
1F
100
AcDbEntity
  8
0
100
AcDbLine
 10
43.54056017660888
 20
37.59577779307833
 30
0.0
 11
44.19212647713476
 21
38.44491552801215
 31
0.0
  0
LINE
  5
1BD
330
1F
100
AcDbEntity
  8
0
100
AcDbLine
 10
87.88508438505197
 20
61.69364660187368
 30
0.0
 11
88.1795001847152
 21
62.05987050500866
 31
0.0
  0
LINE
  5
1BE
330
1F
100
AcDbEntity
  8
0
100
AcDbLine
 10
79.84141946967551
 20
7.344918016012294
 30
0.0
 11
86.84141890967577
 21
7.344918016012294
 31
0.0
  0
LINE
  5
1BF
330
1F
100
AcDbEntity
  8
0
100
AcDbLine
 10
-36.12081657782737
 20
-80.31093758251492
 30
0.0
 11
-36.36199751343042
 21
-80.41083799702754
 31
0.0
  0
LINE
  5
1C0
330
1F
100
AcDbEntity
  8
0
100
AcDbLine
 10
-62.50853904281387
 20
-79.44491224801251
 30
0.0
 11
-62.50853904281387
 21
-64.8449134160124
 31
0.0
  0
LINE
  5
1C1
330
1F
100
AcDbEntity
  8
0
100
AcDbLine
 10
-81.80736156053777
 20
-27.50530553886362
 30
0.0
 11
-81.86869506831053
 21
-27.039431294949
 31
0.0
  0
LINE
  5
1C2
330
1F
100
AcDbEntity
  8
0
100
AcDbLine
 10
78.84141954967573
 20
25.55376228612059
 30
0.0
 11
78.46862737336332
 21
25.26770878832868
 31
0.0
  0
LINE
  5
1C3
330
1F
100
AcDbEntity
  8
0
100
AcDbLine
 10
78.46862737336332
 20
25.26770878832868
 30
0.0
 11
78.1825738755715
 21
24.89491661201631
 31
0.0
  0
LINE
  5
1C4
330
1F
100
AcDbEntity
  8
0
100
AcDbLine
 10
78.1825738755715
 20
24.89491661201631
 30
0.0
 11
78.00275312944869
 21
24.46079092793091
 31
0.0
  0
LINE
  5
1C5
330
1F
100
AcDbEntity
  8
0
100
AcDbLine
 10
78.00275312944869
 20
24.46079092793091
 30
0.0
 11
77.94141962167575
 21
23.99491668401633
 31
0.0
  0
LINE
  5
1C6
330
1F
100
AcDbEntity
  8
0
100
AcDbLine
 10
77.94141962167575
 20
23.99491668401633
 30
0.0
 11
78.00275312944869
 21
23.52904244010175
 31
0.0
  0
LINE
  5
1C7
330
1F
100
AcDbEntity
  8
0
100
AcDbLine
 10
78.00275312944869
 20
23.52904244010175
 30
0.0
 11
78.18257387557132
 21
23.09491675601635
 31
0.0
  0
LINE
  5
1C8
330
1F
100
AcDbEntity
  8
0
100
AcDbLine
 10
78.18257387557132
 20
23.09491675601635
 30
0.0
 11
78.46862737336332
 21
22.72212457970394
 31
0.0
  0
LINE
  5
1C9
330
1F
100
AcDbEntity
  8
0
100
AcDbLine
 10
78.46862737336332
 20
22.72212457970394
 30
0.0
 11
78.84141954967573
 21
22.43607108191203
 31
0.0
  0
LINE
  5
1CA
330
1F
100
AcDbEntity
  8
0
100
AcDbLine
 10
78.84141954967573
 20
22.43607108191203
 30
0.0
 11
79.2755452337611
 21
22.25625033578932
 31
0.0
  0
LINE
  5
1CB
330
1F
100
AcDbEntity
  8
0
100
AcDbLine
 10
-20.43574553985665
 20
8.237533096063737
 30
0.0
 11
-20.22868984908613
 21
8.078761475303494
 31
0.0
  0
LINE
  5
1CC
330
1F
100
AcDbEntity
  8
0
100
AcDbLine
 10
-20.22868984908613
 20
8.078761475303494
 30
0.0
 11
-19.98760937354976
 21
7.978958214061625
 31
0.0
  0
LINE
  5
1CD
330
1F
100
AcDbEntity
  8
0
100
AcDbLine
 10
-19.98760937354976
 20
7.978958214061625
 30
0.0
 11
-19.72891699196777
 21
7.944917968018705
 31
0.0
  0
LINE
  5
1CE
330
1F
100
AcDbEntity
  8
0
100
AcDbLine
 10
16.37252323207733
 20
72.75201956463758
 30
0.0
 11
16.16541646745934
 21
72.91093817452197
 31
0.0
  0
LINE
  5
1CF
330
1F
100
AcDbEntity
  8
0
100
AcDbLine
 10
16.54875180879676
 20
55.45624767979056
 30
0.0
 11
16.98287749288211
 21
55.63606842591317
 31
0.0
  0
LINE
  5
1D0
330
1F
100
AcDbEntity
  8
0
100
AcDbLine
 10
16.08287756488213
 20
55.39491417201751
 30
0.0
 11
16.54875180879676
 21
55.45624767979056
 31
0.0
  0
LINE
  5
1D1
330
1F
100
AcDbEntity
  8
0
100
AcDbLine
 10
-19.07428482557981
 20
41.55607336404684
 30
0.0
 11
-19.48387652508159
 21
42.54491520001909
 31
0.0
  0
LINE
  5
1D2
330
1F
100
AcDbEntity
  8
0
100
AcDbLine
 10
-19.07428482557981
 20
39.43375736399152
 30
0.0
 11
-18.93458072454138
 21
40.49491536401919
 31
0.0
  0
LINE
  5
1D3
330
1F
100
AcDbEntity
  8
0
100
AcDbLine
 10
-20.13544282560747
 20
37.59577779308523
 30
0.0
 11
-19.48387652508159
 21
38.44491552801905
 31
0.0
  0
LINE
  5
1D4
330
1F
100
AcDbEntity
  8
0
100
AcDbLine
 10
16.66541642745923
 20
72.04491284001952
 30
0.0
 11
16.63134225647434
 21
72.30373186441653
 31
0.0
  0
LINE
  5
1D5
330
1F
100
AcDbEntity
  8
0
100
AcDbLine
 10
16.63134225647434
 20
72.30373186441653
 30
0.0
 11
16.53144184196164
 21
72.5449128000195
 31
0.0
  0
LINE
  5
1D6
330
1F
100
AcDbEntity
  8
0
100
AcDbLine
 10
16.53144184196164
 20
72.5449128000195
 30
0.0
 11
16.37252323207733
 21
72.75201956463758
 31
0.0
  0
LINE
  5
1D7
330
1F
100
AcDbEntity
  8
0
100
AcDbLine
 10
16.16541646745934
 20
72.91093817452197
 30
0.0
 11
15.92423553185629
 21
73.01083858903449
 31
0.0
  0
LINE
  5
1D8
330
1F
100
AcDbEntity
  8
0
100
AcDbLine
 10
15.92423553185629
 20
73.01083858903449
 30
0.0
 11
15.66541650745927
 21
73.04491276001957
 31
0.0
  0
LINE
  5
1D9
330
1F
100
AcDbEntity
  8
0
100
AcDbLine
 10
-5.634581788542155
 20
73.0449127600193
 30
0.0
 11
15.66541650745927
 21
73.04491276001957
 31
0.0
  0
LINE
  5
1DA
330
1F
100
AcDbEntity
  8
0
100
AcDbLine
 10
-5.893400812939167
 20
73.01083858903422
 30
0.0
 11
-5.634581788542155
 21
73.0449127600193
 31
0.0
  0
LINE
  5
1DB
330
1F
100
AcDbEntity
  8
0
100
AcDbLine
 10
-6.134581748542224
 20
72.91093817452162
 30
0.0
 11
-5.893400812939167
 21
73.01083858903422
 31
0.0
  0
LINE
  5
1DC
330
1F
100
AcDbEntity
  8
0
100
AcDbLine
 10
-71.50335015834699
 20
-66.74683705250519
 30
0.0
 11
-72.12467045220096
 21
-67.22359288215837
 31
0.0
  0
LINE
  5
1DD
330
1F
100
AcDbEntity
  8
0
100
AcDbLine
 10
-70.77980735153783
 20
-66.44713580896737
 30
0.0
 11
-71.50335015834699
 21
-66.74683705250519
 31
0.0
  0
LINE
  5
1DE
330
1F
100
AcDbEntity
  8
0
100
AcDbLine
 10
-70.00335027834697
 20
-66.3449132960124
 30
0.0
 11
-70.77980735153783
 21
-66.44713580896737
 31
0.0
  0
LINE
  5
1DF
330
1F
100
AcDbEntity
  8
0
100
AcDbLine
 10
-63.00853900281372
 20
-80.31093758251492
 30
0.0
 11
-62.80143223819574
 21
-80.15201897263053
 31
0.0
  0
LINE
  5
1E0
330
1F
100
AcDbEntity
  8
0
100
AcDbLine
 10
-71.98989875705745
 20
-24.50530577886356
 30
0.0
 11
-72.76635583024867
 21
-24.60752829181855
 31
0.0
  0
LINE
  5
1E1
330
1F
100
AcDbEntity
  8
0
100
AcDbLine
 10
-77.58673908684192
 20
-44.3860960076153
 30
0.0
 11
-77.48683867232957
 21
-44.14491507201229
 31
0.0
  0
LINE
  5
1E2
330
1F
100
AcDbEntity
  8
0
100
AcDbLine
 10
16.98287749288211
 20
58.75375963012178
 30
0.0
 11
16.46266524012006
 21
58.94491388801944
 31
0.0
  0
LINE
  5
1E3
330
1F
100
AcDbEntity
  8
0
100
AcDbLine
 10
17.35566966919453
 20
58.46770613232987
 30
0.0
 11
16.98287749288211
 21
58.75375963012178
 31
0.0
  0
LINE
  5
1E4
330
1F
100
AcDbEntity
  8
0
100
AcDbLine
 10
17.64172316698635
 20
58.09491395601746
 30
0.0
 11
17.35566966919453
 21
58.46770613232987
 31
0.0
  0
LINE
  5
1E5
330
1F
100
AcDbEntity
  8
0
100
AcDbLine
 10
17.82154391310915
 20
57.6607882719321
 30
0.0
 11
17.64172316698635
 21
58.09491395601746
 31
0.0
  0
LINE
  5
1E6
330
1F
100
AcDbEntity
  8
0
100
AcDbLine
 10
17.8828774208821
 20
57.19491402801748
 30
0.0
 11
17.82154391310915
 21
57.6607882719321
 31
0.0
  0
LINE
  5
1E7
330
1F
100
AcDbEntity
  8
0
100
AcDbLine
 10
17.82154391310915
 20
56.72903978410286
 30
0.0
 11
17.8828774208821
 21
57.19491402801748
 31
0.0
  0
LINE
  5
1E8
330
1F
100
AcDbEntity
  8
0
100
AcDbLine
 10
17.64172316698635
 20
56.29491410001749
 30
0.0
 11
17.82154391310915
 21
56.72903978410286
 31
0.0
  0
LINE
  5
1E9
330
1F
100
AcDbEntity
  8
0
100
AcDbLine
 10
17.35566966919453
 20
55.92212192370509
 30
0.0
 11
17.64172316698635
 21
56.29491410001749
 31
0.0
  0
LINE
  5
1EA
330
1F
100
AcDbEntity
  8
0
100
AcDbLine
 10
16.98287749288211
 20
55.63606842591317
 30
0.0
 11
17.35566966919453
 21
55.92212192370509
 31
0.0
  0
LINE
  5
1EB
330
1F
100
AcDbEntity
  8
0
100
AcDbLine
 10
-88.64141876567537
 20
0.5449185600120378
 30
0.0
 11
-88.64141876567537
 21
33.00582986876181
 31
0.0
  0
LINE
  5
1EC
330
1F
100
AcDbEntity
  8
0
100
AcDbLine
 10
-88.64141876567537
 20
80.44491216801252
 30
0.0
 11
-32.64142324567471
 21
80.44491216801252
 31
0.0
  0
LINE
  5
1ED
330
1F
100
AcDbEntity
  8
0
100
AcDbLine
 10
-91.64141852567579
 20
44.98400109926219
 30
0.0
 11
-88.64141876567537
 21
47.9840008592622
 31
0.0
  0
LINE
  5
1EE
330
1F
100
AcDbEntity
  8
0
100
AcDbLine
 10
-91.64141852567579
 20
44.98400109926219
 30
0.0
 11
-91.64141852567579
 21
36.00582962876188
 31
0.0
  0
LINE
  5
1EF
330
1F
100
AcDbEntity
  8
0
100
AcDbLine
 10
-91.64141852567579
 20
36.00582962876188
 30
0.0
 11
-88.64141876567537
 21
33.00582986876181
 31
0.0
  0
LINE
  5
1F0
330
1F
100
AcDbEntity
  8
0
100
AcDbLine
 10
-79.6811235947141
 20
41.55607336403985
 30
0.0
 11
-80.09071529421551
 21
42.5449152000121
 31
0.0
  0
LINE
  5
1F1
330
1F
100
AcDbEntity
  8
0
100
AcDbLine
 10
-79.54141949367549
 20
40.49491536401219
 30
0.0
 11
-79.6811235947141
 21
41.55607336403985
 31
0.0
  0
LINE
  5
1F2
330
1F
100
AcDbEntity
  8
0
100
AcDbLine
 10
-79.6811235947141
 20
39.43375736398453
 30
0.0
 11
-79.54141949367549
 21
40.49491536401219
 31
0.0
  0
LINE
  5
1F3
330
1F
100
AcDbEntity
  8
0
100
AcDbLine
 10
-82.580261165648
 20
36.53461979305067
 30
0.0
 11
-81.59141932967539
 21
36.94421149255226
 31
0.0
  0
LINE
  5
1F4
330
1F
100
AcDbEntity
  8
0
100
AcDbLine
 10
-83.64141916567567
 20
36.39491569201215
 30
0.0
 11
-82.580261165648
 21
36.53461979305067
 31
0.0
  0
LINE
  5
1F5
330
1F
100
AcDbEntity
  8
0
100
AcDbLine
 10
-86.54055673660926
 20
37.59577779307833
 30
0.0
 11
-85.69141900167563
 21
36.94421149255226
 31
0.0
  0
LINE
  5
1F6
330
1F
100
AcDbEntity
  8
0
100
AcDbLine
 10
-87.1921230371355
 20
38.44491552801215
 30
0.0
 11
-86.54055673660926
 21
37.59577779307833
 31
0.0
  0
LINE
  5
1F7
330
1F
100
AcDbEntity
  8
0
100
AcDbLine
 10
-87.74141883767552
 20
40.49491536401219
 30
0.0
 11
-87.60171473663691
 21
39.43375736398453
 31
0.0
  0
LINE
  5
1F8
330
1F
100
AcDbEntity
  8
0
100
AcDbLine
 10
-87.60171473663691
 20
41.55607336403985
 30
0.0
 11
-87.74141883767552
 21
40.49491536401219
 31
0.0
  0
LINE
  5
1F9
330
1F
100
AcDbEntity
  8
0
100
AcDbLine
 10
-87.1921230371355
 20
42.5449152000121
 30
0.0
 11
-87.60171473663691
 21
41.55607336403985
 31
0.0
  0
LINE
  5
1FA
330
1F
100
AcDbEntity
  8
0
100
AcDbLine
 10
-86.54055673660926
 20
43.39405293494591
 30
0.0
 11
-87.1921230371355
 21
42.5449152000121
 31
0.0
  0
LINE
  5
1FB
330
1F
100
AcDbEntity
  8
0
100
AcDbLine
 10
-85.69141900167563
 20
44.04561923547193
 30
0.0
 11
-86.54055673660926
 21
43.39405293494591
 31
0.0
  0
LINE
  5
1FC
330
1F
100
AcDbEntity
  8
0
100
AcDbLine
 10
-84.70257716570333
 20
44.45521093497353
 30
0.0
 11
-85.69141900167563
 21
44.04561923547193
 31
0.0
  0
LINE
  5
1FD
330
1F
100
AcDbEntity
  8
0
100
AcDbLine
 10
-83.64141916567567
 20
44.59491503601214
 30
0.0
 11
-84.70257716570333
 21
44.45521093497353
 31
0.0
  0
LINE
  5
1FE
330
1F
100
AcDbEntity
  8
0
100
AcDbLine
 10
-82.580261165648
 20
44.45521093497353
 30
0.0
 11
-83.64141916567567
 21
44.59491503601214
 31
0.0
  0
LINE
  5
1FF
330
1F
100
AcDbEntity
  8
0
100
AcDbLine
 10
-81.59141932967539
 20
44.04561923547193
 30
0.0
 11
-82.580261165648
 21
44.45521093497353
 31
0.0
  0
LINE
  5
200
330
1F
100
AcDbEntity
  8
0
100
AcDbLine
 10
-80.74228159474175
 20
43.39405293494591
 30
0.0
 11
-81.59141932967539
 21
44.04561923547193
 31
0.0
  0
LINE
  5
201
330
1F
100
AcDbEntity
  8
0
100
AcDbLine
 10
-80.09071529421551
 20
42.5449152000121
 30
0.0
 11
-80.74228159474175
 21
43.39405293494591
 31
0.0
  0
LINE
  5
202
330
1F
100
AcDbEntity
  8
0
100
AcDbLine
 10
-50.84142178967483
 20
13.9449174880121
 30
0.0
 11
-40.44142262167479
 21
13.9449174880121
 31
0.0
  0
LINE
  5
203
330
1F
100
AcDbEntity
  8
0
100
AcDbLine
 10
-40.44142262167479
 20
13.9449174880121
 30
0.0
 11
-40.44142262167479
 21
7.144918032012069
 31
0.0
  0
LINE
  5
204
330
1F
100
AcDbEntity
  8
0
100
AcDbLine
 10
-40.44142262167479
 20
7.144918032012069
 30
0.0
 11
-50.84142178967483
 21
7.144918032012069
 31
0.0
  0
LINE
  5
205
330
1F
100
AcDbEntity
  8
0
100
AcDbLine
 10
-69.44142030167501
 20
67.0449132400124
 30
0.0
 11
-69.44142030167501
 21
73.84491269601246
 31
0.0
  0
LINE
  5
206
330
1F
100
AcDbEntity
  8
0
100
AcDbLine
 10
-69.44142030167501
 20
67.0449132400124
 30
0.0
 11
-79.8414194696756
 21
67.0449132400124
 31
0.0
  0
LINE
  5
207
330
1F
100
AcDbEntity
  8
0
100
AcDbLine
 10
-79.8414194696756
 20
67.0449132400124
 30
0.0
 11
-79.8414194696756
 21
73.84491269601246
 31
0.0
  0
LINE
  5
208
330
1F
100
AcDbEntity
  8
0
100
AcDbLine
 10
-79.8414194696756
 20
73.84491269601246
 30
0.0
 11
-69.44142030167501
 21
73.84491269601246
 31
0.0
  0
LINE
  5
209
330
1F
100
AcDbEntity
  8
0
100
AcDbLine
 10
-81.20026508777968
 20
56.04491412001223
 30
0.0
 11
-80.91421158998804
 21
55.67212194369981
 31
0.0
  0
LINE
  5
20A
330
1F
100
AcDbEntity
  8
0
100
AcDbLine
 10
-81.38008583390248
 20
56.47903980409758
 30
0.0
 11
-81.20026508777968
 21
56.04491412001223
 31
0.0
  0
LINE
  5
20B
330
1F
100
AcDbEntity
  8
0
100
AcDbLine
 10
-81.44141934167561
 20
56.94491404801222
 30
0.0
 11
-81.38008583390248
 21
56.47903980409758
 31
0.0
  0
LINE
  5
20C
330
1F
100
AcDbEntity
  8
0
100
AcDbLine
 10
-81.38008583390248
 20
57.41078829192683
 30
0.0
 11
-81.44141934167561
 21
56.94491404801222
 31
0.0
  0
LINE
  5
20D
330
1F
100
AcDbEntity
  8
0
100
AcDbLine
 10
-81.20026508777968
 20
57.84491397601219
 30
0.0
 11
-81.38008583390248
 21
57.41078829192683
 31
0.0
  0
LINE
  5
20E
330
1F
100
AcDbEntity
  8
0
100
AcDbLine
 10
-80.91421158998804
 20
58.2177061523246
 30
0.0
 11
-81.20026508777968
 21
57.84491397601219
 31
0.0
  0
LINE
  5
20F
330
1F
100
AcDbEntity
  8
0
100
AcDbLine
 10
-80.54141941367546
 20
58.50375965011652
 30
0.0
 11
-80.91421158998804
 21
58.2177061523246
 31
0.0
  0
LINE
  5
210
330
1F
100
AcDbEntity
  8
0
100
AcDbLine
 10
-80.10729372959008
 20
58.68358039623914
 30
0.0
 11
-80.54141941367546
 21
58.50375965011652
 31
0.0
  0
LINE
  5
211
330
1F
100
AcDbEntity
  8
0
100
AcDbLine
 10
-79.64141948567566
 20
58.74491390401217
 30
0.0
 11
-80.10729372959008
 21
58.68358039623914
 31
0.0
  0
LINE
  5
212
330
1F
100
AcDbEntity
  8
0
100
AcDbLine
 10
-79.17554524176084
 20
58.68358039623914
 30
0.0
 11
-79.64141948567566
 21
58.74491390401217
 31
0.0
  0
LINE
  5
213
330
1F
100
AcDbEntity
  8
0
100
AcDbLine
 10
-78.74141955767548
 20
58.50375965011652
 30
0.0
 11
-79.17554524176084
 21
58.68358039623914
 31
0.0
  0
LINE
  5
214
330
1F
100
AcDbEntity
  8
0
100
AcDbLine
 10
-78.36862738136325
 20
58.2177061523246
 30
0.0
 11
-78.74141955767548
 21
58.50375965011652
 31
0.0
  0
LINE
  5
215
330
1F
100
AcDbEntity
  8
0
100
AcDbLine
 10
-78.08257388357126
 20
57.84491397601219
 30
0.0
 11
-78.36862738136325
 21
58.2177061523246
 31
0.0
  0
LINE
  5
216
330
1F
100
AcDbEntity
  8
0
100
AcDbLine
 10
-77.90275313744844
 20
57.41078829192683
 30
0.0
 11
-78.08257388357126
 21
57.84491397601219
 31
0.0
  0
LINE
  5
217
330
1F
100
AcDbEntity
  8
0
100
AcDbLine
 10
-77.84141962967568
 20
56.94491404801222
 30
0.0
 11
-77.90275313744844
 21
57.41078829192683
 31
0.0
  0
LINE
  5
218
330
1F
100
AcDbEntity
  8
0
100
AcDbLine
 10
-77.90275313744844
 20
56.47903980409758
 30
0.0
 11
-77.84141962967568
 21
56.94491404801222
 31
0.0
  0
LINE
  5
219
330
1F
100
AcDbEntity
  8
0
100
AcDbLine
 10
-78.08257388357126
 20
56.04491412001223
 30
0.0
 11
-77.90275313744844
 21
56.47903980409758
 31
0.0
  0
LINE
  5
21A
330
1F
100
AcDbEntity
  8
0
100
AcDbLine
 10
-80.10729372959008
 20
55.20624769978529
 30
0.0
 11
-79.64141948567566
 21
55.14491419201225
 31
0.0
  0
LINE
  5
21B
330
1F
100
AcDbEntity
  8
0
100
AcDbLine
 10
-80.54141941367546
 20
55.3860684459079
 30
0.0
 11
-80.10729372959008
 21
55.20624769978529
 31
0.0
  0
LINE
  5
21C
330
1F
100
AcDbEntity
  8
0
100
AcDbLine
 10
-39.38998303349366
 20
62.56767036491459
 30
0.0
 11
-39.21982361309269
 21
62.12966764578192
 31
0.0
  0
LINE
  5
21D
330
1F
100
AcDbEntity
  8
0
100
AcDbLine
 10
-39.44098096672696
 20
63.03478900201297
 30
0.0
 11
-39.38998303349366
 21
62.56767036491459
 31
0.0
  0
LINE
  5
21E
330
1F
100
AcDbEntity
  8
0
100
AcDbLine
 10
-39.36934198792105
 20
63.49919019390897
 30
0.0
 11
-39.44098096672696
 21
63.03478900201297
 31
0.0
  0
LINE
  5
21F
330
1F
100
AcDbEntity
  8
0
100
AcDbLine
 10
-39.17994817509231
 20
63.92922576683402
 30
0.0
 11
-39.36934198792105
 21
63.49919019390897
 31
0.0
  0
LINE
  5
220
330
1F
100
AcDbEntity
  8
0
100
AcDbLine
 10
-38.88570640359719
 20
64.2955895071607
 30
0.0
 11
-39.17994817509231
 21
63.92922576683402
 31
0.0
  0
LINE
  5
221
330
1F
100
AcDbEntity
  8
0
100
AcDbLine
 10
-38.50666876390562
 20
64.5733143314305
 30
0.0
 11
-38.88570640359719
 21
64.2955895071607
 31
0.0
  0
LINE
  5
222
330
1F
100
AcDbEntity
  8
0
100
AcDbLine
 10
-38.06866604477285
 20
64.74347375183129
 30
0.0
 11
-38.50666876390562
 21
64.5733143314305
 31
0.0
  0
LINE
  5
223
330
1F
100
AcDbEntity
  8
0
100
AcDbLine
 10
-37.13714621577857
 20
64.72283270625869
 30
0.0
 11
-37.60154740767449
 21
64.79447168506468
 31
0.0
  0
LINE
  5
224
330
1F
100
AcDbEntity
  8
0
100
AcDbLine
 10
-36.70711064285352
 20
64.53343889343012
 30
0.0
 11
-37.13714621577857
 21
64.72283270625869
 31
0.0
  0
LINE
  5
225
330
1F
100
AcDbEntity
  8
0
100
AcDbLine
 10
-36.34074690252666
 20
64.239197121935
 30
0.0
 11
-36.70711064285352
 21
64.53343889343012
 31
0.0
  0
LINE
  5
226
330
1F
100
AcDbEntity
  8
0
100
AcDbLine
 10
-35.89286265785625
 20
63.42215676311058
 30
0.0
 11
-36.06302207825687
 21
63.86015948224325
 31
0.0
  0
LINE
  5
227
330
1F
100
AcDbEntity
  8
0
100
AcDbLine
 10
-35.84186472462277
 20
62.95503812601221
 30
0.0
 11
-35.89286265785625
 21
63.42215676311058
 31
0.0
  0
LINE
  5
228
330
1F
100
AcDbEntity
  8
0
100
AcDbLine
 10
-35.91350370342885
 20
62.4906369341162
 30
0.0
 11
-35.84186472462277
 21
62.95503812601221
 31
0.0
  0
LINE
  5
229
330
1F
100
AcDbEntity
  8
0
100
AcDbLine
 10
-36.10289751625724
 20
62.06060136119115
 30
0.0
 11
-35.91350370342885
 21
62.4906369341162
 31
0.0
  0
LINE
  5
22A
330
1F
100
AcDbEntity
  8
0
100
AcDbLine
 10
-36.39713928775236
 20
61.69423762086447
 30
0.0
 11
-36.10289751625724
 21
62.06060136119115
 31
0.0
  0
LINE
  5
22B
330
1F
100
AcDbEntity
  8
0
100
AcDbLine
 10
-36.77617692744411
 20
61.41651279659467
 30
0.0
 11
-36.39713928775236
 21
61.69423762086447
 31
0.0
  0
LINE
  5
22C
330
1F
100
AcDbEntity
  8
0
100
AcDbLine
 10
-37.21417964657687
 20
61.24635337619388
 30
0.0
 11
-36.77617692744411
 21
61.41651279659467
 31
0.0
  0
LINE
  5
22D
330
1F
100
AcDbEntity
  8
0
100
AcDbLine
 10
-37.68129828367524
 20
61.1953554429605
 30
0.0
 11
-37.21417964657687
 21
61.24635337619388
 31
0.0
  0
LINE
  5
22E
330
1F
100
AcDbEntity
  8
0
100
AcDbLine
 10
-38.14569947557116
 20
61.26699442176648
 30
0.0
 11
-37.68129828367524
 21
61.1953554429605
 31
0.0
  0
LINE
  5
22F
330
1F
100
AcDbEntity
  8
0
100
AcDbLine
 10
-38.57573504849621
 20
61.45638823459505
 30
0.0
 11
-38.14569947557116
 21
61.26699442176648
 31
0.0
  0
LINE
  5
230
330
1F
100
AcDbEntity
  8
0
100
AcDbLine
 10
-38.94209878882289
 20
61.75063000609018
 30
0.0
 11
-38.57573504849621
 21
61.45638823459505
 31
0.0
  0
LINE
  5
231
330
1F
100
AcDbEntity
  8
0
100
AcDbLine
 10
-39.21982361309269
 20
62.12966764578192
 30
0.0
 11
-38.94209878882289
 21
61.75063000609018
 31
0.0
  0
LINE
  5
232
330
1F
100
AcDbEntity
  8
0
100
AcDbLine
 10
-81.20026508777968
 20
24.94491660801211
 30
0.0
 11
-81.38008583390248
 21
24.5107909239267
 31
0.0
  0
LINE
  5
233
330
1F
100
AcDbEntity
  8
0
100
AcDbLine
 10
-80.91421158998804
 20
25.31770878432452
 30
0.0
 11
-81.20026508777968
 21
24.94491660801211
 31
0.0
  0
LINE
  5
234
330
1F
100
AcDbEntity
  8
0
100
AcDbLine
 10
-80.54141941367546
 20
25.60376228211643
 30
0.0
 11
-80.91421158998804
 21
25.31770878432452
 31
0.0
  0
LINE
  5
235
330
1F
100
AcDbEntity
  8
0
100
AcDbLine
 10
-80.10729372959008
 20
25.78358302823909
 30
0.0
 11
-80.54141941367546
 21
25.60376228211643
 31
0.0
  0
LINE
  5
236
330
1F
100
AcDbEntity
  8
0
100
AcDbLine
 10
-79.64141948567566
 20
25.84491653601209
 30
0.0
 11
-80.10729372959008
 21
25.78358302823909
 31
0.0
  0
LINE
  5
237
330
1F
100
AcDbEntity
  8
0
100
AcDbLine
 10
-79.17554524176084
 20
25.78358302823909
 30
0.0
 11
-79.64141948567566
 21
25.84491653601209
 31
0.0
  0
LINE
  5
238
330
1F
100
AcDbEntity
  8
0
100
AcDbLine
 10
-78.74141955767548
 20
25.60376228211643
 30
0.0
 11
-79.17554524176084
 21
25.78358302823909
 31
0.0
  0
LINE
  5
239
330
1F
100
AcDbEntity
  8
0
100
AcDbLine
 10
-78.36862738136325
 20
25.31770878432452
 30
0.0
 11
-78.74141955767548
 21
25.60376228211643
 31
0.0
  0
LINE
  5
23A
330
1F
100
AcDbEntity
  8
0
100
AcDbLine
 10
-78.08257388357126
 20
24.94491660801211
 30
0.0
 11
-78.36862738136325
 21
25.31770878432452
 31
0.0
  0
LINE
  5
23B
330
1F
100
AcDbEntity
  8
0
100
AcDbLine
 10
-77.90275313744844
 20
24.5107909239267
 30
0.0
 11
-78.08257388357126
 21
24.94491660801211
 31
0.0
  0
LINE
  5
23C
330
1F
100
AcDbEntity
  8
0
100
AcDbLine
 10
-77.84141962967568
 20
24.04491668001213
 30
0.0
 11
-77.90275313744844
 21
24.5107909239267
 31
0.0
  0
LINE
  5
23D
330
1F
100
AcDbEntity
  8
0
100
AcDbLine
 10
-77.90275313744844
 20
23.57904243609755
 30
0.0
 11
-77.84141962967568
 21
24.04491668001213
 31
0.0
  0
LINE
  5
23E
330
1F
100
AcDbEntity
  8
0
100
AcDbLine
 10
-78.36862738136325
 20
22.77212457569973
 30
0.0
 11
-78.08257388357126
 21
23.14491675201214
 31
0.0
  0
LINE
  5
23F
330
1F
100
AcDbEntity
  8
0
100
AcDbLine
 10
-78.74141955767548
 20
22.48607107790782
 30
0.0
 11
-78.36862738136325
 21
22.77212457569973
 31
0.0
  0
LINE
  5
240
330
1F
100
AcDbEntity
  8
0
100
AcDbLine
 10
-79.17554524176084
 20
22.30625033178515
 30
0.0
 11
-78.74141955767548
 21
22.48607107790782
 31
0.0
  0
LINE
  5
241
330
1F
100
AcDbEntity
  8
0
100
AcDbLine
 10
-79.64141948567566
 20
22.24491682401216
 30
0.0
 11
-79.17554524176084
 21
22.30625033178515
 31
0.0
  0
LINE
  5
242
330
1F
100
AcDbEntity
  8
0
100
AcDbLine
 10
-80.10729372959008
 20
22.30625033178515
 30
0.0
 11
-79.64141948567566
 21
22.24491682401216
 31
0.0
  0
LINE
  5
243
330
1F
100
AcDbEntity
  8
0
100
AcDbLine
 10
-80.54141941367546
 20
22.48607107790782
 30
0.0
 11
-80.10729372959008
 21
22.30625033178515
 31
0.0
  0
LINE
  5
244
330
1F
100
AcDbEntity
  8
0
100
AcDbLine
 10
-80.91421158998804
 20
22.77212457569973
 30
0.0
 11
-80.54141941367546
 21
22.48607107790782
 31
0.0
  0
LINE
  5
245
330
1F
100
AcDbEntity
  8
0
100
AcDbLine
 10
-81.20026508777968
 20
23.14491675201214
 30
0.0
 11
-80.91421158998804
 21
22.77212457569973
 31
0.0
  0
LINE
  5
246
330
1F
100
AcDbEntity
  8
0
100
AcDbLine
 10
-81.38008583390248
 20
23.57904243609755
 30
0.0
 11
-81.20026508777968
 21
23.14491675201214
 31
0.0
  0
LINE
  5
247
330
1F
100
AcDbEntity
  8
0
100
AcDbLine
 10
-81.44141934167561
 20
24.04491668001213
 30
0.0
 11
-81.38008583390248
 21
23.57904243609755
 31
0.0
  0
LINE
  5
248
330
1F
100
AcDbEntity
  8
0
100
AcDbLine
 10
-81.38008583390248
 20
24.5107909239267
 30
0.0
 11
-81.44141934167561
 21
24.04491668001213
 31
0.0
  0
LINE
  5
249
330
1F
100
AcDbEntity
  8
0
100
AcDbLine
 10
-39.38998303349204
 20
18.42216036311691
 30
0.0
 11
-39.44098096672714
 21
17.95504172601868
 31
0.0
  0
LINE
  5
24A
330
1F
100
AcDbEntity
  8
0
100
AcDbLine
 10
-39.21982361308962
 20
18.86016308224895
 30
0.0
 11
-39.38998303349204
 21
18.42216036311691
 31
0.0
  0
LINE
  5
24B
330
1F
100
AcDbEntity
  8
0
100
AcDbLine
 10
-38.94209878881838
 20
19.23920072193962
 30
0.0
 11
-39.21982361308962
 21
18.86016308224895
 31
0.0
  0
LINE
  5
24C
330
1F
100
AcDbEntity
  8
0
100
AcDbLine
 10
-38.57573504849061
 20
19.53344249343338
 30
0.0
 11
-38.94209878881838
 21
19.23920072193962
 31
0.0
  0
LINE
  5
24D
330
1F
100
AcDbEntity
  8
0
100
AcDbLine
 10
-38.14569947556484
 20
19.72283630626042
 30
0.0
 11
-38.57573504849061
 21
19.53344249343338
 31
0.0
  0
LINE
  5
24E
330
1F
100
AcDbEntity
  8
0
100
AcDbLine
 10
-37.68129828366856
 20
19.79447528506465
 30
0.0
 11
-38.14569947556484
 21
19.72283630626042
 31
0.0
  0
LINE
  5
24F
330
1F
100
AcDbEntity
  8
0
100
AcDbLine
 10
-37.21417964657037
 20
19.74347735182955
 30
0.0
 11
-37.68129828366856
 21
19.79447528506465
 31
0.0
  0
LINE
  5
250
330
1F
100
AcDbEntity
  8
0
100
AcDbLine
 10
-36.77617692743834
 20
19.57331793142708
 30
0.0
 11
-37.21417964657037
 21
19.74347735182955
 31
0.0
  0
LINE
  5
251
330
1F
100
AcDbEntity
  8
0
100
AcDbLine
 10
-36.39713928774766
 20
19.29559310715589
 30
0.0
 11
-36.77617692743834
 21
19.57331793142708
 31
0.0
  0
LINE
  5
252
330
1F
100
AcDbEntity
  8
0
100
AcDbLine
 10
-36.10289751625381
 20
18.92922936682808
 30
0.0
 11
-36.39713928774766
 21
19.29559310715589
 31
0.0
  0
LINE
  5
253
330
1F
100
AcDbEntity
  8
0
100
AcDbLine
 10
-35.91350370342668
 20
18.49919379390231
 30
0.0
 11
-36.10289751625381
 21
18.92922936682808
 31
0.0
  0
LINE
  5
254
330
1F
100
AcDbEntity
  8
0
100
AcDbLine
 10
-35.8418647246226
 20
18.03479260200608
 30
0.0
 11
-35.91350370342668
 21
18.49919379390231
 31
0.0
  0
LINE
  5
255
330
1F
100
AcDbEntity
  8
0
100
AcDbLine
 10
-35.89286265785769
 20
17.56767396490784
 30
0.0
 11
-35.8418647246226
 21
18.03479260200608
 31
0.0
  0
LINE
  5
256
330
1F
100
AcDbEntity
  8
0
100
AcDbLine
 10
-36.06302207826012
 20
17.1296712457758
 30
0.0
 11
-35.89286265785769
 21
17.56767396490784
 31
0.0
  0
LINE
  5
257
330
1F
100
AcDbEntity
  8
0
100
AcDbLine
 10
-36.34074690253135
 20
16.75063360608513
 30
0.0
 11
-36.06302207826012
 21
17.1296712457758
 31
0.0
  0
LINE
  5
258
330
1F
100
AcDbEntity
  8
0
100
AcDbLine
 10
-36.70711064285912
 20
16.45639183459137
 30
0.0
 11
-36.34074690253135
 21
16.75063360608513
 31
0.0
  0
LINE
  5
259
330
1F
100
AcDbEntity
  8
0
100
AcDbLine
 10
-37.13714621578489
 20
16.26699802176433
 30
0.0
 11
-36.70711064285912
 21
16.45639183459137
 31
0.0
  0
LINE
  5
25A
330
1F
100
AcDbEntity
  8
0
100
AcDbLine
 10
-37.60154740768117
 20
16.19535904296011
 30
0.0
 11
-37.13714621578489
 21
16.26699802176433
 31
0.0
  0
LINE
  5
25B
330
1F
100
AcDbEntity
  8
0
100
AcDbLine
 10
-38.06866604477936
 20
16.2463569761952
 30
0.0
 11
-37.60154740768117
 21
16.19535904296011
 31
0.0
  0
LINE
  5
25C
330
1F
100
AcDbEntity
  8
0
100
AcDbLine
 10
-38.50666876391139
 20
16.41651639659767
 30
0.0
 11
-38.06866604477936
 21
16.2463569761952
 31
0.0
  0
LINE
  5
25D
330
1F
100
AcDbEntity
  8
0
100
AcDbLine
 10
-38.88570640360206
 20
16.69424122086887
 30
0.0
 11
-38.50666876391139
 21
16.41651639659767
 31
0.0
  0
LINE
  5
25E
330
1F
100
AcDbEntity
  8
0
100
AcDbLine
 10
-39.17994817509592
 20
17.06060496119668
 30
0.0
 11
-38.88570640360206
 21
16.69424122086887
 31
0.0
  0
LINE
  5
25F
330
1F
100
AcDbEntity
  8
0
100
AcDbLine
 10
-39.36934198792286
 20
17.49064053412244
 30
0.0
 11
-39.17994817509592
 21
17.06060496119668
 31
0.0
  0
LINE
  5
260
330
1F
100
AcDbEntity
  8
0
100
AcDbLine
 10
-39.44098096672714
 20
17.95504172601868
 30
0.0
 11
-39.36934198792286
 21
17.49064053412244
 31
0.0
  0
LINE
  5
261
330
1F
100
AcDbEntity
  8
0
100
AcDbLine
 10
-45.44142222167476
 20
58.55375964612264
 30
0.0
 11
-45.81421439798718
 21
58.26770614833073
 31
0.0
  0
LINE
  5
262
330
1F
100
AcDbEntity
  8
0
100
AcDbLine
 10
-45.0072965375894
 20
58.73358039224526
 30
0.0
 11
-45.44142222167476
 21
58.55375964612264
 31
0.0
  0
LINE
  5
263
330
1F
100
AcDbEntity
  8
0
100
AcDbLine
 10
-44.54142229367478
 20
58.79491390001829
 30
0.0
 11
-45.0072965375894
 21
58.73358039224526
 31
0.0
  0
LINE
  5
264
330
1F
100
AcDbEntity
  8
0
100
AcDbLine
 10
-44.07554804976016
 20
58.73358039224526
 30
0.0
 11
-44.54142229367478
 21
58.79491390001829
 31
0.0
  0
LINE
  5
265
330
1F
100
AcDbEntity
  8
0
100
AcDbLine
 10
-43.6414223656748
 20
58.55375964612264
 30
0.0
 11
-44.07554804976016
 21
58.73358039224526
 31
0.0
  0
LINE
  5
266
330
1F
100
AcDbEntity
  8
0
100
AcDbLine
 10
-43.26863018936239
 20
58.26770614833073
 30
0.0
 11
-43.6414223656748
 21
58.55375964612264
 31
0.0
  0
LINE
  5
267
330
1F
100
AcDbEntity
  8
0
100
AcDbLine
 10
-42.98257669157056
 20
57.89491397201832
 30
0.0
 11
-43.26863018936239
 21
58.26770614833073
 31
0.0
  0
LINE
  5
268
330
1F
100
AcDbEntity
  8
0
100
AcDbLine
 10
-42.80275594544776
 20
57.46078828793295
 30
0.0
 11
-42.98257669157056
 21
57.89491397201832
 31
0.0
  0
LINE
  5
269
330
1F
100
AcDbEntity
  8
0
100
AcDbLine
 10
-42.74142243767482
 20
56.99491404401833
 30
0.0
 11
-42.80275594544776
 21
57.46078828793295
 31
0.0
  0
LINE
  5
26A
330
1F
100
AcDbEntity
  8
0
100
AcDbLine
 10
-42.80275594544776
 20
56.52903980010371
 30
0.0
 11
-42.74142243767482
 21
56.99491404401833
 31
0.0
  0
LINE
  5
26B
330
1F
100
AcDbEntity
  8
0
100
AcDbLine
 10
-42.98257669157056
 20
56.09491411601834
 30
0.0
 11
-42.80275594544776
 21
56.52903980010371
 31
0.0
  0
LINE
  5
26C
330
1F
100
AcDbEntity
  8
0
100
AcDbLine
 10
-43.26863018936239
 20
55.72212193970594
 30
0.0
 11
-42.98257669157056
 21
56.09491411601834
 31
0.0
  0
LINE
  5
26D
330
1F
100
AcDbEntity
  8
0
100
AcDbLine
 10
-43.6414223656748
 20
55.43606844191402
 30
0.0
 11
-43.26863018936239
 21
55.72212193970594
 31
0.0
  0
LINE
  5
26E
330
1F
100
AcDbEntity
  8
0
100
AcDbLine
 10
-44.07554804976016
 20
55.25624769579141
 30
0.0
 11
-43.6414223656748
 21
55.43606844191402
 31
0.0
  0
LINE
  5
26F
330
1F
100
AcDbEntity
  8
0
100
AcDbLine
 10
-44.54142229367478
 20
55.19491418801837
 30
0.0
 11
-44.07554804976016
 21
55.25624769579141
 31
0.0
  0
LINE
  5
270
330
1F
100
AcDbEntity
  8
0
100
AcDbLine
 10
-45.0072965375894
 20
55.25624769579141
 30
0.0
 11
-44.54142229367478
 21
55.19491418801837
 31
0.0
  0
LINE
  5
271
330
1F
100
AcDbEntity
  8
0
100
AcDbLine
 10
-45.44142222167476
 20
55.43606844191402
 30
0.0
 11
-45.0072965375894
 21
55.25624769579141
 31
0.0
  0
LINE
  5
272
330
1F
100
AcDbEntity
  8
0
100
AcDbLine
 10
-45.81421439798718
 20
55.72212193970594
 30
0.0
 11
-45.44142222167476
 21
55.43606844191402
 31
0.0
  0
LINE
  5
273
330
1F
100
AcDbEntity
  8
0
100
AcDbLine
 10
-46.100267895779
 20
56.09491411601834
 30
0.0
 11
-45.81421439798718
 21
55.72212193970594
 31
0.0
  0
LINE
  5
274
330
1F
100
AcDbEntity
  8
0
100
AcDbLine
 10
-46.2800886419018
 20
56.52903980010371
 30
0.0
 11
-46.100267895779
 21
56.09491411601834
 31
0.0
  0
LINE
  5
275
330
1F
100
AcDbEntity
  8
0
100
AcDbLine
 10
-46.34142214967475
 20
56.99491404401833
 30
0.0
 11
-46.2800886419018
 21
56.52903980010371
 31
0.0
  0
LINE
  5
276
330
1F
100
AcDbEntity
  8
0
100
AcDbLine
 10
-46.2800886419018
 20
57.46078828793295
 30
0.0
 11
-46.34142214967475
 21
56.99491404401833
 31
0.0
  0
LINE
  5
277
330
1F
100
AcDbEntity
  8
0
100
AcDbLine
 10
-46.100267895779
 20
57.89491397201832
 30
0.0
 11
-46.2800886419018
 21
57.46078828793295
 31
0.0
  0
LINE
  5
278
330
1F
100
AcDbEntity
  8
0
100
AcDbLine
 10
-45.81421439798718
 20
58.26770614833073
 30
0.0
 11
-46.100267895779
 21
57.89491397201832
 31
0.0
  0
LINE
  5
279
330
1F
100
AcDbEntity
  8
0
100
AcDbLine
 10
-45.44142222167476
 20
25.55376228612366
 30
0.0
 11
-45.81421439798718
 21
25.26770878833175
 31
0.0
  0
LINE
  5
27A
330
1F
100
AcDbEntity
  8
0
100
AcDbLine
 10
-44.54142229367478
 20
25.79491654001932
 30
0.0
 11
-45.0072965375894
 21
25.73358303224633
 31
0.0
  0
LINE
  5
27B
330
1F
100
AcDbEntity
  8
0
100
AcDbLine
 10
-44.07554804976016
 20
25.73358303224633
 30
0.0
 11
-44.54142229367478
 21
25.79491654001932
 31
0.0
  0
LINE
  5
27C
330
1F
100
AcDbEntity
  8
0
100
AcDbLine
 10
-43.6414223656748
 20
25.55376228612361
 30
0.0
 11
-44.07554804976016
 21
25.73358303224633
 31
0.0
  0
LINE
  5
27D
330
1F
100
AcDbEntity
  8
0
100
AcDbLine
 10
-43.26863018936239
 20
25.2677087883317
 30
0.0
 11
-43.6414223656748
 21
25.55376228612361
 31
0.0
  0
LINE
  5
27E
330
1F
100
AcDbEntity
  8
0
100
AcDbLine
 10
-42.98257669157039
 20
24.89491661201929
 30
0.0
 11
-43.26863018936239
 21
25.2677087883317
 31
0.0
  0
LINE
  5
27F
330
1F
100
AcDbEntity
  8
0
100
AcDbLine
 10
-42.80275594544776
 20
24.46079092793389
 30
0.0
 11
-42.98257669157039
 21
24.89491661201929
 31
0.0
  0
LINE
  5
280
330
1F
100
AcDbEntity
  8
0
100
AcDbLine
 10
-42.74142243767482
 20
23.99491668401931
 30
0.0
 11
-42.80275594544776
 21
24.46079092793389
 31
0.0
  0
LINE
  5
281
330
1F
100
AcDbEntity
  8
0
100
AcDbLine
 10
-42.80275594544776
 20
23.52904244010473
 30
0.0
 11
-42.74142243767482
 21
23.99491668401931
 31
0.0
  0
LINE
  5
282
330
1F
100
AcDbEntity
  8
0
100
AcDbLine
 10
-42.98257669157056
 20
23.09491675601933
 30
0.0
 11
-42.80275594544776
 21
23.52904244010473
 31
0.0
  0
LINE
  5
283
330
1F
100
AcDbEntity
  8
0
100
AcDbLine
 10
-43.26863018936239
 20
22.72212457970696
 30
0.0
 11
-42.98257669157056
 21
23.09491675601933
 31
0.0
  0
LINE
  5
284
330
1F
100
AcDbEntity
  8
0
100
AcDbLine
 10
-43.6414223656748
 20
22.43607108191505
 30
0.0
 11
-43.26863018936239
 21
22.72212457970696
 31
0.0
  0
LINE
  5
285
330
1F
100
AcDbEntity
  8
0
100
AcDbLine
 10
-44.07554804976016
 20
22.25625033579238
 30
0.0
 11
-43.6414223656748
 21
22.43607108191505
 31
0.0
  0
LINE
  5
286
330
1F
100
AcDbEntity
  8
0
100
AcDbLine
 10
-44.54142229367478
 20
22.19491682801939
 30
0.0
 11
-44.07554804976016
 21
22.25625033579238
 31
0.0
  0
LINE
  5
287
330
1F
100
AcDbEntity
  8
0
100
AcDbLine
 10
-45.0072965375894
 20
22.25625033579238
 30
0.0
 11
-44.54142229367478
 21
22.19491682801939
 31
0.0
  0
LINE
  5
288
330
1F
100
AcDbEntity
  8
0
100
AcDbLine
 10
-45.44142222167476
 20
22.4360710819151
 30
0.0
 11
-45.0072965375894
 21
22.25625033579238
 31
0.0
  0
LINE
  5
289
330
1F
100
AcDbEntity
  8
0
100
AcDbLine
 10
-45.81421439798718
 20
22.72212457970701
 30
0.0
 11
-45.44142222167476
 21
22.4360710819151
 31
0.0
  0
LINE
  5
28A
330
1F
100
AcDbEntity
  8
0
100
AcDbLine
 10
-46.10026789577918
 20
23.09491675601942
 30
0.0
 11
-45.81421439798718
 21
22.72212457970701
 31
0.0
  0
LINE
  5
28B
330
1F
100
AcDbEntity
  8
0
100
AcDbLine
 10
-46.2800886419018
 20
23.52904244010482
 30
0.0
 11
-46.10026789577918
 21
23.09491675601942
 31
0.0
  0
LINE
  5
28C
330
1F
100
AcDbEntity
  8
0
100
AcDbLine
 10
-46.34142214967475
 20
23.9949166840194
 30
0.0
 11
-46.2800886419018
 21
23.52904244010482
 31
0.0
  0
LINE
  5
28D
330
1F
100
AcDbEntity
  8
0
100
AcDbLine
 10
-46.2800886419018
 20
24.46079092793398
 30
0.0
 11
-46.34142214967475
 21
23.9949166840194
 31
0.0
  0
LINE
  5
28E
330
1F
100
AcDbEntity
  8
0
100
AcDbLine
 10
-46.100267895779
 20
24.89491661201938
 30
0.0
 11
-46.2800886419018
 21
24.46079092793398
 31
0.0
  0
LINE
  5
28F
330
1F
100
AcDbEntity
  8
0
100
AcDbLine
 10
-45.81421439798718
 20
25.26770878833175
 30
0.0
 11
-46.100267895779
 21
24.89491661201938
 31
0.0
  0
LINE
  5
290
330
1F
100
AcDbEntity
  8
0
100
AcDbLine
 10
-24.09573839656904
 20
44.45521093498039
 30
0.0
 11
-25.08458023254128
 21
44.04561923547879
 31
0.0
  0
LINE
  5
291
330
1F
100
AcDbEntity
  8
0
100
AcDbLine
 10
-25.08458023254128
 20
44.04561923547879
 30
0.0
 11
-25.93371796747529
 21
43.3940529349529
 31
0.0
  0
LINE
  5
292
330
1F
100
AcDbEntity
  8
0
100
AcDbLine
 10
-26.58528426800117
 20
42.54491520001909
 30
0.0
 11
-26.99487596750294
 21
41.55607336404684
 31
0.0
  0
LINE
  5
293
330
1F
100
AcDbEntity
  8
0
100
AcDbLine
 10
-77.12081329782711
 20
-43.7788896975099
 30
0.0
 11
-76.87963236222404
 21
-43.67898928299729
 31
0.0
  0
LINE
  5
294
330
1F
100
AcDbEntity
  8
0
100
AcDbLine
 10
-77.32792006244509
 20
-43.9378083073943
 30
0.0
 11
-77.12081329782711
 21
-43.7788896975099
 31
0.0
  0
LINE
  5
295
330
1F
100
AcDbEntity
  8
0
100
AcDbLine
 10
-77.48683867232957
 20
-44.14491507201229
 30
0.0
 11
-77.32792006244509
 21
-43.9378083073943
 31
0.0
  0
LINE
  5
296
330
1F
100
AcDbEntity
  8
0
100
AcDbLine
 10
-79.60736173653784
 20
-8.40530706686351
 30
0.0
 11
-87.60736109653793
 21
-8.40530706686351
 31
0.0
  0
LINE
  5
297
330
1F
100
AcDbEntity
  8
0
100
AcDbLine
 10
59.95369648468756
 20
73.84491269601217
 30
0.0
 11
59.95369648468756
 21
67.04491324001214
 31
0.0
  0
LINE
  5
298
330
1F
100
AcDbEntity
  8
0
100
AcDbLine
 10
86.84141890967577
 20
73.84491269601254
 30
0.0
 11
86.84141890967577
 21
67.0449132400125
 31
0.0
  0
LINE
  5
299
330
1F
100
AcDbEntity
  8
0
100
AcDbLine
 10
85.10479326529723
 20
18.93235039441692
 30
0.0
 11
84.91452694143699
 21
18.50270014558257
 31
0.0
  0
LINE
  5
29A
330
1F
100
AcDbEntity
  8
0
100
AcDbLine
 10
84.91452694143699
 20
18.50270014558257
 30
0.0
 11
84.8419454524787
 21
18.03844532570523
 31
0.0
  0
LINE
  5
29B
330
1F
100
AcDbEntity
  8
0
100
AcDbLine
 10
84.8419454524787
 20
18.03844532570523
 30
0.0
 11
84.89199510694817
 21
17.57122413354221
 31
0.0
  0
LINE
  5
29C
330
1F
100
AcDbEntity
  8
0
100
AcDbLine
 10
84.89199510694817
 20
17.57122413354221
 30
0.0
 11
85.06126510360426
 21
17.13287692121989
 31
0.0
  0
LINE
  5
29D
330
1F
100
AcDbEntity
  8
0
100
AcDbLine
 10
85.06126510360426
 20
17.13287692121989
 30
0.0
 11
85.33821997190702
 21
16.75327632685503
 31
0.0
  0
LINE
  5
29E
330
1F
100
AcDbEntity
  8
0
100
AcDbLine
 10
85.33821997190702
 20
16.75327632685503
 30
0.0
 11
85.70398569527113
 21
16.45829150363397
 31
0.0
  0
LINE
  5
29F
330
1F
100
AcDbEntity
  8
0
100
AcDbLine
 10
85.70398569527113
 20
16.45829150363397
 30
0.0
 11
86.13363594410544
 21
16.26802517977369
 31
0.0
  0
LINE
  5
2A0
330
1F
100
AcDbEntity
  8
0
100
AcDbLine
 10
80.6414194056755
 20
58.55375964611947
 30
0.0
 11
80.20729372159016
 21
58.7335803922422
 31
0.0
  0
LINE
  5
2A1
330
1F
100
AcDbEntity
  8
0
100
AcDbLine
 10
80.20729372159016
 20
58.7335803922422
 30
0.0
 11
79.74141947767572
 21
58.79491390001522
 31
0.0
  0
LINE
  5
2A2
330
1F
100
AcDbEntity
  8
0
100
AcDbLine
 10
79.74141947767572
 20
58.79491390001522
 30
0.0
 11
79.2755452337611
 21
58.73358039224228
 31
0.0
  0
LINE
  5
2A3
330
1F
100
AcDbEntity
  8
0
100
AcDbLine
 10
79.2755452337611
 20
58.73358039224228
 30
0.0
 11
78.84141954967555
 21
58.55375964611957
 31
0.0
  0
LINE
  5
2A4
330
1F
100
AcDbEntity
  8
0
100
AcDbLine
 10
78.84141954967555
 20
58.55375964611957
 30
0.0
 11
78.46862737336313
 21
58.26770614832775
 31
0.0
  0
LINE
  5
2A5
330
1F
100
AcDbEntity
  8
0
100
AcDbLine
 10
78.46862737336313
 20
58.26770614832775
 30
0.0
 11
78.18257387557132
 21
57.89491397201534
 31
0.0
  0
LINE
  5
2A6
330
1F
100
AcDbEntity
  8
0
100
AcDbLine
 10
78.18257387557132
 20
57.89491397201534
 30
0.0
 11
78.00275312944852
 21
57.46078828792997
 31
0.0
  0
LINE
  5
2A7
330
1F
100
AcDbEntity
  8
0
100
AcDbLine
 10
-84.5073613445379
 20
-29.06415114096801
 30
0.0
 11
-84.07323566045217
 21
-29.24397188709068
 31
0.0
  0
LINE
  5
2A8
330
1F
100
AcDbEntity
  8
0
100
AcDbLine
 10
-77.42081327382668
 20
-79.44491224801251
 30
0.0
 11
-77.3867391028416
 21
-79.70373127240953
 31
0.0
  0
LINE
  5
2A9
330
1F
100
AcDbEntity
  8
0
100
AcDbLine
 10
-49.48990055705615
 20
-32.00530517886362
 30
0.0
 11
-49.48990055705615
 21
-23.00530589886358
 31
0.0
  0
LINE
  5
2AA
330
1F
100
AcDbEntity
  8
0
100
AcDbLine
 10
-44.20736456853813
 20
-37.60530473086369
 30
0.0
 11
-44.20736456853813
 21
-32.00530517886367
 31
0.0
  0
LINE
  5
2AB
330
1F
100
AcDbEntity
  8
0
100
AcDbLine
 10
-64.4950875215245
 20
-37.60530473086369
 30
0.0
 11
-64.4950875215245
 21
-23.00530589886358
 31
0.0
  0
LINE
  5
2AC
330
1F
100
AcDbEntity
  8
0
100
AcDbLine
 10
-67.91370725320894
 20
-43.9378083073943
 30
0.0
 11
-68.12081401782693
 21
-43.7788896975099
 31
0.0
  0
LINE
  5
2AD
330
1F
100
AcDbEntity
  8
0
100
AcDbLine
 10
-33.34802459351404
 20
-68.07212095170001
 30
0.0
 11
-33.72081676982646
 21
-67.78606745390805
 31
0.0
  0
LINE
  5
2AE
330
1F
100
AcDbEntity
  8
0
100
AcDbLine
 10
-33.06197109572221
 20
-68.44491312801242
 30
0.0
 11
-33.34802459351404
 21
-68.07212095170001
 31
0.0
  0
LINE
  5
2AF
330
1F
100
AcDbEntity
  8
0
100
AcDbLine
 10
-32.88215034959942
 20
-68.87903881209783
 30
0.0
 11
-33.06197109572221
 21
-68.44491312801242
 31
0.0
  0
LINE
  5
2B0
330
1F
100
AcDbEntity
  8
0
100
AcDbLine
 10
35.64142300567531
 20
0.5449185600120378
 30
0.0
 11
35.64142300567531
 21
33.00582986876181
 31
0.0
  0
LINE
  5
2B1
330
1F
100
AcDbEntity
  8
0
100
AcDbLine
 10
91.64141852567579
 20
0.5449185600120378
 30
0.0
 11
35.64142300567531
 21
0.5449185600120378
 31
0.0
  0
LINE
  5
2B2
330
1F
100
AcDbEntity
  8
0
100
AcDbLine
 10
91.64141852567579
 20
80.44491216801126
 30
0.0
 11
91.64141852567579
 21
0.5449185600120378
 31
0.0
  0
LINE
  5
2B3
330
1F
100
AcDbEntity
  8
0
100
AcDbLine
 10
35.64142300567531
 20
47.9840008592622
 30
0.0
 11
35.64142300567531
 21
80.44491216801126
 31
0.0
  0
LINE
  5
2B4
330
1F
100
AcDbEntity
  8
0
100
AcDbLine
 10
32.64142324567489
 20
44.98400109926219
 30
0.0
 11
35.64142300567531
 21
47.9840008592622
 31
0.0
  0
LINE
  5
2B5
330
1F
100
AcDbEntity
  8
0
100
AcDbLine
 10
32.64142324567489
 20
44.98400109926219
 30
0.0
 11
32.64142324567489
 21
36.00582962876188
 31
0.0
  0
LINE
  5
2B6
330
1F
100
AcDbEntity
  8
0
100
AcDbLine
 10
32.64142324567489
 20
36.00582962876188
 30
0.0
 11
35.64142300567531
 21
33.00582986876181
 31
0.0
  0
LINE
  5
2B7
330
1F
100
AcDbEntity
  8
0
100
AcDbLine
 10
63.75888684321268
 20
15.49492751515362
 30
0.0
 11
63.75888684321232
 21
65.49490321287104
 31
0.0
  0
LINE
  5
2B8
330
1F
100
AcDbEntity
  8
0
100
AcDbLine
 10
74.75888096709832
 20
65.49490321287104
 30
0.0
 11
74.75888096709886
 21
15.49492751515335
 31
0.0
  0
LINE
  5
2B9
330
1F
100
AcDbEntity
  8
0
100
AcDbLine
 10
44.60171817663653
 20
41.55607336403985
 30
0.0
 11
44.19212647713476
 21
42.5449152000121
 31
0.0
  0
LINE
  5
2BA
330
1F
100
AcDbEntity
  8
0
100
AcDbLine
 10
44.19212647713476
 20
38.44491552801215
 30
0.0
 11
44.60171817663653
 21
39.43375736398453
 31
0.0
  0
LINE
  5
2BB
330
1F
100
AcDbEntity
  8
0
100
AcDbLine
 10
40.64142260567497
 20
36.39491569201215
 30
0.0
 11
41.70258060570263
 21
36.53461979305067
 31
0.0
  0
LINE
  5
2BC
330
1F
100
AcDbEntity
  8
0
100
AcDbLine
 10
39.58026460564731
 20
36.53461979305067
 30
0.0
 11
40.64142260567497
 21
36.39491569201215
 31
0.0
  0
LINE
  5
2BD
330
1F
100
AcDbEntity
  8
0
100
AcDbLine
 10
38.59142276967506
 20
36.94421149255226
 30
0.0
 11
39.58026460564731
 21
36.53461979305067
 31
0.0
  0
LINE
  5
2BE
330
1F
100
AcDbEntity
  8
0
100
AcDbLine
 10
37.74228503474107
 20
37.59577779307833
 30
0.0
 11
38.59142276967506
 21
36.94421149255226
 31
0.0
  0
LINE
  5
2BF
330
1F
100
AcDbEntity
  8
0
100
AcDbLine
 10
37.09071873421518
 20
38.44491552801215
 30
0.0
 11
37.74228503474107
 21
37.59577779307833
 31
0.0
  0
LINE
  5
2C0
330
1F
100
AcDbEntity
  8
0
100
AcDbLine
 10
36.68112703471341
 20
39.43375736398453
 30
0.0
 11
37.09071873421518
 21
38.44491552801215
 31
0.0
  0
LINE
  5
2C1
330
1F
100
AcDbEntity
  8
0
100
AcDbLine
 10
36.68112703471341
 20
41.55607336403985
 30
0.0
 11
36.54142293367497
 21
40.49491536401219
 31
0.0
  0
LINE
  5
2C2
330
1F
100
AcDbEntity
  8
0
100
AcDbLine
 10
37.09071873421518
 20
42.5449152000121
 30
0.0
 11
36.68112703471341
 21
41.55607336403985
 31
0.0
  0
LINE
  5
2C3
330
1F
100
AcDbEntity
  8
0
100
AcDbLine
 10
37.74228503474107
 20
43.39405293494591
 30
0.0
 11
37.09071873421518
 21
42.5449152000121
 31
0.0
  0
LINE
  5
2C4
330
1F
100
AcDbEntity
  8
0
100
AcDbLine
 10
38.59142276967506
 20
44.04561923547193
 30
0.0
 11
37.74228503474107
 21
43.39405293494591
 31
0.0
  0
LINE
  5
2C5
330
1F
100
AcDbEntity
  8
0
100
AcDbLine
 10
39.58026460564731
 20
44.45521093497353
 30
0.0
 11
38.59142276967506
 21
44.04561923547193
 31
0.0
  0
LINE
  5
2C6
330
1F
100
AcDbEntity
  8
0
100
AcDbLine
 10
40.64142260567497
 20
44.59491503601214
 30
0.0
 11
39.58026460564731
 21
44.45521093497353
 31
0.0
  0
LINE
  5
2C7
330
1F
100
AcDbEntity
  8
0
100
AcDbLine
 10
41.70258060570263
 20
44.45521093497353
 30
0.0
 11
40.64142260567497
 21
44.59491503601214
 31
0.0
  0
LINE
  5
2C8
330
1F
100
AcDbEntity
  8
0
100
AcDbLine
 10
42.69142244167488
 20
44.04561923547193
 30
0.0
 11
41.70258060570263
 21
44.45521093497353
 31
0.0
  0
LINE
  5
2C9
330
1F
100
AcDbEntity
  8
0
100
AcDbLine
 10
43.54056017660888
 20
43.39405293494591
 30
0.0
 11
42.69142244167488
 21
44.04561923547193
 31
0.0
  0
LINE
  5
2CA
330
1F
100
AcDbEntity
  8
0
100
AcDbLine
 10
44.19212647713476
 20
42.5449152000121
 30
0.0
 11
43.54056017660888
 21
43.39405293494591
 31
0.0
  0
LINE
  5
2CB
330
1F
100
AcDbEntity
  8
0
100
AcDbLine
 10
59.95369648468829
 20
13.94491748801201
 30
0.0
 11
44.64142228567589
 21
13.94491748801201
 31
0.0
  0
LINE
  5
2CC
330
1F
100
AcDbEntity
  8
0
100
AcDbLine
 10
44.64142228567589
 20
7.144918032011979
 30
0.0
 11
59.95369648468829
 21
7.144918032011979
 31
0.0
  0
LINE
  5
2CD
330
1F
100
AcDbEntity
  8
0
100
AcDbLine
 10
44.64142228567535
 20
67.04491324001214
 30
0.0
 11
44.64142228567535
 21
73.84491269601217
 31
0.0
  0
LINE
  5
2CE
330
1F
100
AcDbEntity
  8
0
100
AcDbLine
 10
59.95369648468756
 20
67.04491324001214
 30
0.0
 11
44.64142228567535
 21
67.04491324001214
 31
0.0
  0
LINE
  5
2CF
330
1F
100
AcDbEntity
  8
0
100
AcDbLine
 10
86.84141890967577
 20
67.0449132400125
 30
0.0
 11
79.84141946967551
 21
67.0449132400125
 31
0.0
  0
LINE
  5
2D0
330
1F
100
AcDbEntity
  8
0
100
AcDbLine
 10
79.84141946967551
 20
73.84491269601254
 30
0.0
 11
86.84141890967577
 21
73.84491269601254
 31
0.0
  0
LINE
  5
2D1
330
1F
100
AcDbEntity
  8
0
100
AcDbLine
 10
85.39977808851837
 20
19.2981161177809
 30
0.0
 11
85.10479326529723
 21
18.93235039441692
 31
0.0
  0
LINE
  5
2D2
330
1F
100
AcDbEntity
  8
0
100
AcDbLine
 10
85.77937868288319
 20
19.57507098608363
 30
0.0
 11
85.39977808851837
 21
19.2981161177809
 31
0.0
  0
LINE
  5
2D3
330
1F
100
AcDbEntity
  8
0
100
AcDbLine
 10
86.21772589520542
 20
19.74434098273988
 30
0.0
 11
85.77937868288319
 21
19.57507098608363
 31
0.0
  0
LINE
  5
2D4
330
1F
100
AcDbEntity
  8
0
100
AcDbLine
 10
87.14920190724582
 20
19.72180914825107
 30
0.0
 11
86.68494708736844
 21
19.79439063720941
 31
0.0
  0
LINE
  5
2D5
330
1F
100
AcDbEntity
  8
0
100
AcDbLine
 10
87.57885215608013
 20
19.53154282439078
 30
0.0
 11
87.14920190724582
 21
19.72180914825107
 31
0.0
  0
LINE
  5
2D6
330
1F
100
AcDbEntity
  8
0
100
AcDbLine
 10
87.94461787944425
 20
19.23655800116973
 30
0.0
 11
87.57885215608013
 21
19.53154282439078
 31
0.0
  0
LINE
  5
2D7
330
1F
100
AcDbEntity
  8
0
100
AcDbLine
 10
88.22157274774702
 20
18.85695740680486
 30
0.0
 11
87.94461787944425
 21
19.23655800116973
 31
0.0
  0
LINE
  5
2D8
330
1F
100
AcDbEntity
  8
0
100
AcDbLine
 10
88.39084274440309
 20
18.41861019448254
 30
0.0
 11
88.22157274774702
 21
18.85695740680486
 31
0.0
  0
LINE
  5
2D9
330
1F
100
AcDbEntity
  8
0
100
AcDbLine
 10
88.44089239887258
 20
17.95138900231953
 30
0.0
 11
88.39084274440309
 21
18.41861019448254
 31
0.0
  0
LINE
  5
2DA
330
1F
100
AcDbEntity
  8
0
100
AcDbLine
 10
88.17804458605404
 20
17.05748393360783
 30
0.0
 11
88.36831090991427
 21
17.48713418244219
 31
0.0
  0
LINE
  5
2DB
330
1F
100
AcDbEntity
  8
0
100
AcDbLine
 10
87.8830597628329
 20
16.69171821024385
 30
0.0
 11
88.17804458605404
 21
17.05748393360783
 31
0.0
  0
LINE
  5
2DC
330
1F
100
AcDbEntity
  8
0
100
AcDbLine
 10
87.50345916846807
 20
16.41476334194113
 30
0.0
 11
87.8830597628329
 21
16.69171821024385
 31
0.0
  0
LINE
  5
2DD
330
1F
100
AcDbEntity
  8
0
100
AcDbLine
 10
87.06511195614584
 20
16.24549334528488
 30
0.0
 11
87.50345916846807
 21
16.41476334194113
 31
0.0
  0
LINE
  5
2DE
330
1F
100
AcDbEntity
  8
0
100
AcDbLine
 10
86.59789076398283
 20
16.19544369081535
 30
0.0
 11
87.06511195614584
 21
16.24549334528488
 31
0.0
  0
LINE
  5
2DF
330
1F
100
AcDbEntity
  8
0
100
AcDbLine
 10
86.13363594410544
 20
16.26802517977369
 30
0.0
 11
86.59789076398283
 21
16.19544369081535
 31
0.0
  0
LINE
  5
2E0
330
1F
100
AcDbEntity
  8
0
100
AcDbLine
 10
42.84142242967538
 20
24.04491668001086
 30
0.0
 11
42.90275593744851
 21
23.57904243609624
 31
0.0
  0
LINE
  5
2E1
330
1F
100
AcDbEntity
  8
0
100
AcDbLine
 10
42.90275593744851
 20
24.51079092392548
 30
0.0
 11
42.84142242967538
 21
24.04491668001086
 31
0.0
  0
LINE
  5
2E2
330
1F
100
AcDbEntity
  8
0
100
AcDbLine
 10
43.36863018136295
 20
25.3177087843233
 30
0.0
 11
43.08257668357096
 21
24.94491660801089
 31
0.0
  0
LINE
  5
2E3
330
1F
100
AcDbEntity
  8
0
100
AcDbLine
 10
45.10729652959015
 20
25.78358302823792
 30
0.0
 11
44.64142228567535
 21
25.84491653601091
 31
0.0
  0
LINE
  5
2E4
330
1F
100
AcDbEntity
  8
0
100
AcDbLine
 10
45.54142221367551
 20
25.60376228211526
 30
0.0
 11
45.10729652959015
 21
25.78358302823792
 31
0.0
  0
LINE
  5
2E5
330
1F
100
AcDbEntity
  8
0
100
AcDbLine
 10
45.91421438998793
 20
25.3177087843233
 30
0.0
 11
45.54142221367551
 21
25.60376228211526
 31
0.0
  0
LINE
  5
2E6
330
1F
100
AcDbEntity
  8
0
100
AcDbLine
 10
46.20026788777975
 20
24.94491660801089
 30
0.0
 11
45.91421438998793
 21
25.3177087843233
 31
0.0
  0
LINE
  5
2E7
330
1F
100
AcDbEntity
  8
0
100
AcDbLine
 10
46.38008863390255
 20
24.51079092392548
 30
0.0
 11
46.20026788777975
 21
24.94491660801089
 31
0.0
  0
LINE
  5
2E8
330
1F
100
AcDbEntity
  8
0
100
AcDbLine
 10
46.4414221416755
 20
24.04491668001086
 30
0.0
 11
46.38008863390255
 21
24.51079092392548
 31
0.0
  0
LINE
  5
2E9
330
1F
100
AcDbEntity
  8
0
100
AcDbLine
 10
46.38008863390255
 20
23.57904243609624
 30
0.0
 11
46.4414221416755
 21
24.04491668001086
 31
0.0
  0
LINE
  5
2EA
330
1F
100
AcDbEntity
  8
0
100
AcDbLine
 10
46.20026788777975
 20
23.14491675201084
 30
0.0
 11
46.38008863390255
 21
23.57904243609624
 31
0.0
  0
LINE
  5
2EB
330
1F
100
AcDbEntity
  8
0
100
AcDbLine
 10
45.91421438998793
 20
22.77212457569842
 30
0.0
 11
46.20026788777975
 21
23.14491675201084
 31
0.0
  0
LINE
  5
2EC
330
1F
100
AcDbEntity
  8
0
100
AcDbLine
 10
45.54142221367551
 20
22.48607107790647
 30
0.0
 11
45.91421438998793
 21
22.77212457569842
 31
0.0
  0
LINE
  5
2ED
330
1F
100
AcDbEntity
  8
0
100
AcDbLine
 10
45.10729652959015
 20
22.3062503317838
 30
0.0
 11
45.54142221367551
 21
22.48607107790647
 31
0.0
  0
LINE
  5
2EE
330
1F
100
AcDbEntity
  8
0
100
AcDbLine
 10
44.64142228567535
 20
22.24491682401081
 30
0.0
 11
45.10729652959015
 21
22.3062503317838
 31
0.0
  0
LINE
  5
2EF
330
1F
100
AcDbEntity
  8
0
100
AcDbLine
 10
44.17554804176091
 20
22.3062503317838
 30
0.0
 11
44.64142228567535
 21
22.24491682401081
 31
0.0
  0
LINE
  5
2F0
330
1F
100
AcDbEntity
  8
0
100
AcDbLine
 10
43.74142235767537
 20
22.48607107790647
 30
0.0
 11
44.17554804176091
 21
22.3062503317838
 31
0.0
  0
LINE
  5
2F1
330
1F
100
AcDbEntity
  8
0
100
AcDbLine
 10
43.36863018136295
 20
22.77212457569842
 30
0.0
 11
43.74142235767537
 21
22.48607107790647
 31
0.0
  0
LINE
  5
2F2
330
1F
100
AcDbEntity
  8
0
100
AcDbLine
 10
43.08257668357096
 20
23.14491675201084
 30
0.0
 11
43.36863018136295
 21
22.77212457569842
 31
0.0
  0
LINE
  5
2F3
330
1F
100
AcDbEntity
  8
0
100
AcDbLine
 10
42.90275593744851
 20
23.57904243609624
 30
0.0
 11
43.08257668357096
 21
23.14491675201084
 31
0.0
  0
LINE
  5
2F4
330
1F
100
AcDbEntity
  8
0
100
AcDbLine
 10
45.91421438998739
 20
55.67212194369972
 30
0.0
 11
46.20026788777938
 21
56.04491412001214
 31
0.0
  0
LINE
  5
2F5
330
1F
100
AcDbEntity
  8
0
100
AcDbLine
 10
45.54142221367497
 20
55.38606844590781
 30
0.0
 11
45.91421438998739
 21
55.67212194369972
 31
0.0
  0
LINE
  5
2F6
330
1F
100
AcDbEntity
  8
0
100
AcDbLine
 10
45.10729652958961
 20
55.20624769978519
 30
0.0
 11
45.54142221367497
 21
55.38606844590781
 31
0.0
  0
LINE
  5
2F7
330
1F
100
AcDbEntity
  8
0
100
AcDbLine
 10
44.64142228567499
 20
55.14491419201216
 30
0.0
 11
45.10729652958961
 21
55.20624769978519
 31
0.0
  0
LINE
  5
2F8
330
1F
100
AcDbEntity
  8
0
100
AcDbLine
 10
44.17554804176036
 20
55.20624769978519
 30
0.0
 11
44.64142228567499
 21
55.14491419201216
 31
0.0
  0
LINE
  5
2F9
330
1F
100
AcDbEntity
  8
0
100
AcDbLine
 10
43.74142235767483
 20
55.38606844590781
 30
0.0
 11
44.17554804176036
 21
55.20624769978519
 31
0.0
  0
LINE
  5
2FA
330
1F
100
AcDbEntity
  8
0
100
AcDbLine
 10
43.08257668357059
 20
56.04491412001223
 30
0.0
 11
43.36863018136259
 21
55.67212194369972
 31
0.0
  0
LINE
  5
2FB
330
1F
100
AcDbEntity
  8
0
100
AcDbLine
 10
42.90275593744797
 20
56.47903980409758
 30
0.0
 11
43.08257668357059
 21
56.04491412001223
 31
0.0
  0
LINE
  5
2FC
330
1F
100
AcDbEntity
  8
0
100
AcDbLine
 10
42.84142242967502
 20
56.94491404801222
 30
0.0
 11
42.90275593744797
 21
56.47903980409758
 31
0.0
  0
LINE
  5
2FD
330
1F
100
AcDbEntity
  8
0
100
AcDbLine
 10
42.90275593744797
 20
57.41078829192683
 30
0.0
 11
42.84142242967502
 21
56.94491404801222
 31
0.0
  0
LINE
  5
2FE
330
1F
100
AcDbEntity
  8
0
100
AcDbLine
 10
43.08257668357059
 20
57.84491397601228
 30
0.0
 11
42.90275593744797
 21
57.41078829192683
 31
0.0
  0
LINE
  5
2FF
330
1F
100
AcDbEntity
  8
0
100
AcDbLine
 10
43.36863018136259
 20
58.21770615232469
 30
0.0
 11
43.08257668357059
 21
57.84491397601228
 31
0.0
  0
LINE
  5
300
330
1F
100
AcDbEntity
  8
0
100
AcDbLine
 10
43.74142235767501
 20
58.50375965011661
 30
0.0
 11
43.36863018136259
 21
58.21770615232469
 31
0.0
  0
LINE
  5
301
330
1F
100
AcDbEntity
  8
0
100
AcDbLine
 10
44.64142228567499
 20
58.74491390401226
 30
0.0
 11
44.17554804176036
 21
58.68358039623922
 31
0.0
  0
LINE
  5
302
330
1F
100
AcDbEntity
  8
0
100
AcDbLine
 10
45.10729652958961
 20
58.68358039623922
 30
0.0
 11
44.64142228567499
 21
58.74491390401226
 31
0.0
  0
LINE
  5
303
330
1F
100
AcDbEntity
  8
0
100
AcDbLine
 10
45.54142221367515
 20
58.50375965011661
 30
0.0
 11
45.10729652958961
 21
58.68358039623922
 31
0.0
  0
LINE
  5
304
330
1F
100
AcDbEntity
  8
0
100
AcDbLine
 10
45.91421438998739
 20
58.21770615232469
 30
0.0
 11
45.54142221367515
 21
58.50375965011661
 31
0.0
  0
LINE
  5
305
330
1F
100
AcDbEntity
  8
0
100
AcDbLine
 10
46.20026788777938
 20
57.84491397601219
 30
0.0
 11
45.91421438998739
 21
58.21770615232469
 31
0.0
  0
LINE
  5
306
330
1F
100
AcDbEntity
  8
0
100
AcDbLine
 10
46.38008863390201
 20
57.41078829192683
 30
0.0
 11
46.20026788777938
 21
57.84491397601219
 31
0.0
  0
LINE
  5
307
330
1F
100
AcDbEntity
  8
0
100
AcDbLine
 10
85.7769230117646
 20
64.57372523626192
 30
0.0
 11
85.39775346629929
 21
64.2961805261513
 31
0.0
  0
LINE
  5
308
330
1F
100
AcDbEntity
  8
0
100
AcDbLine
 10
86.21500652511584
 20
64.74367654001833
 30
0.0
 11
85.7769230117646
 21
64.57372523626192
 31
0.0
  0
LINE
  5
309
330
1F
100
AcDbEntity
  8
0
100
AcDbLine
 10
86.68214933888548
 20
64.79445253692745
 30
0.0
 11
86.21500652511584
 21
64.74367654001833
 31
0.0
  0
LINE
  5
30A
330
1F
100
AcDbEntity
  8
0
100
AcDbLine
 10
87.14651644230503
 20
64.7225929267112
 30
0.0
 11
86.68214933888548
 21
64.79445253692745
 31
0.0
  0
LINE
  5
30B
330
1F
100
AcDbEntity
  8
0
100
AcDbLine
 10
87.57646198467947
 20
64.53299482305206
 30
0.0
 11
87.14651644230503
 21
64.7225929267112
 31
0.0
  0
LINE
  5
30C
330
1F
100
AcDbEntity
  8
0
100
AcDbLine
 10
87.94268588781445
 20
64.23857902338892
 30
0.0
 11
87.57646198467947
 21
64.53299482305206
 31
0.0
  0
LINE
  5
30D
330
1F
100
AcDbEntity
  8
0
100
AcDbLine
 10
88.22023059792507
 20
63.85940947792363
 30
0.0
 11
87.94268588781445
 21
64.23857902338892
 31
0.0
  0
LINE
  5
30E
330
1F
100
AcDbEntity
  8
0
100
AcDbLine
 10
88.39018190168156
 20
63.42132596457228
 30
0.0
 11
88.22023059792507
 21
63.85940947792363
 31
0.0
  0
LINE
  5
30F
330
1F
100
AcDbEntity
  8
0
100
AcDbLine
 10
88.44095789859068
 20
62.95418315080264
 30
0.0
 11
88.39018190168156
 21
63.42132596457228
 31
0.0
  0
LINE
  5
310
330
1F
100
AcDbEntity
  8
0
100
AcDbLine
 10
88.1795001847152
 20
62.05987050500866
 30
0.0
 11
88.36909828837425
 21
62.48981604738301
 31
0.0
  0
LINE
  5
311
330
1F
100
AcDbEntity
  8
0
100
AcDbLine
 10
87.50591483958667
 20
61.41610189176308
 30
0.0
 11
87.88508438505197
 21
61.69364660187368
 31
0.0
  0
LINE
  5
312
330
1F
100
AcDbEntity
  8
0
100
AcDbLine
 10
87.06783132623542
 20
61.24615058800666
 30
0.0
 11
87.50591483958667
 21
61.41610189176308
 31
0.0
  0
LINE
  5
313
330
1F
100
AcDbEntity
  8
0
100
AcDbLine
 10
86.60068851246578
 20
61.19537459109754
 30
0.0
 11
87.06783132623542
 21
61.24615058800666
 31
0.0
  0
LINE
  5
314
330
1F
100
AcDbEntity
  8
0
100
AcDbLine
 10
86.13632140904623
 20
61.2672342013138
 30
0.0
 11
86.60068851246578
 21
61.19537459109754
 31
0.0
  0
LINE
  5
315
330
1F
100
AcDbEntity
  8
0
100
AcDbLine
 10
85.7063758666718
 20
61.45683230497293
 30
0.0
 11
86.13632140904623
 21
61.2672342013138
 31
0.0
  0
LINE
  5
316
330
1F
100
AcDbEntity
  8
0
100
AcDbLine
 10
85.34015196353681
 20
61.75124810463606
 30
0.0
 11
85.7063758666718
 21
61.45683230497293
 31
0.0
  0
LINE
  5
317
330
1F
100
AcDbEntity
  8
0
100
AcDbLine
 10
85.06260725342621
 20
62.13041765010136
 30
0.0
 11
85.34015196353681
 21
61.75124810463606
 31
0.0
  0
LINE
  5
318
330
1F
100
AcDbEntity
  8
0
100
AcDbLine
 10
84.84187995276058
 20
63.03564397722235
 30
0.0
 11
84.8926559496697
 21
62.56850116345271
 31
0.0
  0
LINE
  5
319
330
1F
100
AcDbEntity
  8
0
100
AcDbLine
 10
84.91373956297703
 20
63.50001108064198
 30
0.0
 11
84.84187995276058
 21
63.03564397722235
 31
0.0
  0
LINE
  5
31A
330
1F
100
AcDbEntity
  8
0
100
AcDbLine
 10
85.10333766663607
 20
63.92995662301633
 30
0.0
 11
84.91373956297703
 21
63.50001108064198
 31
0.0
  0
LINE
  5
31B
330
1F
100
AcDbEntity
  8
0
100
AcDbLine
 10
85.39775346629929
 20
64.2961805261513
 30
0.0
 11
85.10333766663607
 21
63.92995662301633
 31
0.0
  0
LINE
  5
31C
330
1F
100
AcDbEntity
  8
0
100
AcDbLine
 10
81.30026507977993
 20
57.89491397201515
 30
0.0
 11
81.01421158198792
 21
58.26770614832757
 31
0.0
  0
LINE
  5
31D
330
1F
100
AcDbEntity
  8
0
100
AcDbLine
 10
78.00275312944852
 20
56.52903980010073
 30
0.0
 11
78.18257387557114
 21
56.09491411601537
 31
0.0
  0
LINE
  5
31E
330
1F
100
AcDbEntity
  8
0
100
AcDbLine
 10
77.94141962167558
 20
56.99491404401535
 30
0.0
 11
78.00275312944852
 21
56.52903980010073
 31
0.0
  0
LINE
  5
31F
330
1F
100
AcDbEntity
  8
0
100
AcDbLine
 10
78.00275312944852
 20
57.46078828792997
 30
0.0
 11
77.94141962167558
 21
56.99491404401535
 31
0.0
  0
LINE
  5
320
330
1F
100
AcDbEntity
  8
0
100
AcDbLine
 10
81.01421158198792
 20
58.26770614832757
 30
0.0
 11
80.6414194056755
 21
58.55375964611947
 31
0.0
  0
LINE
  5
321
330
1F
100
AcDbEntity
  8
0
100
AcDbLine
 10
81.30026507977993
 20
23.09491675601626
 30
0.0
 11
81.48008582590273
 21
23.52904244010166
 31
0.0
  0
LINE
  5
322
330
1F
100
AcDbEntity
  8
0
100
AcDbLine
 10
81.0142115819881
 20
22.72212457970389
 30
0.0
 11
81.30026507977993
 21
23.09491675601626
 31
0.0
  0
LINE
  5
323
330
1F
100
AcDbEntity
  8
0
100
AcDbLine
 10
80.64141940567569
 20
22.43607108191198
 30
0.0
 11
81.0142115819881
 21
22.72212457970389
 31
0.0
  0
LINE
  5
324
330
1F
100
AcDbEntity
  8
0
100
AcDbLine
 10
80.20729372159035
 20
22.25625033578932
 30
0.0
 11
80.64141940567569
 21
22.43607108191198
 31
0.0
  0
LINE
  5
325
330
1F
100
AcDbEntity
  8
0
100
AcDbLine
 10
79.74141947767572
 20
22.19491682801632
 30
0.0
 11
80.20729372159035
 21
22.25625033578932
 31
0.0
  0
LINE
  5
326
330
1F
100
AcDbEntity
  8
0
100
AcDbLine
 10
79.2755452337611
 20
22.25625033578932
 30
0.0
 11
79.74141947767572
 21
22.19491682801632
 31
0.0
  0
LINE
  5
327
330
1F
100
AcDbEntity
  8
0
100
AcDbLine
 10
-20.77324706476838
 20
24.26079094393357
 30
0.0
 11
-20.83458057254132
 21
23.79491670001895
 31
0.0
  0
LINE
  5
328
330
1F
100
AcDbEntity
  8
0
100
AcDbLine
 10
24.71553974462878
 20
18.41570938373744
 30
0.0
 11
24.54699668103655
 21
18.85433661275281
 31
0.0
  0
LINE
  5
329
330
1F
100
AcDbEntity
  8
0
100
AcDbLine
 10
24.20489458603484
 20
16.68966158497729
 30
0.0
 11
24.5004853773575
 21
17.05493777418749
 31
0.0
  0
LINE
  5
32A
330
1F
100
AcDbEntity
  8
0
100
AcDbLine
 10
23.82483537219286
 20
16.41333640644197
 30
0.0
 11
24.20489458603484
 21
16.68966158497729
 31
0.0
  0
LINE
  5
32B
330
1F
100
AcDbEntity
  8
0
100
AcDbLine
 10
22.45477076486535
 20
16.26886936525904
 30
0.0
 11
22.91890461978042
 21
16.19551832545386
 31
0.0
  0
LINE
  5
32C
330
1F
100
AcDbEntity
  8
0
100
AcDbLine
 10
22.02543653362753
 20
16.45984771012084
 30
0.0
 11
22.45477076486535
 21
16.26886936525904
 31
0.0
  0
LINE
  5
32D
330
1F
100
AcDbEntity
  8
0
100
AcDbLine
 10
-20.59887587630157
 20
72.54491280001915
 30
0.0
 11
-20.69877629081427
 21
72.30373186441618
 31
0.0
  0
LINE
  5
32E
330
1F
100
AcDbEntity
  8
0
100
AcDbLine
 10
-28.03457999654104
 20
47.98400085926915
 30
0.0
 11
-28.03457999654104
 21
67.04491324001908
 31
0.0
  0
LINE
  5
32F
330
1F
100
AcDbEntity
  8
0
100
AcDbLine
 10
-31.03457975654146
 20
40.52296204418737
 30
0.0
 11
-31.03827217203465
 21
40.49491536401919
 31
0.0
  0
LINE
  5
330
330
1F
100
AcDbEntity
  8
0
100
AcDbLine
 10
-31.03457975654146
 20
40.46686868385083
 30
0.0
 11
-31.03457975654146
 21
36.00582962876864
 31
0.0
  0
LINE
  5
331
330
1F
100
AcDbEntity
  8
0
100
AcDbLine
 10
-31.03457975654146
 20
36.00582962876864
 30
0.0
 11
-28.03457999654104
 21
33.00582986876858
 31
0.0
  0
LINE
  5
332
330
1F
100
AcDbEntity
  8
0
100
AcDbLine
 10
-37.50736510453726
 20
-25.94645993675923
 30
0.0
 11
-37.88015728084986
 21
-26.23251343455119
 31
0.0
  0
LINE
  5
333
330
1F
100
AcDbEntity
  8
0
100
AcDbLine
 10
-74.58797476056489
 20
-26.00530565886359
 30
0.0
 11
-74.88767600410266
 21
-26.72884846567263
 31
0.0
  0
LINE
  5
334
330
1F
100
AcDbEntity
  8
0
100
AcDbLine
 10
-76.87963236222404
 20
-43.67898928299729
 30
0.0
 11
-76.62081333782686
 21
-43.64491511201231
 31
0.0
  0
LINE
  5
335
330
1F
100
AcDbEntity
  8
0
100
AcDbLine
 10
-68.9898989970574
 20
-27.50530553886362
 30
0.0
 11
-69.0921215100126
 21
-26.72884846567263
 31
0.0
  0
LINE
  5
336
330
1F
100
AcDbEntity
  8
0
100
AcDbLine
 10
-63.50853896281379
 20
-80.44491216801252
 30
0.0
 11
-63.24971993841678
 21
-80.41083799702754
 31
0.0
  0
LINE
  5
337
330
1F
100
AcDbEntity
  8
0
100
AcDbLine
 10
-42.18674191884239
 20
-79.70373127240953
 30
0.0
 11
-42.08684150432968
 21
-79.94491220801255
 31
0.0
  0
LINE
  5
338
330
1F
100
AcDbEntity
  8
0
100
AcDbLine
 10
-41.47963519422434
 20
-80.41083799702754
 30
0.0
 11
-41.22081616982732
 21
-80.44491216801252
 31
0.0
  0
LINE
  5
339
330
1F
100
AcDbEntity
  8
0
100
AcDbLine
 10
21.16601708489396
 20
18.04142846769806
 30
0.0
 11
21.2152921022898
 21
17.57412494430094
 31
0.0
  0
LINE
  5
33A
330
1F
100
AcDbEntity
  8
0
100
AcDbLine
 10
24.27067150250119
 20
19.23439582659479
 30
0.0
 11
23.90539531329104
 21
19.52998661791754
 31
0.0
  0
LINE
  5
33B
330
1F
100
AcDbEntity
  8
0
100
AcDbLine
 10
-23.03458039654138
 20
44.594915036019
 30
0.0
 11
-24.09573839656904
 21
44.45521093498039
 31
0.0
  0
LINE
  5
33C
330
1F
100
AcDbEntity
  8
0
100
AcDbLine
 10
-71.21344168386659
 20
-30.40308278590869
 30
0.0
 11
-70.48989887705743
 21
-30.10338154237089
 31
0.0
  0
LINE
  5
33D
330
1F
100
AcDbEntity
  8
0
100
AcDbLine
 10
-40.64143902752237
 20
-2.546488490466472
 30
0.0
 11
-40.7413394420349
 21
-2.30530755486346
 31
0.0
  0
LINE
  5
33E
330
1F
100
AcDbEntity
  8
0
100
AcDbLine
 10
-18.56870647262674
 20
58.9335803762462
 30
0.0
 11
-19.03458071654136
 21
58.99491388401934
 31
0.0
  0
LINE
  5
33F
330
1F
100
AcDbEntity
  8
0
100
AcDbLine
 10
-20.30737282085375
 20
25.06770880433139
 30
0.0
 11
-20.59342631864575
 21
24.69491662801897
 31
0.0
  0
LINE
  5
340
330
1F
100
AcDbEntity
  8
0
100
AcDbLine
 10
-21.97342239651372
 20
36.53461979305753
 30
0.0
 11
-20.98458056054147
 21
36.94421149255912
 31
0.0
  0
LINE
  5
341
330
1F
100
AcDbEntity
  8
0
100
AcDbLine
 10
-17.76178861222897
 20
58.46770613233176
 30
0.0
 11
-18.1345807885412
 21
58.75375963012359
 31
0.0
  0
LINE
  5
342
330
1F
100
AcDbEntity
  8
0
100
AcDbLine
 10
-48.12081561782652
 20
-43.7788896975099
 30
0.0
 11
-48.32792238244451
 21
-43.9378083073943
 31
0.0
  0
LINE
  5
343
330
1F
100
AcDbEntity
  8
0
100
AcDbLine
 10
21.72593726088374
 20
19.30017274306109
 30
0.0
 11
21.43034646956107
 21
18.9348965538509
 31
0.0
  0
LINE
  5
344
330
1F
100
AcDbEntity
  8
0
100
AcDbLine
 10
21.4272609463273
 20
63.92983535108205
 30
0.0
 11
21.23769674203942
 21
63.49987486130258
 31
0.0
  0
LINE
  5
345
330
1F
100
AcDbEntity
  8
0
100
AcDbLine
 10
-39.36199727342958
 20
-43.67898928299729
 30
0.0
 11
-39.62081629782659
 21
-43.64491511201231
 31
0.0
  0
LINE
  5
346
330
1F
100
AcDbEntity
  8
0
100
AcDbLine
 10
-18.13458078854138
 20
55.6360684259148
 30
0.0
 11
-17.76178861222897
 21
55.9221219237068
 31
0.0
  0
LINE
  5
347
330
1F
100
AcDbEntity
  8
0
100
AcDbLine
 10
-18.56870647262674
 20
55.45624767979218
 30
0.0
 11
-18.13458078854138
 21
55.6360684259148
 31
0.0
  0
LINE
  5
348
330
1F
100
AcDbEntity
  8
0
100
AcDbLine
 10
-19.03458071654136
 20
55.39491417201923
 30
0.0
 11
-18.56870647262674
 21
55.45624767979218
 31
0.0
  0
LINE
  5
349
330
1F
100
AcDbEntity
  8
0
100
AcDbLine
 10
-20.59342631864575
 20
56.29491410001921
 30
0.0
 11
-20.30737282085375
 21
55.9221219237068
 31
0.0
  0
LINE
  5
34A
330
1F
100
AcDbEntity
  8
0
100
AcDbLine
 10
-64.4950875215245
 20
-23.00530589886358
 30
0.0
 11
-67.20736272853752
 21
-23.00530589886358
 31
0.0
  0
LINE
  5
34B
330
1F
100
AcDbEntity
  8
0
100
AcDbLine
 10
-81.86869506831053
 20
-27.97117978277825
 30
0.0
 11
-81.80736156053777
 21
-27.50530553886362
 31
0.0
  0
LINE
  5
34C
330
1F
100
AcDbEntity
  8
0
100
AcDbLine
 10
-76.50217010717833
 20
-23.00530589886358
 30
0.0
 11
-76.50736198453781
 21
-16.40530642686355
 31
0.0
  0
LINE
  5
34D
330
1F
100
AcDbEntity
  8
0
100
AcDbLine
 10
-34.80736532053714
 20
-27.50530553886362
 30
0.0
 11
-34.86869882831027
 21
-27.039431294949
 31
0.0
  0
LINE
  5
34E
330
1F
100
AcDbEntity
  8
0
100
AcDbLine
 10
-35.04851957443289
 20
-28.40530546686365
 30
0.0
 11
-34.86869882831027
 21
-27.97117978277825
 31
0.0
  0
LINE
  5
34F
330
1F
100
AcDbEntity
  8
0
100
AcDbLine
 10
-50.60736405653744
 20
-8.40530706686351
 30
0.0
 11
-69.60736253653752
 21
-8.40530706686351
 31
0.0
  0
LINE
  5
350
330
1F
100
AcDbEntity
  8
0
100
AcDbLine
 10
22.54462370374095
 20
19.74504098518864
 30
0.0
 11
22.10599647472571
 21
19.57649792159641
 31
0.0
  0
LINE
  5
351
330
1F
100
AcDbEntity
  8
0
100
AcDbLine
 10
-69.86857858320347
 20
-29.6266257127177
 30
0.0
 11
-69.39182275355037
 21
-29.00530541886365
 31
0.0
  0
LINE
  5
352
330
1F
100
AcDbEntity
  8
0
100
AcDbLine
 10
-70.00335027834697
 20
-72.34491281601251
 30
0.0
 11
-69.22689320515575
 21
-72.24269030305751
 31
0.0
  0
LINE
  5
353
330
1F
100
AcDbEntity
  8
0
100
AcDbLine
 10
-20.77324706476838
 20
56.72903978410457
 30
0.0
 11
-20.59342631864575
 21
56.29491410001921
 31
0.0
  0
LINE
  5
354
330
1F
100
AcDbEntity
  8
0
100
AcDbLine
 10
23.01192722713816
 20
19.79431600258452
 30
0.0
 11
22.54462370374095
 21
19.74504098518864
 31
0.0
  0
LINE
  5
355
330
1F
100
AcDbEntity
  8
0
100
AcDbLine
 10
-76.92081331382678
 20
-80.31093758251492
 30
0.0
 11
-76.67963237822373
 21
-80.41083799702754
 31
0.0
  0
LINE
  5
356
330
1F
100
AcDbEntity
  8
0
100
AcDbLine
 10
-76.67963237822373
 20
-80.41083799702754
 30
0.0
 11
-76.42081335382653
 21
-80.44491216801252
 31
0.0
  0
LINE
  5
357
330
1F
100
AcDbEntity
  8
0
100
AcDbLine
 10
-23.03458039654138
 20
36.39491569201892
 30
0.0
 11
-21.97342239651372
 21
36.53461979305753
 31
0.0
  0
LINE
  5
358
330
1F
100
AcDbEntity
  8
0
100
AcDbLine
 10
-19.93458064454134
 20
25.35376230212334
 30
0.0
 11
-20.30737282085375
 21
25.06770880433139
 31
0.0
  0
LINE
  5
359
330
1F
100
AcDbEntity
  8
0
100
AcDbLine
 10
-69.39182275355037
 20
-29.00530541886365
 30
0.0
 11
-69.0921215100126
 21
-28.28176261205461
 31
0.0
  0
LINE
  5
35A
330
1F
100
AcDbEntity
  8
0
100
AcDbLine
 10
22.10079553183689
 20
64.57365707073315
 30
0.0
 11
21.72164787038557
 21
64.2960824661045
 31
0.0
  0
LINE
  5
35B
330
1F
100
AcDbEntity
  8
0
100
AcDbLine
 10
21.72164787038557
 20
64.2960824661045
 30
0.0
 11
21.4272609463273
 21
63.92983535108205
 31
0.0
  0
LINE
  5
35C
330
1F
100
AcDbEntity
  8
0
100
AcDbLine
 10
-21.97342239651372
 20
44.45521093498039
 30
0.0
 11
-23.03458039654138
 21
44.594915036019
 31
0.0
  0
LINE
  5
35D
330
1F
100
AcDbEntity
  8
0
100
AcDbLine
 10
-17.47573511443697
 20
56.29491410001921
 30
0.0
 11
-17.29591436831435
 21
56.72903978410457
 31
0.0
  0
LINE
  5
35E
330
1F
100
AcDbEntity
  8
0
100
AcDbLine
 10
-16.13458094854092
 20
13.94491748801887
 30
0.0
 11
-16.13458094854092
 21
8.944917888018393
 31
0.0
  0
LINE
  5
35F
330
1F
100
AcDbEntity
  8
0
100
AcDbLine
 10
-25.93371796747529
 20
37.59577779308523
 30
0.0
 11
-25.08458023254128
 21
36.94421149255912
 31
0.0
  0
LINE
  5
360
330
1F
100
AcDbEntity
  8
0
100
AcDbLine
 10
-25.08458023254128
 20
36.94421149255912
 30
0.0
 11
-24.09573839656904
 21
36.53461979305753
 31
0.0
  0
LINE
  5
361
330
1F
100
AcDbEntity
  8
0
100
AcDbLine
 10
-35.5208166258266
 20
-70.90375865811684
 30
0.0
 11
-35.08669094174106
 21
-71.0835794042395
 31
0.0
  0
LINE
  5
362
330
1F
100
AcDbEntity
  8
0
100
AcDbLine
 10
-35.89360880213901
 20
-70.61770516032489
 30
0.0
 11
-35.5208166258266
 21
-70.90375865811684
 31
0.0
  0
LINE
  5
363
330
1F
100
AcDbEntity
  8
0
100
AcDbLine
 10
-69.64143670752259
 20
-2.546488490466472
 30
0.0
 11
-69.7413371220353
 21
-2.30530755486346
 31
0.0
  0
LINE
  5
364
330
1F
100
AcDbEntity
  8
0
100
AcDbLine
 10
-69.39182275355037
 20
-32.00530517886367
 30
0.0
 11
-66.7937467500431
 21
-27.50530553886362
 31
0.0
  0
LINE
  5
365
330
1F
100
AcDbEntity
  8
0
100
AcDbLine
 10
-66.7937467500431
 20
-27.50530553886362
 30
0.0
 11
-69.39182275355037
 21
-23.00530589886362
 31
0.0
  0
LINE
  5
366
330
1F
100
AcDbEntity
  8
0
100
AcDbLine
 10
-69.39182275355037
 20
-23.00530589886362
 30
0.0
 11
-74.58797476056489
 21
-23.00530589886362
 31
0.0
  0
LINE
  5
367
330
1F
100
AcDbEntity
  8
0
100
AcDbLine
 10
-74.58797476056489
 20
-23.00530589886362
 30
0.0
 11
-77.18605076407198
 21
-27.50530553886362
 31
0.0
  0
LINE
  5
368
330
1F
100
AcDbEntity
  8
0
100
AcDbLine
 10
22.53886564412446
 20
64.7436429143763
 30
0.0
 11
22.10079553183689
 21
64.57365707073315
 31
0.0
  0
LINE
  5
369
330
1F
100
AcDbEntity
  8
0
100
AcDbLine
 10
21.38667241674558
 20
62.13029317239705
 30
0.0
 11
21.66424702137424
 21
61.75114551094573
 31
0.0
  0
LINE
  5
36A
330
1F
100
AcDbEntity
  8
0
100
AcDbLine
 10
21.66424702137424
 20
61.75114551094573
 30
0.0
 11
22.03049413639668
 21
61.45675858688747
 31
0.0
  0
LINE
  5
36B
330
1F
100
AcDbEntity
  8
0
100
AcDbLine
 10
22.03049413639668
 20
61.45675858688747
 30
0.0
 11
22.46045462617615
 21
61.26719438259958
 31
0.0
  0
LINE
  5
36C
330
1F
100
AcDbEntity
  8
0
100
AcDbLine
 10
22.92482739387756
 20
61.19537138533445
 30
0.0
 11
23.39196620279411
 21
61.24618421366278
 31
0.0
  0
LINE
  5
36D
330
1F
100
AcDbEntity
  8
0
100
AcDbLine
 10
23.83003631508168
 20
61.41617005730573
 30
0.0
 11
24.209183976533
 21
61.69374466193441
 31
0.0
  0
LINE
  5
36E
330
1F
100
AcDbEntity
  8
0
100
AcDbLine
 10
24.50357090059127
 20
62.05999177695702
 30
0.0
 11
24.69313510487915
 21
62.48995226673649
 31
0.0
  0
LINE
  5
36F
330
1F
100
AcDbEntity
  8
0
100
AcDbLine
 10
24.69313510487915
 20
62.48995226673649
 30
0.0
 11
24.76495810214428
 21
62.95432503443772
 31
0.0
  0
LINE
  5
370
330
1F
100
AcDbEntity
  8
0
100
AcDbLine
 10
24.76495810214428
 20
62.95432503443772
 30
0.0
 11
24.71414527381614
 21
63.42146384335445
 31
0.0
  0
LINE
  5
371
330
1F
100
AcDbEntity
  8
0
100
AcDbLine
 10
-79.8821465896
 20
-69.81078729992707
 30
0.0
 11
-79.82081308182687
 21
-69.34491305601244
 31
0.0
  0
LINE
  5
372
330
1F
100
AcDbEntity
  8
0
100
AcDbLine
 10
-80.06196733572243
 20
-70.24491298401247
 30
0.0
 11
-79.8821465896
 21
-69.81078729992707
 31
0.0
  0
LINE
  5
373
330
1F
100
AcDbEntity
  8
0
100
AcDbLine
 10
-80.34802083351444
 20
-70.61770516032489
 30
0.0
 11
-80.06196733572243
 21
-70.24491298401247
 31
0.0
  0
LINE
  5
374
330
1F
100
AcDbEntity
  8
0
100
AcDbLine
 10
-35.08669094174106
 20
-71.0835794042395
 30
0.0
 11
-34.62081669782662
 21
-71.1449129120125
 31
0.0
  0
LINE
  5
375
330
1F
100
AcDbEntity
  8
0
100
AcDbLine
 10
-35.62081661782729
 20
-73.8449126960125
 30
0.0
 11
-30.62081701782641
 21
-73.8449126960125
 31
0.0
  0
LINE
  5
376
330
1F
100
AcDbEntity
  8
0
100
AcDbLine
 10
-78.6073618165377
 20
-1.80530759486348
 30
0.0
 11
-70.60736245653767
 21
-1.80530759486348
 31
0.0
  0
LINE
  5
377
330
1F
100
AcDbEntity
  8
0
100
AcDbLine
 10
-38.65489054881152
 20
-44.3860960076153
 30
0.0
 11
-38.75479096332423
 21
-44.14491507201229
 31
0.0
  0
LINE
  5
378
330
1F
100
AcDbEntity
  8
0
100
AcDbLine
 10
-35.33457307222471
 20
-26.23251343455119
 30
0.0
 11
-35.7073652485373
 21
-25.94645993675923
 31
0.0
  0
LINE
  5
379
330
1F
100
AcDbEntity
  8
0
100
AcDbLine
 10
-17.29591436831435
 20
56.72903978410457
 30
0.0
 11
-17.2345808605414
 21
57.19491402801919
 31
0.0
  0
LINE
  5
37A
330
1F
100
AcDbEntity
  8
0
100
AcDbLine
 10
-17.47573511443697
 20
58.09491395601918
 30
0.0
 11
-17.76178861222897
 21
58.46770613233176
 31
0.0
  0
LINE
  5
37B
330
1F
100
AcDbEntity
  8
0
100
AcDbLine
 10
-20.30737282085375
 20
58.46770613233176
 30
0.0
 11
-20.59342631864575
 21
58.09491395601935
 31
0.0
  0
LINE
  5
37C
330
1F
100
AcDbEntity
  8
0
100
AcDbLine
 10
-83.17965853993128
 20
-70.24491298401247
 30
0.0
 11
-82.89360504213927
 21
-70.61770516032489
 31
0.0
  0
LINE
  5
37D
330
1F
100
AcDbEntity
  8
0
100
AcDbLine
 10
-83.35947928605407
 20
-69.81078729992707
 30
0.0
 11
-83.17965853993128
 21
-70.24491298401247
 31
0.0
  0
LINE
  5
37E
330
1F
100
AcDbEntity
  8
0
100
AcDbLine
 10
-41.72081612982649
 20
-64.8449134160124
 30
0.0
 11
-47.50335207834531
 21
-64.8449134160124
 31
0.0
  0
LINE
  5
37F
330
1F
100
AcDbEntity
  8
0
100
AcDbLine
 10
-67.20736272853752
 20
-16.40530642686355
 30
0.0
 11
-43.70736460853733
 21
-16.40530642686355
 31
0.0
  0
LINE
  5
380
330
1F
100
AcDbEntity
  8
0
100
AcDbLine
 10
-72.58356695255506
 20
-73.8573298174634
 30
0.0
 11
-67.38741494554036
 21
-73.8573298174634
 31
0.0
  0
LINE
  5
381
330
1F
100
AcDbEntity
  8
0
100
AcDbLine
 10
-67.38741494554036
 20
-73.8573298174634
 30
0.0
 11
-64.78933894203327
 21
-69.35733017746334
 31
0.0
  0
LINE
  5
382
330
1F
100
AcDbEntity
  8
0
100
AcDbLine
 10
-64.78933894203327
 20
-69.35733017746334
 30
0.0
 11
-67.38741494554036
 21
-64.85733053746335
 31
0.0
  0
LINE
  5
383
330
1F
100
AcDbEntity
  8
0
100
AcDbLine
 10
-67.38741494554036
 20
-64.85733053746335
 30
0.0
 11
-72.58356695255506
 21
-64.85733053746335
 31
0.0
  0
LINE
  5
384
330
1F
100
AcDbEntity
  8
0
100
AcDbLine
 10
-72.58356695255506
 20
-64.85733053746335
 30
0.0
 11
-75.18164295606215
 21
-69.35733017746334
 31
0.0
  0
LINE
  5
385
330
1F
100
AcDbEntity
  8
0
100
AcDbLine
 10
-75.18164295606215
 20
-69.35733017746334
 30
0.0
 11
-72.58356695255506
 21
-73.8573298174634
 31
0.0
  0
LINE
  5
386
330
1F
100
AcDbEntity
  8
0
100
AcDbLine
 10
-68.50335039834694
 20
-66.74683705250519
 30
0.0
 11
-69.22689320515575
 21
-66.44713580896737
 31
0.0
  0
LINE
  5
387
330
1F
100
AcDbEntity
  8
0
100
AcDbLine
 10
-67.88203010449261
 20
-67.22359288215837
 30
0.0
 11
-68.50335039834694
 21
-66.74683705250519
 31
0.0
  0
LINE
  5
388
330
1F
100
AcDbEntity
  8
0
100
AcDbLine
 10
-67.40527427483934
 20
-67.84491317601241
 30
0.0
 11
-67.88203010449261
 21
-67.22359288215837
 31
0.0
  0
LINE
  5
389
330
1F
100
AcDbEntity
  8
0
100
AcDbLine
 10
-47.62081565782663
 20
-43.64491511201231
 30
0.0
 11
-47.87963468222364
 21
-43.67898928299729
 31
0.0
  0
LINE
  5
38A
330
1F
100
AcDbEntity
  8
0
100
AcDbLine
 10
-67.75478864332428
 20
-44.14491507201229
 30
0.0
 11
-67.91370725320894
 21
-43.9378083073943
 31
0.0
  0
LINE
  5
38B
330
1F
100
AcDbEntity
  8
0
100
AcDbLine
 10
-82.70736148853757
 20
-25.94645993675923
 30
0.0
 11
-83.14148717262293
 21
-25.76663919063656
 31
0.0
  0
LINE
  5
38C
330
1F
100
AcDbEntity
  8
0
100
AcDbLine
 10
-20.73285046179916
 20
67.04491324001927
 30
0.0
 11
-20.73285046179916
 21
72.04491284001917
 31
0.0
  0
LINE
  5
38D
330
1F
100
AcDbEntity
  8
0
100
AcDbLine
 10
0.0828838409959721
 20
65.49490321287799
 30
0.0
 11
11.08287796488198
 21
65.49490321287799
 31
0.0
  0
LINE
  5
38E
330
1F
100
AcDbEntity
  8
0
100
AcDbLine
 10
21.21668657310244
 20
62.56836328468462
 30
0.0
 11
21.38667241674558
 21
62.13029317239705
 31
0.0
  0
LINE
  5
38F
330
1F
100
AcDbEntity
  8
0
100
AcDbLine
 10
23.00600445304102
 20
64.79445574270444
 30
0.0
 11
22.53886564412446
 21
64.7436429143763
 31
0.0
  0
LINE
  5
390
330
1F
100
AcDbEntity
  8
0
100
AcDbLine
 10
-42.22081608982747
 20
-73.8449126960125
 30
0.0
 11
-47.50335207834531
 21
-73.84491269601246
 31
0.0
  0
LINE
  5
391
330
1F
100
AcDbEntity
  8
0
100
AcDbLine
 10
-20.69877629081427
 20
72.30373186441618
 30
0.0
 11
-20.73285046179916
 21
72.04491284001917
 31
0.0
  0
LINE
  5
392
330
1F
100
AcDbEntity
  8
0
100
AcDbLine
 10
16.66541642745923
 20
8.944917888018304
 30
0.0
 11
16.63134225647434
 21
8.686098863621291
 31
0.0
  0
LINE
  5
393
330
1F
100
AcDbEntity
  8
0
100
AcDbLine
 10
16.63134225647434
 20
8.686098863621291
 30
0.0
 11
16.53144184196164
 21
8.44491792801828
 31
0.0
  0
LINE
  5
394
330
1F
100
AcDbEntity
  8
0
100
AcDbLine
 10
16.53144184196164
 20
8.44491792801828
 30
0.0
 11
16.37252323207733
 21
8.237811163400291
 31
0.0
  0
LINE
  5
395
330
1F
100
AcDbEntity
  8
0
100
AcDbLine
 10
16.37252323207733
 20
8.237811163400291
 30
0.0
 11
16.16541646745934
 21
8.078892553515896
 31
0.0
  0
LINE
  5
396
330
1F
100
AcDbEntity
  8
0
100
AcDbLine
 10
-35.33457307222471
 20
-28.77809764317606
 30
0.0
 11
-35.04851957443289
 21
-28.40530546686365
 31
0.0
  0
LINE
  5
397
330
1F
100
AcDbEntity
  8
0
100
AcDbLine
 10
-35.62081661782729
 20
-79.44491224801251
 30
0.0
 11
-35.65489078881237
 21
-79.70373127240953
 31
0.0
  0
LINE
  5
398
330
1F
100
AcDbEntity
  8
0
100
AcDbLine
 10
-41.72081612982721
 20
-80.31093758251492
 30
0.0
 11
-41.47963519422434
 21
-80.41083799702754
 31
0.0
  0
LINE
  5
399
330
1F
100
AcDbEntity
  8
0
100
AcDbLine
 10
-32.82081684182647
 20
-69.34491305601244
 30
0.0
 11
-32.88215034959942
 21
-68.87903881209783
 31
0.0
  0
LINE
  5
39A
330
1F
100
AcDbEntity
  8
0
100
AcDbLine
 10
-32.88215034959942
 20
-69.81078729992707
 30
0.0
 11
-32.82081684182647
 21
-69.34491305601244
 31
0.0
  0
LINE
  5
39B
330
1F
100
AcDbEntity
  8
0
100
AcDbLine
 10
-33.06197109572221
 20
-70.24491298401247
 30
0.0
 11
-32.88215034959942
 21
-69.81078729992707
 31
0.0
  0
LINE
  5
39C
330
1F
100
AcDbEntity
  8
0
100
AcDbLine
 10
-37.90025829192023
 20
-38.3124114554817
 30
0.0
 11
-38.10736505653821
 21
-38.4713300653661
 31
0.0
  0
LINE
  5
39D
330
1F
100
AcDbEntity
  8
0
100
AcDbLine
 10
-37.60736509653796
 20
-37.60530473086369
 30
0.0
 11
-37.60736509653796
 21
-32.00530517886367
 31
0.0
  0
LINE
  5
39E
330
1F
100
AcDbEntity
  8
0
100
AcDbLine
 10
21.16587374477429
 20
63.03550209360117
 30
0.0
 11
21.21668657310244
 21
62.56836328468462
 31
0.0
  0
LINE
  5
39F
330
1F
100
AcDbEntity
  8
0
100
AcDbLine
 10
23.47606108205322
 20
19.72096496277934
 30
0.0
 11
23.01192722713816
 21
19.79431600258452
 31
0.0
  0
LINE
  5
3A0
330
1F
100
AcDbEntity
  8
0
100
AcDbLine
 10
24.5004853773575
 20
17.05493777418749
 30
0.0
 11
24.69146372221952
 21
17.48427200542534
 31
0.0
  0
LINE
  5
3A1
330
1F
100
AcDbEntity
  8
0
100
AcDbLine
 10
-19.03458071654136
 20
58.99491388401934
 30
0.0
 11
-19.50045496045598
 21
58.9335803762462
 31
0.0
  0
LINE
  5
3A2
330
1F
100
AcDbEntity
  8
0
100
AcDbLine
 10
22.91890461978042
 20
16.19551832545386
 30
0.0
 11
23.38620814317762
 21
16.24479334284975
 31
0.0
  0
LINE
  5
3A3
330
1F
100
AcDbEntity
  8
0
100
AcDbLine
 10
-20.83458057254132
 20
57.19491402801919
 30
0.0
 11
-20.77324706476838
 21
56.72903978410457
 31
0.0
  0
LINE
  5
3A4
330
1F
100
AcDbEntity
  8
0
100
AcDbLine
 10
21.23936812469905
 20
18.50556232261304
 30
0.0
 11
21.16601708489396
 21
18.04142846769806
 31
0.0
  0
LINE
  5
3A5
330
1F
100
AcDbEntity
  8
0
100
AcDbLine
 10
-16.13458094854092
 20
13.94491748801887
 30
0.0
 11
-6.634581708541211
 21
13.944917488019
 31
0.0
  0
LINE
  5
3A6
330
1F
100
AcDbEntity
  8
0
100
AcDbLine
 10
-20.30737282085375
 20
55.9221219237068
 30
0.0
 11
-19.93458064454152
 21
55.6360684259148
 31
0.0
  0
LINE
  5
3A7
330
1F
100
AcDbEntity
  8
0
100
AcDbLine
 10
-31.03457975654146
 20
44.98400109926909
 30
0.0
 11
-31.03457975654146
 21
40.52296204418737
 31
0.0
  0
LINE
  5
3A8
330
1F
100
AcDbEntity
  8
0
100
AcDbLine
 10
-31.03827217203465
 20
40.49491536401919
 30
0.0
 11
-31.03457975654146
 21
40.46686868385083
 31
0.0
  0
LINE
  5
3A9
330
1F
100
AcDbEntity
  8
0
100
AcDbLine
 10
17.64172316698635
 20
22.89491677201788
 30
0.0
 11
17.82154391310915
 21
23.32904245610329
 31
0.0
  0
LINE
  5
3AA
330
1F
100
AcDbEntity
  8
0
100
AcDbLine
 10
17.82154391310915
 20
23.32904245610329
 30
0.0
 11
17.8828774208821
 21
23.79491670001786
 31
0.0
  0
LINE
  5
3AB
330
1F
100
AcDbEntity
  8
0
100
AcDbLine
 10
17.8828774208821
 20
23.79491670001786
 30
0.0
 11
17.82154391310915
 21
24.26079094393244
 31
0.0
  0
LINE
  5
3AC
330
1F
100
AcDbEntity
  8
0
100
AcDbLine
 10
17.82154391310915
 20
24.26079094393244
 30
0.0
 11
17.64172316698635
 21
24.69491662801785
 31
0.0
  0
LINE
  5
3AD
330
1F
100
AcDbEntity
  8
0
100
AcDbLine
 10
17.64172316698635
 20
24.69491662801785
 30
0.0
 11
17.35566966919453
 21
25.06770880433026
 31
0.0
  0
LINE
  5
3AE
330
1F
100
AcDbEntity
  8
0
100
AcDbLine
 10
17.35566966919453
 20
25.06770880433026
 30
0.0
 11
16.98287749288211
 21
25.35376230212217
 31
0.0
  0
LINE
  5
3AF
330
1F
100
AcDbEntity
  8
0
100
AcDbLine
 10
16.98287749288211
 20
25.35376230212217
 30
0.0
 11
16.54875180879676
 21
25.53358304824484
 31
0.0
  0
LINE
  5
3B0
330
1F
100
AcDbEntity
  8
0
100
AcDbLine
 10
16.54875180879676
 20
25.53358304824484
 30
0.0
 11
16.08287756488213
 21
25.59491655601783
 31
0.0
  0
LINE
  5
3B1
330
1F
100
AcDbEntity
  8
0
100
AcDbLine
 10
-81.15493869391238
 20
-67.60624670778539
 30
0.0
 11
-81.62081293782688
 21
-67.54491320001239
 31
0.0
  0
LINE
  5
3B2
330
1F
100
AcDbEntity
  8
0
100
AcDbLine
 10
-80.72081300982667
 20
-67.78606745390805
 30
0.0
 11
-81.15493869391238
 21
-67.60624670778539
 31
0.0
  0
LINE
  5
3B3
330
1F
100
AcDbEntity
  8
0
100
AcDbLine
 10
-80.34802083351444
 20
-68.07212095170001
 30
0.0
 11
-80.72081300982667
 21
-67.78606745390805
 31
0.0
  0
LINE
  5
3B4
330
1F
100
AcDbEntity
  8
0
100
AcDbLine
 10
-77.42081327382668
 20
-73.84491269601246
 30
0.0
 11
-77.42081327382668
 21
-79.44491224801251
 31
0.0
  0
LINE
  5
3B5
330
1F
100
AcDbEntity
  8
0
100
AcDbLine
 10
-38.3460315247643
 20
-27.97117978277825
 30
0.0
 11
-38.16621077864168
 21
-28.40530546686365
 31
0.0
  0
LINE
  5
3B6
330
1F
100
AcDbEntity
  8
0
100
AcDbLine
 10
-78.66618085693457
 20
-38.57123047987871
 30
0.0
 11
-78.40736183253739
 21
-38.60530465086369
 31
0.0
  0
LINE
  5
3B7
330
1F
100
AcDbEntity
  8
0
100
AcDbLine
 10
-20.98458056054147
 20
44.04561923547879
 30
0.0
 11
-21.97342239651372
 21
44.45521093498039
 31
0.0
  0
LINE
  5
3B8
330
1F
100
AcDbEntity
  8
0
100
AcDbLine
 10
23.38620814317762
 20
16.24479334284975
 30
0.0
 11
23.82483537219286
 21
16.41333640644197
 31
0.0
  0
LINE
  5
3B9
330
1F
100
AcDbEntity
  8
0
100
AcDbLine
 10
22.46045462617615
 20
61.26719438259958
 30
0.0
 11
22.92482739387756
 21
61.19537138533445
 31
0.0
  0
LINE
  5
3BA
330
1F
100
AcDbEntity
  8
0
100
AcDbLine
 10
-17.13315796474717
 20
73.0449127600192
 30
0.0
 11
-16.87433894035015
 21
73.01083858903414
 31
0.0
  0
LINE
  5
3BB
330
1F
100
AcDbEntity
  8
0
100
AcDbLine
 10
-19.7328505417992
 20
73.0449127600192
 30
0.0
 11
-17.13315796474717
 21
73.0449127600192
 31
0.0
  0
LINE
  5
3BC
330
1F
100
AcDbEntity
  8
0
100
AcDbLine
 10
-19.7328505417992
 20
73.0449127600192
 30
0.0
 11
-19.99166956619622
 21
73.01083858903414
 31
0.0
  0
LINE
  5
3BD
330
1F
100
AcDbEntity
  8
0
100
AcDbLine
 10
-19.99166956619622
 20
73.01083858903414
 30
0.0
 11
-20.23285050179928
 21
72.91093817452162
 31
0.0
  0
LINE
  5
3BE
330
1F
100
AcDbEntity
  8
0
100
AcDbLine
 10
-20.23285050179928
 20
72.91093817452162
 30
0.0
 11
-20.43995726641726
 21
72.75201956463712
 31
0.0
  0
LINE
  5
3BF
330
1F
100
AcDbEntity
  8
0
100
AcDbLine
 10
-20.43995726641726
 20
72.75201956463712
 30
0.0
 11
-20.59887587630157
 21
72.54491280001915
 31
0.0
  0
LINE
  5
3C0
330
1F
100
AcDbEntity
  8
0
100
AcDbLine
 10
24.209183976533
 20
61.69374466193441
 30
0.0
 11
24.50357090059127
 21
62.05999177695702
 31
0.0
  0
LINE
  5
3C1
330
1F
100
AcDbEntity
  8
0
100
AcDbLine
 10
14.81008546056974
 20
22.52212459570547
 30
0.0
 11
15.18287763688215
 21
22.23607109791356
 31
0.0
  0
LINE
  5
3C2
330
1F
100
AcDbEntity
  8
0
100
AcDbLine
 10
-65.22081424982666
 20
-58.24491394401238
 30
0.0
 11
-41.72081612982649
 21
-58.24491394401238
 31
0.0
  0
LINE
  5
3C3
330
1F
100
AcDbEntity
  8
0
100
AcDbLine
 10
-80.72081300982704
 20
-70.90375865811684
 30
0.0
 11
-80.34802083351444
 21
-70.61770516032489
 31
0.0
  0
LINE
  5
3C4
330
1F
100
AcDbEntity
  8
0
100
AcDbLine
 10
-81.15493869391238
 20
-71.0835794042395
 30
0.0
 11
-80.72081300982704
 21
-70.90375865811684
 31
0.0
  0
LINE
  5
3C5
330
1F
100
AcDbEntity
  8
0
100
AcDbLine
 10
-79.40736175253753
 20
-37.60530473086369
 30
0.0
 11
-79.37328758155246
 21
-37.8641237552607
 31
0.0
  0
LINE
  5
3C6
330
1F
100
AcDbEntity
  8
0
100
AcDbLine
 10
-37.60736509653796
 20
-32.00530517886367
 30
0.0
 11
-32.60736549653726
 21
-32.00530517886367
 31
0.0
  0
LINE
  5
3C7
330
1F
100
AcDbEntity
  8
0
100
AcDbLine
 10
-38.3460315247643
 20
-27.039431294949
 30
0.0
 11
-38.40736503253743
 21
-27.50530553886362
 31
0.0
  0
LINE
  5
3C8
330
1F
100
AcDbEntity
  8
0
100
AcDbLine
 10
-79.37328758155246
 20
-37.8641237552607
 30
0.0
 11
-79.27338716703974
 21
-38.10530469086372
 31
0.0
  0
LINE
  5
3C9
330
1F
100
AcDbEntity
  8
0
100
AcDbLine
 10
-36.60736517653728
 20
-25.70530568286357
 30
0.0
 11
-37.07323942045191
 21
-25.76663919063656
 31
0.0
  0
LINE
  5
3CA
330
1F
100
AcDbEntity
  8
0
100
AcDbLine
 10
-82.04851581443333
 20
-26.6053056108636
 30
0.0
 11
-82.33456931222533
 21
-26.23251343455119
 31
0.0
  0
LINE
  5
3CB
330
1F
100
AcDbEntity
  8
0
100
AcDbLine
 10
-49.86618316093431
 20
-1.839381765848461
 30
0.0
 11
-50.10736409653737
 21
-1.939282180361078
 31
0.0
  0
LINE
  5
3CC
330
1F
100
AcDbEntity
  8
0
100
AcDbLine
 10
-65.23626841712763
 20
-38.57123047987871
 30
0.0
 11
-64.99508748152456
 21
-38.4713300653661
 31
0.0
  0
LINE
  5
3CD
330
1F
100
AcDbEntity
  8
0
100
AcDbLine
 10
-62.54261321379895
 20
-79.70373127240953
 30
0.0
 11
-62.50853904281387
 21
-79.44491224801251
 31
0.0
  0
LINE
  5
3CE
330
1F
100
AcDbEntity
  8
0
100
AcDbLine
 10
-35.7073652485373
 20
-29.06415114096801
 30
0.0
 11
-35.33457307222471
 21
-28.77809764317606
 31
0.0
  0
LINE
  5
3CF
330
1F
100
AcDbEntity
  8
0
100
AcDbLine
 10
-44.20736456853813
 20
-37.60530473086369
 30
0.0
 11
-44.17329039755305
 21
-37.8641237552607
 31
0.0
  0
LINE
  5
3D0
330
1F
100
AcDbEntity
  8
0
100
AcDbLine
 10
-38.91370957320871
 20
-43.9378083073943
 30
0.0
 11
-39.1208163378267
 21
-43.7788896975099
 31
0.0
  0
LINE
  5
3D1
330
1F
100
AcDbEntity
  8
0
100
AcDbLine
 10
-62.6425136283113
 20
-79.94491220801255
 30
0.0
 11
-62.54261321379895
 21
-79.70373127240953
 31
0.0
  0
LINE
  5
3D2
330
1F
100
AcDbEntity
  8
0
100
AcDbLine
 10
-48.5867414068417
 20
-44.3860960076153
 30
0.0
 11
-48.62081557782677
 21
-44.64491503201231
 31
0.0
  0
LINE
  5
3D3
330
1F
100
AcDbEntity
  8
0
100
AcDbLine
 10
-64.78798071690657
 20
-38.3124114554817
 30
0.0
 11
-64.6290621070221
 21
-38.10530469086372
 31
0.0
  0
LINE
  5
3D4
330
1F
100
AcDbEntity
  8
0
100
AcDbLine
 10
-63.50853896281379
 20
-80.44491216801252
 30
0.0
 11
-76.42081335382653
 21
-80.44491216801252
 31
0.0
  0
LINE
  5
3D5
330
1F
100
AcDbEntity
  8
0
100
AcDbLine
 10
-81.50216816014108
 20
-23.00923913807036
 30
0.0
 11
-76.50217010717833
 21
-23.00530589886358
 31
0.0
  0
LINE
  5
3D6
330
1F
100
AcDbEntity
  8
0
100
AcDbLine
 10
-82.33456931222533
 20
-28.77809764317606
 30
0.0
 11
-82.04851581443333
 21
-28.40530546686365
 31
0.0
  0
LINE
  5
3D7
330
1F
100
AcDbEntity
  8
0
100
AcDbLine
 10
-84.07323566045217
 20
-29.24397188709068
 30
0.0
 11
-83.60736141653773
 21
-29.30530539486368
 31
0.0
  0
LINE
  5
3D8
330
1F
100
AcDbEntity
  8
0
100
AcDbLine
 10
-36.42081655382658
 20
-69.34491305601244
 30
0.0
 11
-36.35948304605345
 21
-69.81078729992707
 31
0.0
  0
LINE
  5
3D9
330
1F
100
AcDbEntity
  8
0
100
AcDbLine
 10
-36.35948304605345
 20
-68.87903881209783
 30
0.0
 11
-36.42081655382658
 21
-69.34491305601244
 31
0.0
  0
LINE
  5
3DA
330
1F
100
AcDbEntity
  8
0
100
AcDbLine
 10
-36.17966229993101
 20
-68.44491312801242
 30
0.0
 11
-36.35948304605345
 21
-68.87903881209783
 31
0.0
  0
LINE
  5
3DB
330
1F
100
AcDbEntity
  8
0
100
AcDbLine
 10
-33.34802459351404
 20
-70.61770516032489
 30
0.0
 11
-33.06197109572221
 21
-70.24491298401247
 31
0.0
  0
LINE
  5
3DC
330
1F
100
AcDbEntity
  8
0
100
AcDbLine
 10
-33.72081676982646
 20
-70.90375865811684
 30
0.0
 11
-33.34802459351404
 21
-70.61770516032489
 31
0.0
  0
LINE
  5
3DD
330
1F
100
AcDbEntity
  8
0
100
AcDbLine
 10
-34.15494245391181
 20
-71.0835794042395
 30
0.0
 11
-33.72081676982646
 21
-70.90375865811684
 31
0.0
  0
LINE
  5
3DE
330
1F
100
AcDbEntity
  8
0
100
AcDbLine
 10
-34.62081669782662
 20
-71.1449129120125
 30
0.0
 11
-34.15494245391181
 21
-71.0835794042395
 31
0.0
  0
LINE
  5
3DF
330
1F
100
AcDbEntity
  8
0
100
AcDbLine
 10
-77.620813257827
 20
-50.24491458401234
 30
0.0
 11
-85.62081261782707
 21
-50.24491458401234
 31
0.0
  0
LINE
  5
3E0
330
1F
100
AcDbEntity
  8
0
100
AcDbLine
 10
-85.62081261782707
 20
-73.84491269601246
 30
0.0
 11
-85.62081261782707
 21
-50.24491458401234
 31
0.0
  0
LINE
  5
3E1
330
1F
100
AcDbEntity
  8
0
100
AcDbLine
 10
-77.42081327382668
 20
-73.84491269601246
 30
0.0
 11
-85.62081261782707
 21
-73.84491269601246
 31
0.0
  0
LINE
  5
3E2
330
1F
100
AcDbEntity
  8
0
100
AcDbLine
 10
-79.60736173653784
 20
-2.805307514863485
 30
0.0
 11
-79.60736173653784
 21
-8.40530706686351
 31
0.0
  0
LINE
  5
3E3
330
1F
100
AcDbEntity
  8
0
100
AcDbLine
 10
-36.17966229993101
 20
-70.24491298401247
 30
0.0
 11
-35.89360880213901
 21
-70.61770516032489
 31
0.0
  0
LINE
  5
3E4
330
1F
100
AcDbEntity
  8
0
100
AcDbLine
 10
-36.35948304605345
 20
-69.81078729992707
 30
0.0
 11
-36.17966229993101
 21
-70.24491298401247
 31
0.0
  0
LINE
  5
3E5
330
1F
100
AcDbEntity
  8
0
100
AcDbLine
 10
-84.88015352085012
 20
-28.77809764317606
 30
0.0
 11
-84.5073613445379
 21
-29.06415114096801
 31
0.0
  0
LINE
  5
3E6
330
1F
100
AcDbEntity
  8
0
100
AcDbLine
 10
-50.57328988555237
 20
-2.546488490466472
 30
0.0
 11
-50.60736405653744
 21
-2.805307514863485
 31
0.0
  0
LINE
  5
3E7
330
1F
100
AcDbEntity
  8
0
100
AcDbLine
 10
-36.60736517653728
 20
-29.30530539486368
 30
0.0
 11
-36.14149093262266
 21
-29.24397188709068
 31
0.0
  0
LINE
  5
3E8
330
1F
100
AcDbEntity
  8
0
100
AcDbLine
 10
-44.20736456853813
 20
-32.00530517886367
 30
0.0
 11
-49.48990055705615
 21
-32.00530517886362
 31
0.0
  0
LINE
  5
3E9
330
1F
100
AcDbEntity
  8
0
100
AcDbLine
 10
-81.86869506831053
 20
-27.039431294949
 30
0.0
 11
-82.04851581443333
 21
-26.6053056108636
 31
0.0
  0
LINE
  5
3EA
330
1F
100
AcDbEntity
  8
0
100
AcDbLine
 10
-41.34854575214025
 20
-1.839381765848461
 30
0.0
 11
-41.60736477653744
 21
-1.80530759486348
 31
0.0
  0
LINE
  5
3EB
330
1F
100
AcDbEntity
  8
0
100
AcDbLine
 10
-65.49508744152446
 20
-38.60530465086369
 30
0.0
 11
-78.40736183253739
 21
-38.60530465086369
 31
0.0
  0
LINE
  5
3EC
330
1F
100
AcDbEntity
  8
0
100
AcDbLine
 10
-65.49508744152446
 20
-38.60530465086369
 30
0.0
 11
-65.23626841712763
 21
-38.57123047987871
 31
0.0
  0
LINE
  5
3ED
330
1F
100
AcDbEntity
  8
0
100
AcDbLine
 10
-64.99508748152456
 20
-38.4713300653661
 30
0.0
 11
-64.78798071690657
 21
-38.3124114554817
 31
0.0
  0
LINE
  5
3EE
330
1F
100
AcDbEntity
  8
0
100
AcDbLine
 10
-43.70736460853733
 20
-16.40530642686355
 30
0.0
 11
-43.70736460853733
 21
-23.00530589886358
 31
0.0
  0
LINE
  5
3EF
330
1F
100
AcDbEntity
  8
0
100
AcDbLine
 10
-44.17329039755305
 20
-37.8641237552607
 30
0.0
 11
-44.07338998304053
 21
-38.10530469086372
 31
0.0
  0
LINE
  5
3F0
330
1F
100
AcDbEntity
  8
0
100
AcDbLine
 10
-44.07338998304053
 20
-38.10530469086372
 30
0.0
 11
-43.91447137315605
 21
-38.3124114554817
 31
0.0
  0
LINE
  5
3F1
330
1F
100
AcDbEntity
  8
0
100
AcDbLine
 10
-43.91447137315605
 20
-38.3124114554817
 30
0.0
 11
-43.70736460853806
 21
-38.4713300653661
 31
0.0
  0
LINE
  5
3F2
330
1F
100
AcDbEntity
  8
0
100
AcDbLine
 10
-43.70736460853806
 20
-38.4713300653661
 30
0.0
 11
-43.466183672935
 21
-38.57123047987871
 31
0.0
  0
LINE
  5
3F3
330
1F
100
AcDbEntity
  8
0
100
AcDbLine
 10
-37.60736509653796
 20
-37.60530473086369
 30
0.0
 11
-37.64143926752303
 21
-37.8641237552607
 31
0.0
  0
LINE
  5
3F4
330
1F
100
AcDbEntity
  8
0
100
AcDbLine
 10
-32.60736549653726
 20
-8.40530706686351
 30
0.0
 11
-32.60736549653726
 21
-32.00530517886367
 31
0.0
  0
LINE
  5
3F5
330
1F
100
AcDbEntity
  8
0
100
AcDbLine
 10
-79.60736173653784
 20
-2.805307514863485
 30
0.0
 11
-79.57328756555277
 21
-2.546488490466472
 31
0.0
  0
LINE
  5
3F6
330
1F
100
AcDbEntity
  8
0
100
AcDbLine
 10
-79.40736175253753
 20
-32.00530517886362
 30
0.0
 11
-87.60736109653757
 21
-32.00530517886362
 31
0.0
  0
LINE
  5
3F7
330
1F
100
AcDbEntity
  8
0
100
AcDbLine
 10
-79.40736175253753
 20
-32.00530517886362
 30
0.0
 11
-79.40736175253753
 21
-37.60530473086369
 31
0.0
  0
LINE
  5
3F8
330
1F
100
AcDbEntity
  8
0
100
AcDbLine
 10
-79.27338716703974
 20
-38.10530469086372
 30
0.0
 11
-79.11446855715526
 21
-38.3124114554817
 31
0.0
  0
LINE
  5
3F9
330
1F
100
AcDbEntity
  8
0
100
AcDbLine
 10
-79.11446855715526
 20
-38.3124114554817
 30
0.0
 11
-78.90736179253729
 21
-38.4713300653661
 31
0.0
  0
LINE
  5
3FA
330
1F
100
AcDbEntity
  8
0
100
AcDbLine
 10
-78.90736179253729
 20
-38.4713300653661
 30
0.0
 11
-78.66618085693457
 21
-38.57123047987871
 31
0.0
  0
LINE
  5
3FB
330
1F
100
AcDbEntity
  8
0
100
AcDbLine
 10
-76.50736198453781
 20
-16.40530642686355
 30
0.0
 11
-81.50736003589394
 21
-16.40924170815972
 31
0.0
  0
LINE
  5
3FC
330
1F
100
AcDbEntity
  8
0
100
AcDbLine
 10
-84.07323566045217
 20
-25.76663919063656
 30
0.0
 11
-84.50736134453753
 21
-25.94645993675923
 31
0.0
  0
LINE
  5
3FD
330
1F
100
AcDbEntity
  8
0
100
AcDbLine
 10
-83.60736141653773
 20
-25.70530568286357
 30
0.0
 11
-84.07323566045217
 21
-25.76663919063656
 31
0.0
  0
LINE
  5
3FE
330
1F
100
AcDbEntity
  8
0
100
AcDbLine
 10
-82.33456931222533
 20
-26.23251343455119
 30
0.0
 11
-82.70736148853757
 21
-25.94645993675923
 31
0.0
  0
LINE
  5
3FF
330
1F
100
AcDbEntity
  8
0
100
AcDbLine
 10
-38.62081637782645
 20
-44.64491503201231
 30
0.0
 11
-38.62081637782645
 21
-50.24491458401234
 31
0.0
  0
LINE
  5
400
330
1F
100
AcDbEntity
  8
0
100
AcDbLine
 10
-87.60736109653757
 20
-32.00530517886362
 30
0.0
 11
-87.60736109653793
 21
-8.40530706686351
 31
0.0
  0
LINE
  5
401
330
1F
100
AcDbEntity
  8
0
100
AcDbLine
 10
-41.72081612982649
 20
-58.24491394401238
 30
0.0
 11
-41.72081612982649
 21
-64.8449134160124
 31
0.0
  0
LINE
  5
402
330
1F
100
AcDbEntity
  8
0
100
AcDbLine
 10
-37.88015728084986
 20
-28.77809764317606
 30
0.0
 11
-37.50736510453726
 21
-29.06415114096801
 31
0.0
  0
LINE
  5
403
330
1F
100
AcDbEntity
  8
0
100
AcDbLine
 10
-37.64143926752303
 20
-37.8641237552607
 30
0.0
 11
-37.74133968203574
 21
-38.10530469086372
 31
0.0
  0
LINE
  5
404
330
1F
100
AcDbEntity
  8
0
100
AcDbLine
 10
-85.16620701864213
 20
-26.6053056108636
 30
0.0
 11
-85.34602776476456
 21
-27.039431294949
 31
0.0
  0
LINE
  5
405
330
1F
100
AcDbEntity
  8
0
100
AcDbLine
 10
-37.07323942045191
 20
-25.76663919063656
 30
0.0
 11
-37.50736510453726
 21
-25.94645993675923
 31
0.0
  0
LINE
  5
406
330
1F
100
AcDbEntity
  8
0
100
AcDbLine
 10
-35.7073652485373
 20
-25.94645993675923
 30
0.0
 11
-36.14149093262266
 21
-25.76663919063656
 31
0.0
  0
LINE
  5
407
330
1F
100
AcDbEntity
  8
0
100
AcDbLine
 10
-35.04851957443289
 20
-26.6053056108636
 30
0.0
 11
-35.33457307222471
 21
-26.23251343455119
 31
0.0
  0
LINE
  5
408
330
1F
100
AcDbEntity
  8
0
100
AcDbLine
 10
-34.86869882831027
 20
-27.039431294949
 30
0.0
 11
-35.04851957443289
 21
-26.6053056108636
 31
0.0
  0
LINE
  5
409
330
1F
100
AcDbEntity
  8
0
100
AcDbLine
 10
-34.86869882831027
 20
-27.97117978277825
 30
0.0
 11
-34.80736532053714
 21
-27.50530553886362
 31
0.0
  0
LINE
  5
40A
330
1F
100
AcDbEntity
  8
0
100
AcDbLine
 10
-37.07323942045191
 20
-29.24397188709068
 30
0.0
 11
-36.60736517653728
 21
-29.30530539486368
 31
0.0
  0
LINE
  5
40B
330
1F
100
AcDbEntity
  8
0
100
AcDbLine
 10
-38.40736503253743
 20
-27.50530553886362
 30
0.0
 11
-38.3460315247643
 21
-27.97117978277825
 31
0.0
  0
LINE
  5
40C
330
1F
100
AcDbEntity
  8
0
100
AcDbLine
 10
-38.16621077864168
 20
-26.6053056108636
 30
0.0
 11
-38.3460315247643
 21
-27.039431294949
 31
0.0
  0
LINE
  5
40D
330
1F
100
AcDbEntity
  8
0
100
AcDbLine
 10
-37.50736510453726
 20
-29.06415114096801
 30
0.0
 11
-37.07323942045191
 21
-29.24397188709068
 31
0.0
  0
LINE
  5
40E
330
1F
100
AcDbEntity
  8
0
100
AcDbLine
 10
-63.24971993841678
 20
-80.41083799702754
 30
0.0
 11
-63.00853900281372
 21
-80.31093758251492
 31
0.0
  0
LINE
  5
40F
330
1F
100
AcDbEntity
  8
0
100
AcDbLine
 10
-38.6073650165381
 20
-38.60530465086369
 30
0.0
 11
-43.20736464853817
 21
-38.60530465086369
 31
0.0
  0
LINE
  5
410
330
1F
100
AcDbEntity
  8
0
100
AcDbLine
 10
-38.34854599214109
 20
-38.57123047987871
 30
0.0
 11
-38.6073650165381
 21
-38.60530465086369
 31
0.0
  0
LINE
  5
411
330
1F
100
AcDbEntity
  8
0
100
AcDbLine
 10
-41.10736481653737
 20
-1.939282180361078
 30
0.0
 11
-41.34854575214025
 21
-1.839381765848461
 31
0.0
  0
LINE
  5
412
330
1F
100
AcDbEntity
  8
0
100
AcDbLine
 10
-37.88015728084986
 20
-26.23251343455119
 30
0.0
 11
-38.16621077864168
 21
-26.6053056108636
 31
0.0
  0
LINE
  5
413
330
1F
100
AcDbEntity
  8
0
100
AcDbLine
 10
-69.9002557319198
 20
-2.098200790245473
 30
0.0
 11
-70.10736249653777
 21
-1.939282180361078
 31
0.0
  0
LINE
  5
414
330
1F
100
AcDbEntity
  8
0
100
AcDbLine
 10
-38.16621077864168
 20
-28.40530546686365
 30
0.0
 11
-37.88015728084986
 21
-28.77809764317606
 31
0.0
  0
LINE
  5
415
330
1F
100
AcDbEntity
  8
0
100
AcDbLine
 10
-69.60736253653752
 20
-8.40530706686351
 30
0.0
 11
-69.60736253653752
 21
-2.805307514863485
 31
0.0
  0
LINE
  5
416
330
1F
100
AcDbEntity
  8
0
100
AcDbLine
 10
-67.20736272853752
 20
-23.00530589886358
 30
0.0
 11
-67.20736272853752
 21
-16.40530642686355
 31
0.0
  0
LINE
  5
417
330
1F
100
AcDbEntity
  8
0
100
AcDbLine
 10
-35.91370981320938
 20
-80.15201897263053
 30
0.0
 11
-36.12081657782737
 21
-80.31093758251492
 31
0.0
  0
LINE
  5
418
330
1F
100
AcDbEntity
  8
0
100
AcDbLine
 10
-35.7547912033249
 20
-79.94491220801255
 30
0.0
 11
-35.91370981320938
 21
-80.15201897263053
 31
0.0
  0
LINE
  5
419
330
1F
100
AcDbEntity
  8
0
100
AcDbLine
 10
-35.65489078881237
 20
-79.70373127240953
 30
0.0
 11
-35.7547912033249
 21
-79.94491220801255
 31
0.0
  0
LINE
  5
41A
330
1F
100
AcDbEntity
  8
0
100
AcDbLine
 10
-35.62081661782729
 20
-79.44491224801251
 30
0.0
 11
-35.62081661782729
 21
-73.8449126960125
 31
0.0
  0
LINE
  5
41B
330
1F
100
AcDbEntity
  8
0
100
AcDbLine
 10
-30.6208170178266
 20
-50.24491458401234
 30
0.0
 11
-30.62081701782641
 21
-73.8449126960125
 31
0.0
  0
LINE
  5
41C
330
1F
100
AcDbEntity
  8
0
100
AcDbLine
 10
-38.62081637782645
 20
-44.64491503201231
 30
0.0
 11
-38.65489054881152
 21
-44.3860960076153
 31
0.0
  0
LINE
  5
41D
330
1F
100
AcDbEntity
  8
0
100
AcDbLine
 10
-48.62081557782677
 20
-44.64491503201231
 30
0.0
 11
-48.62081557782677
 21
-50.24491458401234
 31
0.0
  0
LINE
  5
41E
330
1F
100
AcDbEntity
  8
0
100
AcDbLine
 10
-67.62081405782686
 20
-44.64491503201231
 30
0.0
 11
-67.65488822881193
 21
-44.3860960076153
 31
0.0
  0
LINE
  5
41F
330
1F
100
AcDbEntity
  8
0
100
AcDbLine
 10
-67.65488822881193
 20
-44.3860960076153
 30
0.0
 11
-67.75478864332428
 21
-44.14491507201229
 31
0.0
  0
LINE
  5
420
330
1F
100
AcDbEntity
  8
0
100
AcDbLine
 10
-68.12081401782693
 20
-43.7788896975099
 30
0.0
 11
-68.36199495342998
 21
-43.67898928299729
 31
0.0
  0
LINE
  5
421
330
1F
100
AcDbEntity
  8
0
100
AcDbLine
 10
-77.3867391028416
 20
-79.70373127240953
 30
0.0
 11
-77.28683868832927
 21
-79.94491220801255
 31
0.0
  0
LINE
  5
422
330
1F
100
AcDbEntity
  8
0
100
AcDbLine
 10
-83.35947928605407
 20
-68.87903881209783
 30
0.0
 11
-83.42081279382684
 21
-69.34491305601244
 31
0.0
  0
LINE
  5
423
330
1F
100
AcDbEntity
  8
0
100
AcDbLine
 10
-83.17965853993128
 20
-68.44491312801242
 30
0.0
 11
-83.35947928605407
 21
-68.87903881209783
 31
0.0
  0
LINE
  5
424
330
1F
100
AcDbEntity
  8
0
100
AcDbLine
 10
-82.89360504213927
 20
-68.07212095170001
 30
0.0
 11
-83.17965853993128
 21
-68.44491312801242
 31
0.0
  0
LINE
  5
425
330
1F
100
AcDbEntity
  8
0
100
AcDbLine
 10
-35.89360880213901
 20
-68.07212095170001
 30
0.0
 11
-36.17966229993101
 21
-68.44491312801242
 31
0.0
  0
LINE
  5
426
330
1F
100
AcDbEntity
  8
0
100
AcDbLine
 10
-35.52081662582641
 20
-67.78606745390805
 30
0.0
 11
-35.89360880213901
 21
-68.07212095170001
 31
0.0
  0
LINE
  5
427
330
1F
100
AcDbEntity
  8
0
100
AcDbLine
 10
-35.08669094174106
 20
-67.60624670778539
 30
0.0
 11
-35.52081662582641
 21
-67.78606745390805
 31
0.0
  0
LINE
  5
428
330
1F
100
AcDbEntity
  8
0
100
AcDbLine
 10
-34.62081669782662
 20
-67.54491320001239
 30
0.0
 11
-35.08669094174106
 21
-67.60624670778539
 31
0.0
  0
LINE
  5
429
330
1F
100
AcDbEntity
  8
0
100
AcDbLine
 10
-34.15494245391181
 20
-67.60624670778539
 30
0.0
 11
-34.62081669782662
 21
-67.54491320001239
 31
0.0
  0
LINE
  5
42A
330
1F
100
AcDbEntity
  8
0
100
AcDbLine
 10
-33.72081676982646
 20
-67.78606745390805
 30
0.0
 11
-34.15494245391181
 21
-67.60624670778539
 31
0.0
  0
LINE
  5
42B
330
1F
100
AcDbEntity
  8
0
100
AcDbLine
 10
-77.28683868832927
 20
-79.94491220801255
 30
0.0
 11
-77.12792007844477
 21
-80.15201897263053
 31
0.0
  0
LINE
  5
42C
330
1F
100
AcDbEntity
  8
0
100
AcDbLine
 10
-77.12792007844477
 20
-80.15201897263053
 30
0.0
 11
-76.92081331382678
 21
-80.31093758251492
 31
0.0
  0
LINE
  5
42D
330
1F
100
AcDbEntity
  8
0
100
AcDbLine
 10
-84.88015352085012
 20
-26.23251343455119
 30
0.0
 11
-85.16620701864213
 21
-26.6053056108636
 31
0.0
  0
LINE
  5
42E
330
1F
100
AcDbEntity
  8
0
100
AcDbLine
 10
-85.34602776476456
 20
-27.039431294949
 30
0.0
 11
-85.4073612725377
 21
-27.50530553886362
 31
0.0
  0
LINE
  5
42F
330
1F
100
AcDbEntity
  8
0
100
AcDbLine
 10
-81.50736003589394
 20
-16.40924170815972
 30
0.0
 11
-81.50216816014108
 21
-23.00923913807036
 31
0.0
  0
LINE
  5
430
330
1F
100
AcDbEntity
  8
0
100
AcDbLine
 10
-36.14149093262266
 20
-29.24397188709068
 30
0.0
 11
-35.7073652485373
 21
-29.06415114096801
 31
0.0
  0
LINE
  5
431
330
1F
100
AcDbEntity
  8
0
100
AcDbLine
 10
-82.04851581443333
 20
-28.40530546686365
 30
0.0
 11
-81.86869506831053
 21
-27.97117978277825
 31
0.0
  0
LINE
  5
432
330
1F
100
AcDbEntity
  8
0
100
AcDbLine
 10
-83.14148717262293
 20
-25.76663919063656
 30
0.0
 11
-83.60736141653773
 21
-25.70530568286357
 31
0.0
  0
LINE
  5
433
330
1F
100
AcDbEntity
  8
0
100
AcDbLine
 10
-79.10736177653759
 20
-1.939282180361078
 30
0.0
 11
-78.8661808409349
 21
-1.839381765848461
 31
0.0
  0
LINE
  5
434
330
1F
100
AcDbEntity
  8
0
100
AcDbLine
 10
-40.90025805191939
 20
-2.098200790245473
 30
0.0
 11
-41.10736481653737
 21
-1.939282180361078
 31
0.0
  0
LINE
  5
435
330
1F
100
AcDbEntity
  8
0
100
AcDbLine
 10
-79.51561968143018
 20
-64.84884665521919
 30
0.0
 11
-74.51562162846784
 21
-64.8449134160124
 31
0.0
  0
LINE
  5
436
330
1F
100
AcDbEntity
  8
0
100
AcDbLine
 10
-79.5208115571834
 20
-58.24884922530855
 30
0.0
 11
-79.51561968143018
 21
-64.84884665521919
 31
0.0
  0
LINE
  5
437
330
1F
100
AcDbEntity
  8
0
100
AcDbLine
 10
-74.52081350582696
 20
-58.24491394401238
 30
0.0
 11
-79.5208115571834
 21
-58.24884922530855
 31
0.0
  0
LINE
  5
438
330
1F
100
AcDbEntity
  8
0
100
AcDbLine
 10
-82.52081286582704
 20
-67.78606745390805
 30
0.0
 11
-82.89360504213927
 21
-68.07212095170001
 31
0.0
  0
LINE
  5
439
330
1F
100
AcDbEntity
  8
0
100
AcDbLine
 10
-82.08668718174168
 20
-67.60624670778539
 30
0.0
 11
-82.52081286582704
 21
-67.78606745390805
 31
0.0
  0
LINE
  5
43A
330
1F
100
AcDbEntity
  8
0
100
AcDbLine
 10
-81.62081293782688
 20
-71.1449129120125
 30
0.0
 11
-81.15493869391238
 21
-71.0835794042395
 31
0.0
  0
LINE
  5
43B
330
1F
100
AcDbEntity
  8
0
100
AcDbLine
 10
-82.08668718174168
 20
-71.0835794042395
 30
0.0
 11
-81.62081293782688
 21
-71.1449129120125
 31
0.0
  0
LINE
  5
43C
330
1F
100
AcDbEntity
  8
0
100
AcDbLine
 10
-82.52081286582704
 20
-70.90375865811684
 30
0.0
 11
-82.08668718174168
 21
-71.0835794042395
 31
0.0
  0
LINE
  5
43D
330
1F
100
AcDbEntity
  8
0
100
AcDbLine
 10
-83.42081279382684
 20
-69.34491305601244
 30
0.0
 11
-83.35947928605407
 21
-69.81078729992707
 31
0.0
  0
LINE
  5
43E
330
1F
100
AcDbEntity
  8
0
100
AcDbLine
 10
-39.1208163378267
 20
-43.7788896975099
 30
0.0
 11
-39.36199727342958
 21
-43.67898928299729
 31
0.0
  0
LINE
  5
43F
330
1F
100
AcDbEntity
  8
0
100
AcDbLine
 10
-84.50736134453753
 20
-25.94645993675923
 30
0.0
 11
-84.88015352085012
 21
-26.23251343455119
 31
0.0
  0
LINE
  5
440
330
1F
100
AcDbEntity
  8
0
100
AcDbLine
 10
-36.14149093262266
 20
-25.76663919063656
 30
0.0
 11
-36.60736517653728
 21
-25.70530568286357
 31
0.0
  0
LINE
  5
441
330
1F
100
AcDbEntity
  8
0
100
AcDbLine
 10
-64.52916169250958
 20
-37.8641237552607
 30
0.0
 11
-64.4950875215245
 21
-37.60530473086369
 31
0.0
  0
LINE
  5
442
330
1F
100
AcDbEntity
  8
0
100
AcDbLine
 10
-83.14148717262293
 20
-29.24397188709068
 30
0.0
 11
-82.70736148853757
 21
-29.06415114096801
 31
0.0
  0
LINE
  5
443
330
1F
100
AcDbEntity
  8
0
100
AcDbLine
 10
-83.60736141653773
 20
-29.30530539486368
 30
0.0
 11
-83.14148717262293
 21
-29.24397188709068
 31
0.0
  0
LINE
  5
444
330
1F
100
AcDbEntity
  8
0
100
AcDbLine
 10
-85.16620701864213
 20
-28.40530546686365
 30
0.0
 11
-84.88015352085012
 21
-28.77809764317606
 31
0.0
  0
LINE
  5
445
330
1F
100
AcDbEntity
  8
0
100
AcDbLine
 10
-85.34602776476456
 20
-27.97117978277825
 30
0.0
 11
-85.16620701864213
 21
-28.40530546686365
 31
0.0
  0
LINE
  5
446
330
1F
100
AcDbEntity
  8
0
100
AcDbLine
 10
-85.4073612725377
 20
-27.50530553886362
 30
0.0
 11
-85.34602776476456
 21
-27.97117978277825
 31
0.0
  0
LINE
  5
447
330
1F
100
AcDbEntity
  8
0
100
AcDbLine
 10
-47.50335207834531
 20
-73.84491269601246
 30
0.0
 11
-47.50335207834531
 21
-64.8449134160124
 31
0.0
  0
LINE
  5
448
330
1F
100
AcDbEntity
  8
0
100
AcDbLine
 10
-62.80143223819574
 20
-80.15201897263053
 30
0.0
 11
-62.6425136283113
 21
-79.94491220801255
 31
0.0
  0
LINE
  5
449
330
1F
100
AcDbEntity
  8
0
100
AcDbLine
 10
-42.22081608982747
 20
-79.44491224801251
 30
0.0
 11
-42.22081608982747
 21
-73.8449126960125
 31
0.0
  0
LINE
  5
44A
330
1F
100
AcDbEntity
  8
0
100
AcDbLine
 10
-42.22081608982747
 20
-79.44491224801251
 30
0.0
 11
-42.18674191884239
 21
-79.70373127240953
 31
0.0
  0
LINE
  5
44B
330
1F
100
AcDbEntity
  8
0
100
AcDbLine
 10
-42.08684150432968
 20
-79.94491220801255
 30
0.0
 11
-41.9279228944452
 21
-80.15201897263053
 31
0.0
  0
LINE
  5
44C
330
1F
100
AcDbEntity
  8
0
100
AcDbLine
 10
-41.9279228944452
 20
-80.15201897263053
 30
0.0
 11
-41.72081612982721
 21
-80.31093758251492
 31
0.0
  0
LINE
  5
44D
330
1F
100
AcDbEntity
  8
0
100
AcDbLine
 10
-38.75479096332423
 20
-44.14491507201229
 30
0.0
 11
-38.91370957320871
 21
-43.9378083073943
 31
0.0
  0
LINE
  5
44E
330
1F
100
AcDbEntity
  8
0
100
AcDbLine
 10
-47.87963468222364
 20
-43.67898928299729
 30
0.0
 11
-48.12081561782652
 21
-43.7788896975099
 31
0.0
  0
LINE
  5
44F
330
1F
100
AcDbEntity
  8
0
100
AcDbLine
 10
-48.48684099232899
 20
-44.14491507201229
 30
0.0
 11
-48.5867414068417
 21
-44.3860960076153
 31
0.0
  0
LINE
  5
450
330
1F
100
AcDbEntity
  8
0
100
AcDbLine
 10
-81.62081293782688
 20
-67.54491320001239
 30
0.0
 11
-82.08668718174168
 21
-67.60624670778539
 31
0.0
  0
LINE
  5
451
330
1F
100
AcDbEntity
  8
0
100
AcDbLine
 10
-80.06196733572243
 20
-68.44491312801242
 30
0.0
 11
-80.34802083351444
 21
-68.07212095170001
 31
0.0
  0
LINE
  5
452
330
1F
100
AcDbEntity
  8
0
100
AcDbLine
 10
-79.8821465896
 20
-68.87903881209783
 30
0.0
 11
-80.06196733572243
 21
-68.44491312801242
 31
0.0
  0
LINE
  5
453
330
1F
100
AcDbEntity
  8
0
100
AcDbLine
 10
-79.82081308182687
 20
-69.34491305601244
 30
0.0
 11
-79.8821465896
 21
-68.87903881209783
 31
0.0
  0
LINE
  5
454
330
1F
100
AcDbEntity
  8
0
100
AcDbLine
 10
48.96406851531267
 20
-23.74991349286742
 30
0.0
 11
48.86184600235746
 21
-22.97345641967643
 31
0.0
  0
LINE
  5
455
330
1F
100
AcDbEntity
  8
0
100
AcDbLine
 10
54.02033331314858
 20
-20.8521362458224
 30
0.0
 11
53.98316593621151
 21
-20.85213624582235
 31
0.0
  0
LINE
  5
456
330
1F
100
AcDbEntity
  8
0
100
AcDbLine
 10
16.46266524012006
 20
58.94491388801944
 30
0.0
 11
16.08287756488213
 21
58.94491388801944
 31
0.0
  0
ENDSEC
  0
SECTION
  2
OBJECTS
  0
DICTIONARY
  5
C
330
0
100
AcDbDictionary
281
     1
  3
ACAD_GROUP
350
D
  3
ACAD_LAYOUT
350
1A
  3
ACAD_MATERIAL
350
3B
  3
ACAD_MLEADERSTYLE
350
458
  3
ACAD_MLINESTYLE
350
17
  3
ACAD_PLOTSETTINGS
350
19
  3
ACAD_PLOTSTYLENAME
350
E
  3
ACAD_TABLESTYLE
350
457
  3
ACAD_VISUALSTYLE
350
2A
  0
DICTIONARY
  5
D
102
{ACAD_REACTORS
330
C
102
}
330
C
100
AcDbDictionary
281
     1
  0
DICTIONARY
  5
1A
102
{ACAD_REACTORS
330
C
102
}
330
C
100
AcDbDictionary
281
     1
  3
Layout1
350
1E
  3
Layout2
350
26
  3
Model
350
22
  0
DICTIONARY
  5
3B
102
{ACAD_REACTORS
330
C
102
}
330
C
100
AcDbDictionary
281
     1
  3
ByBlock
350
3D
  3
ByLayer
350
3C
  3
Global
350
3E
  0
DICTIONARY
  5
458
102
{ACAD_REACTORS
330
C
102
}
330
C
100
AcDbDictionary
281
     1
  0
DICTIONARY
  5
17
102
{ACAD_REACTORS
330
C
102
}
330
C
100
AcDbDictionary
281
     1
  3
Standard
350
18
  0
DICTIONARY
  5
19
102
{ACAD_REACTORS
330
C
102
}
330
C
100
AcDbDictionary
281
     1
  0
ACDBDICTIONARYWDFLT
  5
E
102
{ACAD_REACTORS
330
C
102
}
330
C
100
AcDbDictionary
281
     1
  3
Normal
350
F
100
AcDbDictionaryWithDefault
340
F
  0
DICTIONARY
  5
457
102
{ACAD_REACTORS
330
C
102
}
330
C
100
AcDbDictionary
281
     1
  0
DICTIONARY
  5
2A
102
{ACAD_REACTORS
330
C
102
}
330
C
100
AcDbDictionary
281
     1
  3
2dWireframe
350
2F
  3
3D Hidden
350
31
  3
3dWireframe
350
30
  3
Basic
350
32
  3
Brighten
350
36
  3
ColorChange
350
3A
  3
Conceptual
350
34
  3
Dim
350
35
  3
Facepattern
350
39
  3
Flat
350
2B
  3
FlatWithEdges
350
2C
  3
Gouraud
350
2D
  3
GouraudWithEdges
350
2E
  3
Linepattern
350
38
  3
Realistic
350
33
  3
Thicken
350
37
  0
LAYOUT
  5
1E
102
{ACAD_REACTORS
330
1A
102
}
330
1A
100
AcDbPlotSettings
  1

  2
none_device
  4

  6

 40
0.0
 41
0.0
 42
0.0
 43
0.0
 44
0.0
 45
0.0
 46
0.0
 47
0.0
 48
0.0
 49
0.0
140
0.0
141
0.0
142
1.0
143
1.0
 70
   688
 72
     0
 73
     0
 74
     5
  7

 75
    16
 76
     0
 77
     2
 78
   300
147
1.0
148
0.0
149
0.0
100
AcDbLayout
  1
Layout1
 70
     1
 71
     1
 10
0.0
 20
0.0
 11
12.0
 21
9.0
 12
0.0
 22
0.0
 32
0.0
 14
1.000000000000000E+20
 24
1.000000000000000E+20
 34
1.000000000000000E+20
 15
-1.000000000000000E+20
 25
-1.000000000000000E+20
 35
-1.000000000000000E+20
146
0.0
 13
0.0
 23
0.0
 33
0.0
 16
1.0
 26
0.0
 36
0.0
 17
0.0
 27
1.0
 37
0.0
 76
     0
330
1B
  0
LAYOUT
  5
26
102
{ACAD_REACTORS
330
1A
102
}
330
1A
100
AcDbPlotSettings
  1

  2
none_device
  4

  6

 40
0.0
 41
0.0
 42
0.0
 43
0.0
 44
0.0
 45
0.0
 46
0.0
 47
0.0
 48
0.0
 49
0.0
140
0.0
141
0.0
142
1.0
143
1.0
 70
   688
 72
     0
 73
     0
 74
     5
  7

 75
    16
 76
     0
 77
     2
 78
   300
147
1.0
148
0.0
149
0.0
100
AcDbLayout
  1
Layout2
 70
     1
 71
     2
 10
0.0
 20
0.0
 11
0.0
 21
0.0
 12
0.0
 22
0.0
 32
0.0
 14
0.0
 24
0.0
 34
0.0
 15
0.0
 25
0.0
 35
0.0
146
0.0
 13
0.0
 23
0.0
 33
0.0
 16
1.0
 26
0.0
 36
0.0
 17
0.0
 27
1.0
 37
0.0
 76
     0
330
23
  0
LAYOUT
  5
22
102
{ACAD_REACTORS
330
1A
102
}
330
1A
100
AcDbPlotSettings
  1

  2
none_device
  4

  6

 40
0.0
 41
0.0
 42
0.0
 43
0.0
 44
0.0
 45
0.0
 46
0.0
 47
0.0
 48
0.0
 49
0.0
140
0.0
141
0.0
142
1.0
143
1.0
 70
  1712
 72
     0
 73
     0
 74
     0
  7

 75
     0
 76
     0
 77
     2
 78
   300
147
1.0
148
0.0
149
0.0
100
AcDbLayout
  1
Model
 70
     1
 71
     0
 10
0.0
 20
0.0
 11
12.0
 21
9.0
 12
0.0
 22
0.0
 32
0.0
 14
1.000000000000000E+20
 24
1.000000000000000E+20
 34
1.000000000000000E+20
 15
-1.000000000000000E+20
 25
-1.000000000000000E+20
 35
-1.000000000000000E+20
146
0.0
 13
0.0
 23
0.0
 33
0.0
 16
1.0
 26
0.0
 36
0.0
 17
0.0
 27
1.0
 37
0.0
 76
     0
330
1F
331
29
  0
MATERIAL
  5
3D
102
{ACAD_REACTORS
330
3B
102
}
330
3B
100
AcDbMaterial
  1
ByBlock
 72
     1
 94
      127
  0
MATERIAL
  5
3C
102
{ACAD_REACTORS
330
3B
102
}
330
3B
100
AcDbMaterial
  1
ByLayer
 72
     1
 94
      127
  0
MATERIAL
  5
3E
102
{ACAD_REACTORS
330
3B
102
}
330
3B
100
AcDbMaterial
  1
Global
 72
     1
 94
      127
  0
MLINESTYLE
  5
18
102
{ACAD_REACTORS
330
17
102
}
330
17
100
AcDbMlineStyle
  2
Standard
 70
     0
  3

 62
   256
 51
90.0
 52
90.0
 71
     2
 49
0.5
 62
   256
  6
BYLAYER
 49
-0.5
 62
   256
  6
BYLAYER
  0
ACDBPLACEHOLDER
  5
F
102
{ACAD_REACTORS
330
E
102
}
330
E
  0
VISUALSTYLE
  5
2F
102
{ACAD_REACTORS
330
2A
102
}
330
2A
100
AcDbVisualStyle
  2
2dWireframe
 70
     4
177
     2
291
     0
 71
     0
176
     1
 72
     2
176
     1
 73
     0
176
     1
 90
        0
176
     1
 40
-0.6
176
     1
 41
-30.0
176
     1
 62
     5
 63
     7
421
 16777215
176
     1
 74
     1
176
     1
 91
        4
176
     1
 64
     7
176
     1
 65
   257
176
     1
 75
     1
176
     1
175
     1
176
     1
 42
1.0
176
     1
 92
        0
176
     1
 66
   257
176
     1
 43
1.0
176
     1
 76
     1
176
     1
 77
     6
176
     1
 78
     2
176
     1
 67
     7
176
     1
 79
     5
176
     1
170
     0
176
     1
171
     0
176
     1
290
     0
176
     1
 93
        1
176
     1
 44
0.0
176
     1
173
     0
176
     1
  0
VISUALSTYLE
  5
31
102
{ACAD_REACTORS
330
2A
102
}
330
2A
100
AcDbVisualStyle
  2
3D Hidden
 70
     6
177
     2
291
     0
 71
     1
176
     1
 72
     2
176
     1
 73
     2
176
     1
 90
        0
176
     1
 40
-0.6
176
     1
 41
-30.0
176
     1
 62
     5
 63
     7
421
 16777215
176
     1
 74
     2
176
     1
 91
        2
176
     1
 64
     7
176
     1
 65
   257
176
     1
 75
     2
176
     1
175
     1
176
     1
 42
40.0
176
     1
 92
        0
176
     1
 66
   257
176
     1
 43
1.0
176
     1
 76
     1
176
     1
 77
     6
176
     1
 78
     2
176
     1
 67
     7
176
     1
 79
     3
176
     1
170
     0
176
     1
171
     0
176
     1
290
     0
176
     1
 93
        1
176
     1
 44
0.0
176
     1
173
     0
176
     1
  0
VISUALSTYLE
  5
30
102
{ACAD_REACTORS
330
2A
102
}
330
2A
100
AcDbVisualStyle
  2
3dWireframe
 70
     5
177
     2
291
     0
 71
     0
176
     1
 72
     2
176
     1
 73
     0
176
     1
 90
        0
176
     1
 40
-0.6
176
     1
 41
-30.0
176
     1
 62
     5
 63
     7
421
 16777215
176
     1
 74
     1
176
     1
 91
        4
176
     1
 64
     7
176
     1
 65
   257
176
     1
 75
     1
176
     1
175
     1
176
     1
 42
1.0
176
     1
 92
        0
176
     1
 66
   257
176
     1
 43
1.0
176
     1
 76
     1
176
     1
 77
     6
176
     1
 78
     2
176
     1
 67
     7
176
     1
 79
     5
176
     1
170
     0
176
     1
171
     0
176
     1
290
     0
176
     1
 93
        1
176
     1
 44
0.0
176
     1
173
     0
176
     1
  0
VISUALSTYLE
  5
32
102
{ACAD_REACTORS
330
2A
102
}
330
2A
100
AcDbVisualStyle
  2
Basic
 70
     7
177
     2
291
     1
 71
     1
176
     1
 72
     0
176
     1
 73
     1
176
     1
 90
        0
176
     1
 40
-0.6
176
     1
 41
-30.0
176
     1
 62
     5
 63
     7
421
 16777215
176
     1
 74
     0
176
     1
 91
        4
176
     1
 64
     7
176
     1
 65
   257
176
     1
 75
     1
176
     1
175
     1
176
     1
 42
1.0
176
     1
 92
        8
176
     1
 66
     7
176
     1
 43
1.0
176
     1
 76
     1
176
     1
 77
     6
176
     1
 78
     2
176
     1
 67
     7
176
     1
 79
     5
176
     1
170
     0
176
     1
171
     0
176
     1
290
     0
176
     1
 93
        1
176
     1
 44
0.0
176
     1
173
     0
176
     1
  0
VISUALSTYLE
  5
36
102
{ACAD_REACTORS
330
2A
102
}
330
2A
100
AcDbVisualStyle
  2
Brighten
 70
    12
177
     2
291
     1
 71
     2
176
     1
 72
     2
176
     1
 73
     0
176
     1
 90
        0
176
     1
 40
-0.6
176
     1
 41
-30.0
176
     1
 62
     5
 63
     7
421
 16777215
176
     1
 74
     1
176
     1
 91
        4
176
     1
 64
     7
176
     1
 65
   257
176
     1
 75
     1
176
     1
175
     1
176
     1
 42
1.0
176
     1
 92
        8
176
     1
 66
     7
176
     1
 43
1.0
176
     1
 76
     1
176
     1
 77
     6
176
     1
 78
     2
176
     1
 67
     7
176
     1
 79
     5
176
     1
170
     0
176
     1
171
     0
176
     1
290
     0
176
     1
 93
        1
176
     1
 44
50.0
176
     1
173
     0
176
     1
  0
VISUALSTYLE
  5
3A
102
{ACAD_REACTORS
330
2A
102
}
330
2A
100
AcDbVisualStyle
  2
ColorChange
 70
    16
177
     2
291
     1
 71
     2
176
     1
 72
     2
176
     1
 73
     3
176
     1
 90
        0
176
     1
 40
-0.6
176
     1
 41
-30.0
176
     1
 62
     5
 63
     8
421
  8421504
176
     1
 74
     1
176
     1
 91
        4
176
     1
 64
     7
176
     1
 65
   257
176
     1
 75
     1
176
     1
175
     1
176
     1
 42
1.0
176
     1
 92
        8
176
     1
 66
     8
424
  8421504
176
     1
 43
1.0
176
     1
 76
     1
176
     1
 77
     6
176
     1
 78
     2
176
     1
 67
     7
176
     1
 79
     5
176
     1
170
     0
176
     1
171
     0
176
     1
290
     0
176
     1
 93
        1
176
     1
 44
0.0
176
     1
173
     0
176
     1
  0
VISUALSTYLE
  5
34
102
{ACAD_REACTORS
330
2A
102
}
330
2A
100
AcDbVisualStyle
  2
Conceptual
 70
     9
177
     2
291
     0
 71
     3
176
     1
 72
     2
176
     1
 73
     0
176
     1
 90
        0
176
     1
 40
-0.6
176
     1
 41
-30.0
176
     1
 62
     5
 63
     7
421
 16777215
176
     1
 74
     2
176
     1
 91
        2
176
     1
 64
     7
176
     1
 65
   257
176
     1
 75
     1
176
     1
175
     1
176
     1
 42
40.0
176
     1
 92
        8
176
     1
 66
     7
176
     1
 43
1.0
176
     1
 76
     1
176
     1
 77
     6
176
     1
 78
     2
176
     1
 67
     7
176
     1
 79
     3
176
     1
170
     0
176
     1
171
     0
176
     1
290
     0
176
     1
 93
        1
176
     1
 44
0.0
176
     1
173
     0
176
     1
  0
VISUALSTYLE
  5
35
102
{ACAD_REACTORS
330
2A
102
}
330
2A
100
AcDbVisualStyle
  2
Dim
 70
    11
177
     2
291
     1
 71
     2
176
     1
 72
     2
176
     1
 73
     0
176
     1
 90
        0
176
     1
 40
-0.6
176
     1
 41
-30.0
176
     1
 62
     5
 63
     7
421
 16777215
176
     1
 74
     1
176
     1
 91
        4
176
     1
 64
     7
176
     1
 65
   257
176
     1
 75
     1
176
     1
175
     1
176
     1
 42
1.0
176
     1
 92
        8
176
     1
 66
     7
176
     1
 43
1.0
176
     1
 76
     1
176
     1
 77
     6
176
     1
 78
     2
176
     1
 67
     7
176
     1
 79
     5
176
     1
170
     0
176
     1
171
     0
176
     1
290
     0
176
     1
 93
        1
176
     1
 44
-50.0
176
     1
173
     0
176
     1
  0
VISUALSTYLE
  5
39
102
{ACAD_REACTORS
330
2A
102
}
330
2A
100
AcDbVisualStyle
  2
Facepattern
 70
    15
177
     2
291
     1
 71
     2
176
     1
 72
     2
176
     1
 73
     0
176
     1
 90
        0
176
     1
 40
-0.6
176
     1
 41
-30.0
176
     1
 62
     5
 63
     7
421
 16777215
176
     1
 74
     1
176
     1
 91
        4
176
     1
 64
     7
176
     1
 65
   257
176
     1
 75
     1
176
     1
175
     1
176
     1
 42
1.0
176
     1
 92
        8
176
     1
 66
     7
176
     1
 43
1.0
176
     1
 76
     1
176
     1
 77
     6
176
     1
 78
     2
176
     1
 67
     7
176
     1
 79
     5
176
     1
170
     0
176
     1
171
     0
176
     1
290
     0
176
     1
 93
        1
176
     1
 44
0.0
176
     1
173
     0
176
     1
  0
VISUALSTYLE
  5
2B
102
{ACAD_REACTORS
330
2A
102
}
330
2A
100
AcDbVisualStyle
  2
Flat
 70
     0
177
     2
291
     1
 71
     2
176
     1
 72
     1
176
     1
 73
     1
176
     1
 90
        2
176
     1
 40
-0.6
176
     1
 41
30.0
176
     1
 62
     5
 63
     7
421
 16777215
176
     1
 74
     0
176
     1
 91
        4
176
     1
 64
     7
176
     1
 65
   257
176
     1
 75
     1
176
     1
175
     1
176
     1
 42
1.0
176
     1
 92
        8
176
     1
 66
     7
176
     1
 43
1.0
176
     1
 76
     1
176
     1
 77
     6
176
     1
 78
     2
176
     1
 67
     7
176
     1
 79
     5
176
     1
170
     0
176
     1
171
     0
176
     1
290
     0
176
     1
 93
       13
176
     1
 44
0.0
176
     1
173
     0
176
     1
  0
VISUALSTYLE
  5
2C
102
{ACAD_REACTORS
330
2A
102
}
330
2A
100
AcDbVisualStyle
  2
FlatWithEdges
 70
     1
177
     2
291
     1
 71
     2
176
     1
 72
     1
176
     1
 73
     1
176
     1
 90
        2
176
     1
 40
-0.6
176
     1
 41
30.0
176
     1
 62
     5
 63
     7
421
 16777215
176
     1
 74
     1
176
     1
 91
        4
176
     1
 64
     7
176
     1
 65
   257
176
     1
 75
     1
176
     1
175
     1
176
     1
 42
1.0
176
     1
 92
        0
176
     1
 66
   257
176
     1
 43
1.0
176
     1
 76
     1
176
     1
 77
     6
176
     1
 78
     2
176
     1
 67
     7
176
     1
 79
     5
176
     1
170
     0
176
     1
171
     0
176
     1
290
     0
176
     1
 93
       13
176
     1
 44
0.0
176
     1
173
     0
176
     1
  0
VISUALSTYLE
  5
2D
102
{ACAD_REACTORS
330
2A
102
}
330
2A
100
AcDbVisualStyle
  2
Gouraud
 70
     2
177
     2
291
     1
 71
     2
176
     1
 72
     2
176
     1
 73
     1
176
     1
 90
        2
176
     1
 40
-0.6
176
     1
 41
30.0
176
     1
 62
     5
 63
     7
421
 16777215
176
     1
 74
     0
176
     1
 91
        4
176
     1
 64
     7
176
     1
 65
   257
176
     1
 75
     1
176
     1
175
     1
176
     1
 42
1.0
176
     1
 92
        0
176
     1
 66
     7
176
     1
 43
1.0
176
     1
 76
     1
176
     1
 77
     6
176
     1
 78
     2
176
     1
 67
     7
176
     1
 79
     5
176
     1
170
     0
176
     1
171
     0
176
     1
290
     0
176
     1
 93
       13
176
     1
 44
0.0
176
     1
173
     0
176
     1
  0
VISUALSTYLE
  5
2E
102
{ACAD_REACTORS
330
2A
102
}
330
2A
100
AcDbVisualStyle
  2
GouraudWithEdges
 70
     3
177
     2
291
     1
 71
     2
176
     1
 72
     2
176
     1
 73
     1
176
     1
 90
        2
176
     1
 40
-0.6
176
     1
 41
30.0
176
     1
 62
     5
 63
     7
421
 16777215
176
     1
 74
     1
176
     1
 91
        4
176
     1
 64
     7
176
     1
 65
   257
176
     1
 75
     1
176
     1
175
     1
176
     1
 42
1.0
176
     1
 92
        0
176
     1
 66
   257
176
     1
 43
1.0
176
     1
 76
     1
176
     1
 77
     6
176
     1
 78
     2
176
     1
 67
     7
176
     1
 79
     5
176
     1
170
     0
176
     1
171
     0
176
     1
290
     0
176
     1
 93
       13
176
     1
 44
0.0
176
     1
173
     0
176
     1
  0
VISUALSTYLE
  5
38
102
{ACAD_REACTORS
330
2A
102
}
330
2A
100
AcDbVisualStyle
  2
Linepattern
 70
    14
177
     2
291
     1
 71
     2
176
     1
 72
     2
176
     1
 73
     0
176
     1
 90
        0
176
     1
 40
-0.6
176
     1
 41
-30.0
176
     1
 62
     5
 63
     7
421
 16777215
176
     1
 74
     1
176
     1
 91
        4
176
     1
 64
     7
176
     1
 65
   257
176
     1
 75
     7
176
     1
175
     7
176
     1
 42
1.0
176
     1
 92
        8
176
     1
 66
     7
176
     1
 43
1.0
176
     1
 76
     1
176
     1
 77
     6
176
     1
 78
     2
176
     1
 67
     7
176
     1
 79
     5
176
     1
170
     0
176
     1
171
     0
176
     1
290
     0
176
     1
 93
        1
176
     1
 44
0.0
176
     1
173
     0
176
     1
  0
VISUALSTYLE
  5
33
102
{ACAD_REACTORS
330
2A
102
}
330
2A
100
AcDbVisualStyle
  2
Realistic
 70
     8
177
     2
291
     0
 71
     2
176
     1
 72
     2
176
     1
 73
     0
176
     1
 90
        0
176
     1
 40
-0.6
176
     1
 41
-30.0
176
     1
 62
     5
 63
     7
421
 16777215
176
     1
 74
     1
176
     1
 91
        0
176
     1
 64
     7
176
     1
 65
   257
176
     1
 75
     1
176
     1
175
     1
176
     1
 42
1.0
176
     1
 92
        8
176
     1
 66
     8
424
  7895160
176
     1
 43
1.0
176
     1
 76
     1
176
     1
 77
     6
176
     1
 78
     2
176
     1
 67
     7
176
     1
 79
     5
176
     1
170
     0
176
     1
171
     0
176
     1
290
     0
176
     1
 93
       13
176
     1
 44
0.0
176
     1
173
     0
176
     1
  0
VISUALSTYLE
  5
37
102
{ACAD_REACTORS
330
2A
102
}
330
2A
100
AcDbVisualStyle
  2
Thicken
 70
    13
177
     2
291
     1
 71
     2
176
     1
 72
     2
176
     1
 73
     0
176
     1
 90
        0
176
     1
 40
-0.6
176
     1
 41
-30.0
176
     1
 62
     5
 63
     7
421
 16777215
176
     1
 74
     1
176
     1
 91
        4
176
     1
 64
     7
176
     1
 65
   257
176
     1
 75
     1
176
     1
175
     1
176
     1
 42
1.0
176
     1
 92
       12
176
     1
 66
     7
176
     1
 43
1.0
176
     1
 76
     1
176
     1
 77
     6
176
     1
 78
     2
176
     1
 67
     7
176
     1
 79
     5
176
     1
170
     0
176
     1
171
     0
176
     1
290
     0
176
     1
 93
        1
176
     1
 44
0.0
176
     1
173
     0
176
     1
  0
ENDSEC
  0
EOF
