  0
SECTION
  2
HEADER
  9
$ACADVER
  1
AC1024
  9
$ACADMAINTVER
 70
     6
  9
$DWGCODEPAGE
  3
ANSI_1252
  9
$INSBASE
 10
0.0
 20
0.0
 30
0.0
  9
$EXTMIN
 10
1.000000000000000E+20
 20
1.000000000000000E+20
 30
1.000000000000000E+20
  9
$EXTMAX
 10
-1.000000000000000E+20
 20
-1.000000000000000E+20
 30
-1.000000000000000E+20
  9
$LIMMIN
 10
0.0
 20
0.0
  9
$LIMMAX
 10
12.0
 20
9.0
  9
$ORTHOMODE
 70
     0
  9
$REGENMODE
 70
     1
  9
$FILLMODE
 70
     1
  9
$QTEXTMODE
 70
     0
  9
$MIRRTEXT
 70
     1
  9
$LTSCALE
 40
1.0
  9
$ATTMODE
 70
     1
  9
$TEXTSIZE
 40
0.2
  9
$TRACEWID
 40
0.05
  9
$TEXTSTYLE
  7
Standard
  9
$CLAYER
  8
0
  9
$CELTYPE
  6
ByLayer
  9
$CECOLOR
 62
   256
  9
$CELTSCALE
 40
1.0
  9
$DISPSILH
 70
     0
  9
$DIMSCALE
 40
1.0
  9
$DIMASZ
 40
0.18
  9
$DIMEXO
 40
0.0625
  9
$DIMDLI
 40
0.38
  9
$DIMRND
 40
0.0
  9
$DIMDLE
 40
0.0
  9
$DIMEXE
 40
0.18
  9
$DIMTP
 40
0.0
  9
$DIMTM
 40
0.0
  9
$DIMTXT
 40
0.18
  9
$DIMCEN
 40
0.09
  9
$DIMTSZ
 40
0.0
  9
$DIMTOL
 70
     0
  9
$DIMLIM
 70
     0
  9
$DIMTIH
 70
     1
  9
$DIMTOH
 70
     1
  9
$DIMSE1
 70
     0
  9
$DIMSE2
 70
     0
  9
$DIMTAD
 70
     0
  9
$DIMZIN
 70
     0
  9
$DIMBLK
  1

  9
$DIMASO
 70
     1
  9
$DIMSHO
 70
     1
  9
$DIMPOST
  1

  9
$DIMAPOST
  1

  9
$DIMALT
 70
     0
  9
$DIMALTD
 70
     2
  9
$DIMALTF
 40
25.4
  9
$DIMLFAC
 40
1.0
  9
$DIMTOFL
 70
     0
  9
$DIMTVP
 40
0.0
  9
$DIMTIX
 70
     0
  9
$DIMSOXD
 70
     0
  9
$DIMSAH
 70
     0
  9
$DIMBLK1
  1

  9
$DIMBLK2
  1

  9
$DIMSTYLE
  2
Standard
  9
$DIMCLRD
 70
     0
  9
$DIMCLRE
 70
     0
  9
$DIMCLRT
 70
     0
  9
$DIMTFAC
 40
1.0
  9
$DIMGAP
 40
0.09
  9
$DIMJUST
 70
     0
  9
$DIMSD1
 70
     0
  9
$DIMSD2
 70
     0
  9
$DIMTOLJ
 70
     1
  9
$DIMTZIN
 70
     0
  9
$DIMALTZ
 70
     0
  9
$DIMALTTZ
 70
     0
  9
$DIMUPT
 70
     0
  9
$DIMDEC
 70
     4
  9
$DIMTDEC
 70
     4
  9
$DIMALTU
 70
     2
  9
$DIMALTTD
 70
     2
  9
$DIMTXSTY
  7
Standard
  9
$DIMAUNIT
 70
     0
  9
$DIMADEC
 70
     0
  9
$DIMALTRND
 40
0.0
  9
$DIMAZIN
 70
     0
  9
$DIMDSEP
 70
    46
  9
$DIMATFIT
 70
     3
  9
$DIMFRAC
 70
     0
  9
$DIMLDRBLK
  1

  9
$DIMLUNIT
 70
     2
  9
$DIMLWD
 70
    -2
  9
$DIMLWE
 70
    -2
  9
$DIMTMOVE
 70
     0
  9
$DIMFXL
 40
1.0
  9
$DIMFXLON
 70
     0
  9
$DIMJOGANG
 40
0.7853981633974483
  9
$DIMTFILL
 70
     0
  9
$DIMTFILLCLR
 70
     0
  9
$DIMARCSYM
 70
     0
  9
$DIMLTYPE
  6

  9
$DIMLTEX1
  6

  9
$DIMLTEX2
  6

  9
$DIMTXTDIRECTION
 70
     0
  9
$LUNITS
 70
     2
  9
$LUPREC
 70
     4
  9
$SKETCHINC
 40
0.1
  9
$FILLETRAD
 40
0.5
  9
$AUNITS
 70
     0
  9
$AUPREC
 70
     0
  9
$MENU
  1
.
  9
$ELEVATION
 40
0.0
  9
$PELEVATION
 40
0.0
  9
$THICKNESS
 40
0.0
  9
$LIMCHECK
 70
     0
  9
$CHAMFERA
 40
0.5
  9
$CHAMFERB
 40
0.5
  9
$CHAMFERC
 40
1.0
  9
$CHAMFERD
 40
0.0
  9
$SKPOLY
 70
     0
  9
$TDCREATE
 40
2456396.423024132
  9
$TDUCREATE
 40
2456396.589690798
  9
$TDUPDATE
 40
2456396.423024144
  9
$TDUUPDATE
 40
2456396.58969081
  9
$TDINDWG
 40
0.0000000116
  9
$TDUSRTIMER
 40
0.0000000116
  9
$USRTIMER
 70
     1
  9
$ANGBASE
 50
0.0
  9
$ANGDIR
 70
     0
  9
$PDMODE
 70
     0
  9
$PDSIZE
 40
0.0
  9
$PLINEWID
 40
0.0
  9
$SPLFRAME
 70
     0
  9
$SPLINETYPE
 70
     6
  9
$SPLINESEGS
 70
     8
  9
$HANDSEED
  5
40E
  9
$SURFTAB1
 70
     6
  9
$SURFTAB2
 70
     6
  9
$SURFTYPE
 70
     6
  9
$SURFU
 70
     6
  9
$SURFV
 70
     6
  9
$UCSBASE
  2

  9
$UCSNAME
  2

  9
$UCSORG
 10
0.0
 20
0.0
 30
0.0
  9
$UCSXDIR
 10
1.0
 20
0.0
 30
0.0
  9
$UCSYDIR
 10
0.0
 20
1.0
 30
0.0
  9
$UCSORTHOREF
  2

  9
$UCSORTHOVIEW
 70
     0
  9
$UCSORGTOP
 10
0.0
 20
0.0
 30
0.0
  9
$UCSORGBOTTOM
 10
0.0
 20
0.0
 30
0.0
  9
$UCSORGLEFT
 10
0.0
 20
0.0
 30
0.0
  9
$UCSORGRIGHT
 10
0.0
 20
0.0
 30
0.0
  9
$UCSORGFRONT
 10
0.0
 20
0.0
 30
0.0
  9
$UCSORGBACK
 10
0.0
 20
0.0
 30
0.0
  9
$PUCSBASE
  2

  9
$PUCSNAME
  2

  9
$PUCSORG
 10
0.0
 20
0.0
 30
0.0
  9
$PUCSXDIR
 10
1.0
 20
0.0
 30
0.0
  9
$PUCSYDIR
 10
0.0
 20
1.0
 30
0.0
  9
$PUCSORTHOREF
  2

  9
$PUCSORTHOVIEW
 70
     0
  9
$PUCSORGTOP
 10
0.0
 20
0.0
 30
0.0
  9
$PUCSORGBOTTOM
 10
0.0
 20
0.0
 30
0.0
  9
$PUCSORGLEFT
 10
0.0
 20
0.0
 30
0.0
  9
$PUCSORGRIGHT
 10
0.0
 20
0.0
 30
0.0
  9
$PUCSORGFRONT
 10
0.0
 20
0.0
 30
0.0
  9
$PUCSORGBACK
 10
0.0
 20
0.0
 30
0.0
  9
$USERI1
 70
     0
  9
$USERI2
 70
     0
  9
$USERI3
 70
     0
  9
$USERI4
 70
     0
  9
$USERI5
 70
     0
  9
$USERR1
 40
0.0
  9
$USERR2
 40
0.0
  9
$USERR3
 40
0.0
  9
$USERR4
 40
0.0
  9
$USERR5
 40
0.0
  9
$WORLDVIEW
 70
     1
  9
$SHADEDGE
 70
     3
  9
$SHADEDIF
 70
    70
  9
$TILEMODE
 70
     1
  9
$MAXACTVP
 70
    64
  9
$PINSBASE
 10
0.0
 20
0.0
 30
0.0
  9
$PLIMCHECK
 70
     0
  9
$PEXTMIN
 10
1.000000000000000E+20
 20
1.000000000000000E+20
 30
1.000000000000000E+20
  9
$PEXTMAX
 10
-1.000000000000000E+20
 20
-1.000000000000000E+20
 30
-1.000000000000000E+20
  9
$PLIMMIN
 10
0.0
 20
0.0
  9
$PLIMMAX
 10
12.0
 20
9.0
  9
$UNITMODE
 70
     0
  9
$VISRETAIN
 70
     1
  9
$PLINEGEN
 70
     0
  9
$PSLTSCALE
 70
     1
  9
$TREEDEPTH
 70
  3020
  9
$CMLSTYLE
  2
Standard
  9
$CMLJUST
 70
     0
  9
$CMLSCALE
 40
1.0
  9
$PROXYGRAPHICS
 70
     1
  9
$MEASUREMENT
 70
     0
  9
$CELWEIGHT
370
    -1
  9
$ENDCAPS
280
     0
  9
$JOINSTYLE
280
     0
  9
$LWDISPLAY
290
     0
  9
$INSUNITS
 70
     1
  9
$HYPERLINKBASE
  1

  9
$STYLESHEET
  1

  9
$XEDIT
290
     1
  9
$CEPSNTYPE
380
     0
  9
$PSTYLEMODE
290
     1
  9
$FINGERPRINTGUID
  2
{702F0A88-6764-4104-A6C7-20A09159CCF4}
  9
$VERSIONGUID
  2
{FAEB1C32-E019-11D5-929B-00C0DF256EC4}
  9
$EXTNAMES
290
     1
  9
$PSVPSCALE
 40
0.0
  9
$OLESTARTUP
290
     0
  9
$SORTENTS
280
   127
  9
$INDEXCTL
280
     0
  9
$HIDETEXT
280
     1
  9
$XCLIPFRAME
280
     2
  9
$HALOGAP
280
     0
  9
$OBSCOLOR
 70
   257
  9
$OBSLTYPE
280
     0
  9
$INTERSECTIONDISPLAY
280
     0
  9
$INTERSECTIONCOLOR
 70
   257
  9
$DIMASSOC
280
     2
  9
$PROJECTNAME
  1

  9
$CAMERADISPLAY
290
     0
  9
$LENSLENGTH
 40
50.0
  9
$CAMERAHEIGHT
 40
0.0
  9
$STEPSPERSEC
 40
2.0
  9
$STEPSIZE
 40
6.0
  9
$3DDWFPREC
 40
2.0
  9
$PSOLWIDTH
 40
0.25
  9
$PSOLHEIGHT
 40
4.0
  9
$LOFTANG1
 40
1.570796326794897
  9
$LOFTANG2
 40
1.570796326794897
  9
$LOFTMAG1
 40
0.0
  9
$LOFTMAG2
 40
0.0
  9
$LOFTPARAM
 70
     7
  9
$LOFTNORMALS
280
     1
  9
$LATITUDE
 40
37.795
  9
$LONGITUDE
 40
-122.394
  9
$NORTHDIRECTION
 40
0.0
  9
$TIMEZONE
 70
 -8000
  9
$LIGHTGLYPHDISPLAY
280
     1
  9
$TILEMODELIGHTSYNCH
280
     1
  9
$SOLIDHIST
280
     1
  9
$SHOWHIST
280
     1
  9
$DWFFRAME
280
     2
  9
$DGNFRAME
280
     2
  9
$REALWORLDSCALE
290
     1
  9
$INTERFERECOLOR
 62
   256
  9
$CSHADOW
280
     0
  9
$SHADOWPLANELOCATION
 40
0.0
  0
ENDSEC
  0
SECTION
  2
CLASSES
  0
CLASS
  1
ACDBDICTIONARYWDFLT
  2
AcDbDictionaryWithDefault
  3
ObjectDBX Classes
 90
        0
 91
        4
280
     0
281
     0
  0
CLASS
  1
VISUALSTYLE
  2
AcDbVisualStyle
  3
ObjectDBX Classes
 90
     4095
 91
        4
280
     0
281
     0
  0
CLASS
  1
MATERIAL
  2
AcDbMaterial
  3
ObjectDBX Classes
 90
     1153
 91
        4
280
     0
281
     0
  0
ENDSEC
  0
SECTION
  2
TABLES
  0
TABLE
  2
VPORT
  5
8
330
0
100
AcDbSymbolTable
 70
     1
  0
VPORT
  5
29
330
8
100
AcDbSymbolTableRecord
100
AcDbViewportTableRecord
  2
*Active
 70
     0
 10
0.0
 20
0.0
 11
1.0
 21
1.0
 12
0.0
 22
0.0
 13
0.0
 23
0.0
 14
0.5
 24
0.5
 15
0.5
 25
0.5
 16
0.0
 26
0.0
 36
1.0
 17
0.0
 27
0.0
 37
-1000.0
 40
258.183384568587
 41
1.822857142857143
 42
50.0
 43
3985.455138884457
 44
4899.051834179137
 50
0.0
 51
0.0
 71
     0
 72
   100
 73
     1
 74
     3
 75
     0
 76
     0
 77
     0
 78
     0
281
     0
 65
     1
110
0.0
120
0.0
130
0.0
111
1.0
121
0.0
131
0.0
112
0.0
122
1.0
132
0.0
 79
     0
146
0.0
 60
     3
 61
     5
292
     1
282
     1
141
0.0
142
0.0
 63
   250
  0
ENDTAB
  0
TABLE
  2
LTYPE
  5
5
330
0
100
AcDbSymbolTable
 70
     1
  0
LTYPE
  5
14
330
5
100
AcDbSymbolTableRecord
100
AcDbLinetypeTableRecord
  2
ByBlock
 70
     0
  3

 72
    65
 73
     0
 40
0.0
  0
LTYPE
  5
15
330
5
100
AcDbSymbolTableRecord
100
AcDbLinetypeTableRecord
  2
ByLayer
 70
     0
  3

 72
    65
 73
     0
 40
0.0
  0
LTYPE
  5
16
330
5
100
AcDbSymbolTableRecord
100
AcDbLinetypeTableRecord
  2
Continuous
 70
     0
  3
Solid line
 72
    65
 73
     0
 40
0.0
  0
ENDTAB
  0
TABLE
  2
LAYER
  5
2
330
0
100
AcDbSymbolTable
 70
     3
  0
LAYER
  5
10
330
2
100
AcDbSymbolTableRecord
100
AcDbLayerTableRecord
  2
0
 70
     0
 62
     7
  6
Continuous
370
    -3
390
F
347
3E
  0
LAYER
  5
3F
330
2
100
AcDbSymbolTableRecord
100
AcDbLayerTableRecord
  2
ProfileEdges
 70
     0
 62
     7
  6
Continuous
370
    -3
390
F
347
3E
  0
LAYER
  5
40
330
2
100
AcDbSymbolTableRecord
100
AcDbLayerTableRecord
  2
SectionCutEdges
 70
     0
 62
     7
  6
Continuous
370
    -3
390
F
347
3E
  0
ENDTAB
  0
TABLE
  2
STYLE
  5
3
330
0
100
AcDbSymbolTable
 70
     1
  0
STYLE
  5
11
330
3
100
AcDbSymbolTableRecord
100
AcDbTextStyleTableRecord
  2
Standard
 70
     0
 40
0.0
 41
1.0
 50
0.0
 71
     0
 42
0.2
  3
txt
  4

  0
ENDTAB
  0
TABLE
  2
VIEW
  5
6
330
0
100
AcDbSymbolTable
 70
     0
  0
ENDTAB
  0
TABLE
  2
UCS
  5
7
330
0
100
AcDbSymbolTable
 70
     0
  0
ENDTAB
  0
TABLE
  2
APPID
  5
9
330
0
100
AcDbSymbolTable
 70
     1
  0
APPID
  5
12
330
9
100
AcDbSymbolTableRecord
100
AcDbRegAppTableRecord
  2
ACAD
 70
     0
  0
ENDTAB
  0
TABLE
  2
DIMSTYLE
  5
A
330
0
100
AcDbSymbolTable
 70
     1
100
AcDbDimStyleTable
  0
DIMSTYLE
105
27
330
A
100
AcDbSymbolTableRecord
100
AcDbDimStyleTableRecord
  2
Standard
 70
     0
340
11
  0
ENDTAB
  0
TABLE
  2
BLOCK_RECORD
  5
1
330
0
100
AcDbSymbolTable
 70
     1
  0
BLOCK_RECORD
  5
1F
330
1
100
AcDbSymbolTableRecord
100
AcDbBlockTableRecord
  2
*Model_Space
340
22
 70
     0
280
     1
281
     0
  0
BLOCK_RECORD
  5
1B
330
1
100
AcDbSymbolTableRecord
100
AcDbBlockTableRecord
  2
*Paper_Space
340
1E
 70
     0
280
     1
281
     0
  0
BLOCK_RECORD
  5
23
330
1
100
AcDbSymbolTableRecord
100
AcDbBlockTableRecord
  2
*Paper_Space0
340
26
 70
     0
280
     1
281
     0
  0
ENDTAB
  0
ENDSEC
  0
SECTION
  2
BLOCKS
  0
BLOCK
  5
20
330
1F
100
AcDbEntity
  8
0
100
AcDbBlockBegin
  2
*Model_Space
 70
     0
 10
0.0
 20
0.0
 30
0.0
  3
*Model_Space
  1

  0
ENDBLK
  5
21
330
1F
100
AcDbEntity
  8
0
100
AcDbBlockEnd
  0
BLOCK
  5
1C
330
1B
100
AcDbEntity
 67
     1
  8
0
100
AcDbBlockBegin
  2
*Paper_Space
 70
     0
 10
0.0
 20
0.0
 30
0.0
  3
*Paper_Space
  1

  0
ENDBLK
  5
1D
330
1B
100
AcDbEntity
 67
     1
  8
0
100
AcDbBlockEnd
  0
BLOCK
  5
24
330
23
100
AcDbEntity
  8
0
100
AcDbBlockBegin
  2
*Paper_Space0
 70
     0
 10
0.0
 20
0.0
 30
0.0
  3
*Paper_Space0
  1

  0
ENDBLK
  5
25
330
23
100
AcDbEntity
  8
0
100
AcDbBlockEnd
  0
ENDSEC
  0
SECTION
  2
ENTITIES
  0
LINE
  5
41
330
1F
100
AcDbEntity
  8
0
100
AcDbLine
 10
-93.8250443390219
 20
15.53495678217797
 30
0.0
 11
-87.62504483502182
 21
15.53495678217797
 31
0.0
  0
LINE
  5
42
330
1F
100
AcDbEntity
  8
0
100
AcDbLine
 10
-87.62504483502182
 20
15.53495678217797
 30
0.0
 11
-87.21093439598661
 21
15.58947545575409
 31
0.0
  0
LINE
  5
43
330
1F
100
AcDbEntity
  8
0
100
AcDbLine
 10
-45.98087179994211
 20
-20.87516486384702
 30
0.0
 11
-45.90923282113783
 21
-20.41076367195079
 31
0.0
  0
LINE
  5
44
330
1F
100
AcDbEntity
  8
0
100
AcDbLine
 10
-45.92987386670702
 20
-21.34228350094525
 30
0.0
 11
-45.98087179994211
 21
-20.87516486384702
 31
0.0
  0
LINE
  5
45
330
1F
100
AcDbEntity
  8
0
100
AcDbLine
 10
-45.75971444630459
 20
-21.7802862200773
 30
0.0
 11
-45.92987386670702
 21
-21.34228350094525
 31
0.0
  0
LINE
  5
46
330
1F
100
AcDbEntity
  8
0
100
AcDbLine
 10
-45.48198962203335
 20
-22.15932385976797
 30
0.0
 11
-45.75971444630459
 21
-21.7802862200773
 31
0.0
  0
LINE
  5
47
330
1F
100
AcDbEntity
  8
0
100
AcDbLine
 10
12.26401037569999
 20
22.83769935278026
 30
0.0
 11
11.89776326067755
 21
22.54331242872199
 31
0.0
  0
LINE
  5
48
330
1F
100
AcDbEntity
  8
0
100
AcDbLine
 10
12.54158498032866
 20
23.21684701423158
 30
0.0
 11
12.26401037569999
 21
22.83769935278026
 31
0.0
  0
LINE
  5
49
330
1F
100
AcDbEntity
  8
0
100
AcDbLine
 10
12.7115708239718
 20
23.65491712651915
 30
0.0
 11
12.54158498032866
 21
23.21684701423158
 31
0.0
  0
LINE
  5
4A
330
1F
100
AcDbEntity
  8
0
100
AcDbLine
 10
12.76238365229994
 20
24.1220559354357
 30
0.0
 11
12.7115708239718
 21
23.65491712651915
 31
0.0
  0
LINE
  5
4B
330
1F
100
AcDbEntity
  8
0
100
AcDbLine
 10
12.69056065503481
 20
24.58642870313711
 30
0.0
 11
12.76238365229994
 21
24.1220559354357
 31
0.0
  0
LINE
  5
4C
330
1F
100
AcDbEntity
  8
0
100
AcDbLine
 10
12.50099645074693
 20
25.01638919291658
 30
0.0
 11
12.69056065503481
 21
24.58642870313711
 31
0.0
  0
LINE
  5
4D
330
1F
100
AcDbEntity
  8
0
100
AcDbLine
 10
12.20660952668866
 20
25.38263630793902
 30
0.0
 11
12.50099645074693
 21
25.01638919291658
 31
0.0
  0
LINE
  5
4E
330
1F
100
AcDbEntity
  8
0
100
AcDbLine
 10
11.82746186523734
 20
25.66021091256768
 30
0.0
 11
12.20660952668866
 21
25.38263630793902
 31
0.0
  0
LINE
  5
4F
330
1F
100
AcDbEntity
  8
0
100
AcDbLine
 10
-13.31490477240326
 20
45.64626194242987
 30
0.0
 11
-2.40263022139043
 21
45.64626194242987
 31
0.0
  0
LINE
  5
50
330
1F
100
AcDbEntity
  8
0
100
AcDbLine
 10
-41.20262711738962
 20
46.64626186242992
 30
0.0
 11
-41.20262711738962
 21
52.24626141442995
 31
0.0
  0
LINE
  5
51
330
1F
100
AcDbEntity
  8
0
100
AcDbLine
 10
-41.20262711738962
 20
46.64626186242992
 30
0.0
 11
-41.16855294640472
 21
46.38744283803291
 31
0.0
  0
LINE
  5
52
330
1F
100
AcDbEntity
  8
0
100
AcDbLine
 10
-41.16855294640472
 20
46.38744283803291
 30
0.0
 11
-41.06865253189202
 21
46.14626190242994
 31
0.0
  0
LINE
  5
53
330
1F
100
AcDbEntity
  8
0
100
AcDbLine
 10
-41.06865253189202
 20
46.14626190242994
 30
0.0
 11
-40.90973392200772
 21
45.93915513781196
 31
0.0
  0
LINE
  5
54
330
1F
100
AcDbEntity
  8
0
100
AcDbLine
 10
-40.90973392200772
 20
45.93915513781196
 30
0.0
 11
-40.70262715738973
 21
45.78023652792747
 31
0.0
  0
LINE
  5
55
330
1F
100
AcDbEntity
  8
0
100
AcDbLine
 10
-40.70262715738973
 20
45.78023652792747
 30
0.0
 11
-40.46144622178667
 21
45.68033611341495
 31
0.0
  0
LINE
  5
56
330
1F
100
AcDbEntity
  8
0
100
AcDbLine
 10
-10.04189225573564
 20
17.13495665415917
 30
0.0
 11
-10.22171300185844
 21
17.56908233824453
 31
0.0
  0
LINE
  5
57
330
1F
100
AcDbEntity
  8
0
100
AcDbLine
 10
-9.755838757943819
 20
16.76216447784676
 30
0.0
 11
-10.04189225573564
 21
17.13495665415917
 31
0.0
  0
LINE
  5
58
330
1F
100
AcDbEntity
  8
0
100
AcDbLine
 10
36.30976624024881
 20
-77.88089286724001
 30
0.0
 11
36.06858530464574
 21
-77.98079328175254
 31
0.0
  0
LINE
  5
59
330
1F
100
AcDbEntity
  8
0
100
AcDbLine
 10
6.841309435916595
 20
-65.51486845273757
 30
0.0
 11
6.841309435916595
 21
-77.01486753273755
 31
0.0
  0
LINE
  5
5A
330
1F
100
AcDbEntity
  8
0
100
AcDbLine
 10
11.84130903591657
 20
-65.51486845273757
 30
0.0
 11
6.841309435916595
 21
-65.51486845273757
 31
0.0
  0
LINE
  5
5B
330
1F
100
AcDbEntity
  8
0
100
AcDbLine
 10
12.84130895591671
 20
-60.5148688527375
 30
0.0
 11
30.80976668024857
 21
-60.5148688527375
 31
0.0
  0
LINE
  5
5C
330
1F
100
AcDbEntity
  8
0
100
AcDbLine
 10
12.5824899315197
 20
-60.54894302372258
 30
0.0
 11
12.84130895591671
 21
-60.5148688527375
 31
0.0
  0
LINE
  5
5D
330
1F
100
AcDbEntity
  8
0
100
AcDbLine
 10
12.34130899591682
 20
-60.6488434382351
 30
0.0
 11
12.5824899315197
 21
-60.54894302372258
 31
0.0
  0
LINE
  5
5E
330
1F
100
AcDbEntity
  8
0
100
AcDbLine
 10
12.13420223129884
 20
-60.80776204811959
 30
0.0
 11
12.34130899591682
 21
-60.6488434382351
 31
0.0
  0
LINE
  5
5F
330
1F
100
AcDbEntity
  8
0
100
AcDbLine
 10
11.97528362141435
 20
-61.01486881273757
 30
0.0
 11
12.13420223129884
 21
-60.80776204811959
 31
0.0
  0
LINE
  5
60
330
1F
100
AcDbEntity
  8
0
100
AcDbLine
 10
11.87538320690165
 20
-61.25604974834054
 30
0.0
 11
11.97528362141435
 21
-61.01486881273757
 31
0.0
  0
LINE
  5
61
330
1F
100
AcDbEntity
  8
0
100
AcDbLine
 10
11.84130903591657
 20
-61.51486877273755
 30
0.0
 11
11.87538320690165
 21
-61.25604974834054
 31
0.0
  0
LINE
  5
62
330
1F
100
AcDbEntity
  8
0
100
AcDbLine
 10
11.84130903591657
 20
-65.51486845273757
 30
0.0
 11
11.84130903591657
 21
-61.51486877273755
 31
0.0
  0
LINE
  5
63
330
1F
100
AcDbEntity
  8
0
100
AcDbLine
 10
6.875383606901667
 20
-77.27368655713457
 30
0.0
 11
6.841309435916595
 21
-77.01486753273755
 31
0.0
  0
LINE
  5
64
330
1F
100
AcDbEntity
  8
0
100
AcDbLine
 10
6.975284021414193
 20
-77.51486749273754
 30
0.0
 11
6.875383606901667
 21
-77.27368655713457
 31
0.0
  0
LINE
  5
65
330
1F
100
AcDbEntity
  8
0
100
AcDbLine
 10
7.134202631298679
 20
-77.72197425735551
 30
0.0
 11
6.975284021414193
 21
-77.51486749273754
 31
0.0
  0
LINE
  5
66
330
1F
100
AcDbEntity
  8
0
100
AcDbLine
 10
7.341309395916666
 20
-77.88089286724001
 30
0.0
 11
7.134202631298679
 21
-77.72197425735551
 31
0.0
  0
LINE
  5
67
330
1F
100
AcDbEntity
  8
0
100
AcDbLine
 10
7.582490331519543
 20
-77.98079328175254
 30
0.0
 11
7.341309395916666
 21
-77.88089286724001
 31
0.0
  0
LINE
  5
68
330
1F
100
AcDbEntity
  8
0
100
AcDbLine
 10
7.841309355916736
 20
-78.0148674527376
 30
0.0
 11
7.582490331519543
 21
-77.98079328175254
 31
0.0
  0
LINE
  5
69
330
1F
100
AcDbEntity
  8
0
100
AcDbLine
 10
7.841309355916736
 20
-78.0148674527376
 30
0.0
 11
12.7097731243627
 21
-78.0148674527376
 31
0.0
  0
LINE
  5
6A
330
1F
100
AcDbEntity
  8
0
100
AcDbLine
 10
12.96859214875971
 20
-77.98079328175254
 30
0.0
 11
12.7097731243627
 21
-78.0148674527376
 31
0.0
  0
LINE
  5
6B
330
1F
100
AcDbEntity
  8
0
100
AcDbLine
 10
13.20977308436277
 20
-77.88089286724001
 30
0.0
 11
12.96859214875971
 21
-77.98079328175254
 31
0.0
  0
LINE
  5
6C
330
1F
100
AcDbEntity
  8
0
100
AcDbLine
 10
13.41687984898075
 20
-77.72197425735551
 30
0.0
 11
13.20977308436277
 21
-77.88089286724001
 31
0.0
  0
LINE
  5
6D
330
1F
100
AcDbEntity
  8
0
100
AcDbLine
 10
13.57579845886524
 20
-77.51486749273754
 30
0.0
 11
13.41687984898075
 21
-77.72197425735551
 31
0.0
  0
LINE
  5
6E
330
1F
100
AcDbEntity
  8
0
100
AcDbLine
 10
13.67569887337759
 20
-77.27368655713457
 30
0.0
 11
13.57579845886524
 21
-77.51486749273754
 31
0.0
  0
LINE
  5
6F
330
1F
100
AcDbEntity
  8
0
100
AcDbLine
 10
13.70977304436266
 20
-77.01486753273755
 30
0.0
 11
13.67569887337759
 21
-77.27368655713457
 31
0.0
  0
LINE
  5
70
330
1F
100
AcDbEntity
  8
0
100
AcDbLine
 10
13.70977304436266
 20
-77.01486753273755
 30
0.0
 11
13.70977304436266
 21
-73.01486785273754
 31
0.0
  0
LINE
  5
71
330
1F
100
AcDbEntity
  8
0
100
AcDbLine
 10
13.70977304436266
 20
-73.01486785273754
 30
0.0
 11
29.90976675224877
 21
-73.01486785273754
 31
0.0
  0
LINE
  5
72
330
1F
100
AcDbEntity
  8
0
100
AcDbLine
 10
29.90976675224877
 20
-73.01486785273754
 30
0.0
 11
29.90976675224877
 21
-77.01486753273755
 31
0.0
  0
LINE
  5
73
330
1F
100
AcDbEntity
  8
0
100
AcDbLine
 10
29.90976675224877
 20
-77.01486753273755
 30
0.0
 11
29.94384092323384
 21
-77.27368655713457
 31
0.0
  0
LINE
  5
74
330
1F
100
AcDbEntity
  8
0
100
AcDbLine
 10
29.94384092323384
 20
-77.27368655713457
 30
0.0
 11
30.04374133774637
 21
-77.51486749273754
 31
0.0
  0
LINE
  5
75
330
1F
100
AcDbEntity
  8
0
100
AcDbLine
 10
30.04374133774637
 20
-77.51486749273754
 30
0.0
 11
30.20265994763085
 21
-77.72197425735551
 31
0.0
  0
LINE
  5
76
330
1F
100
AcDbEntity
  8
0
100
AcDbLine
 10
30.20265994763085
 20
-77.72197425735551
 30
0.0
 11
30.40976671224884
 21
-77.88089286724001
 31
0.0
  0
LINE
  5
77
330
1F
100
AcDbEntity
  8
0
100
AcDbLine
 10
30.40976671224884
 20
-77.88089286724001
 30
0.0
 11
30.65094764785172
 21
-77.98079328175254
 31
0.0
  0
LINE
  5
78
330
1F
100
AcDbEntity
  8
0
100
AcDbLine
 10
30.65094764785172
 20
-77.98079328175254
 30
0.0
 11
30.90976667224891
 21
-78.0148674527376
 31
0.0
  0
LINE
  5
79
330
1F
100
AcDbEntity
  8
0
100
AcDbLine
 10
30.90976667224891
 20
-78.0148674527376
 30
0.0
 11
35.80976628024873
 21
-78.0148674527376
 31
0.0
  0
LINE
  5
7A
330
1F
100
AcDbEntity
  8
0
100
AcDbLine
 10
36.06858530464574
 20
-77.98079328175254
 30
0.0
 11
35.80976628024873
 21
-78.0148674527376
 31
0.0
  0
LINE
  5
7B
330
1F
100
AcDbEntity
  8
0
100
AcDbLine
 10
36.51687300486679
 20
-77.72197425735551
 30
0.0
 11
36.30976624024881
 21
-77.88089286724001
 31
0.0
  0
LINE
  5
7C
330
1F
100
AcDbEntity
  8
0
100
AcDbLine
 10
36.67579161475128
 20
-77.51486749273754
 30
0.0
 11
36.51687300486679
 21
-77.72197425735551
 31
0.0
  0
LINE
  5
7D
330
1F
100
AcDbEntity
  8
0
100
AcDbLine
 10
36.77569202926362
 20
-77.27368655713457
 30
0.0
 11
36.67579161475128
 21
-77.51486749273754
 31
0.0
  0
LINE
  5
7E
330
1F
100
AcDbEntity
  8
0
100
AcDbLine
 10
36.80976620024869
 20
-77.01486753273755
 30
0.0
 11
36.77569202926362
 21
-77.27368655713457
 31
0.0
  0
LINE
  5
7F
330
1F
100
AcDbEntity
  8
0
100
AcDbLine
 10
36.80976620024869
 20
-77.01486753273755
 30
0.0
 11
36.80976620024869
 21
-65.51486845273757
 31
0.0
  0
LINE
  5
80
330
1F
100
AcDbEntity
  8
0
100
AcDbLine
 10
31.80976660024871
 20
-65.51486845273757
 30
0.0
 11
36.80976620024869
 21
-65.51486845273757
 31
0.0
  0
LINE
  5
81
330
1F
100
AcDbEntity
  8
0
100
AcDbLine
 10
31.80976660024871
 20
-61.51486877273755
 30
0.0
 11
31.80976660024871
 21
-65.51486845273757
 31
0.0
  0
LINE
  5
82
330
1F
100
AcDbEntity
  8
0
100
AcDbLine
 10
31.80976660024871
 20
-61.51486877273755
 30
0.0
 11
31.77569242926364
 21
-61.25604974834054
 31
0.0
  0
LINE
  5
83
330
1F
100
AcDbEntity
  8
0
100
AcDbLine
 10
31.77569242926364
 20
-61.25604974834054
 30
0.0
 11
31.67579201475112
 21
-61.01486881273757
 31
0.0
  0
LINE
  5
84
330
1F
100
AcDbEntity
  8
0
100
AcDbLine
 10
31.67579201475112
 20
-61.01486881273757
 30
0.0
 11
31.51687340486663
 21
-60.80776204811959
 31
0.0
  0
LINE
  5
85
330
1F
100
AcDbEntity
  8
0
100
AcDbLine
 10
31.51687340486663
 20
-60.80776204811959
 30
0.0
 11
31.30976664024864
 21
-60.6488434382351
 31
0.0
  0
LINE
  5
86
330
1F
100
AcDbEntity
  8
0
100
AcDbLine
 10
31.30976664024864
 20
-60.6488434382351
 30
0.0
 11
31.06858570464577
 21
-60.54894302372258
 31
0.0
  0
LINE
  5
87
330
1F
100
AcDbEntity
  8
0
100
AcDbLine
 10
31.06858570464577
 20
-60.54894302372258
 30
0.0
 11
30.80976668024857
 21
-60.5148688527375
 31
0.0
  0
LINE
  5
88
330
1F
100
AcDbEntity
  8
0
100
AcDbLine
 10
-46.91498397827375
 20
-67.66405799994942
 30
0.0
 11
-46.54219180196116
 21
-67.37800450215751
 31
0.0
  0
LINE
  5
89
330
1F
100
AcDbEntity
  8
0
100
AcDbLine
 10
-44.74219194596119
 20
-67.37800450215751
 30
0.0
 11
-44.3693997696486
 21
-67.66405799994942
 31
0.0
  0
LINE
  5
8A
330
1F
100
AcDbEntity
  8
0
100
AcDbLine
 10
-44.3693997696486
 20
-67.66405799994942
 30
0.0
 11
-44.08334627185678
 21
-68.03685017626184
 31
0.0
  0
LINE
  5
8B
330
1F
100
AcDbEntity
  8
0
100
AcDbLine
 10
-44.08334627185678
 20
-68.03685017626184
 30
0.0
 11
-43.90352552573416
 21
-68.47097586034728
 31
0.0
  0
LINE
  5
8C
330
1F
100
AcDbEntity
  8
0
100
AcDbLine
 10
-43.84219201796103
 20
-68.93685010426191
 30
0.0
 11
-43.90352552573416
 21
-69.40272434817653
 31
0.0
  0
LINE
  5
8D
330
1F
100
AcDbEntity
  8
0
100
AcDbLine
 10
-44.74219194596119
 20
-70.4956957063663
 30
0.0
 11
-45.17631763004655
 21
-70.675516452489
 31
0.0
  0
LINE
  5
8E
330
1F
100
AcDbEntity
  8
0
100
AcDbLine
 10
-45.64219187396117
 20
-70.73684996026196
 30
0.0
 11
-46.10806611787579
 21
-70.675516452489
 31
0.0
  0
LINE
  5
8F
330
1F
100
AcDbEntity
  8
0
100
AcDbLine
 10
-64.42504669102155
 20
17.13495665417798
 30
0.0
 11
-64.37052801744561
 21
16.72084621514276
 31
0.0
  0
LINE
  5
90
330
1F
100
AcDbEntity
  8
0
100
AcDbLine
 10
-44.34929875857787
 20
-79.74395602087999
 30
0.0
 11
-44.14219199395988
 21
-79.90287463076439
 31
0.0
  0
LINE
  5
91
330
1F
100
AcDbEntity
  8
0
100
AcDbLine
 10
10.69361481296384
 20
-38.72442242368404
 30
0.0
 11
10.79351522747619
 21
-38.48324148808108
 31
0.0
  0
LINE
  5
92
330
1F
100
AcDbEntity
  8
0
100
AcDbLine
 10
5.793515627476213
 20
-54.98324016808105
 30
0.0
 11
5.693615212963686
 21
-54.74205923247808
 31
0.0
  0
LINE
  5
93
330
1F
100
AcDbEntity
  8
0
100
AcDbLine
 10
29.72799827831075
 20
-55.48324012808111
 30
0.0
 11
29.46917925391392
 21
-55.44916595709604
 31
0.0
  0
LINE
  5
94
330
1F
100
AcDbEntity
  8
0
100
AcDbLine
 10
29.8868173107076
 20
-38.01731569906607
 30
0.0
 11
29.62799828631077
 21
-37.983241528081
 31
0.0
  0
LINE
  5
95
330
1F
100
AcDbEntity
  8
0
100
AcDbLine
 10
-17.46157633359147
 20
-79.74395602087999
 30
0.0
 11
-17.62049494347577
 21
-79.536849256262
 31
0.0
  0
LINE
  5
96
330
1F
100
AcDbEntity
  8
0
100
AcDbLine
 10
-17.62049494347577
 20
-79.536849256262
 30
0.0
 11
-17.72039535798848
 21
-79.29566832065899
 31
0.0
  0
LINE
  5
97
330
1F
100
AcDbEntity
  8
0
100
AcDbLine
 10
-17.72039535798848
 20
-79.29566832065899
 30
0.0
 11
-17.75446952897337
 21
-79.03684929626198
 31
0.0
  0
LINE
  5
98
330
1F
100
AcDbEntity
  8
0
100
AcDbLine
 10
2.49563926786757
 20
61.24248206043725
 30
0.0
 11
-2.307822106749386
 21
61.24626069442994
 31
0.0
  0
LINE
  5
99
330
1F
100
AcDbEntity
  8
0
100
AcDbLine
 10
-45.11562588171136
 20
25.62348142757701
 30
0.0
 11
-44.68559030878613
 21
25.81287524040559
 31
0.0
  0
LINE
  5
9A
330
1F
100
AcDbEntity
  8
0
100
AcDbLine
 10
-45.48198962203786
 20
25.3292396560819
 30
0.0
 11
-45.11562588171136
 21
25.62348142757701
 31
0.0
  0
LINE
  5
9B
330
1F
100
AcDbEntity
  8
0
100
AcDbLine
 10
-45.75971444630765
 20
24.95020201639014
 30
0.0
 11
-45.48198962203786
 21
25.3292396560819
 31
0.0
  0
LINE
  5
9C
330
1F
100
AcDbEntity
  8
0
100
AcDbLine
 10
-94.95641509841059
 20
-14.99641162521074
 30
0.0
 11
-94.6250442750219
 21
-15.25068140102559
 31
0.0
  0
LINE
  5
9D
330
1F
100
AcDbEntity
  8
0
100
AcDbLine
 10
-9.383046581631408
 20
16.47611098005484
 30
0.0
 11
-9.755838757943819
 21
16.76216447784676
 31
0.0
  0
LINE
  5
9E
330
1F
100
AcDbEntity
  8
0
100
AcDbLine
 10
-8.017172409716803
 20
-13.12637443761396
 30
0.0
 11
-7.583046725631444
 21
-13.30619518373662
 31
0.0
  0
LINE
  5
9F
330
1F
100
AcDbEntity
  8
0
100
AcDbLine
 10
-8.017172409716803
 20
-16.6037071340679
 30
0.0
 11
-8.483046653631424
 21
-16.66504064184089
 31
0.0
  0
LINE
  5
A0
330
1F
100
AcDbEntity
  8
0
100
AcDbLine
 10
-6.92420105152721
 20
-15.76504071384091
 30
0.0
 11
-7.210254549319031
 21
-16.13783289015332
 31
0.0
  0
LINE
  5
A1
330
1F
100
AcDbEntity
  8
0
100
AcDbLine
 10
-10.22171300185844
 20
17.56908233824453
 30
0.0
 11
-10.28304650963139
 21
18.03495658215915
 31
0.0
  0
LINE
  5
A2
330
1F
100
AcDbEntity
  8
0
100
AcDbLine
 10
-94.98130961489016
 20
-31.76503943382041
 30
0.0
 11
-84.58131044689011
 21
-31.76503943382032
 31
0.0
  0
LINE
  5
A3
330
1F
100
AcDbEntity
  8
0
100
AcDbLine
 10
109.7758276968527
 20
-36.49360389478296
 30
0.0
 11
109.7758276968527
 21
41.5349547021582
 31
0.0
  0
LINE
  5
A4
330
1F
100
AcDbEntity
  8
0
100
AcDbLine
 10
61.07756171159467
 20
-36.49360389478301
 30
0.0
 11
109.7758276968527
 21
-36.49360389478296
 31
0.0
  0
LINE
  5
A5
330
1F
100
AcDbEntity
  8
0
100
AcDbLine
 10
61.07756171159467
 20
41.53495470215815
 30
0.0
 11
61.07756171159467
 21
-36.49360389478301
 31
0.0
  0
LINE
  5
A6
330
1F
100
AcDbEntity
  8
0
100
AcDbLine
 10
77.96009927017124
 20
-23.41502995069975
 30
0.0
 11
88.96009339405742
 21
-23.41502995069948
 31
0.0
  0
LINE
  5
A7
330
1F
100
AcDbEntity
  8
0
100
AcDbLine
 10
88.96009339405742
 20
-23.41502995069948
 30
0.0
 11
88.96009339405796
 21
26.58494574701793
 31
0.0
  0
LINE
  5
A8
330
1F
100
AcDbEntity
  8
0
100
AcDbLine
 10
88.96009339405796
 20
26.58494574701793
 30
0.0
 11
77.96009927017197
 21
26.58494574701793
 31
0.0
  0
LINE
  5
A9
330
1F
100
AcDbEntity
  8
0
100
AcDbLine
 10
77.96009927017197
 20
26.58494574701793
 30
0.0
 11
77.96009927017124
 21
-23.41502995069975
 31
0.0
  0
LINE
  5
AA
330
1F
100
AcDbEntity
  8
0
100
AcDbLine
 10
65.87756132759469
 20
-31.56503944984081
 30
0.0
 11
65.87756132759469
 21
-24.96503997784077
 31
0.0
  0
LINE
  5
AB
330
1F
100
AcDbEntity
  8
0
100
AcDbLine
 10
-55.07956611659757
 20
-14.27915130485701
 30
0.0
 11
-55.02504744302146
 21
-13.86504086582189
 31
0.0
  0
LINE
  5
AC
330
1F
100
AcDbEntity
  8
0
100
AcDbLine
 10
-55.02504744302146
 20
-13.86504086582189
 30
0.0
 11
-55.07956611659757
 21
-13.45093042678703
 31
0.0
  0
LINE
  5
AD
330
1F
100
AcDbEntity
  8
0
100
AcDbLine
 10
-55.07956611659757
 20
-13.45093042678703
 30
0.0
 11
-55.23940677981776
 21
-13.06504092982206
 31
0.0
  0
LINE
  5
AE
330
1F
100
AcDbEntity
  8
0
100
AcDbLine
 10
-55.23940677981776
 20
-13.06504092982206
 30
0.0
 11
-55.49367655563278
 21
-12.73367010643312
 31
0.0
  0
LINE
  5
AF
330
1F
100
AcDbEntity
  8
0
100
AcDbLine
 10
-2.702630197390183
 20
81.44625907843009
 30
0.0
 11
-2.702630197390183
 21
75.84625952643006
 31
0.0
  0
LINE
  5
B0
330
1F
100
AcDbEntity
  8
0
100
AcDbLine
 10
-37.46144646178752
 20
82.41218482744506
 30
0.0
 11
-37.2026274373905
 21
82.44625899843014
 31
0.0
  0
LINE
  5
B1
330
1F
100
AcDbEntity
  8
0
100
AcDbLine
 10
-2.702630197390183
 20
81.44625907843009
 30
0.0
 11
-2.736704368375074
 21
81.7050781028271
 31
0.0
  0
LINE
  5
B2
330
1F
100
AcDbEntity
  8
0
100
AcDbLine
 10
-2.736704368375074
 20
81.7050781028271
 30
0.0
 11
-2.836604782887781
 21
81.94625903843007
 31
0.0
  0
LINE
  5
B3
330
1F
100
AcDbEntity
  8
0
100
AcDbLine
 10
-2.836604782887781
 20
81.94625903843007
 30
0.0
 11
-2.995523392772086
 21
82.15336580304805
 31
0.0
  0
LINE
  5
B4
330
1F
100
AcDbEntity
  8
0
100
AcDbLine
 10
-2.995523392772086
 20
82.15336580304805
 30
0.0
 11
-3.202630157390073
 21
82.31228441293254
 31
0.0
  0
LINE
  5
B5
330
1F
100
AcDbEntity
  8
0
100
AcDbLine
 10
-3.202630157390073
 20
82.31228441293254
 30
0.0
 11
-3.443811092993131
 21
82.41218482744506
 31
0.0
  0
LINE
  5
B6
330
1F
100
AcDbEntity
  8
0
100
AcDbLine
 10
9.657585894573048
 20
-19.67905033157045
 30
0.0
 11
10.0228620837832
 21
-19.3834595402477
 31
0.0
  0
LINE
  5
B7
330
1F
100
AcDbEntity
  8
0
100
AcDbLine
 10
-35.34380854099258
 20
45.68033611341495
 30
0.0
 11
-35.6026275653896
 21
45.64626194242987
 31
0.0
  0
LINE
  5
B8
330
1F
100
AcDbEntity
  8
0
100
AcDbLine
 10
-40.40262718139088
 20
56.74626105442995
 30
0.0
 11
-40.463960689164
 21
56.28038681051533
 31
0.0
  0
LINE
  5
B9
330
1F
100
AcDbEntity
  8
0
100
AcDbLine
 10
-40.463960689164
 20
57.21213529834457
 30
0.0
 11
-40.40262718139088
 21
56.74626105442995
 31
0.0
  0
LINE
  5
BA
330
1F
100
AcDbEntity
  8
0
100
AcDbLine
 10
-40.92983493307845
 20
58.01905315874243
 30
0.0
 11
-40.64378143528663
 21
57.64626098243002
 31
0.0
  0
LINE
  5
BB
330
1F
100
AcDbEntity
  8
0
100
AcDbLine
 10
-85.77616325945878
 20
-43.73685212026172
 30
0.0
 11
-85.67626284494607
 21
-43.97803305586473
 31
0.0
  0
LINE
  5
BC
330
1F
100
AcDbEntity
  8
0
100
AcDbLine
 10
-85.67626284494607
 20
-43.97803305586473
 30
0.0
 11
-85.64218867396117
 21
-44.23685208026173
 31
0.0
  0
LINE
  5
BD
330
1F
100
AcDbEntity
  8
0
100
AcDbLine
 10
-18.93031762798055
 20
20.33495639815911
 30
0.0
 11
-39.6987751283127
 21
20.33495639815948
 31
0.0
  0
LINE
  5
BE
330
1F
100
AcDbEntity
  8
0
100
AcDbLine
 10
-39.6987751283127
 20
20.33495639815948
 30
0.0
 11
-39.6987751283127
 21
13.43495695015942
 31
0.0
  0
LINE
  5
BF
330
1F
100
AcDbEntity
  8
0
100
AcDbLine
 10
-30.98131473488987
 20
-24.965039977841
 30
0.0
 11
-41.38131390288991
 21
-24.965039977841
 31
0.0
  0
LINE
  5
C0
330
1F
100
AcDbEntity
  8
0
100
AcDbLine
 10
-41.38131390288991
 20
-24.965039977841
 30
0.0
 11
-41.38131390288991
 21
-31.76503943384103
 31
0.0
  0
LINE
  5
C1
330
1F
100
AcDbEntity
  8
0
100
AcDbLine
 10
-10.04189225573564
 20
18.93495651015913
 30
0.0
 11
-9.755838757943819
 21
19.30774868647154
 31
0.0
  0
LINE
  5
C2
330
1F
100
AcDbEntity
  8
0
100
AcDbLine
 10
-10.22171300185844
 20
18.50083082607377
 30
0.0
 11
-10.04189225573564
 21
18.93495651015913
 31
0.0
  0
LINE
  5
C3
330
1F
100
AcDbEntity
  8
0
100
AcDbLine
 10
64.83389585221812
 20
22.78368913602058
 30
0.0
 11
64.53948005255508
 21
23.14991303915556
 31
0.0
  0
LINE
  5
C4
330
1F
100
AcDbEntity
  8
0
100
AcDbLine
 10
65.21306539768342
 20
22.50614442590997
 30
0.0
 11
64.83389585221812
 21
22.78368913602058
 31
0.0
  0
LINE
  5
C5
330
1F
100
AcDbEntity
  8
0
100
AcDbLine
 10
65.65114891103485
 20
22.33619312215356
 30
0.0
 11
65.21306539768342
 21
22.50614442590997
 31
0.0
  0
LINE
  5
C6
330
1F
100
AcDbEntity
  8
0
100
AcDbLine
 10
66.11829172480451
 20
22.28541712524443
 30
0.0
 11
65.65114891103485
 21
22.33619312215356
 31
0.0
  0
LINE
  5
C7
330
1F
100
AcDbEntity
  8
0
100
AcDbLine
 10
67.65637298384408
 20
23.22046018424826
 30
0.0
 11
67.37882827373346
 21
22.84129063878296
 31
0.0
  0
LINE
  5
C8
330
1F
100
AcDbEntity
  8
0
100
AcDbLine
 10
67.61564257063422
 20
25.01999915716322
 30
0.0
 11
67.80524067429344
 21
24.59005361478888
 31
0.0
  0
LINE
  5
C9
330
1F
100
AcDbEntity
  8
0
100
AcDbLine
 10
67.32122677097118
 20
25.38622306029821
 30
0.0
 11
67.61564257063422
 21
25.01999915716322
 31
0.0
  0
LINE
  5
CA
330
1F
100
AcDbEntity
  8
0
100
AcDbLine
 10
47.12698274278798
 20
-16.60719582637332
 30
0.0
 11
46.66110849887336
 21
-16.66852933414631
 31
0.0
  0
LINE
  5
CB
330
1F
100
AcDbEntity
  8
0
100
AcDbLine
 10
47.56110842687352
 20
-16.42737508025065
 30
0.0
 11
47.12698274278798
 21
-16.60719582637332
 31
0.0
  0
LINE
  5
CC
330
1F
100
AcDbEntity
  8
0
100
AcDbLine
 10
47.93390060318576
 20
-16.1413215824587
 30
0.0
 11
47.56110842687352
 21
-16.42737508025065
 31
0.0
  0
LINE
  5
CD
330
1F
100
AcDbEntity
  8
0
100
AcDbLine
 10
64.27808783839754
 20
-20.95856846353357
 30
0.0
 11
64.32813749286701
 21
-20.49134727137056
 31
0.0
  0
LINE
  5
CE
330
1F
100
AcDbEntity
  8
0
100
AcDbLine
 10
-55.82504737902146
 20
15.74931611897428
 30
0.0
 11
-55.4936765556326
 21
16.00358589478931
 31
0.0
  0
LINE
  5
CF
330
1F
100
AcDbEntity
  8
0
100
AcDbLine
 10
-55.4936765556326
 20
16.00358589478931
 30
0.0
 11
-55.23940677981758
 21
16.33495671817816
 31
0.0
  0
LINE
  5
D0
330
1F
100
AcDbEntity
  8
0
100
AcDbLine
 10
-55.23940677981758
 20
16.33495671817816
 30
0.0
 11
-55.07956611659757
 21
16.72084621514276
 31
0.0
  0
LINE
  5
D1
330
1F
100
AcDbEntity
  8
0
100
AcDbLine
 10
-55.07956611659757
 20
16.72084621514276
 30
0.0
 11
-55.02504744302146
 21
17.13495665417798
 31
0.0
  0
LINE
  5
D2
330
1F
100
AcDbEntity
  8
0
100
AcDbLine
 10
-55.02504744302146
 20
17.13495665417798
 30
0.0
 11
-55.07956611659757
 21
17.54906709321338
 31
0.0
  0
LINE
  5
D3
330
1F
100
AcDbEntity
  8
0
100
AcDbLine
 10
-86.23940429981812
 20
16.33495671817798
 30
0.0
 11
-86.07956363659757
 21
16.72084621514276
 31
0.0
  0
LINE
  5
D4
330
1F
100
AcDbEntity
  8
0
100
AcDbLine
 10
67.01499454199933
 20
-22.45166596221912
 30
0.0
 11
66.58534429316484
 21
-22.64193228607941
 31
0.0
  0
LINE
  5
D5
330
1F
100
AcDbEntity
  8
0
100
AcDbLine
 10
67.38076026536308
 20
-22.15668113899807
 30
0.0
 11
67.01499454199933
 21
-22.45166596221912
 31
0.0
  0
LINE
  5
D6
330
1F
100
AcDbEntity
  8
0
100
AcDbLine
 10
67.65771513366586
 20
-21.77708054463321
 30
0.0
 11
67.38076026536308
 21
-22.15668113899807
 31
0.0
  0
LINE
  5
D7
330
1F
100
AcDbEntity
  8
0
100
AcDbLine
 10
67.82698513032229
 20
-21.33873333231088
 30
0.0
 11
67.65771513366586
 21
-21.77708054463321
 31
0.0
  0
LINE
  5
D8
330
1F
100
AcDbEntity
  8
0
100
AcDbLine
 10
-93.8250443390219
 20
18.73495652617835
 30
0.0
 11
-87.62504483502182
 21
18.73495652617835
 31
0.0
  0
LINE
  5
D9
330
1F
100
AcDbEntity
  8
0
100
AcDbLine
 10
-93.8250443390219
 20
18.73495652617835
 30
0.0
 11
-94.23915477805694
 21
18.68043785260224
 31
0.0
  0
LINE
  5
DA
330
1F
100
AcDbEntity
  8
0
100
AcDbLine
 10
-94.23915477805694
 20
18.68043785260224
 30
0.0
 11
-94.62504427502172
 21
18.52059718938187
 31
0.0
  0
LINE
  5
DB
330
1F
100
AcDbEntity
  8
0
100
AcDbLine
 10
-94.62504427502172
 20
18.52059718938187
 30
0.0
 11
-94.95641509841059
 21
18.26632741356684
 31
0.0
  0
LINE
  5
DC
330
1F
100
AcDbEntity
  8
0
100
AcDbLine
 10
-8.948920897546047
 20
-16.6037071340679
 30
0.0
 11
-9.383046581631408
 21
-16.42388638794524
 31
0.0
  0
LINE
  5
DD
330
1F
100
AcDbEntity
  8
0
100
AcDbLine
 10
-8.483046653631424
 20
-16.66504064184089
 30
0.0
 11
-8.948920897546047
 21
-16.6037071340679
 31
0.0
  0
LINE
  5
DE
330
1F
100
AcDbEntity
  8
0
100
AcDbLine
 10
-43.31606776065909
 20
25.66335686557739
 30
0.0
 11
-42.93703012096751
 21
25.38563204130759
 31
0.0
  0
LINE
  5
DF
330
1F
100
AcDbEntity
  8
0
100
AcDbLine
 10
5.952434237360698
 20
-55.19034693269904
 30
0.0
 11
5.793515627476213
 21
-54.98324016808105
 31
0.0
  0
LINE
  5
E0
330
1F
100
AcDbEntity
  8
0
100
AcDbLine
 10
6.159541001978685
 20
-55.34926554258352
 30
0.0
 11
5.952434237360698
 21
-55.19034693269904
 31
0.0
  0
LINE
  5
E1
330
1F
100
AcDbEntity
  8
0
100
AcDbLine
 10
-10.04189225573564
 20
-15.76504071384091
 30
0.0
 11
-10.22171300185844
 21
-15.33091502975551
 31
0.0
  0
LINE
  5
E2
330
1F
100
AcDbEntity
  8
0
100
AcDbLine
 10
-9.755838757943819
 20
-16.13783289015332
 30
0.0
 11
-10.04189225573564
 21
-15.76504071384091
 31
0.0
  0
LINE
  5
E3
330
1F
100
AcDbEntity
  8
0
100
AcDbLine
 10
-9.383046581631408
 20
-16.42388638794524
 30
0.0
 11
-9.755838757943819
 21
-16.13783289015332
 31
0.0
  0
LINE
  5
E4
330
1F
100
AcDbEntity
  8
0
100
AcDbLine
 10
-56.21093687598624
 20
-12.31955966739817
 30
0.0
 11
-56.62504731502146
 21
-12.26504099382206
 31
0.0
  0
LINE
  5
E5
330
1F
100
AcDbEntity
  8
0
100
AcDbLine
 10
-31.67626716494537
 20
-43.97803305586473
 30
0.0
 11
-31.77616757945808
 21
-43.73685212026172
 31
0.0
  0
LINE
  5
E6
330
1F
100
AcDbEntity
  8
0
100
AcDbLine
 10
-31.64219299396047
 20
-44.23685208026173
 30
0.0
 11
-31.67626716494537
 21
-43.97803305586473
 31
0.0
  0
LINE
  5
E7
330
1F
100
AcDbEntity
  8
0
100
AcDbLine
 10
-31.64219299396047
 20
-44.23685208026173
 30
0.0
 11
-31.64219299396047
 21
-49.83685163226177
 31
0.0
  0
LINE
  5
E8
330
1F
100
AcDbEntity
  8
0
100
AcDbLine
 10
-16.00821964846287
 20
-43.73685212026172
 30
0.0
 11
-15.84930103857857
 21
-43.52974535564373
 31
0.0
  0
LINE
  5
E9
330
1F
100
AcDbEntity
  8
0
100
AcDbLine
 10
-15.84930103857857
 20
-43.52974535564373
 30
0.0
 11
-15.64219427396058
 21
-43.37082674575934
 31
0.0
  0
LINE
  5
EA
330
1F
100
AcDbEntity
  8
0
100
AcDbLine
 10
-30.98131473488987
 20
-31.76503943384103
 30
0.0
 11
-30.98131473488987
 21
-24.965039977841
 31
0.0
  0
LINE
  5
EB
330
1F
100
AcDbEntity
  8
0
100
AcDbLine
 10
-30.98131473488987
 20
34.93495523015934
 30
0.0
 11
-41.38131390288991
 21
34.93495523015934
 31
0.0
  0
LINE
  5
EC
330
1F
100
AcDbEntity
  8
0
100
AcDbLine
 10
-41.38131390288991
 20
34.93495523015934
 30
0.0
 11
-41.38131390288991
 21
28.13495577415931
 31
0.0
  0
LINE
  5
ED
330
1F
100
AcDbEntity
  8
0
100
AcDbLine
 10
-8.017172409716803
 20
19.77362293038608
 30
0.0
 11
-7.583046725631444
 21
19.59380218426346
 31
0.0
  0
LINE
  5
EE
330
1F
100
AcDbEntity
  8
0
100
AcDbLine
 10
-8.483046653631424
 20
19.83495643815911
 30
0.0
 11
-8.017172409716803
 21
19.77362293038608
 31
0.0
  0
LINE
  5
EF
330
1F
100
AcDbEntity
  8
0
100
AcDbLine
 10
-8.948920897546047
 20
19.77362293038608
 30
0.0
 11
-8.483046653631424
 21
19.83495643815911
 31
0.0
  0
LINE
  5
F0
330
1F
100
AcDbEntity
  8
0
100
AcDbLine
 10
-45.04655959712637
 20
-19.33663953442602
 30
0.0
 11
-44.60855687799432
 21
-19.16648011402355
 31
0.0
  0
LINE
  5
F1
330
1F
100
AcDbEntity
  8
0
100
AcDbLine
 10
-45.42559723681722
 20
-19.61436435869721
 30
0.0
 11
-45.04655959712637
 21
-19.33663953442602
 31
0.0
  0
LINE
  5
F2
330
1F
100
AcDbEntity
  8
0
100
AcDbLine
 10
-45.71983900831089
 20
-19.98072809902502
 30
0.0
 11
-45.42559723681722
 21
-19.61436435869721
 31
0.0
  0
LINE
  5
F3
330
1F
100
AcDbEntity
  8
0
100
AcDbLine
 10
-45.90923282113783
 20
-20.41076367195079
 30
0.0
 11
-45.71983900831089
 21
-19.98072809902502
 31
0.0
  0
LINE
  5
F4
330
1F
100
AcDbEntity
  8
0
100
AcDbLine
 10
-42.43275349107267
 20
-20.48779710273619
 30
0.0
 11
-42.38175555783756
 21
-20.95491573983442
 31
0.0
  0
LINE
  5
F5
330
1F
100
AcDbEntity
  8
0
100
AcDbLine
 10
-8.017172409716803
 20
16.29629023393223
 30
0.0
 11
-8.483046653631424
 21
16.23495672615919
 31
0.0
  0
LINE
  5
F6
330
1F
100
AcDbEntity
  8
0
100
AcDbLine
 10
-41.38131390288991
 20
-31.76503943384103
 30
0.0
 11
-30.98131473488987
 21
-31.76503943384103
 31
0.0
  0
LINE
  5
F7
330
1F
100
AcDbEntity
  8
0
100
AcDbLine
 10
-28.94380905299327
 20
82.41218482744506
 30
0.0
 11
-28.70262811739022
 21
82.31228441293254
 31
0.0
  0
LINE
  5
F8
330
1F
100
AcDbEntity
  8
0
100
AcDbLine
 10
-11.60262948539002
 20
67.84626016643001
 30
0.0
 11
-35.10262760539042
 21
67.84626016643001
 31
0.0
  0
LINE
  5
F9
330
1F
100
AcDbEntity
  8
0
100
AcDbLine
 10
-2.702630197390183
 20
75.84625952643006
 30
0.0
 11
2.49563926786775
 21
75.8462595264301
 31
0.0
  0
LINE
  5
FA
330
1F
100
AcDbEntity
  8
0
100
AcDbLine
 10
2.49563926786757
 20
52.24626141442999
 30
0.0
 11
2.49563926786757
 21
61.24248206043725
 31
0.0
  0
LINE
  5
FB
330
1F
100
AcDbEntity
  8
0
100
AcDbLine
 10
-44.60855687798783
 20
22.33639591034077
 30
0.0
 11
-45.04655959712041
 21
22.50655533074157
 31
0.0
  0
LINE
  5
FC
330
1F
100
AcDbEntity
  8
0
100
AcDbLine
 10
-44.14143824088946
 20
22.28539797710739
 30
0.0
 11
-44.60855687798783
 21
22.33639591034077
 31
0.0
  0
LINE
  5
FD
330
1F
100
AcDbEntity
  8
0
100
AcDbLine
 10
-43.67703704899355
 20
22.35703695591338
 30
0.0
 11
-44.14143824088946
 21
22.28539797710739
 31
0.0
  0
LINE
  5
FE
330
1F
100
AcDbEntity
  8
0
100
AcDbLine
 10
64.53948005255508
 20
23.14991303915556
 30
0.0
 11
64.34988194889587
 21
23.5798585815299
 31
0.0
  0
LINE
  5
FF
330
1F
100
AcDbEntity
  8
0
100
AcDbLine
 10
-41.30262710939104
 20
58.30510665653435
 30
0.0
 11
-40.92983493307845
 21
58.01905315874243
 31
0.0
  0
LINE
  5
100
330
1F
100
AcDbEntity
  8
0
100
AcDbLine
 10
44.8611086428734
 20
18.03146788985373
 30
0.0
 11
44.92244215064635
 21
18.49734213376835
 31
0.0
  0
LINE
  5
101
330
1F
100
AcDbEntity
  8
0
100
AcDbLine
 10
-42.38175555783775
 20
24.12483153615986
 30
0.0
 11
-42.43275349107104
 21
23.65771289906149
 31
0.0
  0
LINE
  5
102
330
1F
100
AcDbEntity
  8
0
100
AcDbLine
 10
-42.45339453664364
 20
24.58923272805587
 30
0.0
 11
-42.38175555783775
 21
24.12483153615986
 31
0.0
  0
LINE
  5
103
330
1F
100
AcDbEntity
  8
0
100
AcDbLine
 10
-42.6427883494724
 20
25.01926830098091
 30
0.0
 11
-42.45339453664364
 21
24.58923272805587
 31
0.0
  0
LINE
  5
104
330
1F
100
AcDbEntity
  8
0
100
AcDbLine
 10
-87.21093439598643
 20
-15.41052206424596
 30
0.0
 11
-86.82504489902165
 21
-15.25068140102577
 31
0.0
  0
LINE
  5
105
330
1F
100
AcDbEntity
  8
0
100
AcDbLine
 10
-86.82504489902165
 20
-15.25068140102577
 30
0.0
 11
-86.49367407563298
 21
-14.99641162521083
 31
0.0
  0
LINE
  5
106
330
1F
100
AcDbEntity
  8
0
100
AcDbLine
 10
-86.49367407563298
 20
-14.99641162521083
 30
0.0
 11
-86.23940429981776
 21
-14.6650408018218
 31
0.0
  0
LINE
  5
107
330
1F
100
AcDbEntity
  8
0
100
AcDbLine
 10
-64.21068735422524
 20
-13.06504092982179
 30
0.0
 11
-64.37052801744544
 21
-13.45093042678667
 31
0.0
  0
LINE
  5
108
330
1F
100
AcDbEntity
  8
0
100
AcDbLine
 10
-64.62504667502168
 20
14.62533791171431
 30
0.0
 11
-68.24276070906664
 21
16.12384412940328
 31
0.0
  0
LINE
  5
109
330
1F
100
AcDbEntity
  8
0
100
AcDbLine
 10
-55.07956611659757
 20
17.54906709321338
 30
0.0
 11
-55.23940677981758
 21
17.93495659017817
 31
0.0
  0
LINE
  5
10A
330
1F
100
AcDbEntity
  8
0
100
AcDbLine
 10
-55.23940677981758
 20
17.93495659017817
 30
0.0
 11
-55.49367655563243
 21
18.26632741356684
 31
0.0
  0
LINE
  5
10B
330
1F
100
AcDbEntity
  8
0
100
AcDbLine
 10
-55.49367655563243
 20
18.26632741356684
 30
0.0
 11
-55.82504737902164
 21
18.52059718938205
 31
0.0
  0
LINE
  5
10C
330
1F
100
AcDbEntity
  8
0
100
AcDbLine
 10
-55.82504737902164
 20
18.52059718938205
 30
0.0
 11
-56.21093687598642
 21
18.68043785260205
 31
0.0
  0
LINE
  5
10D
330
1F
100
AcDbEntity
  8
0
100
AcDbLine
 10
9.427772019716732
 20
-21.85850838397776
 30
0.0
 11
9.236793674854711
 21
-21.4291741527399
 31
0.0
  0
LINE
  5
10E
330
1F
100
AcDbEntity
  8
0
100
AcDbLine
 10
50.06283834561515
 20
-24.96852867014637
 30
0.0
 11
50.06283834561515
 21
-29.96852827014685
 31
0.0
  0
LINE
  5
10F
330
1F
100
AcDbEntity
  8
0
100
AcDbLine
 10
45.76110857087338
 20
-16.42737508025065
 30
0.0
 11
45.38831639456097
 21
-16.1413215824587
 31
0.0
  0
LINE
  5
110
330
1F
100
AcDbEntity
  8
0
100
AcDbLine
 10
-64.62504667502168
 20
-11.35542212335803
 30
0.0
 11
-61.5184452057517
 21
-8.971642975092006
 31
0.0
  0
LINE
  5
111
330
1F
100
AcDbEntity
  8
0
100
AcDbLine
 10
-61.5184452057517
 20
-8.971642975092006
 30
0.0
 11
-59.1346660574855
 21
-5.865041505821847
 31
0.0
  0
LINE
  5
112
330
1F
100
AcDbEntity
  8
0
100
AcDbLine
 10
-59.1346660574855
 20
-5.865041505821847
 30
0.0
 11
-57.6361598397967
 21
-2.247327471776792
 31
0.0
  0
LINE
  5
113
330
1F
100
AcDbEntity
  8
0
100
AcDbLine
 10
-57.6361598397967
 20
-2.247327471776792
 30
0.0
 11
-57.12504727502171
 21
1.634957894178209
 31
0.0
  0
LINE
  5
114
330
1F
100
AcDbEntity
  8
0
100
AcDbLine
 10
-94.6250442750219
 20
-15.25068140102559
 30
0.0
 11
-94.23915477805713
 21
-15.41052206424578
 31
0.0
  0
LINE
  5
115
330
1F
100
AcDbEntity
  8
0
100
AcDbLine
 10
-94.23915477805713
 20
-15.41052206424578
 30
0.0
 11
-93.82504433902172
 21
-15.46504073782189
 31
0.0
  0
LINE
  5
116
330
1F
100
AcDbEntity
  8
0
100
AcDbLine
 10
-93.82504433902172
 20
-15.46504073782189
 30
0.0
 11
-87.62504483502164
 21
-15.46504073782189
 31
0.0
  0
LINE
  5
117
330
1F
100
AcDbEntity
  8
0
100
AcDbLine
 10
-87.62504483502164
 20
-15.46504073782189
 30
0.0
 11
-87.21093439598643
 21
-15.41052206424596
 31
0.0
  0
LINE
  5
118
330
1F
100
AcDbEntity
  8
0
100
AcDbLine
 10
-95.21068487422579
 20
16.33495671817816
 30
0.0
 11
-94.95641509841059
 21
16.00358589478913
 31
0.0
  0
LINE
  5
119
330
1F
100
AcDbEntity
  8
0
100
AcDbLine
 10
-94.95641509841059
 20
16.00358589478913
 30
0.0
 11
-94.62504427502172
 21
15.74931611897428
 31
0.0
  0
LINE
  5
11A
330
1F
100
AcDbEntity
  8
0
100
AcDbLine
 10
-94.62504427502172
 20
15.74931611897428
 30
0.0
 11
-94.23915477805694
 21
15.58947545575391
 31
0.0
  0
LINE
  5
11B
330
1F
100
AcDbEntity
  8
0
100
AcDbLine
 10
-94.23915477805694
 20
15.58947545575391
 30
0.0
 11
-93.8250443390219
 21
15.53495678217797
 31
0.0
  0
LINE
  5
11C
330
1F
100
AcDbEntity
  8
0
100
AcDbLine
 10
-95.6421878739613
 20
-44.23685208026173
 30
0.0
 11
-95.60811370297642
 21
-43.97803305586473
 31
0.0
  0
LINE
  5
11D
330
1F
100
AcDbEntity
  8
0
100
AcDbLine
 10
-4.620093632870208
 20
52.9357495826193
 30
0.0
 11
-9.020093280870137
 21
52.9357495826193
 31
0.0
  0
LINE
  5
11E
330
1F
100
AcDbEntity
  8
0
100
AcDbLine
 10
-2.420093808870152
 20
56.74626105442995
 30
0.0
 11
-4.620093632870208
 21
52.9357495826193
 31
0.0
  0
LINE
  5
11F
330
1F
100
AcDbEntity
  8
0
100
AcDbLine
 10
-47.38085822218819
 20
-68.47097586034728
 30
0.0
 11
-47.20103747606557
 21
-68.03685017626184
 31
0.0
  0
LINE
  5
120
330
1F
100
AcDbEntity
  8
0
100
AcDbLine
 10
102.2417025807677
 20
19.77362293038616
 30
0.0
 11
102.6758282648531
 21
19.59380218426355
 31
0.0
  0
LINE
  5
121
330
1F
100
AcDbEntity
  8
0
100
AcDbLine
 10
101.7758283368531
 20
19.8349564381592
 30
0.0
 11
102.2417025807677
 21
19.77362293038616
 31
0.0
  0
LINE
  5
122
330
1F
100
AcDbEntity
  8
0
100
AcDbLine
 10
101.3099540929384
 20
19.77362293038616
 30
0.0
 11
101.7758283368531
 21
19.8349564381592
 31
0.0
  0
LINE
  5
123
330
1F
100
AcDbEntity
  8
0
100
AcDbLine
 10
100.8758284088531
 20
19.59380218426355
 30
0.0
 11
101.3099540929384
 21
19.77362293038616
 31
0.0
  0
LINE
  5
124
330
1F
100
AcDbEntity
  8
0
100
AcDbLine
 10
100.5030362325405
 20
19.30774868647163
 30
0.0
 11
100.8758284088531
 21
19.59380218426355
 31
0.0
  0
LINE
  5
125
330
1F
100
AcDbEntity
  8
0
100
AcDbLine
 10
100.2169827347487
 20
18.93495651015913
 30
0.0
 11
100.5030362325405
 21
19.30774868647163
 31
0.0
  0
LINE
  5
126
330
1F
100
AcDbEntity
  8
0
100
AcDbLine
 10
100.0371619886261
 20
18.50083082607377
 30
0.0
 11
100.2169827347487
 21
18.93495651015913
 31
0.0
  0
LINE
  5
127
330
1F
100
AcDbEntity
  8
0
100
AcDbLine
 10
99.97582848085293
 20
18.03495658215915
 30
0.0
 11
100.0371619886261
 21
18.50083082607377
 31
0.0
  0
LINE
  5
128
330
1F
100
AcDbEntity
  8
0
100
AcDbLine
 10
-103.6421872339613
 20
-54.83685123226186
 30
0.0
 11
-49.64219155396065
 21
-73.43684974426189
 31
0.0
  0
LINE
  5
129
330
1F
100
AcDbEntity
  8
0
100
AcDbLine
 10
66.50125434206468
 20
-19.16561648311322
 30
0.0
 11
66.9396015543871
 21
-19.33488647976947
 31
0.0
  0
LINE
  5
12A
330
1F
100
AcDbEntity
  8
0
100
AcDbLine
 10
66.03403314990167
 20
-19.11556682864369
 30
0.0
 11
66.50125434206468
 21
-19.16561648311322
 31
0.0
  0
LINE
  5
12B
330
1F
100
AcDbEntity
  8
0
100
AcDbLine
 10
65.56977833002445
 20
-19.18814831760203
 30
0.0
 11
66.03403314990167
 21
-19.11556682864369
 31
0.0
  0
LINE
  5
12C
330
1F
100
AcDbEntity
  8
0
100
AcDbLine
 10
65.14012808118997
 20
-19.37841464146232
 30
0.0
 11
65.56977833002445
 21
-19.18814831760203
 31
0.0
  0
LINE
  5
12D
330
1F
100
AcDbEntity
  8
0
100
AcDbLine
 10
64.7743623578262
 20
-19.67339946468337
 30
0.0
 11
65.14012808118997
 21
-19.37841464146232
 31
0.0
  0
LINE
  5
12E
330
1F
100
AcDbEntity
  8
0
100
AcDbLine
 10
64.49740748952345
 20
-20.05300005904824
 30
0.0
 11
64.7743623578262
 21
-19.67339946468337
 31
0.0
  0
LINE
  5
12F
330
1F
100
AcDbEntity
  8
0
100
AcDbLine
 10
64.32813749286701
 20
-20.49134727137056
 30
0.0
 11
64.49740748952345
 21
-20.05300005904824
 31
0.0
  0
LINE
  5
130
330
1F
100
AcDbEntity
  8
0
100
AcDbLine
 10
-6.92420105152721
 20
17.13495665415917
 30
0.0
 11
-7.210254549319031
 21
16.76216447784676
 31
0.0
  0
LINE
  5
131
330
1F
100
AcDbEntity
  8
0
100
AcDbLine
 10
-6.744380305404411
 20
17.56908233824453
 30
0.0
 11
-6.92420105152721
 21
17.13495665415917
 31
0.0
  0
LINE
  5
132
330
1F
100
AcDbEntity
  8
0
100
AcDbLine
 10
-40.64378143528663
 20
57.64626098243002
 30
0.0
 11
-40.463960689164
 21
57.21213529834457
 31
0.0
  0
LINE
  5
133
330
1F
100
AcDbEntity
  8
0
100
AcDbLine
 10
-40.92983493307845
 20
55.47346895011746
 30
0.0
 11
-41.30262710939104
 21
55.18741545232555
 31
0.0
  0
LINE
  5
134
330
1F
100
AcDbEntity
  8
0
100
AcDbLine
 10
-42.20262703739102
 20
54.94626119842989
 30
0.0
 11
-42.66850128130564
 21
55.00759470620284
 31
0.0
  0
LINE
  5
135
330
1F
100
AcDbEntity
  8
0
100
AcDbLine
 10
45.38831639456097
 20
16.75867578554134
 30
0.0
 11
45.10226289676897
 21
17.13146796185375
 31
0.0
  0
LINE
  5
136
330
1F
100
AcDbEntity
  8
0
100
AcDbLine
 10
-87.21093439598626
 20
18.68043785260224
 30
0.0
 11
-87.62504483502182
 21
18.73495652617835
 31
0.0
  0
LINE
  5
137
330
1F
100
AcDbEntity
  8
0
100
AcDbLine
 10
-64.37052801744544
 20
-14.2791513048571
 30
0.0
 11
-64.21068735422543
 21
-14.66504080182189
 31
0.0
  0
LINE
  5
138
330
1F
100
AcDbEntity
  8
0
100
AcDbLine
 10
-64.21068735422543
 20
-14.66504080182189
 30
0.0
 11
-63.95641757841021
 21
-14.99641162521074
 31
0.0
  0
LINE
  5
139
330
1F
100
AcDbEntity
  8
0
100
AcDbLine
 10
-94.62504427502172
 20
-12.47940033061818
 30
0.0
 11
-94.9564150984104
 21
-12.73367010643321
 31
0.0
  0
LINE
  5
13A
330
1F
100
AcDbEntity
  8
0
100
AcDbLine
 10
-94.9564150984104
 20
-12.73367010643321
 30
0.0
 11
-95.21068487422562
 21
-13.06504092982188
 31
0.0
  0
LINE
  5
13B
330
1F
100
AcDbEntity
  8
0
100
AcDbLine
 10
-95.21068487422562
 20
-13.06504092982188
 30
0.0
 11
-95.3705255374458
 21
-13.45093042678648
 31
0.0
  0
LINE
  5
13C
330
1F
100
AcDbEntity
  8
0
100
AcDbLine
 10
-95.3705255374458
 20
-13.45093042678648
 30
0.0
 11
-95.42504421102191
 21
-13.86504086582189
 31
0.0
  0
LINE
  5
13D
330
1F
100
AcDbEntity
  8
0
100
AcDbLine
 10
-82.49551703277294
 20
82.15336580304805
 30
0.0
 11
-82.70262379739091
 21
82.31228441293254
 31
0.0
  0
LINE
  5
13E
330
1F
100
AcDbEntity
  8
0
100
AcDbLine
 10
-82.70262379739091
 20
82.31228441293254
 30
0.0
 11
-82.94380473299397
 21
82.41218482744506
 31
0.0
  0
LINE
  5
13F
330
1F
100
AcDbEntity
  8
0
100
AcDbLine
 10
17.262840969615
 20
-29.96852827014694
 30
0.0
 11
17.29691514059989
 21
-30.22734729454395
 31
0.0
  0
LINE
  5
140
330
1F
100
AcDbEntity
  8
0
100
AcDbLine
 10
17.262840969615
 20
33.13146668185405
 30
0.0
 11
17.29691514059989
 21
33.39028570625106
 31
0.0
  0
LINE
  5
141
330
1F
100
AcDbEntity
  8
0
100
AcDbLine
 10
17.29691514059989
 20
33.39028570625106
 30
0.0
 11
17.3968155551126
 21
33.63146664185403
 31
0.0
  0
LINE
  5
142
330
1F
100
AcDbEntity
  8
0
100
AcDbLine
 10
47.93390060318576
 20
19.3042599941663
 30
0.0
 11
48.21995410097776
 21
18.93146781785389
 31
0.0
  0
LINE
  5
143
330
1F
100
AcDbEntity
  8
0
100
AcDbLine
 10
-45.71983900830728
 20
23.15064389533805
 30
0.0
 11
-45.90923282113603
 21
23.5806794682631
 31
0.0
  0
LINE
  5
144
330
1F
100
AcDbEntity
  8
0
100
AcDbLine
 10
-45.42559723681217
 20
22.78428015501137
 30
0.0
 11
-45.71983900830728
 21
23.15064389533805
 31
0.0
  0
LINE
  5
145
330
1F
100
AcDbEntity
  8
0
100
AcDbLine
 10
-45.04655959712041
 20
22.50655533074157
 30
0.0
 11
-45.42559723681217
 21
22.78428015501137
 31
0.0
  0
LINE
  5
146
330
1F
100
AcDbEntity
  8
0
100
AcDbLine
 10
45.7611085708732
 20
-13.30968387604186
 30
0.0
 11
46.19523425495874
 21
-13.1298631299192
 31
0.0
  0
LINE
  5
147
330
1F
100
AcDbEntity
  8
0
100
AcDbLine
 10
44.92244215064635
 20
-15.33440372206088
 30
0.0
 11
44.8611086428734
 21
-14.86852947814626
 31
0.0
  0
LINE
  5
148
330
1F
100
AcDbEntity
  8
0
100
AcDbLine
 10
96.23290801850906
 20
54.180130742868
 30
0.0
 11
96.85422831236302
 21
54.65688657252119
 31
0.0
  0
LINE
  5
149
330
1F
100
AcDbEntity
  8
0
100
AcDbLine
 10
95.75615218885578
 20
53.55881044901395
 30
0.0
 11
96.23290801850906
 21
54.180130742868
 31
0.0
  0
LINE
  5
14A
330
1F
100
AcDbEntity
  8
0
100
AcDbLine
 10
95.45645094531802
 20
52.83526764220486
 30
0.0
 11
95.75615218885578
 21
53.55881044901395
 31
0.0
  0
LINE
  5
14B
330
1F
100
AcDbEntity
  8
0
100
AcDbLine
 10
95.35422843236299
 20
52.05881056901392
 30
0.0
 11
95.45645094531802
 21
52.83526764220486
 31
0.0
  0
LINE
  5
14C
330
1F
100
AcDbEntity
  8
0
100
AcDbLine
 10
95.35422843236299
 20
52.05881056901392
 30
0.0
 11
95.35422843236299
 21
47.55881092901392
 31
0.0
  0
LINE
  5
14D
330
1F
100
AcDbEntity
  8
0
100
AcDbLine
 10
87.35422907236294
 20
52.05881056901392
 30
0.0
 11
87.35422907236294
 21
47.55881092901392
 31
0.0
  0
LINE
  5
14E
330
1F
100
AcDbEntity
  8
0
100
AcDbLine
 10
87.14978404645288
 20
53.6117247153959
 30
0.0
 11
87.35422907236294
 21
52.05881056901392
 31
0.0
  0
LINE
  5
14F
330
1F
100
AcDbEntity
  8
0
100
AcDbLine
 10
10.79351522747619
 20
-38.48324148808108
 30
0.0
 11
10.95243383736068
 21
-38.27613472346309
 31
0.0
  0
LINE
  5
150
330
1F
100
AcDbEntity
  8
0
100
AcDbLine
 10
10.95243383736068
 20
-38.27613472346309
 30
0.0
 11
11.15954060197866
 21
-38.1172161135786
 31
0.0
  0
LINE
  5
151
330
1F
100
AcDbEntity
  8
0
100
AcDbLine
 10
10.65954064197877
 20
-42.98324112808107
 30
0.0
 11
10.65954064197877
 21
-38.98324144808106
 31
0.0
  0
LINE
  5
152
330
1F
100
AcDbEntity
  8
0
100
AcDbLine
 10
12.49393047943978
 20
-54.74205923247808
 30
0.0
 11
12.39403006492708
 21
-54.98324016808105
 31
0.0
  0
LINE
  5
153
330
1F
100
AcDbEntity
  8
0
100
AcDbLine
 10
12.52800465042485
 20
-54.48324020808107
 30
0.0
 11
12.49393047943978
 21
-54.74205923247808
 31
0.0
  0
LINE
  5
154
330
1F
100
AcDbEntity
  8
0
100
AcDbLine
 10
12.52800465042485
 20
-54.48324020808107
 30
0.0
 11
12.52800465042485
 21
-50.48324052808104
 31
0.0
  0
LINE
  5
155
330
1F
100
AcDbEntity
  8
0
100
AcDbLine
 10
12.52800465042485
 20
-50.48324052808104
 30
0.0
 11
28.72799835831079
 21
-50.48324052808104
 31
0.0
  0
LINE
  5
156
330
1F
100
AcDbEntity
  8
0
100
AcDbLine
 10
28.72799835831079
 20
-50.48324052808104
 30
0.0
 11
28.72799835831079
 21
-54.48324020808107
 31
0.0
  0
LINE
  5
157
330
1F
100
AcDbEntity
  8
0
100
AcDbLine
 10
28.76207252929586
 20
-54.74205923247808
 30
0.0
 11
28.72799835831079
 21
-54.48324020808107
 31
0.0
  0
LINE
  5
158
330
1F
100
AcDbEntity
  8
0
100
AcDbLine
 10
28.86197294380839
 20
-54.98324016808105
 30
0.0
 11
28.76207252929586
 21
-54.74205923247808
 31
0.0
  0
LINE
  5
159
330
1F
100
AcDbEntity
  8
0
100
AcDbLine
 10
29.02089155369287
 20
-55.19034693269904
 30
0.0
 11
28.86197294380839
 21
-54.98324016808105
 31
0.0
  0
LINE
  5
15A
330
1F
100
AcDbEntity
  8
0
100
AcDbLine
 10
29.22799831831086
 20
-55.34926554258352
 30
0.0
 11
29.02089155369287
 21
-55.19034693269904
 31
0.0
  0
LINE
  5
15B
330
1F
100
AcDbEntity
  8
0
100
AcDbLine
 10
35.59392363532582
 20
-54.74205923247808
 30
0.0
 11
35.49402322081311
 21
-54.98324016808105
 31
0.0
  0
LINE
  5
15C
330
1F
100
AcDbEntity
  8
0
100
AcDbLine
 10
-15.04219432196017
 20
-57.83685099226183
 30
0.0
 11
-38.54219244196058
 21
-57.83685099226183
 31
0.0
  0
LINE
  5
15D
330
1F
100
AcDbEntity
  8
0
100
AcDbLine
 10
-17.75446952897337
 20
-64.43685046426191
 30
0.0
 11
-15.04219432196017
 21
-64.43685046426191
 31
0.0
  0
LINE
  5
15E
330
1F
100
AcDbEntity
  8
0
100
AcDbLine
 10
35.62799780631089
 20
-54.48324020808107
 30
0.0
 11
35.59392363532582
 21
-54.74205923247808
 31
0.0
  0
LINE
  5
15F
330
1F
100
AcDbEntity
  8
0
100
AcDbLine
 10
62.95423102436293
 20
53.85881042501388
 30
0.0
 11
63.42010526827755
 21
53.79747691724084
 31
0.0
  0
LINE
  5
160
330
1F
100
AcDbEntity
  8
0
100
AcDbLine
 10
62.48835678044831
 20
53.79747691724084
 30
0.0
 11
62.95423102436293
 21
53.85881042501388
 31
0.0
  0
LINE
  5
161
330
1F
100
AcDbEntity
  8
0
100
AcDbLine
 10
61.68143892005053
 20
53.33160267332632
 30
0.0
 11
62.05423109636295
 21
53.61765617111823
 31
0.0
  0
LINE
  5
162
330
1F
100
AcDbEntity
  8
0
100
AcDbLine
 10
47.56110842687335
 20
19.59031349195813
 30
0.0
 11
47.93390060318576
 21
19.3042599941663
 31
0.0
  0
LINE
  5
163
330
1F
100
AcDbEntity
  8
0
100
AcDbLine
 10
47.12698274278798
 20
19.77013423808074
 30
0.0
 11
47.56110842687335
 21
19.59031349195813
 31
0.0
  0
LINE
  5
164
330
1F
100
AcDbEntity
  8
0
100
AcDbLine
 10
46.66110849887336
 20
19.83146774585387
 30
0.0
 11
47.12698274278798
 21
19.77013423808074
 31
0.0
  0
LINE
  5
165
330
1F
100
AcDbEntity
  8
0
100
AcDbLine
 10
46.19523425495874
 20
19.77013423808074
 30
0.0
 11
46.66110849887336
 21
19.83146774585387
 31
0.0
  0
LINE
  5
166
330
1F
100
AcDbEntity
  8
0
100
AcDbLine
 10
45.7611085708732
 20
19.59031349195813
 30
0.0
 11
46.19523425495874
 21
19.77013423808074
 31
0.0
  0
LINE
  5
167
330
1F
100
AcDbEntity
  8
0
100
AcDbLine
 10
101.7758283368525
 20
-13.06504092984214
 30
0.0
 11
102.2417025807673
 21
-13.12637443761513
 31
0.0
  0
LINE
  5
168
330
1F
100
AcDbEntity
  8
0
100
AcDbLine
 10
101.3099540929381
 20
-13.12637443761513
 30
0.0
 11
101.7758283368525
 21
-13.06504092984214
 31
0.0
  0
LINE
  5
169
330
1F
100
AcDbEntity
  8
0
100
AcDbLine
 10
100.8758284088525
 20
-13.3061951837378
 30
0.0
 11
101.3099540929381
 21
-13.12637443761513
 31
0.0
  0
LINE
  5
16A
330
1F
100
AcDbEntity
  8
0
100
AcDbLine
 10
100.5030362325401
 20
-13.59224868152975
 30
0.0
 11
100.8758284088525
 21
-13.3061951837378
 31
0.0
  0
LINE
  5
16B
330
1F
100
AcDbEntity
  8
0
100
AcDbLine
 10
100.2169827347481
 20
-13.96504085784217
 30
0.0
 11
100.5030362325401
 21
-13.59224868152975
 31
0.0
  0
LINE
  5
16C
330
1F
100
AcDbEntity
  8
0
100
AcDbLine
 10
100.0371619886257
 20
-14.39916654192757
 30
0.0
 11
100.2169827347481
 21
-13.96504085784217
 31
0.0
  0
LINE
  5
16D
330
1F
100
AcDbEntity
  8
0
100
AcDbLine
 10
99.97582848085256
 20
-14.86504078584219
 30
0.0
 11
100.0371619886257
 21
-14.39916654192757
 31
0.0
  0
LINE
  5
16E
330
1F
100
AcDbEntity
  8
0
100
AcDbLine
 10
100.0371619886257
 20
-15.33091502975682
 30
0.0
 11
99.97582848085256
 21
-14.86504078584219
 31
0.0
  0
LINE
  5
16F
330
1F
100
AcDbEntity
  8
0
100
AcDbLine
 10
100.2169827347481
 20
-15.76504071384222
 30
0.0
 11
100.0371619886257
 21
-15.33091502975682
 31
0.0
  0
LINE
  5
170
330
1F
100
AcDbEntity
  8
0
100
AcDbLine
 10
100.5030362325401
 20
-16.13783289015463
 30
0.0
 11
100.2169827347481
 21
-15.76504071384222
 31
0.0
  0
LINE
  5
171
330
1F
100
AcDbEntity
  8
0
100
AcDbLine
 10
100.8758284088527
 20
-16.42388638794659
 30
0.0
 11
100.5030362325401
 21
-16.13783289015463
 31
0.0
  0
LINE
  5
172
330
1F
100
AcDbEntity
  8
0
100
AcDbLine
 10
101.3099540929381
 20
-16.60370713406925
 30
0.0
 11
100.8758284088527
 21
-16.42388638794659
 31
0.0
  0
LINE
  5
173
330
1F
100
AcDbEntity
  8
0
100
AcDbLine
 10
101.7758283368525
 20
-16.66504064184225
 30
0.0
 11
101.3099540929381
 21
-16.60370713406925
 31
0.0
  0
LINE
  5
174
330
1F
100
AcDbEntity
  8
0
100
AcDbLine
 10
102.2417025807673
 20
-16.60370713406925
 30
0.0
 11
101.7758283368525
 21
-16.66504064184225
 31
0.0
  0
LINE
  5
175
330
1F
100
AcDbEntity
  8
0
100
AcDbLine
 10
102.6758282648527
 20
-16.42388638794659
 30
0.0
 11
102.2417025807673
 21
-16.60370713406925
 31
0.0
  0
LINE
  5
176
330
1F
100
AcDbEntity
  8
0
100
AcDbLine
 10
46.66110849887336
 20
-16.66852933414631
 30
0.0
 11
46.19523425495874
 21
-16.60719582637332
 31
0.0
  0
LINE
  5
177
330
1F
100
AcDbEntity
  8
0
100
AcDbLine
 10
45.76110857087338
 20
16.47262228774933
 30
0.0
 11
45.38831639456097
 21
16.75867578554134
 31
0.0
  0
LINE
  5
178
330
1F
100
AcDbEntity
  8
0
100
AcDbLine
 10
46.19523425495874
 20
16.29280154162672
 30
0.0
 11
45.76110857087338
 21
16.47262228774933
 31
0.0
  0
LINE
  5
179
330
1F
100
AcDbEntity
  8
0
100
AcDbLine
 10
46.66110849887336
 20
16.23146803385377
 30
0.0
 11
46.19523425495874
 21
16.29280154162672
 31
0.0
  0
LINE
  5
17A
330
1F
100
AcDbEntity
  8
0
100
AcDbLine
 10
-44.08334627185678
 20
-69.83685003226198
 30
0.0
 11
-44.3693997696486
 21
-70.2096422085744
 31
0.0
  0
LINE
  5
17B
330
1F
100
AcDbEntity
  8
0
100
AcDbLine
 10
-44.3693997696486
 20
-70.2096422085744
 30
0.0
 11
-44.74219194596119
 21
-70.4956957063663
 31
0.0
  0
LINE
  5
17C
330
1F
100
AcDbEntity
  8
0
100
AcDbLine
 10
-5.481316774889366
 20
28.13495577415931
 30
0.0
 11
-5.481316774889366
 21
34.93495523015934
 31
0.0
  0
LINE
  5
17D
330
1F
100
AcDbEntity
  8
0
100
AcDbLine
 10
67.82632428760039
 20
23.6585436975996
 30
0.0
 11
67.65637298384408
 21
23.22046018424826
 31
0.0
  0
LINE
  5
17E
330
1F
100
AcDbEntity
  8
0
100
AcDbLine
 10
67.87710028450951
 20
24.12568651136924
 30
0.0
 11
67.82632428760039
 21
23.6585436975996
 31
0.0
  0
LINE
  5
17F
330
1F
100
AcDbEntity
  8
0
100
AcDbLine
 10
67.80524067429344
 20
24.59005361478888
 30
0.0
 11
67.87710028450951
 21
24.12568651136924
 31
0.0
  0
LINE
  5
180
330
1F
100
AcDbEntity
  8
0
100
AcDbLine
 10
-8.948920897546047
 20
-13.12637443761396
 30
0.0
 11
-8.483046653631424
 21
-13.06504092984097
 31
0.0
  0
LINE
  5
181
330
1F
100
AcDbEntity
  8
0
100
AcDbLine
 10
-9.755838757943819
 20
-13.59224868152854
 30
0.0
 11
-9.383046581631408
 21
-13.30619518373662
 31
0.0
  0
LINE
  5
182
330
1F
100
AcDbEntity
  8
0
100
AcDbLine
 10
-42.38175555783756
 20
-20.95491573983442
 30
0.0
 11
-42.45339453664184
 21
-21.41931693173066
 31
0.0
  0
LINE
  5
183
330
1F
100
AcDbEntity
  8
0
100
AcDbLine
 10
-86.23940429981776
 20
-14.6650408018218
 30
0.0
 11
-86.07956363659794
 21
-14.27915130485728
 31
0.0
  0
LINE
  5
184
330
1F
100
AcDbEntity
  8
0
100
AcDbLine
 10
-86.07956363659794
 20
-14.27915130485728
 30
0.0
 11
-86.02504496302183
 21
-13.86504086582198
 31
0.0
  0
LINE
  5
185
330
1F
100
AcDbEntity
  8
0
100
AcDbLine
 10
-10.28304650963139
 20
18.03495658215915
 30
0.0
 11
-10.22171300185844
 21
18.50083082607377
 31
0.0
  0
LINE
  5
186
330
1F
100
AcDbEntity
  8
0
100
AcDbLine
 10
107.652497329621
 20
71.15880904101417
 30
0.0
 11
4.954235664362025
 21
71.15880904101412
 31
0.0
  0
LINE
  5
187
330
1F
100
AcDbEntity
  8
0
100
AcDbLine
 10
4.954235664362025
 20
71.15880904101412
 30
0.0
 11
4.954235664362025
 21
66.15880944101406
 31
0.0
  0
LINE
  5
188
330
1F
100
AcDbEntity
  8
0
100
AcDbLine
 10
4.954235664362025
 20
66.15880944101406
 30
0.0
 11
58.95423134436291
 21
47.55881092901392
 31
0.0
  0
LINE
  5
189
330
1F
100
AcDbEntity
  8
0
100
AcDbLine
 10
5.962841873614789
 20
28.13146708185416
 30
0.0
 11
5.962841873614789
 21
-24.96852867014597
 31
0.0
  0
LINE
  5
18A
330
1F
100
AcDbEntity
  8
0
100
AcDbLine
 10
50.06141544182144
 20
28.1314670818538
 30
0.0
 11
40.56283910561617
 21
28.1314670818538
 31
0.0
  0
LINE
  5
18B
330
1F
100
AcDbEntity
  8
0
100
AcDbLine
 10
45.10226289676897
 20
18.93146781785371
 30
0.0
 11
45.38831639456097
 21
19.3042599941663
 31
0.0
  0
LINE
  5
18C
330
1F
100
AcDbEntity
  8
0
100
AcDbLine
 10
45.38831639456097
 20
19.3042599941663
 30
0.0
 11
45.7611085708732
 21
19.59031349195813
 31
0.0
  0
LINE
  5
18D
330
1F
100
AcDbEntity
  8
0
100
AcDbLine
 10
10.7453804001915
 20
-17.168529294146
 30
0.0
 11
10.7453804001915
 21
-10.26852984614594
 31
0.0
  0
LINE
  5
18E
330
1F
100
AcDbEntity
  8
0
100
AcDbLine
 10
50.06283834561515
 20
-24.96852867014637
 30
0.0
 11
40.56283910561545
 21
-24.96852867014624
 31
0.0
  0
LINE
  5
18F
330
1F
100
AcDbEntity
  8
0
100
AcDbLine
 10
5.962841873614789
 20
-24.96852867014597
 30
0.0
 11
17.262840969615
 21
-24.96852867014597
 31
0.0
  0
LINE
  5
190
330
1F
100
AcDbEntity
  8
0
100
AcDbLine
 10
17.262840969615
 20
28.13146708185416
 30
0.0
 11
17.262840969615
 21
33.13146668185405
 31
0.0
  0
LINE
  5
191
330
1F
100
AcDbEntity
  8
0
100
AcDbLine
 10
12.39403006492708
 20
-54.98324016808105
 30
0.0
 11
12.23511145504259
 21
-55.19034693269904
 31
0.0
  0
LINE
  5
192
330
1F
100
AcDbEntity
  8
0
100
AcDbLine
 10
12.23511145504259
 20
-55.19034693269904
 30
0.0
 11
12.0280046904246
 21
-55.34926554258352
 31
0.0
  0
LINE
  5
193
330
1F
100
AcDbEntity
  8
0
100
AcDbLine
 10
12.0280046904246
 20
-55.34926554258352
 30
0.0
 11
11.78682375482173
 21
-55.44916595709604
 31
0.0
  0
LINE
  5
194
330
1F
100
AcDbEntity
  8
0
100
AcDbLine
 10
11.78682375482173
 20
-55.44916595709604
 30
0.0
 11
11.52800473042471
 21
-55.48324012808111
 31
0.0
  0
LINE
  5
195
330
1F
100
AcDbEntity
  8
0
100
AcDbLine
 10
6.659540961978574
 20
-55.48324012808111
 30
0.0
 11
11.52800473042471
 21
-55.48324012808111
 31
0.0
  0
LINE
  5
196
330
1F
100
AcDbEntity
  8
0
100
AcDbLine
 10
-0.9439255687024009
 20
-57.840627501775
 30
0.0
 11
-0.9439255687024009
 21
-49.83685163226172
 31
0.0
  0
LINE
  5
197
330
1F
100
AcDbEntity
  8
0
100
AcDbLine
 10
-6.142195033960334
 20
-49.83685163226177
 30
0.0
 11
-0.9439255687024009
 21
-49.83685163226172
 31
0.0
  0
LINE
  5
198
330
1F
100
AcDbEntity
  8
0
100
AcDbLine
 10
-6.142195033960334
 20
-44.23685208026173
 30
0.0
 11
-6.142195033960334
 21
-49.83685163226177
 31
0.0
  0
LINE
  5
199
330
1F
100
AcDbEntity
  8
0
100
AcDbLine
 10
-6.176269204945225
 20
-43.97803305586473
 30
0.0
 11
-6.142195033960334
 21
-44.23685208026173
 31
0.0
  0
LINE
  5
19A
330
1F
100
AcDbEntity
  8
0
100
AcDbLine
 10
-6.276169619457932
 20
-43.73685212026172
 30
0.0
 11
-6.176269204945225
 21
-43.97803305586473
 31
0.0
  0
LINE
  5
19B
330
1F
100
AcDbEntity
  8
0
100
AcDbLine
 10
-6.435088229342238
 20
-43.52974535564373
 30
0.0
 11
-6.276169619457932
 21
-43.73685212026172
 31
0.0
  0
LINE
  5
19C
330
1F
100
AcDbEntity
  8
0
100
AcDbLine
 10
-6.642194993960224
 20
-43.37082674575934
 30
0.0
 11
-6.435088229342238
 21
-43.52974535564373
 31
0.0
  0
LINE
  5
19D
330
1F
100
AcDbEntity
  8
0
100
AcDbLine
 10
-6.883375929563281
 20
-43.27092633124672
 30
0.0
 11
-6.642194993960224
 21
-43.37082674575934
 31
0.0
  0
LINE
  5
19E
330
1F
100
AcDbEntity
  8
0
100
AcDbLine
 10
-7.142194953960295
 20
-43.23685216026173
 30
0.0
 11
-6.883375929563281
 21
-43.27092633124672
 31
0.0
  0
LINE
  5
19F
330
1F
100
AcDbEntity
  8
0
100
AcDbLine
 10
-7.142194953960295
 20
-43.23685216026173
 30
0.0
 11
-15.14219431396051
 21
-43.23685216026173
 31
0.0
  0
LINE
  5
1A0
330
1F
100
AcDbEntity
  8
0
100
AcDbLine
 10
-15.40101333835752
 20
-43.27092633124672
 30
0.0
 11
-15.14219431396051
 21
-43.23685216026173
 31
0.0
  0
LINE
  5
1A1
330
1F
100
AcDbEntity
  8
0
100
AcDbLine
 10
-15.64219427396058
 20
-43.37082674575934
 30
0.0
 11
-15.40101333835752
 21
-43.27092633124672
 31
0.0
  0
LINE
  5
1A2
330
1F
100
AcDbEntity
  8
0
100
AcDbLine
 10
-16.10812006297558
 20
-43.97803305586473
 30
0.0
 11
-16.00821964846287
 21
-43.73685212026172
 31
0.0
  0
LINE
  5
1A3
330
1F
100
AcDbEntity
  8
0
100
AcDbLine
 10
-16.14219423396047
 20
-44.23685208026173
 30
0.0
 11
-16.10812006297558
 21
-43.97803305586473
 31
0.0
  0
LINE
  5
1A4
330
1F
100
AcDbEntity
  8
0
100
AcDbLine
 10
-16.14219423396047
 20
-49.83685163226177
 30
0.0
 11
-16.14219423396047
 21
-44.23685208026173
 31
0.0
  0
LINE
  5
1A5
330
1F
100
AcDbEntity
  8
0
100
AcDbLine
 10
-31.64219299396047
 20
-49.83685163226177
 30
0.0
 11
-16.14219423396047
 21
-49.83685163226177
 31
0.0
  0
LINE
  5
1A6
330
1F
100
AcDbEntity
  8
0
100
AcDbLine
 10
-31.77616757945808
 20
-43.73685212026172
 30
0.0
 11
-31.93508618934238
 21
-43.52974535564373
 31
0.0
  0
LINE
  5
1A7
330
1F
100
AcDbEntity
  8
0
100
AcDbLine
 10
-31.93508618934238
 20
-43.52974535564373
 30
0.0
 11
-32.14219295396037
 21
-43.37082674575934
 31
0.0
  0
LINE
  5
1A8
330
1F
100
AcDbEntity
  8
0
100
AcDbLine
 10
-32.14219295396037
 20
-43.37082674575934
 30
0.0
 11
-32.38337388956342
 21
-43.27092633124672
 31
0.0
  0
LINE
  5
1A9
330
1F
100
AcDbEntity
  8
0
100
AcDbLine
 10
-32.38337388956342
 20
-43.27092633124672
 30
0.0
 11
-32.64219291396044
 21
-43.23685216026173
 31
0.0
  0
LINE
  5
1AA
330
1F
100
AcDbEntity
  8
0
100
AcDbLine
 10
-32.64219291396044
 20
-43.23685216026173
 30
0.0
 11
-40.64219227396065
 21
-43.23685216026173
 31
0.0
  0
LINE
  5
1AB
330
1F
100
AcDbEntity
  8
0
100
AcDbLine
 10
-40.90101129835767
 20
-43.27092633124672
 30
0.0
 11
-40.64219227396065
 21
-43.23685216026173
 31
0.0
  0
LINE
  5
1AC
330
1F
100
AcDbEntity
  8
0
100
AcDbLine
 10
-41.14219223396073
 20
-43.37082674575934
 30
0.0
 11
-40.90101129835767
 21
-43.27092633124672
 31
0.0
  0
LINE
  5
1AD
330
1F
100
AcDbEntity
  8
0
100
AcDbLine
 10
-41.34929899857871
 20
-43.52974535564373
 30
0.0
 11
-41.14219223396073
 21
-43.37082674575934
 31
0.0
  0
LINE
  5
1AE
330
1F
100
AcDbEntity
  8
0
100
AcDbLine
 10
-41.50821760846302
 20
-43.73685212026172
 30
0.0
 11
-41.34929899857871
 21
-43.52974535564373
 31
0.0
  0
LINE
  5
1AF
330
1F
100
AcDbEntity
  8
0
100
AcDbLine
 10
-41.60811802297572
 20
-43.97803305586473
 30
0.0
 11
-41.50821760846302
 21
-43.73685212026172
 31
0.0
  0
LINE
  5
1B0
330
1F
100
AcDbEntity
  8
0
100
AcDbLine
 10
-41.64219219396061
 20
-44.23685208026173
 30
0.0
 11
-41.60811802297572
 21
-43.97803305586473
 31
0.0
  0
LINE
  5
1B1
330
1F
100
AcDbEntity
  8
0
100
AcDbLine
 10
-41.64219219396061
 20
-44.23685208026173
 30
0.0
 11
-41.64219219396061
 21
-49.83685163226177
 31
0.0
  0
LINE
  5
1B2
330
1F
100
AcDbEntity
  8
0
100
AcDbLine
 10
-85.64218867396117
 20
-49.83685163226177
 30
0.0
 11
-41.64219219396061
 21
-49.83685163226177
 31
0.0
  0
LINE
  5
1B3
330
1F
100
AcDbEntity
  8
0
100
AcDbLine
 10
-85.64218867396117
 20
-44.23685208026173
 30
0.0
 11
-85.64218867396117
 21
-49.83685163226177
 31
0.0
  0
LINE
  5
1B4
330
1F
100
AcDbEntity
  8
0
100
AcDbLine
 10
-85.93508186934308
 20
-43.52974535564373
 30
0.0
 11
-85.77616325945878
 21
-43.73685212026172
 31
0.0
  0
LINE
  5
1B5
330
1F
100
AcDbEntity
  8
0
100
AcDbLine
 10
-86.14218863396107
 20
-43.37082674575934
 30
0.0
 11
-85.93508186934308
 21
-43.52974535564373
 31
0.0
  0
LINE
  5
1B6
330
1F
100
AcDbEntity
  8
0
100
AcDbLine
 10
-86.38336956956412
 20
-43.27092633124672
 30
0.0
 11
-86.14218863396107
 21
-43.37082674575934
 31
0.0
  0
LINE
  5
1B7
330
1F
100
AcDbEntity
  8
0
100
AcDbLine
 10
-86.64218859396114
 20
-43.23685216026173
 30
0.0
 11
-86.38336956956412
 21
-43.27092633124672
 31
0.0
  0
LINE
  5
1B8
330
1F
100
AcDbEntity
  8
0
100
AcDbLine
 10
-86.64218859396114
 20
-43.23685216026173
 30
0.0
 11
-94.64218795396135
 21
-43.23685216026173
 31
0.0
  0
LINE
  5
1B9
330
1F
100
AcDbEntity
  8
0
100
AcDbLine
 10
-94.90100697835837
 20
-43.27092633124672
 30
0.0
 11
-94.64218795396135
 21
-43.23685216026173
 31
0.0
  0
LINE
  5
1BA
330
1F
100
AcDbEntity
  8
0
100
AcDbLine
 10
-95.14218791396142
 20
-43.37082674575934
 30
0.0
 11
-94.90100697835837
 21
-43.27092633124672
 31
0.0
  0
LINE
  5
1BB
330
1F
100
AcDbEntity
  8
0
100
AcDbLine
 10
-95.34929467857941
 20
-43.52974535564373
 30
0.0
 11
-95.14218791396142
 21
-43.37082674575934
 31
0.0
  0
LINE
  5
1BC
330
1F
100
AcDbEntity
  8
0
100
AcDbLine
 10
-95.50821328846372
 20
-43.73685212026172
 30
0.0
 11
-95.34929467857941
 21
-43.52974535564373
 31
0.0
  0
LINE
  5
1BD
330
1F
100
AcDbEntity
  8
0
100
AcDbLine
 10
-95.60811370297642
 20
-43.97803305586473
 30
0.0
 11
-95.50821328846372
 21
-43.73685212026172
 31
0.0
  0
LINE
  5
1BE
330
1F
100
AcDbEntity
  8
0
100
AcDbLine
 10
-95.6421878739613
 20
-44.23685208026173
 30
0.0
 11
-95.6421878739613
 21
-49.83685163226177
 31
0.0
  0
LINE
  5
1BF
330
1F
100
AcDbEntity
  8
0
100
AcDbLine
 10
-103.6421872339613
 20
-49.83685163226177
 30
0.0
 11
-95.6421878739613
 21
-49.83685163226177
 31
0.0
  0
LINE
  5
1C0
330
1F
100
AcDbEntity
  8
0
100
AcDbLine
 10
-103.6421872339613
 20
-49.83685163226177
 30
0.0
 11
-103.6421872339613
 21
-54.83685123226186
 31
0.0
  0
LINE
  5
1C1
330
1F
100
AcDbEntity
  8
0
100
AcDbLine
 10
-44.64219195395977
 20
-73.43684974426189
 30
0.0
 11
-49.64219155396065
 21
-73.43684974426189
 31
0.0
  0
LINE
  5
1C2
330
1F
100
AcDbEntity
  8
0
100
AcDbLine
 10
-44.64219195395977
 20
-79.03684929626198
 30
0.0
 11
-44.64219195395977
 21
-73.43684974426189
 31
0.0
  0
LINE
  5
1C3
330
1F
100
AcDbEntity
  8
0
100
AcDbLine
 10
-44.64219195395977
 20
-79.03684929626198
 30
0.0
 11
-44.60811778297488
 21
-79.29566832065899
 31
0.0
  0
LINE
  5
1C4
330
1F
100
AcDbEntity
  8
0
100
AcDbLine
 10
-44.60811778297488
 20
-79.29566832065899
 30
0.0
 11
-44.50821736846217
 21
-79.536849256262
 31
0.0
  0
LINE
  5
1C5
330
1F
100
AcDbEntity
  8
0
100
AcDbLine
 10
-44.50821736846217
 20
-79.536849256262
 30
0.0
 11
-44.34929875857787
 21
-79.74395602087999
 31
0.0
  0
LINE
  5
1C6
330
1F
100
AcDbEntity
  8
0
100
AcDbLine
 10
-44.14219199395988
 20
-79.90287463076439
 30
0.0
 11
-43.90101105835682
 21
-80.002775045277
 31
0.0
  0
LINE
  5
1C7
330
1F
100
AcDbEntity
  8
0
100
AcDbLine
 10
-43.90101105835682
 20
-80.002775045277
 30
0.0
 11
-43.64219203395981
 21
-80.03684921626197
 31
0.0
  0
LINE
  5
1C8
330
1F
100
AcDbEntity
  8
0
100
AcDbLine
 10
-43.64219203395981
 20
-80.03684921626197
 30
0.0
 11
-39.04219240195974
 21
-80.03684921626197
 31
0.0
  0
LINE
  5
1C9
330
1F
100
AcDbEntity
  8
0
100
AcDbLine
 10
-38.78337337756273
 20
-80.002775045277
 30
0.0
 11
-39.04219240195974
 21
-80.03684921626197
 31
0.0
  0
LINE
  5
1CA
330
1F
100
AcDbEntity
  8
0
100
AcDbLine
 10
-38.54219244195968
 20
-79.90287463076439
 30
0.0
 11
-38.78337337756273
 21
-80.002775045277
 31
0.0
  0
LINE
  5
1CB
330
1F
100
AcDbEntity
  8
0
100
AcDbLine
 10
-38.33508567734169
 20
-79.74395602087999
 30
0.0
 11
-38.54219244195968
 21
-79.90287463076439
 31
0.0
  0
LINE
  5
1CC
330
1F
100
AcDbEntity
  8
0
100
AcDbLine
 10
-38.17616706745738
 20
-79.536849256262
 30
0.0
 11
-38.33508567734169
 21
-79.74395602087999
 31
0.0
  0
LINE
  5
1CD
330
1F
100
AcDbEntity
  8
0
100
AcDbLine
 10
-38.07626665294467
 20
-79.29566832065899
 30
0.0
 11
-38.17616706745738
 21
-79.536849256262
 31
0.0
  0
LINE
  5
1CE
330
1F
100
AcDbEntity
  8
0
100
AcDbLine
 10
-38.04219248195979
 20
-79.03684929626198
 30
0.0
 11
-38.07626665294467
 21
-79.29566832065899
 31
0.0
  0
LINE
  5
1CF
330
1F
100
AcDbEntity
  8
0
100
AcDbLine
 10
-38.04219248195979
 20
-79.03684929626198
 30
0.0
 11
-38.04219248195979
 21
-73.43684974426189
 31
0.0
  0
LINE
  5
1D0
330
1F
100
AcDbEntity
  8
0
100
AcDbLine
 10
-38.04219248195979
 20
-73.43684974426189
 30
0.0
 11
-32.75965649344176
 21
-73.43684974426189
 31
0.0
  0
LINE
  5
1D1
330
1F
100
AcDbEntity
  8
0
100
AcDbLine
 10
-32.75965649344176
 20
-73.43684974426189
 30
0.0
 11
-32.75965649344176
 21
-64.43685046426191
 31
0.0
  0
LINE
  5
1D2
330
1F
100
AcDbEntity
  8
0
100
AcDbLine
 10
-38.54219244196058
 20
-64.43685046426191
 30
0.0
 11
-32.75965649344176
 21
-64.43685046426191
 31
0.0
  0
LINE
  5
1D3
330
1F
100
AcDbEntity
  8
0
100
AcDbLine
 10
-38.54219244196058
 20
-57.83685099226183
 30
0.0
 11
-38.54219244196058
 21
-64.43685046426191
 31
0.0
  0
LINE
  5
1D4
330
1F
100
AcDbEntity
  8
0
100
AcDbLine
 10
-15.04219432196017
 20
-64.43685046426191
 30
0.0
 11
-15.04219432196017
 21
-57.83685099226183
 31
0.0
  0
LINE
  5
1D5
330
1F
100
AcDbEntity
  8
0
100
AcDbLine
 10
-17.75446952897337
 20
-79.03684929626198
 30
0.0
 11
-17.75446952897337
 21
-64.43685046426191
 31
0.0
  0
LINE
  5
1D6
330
1F
100
AcDbEntity
  8
0
100
AcDbLine
 10
-17.25446956897348
 20
-79.90287463076439
 30
0.0
 11
-17.46157633359147
 21
-79.74395602087999
 31
0.0
  0
LINE
  5
1D7
330
1F
100
AcDbEntity
  8
0
100
AcDbLine
 10
-17.01328863337043
 20
-80.002775045277
 30
0.0
 11
-17.25446956897348
 21
-79.90287463076439
 31
0.0
  0
LINE
  5
1D8
330
1F
100
AcDbEntity
  8
0
100
AcDbLine
 10
-16.75446960897341
 20
-80.03684921626197
 30
0.0
 11
-17.01328863337043
 21
-80.002775045277
 31
0.0
  0
LINE
  5
1D9
330
1F
100
AcDbEntity
  8
0
100
AcDbLine
 10
-16.75446960897341
 20
-80.03684921626197
 30
0.0
 11
-5.842195057960581
 21
-80.03684921626197
 31
0.0
  0
LINE
  5
1DA
330
1F
100
AcDbEntity
  8
0
100
AcDbLine
 10
-5.583376033563569
 20
-80.002775045277
 30
0.0
 11
-5.842195057960581
 21
-80.03684921626197
 31
0.0
  0
LINE
  5
1DB
330
1F
100
AcDbEntity
  8
0
100
AcDbLine
 10
-5.342195097960511
 20
-79.90287463076439
 30
0.0
 11
-5.583376033563569
 21
-80.002775045277
 31
0.0
  0
LINE
  5
1DC
330
1F
100
AcDbEntity
  8
0
100
AcDbLine
 10
-5.135088333342525
 20
-79.74395602087999
 30
0.0
 11
-5.342195097960511
 21
-79.90287463076439
 31
0.0
  0
LINE
  5
1DD
330
1F
100
AcDbEntity
  8
0
100
AcDbLine
 10
-4.976169723458219
 20
-79.536849256262
 30
0.0
 11
-5.135088333342525
 21
-79.74395602087999
 31
0.0
  0
LINE
  5
1DE
330
1F
100
AcDbEntity
  8
0
100
AcDbLine
 10
-4.876269308945512
 20
-79.29566832065899
 30
0.0
 11
-4.976169723458219
 21
-79.536849256262
 31
0.0
  0
LINE
  5
1DF
330
1F
100
AcDbEntity
  8
0
100
AcDbLine
 10
-4.842195137960622
 20
-79.03684929626202
 30
0.0
 11
-4.876269308945512
 21
-79.29566832065899
 31
0.0
  0
LINE
  5
1E0
330
1F
100
AcDbEntity
  8
0
100
AcDbLine
 10
-4.842195137960442
 20
-73.43684974426189
 30
0.0
 11
-4.842195137960622
 21
-79.03684929626202
 31
0.0
  0
LINE
  5
1E1
330
1F
100
AcDbEntity
  8
0
100
AcDbLine
 10
-4.842195137960442
 20
-73.43684974426189
 30
0.0
 11
-0.9439255687025814
 21
-73.43684974426185
 31
0.0
  0
LINE
  5
1E2
330
1F
100
AcDbEntity
  8
0
100
AcDbLine
 10
-0.9439255687025814
 20
-73.43684974426185
 30
0.0
 11
-0.9439255687025814
 21
-64.44062909825463
 31
0.0
  0
LINE
  5
1E3
330
1F
100
AcDbEntity
  8
0
100
AcDbLine
 10
-0.9439255687025814
 20
-64.44062909825463
 30
0.0
 11
-5.747386943319538
 21
-64.43685046426191
 31
0.0
  0
LINE
  5
1E4
330
1F
100
AcDbEntity
  8
0
100
AcDbLine
 10
-5.747386943319538
 20
-64.43685046426191
 30
0.0
 11
-5.742195065960242
 21
-57.83685099226183
 31
0.0
  0
LINE
  5
1E5
330
1F
100
AcDbEntity
  8
0
100
AcDbLine
 10
-5.742195065960242
 20
-57.83685099226183
 30
0.0
 11
-0.9439255687024009
 21
-57.840627501775
 31
0.0
  0
LINE
  5
1E6
330
1F
100
AcDbEntity
  8
0
100
AcDbLine
 10
-8.059658469440539
 20
-65.12633863245127
 30
0.0
 11
-5.859658645440303
 21
-68.93685010426191
 31
0.0
  0
LINE
  5
1E7
330
1F
100
AcDbEntity
  8
0
100
AcDbLine
 10
-5.859658645440303
 20
-68.93685010426191
 30
0.0
 11
-8.05965846944036
 21
-72.74736157607255
 31
0.0
  0
LINE
  5
1E8
330
1F
100
AcDbEntity
  8
0
100
AcDbLine
 10
-8.05965846944036
 20
-72.74736157607255
 30
0.0
 11
-12.45965811744029
 21
-72.74736157607255
 31
0.0
  0
LINE
  5
1E9
330
1F
100
AcDbEntity
  8
0
100
AcDbLine
 10
-12.45965811744029
 20
-72.74736157607255
 30
0.0
 11
-14.65965794144052
 21
-68.93685010426191
 31
0.0
  0
LINE
  5
1EA
330
1F
100
AcDbEntity
  8
0
100
AcDbLine
 10
-14.65965794144052
 20
-68.93685010426191
 30
0.0
 11
-12.45965811744047
 21
-65.12633863245127
 31
0.0
  0
LINE
  5
1EB
330
1F
100
AcDbEntity
  8
0
100
AcDbLine
 10
-12.45965811744047
 20
-65.12633863245127
 30
0.0
 11
-8.059658469440539
 21
-65.12633863245127
 31
0.0
  0
LINE
  5
1EC
330
1F
100
AcDbEntity
  8
0
100
AcDbLine
 10
-47.38085822218819
 20
-69.40272434817653
 30
0.0
 11
-47.44219172996132
 21
-68.93685010426191
 31
0.0
  0
LINE
  5
1ED
330
1F
100
AcDbEntity
  8
0
100
AcDbLine
 10
-47.44219172996132
 20
-68.93685010426191
 30
0.0
 11
-47.38085822218819
 21
-68.47097586034728
 31
0.0
  0
LINE
  5
1EE
330
1F
100
AcDbEntity
  8
0
100
AcDbLine
 10
-47.20103747606557
 20
-68.03685017626184
 30
0.0
 11
-46.91498397827375
 21
-67.66405799994942
 31
0.0
  0
LINE
  5
1EF
330
1F
100
AcDbEntity
  8
0
100
AcDbLine
 10
-46.54219180196116
 20
-67.37800450215751
 30
0.0
 11
-46.10806611787579
 21
-67.1981837560348
 31
0.0
  0
LINE
  5
1F0
330
1F
100
AcDbEntity
  8
0
100
AcDbLine
 10
-46.10806611787579
 20
-67.1981837560348
 30
0.0
 11
-45.64219187396117
 21
-67.13685024826185
 31
0.0
  0
LINE
  5
1F1
330
1F
100
AcDbEntity
  8
0
100
AcDbLine
 10
-45.64219187396117
 20
-67.13685024826185
 30
0.0
 11
-45.17631763004655
 21
-67.1981837560348
 31
0.0
  0
LINE
  5
1F2
330
1F
100
AcDbEntity
  8
0
100
AcDbLine
 10
-45.17631763004655
 20
-67.1981837560348
 30
0.0
 11
-44.74219194596119
 21
-67.37800450215751
 31
0.0
  0
LINE
  5
1F3
330
1F
100
AcDbEntity
  8
0
100
AcDbLine
 10
-43.90352552573416
 20
-68.47097586034728
 30
0.0
 11
-43.84219201796103
 21
-68.93685010426191
 31
0.0
  0
LINE
  5
1F4
330
1F
100
AcDbEntity
  8
0
100
AcDbLine
 10
-43.90352552573416
 20
-69.40272434817653
 30
0.0
 11
-44.08334627185678
 21
-69.83685003226198
 31
0.0
  0
LINE
  5
1F5
330
1F
100
AcDbEntity
  8
0
100
AcDbLine
 10
-45.17631763004655
 20
-70.675516452489
 30
0.0
 11
-45.64219187396117
 21
-70.73684996026196
 31
0.0
  0
LINE
  5
1F6
330
1F
100
AcDbEntity
  8
0
100
AcDbLine
 10
-46.10806611787579
 20
-70.675516452489
 30
0.0
 11
-46.54219180196116
 21
-70.4956957063663
 31
0.0
  0
LINE
  5
1F7
330
1F
100
AcDbEntity
  8
0
100
AcDbLine
 10
-46.54219180196116
 20
-70.4956957063663
 30
0.0
 11
-46.91498397827375
 21
-70.2096422085744
 31
0.0
  0
LINE
  5
1F8
330
1F
100
AcDbEntity
  8
0
100
AcDbLine
 10
-46.91498397827375
 20
-70.2096422085744
 30
0.0
 11
-47.20103747606557
 21
-69.83685003226198
 31
0.0
  0
LINE
  5
1F9
330
1F
100
AcDbEntity
  8
0
100
AcDbLine
 10
-47.20103747606557
 20
-69.83685003226198
 30
0.0
 11
-47.38085822218819
 21
-69.40272434817653
 31
0.0
  0
LINE
  5
1FA
330
1F
100
AcDbEntity
  8
0
100
AcDbLine
 10
92.76528375258218
 20
-24.96503997784109
 30
0.0
 11
106.0775581115943
 21
-24.96503997784109
 31
0.0
  0
LINE
  5
1FB
330
1F
100
AcDbEntity
  8
0
100
AcDbLine
 10
92.76528375258218
 20
-31.76503943384112
 30
0.0
 11
92.76528375258218
 21
-24.96503997784109
 31
0.0
  0
LINE
  5
1FC
330
1F
100
AcDbEntity
  8
0
100
AcDbLine
 10
106.0775581115943
 20
-31.76503943384112
 30
0.0
 11
92.76528375258218
 21
-31.76503943384112
 31
0.0
  0
LINE
  5
1FD
330
1F
100
AcDbEntity
  8
0
100
AcDbLine
 10
-34.63670181637453
 20
46.38744283803291
 30
0.0
 11
-34.73660223088723
 21
46.14626190242994
 31
0.0
  0
LINE
  5
1FE
330
1F
100
AcDbEntity
  8
0
100
AcDbLine
 10
-34.73660223088723
 20
46.14626190242994
 30
0.0
 11
-34.89552084077154
 21
45.93915513781196
 31
0.0
  0
LINE
  5
1FF
330
1F
100
AcDbEntity
  8
0
100
AcDbLine
 10
-34.89552084077154
 20
45.93915513781196
 30
0.0
 11
-35.10262760538952
 21
45.78023652792747
 31
0.0
  0
LINE
  5
200
330
1F
100
AcDbEntity
  8
0
100
AcDbLine
 10
-35.10262760538952
 20
45.78023652792747
 30
0.0
 11
-35.34380854099258
 21
45.68033611341495
 31
0.0
  0
LINE
  5
201
330
1F
100
AcDbEntity
  8
0
100
AcDbLine
 10
53.66110793887344
 20
34.13146660185374
 30
0.0
 11
51.0614153618214
 21
34.13146660185374
 31
0.0
  0
LINE
  5
202
330
1F
100
AcDbEntity
  8
0
100
AcDbLine
 10
-43.75407047978536
 20
-22.6636004896579
 30
0.0
 11
-44.22118911688354
 21
-22.71459842289299
 31
0.0
  0
LINE
  5
203
330
1F
100
AcDbEntity
  8
0
100
AcDbLine
 10
-43.31606776065331
 20
-22.49344106925543
 30
0.0
 11
-43.75407047978536
 21
-22.6636004896579
 31
0.0
  0
LINE
  5
204
330
1F
100
AcDbEntity
  8
0
100
AcDbLine
 10
106.0775581115947
 20
28.13495577415904
 30
0.0
 11
106.0775581115947
 21
34.93495523015907
 31
0.0
  0
LINE
  5
205
330
1F
100
AcDbEntity
  8
0
100
AcDbLine
 10
-43.102626965391
 20
58.30510665653435
 30
0.0
 11
-42.66850128130564
 21
58.48492740265705
 31
0.0
  0
LINE
  5
206
330
1F
100
AcDbEntity
  8
0
100
AcDbLine
 10
-43.4754191417036
 20
58.01905315874243
 30
0.0
 11
-43.102626965391
 21
58.30510665653435
 31
0.0
  0
LINE
  5
207
330
1F
100
AcDbEntity
  8
0
100
AcDbLine
 10
-43.76147263949542
 20
57.64626098243002
 30
0.0
 11
-43.4754191417036
 21
58.01905315874243
 31
0.0
  0
LINE
  5
208
330
1F
100
AcDbEntity
  8
0
100
AcDbLine
 10
-44.00262689339117
 20
56.74626105442995
 30
0.0
 11
-43.94129338561803
 21
57.21213529834457
 31
0.0
  0
LINE
  5
209
330
1F
100
AcDbEntity
  8
0
100
AcDbLine
 10
-4.620093632870388
 20
60.5567725262406
 30
0.0
 11
-2.420093808870152
 21
56.74626105442995
 31
0.0
  0
LINE
  5
20A
330
1F
100
AcDbEntity
  8
0
100
AcDbLine
 10
-9.020093280870318
 20
60.5567725262406
 30
0.0
 11
-4.620093632870388
 21
60.5567725262406
 31
0.0
  0
LINE
  5
20B
330
1F
100
AcDbEntity
  8
0
100
AcDbLine
 10
-9.020093280870137
 20
52.9357495826193
 30
0.0
 11
-11.22009310487037
 21
56.74626105442995
 31
0.0
  0
LINE
  5
20C
330
1F
100
AcDbEntity
  8
0
100
AcDbLine
 10
-43.75407047979185
 20
25.83351628597819
 30
0.0
 11
-43.31606776065909
 21
25.66335686557739
 31
0.0
  0
LINE
  5
20D
330
1F
100
AcDbEntity
  8
0
100
AcDbLine
 10
-44.22118911689022
 20
25.88451421921157
 30
0.0
 11
-43.75407047979185
 21
25.83351628597819
 31
0.0
  0
LINE
  5
20E
330
1F
100
AcDbEntity
  8
0
100
AcDbLine
 10
-44.68559030878613
 20
25.81287524040559
 30
0.0
 11
-44.22118911689022
 21
25.88451421921157
 31
0.0
  0
LINE
  5
20F
330
1F
100
AcDbEntity
  8
0
100
AcDbLine
 10
-6.744380305404411
 20
-15.33091502975551
 30
0.0
 11
-6.92420105152721
 21
-15.76504071384091
 31
0.0
  0
LINE
  5
210
330
1F
100
AcDbEntity
  8
0
100
AcDbLine
 10
-6.683046797631461
 20
-14.86504078584093
 30
0.0
 11
-6.744380305404411
 21
-15.33091502975551
 31
0.0
  0
LINE
  5
211
330
1F
100
AcDbEntity
  8
0
100
AcDbLine
 10
-6.744380305404411
 20
-14.39916654192635
 30
0.0
 11
-6.683046797631461
 21
-14.86504078584093
 31
0.0
  0
LINE
  5
212
330
1F
100
AcDbEntity
  8
0
100
AcDbLine
 10
-86.82504489902165
 20
-12.47940033061818
 30
0.0
 11
-87.21093439598643
 21
-12.31955966739817
 31
0.0
  0
LINE
  5
213
330
1F
100
AcDbEntity
  8
0
100
AcDbLine
 10
-87.21093439598643
 20
-12.31955966739817
 30
0.0
 11
-87.62504483502164
 21
-12.26504099382224
 31
0.0
  0
LINE
  5
214
330
1F
100
AcDbEntity
  8
0
100
AcDbLine
 10
-93.82504433902172
 20
-12.26504099382224
 30
0.0
 11
-87.62504483502164
 21
-12.26504099382224
 31
0.0
  0
LINE
  5
215
330
1F
100
AcDbEntity
  8
0
100
AcDbLine
 10
-93.82504433902172
 20
-12.26504099382224
 30
0.0
 11
-94.23915477805694
 21
-12.31955966739799
 31
0.0
  0
LINE
  5
216
330
1F
100
AcDbEntity
  8
0
100
AcDbLine
 10
-85.82504497902187
 20
14.62533791171431
 30
0.0
 11
-88.93164644829203
 21
12.24155876344829
 31
0.0
  0
LINE
  5
217
330
1F
100
AcDbEntity
  8
0
100
AcDbLine
 10
-88.93164644829203
 20
12.24155876344829
 30
0.0
 11
-91.31542559655804
 21
9.134957294178268
 31
0.0
  0
LINE
  5
218
330
1F
100
AcDbEntity
  8
0
100
AcDbLine
 10
-91.31542559655804
 20
9.134957294178268
 30
0.0
 11
-92.81393181424703
 21
5.517243260133301
 31
0.0
  0
LINE
  5
219
330
1F
100
AcDbEntity
  8
0
100
AcDbLine
 10
-92.81393181424703
 20
5.517243260133301
 30
0.0
 11
-93.32504437902202
 21
1.634957894178209
 31
0.0
  0
LINE
  5
21A
330
1F
100
AcDbEntity
  8
0
100
AcDbLine
 10
-85.82504497902187
 20
-11.35542212335803
 30
0.0
 11
-82.20733094497672
 21
-12.85392834104692
 31
0.0
  0
LINE
  5
21B
330
1F
100
AcDbEntity
  8
0
100
AcDbLine
 10
-82.20733094497672
 20
-12.85392834104692
 30
0.0
 11
-78.32504557902172
 21
-13.36504090582191
 31
0.0
  0
LINE
  5
21C
330
1F
100
AcDbEntity
  8
0
100
AcDbLine
 10
-78.32504557902172
 20
-13.36504090582191
 30
0.0
 11
-72.12504607502164
 21
-13.36504090582191
 31
0.0
  0
LINE
  5
21D
330
1F
100
AcDbEntity
  8
0
100
AcDbLine
 10
-72.12504607502164
 20
-13.36504090582191
 30
0.0
 11
-68.24276070906664
 21
-12.85392834104692
 31
0.0
  0
LINE
  5
21E
330
1F
100
AcDbEntity
  8
0
100
AcDbLine
 10
-68.24276070906664
 20
-12.85392834104692
 30
0.0
 11
-64.62504667502168
 21
-11.35542212335803
 31
0.0
  0
LINE
  5
21F
330
1F
100
AcDbEntity
  8
0
100
AcDbLine
 10
35.62799780631089
 20
-54.48324020808107
 30
0.0
 11
35.62799780631089
 21
-42.98324112808107
 31
0.0
  0
LINE
  5
220
330
1F
100
AcDbEntity
  8
0
100
AcDbLine
 10
30.62799820631073
 20
-42.98324112808107
 30
0.0
 11
35.62799780631089
 21
-42.98324112808107
 31
0.0
  0
LINE
  5
221
330
1F
100
AcDbEntity
  8
0
100
AcDbLine
 10
30.62799820631073
 20
-38.98324144808106
 30
0.0
 11
30.62799820631073
 21
-42.98324112808107
 31
0.0
  0
LINE
  5
222
330
1F
100
AcDbEntity
  8
0
100
AcDbLine
 10
30.62799820631073
 20
-38.98324144808106
 30
0.0
 11
30.59392403532566
 21
-38.72442242368404
 31
0.0
  0
LINE
  5
223
330
1F
100
AcDbEntity
  8
0
100
AcDbLine
 10
30.59392403532566
 20
-38.72442242368404
 30
0.0
 11
30.49402362081313
 21
-38.48324148808108
 31
0.0
  0
LINE
  5
224
330
1F
100
AcDbEntity
  8
0
100
AcDbLine
 10
30.49402362081313
 20
-38.48324148808108
 30
0.0
 11
30.33510501092865
 21
-38.27613472346309
 31
0.0
  0
LINE
  5
225
330
1F
100
AcDbEntity
  8
0
100
AcDbLine
 10
30.33510501092865
 20
-38.27613472346309
 30
0.0
 11
30.12799824631066
 21
-38.1172161135786
 31
0.0
  0
LINE
  5
226
330
1F
100
AcDbEntity
  8
0
100
AcDbLine
 10
30.12799824631066
 20
-38.1172161135786
 30
0.0
 11
29.8868173107076
 21
-38.01731569906607
 31
0.0
  0
LINE
  5
227
330
1F
100
AcDbEntity
  8
0
100
AcDbLine
 10
11.65954056197873
 20
-37.983241528081
 30
0.0
 11
29.62799828631077
 21
-37.983241528081
 31
0.0
  0
LINE
  5
228
330
1F
100
AcDbEntity
  8
0
100
AcDbLine
 10
11.40072153758172
 20
-38.01731569906607
 30
0.0
 11
11.65954056197873
 21
-37.983241528081
 31
0.0
  0
LINE
  5
229
330
1F
100
AcDbEntity
  8
0
100
AcDbLine
 10
11.15954060197866
 20
-38.1172161135786
 30
0.0
 11
11.40072153758172
 21
-38.01731569906607
 31
0.0
  0
LINE
  5
22A
330
1F
100
AcDbEntity
  8
0
100
AcDbLine
 10
10.65954064197877
 20
-38.98324144808106
 30
0.0
 11
10.69361481296384
 21
-38.72442242368404
 31
0.0
  0
LINE
  5
22B
330
1F
100
AcDbEntity
  8
0
100
AcDbLine
 10
5.659541041978614
 20
-42.98324112808107
 30
0.0
 11
10.65954064197877
 21
-42.98324112808107
 31
0.0
  0
LINE
  5
22C
330
1F
100
AcDbEntity
  8
0
100
AcDbLine
 10
5.659541041978614
 20
-42.98324112808107
 30
0.0
 11
5.659541041978614
 21
-54.48324020808107
 31
0.0
  0
LINE
  5
22D
330
1F
100
AcDbEntity
  8
0
100
AcDbLine
 10
5.693615212963686
 20
-54.74205923247808
 30
0.0
 11
5.659541041978614
 21
-54.48324020808107
 31
0.0
  0
LINE
  5
22E
330
1F
100
AcDbEntity
  8
0
100
AcDbLine
 10
6.400721937581743
 20
-55.44916595709604
 30
0.0
 11
6.159541001978685
 21
-55.34926554258352
 31
0.0
  0
LINE
  5
22F
330
1F
100
AcDbEntity
  8
0
100
AcDbLine
 10
6.659540961978574
 20
-55.48324012808111
 30
0.0
 11
6.400721937581743
 21
-55.44916595709604
 31
0.0
  0
LINE
  5
230
330
1F
100
AcDbEntity
  8
0
100
AcDbLine
 10
29.46917925391392
 20
-55.44916595709604
 30
0.0
 11
29.22799831831086
 21
-55.34926554258352
 31
0.0
  0
LINE
  5
231
330
1F
100
AcDbEntity
  8
0
100
AcDbLine
 10
29.72799827831075
 20
-55.48324012808111
 30
0.0
 11
34.62799788631075
 21
-55.48324012808111
 31
0.0
  0
LINE
  5
232
330
1F
100
AcDbEntity
  8
0
100
AcDbLine
 10
34.88681691070776
 20
-55.44916595709604
 30
0.0
 11
34.62799788631075
 21
-55.48324012808111
 31
0.0
  0
LINE
  5
233
330
1F
100
AcDbEntity
  8
0
100
AcDbLine
 10
35.12799784631064
 20
-55.34926554258352
 30
0.0
 11
34.88681691070776
 21
-55.44916595709604
 31
0.0
  0
LINE
  5
234
330
1F
100
AcDbEntity
  8
0
100
AcDbLine
 10
35.33510461092862
 20
-55.19034693269904
 30
0.0
 11
35.12799784631064
 21
-55.34926554258352
 31
0.0
  0
LINE
  5
235
330
1F
100
AcDbEntity
  8
0
100
AcDbLine
 10
35.49402322081311
 20
-54.98324016808105
 30
0.0
 11
35.33510461092862
 21
-55.19034693269904
 31
0.0
  0
LINE
  5
236
330
1F
100
AcDbEntity
  8
0
100
AcDbLine
 10
-28.70262811739022
 20
82.31228441293254
 30
0.0
 11
-28.49552135277223
 21
82.15336580304805
 31
0.0
  0
LINE
  5
237
330
1F
100
AcDbEntity
  8
0
100
AcDbLine
 10
-28.49552135277223
 20
82.15336580304805
 30
0.0
 11
-28.33660274288793
 21
81.94625903843007
 31
0.0
  0
LINE
  5
238
330
1F
100
AcDbEntity
  8
0
100
AcDbLine
 10
-28.33660274288793
 20
81.94625903843007
 30
0.0
 11
-28.23670232837522
 21
81.7050781028271
 31
0.0
  0
LINE
  5
239
330
1F
100
AcDbEntity
  8
0
100
AcDbLine
 10
-10.04189225573564
 20
-13.96504085784095
 30
0.0
 11
-9.755838757943819
 21
-13.59224868152854
 31
0.0
  0
LINE
  5
23A
330
1F
100
AcDbEntity
  8
0
100
AcDbLine
 10
-10.28304650963139
 20
-14.86504078584093
 30
0.0
 11
-10.22171300185844
 21
-14.39916654192635
 31
0.0
  0
LINE
  5
23B
330
1F
100
AcDbEntity
  8
0
100
AcDbLine
 10
-10.22171300185844
 20
-15.33091502975551
 30
0.0
 11
-10.28304650963139
 21
-14.86504078584093
 31
0.0
  0
LINE
  5
23C
330
1F
100
AcDbEntity
  8
0
100
AcDbLine
 10
-6.92420105152721
 20
-13.96504085784095
 30
0.0
 11
-6.744380305404411
 21
-14.39916654192635
 31
0.0
  0
LINE
  5
23D
330
1F
100
AcDbEntity
  8
0
100
AcDbLine
 10
-7.210254549319031
 20
-13.59224868152854
 30
0.0
 11
-6.92420105152721
 21
-13.96504085784095
 31
0.0
  0
LINE
  5
23E
330
1F
100
AcDbEntity
  8
0
100
AcDbLine
 10
-7.583046725631444
 20
-13.30619518373662
 30
0.0
 11
-7.210254549319031
 21
-13.59224868152854
 31
0.0
  0
LINE
  5
23F
330
1F
100
AcDbEntity
  8
0
100
AcDbLine
 10
9.71907342054123
 20
22.78029850376893
 30
0.0
 11
9.424686496482966
 21
23.14654561879155
 31
0.0
  0
LINE
  5
240
330
1F
100
AcDbEntity
  8
0
100
AcDbLine
 10
10.09822108199256
 20
22.50272389914026
 30
0.0
 11
9.71907342054123
 21
22.78029850376893
 31
0.0
  0
LINE
  5
241
330
1F
100
AcDbEntity
  8
0
100
AcDbLine
 10
10.53629119428012
 20
22.3327380554973
 30
0.0
 11
10.09822108199256
 21
22.50272389914026
 31
0.0
  0
LINE
  5
242
330
1F
100
AcDbEntity
  8
0
100
AcDbLine
 10
11.00343000319668
 20
22.28192522716898
 30
0.0
 11
10.53629119428012
 21
22.3327380554973
 31
0.0
  0
LINE
  5
243
330
1F
100
AcDbEntity
  8
0
100
AcDbLine
 10
100.0371619886261
 20
17.56908233824453
 30
0.0
 11
99.97582848085293
 21
18.03495658215915
 31
0.0
  0
LINE
  5
244
330
1F
100
AcDbEntity
  8
0
100
AcDbLine
 10
66.50397371215443
 20
25.83371907416522
 30
0.0
 11
66.94205722550586
 21
25.66376777040882
 31
0.0
  0
LINE
  5
245
330
1F
100
AcDbEntity
  8
0
100
AcDbLine
 10
-11.96144850178737
 20
82.41218482744506
 30
0.0
 11
-11.70262947739036
 21
82.44625899843014
 31
0.0
  0
LINE
  5
246
330
1F
100
AcDbEntity
  8
0
100
AcDbLine
 10
50.09691251660004
 20
-30.22734729454386
 30
0.0
 11
50.19681293111275
 21
-30.46852823014687
 31
0.0
  0
LINE
  5
247
330
1F
100
AcDbEntity
  8
0
100
AcDbLine
 10
50.19681293111275
 20
-30.46852823014687
 30
0.0
 11
50.35573154099724
 21
-30.67563499476491
 31
0.0
  0
LINE
  5
248
330
1F
100
AcDbEntity
  8
0
100
AcDbLine
 10
50.35573154099724
 20
-30.67563499476491
 30
0.0
 11
50.56283830561522
 21
-30.8345536046493
 31
0.0
  0
LINE
  5
249
330
1F
100
AcDbEntity
  8
0
100
AcDbLine
 10
39.56283918561639
 20
34.13146660185383
 30
0.0
 11
18.26284088961496
 21
34.1314666018541
 31
0.0
  0
LINE
  5
24A
330
1F
100
AcDbEntity
  8
0
100
AcDbLine
 10
39.8216582100134
 20
34.09739243086875
 30
0.0
 11
39.56283918561639
 21
34.13146660185383
 31
0.0
  0
LINE
  5
24B
330
1F
100
AcDbEntity
  8
0
100
AcDbLine
 10
-40.20262719738966
 20
45.64626194242987
 30
0.0
 11
-35.6026275653896
 21
45.64626194242987
 31
0.0
  0
LINE
  5
24C
330
1F
100
AcDbEntity
  8
0
100
AcDbLine
 10
-28.23670232837522
 20
81.7050781028271
 30
0.0
 11
-28.20262815739033
 21
81.44625907843009
 31
0.0
  0
LINE
  5
24D
330
1F
100
AcDbEntity
  8
0
100
AcDbLine
 10
-40.46144622178667
 20
45.68033611341495
 30
0.0
 11
-40.20262719738966
 21
45.64626194242987
 31
0.0
  0
LINE
  5
24E
330
1F
100
AcDbEntity
  8
0
100
AcDbLine
 10
11.9028208634467
 20
-22.4535984480444
 30
0.0
 11
11.47348663220889
 21
-22.6445767929062
 31
0.0
  0
LINE
  5
24F
330
1F
100
AcDbEntity
  8
0
100
AcDbLine
 10
12.54442223119221
 20
-21.77794844287967
 30
0.0
 11
12.26809705265685
 21
-22.15800765672164
 31
0.0
  0
LINE
  5
250
330
1F
100
AcDbEntity
  8
0
100
AcDbLine
 10
12.71296529478444
 20
-21.3393212138643
 30
0.0
 11
12.54442223119221
 21
-21.77794844287967
 31
0.0
  0
LINE
  5
251
330
1F
100
AcDbEntity
  8
0
100
AcDbLine
 10
12.76224031218027
 20
-20.87201769046718
 30
0.0
 11
12.71296529478444
 21
-21.3393212138643
 31
0.0
  0
LINE
  5
252
330
1F
100
AcDbEntity
  8
0
100
AcDbLine
 10
12.68888927237519
 20
-20.4078838355522
 30
0.0
 11
12.76224031218027
 21
-20.87201769046718
 31
0.0
  0
LINE
  5
253
330
1F
100
AcDbEntity
  8
0
100
AcDbLine
 10
48.21995410097776
 20
18.93146781785389
 30
0.0
 11
48.39977484710037
 21
18.49734213376835
 31
0.0
  0
LINE
  5
254
330
1F
100
AcDbEntity
  8
0
100
AcDbLine
 10
100.2169827347487
 20
17.13495665415908
 30
0.0
 11
100.0371619886261
 21
17.56908233824453
 31
0.0
  0
LINE
  5
255
330
1F
100
AcDbEntity
  8
0
100
AcDbLine
 10
100.5030362325405
 20
16.76216447784667
 30
0.0
 11
100.2169827347487
 21
17.13495665415908
 31
0.0
  0
LINE
  5
256
330
1F
100
AcDbEntity
  8
0
100
AcDbLine
 10
-12.66855522640543
 20
81.7050781028271
 30
0.0
 11
-12.56865481189272
 21
81.94625903843007
 31
0.0
  0
LINE
  5
257
330
1F
100
AcDbEntity
  8
0
100
AcDbLine
 10
-12.56865481189272
 20
81.94625903843007
 30
0.0
 11
-12.40973620200842
 21
82.15336580304805
 31
0.0
  0
LINE
  5
258
330
1F
100
AcDbEntity
  8
0
100
AcDbLine
 10
-12.40973620200842
 20
82.15336580304805
 30
0.0
 11
-12.20262943739043
 21
82.31228441293254
 31
0.0
  0
LINE
  5
259
330
1F
100
AcDbEntity
  8
0
100
AcDbLine
 10
66.03683089838479
 20
25.88449507107435
 30
0.0
 11
66.50397371215443
 21
25.83371907416522
 31
0.0
  0
LINE
  5
25A
330
1F
100
AcDbEntity
  8
0
100
AcDbLine
 10
65.57246379496507
 20
25.81263546085809
 30
0.0
 11
66.03683089838479
 21
25.88449507107435
 31
0.0
  0
LINE
  5
25B
330
1F
100
AcDbEntity
  8
0
100
AcDbLine
 10
65.14251825259083
 20
25.62303735719896
 30
0.0
 11
65.57246379496507
 21
25.81263546085809
 31
0.0
  0
LINE
  5
25C
330
1F
100
AcDbEntity
  8
0
100
AcDbLine
 10
64.77629434945584
 20
25.32862155753583
 30
0.0
 11
65.14251825259083
 21
25.62303735719896
 31
0.0
  0
LINE
  5
25D
330
1F
100
AcDbEntity
  8
0
100
AcDbLine
 10
64.49874963934523
 20
24.94945201207052
 30
0.0
 11
64.77629434945584
 21
25.32862155753583
 31
0.0
  0
LINE
  5
25E
330
1F
100
AcDbEntity
  8
0
100
AcDbLine
 10
-38.20262735739046
 20
81.44625907843009
 30
0.0
 11
-38.16855318640557
 21
81.7050781028271
 31
0.0
  0
LINE
  5
25F
330
1F
100
AcDbEntity
  8
0
100
AcDbLine
 10
-1.402630301390471
 20
46.64626186242992
 30
0.0
 11
-1.436704472375361
 21
46.38744283803291
 31
0.0
  0
LINE
  5
260
330
1F
100
AcDbEntity
  8
0
100
AcDbLine
 10
-1.436704472375361
 20
46.38744283803291
 30
0.0
 11
-1.536604886888068
 21
46.14626190242994
 31
0.0
  0
LINE
  5
261
330
1F
100
AcDbEntity
  8
0
100
AcDbLine
 10
-1.536604886888068
 20
46.14626190242994
 30
0.0
 11
-1.695523496772374
 21
45.93915513781187
 31
0.0
  0
LINE
  5
262
330
1F
100
AcDbEntity
  8
0
100
AcDbLine
 10
-1.695523496772374
 20
45.93915513781187
 30
0.0
 11
-1.90263026139036
 21
45.78023652792747
 31
0.0
  0
LINE
  5
263
330
1F
100
AcDbEntity
  8
0
100
AcDbLine
 10
-1.90263026139036
 20
45.78023652792747
 30
0.0
 11
-2.143811196993418
 21
45.68033611341495
 31
0.0
  0
LINE
  5
264
330
1F
100
AcDbEntity
  8
0
100
AcDbLine
 10
-82.23669800837591
 20
81.7050781028271
 30
0.0
 11
-82.33659842288861
 21
81.94625903843007
 31
0.0
  0
LINE
  5
265
330
1F
100
AcDbEntity
  8
0
100
AcDbLine
 10
-82.33659842288861
 20
81.94625903843007
 30
0.0
 11
-82.49551703277294
 21
82.15336580304805
 31
0.0
  0
LINE
  5
266
330
1F
100
AcDbEntity
  8
0
100
AcDbLine
 10
40.06283914561556
 20
-30.83455360464871
 30
0.0
 11
39.82165821001249
 21
-30.93445401916133
 31
0.0
  0
LINE
  5
267
330
1F
100
AcDbEntity
  8
0
100
AcDbLine
 10
39.82165821001249
 20
-30.93445401916133
 30
0.0
 11
39.56283918561549
 21
-30.96852819014631
 31
0.0
  0
LINE
  5
268
330
1F
100
AcDbEntity
  8
0
100
AcDbLine
 10
50.06283834561515
 20
-29.96852827014685
 30
0.0
 11
50.09691251660004
 21
-30.22734729454386
 31
0.0
  0
LINE
  5
269
330
1F
100
AcDbEntity
  8
0
100
AcDbLine
 10
109.7758276968527
 20
41.5349547021582
 30
0.0
 11
61.07756171159467
 21
41.53495470215815
 31
0.0
  0
LINE
  5
26A
330
1F
100
AcDbEntity
  8
0
100
AcDbLine
 10
65.87756132759469
 20
-24.96503997784077
 30
0.0
 11
72.87756076759477
 21
-24.96503997784077
 31
0.0
  0
LINE
  5
26B
330
1F
100
AcDbEntity
  8
0
100
AcDbLine
 10
72.87756076759477
 20
-24.96503997784077
 30
0.0
 11
72.87756076759477
 21
-31.56503944984081
 31
0.0
  0
LINE
  5
26C
330
1F
100
AcDbEntity
  8
0
100
AcDbLine
 10
72.87756076759477
 20
-31.56503944984081
 30
0.0
 11
65.87756132759469
 21
-31.56503944984081
 31
0.0
  0
LINE
  5
26D
330
1F
100
AcDbEntity
  8
0
100
AcDbLine
 10
106.0775581115943
 20
-24.96503997784109
 30
0.0
 11
106.0775581115943
 21
-31.76503943384112
 31
0.0
  0
LINE
  5
26E
330
1F
100
AcDbEntity
  8
0
100
AcDbLine
 10
92.7652837525829
 20
28.13495577415904
 30
0.0
 11
106.0775581115947
 21
28.13495577415904
 31
0.0
  0
LINE
  5
26F
330
1F
100
AcDbEntity
  8
0
100
AcDbLine
 10
92.7652837525829
 20
34.93495523015907
 30
0.0
 11
92.7652837525829
 21
28.13495577415904
 31
0.0
  0
LINE
  5
270
330
1F
100
AcDbEntity
  8
0
100
AcDbLine
 10
106.0775581115947
 20
34.93495523015907
 30
0.0
 11
92.7652837525829
 21
34.93495523015907
 31
0.0
  0
LINE
  5
271
330
1F
100
AcDbEntity
  8
0
100
AcDbLine
 10
65.87756132759469
 20
28.1349557741594
 30
0.0
 11
72.87756076759477
 21
28.1349557741594
 31
0.0
  0
LINE
  5
272
330
1F
100
AcDbEntity
  8
0
100
AcDbLine
 10
65.87756132759469
 20
34.93495523015943
 30
0.0
 11
65.87756132759469
 21
28.1349557741594
 31
0.0
  0
LINE
  5
273
330
1F
100
AcDbEntity
  8
0
100
AcDbLine
 10
72.87756076759477
 20
34.93495523015943
 30
0.0
 11
65.87756132759469
 21
34.93495523015943
 31
0.0
  0
LINE
  5
274
330
1F
100
AcDbEntity
  8
0
100
AcDbLine
 10
72.87756076759477
 20
28.1349557741594
 30
0.0
 11
72.87756076759477
 21
34.93495523015943
 31
0.0
  0
LINE
  5
275
330
1F
100
AcDbEntity
  8
0
100
AcDbLine
 10
67.61418697197306
 20
-19.97760707143618
 30
0.0
 11
67.80445329583347
 21
-20.40725732027053
 31
0.0
  0
LINE
  5
276
330
1F
100
AcDbEntity
  8
0
100
AcDbLine
 10
67.80445329583347
 20
-20.40725732027053
 30
0.0
 11
67.87703478479177
 21
-20.87151214014787
 31
0.0
  0
LINE
  5
277
330
1F
100
AcDbEntity
  8
0
100
AcDbLine
 10
67.87703478479177
 20
-20.87151214014787
 30
0.0
 11
67.82698513032229
 21
-21.33873333231088
 31
0.0
  0
LINE
  5
278
330
1F
100
AcDbEntity
  8
0
100
AcDbLine
 10
66.58534429316484
 20
-22.64193228607941
 30
0.0
 11
66.12108947328764
 21
-22.71451377503775
 31
0.0
  0
LINE
  5
279
330
1F
100
AcDbEntity
  8
0
100
AcDbLine
 10
66.12108947328764
 20
-22.71451377503775
 30
0.0
 11
65.65386828112463
 21
-22.66446412056822
 31
0.0
  0
LINE
  5
27A
330
1F
100
AcDbEntity
  8
0
100
AcDbLine
 10
65.65386828112463
 20
-22.66446412056822
 30
0.0
 11
65.2155210688022
 21
-22.49519412391197
 31
0.0
  0
LINE
  5
27B
330
1F
100
AcDbEntity
  8
0
100
AcDbLine
 10
65.2155210688022
 20
-22.49519412391197
 30
0.0
 11
64.83592047443722
 21
-22.21823925560924
 31
0.0
  0
LINE
  5
27C
330
1F
100
AcDbEntity
  8
0
100
AcDbLine
 10
64.83592047443722
 20
-22.21823925560924
 30
0.0
 11
64.54093565121626
 21
-21.85247353224527
 31
0.0
  0
LINE
  5
27D
330
1F
100
AcDbEntity
  8
0
100
AcDbLine
 10
64.54093565121626
 20
-21.85247353224527
 30
0.0
 11
64.35066932735583
 21
-21.42282328341091
 31
0.0
  0
LINE
  5
27E
330
1F
100
AcDbEntity
  8
0
100
AcDbLine
 10
64.35066932735583
 20
-21.42282328341091
 30
0.0
 11
64.27808783839754
 21
-20.95856846353357
 31
0.0
  0
LINE
  5
27F
330
1F
100
AcDbEntity
  8
0
100
AcDbLine
 10
66.9396015543871
 20
-19.33488647976947
 30
0.0
 11
67.3192021487521
 21
-19.6118413480722
 31
0.0
  0
LINE
  5
280
330
1F
100
AcDbEntity
  8
0
100
AcDbLine
 10
67.3192021487521
 20
-19.6118413480722
 30
0.0
 11
67.61418697197306
 21
-19.97760707143618
 31
0.0
  0
LINE
  5
281
330
1F
100
AcDbEntity
  8
0
100
AcDbLine
 10
103.5758281928527
 20
-14.86504078584219
 30
0.0
 11
103.5144946850797
 21
-15.33091502975682
 31
0.0
  0
LINE
  5
282
330
1F
100
AcDbEntity
  8
0
100
AcDbLine
 10
103.5144946850797
 20
-15.33091502975682
 30
0.0
 11
103.3346739389569
 21
-15.76504071384222
 31
0.0
  0
LINE
  5
283
330
1F
100
AcDbEntity
  8
0
100
AcDbLine
 10
103.3346739389569
 20
-15.76504071384222
 30
0.0
 11
103.0486204411651
 21
-16.13783289015463
 31
0.0
  0
LINE
  5
284
330
1F
100
AcDbEntity
  8
0
100
AcDbLine
 10
103.0486204411651
 20
-16.13783289015463
 30
0.0
 11
102.6758282648527
 21
-16.42388638794659
 31
0.0
  0
LINE
  5
285
330
1F
100
AcDbEntity
  8
0
100
AcDbLine
 10
102.2417025807673
 20
-13.12637443761513
 30
0.0
 11
102.6758282648527
 21
-13.3061951837378
 31
0.0
  0
LINE
  5
286
330
1F
100
AcDbEntity
  8
0
100
AcDbLine
 10
102.6758282648527
 20
-13.3061951837378
 30
0.0
 11
103.0486204411651
 21
-13.59224868152975
 31
0.0
  0
LINE
  5
287
330
1F
100
AcDbEntity
  8
0
100
AcDbLine
 10
103.0486204411651
 20
-13.59224868152975
 30
0.0
 11
103.3346739389569
 21
-13.96504085784217
 31
0.0
  0
LINE
  5
288
330
1F
100
AcDbEntity
  8
0
100
AcDbLine
 10
103.3346739389569
 20
-13.96504085784217
 30
0.0
 11
103.5144946850797
 21
-14.39916654192757
 31
0.0
  0
LINE
  5
289
330
1F
100
AcDbEntity
  8
0
100
AcDbLine
 10
103.5144946850797
 20
-14.39916654192757
 30
0.0
 11
103.5758281928527
 21
-14.86504078584219
 31
0.0
  0
LINE
  5
28A
330
1F
100
AcDbEntity
  8
0
100
AcDbLine
 10
102.6758282648531
 20
19.59380218426355
 30
0.0
 11
103.0486204411656
 21
19.30774868647163
 31
0.0
  0
LINE
  5
28B
330
1F
100
AcDbEntity
  8
0
100
AcDbLine
 10
103.0486204411656
 20
19.30774868647163
 30
0.0
 11
103.3346739389575
 21
18.93495651015922
 31
0.0
  0
LINE
  5
28C
330
1F
100
AcDbEntity
  8
0
100
AcDbLine
 10
103.3346739389575
 20
18.93495651015922
 30
0.0
 11
103.5144946850801
 21
18.50083082607377
 31
0.0
  0
LINE
  5
28D
330
1F
100
AcDbEntity
  8
0
100
AcDbLine
 10
103.5144946850801
 20
18.50083082607377
 30
0.0
 11
103.5758281928532
 21
18.03495658215915
 31
0.0
  0
LINE
  5
28E
330
1F
100
AcDbEntity
  8
0
100
AcDbLine
 10
103.5758281928532
 20
18.03495658215915
 30
0.0
 11
103.5144946850801
 21
17.56908233824453
 31
0.0
  0
LINE
  5
28F
330
1F
100
AcDbEntity
  8
0
100
AcDbLine
 10
103.5144946850801
 20
17.56908233824453
 30
0.0
 11
103.3346739389575
 21
17.13495665415917
 31
0.0
  0
LINE
  5
290
330
1F
100
AcDbEntity
  8
0
100
AcDbLine
 10
103.3346739389575
 20
17.13495665415917
 30
0.0
 11
103.0486204411656
 21
16.76216447784667
 31
0.0
  0
LINE
  5
291
330
1F
100
AcDbEntity
  8
0
100
AcDbLine
 10
103.0486204411656
 20
16.76216447784667
 30
0.0
 11
102.6758282648531
 21
16.47611098005475
 31
0.0
  0
LINE
  5
292
330
1F
100
AcDbEntity
  8
0
100
AcDbLine
 10
102.6758282648531
 20
16.47611098005475
 30
0.0
 11
102.2417025807677
 21
16.29629023393214
 31
0.0
  0
LINE
  5
293
330
1F
100
AcDbEntity
  8
0
100
AcDbLine
 10
102.2417025807677
 20
16.29629023393214
 30
0.0
 11
101.7758283368531
 21
16.23495672615909
 31
0.0
  0
LINE
  5
294
330
1F
100
AcDbEntity
  8
0
100
AcDbLine
 10
101.7758283368531
 20
16.23495672615909
 30
0.0
 11
101.3099540929384
 21
16.29629023393214
 31
0.0
  0
LINE
  5
295
330
1F
100
AcDbEntity
  8
0
100
AcDbLine
 10
101.3099540929384
 20
16.29629023393214
 30
0.0
 11
100.8758284088531
 21
16.47611098005475
 31
0.0
  0
LINE
  5
296
330
1F
100
AcDbEntity
  8
0
100
AcDbLine
 10
100.8758284088531
 20
16.47611098005475
 30
0.0
 11
100.5030362325405
 21
16.76216447784667
 31
0.0
  0
LINE
  5
297
330
1F
100
AcDbEntity
  8
0
100
AcDbLine
 10
66.94205722550586
 20
25.66376777040882
 30
0.0
 11
67.32122677097118
 21
25.38622306029821
 31
0.0
  0
LINE
  5
298
330
1F
100
AcDbEntity
  8
0
100
AcDbLine
 10
67.37882827373346
 20
22.84129063878296
 30
0.0
 11
67.01260437059848
 21
22.54687483911982
 31
0.0
  0
LINE
  5
299
330
1F
100
AcDbEntity
  8
0
100
AcDbLine
 10
67.01260437059848
 20
22.54687483911982
 30
0.0
 11
66.58265882822423
 21
22.3572767354607
 31
0.0
  0
LINE
  5
29A
330
1F
100
AcDbEntity
  8
0
100
AcDbLine
 10
66.58265882822423
 20
22.3572767354607
 30
0.0
 11
66.11829172480451
 21
22.28541712524443
 31
0.0
  0
LINE
  5
29B
330
1F
100
AcDbEntity
  8
0
100
AcDbLine
 10
64.34988194889587
 20
23.5798585815299
 30
0.0
 11
64.27802233867978
 21
24.04422568494954
 31
0.0
  0
LINE
  5
29C
330
1F
100
AcDbEntity
  8
0
100
AcDbLine
 10
64.27802233867978
 20
24.04422568494954
 30
0.0
 11
64.3287983355889
 21
24.51136849871918
 31
0.0
  0
LINE
  5
29D
330
1F
100
AcDbEntity
  8
0
100
AcDbLine
 10
64.3287983355889
 20
24.51136849871918
 30
0.0
 11
64.49874963934523
 21
24.94945201207052
 31
0.0
  0
LINE
  5
29E
330
1F
100
AcDbEntity
  8
0
100
AcDbLine
 10
11.46780277089808
 20
22.35374822443411
 30
0.0
 11
11.00343000319668
 21
22.28192522716898
 31
0.0
  0
LINE
  5
29F
330
1F
100
AcDbEntity
  8
0
100
AcDbLine
 10
11.89776326067755
 20
22.54331242872199
 30
0.0
 11
11.46780277089808
 21
22.35374822443411
 31
0.0
  0
LINE
  5
2A0
330
1F
100
AcDbEntity
  8
0
100
AcDbLine
 10
-82.20262383739103
 20
81.44625907843009
 30
0.0
 11
-82.20262383739103
 21
75.84625952643006
 31
0.0
  0
LINE
  5
2A1
330
1F
100
AcDbEntity
  8
0
100
AcDbLine
 10
-5.481316774889366
 20
34.93495523015934
 30
0.0
 11
-15.88131594288978
 21
34.93495523015934
 31
0.0
  0
LINE
  5
2A2
330
1F
100
AcDbEntity
  8
0
100
AcDbLine
 10
47.12698274278798
 20
16.29280154162672
 30
0.0
 11
46.66110849887336
 21
16.23146803385377
 31
0.0
  0
LINE
  5
2A3
330
1F
100
AcDbEntity
  8
0
100
AcDbLine
 10
33.84537355607826
 20
20.33146770585379
 30
0.0
 11
33.84537355607826
 21
26.58145705471251
 31
0.0
  0
LINE
  5
2A4
330
1F
100
AcDbEntity
  8
0
100
AcDbLine
 10
33.84537355607826
 20
26.58145705471251
 30
0.0
 11
22.84537943219226
 21
26.58145705471251
 31
0.0
  0
LINE
  5
2A5
330
1F
100
AcDbEntity
  8
0
100
AcDbLine
 10
17.8453798321921
 20
20.33146770585397
 30
0.0
 11
17.8453798321921
 21
13.43146825785409
 31
0.0
  0
LINE
  5
2A6
330
1F
100
AcDbEntity
  8
0
100
AcDbLine
 10
41.21383712452421
 20
20.33146770585379
 30
0.0
 11
41.21383712452421
 21
13.43146825785373
 31
0.0
  0
LINE
  5
2A7
330
1F
100
AcDbEntity
  8
0
100
AcDbLine
 10
11.38363369333329
 20
-19.16840517297661
 30
0.0
 11
11.82226092234852
 21
-19.33694823656883
 31
0.0
  0
LINE
  5
2A8
330
1F
100
AcDbEntity
  8
0
100
AcDbLine
 10
11.82226092234852
 20
-19.33694823656883
 30
0.0
 11
12.2023201361905
 21
-19.61327341510415
 31
0.0
  0
LINE
  5
2A9
330
1F
100
AcDbEntity
  8
0
100
AcDbLine
 10
45.10226289676897
 20
17.13146796185375
 30
0.0
 11
44.92244215064635
 21
17.56559364593911
 31
0.0
  0
LINE
  5
2AA
330
1F
100
AcDbEntity
  8
0
100
AcDbLine
 10
44.92244215064635
 20
17.56559364593911
 30
0.0
 11
44.8611086428734
 21
18.03146788985373
 31
0.0
  0
LINE
  5
2AB
330
1F
100
AcDbEntity
  8
0
100
AcDbLine
 10
45.10226289676897
 20
-13.96852955014623
 30
0.0
 11
45.38831639456097
 21
-13.59573737383382
 31
0.0
  0
LINE
  5
2AC
330
1F
100
AcDbEntity
  8
0
100
AcDbLine
 10
48.39977484710037
 20
18.49734213376835
 30
0.0
 11
48.46110835487332
 21
18.03146788985373
 31
0.0
  0
LINE
  5
2AD
330
1F
100
AcDbEntity
  8
0
100
AcDbLine
 10
-0.4830472936317489
 20
41.53495470215946
 30
0.0
 11
-102.7813089908902
 21
41.53495470215941
 31
0.0
  0
LINE
  5
2AE
330
1F
100
AcDbEntity
  8
0
100
AcDbLine
 10
-102.7813089908902
 20
41.53495470215941
 30
0.0
 11
-102.7813089908902
 21
-36.49360389478301
 31
0.0
  0
LINE
  5
2AF
330
1F
100
AcDbEntity
  8
0
100
AcDbLine
 10
-102.7813089908902
 20
-36.49360389478301
 30
0.0
 11
-0.4830472936317489
 21
-36.49360389478296
 31
0.0
  0
LINE
  5
2B0
330
1F
100
AcDbEntity
  8
0
100
AcDbLine
 10
-0.4830472936317489
 20
-36.49360389478296
 30
0.0
 11
-0.4830472936317489
 21
41.53495470215946
 31
0.0
  0
LINE
  5
2B1
330
1F
100
AcDbEntity
  8
0
100
AcDbLine
 10
-18.93031762798127
 20
-17.16504060184094
 30
0.0
 11
-39.69877512831305
 21
-17.16504060184067
 31
0.0
  0
LINE
  5
2B2
330
1F
100
AcDbEntity
  8
0
100
AcDbLine
 10
-39.69877512831305
 20
-10.26504115384062
 30
0.0
 11
-39.69877512831305
 21
-17.16504060184067
 31
0.0
  0
LINE
  5
2B3
330
1F
100
AcDbEntity
  8
0
100
AcDbLine
 10
-18.93031762798127
 20
-10.26504115384098
 30
0.0
 11
-39.69877512831305
 21
-10.26504115384062
 31
0.0
  0
LINE
  5
2B4
330
1F
100
AcDbEntity
  8
0
100
AcDbLine
 10
-18.93031762798127
 20
-17.16504060184094
 30
0.0
 11
-18.93031762798127
 21
-10.26504115384098
 31
0.0
  0
LINE
  5
2B5
330
1F
100
AcDbEntity
  8
0
100
AcDbLine
 10
-18.93031762798055
 20
13.43495695015906
 30
0.0
 11
-39.6987751283127
 21
13.43495695015942
 31
0.0
  0
LINE
  5
2B6
330
1F
100
AcDbEntity
  8
0
100
AcDbLine
 10
-18.93031762798055
 20
13.43495695015906
 30
0.0
 11
-18.93031762798055
 21
20.33495639815911
 31
0.0
  0
LINE
  5
2B7
330
1F
100
AcDbEntity
  8
0
100
AcDbLine
 10
-30.98131473488987
 20
28.1349557741594
 30
0.0
 11
-30.98131473488987
 21
34.93495523015934
 31
0.0
  0
LINE
  5
2B8
330
1F
100
AcDbEntity
  8
0
100
AcDbLine
 10
-41.38131390288991
 20
28.13495577415931
 30
0.0
 11
-30.98131473488987
 21
28.1349557741594
 31
0.0
  0
LINE
  5
2B9
330
1F
100
AcDbEntity
  8
0
100
AcDbLine
 10
-15.88131594288978
 20
-31.76503943384103
 30
0.0
 11
-15.88131594288978
 21
-24.965039977841
 31
0.0
  0
LINE
  5
2BA
330
1F
100
AcDbEntity
  8
0
100
AcDbLine
 10
-5.481316774889366
 20
-24.965039977841
 30
0.0
 11
-15.88131594288978
 21
-24.965039977841
 31
0.0
  0
LINE
  5
2BB
330
1F
100
AcDbEntity
  8
0
100
AcDbLine
 10
-5.481316774889366
 20
-31.76503943384103
 30
0.0
 11
-5.481316774889366
 21
-24.965039977841
 31
0.0
  0
LINE
  5
2BC
330
1F
100
AcDbEntity
  8
0
100
AcDbLine
 10
-15.88131594288978
 20
-31.76503943384103
 30
0.0
 11
-5.481316774889366
 21
-31.76503943384103
 31
0.0
  0
LINE
  5
2BD
330
1F
100
AcDbEntity
  8
0
100
AcDbLine
 10
-15.88131594288978
 20
28.13495577415931
 30
0.0
 11
-15.88131594288978
 21
34.93495523015934
 31
0.0
  0
LINE
  5
2BE
330
1F
100
AcDbEntity
  8
0
100
AcDbLine
 10
-15.88131594288978
 20
28.13495577415931
 30
0.0
 11
-5.481316774889366
 21
28.13495577415931
 31
0.0
  0
LINE
  5
2BF
330
1F
100
AcDbEntity
  8
0
100
AcDbLine
 10
-7.210254549319031
 20
16.76216447784676
 30
0.0
 11
-7.583046725631444
 21
16.47611098005484
 31
0.0
  0
LINE
  5
2C0
330
1F
100
AcDbEntity
  8
0
100
AcDbLine
 10
-7.583046725631444
 20
16.47611098005484
 30
0.0
 11
-8.017172409716803
 21
16.29629023393223
 31
0.0
  0
LINE
  5
2C1
330
1F
100
AcDbEntity
  8
0
100
AcDbLine
 10
-8.483046653631424
 20
16.23495672615919
 30
0.0
 11
-8.948920897546047
 21
16.29629023393223
 31
0.0
  0
LINE
  5
2C2
330
1F
100
AcDbEntity
  8
0
100
AcDbLine
 10
-8.948920897546047
 20
16.29629023393223
 30
0.0
 11
-9.383046581631408
 21
16.47611098005484
 31
0.0
  0
LINE
  5
2C3
330
1F
100
AcDbEntity
  8
0
100
AcDbLine
 10
-9.755838757943819
 20
19.30774868647154
 30
0.0
 11
-9.383046581631408
 21
19.59380218426346
 31
0.0
  0
LINE
  5
2C4
330
1F
100
AcDbEntity
  8
0
100
AcDbLine
 10
-9.383046581631408
 20
19.59380218426346
 30
0.0
 11
-8.948920897546047
 21
19.77362293038608
 31
0.0
  0
LINE
  5
2C5
330
1F
100
AcDbEntity
  8
0
100
AcDbLine
 10
-7.583046725631444
 20
19.59380218426346
 30
0.0
 11
-7.210254549319031
 21
19.30774868647154
 31
0.0
  0
LINE
  5
2C6
330
1F
100
AcDbEntity
  8
0
100
AcDbLine
 10
-7.210254549319031
 20
19.30774868647154
 30
0.0
 11
-6.92420105152721
 21
18.93495651015913
 31
0.0
  0
LINE
  5
2C7
330
1F
100
AcDbEntity
  8
0
100
AcDbLine
 10
-6.92420105152721
 20
18.93495651015913
 30
0.0
 11
-6.744380305404411
 21
18.50083082607377
 31
0.0
  0
LINE
  5
2C8
330
1F
100
AcDbEntity
  8
0
100
AcDbLine
 10
-6.744380305404411
 20
18.50083082607377
 30
0.0
 11
-6.683046797631461
 21
18.03495658215915
 31
0.0
  0
LINE
  5
2C9
330
1F
100
AcDbEntity
  8
0
100
AcDbLine
 10
-6.683046797631461
 20
18.03495658215915
 30
0.0
 11
-6.744380305404411
 21
17.56908233824453
 31
0.0
  0
LINE
  5
2CA
330
1F
100
AcDbEntity
  8
0
100
AcDbLine
 10
-42.43275349107104
 20
23.65771289906149
 30
0.0
 11
-42.60291291147202
 21
23.21971017992882
 31
0.0
  0
LINE
  5
2CB
330
1F
100
AcDbEntity
  8
0
100
AcDbLine
 10
-42.60291291147202
 20
23.21971017992882
 30
0.0
 11
-42.88063773574181
 21
22.84067254023707
 31
0.0
  0
LINE
  5
2CC
330
1F
100
AcDbEntity
  8
0
100
AcDbLine
 10
-42.88063773574181
 20
22.84067254023707
 30
0.0
 11
-43.2470014760685
 21
22.54643076874195
 31
0.0
  0
LINE
  5
2CD
330
1F
100
AcDbEntity
  8
0
100
AcDbLine
 10
-43.2470014760685
 20
22.54643076874195
 30
0.0
 11
-43.67703704899355
 21
22.35703695591338
 31
0.0
  0
LINE
  5
2CE
330
1F
100
AcDbEntity
  8
0
100
AcDbLine
 10
-45.90923282113603
 20
23.5806794682631
 30
0.0
 11
-45.98087179994193
 21
24.0450806601591
 31
0.0
  0
LINE
  5
2CF
330
1F
100
AcDbEntity
  8
0
100
AcDbLine
 10
-45.98087179994193
 20
24.0450806601591
 30
0.0
 11
-45.92987386670864
 21
24.51219929725747
 31
0.0
  0
LINE
  5
2D0
330
1F
100
AcDbEntity
  8
0
100
AcDbLine
 10
-45.92987386670864
 20
24.51219929725747
 30
0.0
 11
-45.75971444630765
 21
24.95020201639014
 31
0.0
  0
LINE
  5
2D1
330
1F
100
AcDbEntity
  8
0
100
AcDbLine
 10
-42.93703012096751
 20
25.38563204130759
 30
0.0
 11
-42.6427883494724
 21
25.01926830098091
 31
0.0
  0
LINE
  5
2D2
330
1F
100
AcDbEntity
  8
0
100
AcDbLine
 10
-7.210254549319031
 20
-16.13783289015332
 30
0.0
 11
-7.583046725631444
 21
-16.42388638794524
 31
0.0
  0
LINE
  5
2D3
330
1F
100
AcDbEntity
  8
0
100
AcDbLine
 10
-7.583046725631444
 20
-16.42388638794524
 30
0.0
 11
-8.017172409716803
 21
-16.6037071340679
 31
0.0
  0
LINE
  5
2D4
330
1F
100
AcDbEntity
  8
0
100
AcDbLine
 10
-10.22171300185844
 20
-14.39916654192635
 30
0.0
 11
-10.04189225573564
 21
-13.96504085784095
 31
0.0
  0
LINE
  5
2D5
330
1F
100
AcDbEntity
  8
0
100
AcDbLine
 10
-9.383046581631408
 20
-13.30619518373662
 30
0.0
 11
-8.948920897546047
 21
-13.12637443761396
 31
0.0
  0
LINE
  5
2D6
330
1F
100
AcDbEntity
  8
0
100
AcDbLine
 10
-8.483046653631424
 20
-13.06504092984097
 30
0.0
 11
-8.017172409716803
 21
-13.12637443761396
 31
0.0
  0
LINE
  5
2D7
330
1F
100
AcDbEntity
  8
0
100
AcDbLine
 10
-42.45339453664184
 20
-21.41931693173066
 30
0.0
 11
-42.64278834946879
 21
-21.84935250465642
 31
0.0
  0
LINE
  5
2D8
330
1F
100
AcDbEntity
  8
0
100
AcDbLine
 10
-42.64278834946879
 20
-21.84935250465642
 30
0.0
 11
-42.93703012096265
 21
-22.21571624498423
 31
0.0
  0
LINE
  5
2D9
330
1F
100
AcDbEntity
  8
0
100
AcDbLine
 10
-42.93703012096265
 20
-22.21571624498423
 30
0.0
 11
-43.31606776065331
 21
-22.49344106925543
 31
0.0
  0
LINE
  5
2DA
330
1F
100
AcDbEntity
  8
0
100
AcDbLine
 10
-44.22118911688354
 20
-22.71459842289299
 30
0.0
 11
-44.68559030877982
 21
-22.64295944408876
 31
0.0
  0
LINE
  5
2DB
330
1F
100
AcDbEntity
  8
0
100
AcDbLine
 10
-44.68559030877982
 20
-22.64295944408876
 30
0.0
 11
-45.11562588170558
 21
-22.45356563126172
 31
0.0
  0
LINE
  5
2DC
330
1F
100
AcDbEntity
  8
0
100
AcDbLine
 10
-45.11562588170558
 20
-22.45356563126172
 30
0.0
 11
-45.48198962203335
 21
-22.15932385976797
 31
0.0
  0
LINE
  5
2DD
330
1F
100
AcDbEntity
  8
0
100
AcDbLine
 10
-44.60855687799432
 20
-19.16648011402355
 30
0.0
 11
-44.14143824089614
 21
-19.11548218078845
 31
0.0
  0
LINE
  5
2DE
330
1F
100
AcDbEntity
  8
0
100
AcDbLine
 10
-44.14143824089614
 20
-19.11548218078845
 30
0.0
 11
-43.67703704899986
 21
-19.18712115959268
 31
0.0
  0
LINE
  5
2DF
330
1F
100
AcDbEntity
  8
0
100
AcDbLine
 10
-43.67703704899986
 20
-19.18712115959268
 30
0.0
 11
-43.24700147607409
 21
-19.37651497241972
 31
0.0
  0
LINE
  5
2E0
330
1F
100
AcDbEntity
  8
0
100
AcDbLine
 10
-43.24700147607409
 20
-19.37651497241972
 30
0.0
 11
-42.88063773574633
 21
-19.67075674391348
 31
0.0
  0
LINE
  5
2E1
330
1F
100
AcDbEntity
  8
0
100
AcDbLine
 10
-42.88063773574633
 20
-19.67075674391348
 30
0.0
 11
-42.60291291147509
 21
-20.04979438360415
 31
0.0
  0
LINE
  5
2E2
330
1F
100
AcDbEntity
  8
0
100
AcDbLine
 10
-42.60291291147509
 20
-20.04979438360415
 30
0.0
 11
-42.43275349107267
 21
-20.48779710273619
 31
0.0
  0
LINE
  5
2E3
330
1F
100
AcDbEntity
  8
0
100
AcDbLine
 10
-95.21068487422562
 20
-14.66504080182216
 30
0.0
 11
-94.95641509841059
 21
-14.99641162521074
 31
0.0
  0
LINE
  5
2E4
330
1F
100
AcDbEntity
  8
0
100
AcDbLine
 10
-95.37052553744597
 20
-14.2791513048571
 30
0.0
 11
-95.21068487422562
 21
-14.66504080182216
 31
0.0
  0
LINE
  5
2E5
330
1F
100
AcDbEntity
  8
0
100
AcDbLine
 10
-95.42504421102191
 20
-13.86504086582189
 30
0.0
 11
-95.37052553744597
 21
-14.2791513048571
 31
0.0
  0
LINE
  5
2E6
330
1F
100
AcDbEntity
  8
0
100
AcDbLine
 10
-94.23915477805694
 20
-12.31955966739799
 30
0.0
 11
-94.62504427502172
 21
-12.47940033061818
 31
0.0
  0
LINE
  5
2E7
330
1F
100
AcDbEntity
  8
0
100
AcDbLine
 10
-86.49367407563315
 20
-12.73367010643303
 30
0.0
 11
-86.82504489902165
 21
-12.47940033061818
 31
0.0
  0
LINE
  5
2E8
330
1F
100
AcDbEntity
  8
0
100
AcDbLine
 10
-86.23940429981776
 20
-13.06504092982197
 30
0.0
 11
-86.49367407563315
 21
-12.73367010643303
 31
0.0
  0
LINE
  5
2E9
330
1F
100
AcDbEntity
  8
0
100
AcDbLine
 10
-86.07956363659775
 20
-13.45093042678694
 30
0.0
 11
-86.23940429981776
 21
-13.06504092982197
 31
0.0
  0
LINE
  5
2EA
330
1F
100
AcDbEntity
  8
0
100
AcDbLine
 10
-86.02504496302183
 20
-13.86504086582198
 30
0.0
 11
-86.07956363659775
 21
-13.45093042678694
 31
0.0
  0
LINE
  5
2EB
330
1F
100
AcDbEntity
  8
0
100
AcDbLine
 10
-63.95641757841039
 20
-12.73367010643321
 30
0.0
 11
-64.21068735422524
 21
-13.06504092982179
 31
0.0
  0
LINE
  5
2EC
330
1F
100
AcDbEntity
  8
0
100
AcDbLine
 10
-63.62504675502172
 20
-12.47940033061818
 30
0.0
 11
-63.95641757841039
 21
-12.73367010643321
 31
0.0
  0
LINE
  5
2ED
330
1F
100
AcDbEntity
  8
0
100
AcDbLine
 10
-63.23915725805675
 20
-12.31955966739826
 30
0.0
 11
-63.62504675502172
 21
-12.47940033061818
 31
0.0
  0
LINE
  5
2EE
330
1F
100
AcDbEntity
  8
0
100
AcDbLine
 10
-62.82504681902154
 20
-12.26504099382206
 30
0.0
 11
-63.23915725805675
 21
-12.31955966739826
 31
0.0
  0
LINE
  5
2EF
330
1F
100
AcDbEntity
  8
0
100
AcDbLine
 10
-62.82504681902154
 20
-12.26504099382206
 30
0.0
 11
-56.62504731502146
 21
-12.26504099382206
 31
0.0
  0
LINE
  5
2F0
330
1F
100
AcDbEntity
  8
0
100
AcDbLine
 10
-55.82504737902164
 20
-12.479400330618
 30
0.0
 11
-56.21093687598624
 21
-12.31955966739817
 31
0.0
  0
LINE
  5
2F1
330
1F
100
AcDbEntity
  8
0
100
AcDbLine
 10
-55.49367655563278
 20
-12.73367010643312
 30
0.0
 11
-55.82504737902164
 21
-12.479400330618
 31
0.0
  0
LINE
  5
2F2
330
1F
100
AcDbEntity
  8
0
100
AcDbLine
 10
-55.23940677981776
 20
-14.66504080182189
 30
0.0
 11
-55.07956611659757
 21
-14.27915130485701
 31
0.0
  0
LINE
  5
2F3
330
1F
100
AcDbEntity
  8
0
100
AcDbLine
 10
-55.49367655563278
 20
-14.99641162521074
 30
0.0
 11
-55.23940677981776
 21
-14.66504080182189
 31
0.0
  0
LINE
  5
2F4
330
1F
100
AcDbEntity
  8
0
100
AcDbLine
 10
-55.82504737902164
 20
-15.25068140102577
 30
0.0
 11
-55.49367655563278
 21
-14.99641162521074
 31
0.0
  0
LINE
  5
2F5
330
1F
100
AcDbEntity
  8
0
100
AcDbLine
 10
-56.21093687598624
 20
-15.41052206424614
 30
0.0
 11
-55.82504737902164
 21
-15.25068140102577
 31
0.0
  0
LINE
  5
2F6
330
1F
100
AcDbEntity
  8
0
100
AcDbLine
 10
-56.62504731502146
 20
-15.46504073782207
 30
0.0
 11
-56.21093687598624
 21
-15.41052206424614
 31
0.0
  0
LINE
  5
2F7
330
1F
100
AcDbEntity
  8
0
100
AcDbLine
 10
-62.82504681902154
 20
-15.46504073782207
 30
0.0
 11
-56.62504731502146
 21
-15.46504073782207
 31
0.0
  0
LINE
  5
2F8
330
1F
100
AcDbEntity
  8
0
100
AcDbLine
 10
-63.23915725805675
 20
-15.41052206424596
 30
0.0
 11
-62.82504681902154
 21
-15.46504073782207
 31
0.0
  0
LINE
  5
2F9
330
1F
100
AcDbEntity
  8
0
100
AcDbLine
 10
-63.62504675502154
 20
-15.25068140102577
 30
0.0
 11
-63.23915725805675
 21
-15.41052206424596
 31
0.0
  0
LINE
  5
2FA
330
1F
100
AcDbEntity
  8
0
100
AcDbLine
 10
-63.95641757841021
 20
-14.99641162521074
 30
0.0
 11
-63.62504675502154
 21
-15.25068140102577
 31
0.0
  0
LINE
  5
2FB
330
1F
100
AcDbEntity
  8
0
100
AcDbLine
 10
-64.42504669102155
 20
-13.86504086582189
 30
0.0
 11
-64.37052801744544
 21
-14.2791513048571
 31
0.0
  0
LINE
  5
2FC
330
1F
100
AcDbEntity
  8
0
100
AcDbLine
 10
-64.37052801744544
 20
-13.45093042678667
 30
0.0
 11
-64.42504669102155
 21
-13.86504086582189
 31
0.0
  0
LINE
  5
2FD
330
1F
100
AcDbEntity
  8
0
100
AcDbLine
 10
-68.24276070906664
 20
16.12384412940328
 30
0.0
 11
-72.12504607502164
 21
16.63495669417827
 31
0.0
  0
LINE
  5
2FE
330
1F
100
AcDbEntity
  8
0
100
AcDbLine
 10
-61.5184452057517
 20
12.24155876344829
 30
0.0
 11
-64.62504667502168
 21
14.62533791171431
 31
0.0
  0
LINE
  5
2FF
330
1F
100
AcDbEntity
  8
0
100
AcDbLine
 10
-59.1346660574855
 20
9.134957294178268
 30
0.0
 11
-61.5184452057517
 21
12.24155876344829
 31
0.0
  0
LINE
  5
300
330
1F
100
AcDbEntity
  8
0
100
AcDbLine
 10
-57.6361598397967
 20
5.517243260133301
 30
0.0
 11
-59.1346660574855
 21
9.134957294178268
 31
0.0
  0
LINE
  5
301
330
1F
100
AcDbEntity
  8
0
100
AcDbLine
 10
-57.12504727502171
 20
1.634957894178209
 30
0.0
 11
-57.6361598397967
 21
5.517243260133301
 31
0.0
  0
LINE
  5
302
330
1F
100
AcDbEntity
  8
0
100
AcDbLine
 10
-88.93164644829203
 20
-8.971642975092006
 30
0.0
 11
-85.82504497902187
 21
-11.35542212335803
 31
0.0
  0
LINE
  5
303
330
1F
100
AcDbEntity
  8
0
100
AcDbLine
 10
-91.31542559655804
 20
-5.865041505821847
 30
0.0
 11
-88.93164644829203
 21
-8.971642975092006
 31
0.0
  0
LINE
  5
304
330
1F
100
AcDbEntity
  8
0
100
AcDbLine
 10
-92.81393181424703
 20
-2.247327471776792
 30
0.0
 11
-91.31542559655804
 21
-5.865041505821847
 31
0.0
  0
LINE
  5
305
330
1F
100
AcDbEntity
  8
0
100
AcDbLine
 10
-93.32504437902202
 20
1.634957894178209
 30
0.0
 11
-92.81393181424703
 21
-2.247327471776792
 31
0.0
  0
LINE
  5
306
330
1F
100
AcDbEntity
  8
0
100
AcDbLine
 10
-82.20733094497672
 20
16.12384412940328
 30
0.0
 11
-85.82504497902187
 21
14.62533791171431
 31
0.0
  0
LINE
  5
307
330
1F
100
AcDbEntity
  8
0
100
AcDbLine
 10
-78.32504557902172
 20
16.63495669417827
 30
0.0
 11
-82.20733094497672
 21
16.12384412940328
 31
0.0
  0
LINE
  5
308
330
1F
100
AcDbEntity
  8
0
100
AcDbLine
 10
-78.32504557902172
 20
16.63495669417827
 30
0.0
 11
-72.12504607502164
 21
16.63495669417827
 31
0.0
  0
LINE
  5
309
330
1F
100
AcDbEntity
  8
0
100
AcDbLine
 10
-56.21093687598624
 20
15.58947545575409
 30
0.0
 11
-55.82504737902146
 21
15.74931611897428
 31
0.0
  0
LINE
  5
30A
330
1F
100
AcDbEntity
  8
0
100
AcDbLine
 10
-56.62504731502146
 20
15.53495678217815
 30
0.0
 11
-56.21093687598624
 21
15.58947545575409
 31
0.0
  0
LINE
  5
30B
330
1F
100
AcDbEntity
  8
0
100
AcDbLine
 10
-62.82504681902154
 20
15.53495678217815
 30
0.0
 11
-56.62504731502146
 21
15.53495678217815
 31
0.0
  0
LINE
  5
30C
330
1F
100
AcDbEntity
  8
0
100
AcDbLine
 10
-63.23915725805675
 20
15.58947545575409
 30
0.0
 11
-62.82504681902154
 21
15.53495678217815
 31
0.0
  0
LINE
  5
30D
330
1F
100
AcDbEntity
  8
0
100
AcDbLine
 10
-63.62504675502172
 20
15.74931611897428
 30
0.0
 11
-63.23915725805675
 21
15.58947545575409
 31
0.0
  0
LINE
  5
30E
330
1F
100
AcDbEntity
  8
0
100
AcDbLine
 10
-63.95641757841039
 20
16.00358589478931
 30
0.0
 11
-63.62504675502172
 21
15.74931611897428
 31
0.0
  0
LINE
  5
30F
330
1F
100
AcDbEntity
  8
0
100
AcDbLine
 10
-64.2106873542256
 20
16.33495671817816
 30
0.0
 11
-63.95641757841039
 21
16.00358589478931
 31
0.0
  0
LINE
  5
310
330
1F
100
AcDbEntity
  8
0
100
AcDbLine
 10
-64.37052801744561
 20
16.72084621514276
 30
0.0
 11
-64.2106873542256
 21
16.33495671817816
 31
0.0
  0
LINE
  5
311
330
1F
100
AcDbEntity
  8
0
100
AcDbLine
 10
-64.37052801744544
 20
17.5490670932132
 30
0.0
 11
-64.42504669102155
 21
17.13495665417798
 31
0.0
  0
LINE
  5
312
330
1F
100
AcDbEntity
  8
0
100
AcDbLine
 10
-64.21068735422543
 20
17.93495659017799
 30
0.0
 11
-64.37052801744544
 21
17.5490670932132
 31
0.0
  0
LINE
  5
313
330
1F
100
AcDbEntity
  8
0
100
AcDbLine
 10
-63.95641757841057
 20
18.26632741356684
 30
0.0
 11
-64.21068735422543
 21
17.93495659017799
 31
0.0
  0
LINE
  5
314
330
1F
100
AcDbEntity
  8
0
100
AcDbLine
 10
-63.62504675502172
 20
18.52059718938187
 30
0.0
 11
-63.95641757841057
 21
18.26632741356684
 31
0.0
  0
LINE
  5
315
330
1F
100
AcDbEntity
  8
0
100
AcDbLine
 10
-63.23915725805693
 20
18.68043785260205
 30
0.0
 11
-63.62504675502172
 21
18.52059718938187
 31
0.0
  0
LINE
  5
316
330
1F
100
AcDbEntity
  8
0
100
AcDbLine
 10
-62.82504681902154
 20
18.73495652617817
 30
0.0
 11
-63.23915725805693
 21
18.68043785260205
 31
0.0
  0
LINE
  5
317
330
1F
100
AcDbEntity
  8
0
100
AcDbLine
 10
-62.82504681902154
 20
18.73495652617817
 30
0.0
 11
-56.62504731502146
 21
18.73495652617817
 31
0.0
  0
LINE
  5
318
330
1F
100
AcDbEntity
  8
0
100
AcDbLine
 10
-56.21093687598642
 20
18.68043785260205
 30
0.0
 11
-56.62504731502146
 21
18.73495652617817
 31
0.0
  0
LINE
  5
319
330
1F
100
AcDbEntity
  8
0
100
AcDbLine
 10
-86.49367407563298
 20
16.00358589478931
 30
0.0
 11
-86.23940429981812
 21
16.33495671817798
 31
0.0
  0
LINE
  5
31A
330
1F
100
AcDbEntity
  8
0
100
AcDbLine
 10
-86.82504489902165
 20
15.74931611897428
 30
0.0
 11
-86.49367407563298
 21
16.00358589478931
 31
0.0
  0
LINE
  5
31B
330
1F
100
AcDbEntity
  8
0
100
AcDbLine
 10
-87.21093439598661
 20
15.58947545575409
 30
0.0
 11
-86.82504489902165
 21
15.74931611897428
 31
0.0
  0
LINE
  5
31C
330
1F
100
AcDbEntity
  8
0
100
AcDbLine
 10
-95.3705255374458
 20
16.72084621514294
 30
0.0
 11
-95.21068487422579
 21
16.33495671817816
 31
0.0
  0
LINE
  5
31D
330
1F
100
AcDbEntity
  8
0
100
AcDbLine
 10
-95.42504421102191
 20
17.13495665417798
 30
0.0
 11
-95.3705255374458
 21
16.72084621514294
 31
0.0
  0
LINE
  5
31E
330
1F
100
AcDbEntity
  8
0
100
AcDbLine
 10
-95.3705255374458
 20
17.54906709321338
 30
0.0
 11
-95.42504421102191
 21
17.13495665417798
 31
0.0
  0
LINE
  5
31F
330
1F
100
AcDbEntity
  8
0
100
AcDbLine
 10
-95.21068487422562
 20
17.93495659017799
 30
0.0
 11
-95.3705255374458
 21
17.54906709321338
 31
0.0
  0
LINE
  5
320
330
1F
100
AcDbEntity
  8
0
100
AcDbLine
 10
-94.95641509841059
 20
18.26632741356684
 30
0.0
 11
-95.21068487422562
 21
17.93495659017799
 31
0.0
  0
LINE
  5
321
330
1F
100
AcDbEntity
  8
0
100
AcDbLine
 10
-86.82504489902182
 20
18.52059718938187
 30
0.0
 11
-87.21093439598626
 21
18.68043785260224
 31
0.0
  0
LINE
  5
322
330
1F
100
AcDbEntity
  8
0
100
AcDbLine
 10
-86.4936740756328
 20
18.26632741356666
 30
0.0
 11
-86.82504489902182
 21
18.52059718938187
 31
0.0
  0
LINE
  5
323
330
1F
100
AcDbEntity
  8
0
100
AcDbLine
 10
-86.23940429981812
 20
17.93495659017799
 30
0.0
 11
-86.4936740756328
 21
18.26632741356666
 31
0.0
  0
LINE
  5
324
330
1F
100
AcDbEntity
  8
0
100
AcDbLine
 10
-86.07956363659757
 20
17.5490670932132
 30
0.0
 11
-86.23940429981812
 21
17.93495659017799
 31
0.0
  0
LINE
  5
325
330
1F
100
AcDbEntity
  8
0
100
AcDbLine
 10
-86.02504496302164
 20
17.13495665417798
 30
0.0
 11
-86.07956363659757
 21
17.5490670932132
 31
0.0
  0
LINE
  5
326
330
1F
100
AcDbEntity
  8
0
100
AcDbLine
 10
-86.07956363659757
 20
16.72084621514276
 30
0.0
 11
-86.02504496302164
 21
17.13495665417798
 31
0.0
  0
LINE
  5
327
330
1F
100
AcDbEntity
  8
0
100
AcDbLine
 10
-84.58131044689011
 20
28.13495577417889
 30
0.0
 11
-84.58131044689011
 21
34.93495523017884
 31
0.0
  0
LINE
  5
328
330
1F
100
AcDbEntity
  8
0
100
AcDbLine
 10
-94.98130961489016
 20
28.1349557741788
 30
0.0
 11
-84.58131044689011
 21
28.13495577417889
 31
0.0
  0
LINE
  5
329
330
1F
100
AcDbEntity
  8
0
100
AcDbLine
 10
-94.98130961489016
 20
34.93495523017884
 30
0.0
 11
-94.98130961489016
 21
28.1349557741788
 31
0.0
  0
LINE
  5
32A
330
1F
100
AcDbEntity
  8
0
100
AcDbLine
 10
-84.58131044689011
 20
34.93495523017884
 30
0.0
 11
-94.98130961489016
 21
34.93495523017884
 31
0.0
  0
LINE
  5
32B
330
1F
100
AcDbEntity
  8
0
100
AcDbLine
 10
-84.58131044689011
 20
-31.76503943382032
 30
0.0
 11
-84.58131044689011
 21
-24.96503997782038
 31
0.0
  0
LINE
  5
32C
330
1F
100
AcDbEntity
  8
0
100
AcDbLine
 10
-94.98130961489016
 20
-24.96503997782038
 30
0.0
 11
-94.98130961489016
 21
-31.76503943382041
 31
0.0
  0
LINE
  5
32D
330
1F
100
AcDbEntity
  8
0
100
AcDbLine
 10
-84.58131044689011
 20
-24.96503997782038
 30
0.0
 11
-94.98130961489016
 21
-24.96503997782038
 31
0.0
  0
LINE
  5
32E
330
1F
100
AcDbEntity
  8
0
100
AcDbLine
 10
50.19539002731904
 20
33.63146664185366
 30
0.0
 11
50.35430863720335
 21
33.83857340647165
 31
0.0
  0
LINE
  5
32F
330
1F
100
AcDbEntity
  8
0
100
AcDbLine
 10
53.66110793887344
 20
34.13146660185374
 30
0.0
 11
53.91992696327046
 21
34.09739243086867
 31
0.0
  0
LINE
  5
330
330
1F
100
AcDbEntity
  8
0
100
AcDbLine
 10
53.91992696327046
 20
34.09739243086867
 30
0.0
 11
54.1611078988735
 21
33.99749201635614
 31
0.0
  0
LINE
  5
331
330
1F
100
AcDbEntity
  8
0
100
AcDbLine
 10
54.1611078988735
 20
33.99749201635614
 30
0.0
 11
54.36821466349149
 21
33.83857340647165
 31
0.0
  0
LINE
  5
332
330
1F
100
AcDbEntity
  8
0
100
AcDbLine
 10
5.962841873614789
 20
28.13146708185416
 30
0.0
 11
17.262840969615
 21
28.13146708185416
 31
0.0
  0
LINE
  5
333
330
1F
100
AcDbEntity
  8
0
100
AcDbLine
 10
22.84537943219226
 20
26.58145705471251
 30
0.0
 11
22.84537943219172
 21
-23.41851864300508
 31
0.0
  0
LINE
  5
334
330
1F
100
AcDbEntity
  8
0
100
AcDbLine
 10
41.21383712452385
 20
-10.2685298461463
 30
0.0
 11
41.21383712452385
 21
-17.16852929414627
 31
0.0
  0
LINE
  5
335
330
1F
100
AcDbEntity
  8
0
100
AcDbLine
 10
17.84537983219174
 20
-17.168529294146
 30
0.0
 11
10.7453804001915
 21
-17.168529294146
 31
0.0
  0
LINE
  5
336
330
1F
100
AcDbEntity
  8
0
100
AcDbLine
 10
17.84537983219174
 20
-10.26852984614594
 30
0.0
 11
17.84537983219174
 21
-17.168529294146
 31
0.0
  0
LINE
  5
337
330
1F
100
AcDbEntity
  8
0
100
AcDbLine
 10
47.56110842687335
 20
-13.30968387604186
 30
0.0
 11
47.93390060318576
 21
-13.59573737383382
 31
0.0
  0
LINE
  5
338
330
1F
100
AcDbEntity
  8
0
100
AcDbLine
 10
46.19523425495874
 20
-13.1298631299192
 30
0.0
 11
46.66110849887336
 21
-13.06852962214621
 31
0.0
  0
LINE
  5
339
330
1F
100
AcDbEntity
  8
0
100
AcDbLine
 10
10.7453804001915
 20
-10.26852984614594
 30
0.0
 11
17.84537983219174
 21
-10.26852984614594
 31
0.0
  0
LINE
  5
33A
330
1F
100
AcDbEntity
  8
0
100
AcDbLine
 10
48.21995410097776
 20
-13.96852955014623
 30
0.0
 11
48.39977484710037
 21
-14.40265523423164
 31
0.0
  0
LINE
  5
33B
330
1F
100
AcDbEntity
  8
0
100
AcDbLine
 10
47.12698274278798
 20
-13.1298631299192
 30
0.0
 11
47.56110842687335
 21
-13.30968387604186
 31
0.0
  0
LINE
  5
33C
330
1F
100
AcDbEntity
  8
0
100
AcDbLine
 10
46.66110849887336
 20
-13.06852962214621
 30
0.0
 11
47.12698274278798
 21
-13.1298631299192
 31
0.0
  0
LINE
  5
33D
330
1F
100
AcDbEntity
  8
0
100
AcDbLine
 10
44.8611086428734
 20
-14.86852947814626
 30
0.0
 11
44.92244215064635
 21
-14.40265523423164
 31
0.0
  0
LINE
  5
33E
330
1F
100
AcDbEntity
  8
0
100
AcDbLine
 10
-43.102626965391
 20
55.18741545232555
 30
0.0
 11
-43.4754191417036
 21
55.47346895011746
 31
0.0
  0
LINE
  5
33F
330
1F
100
AcDbEntity
  8
0
100
AcDbLine
 10
-41.7367527934764
 20
58.48492740265705
 30
0.0
 11
-41.30262710939104
 21
58.30510665653435
 31
0.0
  0
LINE
  5
340
330
1F
100
AcDbEntity
  8
0
100
AcDbLine
 10
-40.463960689164
 20
56.28038681051533
 30
0.0
 11
-40.64378143528663
 21
55.84626112642988
 31
0.0
  0
LINE
  5
341
330
1F
100
AcDbEntity
  8
0
100
AcDbLine
 10
-42.20262703739102
 20
58.54626091043001
 30
0.0
 11
-41.7367527934764
 21
58.48492740265705
 31
0.0
  0
LINE
  5
342
330
1F
100
AcDbEntity
  8
0
100
AcDbLine
 10
-41.7367527934764
 20
55.00759470620284
 30
0.0
 11
-42.20262703739102
 21
54.94626119842989
 31
0.0
  0
LINE
  5
343
330
1F
100
AcDbEntity
  8
0
100
AcDbLine
 10
-41.30262710939104
 20
55.18741545232555
 30
0.0
 11
-41.7367527934764
 21
55.00759470620284
 31
0.0
  0
LINE
  5
344
330
1F
100
AcDbEntity
  8
0
100
AcDbLine
 10
-43.94129338561803
 20
57.21213529834457
 30
0.0
 11
-43.76147263949542
 21
57.64626098243002
 31
0.0
  0
LINE
  5
345
330
1F
100
AcDbEntity
  8
0
100
AcDbLine
 10
-82.20262383739103
 20
81.44625907843009
 30
0.0
 11
-82.23669800837591
 21
81.7050781028271
 31
0.0
  0
LINE
  5
346
330
1F
100
AcDbEntity
  8
0
100
AcDbLine
 10
-12.70262939739032
 20
81.44625907843009
 30
0.0
 11
-12.66855522640543
 21
81.7050781028271
 31
0.0
  0
LINE
  5
347
330
1F
100
AcDbEntity
  8
0
100
AcDbLine
 10
-12.20262943739043
 20
82.31228441293254
 30
0.0
 11
-11.96144850178737
 21
82.41218482744506
 31
0.0
  0
LINE
  5
348
330
1F
100
AcDbEntity
  8
0
100
AcDbLine
 10
-28.20262815739033
 20
81.44625907843009
 30
0.0
 11
-28.20262815739033
 21
75.84625952643006
 31
0.0
  0
LINE
  5
349
330
1F
100
AcDbEntity
  8
0
100
AcDbLine
 10
40.56283910561545
 20
-29.96852827014631
 30
0.0
 11
40.52876493463055
 21
-30.22734729454332
 31
0.0
  0
LINE
  5
34A
330
1F
100
AcDbEntity
  8
0
100
AcDbLine
 10
10.54204925389661
 20
-22.6686528153155
 30
0.0
 11
10.10342202488137
 21
-22.50010975172327
 31
0.0
  0
LINE
  5
34B
330
1F
100
AcDbEntity
  8
0
100
AcDbLine
 10
10.10342202488137
 20
-22.50010975172327
 30
0.0
 11
9.723362811039397
 21
-22.22378457318795
 31
0.0
  0
LINE
  5
34C
330
1F
100
AcDbEntity
  8
0
100
AcDbLine
 10
48.46110835487332
 20
18.03146788985373
 30
0.0
 11
48.39977484710037
 21
17.56559364593911
 31
0.0
  0
LINE
  5
34D
330
1F
100
AcDbEntity
  8
0
100
AcDbLine
 10
48.39977484710037
 20
17.56559364593911
 30
0.0
 11
48.21995410097776
 21
17.13146796185375
 31
0.0
  0
LINE
  5
34E
330
1F
100
AcDbEntity
  8
0
100
AcDbLine
 10
48.21995410097776
 20
17.13146796185375
 30
0.0
 11
47.93390060318576
 21
16.75867578554134
 31
0.0
  0
LINE
  5
34F
330
1F
100
AcDbEntity
  8
0
100
AcDbLine
 10
47.56110842687352
 20
16.47262228774933
 30
0.0
 11
47.12698274278798
 21
16.29280154162672
 31
0.0
  0
LINE
  5
350
330
1F
100
AcDbEntity
  8
0
100
AcDbLine
 10
-83.202623757391
 20
82.44625899843014
 30
0.0
 11
-91.2026231173912
 21
82.44625899843014
 31
0.0
  0
LINE
  5
351
330
1F
100
AcDbEntity
  8
0
100
AcDbLine
 10
-82.94380473299397
 20
82.41218482744506
 30
0.0
 11
-83.202623757391
 21
82.44625899843014
 31
0.0
  0
LINE
  5
352
330
1F
100
AcDbEntity
  8
0
100
AcDbLine
 10
-29.20262807739028
 20
82.44625899843014
 30
0.0
 11
-28.94380905299327
 21
82.41218482744506
 31
0.0
  0
LINE
  5
353
330
1F
100
AcDbEntity
  8
0
100
AcDbLine
 10
-91.46144214178823
 20
82.41218482744506
 30
0.0
 11
-91.2026231173912
 21
82.44625899843014
 31
0.0
  0
LINE
  5
354
330
1F
100
AcDbEntity
  8
0
100
AcDbLine
 10
54.36400293693087
 20
-30.67591306210151
 30
0.0
 11
54.15694724616036
 21
-30.83468468286175
 31
0.0
  0
LINE
  5
355
330
1F
100
AcDbEntity
  8
0
100
AcDbLine
 10
54.15694724616036
 20
-30.83468468286175
 30
0.0
 11
53.91586677062417
 21
-30.93448794410362
 31
0.0
  0
LINE
  5
356
330
1F
100
AcDbEntity
  8
0
100
AcDbLine
 10
2.49563926786775
 20
67.84248365691687
 30
0.0
 11
2.49563926786775
 21
75.8462595264301
 31
0.0
  0
LINE
  5
357
330
1F
100
AcDbEntity
  8
0
100
AcDbLine
 10
50.06141544182144
 20
33.13146668185369
 30
0.0
 11
50.06141544182144
 21
28.1314670818538
 31
0.0
  0
LINE
  5
358
330
1F
100
AcDbEntity
  8
0
100
AcDbLine
 10
-91.90972984200926
 20
82.15336580304805
 30
0.0
 11
-91.70262307739127
 21
82.31228441293254
 31
0.0
  0
LINE
  5
359
330
1F
100
AcDbEntity
  8
0
100
AcDbLine
 10
-91.70262307739127
 20
82.31228441293254
 30
0.0
 11
-91.46144214178823
 21
82.41218482744506
 31
0.0
  0
LINE
  5
35A
330
1F
100
AcDbEntity
  8
0
100
AcDbLine
 10
40.56283910561545
 20
-29.96852827014631
 30
0.0
 11
40.56283910561545
 21
-24.96852867014624
 31
0.0
  0
LINE
  5
35B
330
1F
100
AcDbEntity
  8
0
100
AcDbLine
 10
54.5271332733758
 20
33.63146664185366
 30
0.0
 11
54.62703368788851
 21
33.3902857062507
 31
0.0
  0
LINE
  5
35C
330
1F
100
AcDbEntity
  8
0
100
AcDbLine
 10
54.62703368788851
 20
33.3902857062507
 30
0.0
 11
54.6611078588734
 21
33.13146668185369
 31
0.0
  0
LINE
  5
35D
330
1F
100
AcDbEntity
  8
0
100
AcDbLine
 10
50.06141544182144
 20
33.13146668185369
 30
0.0
 11
50.09548961280633
 21
33.3902857062507
 31
0.0
  0
LINE
  5
35E
330
1F
100
AcDbEntity
  8
0
100
AcDbLine
 10
50.09548961280633
 20
33.3902857062507
 30
0.0
 11
50.19539002731904
 21
33.63146664185366
 31
0.0
  0
LINE
  5
35F
330
1F
100
AcDbEntity
  8
0
100
AcDbLine
 10
9.235122292195081
 20
23.57650610857102
 30
0.0
 11
9.163299294929953
 21
24.04087887627225
 31
0.0
  0
LINE
  5
360
330
1F
100
AcDbEntity
  8
0
100
AcDbLine
 10
9.424686496482966
 20
23.14654561879155
 30
0.0
 11
9.235122292195081
 21
23.57650610857102
 31
0.0
  0
LINE
  5
361
330
1F
100
AcDbEntity
  8
0
100
AcDbLine
 10
64.51307662646714
 20
52.95881049701389
 30
0.0
 11
64.69289737258994
 21
52.52468481292846
 31
0.0
  0
LINE
  5
362
330
1F
100
AcDbEntity
  8
0
100
AcDbLine
 10
63.85423095236291
 20
53.61765617111823
 30
0.0
 11
64.22702312867531
 21
53.33160267332632
 31
0.0
  0
LINE
  5
363
330
1F
100
AcDbEntity
  8
0
100
AcDbLine
 10
63.42010526827755
 20
53.79747691724084
 30
0.0
 11
63.85423095236291
 21
53.61765617111823
 31
0.0
  0
LINE
  5
364
330
1F
100
AcDbEntity
  8
0
100
AcDbLine
 10
62.95423102436293
 20
50.25881071301396
 30
0.0
 11
62.48835678044831
 21
50.32014422078699
 31
0.0
  0
LINE
  5
365
330
1F
100
AcDbEntity
  8
0
100
AcDbLine
 10
63.42010526827755
 20
50.32014422078699
 30
0.0
 11
62.95423102436293
 21
50.25881071301396
 31
0.0
  0
LINE
  5
366
330
1F
100
AcDbEntity
  8
0
100
AcDbLine
 10
63.85423095236291
 20
50.49996496690962
 30
0.0
 11
63.42010526827755
 21
50.32014422078699
 31
0.0
  0
LINE
  5
367
330
1F
100
AcDbEntity
  8
0
100
AcDbLine
 10
64.22702312867531
 20
50.78601846470153
 30
0.0
 11
63.85423095236291
 21
50.49996496690962
 31
0.0
  0
LINE
  5
368
330
1F
100
AcDbEntity
  8
0
100
AcDbLine
 10
64.51307662646714
 20
51.15881064101394
 30
0.0
 11
64.22702312867531
 21
50.78601846470153
 31
0.0
  0
LINE
  5
369
330
1F
100
AcDbEntity
  8
0
100
AcDbLine
 10
64.69289737258994
 20
51.59293632509938
 30
0.0
 11
64.51307662646714
 21
51.15881064101394
 31
0.0
  0
LINE
  5
36A
330
1F
100
AcDbEntity
  8
0
100
AcDbLine
 10
64.69289737258994
 20
52.52468481292846
 30
0.0
 11
64.7542308803629
 21
52.05881056901392
 31
0.0
  0
LINE
  5
36B
330
1F
100
AcDbEntity
  8
0
100
AcDbLine
 10
53.91586677062417
 20
-30.93448794410362
 30
0.0
 11
53.65717438904201
 21
-30.96852819014654
 31
0.0
  0
LINE
  5
36C
330
1F
100
AcDbEntity
  8
0
100
AcDbLine
 10
40.52876493463055
 20
-30.22734729454332
 30
0.0
 11
40.42886452011785
 21
-30.46852823014628
 31
0.0
  0
LINE
  5
36D
330
1F
100
AcDbEntity
  8
0
100
AcDbLine
 10
40.42886452011785
 20
-30.46852823014628
 30
0.0
 11
40.26994591023355
 21
-30.67563499476432
 31
0.0
  0
LINE
  5
36E
330
1F
100
AcDbEntity
  8
0
100
AcDbLine
 10
10.92225294403322
 20
25.88100958453897
 30
0.0
 11
11.38939175294977
 21
25.83019675621082
 31
0.0
  0
LINE
  5
36F
330
1F
100
AcDbEntity
  8
0
100
AcDbLine
 10
9.163299294929953
 20
24.04087887627225
 30
0.0
 11
9.214112123258095
 21
24.50801768518898
 31
0.0
  0
LINE
  5
370
330
1F
100
AcDbEntity
  8
0
100
AcDbLine
 10
9.214112123258095
 20
24.50801768518898
 30
0.0
 11
9.384097966901239
 21
24.94608779747654
 31
0.0
  0
LINE
  5
371
330
1F
100
AcDbEntity
  8
0
100
AcDbLine
 10
9.384097966901239
 20
24.94608779747654
 30
0.0
 11
9.661672571529905
 21
25.32523545892769
 31
0.0
  0
LINE
  5
372
330
1F
100
AcDbEntity
  8
0
100
AcDbLine
 10
9.661672571529905
 20
25.32523545892769
 30
0.0
 11
10.02791968655234
 21
25.61962238298595
 31
0.0
  0
LINE
  5
373
330
1F
100
AcDbEntity
  8
0
100
AcDbLine
 10
10.02791968655234
 20
25.61962238298595
 30
0.0
 11
10.45788017633181
 21
25.80918658727384
 31
0.0
  0
LINE
  5
374
330
1F
100
AcDbEntity
  8
0
100
AcDbLine
 10
10.45788017633181
 20
25.80918658727384
 30
0.0
 11
10.92225294403322
 21
25.88100958453897
 31
0.0
  0
LINE
  5
375
330
1F
100
AcDbEntity
  8
0
100
AcDbLine
 10
75.35423003236271
 20
47.55881092901392
 30
0.0
 11
58.95423134436291
 21
47.55881092901392
 31
0.0
  0
LINE
  5
376
330
1F
100
AcDbEntity
  8
0
100
AcDbLine
 10
75.35423003236271
 20
52.05881056901392
 30
0.0
 11
75.35423003236271
 21
47.55881092901392
 31
0.0
  0
LINE
  5
377
330
1F
100
AcDbEntity
  8
0
100
AcDbLine
 10
75.35423003236271
 20
52.05881056901392
 30
0.0
 11
75.55867505827278
 21
53.6117247153959
 31
0.0
  0
LINE
  5
378
330
1F
100
AcDbEntity
  8
0
100
AcDbLine
 10
75.55867505827278
 20
53.6117247153959
 30
0.0
 11
76.15807754534829
 21
55.05881032901389
 31
0.0
  0
LINE
  5
379
330
1F
100
AcDbEntity
  8
0
100
AcDbLine
 10
76.15807754534829
 20
55.05881032901389
 30
0.0
 11
77.11158920465486
 21
56.30145091672199
 31
0.0
  0
LINE
  5
37A
330
1F
100
AcDbEntity
  8
0
100
AcDbLine
 10
77.11158920465486
 20
56.30145091672199
 30
0.0
 11
78.35422979236277
 21
57.25496257602836
 31
0.0
  0
LINE
  5
37B
330
1F
100
AcDbEntity
  8
0
100
AcDbLine
 10
78.35422979236277
 20
57.25496257602836
 30
0.0
 11
79.80131540598076
 21
57.85436506310398
 31
0.0
  0
LINE
  5
37C
330
1F
100
AcDbEntity
  8
0
100
AcDbLine
 10
79.80131540598076
 20
57.85436506310398
 30
0.0
 11
81.35422955236282
 21
58.05881008901395
 31
0.0
  0
LINE
  5
37D
330
1F
100
AcDbEntity
  8
0
100
AcDbLine
 10
81.35422955236282
 20
58.05881008901395
 30
0.0
 11
82.9071436987449
 21
57.85436506310398
 31
0.0
  0
LINE
  5
37E
330
1F
100
AcDbEntity
  8
0
100
AcDbLine
 10
82.9071436987449
 20
57.85436506310398
 30
0.0
 11
84.35422931236289
 21
57.25496257602836
 31
0.0
  0
LINE
  5
37F
330
1F
100
AcDbEntity
  8
0
100
AcDbLine
 10
84.35422931236289
 20
57.25496257602836
 30
0.0
 11
85.59686990007081
 21
56.30145091672199
 31
0.0
  0
LINE
  5
380
330
1F
100
AcDbEntity
  8
0
100
AcDbLine
 10
85.59686990007081
 20
56.30145091672199
 30
0.0
 11
86.55038155937736
 21
55.05881032901389
 31
0.0
  0
LINE
  5
381
330
1F
100
AcDbEntity
  8
0
100
AcDbLine
 10
86.55038155937736
 20
55.05881032901389
 30
0.0
 11
87.14978404645288
 21
53.6117247153959
 31
0.0
  0
LINE
  5
382
330
1F
100
AcDbEntity
  8
0
100
AcDbLine
 10
95.35422843236299
 20
47.55881092901392
 30
0.0
 11
87.35422907236294
 21
47.55881092901392
 31
0.0
  0
LINE
  5
383
330
1F
100
AcDbEntity
  8
0
100
AcDbLine
 10
96.85422831236302
 20
54.65688657252119
 30
0.0
 11
97.577771119172
 21
54.95658781605904
 31
0.0
  0
LINE
  5
384
330
1F
100
AcDbEntity
  8
0
100
AcDbLine
 10
97.577771119172
 20
54.95658781605904
 30
0.0
 11
98.35422819236304
 21
55.05881032901398
 31
0.0
  0
LINE
  5
385
330
1F
100
AcDbEntity
  8
0
100
AcDbLine
 10
98.35422819236304
 20
55.05881032901398
 30
0.0
 11
99.13068526555408
 21
54.95658781605904
 31
0.0
  0
LINE
  5
386
330
1F
100
AcDbEntity
  8
0
100
AcDbLine
 10
99.13068526555408
 20
54.95658781605904
 30
0.0
 11
99.85422807236309
 21
54.65688657252119
 31
0.0
  0
LINE
  5
387
330
1F
100
AcDbEntity
  8
0
100
AcDbLine
 10
99.85422807236309
 20
54.65688657252119
 30
0.0
 11
100.475548366217
 21
54.180130742868
 31
0.0
  0
LINE
  5
388
330
1F
100
AcDbEntity
  8
0
100
AcDbLine
 10
100.475548366217
 20
54.180130742868
 30
0.0
 11
100.9523041958703
 21
53.55881044901395
 31
0.0
  0
LINE
  5
389
330
1F
100
AcDbEntity
  8
0
100
AcDbLine
 10
100.9523041958703
 20
53.55881044901395
 30
0.0
 11
101.2520054394081
 21
52.83526764220486
 31
0.0
  0
LINE
  5
38A
330
1F
100
AcDbEntity
  8
0
100
AcDbLine
 10
101.2520054394081
 20
52.83526764220486
 30
0.0
 11
101.3542279523631
 21
52.05881056901392
 31
0.0
  0
LINE
  5
38B
330
1F
100
AcDbEntity
  8
0
100
AcDbLine
 10
101.3542279523631
 20
52.05881056901392
 30
0.0
 11
101.3542279523631
 21
47.55881092901392
 31
0.0
  0
LINE
  5
38C
330
1F
100
AcDbEntity
  8
0
100
AcDbLine
 10
107.652497329621
 20
47.55881092901397
 30
0.0
 11
101.3542279523631
 21
47.55881092901392
 31
0.0
  0
LINE
  5
38D
330
1F
100
AcDbEntity
  8
0
100
AcDbLine
 10
107.652497329621
 20
47.55881092901397
 30
0.0
 11
107.652497329621
 21
71.15880904101417
 31
0.0
  0
LINE
  5
38E
330
1F
100
AcDbEntity
  8
0
100
AcDbLine
 10
62.48835678044831
 20
50.32014422078699
 30
0.0
 11
62.05423109636295
 21
50.49996496690962
 31
0.0
  0
LINE
  5
38F
330
1F
100
AcDbEntity
  8
0
100
AcDbLine
 10
62.05423109636295
 20
50.49996496690962
 30
0.0
 11
61.68143892005053
 21
50.78601846470153
 31
0.0
  0
LINE
  5
390
330
1F
100
AcDbEntity
  8
0
100
AcDbLine
 10
61.68143892005053
 20
50.78601846470153
 30
0.0
 11
61.39538542225871
 21
51.15881064101394
 31
0.0
  0
LINE
  5
391
330
1F
100
AcDbEntity
  8
0
100
AcDbLine
 10
61.39538542225871
 20
51.15881064101394
 30
0.0
 11
61.21556467613591
 21
51.59293632509938
 31
0.0
  0
LINE
  5
392
330
1F
100
AcDbEntity
  8
0
100
AcDbLine
 10
61.21556467613591
 20
51.59293632509938
 30
0.0
 11
61.15423116836296
 21
52.05881056901392
 31
0.0
  0
LINE
  5
393
330
1F
100
AcDbEntity
  8
0
100
AcDbLine
 10
61.15423116836296
 20
52.05881056901392
 30
0.0
 11
61.21556467613591
 21
52.52468481292846
 31
0.0
  0
LINE
  5
394
330
1F
100
AcDbEntity
  8
0
100
AcDbLine
 10
61.21556467613591
 20
52.52468481292846
 30
0.0
 11
61.39538542225871
 21
52.95881049701389
 31
0.0
  0
LINE
  5
395
330
1F
100
AcDbEntity
  8
0
100
AcDbLine
 10
61.39538542225871
 20
52.95881049701389
 30
0.0
 11
61.68143892005053
 21
53.33160267332632
 31
0.0
  0
LINE
  5
396
330
1F
100
AcDbEntity
  8
0
100
AcDbLine
 10
62.05423109636295
 20
53.61765617111823
 30
0.0
 11
62.48835678044831
 21
53.79747691724084
 31
0.0
  0
LINE
  5
397
330
1F
100
AcDbEntity
  8
0
100
AcDbLine
 10
64.22702312867531
 20
53.33160267332632
 30
0.0
 11
64.51307662646714
 21
52.95881049701389
 31
0.0
  0
LINE
  5
398
330
1F
100
AcDbEntity
  8
0
100
AcDbLine
 10
64.7542308803629
 20
52.05881056901392
 30
0.0
 11
64.69289737258994
 21
51.59293632509938
 31
0.0
  0
LINE
  5
399
330
1F
100
AcDbEntity
  8
0
100
AcDbLine
 10
-3.443811092993131
 20
82.41218482744506
 30
0.0
 11
-3.702630117390143
 21
82.44625899843014
 31
0.0
  0
LINE
  5
39A
330
1F
100
AcDbEntity
  8
0
100
AcDbLine
 10
-3.702630117390143
 20
82.44625899843014
 30
0.0
 11
-11.70262947739036
 21
82.44625899843014
 31
0.0
  0
LINE
  5
39B
330
1F
100
AcDbEntity
  8
0
100
AcDbLine
 10
-12.70262939739032
 20
75.84625952643006
 30
0.0
 11
-12.70262939739032
 21
81.44625907843009
 31
0.0
  0
LINE
  5
39C
330
1F
100
AcDbEntity
  8
0
100
AcDbLine
 10
-28.20262815739033
 20
75.84625952643006
 30
0.0
 11
-12.70262939739032
 21
75.84625952643006
 31
0.0
  0
LINE
  5
39D
330
1F
100
AcDbEntity
  8
0
100
AcDbLine
 10
-29.20262807739028
 20
82.44625899843014
 30
0.0
 11
-37.2026274373905
 21
82.44625899843014
 31
0.0
  0
LINE
  5
39E
330
1F
100
AcDbEntity
  8
0
100
AcDbLine
 10
-37.70262739739057
 20
82.31228441293254
 30
0.0
 11
-37.46144646178752
 21
82.41218482744506
 31
0.0
  0
LINE
  5
39F
330
1F
100
AcDbEntity
  8
0
100
AcDbLine
 10
-37.90973416200856
 20
82.15336580304805
 30
0.0
 11
-37.70262739739057
 21
82.31228441293254
 31
0.0
  0
LINE
  5
3A0
330
1F
100
AcDbEntity
  8
0
100
AcDbLine
 10
-38.06865277189286
 20
81.94625903843007
 30
0.0
 11
-37.90973416200856
 21
82.15336580304805
 31
0.0
  0
LINE
  5
3A1
330
1F
100
AcDbEntity
  8
0
100
AcDbLine
 10
-38.16855318640557
 20
81.7050781028271
 30
0.0
 11
-38.06865277189286
 21
81.94625903843007
 31
0.0
  0
LINE
  5
3A2
330
1F
100
AcDbEntity
  8
0
100
AcDbLine
 10
-38.20262735739046
 20
81.44625907843009
 30
0.0
 11
-38.20262735739046
 21
75.84625952643006
 31
0.0
  0
LINE
  5
3A3
330
1F
100
AcDbEntity
  8
0
100
AcDbLine
 10
-82.20262383739103
 20
75.84625952643006
 30
0.0
 11
-38.20262735739046
 21
75.84625952643006
 31
0.0
  0
LINE
  5
3A4
330
1F
100
AcDbEntity
  8
0
100
AcDbLine
 10
-92.06864845189357
 20
81.94625903843007
 30
0.0
 11
-91.90972984200926
 21
82.15336580304805
 31
0.0
  0
LINE
  5
3A5
330
1F
100
AcDbEntity
  8
0
100
AcDbLine
 10
-92.16854886640628
 20
81.7050781028271
 30
0.0
 11
-92.06864845189357
 21
81.94625903843007
 31
0.0
  0
LINE
  5
3A6
330
1F
100
AcDbEntity
  8
0
100
AcDbLine
 10
-92.20262303739116
 20
81.44625907843009
 30
0.0
 11
-92.16854886640628
 21
81.7050781028271
 31
0.0
  0
LINE
  5
3A7
330
1F
100
AcDbEntity
  8
0
100
AcDbLine
 10
-92.20262303739116
 20
81.44625907843009
 30
0.0
 11
-92.20262303739116
 21
75.84625952643006
 31
0.0
  0
LINE
  5
3A8
330
1F
100
AcDbEntity
  8
0
100
AcDbLine
 10
-100.2026223973912
 20
75.84625952643006
 30
0.0
 11
-92.20262303739116
 21
75.84625952643006
 31
0.0
  0
LINE
  5
3A9
330
1F
100
AcDbEntity
  8
0
100
AcDbLine
 10
-100.2026223973912
 20
75.84625952643006
 30
0.0
 11
-100.2026223973912
 21
70.84625992643
 31
0.0
  0
LINE
  5
3AA
330
1F
100
AcDbEntity
  8
0
100
AcDbLine
 10
-100.2026223973912
 20
70.84625992643
 30
0.0
 11
-46.2026267173905
 21
52.24626141442995
 31
0.0
  0
LINE
  5
3AB
330
1F
100
AcDbEntity
  8
0
100
AcDbLine
 10
-41.20262711738962
 20
52.24626141442995
 30
0.0
 11
-46.2026267173905
 21
52.24626141442995
 31
0.0
  0
LINE
  5
3AC
330
1F
100
AcDbEntity
  8
0
100
AcDbLine
 10
-34.60262764538963
 20
46.64626186242992
 30
0.0
 11
-34.63670181637453
 21
46.38744283803291
 31
0.0
  0
LINE
  5
3AD
330
1F
100
AcDbEntity
  8
0
100
AcDbLine
 10
-34.60262764538963
 20
46.64626186242992
 30
0.0
 11
-34.60262764538963
 21
52.24626141442995
 31
0.0
  0
LINE
  5
3AE
330
1F
100
AcDbEntity
  8
0
100
AcDbLine
 10
-34.60262764538963
 20
52.24626141442995
 30
0.0
 11
-29.32009165687161
 21
52.24626141442995
 31
0.0
  0
LINE
  5
3AF
330
1F
100
AcDbEntity
  8
0
100
AcDbLine
 10
-29.32009165687161
 20
52.24626141442995
 30
0.0
 11
-29.32009165687161
 21
61.24626069442994
 31
0.0
  0
LINE
  5
3B0
330
1F
100
AcDbEntity
  8
0
100
AcDbLine
 10
-35.10262760539042
 20
61.24626069442994
 30
0.0
 11
-29.32009165687161
 21
61.24626069442994
 31
0.0
  0
LINE
  5
3B1
330
1F
100
AcDbEntity
  8
0
100
AcDbLine
 10
-35.10262760539042
 20
67.84626016643001
 30
0.0
 11
-35.10262760539042
 21
61.24626069442994
 31
0.0
  0
LINE
  5
3B2
330
1F
100
AcDbEntity
  8
0
100
AcDbLine
 10
-11.60262948539002
 20
61.24626069442994
 30
0.0
 11
-11.60262948539002
 21
67.84626016643001
 31
0.0
  0
LINE
  5
3B3
330
1F
100
AcDbEntity
  8
0
100
AcDbLine
 10
-14.31490469240322
 20
61.24626069442994
 30
0.0
 11
-11.60262948539002
 21
61.24626069442994
 31
0.0
  0
LINE
  5
3B4
330
1F
100
AcDbEntity
  8
0
100
AcDbLine
 10
-14.31490469240322
 20
46.64626186242992
 30
0.0
 11
-14.31490469240322
 21
61.24626069442994
 31
0.0
  0
LINE
  5
3B5
330
1F
100
AcDbEntity
  8
0
100
AcDbLine
 10
-14.28083052141833
 20
46.38744283803291
 30
0.0
 11
-14.31490469240322
 21
46.64626186242992
 31
0.0
  0
LINE
  5
3B6
330
1F
100
AcDbEntity
  8
0
100
AcDbLine
 10
-14.18093010690562
 20
46.14626190242994
 30
0.0
 11
-14.28083052141833
 21
46.38744283803291
 31
0.0
  0
LINE
  5
3B7
330
1F
100
AcDbEntity
  8
0
100
AcDbLine
 10
-14.02201149702132
 20
45.93915513781196
 30
0.0
 11
-14.18093010690562
 21
46.14626190242994
 31
0.0
  0
LINE
  5
3B8
330
1F
100
AcDbEntity
  8
0
100
AcDbLine
 10
-13.81490473240333
 20
45.78023652792747
 30
0.0
 11
-14.02201149702132
 21
45.93915513781196
 31
0.0
  0
LINE
  5
3B9
330
1F
100
AcDbEntity
  8
0
100
AcDbLine
 10
-13.57372379680027
 20
45.68033611341495
 30
0.0
 11
-13.81490473240333
 21
45.78023652792747
 31
0.0
  0
LINE
  5
3BA
330
1F
100
AcDbEntity
  8
0
100
AcDbLine
 10
-13.31490477240326
 20
45.64626194242987
 30
0.0
 11
-13.57372379680027
 21
45.68033611341495
 31
0.0
  0
LINE
  5
3BB
330
1F
100
AcDbEntity
  8
0
100
AcDbLine
 10
-2.143811196993418
 20
45.68033611341495
 30
0.0
 11
-2.40263022139043
 21
45.64626194242987
 31
0.0
  0
LINE
  5
3BC
330
1F
100
AcDbEntity
  8
0
100
AcDbLine
 10
-1.40263030139029
 20
52.24626141442995
 30
0.0
 11
-1.402630301390471
 21
46.64626186242992
 31
0.0
  0
LINE
  5
3BD
330
1F
100
AcDbEntity
  8
0
100
AcDbLine
 10
-1.40263030139029
 20
52.24626141442995
 30
0.0
 11
2.49563926786757
 21
52.24626141442999
 31
0.0
  0
LINE
  5
3BE
330
1F
100
AcDbEntity
  8
0
100
AcDbLine
 10
-2.307822106749386
 20
61.24626069442994
 30
0.0
 11
-2.302630229390091
 21
67.84626016643001
 31
0.0
  0
LINE
  5
3BF
330
1F
100
AcDbEntity
  8
0
100
AcDbLine
 10
-2.302630229390091
 20
67.84626016643001
 30
0.0
 11
2.49563926786775
 21
67.84248365691687
 31
0.0
  0
LINE
  5
3C0
330
1F
100
AcDbEntity
  8
0
100
AcDbLine
 10
-43.94129338561803
 20
56.28038681051533
 30
0.0
 11
-44.00262689339117
 21
56.74626105442995
 31
0.0
  0
LINE
  5
3C1
330
1F
100
AcDbEntity
  8
0
100
AcDbLine
 10
-42.66850128130564
 20
58.48492740265705
 30
0.0
 11
-42.20262703739102
 21
58.54626091043001
 31
0.0
  0
LINE
  5
3C2
330
1F
100
AcDbEntity
  8
0
100
AcDbLine
 10
-40.64378143528663
 20
55.84626112642988
 30
0.0
 11
-40.92983493307845
 21
55.47346895011746
 31
0.0
  0
LINE
  5
3C3
330
1F
100
AcDbEntity
  8
0
100
AcDbLine
 10
-42.66850128130564
 20
55.00759470620284
 30
0.0
 11
-43.102626965391
 21
55.18741545232555
 31
0.0
  0
LINE
  5
3C4
330
1F
100
AcDbEntity
  8
0
100
AcDbLine
 10
-43.4754191417036
 20
55.47346895011746
 30
0.0
 11
-43.76147263949542
 21
55.84626112642988
 31
0.0
  0
LINE
  5
3C5
330
1F
100
AcDbEntity
  8
0
100
AcDbLine
 10
-43.76147263949542
 20
55.84626112642988
 30
0.0
 11
-43.94129338561803
 21
56.28038681051533
 31
0.0
  0
LINE
  5
3C6
330
1F
100
AcDbEntity
  8
0
100
AcDbLine
 10
-11.22009310487037
 20
56.74626105442995
 30
0.0
 11
-9.020093280870318
 21
60.5567725262406
 31
0.0
  0
LINE
  5
3C7
330
1F
100
AcDbEntity
  8
0
100
AcDbLine
 10
18.00402186521795
 20
34.09739243086902
 30
0.0
 11
18.26284088961496
 21
34.1314666018541
 31
0.0
  0
LINE
  5
3C8
330
1F
100
AcDbEntity
  8
0
100
AcDbLine
 10
17.76284092961489
 20
33.9974920163565
 30
0.0
 11
18.00402186521795
 21
34.09739243086902
 31
0.0
  0
LINE
  5
3C9
330
1F
100
AcDbEntity
  8
0
100
AcDbLine
 10
17.5557341649969
 20
33.83857340647211
 30
0.0
 11
17.76284092961489
 21
33.9974920163565
 31
0.0
  0
LINE
  5
3CA
330
1F
100
AcDbEntity
  8
0
100
AcDbLine
 10
17.3968155551126
 20
33.63146664185403
 30
0.0
 11
17.5557341649969
 21
33.83857340647211
 31
0.0
  0
LINE
  5
3CB
330
1F
100
AcDbEntity
  8
0
100
AcDbLine
 10
17.262840969615
 20
-24.96852867014597
 30
0.0
 11
17.262840969615
 21
-29.96852827014694
 31
0.0
  0
LINE
  5
3CC
330
1F
100
AcDbEntity
  8
0
100
AcDbLine
 10
17.29691514059989
 20
-30.22734729454395
 30
0.0
 11
17.3968155551126
 21
-30.46852823014696
 31
0.0
  0
LINE
  5
3CD
330
1F
100
AcDbEntity
  8
0
100
AcDbLine
 10
17.3968155551126
 20
-30.46852823014696
 30
0.0
 11
17.5557341649969
 21
-30.67563499476495
 31
0.0
  0
LINE
  5
3CE
330
1F
100
AcDbEntity
  8
0
100
AcDbLine
 10
17.5557341649969
 20
-30.67563499476495
 30
0.0
 11
17.76284092961489
 21
-30.83455360464934
 31
0.0
  0
LINE
  5
3CF
330
1F
100
AcDbEntity
  8
0
100
AcDbLine
 10
17.76284092961489
 20
-30.83455360464934
 30
0.0
 11
18.00402186521795
 21
-30.93445401916196
 31
0.0
  0
LINE
  5
3D0
330
1F
100
AcDbEntity
  8
0
100
AcDbLine
 10
18.00402186521795
 20
-30.93445401916196
 30
0.0
 11
18.26284088961496
 21
-30.96852819014694
 31
0.0
  0
LINE
  5
3D1
330
1F
100
AcDbEntity
  8
0
100
AcDbLine
 10
18.26284088961496
 20
-30.96852819014694
 30
0.0
 11
39.56283918561549
 21
-30.96852819014631
 31
0.0
  0
LINE
  5
3D2
330
1F
100
AcDbEntity
  8
0
100
AcDbLine
 10
40.26994591023355
 20
-30.67563499476432
 30
0.0
 11
40.06283914561556
 21
-30.83455360464871
 31
0.0
  0
LINE
  5
3D3
330
1F
100
AcDbEntity
  8
0
100
AcDbLine
 10
50.56283830561522
 20
-30.8345536046493
 30
0.0
 11
50.80401924121828
 21
-30.93445401916187
 31
0.0
  0
LINE
  5
3D4
330
1F
100
AcDbEntity
  8
0
100
AcDbLine
 10
50.80401924121828
 20
-30.93445401916187
 30
0.0
 11
51.06283826561529
 21
-30.96852819014685
 31
0.0
  0
LINE
  5
3D5
330
1F
100
AcDbEntity
  8
0
100
AcDbLine
 10
51.06283826561529
 20
-30.96852819014685
 30
0.0
 11
53.65717438904201
 21
-30.96852819014654
 31
0.0
  0
LINE
  5
3D6
330
1F
100
AcDbEntity
  8
0
100
AcDbLine
 10
54.52293738849117
 20
-30.46898233275823
 30
0.0
 11
54.36400293693087
 21
-30.67591306210151
 31
0.0
  0
LINE
  5
3D7
330
1F
100
AcDbEntity
  8
0
100
AcDbLine
 10
54.62293026430404
 20
-30.2279804418404
 30
0.0
 11
54.52293738849117
 21
-30.46898233275823
 31
0.0
  0
LINE
  5
3D8
330
1F
100
AcDbEntity
  8
0
100
AcDbLine
 10
54.65717399963437
 20
-29.96931491798789
 30
0.0
 11
54.62293026430404
 21
-30.2279804418404
 31
0.0
  0
LINE
  5
3D9
330
1F
100
AcDbEntity
  8
0
100
AcDbLine
 10
54.36821466349149
 20
33.83857340647165
 30
0.0
 11
54.5271332733758
 21
33.63146664185366
 31
0.0
  0
LINE
  5
3DA
330
1F
100
AcDbEntity
  8
0
100
AcDbLine
 10
50.80259633742438
 20
34.09739243086867
 30
0.0
 11
51.0614153618214
 21
34.13146660185374
 31
0.0
  0
LINE
  5
3DB
330
1F
100
AcDbEntity
  8
0
100
AcDbLine
 10
50.56141540182133
 20
33.99749201635614
 30
0.0
 11
50.80259633742438
 21
34.09739243086867
 31
0.0
  0
LINE
  5
3DC
330
1F
100
AcDbEntity
  8
0
100
AcDbLine
 10
50.35430863720335
 20
33.83857340647165
 30
0.0
 11
50.56141540182133
 21
33.99749201635614
 31
0.0
  0
LINE
  5
3DD
330
1F
100
AcDbEntity
  8
0
100
AcDbLine
 10
40.56283910561617
 20
28.1314670818538
 30
0.0
 11
40.56283910561635
 21
33.13146668185378
 31
0.0
  0
LINE
  5
3DE
330
1F
100
AcDbEntity
  8
0
100
AcDbLine
 10
40.56283910561635
 20
33.13146668185378
 30
0.0
 11
40.52876493463145
 21
33.39028570625079
 31
0.0
  0
LINE
  5
3DF
330
1F
100
AcDbEntity
  8
0
100
AcDbLine
 10
40.52876493463145
 20
33.39028570625079
 30
0.0
 11
40.42886452011875
 21
33.63146664185376
 31
0.0
  0
LINE
  5
3E0
330
1F
100
AcDbEntity
  8
0
100
AcDbLine
 10
40.42886452011875
 20
33.63146664185376
 30
0.0
 11
40.26994591023445
 21
33.83857340647175
 31
0.0
  0
LINE
  5
3E1
330
1F
100
AcDbEntity
  8
0
100
AcDbLine
 10
40.26994591023445
 20
33.83857340647175
 30
0.0
 11
40.06283914561646
 21
33.99749201635614
 31
0.0
  0
LINE
  5
3E2
330
1F
100
AcDbEntity
  8
0
100
AcDbLine
 10
40.06283914561646
 20
33.99749201635614
 30
0.0
 11
39.8216582100134
 21
34.09739243086875
 31
0.0
  0
LINE
  5
3E3
330
1F
100
AcDbEntity
  8
0
100
AcDbLine
 10
33.84537355607826
 20
20.33146770585379
 30
0.0
 11
41.21383712452421
 21
20.33146770585379
 31
0.0
  0
LINE
  5
3E4
330
1F
100
AcDbEntity
  8
0
100
AcDbLine
 10
41.21383712452421
 20
13.43146825785373
 30
0.0
 11
33.84537355607826
 21
13.43146825785373
 31
0.0
  0
LINE
  5
3E5
330
1F
100
AcDbEntity
  8
0
100
AcDbLine
 10
33.84537355607772
 20
-10.2685298461463
 30
0.0
 11
33.84537355607826
 21
13.43146825785373
 31
0.0
  0
LINE
  5
3E6
330
1F
100
AcDbEntity
  8
0
100
AcDbLine
 10
33.84537355607772
 20
-10.2685298461463
 30
0.0
 11
41.21383712452385
 21
-10.2685298461463
 31
0.0
  0
LINE
  5
3E7
330
1F
100
AcDbEntity
  8
0
100
AcDbLine
 10
41.21383712452385
 20
-17.16852929414627
 30
0.0
 11
33.84537355607772
 21
-17.16852929414627
 31
0.0
  0
LINE
  5
3E8
330
1F
100
AcDbEntity
  8
0
100
AcDbLine
 10
33.8453735560779
 20
-23.41851864300481
 30
0.0
 11
33.84537355607772
 21
-17.16852929414627
 31
0.0
  0
LINE
  5
3E9
330
1F
100
AcDbEntity
  8
0
100
AcDbLine
 10
22.84537943219172
 20
-23.41851864300508
 30
0.0
 11
33.8453735560779
 21
-23.41851864300481
 31
0.0
  0
LINE
  5
3EA
330
1F
100
AcDbEntity
  8
0
100
AcDbLine
 10
10.74538040019205
 20
13.43146825785409
 30
0.0
 11
10.74538040019205
 21
20.33146770585397
 31
0.0
  0
LINE
  5
3EB
330
1F
100
AcDbEntity
  8
0
100
AcDbLine
 10
10.74538040019205
 20
20.33146770585397
 30
0.0
 11
17.8453798321921
 21
20.33146770585397
 31
0.0
  0
LINE
  5
3EC
330
1F
100
AcDbEntity
  8
0
100
AcDbLine
 10
17.8453798321921
 20
13.43146825785409
 30
0.0
 11
10.74538040019205
 21
13.43146825785409
 31
0.0
  0
LINE
  5
3ED
330
1F
100
AcDbEntity
  8
0
100
AcDbLine
 10
48.39977484710037
 20
-14.40265523423164
 30
0.0
 11
48.46110835487332
 21
-14.86852947814626
 31
0.0
  0
LINE
  5
3EE
330
1F
100
AcDbEntity
  8
0
100
AcDbLine
 10
48.46110835487332
 20
-14.86852947814626
 30
0.0
 11
48.39977484710037
 21
-15.33440372206088
 31
0.0
  0
LINE
  5
3EF
330
1F
100
AcDbEntity
  8
0
100
AcDbLine
 10
48.39977484710037
 20
-15.33440372206088
 30
0.0
 11
48.21995410097776
 21
-15.76852940614629
 31
0.0
  0
LINE
  5
3F0
330
1F
100
AcDbEntity
  8
0
100
AcDbLine
 10
48.21995410097776
 20
-15.76852940614629
 30
0.0
 11
47.93390060318576
 21
-16.1413215824587
 31
0.0
  0
LINE
  5
3F1
330
1F
100
AcDbEntity
  8
0
100
AcDbLine
 10
46.19523425495874
 20
-16.60719582637332
 30
0.0
 11
45.76110857087338
 21
-16.42737508025065
 31
0.0
  0
LINE
  5
3F2
330
1F
100
AcDbEntity
  8
0
100
AcDbLine
 10
45.38831639456097
 20
-16.1413215824587
 30
0.0
 11
45.10226289676897
 21
-15.76852940614629
 31
0.0
  0
LINE
  5
3F3
330
1F
100
AcDbEntity
  8
0
100
AcDbLine
 10
45.10226289676897
 20
-15.76852940614629
 30
0.0
 11
44.92244215064635
 21
-15.33440372206088
 31
0.0
  0
LINE
  5
3F4
330
1F
100
AcDbEntity
  8
0
100
AcDbLine
 10
44.92244215064635
 20
-14.40265523423164
 30
0.0
 11
45.10226289676897
 21
-13.96852955014623
 31
0.0
  0
LINE
  5
3F5
330
1F
100
AcDbEntity
  8
0
100
AcDbLine
 10
45.38831639456097
 20
-13.59573737383382
 30
0.0
 11
45.7611085708732
 21
-13.30968387604186
 31
0.0
  0
LINE
  5
3F6
330
1F
100
AcDbEntity
  8
0
100
AcDbLine
 10
47.93390060318576
 20
-13.59573737383382
 30
0.0
 11
48.21995410097776
 21
-13.96852955014623
 31
0.0
  0
LINE
  5
3F7
330
1F
100
AcDbEntity
  8
0
100
AcDbLine
 10
12.49791092751316
 20
-19.97854960431434
 30
0.0
 11
12.68888927237519
 21
-20.4078838355522
 31
0.0
  0
LINE
  5
3F8
330
1F
100
AcDbEntity
  8
0
100
AcDbLine
 10
12.26809705265685
 20
-22.15800765672164
 30
0.0
 11
11.9028208634467
 21
-22.4535984480444
 31
0.0
  0
LINE
  5
3F9
330
1F
100
AcDbEntity
  8
0
100
AcDbLine
 10
11.47348663220889
 20
-22.6445767929062
 30
0.0
 11
11.00935277729381
 21
-22.71792783271137
 31
0.0
  0
LINE
  5
3FA
330
1F
100
AcDbEntity
  8
0
100
AcDbLine
 10
11.00935277729381
 20
-22.71792783271137
 30
0.0
 11
10.54204925389661
 21
-22.6686528153155
 31
0.0
  0
LINE
  5
3FB
330
1F
100
AcDbEntity
  8
0
100
AcDbLine
 10
9.723362811039397
 20
-22.22378457318795
 30
0.0
 11
9.427772019716732
 21
-21.85850838397776
 31
0.0
  0
LINE
  5
3FC
330
1F
100
AcDbEntity
  8
0
100
AcDbLine
 10
9.236793674854711
 20
-21.4291741527399
 30
0.0
 11
9.163442635049622
 21
-20.96504029782492
 31
0.0
  0
LINE
  5
3FD
330
1F
100
AcDbEntity
  8
0
100
AcDbLine
 10
9.163442635049622
 20
-20.96504029782492
 30
0.0
 11
9.212717652445455
 21
-20.4977367744278
 31
0.0
  0
LINE
  5
3FE
330
1F
100
AcDbEntity
  8
0
100
AcDbLine
 10
9.212717652445455
 20
-20.4977367744278
 30
0.0
 11
9.381260716037684
 21
-20.05910954541243
 31
0.0
  0
LINE
  5
3FF
330
1F
100
AcDbEntity
  8
0
100
AcDbLine
 10
9.381260716037684
 20
-20.05910954541243
 30
0.0
 11
9.657585894573048
 21
-19.67905033157045
 31
0.0
  0
LINE
  5
400
330
1F
100
AcDbEntity
  8
0
100
AcDbLine
 10
10.0228620837832
 20
-19.3834595402477
 30
0.0
 11
10.45219631502101
 21
-19.1924811953859
 31
0.0
  0
LINE
  5
401
330
1F
100
AcDbEntity
  8
0
100
AcDbLine
 10
10.45219631502101
 20
-19.1924811953859
 30
0.0
 11
10.91633016993608
 21
-19.11913015558073
 31
0.0
  0
LINE
  5
402
330
1F
100
AcDbEntity
  8
0
100
AcDbLine
 10
10.91633016993608
 20
-19.11913015558073
 30
0.0
 11
11.38363369333329
 21
-19.16840517297661
 31
0.0
  0
LINE
  5
403
330
1F
100
AcDbEntity
  8
0
100
AcDbLine
 10
12.2023201361905
 20
-19.61327341510415
 30
0.0
 11
12.49791092751316
 21
-19.97854960431434
 31
0.0
  0
LINE
  5
404
330
1F
100
AcDbEntity
  8
0
100
AcDbLine
 10
47.93390060318576
 20
16.75867578554134
 30
0.0
 11
47.56110842687352
 21
16.47262228774933
 31
0.0
  0
LINE
  5
405
330
1F
100
AcDbEntity
  8
0
100
AcDbLine
 10
44.92244215064635
 20
18.49734213376835
 30
0.0
 11
45.10226289676897
 21
18.93146781785371
 31
0.0
  0
LINE
  5
406
330
1F
100
AcDbEntity
  8
0
100
AcDbLine
 10
11.38939175294977
 20
25.83019675621082
 30
0.0
 11
11.82746186523734
 21
25.66021091256768
 31
0.0
  0
LINE
  5
407
330
1F
100
AcDbEntity
  8
0
100
AcDbLine
 10
54.6611078588734
 20
33.13146668185369
 30
0.0
 11
54.65717399963437
 21
-29.96931491798789
 31
0.0
  0
LINE
  5
408
330
1F
100
AcDbEntity
  8
0
100
AcDbLine
 10
94.26283480961585
 20
1.609515886022077
 30
0.0
 11
94.26652722510904
 21
1.581469205853806
 31
0.0
  0
LINE
  5
409
330
1F
100
AcDbEntity
  8
0
100
AcDbLine
 10
-0.9439255687024009
 20
-57.840627501775
 30
0.0
 11
-0.7421970146039762
 21
-57.84078627355805
 31
0.0
  0
LINE
  5
40A
330
1F
100
AcDbEntity
  8
0
100
AcDbLine
 10
-0.7473888903568379
 20
-64.4407837034686
 30
0.0
 11
-0.9439255687025814
 21
-64.44062909825463
 31
0.0
  0
LINE
  5
40B
330
1F
100
AcDbEntity
  8
0
100
AcDbLine
 10
94.26652722510904
 20
1.581469205853806
 30
0.0
 11
94.26283480961585
 21
1.553422525685536
 31
0.0
  0
ENDSEC
  0
SECTION
  2
OBJECTS
  0
DICTIONARY
  5
C
330
0
100
AcDbDictionary
281
     1
  3
ACAD_GROUP
350
D
  3
ACAD_LAYOUT
350
1A
  3
ACAD_MATERIAL
350
3B
  3
ACAD_MLEADERSTYLE
350
40D
  3
ACAD_MLINESTYLE
350
17
  3
ACAD_PLOTSETTINGS
350
19
  3
ACAD_PLOTSTYLENAME
350
E
  3
ACAD_TABLESTYLE
350
40C
  3
ACAD_VISUALSTYLE
350
2A
  0
DICTIONARY
  5
D
102
{ACAD_REACTORS
330
C
102
}
330
C
100
AcDbDictionary
281
     1
  0
DICTIONARY
  5
1A
102
{ACAD_REACTORS
330
C
102
}
330
C
100
AcDbDictionary
281
     1
  3
Layout1
350
1E
  3
Layout2
350
26
  3
Model
350
22
  0
DICTIONARY
  5
3B
102
{ACAD_REACTORS
330
C
102
}
330
C
100
AcDbDictionary
281
     1
  3
ByBlock
350
3D
  3
ByLayer
350
3C
  3
Global
350
3E
  0
DICTIONARY
  5
40D
102
{ACAD_REACTORS
330
C
102
}
330
C
100
AcDbDictionary
281
     1
  0
DICTIONARY
  5
17
102
{ACAD_REACTORS
330
C
102
}
330
C
100
AcDbDictionary
281
     1
  3
Standard
350
18
  0
DICTIONARY
  5
19
102
{ACAD_REACTORS
330
C
102
}
330
C
100
AcDbDictionary
281
     1
  0
ACDBDICTIONARYWDFLT
  5
E
102
{ACAD_REACTORS
330
C
102
}
330
C
100
AcDbDictionary
281
     1
  3
Normal
350
F
100
AcDbDictionaryWithDefault
340
F
  0
DICTIONARY
  5
40C
102
{ACAD_REACTORS
330
C
102
}
330
C
100
AcDbDictionary
281
     1
  0
DICTIONARY
  5
2A
102
{ACAD_REACTORS
330
C
102
}
330
C
100
AcDbDictionary
281
     1
  3
2dWireframe
350
2F
  3
3D Hidden
350
31
  3
3dWireframe
350
30
  3
Basic
350
32
  3
Brighten
350
36
  3
ColorChange
350
3A
  3
Conceptual
350
34
  3
Dim
350
35
  3
Facepattern
350
39
  3
Flat
350
2B
  3
FlatWithEdges
350
2C
  3
Gouraud
350
2D
  3
GouraudWithEdges
350
2E
  3
Linepattern
350
38
  3
Realistic
350
33
  3
Thicken
350
37
  0
LAYOUT
  5
1E
102
{ACAD_REACTORS
330
1A
102
}
330
1A
100
AcDbPlotSettings
  1

  2
none_device
  4

  6

 40
0.0
 41
0.0
 42
0.0
 43
0.0
 44
0.0
 45
0.0
 46
0.0
 47
0.0
 48
0.0
 49
0.0
140
0.0
141
0.0
142
1.0
143
1.0
 70
   688
 72
     0
 73
     0
 74
     5
  7

 75
    16
 76
     0
 77
     2
 78
   300
147
1.0
148
0.0
149
0.0
100
AcDbLayout
  1
Layout1
 70
     1
 71
     1
 10
0.0
 20
0.0
 11
12.0
 21
9.0
 12
0.0
 22
0.0
 32
0.0
 14
1.000000000000000E+20
 24
1.000000000000000E+20
 34
1.000000000000000E+20
 15
-1.000000000000000E+20
 25
-1.000000000000000E+20
 35
-1.000000000000000E+20
146
0.0
 13
0.0
 23
0.0
 33
0.0
 16
1.0
 26
0.0
 36
0.0
 17
0.0
 27
1.0
 37
0.0
 76
     0
330
1B
  0
LAYOUT
  5
26
102
{ACAD_REACTORS
330
1A
102
}
330
1A
100
AcDbPlotSettings
  1

  2
none_device
  4

  6

 40
0.0
 41
0.0
 42
0.0
 43
0.0
 44
0.0
 45
0.0
 46
0.0
 47
0.0
 48
0.0
 49
0.0
140
0.0
141
0.0
142
1.0
143
1.0
 70
   688
 72
     0
 73
     0
 74
     5
  7

 75
    16
 76
     0
 77
     2
 78
   300
147
1.0
148
0.0
149
0.0
100
AcDbLayout
  1
Layout2
 70
     1
 71
     2
 10
0.0
 20
0.0
 11
0.0
 21
0.0
 12
0.0
 22
0.0
 32
0.0
 14
0.0
 24
0.0
 34
0.0
 15
0.0
 25
0.0
 35
0.0
146
0.0
 13
0.0
 23
0.0
 33
0.0
 16
1.0
 26
0.0
 36
0.0
 17
0.0
 27
1.0
 37
0.0
 76
     0
330
23
  0
LAYOUT
  5
22
102
{ACAD_REACTORS
330
1A
102
}
330
1A
100
AcDbPlotSettings
  1

  2
none_device
  4

  6

 40
0.0
 41
0.0
 42
0.0
 43
0.0
 44
0.0
 45
0.0
 46
0.0
 47
0.0
 48
0.0
 49
0.0
140
0.0
141
0.0
142
1.0
143
1.0
 70
  1712
 72
     0
 73
     0
 74
     0
  7

 75
     0
 76
     0
 77
     2
 78
   300
147
1.0
148
0.0
149
0.0
100
AcDbLayout
  1
Model
 70
     1
 71
     0
 10
0.0
 20
0.0
 11
12.0
 21
9.0
 12
0.0
 22
0.0
 32
0.0
 14
1.000000000000000E+20
 24
1.000000000000000E+20
 34
1.000000000000000E+20
 15
-1.000000000000000E+20
 25
-1.000000000000000E+20
 35
-1.000000000000000E+20
146
0.0
 13
0.0
 23
0.0
 33
0.0
 16
1.0
 26
0.0
 36
0.0
 17
0.0
 27
1.0
 37
0.0
 76
     0
330
1F
331
29
  0
MATERIAL
  5
3D
102
{ACAD_REACTORS
330
3B
102
}
330
3B
100
AcDbMaterial
  1
ByBlock
 72
     1
 94
      127
  0
MATERIAL
  5
3C
102
{ACAD_REACTORS
330
3B
102
}
330
3B
100
AcDbMaterial
  1
ByLayer
 72
     1
 94
      127
  0
MATERIAL
  5
3E
102
{ACAD_REACTORS
330
3B
102
}
330
3B
100
AcDbMaterial
  1
Global
 72
     1
 94
      127
  0
MLINESTYLE
  5
18
102
{ACAD_REACTORS
330
17
102
}
330
17
100
AcDbMlineStyle
  2
Standard
 70
     0
  3

 62
   256
 51
90.0
 52
90.0
 71
     2
 49
0.5
 62
   256
  6
BYLAYER
 49
-0.5
 62
   256
  6
BYLAYER
  0
ACDBPLACEHOLDER
  5
F
102
{ACAD_REACTORS
330
E
102
}
330
E
  0
VISUALSTYLE
  5
2F
102
{ACAD_REACTORS
330
2A
102
}
330
2A
100
AcDbVisualStyle
  2
2dWireframe
 70
     4
177
     2
291
     0
 71
     0
176
     1
 72
     2
176
     1
 73
     0
176
     1
 90
        0
176
     1
 40
-0.6
176
     1
 41
-30.0
176
     1
 62
     5
 63
     7
421
 16777215
176
     1
 74
     1
176
     1
 91
        4
176
     1
 64
     7
176
     1
 65
   257
176
     1
 75
     1
176
     1
175
     1
176
     1
 42
1.0
176
     1
 92
        0
176
     1
 66
   257
176
     1
 43
1.0
176
     1
 76
     1
176
     1
 77
     6
176
     1
 78
     2
176
     1
 67
     7
176
     1
 79
     5
176
     1
170
     0
176
     1
171
     0
176
     1
290
     0
176
     1
 93
        1
176
     1
 44
0.0
176
     1
173
     0
176
     1
  0
VISUALSTYLE
  5
31
102
{ACAD_REACTORS
330
2A
102
}
330
2A
100
AcDbVisualStyle
  2
3D Hidden
 70
     6
177
     2
291
     0
 71
     1
176
     1
 72
     2
176
     1
 73
     2
176
     1
 90
        0
176
     1
 40
-0.6
176
     1
 41
-30.0
176
     1
 62
     5
 63
     7
421
 16777215
176
     1
 74
     2
176
     1
 91
        2
176
     1
 64
     7
176
     1
 65
   257
176
     1
 75
     2
176
     1
175
     1
176
     1
 42
40.0
176
     1
 92
        0
176
     1
 66
   257
176
     1
 43
1.0
176
     1
 76
     1
176
     1
 77
     6
176
     1
 78
     2
176
     1
 67
     7
176
     1
 79
     3
176
     1
170
     0
176
     1
171
     0
176
     1
290
     0
176
     1
 93
        1
176
     1
 44
0.0
176
     1
173
     0
176
     1
  0
VISUALSTYLE
  5
30
102
{ACAD_REACTORS
330
2A
102
}
330
2A
100
AcDbVisualStyle
  2
3dWireframe
 70
     5
177
     2
291
     0
 71
     0
176
     1
 72
     2
176
     1
 73
     0
176
     1
 90
        0
176
     1
 40
-0.6
176
     1
 41
-30.0
176
     1
 62
     5
 63
     7
421
 16777215
176
     1
 74
     1
176
     1
 91
        4
176
     1
 64
     7
176
     1
 65
   257
176
     1
 75
     1
176
     1
175
     1
176
     1
 42
1.0
176
     1
 92
        0
176
     1
 66
   257
176
     1
 43
1.0
176
     1
 76
     1
176
     1
 77
     6
176
     1
 78
     2
176
     1
 67
     7
176
     1
 79
     5
176
     1
170
     0
176
     1
171
     0
176
     1
290
     0
176
     1
 93
        1
176
     1
 44
0.0
176
     1
173
     0
176
     1
  0
VISUALSTYLE
  5
32
102
{ACAD_REACTORS
330
2A
102
}
330
2A
100
AcDbVisualStyle
  2
Basic
 70
     7
177
     2
291
     1
 71
     1
176
     1
 72
     0
176
     1
 73
     1
176
     1
 90
        0
176
     1
 40
-0.6
176
     1
 41
-30.0
176
     1
 62
     5
 63
     7
421
 16777215
176
     1
 74
     0
176
     1
 91
        4
176
     1
 64
     7
176
     1
 65
   257
176
     1
 75
     1
176
     1
175
     1
176
     1
 42
1.0
176
     1
 92
        8
176
     1
 66
     7
176
     1
 43
1.0
176
     1
 76
     1
176
     1
 77
     6
176
     1
 78
     2
176
     1
 67
     7
176
     1
 79
     5
176
     1
170
     0
176
     1
171
     0
176
     1
290
     0
176
     1
 93
        1
176
     1
 44
0.0
176
     1
173
     0
176
     1
  0
VISUALSTYLE
  5
36
102
{ACAD_REACTORS
330
2A
102
}
330
2A
100
AcDbVisualStyle
  2
Brighten
 70
    12
177
     2
291
     1
 71
     2
176
     1
 72
     2
176
     1
 73
     0
176
     1
 90
        0
176
     1
 40
-0.6
176
     1
 41
-30.0
176
     1
 62
     5
 63
     7
421
 16777215
176
     1
 74
     1
176
     1
 91
        4
176
     1
 64
     7
176
     1
 65
   257
176
     1
 75
     1
176
     1
175
     1
176
     1
 42
1.0
176
     1
 92
        8
176
     1
 66
     7
176
     1
 43
1.0
176
     1
 76
     1
176
     1
 77
     6
176
     1
 78
     2
176
     1
 67
     7
176
     1
 79
     5
176
     1
170
     0
176
     1
171
     0
176
     1
290
     0
176
     1
 93
        1
176
     1
 44
50.0
176
     1
173
     0
176
     1
  0
VISUALSTYLE
  5
3A
102
{ACAD_REACTORS
330
2A
102
}
330
2A
100
AcDbVisualStyle
  2
ColorChange
 70
    16
177
     2
291
     1
 71
     2
176
     1
 72
     2
176
     1
 73
     3
176
     1
 90
        0
176
     1
 40
-0.6
176
     1
 41
-30.0
176
     1
 62
     5
 63
     8
421
  8421504
176
     1
 74
     1
176
     1
 91
        4
176
     1
 64
     7
176
     1
 65
   257
176
     1
 75
     1
176
     1
175
     1
176
     1
 42
1.0
176
     1
 92
        8
176
     1
 66
     8
424
  8421504
176
     1
 43
1.0
176
     1
 76
     1
176
     1
 77
     6
176
     1
 78
     2
176
     1
 67
     7
176
     1
 79
     5
176
     1
170
     0
176
     1
171
     0
176
     1
290
     0
176
     1
 93
        1
176
     1
 44
0.0
176
     1
173
     0
176
     1
  0
VISUALSTYLE
  5
34
102
{ACAD_REACTORS
330
2A
102
}
330
2A
100
AcDbVisualStyle
  2
Conceptual
 70
     9
177
     2
291
     0
 71
     3
176
     1
 72
     2
176
     1
 73
     0
176
     1
 90
        0
176
     1
 40
-0.6
176
     1
 41
-30.0
176
     1
 62
     5
 63
     7
421
 16777215
176
     1
 74
     2
176
     1
 91
        2
176
     1
 64
     7
176
     1
 65
   257
176
     1
 75
     1
176
     1
175
     1
176
     1
 42
40.0
176
     1
 92
        8
176
     1
 66
     7
176
     1
 43
1.0
176
     1
 76
     1
176
     1
 77
     6
176
     1
 78
     2
176
     1
 67
     7
176
     1
 79
     3
176
     1
170
     0
176
     1
171
     0
176
     1
290
     0
176
     1
 93
        1
176
     1
 44
0.0
176
     1
173
     0
176
     1
  0
VISUALSTYLE
  5
35
102
{ACAD_REACTORS
330
2A
102
}
330
2A
100
AcDbVisualStyle
  2
Dim
 70
    11
177
     2
291
     1
 71
     2
176
     1
 72
     2
176
     1
 73
     0
176
     1
 90
        0
176
     1
 40
-0.6
176
     1
 41
-30.0
176
     1
 62
     5
 63
     7
421
 16777215
176
     1
 74
     1
176
     1
 91
        4
176
     1
 64
     7
176
     1
 65
   257
176
     1
 75
     1
176
     1
175
     1
176
     1
 42
1.0
176
     1
 92
        8
176
     1
 66
     7
176
     1
 43
1.0
176
     1
 76
     1
176
     1
 77
     6
176
     1
 78
     2
176
     1
 67
     7
176
     1
 79
     5
176
     1
170
     0
176
     1
171
     0
176
     1
290
     0
176
     1
 93
        1
176
     1
 44
-50.0
176
     1
173
     0
176
     1
  0
VISUALSTYLE
  5
39
102
{ACAD_REACTORS
330
2A
102
}
330
2A
100
AcDbVisualStyle
  2
Facepattern
 70
    15
177
     2
291
     1
 71
     2
176
     1
 72
     2
176
     1
 73
     0
176
     1
 90
        0
176
     1
 40
-0.6
176
     1
 41
-30.0
176
     1
 62
     5
 63
     7
421
 16777215
176
     1
 74
     1
176
     1
 91
        4
176
     1
 64
     7
176
     1
 65
   257
176
     1
 75
     1
176
     1
175
     1
176
     1
 42
1.0
176
     1
 92
        8
176
     1
 66
     7
176
     1
 43
1.0
176
     1
 76
     1
176
     1
 77
     6
176
     1
 78
     2
176
     1
 67
     7
176
     1
 79
     5
176
     1
170
     0
176
     1
171
     0
176
     1
290
     0
176
     1
 93
        1
176
     1
 44
0.0
176
     1
173
     0
176
     1
  0
VISUALSTYLE
  5
2B
102
{ACAD_REACTORS
330
2A
102
}
330
2A
100
AcDbVisualStyle
  2
Flat
 70
     0
177
     2
291
     1
 71
     2
176
     1
 72
     1
176
     1
 73
     1
176
     1
 90
        2
176
     1
 40
-0.6
176
     1
 41
30.0
176
     1
 62
     5
 63
     7
421
 16777215
176
     1
 74
     0
176
     1
 91
        4
176
     1
 64
     7
176
     1
 65
   257
176
     1
 75
     1
176
     1
175
     1
176
     1
 42
1.0
176
     1
 92
        8
176
     1
 66
     7
176
     1
 43
1.0
176
     1
 76
     1
176
     1
 77
     6
176
     1
 78
     2
176
     1
 67
     7
176
     1
 79
     5
176
     1
170
     0
176
     1
171
     0
176
     1
290
     0
176
     1
 93
       13
176
     1
 44
0.0
176
     1
173
     0
176
     1
  0
VISUALSTYLE
  5
2C
102
{ACAD_REACTORS
330
2A
102
}
330
2A
100
AcDbVisualStyle
  2
FlatWithEdges
 70
     1
177
     2
291
     1
 71
     2
176
     1
 72
     1
176
     1
 73
     1
176
     1
 90
        2
176
     1
 40
-0.6
176
     1
 41
30.0
176
     1
 62
     5
 63
     7
421
 16777215
176
     1
 74
     1
176
     1
 91
        4
176
     1
 64
     7
176
     1
 65
   257
176
     1
 75
     1
176
     1
175
     1
176
     1
 42
1.0
176
     1
 92
        0
176
     1
 66
   257
176
     1
 43
1.0
176
     1
 76
     1
176
     1
 77
     6
176
     1
 78
     2
176
     1
 67
     7
176
     1
 79
     5
176
     1
170
     0
176
     1
171
     0
176
     1
290
     0
176
     1
 93
       13
176
     1
 44
0.0
176
     1
173
     0
176
     1
  0
VISUALSTYLE
  5
2D
102
{ACAD_REACTORS
330
2A
102
}
330
2A
100
AcDbVisualStyle
  2
Gouraud
 70
     2
177
     2
291
     1
 71
     2
176
     1
 72
     2
176
     1
 73
     1
176
     1
 90
        2
176
     1
 40
-0.6
176
     1
 41
30.0
176
     1
 62
     5
 63
     7
421
 16777215
176
     1
 74
     0
176
     1
 91
        4
176
     1
 64
     7
176
     1
 65
   257
176
     1
 75
     1
176
     1
175
     1
176
     1
 42
1.0
176
     1
 92
        0
176
     1
 66
     7
176
     1
 43
1.0
176
     1
 76
     1
176
     1
 77
     6
176
     1
 78
     2
176
     1
 67
     7
176
     1
 79
     5
176
     1
170
     0
176
     1
171
     0
176
     1
290
     0
176
     1
 93
       13
176
     1
 44
0.0
176
     1
173
     0
176
     1
  0
VISUALSTYLE
  5
2E
102
{ACAD_REACTORS
330
2A
102
}
330
2A
100
AcDbVisualStyle
  2
GouraudWithEdges
 70
     3
177
     2
291
     1
 71
     2
176
     1
 72
     2
176
     1
 73
     1
176
     1
 90
        2
176
     1
 40
-0.6
176
     1
 41
30.0
176
     1
 62
     5
 63
     7
421
 16777215
176
     1
 74
     1
176
     1
 91
        4
176
     1
 64
     7
176
     1
 65
   257
176
     1
 75
     1
176
     1
175
     1
176
     1
 42
1.0
176
     1
 92
        0
176
     1
 66
   257
176
     1
 43
1.0
176
     1
 76
     1
176
     1
 77
     6
176
     1
 78
     2
176
     1
 67
     7
176
     1
 79
     5
176
     1
170
     0
176
     1
171
     0
176
     1
290
     0
176
     1
 93
       13
176
     1
 44
0.0
176
     1
173
     0
176
     1
  0
VISUALSTYLE
  5
38
102
{ACAD_REACTORS
330
2A
102
}
330
2A
100
AcDbVisualStyle
  2
Linepattern
 70
    14
177
     2
291
     1
 71
     2
176
     1
 72
     2
176
     1
 73
     0
176
     1
 90
        0
176
     1
 40
-0.6
176
     1
 41
-30.0
176
     1
 62
     5
 63
     7
421
 16777215
176
     1
 74
     1
176
     1
 91
        4
176
     1
 64
     7
176
     1
 65
   257
176
     1
 75
     7
176
     1
175
     7
176
     1
 42
1.0
176
     1
 92
        8
176
     1
 66
     7
176
     1
 43
1.0
176
     1
 76
     1
176
     1
 77
     6
176
     1
 78
     2
176
     1
 67
     7
176
     1
 79
     5
176
     1
170
     0
176
     1
171
     0
176
     1
290
     0
176
     1
 93
        1
176
     1
 44
0.0
176
     1
173
     0
176
     1
  0
VISUALSTYLE
  5
33
102
{ACAD_REACTORS
330
2A
102
}
330
2A
100
AcDbVisualStyle
  2
Realistic
 70
     8
177
     2
291
     0
 71
     2
176
     1
 72
     2
176
     1
 73
     0
176
     1
 90
        0
176
     1
 40
-0.6
176
     1
 41
-30.0
176
     1
 62
     5
 63
     7
421
 16777215
176
     1
 74
     1
176
     1
 91
        0
176
     1
 64
     7
176
     1
 65
   257
176
     1
 75
     1
176
     1
175
     1
176
     1
 42
1.0
176
     1
 92
        8
176
     1
 66
     8
424
  7895160
176
     1
 43
1.0
176
     1
 76
     1
176
     1
 77
     6
176
     1
 78
     2
176
     1
 67
     7
176
     1
 79
     5
176
     1
170
     0
176
     1
171
     0
176
     1
290
     0
176
     1
 93
       13
176
     1
 44
0.0
176
     1
173
     0
176
     1
  0
VISUALSTYLE
  5
37
102
{ACAD_REACTORS
330
2A
102
}
330
2A
100
AcDbVisualStyle
  2
Thicken
 70
    13
177
     2
291
     1
 71
     2
176
     1
 72
     2
176
     1
 73
     0
176
     1
 90
        0
176
     1
 40
-0.6
176
     1
 41
-30.0
176
     1
 62
     5
 63
     7
421
 16777215
176
     1
 74
     1
176
     1
 91
        4
176
     1
 64
     7
176
     1
 65
   257
176
     1
 75
     1
176
     1
175
     1
176
     1
 42
1.0
176
     1
 92
       12
176
     1
 66
     7
176
     1
 43
1.0
176
     1
 76
     1
176
     1
 77
     6
176
     1
 78
     2
176
     1
 67
     7
176
     1
 79
     5
176
     1
170
     0
176
     1
171
     0
176
     1
290
     0
176
     1
 93
        1
176
     1
 44
0.0
176
     1
173
     0
176
     1
  0
ENDSEC
  0
EOF
