  0
SECTION
  2
HEADER
  9
$ACADVER
  1
AC1024
  9
$ACADMAINTVER
 70
     6
  9
$DWGCODEPAGE
  3
ANSI_1252
  9
$INSBASE
 10
0.0
 20
0.0
 30
0.0
  9
$EXTMIN
 10
1.000000000000000E+20
 20
1.000000000000000E+20
 30
1.000000000000000E+20
  9
$EXTMAX
 10
-1.000000000000000E+20
 20
-1.000000000000000E+20
 30
-1.000000000000000E+20
  9
$LIMMIN
 10
0.0
 20
0.0
  9
$LIMMAX
 10
12.0
 20
9.0
  9
$ORTHOMODE
 70
     0
  9
$REGENMODE
 70
     1
  9
$FILLMODE
 70
     1
  9
$QTEXTMODE
 70
     0
  9
$MIRRTEXT
 70
     1
  9
$LTSCALE
 40
1.0
  9
$ATTMODE
 70
     1
  9
$TEXTSIZE
 40
0.2
  9
$TRACEWID
 40
0.05
  9
$TEXTSTYLE
  7
Standard
  9
$CLAYER
  8
0
  9
$CELTYPE
  6
ByLayer
  9
$CECOLOR
 62
   256
  9
$CELTSCALE
 40
1.0
  9
$DISPSILH
 70
     0
  9
$DIMSCALE
 40
1.0
  9
$DIMASZ
 40
0.18
  9
$DIMEXO
 40
0.0625
  9
$DIMDLI
 40
0.38
  9
$DIMRND
 40
0.0
  9
$DIMDLE
 40
0.0
  9
$DIMEXE
 40
0.18
  9
$DIMTP
 40
0.0
  9
$DIMTM
 40
0.0
  9
$DIMTXT
 40
0.18
  9
$DIMCEN
 40
0.09
  9
$DIMTSZ
 40
0.0
  9
$DIMTOL
 70
     0
  9
$DIMLIM
 70
     0
  9
$DIMTIH
 70
     1
  9
$DIMTOH
 70
     1
  9
$DIMSE1
 70
     0
  9
$DIMSE2
 70
     0
  9
$DIMTAD
 70
     0
  9
$DIMZIN
 70
     0
  9
$DIMBLK
  1

  9
$DIMASO
 70
     1
  9
$DIMSHO
 70
     1
  9
$DIMPOST
  1

  9
$DIMAPOST
  1

  9
$DIMALT
 70
     0
  9
$DIMALTD
 70
     2
  9
$DIMALTF
 40
25.4
  9
$DIMLFAC
 40
1.0
  9
$DIMTOFL
 70
     0
  9
$DIMTVP
 40
0.0
  9
$DIMTIX
 70
     0
  9
$DIMSOXD
 70
     0
  9
$DIMSAH
 70
     0
  9
$DIMBLK1
  1

  9
$DIMBLK2
  1

  9
$DIMSTYLE
  2
Standard
  9
$DIMCLRD
 70
     0
  9
$DIMCLRE
 70
     0
  9
$DIMCLRT
 70
     0
  9
$DIMTFAC
 40
1.0
  9
$DIMGAP
 40
0.09
  9
$DIMJUST
 70
     0
  9
$DIMSD1
 70
     0
  9
$DIMSD2
 70
     0
  9
$DIMTOLJ
 70
     1
  9
$DIMTZIN
 70
     0
  9
$DIMALTZ
 70
     0
  9
$DIMALTTZ
 70
     0
  9
$DIMUPT
 70
     0
  9
$DIMDEC
 70
     4
  9
$DIMTDEC
 70
     4
  9
$DIMALTU
 70
     2
  9
$DIMALTTD
 70
     2
  9
$DIMTXSTY
  7
Standard
  9
$DIMAUNIT
 70
     0
  9
$DIMADEC
 70
     0
  9
$DIMALTRND
 40
0.0
  9
$DIMAZIN
 70
     0
  9
$DIMDSEP
 70
    46
  9
$DIMATFIT
 70
     3
  9
$DIMFRAC
 70
     0
  9
$DIMLDRBLK
  1

  9
$DIMLUNIT
 70
     2
  9
$DIMLWD
 70
    -2
  9
$DIMLWE
 70
    -2
  9
$DIMTMOVE
 70
     0
  9
$DIMFXL
 40
1.0
  9
$DIMFXLON
 70
     0
  9
$DIMJOGANG
 40
0.7853981633974483
  9
$DIMTFILL
 70
     0
  9
$DIMTFILLCLR
 70
     0
  9
$DIMARCSYM
 70
     0
  9
$DIMLTYPE
  6

  9
$DIMLTEX1
  6

  9
$DIMLTEX2
  6

  9
$DIMTXTDIRECTION
 70
     0
  9
$LUNITS
 70
     2
  9
$LUPREC
 70
     4
  9
$SKETCHINC
 40
0.1
  9
$FILLETRAD
 40
0.5
  9
$AUNITS
 70
     0
  9
$AUPREC
 70
     0
  9
$MENU
  1
.
  9
$ELEVATION
 40
0.0
  9
$PELEVATION
 40
0.0
  9
$THICKNESS
 40
0.0
  9
$LIMCHECK
 70
     0
  9
$CHAMFERA
 40
0.5
  9
$CHAMFERB
 40
0.5
  9
$CHAMFERC
 40
1.0
  9
$CHAMFERD
 40
0.0
  9
$SKPOLY
 70
     0
  9
$TDCREATE
 40
2456396.374630579
  9
$TDUCREATE
 40
2456396.541297245
  9
$TDUPDATE
 40
2456396.37463059
  9
$TDUUPDATE
 40
2456396.541297257
  9
$TDINDWG
 40
0.0000000116
  9
$TDUSRTIMER
 40
0.0000000116
  9
$USRTIMER
 70
     1
  9
$ANGBASE
 50
0.0
  9
$ANGDIR
 70
     0
  9
$PDMODE
 70
     0
  9
$PDSIZE
 40
0.0
  9
$PLINEWID
 40
0.0
  9
$SPLFRAME
 70
     0
  9
$SPLINETYPE
 70
     6
  9
$SPLINESEGS
 70
     8
  9
$HANDSEED
  5
40E
  9
$SURFTAB1
 70
     6
  9
$SURFTAB2
 70
     6
  9
$SURFTYPE
 70
     6
  9
$SURFU
 70
     6
  9
$SURFV
 70
     6
  9
$UCSBASE
  2

  9
$UCSNAME
  2

  9
$UCSORG
 10
0.0
 20
0.0
 30
0.0
  9
$UCSXDIR
 10
1.0
 20
0.0
 30
0.0
  9
$UCSYDIR
 10
0.0
 20
1.0
 30
0.0
  9
$UCSORTHOREF
  2

  9
$UCSORTHOVIEW
 70
     0
  9
$UCSORGTOP
 10
0.0
 20
0.0
 30
0.0
  9
$UCSORGBOTTOM
 10
0.0
 20
0.0
 30
0.0
  9
$UCSORGLEFT
 10
0.0
 20
0.0
 30
0.0
  9
$UCSORGRIGHT
 10
0.0
 20
0.0
 30
0.0
  9
$UCSORGFRONT
 10
0.0
 20
0.0
 30
0.0
  9
$UCSORGBACK
 10
0.0
 20
0.0
 30
0.0
  9
$PUCSBASE
  2

  9
$PUCSNAME
  2

  9
$PUCSORG
 10
0.0
 20
0.0
 30
0.0
  9
$PUCSXDIR
 10
1.0
 20
0.0
 30
0.0
  9
$PUCSYDIR
 10
0.0
 20
1.0
 30
0.0
  9
$PUCSORTHOREF
  2

  9
$PUCSORTHOVIEW
 70
     0
  9
$PUCSORGTOP
 10
0.0
 20
0.0
 30
0.0
  9
$PUCSORGBOTTOM
 10
0.0
 20
0.0
 30
0.0
  9
$PUCSORGLEFT
 10
0.0
 20
0.0
 30
0.0
  9
$PUCSORGRIGHT
 10
0.0
 20
0.0
 30
0.0
  9
$PUCSORGFRONT
 10
0.0
 20
0.0
 30
0.0
  9
$PUCSORGBACK
 10
0.0
 20
0.0
 30
0.0
  9
$USERI1
 70
     0
  9
$USERI2
 70
     0
  9
$USERI3
 70
     0
  9
$USERI4
 70
     0
  9
$USERI5
 70
     0
  9
$USERR1
 40
0.0
  9
$USERR2
 40
0.0
  9
$USERR3
 40
0.0
  9
$USERR4
 40
0.0
  9
$USERR5
 40
0.0
  9
$WORLDVIEW
 70
     1
  9
$SHADEDGE
 70
     3
  9
$SHADEDIF
 70
    70
  9
$TILEMODE
 70
     1
  9
$MAXACTVP
 70
    64
  9
$PINSBASE
 10
0.0
 20
0.0
 30
0.0
  9
$PLIMCHECK
 70
     0
  9
$PEXTMIN
 10
1.000000000000000E+20
 20
1.000000000000000E+20
 30
1.000000000000000E+20
  9
$PEXTMAX
 10
-1.000000000000000E+20
 20
-1.000000000000000E+20
 30
-1.000000000000000E+20
  9
$PLIMMIN
 10
0.0
 20
0.0
  9
$PLIMMAX
 10
12.0
 20
9.0
  9
$UNITMODE
 70
     0
  9
$VISRETAIN
 70
     1
  9
$PLINEGEN
 70
     0
  9
$PSLTSCALE
 70
     1
  9
$TREEDEPTH
 70
  3020
  9
$CMLSTYLE
  2
Standard
  9
$CMLJUST
 70
     0
  9
$CMLSCALE
 40
1.0
  9
$PROXYGRAPHICS
 70
     1
  9
$MEASUREMENT
 70
     0
  9
$CELWEIGHT
370
    -1
  9
$ENDCAPS
280
     0
  9
$JOINSTYLE
280
     0
  9
$LWDISPLAY
290
     0
  9
$INSUNITS
 70
     1
  9
$HYPERLINKBASE
  1

  9
$STYLESHEET
  1

  9
$XEDIT
290
     1
  9
$CEPSNTYPE
380
     0
  9
$PSTYLEMODE
290
     1
  9
$FINGERPRINTGUID
  2
{19747712-B277-4177-9E85-AFDDC0DD6296}
  9
$VERSIONGUID
  2
{FAEB1C32-E019-11D5-929B-00C0DF256EC4}
  9
$EXTNAMES
290
     1
  9
$PSVPSCALE
 40
0.0
  9
$OLESTARTUP
290
     0
  9
$SORTENTS
280
   127
  9
$INDEXCTL
280
     0
  9
$HIDETEXT
280
     1
  9
$XCLIPFRAME
280
     2
  9
$HALOGAP
280
     0
  9
$OBSCOLOR
 70
   257
  9
$OBSLTYPE
280
     0
  9
$INTERSECTIONDISPLAY
280
     0
  9
$INTERSECTIONCOLOR
 70
   257
  9
$DIMASSOC
280
     2
  9
$PROJECTNAME
  1

  9
$CAMERADISPLAY
290
     0
  9
$LENSLENGTH
 40
50.0
  9
$CAMERAHEIGHT
 40
0.0
  9
$STEPSPERSEC
 40
2.0
  9
$STEPSIZE
 40
6.0
  9
$3DDWFPREC
 40
2.0
  9
$PSOLWIDTH
 40
0.25
  9
$PSOLHEIGHT
 40
4.0
  9
$LOFTANG1
 40
1.570796326794897
  9
$LOFTANG2
 40
1.570796326794897
  9
$LOFTMAG1
 40
0.0
  9
$LOFTMAG2
 40
0.0
  9
$LOFTPARAM
 70
     7
  9
$LOFTNORMALS
280
     1
  9
$LATITUDE
 40
37.795
  9
$LONGITUDE
 40
-122.394
  9
$NORTHDIRECTION
 40
0.0
  9
$TIMEZONE
 70
 -8000
  9
$LIGHTGLYPHDISPLAY
280
     1
  9
$TILEMODELIGHTSYNCH
280
     1
  9
$SOLIDHIST
280
     1
  9
$SHOWHIST
280
     1
  9
$DWFFRAME
280
     2
  9
$DGNFRAME
280
     2
  9
$REALWORLDSCALE
290
     1
  9
$INTERFERECOLOR
 62
   256
  9
$CSHADOW
280
     0
  9
$SHADOWPLANELOCATION
 40
0.0
  0
ENDSEC
  0
SECTION
  2
CLASSES
  0
CLASS
  1
ACDBDICTIONARYWDFLT
  2
AcDbDictionaryWithDefault
  3
ObjectDBX Classes
 90
        0
 91
        4
280
     0
281
     0
  0
CLASS
  1
VISUALSTYLE
  2
AcDbVisualStyle
  3
ObjectDBX Classes
 90
     4095
 91
        4
280
     0
281
     0
  0
CLASS
  1
MATERIAL
  2
AcDbMaterial
  3
ObjectDBX Classes
 90
     1153
 91
        4
280
     0
281
     0
  0
ENDSEC
  0
SECTION
  2
TABLES
  0
TABLE
  2
VPORT
  5
8
330
0
100
AcDbSymbolTable
 70
     1
  0
VPORT
  5
29
330
8
100
AcDbSymbolTableRecord
100
AcDbViewportTableRecord
  2
*Active
 70
     0
 10
0.0
 20
0.0
 11
1.0
 21
1.0
 12
0.0
 22
0.0
 13
0.0
 23
0.0
 14
0.5
 24
0.5
 15
0.5
 25
0.5
 16
0.0
 26
0.0
 36
1.0
 17
0.0
 27
0.0
 37
-1000.0
 40
258.183384568587
 41
1.822857142857143
 42
50.0
 43
3985.455138884457
 44
4899.051834179137
 50
0.0
 51
0.0
 71
     0
 72
   100
 73
     1
 74
     3
 75
     0
 76
     0
 77
     0
 78
     0
281
     0
 65
     1
110
0.0
120
0.0
130
0.0
111
1.0
121
0.0
131
0.0
112
0.0
122
1.0
132
0.0
 79
     0
146
0.0
 60
     3
 61
     5
292
     1
282
     1
141
0.0
142
0.0
 63
   250
  0
ENDTAB
  0
TABLE
  2
LTYPE
  5
5
330
0
100
AcDbSymbolTable
 70
     1
  0
LTYPE
  5
14
330
5
100
AcDbSymbolTableRecord
100
AcDbLinetypeTableRecord
  2
ByBlock
 70
     0
  3

 72
    65
 73
     0
 40
0.0
  0
LTYPE
  5
15
330
5
100
AcDbSymbolTableRecord
100
AcDbLinetypeTableRecord
  2
ByLayer
 70
     0
  3

 72
    65
 73
     0
 40
0.0
  0
LTYPE
  5
16
330
5
100
AcDbSymbolTableRecord
100
AcDbLinetypeTableRecord
  2
Continuous
 70
     0
  3
Solid line
 72
    65
 73
     0
 40
0.0
  0
ENDTAB
  0
TABLE
  2
LAYER
  5
2
330
0
100
AcDbSymbolTable
 70
     3
  0
LAYER
  5
10
330
2
100
AcDbSymbolTableRecord
100
AcDbLayerTableRecord
  2
0
 70
     0
 62
     7
  6
Continuous
370
    -3
390
F
347
3E
  0
LAYER
  5
3F
330
2
100
AcDbSymbolTableRecord
100
AcDbLayerTableRecord
  2
ProfileEdges
 70
     0
 62
     7
  6
Continuous
370
    -3
390
F
347
3E
  0
LAYER
  5
40
330
2
100
AcDbSymbolTableRecord
100
AcDbLayerTableRecord
  2
SectionCutEdges
 70
     0
 62
     7
  6
Continuous
370
    -3
390
F
347
3E
  0
ENDTAB
  0
TABLE
  2
STYLE
  5
3
330
0
100
AcDbSymbolTable
 70
     1
  0
STYLE
  5
11
330
3
100
AcDbSymbolTableRecord
100
AcDbTextStyleTableRecord
  2
Standard
 70
     0
 40
0.0
 41
1.0
 50
0.0
 71
     0
 42
0.2
  3
txt
  4

  0
ENDTAB
  0
TABLE
  2
VIEW
  5
6
330
0
100
AcDbSymbolTable
 70
     0
  0
ENDTAB
  0
TABLE
  2
UCS
  5
7
330
0
100
AcDbSymbolTable
 70
     0
  0
ENDTAB
  0
TABLE
  2
APPID
  5
9
330
0
100
AcDbSymbolTable
 70
     1
  0
APPID
  5
12
330
9
100
AcDbSymbolTableRecord
100
AcDbRegAppTableRecord
  2
ACAD
 70
     0
  0
ENDTAB
  0
TABLE
  2
DIMSTYLE
  5
A
330
0
100
AcDbSymbolTable
 70
     1
100
AcDbDimStyleTable
  0
DIMSTYLE
105
27
330
A
100
AcDbSymbolTableRecord
100
AcDbDimStyleTableRecord
  2
Standard
 70
     0
340
11
  0
ENDTAB
  0
TABLE
  2
BLOCK_RECORD
  5
1
330
0
100
AcDbSymbolTable
 70
     1
  0
BLOCK_RECORD
  5
1F
330
1
100
AcDbSymbolTableRecord
100
AcDbBlockTableRecord
  2
*Model_Space
340
22
 70
     0
280
     1
281
     0
  0
BLOCK_RECORD
  5
1B
330
1
100
AcDbSymbolTableRecord
100
AcDbBlockTableRecord
  2
*Paper_Space
340
1E
 70
     0
280
     1
281
     0
  0
BLOCK_RECORD
  5
23
330
1
100
AcDbSymbolTableRecord
100
AcDbBlockTableRecord
  2
*Paper_Space0
340
26
 70
     0
280
     1
281
     0
  0
ENDTAB
  0
ENDSEC
  0
SECTION
  2
BLOCKS
  0
BLOCK
  5
20
330
1F
100
AcDbEntity
  8
0
100
AcDbBlockBegin
  2
*Model_Space
 70
     0
 10
0.0
 20
0.0
 30
0.0
  3
*Model_Space
  1

  0
ENDBLK
  5
21
330
1F
100
AcDbEntity
  8
0
100
AcDbBlockEnd
  0
BLOCK
  5
1C
330
1B
100
AcDbEntity
 67
     1
  8
0
100
AcDbBlockBegin
  2
*Paper_Space
 70
     0
 10
0.0
 20
0.0
 30
0.0
  3
*Paper_Space
  1

  0
ENDBLK
  5
1D
330
1B
100
AcDbEntity
 67
     1
  8
0
100
AcDbBlockEnd
  0
BLOCK
  5
24
330
23
100
AcDbEntity
  8
0
100
AcDbBlockBegin
  2
*Paper_Space0
 70
     0
 10
0.0
 20
0.0
 30
0.0
  3
*Paper_Space0
  1

  0
ENDBLK
  5
25
330
23
100
AcDbEntity
  8
0
100
AcDbBlockEnd
  0
ENDSEC
  0
SECTION
  2
ENTITIES
  0
LINE
  5
41
330
1F
100
AcDbEntity
  8
0
100
AcDbLine
 10
-92.56035406827556
 20
-33.04349136301585
 30
0.0
 11
-92.3191731326725
 21
-32.94359094850324
 31
0.0
  0
LINE
  5
42
330
1F
100
AcDbEntity
  8
0
100
AcDbLine
 10
-92.76746083289355
 20
-33.20240997290025
 30
0.0
 11
-92.56035406827556
 21
-33.04349136301585
 31
0.0
  0
LINE
  5
43
330
1F
100
AcDbEntity
  8
0
100
AcDbLine
 10
-92.92637944277786
 20
-33.40951673751823
 30
0.0
 11
-92.76746083289355
 21
-33.20240997290025
 31
0.0
  0
LINE
  5
44
330
1F
100
AcDbEntity
  8
0
100
AcDbLine
 10
-93.02627985729056
 20
-33.65069767312125
 30
0.0
 11
-92.92637944277786
 21
-33.40951673751823
 31
0.0
  0
LINE
  5
45
330
1F
100
AcDbEntity
  8
0
100
AcDbLine
 10
65.07019062613418
 20
64.12481229998433
 30
0.0
 11
65.53606487004879
 21
64.18614580775737
 31
0.0
  0
LINE
  5
46
330
1F
100
AcDbEntity
  8
0
100
AcDbLine
 10
64.26327276573639
 20
63.6589380560698
 30
0.0
 11
64.63606494204882
 21
63.94499155386172
 31
0.0
  0
LINE
  5
47
330
1F
100
AcDbEntity
  8
0
100
AcDbLine
 10
50.14294227255921
 20
29.91764887470162
 30
0.0
 11
50.51573444887163
 21
29.63159537690979
 31
0.0
  0
LINE
  5
48
330
1F
100
AcDbEntity
  8
0
100
AcDbLine
 10
49.70881658847385
 20
30.09746962082424
 30
0.0
 11
50.14294227255921
 21
29.91764887470162
 31
0.0
  0
LINE
  5
49
330
1F
100
AcDbEntity
  8
0
100
AcDbLine
 10
49.24294234455922
 20
30.15880312859736
 30
0.0
 11
49.70881658847385
 21
30.09746962082424
 31
0.0
  0
LINE
  5
4A
330
1F
100
AcDbEntity
  8
0
100
AcDbLine
 10
48.77706810064461
 20
30.09746962082424
 30
0.0
 11
49.24294234455922
 21
30.15880312859736
 31
0.0
  0
LINE
  5
4B
330
1F
100
AcDbEntity
  8
0
100
AcDbLine
 10
48.34294241655906
 20
29.91764887470162
 30
0.0
 11
48.77706810064461
 21
30.09746962082424
 31
0.0
  0
LINE
  5
4C
330
1F
100
AcDbEntity
  8
0
100
AcDbLine
 10
104.3576621825384
 20
-2.737705547098662
 30
0.0
 11
104.8235364264532
 21
-2.799039054871655
 31
0.0
  0
LINE
  5
4D
330
1F
100
AcDbEntity
  8
0
100
AcDbLine
 10
103.8917879386239
 20
-2.799039054871655
 30
0.0
 11
104.3576621825384
 21
-2.737705547098662
 31
0.0
  0
LINE
  5
4E
330
1F
100
AcDbEntity
  8
0
100
AcDbLine
 10
103.4576622545384
 20
-2.97885980099432
 30
0.0
 11
103.8917879386239
 21
-2.799039054871655
 31
0.0
  0
LINE
  5
4F
330
1F
100
AcDbEntity
  8
0
100
AcDbLine
 10
103.084870078226
 20
-3.264913298786277
 30
0.0
 11
103.4576622545384
 21
-2.97885980099432
 31
0.0
  0
LINE
  5
50
330
1F
100
AcDbEntity
  8
0
100
AcDbLine
 10
102.798816580434
 20
-3.637705475098688
 30
0.0
 11
103.084870078226
 21
-3.264913298786277
 31
0.0
  0
LINE
  5
51
330
1F
100
AcDbEntity
  8
0
100
AcDbLine
 10
102.6189958343116
 20
-4.071831159184094
 30
0.0
 11
102.798816580434
 21
-3.637705475098688
 31
0.0
  0
LINE
  5
52
330
1F
100
AcDbEntity
  8
0
100
AcDbLine
 10
102.5576623265384
 20
-4.537705403098715
 30
0.0
 11
102.6189958343116
 21
-4.071831159184094
 31
0.0
  0
LINE
  5
53
330
1F
100
AcDbEntity
  8
0
100
AcDbLine
 10
102.6189958343116
 20
-5.003579647013337
 30
0.0
 11
102.5576623265384
 21
-4.537705403098715
 31
0.0
  0
LINE
  5
54
330
1F
100
AcDbEntity
  8
0
100
AcDbLine
 10
102.798816580434
 20
-5.437705331098742
 30
0.0
 11
102.6189958343116
 21
-5.003579647013337
 31
0.0
  0
LINE
  5
55
330
1F
100
AcDbEntity
  8
0
100
AcDbLine
 10
103.084870078226
 20
-5.810497507411154
 30
0.0
 11
102.798816580434
 21
-5.437705331098742
 31
0.0
  0
LINE
  5
56
330
1F
100
AcDbEntity
  8
0
100
AcDbLine
 10
103.4576622545386
 20
-6.096551005203112
 30
0.0
 11
103.084870078226
 21
-5.810497507411154
 31
0.0
  0
LINE
  5
57
330
1F
100
AcDbEntity
  8
0
100
AcDbLine
 10
103.8917879386239
 20
-6.276371751325776
 30
0.0
 11
103.4576622545386
 21
-6.096551005203112
 31
0.0
  0
LINE
  5
58
330
1F
100
AcDbEntity
  8
0
100
AcDbLine
 10
104.3576621825384
 20
-6.337705259098769
 30
0.0
 11
103.8917879386239
 21
-6.276371751325776
 31
0.0
  0
LINE
  5
59
330
1F
100
AcDbEntity
  8
0
100
AcDbLine
 10
104.8235364264532
 20
-6.276371751325776
 30
0.0
 11
104.3576621825384
 21
-6.337705259098769
 31
0.0
  0
LINE
  5
5A
330
1F
100
AcDbEntity
  8
0
100
AcDbLine
 10
105.2576621105385
 20
-6.096551005203112
 30
0.0
 11
104.8235364264532
 21
-6.276371751325776
 31
0.0
  0
LINE
  5
5B
330
1F
100
AcDbEntity
  8
0
100
AcDbLine
 10
49.24294234455922
 20
-6.341193951402834
 30
0.0
 11
48.77706810064461
 21
-6.279860443629842
 31
0.0
  0
LINE
  5
5C
330
1F
100
AcDbEntity
  8
0
100
AcDbLine
 10
48.34294241655925
 20
26.79995767049283
 30
0.0
 11
47.97015024024683
 21
27.08601116828483
 31
0.0
  0
LINE
  5
5D
330
1F
100
AcDbEntity
  8
0
100
AcDbLine
 10
48.77706810064461
 20
26.62013692437021
 30
0.0
 11
48.34294241655925
 21
26.79995767049283
 31
0.0
  0
LINE
  5
5E
330
1F
100
AcDbEntity
  8
0
100
AcDbLine
 10
33.49160051793478
 20
-67.68753206999412
 30
0.0
 11
38.39160012593459
 21
-67.68753206999412
 31
0.0
  0
LINE
  5
5F
330
1F
100
AcDbEntity
  8
0
100
AcDbLine
 10
39.39160004593456
 20
-66.68753214999407
 30
0.0
 11
39.35752587494949
 21
-66.94635117439107
 31
0.0
  0
LINE
  5
60
330
1F
100
AcDbEntity
  8
0
100
AcDbLine
 10
34.39160044593459
 20
-55.18753306999409
 30
0.0
 11
39.39160004593456
 21
-55.18753306999409
 31
0.0
  0
LINE
  5
61
330
1F
100
AcDbEntity
  8
0
100
AcDbLine
 10
49.24294234455922
 20
26.55880341659726
 30
0.0
 11
48.77706810064461
 21
26.62013692437021
 31
0.0
  0
LINE
  5
62
330
1F
100
AcDbEntity
  8
0
100
AcDbLine
 10
49.70881658847385
 20
26.62013692437021
 30
0.0
 11
49.24294234455922
 21
26.55880341659726
 31
0.0
  0
LINE
  5
63
330
1F
100
AcDbEntity
  8
0
100
AcDbLine
 10
36.42720740176413
 20
30.35880311259727
 30
0.0
 11
36.42720740176413
 21
36.90879243745599
 31
0.0
  0
LINE
  5
64
330
1F
100
AcDbEntity
  8
0
100
AcDbLine
 10
36.42720740176413
 20
36.90879243745599
 30
0.0
 11
25.42721327787813
 21
36.90879243745599
 31
0.0
  0
LINE
  5
65
330
1F
100
AcDbEntity
  8
0
100
AcDbLine
 10
20.42721367787797
 20
30.35880311259745
 30
0.0
 11
20.42721367787797
 21
24.05880361659758
 31
0.0
  0
LINE
  5
66
330
1F
100
AcDbEntity
  8
0
100
AcDbLine
 10
43.49567099421014
 20
30.35880311259727
 30
0.0
 11
43.49567099421014
 21
24.05880361659722
 31
0.0
  0
LINE
  5
67
330
1F
100
AcDbEntity
  8
0
100
AcDbLine
 10
13.96546753901915
 20
-8.841069790233126
 30
0.0
 11
14.40409476803439
 21
-9.009612853825352
 31
0.0
  0
LINE
  5
68
330
1F
100
AcDbEntity
  8
0
100
AcDbLine
 10
14.40409476803439
 20
-9.009612853825352
 30
0.0
 11
14.78415398187636
 21
-9.285938032360672
 31
0.0
  0
LINE
  5
69
330
1F
100
AcDbEntity
  8
0
100
AcDbLine
 10
47.68409674245483
 20
27.45880334459724
 30
0.0
 11
47.50427599633221
 21
27.89292902868259
 31
0.0
  0
LINE
  5
6A
330
1F
100
AcDbEntity
  8
0
100
AcDbLine
 10
47.50427599633221
 20
27.89292902868259
 30
0.0
 11
47.44294248855926
 21
28.35880327259722
 31
0.0
  0
LINE
  5
6B
330
1F
100
AcDbEntity
  8
0
100
AcDbLine
 10
47.68409674245483
 20
-3.641194167402754
 30
0.0
 11
47.97015024024683
 21
-3.268401991090343
 31
0.0
  0
LINE
  5
6C
330
1F
100
AcDbEntity
  8
0
100
AcDbLine
 10
50.98160869278625
 20
28.82467751651184
 30
0.0
 11
51.04294220055919
 21
28.35880327259722
 31
0.0
  0
LINE
  5
6D
330
1F
100
AcDbEntity
  8
0
100
AcDbLine
 10
2.098786552054118
 20
51.86229008490294
 30
0.0
 11
-100.1994751452044
 21
51.8622900849029
 31
0.0
  0
LINE
  5
6E
330
1F
100
AcDbEntity
  8
0
100
AcDbLine
 10
-100.1994751452044
 20
51.8622900849029
 30
0.0
 11
-100.1994751452044
 21
-26.16626851203953
 31
0.0
  0
LINE
  5
6F
330
1F
100
AcDbEntity
  8
0
100
AcDbLine
 10
-100.1994751452044
 20
-26.16626851203953
 30
0.0
 11
2.098786552054118
 21
-26.16626851203949
 31
0.0
  0
LINE
  5
70
330
1F
100
AcDbEntity
  8
0
100
AcDbLine
 10
2.098786552054118
 20
-26.16626851203949
 30
0.0
 11
2.098786552054118
 21
51.86229008490294
 31
0.0
  0
LINE
  5
71
330
1F
100
AcDbEntity
  8
0
100
AcDbLine
 10
-16.64848375829534
 20
-6.537705243097462
 30
0.0
 11
-36.81694130662726
 21
-6.537705243097191
 31
0.0
  0
LINE
  5
72
330
1F
100
AcDbEntity
  8
0
100
AcDbLine
 10
-36.81694130662726
 20
-0.2377057470971389
 30
0.0
 11
-36.81694130662726
 21
-6.537705243097191
 31
0.0
  0
LINE
  5
73
330
1F
100
AcDbEntity
  8
0
100
AcDbLine
 10
-16.64848375829534
 20
-0.2377057470974999
 30
0.0
 11
-36.81694130662726
 21
-0.2377057470971389
 31
0.0
  0
LINE
  5
74
330
1F
100
AcDbEntity
  8
0
100
AcDbLine
 10
-16.64848375829534
 20
-6.537705243097462
 30
0.0
 11
-16.64848375829534
 21
-0.2377057470974999
 31
0.0
  0
LINE
  5
75
330
1F
100
AcDbEntity
  8
0
100
AcDbLine
 10
-16.64848375829462
 20
24.06229230890255
 30
0.0
 11
-36.8169413066269
 21
24.06229230890291
 31
0.0
  0
LINE
  5
76
330
1F
100
AcDbEntity
  8
0
100
AcDbLine
 10
-36.8169413066269
 20
30.36229180490297
 30
0.0
 11
-36.8169413066269
 21
24.06229230890291
 31
0.0
  0
LINE
  5
77
330
1F
100
AcDbEntity
  8
0
100
AcDbLine
 10
-16.64848375829462
 20
30.3622918049026
 30
0.0
 11
-36.8169413066269
 21
30.36229180490297
 31
0.0
  0
LINE
  5
78
330
1F
100
AcDbEntity
  8
0
100
AcDbLine
 10
-16.64848375829462
 20
24.06229230890255
 30
0.0
 11
-16.64848375829462
 21
30.3622918049026
 31
0.0
  0
LINE
  5
79
330
1F
100
AcDbEntity
  8
0
100
AcDbLine
 10
-28.399480889204
 20
-14.63770459509752
 30
0.0
 11
-38.79948005720405
 21
-14.63770459509752
 31
0.0
  0
LINE
  5
7A
330
1F
100
AcDbEntity
  8
0
100
AcDbLine
 10
-28.399480889204
 20
-21.43770405109755
 30
0.0
 11
-28.399480889204
 21
-14.63770459509752
 31
0.0
  0
LINE
  5
7B
330
1F
100
AcDbEntity
  8
0
100
AcDbLine
 10
-38.79948005720405
 20
-21.43770405109755
 30
0.0
 11
-28.399480889204
 21
-21.43770405109755
 31
0.0
  0
LINE
  5
7C
330
1F
100
AcDbEntity
  8
0
100
AcDbLine
 10
-38.79948005720405
 20
-14.63770459509752
 30
0.0
 11
-38.79948005720405
 21
-21.43770405109755
 31
0.0
  0
LINE
  5
7D
330
1F
100
AcDbEntity
  8
0
100
AcDbLine
 10
-28.399480889204
 20
45.26229061290283
 30
0.0
 11
-38.79948005720405
 21
45.26229061290283
 31
0.0
  0
LINE
  5
7E
330
1F
100
AcDbEntity
  8
0
100
AcDbLine
 10
-28.399480889204
 20
38.46229115690289
 30
0.0
 11
-28.399480889204
 21
45.26229061290283
 31
0.0
  0
LINE
  5
7F
330
1F
100
AcDbEntity
  8
0
100
AcDbLine
 10
-38.79948005720405
 20
38.4622911569028
 30
0.0
 11
-28.399480889204
 21
38.46229115690289
 31
0.0
  0
LINE
  5
80
330
1F
100
AcDbEntity
  8
0
100
AcDbLine
 10
-38.79948005720405
 20
45.26229061290283
 30
0.0
 11
-38.79948005720405
 21
38.4622911569028
 31
0.0
  0
LINE
  5
81
330
1F
100
AcDbEntity
  8
0
100
AcDbLine
 10
-13.29948209720391
 20
-21.43770405109755
 30
0.0
 11
-13.29948209720391
 21
-14.63770459509752
 31
0.0
  0
LINE
  5
82
330
1F
100
AcDbEntity
  8
0
100
AcDbLine
 10
-2.899482929203499
 20
-14.63770459509752
 30
0.0
 11
-13.29948209720391
 21
-14.63770459509752
 31
0.0
  0
LINE
  5
83
330
1F
100
AcDbEntity
  8
0
100
AcDbLine
 10
-2.899482929203499
 20
-21.43770405109755
 30
0.0
 11
-2.899482929203499
 21
-14.63770459509752
 31
0.0
  0
LINE
  5
84
330
1F
100
AcDbEntity
  8
0
100
AcDbLine
 10
-13.29948209720391
 20
-21.43770405109755
 30
0.0
 11
-2.899482929203499
 21
-21.43770405109755
 31
0.0
  0
LINE
  5
85
330
1F
100
AcDbEntity
  8
0
100
AcDbLine
 10
-13.29948209720391
 20
38.4622911569028
 30
0.0
 11
-13.29948209720391
 21
45.26229061290283
 31
0.0
  0
LINE
  5
86
330
1F
100
AcDbEntity
  8
0
100
AcDbLine
 10
-2.899482929203499
 20
45.26229061290283
 30
0.0
 11
-13.29948209720391
 21
45.26229061290283
 31
0.0
  0
LINE
  5
87
330
1F
100
AcDbEntity
  8
0
100
AcDbLine
 10
-2.899482929203499
 20
38.4622911569028
 30
0.0
 11
-2.899482929203499
 21
45.26229061290283
 31
0.0
  0
LINE
  5
88
330
1F
100
AcDbEntity
  8
0
100
AcDbLine
 10
-13.29948209720391
 20
38.4622911569028
 30
0.0
 11
-2.899482929203499
 21
38.4622911569028
 31
0.0
  0
LINE
  5
89
330
1F
100
AcDbEntity
  8
0
100
AcDbLine
 10
-4.342367205841343
 20
27.46229203690266
 30
0.0
 11
-4.628420703633165
 21
27.08949986059024
 31
0.0
  0
LINE
  5
8A
330
1F
100
AcDbEntity
  8
0
100
AcDbLine
 10
-4.628420703633165
 20
27.08949986059024
 30
0.0
 11
-5.001212879945577
 21
26.80344636279833
 31
0.0
  0
LINE
  5
8B
330
1F
100
AcDbEntity
  8
0
100
AcDbLine
 10
-5.001212879945577
 20
26.80344636279833
 30
0.0
 11
-5.435338564030937
 21
26.62362561667571
 31
0.0
  0
LINE
  5
8C
330
1F
100
AcDbEntity
  8
0
100
AcDbLine
 10
-5.435338564030937
 20
26.62362561667571
 30
0.0
 11
-5.901212807945559
 21
26.56229210890267
 31
0.0
  0
LINE
  5
8D
330
1F
100
AcDbEntity
  8
0
100
AcDbLine
 10
-5.901212807945559
 20
26.56229210890267
 30
0.0
 11
-6.367087051860181
 21
26.62362561667571
 31
0.0
  0
LINE
  5
8E
330
1F
100
AcDbEntity
  8
0
100
AcDbLine
 10
-6.367087051860181
 20
26.62362561667571
 30
0.0
 11
-6.80121273594554
 21
26.80344636279833
 31
0.0
  0
LINE
  5
8F
330
1F
100
AcDbEntity
  8
0
100
AcDbLine
 10
-6.80121273594554
 20
26.80344636279833
 30
0.0
 11
-7.174004912257952
 21
27.08949986059024
 31
0.0
  0
LINE
  5
90
330
1F
100
AcDbEntity
  8
0
100
AcDbLine
 10
-7.174004912257952
 20
27.08949986059024
 30
0.0
 11
-7.460058410049773
 21
27.46229203690266
 31
0.0
  0
LINE
  5
91
330
1F
100
AcDbEntity
  8
0
100
AcDbLine
 10
-7.460058410049773
 20
27.46229203690266
 30
0.0
 11
-7.639879156172573
 21
27.89641772098802
 31
0.0
  0
LINE
  5
92
330
1F
100
AcDbEntity
  8
0
100
AcDbLine
 10
-7.639879156172573
 20
27.89641772098802
 30
0.0
 11
-7.701212663945523
 21
28.36229196490264
 31
0.0
  0
LINE
  5
93
330
1F
100
AcDbEntity
  8
0
100
AcDbLine
 10
-7.701212663945523
 20
28.36229196490264
 30
0.0
 11
-7.639879156172573
 21
28.82816620881726
 31
0.0
  0
LINE
  5
94
330
1F
100
AcDbEntity
  8
0
100
AcDbLine
 10
-7.639879156172573
 20
28.82816620881726
 30
0.0
 11
-7.460058410049773
 21
29.26229189290262
 31
0.0
  0
LINE
  5
95
330
1F
100
AcDbEntity
  8
0
100
AcDbLine
 10
-7.460058410049773
 20
29.26229189290262
 30
0.0
 11
-7.174004912257952
 21
29.63508406921503
 31
0.0
  0
LINE
  5
96
330
1F
100
AcDbEntity
  8
0
100
AcDbLine
 10
-7.174004912257952
 20
29.63508406921503
 30
0.0
 11
-6.80121273594554
 21
29.92113756700694
 31
0.0
  0
LINE
  5
97
330
1F
100
AcDbEntity
  8
0
100
AcDbLine
 10
-6.80121273594554
 20
29.92113756700694
 30
0.0
 11
-6.367087051860181
 21
30.10095831312956
 31
0.0
  0
LINE
  5
98
330
1F
100
AcDbEntity
  8
0
100
AcDbLine
 10
-6.367087051860181
 20
30.10095831312956
 30
0.0
 11
-5.901212807945559
 21
30.1622918209026
 31
0.0
  0
LINE
  5
99
330
1F
100
AcDbEntity
  8
0
100
AcDbLine
 10
-5.901212807945559
 20
30.1622918209026
 30
0.0
 11
-5.435338564030937
 21
30.10095831312956
 31
0.0
  0
LINE
  5
9A
330
1F
100
AcDbEntity
  8
0
100
AcDbLine
 10
-5.435338564030937
 20
30.10095831312956
 30
0.0
 11
-5.001212879945577
 21
29.92113756700694
 31
0.0
  0
LINE
  5
9B
330
1F
100
AcDbEntity
  8
0
100
AcDbLine
 10
-5.001212879945577
 20
29.92113756700694
 30
0.0
 11
-4.628420703633165
 21
29.63508406921503
 31
0.0
  0
LINE
  5
9C
330
1F
100
AcDbEntity
  8
0
100
AcDbLine
 10
-4.628420703633165
 20
29.63508406921503
 30
0.0
 11
-4.342367205841343
 21
29.26229189290262
 31
0.0
  0
LINE
  5
9D
330
1F
100
AcDbEntity
  8
0
100
AcDbLine
 10
-4.342367205841343
 20
29.26229189290262
 30
0.0
 11
-4.162546459718543
 21
28.82816620881726
 31
0.0
  0
LINE
  5
9E
330
1F
100
AcDbEntity
  8
0
100
AcDbLine
 10
-4.162546459718543
 20
28.82816620881726
 30
0.0
 11
-4.101212951945596
 21
28.36229196490264
 31
0.0
  0
LINE
  5
9F
330
1F
100
AcDbEntity
  8
0
100
AcDbLine
 10
-4.101212951945596
 20
28.36229196490264
 30
0.0
 11
-4.162546459718543
 21
27.89641772098802
 31
0.0
  0
LINE
  5
A0
330
1F
100
AcDbEntity
  8
0
100
AcDbLine
 10
-4.162546459718543
 20
27.89641772098802
 30
0.0
 11
-4.342367205841343
 21
27.46229203690266
 31
0.0
  0
LINE
  5
A1
330
1F
100
AcDbEntity
  8
0
100
AcDbLine
 10
-39.85091964538517
 20
33.98504828180498
 30
0.0
 11
-40.02107906578615
 21
33.54704556267231
 31
0.0
  0
LINE
  5
A2
330
1F
100
AcDbEntity
  8
0
100
AcDbLine
 10
-40.02107906578615
 20
33.54704556267231
 30
0.0
 11
-40.29880389005595
 21
33.16800792298056
 31
0.0
  0
LINE
  5
A3
330
1F
100
AcDbEntity
  8
0
100
AcDbLine
 10
-40.29880389005595
 20
33.16800792298056
 30
0.0
 11
-40.66516763038263
 21
32.87376615148544
 31
0.0
  0
LINE
  5
A4
330
1F
100
AcDbEntity
  8
0
100
AcDbLine
 10
-40.66516763038263
 20
32.87376615148544
 30
0.0
 11
-41.09520320330768
 21
32.68437233865687
 31
0.0
  0
LINE
  5
A5
330
1F
100
AcDbEntity
  8
0
100
AcDbLine
 10
-41.09520320330768
 20
32.68437233865687
 30
0.0
 11
-41.55960439520359
 21
32.61273335985088
 31
0.0
  0
LINE
  5
A6
330
1F
100
AcDbEntity
  8
0
100
AcDbLine
 10
-41.55960439520359
 20
32.61273335985088
 30
0.0
 11
-42.02672303230196
 21
32.66373129308426
 31
0.0
  0
LINE
  5
A7
330
1F
100
AcDbEntity
  8
0
100
AcDbLine
 10
-42.02672303230196
 20
32.66373129308426
 30
0.0
 11
-42.46472575143454
 21
32.83389071348506
 31
0.0
  0
LINE
  5
A8
330
1F
100
AcDbEntity
  8
0
100
AcDbLine
 10
-42.46472575143454
 20
32.83389071348506
 30
0.0
 11
-42.8437633911263
 21
33.11161553775487
 31
0.0
  0
LINE
  5
A9
330
1F
100
AcDbEntity
  8
0
100
AcDbLine
 10
-42.8437633911263
 20
33.11161553775487
 30
0.0
 11
-43.13800516262142
 21
33.47797927808154
 31
0.0
  0
LINE
  5
AA
330
1F
100
AcDbEntity
  8
0
100
AcDbLine
 10
-43.13800516262142
 20
33.47797927808154
 30
0.0
 11
-43.32739897545017
 21
33.90801485100658
 31
0.0
  0
LINE
  5
AB
330
1F
100
AcDbEntity
  8
0
100
AcDbLine
 10
-43.32739897545017
 20
33.90801485100658
 30
0.0
 11
-43.39903795425607
 21
34.37241604290259
 31
0.0
  0
LINE
  5
AC
330
1F
100
AcDbEntity
  8
0
100
AcDbLine
 10
-43.39903795425607
 20
34.37241604290259
 30
0.0
 11
-43.34804002102278
 21
34.83953468000097
 31
0.0
  0
LINE
  5
AD
330
1F
100
AcDbEntity
  8
0
100
AcDbLine
 10
-43.34804002102278
 20
34.83953468000097
 30
0.0
 11
-43.17788060062179
 21
35.27753739913364
 31
0.0
  0
LINE
  5
AE
330
1F
100
AcDbEntity
  8
0
100
AcDbLine
 10
-43.17788060062179
 20
35.27753739913364
 30
0.0
 11
-42.90015577635199
 21
35.65657503882539
 31
0.0
  0
LINE
  5
AF
330
1F
100
AcDbEntity
  8
0
100
AcDbLine
 10
-42.90015577635199
 20
35.65657503882539
 30
0.0
 11
-42.5337920360255
 21
35.9508168103205
 31
0.0
  0
LINE
  5
B0
330
1F
100
AcDbEntity
  8
0
100
AcDbLine
 10
-42.5337920360255
 20
35.9508168103205
 30
0.0
 11
-42.10375646310027
 21
36.14021062314908
 31
0.0
  0
LINE
  5
B1
330
1F
100
AcDbEntity
  8
0
100
AcDbLine
 10
-42.10375646310027
 20
36.14021062314908
 30
0.0
 11
-41.63935527120435
 21
36.21184960195507
 31
0.0
  0
LINE
  5
B2
330
1F
100
AcDbEntity
  8
0
100
AcDbLine
 10
-41.63935527120435
 20
36.21184960195507
 30
0.0
 11
-41.17223663410599
 21
36.16085166872168
 31
0.0
  0
LINE
  5
B3
330
1F
100
AcDbEntity
  8
0
100
AcDbLine
 10
-41.17223663410599
 20
36.16085166872168
 30
0.0
 11
-40.73423391497322
 21
35.99069224832088
 31
0.0
  0
LINE
  5
B4
330
1F
100
AcDbEntity
  8
0
100
AcDbLine
 10
-40.73423391497322
 20
35.99069224832088
 30
0.0
 11
-40.35519627528164
 21
35.71296742405109
 31
0.0
  0
LINE
  5
B5
330
1F
100
AcDbEntity
  8
0
100
AcDbLine
 10
-40.35519627528164
 20
35.71296742405109
 30
0.0
 11
-40.06095450378653
 21
35.3466036837244
 31
0.0
  0
LINE
  5
B6
330
1F
100
AcDbEntity
  8
0
100
AcDbLine
 10
-40.06095450378653
 20
35.3466036837244
 30
0.0
 11
-39.87156069095778
 21
34.91656811079935
 31
0.0
  0
LINE
  5
B7
330
1F
100
AcDbEntity
  8
0
100
AcDbLine
 10
-39.87156069095778
 20
34.91656811079935
 30
0.0
 11
-39.79992171215188
 21
34.45216691890334
 31
0.0
  0
LINE
  5
B8
330
1F
100
AcDbEntity
  8
0
100
AcDbLine
 10
-39.79992171215188
 20
34.45216691890334
 30
0.0
 11
-39.85091964538517
 21
33.98504828180498
 31
0.0
  0
LINE
  5
B9
330
1F
100
AcDbEntity
  8
0
100
AcDbLine
 10
-4.342367205841343
 20
-3.63770547509747
 30
0.0
 11
-4.162546459718543
 21
-4.071831159182875
 31
0.0
  0
LINE
  5
BA
330
1F
100
AcDbEntity
  8
0
100
AcDbLine
 10
-4.162546459718543
 20
-4.071831159182875
 30
0.0
 11
-4.101212951945596
 21
-4.537705403097452
 31
0.0
  0
LINE
  5
BB
330
1F
100
AcDbEntity
  8
0
100
AcDbLine
 10
-4.101212951945596
 20
-4.537705403097452
 30
0.0
 11
-4.162546459718543
 21
-5.003579647012028
 31
0.0
  0
LINE
  5
BC
330
1F
100
AcDbEntity
  8
0
100
AcDbLine
 10
-4.162546459718543
 20
-5.003579647012028
 30
0.0
 11
-4.342367205841343
 21
-5.437705331097434
 31
0.0
  0
LINE
  5
BD
330
1F
100
AcDbEntity
  8
0
100
AcDbLine
 10
-4.342367205841343
 20
-5.437705331097434
 30
0.0
 11
-4.628420703633165
 21
-5.810497507409845
 31
0.0
  0
LINE
  5
BE
330
1F
100
AcDbEntity
  8
0
100
AcDbLine
 10
-4.628420703633165
 20
-5.810497507409845
 30
0.0
 11
-5.001212879945577
 21
-6.096551005201758
 31
0.0
  0
LINE
  5
BF
330
1F
100
AcDbEntity
  8
0
100
AcDbLine
 10
-5.001212879945577
 20
-6.096551005201758
 30
0.0
 11
-5.435338564030937
 21
-6.276371751324422
 31
0.0
  0
LINE
  5
C0
330
1F
100
AcDbEntity
  8
0
100
AcDbLine
 10
-5.435338564030937
 20
-6.276371751324422
 30
0.0
 11
-5.901212807945559
 21
-6.337705259097415
 31
0.0
  0
LINE
  5
C1
330
1F
100
AcDbEntity
  8
0
100
AcDbLine
 10
-5.901212807945559
 20
-6.337705259097415
 30
0.0
 11
-6.367087051860181
 21
-6.276371751324422
 31
0.0
  0
LINE
  5
C2
330
1F
100
AcDbEntity
  8
0
100
AcDbLine
 10
-6.367087051860181
 20
-6.276371751324422
 30
0.0
 11
-6.80121273594554
 21
-6.096551005201758
 31
0.0
  0
LINE
  5
C3
330
1F
100
AcDbEntity
  8
0
100
AcDbLine
 10
-6.80121273594554
 20
-6.096551005201758
 30
0.0
 11
-7.174004912257952
 21
-5.810497507409845
 31
0.0
  0
LINE
  5
C4
330
1F
100
AcDbEntity
  8
0
100
AcDbLine
 10
-7.174004912257952
 20
-5.810497507409845
 30
0.0
 11
-7.460058410049773
 21
-5.437705331097434
 31
0.0
  0
LINE
  5
C5
330
1F
100
AcDbEntity
  8
0
100
AcDbLine
 10
-7.460058410049773
 20
-5.437705331097434
 30
0.0
 11
-7.639879156172573
 21
-5.003579647012028
 31
0.0
  0
LINE
  5
C6
330
1F
100
AcDbEntity
  8
0
100
AcDbLine
 10
-7.639879156172573
 20
-5.003579647012028
 30
0.0
 11
-7.701212663945523
 21
-4.537705403097452
 31
0.0
  0
LINE
  5
C7
330
1F
100
AcDbEntity
  8
0
100
AcDbLine
 10
-7.701212663945523
 20
-4.537705403097452
 30
0.0
 11
-7.639879156172573
 21
-4.071831159182875
 31
0.0
  0
LINE
  5
C8
330
1F
100
AcDbEntity
  8
0
100
AcDbLine
 10
-7.639879156172573
 20
-4.071831159182875
 30
0.0
 11
-7.460058410049773
 21
-3.63770547509747
 31
0.0
  0
LINE
  5
C9
330
1F
100
AcDbEntity
  8
0
100
AcDbLine
 10
-7.460058410049773
 20
-3.63770547509747
 30
0.0
 11
-7.174004912257952
 21
-3.264913298785058
 31
0.0
  0
LINE
  5
CA
330
1F
100
AcDbEntity
  8
0
100
AcDbLine
 10
-7.174004912257952
 20
-3.264913298785058
 30
0.0
 11
-6.80121273594554
 21
-2.978859800993147
 31
0.0
  0
LINE
  5
CB
330
1F
100
AcDbEntity
  8
0
100
AcDbLine
 10
-6.80121273594554
 20
-2.978859800993147
 30
0.0
 11
-6.367087051860181
 21
-2.799039054870482
 31
0.0
  0
LINE
  5
CC
330
1F
100
AcDbEntity
  8
0
100
AcDbLine
 10
-6.367087051860181
 20
-2.799039054870482
 30
0.0
 11
-5.901212807945559
 21
-2.737705547097489
 31
0.0
  0
LINE
  5
CD
330
1F
100
AcDbEntity
  8
0
100
AcDbLine
 10
-5.901212807945559
 20
-2.737705547097489
 30
0.0
 11
-5.435338564030937
 21
-2.799039054870482
 31
0.0
  0
LINE
  5
CE
330
1F
100
AcDbEntity
  8
0
100
AcDbLine
 10
-5.435338564030937
 20
-2.799039054870482
 30
0.0
 11
-5.001212879945577
 21
-2.978859800993147
 31
0.0
  0
LINE
  5
CF
330
1F
100
AcDbEntity
  8
0
100
AcDbLine
 10
-5.001212879945577
 20
-2.978859800993147
 30
0.0
 11
-4.628420703633165
 21
-3.264913298785058
 31
0.0
  0
LINE
  5
D0
330
1F
100
AcDbEntity
  8
0
100
AcDbLine
 10
-4.628420703633165
 20
-3.264913298785058
 30
0.0
 11
-4.342367205841343
 21
-3.63770547509747
 31
0.0
  0
LINE
  5
D1
330
1F
100
AcDbEntity
  8
0
100
AcDbLine
 10
-39.8509196453868
 20
-10.16046171999271
 30
0.0
 11
-39.7999217121517
 21
-10.62758035709094
 31
0.0
  0
LINE
  5
D2
330
1F
100
AcDbEntity
  8
0
100
AcDbLine
 10
-39.7999217121517
 20
-10.62758035709094
 30
0.0
 11
-39.87156069095597
 21
-11.09198154898717
 31
0.0
  0
LINE
  5
D3
330
1F
100
AcDbEntity
  8
0
100
AcDbLine
 10
-39.87156069095597
 20
-11.09198154898717
 30
0.0
 11
-40.06095450378292
 21
-11.52201712191294
 31
0.0
  0
LINE
  5
D4
330
1F
100
AcDbEntity
  8
0
100
AcDbLine
 10
-40.06095450378292
 20
-11.52201712191294
 30
0.0
 11
-40.35519627527677
 21
-11.88838086224075
 31
0.0
  0
LINE
  5
D5
330
1F
100
AcDbEntity
  8
0
100
AcDbLine
 10
-40.35519627527677
 20
-11.88838086224075
 30
0.0
 11
-40.73423391496745
 21
-12.16610568651195
 31
0.0
  0
LINE
  5
D6
330
1F
100
AcDbEntity
  8
0
100
AcDbLine
 10
-40.73423391496745
 20
-12.16610568651195
 30
0.0
 11
-41.17223663409948
 21
-12.33626510691442
 31
0.0
  0
LINE
  5
D7
330
1F
100
AcDbEntity
  8
0
100
AcDbLine
 10
-41.17223663409948
 20
-12.33626510691442
 30
0.0
 11
-41.63935527119767
 21
-12.38726304014952
 31
0.0
  0
LINE
  5
D8
330
1F
100
AcDbEntity
  8
0
100
AcDbLine
 10
-41.63935527119767
 20
-12.38726304014952
 30
0.0
 11
-42.10375646309395
 21
-12.31562406134529
 31
0.0
  0
LINE
  5
D9
330
1F
100
AcDbEntity
  8
0
100
AcDbLine
 10
-42.10375646309395
 20
-12.31562406134529
 30
0.0
 11
-42.53379203601972
 21
-12.12623024851825
 31
0.0
  0
LINE
  5
DA
330
1F
100
AcDbEntity
  8
0
100
AcDbLine
 10
-42.53379203601972
 20
-12.12623024851825
 30
0.0
 11
-42.90015577634748
 21
-11.83198847702449
 31
0.0
  0
LINE
  5
DB
330
1F
100
AcDbEntity
  8
0
100
AcDbLine
 10
-42.90015577634748
 20
-11.83198847702449
 30
0.0
 11
-43.17788060061872
 21
-11.45295083733382
 31
0.0
  0
LINE
  5
DC
330
1F
100
AcDbEntity
  8
0
100
AcDbLine
 10
-43.17788060061872
 20
-11.45295083733382
 30
0.0
 11
-43.34804002102115
 21
-11.01494811820178
 31
0.0
  0
LINE
  5
DD
330
1F
100
AcDbEntity
  8
0
100
AcDbLine
 10
-43.34804002102115
 20
-11.01494811820178
 30
0.0
 11
-43.39903795425624
 21
-10.54782948110354
 31
0.0
  0
LINE
  5
DE
330
1F
100
AcDbEntity
  8
0
100
AcDbLine
 10
-43.39903795425624
 20
-10.54782948110354
 30
0.0
 11
-43.32739897545197
 21
-10.08342828920731
 31
0.0
  0
LINE
  5
DF
330
1F
100
AcDbEntity
  8
0
100
AcDbLine
 10
-43.32739897545197
 20
-10.08342828920731
 30
0.0
 11
-43.13800516262503
 21
-9.653392716281544
 31
0.0
  0
LINE
  5
E0
330
1F
100
AcDbEntity
  8
0
100
AcDbLine
 10
-43.13800516262503
 20
-9.653392716281544
 30
0.0
 11
-42.84376339113135
 21
-9.287028975953733
 31
0.0
  0
LINE
  5
E1
330
1F
100
AcDbEntity
  8
0
100
AcDbLine
 10
-42.84376339113135
 20
-9.287028975953733
 30
0.0
 11
-42.4647257514405
 21
-9.009304151682539
 31
0.0
  0
LINE
  5
E2
330
1F
100
AcDbEntity
  8
0
100
AcDbLine
 10
-42.4647257514405
 20
-9.009304151682539
 30
0.0
 11
-42.02672303230846
 21
-8.839144731280069
 31
0.0
  0
LINE
  5
E3
330
1F
100
AcDbEntity
  8
0
100
AcDbLine
 10
-42.02672303230846
 20
-8.839144731280069
 30
0.0
 11
-41.55960439521027
 21
-8.78814679804497
 31
0.0
  0
LINE
  5
E4
330
1F
100
AcDbEntity
  8
0
100
AcDbLine
 10
-41.55960439521027
 20
-8.78814679804497
 30
0.0
 11
-41.095203203314
 21
-8.8597857768492
 31
0.0
  0
LINE
  5
E5
330
1F
100
AcDbEntity
  8
0
100
AcDbLine
 10
-41.095203203314
 20
-8.8597857768492
 30
0.0
 11
-40.66516763038823
 21
-9.049179589676237
 31
0.0
  0
LINE
  5
E6
330
1F
100
AcDbEntity
  8
0
100
AcDbLine
 10
-40.66516763038823
 20
-9.049179589676237
 30
0.0
 11
-40.29880389006046
 21
-9.34342136117
 31
0.0
  0
LINE
  5
E7
330
1F
100
AcDbEntity
  8
0
100
AcDbLine
 10
-40.29880389006046
 20
-9.34342136117
 30
0.0
 11
-40.02107906578922
 21
-9.72245900086067
 31
0.0
  0
LINE
  5
E8
330
1F
100
AcDbEntity
  8
0
100
AcDbLine
 10
-40.02107906578922
 20
-9.72245900086067
 30
0.0
 11
-39.8509196453868
 21
-10.16046171999271
 31
0.0
  0
LINE
  5
E9
330
1F
100
AcDbEntity
  8
0
100
AcDbLine
 10
-83.6575704541319
 20
-4.337705419078321
 30
0.0
 11
-83.49772979091208
 21
-3.951815922113807
 31
0.0
  0
LINE
  5
EA
330
1F
100
AcDbEntity
  8
0
100
AcDbLine
 10
-83.91184022994712
 20
-4.669076242467352
 30
0.0
 11
-83.6575704541319
 21
-4.337705419078321
 31
0.0
  0
LINE
  5
EB
330
1F
100
AcDbEntity
  8
0
100
AcDbLine
 10
-84.24321105333578
 20
-4.923346018282294
 30
0.0
 11
-83.91184022994712
 21
-4.669076242467352
 31
0.0
  0
LINE
  5
EC
330
1F
100
AcDbEntity
  8
0
100
AcDbLine
 10
-84.62910055030056
 20
-5.083186681502481
 30
0.0
 11
-84.24321105333578
 21
-4.923346018282294
 31
0.0
  0
LINE
  5
ED
330
1F
100
AcDbEntity
  8
0
100
AcDbLine
 10
-85.04321098933578
 20
-5.137705355078414
 30
0.0
 11
-84.62910055030056
 21
-5.083186681502481
 31
0.0
  0
LINE
  5
EE
330
1F
100
AcDbEntity
  8
0
100
AcDbLine
 10
-91.24321049333585
 20
-5.137705355078414
 30
0.0
 11
-85.04321098933578
 21
-5.137705355078414
 31
0.0
  0
LINE
  5
EF
330
1F
100
AcDbEntity
  8
0
100
AcDbLine
 10
-91.65732093237126
 20
-5.0831866815023
 30
0.0
 11
-91.24321049333585
 21
-5.137705355078414
 31
0.0
  0
LINE
  5
F0
330
1F
100
AcDbEntity
  8
0
100
AcDbLine
 10
-92.04321042933604
 20
-4.923346018282114
 30
0.0
 11
-91.65732093237126
 21
-5.0831866815023
 31
0.0
  0
LINE
  5
F1
330
1F
100
AcDbEntity
  8
0
100
AcDbLine
 10
-92.37458125272471
 20
-4.669076242467262
 30
0.0
 11
-92.04321042933604
 21
-4.923346018282114
 31
0.0
  0
LINE
  5
F2
330
1F
100
AcDbEntity
  8
0
100
AcDbLine
 10
-92.62885102853976
 20
-4.337705419078682
 30
0.0
 11
-92.37458125272471
 21
-4.669076242467262
 31
0.0
  0
LINE
  5
F3
330
1F
100
AcDbEntity
  8
0
100
AcDbLine
 10
-92.7886916917601
 20
-3.951815922113627
 30
0.0
 11
-92.62885102853976
 21
-4.337705419078682
 31
0.0
  0
LINE
  5
F4
330
1F
100
AcDbEntity
  8
0
100
AcDbLine
 10
-92.84321036533603
 20
-3.537705483078407
 30
0.0
 11
-92.7886916917601
 21
-3.951815922113627
 31
0.0
  0
LINE
  5
F5
330
1F
100
AcDbEntity
  8
0
100
AcDbLine
 10
-92.78869169175992
 20
-3.123595044043007
 30
0.0
 11
-92.84321036533603
 21
-3.537705483078407
 31
0.0
  0
LINE
  5
F6
330
1F
100
AcDbEntity
  8
0
100
AcDbLine
 10
-92.62885102853976
 20
-2.737705547078404
 30
0.0
 11
-92.78869169175992
 21
-3.123595044043007
 31
0.0
  0
LINE
  5
F7
330
1F
100
AcDbEntity
  8
0
100
AcDbLine
 10
-92.37458125272454
 20
-2.406334723689734
 30
0.0
 11
-92.62885102853976
 21
-2.737705547078404
 31
0.0
  0
LINE
  5
F8
330
1F
100
AcDbEntity
  8
0
100
AcDbLine
 10
-92.04321042933586
 20
-2.152064947874701
 30
0.0
 11
-92.37458125272454
 21
-2.406334723689734
 31
0.0
  0
LINE
  5
F9
330
1F
100
AcDbEntity
  8
0
100
AcDbLine
 10
-91.65732093237108
 20
-1.992224284654514
 30
0.0
 11
-92.04321042933586
 21
-2.152064947874701
 31
0.0
  0
LINE
  5
FA
330
1F
100
AcDbEntity
  8
0
100
AcDbLine
 10
-91.24321049333585
 20
-1.937705611078761
 30
0.0
 11
-91.65732093237108
 21
-1.992224284654514
 31
0.0
  0
LINE
  5
FB
330
1F
100
AcDbEntity
  8
0
100
AcDbLine
 10
-91.24321049333585
 20
-1.937705611078761
 30
0.0
 11
-85.04321098933578
 21
-1.937705611078761
 31
0.0
  0
LINE
  5
FC
330
1F
100
AcDbEntity
  8
0
100
AcDbLine
 10
-84.62910055030056
 20
-1.992224284654694
 30
0.0
 11
-85.04321098933578
 21
-1.937705611078761
 31
0.0
  0
LINE
  5
FD
330
1F
100
AcDbEntity
  8
0
100
AcDbLine
 10
-84.24321105333578
 20
-2.152064947874701
 30
0.0
 11
-84.62910055030056
 21
-1.992224284654694
 31
0.0
  0
LINE
  5
FE
330
1F
100
AcDbEntity
  8
0
100
AcDbLine
 10
-83.91184022994729
 20
-2.406334723689553
 30
0.0
 11
-84.24321105333578
 21
-2.152064947874701
 31
0.0
  0
LINE
  5
FF
330
1F
100
AcDbEntity
  8
0
100
AcDbLine
 10
-83.6575704541319
 20
-2.737705547078494
 30
0.0
 11
-83.91184022994729
 21
-2.406334723689553
 31
0.0
  0
LINE
  5
100
330
1F
100
AcDbEntity
  8
0
100
AcDbLine
 10
-83.49772979091189
 20
-3.123595044043459
 30
0.0
 11
-83.6575704541319
 21
-2.737705547078494
 31
0.0
  0
LINE
  5
101
330
1F
100
AcDbEntity
  8
0
100
AcDbLine
 10
-83.44321111733596
 20
-3.537705483078498
 30
0.0
 11
-83.49772979091189
 21
-3.123595044043459
 31
0.0
  0
LINE
  5
102
330
1F
100
AcDbEntity
  8
0
100
AcDbLine
 10
-83.49772979091208
 20
-3.951815922113807
 30
0.0
 11
-83.44321111733596
 21
-3.537705483078498
 31
0.0
  0
LINE
  5
103
330
1F
100
AcDbEntity
  8
0
100
AcDbLine
 10
-61.62885350853938
 20
-2.737705547078313
 30
0.0
 11
-61.78869417175957
 21
-3.123595044043188
 31
0.0
  0
LINE
  5
104
330
1F
100
AcDbEntity
  8
0
100
AcDbLine
 10
-61.37458373272452
 20
-2.406334723689734
 30
0.0
 11
-61.62885350853938
 21
-2.737705547078313
 31
0.0
  0
LINE
  5
105
330
1F
100
AcDbEntity
  8
0
100
AcDbLine
 10
-61.04321290933586
 20
-2.152064947874701
 30
0.0
 11
-61.37458373272452
 21
-2.406334723689734
 31
0.0
  0
LINE
  5
106
330
1F
100
AcDbEntity
  8
0
100
AcDbLine
 10
-60.65732341237089
 20
-1.992224284654785
 30
0.0
 11
-61.04321290933586
 21
-2.152064947874701
 31
0.0
  0
LINE
  5
107
330
1F
100
AcDbEntity
  8
0
100
AcDbLine
 10
-60.24321297333567
 20
-1.93770561107858
 30
0.0
 11
-60.65732341237089
 21
-1.992224284654785
 31
0.0
  0
LINE
  5
108
330
1F
100
AcDbEntity
  8
0
100
AcDbLine
 10
-60.24321297333567
 20
-1.93770561107858
 30
0.0
 11
-54.0432134693356
 21
-1.93770561107858
 31
0.0
  0
LINE
  5
109
330
1F
100
AcDbEntity
  8
0
100
AcDbLine
 10
-53.62910303030037
 20
-1.992224284654694
 30
0.0
 11
-54.0432134693356
 21
-1.93770561107858
 31
0.0
  0
LINE
  5
10A
330
1F
100
AcDbEntity
  8
0
100
AcDbLine
 10
-53.24321353333578
 20
-2.15206494787452
 30
0.0
 11
-53.62910303030037
 21
-1.992224284654694
 31
0.0
  0
LINE
  5
10B
330
1F
100
AcDbEntity
  8
0
100
AcDbLine
 10
-52.91184270994692
 20
-2.406334723689643
 30
0.0
 11
-53.24321353333578
 21
-2.15206494787452
 31
0.0
  0
LINE
  5
10C
330
1F
100
AcDbEntity
  8
0
100
AcDbLine
 10
-52.65757293413188
 20
-2.737705547078584
 30
0.0
 11
-52.91184270994692
 21
-2.406334723689643
 31
0.0
  0
LINE
  5
10D
330
1F
100
AcDbEntity
  8
0
100
AcDbLine
 10
-52.4977322709117
 20
-3.123595044043549
 30
0.0
 11
-52.65757293413188
 21
-2.737705547078584
 31
0.0
  0
LINE
  5
10E
330
1F
100
AcDbEntity
  8
0
100
AcDbLine
 10
-52.44321359733559
 20
-3.537705483078407
 30
0.0
 11
-52.4977322709117
 21
-3.123595044043549
 31
0.0
  0
LINE
  5
10F
330
1F
100
AcDbEntity
  8
0
100
AcDbLine
 10
-52.4977322709117
 20
-3.951815922113536
 30
0.0
 11
-52.44321359733559
 21
-3.537705483078407
 31
0.0
  0
LINE
  5
110
330
1F
100
AcDbEntity
  8
0
100
AcDbLine
 10
-52.65757293413188
 20
-4.337705419078411
 30
0.0
 11
-52.4977322709117
 21
-3.951815922113536
 31
0.0
  0
LINE
  5
111
330
1F
100
AcDbEntity
  8
0
100
AcDbLine
 10
-52.91184270994692
 20
-4.669076242467262
 30
0.0
 11
-52.65757293413188
 21
-4.337705419078411
 31
0.0
  0
LINE
  5
112
330
1F
100
AcDbEntity
  8
0
100
AcDbLine
 10
-53.24321353333578
 20
-4.923346018282294
 30
0.0
 11
-52.91184270994692
 21
-4.669076242467262
 31
0.0
  0
LINE
  5
113
330
1F
100
AcDbEntity
  8
0
100
AcDbLine
 10
-53.62910303030037
 20
-5.083186681502662
 30
0.0
 11
-53.24321353333578
 21
-4.923346018282294
 31
0.0
  0
LINE
  5
114
330
1F
100
AcDbEntity
  8
0
100
AcDbLine
 10
-54.0432134693356
 20
-5.137705355078595
 30
0.0
 11
-53.62910303030037
 21
-5.083186681502662
 31
0.0
  0
LINE
  5
115
330
1F
100
AcDbEntity
  8
0
100
AcDbLine
 10
-60.24321297333567
 20
-5.137705355078595
 30
0.0
 11
-54.0432134693356
 21
-5.137705355078595
 31
0.0
  0
LINE
  5
116
330
1F
100
AcDbEntity
  8
0
100
AcDbLine
 10
-60.65732341237089
 20
-5.083186681502481
 30
0.0
 11
-60.24321297333567
 21
-5.137705355078595
 31
0.0
  0
LINE
  5
117
330
1F
100
AcDbEntity
  8
0
100
AcDbLine
 10
-61.04321290933568
 20
-4.923346018282294
 30
0.0
 11
-60.65732341237089
 21
-5.083186681502481
 31
0.0
  0
LINE
  5
118
330
1F
100
AcDbEntity
  8
0
100
AcDbLine
 10
-61.37458373272434
 20
-4.669076242467262
 30
0.0
 11
-61.04321290933568
 21
-4.923346018282294
 31
0.0
  0
LINE
  5
119
330
1F
100
AcDbEntity
  8
0
100
AcDbLine
 10
-61.62885350853956
 20
-4.337705419078411
 30
0.0
 11
-61.37458373272434
 21
-4.669076242467262
 31
0.0
  0
LINE
  5
11A
330
1F
100
AcDbEntity
  8
0
100
AcDbLine
 10
-61.78869417175957
 20
-3.951815922113627
 30
0.0
 11
-61.62885350853956
 21
-4.337705419078411
 31
0.0
  0
LINE
  5
11B
330
1F
100
AcDbEntity
  8
0
100
AcDbLine
 10
-61.84321284533568
 20
-3.537705483078407
 30
0.0
 11
-61.78869417175957
 21
-3.951815922113627
 31
0.0
  0
LINE
  5
11C
330
1F
100
AcDbEntity
  8
0
100
AcDbLine
 10
-61.78869417175957
 20
-3.123595044043188
 30
0.0
 11
-61.84321284533568
 21
-3.537705483078407
 31
0.0
  0
LINE
  5
11D
330
1F
100
AcDbEntity
  8
0
100
AcDbLine
 10
-65.66092686338078
 20
26.45117951214677
 30
0.0
 11
-69.54321222933578
 21
26.96229207692177
 31
0.0
  0
LINE
  5
11E
330
1F
100
AcDbEntity
  8
0
100
AcDbLine
 10
-62.04321282933581
 20
24.9526732944578
 30
0.0
 11
-65.66092686338078
 21
26.45117951214677
 31
0.0
  0
LINE
  5
11F
330
1F
100
AcDbEntity
  8
0
100
AcDbLine
 10
-58.93661136006584
 20
22.56889414619177
 30
0.0
 11
-62.04321282933581
 21
24.9526732944578
 31
0.0
  0
LINE
  5
120
330
1F
100
AcDbEntity
  8
0
100
AcDbLine
 10
-56.55283221179963
 20
19.46229267692175
 30
0.0
 11
-58.93661136006584
 21
22.56889414619177
 31
0.0
  0
LINE
  5
121
330
1F
100
AcDbEntity
  8
0
100
AcDbLine
 10
-55.05432599411083
 20
15.84457864287678
 30
0.0
 11
-56.55283221179963
 21
19.46229267692175
 31
0.0
  0
LINE
  5
122
330
1F
100
AcDbEntity
  8
0
100
AcDbLine
 10
-54.54321342933585
 20
11.96229327692169
 30
0.0
 11
-55.05432599411083
 21
15.84457864287678
 31
0.0
  0
LINE
  5
123
330
1F
100
AcDbEntity
  8
0
100
AcDbLine
 10
-55.05432599411083
 20
8.080007910966685
 30
0.0
 11
-54.54321342933585
 21
11.96229327692169
 31
0.0
  0
LINE
  5
124
330
1F
100
AcDbEntity
  8
0
100
AcDbLine
 10
-56.55283221179963
 20
4.46229387692163
 30
0.0
 11
-55.05432599411083
 21
8.080007910966685
 31
0.0
  0
LINE
  5
125
330
1F
100
AcDbEntity
  8
0
100
AcDbLine
 10
-58.93661136006584
 20
1.355692407651472
 30
0.0
 11
-56.55283221179963
 21
4.46229387692163
 31
0.0
  0
LINE
  5
126
330
1F
100
AcDbEntity
  8
0
100
AcDbLine
 10
-62.04321282933581
 20
-1.02808674061455
 30
0.0
 11
-58.93661136006584
 21
1.355692407651472
 31
0.0
  0
LINE
  5
127
330
1F
100
AcDbEntity
  8
0
100
AcDbLine
 10
-65.66092686338078
 20
-2.526592958303439
 30
0.0
 11
-62.04321282933581
 21
-1.02808674061455
 31
0.0
  0
LINE
  5
128
330
1F
100
AcDbEntity
  8
0
100
AcDbLine
 10
-69.54321222933578
 20
-3.037705523078428
 30
0.0
 11
-65.66092686338078
 21
-2.526592958303439
 31
0.0
  0
LINE
  5
129
330
1F
100
AcDbEntity
  8
0
100
AcDbLine
 10
-75.74321173333585
 20
-3.037705523078428
 30
0.0
 11
-69.54321222933578
 21
-3.037705523078428
 31
0.0
  0
LINE
  5
12A
330
1F
100
AcDbEntity
  8
0
100
AcDbLine
 10
-79.62549709929085
 20
-2.526592958303439
 30
0.0
 11
-75.74321173333585
 21
-3.037705523078428
 31
0.0
  0
LINE
  5
12B
330
1F
100
AcDbEntity
  8
0
100
AcDbLine
 10
-83.243211133336
 20
-1.02808674061455
 30
0.0
 11
-79.62549709929085
 21
-2.526592958303439
 31
0.0
  0
LINE
  5
12C
330
1F
100
AcDbEntity
  8
0
100
AcDbLine
 10
-86.34981260260616
 20
1.355692407651472
 30
0.0
 11
-83.243211133336
 21
-1.02808674061455
 31
0.0
  0
LINE
  5
12D
330
1F
100
AcDbEntity
  8
0
100
AcDbLine
 10
-88.73359175087218
 20
4.46229387692163
 30
0.0
 11
-86.34981260260616
 21
1.355692407651472
 31
0.0
  0
LINE
  5
12E
330
1F
100
AcDbEntity
  8
0
100
AcDbLine
 10
-90.23209796856116
 20
8.080007910966685
 30
0.0
 11
-88.73359175087218
 21
4.46229387692163
 31
0.0
  0
LINE
  5
12F
330
1F
100
AcDbEntity
  8
0
100
AcDbLine
 10
-90.74321053333614
 20
11.96229327692169
 30
0.0
 11
-90.23209796856116
 21
8.080007910966685
 31
0.0
  0
LINE
  5
130
330
1F
100
AcDbEntity
  8
0
100
AcDbLine
 10
-90.23209796856116
 20
15.84457864287678
 30
0.0
 11
-90.74321053333614
 21
11.96229327692169
 31
0.0
  0
LINE
  5
131
330
1F
100
AcDbEntity
  8
0
100
AcDbLine
 10
-88.73359175087218
 20
19.46229267692175
 30
0.0
 11
-90.23209796856116
 21
15.84457864287678
 31
0.0
  0
LINE
  5
132
330
1F
100
AcDbEntity
  8
0
100
AcDbLine
 10
-86.34981260260616
 20
22.56889414619177
 30
0.0
 11
-88.73359175087218
 21
19.46229267692175
 31
0.0
  0
LINE
  5
133
330
1F
100
AcDbEntity
  8
0
100
AcDbLine
 10
-83.243211133336
 20
24.9526732944578
 30
0.0
 11
-86.34981260260616
 21
22.56889414619177
 31
0.0
  0
LINE
  5
134
330
1F
100
AcDbEntity
  8
0
100
AcDbLine
 10
-79.62549709929085
 20
26.45117951214677
 30
0.0
 11
-83.243211133336
 21
24.9526732944578
 31
0.0
  0
LINE
  5
135
330
1F
100
AcDbEntity
  8
0
100
AcDbLine
 10
-75.74321173333585
 20
26.96229207692177
 30
0.0
 11
-79.62549709929085
 21
26.45117951214677
 31
0.0
  0
LINE
  5
136
330
1F
100
AcDbEntity
  8
0
100
AcDbLine
 10
-75.74321173333585
 20
26.96229207692177
 30
0.0
 11
-69.54321222933578
 21
26.96229207692177
 31
0.0
  0
LINE
  5
137
330
1F
100
AcDbEntity
  8
0
100
AcDbLine
 10
-52.4977322709117
 20
27.87640247595687
 30
0.0
 11
-52.6575729341317
 21
28.26229197292166
 31
0.0
  0
LINE
  5
138
330
1F
100
AcDbEntity
  8
0
100
AcDbLine
 10
-52.44321359733559
 20
27.46229203692147
 30
0.0
 11
-52.4977322709117
 21
27.87640247595687
 31
0.0
  0
LINE
  5
139
330
1F
100
AcDbEntity
  8
0
100
AcDbLine
 10
-52.4977322709117
 20
27.04818159788625
 30
0.0
 11
-52.44321359733559
 21
27.46229203692147
 31
0.0
  0
LINE
  5
13A
330
1F
100
AcDbEntity
  8
0
100
AcDbLine
 10
-52.6575729341317
 20
26.66229210092165
 30
0.0
 11
-52.4977322709117
 21
27.04818159788625
 31
0.0
  0
LINE
  5
13B
330
1F
100
AcDbEntity
  8
0
100
AcDbLine
 10
-52.91184270994674
 20
26.3309212775328
 30
0.0
 11
-52.6575729341317
 21
26.66229210092165
 31
0.0
  0
LINE
  5
13C
330
1F
100
AcDbEntity
  8
0
100
AcDbLine
 10
-53.24321353333559
 20
26.07665150171776
 30
0.0
 11
-52.91184270994674
 21
26.3309212775328
 31
0.0
  0
LINE
  5
13D
330
1F
100
AcDbEntity
  8
0
100
AcDbLine
 10
-53.62910303030037
 20
25.91681083849758
 30
0.0
 11
-53.24321353333559
 21
26.07665150171776
 31
0.0
  0
LINE
  5
13E
330
1F
100
AcDbEntity
  8
0
100
AcDbLine
 10
-54.0432134693356
 20
25.86229216492165
 30
0.0
 11
-53.62910303030037
 21
25.91681083849758
 31
0.0
  0
LINE
  5
13F
330
1F
100
AcDbEntity
  8
0
100
AcDbLine
 10
-60.24321297333567
 20
25.86229216492165
 30
0.0
 11
-54.0432134693356
 21
25.86229216492165
 31
0.0
  0
LINE
  5
140
330
1F
100
AcDbEntity
  8
0
100
AcDbLine
 10
-60.65732341237089
 20
25.91681083849758
 30
0.0
 11
-60.24321297333567
 21
25.86229216492165
 31
0.0
  0
LINE
  5
141
330
1F
100
AcDbEntity
  8
0
100
AcDbLine
 10
-61.04321290933586
 20
26.07665150171776
 30
0.0
 11
-60.65732341237089
 21
25.91681083849758
 31
0.0
  0
LINE
  5
142
330
1F
100
AcDbEntity
  8
0
100
AcDbLine
 10
-61.37458373272452
 20
26.3309212775328
 30
0.0
 11
-61.04321290933586
 21
26.07665150171776
 31
0.0
  0
LINE
  5
143
330
1F
100
AcDbEntity
  8
0
100
AcDbLine
 10
-61.62885350853973
 20
26.66229210092165
 30
0.0
 11
-61.37458373272452
 21
26.3309212775328
 31
0.0
  0
LINE
  5
144
330
1F
100
AcDbEntity
  8
0
100
AcDbLine
 10
-61.78869417175974
 20
27.04818159788625
 30
0.0
 11
-61.62885350853973
 21
26.66229210092165
 31
0.0
  0
LINE
  5
145
330
1F
100
AcDbEntity
  8
0
100
AcDbLine
 10
-61.84321284533568
 20
27.46229203692147
 30
0.0
 11
-61.78869417175974
 21
27.04818159788625
 31
0.0
  0
LINE
  5
146
330
1F
100
AcDbEntity
  8
0
100
AcDbLine
 10
-61.78869417175957
 20
27.87640247595669
 30
0.0
 11
-61.84321284533568
 21
27.46229203692147
 31
0.0
  0
LINE
  5
147
330
1F
100
AcDbEntity
  8
0
100
AcDbLine
 10
-61.62885350853956
 20
28.26229197292148
 30
0.0
 11
-61.78869417175957
 21
27.87640247595669
 31
0.0
  0
LINE
  5
148
330
1F
100
AcDbEntity
  8
0
100
AcDbLine
 10
-61.3745837327247
 20
28.59366279631033
 30
0.0
 11
-61.62885350853956
 21
28.26229197292148
 31
0.0
  0
LINE
  5
149
330
1F
100
AcDbEntity
  8
0
100
AcDbLine
 10
-61.04321290933586
 20
28.84793257212536
 30
0.0
 11
-61.3745837327247
 21
28.59366279631033
 31
0.0
  0
LINE
  5
14A
330
1F
100
AcDbEntity
  8
0
100
AcDbLine
 10
-60.65732341237106
 20
29.00777323534555
 30
0.0
 11
-61.04321290933586
 21
28.84793257212536
 31
0.0
  0
LINE
  5
14B
330
1F
100
AcDbEntity
  8
0
100
AcDbLine
 10
-60.24321297333567
 20
29.06229190892166
 30
0.0
 11
-60.65732341237106
 21
29.00777323534555
 31
0.0
  0
LINE
  5
14C
330
1F
100
AcDbEntity
  8
0
100
AcDbLine
 10
-60.24321297333567
 20
29.06229190892166
 30
0.0
 11
-54.0432134693356
 21
29.06229190892166
 31
0.0
  0
LINE
  5
14D
330
1F
100
AcDbEntity
  8
0
100
AcDbLine
 10
-53.62910303030056
 20
29.00777323534555
 30
0.0
 11
-54.0432134693356
 21
29.06229190892166
 31
0.0
  0
LINE
  5
14E
330
1F
100
AcDbEntity
  8
0
100
AcDbLine
 10
-53.24321353333578
 20
28.84793257212554
 30
0.0
 11
-53.62910303030056
 21
29.00777323534555
 31
0.0
  0
LINE
  5
14F
330
1F
100
AcDbEntity
  8
0
100
AcDbLine
 10
-52.91184270994655
 20
28.59366279631033
 30
0.0
 11
-53.24321353333578
 21
28.84793257212554
 31
0.0
  0
LINE
  5
150
330
1F
100
AcDbEntity
  8
0
100
AcDbLine
 10
-52.6575729341317
 20
28.26229197292166
 30
0.0
 11
-52.91184270994655
 21
28.59366279631033
 31
0.0
  0
LINE
  5
151
330
1F
100
AcDbEntity
  8
0
100
AcDbLine
 10
-83.65757045413226
 20
26.66229210092147
 30
0.0
 11
-83.4977297909117
 21
27.04818159788625
 31
0.0
  0
LINE
  5
152
330
1F
100
AcDbEntity
  8
0
100
AcDbLine
 10
-83.91184022994712
 20
26.3309212775328
 30
0.0
 11
-83.65757045413226
 21
26.66229210092147
 31
0.0
  0
LINE
  5
153
330
1F
100
AcDbEntity
  8
0
100
AcDbLine
 10
-84.24321105333578
 20
26.07665150171776
 30
0.0
 11
-83.91184022994712
 21
26.3309212775328
 31
0.0
  0
LINE
  5
154
330
1F
100
AcDbEntity
  8
0
100
AcDbLine
 10
-84.62910055030075
 20
25.91681083849758
 30
0.0
 11
-84.24321105333578
 21
26.07665150171776
 31
0.0
  0
LINE
  5
155
330
1F
100
AcDbEntity
  8
0
100
AcDbLine
 10
-85.04321098933596
 20
25.86229216492147
 30
0.0
 11
-84.62910055030075
 21
25.91681083849758
 31
0.0
  0
LINE
  5
156
330
1F
100
AcDbEntity
  8
0
100
AcDbLine
 10
-91.24321049333604
 20
25.86229216492147
 30
0.0
 11
-85.04321098933596
 21
25.86229216492147
 31
0.0
  0
LINE
  5
157
330
1F
100
AcDbEntity
  8
0
100
AcDbLine
 10
-91.65732093237108
 20
25.9168108384974
 30
0.0
 11
-91.24321049333604
 21
25.86229216492147
 31
0.0
  0
LINE
  5
158
330
1F
100
AcDbEntity
  8
0
100
AcDbLine
 10
-92.04321042933586
 20
26.07665150171776
 30
0.0
 11
-91.65732093237108
 21
25.9168108384974
 31
0.0
  0
LINE
  5
159
330
1F
100
AcDbEntity
  8
0
100
AcDbLine
 10
-92.37458125272471
 20
26.33092127753262
 30
0.0
 11
-92.04321042933586
 21
26.07665150171776
 31
0.0
  0
LINE
  5
15A
330
1F
100
AcDbEntity
  8
0
100
AcDbLine
 10
-92.62885102853993
 20
26.66229210092165
 30
0.0
 11
-92.37458125272471
 21
26.33092127753262
 31
0.0
  0
LINE
  5
15B
330
1F
100
AcDbEntity
  8
0
100
AcDbLine
 10
-92.78869169175992
 20
27.04818159788643
 30
0.0
 11
-92.62885102853993
 21
26.66229210092165
 31
0.0
  0
LINE
  5
15C
330
1F
100
AcDbEntity
  8
0
100
AcDbLine
 10
-92.84321036533603
 20
27.46229203692147
 30
0.0
 11
-92.78869169175992
 21
27.04818159788643
 31
0.0
  0
LINE
  5
15D
330
1F
100
AcDbEntity
  8
0
100
AcDbLine
 10
-92.78869169175992
 20
27.87640247595687
 30
0.0
 11
-92.84321036533603
 21
27.46229203692147
 31
0.0
  0
LINE
  5
15E
330
1F
100
AcDbEntity
  8
0
100
AcDbLine
 10
-92.62885102853976
 20
28.26229197292148
 30
0.0
 11
-92.78869169175992
 21
27.87640247595687
 31
0.0
  0
LINE
  5
15F
330
1F
100
AcDbEntity
  8
0
100
AcDbLine
 10
-92.37458125272471
 20
28.59366279631033
 30
0.0
 11
-92.62885102853976
 21
28.26229197292148
 31
0.0
  0
LINE
  5
160
330
1F
100
AcDbEntity
  8
0
100
AcDbLine
 10
-92.04321042933586
 20
28.84793257212536
 30
0.0
 11
-92.37458125272471
 21
28.59366279631033
 31
0.0
  0
LINE
  5
161
330
1F
100
AcDbEntity
  8
0
100
AcDbLine
 10
-91.65732093237108
 20
29.00777323534573
 30
0.0
 11
-92.04321042933586
 21
28.84793257212536
 31
0.0
  0
LINE
  5
162
330
1F
100
AcDbEntity
  8
0
100
AcDbLine
 10
-91.24321049333604
 20
29.06229190892184
 30
0.0
 11
-91.65732093237108
 21
29.00777323534573
 31
0.0
  0
LINE
  5
163
330
1F
100
AcDbEntity
  8
0
100
AcDbLine
 10
-91.24321049333604
 20
29.06229190892184
 30
0.0
 11
-85.04321098933596
 21
29.06229190892184
 31
0.0
  0
LINE
  5
164
330
1F
100
AcDbEntity
  8
0
100
AcDbLine
 10
-84.6291005503004
 20
29.00777323534573
 30
0.0
 11
-85.04321098933596
 21
29.06229190892184
 31
0.0
  0
LINE
  5
165
330
1F
100
AcDbEntity
  8
0
100
AcDbLine
 10
-84.24321105333595
 20
28.84793257212536
 30
0.0
 11
-84.6291005503004
 21
29.00777323534573
 31
0.0
  0
LINE
  5
166
330
1F
100
AcDbEntity
  8
0
100
AcDbLine
 10
-83.91184022994693
 20
28.59366279631015
 30
0.0
 11
-84.24321105333595
 21
28.84793257212536
 31
0.0
  0
LINE
  5
167
330
1F
100
AcDbEntity
  8
0
100
AcDbLine
 10
-83.65757045413226
 20
28.26229197292148
 30
0.0
 11
-83.91184022994693
 21
28.59366279631015
 31
0.0
  0
LINE
  5
168
330
1F
100
AcDbEntity
  8
0
100
AcDbLine
 10
-83.4977297909117
 20
27.87640247595669
 30
0.0
 11
-83.65757045413226
 21
28.26229197292148
 31
0.0
  0
LINE
  5
169
330
1F
100
AcDbEntity
  8
0
100
AcDbLine
 10
-83.44321111733578
 20
27.46229203692147
 30
0.0
 11
-83.4977297909117
 21
27.87640247595669
 31
0.0
  0
LINE
  5
16A
330
1F
100
AcDbEntity
  8
0
100
AcDbLine
 10
-83.4977297909117
 20
27.04818159788625
 30
0.0
 11
-83.44321111733578
 21
27.46229203692147
 31
0.0
  0
LINE
  5
16B
330
1F
100
AcDbEntity
  8
0
100
AcDbLine
 10
-81.99947660120425
 20
38.46229115692238
 30
0.0
 11
-81.99947660120425
 21
45.26229061292232
 31
0.0
  0
LINE
  5
16C
330
1F
100
AcDbEntity
  8
0
100
AcDbLine
 10
-92.3994757692043
 20
38.46229115692229
 30
0.0
 11
-81.99947660120425
 21
38.46229115692238
 31
0.0
  0
LINE
  5
16D
330
1F
100
AcDbEntity
  8
0
100
AcDbLine
 10
-92.3994757692043
 20
45.26229061292232
 30
0.0
 11
-92.3994757692043
 21
38.46229115692229
 31
0.0
  0
LINE
  5
16E
330
1F
100
AcDbEntity
  8
0
100
AcDbLine
 10
-81.99947660120425
 20
45.26229061292232
 30
0.0
 11
-92.3994757692043
 21
45.26229061292232
 31
0.0
  0
LINE
  5
16F
330
1F
100
AcDbEntity
  8
0
100
AcDbLine
 10
-81.99947660120425
 20
-21.43770405107684
 30
0.0
 11
-81.99947660120425
 21
-14.6377045950769
 31
0.0
  0
LINE
  5
170
330
1F
100
AcDbEntity
  8
0
100
AcDbLine
 10
-92.3994757692043
 20
-21.43770405107693
 30
0.0
 11
-81.99947660120425
 21
-21.43770405107684
 31
0.0
  0
LINE
  5
171
330
1F
100
AcDbEntity
  8
0
100
AcDbLine
 10
-92.3994757692043
 20
-14.6377045950769
 30
0.0
 11
-92.3994757692043
 21
-21.43770405107693
 31
0.0
  0
LINE
  5
172
330
1F
100
AcDbEntity
  8
0
100
AcDbLine
 10
-81.99947660120425
 20
-14.6377045950769
 30
0.0
 11
-92.3994757692043
 21
-14.6377045950769
 31
0.0
  0
LINE
  5
173
330
1F
100
AcDbEntity
  8
0
100
AcDbLine
 10
32.52567476891971
 20
-66.94635117439107
 30
0.0
 11
32.62557518343224
 21
-67.18753210999405
 31
0.0
  0
LINE
  5
174
330
1F
100
AcDbEntity
  8
0
100
AcDbLine
 10
14.47959710636342
 20
32.87064781146548
 30
0.0
 11
14.04963661658395
 21
32.6810836071776
 31
0.0
  0
LINE
  5
175
330
1F
100
AcDbEntity
  8
0
100
AcDbLine
 10
14.84584422138586
 20
33.16503473552375
 30
0.0
 11
14.47959710636342
 21
32.87064781146548
 31
0.0
  0
LINE
  5
176
330
1F
100
AcDbEntity
  8
0
100
AcDbLine
 10
15.12341882601452
 20
33.54418239697507
 30
0.0
 11
14.84584422138586
 21
33.16503473552375
 31
0.0
  0
LINE
  5
177
330
1F
100
AcDbEntity
  8
0
100
AcDbLine
 10
15.29340466965767
 20
33.98225250926264
 30
0.0
 11
15.12341882601452
 21
33.54418239697507
 31
0.0
  0
LINE
  5
178
330
1F
100
AcDbEntity
  8
0
100
AcDbLine
 10
15.34421749798581
 20
34.44939131817919
 30
0.0
 11
15.29340466965767
 21
33.98225250926264
 31
0.0
  0
LINE
  5
179
330
1F
100
AcDbEntity
  8
0
100
AcDbLine
 10
15.27239450072068
 20
34.9137640858806
 30
0.0
 11
15.34421749798581
 21
34.44939131817919
 31
0.0
  0
LINE
  5
17A
330
1F
100
AcDbEntity
  8
0
100
AcDbLine
 10
15.08283029643279
 20
35.34372457566006
 30
0.0
 11
15.27239450072068
 21
34.9137640858806
 31
0.0
  0
LINE
  5
17B
330
1F
100
AcDbEntity
  8
0
100
AcDbLine
 10
14.78844337237453
 20
35.70997169068251
 30
0.0
 11
15.08283029643279
 21
35.34372457566006
 31
0.0
  0
LINE
  5
17C
330
1F
100
AcDbEntity
  8
0
100
AcDbLine
 10
14.4092957109232
 20
35.98754629531118
 30
0.0
 11
14.78844337237453
 21
35.70997169068251
 31
0.0
  0
LINE
  5
17D
330
1F
100
AcDbEntity
  8
0
100
AcDbLine
 10
-10.73307092671739
 20
55.97359732517336
 30
0.0
 11
0.1792036242954366
 21
55.97359732517336
 31
0.0
  0
LINE
  5
17E
330
1F
100
AcDbEntity
  8
0
100
AcDbLine
 10
-38.62079327170375
 20
56.97359724517341
 30
0.0
 11
-38.62079327170375
 21
62.57359679717344
 31
0.0
  0
LINE
  5
17F
330
1F
100
AcDbEntity
  8
0
100
AcDbLine
 10
-38.62079327170375
 20
56.97359724517341
 30
0.0
 11
-38.58671910071886
 21
56.7147782207764
 31
0.0
  0
LINE
  5
180
330
1F
100
AcDbEntity
  8
0
100
AcDbLine
 10
-38.58671910071886
 20
56.7147782207764
 30
0.0
 11
-38.48681868620615
 21
56.47359728517343
 31
0.0
  0
LINE
  5
181
330
1F
100
AcDbEntity
  8
0
100
AcDbLine
 10
-38.48681868620615
 20
56.47359728517343
 30
0.0
 11
-38.32790007632185
 21
56.26649052055544
 31
0.0
  0
LINE
  5
182
330
1F
100
AcDbEntity
  8
0
100
AcDbLine
 10
-38.32790007632185
 20
56.26649052055544
 30
0.0
 11
-38.12079331170386
 21
56.10757191067096
 31
0.0
  0
LINE
  5
183
330
1F
100
AcDbEntity
  8
0
100
AcDbLine
 10
-38.12079331170386
 20
56.10757191067096
 30
0.0
 11
-37.8796123761008
 21
56.00767149615844
 31
0.0
  0
LINE
  5
184
330
1F
100
AcDbEntity
  8
0
100
AcDbLine
 10
-41.767464912892
 20
-69.41662063813651
 30
0.0
 11
-41.56035814827401
 21
-69.57553924802089
 31
0.0
  0
LINE
  5
185
330
1F
100
AcDbEntity
  8
0
100
AcDbLine
 10
-41.56035814827401
 20
-69.57553924802089
 30
0.0
 11
-41.31917721267095
 21
-69.6754396625335
 31
0.0
  0
LINE
  5
186
330
1F
100
AcDbEntity
  8
0
100
AcDbLine
 10
15.07576432512565
 20
-44.4147238497346
 30
0.0
 11
14.97586391061294
 21
-44.65590478533756
 31
0.0
  0
LINE
  5
187
330
1F
100
AcDbEntity
  8
0
100
AcDbLine
 10
15.10983849611072
 20
-44.15590482533758
 30
0.0
 11
15.07576432512565
 21
-44.4147238497346
 31
0.0
  0
LINE
  5
188
330
1F
100
AcDbEntity
  8
0
100
AcDbLine
 10
15.10983849611072
 20
-44.15590482533758
 30
0.0
 11
15.10983849611072
 21
-40.15590514533756
 31
0.0
  0
LINE
  5
189
330
1F
100
AcDbEntity
  8
0
100
AcDbLine
 10
15.10983849611072
 20
-40.15590514533756
 30
0.0
 11
31.30983220399666
 21
-40.15590514533756
 31
0.0
  0
LINE
  5
18A
330
1F
100
AcDbEntity
  8
0
100
AcDbLine
 10
31.30983220399666
 20
-40.15590514533756
 30
0.0
 11
31.30983220399666
 21
-44.15590482533758
 31
0.0
  0
LINE
  5
18B
330
1F
100
AcDbEntity
  8
0
100
AcDbLine
 10
31.34390637498172
 20
-44.4147238497346
 30
0.0
 11
31.30983220399666
 21
-44.15590482533758
 31
0.0
  0
LINE
  5
18C
330
1F
100
AcDbEntity
  8
0
100
AcDbLine
 10
31.44380678949425
 20
-44.65590478533756
 30
0.0
 11
31.34390637498172
 21
-44.4147238497346
 31
0.0
  0
LINE
  5
18D
330
1F
100
AcDbEntity
  8
0
100
AcDbLine
 10
31.60272539937874
 20
-44.86301154995554
 30
0.0
 11
31.44380678949425
 21
-44.65590478533756
 31
0.0
  0
LINE
  5
18E
330
1F
100
AcDbEntity
  8
0
100
AcDbLine
 10
31.80983216399672
 20
-45.02193015984003
 30
0.0
 11
31.60272539937874
 21
-44.86301154995554
 31
0.0
  0
LINE
  5
18F
330
1F
100
AcDbEntity
  8
0
100
AcDbLine
 10
14.42314288160244
 20
-55.18753306999409
 30
0.0
 11
9.423143281602464
 21
-55.18753306999409
 31
0.0
  0
LINE
  5
190
330
1F
100
AcDbEntity
  8
0
100
AcDbLine
 10
15.42314280160258
 20
-50.18753346999402
 30
0.0
 11
33.39160052593444
 21
-50.18753346999402
 31
0.0
  0
LINE
  5
191
330
1F
100
AcDbEntity
  8
0
100
AcDbLine
 10
15.16432377720557
 20
-50.22160764097909
 30
0.0
 11
15.42314280160258
 21
-50.18753346999402
 31
0.0
  0
LINE
  5
192
330
1F
100
AcDbEntity
  8
0
100
AcDbLine
 10
14.92314284160269
 20
-50.32150805549162
 30
0.0
 11
15.16432377720557
 21
-50.22160764097909
 31
0.0
  0
LINE
  5
193
330
1F
100
AcDbEntity
  8
0
100
AcDbLine
 10
14.71603607698471
 20
-50.4804266653761
 30
0.0
 11
14.92314284160269
 21
-50.32150805549162
 31
0.0
  0
LINE
  5
194
330
1F
100
AcDbEntity
  8
0
100
AcDbLine
 10
14.55711746710022
 20
-50.68753342999409
 30
0.0
 11
14.71603607698471
 21
-50.4804266653761
 31
0.0
  0
LINE
  5
195
330
1F
100
AcDbEntity
  8
0
100
AcDbLine
 10
14.45721705258751
 20
-50.92871436559705
 30
0.0
 11
14.55711746710022
 21
-50.68753342999409
 31
0.0
  0
LINE
  5
196
330
1F
100
AcDbEntity
  8
0
100
AcDbLine
 10
14.42314288160244
 20
-51.18753338999407
 30
0.0
 11
14.45721705258751
 21
-50.92871436559705
 31
0.0
  0
LINE
  5
197
330
1F
100
AcDbEntity
  8
0
100
AcDbLine
 10
14.42314288160244
 20
-55.18753306999409
 30
0.0
 11
14.42314288160244
 21
-51.18753338999407
 31
0.0
  0
LINE
  5
198
330
1F
100
AcDbEntity
  8
0
100
AcDbLine
 10
9.423143281602464
 20
-55.18753306999409
 30
0.0
 11
9.423143281602464
 21
-66.68753214999407
 31
0.0
  0
LINE
  5
199
330
1F
100
AcDbEntity
  8
0
100
AcDbLine
 10
9.457217452587534
 20
-66.94635117439107
 30
0.0
 11
9.423143281602464
 21
-66.68753214999407
 31
0.0
  0
LINE
  5
19A
330
1F
100
AcDbEntity
  8
0
100
AcDbLine
 10
9.55711786710006
 20
-67.18753210999405
 30
0.0
 11
9.457217452587534
 21
-66.94635117439107
 31
0.0
  0
LINE
  5
19B
330
1F
100
AcDbEntity
  8
0
100
AcDbLine
 10
9.716036476984545
 20
-67.39463887461203
 30
0.0
 11
9.55711786710006
 21
-67.18753210999405
 31
0.0
  0
LINE
  5
19C
330
1F
100
AcDbEntity
  8
0
100
AcDbLine
 10
9.923143241602531
 20
-67.55355748449651
 30
0.0
 11
9.716036476984545
 21
-67.39463887461203
 31
0.0
  0
LINE
  5
19D
330
1F
100
AcDbEntity
  8
0
100
AcDbLine
 10
10.16432417720541
 20
-67.65345789900904
 30
0.0
 11
9.923143241602531
 21
-67.55355748449651
 31
0.0
  0
LINE
  5
19E
330
1F
100
AcDbEntity
  8
0
100
AcDbLine
 10
10.4231432016026
 20
-67.68753206999412
 30
0.0
 11
10.16432417720541
 21
-67.65345789900904
 31
0.0
  0
LINE
  5
19F
330
1F
100
AcDbEntity
  8
0
100
AcDbLine
 10
10.4231432016026
 20
-67.68753206999412
 30
0.0
 11
15.29160697004856
 21
-67.68753206999412
 31
0.0
  0
LINE
  5
1A0
330
1F
100
AcDbEntity
  8
0
100
AcDbLine
 10
15.55042599444557
 20
-67.65345789900904
 30
0.0
 11
15.29160697004856
 21
-67.68753206999412
 31
0.0
  0
LINE
  5
1A1
330
1F
100
AcDbEntity
  8
0
100
AcDbLine
 10
15.79160693004863
 20
-67.55355748449651
 30
0.0
 11
15.55042599444557
 21
-67.65345789900904
 31
0.0
  0
LINE
  5
1A2
330
1F
100
AcDbEntity
  8
0
100
AcDbLine
 10
15.99871369466662
 20
-67.39463887461203
 30
0.0
 11
15.79160693004863
 21
-67.55355748449651
 31
0.0
  0
LINE
  5
1A3
330
1F
100
AcDbEntity
  8
0
100
AcDbLine
 10
16.1576323045511
 20
-67.18753210999405
 30
0.0
 11
15.99871369466662
 21
-67.39463887461203
 31
0.0
  0
LINE
  5
1A4
330
1F
100
AcDbEntity
  8
0
100
AcDbLine
 10
16.25753271906345
 20
-66.94635117439107
 30
0.0
 11
16.1576323045511
 21
-67.18753210999405
 31
0.0
  0
LINE
  5
1A5
330
1F
100
AcDbEntity
  8
0
100
AcDbLine
 10
16.29160689004852
 20
-66.68753214999407
 30
0.0
 11
16.25753271906345
 21
-66.94635117439107
 31
0.0
  0
LINE
  5
1A6
330
1F
100
AcDbEntity
  8
0
100
AcDbLine
 10
16.29160689004852
 20
-66.68753214999407
 30
0.0
 11
16.29160689004852
 21
-62.68753246999405
 31
0.0
  0
LINE
  5
1A7
330
1F
100
AcDbEntity
  8
0
100
AcDbLine
 10
16.29160689004852
 20
-62.68753246999405
 30
0.0
 11
32.49160059793464
 21
-62.68753246999405
 31
0.0
  0
LINE
  5
1A8
330
1F
100
AcDbEntity
  8
0
100
AcDbLine
 10
32.49160059793464
 20
-62.68753246999405
 30
0.0
 11
32.49160059793464
 21
-66.68753214999407
 31
0.0
  0
LINE
  5
1A9
330
1F
100
AcDbEntity
  8
0
100
AcDbLine
 10
32.49160059793464
 20
-66.68753214999407
 30
0.0
 11
32.52567476891971
 21
-66.94635117439107
 31
0.0
  0
LINE
  5
1AA
330
1F
100
AcDbEntity
  8
0
100
AcDbLine
 10
32.62557518343224
 20
-67.18753210999405
 30
0.0
 11
32.78449379331673
 21
-67.39463887461203
 31
0.0
  0
LINE
  5
1AB
330
1F
100
AcDbEntity
  8
0
100
AcDbLine
 10
32.78449379331673
 20
-67.39463887461203
 30
0.0
 11
32.99160055793471
 21
-67.55355748449651
 31
0.0
  0
LINE
  5
1AC
330
1F
100
AcDbEntity
  8
0
100
AcDbLine
 10
32.99160055793471
 20
-67.55355748449651
 30
0.0
 11
33.23278149353759
 21
-67.65345789900904
 31
0.0
  0
LINE
  5
1AD
330
1F
100
AcDbEntity
  8
0
100
AcDbLine
 10
33.23278149353759
 20
-67.65345789900904
 30
0.0
 11
33.49160051793478
 21
-67.68753206999412
 31
0.0
  0
LINE
  5
1AE
330
1F
100
AcDbEntity
  8
0
100
AcDbLine
 10
38.65041915033162
 20
-67.65345789900904
 30
0.0
 11
38.39160012593459
 21
-67.68753206999412
 31
0.0
  0
LINE
  5
1AF
330
1F
100
AcDbEntity
  8
0
100
AcDbLine
 10
38.89160008593467
 20
-67.55355748449651
 30
0.0
 11
38.65041915033162
 21
-67.65345789900904
 31
0.0
  0
LINE
  5
1B0
330
1F
100
AcDbEntity
  8
0
100
AcDbLine
 10
39.09870685055265
 20
-67.39463887461203
 30
0.0
 11
38.89160008593467
 21
-67.55355748449651
 31
0.0
  0
LINE
  5
1B1
330
1F
100
AcDbEntity
  8
0
100
AcDbLine
 10
39.25762546043714
 20
-67.18753210999405
 30
0.0
 11
39.09870685055265
 21
-67.39463887461203
 31
0.0
  0
LINE
  5
1B2
330
1F
100
AcDbEntity
  8
0
100
AcDbLine
 10
39.35752587494949
 20
-66.94635117439107
 30
0.0
 11
39.25762546043714
 21
-67.18753210999405
 31
0.0
  0
LINE
  5
1B3
330
1F
100
AcDbEntity
  8
0
100
AcDbLine
 10
39.39160004593456
 20
-66.68753214999407
 30
0.0
 11
39.39160004593456
 21
-55.18753306999409
 31
0.0
  0
LINE
  5
1B4
330
1F
100
AcDbEntity
  8
0
100
AcDbLine
 10
34.39160044593459
 20
-51.18753338999407
 30
0.0
 11
34.39160044593459
 21
-55.18753306999409
 31
0.0
  0
LINE
  5
1B5
330
1F
100
AcDbEntity
  8
0
100
AcDbLine
 10
34.39160044593459
 20
-51.18753338999407
 30
0.0
 11
34.35752627494951
 21
-50.92871436559705
 31
0.0
  0
LINE
  5
1B6
330
1F
100
AcDbEntity
  8
0
100
AcDbLine
 10
34.35752627494951
 20
-50.92871436559705
 30
0.0
 11
34.25762586043698
 21
-50.68753342999409
 31
0.0
  0
LINE
  5
1B7
330
1F
100
AcDbEntity
  8
0
100
AcDbLine
 10
34.25762586043698
 20
-50.68753342999409
 30
0.0
 11
34.09870725055249
 21
-50.4804266653761
 31
0.0
  0
LINE
  5
1B8
330
1F
100
AcDbEntity
  8
0
100
AcDbLine
 10
34.09870725055249
 20
-50.4804266653761
 30
0.0
 11
33.89160048593451
 21
-50.32150805549162
 31
0.0
  0
LINE
  5
1B9
330
1F
100
AcDbEntity
  8
0
100
AcDbLine
 10
33.89160048593451
 20
-50.32150805549162
 30
0.0
 11
33.65041955033163
 21
-50.22160764097909
 31
0.0
  0
LINE
  5
1BA
330
1F
100
AcDbEntity
  8
0
100
AcDbLine
 10
33.65041955033163
 20
-50.22160764097909
 30
0.0
 11
33.39160052593444
 21
-50.18753346999402
 31
0.0
  0
LINE
  5
1BB
330
1F
100
AcDbEntity
  8
0
100
AcDbLine
 10
-42.0603581082739
 20
-68.70951391351848
 30
0.0
 11
-42.0603581082739
 21
-63.10951436151841
 31
0.0
  0
LINE
  5
1BC
330
1F
100
AcDbEntity
  8
0
100
AcDbLine
 10
-42.0603581082739
 20
-68.70951391351848
 30
0.0
 11
-42.02628393728902
 21
-68.9683329379155
 31
0.0
  0
LINE
  5
1BD
330
1F
100
AcDbEntity
  8
0
100
AcDbLine
 10
-42.02628393728902
 20
-68.9683329379155
 30
0.0
 11
-41.92638352277631
 21
-69.2095138735185
 31
0.0
  0
LINE
  5
1BE
330
1F
100
AcDbEntity
  8
0
100
AcDbLine
 10
-41.92638352277631
 20
-69.2095138735185
 30
0.0
 11
-41.767464912892
 21
-69.41662063813651
 31
0.0
  0
LINE
  5
1BF
330
1F
100
AcDbEntity
  8
0
100
AcDbLine
 10
-37.88212684347814
 20
66.60772219325882
 30
0.0
 11
-38.06194758960076
 21
66.17359650917336
 31
0.0
  0
LINE
  5
1C0
330
1F
100
AcDbEntity
  8
0
100
AcDbLine
 10
-39.62079319170515
 20
68.87359629317349
 30
0.0
 11
-39.15491894779053
 21
68.81226278540053
 31
0.0
  0
LINE
  5
1C1
330
1F
100
AcDbEntity
  8
0
100
AcDbLine
 10
-39.15491894779053
 20
65.33493008894632
 30
0.0
 11
-39.62079319170515
 21
65.27359658117338
 31
0.0
  0
LINE
  5
1C2
330
1F
100
AcDbEntity
  8
0
100
AcDbLine
 10
-38.72079326370517
 20
65.51475083506904
 30
0.0
 11
-39.15491894779053
 21
65.33493008894632
 31
0.0
  0
LINE
  5
1C3
330
1F
100
AcDbEntity
  8
0
100
AcDbLine
 10
-41.35945953993217
 20
67.53947068108806
 30
0.0
 11
-41.17963879380954
 21
67.9735963651735
 31
0.0
  0
LINE
  5
1C4
330
1F
100
AcDbEntity
  8
0
100
AcDbLine
 10
-79.62078999170517
 20
91.77359446117357
 30
0.0
 11
-79.65486416269005
 21
92.03241348557059
 31
0.0
  0
LINE
  5
1C5
330
1F
100
AcDbEntity
  8
0
100
AcDbLine
 10
-25.62079431170446
 20
91.77359446117357
 30
0.0
 11
-25.62079431170446
 21
86.17359490917354
 31
0.0
  0
LINE
  5
1C6
330
1F
100
AcDbEntity
  8
0
100
AcDbLine
 10
43.14467295130131
 20
-19.64119288740283
 30
0.0
 11
43.11059878031642
 21
-19.90001191179984
 31
0.0
  0
LINE
  5
1C7
330
1F
100
AcDbEntity
  8
0
100
AcDbLine
 10
13.74137444766453
 20
-27.78988073083513
 30
0.0
 11
13.98255538326759
 21
-27.6899803163226
 31
0.0
  0
LINE
  5
1C8
330
1F
100
AcDbEntity
  8
0
100
AcDbLine
 10
110.2343311753068
 20
81.48614442375766
 30
0.0
 11
7.53606951004789
 21
81.48614442375761
 31
0.0
  0
LINE
  5
1C9
330
1F
100
AcDbEntity
  8
0
100
AcDbLine
 10
-0.6207963117042061
 20
92.63961979567603
 30
0.0
 11
-0.861977247307264
 21
92.73952021018854
 31
0.0
  0
LINE
  5
1CA
330
1F
100
AcDbEntity
  8
0
100
AcDbLine
 10
12.23941974025891
 20
-9.351714948826976
 30
0.0
 11
12.60469592946906
 21
-9.056124157504222
 31
0.0
  0
LINE
  5
1CB
330
1F
100
AcDbEntity
  8
0
100
AcDbLine
 10
-32.76197469530671
 20
56.00767149615844
 30
0.0
 11
-33.02079371970373
 21
55.97359732517336
 31
0.0
  0
LINE
  5
1CC
330
1F
100
AcDbEntity
  8
0
100
AcDbLine
 10
-37.82079333570501
 20
67.07359643717344
 30
0.0
 11
-37.88212684347814
 21
66.60772219325882
 31
0.0
  0
LINE
  5
1CD
330
1F
100
AcDbEntity
  8
0
100
AcDbLine
 10
-37.88212684347814
 20
67.53947068108806
 30
0.0
 11
-37.82079333570501
 21
67.07359643717344
 31
0.0
  0
LINE
  5
1CE
330
1F
100
AcDbEntity
  8
0
100
AcDbLine
 10
-38.34800108739258
 20
68.34638854148592
 30
0.0
 11
-38.06194758960076
 21
67.9735963651735
 31
0.0
  0
LINE
  5
1CF
330
1F
100
AcDbEntity
  8
0
100
AcDbLine
 10
-40.52079311970513
 20
68.63244203927783
 30
0.0
 11
-40.08666743561977
 21
68.81226278540053
 31
0.0
  0
LINE
  5
1D0
330
1F
100
AcDbEntity
  8
0
100
AcDbLine
 10
-40.89358529601773
 20
68.34638854148592
 30
0.0
 11
-40.52079311970513
 21
68.63244203927783
 31
0.0
  0
LINE
  5
1D1
330
1F
100
AcDbEntity
  8
0
100
AcDbLine
 10
-41.17963879380954
 20
67.9735963651735
 30
0.0
 11
-40.89358529601773
 21
68.34638854148592
 31
0.0
  0
LINE
  5
1D2
330
1F
100
AcDbEntity
  8
0
100
AcDbLine
 10
-41.4207930477053
 20
67.07359643717344
 30
0.0
 11
-41.35945953993217
 21
67.53947068108806
 31
0.0
  0
LINE
  5
1D3
330
1F
100
AcDbEntity
  8
0
100
AcDbLine
 10
-2.038259787184522
 20
70.88410790898409
 30
0.0
 11
0.1617400368157142
 21
67.07359643717344
 31
0.0
  0
LINE
  5
1D4
330
1F
100
AcDbEntity
  8
0
100
AcDbLine
 10
-6.438259435184452
 20
70.88410790898409
 30
0.0
 11
-2.038259787184522
 21
70.88410790898409
 31
0.0
  0
LINE
  5
1D5
330
1F
100
AcDbEntity
  8
0
100
AcDbLine
 10
-6.438259435184271
 20
63.26308496536279
 30
0.0
 11
-8.638259259184508
 21
67.07359643717344
 31
0.0
  0
LINE
  5
1D6
330
1F
100
AcDbEntity
  8
0
100
AcDbLine
 10
112.3576615425386
 20
-26.16626851203949
 30
0.0
 11
112.3576615425386
 21
51.86229008490168
 31
0.0
  0
LINE
  5
1D7
330
1F
100
AcDbEntity
  8
0
100
AcDbLine
 10
63.65939555728053
 20
-26.16626851203953
 30
0.0
 11
112.3576615425386
 21
-26.16626851203949
 31
0.0
  0
LINE
  5
1D8
330
1F
100
AcDbEntity
  8
0
100
AcDbLine
 10
63.65939555728053
 20
51.86229008490164
 30
0.0
 11
63.65939555728053
 21
-26.16626851203953
 31
0.0
  0
LINE
  5
1D9
330
1F
100
AcDbEntity
  8
0
100
AcDbLine
 10
80.5419331158571
 20
-13.08769456795627
 30
0.0
 11
91.5419272397433
 21
-13.087694567956
 31
0.0
  0
LINE
  5
1DA
330
1F
100
AcDbEntity
  8
0
100
AcDbLine
 10
91.5419272397433
 20
-13.087694567956
 30
0.0
 11
91.54192723974384
 21
36.91228112976142
 31
0.0
  0
LINE
  5
1DB
330
1F
100
AcDbEntity
  8
0
100
AcDbLine
 10
91.54192723974384
 20
36.91228112976142
 30
0.0
 11
80.54193311585783
 21
36.91228112976142
 31
0.0
  0
LINE
  5
1DC
330
1F
100
AcDbEntity
  8
0
100
AcDbLine
 10
80.54193311585783
 20
36.91228112976142
 30
0.0
 11
80.5419331158571
 21
-13.08769456795627
 31
0.0
  0
LINE
  5
1DD
330
1F
100
AcDbEntity
  8
0
100
AcDbLine
 10
68.45939517328056
 20
-21.23770406709733
 30
0.0
 11
68.45939517328056
 21
-14.6377045950973
 31
0.0
  0
LINE
  5
1DE
330
1F
100
AcDbEntity
  8
0
100
AcDbLine
 10
-0.1207963517043166
 20
91.77359446117357
 30
0.0
 11
-0.1207963517043166
 21
86.17359490917354
 31
0.0
  0
LINE
  5
1DF
330
1F
100
AcDbEntity
  8
0
100
AcDbLine
 10
-34.87961261610165
 20
92.73952021018854
 30
0.0
 11
-34.62079359170463
 21
92.77359438117362
 31
0.0
  0
LINE
  5
1E0
330
1F
100
AcDbEntity
  8
0
100
AcDbLine
 10
-0.1207963517043166
 20
91.77359446117357
 30
0.0
 11
-0.1548705226892075
 21
92.03241348557059
 31
0.0
  0
LINE
  5
1E1
330
1F
100
AcDbEntity
  8
0
100
AcDbLine
 10
-0.1548705226892075
 20
92.03241348557059
 30
0.0
 11
-0.2547709372019144
 21
92.27359442117356
 31
0.0
  0
LINE
  5
1E2
330
1F
100
AcDbEntity
  8
0
100
AcDbLine
 10
-0.2547709372019144
 20
92.27359442117356
 30
0.0
 11
-0.4136895470862196
 21
92.48070118579155
 31
0.0
  0
LINE
  5
1E3
330
1F
100
AcDbEntity
  8
0
100
AcDbLine
 10
-0.4136895470862196
 20
92.48070118579155
 30
0.0
 11
-0.6207963117042061
 21
92.63961979567603
 31
0.0
  0
LINE
  5
1E4
330
1F
100
AcDbEntity
  8
0
100
AcDbLine
 10
-38.72079326370517
 20
68.63244203927783
 30
0.0
 11
-38.34800108739258
 21
68.34638854148592
 31
0.0
  0
LINE
  5
1E5
330
1F
100
AcDbEntity
  8
0
100
AcDbLine
 10
47.44294248855926
 20
28.35880327259722
 30
0.0
 11
47.50427599633221
 21
28.82467751651184
 31
0.0
  0
LINE
  5
1E6
330
1F
100
AcDbEntity
  8
0
100
AcDbLine
 10
47.97015024024683
 20
27.08601116828483
 30
0.0
 11
47.68409674245483
 21
27.45880334459724
 31
0.0
  0
LINE
  5
1E7
330
1F
100
AcDbEntity
  8
0
100
AcDbLine
 10
53.64467211130116
 20
-20.64119280740337
 30
0.0
 11
56.23900823472787
 21
-20.64119280740306
 31
0.0
  0
LINE
  5
1E8
330
1F
100
AcDbEntity
  8
0
100
AcDbLine
 10
101.7125191112399
 20
65.28392319880253
 30
0.0
 11
102.4360619180489
 21
64.98422195526467
 31
0.0
  0
LINE
  5
1E9
330
1F
100
AcDbEntity
  8
0
100
AcDbLine
 10
110.2343311753068
 20
57.88614631175746
 30
0.0
 11
110.2343311753068
 21
81.48614442375766
 31
0.0
  0
LINE
  5
1EA
330
1F
100
AcDbEntity
  8
0
100
AcDbLine
 10
67.33606472604876
 20
62.38614595175741
 30
0.0
 11
67.2747312182758
 21
61.92027170784288
 31
0.0
  0
LINE
  5
1EB
330
1F
100
AcDbEntity
  8
0
100
AcDbLine
 10
102.4360619180489
 20
64.98422195526467
 30
0.0
 11
103.0573822119029
 21
64.50746612561149
 31
0.0
  0
LINE
  5
1EC
330
1F
100
AcDbEntity
  8
0
100
AcDbLine
 10
66.80885697436119
 20
63.6589380560698
 30
0.0
 11
67.094910472153
 21
63.28614587975739
 31
0.0
  0
LINE
  5
1ED
330
1F
100
AcDbEntity
  8
0
100
AcDbLine
 10
64.63606494204882
 20
60.82730034965311
 30
0.0
 11
64.26327276573639
 21
61.11335384744501
 31
0.0
  0
LINE
  5
1EE
330
1F
100
AcDbEntity
  8
0
100
AcDbLine
 10
65.07019062613418
 20
60.64747960353048
 30
0.0
 11
64.63606494204882
 21
60.82730034965311
 31
0.0
  0
LINE
  5
1EF
330
1F
100
AcDbEntity
  8
0
100
AcDbLine
 10
77.93606387804857
 20
57.88614631175741
 30
0.0
 11
61.53606519004877
 21
57.88614631175741
 31
0.0
  0
LINE
  5
1F0
330
1F
100
AcDbEntity
  8
0
100
AcDbLine
 10
110.2343311753068
 20
57.88614631175746
 30
0.0
 11
103.936061798049
 21
57.88614631175741
 31
0.0
  0
LINE
  5
1F1
330
1F
100
AcDbEntity
  8
0
100
AcDbLine
 10
50.80178794666363
 20
-3.641194167402754
 30
0.0
 11
50.98160869278625
 21
-4.075319851488159
 31
0.0
  0
LINE
  5
1F2
330
1F
100
AcDbEntity
  8
0
100
AcDbLine
 10
49.70881658847385
 20
-2.80252774717572
 30
0.0
 11
50.14294227255921
 21
-2.982348493298386
 31
0.0
  0
LINE
  5
1F3
330
1F
100
AcDbEntity
  8
0
100
AcDbLine
 10
49.24294234455922
 20
-2.741194239402728
 30
0.0
 11
49.70881658847385
 21
-2.80252774717572
 31
0.0
  0
LINE
  5
1F4
330
1F
100
AcDbEntity
  8
0
100
AcDbLine
 10
-29.0944333192595
 20
-33.65069767312125
 30
0.0
 11
-29.19433373377221
 21
-33.40951673751823
 31
0.0
  0
LINE
  5
1F5
330
1F
100
AcDbEntity
  8
0
100
AcDbLine
 10
-29.06035914827461
 20
-33.90951669751826
 30
0.0
 11
-29.0944333192595
 21
-33.65069767312125
 31
0.0
  0
LINE
  5
1F6
330
1F
100
AcDbEntity
  8
0
100
AcDbLine
 10
-29.06035914827461
 20
-33.90951669751826
 30
0.0
 11
-29.06035914827461
 21
-39.50951624951828
 31
0.0
  0
LINE
  5
1F7
330
1F
100
AcDbEntity
  8
0
100
AcDbLine
 10
-13.42638580277701
 20
-33.40951673751823
 30
0.0
 11
-13.2674671928927
 21
-33.20240997290025
 31
0.0
  0
LINE
  5
1F8
330
1F
100
AcDbEntity
  8
0
100
AcDbLine
 10
-12.46036047627431
 20
-47.50951560951835
 30
0.0
 11
-35.96035859627471
 21
-47.50951560951835
 31
0.0
  0
LINE
  5
1F9
330
1F
100
AcDbEntity
  8
0
100
AcDbLine
 10
-15.1726356832875
 20
-54.10951508151842
 30
0.0
 11
-12.46036047627431
 21
-54.10951508151842
 31
0.0
  0
LINE
  5
1FA
330
1F
100
AcDbEntity
  8
0
100
AcDbLine
 10
38.20983165199676
 20
-44.15590482533758
 30
0.0
 11
38.20983165199676
 21
-32.6559057453376
 31
0.0
  0
LINE
  5
1FB
330
1F
100
AcDbEntity
  8
0
100
AcDbLine
 10
33.2098320519966
 20
-32.6559057453376
 30
0.0
 11
38.20983165199676
 21
-32.6559057453376
 31
0.0
  0
LINE
  5
1FC
330
1F
100
AcDbEntity
  8
0
100
AcDbLine
 10
33.2098320519966
 20
-28.65590606533758
 30
0.0
 11
33.2098320519966
 21
-32.6559057453376
 31
0.0
  0
LINE
  5
1FD
330
1F
100
AcDbEntity
  8
0
100
AcDbLine
 10
33.2098320519966
 20
-28.65590606533758
 30
0.0
 11
33.17575788101153
 21
-28.39708704094057
 31
0.0
  0
LINE
  5
1FE
330
1F
100
AcDbEntity
  8
0
100
AcDbLine
 10
33.17575788101153
 20
-28.39708704094057
 30
0.0
 11
33.075857466499
 21
-28.1559061053376
 31
0.0
  0
LINE
  5
1FF
330
1F
100
AcDbEntity
  8
0
100
AcDbLine
 10
33.075857466499
 20
-28.1559061053376
 30
0.0
 11
32.91693885661451
 21
-27.94879934071961
 31
0.0
  0
LINE
  5
200
330
1F
100
AcDbEntity
  8
0
100
AcDbLine
 10
32.91693885661451
 20
-27.94879934071961
 30
0.0
 11
32.70983209199652
 21
-27.78988073083513
 31
0.0
  0
LINE
  5
201
330
1F
100
AcDbEntity
  8
0
100
AcDbLine
 10
32.70983209199652
 20
-27.78988073083513
 30
0.0
 11
32.46865115639347
 21
-27.6899803163226
 31
0.0
  0
LINE
  5
202
330
1F
100
AcDbEntity
  8
0
100
AcDbLine
 10
32.46865115639347
 20
-27.6899803163226
 30
0.0
 11
32.20983213199664
 21
-27.65590614533753
 31
0.0
  0
LINE
  5
203
330
1F
100
AcDbEntity
  8
0
100
AcDbLine
 10
14.2413744076646
 20
-27.65590614533753
 30
0.0
 11
32.20983213199664
 21
-27.65590614533753
 31
0.0
  0
LINE
  5
204
330
1F
100
AcDbEntity
  8
0
100
AcDbLine
 10
13.98255538326759
 20
-27.6899803163226
 30
0.0
 11
14.2413744076646
 21
-27.65590614533753
 31
0.0
  0
LINE
  5
205
330
1F
100
AcDbEntity
  8
0
100
AcDbLine
 10
13.53426768304654
 20
-27.94879934071961
 30
0.0
 11
13.74137444766453
 21
-27.78988073083513
 31
0.0
  0
LINE
  5
206
330
1F
100
AcDbEntity
  8
0
100
AcDbLine
 10
13.37534907316206
 20
-28.1559061053376
 30
0.0
 11
13.53426768304654
 21
-27.94879934071961
 31
0.0
  0
LINE
  5
207
330
1F
100
AcDbEntity
  8
0
100
AcDbLine
 10
13.27544865864971
 20
-28.39708704094057
 30
0.0
 11
13.37534907316206
 21
-28.1559061053376
 31
0.0
  0
LINE
  5
208
330
1F
100
AcDbEntity
  8
0
100
AcDbLine
 10
13.24137448766464
 20
-28.65590606533758
 30
0.0
 11
13.27544865864971
 21
-28.39708704094057
 31
0.0
  0
LINE
  5
209
330
1F
100
AcDbEntity
  8
0
100
AcDbLine
 10
13.24137448766464
 20
-32.6559057453376
 30
0.0
 11
13.24137448766464
 21
-28.65590606533758
 31
0.0
  0
LINE
  5
20A
330
1F
100
AcDbEntity
  8
0
100
AcDbLine
 10
8.241374887664481
 20
-32.6559057453376
 30
0.0
 11
13.24137448766464
 21
-32.6559057453376
 31
0.0
  0
LINE
  5
20B
330
1F
100
AcDbEntity
  8
0
100
AcDbLine
 10
8.241374887664481
 20
-32.6559057453376
 30
0.0
 11
8.241374887664481
 21
-44.15590482533758
 31
0.0
  0
LINE
  5
20C
330
1F
100
AcDbEntity
  8
0
100
AcDbLine
 10
8.275449058649553
 20
-44.4147238497346
 30
0.0
 11
8.241374887664481
 21
-44.15590482533758
 31
0.0
  0
LINE
  5
20D
330
1F
100
AcDbEntity
  8
0
100
AcDbLine
 10
8.375349473162078
 20
-44.65590478533756
 30
0.0
 11
8.275449058649553
 21
-44.4147238497346
 31
0.0
  0
LINE
  5
20E
330
1F
100
AcDbEntity
  8
0
100
AcDbLine
 10
8.534268083046564
 20
-44.86301154995554
 30
0.0
 11
8.375349473162078
 21
-44.65590478533756
 31
0.0
  0
LINE
  5
20F
330
1F
100
AcDbEntity
  8
0
100
AcDbLine
 10
8.74137484766455
 20
-45.02193015984003
 30
0.0
 11
8.534268083046564
 21
-44.86301154995554
 31
0.0
  0
LINE
  5
210
330
1F
100
AcDbEntity
  8
0
100
AcDbLine
 10
8.982555783267609
 20
-45.12183057435256
 30
0.0
 11
8.74137484766455
 21
-45.02193015984003
 31
0.0
  0
LINE
  5
211
330
1F
100
AcDbEntity
  8
0
100
AcDbLine
 10
9.24137480766444
 20
-45.15590474533764
 30
0.0
 11
8.982555783267609
 21
-45.12183057435256
 31
0.0
  0
LINE
  5
212
330
1F
100
AcDbEntity
  8
0
100
AcDbLine
 10
9.24137480766444
 20
-45.15590474533764
 30
0.0
 11
14.10983857611058
 21
-45.15590474533764
 31
0.0
  0
LINE
  5
213
330
1F
100
AcDbEntity
  8
0
100
AcDbLine
 10
14.36865760050759
 20
-45.12183057435256
 30
0.0
 11
14.10983857611058
 21
-45.15590474533764
 31
0.0
  0
LINE
  5
214
330
1F
100
AcDbEntity
  8
0
100
AcDbLine
 10
14.60983853611047
 20
-45.02193015984003
 30
0.0
 11
14.36865760050759
 21
-45.12183057435256
 31
0.0
  0
LINE
  5
215
330
1F
100
AcDbEntity
  8
0
100
AcDbLine
 10
14.81694530072846
 20
-44.86301154995554
 30
0.0
 11
14.60983853611047
 21
-45.02193015984003
 31
0.0
  0
LINE
  5
216
330
1F
100
AcDbEntity
  8
0
100
AcDbLine
 10
14.97586391061294
 20
-44.65590478533756
 30
0.0
 11
14.81694530072846
 21
-44.86301154995554
 31
0.0
  0
LINE
  5
217
330
1F
100
AcDbEntity
  8
0
100
AcDbLine
 10
32.05101309959979
 20
-45.12183057435256
 30
0.0
 11
31.80983216399672
 21
-45.02193015984003
 31
0.0
  0
LINE
  5
218
330
1F
100
AcDbEntity
  8
0
100
AcDbLine
 10
32.30983212399661
 20
-45.15590474533764
 30
0.0
 11
32.05101309959979
 21
-45.12183057435256
 31
0.0
  0
LINE
  5
219
330
1F
100
AcDbEntity
  8
0
100
AcDbLine
 10
32.30983212399661
 20
-45.15590474533764
 30
0.0
 11
37.20983173199662
 21
-45.15590474533764
 31
0.0
  0
LINE
  5
21A
330
1F
100
AcDbEntity
  8
0
100
AcDbLine
 10
37.46865075639363
 20
-45.12183057435256
 30
0.0
 11
37.20983173199662
 21
-45.15590474533764
 31
0.0
  0
LINE
  5
21B
330
1F
100
AcDbEntity
  8
0
100
AcDbLine
 10
37.70983169199651
 20
-45.02193015984003
 30
0.0
 11
37.46865075639363
 21
-45.12183057435256
 31
0.0
  0
LINE
  5
21C
330
1F
100
AcDbEntity
  8
0
100
AcDbLine
 10
37.9169384566145
 20
-44.86301154995554
 30
0.0
 11
37.70983169199651
 21
-45.02193015984003
 31
0.0
  0
LINE
  5
21D
330
1F
100
AcDbEntity
  8
0
100
AcDbLine
 10
38.07585706649898
 20
-44.65590478533756
 30
0.0
 11
37.9169384566145
 21
-44.86301154995554
 31
0.0
  0
LINE
  5
21E
330
1F
100
AcDbEntity
  8
0
100
AcDbLine
 10
38.17575748101169
 20
-44.4147238497346
 30
0.0
 11
38.07585706649898
 21
-44.65590478533756
 31
0.0
  0
LINE
  5
21F
330
1F
100
AcDbEntity
  8
0
100
AcDbLine
 10
38.20983165199676
 20
-44.15590482533758
 30
0.0
 11
38.17575748101169
 21
-44.4147238497346
 31
0.0
  0
LINE
  5
220
330
1F
100
AcDbEntity
  8
0
100
AcDbLine
 10
7.53606951004789
 20
81.48614442375761
 30
0.0
 11
7.53606951004789
 21
76.48614482375754
 31
0.0
  0
LINE
  5
221
330
1F
100
AcDbEntity
  8
0
100
AcDbLine
 10
7.53606951004789
 20
76.48614482375754
 30
0.0
 11
61.53606519004877
 21
57.88614631175741
 31
0.0
  0
LINE
  5
222
330
1F
100
AcDbEntity
  8
0
100
AcDbLine
 10
8.544675719300654
 20
38.45880246459765
 30
0.0
 11
8.544675719300654
 21
-14.64119328740249
 31
0.0
  0
LINE
  5
223
330
1F
100
AcDbEntity
  8
0
100
AcDbLine
 10
52.64324928750731
 20
38.45880246459729
 30
0.0
 11
43.14467295130203
 21
38.45880246459729
 31
0.0
  0
LINE
  5
224
330
1F
100
AcDbEntity
  8
0
100
AcDbLine
 10
47.68409674245483
 20
29.2588032005972
 30
0.0
 11
47.97015024024683
 21
29.63159537690979
 31
0.0
  0
LINE
  5
225
330
1F
100
AcDbEntity
  8
0
100
AcDbLine
 10
47.97015024024683
 20
29.63159537690979
 30
0.0
 11
48.34294241655906
 21
29.91764887470162
 31
0.0
  0
LINE
  5
226
330
1F
100
AcDbEntity
  8
0
100
AcDbLine
 10
13.32721424587737
 20
-6.541193935402519
 30
0.0
 11
13.32721424587737
 21
-0.2411944394024676
 31
0.0
  0
LINE
  5
227
330
1F
100
AcDbEntity
  8
0
100
AcDbLine
 10
52.64467219130102
 20
-14.6411932874029
 30
0.0
 11
43.14467295130131
 21
-14.64119328740276
 31
0.0
  0
LINE
  5
228
330
1F
100
AcDbEntity
  8
0
100
AcDbLine
 10
8.544675719300654
 20
-14.64119328740249
 30
0.0
 11
19.84467481530087
 21
-14.64119328740249
 31
0.0
  0
LINE
  5
229
330
1F
100
AcDbEntity
  8
0
100
AcDbLine
 10
19.84467481530087
 20
38.45880246459765
 30
0.0
 11
19.84467481530087
 21
43.45880206459753
 31
0.0
  0
LINE
  5
22A
330
1F
100
AcDbEntity
  8
0
100
AcDbLine
 10
-44.6192036303797
 20
-57.70951479351834
 30
0.0
 11
-44.33315013258787
 21
-57.33672261720593
 31
0.0
  0
LINE
  5
22B
330
1F
100
AcDbEntity
  8
0
100
AcDbLine
 10
-44.33315013258787
 20
-57.33672261720593
 30
0.0
 11
-43.96035795627529
 21
-57.05066911941402
 31
0.0
  0
LINE
  5
22C
330
1F
100
AcDbEntity
  8
0
100
AcDbLine
 10
-42.16035810027532
 20
-57.05066911941402
 30
0.0
 11
-41.78756592396273
 21
-57.33672261720593
 31
0.0
  0
LINE
  5
22D
330
1F
100
AcDbEntity
  8
0
100
AcDbLine
 10
-41.78756592396273
 20
-57.33672261720593
 30
0.0
 11
-41.50151242617091
 21
-57.70951479351834
 31
0.0
  0
LINE
  5
22E
330
1F
100
AcDbEntity
  8
0
100
AcDbLine
 10
-36.20153953187687
 20
-69.6754396625335
 30
0.0
 11
-36.46035855627387
 21
-69.70951383351849
 31
0.0
  0
LINE
  5
22F
330
1F
100
AcDbEntity
  8
0
100
AcDbLine
 10
-35.96035859627381
 20
-69.57553924802089
 30
0.0
 11
-36.20153953187687
 21
-69.6754396625335
 31
0.0
  0
LINE
  5
230
330
1F
100
AcDbEntity
  8
0
100
AcDbLine
 10
-35.75325183165582
 20
-69.41662063813651
 30
0.0
 11
-35.96035859627381
 21
-69.57553924802089
 31
0.0
  0
LINE
  5
231
330
1F
100
AcDbEntity
  8
0
100
AcDbLine
 10
69.52389107119174
 20
35.9911031531523
 30
0.0
 11
69.90306061665704
 21
35.71355844304169
 31
0.0
  0
LINE
  5
232
330
1F
100
AcDbEntity
  8
0
100
AcDbLine
 10
69.96066211941933
 20
33.16862602152645
 30
0.0
 11
69.59443821628435
 21
32.87421022186331
 31
0.0
  0
LINE
  5
233
330
1F
100
AcDbEntity
  8
0
100
AcDbLine
 10
69.59443821628435
 20
32.87421022186331
 30
0.0
 11
69.16449267391009
 21
32.68461211820419
 31
0.0
  0
LINE
  5
234
330
1F
100
AcDbEntity
  8
0
100
AcDbLine
 10
69.16449267391009
 20
32.68461211820419
 30
0.0
 11
68.70012557049037
 21
32.61275250798792
 31
0.0
  0
LINE
  5
235
330
1F
100
AcDbEntity
  8
0
100
AcDbLine
 10
-35.96035859627471
 20
-54.10951508151842
 30
0.0
 11
-30.1778226477559
 21
-54.10951508151842
 31
0.0
  0
LINE
  5
236
330
1F
100
AcDbEntity
  8
0
100
AcDbLine
 10
105.9165077846428
 20
-5.437705331098742
 30
0.0
 11
105.630454286851
 21
-5.810497507411154
 31
0.0
  0
LINE
  5
237
330
1F
100
AcDbEntity
  8
0
100
AcDbLine
 10
105.630454286851
 20
-5.810497507411154
 30
0.0
 11
105.2576621105385
 21
-6.096551005203112
 31
0.0
  0
LINE
  5
238
330
1F
100
AcDbEntity
  8
0
100
AcDbLine
 10
-41.26035817227516
 20
-58.60951472151842
 30
0.0
 11
-41.32169168004829
 21
-59.07538896543304
 31
0.0
  0
LINE
  5
239
330
1F
100
AcDbEntity
  8
0
100
AcDbLine
 10
-41.50151242617091
 20
-59.50951464951849
 30
0.0
 11
-41.78756592396273
 21
-59.8823068258309
 31
0.0
  0
LINE
  5
23A
330
1F
100
AcDbEntity
  8
0
100
AcDbLine
 10
12.0096058654026
 20
-11.53117300123428
 30
0.0
 11
11.81862752054058
 21
-11.10183876999642
 31
0.0
  0
LINE
  5
23B
330
1F
100
AcDbEntity
  8
0
100
AcDbLine
 10
52.64467219130102
 20
-14.6411932874029
 30
0.0
 11
52.64467219130102
 21
-19.64119288740337
 31
0.0
  0
LINE
  5
23C
330
1F
100
AcDbEntity
  8
0
100
AcDbLine
 10
48.34294241655925
 20
-6.100039697507176
 30
0.0
 11
47.97015024024683
 21
-5.813986199715219
 31
0.0
  0
LINE
  5
23D
330
1F
100
AcDbEntity
  8
0
100
AcDbLine
 10
1.637908276983466
 20
-47.51329211903152
 30
0.0
 11
1.637908276983466
 21
-39.50951624951824
 31
0.0
  0
LINE
  5
23E
330
1F
100
AcDbEntity
  8
0
100
AcDbLine
 10
-3.560361188274467
 20
-39.50951624951828
 30
0.0
 11
1.637908276983466
 21
-39.50951624951824
 31
0.0
  0
LINE
  5
23F
330
1F
100
AcDbEntity
  8
0
100
AcDbLine
 10
-3.560361188274467
 20
-33.90951669751826
 30
0.0
 11
-3.560361188274467
 21
-39.50951624951828
 31
0.0
  0
LINE
  5
240
330
1F
100
AcDbEntity
  8
0
100
AcDbLine
 10
-3.594435359259359
 20
-33.65069767312125
 30
0.0
 11
-3.560361188274467
 21
-33.90951669751826
 31
0.0
  0
LINE
  5
241
330
1F
100
AcDbEntity
  8
0
100
AcDbLine
 10
-3.694335773772066
 20
-33.40951673751823
 30
0.0
 11
-3.594435359259359
 21
-33.65069767312125
 31
0.0
  0
LINE
  5
242
330
1F
100
AcDbEntity
  8
0
100
AcDbLine
 10
-3.853254383656371
 20
-33.20240997290025
 30
0.0
 11
-3.694335773772066
 21
-33.40951673751823
 31
0.0
  0
LINE
  5
243
330
1F
100
AcDbEntity
  8
0
100
AcDbLine
 10
-4.060361148274358
 20
-33.04349136301585
 30
0.0
 11
-3.853254383656371
 21
-33.20240997290025
 31
0.0
  0
LINE
  5
244
330
1F
100
AcDbEntity
  8
0
100
AcDbLine
 10
-4.301542083877415
 20
-32.94359094850324
 30
0.0
 11
-4.060361148274358
 21
-33.04349136301585
 31
0.0
  0
LINE
  5
245
330
1F
100
AcDbEntity
  8
0
100
AcDbLine
 10
-4.560361108274427
 20
-32.90951677751826
 30
0.0
 11
-4.301542083877415
 21
-32.94359094850324
 31
0.0
  0
LINE
  5
246
330
1F
100
AcDbEntity
  8
0
100
AcDbLine
 10
-4.560361108274427
 20
-32.90951677751826
 30
0.0
 11
-12.56036046827465
 21
-32.90951677751826
 31
0.0
  0
LINE
  5
247
330
1F
100
AcDbEntity
  8
0
100
AcDbLine
 10
-12.81917949267166
 20
-32.94359094850324
 30
0.0
 11
-12.56036046827465
 21
-32.90951677751826
 31
0.0
  0
LINE
  5
248
330
1F
100
AcDbEntity
  8
0
100
AcDbLine
 10
-13.06036042827472
 20
-33.04349136301585
 30
0.0
 11
-12.81917949267166
 21
-32.94359094850324
 31
0.0
  0
LINE
  5
249
330
1F
100
AcDbEntity
  8
0
100
AcDbLine
 10
-13.2674671928927
 20
-33.20240997290025
 30
0.0
 11
-13.06036042827472
 21
-33.04349136301585
 31
0.0
  0
LINE
  5
24A
330
1F
100
AcDbEntity
  8
0
100
AcDbLine
 10
-13.52628621728971
 20
-33.65069767312125
 30
0.0
 11
-13.42638580277701
 21
-33.40951673751823
 31
0.0
  0
LINE
  5
24B
330
1F
100
AcDbEntity
  8
0
100
AcDbLine
 10
-13.5603603882746
 20
-33.90951669751826
 30
0.0
 11
-13.52628621728971
 21
-33.65069767312125
 31
0.0
  0
LINE
  5
24C
330
1F
100
AcDbEntity
  8
0
100
AcDbLine
 10
-13.5603603882746
 20
-39.50951624951828
 30
0.0
 11
-13.5603603882746
 21
-33.90951669751826
 31
0.0
  0
LINE
  5
24D
330
1F
100
AcDbEntity
  8
0
100
AcDbLine
 10
-29.06035914827461
 20
-39.50951624951828
 30
0.0
 11
-13.5603603882746
 21
-39.50951624951828
 31
0.0
  0
LINE
  5
24E
330
1F
100
AcDbEntity
  8
0
100
AcDbLine
 10
-29.19433373377221
 20
-33.40951673751823
 30
0.0
 11
-29.35325234365651
 21
-33.20240997290025
 31
0.0
  0
LINE
  5
24F
330
1F
100
AcDbEntity
  8
0
100
AcDbLine
 10
-29.35325234365651
 20
-33.20240997290025
 30
0.0
 11
-29.5603591082745
 21
-33.04349136301585
 31
0.0
  0
LINE
  5
250
330
1F
100
AcDbEntity
  8
0
100
AcDbLine
 10
-29.5603591082745
 20
-33.04349136301585
 30
0.0
 11
-29.80154004387756
 21
-32.94359094850324
 31
0.0
  0
LINE
  5
251
330
1F
100
AcDbEntity
  8
0
100
AcDbLine
 10
-29.80154004387756
 20
-32.94359094850324
 30
0.0
 11
-30.06035906827457
 21
-32.90951677751826
 31
0.0
  0
LINE
  5
252
330
1F
100
AcDbEntity
  8
0
100
AcDbLine
 10
-30.06035906827457
 20
-32.90951677751826
 30
0.0
 11
-38.06035842827479
 21
-32.90951677751826
 31
0.0
  0
LINE
  5
253
330
1F
100
AcDbEntity
  8
0
100
AcDbLine
 10
-38.31917745267179
 20
-32.94359094850324
 30
0.0
 11
-38.06035842827479
 21
-32.90951677751826
 31
0.0
  0
LINE
  5
254
330
1F
100
AcDbEntity
  8
0
100
AcDbLine
 10
-38.56035838827486
 20
-33.04349136301585
 30
0.0
 11
-38.31917745267179
 21
-32.94359094850324
 31
0.0
  0
LINE
  5
255
330
1F
100
AcDbEntity
  8
0
100
AcDbLine
 10
-38.76746515289285
 20
-33.20240997290025
 30
0.0
 11
-38.56035838827486
 21
-33.04349136301585
 31
0.0
  0
LINE
  5
256
330
1F
100
AcDbEntity
  8
0
100
AcDbLine
 10
-38.92638376277714
 20
-33.40951673751823
 30
0.0
 11
-38.76746515289285
 21
-33.20240997290025
 31
0.0
  0
LINE
  5
257
330
1F
100
AcDbEntity
  8
0
100
AcDbLine
 10
-39.02628417728985
 20
-33.65069767312125
 30
0.0
 11
-38.92638376277714
 21
-33.40951673751823
 31
0.0
  0
LINE
  5
258
330
1F
100
AcDbEntity
  8
0
100
AcDbLine
 10
-39.06035834827475
 20
-33.90951669751826
 30
0.0
 11
-39.02628417728985
 21
-33.65069767312125
 31
0.0
  0
LINE
  5
259
330
1F
100
AcDbEntity
  8
0
100
AcDbLine
 10
-39.06035834827475
 20
-33.90951669751826
 30
0.0
 11
-39.06035834827475
 21
-39.50951624951828
 31
0.0
  0
LINE
  5
25A
330
1F
100
AcDbEntity
  8
0
100
AcDbLine
 10
-83.06035482827531
 20
-39.50951624951828
 30
0.0
 11
-39.06035834827475
 21
-39.50951624951828
 31
0.0
  0
LINE
  5
25B
330
1F
100
AcDbEntity
  8
0
100
AcDbLine
 10
-83.06035482827531
 20
-33.90951669751826
 30
0.0
 11
-83.06035482827531
 21
-39.50951624951828
 31
0.0
  0
LINE
  5
25C
330
1F
100
AcDbEntity
  8
0
100
AcDbLine
 10
-83.0944289992602
 20
-33.65069767312125
 30
0.0
 11
-83.06035482827531
 21
-33.90951669751826
 31
0.0
  0
LINE
  5
25D
330
1F
100
AcDbEntity
  8
0
100
AcDbLine
 10
-83.19432941377292
 20
-33.40951673751823
 30
0.0
 11
-83.0944289992602
 21
-33.65069767312125
 31
0.0
  0
LINE
  5
25E
330
1F
100
AcDbEntity
  8
0
100
AcDbLine
 10
-83.35324802365722
 20
-33.20240997290025
 30
0.0
 11
-83.19432941377292
 21
-33.40951673751823
 31
0.0
  0
LINE
  5
25F
330
1F
100
AcDbEntity
  8
0
100
AcDbLine
 10
-83.5603547882752
 20
-33.04349136301585
 30
0.0
 11
-83.35324802365722
 21
-33.20240997290025
 31
0.0
  0
LINE
  5
260
330
1F
100
AcDbEntity
  8
0
100
AcDbLine
 10
-83.80153572387826
 20
-32.94359094850324
 30
0.0
 11
-83.5603547882752
 21
-33.04349136301585
 31
0.0
  0
LINE
  5
261
330
1F
100
AcDbEntity
  8
0
100
AcDbLine
 10
-84.06035474827527
 20
-32.90951677751826
 30
0.0
 11
-83.80153572387826
 21
-32.94359094850324
 31
0.0
  0
LINE
  5
262
330
1F
100
AcDbEntity
  8
0
100
AcDbLine
 10
-84.06035474827527
 20
-32.90951677751826
 30
0.0
 11
-92.06035410827549
 21
-32.90951677751826
 31
0.0
  0
LINE
  5
263
330
1F
100
AcDbEntity
  8
0
100
AcDbLine
 10
-92.3191731326725
 20
-32.94359094850324
 30
0.0
 11
-92.06035410827549
 21
-32.90951677751826
 31
0.0
  0
LINE
  5
264
330
1F
100
AcDbEntity
  8
0
100
AcDbLine
 10
-93.06035402827544
 20
-33.90951669751826
 30
0.0
 11
-93.02627985729056
 21
-33.65069767312125
 31
0.0
  0
LINE
  5
265
330
1F
100
AcDbEntity
  8
0
100
AcDbLine
 10
-93.06035402827544
 20
-33.90951669751826
 30
0.0
 11
-93.06035402827544
 21
-39.50951624951828
 31
0.0
  0
LINE
  5
266
330
1F
100
AcDbEntity
  8
0
100
AcDbLine
 10
-101.0603533882755
 20
-39.50951624951828
 30
0.0
 11
-93.06035402827544
 21
-39.50951624951828
 31
0.0
  0
LINE
  5
267
330
1F
100
AcDbEntity
  8
0
100
AcDbLine
 10
-101.0603533882755
 20
-39.50951624951828
 30
0.0
 11
-101.0603533882755
 21
-44.50951584951838
 31
0.0
  0
LINE
  5
268
330
1F
100
AcDbEntity
  8
0
100
AcDbLine
 10
-101.0603533882755
 20
-44.50951584951838
 30
0.0
 11
-47.06035770827478
 21
-63.10951436151841
 31
0.0
  0
LINE
  5
269
330
1F
100
AcDbEntity
  8
0
100
AcDbLine
 10
-42.0603581082739
 20
-63.10951436151841
 30
0.0
 11
-47.06035770827478
 21
-63.10951436151841
 31
0.0
  0
LINE
  5
26A
330
1F
100
AcDbEntity
  8
0
100
AcDbLine
 10
-41.31917721267095
 20
-69.6754396625335
 30
0.0
 11
-41.06035818827394
 21
-69.70951383351849
 31
0.0
  0
LINE
  5
26B
330
1F
100
AcDbEntity
  8
0
100
AcDbLine
 10
-41.06035818827394
 20
-69.70951383351849
 30
0.0
 11
-36.46035855627387
 21
-69.70951383351849
 31
0.0
  0
LINE
  5
26C
330
1F
100
AcDbEntity
  8
0
100
AcDbLine
 10
-35.59433322177151
 20
-69.2095138735185
 30
0.0
 11
-35.75325183165582
 21
-69.41662063813651
 31
0.0
  0
LINE
  5
26D
330
1F
100
AcDbEntity
  8
0
100
AcDbLine
 10
-35.4944328072588
 20
-68.9683329379155
 30
0.0
 11
-35.59433322177151
 21
-69.2095138735185
 31
0.0
  0
LINE
  5
26E
330
1F
100
AcDbEntity
  8
0
100
AcDbLine
 10
-35.46035863627392
 20
-68.70951391351848
 30
0.0
 11
-35.4944328072588
 21
-68.9683329379155
 31
0.0
  0
LINE
  5
26F
330
1F
100
AcDbEntity
  8
0
100
AcDbLine
 10
-35.46035863627392
 20
-68.70951391351848
 30
0.0
 11
-35.46035863627392
 21
-63.10951436151841
 31
0.0
  0
LINE
  5
270
330
1F
100
AcDbEntity
  8
0
100
AcDbLine
 10
-35.46035863627392
 20
-63.10951436151841
 30
0.0
 11
-30.1778226477559
 21
-63.10951436151841
 31
0.0
  0
LINE
  5
271
330
1F
100
AcDbEntity
  8
0
100
AcDbLine
 10
-30.1778226477559
 20
-63.10951436151841
 30
0.0
 11
-30.1778226477559
 21
-54.10951508151842
 31
0.0
  0
LINE
  5
272
330
1F
100
AcDbEntity
  8
0
100
AcDbLine
 10
-35.96035859627471
 20
-47.50951560951835
 30
0.0
 11
-35.96035859627471
 21
-54.10951508151842
 31
0.0
  0
LINE
  5
273
330
1F
100
AcDbEntity
  8
0
100
AcDbLine
 10
-12.46036047627431
 20
-54.10951508151842
 30
0.0
 11
-12.46036047627431
 21
-47.50951560951835
 31
0.0
  0
LINE
  5
274
330
1F
100
AcDbEntity
  8
0
100
AcDbLine
 10
-15.1726356832875
 20
-68.70951391351848
 30
0.0
 11
-15.1726356832875
 21
-54.10951508151842
 31
0.0
  0
LINE
  5
275
330
1F
100
AcDbEntity
  8
0
100
AcDbLine
 10
-15.13856151230261
 20
-68.9683329379155
 30
0.0
 11
-15.1726356832875
 21
-68.70951391351848
 31
0.0
  0
LINE
  5
276
330
1F
100
AcDbEntity
  8
0
100
AcDbLine
 10
-15.03866109778991
 20
-69.2095138735185
 30
0.0
 11
-15.13856151230261
 21
-68.9683329379155
 31
0.0
  0
LINE
  5
277
330
1F
100
AcDbEntity
  8
0
100
AcDbLine
 10
-14.8797424879056
 20
-69.41662063813651
 30
0.0
 11
-15.03866109778991
 21
-69.2095138735185
 31
0.0
  0
LINE
  5
278
330
1F
100
AcDbEntity
  8
0
100
AcDbLine
 10
-14.67263572328761
 20
-69.57553924802089
 30
0.0
 11
-14.8797424879056
 21
-69.41662063813651
 31
0.0
  0
LINE
  5
279
330
1F
100
AcDbEntity
  8
0
100
AcDbLine
 10
-14.43145478768456
 20
-69.6754396625335
 30
0.0
 11
-14.67263572328761
 21
-69.57553924802089
 31
0.0
  0
LINE
  5
27A
330
1F
100
AcDbEntity
  8
0
100
AcDbLine
 10
-14.17263576328755
 20
-69.70951383351849
 30
0.0
 11
-14.43145478768456
 21
-69.6754396625335
 31
0.0
  0
LINE
  5
27B
330
1F
100
AcDbEntity
  8
0
100
AcDbLine
 10
-14.17263576328755
 20
-69.70951383351849
 30
0.0
 11
-3.260361212274714
 21
-69.70951383351849
 31
0.0
  0
LINE
  5
27C
330
1F
100
AcDbEntity
  8
0
100
AcDbLine
 10
-3.001542187877702
 20
-69.6754396625335
 30
0.0
 11
-3.260361212274714
 21
-69.70951383351849
 31
0.0
  0
LINE
  5
27D
330
1F
100
AcDbEntity
  8
0
100
AcDbLine
 10
-2.760361252274645
 20
-69.57553924802089
 30
0.0
 11
-3.001542187877702
 21
-69.6754396625335
 31
0.0
  0
LINE
  5
27E
330
1F
100
AcDbEntity
  8
0
100
AcDbLine
 10
-2.553254487656658
 20
-69.41662063813651
 30
0.0
 11
-2.760361252274645
 21
-69.57553924802089
 31
0.0
  0
LINE
  5
27F
330
1F
100
AcDbEntity
  8
0
100
AcDbLine
 10
-2.394335877772353
 20
-69.2095138735185
 30
0.0
 11
-2.553254487656658
 21
-69.41662063813651
 31
0.0
  0
LINE
  5
280
330
1F
100
AcDbEntity
  8
0
100
AcDbLine
 10
-2.294435463259646
 20
-68.9683329379155
 30
0.0
 11
-2.394335877772353
 21
-69.2095138735185
 31
0.0
  0
LINE
  5
281
330
1F
100
AcDbEntity
  8
0
100
AcDbLine
 10
-2.260361292274755
 20
-68.70951391351852
 30
0.0
 11
-2.294435463259646
 21
-68.9683329379155
 31
0.0
  0
LINE
  5
282
330
1F
100
AcDbEntity
  8
0
100
AcDbLine
 10
-2.260361292274574
 20
-63.10951436151841
 30
0.0
 11
-2.260361292274755
 21
-68.70951391351852
 31
0.0
  0
LINE
  5
283
330
1F
100
AcDbEntity
  8
0
100
AcDbLine
 10
-2.260361292274574
 20
-63.10951436151841
 30
0.0
 11
1.637908276983285
 21
-63.10951436151836
 31
0.0
  0
LINE
  5
284
330
1F
100
AcDbEntity
  8
0
100
AcDbLine
 10
1.637908276983285
 20
-63.10951436151836
 30
0.0
 11
1.637908276983285
 21
-54.11329371551115
 31
0.0
  0
LINE
  5
285
330
1F
100
AcDbEntity
  8
0
100
AcDbLine
 10
1.637908276983285
 20
-54.11329371551115
 30
0.0
 11
-3.165553097633671
 21
-54.10951508151842
 31
0.0
  0
LINE
  5
286
330
1F
100
AcDbEntity
  8
0
100
AcDbLine
 10
-3.165553097633671
 20
-54.10951508151842
 30
0.0
 11
-3.160361220274376
 21
-47.50951560951835
 31
0.0
  0
LINE
  5
287
330
1F
100
AcDbEntity
  8
0
100
AcDbLine
 10
-3.160361220274376
 20
-47.50951560951835
 30
0.0
 11
1.637908276983466
 21
-47.51329211903152
 31
0.0
  0
LINE
  5
288
330
1F
100
AcDbEntity
  8
0
100
AcDbLine
 10
-5.477824623754673
 20
-54.79900324970777
 30
0.0
 11
-3.277824799754437
 21
-58.60951472151842
 31
0.0
  0
LINE
  5
289
330
1F
100
AcDbEntity
  8
0
100
AcDbLine
 10
-3.277824799754437
 20
-58.60951472151842
 30
0.0
 11
-5.477824623754493
 21
-62.42002619332906
 31
0.0
  0
LINE
  5
28A
330
1F
100
AcDbEntity
  8
0
100
AcDbLine
 10
-5.477824623754493
 20
-62.42002619332906
 30
0.0
 11
-9.877824271754422
 21
-62.42002619332906
 31
0.0
  0
LINE
  5
28B
330
1F
100
AcDbEntity
  8
0
100
AcDbLine
 10
-9.877824271754422
 20
-62.42002619332906
 30
0.0
 11
-12.07782409575466
 21
-58.60951472151842
 31
0.0
  0
LINE
  5
28C
330
1F
100
AcDbEntity
  8
0
100
AcDbLine
 10
-12.07782409575466
 20
-58.60951472151842
 30
0.0
 11
-9.877824271754603
 21
-54.79900324970777
 31
0.0
  0
LINE
  5
28D
330
1F
100
AcDbEntity
  8
0
100
AcDbLine
 10
-9.877824271754603
 20
-54.79900324970777
 30
0.0
 11
-5.477824623754673
 21
-54.79900324970777
 31
0.0
  0
LINE
  5
28E
330
1F
100
AcDbEntity
  8
0
100
AcDbLine
 10
-44.79902437650232
 20
-59.07538896543304
 30
0.0
 11
-44.86035788427544
 21
-58.60951472151842
 31
0.0
  0
LINE
  5
28F
330
1F
100
AcDbEntity
  8
0
100
AcDbLine
 10
-44.86035788427544
 20
-58.60951472151842
 30
0.0
 11
-44.79902437650232
 21
-58.1436404776038
 31
0.0
  0
LINE
  5
290
330
1F
100
AcDbEntity
  8
0
100
AcDbLine
 10
-44.79902437650232
 20
-58.1436404776038
 30
0.0
 11
-44.6192036303797
 21
-57.70951479351834
 31
0.0
  0
LINE
  5
291
330
1F
100
AcDbEntity
  8
0
100
AcDbLine
 10
-43.96035795627529
 20
-57.05066911941402
 30
0.0
 11
-43.52623227218993
 21
-56.87084837329131
 31
0.0
  0
LINE
  5
292
330
1F
100
AcDbEntity
  8
0
100
AcDbLine
 10
-43.52623227218993
 20
-56.87084837329131
 30
0.0
 11
-43.06035802827531
 21
-56.80951486551837
 31
0.0
  0
LINE
  5
293
330
1F
100
AcDbEntity
  8
0
100
AcDbLine
 10
-43.06035802827531
 20
-56.80951486551837
 30
0.0
 11
-42.59448378436068
 21
-56.87084837329131
 31
0.0
  0
LINE
  5
294
330
1F
100
AcDbEntity
  8
0
100
AcDbLine
 10
-42.59448378436068
 20
-56.87084837329131
 30
0.0
 11
-42.16035810027532
 21
-57.05066911941402
 31
0.0
  0
LINE
  5
295
330
1F
100
AcDbEntity
  8
0
100
AcDbLine
 10
-41.50151242617091
 20
-57.70951479351834
 30
0.0
 11
-41.32169168004829
 21
-58.1436404776038
 31
0.0
  0
LINE
  5
296
330
1F
100
AcDbEntity
  8
0
100
AcDbLine
 10
-41.32169168004829
 20
-58.1436404776038
 30
0.0
 11
-41.26035817227516
 21
-58.60951472151842
 31
0.0
  0
LINE
  5
297
330
1F
100
AcDbEntity
  8
0
100
AcDbLine
 10
-41.32169168004829
 20
-59.07538896543304
 30
0.0
 11
-41.50151242617091
 21
-59.50951464951849
 31
0.0
  0
LINE
  5
298
330
1F
100
AcDbEntity
  8
0
100
AcDbLine
 10
-41.78756592396273
 20
-59.8823068258309
 30
0.0
 11
-42.16035810027532
 21
-60.16836032362281
 31
0.0
  0
LINE
  5
299
330
1F
100
AcDbEntity
  8
0
100
AcDbLine
 10
-42.16035810027532
 20
-60.16836032362281
 30
0.0
 11
-42.59448378436068
 21
-60.34818106974552
 31
0.0
  0
LINE
  5
29A
330
1F
100
AcDbEntity
  8
0
100
AcDbLine
 10
-42.59448378436068
 20
-60.34818106974552
 30
0.0
 11
-43.06035802827531
 21
-60.40951457751847
 31
0.0
  0
LINE
  5
29B
330
1F
100
AcDbEntity
  8
0
100
AcDbLine
 10
-43.06035802827531
 20
-60.40951457751847
 30
0.0
 11
-43.52623227218993
 21
-60.34818106974552
 31
0.0
  0
LINE
  5
29C
330
1F
100
AcDbEntity
  8
0
100
AcDbLine
 10
-43.52623227218993
 20
-60.34818106974552
 30
0.0
 11
-43.96035795627529
 21
-60.16836032362281
 31
0.0
  0
LINE
  5
29D
330
1F
100
AcDbEntity
  8
0
100
AcDbLine
 10
-43.96035795627529
 20
-60.16836032362281
 30
0.0
 11
-44.33315013258787
 21
-59.8823068258309
 31
0.0
  0
LINE
  5
29E
330
1F
100
AcDbEntity
  8
0
100
AcDbLine
 10
-44.33315013258787
 20
-59.8823068258309
 30
0.0
 11
-44.6192036303797
 21
-59.50951464951849
 31
0.0
  0
LINE
  5
29F
330
1F
100
AcDbEntity
  8
0
100
AcDbLine
 10
-44.6192036303797
 20
-59.50951464951849
 30
0.0
 11
-44.79902437650232
 21
-59.07538896543304
 31
0.0
  0
LINE
  5
2A0
330
1F
100
AcDbEntity
  8
0
100
AcDbLine
 10
106.0963285307656
 20
-5.003579647013337
 30
0.0
 11
105.9165077846428
 21
-5.437705331098742
 31
0.0
  0
LINE
  5
2A1
330
1F
100
AcDbEntity
  8
0
100
AcDbLine
 10
102.7988165804345
 20
27.46229203690256
 30
0.0
 11
102.6189958343119
 21
27.89641772098802
 31
0.0
  0
LINE
  5
2A2
330
1F
100
AcDbEntity
  8
0
100
AcDbLine
 10
103.0848700782264
 20
27.08949986059015
 30
0.0
 11
102.7988165804345
 21
27.46229203690256
 31
0.0
  0
LINE
  5
2A3
330
1F
100
AcDbEntity
  8
0
100
AcDbLine
 10
63.97721926794458
 20
61.48614602375743
 30
0.0
 11
63.79739852182178
 21
61.92027170784288
 31
0.0
  0
LINE
  5
2A4
330
1F
100
AcDbEntity
  8
0
100
AcDbLine
 10
64.26327276573639
 20
61.11335384744501
 30
0.0
 11
63.97721926794458
 21
61.48614602375743
 31
0.0
  0
LINE
  5
2A5
330
1F
100
AcDbEntity
  8
0
100
AcDbLine
 10
-97.62078855170535
 20
81.17359530917348
 30
0.0
 11
-43.62079287170463
 21
62.57359679717344
 31
0.0
  0
LINE
  5
2A6
330
1F
100
AcDbEntity
  8
0
100
AcDbLine
 10
-97.62078855170535
 20
86.17359490917354
 30
0.0
 11
-97.62078855170535
 21
81.17359530917348
 31
0.0
  0
LINE
  5
2A7
330
1F
100
AcDbEntity
  8
0
100
AcDbLine
 10
-79.62078999170517
 20
86.17359490917354
 30
0.0
 11
-35.6207935117046
 21
86.17359490917354
 31
0.0
  0
LINE
  5
2A8
330
1F
100
AcDbEntity
  8
0
100
AcDbLine
 10
-11.23307088671746
 20
56.10757191067096
 30
0.0
 11
-11.44017765133545
 21
56.26649052055544
 31
0.0
  0
LINE
  5
2A9
330
1F
100
AcDbEntity
  8
0
100
AcDbLine
 10
-11.44017765133545
 20
56.26649052055544
 30
0.0
 11
-11.59909626121975
 21
56.47359728517343
 31
0.0
  0
LINE
  5
2AA
330
1F
100
AcDbEntity
  8
0
100
AcDbLine
 10
-11.59909626121975
 20
56.47359728517343
 30
0.0
 11
-11.69899667573246
 21
56.7147782207764
 31
0.0
  0
LINE
  5
2AB
330
1F
100
AcDbEntity
  8
0
100
AcDbLine
 10
-11.73307084671735
 20
56.97359724517341
 30
0.0
 11
-11.73307084671735
 21
71.57359607717343
 31
0.0
  0
LINE
  5
2AC
330
1F
100
AcDbEntity
  8
0
100
AcDbLine
 10
20.58585571090381
 20
-20.60711863641848
 30
0.0
 11
20.84467473530083
 21
-20.64119280740346
 31
0.0
  0
LINE
  5
2AD
330
1F
100
AcDbEntity
  8
0
100
AcDbLine
 10
-32.02079379970377
 20
56.97359724517341
 30
0.0
 11
-32.02079379970377
 21
62.57359679717344
 31
0.0
  0
LINE
  5
2AE
330
1F
100
AcDbEntity
  8
0
100
AcDbLine
 10
70.40815813328626
 20
33.98587908034309
 30
0.0
 11
70.23820682952994
 21
33.54779556699175
 31
0.0
  0
LINE
  5
2AF
330
1F
100
AcDbEntity
  8
0
100
AcDbLine
 10
70.45893413019539
 20
34.45302189411274
 30
0.0
 11
70.40815813328626
 21
33.98587908034309
 31
0.0
  0
LINE
  5
2B0
330
1F
100
AcDbEntity
  8
0
100
AcDbLine
 10
70.38707451997931
 20
34.91738899753237
 30
0.0
 11
70.45893413019539
 21
34.45302189411274
 31
0.0
  0
LINE
  5
2B1
330
1F
100
AcDbEntity
  8
0
100
AcDbLine
 10
-10.12079555170445
 20
91.77359446117357
 30
0.0
 11
-10.08672138071956
 21
92.03241348557059
 31
0.0
  0
LINE
  5
2B2
330
1F
100
AcDbEntity
  8
0
100
AcDbLine
 10
-10.08672138071956
 20
92.03241348557059
 30
0.0
 11
-9.986820966206857
 21
92.27359442117356
 31
0.0
  0
LINE
  5
2B3
330
1F
100
AcDbEntity
  8
0
100
AcDbLine
 10
-9.986820966206857
 20
92.27359442117356
 30
0.0
 11
-9.82790235632255
 21
92.48070118579155
 31
0.0
  0
LINE
  5
2B4
330
1F
100
AcDbEntity
  8
0
100
AcDbLine
 10
-9.82790235632255
 20
92.48070118579155
 30
0.0
 11
-9.620795591704564
 21
92.63961979567603
 31
0.0
  0
LINE
  5
2B5
330
1F
100
AcDbEntity
  8
0
100
AcDbLine
 10
-9.620795591704564
 20
92.63961979567603
 30
0.0
 11
-9.379614656101506
 21
92.73952021018854
 31
0.0
  0
LINE
  5
2B6
330
1F
100
AcDbEntity
  8
0
100
AcDbLine
 10
112.3576615425386
 20
51.86229008490168
 30
0.0
 11
63.65939555728053
 21
51.86229008490164
 31
0.0
  0
LINE
  5
2B7
330
1F
100
AcDbEntity
  8
0
100
AcDbLine
 10
68.45939517328056
 20
-14.6377045950973
 30
0.0
 11
75.45939461328064
 21
-14.6377045950973
 31
0.0
  0
LINE
  5
2B8
330
1F
100
AcDbEntity
  8
0
100
AcDbLine
 10
75.45939461328064
 20
-14.6377045950973
 30
0.0
 11
75.45939461328064
 21
-21.23770406709733
 31
0.0
  0
LINE
  5
2B9
330
1F
100
AcDbEntity
  8
0
100
AcDbLine
 10
75.45939461328064
 20
-21.23770406709733
 30
0.0
 11
68.45939517328056
 21
-21.23770406709733
 31
0.0
  0
LINE
  5
2BA
330
1F
100
AcDbEntity
  8
0
100
AcDbLine
 10
108.6593919572802
 20
-14.63770459509761
 30
0.0
 11
108.6593919572802
 21
-21.43770405109764
 31
0.0
  0
LINE
  5
2BB
330
1F
100
AcDbEntity
  8
0
100
AcDbLine
 10
108.6593919572802
 20
-21.43770405109764
 30
0.0
 11
95.34711759826804
 21
-21.43770405109764
 31
0.0
  0
LINE
  5
2BC
330
1F
100
AcDbEntity
  8
0
100
AcDbLine
 10
95.34711759826804
 20
-21.43770405109764
 30
0.0
 11
95.34711759826804
 21
-14.63770459509761
 31
0.0
  0
LINE
  5
2BD
330
1F
100
AcDbEntity
  8
0
100
AcDbLine
 10
95.34711759826804
 20
-14.63770459509761
 30
0.0
 11
108.6593919572802
 21
-14.63770459509761
 31
0.0
  0
LINE
  5
2BE
330
1F
100
AcDbEntity
  8
0
100
AcDbLine
 10
108.6593919572805
 20
38.46229115690253
 30
0.0
 11
108.6593919572805
 21
45.26229061290256
 31
0.0
  0
LINE
  5
2BF
330
1F
100
AcDbEntity
  8
0
100
AcDbLine
 10
95.34711759826877
 20
38.46229115690253
 30
0.0
 11
108.6593919572805
 21
38.46229115690253
 31
0.0
  0
LINE
  5
2C0
330
1F
100
AcDbEntity
  8
0
100
AcDbLine
 10
95.34711759826877
 20
45.26229061290256
 30
0.0
 11
95.34711759826877
 21
38.46229115690253
 31
0.0
  0
LINE
  5
2C1
330
1F
100
AcDbEntity
  8
0
100
AcDbLine
 10
108.6593919572805
 20
45.26229061290256
 30
0.0
 11
95.34711759826877
 21
45.26229061290256
 31
0.0
  0
LINE
  5
2C2
330
1F
100
AcDbEntity
  8
0
100
AcDbLine
 10
68.45939517328056
 20
38.46229115690289
 30
0.0
 11
75.45939461328064
 21
38.46229115690289
 31
0.0
  0
LINE
  5
2C3
330
1F
100
AcDbEntity
  8
0
100
AcDbLine
 10
68.45939517328056
 20
45.26229061290292
 30
0.0
 11
68.45939517328056
 21
38.46229115690289
 31
0.0
  0
LINE
  5
2C4
330
1F
100
AcDbEntity
  8
0
100
AcDbLine
 10
75.45939461328064
 20
45.26229061290292
 30
0.0
 11
68.45939517328056
 21
45.26229061290292
 31
0.0
  0
LINE
  5
2C5
330
1F
100
AcDbEntity
  8
0
100
AcDbLine
 10
75.45939461328064
 20
38.46229115690289
 30
0.0
 11
75.45939461328064
 21
45.26229061290292
 31
0.0
  0
LINE
  5
2C6
330
1F
100
AcDbEntity
  8
0
100
AcDbLine
 10
70.19602081765892
 20
-9.6502716886927
 30
0.0
 11
70.38628714151933
 21
-10.07992193752705
 31
0.0
  0
LINE
  5
2C7
330
1F
100
AcDbEntity
  8
0
100
AcDbLine
 10
70.38628714151933
 20
-10.07992193752705
 30
0.0
 11
70.45886863047764
 21
-10.54417675740439
 31
0.0
  0
LINE
  5
2C8
330
1F
100
AcDbEntity
  8
0
100
AcDbLine
 10
70.45886863047764
 20
-10.54417675740439
 30
0.0
 11
70.40881897600815
 21
-11.01139794956741
 31
0.0
  0
LINE
  5
2C9
330
1F
100
AcDbEntity
  8
0
100
AcDbLine
 10
70.40881897600815
 20
-11.01139794956741
 30
0.0
 11
70.23954897935172
 21
-11.44974516188973
 31
0.0
  0
LINE
  5
2CA
330
1F
100
AcDbEntity
  8
0
100
AcDbLine
 10
70.23954897935172
 20
-11.44974516188973
 30
0.0
 11
69.96259411104894
 21
-11.8293457562546
 31
0.0
  0
LINE
  5
2CB
330
1F
100
AcDbEntity
  8
0
100
AcDbLine
 10
69.96259411104894
 20
-11.8293457562546
 30
0.0
 11
69.59682838768519
 21
-12.12433057947565
 31
0.0
  0
LINE
  5
2CC
330
1F
100
AcDbEntity
  8
0
100
AcDbLine
 10
69.59682838768519
 20
-12.12433057947565
 30
0.0
 11
69.1671781388507
 21
-12.31459690333593
 31
0.0
  0
LINE
  5
2CD
330
1F
100
AcDbEntity
  8
0
100
AcDbLine
 10
69.1671781388507
 20
-12.31459690333593
 30
0.0
 11
68.7029233189735
 21
-12.38717839229427
 31
0.0
  0
LINE
  5
2CE
330
1F
100
AcDbEntity
  8
0
100
AcDbLine
 10
68.7029233189735
 20
-12.38717839229427
 30
0.0
 11
68.2357021268105
 21
-12.33712873782474
 31
0.0
  0
LINE
  5
2CF
330
1F
100
AcDbEntity
  8
0
100
AcDbLine
 10
68.2357021268105
 20
-12.33712873782474
 30
0.0
 11
67.79735491448808
 21
-12.1678587411685
 31
0.0
  0
LINE
  5
2D0
330
1F
100
AcDbEntity
  8
0
100
AcDbLine
 10
67.79735491448808
 20
-12.1678587411685
 30
0.0
 11
67.41775432012308
 21
-11.89090387286577
 31
0.0
  0
LINE
  5
2D1
330
1F
100
AcDbEntity
  8
0
100
AcDbLine
 10
67.41775432012308
 20
-11.89090387286577
 30
0.0
 11
67.12276949690212
 21
-11.52513814950179
 31
0.0
  0
LINE
  5
2D2
330
1F
100
AcDbEntity
  8
0
100
AcDbLine
 10
67.12276949690212
 20
-11.52513814950179
 30
0.0
 11
66.9325031730417
 21
-11.09548790066744
 31
0.0
  0
LINE
  5
2D3
330
1F
100
AcDbEntity
  8
0
100
AcDbLine
 10
66.9325031730417
 20
-11.09548790066744
 30
0.0
 11
66.8599216840834
 21
-10.63123308079009
 31
0.0
  0
LINE
  5
2D4
330
1F
100
AcDbEntity
  8
0
100
AcDbLine
 10
66.8599216840834
 20
-10.63123308079009
 30
0.0
 11
66.90997133855288
 21
-10.16401188862708
 31
0.0
  0
LINE
  5
2D5
330
1F
100
AcDbEntity
  8
0
100
AcDbLine
 10
66.90997133855288
 20
-10.16401188862708
 30
0.0
 11
67.07924133520932
 21
-9.725664676304756
 31
0.0
  0
LINE
  5
2D6
330
1F
100
AcDbEntity
  8
0
100
AcDbLine
 10
67.07924133520932
 20
-9.725664676304756
 30
0.0
 11
67.35619620351208
 21
-9.34606408193989
 31
0.0
  0
LINE
  5
2D7
330
1F
100
AcDbEntity
  8
0
100
AcDbLine
 10
67.35619620351208
 20
-9.34606408193989
 30
0.0
 11
67.72196192687584
 21
-9.05107925871884
 31
0.0
  0
LINE
  5
2D8
330
1F
100
AcDbEntity
  8
0
100
AcDbLine
 10
67.72196192687584
 20
-9.05107925871884
 30
0.0
 11
68.15161217571033
 21
-8.860812934858556
 31
0.0
  0
LINE
  5
2D9
330
1F
100
AcDbEntity
  8
0
100
AcDbLine
 10
68.15161217571033
 20
-8.860812934858556
 30
0.0
 11
68.61586699558754
 21
-8.788231445900212
 31
0.0
  0
LINE
  5
2DA
330
1F
100
AcDbEntity
  8
0
100
AcDbLine
 10
68.61586699558754
 20
-8.788231445900212
 30
0.0
 11
69.08308818775055
 21
-8.838281100369743
 31
0.0
  0
LINE
  5
2DB
330
1F
100
AcDbEntity
  8
0
100
AcDbLine
 10
69.08308818775055
 20
-8.838281100369743
 30
0.0
 11
69.52143540007296
 21
-9.00755109702599
 31
0.0
  0
LINE
  5
2DC
330
1F
100
AcDbEntity
  8
0
100
AcDbLine
 10
69.52143540007296
 20
-9.00755109702599
 30
0.0
 11
69.90103599443796
 21
-9.28450596532872
 31
0.0
  0
LINE
  5
2DD
330
1F
100
AcDbEntity
  8
0
100
AcDbLine
 10
69.90103599443796
 20
-9.28450596532872
 30
0.0
 11
70.19602081765892
 21
-9.6502716886927
 31
0.0
  0
LINE
  5
2DE
330
1F
100
AcDbEntity
  8
0
100
AcDbLine
 10
106.1576620385385
 20
-4.537705403098715
 30
0.0
 11
106.0963285307656
 21
-5.003579647013337
 31
0.0
  0
LINE
  5
2DF
330
1F
100
AcDbEntity
  8
0
100
AcDbLine
 10
104.8235364264532
 20
-2.799039054871655
 30
0.0
 11
105.2576621105385
 21
-2.97885980099432
 31
0.0
  0
LINE
  5
2E0
330
1F
100
AcDbEntity
  8
0
100
AcDbLine
 10
105.2576621105385
 20
-2.97885980099432
 30
0.0
 11
105.630454286851
 21
-3.264913298786277
 31
0.0
  0
LINE
  5
2E1
330
1F
100
AcDbEntity
  8
0
100
AcDbLine
 10
105.630454286851
 20
-3.264913298786277
 30
0.0
 11
105.9165077846428
 21
-3.637705475098688
 31
0.0
  0
LINE
  5
2E2
330
1F
100
AcDbEntity
  8
0
100
AcDbLine
 10
105.9165077846428
 20
-3.637705475098688
 30
0.0
 11
106.0963285307656
 21
-4.071831159184094
 31
0.0
  0
LINE
  5
2E3
330
1F
100
AcDbEntity
  8
0
100
AcDbLine
 10
106.0963285307656
 20
-4.071831159184094
 30
0.0
 11
106.1576620385385
 21
-4.537705403098715
 31
0.0
  0
LINE
  5
2E4
330
1F
100
AcDbEntity
  8
0
100
AcDbLine
 10
102.6189958343119
 20
27.89641772098802
 30
0.0
 11
102.5576623265388
 21
28.36229196490264
 31
0.0
  0
LINE
  5
2E5
330
1F
100
AcDbEntity
  8
0
100
AcDbLine
 10
102.5576623265388
 20
28.36229196490264
 30
0.0
 11
102.6189958343119
 21
28.82816620881726
 31
0.0
  0
LINE
  5
2E6
330
1F
100
AcDbEntity
  8
0
100
AcDbLine
 10
102.6189958343119
 20
28.82816620881726
 30
0.0
 11
102.7988165804345
 21
29.26229189290262
 31
0.0
  0
LINE
  5
2E7
330
1F
100
AcDbEntity
  8
0
100
AcDbLine
 10
102.7988165804345
 20
29.26229189290262
 30
0.0
 11
103.0848700782264
 21
29.63508406921513
 31
0.0
  0
LINE
  5
2E8
330
1F
100
AcDbEntity
  8
0
100
AcDbLine
 10
103.0848700782264
 20
29.63508406921513
 30
0.0
 11
103.4576622545389
 21
29.92113756700703
 31
0.0
  0
LINE
  5
2E9
330
1F
100
AcDbEntity
  8
0
100
AcDbLine
 10
103.4576622545389
 20
29.92113756700703
 30
0.0
 11
103.8917879386243
 21
30.10095831312966
 31
0.0
  0
LINE
  5
2EA
330
1F
100
AcDbEntity
  8
0
100
AcDbLine
 10
103.8917879386243
 20
30.10095831312966
 30
0.0
 11
104.3576621825389
 21
30.16229182090269
 31
0.0
  0
LINE
  5
2EB
330
1F
100
AcDbEntity
  8
0
100
AcDbLine
 10
104.3576621825389
 20
30.16229182090269
 30
0.0
 11
104.8235364264536
 21
30.10095831312966
 31
0.0
  0
LINE
  5
2EC
330
1F
100
AcDbEntity
  8
0
100
AcDbLine
 10
104.8235364264536
 20
30.10095831312966
 30
0.0
 11
105.2576621105389
 21
29.92113756700703
 31
0.0
  0
LINE
  5
2ED
330
1F
100
AcDbEntity
  8
0
100
AcDbLine
 10
105.2576621105389
 20
29.92113756700703
 30
0.0
 11
105.6304542868515
 21
29.63508406921513
 31
0.0
  0
LINE
  5
2EE
330
1F
100
AcDbEntity
  8
0
100
AcDbLine
 10
105.6304542868515
 20
29.63508406921513
 30
0.0
 11
105.9165077846433
 21
29.26229189290271
 31
0.0
  0
LINE
  5
2EF
330
1F
100
AcDbEntity
  8
0
100
AcDbLine
 10
105.9165077846433
 20
29.26229189290271
 30
0.0
 11
106.0963285307659
 21
28.82816620881726
 31
0.0
  0
LINE
  5
2F0
330
1F
100
AcDbEntity
  8
0
100
AcDbLine
 10
106.0963285307659
 20
28.82816620881726
 30
0.0
 11
106.1576620385391
 21
28.36229196490264
 31
0.0
  0
LINE
  5
2F1
330
1F
100
AcDbEntity
  8
0
100
AcDbLine
 10
106.1576620385391
 20
28.36229196490264
 30
0.0
 11
106.0963285307659
 21
27.89641772098802
 31
0.0
  0
LINE
  5
2F2
330
1F
100
AcDbEntity
  8
0
100
AcDbLine
 10
106.0963285307659
 20
27.89641772098802
 30
0.0
 11
105.9165077846433
 21
27.46229203690266
 31
0.0
  0
LINE
  5
2F3
330
1F
100
AcDbEntity
  8
0
100
AcDbLine
 10
105.9165077846433
 20
27.46229203690266
 30
0.0
 11
105.6304542868515
 21
27.08949986059015
 31
0.0
  0
LINE
  5
2F4
330
1F
100
AcDbEntity
  8
0
100
AcDbLine
 10
105.6304542868515
 20
27.08949986059015
 30
0.0
 11
105.2576621105389
 21
26.80344636279824
 31
0.0
  0
LINE
  5
2F5
330
1F
100
AcDbEntity
  8
0
100
AcDbLine
 10
105.2576621105389
 20
26.80344636279824
 30
0.0
 11
104.8235364264536
 21
26.62362561667562
 31
0.0
  0
LINE
  5
2F6
330
1F
100
AcDbEntity
  8
0
100
AcDbLine
 10
104.8235364264536
 20
26.62362561667562
 30
0.0
 11
104.3576621825389
 21
26.56229210890258
 31
0.0
  0
LINE
  5
2F7
330
1F
100
AcDbEntity
  8
0
100
AcDbLine
 10
104.3576621825389
 20
26.56229210890258
 30
0.0
 11
103.8917879386243
 21
26.62362561667562
 31
0.0
  0
LINE
  5
2F8
330
1F
100
AcDbEntity
  8
0
100
AcDbLine
 10
103.8917879386243
 20
26.62362561667562
 30
0.0
 11
103.4576622545389
 21
26.80344636279824
 31
0.0
  0
LINE
  5
2F9
330
1F
100
AcDbEntity
  8
0
100
AcDbLine
 10
103.4576622545389
 20
26.80344636279824
 30
0.0
 11
103.0848700782264
 21
27.08949986059015
 31
0.0
  0
LINE
  5
2FA
330
1F
100
AcDbEntity
  8
0
100
AcDbLine
 10
69.90306061665704
 20
35.71355844304169
 30
0.0
 11
70.19747641632009
 21
35.3473345399067
 31
0.0
  0
LINE
  5
2FB
330
1F
100
AcDbEntity
  8
0
100
AcDbLine
 10
70.19747641632009
 20
35.3473345399067
 30
0.0
 11
70.38707451997931
 21
34.91738899753237
 31
0.0
  0
LINE
  5
2FC
330
1F
100
AcDbEntity
  8
0
100
AcDbLine
 10
70.23820682952994
 20
33.54779556699175
 30
0.0
 11
69.96066211941933
 21
33.16862602152645
 31
0.0
  0
LINE
  5
2FD
330
1F
100
AcDbEntity
  8
0
100
AcDbLine
 10
68.70012557049037
 20
32.61275250798792
 30
0.0
 11
68.23298275672073
 21
32.66352850489705
 31
0.0
  0
LINE
  5
2FE
330
1F
100
AcDbEntity
  8
0
100
AcDbLine
 10
68.23298275672073
 20
32.66352850489705
 30
0.0
 11
67.7948992433693
 21
32.83347980865346
 31
0.0
  0
LINE
  5
2FF
330
1F
100
AcDbEntity
  8
0
100
AcDbLine
 10
67.7948992433693
 20
32.83347980865346
 30
0.0
 11
67.415729697904
 21
33.11102451876407
 31
0.0
  0
LINE
  5
300
330
1F
100
AcDbEntity
  8
0
100
AcDbLine
 10
67.415729697904
 20
33.11102451876407
 30
0.0
 11
67.12131389824094
 21
33.47724842189906
 31
0.0
  0
LINE
  5
301
330
1F
100
AcDbEntity
  8
0
100
AcDbLine
 10
67.12131389824094
 20
33.47724842189906
 30
0.0
 11
66.93171579458173
 21
33.90719396427339
 31
0.0
  0
LINE
  5
302
330
1F
100
AcDbEntity
  8
0
100
AcDbLine
 10
66.93171579458173
 20
33.90719396427339
 30
0.0
 11
66.85985618436564
 21
34.37156106769303
 31
0.0
  0
LINE
  5
303
330
1F
100
AcDbEntity
  8
0
100
AcDbLine
 10
66.85985618436564
 20
34.37156106769303
 30
0.0
 11
66.91063218127478
 21
34.83870388146267
 31
0.0
  0
LINE
  5
304
330
1F
100
AcDbEntity
  8
0
100
AcDbLine
 10
66.91063218127478
 20
34.83870388146267
 30
0.0
 11
67.0805834850311
 21
35.27678739481401
 31
0.0
  0
LINE
  5
305
330
1F
100
AcDbEntity
  8
0
100
AcDbLine
 10
67.0805834850311
 20
35.27678739481401
 30
0.0
 11
67.3581281951417
 21
35.65595694027932
 31
0.0
  0
LINE
  5
306
330
1F
100
AcDbEntity
  8
0
100
AcDbLine
 10
67.3581281951417
 20
35.65595694027932
 30
0.0
 11
67.7243520982767
 21
35.95037273994245
 31
0.0
  0
LINE
  5
307
330
1F
100
AcDbEntity
  8
0
100
AcDbLine
 10
67.7243520982767
 20
35.95037273994245
 30
0.0
 11
68.15429764065094
 21
36.13997084360158
 31
0.0
  0
LINE
  5
308
330
1F
100
AcDbEntity
  8
0
100
AcDbLine
 10
68.15429764065094
 20
36.13997084360158
 30
0.0
 11
68.61866474407066
 21
36.21183045381784
 31
0.0
  0
LINE
  5
309
330
1F
100
AcDbEntity
  8
0
100
AcDbLine
 10
68.61866474407066
 20
36.21183045381784
 30
0.0
 11
69.0858075578403
 21
36.16105445690872
 31
0.0
  0
LINE
  5
30A
330
1F
100
AcDbEntity
  8
0
100
AcDbLine
 10
69.0858075578403
 20
36.16105445690872
 30
0.0
 11
69.52389107119174
 21
35.9911031531523
 31
0.0
  0
LINE
  5
30B
330
1F
100
AcDbEntity
  8
0
100
AcDbLine
 10
14.04963661658395
 20
32.6810836071776
 30
0.0
 11
13.58526384888254
 21
32.60926060991247
 31
0.0
  0
LINE
  5
30C
330
1F
100
AcDbEntity
  8
0
100
AcDbLine
 10
65.53606487004879
 20
64.18614580775737
 30
0.0
 11
66.00193911396342
 21
64.12481229998433
 31
0.0
  0
LINE
  5
30D
330
1F
100
AcDbEntity
  8
0
100
AcDbLine
 10
42.40349205569836
 20
-20.60711863641785
 30
0.0
 11
42.14467303130135
 21
-20.64119280740283
 31
0.0
  0
LINE
  5
30E
330
1F
100
AcDbEntity
  8
0
100
AcDbLine
 10
52.64467219130102
 20
-19.64119288740337
 30
0.0
 11
52.67874636228591
 21
-19.90001191180038
 31
0.0
  0
LINE
  5
30F
330
1F
100
AcDbEntity
  8
0
100
AcDbLine
 10
-38.06194758960076
 20
67.9735963651735
 30
0.0
 11
-37.88212684347814
 21
67.53947068108806
 31
0.0
  0
LINE
  5
310
330
1F
100
AcDbEntity
  8
0
100
AcDbLine
 10
-38.34800108739258
 20
65.80080433286096
 30
0.0
 11
-38.72079326370517
 21
65.51475083506904
 31
0.0
  0
LINE
  5
311
330
1F
100
AcDbEntity
  8
0
100
AcDbLine
 10
-39.62079319170515
 20
65.27359658117338
 30
0.0
 11
-40.08666743561977
 21
65.33493008894632
 31
0.0
  0
LINE
  5
312
330
1F
100
AcDbEntity
  8
0
100
AcDbLine
 10
-88.87960829610236
 20
92.73952021018854
 30
0.0
 11
-88.62078927170533
 21
92.77359438117362
 31
0.0
  0
LINE
  5
313
330
1F
100
AcDbEntity
  8
0
100
AcDbLine
 10
56.94583678261674
 20
-20.34857767935803
 30
0.0
 11
56.73878109184623
 21
-20.50734930011827
 31
0.0
  0
LINE
  5
314
330
1F
100
AcDbEntity
  8
0
100
AcDbLine
 10
56.73878109184623
 20
-20.50734930011827
 30
0.0
 11
56.49770061631004
 21
-20.60715256136014
 31
0.0
  0
LINE
  5
315
330
1F
100
AcDbEntity
  8
0
100
AcDbLine
 10
5.077473113553618
 20
78.16981903966035
 30
0.0
 11
5.077473113553618
 21
86.17359490917359
 31
0.0
  0
LINE
  5
316
330
1F
100
AcDbEntity
  8
0
100
AcDbLine
 10
14.05532047789475
 20
-12.31724141016272
 30
0.0
 11
13.59118662297968
 21
-12.3905924499679
 31
0.0
  0
LINE
  5
317
330
1F
100
AcDbEntity
  8
0
100
AcDbLine
 10
13.59118662297968
 20
-12.3905924499679
 30
0.0
 11
13.12388309958248
 21
-12.34131743257202
 31
0.0
  0
LINE
  5
318
330
1F
100
AcDbEntity
  8
0
100
AcDbLine
 10
50.98160869278625
 20
27.89292902868259
 30
0.0
 11
50.80178794666363
 21
27.45880334459724
 31
0.0
  0
LINE
  5
319
330
1F
100
AcDbEntity
  8
0
100
AcDbLine
 10
50.80178794666363
 20
27.45880334459724
 30
0.0
 11
50.51573444887163
 21
27.08601116828483
 31
0.0
  0
LINE
  5
31A
330
1F
100
AcDbEntity
  8
0
100
AcDbLine
 10
50.14294227255939
 20
26.79995767049283
 30
0.0
 11
49.70881658847385
 21
26.62013692437021
 31
0.0
  0
LINE
  5
31B
330
1F
100
AcDbEntity
  8
0
100
AcDbLine
 10
13.50408678971908
 20
36.20834496728246
 30
0.0
 11
13.97122559863564
 21
36.15753213895431
 31
0.0
  0
LINE
  5
31C
330
1F
100
AcDbEntity
  8
0
100
AcDbLine
 10
11.74513314061582
 20
34.36821425901573
 30
0.0
 11
11.79594596894396
 21
34.83535306793247
 31
0.0
  0
LINE
  5
31D
330
1F
100
AcDbEntity
  8
0
100
AcDbLine
 10
11.79594596894396
 20
34.83535306793247
 30
0.0
 11
11.9659318125871
 21
35.27342318022004
 31
0.0
  0
LINE
  5
31E
330
1F
100
AcDbEntity
  8
0
100
AcDbLine
 10
11.9659318125871
 20
35.27342318022004
 30
0.0
 11
12.24350641721577
 21
35.65257084167118
 31
0.0
  0
LINE
  5
31F
330
1F
100
AcDbEntity
  8
0
100
AcDbLine
 10
12.24350641721577
 20
35.65257084167118
 30
0.0
 11
12.60975353223821
 21
35.94695776572944
 31
0.0
  0
LINE
  5
320
330
1F
100
AcDbEntity
  8
0
100
AcDbLine
 10
12.60975353223821
 20
35.94695776572944
 30
0.0
 11
13.03971402201768
 21
36.13652197001733
 31
0.0
  0
LINE
  5
321
330
1F
100
AcDbEntity
  8
0
100
AcDbLine
 10
13.03971402201768
 20
36.13652197001733
 30
0.0
 11
13.50408678971908
 21
36.20834496728246
 31
0.0
  0
LINE
  5
322
330
1F
100
AcDbEntity
  8
0
100
AcDbLine
 10
77.93606387804857
 20
62.38614595175741
 30
0.0
 11
77.93606387804857
 21
57.88614631175741
 31
0.0
  0
LINE
  5
323
330
1F
100
AcDbEntity
  8
0
100
AcDbLine
 10
77.93606387804857
 20
62.38614595175741
 30
0.0
 11
78.14050890395865
 21
63.93906009813939
 31
0.0
  0
LINE
  5
324
330
1F
100
AcDbEntity
  8
0
100
AcDbLine
 10
78.14050890395865
 20
63.93906009813939
 30
0.0
 11
78.73991139103417
 21
65.38614571175738
 31
0.0
  0
LINE
  5
325
330
1F
100
AcDbEntity
  8
0
100
AcDbLine
 10
78.73991139103417
 20
65.38614571175738
 30
0.0
 11
79.69342305034073
 21
66.62878629946547
 31
0.0
  0
LINE
  5
326
330
1F
100
AcDbEntity
  8
0
100
AcDbLine
 10
79.69342305034073
 20
66.62878629946547
 30
0.0
 11
80.93606363804864
 21
67.58229795877185
 31
0.0
  0
LINE
  5
327
330
1F
100
AcDbEntity
  8
0
100
AcDbLine
 10
80.93606363804864
 20
67.58229795877185
 30
0.0
 11
82.38314925166662
 21
68.18170044584747
 31
0.0
  0
LINE
  5
328
330
1F
100
AcDbEntity
  8
0
100
AcDbLine
 10
82.38314925166662
 20
68.18170044584747
 30
0.0
 11
83.93606339804869
 21
68.38614547175744
 31
0.0
  0
LINE
  5
329
330
1F
100
AcDbEntity
  8
0
100
AcDbLine
 10
83.93606339804869
 20
68.38614547175744
 30
0.0
 11
85.48897754443077
 21
68.18170044584747
 31
0.0
  0
LINE
  5
32A
330
1F
100
AcDbEntity
  8
0
100
AcDbLine
 10
85.48897754443077
 20
68.18170044584747
 30
0.0
 11
86.93606315804875
 21
67.58229795877185
 31
0.0
  0
LINE
  5
32B
330
1F
100
AcDbEntity
  8
0
100
AcDbLine
 10
86.93606315804875
 20
67.58229795877185
 30
0.0
 11
88.17870374575668
 21
66.62878629946547
 31
0.0
  0
LINE
  5
32C
330
1F
100
AcDbEntity
  8
0
100
AcDbLine
 10
88.17870374575668
 20
66.62878629946547
 30
0.0
 11
89.13221540506322
 21
65.38614571175738
 31
0.0
  0
LINE
  5
32D
330
1F
100
AcDbEntity
  8
0
100
AcDbLine
 10
89.13221540506322
 20
65.38614571175738
 30
0.0
 11
89.73161789213874
 21
63.93906009813939
 31
0.0
  0
LINE
  5
32E
330
1F
100
AcDbEntity
  8
0
100
AcDbLine
 10
89.73161789213874
 20
63.93906009813939
 30
0.0
 11
89.93606291804882
 21
62.38614595175741
 31
0.0
  0
LINE
  5
32F
330
1F
100
AcDbEntity
  8
0
100
AcDbLine
 10
89.93606291804882
 20
62.38614595175741
 30
0.0
 11
89.93606291804882
 21
57.88614631175741
 31
0.0
  0
LINE
  5
330
330
1F
100
AcDbEntity
  8
0
100
AcDbLine
 10
97.93606227804885
 20
57.88614631175741
 30
0.0
 11
89.93606291804882
 21
57.88614631175741
 31
0.0
  0
LINE
  5
331
330
1F
100
AcDbEntity
  8
0
100
AcDbLine
 10
97.93606227804885
 20
62.38614595175741
 30
0.0
 11
97.93606227804885
 21
57.88614631175741
 31
0.0
  0
LINE
  5
332
330
1F
100
AcDbEntity
  8
0
100
AcDbLine
 10
97.93606227804885
 20
62.38614595175741
 30
0.0
 11
98.03828479100389
 21
63.16260302494836
 31
0.0
  0
LINE
  5
333
330
1F
100
AcDbEntity
  8
0
100
AcDbLine
 10
98.03828479100389
 20
63.16260302494836
 30
0.0
 11
98.33798603454164
 21
63.88614583175744
 31
0.0
  0
LINE
  5
334
330
1F
100
AcDbEntity
  8
0
100
AcDbLine
 10
98.33798603454164
 20
63.88614583175744
 30
0.0
 11
98.81474186419493
 21
64.50746612561149
 31
0.0
  0
LINE
  5
335
330
1F
100
AcDbEntity
  8
0
100
AcDbLine
 10
98.81474186419493
 20
64.50746612561149
 30
0.0
 11
99.43606215804888
 21
64.98422195526467
 31
0.0
  0
LINE
  5
336
330
1F
100
AcDbEntity
  8
0
100
AcDbLine
 10
99.43606215804888
 20
64.98422195526467
 30
0.0
 11
100.1596049648579
 21
65.28392319880253
 31
0.0
  0
LINE
  5
337
330
1F
100
AcDbEntity
  8
0
100
AcDbLine
 10
100.1596049648579
 20
65.28392319880253
 30
0.0
 11
100.9360620380489
 21
65.38614571175746
 31
0.0
  0
LINE
  5
338
330
1F
100
AcDbEntity
  8
0
100
AcDbLine
 10
100.9360620380489
 20
65.38614571175746
 30
0.0
 11
101.7125191112399
 21
65.28392319880253
 31
0.0
  0
LINE
  5
339
330
1F
100
AcDbEntity
  8
0
100
AcDbLine
 10
103.0573822119029
 20
64.50746612561149
 30
0.0
 11
103.5341380415562
 21
63.88614583175744
 31
0.0
  0
LINE
  5
33A
330
1F
100
AcDbEntity
  8
0
100
AcDbLine
 10
103.5341380415562
 20
63.88614583175744
 30
0.0
 11
103.8338392850939
 21
63.16260302494836
 31
0.0
  0
LINE
  5
33B
330
1F
100
AcDbEntity
  8
0
100
AcDbLine
 10
103.8338392850939
 20
63.16260302494836
 30
0.0
 11
103.936061798049
 21
62.38614595175741
 31
0.0
  0
LINE
  5
33C
330
1F
100
AcDbEntity
  8
0
100
AcDbLine
 10
103.936061798049
 20
62.38614595175741
 30
0.0
 11
103.936061798049
 21
57.88614631175741
 31
0.0
  0
LINE
  5
33D
330
1F
100
AcDbEntity
  8
0
100
AcDbLine
 10
65.53606487004879
 20
60.58614609575745
 30
0.0
 11
65.07019062613418
 21
60.64747960353048
 31
0.0
  0
LINE
  5
33E
330
1F
100
AcDbEntity
  8
0
100
AcDbLine
 10
63.79739852182178
 20
61.92027170784288
 30
0.0
 11
63.73606501404883
 21
62.38614595175741
 31
0.0
  0
LINE
  5
33F
330
1F
100
AcDbEntity
  8
0
100
AcDbLine
 10
63.73606501404883
 20
62.38614595175741
 30
0.0
 11
63.79739852182178
 21
62.85202019567194
 31
0.0
  0
LINE
  5
340
330
1F
100
AcDbEntity
  8
0
100
AcDbLine
 10
63.79739852182178
 20
62.85202019567194
 30
0.0
 11
63.97721926794458
 21
63.28614587975739
 31
0.0
  0
LINE
  5
341
330
1F
100
AcDbEntity
  8
0
100
AcDbLine
 10
63.97721926794458
 20
63.28614587975739
 30
0.0
 11
64.26327276573639
 21
63.6589380560698
 31
0.0
  0
LINE
  5
342
330
1F
100
AcDbEntity
  8
0
100
AcDbLine
 10
64.63606494204882
 20
63.94499155386172
 30
0.0
 11
65.07019062613418
 21
64.12481229998433
 31
0.0
  0
LINE
  5
343
330
1F
100
AcDbEntity
  8
0
100
AcDbLine
 10
66.00193911396342
 20
64.12481229998433
 30
0.0
 11
66.43606479804878
 21
63.94499155386172
 31
0.0
  0
LINE
  5
344
330
1F
100
AcDbEntity
  8
0
100
AcDbLine
 10
66.43606479804878
 20
63.94499155386172
 30
0.0
 11
66.80885697436119
 21
63.6589380560698
 31
0.0
  0
LINE
  5
345
330
1F
100
AcDbEntity
  8
0
100
AcDbLine
 10
67.094910472153
 20
63.28614587975739
 30
0.0
 11
67.2747312182758
 21
62.85202019567194
 31
0.0
  0
LINE
  5
346
330
1F
100
AcDbEntity
  8
0
100
AcDbLine
 10
67.2747312182758
 20
62.85202019567194
 30
0.0
 11
67.33606472604876
 21
62.38614595175741
 31
0.0
  0
LINE
  5
347
330
1F
100
AcDbEntity
  8
0
100
AcDbLine
 10
67.2747312182758
 20
61.92027170784288
 30
0.0
 11
67.094910472153
 21
61.48614602375743
 31
0.0
  0
LINE
  5
348
330
1F
100
AcDbEntity
  8
0
100
AcDbLine
 10
67.094910472153
 20
61.48614602375743
 30
0.0
 11
66.80885697436119
 21
61.11335384744501
 31
0.0
  0
LINE
  5
349
330
1F
100
AcDbEntity
  8
0
100
AcDbLine
 10
66.80885697436119
 20
61.11335384744501
 30
0.0
 11
66.43606479804878
 21
60.82730034965311
 31
0.0
  0
LINE
  5
34A
330
1F
100
AcDbEntity
  8
0
100
AcDbLine
 10
66.43606479804878
 20
60.82730034965311
 30
0.0
 11
66.00193911396342
 21
60.64747960353048
 31
0.0
  0
LINE
  5
34B
330
1F
100
AcDbEntity
  8
0
100
AcDbLine
 10
66.00193911396342
 20
60.64747960353048
 30
0.0
 11
65.53606487004879
 21
60.58614609575745
 31
0.0
  0
LINE
  5
34C
330
1F
100
AcDbEntity
  8
0
100
AcDbLine
 10
-0.1207963517043166
 20
86.17359490917354
 30
0.0
 11
5.077473113553618
 21
86.17359490917359
 31
0.0
  0
LINE
  5
34D
330
1F
100
AcDbEntity
  8
0
100
AcDbLine
 10
-0.861977247307264
 20
92.73952021018854
 30
0.0
 11
-1.120796271704276
 21
92.77359438117362
 31
0.0
  0
LINE
  5
34E
330
1F
100
AcDbEntity
  8
0
100
AcDbLine
 10
-1.120796271704276
 20
92.77359438117362
 30
0.0
 11
-9.120795631704494
 21
92.77359438117362
 31
0.0
  0
LINE
  5
34F
330
1F
100
AcDbEntity
  8
0
100
AcDbLine
 10
-9.379614656101506
 20
92.73952021018854
 30
0.0
 11
-9.120795631704494
 21
92.77359438117362
 31
0.0
  0
LINE
  5
350
330
1F
100
AcDbEntity
  8
0
100
AcDbLine
 10
-10.12079555170445
 20
86.17359490917354
 30
0.0
 11
-10.12079555170445
 21
91.77359446117357
 31
0.0
  0
LINE
  5
351
330
1F
100
AcDbEntity
  8
0
100
AcDbLine
 10
-25.62079431170446
 20
86.17359490917354
 30
0.0
 11
-10.12079555170445
 21
86.17359490917354
 31
0.0
  0
LINE
  5
352
330
1F
100
AcDbEntity
  8
0
100
AcDbLine
 10
-25.65486848268934
 20
92.03241348557059
 30
0.0
 11
-25.62079431170446
 21
91.77359446117357
 31
0.0
  0
LINE
  5
353
330
1F
100
AcDbEntity
  8
0
100
AcDbLine
 10
-25.75476889720205
 20
92.27359442117356
 30
0.0
 11
-25.65486848268934
 21
92.03241348557059
 31
0.0
  0
LINE
  5
354
330
1F
100
AcDbEntity
  8
0
100
AcDbLine
 10
-25.91368750708636
 20
92.48070118579155
 30
0.0
 11
-25.75476889720205
 21
92.27359442117356
 31
0.0
  0
LINE
  5
355
330
1F
100
AcDbEntity
  8
0
100
AcDbLine
 10
-26.12079427170434
 20
92.63961979567603
 30
0.0
 11
-25.91368750708636
 21
92.48070118579155
 31
0.0
  0
LINE
  5
356
330
1F
100
AcDbEntity
  8
0
100
AcDbLine
 10
-26.36197520730741
 20
92.73952021018854
 30
0.0
 11
-26.12079427170434
 21
92.63961979567603
 31
0.0
  0
LINE
  5
357
330
1F
100
AcDbEntity
  8
0
100
AcDbLine
 10
-26.62079423170442
 20
92.77359438117362
 30
0.0
 11
-26.36197520730741
 21
92.73952021018854
 31
0.0
  0
LINE
  5
358
330
1F
100
AcDbEntity
  8
0
100
AcDbLine
 10
-26.62079423170442
 20
92.77359438117362
 30
0.0
 11
-34.62079359170463
 21
92.77359438117362
 31
0.0
  0
LINE
  5
359
330
1F
100
AcDbEntity
  8
0
100
AcDbLine
 10
-35.12079355170471
 20
92.63961979567603
 30
0.0
 11
-34.87961261610165
 21
92.73952021018854
 31
0.0
  0
LINE
  5
35A
330
1F
100
AcDbEntity
  8
0
100
AcDbLine
 10
-35.32790031632269
 20
92.48070118579155
 30
0.0
 11
-35.12079355170471
 21
92.63961979567603
 31
0.0
  0
LINE
  5
35B
330
1F
100
AcDbEntity
  8
0
100
AcDbLine
 10
-35.48681892620699
 20
92.27359442117356
 30
0.0
 11
-35.32790031632269
 21
92.48070118579155
 31
0.0
  0
LINE
  5
35C
330
1F
100
AcDbEntity
  8
0
100
AcDbLine
 10
-35.5867193407197
 20
92.03241348557059
 30
0.0
 11
-35.48681892620699
 21
92.27359442117356
 31
0.0
  0
LINE
  5
35D
330
1F
100
AcDbEntity
  8
0
100
AcDbLine
 10
-35.6207935117046
 20
91.77359446117357
 30
0.0
 11
-35.5867193407197
 21
92.03241348557059
 31
0.0
  0
LINE
  5
35E
330
1F
100
AcDbEntity
  8
0
100
AcDbLine
 10
-35.6207935117046
 20
91.77359446117357
 30
0.0
 11
-35.6207935117046
 21
86.17359490917354
 31
0.0
  0
LINE
  5
35F
330
1F
100
AcDbEntity
  8
0
100
AcDbLine
 10
-79.62078999170517
 20
91.77359446117357
 30
0.0
 11
-79.62078999170517
 21
86.17359490917354
 31
0.0
  0
LINE
  5
360
330
1F
100
AcDbEntity
  8
0
100
AcDbLine
 10
-79.65486416269005
 20
92.03241348557059
 30
0.0
 11
-79.75476457720275
 21
92.27359442117356
 31
0.0
  0
LINE
  5
361
330
1F
100
AcDbEntity
  8
0
100
AcDbLine
 10
-79.75476457720275
 20
92.27359442117356
 30
0.0
 11
-79.91368318708707
 21
92.48070118579155
 31
0.0
  0
LINE
  5
362
330
1F
100
AcDbEntity
  8
0
100
AcDbLine
 10
-79.91368318708707
 20
92.48070118579155
 30
0.0
 11
-80.12078995170505
 21
92.63961979567603
 31
0.0
  0
LINE
  5
363
330
1F
100
AcDbEntity
  8
0
100
AcDbLine
 10
-80.12078995170505
 20
92.63961979567603
 30
0.0
 11
-80.3619708873081
 21
92.73952021018854
 31
0.0
  0
LINE
  5
364
330
1F
100
AcDbEntity
  8
0
100
AcDbLine
 10
-80.3619708873081
 20
92.73952021018854
 30
0.0
 11
-80.62078991170512
 21
92.77359438117362
 31
0.0
  0
LINE
  5
365
330
1F
100
AcDbEntity
  8
0
100
AcDbLine
 10
-80.62078991170512
 20
92.77359438117362
 30
0.0
 11
-88.62078927170533
 21
92.77359438117362
 31
0.0
  0
LINE
  5
366
330
1F
100
AcDbEntity
  8
0
100
AcDbLine
 10
-89.1207892317054
 20
92.63961979567603
 30
0.0
 11
-88.87960829610236
 21
92.73952021018854
 31
0.0
  0
LINE
  5
367
330
1F
100
AcDbEntity
  8
0
100
AcDbLine
 10
-89.32789599632339
 20
92.48070118579155
 30
0.0
 11
-89.1207892317054
 21
92.63961979567603
 31
0.0
  0
LINE
  5
368
330
1F
100
AcDbEntity
  8
0
100
AcDbLine
 10
-89.4868146062077
 20
92.27359442117356
 30
0.0
 11
-89.32789599632339
 21
92.48070118579155
 31
0.0
  0
LINE
  5
369
330
1F
100
AcDbEntity
  8
0
100
AcDbLine
 10
-89.5867150207204
 20
92.03241348557059
 30
0.0
 11
-89.4868146062077
 21
92.27359442117356
 31
0.0
  0
LINE
  5
36A
330
1F
100
AcDbEntity
  8
0
100
AcDbLine
 10
-89.6207891917053
 20
91.77359446117357
 30
0.0
 11
-89.5867150207204
 21
92.03241348557059
 31
0.0
  0
LINE
  5
36B
330
1F
100
AcDbEntity
  8
0
100
AcDbLine
 10
-89.6207891917053
 20
91.77359446117357
 30
0.0
 11
-89.6207891917053
 21
86.17359490917354
 31
0.0
  0
LINE
  5
36C
330
1F
100
AcDbEntity
  8
0
100
AcDbLine
 10
-97.62078855170535
 20
86.17359490917354
 30
0.0
 11
-89.6207891917053
 21
86.17359490917354
 31
0.0
  0
LINE
  5
36D
330
1F
100
AcDbEntity
  8
0
100
AcDbLine
 10
-38.62079327170375
 20
62.57359679717344
 30
0.0
 11
-43.62079287170463
 21
62.57359679717344
 31
0.0
  0
LINE
  5
36E
330
1F
100
AcDbEntity
  8
0
100
AcDbLine
 10
-37.8796123761008
 20
56.00767149615844
 30
0.0
 11
-37.62079335170379
 21
55.97359732517336
 31
0.0
  0
LINE
  5
36F
330
1F
100
AcDbEntity
  8
0
100
AcDbLine
 10
-37.62079335170379
 20
55.97359732517336
 30
0.0
 11
-33.02079371970373
 21
55.97359732517336
 31
0.0
  0
LINE
  5
370
330
1F
100
AcDbEntity
  8
0
100
AcDbLine
 10
-32.52079375970366
 20
56.10757191067096
 30
0.0
 11
-32.76197469530671
 21
56.00767149615844
 31
0.0
  0
LINE
  5
371
330
1F
100
AcDbEntity
  8
0
100
AcDbLine
 10
-32.31368699508567
 20
56.26649052055544
 30
0.0
 11
-32.52079375970366
 21
56.10757191067096
 31
0.0
  0
LINE
  5
372
330
1F
100
AcDbEntity
  8
0
100
AcDbLine
 10
-32.15476838520136
 20
56.47359728517343
 30
0.0
 11
-32.31368699508567
 21
56.26649052055544
 31
0.0
  0
LINE
  5
373
330
1F
100
AcDbEntity
  8
0
100
AcDbLine
 10
-32.05486797068865
 20
56.7147782207764
 30
0.0
 11
-32.15476838520136
 21
56.47359728517343
 31
0.0
  0
LINE
  5
374
330
1F
100
AcDbEntity
  8
0
100
AcDbLine
 10
-32.02079379970377
 20
56.97359724517341
 30
0.0
 11
-32.05486797068865
 21
56.7147782207764
 31
0.0
  0
LINE
  5
375
330
1F
100
AcDbEntity
  8
0
100
AcDbLine
 10
-32.02079379970377
 20
62.57359679717344
 30
0.0
 11
-26.73825781118574
 21
62.57359679717344
 31
0.0
  0
LINE
  5
376
330
1F
100
AcDbEntity
  8
0
100
AcDbLine
 10
-26.73825781118574
 20
62.57359679717344
 30
0.0
 11
-26.73825781118574
 21
71.57359607717343
 31
0.0
  0
LINE
  5
377
330
1F
100
AcDbEntity
  8
0
100
AcDbLine
 10
-32.52079375970456
 20
71.57359607717343
 30
0.0
 11
-26.73825781118574
 21
71.57359607717343
 31
0.0
  0
LINE
  5
378
330
1F
100
AcDbEntity
  8
0
100
AcDbLine
 10
-32.52079375970456
 20
78.17359554917351
 30
0.0
 11
-32.52079375970456
 21
71.57359607717343
 31
0.0
  0
LINE
  5
379
330
1F
100
AcDbEntity
  8
0
100
AcDbLine
 10
-9.020795639704156
 20
78.17359554917351
 30
0.0
 11
-32.52079375970456
 21
78.17359554917351
 31
0.0
  0
LINE
  5
37A
330
1F
100
AcDbEntity
  8
0
100
AcDbLine
 10
-9.020795639704156
 20
71.57359607717343
 30
0.0
 11
-9.020795639704156
 21
78.17359554917351
 31
0.0
  0
LINE
  5
37B
330
1F
100
AcDbEntity
  8
0
100
AcDbLine
 10
-11.73307084671735
 20
71.57359607717343
 30
0.0
 11
-9.020795639704156
 21
71.57359607717343
 31
0.0
  0
LINE
  5
37C
330
1F
100
AcDbEntity
  8
0
100
AcDbLine
 10
-11.69899667573246
 20
56.7147782207764
 30
0.0
 11
-11.73307084671735
 21
56.97359724517341
 31
0.0
  0
LINE
  5
37D
330
1F
100
AcDbEntity
  8
0
100
AcDbLine
 10
-10.99188995111441
 20
56.00767149615844
 30
0.0
 11
-11.23307088671746
 21
56.10757191067096
 31
0.0
  0
LINE
  5
37E
330
1F
100
AcDbEntity
  8
0
100
AcDbLine
 10
-10.73307092671739
 20
55.97359732517336
 30
0.0
 11
-10.99188995111441
 21
56.00767149615844
 31
0.0
  0
LINE
  5
37F
330
1F
100
AcDbEntity
  8
0
100
AcDbLine
 10
0.4380226486924487
 20
56.00767149615844
 30
0.0
 11
0.1792036242954366
 21
55.97359732517336
 31
0.0
  0
LINE
  5
380
330
1F
100
AcDbEntity
  8
0
100
AcDbLine
 10
0.6792035842955066
 20
56.10757191067096
 30
0.0
 11
0.4380226486924487
 21
56.00767149615844
 31
0.0
  0
LINE
  5
381
330
1F
100
AcDbEntity
  8
0
100
AcDbLine
 10
0.8863103489134931
 20
56.26649052055536
 30
0.0
 11
0.6792035842955066
 21
56.10757191067096
 31
0.0
  0
LINE
  5
382
330
1F
100
AcDbEntity
  8
0
100
AcDbLine
 10
1.045228958797798
 20
56.47359728517343
 30
0.0
 11
0.8863103489134931
 21
56.26649052055536
 31
0.0
  0
LINE
  5
383
330
1F
100
AcDbEntity
  8
0
100
AcDbLine
 10
1.145129373310505
 20
56.7147782207764
 30
0.0
 11
1.045228958797798
 21
56.47359728517343
 31
0.0
  0
LINE
  5
384
330
1F
100
AcDbEntity
  8
0
100
AcDbLine
 10
1.179203544295396
 20
56.97359724517341
 30
0.0
 11
1.145129373310505
 21
56.7147782207764
 31
0.0
  0
LINE
  5
385
330
1F
100
AcDbEntity
  8
0
100
AcDbLine
 10
1.179203544295577
 20
62.57359679717344
 30
0.0
 11
1.179203544295396
 21
56.97359724517341
 31
0.0
  0
LINE
  5
386
330
1F
100
AcDbEntity
  8
0
100
AcDbLine
 10
1.179203544295577
 20
62.57359679717344
 30
0.0
 11
5.077473113553437
 21
62.57359679717348
 31
0.0
  0
LINE
  5
387
330
1F
100
AcDbEntity
  8
0
100
AcDbLine
 10
5.077473113553437
 20
62.57359679717348
 30
0.0
 11
5.077473113553437
 21
71.56981744318074
 31
0.0
  0
LINE
  5
388
330
1F
100
AcDbEntity
  8
0
100
AcDbLine
 10
5.077473113553437
 20
71.56981744318074
 30
0.0
 11
0.2740117389364806
 21
71.57359607717343
 31
0.0
  0
LINE
  5
389
330
1F
100
AcDbEntity
  8
0
100
AcDbLine
 10
0.2740117389364806
 20
71.57359607717343
 30
0.0
 11
0.2792036162957755
 21
78.17359554917351
 31
0.0
  0
LINE
  5
38A
330
1F
100
AcDbEntity
  8
0
100
AcDbLine
 10
0.2792036162957755
 20
78.17359554917351
 30
0.0
 11
5.077473113553618
 21
78.16981903966035
 31
0.0
  0
LINE
  5
38B
330
1F
100
AcDbEntity
  8
0
100
AcDbLine
 10
-41.35945953993217
 20
66.60772219325882
 30
0.0
 11
-41.4207930477053
 21
67.07359643717344
 31
0.0
  0
LINE
  5
38C
330
1F
100
AcDbEntity
  8
0
100
AcDbLine
 10
-40.08666743561977
 20
68.81226278540053
 30
0.0
 11
-39.62079319170515
 21
68.87359629317349
 31
0.0
  0
LINE
  5
38D
330
1F
100
AcDbEntity
  8
0
100
AcDbLine
 10
-39.15491894779053
 20
68.81226278540053
 30
0.0
 11
-38.72079326370517
 21
68.63244203927783
 31
0.0
  0
LINE
  5
38E
330
1F
100
AcDbEntity
  8
0
100
AcDbLine
 10
-38.06194758960076
 20
66.17359650917336
 30
0.0
 11
-38.34800108739258
 21
65.80080433286096
 31
0.0
  0
LINE
  5
38F
330
1F
100
AcDbEntity
  8
0
100
AcDbLine
 10
-40.08666743561977
 20
65.33493008894632
 30
0.0
 11
-40.52079311970513
 21
65.51475083506904
 31
0.0
  0
LINE
  5
390
330
1F
100
AcDbEntity
  8
0
100
AcDbLine
 10
-40.52079311970513
 20
65.51475083506904
 30
0.0
 11
-40.89358529601773
 21
65.80080433286096
 31
0.0
  0
LINE
  5
391
330
1F
100
AcDbEntity
  8
0
100
AcDbLine
 10
-40.89358529601773
 20
65.80080433286096
 30
0.0
 11
-41.17963879380954
 21
66.17359650917336
 31
0.0
  0
LINE
  5
392
330
1F
100
AcDbEntity
  8
0
100
AcDbLine
 10
-41.17963879380954
 20
66.17359650917336
 30
0.0
 11
-41.35945953993217
 21
66.60772219325882
 31
0.0
  0
LINE
  5
393
330
1F
100
AcDbEntity
  8
0
100
AcDbLine
 10
0.1617400368157142
 20
67.07359643717344
 30
0.0
 11
-2.038259787184341
 21
63.26308496536279
 31
0.0
  0
LINE
  5
394
330
1F
100
AcDbEntity
  8
0
100
AcDbLine
 10
-2.038259787184341
 20
63.26308496536279
 30
0.0
 11
-6.438259435184271
 21
63.26308496536279
 31
0.0
  0
LINE
  5
395
330
1F
100
AcDbEntity
  8
0
100
AcDbLine
 10
-8.638259259184508
 20
67.07359643717344
 30
0.0
 11
-6.438259435184452
 21
70.88410790898409
 31
0.0
  0
LINE
  5
396
330
1F
100
AcDbEntity
  8
0
100
AcDbLine
 10
42.14467303130225
 20
44.45880198459732
 30
0.0
 11
20.84467473530083
 21
44.45880198459759
 31
0.0
  0
LINE
  5
397
330
1F
100
AcDbEntity
  8
0
100
AcDbLine
 10
20.58585571090381
 20
44.42472781361252
 30
0.0
 11
20.84467473530083
 21
44.45880198459759
 31
0.0
  0
LINE
  5
398
330
1F
100
AcDbEntity
  8
0
100
AcDbLine
 10
20.34467477530075
 20
44.32482739909999
 30
0.0
 11
20.58585571090381
 21
44.42472781361252
 31
0.0
  0
LINE
  5
399
330
1F
100
AcDbEntity
  8
0
100
AcDbLine
 10
20.13756801068277
 20
44.16590878921559
 30
0.0
 11
20.34467477530075
 21
44.32482739909999
 31
0.0
  0
LINE
  5
39A
330
1F
100
AcDbEntity
  8
0
100
AcDbLine
 10
19.97864940079846
 20
43.95880202459752
 30
0.0
 11
20.13756801068277
 21
44.16590878921559
 31
0.0
  0
LINE
  5
39B
330
1F
100
AcDbEntity
  8
0
100
AcDbLine
 10
19.87874898628576
 20
43.71762108899456
 30
0.0
 11
19.97864940079846
 21
43.95880202459752
 31
0.0
  0
LINE
  5
39C
330
1F
100
AcDbEntity
  8
0
100
AcDbLine
 10
19.84467481530087
 20
43.45880206459753
 30
0.0
 11
19.87874898628576
 21
43.71762108899456
 31
0.0
  0
LINE
  5
39D
330
1F
100
AcDbEntity
  8
0
100
AcDbLine
 10
8.544675719300654
 20
38.45880246459765
 30
0.0
 11
19.84467481530087
 21
38.45880246459765
 31
0.0
  0
LINE
  5
39E
330
1F
100
AcDbEntity
  8
0
100
AcDbLine
 10
19.84467481530087
 20
-14.64119328740249
 30
0.0
 11
19.84467481530087
 21
-19.64119288740346
 31
0.0
  0
LINE
  5
39F
330
1F
100
AcDbEntity
  8
0
100
AcDbLine
 10
19.84467481530087
 20
-19.64119288740346
 30
0.0
 11
19.87874898628576
 21
-19.90001191180047
 31
0.0
  0
LINE
  5
3A0
330
1F
100
AcDbEntity
  8
0
100
AcDbLine
 10
19.87874898628576
 20
-19.90001191180047
 30
0.0
 11
19.97864940079846
 21
-20.14119284740348
 31
0.0
  0
LINE
  5
3A1
330
1F
100
AcDbEntity
  8
0
100
AcDbLine
 10
19.97864940079846
 20
-20.14119284740348
 30
0.0
 11
20.13756801068277
 21
-20.34829961202147
 31
0.0
  0
LINE
  5
3A2
330
1F
100
AcDbEntity
  8
0
100
AcDbLine
 10
20.13756801068277
 20
-20.34829961202147
 30
0.0
 11
20.34467477530075
 21
-20.50721822190587
 31
0.0
  0
LINE
  5
3A3
330
1F
100
AcDbEntity
  8
0
100
AcDbLine
 10
20.34467477530075
 20
-20.50721822190587
 30
0.0
 11
20.58585571090381
 21
-20.60711863641848
 31
0.0
  0
LINE
  5
3A4
330
1F
100
AcDbEntity
  8
0
100
AcDbLine
 10
20.84467473530083
 20
-20.64119280740346
 30
0.0
 11
42.14467303130135
 21
-20.64119280740283
 31
0.0
  0
LINE
  5
3A5
330
1F
100
AcDbEntity
  8
0
100
AcDbLine
 10
42.64467299130142
 20
-20.50721822190524
 30
0.0
 11
42.40349205569836
 21
-20.60711863641785
 31
0.0
  0
LINE
  5
3A6
330
1F
100
AcDbEntity
  8
0
100
AcDbLine
 10
42.85177975591941
 20
-20.34829961202084
 30
0.0
 11
42.64467299130142
 21
-20.50721822190524
 31
0.0
  0
LINE
  5
3A7
330
1F
100
AcDbEntity
  8
0
100
AcDbLine
 10
43.01069836580371
 20
-20.14119284740281
 30
0.0
 11
42.85177975591941
 21
-20.34829961202084
 31
0.0
  0
LINE
  5
3A8
330
1F
100
AcDbEntity
  8
0
100
AcDbLine
 10
43.11059878031642
 20
-19.90001191179984
 30
0.0
 11
43.01069836580371
 21
-20.14119284740281
 31
0.0
  0
LINE
  5
3A9
330
1F
100
AcDbEntity
  8
0
100
AcDbLine
 10
43.14467295130131
 20
-19.64119288740283
 30
0.0
 11
43.14467295130131
 21
-14.64119328740276
 31
0.0
  0
LINE
  5
3AA
330
1F
100
AcDbEntity
  8
0
100
AcDbLine
 10
52.67874636228591
 20
-19.90001191180038
 30
0.0
 11
52.77864677679862
 21
-20.1411928474034
 31
0.0
  0
LINE
  5
3AB
330
1F
100
AcDbEntity
  8
0
100
AcDbLine
 10
52.77864677679862
 20
-20.1411928474034
 30
0.0
 11
52.9375653866831
 21
-20.34829961202143
 31
0.0
  0
LINE
  5
3AC
330
1F
100
AcDbEntity
  8
0
100
AcDbLine
 10
52.9375653866831
 20
-20.34829961202143
 30
0.0
 11
53.14467215130109
 21
-20.50721822190582
 31
0.0
  0
LINE
  5
3AD
330
1F
100
AcDbEntity
  8
0
100
AcDbLine
 10
53.14467215130109
 20
-20.50721822190582
 30
0.0
 11
53.38585308690415
 21
-20.6071186364184
 31
0.0
  0
LINE
  5
3AE
330
1F
100
AcDbEntity
  8
0
100
AcDbLine
 10
53.38585308690415
 20
-20.6071186364184
 30
0.0
 11
53.64467211130116
 21
-20.64119280740337
 31
0.0
  0
LINE
  5
3AF
330
1F
100
AcDbEntity
  8
0
100
AcDbLine
 10
56.49770061631004
 20
-20.60715256136014
 30
0.0
 11
56.23900823472787
 21
-20.64119280740306
 31
0.0
  0
LINE
  5
3B0
330
1F
100
AcDbEntity
  8
0
100
AcDbLine
 10
57.10477123417703
 20
-20.14164695001476
 30
0.0
 11
56.94583678261674
 21
-20.34857767935803
 31
0.0
  0
LINE
  5
3B1
330
1F
100
AcDbEntity
  8
0
100
AcDbLine
 10
57.2047641099899
 20
-19.90064505909693
 30
0.0
 11
57.10477123417703
 21
-20.14164695001476
 31
0.0
  0
LINE
  5
3B2
330
1F
100
AcDbEntity
  8
0
100
AcDbLine
 10
57.23900784532023
 20
-19.64197953524441
 30
0.0
 11
57.2047641099899
 21
-19.90064505909693
 31
0.0
  0
LINE
  5
3B3
330
1F
100
AcDbEntity
  8
0
100
AcDbLine
 10
57.20886753357438
 20
43.71762108899419
 30
0.0
 11
57.24294170455926
 21
43.45880206459718
 31
0.0
  0
LINE
  5
3B4
330
1F
100
AcDbEntity
  8
0
100
AcDbLine
 10
57.10896711906167
 20
43.95880202459715
 30
0.0
 11
57.20886753357438
 21
43.71762108899419
 31
0.0
  0
LINE
  5
3B5
330
1F
100
AcDbEntity
  8
0
100
AcDbLine
 10
56.95004850917736
 20
44.16590878921514
 30
0.0
 11
57.10896711906167
 21
43.95880202459715
 31
0.0
  0
LINE
  5
3B6
330
1F
100
AcDbEntity
  8
0
100
AcDbLine
 10
56.74294174455937
 20
44.32482739909963
 30
0.0
 11
56.95004850917736
 21
44.16590878921514
 31
0.0
  0
LINE
  5
3B7
330
1F
100
AcDbEntity
  8
0
100
AcDbLine
 10
56.50176080895632
 20
44.42472781361216
 30
0.0
 11
56.74294174455937
 21
44.32482739909963
 31
0.0
  0
LINE
  5
3B8
330
1F
100
AcDbEntity
  8
0
100
AcDbLine
 10
56.2429417845593
 20
44.45880198459722
 30
0.0
 11
56.50176080895632
 21
44.42472781361216
 31
0.0
  0
LINE
  5
3B9
330
1F
100
AcDbEntity
  8
0
100
AcDbLine
 10
56.2429417845593
 20
44.45880198459722
 30
0.0
 11
53.64324920750727
 21
44.45880198459722
 31
0.0
  0
LINE
  5
3BA
330
1F
100
AcDbEntity
  8
0
100
AcDbLine
 10
53.38443018311025
 20
44.42472781361216
 30
0.0
 11
53.64324920750727
 21
44.45880198459722
 31
0.0
  0
LINE
  5
3BB
330
1F
100
AcDbEntity
  8
0
100
AcDbLine
 10
53.1432492475072
 20
44.32482739909963
 30
0.0
 11
53.38443018311025
 21
44.42472781361216
 31
0.0
  0
LINE
  5
3BC
330
1F
100
AcDbEntity
  8
0
100
AcDbLine
 10
52.9361424828892
 20
44.16590878921514
 30
0.0
 11
53.1432492475072
 21
44.32482739909963
 31
0.0
  0
LINE
  5
3BD
330
1F
100
AcDbEntity
  8
0
100
AcDbLine
 10
52.7772238730049
 20
43.95880202459715
 30
0.0
 11
52.9361424828892
 21
44.16590878921514
 31
0.0
  0
LINE
  5
3BE
330
1F
100
AcDbEntity
  8
0
100
AcDbLine
 10
52.6773234584922
 20
43.71762108899419
 30
0.0
 11
52.7772238730049
 21
43.95880202459715
 31
0.0
  0
LINE
  5
3BF
330
1F
100
AcDbEntity
  8
0
100
AcDbLine
 10
52.64324928750731
 20
43.45880206459718
 30
0.0
 11
52.6773234584922
 21
43.71762108899419
 31
0.0
  0
LINE
  5
3C0
330
1F
100
AcDbEntity
  8
0
100
AcDbLine
 10
52.64324928750731
 20
43.45880206459718
 30
0.0
 11
52.64324928750731
 21
38.45880246459729
 31
0.0
  0
LINE
  5
3C1
330
1F
100
AcDbEntity
  8
0
100
AcDbLine
 10
43.14467295130203
 20
38.45880246459729
 30
0.0
 11
43.14467295130221
 21
43.45880206459726
 31
0.0
  0
LINE
  5
3C2
330
1F
100
AcDbEntity
  8
0
100
AcDbLine
 10
43.14467295130221
 20
43.45880206459726
 30
0.0
 11
43.11059878031732
 21
43.71762108899429
 31
0.0
  0
LINE
  5
3C3
330
1F
100
AcDbEntity
  8
0
100
AcDbLine
 10
43.11059878031732
 20
43.71762108899429
 30
0.0
 11
43.01069836580461
 21
43.95880202459725
 31
0.0
  0
LINE
  5
3C4
330
1F
100
AcDbEntity
  8
0
100
AcDbLine
 10
43.01069836580461
 20
43.95880202459725
 30
0.0
 11
42.85177975592031
 21
44.16590878921523
 31
0.0
  0
LINE
  5
3C5
330
1F
100
AcDbEntity
  8
0
100
AcDbLine
 10
42.85177975592031
 20
44.16590878921523
 30
0.0
 11
42.64467299130232
 21
44.32482739909963
 31
0.0
  0
LINE
  5
3C6
330
1F
100
AcDbEntity
  8
0
100
AcDbLine
 10
42.64467299130232
 20
44.32482739909963
 30
0.0
 11
42.40349205569927
 21
44.42472781361225
 31
0.0
  0
LINE
  5
3C7
330
1F
100
AcDbEntity
  8
0
100
AcDbLine
 10
42.40349205569927
 20
44.42472781361225
 30
0.0
 11
42.14467303130225
 21
44.45880198459732
 31
0.0
  0
LINE
  5
3C8
330
1F
100
AcDbEntity
  8
0
100
AcDbLine
 10
36.42720740176413
 20
30.35880311259727
 30
0.0
 11
43.49567099421014
 21
30.35880311259727
 31
0.0
  0
LINE
  5
3C9
330
1F
100
AcDbEntity
  8
0
100
AcDbLine
 10
43.49567099421014
 20
24.05880361659722
 30
0.0
 11
36.42720740176413
 21
24.05880361659722
 31
0.0
  0
LINE
  5
3CA
330
1F
100
AcDbEntity
  8
0
100
AcDbLine
 10
36.42720740176359
 20
-0.2411944394028286
 30
0.0
 11
36.42720740176413
 21
24.05880361659722
 31
0.0
  0
LINE
  5
3CB
330
1F
100
AcDbEntity
  8
0
100
AcDbLine
 10
36.42720740176359
 20
-0.2411944394028286
 30
0.0
 11
43.49567099420978
 21
-0.2411944394028286
 31
0.0
  0
LINE
  5
3CC
330
1F
100
AcDbEntity
  8
0
100
AcDbLine
 10
43.49567099420978
 20
-0.2411944394028286
 30
0.0
 11
43.49567099420978
 21
-6.54119393540279
 31
0.0
  0
LINE
  5
3CD
330
1F
100
AcDbEntity
  8
0
100
AcDbLine
 10
43.49567099420978
 20
-6.54119393540279
 30
0.0
 11
36.42720740176359
 21
-6.54119393540279
 31
0.0
  0
LINE
  5
3CE
330
1F
100
AcDbEntity
  8
0
100
AcDbLine
 10
36.42720740176377
 20
-13.09118326026133
 30
0.0
 11
36.42720740176359
 21
-6.54119393540279
 31
0.0
  0
LINE
  5
3CF
330
1F
100
AcDbEntity
  8
0
100
AcDbLine
 10
25.42721327787759
 20
-13.09118326026161
 30
0.0
 11
36.42720740176377
 21
-13.09118326026133
 31
0.0
  0
LINE
  5
3D0
330
1F
100
AcDbEntity
  8
0
100
AcDbLine
 10
25.42721327787813
 20
36.90879243745599
 30
0.0
 11
25.42721327787759
 21
-13.09118326026161
 31
0.0
  0
LINE
  5
3D1
330
1F
100
AcDbEntity
  8
0
100
AcDbLine
 10
13.32721424587791
 20
24.05880361659758
 30
0.0
 11
13.32721424587791
 21
30.35880311259745
 31
0.0
  0
LINE
  5
3D2
330
1F
100
AcDbEntity
  8
0
100
AcDbLine
 10
13.32721424587791
 20
30.35880311259745
 30
0.0
 11
20.42721367787797
 21
30.35880311259745
 31
0.0
  0
LINE
  5
3D3
330
1F
100
AcDbEntity
  8
0
100
AcDbLine
 10
20.42721367787797
 20
24.05880361659758
 30
0.0
 11
13.32721424587791
 21
24.05880361659758
 31
0.0
  0
LINE
  5
3D4
330
1F
100
AcDbEntity
  8
0
100
AcDbLine
 10
13.32721424587737
 20
-0.2411944394024676
 30
0.0
 11
20.42721367787761
 21
-0.2411944394024676
 31
0.0
  0
LINE
  5
3D5
330
1F
100
AcDbEntity
  8
0
100
AcDbLine
 10
20.42721367787761
 20
-0.2411944394024676
 30
0.0
 11
20.42721367787761
 21
-6.541193935402519
 31
0.0
  0
LINE
  5
3D6
330
1F
100
AcDbEntity
  8
0
100
AcDbLine
 10
20.42721367787761
 20
-6.541193935402519
 30
0.0
 11
13.32721424587737
 21
-6.541193935402519
 31
0.0
  0
LINE
  5
3D7
330
1F
100
AcDbEntity
  8
0
100
AcDbLine
 10
50.98160869278625
 20
-4.075319851488159
 30
0.0
 11
51.04294220055919
 21
-4.541194095402781
 31
0.0
  0
LINE
  5
3D8
330
1F
100
AcDbEntity
  8
0
100
AcDbLine
 10
51.04294220055919
 20
-4.541194095402781
 30
0.0
 11
50.98160869278625
 21
-5.007068339317403
 31
0.0
  0
LINE
  5
3D9
330
1F
100
AcDbEntity
  8
0
100
AcDbLine
 10
50.98160869278625
 20
-5.007068339317403
 30
0.0
 11
50.80178794666363
 21
-5.441194023402807
 31
0.0
  0
LINE
  5
3DA
330
1F
100
AcDbEntity
  8
0
100
AcDbLine
 10
50.80178794666363
 20
-5.441194023402807
 30
0.0
 11
50.51573444887163
 21
-5.813986199715219
 31
0.0
  0
LINE
  5
3DB
330
1F
100
AcDbEntity
  8
0
100
AcDbLine
 10
50.51573444887163
 20
-5.813986199715219
 30
0.0
 11
50.14294227255939
 21
-6.100039697507176
 31
0.0
  0
LINE
  5
3DC
330
1F
100
AcDbEntity
  8
0
100
AcDbLine
 10
50.14294227255939
 20
-6.100039697507176
 30
0.0
 11
49.70881658847385
 21
-6.279860443629842
 31
0.0
  0
LINE
  5
3DD
330
1F
100
AcDbEntity
  8
0
100
AcDbLine
 10
49.70881658847385
 20
-6.279860443629842
 30
0.0
 11
49.24294234455922
 21
-6.341193951402834
 31
0.0
  0
LINE
  5
3DE
330
1F
100
AcDbEntity
  8
0
100
AcDbLine
 10
48.77706810064461
 20
-6.279860443629842
 30
0.0
 11
48.34294241655925
 21
-6.100039697507176
 31
0.0
  0
LINE
  5
3DF
330
1F
100
AcDbEntity
  8
0
100
AcDbLine
 10
47.97015024024683
 20
-5.813986199715219
 30
0.0
 11
47.68409674245483
 21
-5.441194023402807
 31
0.0
  0
LINE
  5
3E0
330
1F
100
AcDbEntity
  8
0
100
AcDbLine
 10
47.68409674245483
 20
-5.441194023402807
 30
0.0
 11
47.50427599633221
 21
-5.007068339317403
 31
0.0
  0
LINE
  5
3E1
330
1F
100
AcDbEntity
  8
0
100
AcDbLine
 10
47.50427599633221
 20
-5.007068339317403
 30
0.0
 11
47.44294248855926
 21
-4.541194095402781
 31
0.0
  0
LINE
  5
3E2
330
1F
100
AcDbEntity
  8
0
100
AcDbLine
 10
47.44294248855926
 20
-4.541194095402781
 30
0.0
 11
47.50427599633221
 21
-4.075319851488159
 31
0.0
  0
LINE
  5
3E3
330
1F
100
AcDbEntity
  8
0
100
AcDbLine
 10
47.50427599633221
 20
-4.075319851488159
 30
0.0
 11
47.68409674245483
 21
-3.641194167402754
 31
0.0
  0
LINE
  5
3E4
330
1F
100
AcDbEntity
  8
0
100
AcDbLine
 10
47.97015024024683
 20
-3.268401991090343
 30
0.0
 11
48.34294241655906
 21
-2.982348493298386
 31
0.0
  0
LINE
  5
3E5
330
1F
100
AcDbEntity
  8
0
100
AcDbLine
 10
48.34294241655906
 20
-2.982348493298386
 30
0.0
 11
48.77706810064461
 21
-2.80252774717572
 31
0.0
  0
LINE
  5
3E6
330
1F
100
AcDbEntity
  8
0
100
AcDbLine
 10
48.77706810064461
 20
-2.80252774717572
 30
0.0
 11
49.24294234455922
 21
-2.741194239402728
 31
0.0
  0
LINE
  5
3E7
330
1F
100
AcDbEntity
  8
0
100
AcDbLine
 10
50.14294227255921
 20
-2.982348493298386
 30
0.0
 11
50.51573444887163
 21
-3.268401991090343
 31
0.0
  0
LINE
  5
3E8
330
1F
100
AcDbEntity
  8
0
100
AcDbLine
 10
50.51573444887163
 20
-3.268401991090343
 30
0.0
 11
50.80178794666363
 21
-3.641194167402754
 31
0.0
  0
LINE
  5
3E9
330
1F
100
AcDbEntity
  8
0
100
AcDbLine
 10
15.07974477319903
 20
-9.651214221570868
 30
0.0
 11
15.27072311806105
 21
-10.08054845280872
 31
0.0
  0
LINE
  5
3EA
330
1F
100
AcDbEntity
  8
0
100
AcDbLine
 10
15.27072311806105
 20
-10.08054845280872
 30
0.0
 11
15.34407415786614
 21
-10.5446823077237
 31
0.0
  0
LINE
  5
3EB
330
1F
100
AcDbEntity
  8
0
100
AcDbLine
 10
15.34407415786614
 20
-10.5446823077237
 30
0.0
 11
15.2947991404703
 21
-11.01198583112082
 31
0.0
  0
LINE
  5
3EC
330
1F
100
AcDbEntity
  8
0
100
AcDbLine
 10
15.2947991404703
 20
-11.01198583112082
 30
0.0
 11
15.12625607687808
 21
-11.45061306013619
 31
0.0
  0
LINE
  5
3ED
330
1F
100
AcDbEntity
  8
0
100
AcDbLine
 10
15.12625607687808
 20
-11.45061306013619
 30
0.0
 11
14.84993089834271
 21
-11.83067227397817
 31
0.0
  0
LINE
  5
3EE
330
1F
100
AcDbEntity
  8
0
100
AcDbLine
 10
14.84993089834271
 20
-11.83067227397817
 30
0.0
 11
14.48465470913257
 21
-12.12626306530092
 31
0.0
  0
LINE
  5
3EF
330
1F
100
AcDbEntity
  8
0
100
AcDbLine
 10
14.48465470913257
 20
-12.12626306530092
 30
0.0
 11
14.05532047789475
 21
-12.31724141016272
 31
0.0
  0
LINE
  5
3F0
330
1F
100
AcDbEntity
  8
0
100
AcDbLine
 10
13.12388309958248
 20
-12.34131743257202
 30
0.0
 11
12.68525587056724
 21
-12.17277436897979
 31
0.0
  0
LINE
  5
3F1
330
1F
100
AcDbEntity
  8
0
100
AcDbLine
 10
12.68525587056724
 20
-12.17277436897979
 30
0.0
 11
12.30519665672526
 21
-11.89644919044447
 31
0.0
  0
LINE
  5
3F2
330
1F
100
AcDbEntity
  8
0
100
AcDbLine
 10
12.30519665672526
 20
-11.89644919044447
 30
0.0
 11
12.0096058654026
 21
-11.53117300123428
 31
0.0
  0
LINE
  5
3F3
330
1F
100
AcDbEntity
  8
0
100
AcDbLine
 10
11.81862752054058
 20
-11.10183876999642
 30
0.0
 11
11.74527648073549
 21
-10.63770491508144
 31
0.0
  0
LINE
  5
3F4
330
1F
100
AcDbEntity
  8
0
100
AcDbLine
 10
11.74527648073549
 20
-10.63770491508144
 30
0.0
 11
11.79455149813132
 21
-10.17040139168432
 31
0.0
  0
LINE
  5
3F5
330
1F
100
AcDbEntity
  8
0
100
AcDbLine
 10
11.79455149813132
 20
-10.17040139168432
 30
0.0
 11
11.96309456172355
 21
-9.731774162668952
 31
0.0
  0
LINE
  5
3F6
330
1F
100
AcDbEntity
  8
0
100
AcDbLine
 10
11.96309456172355
 20
-9.731774162668952
 30
0.0
 11
12.23941974025891
 21
-9.351714948826976
 31
0.0
  0
LINE
  5
3F7
330
1F
100
AcDbEntity
  8
0
100
AcDbLine
 10
12.60469592946906
 20
-9.056124157504222
 30
0.0
 11
13.03403016070687
 21
-8.865145812642425
 31
0.0
  0
LINE
  5
3F8
330
1F
100
AcDbEntity
  8
0
100
AcDbLine
 10
13.03403016070687
 20
-8.865145812642425
 30
0.0
 11
13.49816401562195
 21
-8.791794772837246
 31
0.0
  0
LINE
  5
3F9
330
1F
100
AcDbEntity
  8
0
100
AcDbLine
 10
13.49816401562195
 20
-8.791794772837246
 30
0.0
 11
13.96546753901915
 21
-8.841069790233126
 31
0.0
  0
LINE
  5
3FA
330
1F
100
AcDbEntity
  8
0
100
AcDbLine
 10
14.78415398187636
 20
-9.285938032360672
 30
0.0
 11
15.07974477319903
 21
-9.651214221570868
 31
0.0
  0
LINE
  5
3FB
330
1F
100
AcDbEntity
  8
0
100
AcDbLine
 10
51.04294220055919
 20
28.35880327259722
 30
0.0
 11
50.98160869278625
 21
27.89292902868259
 31
0.0
  0
LINE
  5
3FC
330
1F
100
AcDbEntity
  8
0
100
AcDbLine
 10
50.51573444887163
 20
27.08601116828483
 30
0.0
 11
50.14294227255939
 21
26.79995767049283
 31
0.0
  0
LINE
  5
3FD
330
1F
100
AcDbEntity
  8
0
100
AcDbLine
 10
47.50427599633221
 20
28.82467751651184
 30
0.0
 11
47.68409674245483
 21
29.2588032005972
 31
0.0
  0
LINE
  5
3FE
330
1F
100
AcDbEntity
  8
0
100
AcDbLine
 10
50.51573444887163
 20
29.63159537690979
 30
0.0
 11
50.80178794666363
 21
29.25880320059738
 31
0.0
  0
LINE
  5
3FF
330
1F
100
AcDbEntity
  8
0
100
AcDbLine
 10
50.80178794666363
 20
29.25880320059738
 30
0.0
 11
50.98160869278625
 21
28.82467751651184
 31
0.0
  0
LINE
  5
400
330
1F
100
AcDbEntity
  8
0
100
AcDbLine
 10
13.97122559863564
 20
36.15753213895431
 30
0.0
 11
14.4092957109232
 21
35.98754629531118
 31
0.0
  0
LINE
  5
401
330
1F
100
AcDbEntity
  8
0
100
AcDbLine
 10
13.58526384888254
 20
32.60926060991247
 30
0.0
 11
13.11812503996599
 21
32.66007343824079
 31
0.0
  0
LINE
  5
402
330
1F
100
AcDbEntity
  8
0
100
AcDbLine
 10
13.11812503996599
 20
32.66007343824079
 30
0.0
 11
12.68005492767842
 21
32.83005928188376
 31
0.0
  0
LINE
  5
403
330
1F
100
AcDbEntity
  8
0
100
AcDbLine
 10
12.68005492767842
 20
32.83005928188376
 30
0.0
 11
12.3009072662271
 21
33.10763388651242
 31
0.0
  0
LINE
  5
404
330
1F
100
AcDbEntity
  8
0
100
AcDbLine
 10
12.3009072662271
 20
33.10763388651242
 30
0.0
 11
12.00652034216883
 21
33.47388100153504
 31
0.0
  0
LINE
  5
405
330
1F
100
AcDbEntity
  8
0
100
AcDbLine
 10
12.00652034216883
 20
33.47388100153504
 30
0.0
 11
11.81695613788095
 21
33.9038414913145
 31
0.0
  0
LINE
  5
406
330
1F
100
AcDbEntity
  8
0
100
AcDbLine
 10
11.81695613788095
 20
33.9038414913145
 30
0.0
 11
11.74513314061582
 21
34.36821425901573
 31
0.0
  0
LINE
  5
407
330
1F
100
AcDbEntity
  8
0
100
AcDbLine
 10
57.24294170455926
 20
43.45880206459718
 30
0.0
 11
57.23900784532023
 21
-19.64197953524441
 31
0.0
  0
LINE
  5
408
330
1F
100
AcDbEntity
  8
0
100
AcDbLine
 10
96.84466865530172
 20
11.93685126876555
 30
0.0
 11
96.84836107079491
 21
11.90880458859728
 31
0.0
  0
LINE
  5
409
330
1F
100
AcDbEntity
  8
0
100
AcDbLine
 10
1.637908276983466
 20
-47.51329211903152
 30
0.0
 11
1.83963683108189
 21
-47.51345089081457
 31
0.0
  0
LINE
  5
40A
330
1F
100
AcDbEntity
  8
0
100
AcDbLine
 10
96.84836107079491
 20
11.90880458859728
 30
0.0
 11
96.84466865530172
 21
11.88075790842901
 31
0.0
  0
LINE
  5
40B
330
1F
100
AcDbEntity
  8
0
100
AcDbLine
 10
1.834444955329029
 20
-54.11344832072511
 30
0.0
 11
1.637908276983285
 21
-54.11329371551115
 31
0.0
  0
ENDSEC
  0
SECTION
  2
OBJECTS
  0
DICTIONARY
  5
C
330
0
100
AcDbDictionary
281
     1
  3
ACAD_GROUP
350
D
  3
ACAD_LAYOUT
350
1A
  3
ACAD_MATERIAL
350
3B
  3
ACAD_MLEADERSTYLE
350
40D
  3
ACAD_MLINESTYLE
350
17
  3
ACAD_PLOTSETTINGS
350
19
  3
ACAD_PLOTSTYLENAME
350
E
  3
ACAD_TABLESTYLE
350
40C
  3
ACAD_VISUALSTYLE
350
2A
  0
DICTIONARY
  5
D
102
{ACAD_REACTORS
330
C
102
}
330
C
100
AcDbDictionary
281
     1
  0
DICTIONARY
  5
1A
102
{ACAD_REACTORS
330
C
102
}
330
C
100
AcDbDictionary
281
     1
  3
Layout1
350
1E
  3
Layout2
350
26
  3
Model
350
22
  0
DICTIONARY
  5
3B
102
{ACAD_REACTORS
330
C
102
}
330
C
100
AcDbDictionary
281
     1
  3
ByBlock
350
3D
  3
ByLayer
350
3C
  3
Global
350
3E
  0
DICTIONARY
  5
40D
102
{ACAD_REACTORS
330
C
102
}
330
C
100
AcDbDictionary
281
     1
  0
DICTIONARY
  5
17
102
{ACAD_REACTORS
330
C
102
}
330
C
100
AcDbDictionary
281
     1
  3
Standard
350
18
  0
DICTIONARY
  5
19
102
{ACAD_REACTORS
330
C
102
}
330
C
100
AcDbDictionary
281
     1
  0
ACDBDICTIONARYWDFLT
  5
E
102
{ACAD_REACTORS
330
C
102
}
330
C
100
AcDbDictionary
281
     1
  3
Normal
350
F
100
AcDbDictionaryWithDefault
340
F
  0
DICTIONARY
  5
40C
102
{ACAD_REACTORS
330
C
102
}
330
C
100
AcDbDictionary
281
     1
  0
DICTIONARY
  5
2A
102
{ACAD_REACTORS
330
C
102
}
330
C
100
AcDbDictionary
281
     1
  3
2dWireframe
350
2F
  3
3D Hidden
350
31
  3
3dWireframe
350
30
  3
Basic
350
32
  3
Brighten
350
36
  3
ColorChange
350
3A
  3
Conceptual
350
34
  3
Dim
350
35
  3
Facepattern
350
39
  3
Flat
350
2B
  3
FlatWithEdges
350
2C
  3
Gouraud
350
2D
  3
GouraudWithEdges
350
2E
  3
Linepattern
350
38
  3
Realistic
350
33
  3
Thicken
350
37
  0
LAYOUT
  5
1E
102
{ACAD_REACTORS
330
1A
102
}
330
1A
100
AcDbPlotSettings
  1

  2
none_device
  4

  6

 40
0.0
 41
0.0
 42
0.0
 43
0.0
 44
0.0
 45
0.0
 46
0.0
 47
0.0
 48
0.0
 49
0.0
140
0.0
141
0.0
142
1.0
143
1.0
 70
   688
 72
     0
 73
     0
 74
     5
  7

 75
    16
 76
     0
 77
     2
 78
   300
147
1.0
148
0.0
149
0.0
100
AcDbLayout
  1
Layout1
 70
     1
 71
     1
 10
0.0
 20
0.0
 11
12.0
 21
9.0
 12
0.0
 22
0.0
 32
0.0
 14
1.000000000000000E+20
 24
1.000000000000000E+20
 34
1.000000000000000E+20
 15
-1.000000000000000E+20
 25
-1.000000000000000E+20
 35
-1.000000000000000E+20
146
0.0
 13
0.0
 23
0.0
 33
0.0
 16
1.0
 26
0.0
 36
0.0
 17
0.0
 27
1.0
 37
0.0
 76
     0
330
1B
  0
LAYOUT
  5
26
102
{ACAD_REACTORS
330
1A
102
}
330
1A
100
AcDbPlotSettings
  1

  2
none_device
  4

  6

 40
0.0
 41
0.0
 42
0.0
 43
0.0
 44
0.0
 45
0.0
 46
0.0
 47
0.0
 48
0.0
 49
0.0
140
0.0
141
0.0
142
1.0
143
1.0
 70
   688
 72
     0
 73
     0
 74
     5
  7

 75
    16
 76
     0
 77
     2
 78
   300
147
1.0
148
0.0
149
0.0
100
AcDbLayout
  1
Layout2
 70
     1
 71
     2
 10
0.0
 20
0.0
 11
0.0
 21
0.0
 12
0.0
 22
0.0
 32
0.0
 14
0.0
 24
0.0
 34
0.0
 15
0.0
 25
0.0
 35
0.0
146
0.0
 13
0.0
 23
0.0
 33
0.0
 16
1.0
 26
0.0
 36
0.0
 17
0.0
 27
1.0
 37
0.0
 76
     0
330
23
  0
LAYOUT
  5
22
102
{ACAD_REACTORS
330
1A
102
}
330
1A
100
AcDbPlotSettings
  1

  2
none_device
  4

  6

 40
0.0
 41
0.0
 42
0.0
 43
0.0
 44
0.0
 45
0.0
 46
0.0
 47
0.0
 48
0.0
 49
0.0
140
0.0
141
0.0
142
1.0
143
1.0
 70
  1712
 72
     0
 73
     0
 74
     0
  7

 75
     0
 76
     0
 77
     2
 78
   300
147
1.0
148
0.0
149
0.0
100
AcDbLayout
  1
Model
 70
     1
 71
     0
 10
0.0
 20
0.0
 11
12.0
 21
9.0
 12
0.0
 22
0.0
 32
0.0
 14
1.000000000000000E+20
 24
1.000000000000000E+20
 34
1.000000000000000E+20
 15
-1.000000000000000E+20
 25
-1.000000000000000E+20
 35
-1.000000000000000E+20
146
0.0
 13
0.0
 23
0.0
 33
0.0
 16
1.0
 26
0.0
 36
0.0
 17
0.0
 27
1.0
 37
0.0
 76
     0
330
1F
331
29
  0
MATERIAL
  5
3D
102
{ACAD_REACTORS
330
3B
102
}
330
3B
100
AcDbMaterial
  1
ByBlock
 72
     1
 94
      127
  0
MATERIAL
  5
3C
102
{ACAD_REACTORS
330
3B
102
}
330
3B
100
AcDbMaterial
  1
ByLayer
 72
     1
 94
      127
  0
MATERIAL
  5
3E
102
{ACAD_REACTORS
330
3B
102
}
330
3B
100
AcDbMaterial
  1
Global
 72
     1
 94
      127
  0
MLINESTYLE
  5
18
102
{ACAD_REACTORS
330
17
102
}
330
17
100
AcDbMlineStyle
  2
Standard
 70
     0
  3

 62
   256
 51
90.0
 52
90.0
 71
     2
 49
0.5
 62
   256
  6
BYLAYER
 49
-0.5
 62
   256
  6
BYLAYER
  0
ACDBPLACEHOLDER
  5
F
102
{ACAD_REACTORS
330
E
102
}
330
E
  0
VISUALSTYLE
  5
2F
102
{ACAD_REACTORS
330
2A
102
}
330
2A
100
AcDbVisualStyle
  2
2dWireframe
 70
     4
177
     2
291
     0
 71
     0
176
     1
 72
     2
176
     1
 73
     0
176
     1
 90
        0
176
     1
 40
-0.6
176
     1
 41
-30.0
176
     1
 62
     5
 63
     7
421
 16777215
176
     1
 74
     1
176
     1
 91
        4
176
     1
 64
     7
176
     1
 65
   257
176
     1
 75
     1
176
     1
175
     1
176
     1
 42
1.0
176
     1
 92
        0
176
     1
 66
   257
176
     1
 43
1.0
176
     1
 76
     1
176
     1
 77
     6
176
     1
 78
     2
176
     1
 67
     7
176
     1
 79
     5
176
     1
170
     0
176
     1
171
     0
176
     1
290
     0
176
     1
 93
        1
176
     1
 44
0.0
176
     1
173
     0
176
     1
  0
VISUALSTYLE
  5
31
102
{ACAD_REACTORS
330
2A
102
}
330
2A
100
AcDbVisualStyle
  2
3D Hidden
 70
     6
177
     2
291
     0
 71
     1
176
     1
 72
     2
176
     1
 73
     2
176
     1
 90
        0
176
     1
 40
-0.6
176
     1
 41
-30.0
176
     1
 62
     5
 63
     7
421
 16777215
176
     1
 74
     2
176
     1
 91
        2
176
     1
 64
     7
176
     1
 65
   257
176
     1
 75
     2
176
     1
175
     1
176
     1
 42
40.0
176
     1
 92
        0
176
     1
 66
   257
176
     1
 43
1.0
176
     1
 76
     1
176
     1
 77
     6
176
     1
 78
     2
176
     1
 67
     7
176
     1
 79
     3
176
     1
170
     0
176
     1
171
     0
176
     1
290
     0
176
     1
 93
        1
176
     1
 44
0.0
176
     1
173
     0
176
     1
  0
VISUALSTYLE
  5
30
102
{ACAD_REACTORS
330
2A
102
}
330
2A
100
AcDbVisualStyle
  2
3dWireframe
 70
     5
177
     2
291
     0
 71
     0
176
     1
 72
     2
176
     1
 73
     0
176
     1
 90
        0
176
     1
 40
-0.6
176
     1
 41
-30.0
176
     1
 62
     5
 63
     7
421
 16777215
176
     1
 74
     1
176
     1
 91
        4
176
     1
 64
     7
176
     1
 65
   257
176
     1
 75
     1
176
     1
175
     1
176
     1
 42
1.0
176
     1
 92
        0
176
     1
 66
   257
176
     1
 43
1.0
176
     1
 76
     1
176
     1
 77
     6
176
     1
 78
     2
176
     1
 67
     7
176
     1
 79
     5
176
     1
170
     0
176
     1
171
     0
176
     1
290
     0
176
     1
 93
        1
176
     1
 44
0.0
176
     1
173
     0
176
     1
  0
VISUALSTYLE
  5
32
102
{ACAD_REACTORS
330
2A
102
}
330
2A
100
AcDbVisualStyle
  2
Basic
 70
     7
177
     2
291
     1
 71
     1
176
     1
 72
     0
176
     1
 73
     1
176
     1
 90
        0
176
     1
 40
-0.6
176
     1
 41
-30.0
176
     1
 62
     5
 63
     7
421
 16777215
176
     1
 74
     0
176
     1
 91
        4
176
     1
 64
     7
176
     1
 65
   257
176
     1
 75
     1
176
     1
175
     1
176
     1
 42
1.0
176
     1
 92
        8
176
     1
 66
     7
176
     1
 43
1.0
176
     1
 76
     1
176
     1
 77
     6
176
     1
 78
     2
176
     1
 67
     7
176
     1
 79
     5
176
     1
170
     0
176
     1
171
     0
176
     1
290
     0
176
     1
 93
        1
176
     1
 44
0.0
176
     1
173
     0
176
     1
  0
VISUALSTYLE
  5
36
102
{ACAD_REACTORS
330
2A
102
}
330
2A
100
AcDbVisualStyle
  2
Brighten
 70
    12
177
     2
291
     1
 71
     2
176
     1
 72
     2
176
     1
 73
     0
176
     1
 90
        0
176
     1
 40
-0.6
176
     1
 41
-30.0
176
     1
 62
     5
 63
     7
421
 16777215
176
     1
 74
     1
176
     1
 91
        4
176
     1
 64
     7
176
     1
 65
   257
176
     1
 75
     1
176
     1
175
     1
176
     1
 42
1.0
176
     1
 92
        8
176
     1
 66
     7
176
     1
 43
1.0
176
     1
 76
     1
176
     1
 77
     6
176
     1
 78
     2
176
     1
 67
     7
176
     1
 79
     5
176
     1
170
     0
176
     1
171
     0
176
     1
290
     0
176
     1
 93
        1
176
     1
 44
50.0
176
     1
173
     0
176
     1
  0
VISUALSTYLE
  5
3A
102
{ACAD_REACTORS
330
2A
102
}
330
2A
100
AcDbVisualStyle
  2
ColorChange
 70
    16
177
     2
291
     1
 71
     2
176
     1
 72
     2
176
     1
 73
     3
176
     1
 90
        0
176
     1
 40
-0.6
176
     1
 41
-30.0
176
     1
 62
     5
 63
     8
421
  8421504
176
     1
 74
     1
176
     1
 91
        4
176
     1
 64
     7
176
     1
 65
   257
176
     1
 75
     1
176
     1
175
     1
176
     1
 42
1.0
176
     1
 92
        8
176
     1
 66
     8
424
  8421504
176
     1
 43
1.0
176
     1
 76
     1
176
     1
 77
     6
176
     1
 78
     2
176
     1
 67
     7
176
     1
 79
     5
176
     1
170
     0
176
     1
171
     0
176
     1
290
     0
176
     1
 93
        1
176
     1
 44
0.0
176
     1
173
     0
176
     1
  0
VISUALSTYLE
  5
34
102
{ACAD_REACTORS
330
2A
102
}
330
2A
100
AcDbVisualStyle
  2
Conceptual
 70
     9
177
     2
291
     0
 71
     3
176
     1
 72
     2
176
     1
 73
     0
176
     1
 90
        0
176
     1
 40
-0.6
176
     1
 41
-30.0
176
     1
 62
     5
 63
     7
421
 16777215
176
     1
 74
     2
176
     1
 91
        2
176
     1
 64
     7
176
     1
 65
   257
176
     1
 75
     1
176
     1
175
     1
176
     1
 42
40.0
176
     1
 92
        8
176
     1
 66
     7
176
     1
 43
1.0
176
     1
 76
     1
176
     1
 77
     6
176
     1
 78
     2
176
     1
 67
     7
176
     1
 79
     3
176
     1
170
     0
176
     1
171
     0
176
     1
290
     0
176
     1
 93
        1
176
     1
 44
0.0
176
     1
173
     0
176
     1
  0
VISUALSTYLE
  5
35
102
{ACAD_REACTORS
330
2A
102
}
330
2A
100
AcDbVisualStyle
  2
Dim
 70
    11
177
     2
291
     1
 71
     2
176
     1
 72
     2
176
     1
 73
     0
176
     1
 90
        0
176
     1
 40
-0.6
176
     1
 41
-30.0
176
     1
 62
     5
 63
     7
421
 16777215
176
     1
 74
     1
176
     1
 91
        4
176
     1
 64
     7
176
     1
 65
   257
176
     1
 75
     1
176
     1
175
     1
176
     1
 42
1.0
176
     1
 92
        8
176
     1
 66
     7
176
     1
 43
1.0
176
     1
 76
     1
176
     1
 77
     6
176
     1
 78
     2
176
     1
 67
     7
176
     1
 79
     5
176
     1
170
     0
176
     1
171
     0
176
     1
290
     0
176
     1
 93
        1
176
     1
 44
-50.0
176
     1
173
     0
176
     1
  0
VISUALSTYLE
  5
39
102
{ACAD_REACTORS
330
2A
102
}
330
2A
100
AcDbVisualStyle
  2
Facepattern
 70
    15
177
     2
291
     1
 71
     2
176
     1
 72
     2
176
     1
 73
     0
176
     1
 90
        0
176
     1
 40
-0.6
176
     1
 41
-30.0
176
     1
 62
     5
 63
     7
421
 16777215
176
     1
 74
     1
176
     1
 91
        4
176
     1
 64
     7
176
     1
 65
   257
176
     1
 75
     1
176
     1
175
     1
176
     1
 42
1.0
176
     1
 92
        8
176
     1
 66
     7
176
     1
 43
1.0
176
     1
 76
     1
176
     1
 77
     6
176
     1
 78
     2
176
     1
 67
     7
176
     1
 79
     5
176
     1
170
     0
176
     1
171
     0
176
     1
290
     0
176
     1
 93
        1
176
     1
 44
0.0
176
     1
173
     0
176
     1
  0
VISUALSTYLE
  5
2B
102
{ACAD_REACTORS
330
2A
102
}
330
2A
100
AcDbVisualStyle
  2
Flat
 70
     0
177
     2
291
     1
 71
     2
176
     1
 72
     1
176
     1
 73
     1
176
     1
 90
        2
176
     1
 40
-0.6
176
     1
 41
30.0
176
     1
 62
     5
 63
     7
421
 16777215
176
     1
 74
     0
176
     1
 91
        4
176
     1
 64
     7
176
     1
 65
   257
176
     1
 75
     1
176
     1
175
     1
176
     1
 42
1.0
176
     1
 92
        8
176
     1
 66
     7
176
     1
 43
1.0
176
     1
 76
     1
176
     1
 77
     6
176
     1
 78
     2
176
     1
 67
     7
176
     1
 79
     5
176
     1
170
     0
176
     1
171
     0
176
     1
290
     0
176
     1
 93
       13
176
     1
 44
0.0
176
     1
173
     0
176
     1
  0
VISUALSTYLE
  5
2C
102
{ACAD_REACTORS
330
2A
102
}
330
2A
100
AcDbVisualStyle
  2
FlatWithEdges
 70
     1
177
     2
291
     1
 71
     2
176
     1
 72
     1
176
     1
 73
     1
176
     1
 90
        2
176
     1
 40
-0.6
176
     1
 41
30.0
176
     1
 62
     5
 63
     7
421
 16777215
176
     1
 74
     1
176
     1
 91
        4
176
     1
 64
     7
176
     1
 65
   257
176
     1
 75
     1
176
     1
175
     1
176
     1
 42
1.0
176
     1
 92
        0
176
     1
 66
   257
176
     1
 43
1.0
176
     1
 76
     1
176
     1
 77
     6
176
     1
 78
     2
176
     1
 67
     7
176
     1
 79
     5
176
     1
170
     0
176
     1
171
     0
176
     1
290
     0
176
     1
 93
       13
176
     1
 44
0.0
176
     1
173
     0
176
     1
  0
VISUALSTYLE
  5
2D
102
{ACAD_REACTORS
330
2A
102
}
330
2A
100
AcDbVisualStyle
  2
Gouraud
 70
     2
177
     2
291
     1
 71
     2
176
     1
 72
     2
176
     1
 73
     1
176
     1
 90
        2
176
     1
 40
-0.6
176
     1
 41
30.0
176
     1
 62
     5
 63
     7
421
 16777215
176
     1
 74
     0
176
     1
 91
        4
176
     1
 64
     7
176
     1
 65
   257
176
     1
 75
     1
176
     1
175
     1
176
     1
 42
1.0
176
     1
 92
        0
176
     1
 66
     7
176
     1
 43
1.0
176
     1
 76
     1
176
     1
 77
     6
176
     1
 78
     2
176
     1
 67
     7
176
     1
 79
     5
176
     1
170
     0
176
     1
171
     0
176
     1
290
     0
176
     1
 93
       13
176
     1
 44
0.0
176
     1
173
     0
176
     1
  0
VISUALSTYLE
  5
2E
102
{ACAD_REACTORS
330
2A
102
}
330
2A
100
AcDbVisualStyle
  2
GouraudWithEdges
 70
     3
177
     2
291
     1
 71
     2
176
     1
 72
     2
176
     1
 73
     1
176
     1
 90
        2
176
     1
 40
-0.6
176
     1
 41
30.0
176
     1
 62
     5
 63
     7
421
 16777215
176
     1
 74
     1
176
     1
 91
        4
176
     1
 64
     7
176
     1
 65
   257
176
     1
 75
     1
176
     1
175
     1
176
     1
 42
1.0
176
     1
 92
        0
176
     1
 66
   257
176
     1
 43
1.0
176
     1
 76
     1
176
     1
 77
     6
176
     1
 78
     2
176
     1
 67
     7
176
     1
 79
     5
176
     1
170
     0
176
     1
171
     0
176
     1
290
     0
176
     1
 93
       13
176
     1
 44
0.0
176
     1
173
     0
176
     1
  0
VISUALSTYLE
  5
38
102
{ACAD_REACTORS
330
2A
102
}
330
2A
100
AcDbVisualStyle
  2
Linepattern
 70
    14
177
     2
291
     1
 71
     2
176
     1
 72
     2
176
     1
 73
     0
176
     1
 90
        0
176
     1
 40
-0.6
176
     1
 41
-30.0
176
     1
 62
     5
 63
     7
421
 16777215
176
     1
 74
     1
176
     1
 91
        4
176
     1
 64
     7
176
     1
 65
   257
176
     1
 75
     7
176
     1
175
     7
176
     1
 42
1.0
176
     1
 92
        8
176
     1
 66
     7
176
     1
 43
1.0
176
     1
 76
     1
176
     1
 77
     6
176
     1
 78
     2
176
     1
 67
     7
176
     1
 79
     5
176
     1
170
     0
176
     1
171
     0
176
     1
290
     0
176
     1
 93
        1
176
     1
 44
0.0
176
     1
173
     0
176
     1
  0
VISUALSTYLE
  5
33
102
{ACAD_REACTORS
330
2A
102
}
330
2A
100
AcDbVisualStyle
  2
Realistic
 70
     8
177
     2
291
     0
 71
     2
176
     1
 72
     2
176
     1
 73
     0
176
     1
 90
        0
176
     1
 40
-0.6
176
     1
 41
-30.0
176
     1
 62
     5
 63
     7
421
 16777215
176
     1
 74
     1
176
     1
 91
        0
176
     1
 64
     7
176
     1
 65
   257
176
     1
 75
     1
176
     1
175
     1
176
     1
 42
1.0
176
     1
 92
        8
176
     1
 66
     8
424
  7895160
176
     1
 43
1.0
176
     1
 76
     1
176
     1
 77
     6
176
     1
 78
     2
176
     1
 67
     7
176
     1
 79
     5
176
     1
170
     0
176
     1
171
     0
176
     1
290
     0
176
     1
 93
       13
176
     1
 44
0.0
176
     1
173
     0
176
     1
  0
VISUALSTYLE
  5
37
102
{ACAD_REACTORS
330
2A
102
}
330
2A
100
AcDbVisualStyle
  2
Thicken
 70
    13
177
     2
291
     1
 71
     2
176
     1
 72
     2
176
     1
 73
     0
176
     1
 90
        0
176
     1
 40
-0.6
176
     1
 41
-30.0
176
     1
 62
     5
 63
     7
421
 16777215
176
     1
 74
     1
176
     1
 91
        4
176
     1
 64
     7
176
     1
 65
   257
176
     1
 75
     1
176
     1
175
     1
176
     1
 42
1.0
176
     1
 92
       12
176
     1
 66
     7
176
     1
 43
1.0
176
     1
 76
     1
176
     1
 77
     6
176
     1
 78
     2
176
     1
 67
     7
176
     1
 79
     5
176
     1
170
     0
176
     1
171
     0
176
     1
290
     0
176
     1
 93
        1
176
     1
 44
0.0
176
     1
173
     0
176
     1
  0
ENDSEC
  0
EOF
