  0
SECTION
  2
HEADER
  9
$ACADVER
  1
AC1024
  9
$ACADMAINTVER
 70
     6
  9
$DWGCODEPAGE
  3
ANSI_1252
  9
$INSBASE
 10
0.0
 20
0.0
 30
0.0
  9
$EXTMIN
 10
1.000000000000000E+20
 20
1.000000000000000E+20
 30
1.000000000000000E+20
  9
$EXTMAX
 10
-1.000000000000000E+20
 20
-1.000000000000000E+20
 30
-1.000000000000000E+20
  9
$LIMMIN
 10
0.0
 20
0.0
  9
$LIMMAX
 10
12.0
 20
9.0
  9
$ORTHOMODE
 70
     0
  9
$REGENMODE
 70
     1
  9
$FILLMODE
 70
     1
  9
$QTEXTMODE
 70
     0
  9
$MIRRTEXT
 70
     1
  9
$LTSCALE
 40
1.0
  9
$ATTMODE
 70
     1
  9
$TEXTSIZE
 40
0.2
  9
$TRACEWID
 40
0.05
  9
$TEXTSTYLE
  7
Standard
  9
$CLAYER
  8
0
  9
$CELTYPE
  6
ByLayer
  9
$CECOLOR
 62
   256
  9
$CELTSCALE
 40
1.0
  9
$DISPSILH
 70
     0
  9
$DIMSCALE
 40
1.0
  9
$DIMASZ
 40
0.18
  9
$DIMEXO
 40
0.0625
  9
$DIMDLI
 40
0.38
  9
$DIMRND
 40
0.0
  9
$DIMDLE
 40
0.0
  9
$DIMEXE
 40
0.18
  9
$DIMTP
 40
0.0
  9
$DIMTM
 40
0.0
  9
$DIMTXT
 40
0.18
  9
$DIMCEN
 40
0.09
  9
$DIMTSZ
 40
0.0
  9
$DIMTOL
 70
     0
  9
$DIMLIM
 70
     0
  9
$DIMTIH
 70
     1
  9
$DIMTOH
 70
     1
  9
$DIMSE1
 70
     0
  9
$DIMSE2
 70
     0
  9
$DIMTAD
 70
     0
  9
$DIMZIN
 70
     0
  9
$DIMBLK
  1

  9
$DIMASO
 70
     1
  9
$DIMSHO
 70
     1
  9
$DIMPOST
  1

  9
$DIMAPOST
  1

  9
$DIMALT
 70
     0
  9
$DIMALTD
 70
     2
  9
$DIMALTF
 40
25.4
  9
$DIMLFAC
 40
1.0
  9
$DIMTOFL
 70
     0
  9
$DIMTVP
 40
0.0
  9
$DIMTIX
 70
     0
  9
$DIMSOXD
 70
     0
  9
$DIMSAH
 70
     0
  9
$DIMBLK1
  1

  9
$DIMBLK2
  1

  9
$DIMSTYLE
  2
Standard
  9
$DIMCLRD
 70
     0
  9
$DIMCLRE
 70
     0
  9
$DIMCLRT
 70
     0
  9
$DIMTFAC
 40
1.0
  9
$DIMGAP
 40
0.09
  9
$DIMJUST
 70
     0
  9
$DIMSD1
 70
     0
  9
$DIMSD2
 70
     0
  9
$DIMTOLJ
 70
     1
  9
$DIMTZIN
 70
     0
  9
$DIMALTZ
 70
     0
  9
$DIMALTTZ
 70
     0
  9
$DIMUPT
 70
     0
  9
$DIMDEC
 70
     4
  9
$DIMTDEC
 70
     4
  9
$DIMALTU
 70
     2
  9
$DIMALTTD
 70
     2
  9
$DIMTXSTY
  7
Standard
  9
$DIMAUNIT
 70
     0
  9
$DIMADEC
 70
     0
  9
$DIMALTRND
 40
0.0
  9
$DIMAZIN
 70
     0
  9
$DIMDSEP
 70
    46
  9
$DIMATFIT
 70
     3
  9
$DIMFRAC
 70
     0
  9
$DIMLDRBLK
  1

  9
$DIMLUNIT
 70
     2
  9
$DIMLWD
 70
    -2
  9
$DIMLWE
 70
    -2
  9
$DIMTMOVE
 70
     0
  9
$DIMFXL
 40
1.0
  9
$DIMFXLON
 70
     0
  9
$DIMJOGANG
 40
0.7853981633974483
  9
$DIMTFILL
 70
     0
  9
$DIMTFILLCLR
 70
     0
  9
$DIMARCSYM
 70
     0
  9
$DIMLTYPE
  6

  9
$DIMLTEX1
  6

  9
$DIMLTEX2
  6

  9
$DIMTXTDIRECTION
 70
     0
  9
$LUNITS
 70
     2
  9
$LUPREC
 70
     4
  9
$SKETCHINC
 40
0.1
  9
$FILLETRAD
 40
0.5
  9
$AUNITS
 70
     0
  9
$AUPREC
 70
     0
  9
$MENU
  1
.
  9
$ELEVATION
 40
0.0
  9
$PELEVATION
 40
0.0
  9
$THICKNESS
 40
0.0
  9
$LIMCHECK
 70
     0
  9
$CHAMFERA
 40
0.5
  9
$CHAMFERB
 40
0.5
  9
$CHAMFERC
 40
1.0
  9
$CHAMFERD
 40
0.0
  9
$SKPOLY
 70
     0
  9
$TDCREATE
 40
2456396.724534907
  9
$TDUCREATE
 40
2456396.891201574
  9
$TDUPDATE
 40
2456396.724534919
  9
$TDUUPDATE
 40
2456396.891201586
  9
$TDINDWG
 40
0.0000000116
  9
$TDUSRTIMER
 40
0.0000000116
  9
$USRTIMER
 70
     1
  9
$ANGBASE
 50
0.0
  9
$ANGDIR
 70
     0
  9
$PDMODE
 70
     0
  9
$PDSIZE
 40
0.0
  9
$PLINEWID
 40
0.0
  9
$SPLFRAME
 70
     0
  9
$SPLINETYPE
 70
     6
  9
$SPLINESEGS
 70
     8
  9
$HANDSEED
  5
448
  9
$SURFTAB1
 70
     6
  9
$SURFTAB2
 70
     6
  9
$SURFTYPE
 70
     6
  9
$SURFU
 70
     6
  9
$SURFV
 70
     6
  9
$UCSBASE
  2

  9
$UCSNAME
  2

  9
$UCSORG
 10
0.0
 20
0.0
 30
0.0
  9
$UCSXDIR
 10
1.0
 20
0.0
 30
0.0
  9
$UCSYDIR
 10
0.0
 20
1.0
 30
0.0
  9
$UCSORTHOREF
  2

  9
$UCSORTHOVIEW
 70
     0
  9
$UCSORGTOP
 10
0.0
 20
0.0
 30
0.0
  9
$UCSORGBOTTOM
 10
0.0
 20
0.0
 30
0.0
  9
$UCSORGLEFT
 10
0.0
 20
0.0
 30
0.0
  9
$UCSORGRIGHT
 10
0.0
 20
0.0
 30
0.0
  9
$UCSORGFRONT
 10
0.0
 20
0.0
 30
0.0
  9
$UCSORGBACK
 10
0.0
 20
0.0
 30
0.0
  9
$PUCSBASE
  2

  9
$PUCSNAME
  2

  9
$PUCSORG
 10
0.0
 20
0.0
 30
0.0
  9
$PUCSXDIR
 10
1.0
 20
0.0
 30
0.0
  9
$PUCSYDIR
 10
0.0
 20
1.0
 30
0.0
  9
$PUCSORTHOREF
  2

  9
$PUCSORTHOVIEW
 70
     0
  9
$PUCSORGTOP
 10
0.0
 20
0.0
 30
0.0
  9
$PUCSORGBOTTOM
 10
0.0
 20
0.0
 30
0.0
  9
$PUCSORGLEFT
 10
0.0
 20
0.0
 30
0.0
  9
$PUCSORGRIGHT
 10
0.0
 20
0.0
 30
0.0
  9
$PUCSORGFRONT
 10
0.0
 20
0.0
 30
0.0
  9
$PUCSORGBACK
 10
0.0
 20
0.0
 30
0.0
  9
$USERI1
 70
     0
  9
$USERI2
 70
     0
  9
$USERI3
 70
     0
  9
$USERI4
 70
     0
  9
$USERI5
 70
     0
  9
$USERR1
 40
0.0
  9
$USERR2
 40
0.0
  9
$USERR3
 40
0.0
  9
$USERR4
 40
0.0
  9
$USERR5
 40
0.0
  9
$WORLDVIEW
 70
     1
  9
$SHADEDGE
 70
     3
  9
$SHADEDIF
 70
    70
  9
$TILEMODE
 70
     1
  9
$MAXACTVP
 70
    64
  9
$PINSBASE
 10
0.0
 20
0.0
 30
0.0
  9
$PLIMCHECK
 70
     0
  9
$PEXTMIN
 10
1.000000000000000E+20
 20
1.000000000000000E+20
 30
1.000000000000000E+20
  9
$PEXTMAX
 10
-1.000000000000000E+20
 20
-1.000000000000000E+20
 30
-1.000000000000000E+20
  9
$PLIMMIN
 10
0.0
 20
0.0
  9
$PLIMMAX
 10
12.0
 20
9.0
  9
$UNITMODE
 70
     0
  9
$VISRETAIN
 70
     1
  9
$PLINEGEN
 70
     0
  9
$PSLTSCALE
 70
     1
  9
$TREEDEPTH
 70
  3020
  9
$CMLSTYLE
  2
Standard
  9
$CMLJUST
 70
     0
  9
$CMLSCALE
 40
1.0
  9
$PROXYGRAPHICS
 70
     1
  9
$MEASUREMENT
 70
     0
  9
$CELWEIGHT
370
    -1
  9
$ENDCAPS
280
     0
  9
$JOINSTYLE
280
     0
  9
$LWDISPLAY
290
     0
  9
$INSUNITS
 70
     1
  9
$HYPERLINKBASE
  1

  9
$STYLESHEET
  1

  9
$XEDIT
290
     1
  9
$CEPSNTYPE
380
     0
  9
$PSTYLEMODE
290
     1
  9
$FINGERPRINTGUID
  2
{0A07C529-CEC6-451B-84F0-1DA80DC94F16}
  9
$VERSIONGUID
  2
{FAEB1C32-E019-11D5-929B-00C0DF256EC4}
  9
$EXTNAMES
290
     1
  9
$PSVPSCALE
 40
0.0
  9
$OLESTARTUP
290
     0
  9
$SORTENTS
280
   127
  9
$INDEXCTL
280
     0
  9
$HIDETEXT
280
     1
  9
$XCLIPFRAME
280
     2
  9
$HALOGAP
280
     0
  9
$OBSCOLOR
 70
   257
  9
$OBSLTYPE
280
     0
  9
$INTERSECTIONDISPLAY
280
     0
  9
$INTERSECTIONCOLOR
 70
   257
  9
$DIMASSOC
280
     2
  9
$PROJECTNAME
  1

  9
$CAMERADISPLAY
290
     0
  9
$LENSLENGTH
 40
50.0
  9
$CAMERAHEIGHT
 40
0.0
  9
$STEPSPERSEC
 40
2.0
  9
$STEPSIZE
 40
6.0
  9
$3DDWFPREC
 40
2.0
  9
$PSOLWIDTH
 40
0.25
  9
$PSOLHEIGHT
 40
4.0
  9
$LOFTANG1
 40
1.570796326794897
  9
$LOFTANG2
 40
1.570796326794897
  9
$LOFTMAG1
 40
0.0
  9
$LOFTMAG2
 40
0.0
  9
$LOFTPARAM
 70
     7
  9
$LOFTNORMALS
280
     1
  9
$LATITUDE
 40
37.795
  9
$LONGITUDE
 40
-122.394
  9
$NORTHDIRECTION
 40
0.0
  9
$TIMEZONE
 70
 -8000
  9
$LIGHTGLYPHDISPLAY
280
     1
  9
$TILEMODELIGHTSYNCH
280
     1
  9
$SOLIDHIST
280
     1
  9
$SHOWHIST
280
     1
  9
$DWFFRAME
280
     2
  9
$DGNFRAME
280
     2
  9
$REALWORLDSCALE
290
     1
  9
$INTERFERECOLOR
 62
   256
  9
$CSHADOW
280
     0
  9
$SHADOWPLANELOCATION
 40
0.0
  0
ENDSEC
  0
SECTION
  2
CLASSES
  0
CLASS
  1
ACDBDICTIONARYWDFLT
  2
AcDbDictionaryWithDefault
  3
ObjectDBX Classes
 90
        0
 91
        4
280
     0
281
     0
  0
CLASS
  1
VISUALSTYLE
  2
AcDbVisualStyle
  3
ObjectDBX Classes
 90
     4095
 91
        4
280
     0
281
     0
  0
CLASS
  1
MATERIAL
  2
AcDbMaterial
  3
ObjectDBX Classes
 90
     1153
 91
        4
280
     0
281
     0
  0
ENDSEC
  0
SECTION
  2
TABLES
  0
TABLE
  2
VPORT
  5
8
330
0
100
AcDbSymbolTable
 70
     1
  0
VPORT
  5
29
330
8
100
AcDbSymbolTableRecord
100
AcDbViewportTableRecord
  2
*Active
 70
     0
 10
0.0
 20
0.0
 11
1.0
 21
1.0
 12
0.0
 22
0.0
 13
0.0
 23
0.0
 14
0.5
 24
0.5
 15
0.5
 25
0.5
 16
0.0
 26
0.0
 36
1.0
 17
0.0
 27
0.0
 37
-1000.0
 40
218.050630259454
 41
1.822857142857143
 42
50.0
 43
2677.939772280003
 44
3300.977497218136
 50
0.0
 51
0.0
 71
     0
 72
   100
 73
     1
 74
     3
 75
     0
 76
     0
 77
     0
 78
     0
281
     0
 65
     1
110
0.0
120
0.0
130
0.0
111
1.0
121
0.0
131
0.0
112
0.0
122
1.0
132
0.0
 79
     0
146
0.0
 60
     3
 61
     5
292
     1
282
     1
141
0.0
142
0.0
 63
   250
  0
ENDTAB
  0
TABLE
  2
LTYPE
  5
5
330
0
100
AcDbSymbolTable
 70
     1
  0
LTYPE
  5
14
330
5
100
AcDbSymbolTableRecord
100
AcDbLinetypeTableRecord
  2
ByBlock
 70
     0
  3

 72
    65
 73
     0
 40
0.0
  0
LTYPE
  5
15
330
5
100
AcDbSymbolTableRecord
100
AcDbLinetypeTableRecord
  2
ByLayer
 70
     0
  3

 72
    65
 73
     0
 40
0.0
  0
LTYPE
  5
16
330
5
100
AcDbSymbolTableRecord
100
AcDbLinetypeTableRecord
  2
Continuous
 70
     0
  3
Solid line
 72
    65
 73
     0
 40
0.0
  0
ENDTAB
  0
TABLE
  2
LAYER
  5
2
330
0
100
AcDbSymbolTable
 70
     3
  0
LAYER
  5
10
330
2
100
AcDbSymbolTableRecord
100
AcDbLayerTableRecord
  2
0
 70
     0
 62
     7
  6
Continuous
370
    -3
390
F
347
3E
  0
LAYER
  5
3F
330
2
100
AcDbSymbolTableRecord
100
AcDbLayerTableRecord
  2
ProfileEdges
 70
     0
 62
     7
  6
Continuous
370
    -3
390
F
347
3E
  0
LAYER
  5
40
330
2
100
AcDbSymbolTableRecord
100
AcDbLayerTableRecord
  2
SectionCutEdges
 70
     0
 62
     7
  6
Continuous
370
    -3
390
F
347
3E
  0
ENDTAB
  0
TABLE
  2
STYLE
  5
3
330
0
100
AcDbSymbolTable
 70
     1
  0
STYLE
  5
11
330
3
100
AcDbSymbolTableRecord
100
AcDbTextStyleTableRecord
  2
Standard
 70
     0
 40
0.0
 41
1.0
 50
0.0
 71
     0
 42
0.2
  3
txt
  4

  0
ENDTAB
  0
TABLE
  2
VIEW
  5
6
330
0
100
AcDbSymbolTable
 70
     0
  0
ENDTAB
  0
TABLE
  2
UCS
  5
7
330
0
100
AcDbSymbolTable
 70
     0
  0
ENDTAB
  0
TABLE
  2
APPID
  5
9
330
0
100
AcDbSymbolTable
 70
     1
  0
APPID
  5
12
330
9
100
AcDbSymbolTableRecord
100
AcDbRegAppTableRecord
  2
ACAD
 70
     0
  0
ENDTAB
  0
TABLE
  2
DIMSTYLE
  5
A
330
0
100
AcDbSymbolTable
 70
     1
100
AcDbDimStyleTable
  0
DIMSTYLE
105
27
330
A
100
AcDbSymbolTableRecord
100
AcDbDimStyleTableRecord
  2
Standard
 70
     0
340
11
  0
ENDTAB
  0
TABLE
  2
BLOCK_RECORD
  5
1
330
0
100
AcDbSymbolTable
 70
     1
  0
BLOCK_RECORD
  5
1F
330
1
100
AcDbSymbolTableRecord
100
AcDbBlockTableRecord
  2
*Model_Space
340
22
 70
     0
280
     1
281
     0
  0
BLOCK_RECORD
  5
1B
330
1
100
AcDbSymbolTableRecord
100
AcDbBlockTableRecord
  2
*Paper_Space
340
1E
 70
     0
280
     1
281
     0
  0
BLOCK_RECORD
  5
23
330
1
100
AcDbSymbolTableRecord
100
AcDbBlockTableRecord
  2
*Paper_Space0
340
26
 70
     0
280
     1
281
     0
  0
ENDTAB
  0
ENDSEC
  0
SECTION
  2
BLOCKS
  0
BLOCK
  5
20
330
1F
100
AcDbEntity
  8
0
100
AcDbBlockBegin
  2
*Model_Space
 70
     0
 10
0.0
 20
0.0
 30
0.0
  3
*Model_Space
  1

  0
ENDBLK
  5
21
330
1F
100
AcDbEntity
  8
0
100
AcDbBlockEnd
  0
BLOCK
  5
1C
330
1B
100
AcDbEntity
 67
     1
  8
0
100
AcDbBlockBegin
  2
*Paper_Space
 70
     0
 10
0.0
 20
0.0
 30
0.0
  3
*Paper_Space
  1

  0
ENDBLK
  5
1D
330
1B
100
AcDbEntity
 67
     1
  8
0
100
AcDbBlockEnd
  0
BLOCK
  5
24
330
23
100
AcDbEntity
  8
0
100
AcDbBlockBegin
  2
*Paper_Space0
 70
     0
 10
0.0
 20
0.0
 30
0.0
  3
*Paper_Space0
  1

  0
ENDBLK
  5
25
330
23
100
AcDbEntity
  8
0
100
AcDbBlockEnd
  0
ENDSEC
  0
SECTION
  2
ENTITIES
  0
LINE
  5
41
330
1F
100
AcDbEntity
  8
0
100
AcDbLine
 10
57.63422111599739
 20
89.0621646414885
 30
0.0
 11
62.13422075599738
 21
91.66024064499531
 31
0.0
  0
LINE
  5
42
330
1F
100
AcDbEntity
  8
0
100
AcDbLine
 10
60.23229711950447
 20
95.75831652850252
 30
0.0
 11
59.75554128985092
 21
96.37963682235676
 31
0.0
  0
LINE
  5
43
330
1F
100
AcDbEntity
  8
0
100
AcDbLine
 10
60.63422087599717
 20
94.25831664850259
 30
0.0
 11
60.53199836304223
 21
95.03477372169353
 31
0.0
  0
LINE
  5
44
330
1F
100
AcDbEntity
  8
0
100
AcDbLine
 10
60.23229711950438
 20
92.75831676850265
 30
0.0
 11
60.53199836304214
 21
93.48185957531187
 31
0.0
  0
LINE
  5
45
330
1F
100
AcDbEntity
  8
0
100
AcDbLine
 10
59.13422099599669
 20
91.6602406449955
 30
0.0
 11
59.75554128985129
 21
92.13699647464877
 31
0.0
  0
LINE
  5
46
330
1F
100
AcDbEntity
  8
0
100
AcDbLine
 10
-24.66023633448113
 20
-47.37415961953495
 30
0.0
 11
-24.84005708060358
 21
-47.80828530362027
 31
0.0
  0
LINE
  5
47
330
1F
100
AcDbEntity
  8
0
100
AcDbLine
 10
-24.59890282670782
 20
-46.90828537562042
 30
0.0
 11
-24.66023633448113
 21
-47.37415961953495
 31
0.0
  0
LINE
  5
48
330
1F
100
AcDbEntity
  8
0
100
AcDbLine
 10
13.85525883674593
 20
42.17411981548214
 30
0.0
 11
13.48889509641952
 21
41.87987804398707
 31
0.0
  0
LINE
  5
49
330
1F
100
AcDbEntity
  8
0
100
AcDbLine
 10
14.13298366101591
 20
42.55315745517372
 30
0.0
 11
13.85525883674593
 21
42.17411981548214
 31
0.0
  0
LINE
  5
4A
330
1F
100
AcDbEntity
  8
0
100
AcDbLine
 10
48.28207384662834
 20
-12.29537701909334
 30
0.0
 11
47.80531801697534
 21
-11.67405672523924
 31
0.0
  0
LINE
  5
4B
330
1F
100
AcDbEntity
  8
0
100
AcDbLine
 10
47.50561677343731
 20
-9.397599772048496
 30
0.0
 11
47.80531801697516
 21
-8.674056965239277
 31
0.0
  0
LINE
  5
4C
330
1F
100
AcDbEntity
  8
0
100
AcDbLine
 10
57.63422111599739
 20
91.2583168885027
 30
0.0
 11
58.41067818918825
 21
91.36053940145779
 31
0.0
  0
LINE
  5
4D
330
1F
100
AcDbEntity
  8
0
100
AcDbLine
 10
60.53199836304223
 20
95.03477372169353
 30
0.0
 11
60.23229711950447
 21
95.75831652850252
 31
0.0
  0
LINE
  5
4E
330
1F
100
AcDbEntity
  8
0
100
AcDbLine
 10
65.06441121417033
 20
57.35458882885243
 30
0.0
 11
65.27151797878795
 21
57.51350743873682
 31
0.0
  0
LINE
  5
4F
330
1F
100
AcDbEntity
  8
0
100
AcDbLine
 10
64.90549260428567
 20
57.1474820642344
 30
0.0
 11
65.06441121417033
 21
57.35458882885243
 31
0.0
  0
LINE
  5
50
330
1F
100
AcDbEntity
  8
0
100
AcDbLine
 10
71.36011725620561
 20
70.25382466601323
 30
0.0
 11
71.20119864632143
 21
70.46093143063108
 31
0.0
  0
LINE
  5
51
330
1F
100
AcDbEntity
  8
0
100
AcDbLine
 10
88.43324807532598
 20
75.46093103063137
 30
0.0
 11
88.53314848983868
 21
75.70211196623426
 31
0.0
  0
LINE
  5
52
330
1F
100
AcDbEntity
  8
0
100
AcDbLine
 10
50.40339402048261
 20
-13.17405660523932
 30
0.0
 11
49.62693694729148
 21
-13.07183409228474
 31
0.0
  0
LINE
  5
53
330
1F
100
AcDbEntity
  8
0
100
AcDbLine
 10
-88.56722266082376
 20
15.99155930348813
 30
0.0
 11
-88.56722266082376
 21
5.079284752475434
 31
0.0
  0
LINE
  5
54
330
1F
100
AcDbEntity
  8
0
100
AcDbLine
 10
-87.82604176522081
 20
4.113359003460185
 30
0.0
 11
-88.06722270082369
 21
4.213259417972937
 31
0.0
  0
LINE
  5
55
330
1F
100
AcDbEntity
  8
0
100
AcDbLine
 10
-87.5672227408238
 20
4.079284832475294
 30
0.0
 11
-87.82604176522081
 21
4.113359003460185
 31
0.0
  0
LINE
  5
56
330
1F
100
AcDbEntity
  8
0
100
AcDbLine
 10
-81.96722318882355
 20
4.079284832475294
 30
0.0
 11
-81.96722318882318
 21
0.1810152632172538
 31
0.0
  0
LINE
  5
57
330
1F
100
AcDbEntity
  8
0
100
AcDbLine
 10
49.62693694729148
 20
-13.07183409228474
 30
0.0
 11
48.90339414048231
 21
-12.7721328487468
 31
0.0
  0
LINE
  5
58
330
1F
100
AcDbEntity
  8
0
100
AcDbLine
 10
51.40339394048266
 20
-21.17405596523913
 30
0.0
 11
54.90339366048197
 21
-21.17405596523873
 31
0.0
  0
LINE
  5
59
330
1F
100
AcDbEntity
  8
0
100
AcDbLine
 10
49.85047979410013
 20
-21.37850099114857
 30
0.0
 11
51.40339394048266
 21
-21.17405596523913
 31
0.0
  0
LINE
  5
5A
330
1F
100
AcDbEntity
  8
0
100
AcDbLine
 10
81.7715166587881
 20
52.51350783873685
 30
0.0
 11
81.97862342340608
 21
52.35458922885255
 31
0.0
  0
LINE
  5
5B
330
1F
100
AcDbEntity
  8
0
100
AcDbLine
 10
81.53033572318527
 20
52.61340825324937
 30
0.0
 11
81.7715166587881
 21
52.51350783873685
 31
0.0
  0
LINE
  5
5C
330
1F
100
AcDbEntity
  8
0
100
AcDbLine
 10
64.80559218977332
 20
56.90630112863134
 30
0.0
 11
64.90549260428567
 21
57.1474820642344
 31
0.0
  0
LINE
  5
5D
330
1F
100
AcDbEntity
  8
0
100
AcDbLine
 10
65.27151797878795
 20
57.51350743873682
 30
0.0
 11
65.51269891439138
 21
57.61340785324931
 31
0.0
  0
LINE
  5
5E
330
1F
100
AcDbEntity
  8
0
100
AcDbLine
 10
64.77151801878824
 20
33.57902478790206
 30
0.0
 11
64.80559218977332
 21
33.83784381229898
 31
0.0
  0
LINE
  5
5F
330
1F
100
AcDbEntity
  8
0
100
AcDbLine
 10
82.23744244780328
 20
33.42020575550548
 30
0.0
 11
82.27151661878835
 21
33.67902477990214
 31
0.0
  0
LINE
  5
60
330
1F
100
AcDbEntity
  8
0
100
AcDbLine
 10
-87.5672227408238
 20
43.87928164847422
 30
0.0
 11
-81.96722318882372
 21
43.87928164847462
 31
0.0
  0
LINE
  5
61
330
1F
100
AcDbEntity
  8
0
100
AcDbLine
 10
-87.5672227408238
 20
43.87928164847422
 30
0.0
 11
-87.82604176522099
 21
43.84520747748928
 31
0.0
  0
LINE
  5
62
330
1F
100
AcDbEntity
  8
0
100
AcDbLine
 10
-87.82604176522099
 20
43.84520747748928
 30
0.0
 11
-88.06722270082388
 21
43.74530706297689
 31
0.0
  0
LINE
  5
63
330
1F
100
AcDbEntity
  8
0
100
AcDbLine
 10
-88.06722270082388
 20
43.74530706297689
 30
0.0
 11
-88.27432946544168
 21
43.58638845309245
 31
0.0
  0
LINE
  5
64
330
1F
100
AcDbEntity
  8
0
100
AcDbLine
 10
68.44132703261502
 20
60.16867618336504
 30
0.0
 11
68.60024564249969
 21
60.37578294798294
 31
0.0
  0
LINE
  5
65
330
1F
100
AcDbEntity
  8
0
100
AcDbLine
 10
68.60024564249969
 20
60.37578294798294
 30
0.0
 11
68.70014605701247
 21
60.61696388358572
 31
0.0
  0
LINE
  5
66
330
1F
100
AcDbEntity
  8
0
100
AcDbLine
 10
5.604583449597643
 20
5.794715698989079
 30
0.0
 11
6.038709133683274
 21
5.974536445111427
 31
0.0
  0
LINE
  5
67
330
1F
100
AcDbEntity
  8
0
100
AcDbLine
 10
5.231791273284781
 20
5.508662201197348
 30
0.0
 11
5.604583449597643
 21
5.794715698989079
 31
0.0
  0
LINE
  5
68
330
1F
100
AcDbEntity
  8
0
100
AcDbLine
 10
4.945737775493139
 20
5.135870024884755
 30
0.0
 11
5.231791273284781
 21
5.508662201197348
 31
0.0
  0
LINE
  5
69
330
1F
100
AcDbEntity
  8
0
100
AcDbLine
 10
-24.65674764217535
 20
3.769995852970242
 30
0.0
 11
-24.83656838829834
 21
3.335870168884612
 31
0.0
  0
LINE
  5
6A
330
1F
100
AcDbEntity
  8
0
100
AcDbLine
 10
-28.1340803386292
 20
3.769995852970332
 30
0.0
 11
-28.19541384640288
 21
4.235870096884864
 31
0.0
  0
LINE
  5
6B
330
1F
100
AcDbEntity
  8
0
100
AcDbLine
 10
-27.29541391840271
 20
2.677024494780829
 30
0.0
 11
-27.66820609471477
 21
2.9630779925722
 31
0.0
  0
LINE
  5
6C
330
1F
100
AcDbEntity
  8
0
100
AcDbLine
 10
6.038709133683274
 20
5.974536445111427
 30
0.0
 11
6.504583377597535
 21
6.035869952884737
 31
0.0
  0
LINE
  5
6D
330
1F
100
AcDbEntity
  8
0
100
AcDbLine
 10
-43.29541263838207
 20
94.21839930940479
 30
0.0
 11
-43.2954126383819
 21
83.81840014140461
 31
0.0
  0
LINE
  5
6E
330
1F
100
AcDbEntity
  8
0
100
AcDbLine
 10
-50.29225684349525
 20
-102.5485875645913
 30
0.0
 11
29.60773676450438
 21
-102.5485875645919
 31
0.0
  0
LINE
  5
6F
330
1F
100
AcDbEntity
  8
0
100
AcDbLine
 10
-50.29225684349525
 20
-53.85032157933351
 30
0.0
 11
-50.29225684349525
 21
-102.5485875645913
 31
0.0
  0
LINE
  5
70
330
1F
100
AcDbEntity
  8
0
100
AcDbLine
 10
29.60773676450447
 20
-53.85032157933365
 30
0.0
 11
-50.29225684349525
 21
-53.85032157933351
 31
0.0
  0
LINE
  5
71
330
1F
100
AcDbEntity
  8
0
100
AcDbLine
 10
-35.34224788835371
 20
-70.73285913791017
 30
0.0
 11
-35.34224788835317
 21
-81.73285326179649
 31
0.0
  0
LINE
  5
72
330
1F
100
AcDbEntity
  8
0
100
AcDbLine
 10
-35.34224788835317
 20
-81.73285326179649
 30
0.0
 11
14.65772780936416
 21
-81.73285326179662
 31
0.0
  0
LINE
  5
73
330
1F
100
AcDbEntity
  8
0
100
AcDbLine
 10
14.65772780936416
 20
-81.73285326179662
 30
0.0
 11
14.65772780936407
 21
-70.73285913791081
 31
0.0
  0
LINE
  5
74
330
1F
100
AcDbEntity
  8
0
100
AcDbLine
 10
14.65772780936407
 20
-70.73285913791081
 30
0.0
 11
-35.34224788835371
 21
-70.73285913791017
 31
0.0
  0
LINE
  5
75
330
1F
100
AcDbEntity
  8
0
100
AcDbLine
 10
-43.49225738749481
 20
-58.65032119533367
 30
0.0
 11
-36.89225791549446
 21
-58.65032119533385
 31
0.0
  0
LINE
  5
76
330
1F
100
AcDbEntity
  8
0
100
AcDbLine
 10
50.40339402048306
 20
-7.174057085239112
 30
0.0
 11
51.17985109367356
 21
-7.30107679863584
 31
0.0
  0
LINE
  5
77
330
1F
100
AcDbEntity
  8
0
100
AcDbLine
 10
-25.80952450941868
 20
54.31665581111246
 30
0.0
 11
-25.39541407038364
 21
54.26213713753581
 31
0.0
  0
LINE
  5
78
330
1F
100
AcDbEntity
  8
0
100
AcDbLine
 10
-25.39541407038364
 20
54.26213713753581
 30
0.0
 11
-24.98130363134878
 21
54.3166558111121
 31
0.0
  0
LINE
  5
79
330
1F
100
AcDbEntity
  8
0
100
AcDbLine
 10
-24.98130363134878
 20
54.3166558111121
 30
0.0
 11
-24.595414134384
 21
54.47649647433229
 31
0.0
  0
LINE
  5
7A
330
1F
100
AcDbEntity
  8
0
100
AcDbLine
 10
-24.595414134384
 20
54.47649647433229
 30
0.0
 11
-24.26404331099461
 21
54.73076625014742
 31
0.0
  0
LINE
  5
7B
330
1F
100
AcDbEntity
  8
0
100
AcDbLine
 10
32.93422309199707
 20
98.3757799079822
 30
0.0
 11
38.53422264399673
 21
98.37577990798239
 31
0.0
  0
LINE
  5
7C
330
1F
100
AcDbEntity
  8
0
100
AcDbLine
 10
31.96829734298191
 20
63.61696364358528
 30
0.0
 11
31.93422317199711
 21
63.87578266798199
 31
0.0
  0
LINE
  5
7D
330
1F
100
AcDbEntity
  8
0
100
AcDbLine
 10
32.93422309199707
 20
98.3757799079822
 30
0.0
 11
32.67540406759996
 21
98.34170573699741
 31
0.0
  0
LINE
  5
7E
330
1F
100
AcDbEntity
  8
0
100
AcDbLine
 10
32.67540406759996
 20
98.34170573699741
 30
0.0
 11
32.43422313199691
 21
98.24180532248452
 31
0.0
  0
LINE
  5
7F
330
1F
100
AcDbEntity
  8
0
100
AcDbLine
 10
32.43422313199691
 20
98.24180532248452
 30
0.0
 11
32.22711636737928
 21
98.08288671260036
 31
0.0
  0
LINE
  5
80
330
1F
100
AcDbEntity
  8
0
100
AcDbLine
 10
32.22711636737928
 20
98.08288671260036
 30
0.0
 11
32.06819775749417
 21
97.87577994798268
 31
0.0
  0
LINE
  5
81
330
1F
100
AcDbEntity
  8
0
100
AcDbLine
 10
16.20773783650509
 20
-85.53804362032173
 30
0.0
 11
16.20773783650554
 21
-98.85031797933358
 31
0.0
  0
LINE
  5
82
330
1F
100
AcDbEntity
  8
0
100
AcDbLine
 10
16.20773783650581
 20
-65.65032063533393
 30
0.0
 11
23.00773729250557
 21
-65.65032063533361
 31
0.0
  0
LINE
  5
83
330
1F
100
AcDbEntity
  8
0
100
AcDbLine
 10
23.00773729250557
 20
-65.65032063533361
 30
0.0
 11
23.00773729250557
 21
-58.65032119533362
 31
0.0
  0
LINE
  5
84
330
1F
100
AcDbEntity
  8
0
100
AcDbLine
 10
23.00773729250557
 20
-58.65032119533362
 30
0.0
 11
16.20773783650581
 21
-58.65032119533376
 31
0.0
  0
LINE
  5
85
330
1F
100
AcDbEntity
  8
0
100
AcDbLine
 10
-31.53905928572579
 20
-60.09196201649111
 30
0.0
 11
-31.90482500909027
 21
-60.38694683971184
 31
0.0
  0
LINE
  5
86
330
1F
100
AcDbEntity
  8
0
100
AcDbLine
 10
-31.26210441742338
 20
-59.71236142212584
 30
0.0
 11
-31.53905928572579
 21
-60.09196201649111
 31
0.0
  0
LINE
  5
87
330
1F
100
AcDbEntity
  8
0
100
AcDbLine
 10
-25.23341312139153
 20
-98.93285438385355
 30
0.0
 11
-25.51946661918353
 21
-99.30564656016568
 31
0.0
  0
LINE
  5
88
330
1F
100
AcDbEntity
  8
0
100
AcDbLine
 10
-25.05359237526927
 20
-98.4987286997681
 30
0.0
 11
-25.23341312139153
 21
-98.93285438385355
 31
0.0
  0
LINE
  5
89
330
1F
100
AcDbEntity
  8
0
100
AcDbLine
 10
-78.74001565313627
 20
46.15207367278851
 30
0.0
 11
-78.36722347682348
 21
46.43812717058037
 31
0.0
  0
LINE
  5
8A
330
1F
100
AcDbEntity
  8
0
100
AcDbLine
 10
-9.89541531038332
 20
92.56213407353637
 30
0.0
 11
-13.77770067633841
 21
92.0510215087617
 31
0.0
  0
LINE
  5
8B
330
1F
100
AcDbEntity
  8
0
100
AcDbLine
 10
-13.77770067633841
 20
92.0510215087617
 30
0.0
 11
-17.39541471038365
 21
90.55251529107295
 31
0.0
  0
LINE
  5
8C
330
1F
100
AcDbEntity
  8
0
100
AcDbLine
 10
-17.39541471038365
 20
90.55251529107295
 30
0.0
 11
-20.50201617965381
 21
88.16873614280684
 31
0.0
  0
LINE
  5
8D
330
1F
100
AcDbEntity
  8
0
100
AcDbLine
 10
-31.58948274997396
 20
-6.144171341522946
 30
0.0
 11
-31.20942353613198
 21
-6.420496520058311
 31
0.0
  0
LINE
  5
8E
330
1F
100
AcDbEntity
  8
0
100
AcDbLine
 10
-32.49541350238658
 20
-5.926353260534887
 30
0.0
 11
-32.02810997898938
 21
-5.975628277930495
 31
0.0
  0
LINE
  5
8F
330
1F
100
AcDbEntity
  8
0
100
AcDbLine
 10
-52.76722552482318
 20
15.37928392847505
 30
0.0
 11
-52.50840650042635
 21
15.34520975749025
 31
0.0
  0
LINE
  5
90
330
1F
100
AcDbEntity
  8
0
100
AcDbLine
 10
-88.06722270082369
 20
4.213259417972937
 30
0.0
 11
-88.27432946544185
 21
4.372178027857288
 31
0.0
  0
LINE
  5
91
330
1F
100
AcDbEntity
  8
0
100
AcDbLine
 10
-88.53314848983905
 20
38.02046307207754
 30
0.0
 11
-88.56722266082359
 21
38.27928209647424
 31
0.0
  0
LINE
  5
92
330
1F
100
AcDbEntity
  8
0
100
AcDbLine
 10
-88.43324807532633
 20
37.77928213647412
 30
0.0
 11
-88.53314848983905
 21
38.02046307207754
 31
0.0
  0
LINE
  5
93
330
1F
100
AcDbEntity
  8
0
100
AcDbLine
 10
-88.27432946544204
 20
37.57217537185591
 30
0.0
 11
-88.43324807532633
 21
37.77928213647412
 31
0.0
  0
LINE
  5
94
330
1F
100
AcDbEntity
  8
0
100
AcDbLine
 10
-72.96722390882324
 20
37.77928213647503
 30
0.0
 11
-72.9672239088236
 21
31.99674618795643
 31
0.0
  0
LINE
  5
95
330
1F
100
AcDbEntity
  8
0
100
AcDbLine
 10
-66.36722443682325
 20
14.2792840164748
 30
0.0
 11
-66.36722443682362
 21
37.7792821364752
 31
0.0
  0
LINE
  5
96
330
1F
100
AcDbEntity
  8
0
100
AcDbLine
 10
-32.86969441842623
 20
-9.47587592026934
 30
0.0
 11
-33.30832164744147
 21
-9.30733285667725
 31
0.0
  0
LINE
  5
97
330
1F
100
AcDbEntity
  8
0
100
AcDbLine
 10
-32.40239089502903
 20
-9.525150937665174
 30
0.0
 11
-32.86969441842623
 21
-9.47587592026934
 31
0.0
  0
LINE
  5
98
330
1F
100
AcDbEntity
  8
0
100
AcDbLine
 10
-31.93825704011395
 20
-9.451799897860178
 30
0.0
 11
-32.40239089502903
 21
-9.525150937665174
 31
0.0
  0
LINE
  5
99
330
1F
100
AcDbEntity
  8
0
100
AcDbLine
 10
7.401094613291917
 20
-48.4671309777245
 30
0.0
 11
6.966968929206648
 21
-48.64695172384712
 31
0.0
  0
LINE
  5
9A
330
1F
100
AcDbEntity
  8
0
100
AcDbLine
 10
7.77388678960469
 20
-48.1810774799325
 30
0.0
 11
7.401094613291917
 21
-48.4671309777245
 31
0.0
  0
LINE
  5
9B
330
1F
100
AcDbEntity
  8
0
100
AcDbLine
 10
11.62027069077639
 20
44.95692870282164
 30
0.0
 11
12.05030626370144
 21
45.14632251565061
 31
0.0
  0
LINE
  5
9C
330
1F
100
AcDbEntity
  8
0
100
AcDbLine
 10
11.25390695044971
 20
44.66268693132648
 30
0.0
 11
11.62027069077639
 21
44.95692870282164
 31
0.0
  0
LINE
  5
9D
330
1F
100
AcDbEntity
  8
0
100
AcDbLine
 10
10.97618212618027
 20
44.28364929163494
 30
0.0
 11
11.25390695044971
 21
44.66268693132648
 31
0.0
  0
LINE
  5
9E
330
1F
100
AcDbEntity
  8
0
100
AcDbLine
 10
-24.84005708060358
 20
-46.00828544761985
 30
0.0
 11
-24.66023633448077
 21
-46.44241113170607
 31
0.0
  0
LINE
  5
9F
330
1F
100
AcDbEntity
  8
0
100
AcDbLine
 10
-26.86477692662259
 20
-45.16961902739349
 30
0.0
 11
-26.39890268270797
 21
-45.10828551962032
 31
0.0
  0
LINE
  5
A0
330
1F
100
AcDbEntity
  8
0
100
AcDbLine
 10
48.90339414048231
 20
-12.7721328487468
 30
0.0
 11
48.28207384662834
 21
-12.29537701909334
 31
0.0
  0
LINE
  5
A1
330
1F
100
AcDbEntity
  8
0
100
AcDbLine
 10
71.20119864632143
 20
99.42938827496317
 30
0.0
 11
71.36011725620561
 21
99.63649503958136
 31
0.0
  0
LINE
  5
A2
330
1F
100
AcDbEntity
  8
0
100
AcDbLine
 10
71.1012982318089
 20
99.18820733936033
 30
0.0
 11
71.20119864632143
 21
99.42938827496317
 31
0.0
  0
LINE
  5
A3
330
1F
100
AcDbEntity
  8
0
100
AcDbLine
 10
71.06722406082402
 20
98.9293883149631
 30
0.0
 11
71.06722406082366
 21
94.06092454651741
 31
0.0
  0
LINE
  5
A4
330
1F
100
AcDbEntity
  8
0
100
AcDbLine
 10
71.20119864632143
 20
93.56092458651712
 30
0.0
 11
71.10129823180873
 21
93.80210552212009
 31
0.0
  0
LINE
  5
A5
330
1F
100
AcDbEntity
  8
0
100
AcDbLine
 10
71.36011725620597
 20
93.35381782189936
 30
0.0
 11
71.20119864632143
 21
93.56092458651712
 31
0.0
  0
LINE
  5
A6
330
1F
100
AcDbEntity
  8
0
100
AcDbLine
 10
72.06722398082384
 20
93.06092462651714
 30
0.0
 11
71.80840495642684
 21
93.09499879750217
 31
0.0
  0
LINE
  5
A7
330
1F
100
AcDbEntity
  8
0
100
AcDbLine
 10
23.40458202559741
 20
40.61840359740477
 30
0.0
 11
16.60458256959765
 21
40.61840359740464
 31
0.0
  0
LINE
  5
A8
330
1F
100
AcDbEntity
  8
0
100
AcDbLine
 10
8.243249725824098
 20
3.769995852970603
 30
0.0
 11
8.06342897970184
 21
3.335870168884702
 31
0.0
  0
LINE
  5
A9
330
1F
100
AcDbEntity
  8
0
100
AcDbLine
 10
8.304583233597588
 20
4.235870096884684
 30
0.0
 11
8.243249725824098
 21
3.769995852970603
 31
0.0
  0
LINE
  5
AA
330
1F
100
AcDbEntity
  8
0
100
AcDbLine
 10
8.243249725824189
 20
4.701744340799396
 30
0.0
 11
8.304583233597588
 21
4.235870096884684
 31
0.0
  0
LINE
  5
AB
330
1F
100
AcDbEntity
  8
0
100
AcDbLine
 10
-30.86701273898755
 20
44.28364929164086
 30
0.0
 11
-30.69685331858494
 21
43.84564657250878
 31
0.0
  0
LINE
  5
AC
330
1F
100
AcDbEntity
  8
0
100
AcDbLine
 10
-31.14473756325897
 20
44.66268693133176
 30
0.0
 11
-30.86701273898755
 21
44.28364929164086
 31
0.0
  0
LINE
  5
AD
330
1F
100
AcDbEntity
  8
0
100
AcDbLine
 10
-31.51110130358637
 20
44.95692870282524
 30
0.0
 11
-31.14473756325897
 21
44.66268693133176
 31
0.0
  0
LINE
  5
AE
330
1F
100
AcDbEntity
  8
0
100
AcDbLine
 10
-31.94113687651232
 20
45.1463225156521
 30
0.0
 11
-31.51110130358637
 21
44.95692870282524
 31
0.0
  0
LINE
  5
AF
330
1F
100
AcDbEntity
  8
0
100
AcDbLine
 10
-32.01817030729799
 20
41.66984318558738
 30
0.0
 11
-32.48528894439617
 21
41.61884525235246
 31
0.0
  0
LINE
  5
B0
330
1F
100
AcDbEntity
  8
0
100
AcDbLine
 10
4.765917029370159
 20
3.769995852970332
 30
0.0
 11
4.704583521597572
 21
4.235870096884773
 31
0.0
  0
LINE
  5
B1
330
1F
100
AcDbEntity
  8
0
100
AcDbLine
 10
-43.29541263840283
 20
40.61840359740454
 30
0.0
 11
-43.29541263840265
 21
30.21840442940454
 31
0.0
  0
LINE
  5
B2
330
1F
100
AcDbEntity
  8
0
100
AcDbLine
 10
31.96829734298209
 20
72.1346010523794
 30
0.0
 11
32.06819775749462
 21
72.37578198798245
 31
0.0
  0
LINE
  5
B3
330
1F
100
AcDbEntity
  8
0
100
AcDbLine
 10
46.53422200399713
 20
89.47578061998252
 30
0.0
 11
46.53422200399704
 21
65.97578249998206
 31
0.0
  0
LINE
  5
B4
330
1F
100
AcDbEntity
  8
0
100
AcDbLine
 10
38.53422264399673
 20
98.37577990798239
 30
0.0
 11
38.53422264399673
 21
103.5740493732405
 31
0.0
  0
LINE
  5
B5
330
1F
100
AcDbEntity
  8
0
100
AcDbLine
 10
62.13422075599702
 20
103.57404937324
 30
0.0
 11
53.1380001099896
 21
103.5740493732404
 31
0.0
  0
LINE
  5
B6
330
1F
100
AcDbEntity
  8
0
100
AcDbLine
 10
10.8060227057792
 20
43.84564657250214
 30
0.0
 11
10.97618212618027
 21
44.28364929163494
 31
0.0
  0
LINE
  5
B7
330
1F
100
AcDbEntity
  8
0
100
AcDbLine
 10
10.75502477254582
 20
43.37852793540404
 30
0.0
 11
10.8060227057792
 21
43.84564657250214
 31
0.0
  0
LINE
  5
B8
330
1F
100
AcDbEntity
  8
0
100
AcDbLine
 10
10.82666375135163
 20
42.91412674350817
 30
0.0
 11
10.75502477254582
 21
43.37852793540404
 31
0.0
  0
LINE
  5
B9
330
1F
100
AcDbEntity
  8
0
100
AcDbLine
 10
11.2226951015017
 20
-57.3122399202941
 30
0.0
 11
11.65264064387631
 21
-57.12264181663488
 31
0.0
  0
LINE
  5
BA
330
1F
100
AcDbEntity
  8
0
100
AcDbLine
 10
10.85647119836671
 20
-57.60665571995687
 30
0.0
 11
11.2226951015017
 21
-57.3122399202941
 31
0.0
  0
LINE
  5
BB
330
1F
100
AcDbEntity
  8
0
100
AcDbLine
 10
10.57892648825601
 20
-57.98582526542227
 30
0.0
 11
10.85647119836671
 21
-57.60665571995687
 31
0.0
  0
LINE
  5
BC
330
1F
100
AcDbEntity
  8
0
100
AcDbLine
 10
10.40897518449961
 20
-58.42390877877352
 30
0.0
 11
10.57892648825601
 21
-57.98582526542227
 31
0.0
  0
LINE
  5
BD
330
1F
100
AcDbEntity
  8
0
100
AcDbLine
 10
10.35819918759093
 20
-58.89105159254334
 30
0.0
 11
10.40897518449961
 21
-58.42390877877352
 31
0.0
  0
LINE
  5
BE
330
1F
100
AcDbEntity
  8
0
100
AcDbLine
 10
11.29324224659458
 20
-60.42913285158309
 30
0.0
 11
10.91407270112927
 21
-60.15158814147217
 31
0.0
  0
LINE
  5
BF
330
1F
100
AcDbEntity
  8
0
100
AcDbLine
 10
11.73132575994592
 20
-60.59908415533904
 30
0.0
 11
11.29324224659458
 21
-60.42913285158309
 31
0.0
  0
LINE
  5
C0
330
1F
100
AcDbEntity
  8
0
100
AcDbLine
 10
12.19846857371556
 20
-60.64986015224845
 30
0.0
 11
11.73132575994592
 21
-60.59908415533904
 31
0.0
  0
LINE
  5
C1
330
1F
100
AcDbEntity
  8
0
100
AcDbLine
 10
58.41067818918825
 20
91.36053940145779
 30
0.0
 11
59.13422099599669
 21
91.6602406449955
 31
0.0
  0
LINE
  5
C2
330
1F
100
AcDbEntity
  8
0
100
AcDbLine
 10
56.13422123599727
 20
91.66024064499518
 30
0.0
 11
56.8577640428058
 21
91.36053940145746
 31
0.0
  0
LINE
  5
C3
330
1F
100
AcDbEntity
  8
0
100
AcDbLine
 10
55.51290094214322
 20
92.1369964746486
 30
0.0
 11
56.13422123599727
 21
91.66024064499518
 31
0.0
  0
LINE
  5
C4
330
1F
100
AcDbEntity
  8
0
100
AcDbLine
 10
54.73644386895227
 20
93.481859575312
 30
0.0
 11
55.03614511248976
 21
92.75831676850247
 31
0.0
  0
LINE
  5
C5
330
1F
100
AcDbEntity
  8
0
100
AcDbLine
 10
54.73644386895246
 20
95.0347737216939
 30
0.0
 11
54.63422135599724
 21
94.25831664850253
 31
0.0
  0
LINE
  5
C6
330
1F
100
AcDbEntity
  8
0
100
AcDbLine
 10
-25.12262188609034
 20
2.963077992572561
 30
0.0
 11
-25.49541406240293
 21
2.677024494780468
 31
0.0
  0
LINE
  5
C7
330
1F
100
AcDbEntity
  8
0
100
AcDbLine
 10
-24.83656838829834
 20
3.335870168884612
 30
0.0
 11
-25.12262188609034
 21
2.963077992572561
 31
0.0
  0
LINE
  5
C8
330
1F
100
AcDbEntity
  8
0
100
AcDbLine
 10
11.24992529920736
 20
-6.481984046026496
 30
0.0
 11
11.61617241422998
 21
-6.187597121968321
 31
0.0
  0
LINE
  5
C9
330
1F
100
AcDbEntity
  8
0
100
AcDbLine
 10
10.97235069457833
 20
-6.861131707477728
 30
0.0
 11
11.24992529920736
 21
-6.481984046026496
 31
0.0
  0
LINE
  5
CA
330
1F
100
AcDbEntity
  8
0
100
AcDbLine
 10
10.80236485093573
 20
-7.299201819765253
 30
0.0
 11
10.97235069457833
 21
-6.861131707477728
 31
0.0
  0
LINE
  5
CB
330
1F
100
AcDbEntity
  8
0
100
AcDbLine
 10
10.75155202260732
 20
-7.766340628681759
 30
0.0
 11
10.80236485093573
 21
-7.299201819765253
 31
0.0
  0
LINE
  5
CC
330
1F
100
AcDbEntity
  8
0
100
AcDbLine
 10
13.95727713342049
 20
-58.80959076612363
 30
0.0
 11
13.90650113651163
 21
-59.27673357989364
 31
0.0
  0
LINE
  5
CD
330
1F
100
AcDbEntity
  8
0
100
AcDbLine
 10
13.88541752320405
 20
-58.34522366270382
 30
0.0
 11
13.95727713342049
 21
-58.80959076612363
 31
0.0
  0
LINE
  5
CE
330
1F
100
AcDbEntity
  8
0
100
AcDbLine
 10
13.69581941954519
 20
-57.91527812032975
 30
0.0
 11
13.88541752320405
 21
-58.34522366270382
 31
0.0
  0
LINE
  5
CF
330
1F
100
AcDbEntity
  8
0
100
AcDbLine
 10
13.40140361988223
 20
-57.54905421719472
 30
0.0
 11
13.69581941954519
 21
-57.91527812032975
 31
0.0
  0
LINE
  5
D0
330
1F
100
AcDbEntity
  8
0
100
AcDbLine
 10
72.06722398082367
 20
69.96093147063132
 30
0.0
 11
71.80840495642666
 21
69.99500564161617
 31
0.0
  0
LINE
  5
D1
330
1F
100
AcDbEntity
  8
0
100
AcDbLine
 10
83.56722306082378
 20
74.96093107063109
 30
0.0
 11
83.56722306082378
 21
69.96093147063155
 31
0.0
  0
LINE
  5
D2
330
1F
100
AcDbEntity
  8
0
100
AcDbLine
 10
87.56722274082362
 20
74.96093107063153
 30
0.0
 11
83.56722306082378
 21
74.96093107063109
 31
0.0
  0
LINE
  5
D3
330
1F
100
AcDbEntity
  8
0
100
AcDbLine
 10
87.56722274082362
 20
74.96093107063153
 30
0.0
 11
87.82604176522062
 21
74.99500524161643
 31
0.0
  0
LINE
  5
D4
330
1F
100
AcDbEntity
  8
0
100
AcDbLine
 10
87.82604176522062
 20
74.99500524161643
 30
0.0
 11
88.06722270082388
 21
75.09490565612882
 31
0.0
  0
LINE
  5
D5
330
1F
100
AcDbEntity
  8
0
100
AcDbLine
 10
-51.8012997758083
 20
40.13810099287243
 30
0.0
 11
-51.76722560482359
 21
39.87928196847564
 31
0.0
  0
LINE
  5
D6
330
1F
100
AcDbEntity
  8
0
100
AcDbLine
 10
-51.90120019032083
 20
40.3792819284749
 30
0.0
 11
-51.8012997758083
 21
40.13810099287243
 31
0.0
  0
LINE
  5
D7
330
1F
100
AcDbEntity
  8
0
100
AcDbLine
 10
32.06819775749435
 20
18.37578630798175
 30
0.0
 11
31.96829734298191
 21
18.13460537237874
 31
0.0
  0
LINE
  5
D8
330
1F
100
AcDbEntity
  8
0
100
AcDbLine
 10
-41.49890147470883
 20
-14.02575159510022
 30
0.0
 11
-41.75772049910584
 21
-14.05982576608506
 31
0.0
  0
LINE
  5
D9
330
1F
100
AcDbEntity
  8
0
100
AcDbLine
 10
55.03614511248967
 20
95.75831652850252
 30
0.0
 11
54.73644386895246
 21
95.0347737216939
 31
0.0
  0
LINE
  5
DA
330
1F
100
AcDbEntity
  8
0
100
AcDbLine
 10
55.51290094214304
 20
96.37963682235649
 30
0.0
 11
55.03614511248967
 21
95.75831652850252
 31
0.0
  0
LINE
  5
DB
330
1F
100
AcDbEntity
  8
0
100
AcDbLine
 10
56.13422123599699
 20
96.85639265200993
 30
0.0
 11
55.51290094214304
 21
96.37963682235649
 31
0.0
  0
LINE
  5
DC
330
1F
100
AcDbEntity
  8
0
100
AcDbLine
 10
58.41067818918815
 20
97.15609389554764
 30
0.0
 11
57.6342211159973
 21
97.25831640850255
 31
0.0
  0
LINE
  5
DD
330
1F
100
AcDbEntity
  8
0
100
AcDbLine
 10
59.13422099599741
 20
96.85639265201034
 30
0.0
 11
58.41067818918815
 21
97.15609389554764
 31
0.0
  0
LINE
  5
DE
330
1F
100
AcDbEntity
  8
0
100
AcDbLine
 10
-51.90120019032101
 20
85.37927832847592
 30
0.0
 11
-52.06011880020549
 21
85.17217156385784
 31
0.0
  0
LINE
  5
DF
330
1F
100
AcDbEntity
  8
0
100
AcDbLine
 10
-52.06011880020549
 20
85.17217156385784
 30
0.0
 11
-52.26722556482348
 21
85.01325295397358
 31
0.0
  0
LINE
  5
E0
330
1F
100
AcDbEntity
  8
0
100
AcDbLine
 10
-58.36722507682375
 20
5.379284728475143
 30
0.0
 11
-58.36722507682321
 21
0.1810152632170734
 31
0.0
  0
LINE
  5
E1
330
1F
100
AcDbEntity
  8
0
100
AcDbLine
 10
-52.76722552482373
 20
5.379284728474872
 30
0.0
 11
-58.36722507682375
 21
5.379284728475143
 31
0.0
  0
LINE
  5
E2
330
1F
100
AcDbEntity
  8
0
100
AcDbLine
 10
-51.76722560482323
 20
6.379284648474831
 30
0.0
 11
-51.8012997758083
 21
6.120465624078225
 31
0.0
  0
LINE
  5
E3
330
1F
100
AcDbEntity
  8
0
100
AcDbLine
 10
-51.76722560482323
 20
6.379284648474831
 30
0.0
 11
-51.76722560482359
 21
14.37928400847527
 31
0.0
  0
LINE
  5
E4
330
1F
100
AcDbEntity
  8
0
100
AcDbLine
 10
59.75554128985092
 20
96.37963682235676
 30
0.0
 11
59.13422099599741
 21
96.85639265201034
 31
0.0
  0
LINE
  5
E5
330
1F
100
AcDbEntity
  8
0
100
AcDbLine
 10
51.90339390048237
 20
-12.79693004918818
 30
0.0
 11
51.17985109367364
 21
-13.0966312927263
 31
0.0
  0
LINE
  5
E6
330
1F
100
AcDbEntity
  8
0
100
AcDbLine
 10
-31.09283442076696
 20
-59.27401420980355
 30
0.0
 11
-31.26210441742338
 21
-59.71236142212584
 31
0.0
  0
LINE
  5
E7
330
1F
100
AcDbEntity
  8
0
100
AcDbLine
 10
-31.04278476629747
 20
-58.80679301764037
 30
0.0
 11
-31.09283442076696
 21
-59.27401420980355
 31
0.0
  0
LINE
  5
E8
330
1F
100
AcDbEntity
  8
0
100
AcDbLine
 10
-31.11536625525595
 20
-58.3425381977633
 30
0.0
 11
-31.04278476629747
 21
-58.80679301764037
 31
0.0
  0
LINE
  5
E9
330
1F
100
AcDbEntity
  8
0
100
AcDbLine
 10
-31.30563257911601
 20
-57.91288794892886
 30
0.0
 11
-31.11536625525595
 21
-58.3425381977633
 31
0.0
  0
LINE
  5
EA
330
1F
100
AcDbEntity
  8
0
100
AcDbLine
 10
-31.60061740233733
 20
-57.54712222556501
 30
0.0
 11
-31.30563257911601
 21
-57.91288794892886
 31
0.0
  0
LINE
  5
EB
330
1F
100
AcDbEntity
  8
0
100
AcDbLine
 10
-31.98021799670215
 20
-57.27016735726246
 30
0.0
 11
-31.60061740233733
 21
-57.54712222556501
 31
0.0
  0
LINE
  5
EC
330
1F
100
AcDbEntity
  8
0
100
AcDbLine
 10
-32.41856520902439
 20
-57.1008973606059
 30
0.0
 11
-31.98021799670215
 21
-57.27016735726246
 31
0.0
  0
LINE
  5
ED
330
1F
100
AcDbEntity
  8
0
100
AcDbLine
 10
5.604583449597373
 20
2.677024494780829
 30
0.0
 11
5.231791273284961
 21
2.963077992572471
 31
0.0
  0
LINE
  5
EE
330
1F
100
AcDbEntity
  8
0
100
AcDbLine
 10
6.038709133683003
 20
2.497203748657488
 30
0.0
 11
5.604583449597373
 21
2.677024494780829
 31
0.0
  0
LINE
  5
EF
330
1F
100
AcDbEntity
  8
0
100
AcDbLine
 10
56.73422118799741
 20
60.43462867008572
 30
0.0
 11
57.16834687208259
 21
60.61444941620839
 31
0.0
  0
LINE
  5
F0
330
1F
100
AcDbEntity
  8
0
100
AcDbLine
 10
58.90701322030969
 20
60.14857517229431
 30
0.0
 11
59.19306671810133
 21
59.77578299598176
 31
0.0
  0
LINE
  5
F1
330
1F
100
AcDbEntity
  8
0
100
AcDbLine
 10
-88.27432946544168
 20
16.6986660281061
 30
0.0
 11
-88.06722270082405
 21
16.85758463799053
 31
0.0
  0
LINE
  5
F2
330
1F
100
AcDbEntity
  8
0
100
AcDbLine
 10
22.10109343729237
 20
-46.95830065280475
 30
0.0
 11
22.30820020191018
 21
-47.11721926268888
 31
0.0
  0
LINE
  5
F3
330
1F
100
AcDbEntity
  8
0
100
AcDbLine
 10
22.60109339729226
 20
-50.4240185643587
 30
0.0
 11
22.56701922630691
 21
-50.68283758875571
 31
0.0
  0
LINE
  5
F4
330
1F
100
AcDbEntity
  8
0
100
AcDbLine
 10
22.56701922630691
 20
-50.68283758875571
 30
0.0
 11
22.4671188117943
 21
-50.92401852435869
 31
0.0
  0
LINE
  5
F5
330
1F
100
AcDbEntity
  8
0
100
AcDbLine
 10
22.4671188117943
 20
-50.92401852435869
 30
0.0
 11
22.30820020191018
 21
-51.13112528897703
 31
0.0
  0
LINE
  5
F6
330
1F
100
AcDbEntity
  8
0
100
AcDbLine
 10
16.6010938772925
 20
-2.725752499100007
 30
0.0
 11
16.60109387729241
 21
-14.02575159510044
 31
0.0
  0
LINE
  5
F7
330
1F
100
AcDbEntity
  8
0
100
AcDbLine
 10
15.05108385015067
 20
-19.60829005767725
 30
0.0
 11
-34.94889184756666
 21
-19.60829005767703
 31
0.0
  0
LINE
  5
F8
330
1F
100
AcDbEntity
  8
0
100
AcDbLine
 10
-21.7989030507079
 20
-37.97674775000916
 30
0.0
 11
-28.69890249870764
 21
-37.9767477500092
 31
0.0
  0
LINE
  5
F9
330
1F
100
AcDbEntity
  8
0
100
AcDbLine
 10
-28.69890249870764
 20
-14.60829045767727
 30
0.0
 11
-28.69890249870764
 21
-7.508291025676767
 31
0.0
  0
LINE
  5
FA
330
1F
100
AcDbEntity
  8
0
100
AcDbLine
 10
-21.79890305070772
 20
-14.60829045767691
 30
0.0
 11
-28.69890249870764
 21
-14.60829045767727
 31
0.0
  0
LINE
  5
FB
330
1F
100
AcDbEntity
  8
0
100
AcDbLine
 10
-24.84005708060358
 20
-47.80828530362027
 30
0.0
 11
-25.12611057839539
 21
-48.18107747993277
 31
0.0
  0
LINE
  5
FC
330
1F
100
AcDbEntity
  8
0
100
AcDbLine
 10
-24.66023633448077
 20
-46.44241113170607
 30
0.0
 11
-24.59890282670782
 21
-46.90828537562042
 31
0.0
  0
LINE
  5
FD
330
1F
100
AcDbEntity
  8
0
100
AcDbLine
 10
48.90339414048221
 20
-7.575980841732176
 30
0.0
 11
49.6269369472913
 21
-7.276279598194416
 31
0.0
  0
LINE
  5
FE
330
1F
100
AcDbEntity
  8
0
100
AcDbLine
 10
-21.79890305070808
 20
-7.508291025676677
 30
0.0
 11
-21.79890305070772
 21
-14.60829045767691
 31
0.0
  0
LINE
  5
FF
330
1F
100
AcDbEntity
  8
0
100
AcDbLine
 10
-25.49890275470817
 20
-48.46713097772464
 30
0.0
 11
-25.93302843879317
 21
-48.64695172384753
 31
0.0
  0
LINE
  5
100
330
1F
100
AcDbEntity
  8
0
100
AcDbLine
 10
62.13422075599738
 20
91.66024064499531
 30
0.0
 11
62.13422075599693
 21
96.85639265200989
 31
0.0
  0
LINE
  5
101
330
1F
100
AcDbEntity
  8
0
100
AcDbLine
 10
-76.56722362082334
 20
46.43812717058001
 30
0.0
 11
-76.1944314445113
 21
46.1520736727886
 31
0.0
  0
LINE
  5
102
330
1F
100
AcDbEntity
  8
0
100
AcDbLine
 10
-76.1944314445113
 20
46.1520736727886
 30
0.0
 11
-75.90837794671947
 21
45.77928149647583
 31
0.0
  0
LINE
  5
103
330
1F
100
AcDbEntity
  8
0
100
AcDbLine
 10
-75.90837794671911
 20
43.97928164047568
 30
0.0
 11
-76.19443144451111
 21
43.60648946416286
 31
0.0
  0
LINE
  5
104
330
1F
100
AcDbEntity
  8
0
100
AcDbLine
 10
-76.19443144451111
 20
43.60648946416286
 30
0.0
 11
-76.56722362082353
 21
43.32043596637122
 31
0.0
  0
LINE
  5
105
330
1F
100
AcDbEntity
  8
0
100
AcDbLine
 10
-88.06722270082405
 20
16.85758463799053
 30
0.0
 11
-87.82604176522081
 21
16.95748505250306
 31
0.0
  0
LINE
  5
106
330
1F
100
AcDbEntity
  8
0
100
AcDbLine
 10
-87.82604176522081
 20
16.95748505250306
 30
0.0
 11
-87.5672227408238
 21
16.99155922348795
 31
0.0
  0
LINE
  5
107
330
1F
100
AcDbEntity
  8
0
100
AcDbLine
 10
53.1380001099896
 20
103.5740493732404
 30
0.0
 11
53.13422147599721
 21
98.77058799862374
 31
0.0
  0
LINE
  5
108
330
1F
100
AcDbEntity
  8
0
100
AcDbLine
 10
14.09310822301554
 20
44.3527155762258
 30
0.0
 11
14.28250203584393
 21
43.9226800033008
 31
0.0
  0
LINE
  5
109
330
1F
100
AcDbEntity
  8
0
100
AcDbLine
 10
13.79886645152033
 20
44.7190793165524
 30
0.0
 11
14.09310822301554
 21
44.3527155762258
 31
0.0
  0
LINE
  5
10A
330
1F
100
AcDbEntity
  8
0
100
AcDbLine
 10
13.41982881182867
 20
44.99680414082211
 30
0.0
 11
13.79886645152033
 21
44.7190793165524
 31
0.0
  0
LINE
  5
10B
330
1F
100
AcDbEntity
  8
0
100
AcDbLine
 10
88.06722270082405
 20
94.79541404946535
 30
0.0
 11
88.27432946544185
 21
94.63649543958091
 31
0.0
  0
LINE
  5
10C
330
1F
100
AcDbEntity
  8
0
100
AcDbLine
 10
53.00147002398951
 20
-11.69885392568035
 30
0.0
 11
52.52471419433641
 21
-12.32017421953476
 31
0.0
  0
LINE
  5
10D
330
1F
100
AcDbEntity
  8
0
100
AcDbLine
 10
71.56722402082396
 20
93.19489921201465
 30
0.0
 11
71.36011725620597
 21
93.35381782189936
 31
0.0
  0
LINE
  5
10E
330
1F
100
AcDbEntity
  8
0
100
AcDbLine
 10
71.80840495642684
 20
93.09499879750217
 30
0.0
 11
71.56722402082396
 21
93.19489921201465
 31
0.0
  0
LINE
  5
10F
330
1F
100
AcDbEntity
  8
0
100
AcDbLine
 10
16.60458256959747
 20
15.11840563740458
 30
0.0
 11
23.40458202559786
 21
15.11840563740449
 31
0.0
  0
LINE
  5
110
330
1F
100
AcDbEntity
  8
0
100
AcDbLine
 10
16.60458256959747
 20
15.11840563740458
 30
0.0
 11
16.60458256959756
 21
4.718406469403767
 31
0.0
  0
LINE
  5
111
330
1F
100
AcDbEntity
  8
0
100
AcDbLine
 10
65.77151793878802
 20
27.67902525990238
 30
0.0
 11
77.27151701878823
 21
27.67902525990247
 31
0.0
  0
LINE
  5
112
330
1F
100
AcDbEntity
  8
0
100
AcDbLine
 10
12.12733969449983
 20
41.66984318558585
 30
0.0
 11
11.68933697536716
 21
41.84000260598633
 31
0.0
  0
LINE
  5
113
330
1F
100
AcDbEntity
  8
0
100
AcDbLine
 10
-33.98393883582334
 20
44.35271557621989
 30
0.0
 11
-33.68969706432967
 21
44.71907931654811
 31
0.0
  0
LINE
  5
114
330
1F
100
AcDbEntity
  8
0
100
AcDbLine
 10
-34.17333264865029
 20
43.92268000329426
 30
0.0
 11
-33.98393883582334
 21
44.35271557621989
 31
0.0
  0
LINE
  5
115
330
1F
100
AcDbEntity
  8
0
100
AcDbLine
 10
-34.24497162745439
 20
43.45827881139771
 30
0.0
 11
-34.17333264865029
 21
43.92268000329426
 31
0.0
  0
LINE
  5
116
330
1F
100
AcDbEntity
  8
0
100
AcDbLine
 10
-52.26722556482348
 20
40.7453073029776
 30
0.0
 11
-52.06011880020531
 21
40.58638869309343
 31
0.0
  0
LINE
  5
117
330
1F
100
AcDbEntity
  8
0
100
AcDbLine
 10
-52.06011880020531
 20
40.58638869309343
 30
0.0
 11
-51.90120019032083
 21
40.3792819284749
 31
0.0
  0
LINE
  5
118
330
1F
100
AcDbEntity
  8
0
100
AcDbLine
 10
-42.36492680921119
 20
-47.32574893110048
 30
0.0
 11
-42.46482722372354
 21
-47.5669298667034
 31
0.0
  0
LINE
  5
119
330
1F
100
AcDbEntity
  8
0
100
AcDbLine
 10
-42.4989013947086
 20
-47.82574889110074
 30
0.0
 11
-42.49890139470789
 21
-50.42008501452727
 31
0.0
  0
LINE
  5
11A
330
1F
100
AcDbEntity
  8
0
100
AcDbLine
 10
-20.50201617965381
 20
88.16873614280684
 30
0.0
 11
-22.8857953279196
 21
85.06213467353676
 31
0.0
  0
LINE
  5
11B
330
1F
100
AcDbEntity
  8
0
100
AcDbLine
 10
-79.58854372267768
 20
11.61806816180921
 30
0.0
 11
-80.06529955233094
 21
10.99674786795521
 31
0.0
  0
LINE
  5
11C
330
1F
100
AcDbEntity
  8
0
100
AcDbLine
 10
-76.56722362082353
 20
43.32043596637122
 30
0.0
 11
-77.00134930490889
 21
43.14061522024896
 31
0.0
  0
LINE
  5
11D
330
1F
100
AcDbEntity
  8
0
100
AcDbLine
 10
-77.4672235488235
 20
43.07928171247547
 30
0.0
 11
-77.93309779273812
 21
43.14061522024861
 31
0.0
  0
LINE
  5
11E
330
1F
100
AcDbEntity
  8
0
100
AcDbLine
 10
-78.36722347682367
 20
43.32043596637114
 30
0.0
 11
-78.74001565313608
 21
43.60648946416327
 31
0.0
  0
LINE
  5
11F
330
1F
100
AcDbEntity
  8
0
100
AcDbLine
 10
-78.74001565313608
 20
43.60648946416327
 30
0.0
 11
-79.02606915092808
 21
43.97928164047586
 31
0.0
  0
LINE
  5
120
330
1F
100
AcDbEntity
  8
0
100
AcDbLine
 10
-79.02606915092808
 20
43.97928164047586
 30
0.0
 11
-79.20588989705088
 21
44.41340732456127
 31
0.0
  0
LINE
  5
121
330
1F
100
AcDbEntity
  8
0
100
AcDbLine
 10
-79.26722340482365
 20
44.87928156847571
 30
0.0
 11
-79.20588989705088
 21
45.34515581239047
 31
0.0
  0
LINE
  5
122
330
1F
100
AcDbEntity
  8
0
100
AcDbLine
 10
-43.29541263840265
 20
30.21840442940454
 30
0.0
 11
-36.49541318240307
 21
30.21840442940454
 31
0.0
  0
LINE
  5
123
330
1F
100
AcDbEntity
  8
0
100
AcDbLine
 10
23.40458202559759
 20
30.2184044294049
 30
0.0
 11
23.40458202559741
 21
40.61840359740477
 31
0.0
  0
LINE
  5
124
330
1F
100
AcDbEntity
  8
0
100
AcDbLine
 10
5.604583449616413
 20
63.66213638553609
 30
0.0
 11
5.190473010581464
 21
63.60761771196005
 31
0.0
  0
LINE
  5
125
330
1F
100
AcDbEntity
  8
0
100
AcDbLine
 10
-88.27432946544168
 20
43.58638845309245
 30
0.0
 11
-88.43324807532652
 21
43.37928168847468
 31
0.0
  0
LINE
  5
126
330
1F
100
AcDbEntity
  8
0
100
AcDbLine
 10
-88.43324807532652
 20
43.37928168847468
 30
0.0
 11
-88.53314848983887
 21
43.1381007528714
 31
0.0
  0
LINE
  5
127
330
1F
100
AcDbEntity
  8
0
100
AcDbLine
 10
-88.56722266082376
 20
42.87928172847448
 30
0.0
 11
-88.56722266082359
 21
38.27928209647424
 31
0.0
  0
LINE
  5
128
330
1F
100
AcDbEntity
  8
0
100
AcDbLine
 10
-88.53314848983887
 20
43.1381007528714
 30
0.0
 11
-88.56722266082376
 21
42.87928172847448
 31
0.0
  0
LINE
  5
129
330
1F
100
AcDbEntity
  8
0
100
AcDbLine
 10
-52.06011880020513
 20
31.17217588385696
 30
0.0
 11
-51.90120019032083
 21
31.37928264847504
 31
0.0
  0
LINE
  5
12A
330
1F
100
AcDbEntity
  8
0
100
AcDbLine
 10
-51.90120019032083
 20
31.37928264847504
 30
0.0
 11
-51.8012997758083
 21
31.62046358407801
 31
0.0
  0
LINE
  5
12B
330
1F
100
AcDbEntity
  8
0
100
AcDbLine
 10
-51.76722560482342
 20
31.87928260847515
 30
0.0
 11
-51.76722560482359
 21
39.87928196847564
 31
0.0
  0
LINE
  5
12C
330
1F
100
AcDbEntity
  8
0
100
AcDbLine
 10
54.90339366048234
 20
-0.875787707981511
 30
0.0
 11
54.90339366048197
 21
-21.17405596523873
 31
0.0
  0
LINE
  5
12D
330
1F
100
AcDbEntity
  8
0
100
AcDbLine
 10
54.90339366048234
 20
-0.875787707981511
 30
0.0
 11
31.30339554848258
 21
-0.8757877079813756
 31
0.0
  0
LINE
  5
12E
330
1F
100
AcDbEntity
  8
0
100
AcDbLine
 10
31.30339554848258
 20
-0.8757877079813756
 30
0.0
 11
31.3033955484825
 21
-103.5740493732401
 31
0.0
  0
LINE
  5
12F
330
1F
100
AcDbEntity
  8
0
100
AcDbLine
 10
31.3033955484825
 20
-103.5740493732401
 30
0.0
 11
36.30339514848256
 21
-103.5740493732406
 31
0.0
  0
LINE
  5
130
330
1F
100
AcDbEntity
  8
0
100
AcDbLine
 10
36.30339514848256
 20
-103.5740493732406
 30
0.0
 11
54.90339366048234
 21
-49.57405369323994
 31
0.0
  0
LINE
  5
131
330
1F
100
AcDbEntity
  8
0
100
AcDbLine
 10
54.90339366048153
 20
-33.17405500524004
 30
0.0
 11
54.90339366048234
 21
-49.57405369323994
 31
0.0
  0
LINE
  5
132
330
1F
100
AcDbEntity
  8
0
100
AcDbLine
 10
51.40339394048248
 20
-33.17405500523969
 30
0.0
 11
54.90339366048153
 21
-33.17405500524004
 31
0.0
  0
LINE
  5
133
330
1F
100
AcDbEntity
  8
0
100
AcDbLine
 10
51.40339394048248
 20
-33.17405500523969
 30
0.0
 11
49.85047979410049
 21
-32.96960997932971
 31
0.0
  0
LINE
  5
134
330
1F
100
AcDbEntity
  8
0
100
AcDbLine
 10
49.85047979410049
 20
-32.96960997932971
 30
0.0
 11
48.40339418048313
 21
-32.37020749225415
 31
0.0
  0
LINE
  5
135
330
1F
100
AcDbEntity
  8
0
100
AcDbLine
 10
48.40339418048313
 20
-32.37020749225415
 30
0.0
 11
47.16075359277477
 21
-31.41669583294728
 31
0.0
  0
LINE
  5
136
330
1F
100
AcDbEntity
  8
0
100
AcDbLine
 10
47.16075359277477
 20
-31.41669583294728
 30
0.0
 11
46.20724193346813
 21
-30.17405524523958
 31
0.0
  0
LINE
  5
137
330
1F
100
AcDbEntity
  8
0
100
AcDbLine
 10
46.20724193346813
 20
-30.17405524523958
 30
0.0
 11
45.60783944639287
 21
-28.72696963162173
 31
0.0
  0
LINE
  5
138
330
1F
100
AcDbEntity
  8
0
100
AcDbLine
 10
45.60783944639287
 20
-28.72696963162173
 30
0.0
 11
45.40339442048226
 21
-27.1740554852402
 31
0.0
  0
LINE
  5
139
330
1F
100
AcDbEntity
  8
0
100
AcDbLine
 10
45.40339442048226
 20
-27.1740554852402
 30
0.0
 11
45.60783944639243
 21
-25.62114133885722
 31
0.0
  0
LINE
  5
13A
330
1F
100
AcDbEntity
  8
0
100
AcDbLine
 10
45.60783944639243
 20
-25.62114133885722
 30
0.0
 11
46.20724193346794
 21
-24.17405572523964
 31
0.0
  0
LINE
  5
13B
330
1F
100
AcDbEntity
  8
0
100
AcDbLine
 10
46.20724193346794
 20
-24.17405572523964
 30
0.0
 11
47.16075359277377
 21
-22.93141513753145
 31
0.0
  0
LINE
  5
13C
330
1F
100
AcDbEntity
  8
0
100
AcDbLine
 10
47.16075359277377
 20
-22.93141513753145
 30
0.0
 11
48.40339418048223
 21
-21.97790347822495
 31
0.0
  0
LINE
  5
13D
330
1F
100
AcDbEntity
  8
0
100
AcDbLine
 10
48.40339418048223
 20
-21.97790347822495
 30
0.0
 11
49.85047979410013
 21
-21.37850099114857
 31
0.0
  0
LINE
  5
13E
330
1F
100
AcDbEntity
  8
0
100
AcDbLine
 10
52.20339387648221
 20
-45.57405401323947
 30
0.0
 11
52.14206036870934
 21
-46.03992825715373
 31
0.0
  0
LINE
  5
13F
330
1F
100
AcDbEntity
  8
0
100
AcDbLine
 10
52.14206036870934
 20
-46.03992825715373
 30
0.0
 11
51.96223962258619
 21
-46.47405394123955
 31
0.0
  0
LINE
  5
140
330
1F
100
AcDbEntity
  8
0
100
AcDbLine
 10
51.96223962258619
 20
-46.47405394123955
 30
0.0
 11
51.67618612479427
 21
-46.84684611755146
 31
0.0
  0
LINE
  5
141
330
1F
100
AcDbEntity
  8
0
100
AcDbLine
 10
51.67618612479427
 20
-46.84684611755146
 30
0.0
 11
51.30339394848222
 21
-47.13289961534364
 31
0.0
  0
LINE
  5
142
330
1F
100
AcDbEntity
  8
0
100
AcDbLine
 10
51.30339394848222
 20
-47.13289961534364
 30
0.0
 11
50.86926826439723
 21
-47.31272036146613
 31
0.0
  0
LINE
  5
143
330
1F
100
AcDbEntity
  8
0
100
AcDbLine
 10
50.86926826439723
 20
-47.31272036146613
 30
0.0
 11
50.40339402048225
 21
-47.37405386924002
 31
0.0
  0
LINE
  5
144
330
1F
100
AcDbEntity
  8
0
100
AcDbLine
 10
50.40339402048225
 20
-47.37405386924002
 30
0.0
 11
49.93751977656844
 21
-47.31272036146685
 31
0.0
  0
LINE
  5
145
330
1F
100
AcDbEntity
  8
0
100
AcDbLine
 10
49.93751977656844
 20
-47.31272036146685
 30
0.0
 11
49.50339409248298
 21
-47.13289961534287
 31
0.0
  0
LINE
  5
146
330
1F
100
AcDbEntity
  8
0
100
AcDbLine
 10
49.50339409248298
 20
-47.13289961534287
 30
0.0
 11
49.13060191617039
 21
-46.84684611755132
 31
0.0
  0
LINE
  5
147
330
1F
100
AcDbEntity
  8
0
100
AcDbLine
 10
49.13060191617039
 20
-46.84684611755132
 30
0.0
 11
48.84454841837794
 21
-46.47405394123896
 31
0.0
  0
LINE
  5
148
330
1F
100
AcDbEntity
  8
0
100
AcDbLine
 10
48.84454841837794
 20
-46.47405394123896
 30
0.0
 11
48.66472767225532
 21
-46.03992825715383
 31
0.0
  0
LINE
  5
149
330
1F
100
AcDbEntity
  8
0
100
AcDbLine
 10
48.66472767225532
 20
-46.03992825715383
 30
0.0
 11
48.60339416448246
 21
-45.5740540132387
 31
0.0
  0
LINE
  5
14A
330
1F
100
AcDbEntity
  8
0
100
AcDbLine
 10
48.60339416448246
 20
-45.5740540132387
 30
0.0
 11
48.66472767225559
 21
-45.1081797693244
 31
0.0
  0
LINE
  5
14B
330
1F
100
AcDbEntity
  8
0
100
AcDbLine
 10
48.66472767225559
 20
-45.1081797693244
 30
0.0
 11
48.84454841837848
 21
-44.67405408523976
 31
0.0
  0
LINE
  5
14C
330
1F
100
AcDbEntity
  8
0
100
AcDbLine
 10
48.84454841837848
 20
-44.67405408523976
 30
0.0
 11
49.13060191616957
 21
-44.3012619089269
 31
0.0
  0
LINE
  5
14D
330
1F
100
AcDbEntity
  8
0
100
AcDbLine
 10
49.13060191616957
 20
-44.3012619089269
 30
0.0
 11
49.50339409248253
 21
-44.01520841113503
 31
0.0
  0
LINE
  5
14E
330
1F
100
AcDbEntity
  8
0
100
AcDbLine
 10
49.50339409248253
 20
-44.01520841113503
 30
0.0
 11
49.93751977656817
 21
-43.83538766501268
 31
0.0
  0
LINE
  5
14F
330
1F
100
AcDbEntity
  8
0
100
AcDbLine
 10
49.93751977656817
 20
-43.83538766501268
 30
0.0
 11
50.40339402048206
 21
-43.77405415723969
 31
0.0
  0
LINE
  5
150
330
1F
100
AcDbEntity
  8
0
100
AcDbLine
 10
50.40339402048206
 20
-43.77405415723969
 30
0.0
 11
50.86926826439696
 21
-43.83538766501268
 31
0.0
  0
LINE
  5
151
330
1F
100
AcDbEntity
  8
0
100
AcDbLine
 10
50.86926826439696
 20
-43.83538766501268
 30
0.0
 11
51.30339394848214
 21
-44.01520841113517
 31
0.0
  0
LINE
  5
152
330
1F
100
AcDbEntity
  8
0
100
AcDbLine
 10
51.30339394848214
 20
-44.01520841113517
 30
0.0
 11
51.67618612479446
 21
-44.30126190892653
 31
0.0
  0
LINE
  5
153
330
1F
100
AcDbEntity
  8
0
100
AcDbLine
 10
51.67618612479446
 20
-44.30126190892653
 30
0.0
 11
51.96223962258718
 21
-44.6740540852399
 31
0.0
  0
LINE
  5
154
330
1F
100
AcDbEntity
  8
0
100
AcDbLine
 10
51.96223962258718
 20
-44.6740540852399
 30
0.0
 11
52.14206036870907
 21
-45.10817976932422
 31
0.0
  0
LINE
  5
155
330
1F
100
AcDbEntity
  8
0
100
AcDbLine
 10
52.14206036870907
 20
-45.10817976932422
 30
0.0
 11
52.20339387648221
 21
-45.57405401323947
 31
0.0
  0
LINE
  5
156
330
1F
100
AcDbEntity
  8
0
100
AcDbLine
 10
53.30117126752763
 20
-10.97531111887168
 30
0.0
 11
53.00147002398951
 21
-11.69885392568035
 31
0.0
  0
LINE
  5
157
330
1F
100
AcDbEntity
  8
0
100
AcDbLine
 10
52.52471419433641
 20
-12.32017421953476
 30
0.0
 11
51.90339390048237
 21
-12.79693004918818
 31
0.0
  0
LINE
  5
158
330
1F
100
AcDbEntity
  8
0
100
AcDbLine
 10
51.17985109367364
 20
-13.0966312927263
 30
0.0
 11
50.59174745771985
 21
-13.17405660523923
 31
0.0
  0
LINE
  5
159
330
1F
100
AcDbEntity
  8
0
100
AcDbLine
 10
50.59174745771985
 20
-13.17405660523923
 30
0.0
 11
50.40339402048261
 21
-13.17405660523932
 31
0.0
  0
LINE
  5
15A
330
1F
100
AcDbEntity
  8
0
100
AcDbLine
 10
47.80531801697534
 20
-11.67405672523924
 30
0.0
 11
47.50561677343731
 21
-10.95051391843066
 31
0.0
  0
LINE
  5
15B
330
1F
100
AcDbEntity
  8
0
100
AcDbLine
 10
47.50561677343731
 20
-10.95051391843066
 30
0.0
 11
47.40339426048219
 21
-10.17405684523971
 31
0.0
  0
LINE
  5
15C
330
1F
100
AcDbEntity
  8
0
100
AcDbLine
 10
47.40339426048219
 20
-10.17405684523971
 30
0.0
 11
47.50561677343731
 21
-9.397599772048496
 31
0.0
  0
LINE
  5
15D
330
1F
100
AcDbEntity
  8
0
100
AcDbLine
 10
47.80531801697516
 20
-8.674056965239277
 30
0.0
 11
48.28207384662871
 21
-8.052736671385272
 31
0.0
  0
LINE
  5
15E
330
1F
100
AcDbEntity
  8
0
100
AcDbLine
 10
48.28207384662871
 20
-8.052736671385272
 30
0.0
 11
48.90339414048221
 21
-7.575980841732176
 31
0.0
  0
LINE
  5
15F
330
1F
100
AcDbEntity
  8
0
100
AcDbLine
 10
49.6269369472913
 20
-7.276279598194416
 30
0.0
 11
50.40339402048306
 21
-7.174057085239112
 31
0.0
  0
LINE
  5
160
330
1F
100
AcDbEntity
  8
0
100
AcDbLine
 10
51.17985109367356
 20
-7.30107679863584
 30
0.0
 11
51.90339390048264
 21
-7.600778042173239
 31
0.0
  0
LINE
  5
161
330
1F
100
AcDbEntity
  8
0
100
AcDbLine
 10
51.90339390048264
 20
-7.600778042173239
 30
0.0
 11
52.52471419433623
 21
-8.07753387182638
 31
0.0
  0
LINE
  5
162
330
1F
100
AcDbEntity
  8
0
100
AcDbLine
 10
52.52471419433623
 20
-8.07753387182638
 30
0.0
 11
53.00147002398923
 21
-8.698854165680611
 31
0.0
  0
LINE
  5
163
330
1F
100
AcDbEntity
  8
0
100
AcDbLine
 10
53.00147002398923
 20
-8.698854165680611
 30
0.0
 11
53.30117126752745
 21
-9.42239697249001
 31
0.0
  0
LINE
  5
164
330
1F
100
AcDbEntity
  8
0
100
AcDbLine
 10
53.30117126752745
 20
-9.42239697249001
 30
0.0
 11
53.40339378048212
 21
-10.19885404568023
 31
0.0
  0
LINE
  5
165
330
1F
100
AcDbEntity
  8
0
100
AcDbLine
 10
53.40339378048212
 20
-10.19885404568023
 30
0.0
 11
53.30117126752763
 21
-10.97531111887168
 31
0.0
  0
LINE
  5
166
330
1F
100
AcDbEntity
  8
0
100
AcDbLine
 10
12.66283567713511
 20
-60.57800054203245
 30
0.0
 11
12.19846857371556
 21
-60.64986015224845
 31
0.0
  0
LINE
  5
167
330
1F
100
AcDbEntity
  8
0
100
AcDbLine
 10
-23.84993287195957
 20
93.47624447257162
 30
0.0
 11
-24.00977353517994
 21
93.8621339695364
 31
0.0
  0
LINE
  5
168
330
1F
100
AcDbEntity
  8
0
100
AcDbLine
 10
59.19306671810169
 20
57.97578313998166
 30
0.0
 11
58.90701322030969
 21
57.60299096366907
 31
0.0
  0
LINE
  5
169
330
1F
100
AcDbEntity
  8
0
100
AcDbLine
 10
55.89555476777019
 20
59.34165731189599
 30
0.0
 11
56.07537551389299
 21
59.77578299598122
 31
0.0
  0
LINE
  5
16A
330
1F
100
AcDbEntity
  8
0
100
AcDbLine
 10
58.10009535991138
 20
60.61444941620884
 30
0.0
 11
58.53422104399737
 21
60.43462867008603
 31
0.0
  0
LINE
  5
16B
330
1F
100
AcDbEntity
  8
0
100
AcDbLine
 10
55.83422125999715
 20
58.87578306798137
 30
0.0
 11
55.89555476777019
 21
59.34165731189599
 31
0.0
  0
LINE
  5
16C
330
1F
100
AcDbEntity
  8
0
100
AcDbLine
 10
59.37288746422467
 20
59.34165731189617
 30
0.0
 11
59.43422097199709
 21
58.87578306798191
 31
0.0
  0
LINE
  5
16D
330
1F
100
AcDbEntity
  8
0
100
AcDbLine
 10
59.19306671810133
 20
59.77578299598176
 30
0.0
 11
59.37288746422467
 21
59.34165731189617
 31
0.0
  0
LINE
  5
16E
330
1F
100
AcDbEntity
  8
0
100
AcDbLine
 10
57.16834687208232
 20
57.13711671975481
 30
0.0
 11
56.73422118799687
 21
57.3169374658773
 31
0.0
  0
LINE
  5
16F
330
1F
100
AcDbEntity
  8
0
100
AcDbLine
 10
32.93422309199698
 20
18.87578626798151
 30
0.0
 11
32.67540406760024
 21
18.84171209699661
 31
0.0
  0
LINE
  5
170
330
1F
100
AcDbEntity
  8
0
100
AcDbLine
 10
32.93422309199688
 20
88.3757807079823
 30
0.0
 11
32.67540406759996
 21
88.40985487896734
 31
0.0
  0
LINE
  5
171
330
1F
100
AcDbEntity
  8
0
100
AcDbLine
 10
32.67540406759996
 20
88.40985487896734
 30
0.0
 11
32.43422313199682
 21
88.50975529348013
 31
0.0
  0
LINE
  5
172
330
1F
100
AcDbEntity
  8
0
100
AcDbLine
 10
32.43422313199682
 20
88.50975529348013
 30
0.0
 11
32.22711636737919
 21
88.66867390336421
 31
0.0
  0
LINE
  5
173
330
1F
100
AcDbEntity
  8
0
100
AcDbLine
 10
32.22711636737919
 20
88.66867390336421
 30
0.0
 11
32.06819775749462
 21
88.87578066798245
 31
0.0
  0
LINE
  5
174
330
1F
100
AcDbEntity
  8
0
100
AcDbLine
 10
32.06819775749462
 20
88.87578066798245
 30
0.0
 11
31.968297342982
 21
89.11696160358521
 31
0.0
  0
LINE
  5
175
330
1F
100
AcDbEntity
  8
0
100
AcDbLine
 10
81.27151669878789
 20
52.64748242423467
 30
0.0
 11
81.53033572318527
 21
52.61340825324937
 31
0.0
  0
LINE
  5
176
330
1F
100
AcDbEntity
  8
0
100
AcDbLine
 10
32.93422309199679
 20
72.87578194798208
 30
0.0
 11
38.534222643997
 21
72.87578194798243
 31
0.0
  0
LINE
  5
177
330
1F
100
AcDbEntity
  8
0
100
AcDbLine
 10
-41.49890147470829
 20
-37.32574973110039
 30
0.0
 11
-41.75772049910493
 21
-37.29167556011581
 31
0.0
  0
LINE
  5
178
330
1F
100
AcDbEntity
  8
0
100
AcDbLine
 10
82.13754203329076
 20
52.1474824642341
 30
0.0
 11
82.23744244780346
 21
51.90630152863119
 31
0.0
  0
LINE
  5
179
330
1F
100
AcDbEntity
  8
0
100
AcDbLine
 10
-26.52678482977232
 20
63.19350727292457
 30
0.0
 11
-26.78105460558752
 21
62.86213644953589
 31
0.0
  0
LINE
  5
17A
330
1F
100
AcDbEntity
  8
0
100
AcDbLine
 10
-23.79541419838363
 20
62.06213651353607
 30
0.0
 11
-23.79541419838399
 21
55.86213700953591
 31
0.0
  0
LINE
  5
17B
330
1F
100
AcDbEntity
  8
0
100
AcDbLine
 10
-23.79541419838363
 20
62.06213651353607
 30
0.0
 11
-23.84993287196029
 21
62.47624695257152
 31
0.0
  0
LINE
  5
17C
330
1F
100
AcDbEntity
  8
0
100
AcDbLine
 10
-23.84993287196029
 20
62.47624695257152
 30
0.0
 11
-24.00977353517994
 21
62.86213644953616
 31
0.0
  0
LINE
  5
17D
330
1F
100
AcDbEntity
  8
0
100
AcDbLine
 10
56.07537551389299
 20
59.77578299598122
 30
0.0
 11
56.3614290116849
 21
60.14857517229404
 31
0.0
  0
LINE
  5
17E
330
1F
100
AcDbEntity
  8
0
100
AcDbLine
 10
6.501094685292116
 20
-45.10828551962042
 30
0.0
 11
6.966968929206828
 21
-45.16961902739354
 31
0.0
  0
LINE
  5
17F
330
1F
100
AcDbEntity
  8
0
100
AcDbLine
 10
5.228302580979633
 20
-45.63549327130799
 30
0.0
 11
5.601094757292044
 21
-45.34943977351566
 31
0.0
  0
LINE
  5
180
330
1F
100
AcDbEntity
  8
0
100
AcDbLine
 10
7.150064648040668
 20
86.44802409050098
 30
0.0
 11
7.204583321616962
 21
86.86213452953636
 31
0.0
  0
LINE
  5
181
330
1F
100
AcDbEntity
  8
0
100
AcDbLine
 10
7.204583321616601
 20
93.06213403353685
 30
0.0
 11
7.204583321616962
 21
86.86213452953636
 31
0.0
  0
LINE
  5
182
330
1F
100
AcDbEntity
  8
0
100
AcDbLine
 10
7.204583321616601
 20
93.06213403353685
 30
0.0
 11
7.150064648040487
 21
93.47624447257216
 31
0.0
  0
LINE
  5
183
330
1F
100
AcDbEntity
  8
0
100
AcDbLine
 10
-74.46722378882363
 20
9.496747987955267
 30
0.0
 11
-74.56944630177848
 21
10.27320506114617
 31
0.0
  0
LINE
  5
184
330
1F
100
AcDbEntity
  8
0
100
AcDbLine
 10
-74.56944630177865
 20
8.720290914764277
 30
0.0
 11
-74.46722378882363
 21
9.496747987955267
 31
0.0
  0
LINE
  5
185
330
1F
100
AcDbEntity
  8
0
100
AcDbLine
 10
-75.34590337496951
 20
7.375427814100736
 30
0.0
 11
-74.86914754531624
 21
7.996748107954832
 31
0.0
  0
LINE
  5
186
330
1F
100
AcDbEntity
  8
0
100
AcDbLine
 10
-75.96722366882366
 20
6.898671984447776
 30
0.0
 11
-75.34590337496951
 21
7.375427814100736
 31
0.0
  0
LINE
  5
187
330
1F
100
AcDbEntity
  8
0
100
AcDbLine
 10
-77.46722354882333
 20
6.496748227954938
 30
0.0
 11
-76.69076647563266
 21
6.598970740909927
 31
0.0
  0
LINE
  5
188
330
1F
100
AcDbEntity
  8
0
100
AcDbLine
 10
38.534222643997
 20
0.8757877079816463
 30
0.0
 11
43.53422224399735
 21
0.8757877079813304
 31
0.0
  0
LINE
  5
189
330
1F
100
AcDbEntity
  8
0
100
AcDbLine
 10
-51.90120019032101
 20
94.37927760847614
 30
0.0
 11
-51.8012997758083
 21
94.13809667287327
 31
0.0
  0
LINE
  5
18A
330
1F
100
AcDbEntity
  8
0
100
AcDbLine
 10
-52.06011880020513
 20
94.58638437309426
 30
0.0
 11
-51.90120019032101
 21
94.37927760847614
 31
0.0
  0
LINE
  5
18B
330
1F
100
AcDbEntity
  8
0
100
AcDbLine
 10
-52.26722556482311
 20
94.74530298297834
 30
0.0
 11
-52.06011880020513
 21
94.58638437309426
 31
0.0
  0
LINE
  5
18C
330
1F
100
AcDbEntity
  8
0
100
AcDbLine
 10
-52.50840650042635
 20
94.84520339749115
 30
0.0
 11
-52.26722556482311
 21
94.74530298297834
 31
0.0
  0
LINE
  5
18D
330
1F
100
AcDbEntity
  8
0
100
AcDbLine
 10
21.60109347729257
 20
-14.02575159510026
 30
0.0
 11
21.85991250168913
 21
-14.05982576608488
 31
0.0
  0
LINE
  5
18E
330
1F
100
AcDbEntity
  8
0
100
AcDbLine
 10
21.85991250168913
 20
-14.05982576608488
 30
0.0
 11
22.10109343729255
 21
-14.15972618059791
 31
0.0
  0
LINE
  5
18F
330
1F
100
AcDbEntity
  8
0
100
AcDbLine
 10
22.10109343729255
 20
-14.15972618059791
 30
0.0
 11
22.30820020191063
 21
-14.31864479048225
 31
0.0
  0
LINE
  5
190
330
1F
100
AcDbEntity
  8
0
100
AcDbLine
 10
22.30820020191063
 20
-14.31864479048225
 30
0.0
 11
22.46711881179475
 21
-14.52575155509997
 31
0.0
  0
LINE
  5
191
330
1F
100
AcDbEntity
  8
0
100
AcDbLine
 10
22.46711881179475
 20
-14.52575155509997
 30
0.0
 11
22.56701922630746
 21
-14.76693249070312
 31
0.0
  0
LINE
  5
192
330
1F
100
AcDbEntity
  8
0
100
AcDbLine
 10
58.53422104399746
 20
57.31693746587702
 30
0.0
 11
58.10009535991165
 21
57.13711671975454
 31
0.0
  0
LINE
  5
193
330
1F
100
AcDbEntity
  8
0
100
AcDbLine
 10
62.13422075599702
 20
71.75831844850092
 30
0.0
 11
53.13422147599712
 21
71.75831844850114
 31
0.0
  0
LINE
  5
194
330
1F
100
AcDbEntity
  8
0
100
AcDbLine
 10
38.534222643997
 20
0.8757877079816463
 30
0.0
 11
38.53422264399673
 21
8.875787067981502
 31
0.0
  0
LINE
  5
195
330
1F
100
AcDbEntity
  8
0
100
AcDbLine
 10
88.06722270082388
 20
75.09490565612882
 30
0.0
 11
88.27432946544185
 21
75.25382426601321
 31
0.0
  0
LINE
  5
196
330
1F
100
AcDbEntity
  8
0
100
AcDbLine
 10
88.27432946544185
 20
75.25382426601321
 30
0.0
 11
88.43324807532598
 21
75.46093103063137
 31
0.0
  0
LINE
  5
197
330
1F
100
AcDbEntity
  8
0
100
AcDbLine
 10
88.53314848983868
 20
75.70211196623426
 30
0.0
 11
88.56722266082376
 21
75.96093099063154
 31
0.0
  0
LINE
  5
198
330
1F
100
AcDbEntity
  8
0
100
AcDbLine
 10
-88.56722266082376
 20
15.99155930348813
 30
0.0
 11
-88.53314848983868
 21
16.25037832788514
 31
0.0
  0
LINE
  5
199
330
1F
100
AcDbEntity
  8
0
100
AcDbLine
 10
-88.53314848983868
 20
16.25037832788514
 30
0.0
 11
-88.43324807532633
 21
16.49155926348833
 31
0.0
  0
LINE
  5
19A
330
1F
100
AcDbEntity
  8
0
100
AcDbLine
 10
-87.5672227408238
 20
16.99155922348795
 30
0.0
 11
-72.96722390882378
 21
16.99155922348827
 31
0.0
  0
LINE
  5
19B
330
1F
100
AcDbEntity
  8
0
100
AcDbLine
 10
-27.25813296741091
 20
-99.77152080408044
 30
0.0
 11
-27.69225865149609
 21
-99.59170005795755
 31
0.0
  0
LINE
  5
19C
330
1F
100
AcDbEntity
  8
0
100
AcDbLine
 10
5.20773871650526
 20
-96.47400885374921
 30
0.0
 11
5.64186440059071
 21
-96.29418810762664
 31
0.0
  0
LINE
  5
19D
330
1F
100
AcDbEntity
  8
0
100
AcDbLine
 10
4.834946540192939
 20
-96.76006235154135
 30
0.0
 11
5.20773871650526
 21
-96.47400885374921
 31
0.0
  0
LINE
  5
19E
330
1F
100
AcDbEntity
  8
0
100
AcDbLine
 10
-51.76722560482342
 20
85.87927828847572
 30
0.0
 11
-51.8012997758083
 21
85.62045926407889
 31
0.0
  0
LINE
  5
19F
330
1F
100
AcDbEntity
  8
0
100
AcDbLine
 10
-51.8012997758083
 20
85.62045926407889
 30
0.0
 11
-51.90120019032101
 21
85.37927832847592
 31
0.0
  0
LINE
  5
1A0
330
1F
100
AcDbEntity
  8
0
100
AcDbLine
 10
4.80458351361677
 20
63.44777704873997
 30
0.0
 11
4.47321269022783
 21
63.19350727292498
 31
0.0
  0
LINE
  5
1A1
330
1F
100
AcDbEntity
  8
0
100
AcDbLine
 10
4.47321269022783
 20
63.19350727292498
 30
0.0
 11
4.218942914412436
 21
62.86213644953616
 31
0.0
  0
LINE
  5
1A2
330
1F
100
AcDbEntity
  8
0
100
AcDbLine
 10
12.98182609269599
 20
45.16696356122318
 30
0.0
 11
13.41982881182867
 21
44.99680414082211
 31
0.0
  0
LINE
  5
1A3
330
1F
100
AcDbEntity
  8
0
100
AcDbLine
 10
12.51470745559735
 20
45.21796149445665
 30
0.0
 11
12.98182609269599
 21
45.16696356122318
 31
0.0
  0
LINE
  5
1A4
330
1F
100
AcDbEntity
  8
0
100
AcDbLine
 10
12.05030626370144
 20
45.14632251565061
 30
0.0
 11
12.51470745559735
 21
45.21796149445665
 31
0.0
  0
LINE
  5
1A5
330
1F
100
AcDbEntity
  8
0
100
AcDbLine
 10
46.53799851350997
 20
103.5740493732406
 30
0.0
 11
38.53422264399673
 21
103.5740493732405
 31
0.0
  0
LINE
  5
1A6
330
1F
100
AcDbEntity
  8
0
100
AcDbLine
 10
-25.39541407038382
 20
94.6621339055368
 30
0.0
 11
-25.80952450941868
 21
94.60761523196079
 31
0.0
  0
LINE
  5
1A7
330
1F
100
AcDbEntity
  8
0
100
AcDbLine
 10
-25.80952450941868
 20
94.60761523196079
 30
0.0
 11
-26.19541400638401
 21
94.44777456874046
 31
0.0
  0
LINE
  5
1A8
330
1F
100
AcDbEntity
  8
0
100
AcDbLine
 10
-26.19541400638401
 20
94.44777456874046
 30
0.0
 11
-26.5267848297725
 21
94.19350479292534
 31
0.0
  0
LINE
  5
1A9
330
1F
100
AcDbEntity
  8
0
100
AcDbLine
 10
-26.5267848297725
 20
94.19350479292534
 30
0.0
 11
-26.78105460558735
 21
93.86213396953708
 31
0.0
  0
LINE
  5
1AA
330
1F
100
AcDbEntity
  8
0
100
AcDbLine
 10
71.1012982318089
 20
76.11975002302816
 30
0.0
 11
71.06722406082366
 21
75.86093099863116
 31
0.0
  0
LINE
  5
1AB
330
1F
100
AcDbEntity
  8
0
100
AcDbLine
 10
71.06722406082402
 20
98.9293883149631
 30
0.0
 11
71.1012982318089
 21
99.18820733936033
 31
0.0
  0
LINE
  5
1AC
330
1F
100
AcDbEntity
  8
0
100
AcDbLine
 10
71.10129823180873
 20
93.80210552212009
 30
0.0
 11
71.06722406082366
 21
94.06092454651741
 31
0.0
  0
LINE
  5
1AD
330
1F
100
AcDbEntity
  8
0
100
AcDbLine
 10
59.43422097199709
 20
58.87578306798191
 30
0.0
 11
59.37288746422431
 21
58.40990882406707
 31
0.0
  0
LINE
  5
1AE
330
1F
100
AcDbEntity
  8
0
100
AcDbLine
 10
7.150064648040487
 20
93.47624447257216
 30
0.0
 11
6.99022398482021
 21
93.86213396953636
 31
0.0
  0
LINE
  5
1AF
330
1F
100
AcDbEntity
  8
0
100
AcDbLine
 10
6.99022398482021
 20
93.86213396953636
 30
0.0
 11
6.735954209005177
 21
94.19350479292525
 31
0.0
  0
LINE
  5
1B0
330
1F
100
AcDbEntity
  8
0
100
AcDbLine
 10
-28.13408033862957
 20
4.701744340799305
 30
0.0
 11
-27.95425959250712
 21
5.135870024884846
 31
0.0
  0
LINE
  5
1B1
330
1F
100
AcDbEntity
  8
0
100
AcDbLine
 10
-28.19541384640288
 20
4.235870096884864
 30
0.0
 11
-28.13408033862957
 21
4.701744340799305
 31
0.0
  0
LINE
  5
1B2
330
1F
100
AcDbEntity
  8
0
100
AcDbLine
 10
-27.95425959250731
 20
3.335870168885063
 30
0.0
 11
-28.1340803386292
 21
3.769995852970332
 31
0.0
  0
LINE
  5
1B3
330
1F
100
AcDbEntity
  8
0
100
AcDbLine
 10
-27.66820609471477
 20
2.9630779925722
 30
0.0
 11
-27.95425959250731
 21
3.335870168885063
 31
0.0
  0
LINE
  5
1B4
330
1F
100
AcDbEntity
  8
0
100
AcDbLine
 10
-52.76722552482354
 20
40.87928188847515
 30
0.0
 11
-58.36722507682357
 21
40.87928188847497
 31
0.0
  0
LINE
  5
1B5
330
1F
100
AcDbEntity
  8
0
100
AcDbLine
 10
31.96829734298182
 20
9.616967963584631
 30
0.0
 11
31.93422317199648
 21
9.875786987981733
 31
0.0
  0
LINE
  5
1B6
330
1F
100
AcDbEntity
  8
0
100
AcDbLine
 10
-52.76722552482354
 20
40.87928188847515
 30
0.0
 11
-52.50840650042635
 21
40.84520771749035
 31
0.0
  0
LINE
  5
1B7
330
1F
100
AcDbEntity
  8
0
100
AcDbLine
 10
-52.50840650042635
 20
40.84520771749035
 30
0.0
 11
-52.26722556482348
 21
40.7453073029776
 31
0.0
  0
LINE
  5
1B8
330
1F
100
AcDbEntity
  8
0
100
AcDbLine
 10
-42.20628626666358
 20
-51.12691356241601
 30
0.0
 11
-42.36505788742364
 21
-50.91985787164535
 31
0.0
  0
LINE
  5
1B9
330
1F
100
AcDbEntity
  8
0
100
AcDbLine
 10
-42.36505788742364
 20
-50.91985787164535
 30
0.0
 11
-42.46486114866514
 21
-50.67877739610938
 31
0.0
  0
LINE
  5
1BA
330
1F
100
AcDbEntity
  8
0
100
AcDbLine
 10
5.190473010581464
 20
63.60761771196005
 30
0.0
 11
4.80458351361677
 21
63.44777704873997
 31
0.0
  0
LINE
  5
1BB
330
1F
100
AcDbEntity
  8
0
100
AcDbLine
 10
-51.8012997758083
 20
14.63810303287215
 30
0.0
 11
-51.76722560482359
 21
14.37928400847527
 31
0.0
  0
LINE
  5
1BC
330
1F
100
AcDbEntity
  8
0
100
AcDbLine
 10
-51.90120019032101
 20
14.87928396847553
 30
0.0
 11
-51.8012997758083
 21
14.63810303287215
 31
0.0
  0
LINE
  5
1BD
330
1F
100
AcDbEntity
  8
0
100
AcDbLine
 10
-52.50840650042635
 20
15.34520975749025
 30
0.0
 11
-52.26722556482329
 21
15.2453093429775
 31
0.0
  0
LINE
  5
1BE
330
1F
100
AcDbEntity
  8
0
100
AcDbLine
 10
-58.36722507682357
 20
15.37928392847546
 30
0.0
 11
-52.76722552482318
 21
15.37928392847505
 31
0.0
  0
LINE
  5
1BF
330
1F
100
AcDbEntity
  8
0
100
AcDbLine
 10
6.404583385616507
 20
54.47649647433202
 30
0.0
 11
6.735954209005268
 21
54.73076625014706
 31
0.0
  0
LINE
  5
1C0
330
1F
100
AcDbEntity
  8
0
100
AcDbLine
 10
6.735954209005268
 20
54.73076625014706
 30
0.0
 11
6.990223984820481
 21
55.06213707353617
 31
0.0
  0
LINE
  5
1C1
330
1F
100
AcDbEntity
  8
0
100
AcDbLine
 10
6.990223984820481
 20
55.06213707353617
 30
0.0
 11
7.150064648040577
 21
55.44802657050101
 31
0.0
  0
LINE
  5
1C2
330
1F
100
AcDbEntity
  8
0
100
AcDbLine
 10
-33.38888158853928
 20
-6.190682645202085
 30
0.0
 11
-32.9595473573013
 21
-5.999704300340154
 31
0.0
  0
LINE
  5
1C3
330
1F
100
AcDbEntity
  8
0
100
AcDbLine
 10
-36.49890187470795
 20
-46.82574897110032
 30
0.0
 11
-41.49890147470847
 21
-46.82574897110042
 31
0.0
  0
LINE
  5
1C4
330
1F
100
AcDbEntity
  8
0
100
AcDbLine
 10
-27.95774828481236
 20
-46.00828544762017
 30
0.0
 11
-27.67169478702018
 21
-45.63549327130785
 31
0.0
  0
LINE
  5
1C5
330
1F
100
AcDbEntity
  8
0
100
AcDbLine
 10
-22.8857953279196
 20
63.86213636953599
 30
0.0
 11
-20.50201617965381
 21
60.75553490026643
 31
0.0
  0
LINE
  5
1C6
330
1F
100
AcDbEntity
  8
0
100
AcDbLine
 10
-20.50201617965381
 20
60.75553490026643
 30
0.0
 11
-17.39541471038365
 21
58.37175575200027
 31
0.0
  0
LINE
  5
1C7
330
1F
100
AcDbEntity
  8
0
100
AcDbLine
 10
-17.39541471038365
 20
58.37175575200027
 30
0.0
 11
-13.77770067633832
 21
56.87324953431133
 31
0.0
  0
LINE
  5
1C8
330
1F
100
AcDbEntity
  8
0
100
AcDbLine
 10
-13.77770067633832
 20
56.87324953431133
 30
0.0
 11
-9.895415310383502
 21
56.36213696953638
 31
0.0
  0
LINE
  5
1C9
330
1F
100
AcDbEntity
  8
0
100
AcDbLine
 10
-26.78105460558735
 20
93.86213396953708
 30
0.0
 11
-26.94089526880753
 21
93.47624447257193
 31
0.0
  0
LINE
  5
1CA
330
1F
100
AcDbEntity
  8
0
100
AcDbLine
 10
-26.94089526880753
 20
93.47624447257193
 30
0.0
 11
-26.99541394238383
 21
93.06213403353676
 31
0.0
  0
LINE
  5
1CB
330
1F
100
AcDbEntity
  8
0
100
AcDbLine
 10
-26.99541394238383
 20
93.06213403353676
 30
0.0
 11
-26.99541394238365
 21
86.86213452953636
 31
0.0
  0
LINE
  5
1CC
330
1F
100
AcDbEntity
  8
0
100
AcDbLine
 10
-26.99541394238365
 20
86.86213452953636
 30
0.0
 11
-26.94089526880735
 21
86.44802409050102
 31
0.0
  0
LINE
  5
1CD
330
1F
100
AcDbEntity
  8
0
100
AcDbLine
 10
4.804583513616589
 20
94.44777456874046
 30
0.0
 11
4.473212690227468
 21
94.19350479292515
 31
0.0
  0
LINE
  5
1CE
330
1F
100
AcDbEntity
  8
0
100
AcDbLine
 10
4.473212690227468
 20
94.19350479292515
 30
0.0
 11
4.218942914412616
 21
93.86213396953636
 31
0.0
  0
LINE
  5
1CF
330
1F
100
AcDbEntity
  8
0
100
AcDbLine
 10
4.218942914412616
 20
93.86213396953636
 30
0.0
 11
4.059102251192339
 21
93.47624447257189
 31
0.0
  0
LINE
  5
1D0
330
1F
100
AcDbEntity
  8
0
100
AcDbLine
 10
4.059102251192339
 20
93.47624447257189
 30
0.0
 11
4.004583577616316
 21
93.06213403353658
 31
0.0
  0
LINE
  5
1D1
330
1F
100
AcDbEntity
  8
0
100
AcDbLine
 10
4.004583577616316
 20
93.06213403353658
 30
0.0
 11
4.004583577616135
 21
86.86213452953659
 31
0.0
  0
LINE
  5
1D2
330
1F
100
AcDbEntity
  8
0
100
AcDbLine
 10
4.004583577616135
 20
86.86213452953659
 30
0.0
 11
4.059102251192249
 21
86.44802409050179
 31
0.0
  0
LINE
  5
1D3
330
1F
100
AcDbEntity
  8
0
100
AcDbLine
 10
-32.40553806840878
 20
45.21796149445692
 30
0.0
 11
-31.94113687651232
 21
45.1463225156521
 31
0.0
  0
LINE
  5
1D4
330
1F
100
AcDbEntity
  8
0
100
AcDbLine
 10
-32.87265670550678
 20
45.16696356122155
 30
0.0
 11
-32.40553806840878
 21
45.21796149445692
 31
0.0
  0
LINE
  5
1D5
330
1F
100
AcDbEntity
  8
0
100
AcDbLine
 10
-33.31065942463864
 20
44.99680414081872
 30
0.0
 11
-32.87265670550678
 21
45.16696356122155
 31
0.0
  0
LINE
  5
1D6
330
1F
100
AcDbEntity
  8
0
100
AcDbLine
 10
-33.68969706432967
 20
44.71907931654811
 30
0.0
 11
-33.31065942463864
 21
44.99680414081872
 31
0.0
  0
LINE
  5
1D7
330
1F
100
AcDbEntity
  8
0
100
AcDbLine
 10
10.82337501987263
 20
-8.230713396383301
 30
0.0
 11
10.75155202260732
 21
-7.766340628681759
 31
0.0
  0
LINE
  5
1D8
330
1F
100
AcDbEntity
  8
0
100
AcDbLine
 10
11.01293922416051
 20
-8.660673886162813
 30
0.0
 11
10.82337501987263
 21
-8.230713396383301
 31
0.0
  0
LINE
  5
1D9
330
1F
100
AcDbEntity
  8
0
100
AcDbLine
 10
11.30732614821878
 20
-9.026921001185253
 30
0.0
 11
11.01293922416051
 21
-8.660673886162813
 31
0.0
  0
LINE
  5
1DA
330
1F
100
AcDbEntity
  8
0
100
AcDbLine
 10
11.6864738096701
 20
-9.304495605814012
 30
0.0
 11
11.30732614821878
 21
-9.026921001185253
 31
0.0
  0
LINE
  5
1DB
330
1F
100
AcDbEntity
  8
0
100
AcDbLine
 10
88.43324807532616
 20
94.42938867496328
 30
0.0
 11
88.53314848983868
 21
94.18820773936018
 31
0.0
  0
LINE
  5
1DC
330
1F
100
AcDbEntity
  8
0
100
AcDbLine
 10
88.27432946544185
 20
94.63649543958091
 30
0.0
 11
88.43324807532616
 21
94.42938867496328
 31
0.0
  0
LINE
  5
1DD
330
1F
100
AcDbEntity
  8
0
100
AcDbLine
 10
-27.29541391840253
 20
5.794715698989259
 30
0.0
 11
-26.86128823431699
 21
5.974536445111789
 31
0.0
  0
LINE
  5
1DE
330
1F
100
AcDbEntity
  8
0
100
AcDbLine
 10
-27.66820609471495
 20
5.508662201197168
 30
0.0
 11
-27.29541391840253
 21
5.794715698989259
 31
0.0
  0
LINE
  5
1DF
330
1F
100
AcDbEntity
  8
0
100
AcDbLine
 10
-27.95425959250712
 20
5.135870024884846
 30
0.0
 11
-27.66820609471495
 21
5.508662201197168
 31
0.0
  0
LINE
  5
1E0
330
1F
100
AcDbEntity
  8
0
100
AcDbLine
 10
-23.84993287195975
 20
55.44802657050087
 30
0.0
 11
-23.79541419838399
 21
55.86213700953591
 31
0.0
  0
LINE
  5
1E1
330
1F
100
AcDbEntity
  8
0
100
AcDbLine
 10
-52.50840650042654
 20
30.91335685946017
 30
0.0
 11
-52.26722556482311
 21
31.01325727397288
 31
0.0
  0
LINE
  5
1E2
330
1F
100
AcDbEntity
  8
0
100
AcDbLine
 10
-52.76722552482354
 20
30.8792826884752
 30
0.0
 11
-52.50840650042654
 21
30.91335685946017
 31
0.0
  0
LINE
  5
1E3
330
1F
100
AcDbEntity
  8
0
100
AcDbLine
 10
-52.76722552482354
 20
30.8792826884752
 30
0.0
 11
-58.36722507682357
 21
30.87928268847533
 31
0.0
  0
LINE
  5
1E4
330
1F
100
AcDbEntity
  8
0
100
AcDbLine
 10
-52.26722556482329
 20
15.2453093429775
 30
0.0
 11
-52.06011880020531
 21
15.0863907330932
 31
0.0
  0
LINE
  5
1E5
330
1F
100
AcDbEntity
  8
0
100
AcDbLine
 10
-52.06011880020531
 20
15.0863907330932
 30
0.0
 11
-51.90120019032101
 21
14.87928396847553
 31
0.0
  0
LINE
  5
1E6
330
1F
100
AcDbEntity
  8
0
100
AcDbLine
 10
4.76591702937061
 20
4.701744340799485
 30
0.0
 11
4.945737775493139
 21
5.135870024884755
 31
0.0
  0
LINE
  5
1E7
330
1F
100
AcDbEntity
  8
0
100
AcDbLine
 10
4.704583521597572
 20
4.235870096884773
 30
0.0
 11
4.76591702937061
 21
4.701744340799485
 31
0.0
  0
LINE
  5
1E8
330
1F
100
AcDbEntity
  8
0
100
AcDbLine
 10
4.94573777549332
 20
3.335870168884882
 30
0.0
 11
4.765917029370159
 21
3.769995852970332
 31
0.0
  0
LINE
  5
1E9
330
1F
100
AcDbEntity
  8
0
100
AcDbLine
 10
13.02223407441675
 20
-57.27150950708428
 30
0.0
 11
13.40140361988223
 21
-57.54905421719472
 31
0.0
  0
LINE
  5
1EA
330
1F
100
AcDbEntity
  8
0
100
AcDbLine
 10
32.93422309199707
 20
62.87578274798194
 30
0.0
 11
32.67540406760006
 21
62.90985691896714
 31
0.0
  0
LINE
  5
1EB
330
1F
100
AcDbEntity
  8
0
100
AcDbLine
 10
67.73422030799696
 20
99.67577980398258
 30
0.0
 11
67.99303933239415
 21
99.64170563299751
 31
0.0
  0
LINE
  5
1EC
330
1F
100
AcDbEntity
  8
0
100
AcDbLine
 10
67.99303933239415
 20
99.64170563299751
 30
0.0
 11
68.23422026799703
 21
99.5418052184846
 31
0.0
  0
LINE
  5
1ED
330
1F
100
AcDbEntity
  8
0
100
AcDbLine
 10
68.23422026799703
 20
99.5418052184846
 30
0.0
 11
68.4413270326152
 21
99.3828866086002
 31
0.0
  0
LINE
  5
1EE
330
1F
100
AcDbEntity
  8
0
100
AcDbLine
 10
68.4413270326152
 20
99.3828866086002
 30
0.0
 11
68.60024564249977
 21
99.17577984398253
 31
0.0
  0
LINE
  5
1EF
330
1F
100
AcDbEntity
  8
0
100
AcDbLine
 10
68.60024564249977
 20
99.17577984398253
 30
0.0
 11
68.7001460570122
 21
98.93459890837916
 31
0.0
  0
LINE
  5
1F0
330
1F
100
AcDbEntity
  8
0
100
AcDbLine
 10
32.67540406760024
 20
18.84171209699661
 30
0.0
 11
32.43422313199682
 21
18.74181168248395
 31
0.0
  0
LINE
  5
1F1
330
1F
100
AcDbEntity
  8
0
100
AcDbLine
 10
32.43422313199682
 20
18.74181168248395
 30
0.0
 11
32.22711636737892
 21
18.58289307259996
 31
0.0
  0
LINE
  5
1F2
330
1F
100
AcDbEntity
  8
0
100
AcDbLine
 10
59.75554128985129
 20
92.13699647464877
 30
0.0
 11
60.23229711950438
 21
92.75831676850265
 31
0.0
  0
LINE
  5
1F3
330
1F
100
AcDbEntity
  8
0
100
AcDbLine
 10
57.6342211159973
 20
97.25831640850255
 30
0.0
 11
56.8577640428059
 21
97.15609389554801
 31
0.0
  0
LINE
  5
1F4
330
1F
100
AcDbEntity
  8
0
100
AcDbLine
 10
-42.36492680921029
 20
-36.82574977110082
 30
0.0
 11
-42.46482722372281
 21
-36.58456883549776
 31
0.0
  0
LINE
  5
1F5
330
1F
100
AcDbEntity
  8
0
100
AcDbLine
 10
32.06819775749417
 20
97.87577994798268
 30
0.0
 11
31.96829734298209
 21
97.63459901237962
 31
0.0
  0
LINE
  5
1F6
330
1F
100
AcDbEntity
  8
0
100
AcDbLine
 10
-31.20942353613198
 20
-6.420496520058311
 30
0.0
 11
-30.91383274480968
 21
-6.785772709268236
 31
0.0
  0
LINE
  5
1F7
330
1F
100
AcDbEntity
  8
0
100
AcDbLine
 10
68.70014605701212
 20
65.7346015643799
 30
0.0
 11
68.73422022799728
 21
65.47578253998307
 31
0.0
  0
LINE
  5
1F8
330
1F
100
AcDbEntity
  8
0
100
AcDbLine
 10
57.6342211159973
 20
60.67578292398174
 30
0.0
 11
58.10009535991138
 21
60.61444941620884
 31
0.0
  0
LINE
  5
1F9
330
1F
100
AcDbEntity
  8
0
100
AcDbLine
 10
57.16834687208259
 20
60.61444941620839
 30
0.0
 11
57.6342211159973
 21
60.67578292398174
 31
0.0
  0
LINE
  5
1FA
330
1F
100
AcDbEntity
  8
0
100
AcDbLine
 10
56.3614290116849
 20
60.14857517229404
 30
0.0
 11
56.73422118799741
 21
60.43462867008572
 31
0.0
  0
LINE
  5
1FB
330
1F
100
AcDbEntity
  8
0
100
AcDbLine
 10
56.07537551389263
 20
57.97578313998152
 30
0.0
 11
55.89555476777046
 21
58.40990882406684
 31
0.0
  0
LINE
  5
1FC
330
1F
100
AcDbEntity
  8
0
100
AcDbLine
 10
56.36142901168499
 20
57.60299096366853
 30
0.0
 11
56.07537551389263
 21
57.97578313998152
 31
0.0
  0
LINE
  5
1FD
330
1F
100
AcDbEntity
  8
0
100
AcDbLine
 10
56.73422118799687
 20
57.3169374658773
 30
0.0
 11
56.36142901168499
 21
57.60299096366853
 31
0.0
  0
LINE
  5
1FE
330
1F
100
AcDbEntity
  8
0
100
AcDbLine
 10
57.63422111599711
 20
57.07578321198176
 30
0.0
 11
57.16834687208232
 21
57.13711671975481
 31
0.0
  0
LINE
  5
1FF
330
1F
100
AcDbEntity
  8
0
100
AcDbLine
 10
14.3031430814168
 20
42.99116017430611
 30
0.0
 11
14.13298366101591
 21
42.55315745517372
 31
0.0
  0
LINE
  5
200
330
1F
100
AcDbEntity
  8
0
100
AcDbLine
 10
14.35414101465009
 20
43.45827881140493
 30
0.0
 11
14.3031430814168
 21
42.99116017430611
 31
0.0
  0
LINE
  5
201
330
1F
100
AcDbEntity
  8
0
100
AcDbLine
 10
14.28250203584393
 20
43.9226800033008
 30
0.0
 11
14.35414101465009
 21
43.45827881140493
 31
0.0
  0
LINE
  5
202
330
1F
100
AcDbEntity
  8
0
100
AcDbLine
 10
-26.86128823431699
 20
2.497203748657848
 30
0.0
 11
-27.29541391840271
 21
2.677024494780829
 31
0.0
  0
LINE
  5
203
330
1F
100
AcDbEntity
  8
0
100
AcDbLine
 10
-26.39541399040237
 20
2.43587024088463
 30
0.0
 11
-26.86128823431699
 21
2.497203748657848
 31
0.0
  0
LINE
  5
204
330
1F
100
AcDbEntity
  8
0
100
AcDbLine
 10
-25.92953974648829
 20
2.497203748658029
 30
0.0
 11
-26.39541399040237
 21
2.43587024088463
 31
0.0
  0
LINE
  5
205
330
1F
100
AcDbEntity
  8
0
100
AcDbLine
 10
-24.00977353517975
 20
86.06213459353623
 30
0.0
 11
-23.84993287195975
 21
86.4480240905008
 31
0.0
  0
LINE
  5
206
330
1F
100
AcDbEntity
  8
0
100
AcDbLine
 10
-23.84993287195975
 20
86.4480240905008
 30
0.0
 11
-23.79541419838399
 21
86.8621345295364
 31
0.0
  0
LINE
  5
207
330
1F
100
AcDbEntity
  8
0
100
AcDbLine
 10
-23.79541419838399
 20
93.06213403353662
 30
0.0
 11
-23.79541419838399
 21
86.8621345295364
 31
0.0
  0
LINE
  5
208
330
1F
100
AcDbEntity
  8
0
100
AcDbLine
 10
-23.79541419838399
 20
93.06213403353662
 30
0.0
 11
-23.84993287195957
 21
93.47624447257162
 31
0.0
  0
LINE
  5
209
330
1F
100
AcDbEntity
  8
0
100
AcDbLine
 10
3.094964707152557
 20
85.06213467353658
 30
0.0
 11
0.711185558886805
 21
88.16873614280648
 31
0.0
  0
LINE
  5
20A
330
1F
100
AcDbEntity
  8
0
100
AcDbLine
 10
0.711185558886805
 20
88.16873614280648
 30
0.0
 11
-2.395415910383353
 21
90.55251529107285
 31
0.0
  0
LINE
  5
20B
330
1F
100
AcDbEntity
  8
0
100
AcDbLine
 10
-2.395415910383353
 20
90.55251529107285
 30
0.0
 11
-6.013129944428409
 21
92.05102150876183
 31
0.0
  0
LINE
  5
20C
330
1F
100
AcDbEntity
  8
0
100
AcDbLine
 10
-6.013129944428409
 20
92.05102150876183
 30
0.0
 11
-9.89541531038332
 21
92.56213407353637
 31
0.0
  0
LINE
  5
20D
330
1F
100
AcDbEntity
  8
0
100
AcDbLine
 10
-22.8857953279196
 20
85.06213467353676
 30
0.0
 11
-24.38430154560858
 21
81.44442063949144
 31
0.0
  0
LINE
  5
20E
330
1F
100
AcDbEntity
  8
0
100
AcDbLine
 10
-24.38430154560858
 20
81.44442063949144
 30
0.0
 11
-24.89541411038339
 21
77.56213527353653
 31
0.0
  0
LINE
  5
20F
330
1F
100
AcDbEntity
  8
0
100
AcDbLine
 10
-24.89541411038339
 20
77.56213527353653
 30
0.0
 11
-24.89541411038339
 21
71.36213576953655
 31
0.0
  0
LINE
  5
210
330
1F
100
AcDbEntity
  8
0
100
AcDbLine
 10
88.53314848983868
 20
94.18820773936018
 30
0.0
 11
88.56722266082376
 21
93.92938871496321
 31
0.0
  0
LINE
  5
211
330
1F
100
AcDbEntity
  8
0
100
AcDbLine
 10
88.56722266082376
 20
93.92938871496321
 30
0.0
 11
88.56722266082376
 21
75.96093099063154
 31
0.0
  0
LINE
  5
212
330
1F
100
AcDbEntity
  8
0
100
AcDbLine
 10
71.20119864632143
 20
70.46093143063108
 30
0.0
 11
71.10129823180873
 21
70.70211236623446
 31
0.0
  0
LINE
  5
213
330
1F
100
AcDbEntity
  8
0
100
AcDbLine
 10
83.5672230608236
 20
99.92938823496354
 30
0.0
 11
72.06722398082384
 21
99.92938823496335
 31
0.0
  0
LINE
  5
214
330
1F
100
AcDbEntity
  8
0
100
AcDbLine
 10
83.56722306082396
 20
94.9293886349634
 30
0.0
 11
83.5672230608236
 21
99.92938823496354
 31
0.0
  0
LINE
  5
215
330
1F
100
AcDbEntity
  8
0
100
AcDbLine
 10
87.82604176522062
 20
94.89531446397851
 30
0.0
 11
88.06722270082405
 21
94.79541404946535
 31
0.0
  0
LINE
  5
216
330
1F
100
AcDbEntity
  8
0
100
AcDbLine
 10
87.5672227408238
 20
94.92938863496349
 30
0.0
 11
87.82604176522062
 21
94.89531446397851
 31
0.0
  0
LINE
  5
217
330
1F
100
AcDbEntity
  8
0
100
AcDbLine
 10
83.56722306082396
 20
94.9293886349634
 30
0.0
 11
87.5672227408238
 21
94.92938863496349
 31
0.0
  0
LINE
  5
218
330
1F
100
AcDbEntity
  8
0
100
AcDbLine
 10
71.80840495642666
 20
99.89531406397865
 30
0.0
 11
72.06722398082384
 21
99.92938823496335
 31
0.0
  0
LINE
  5
219
330
1F
100
AcDbEntity
  8
0
100
AcDbLine
 10
71.56722402082377
 20
99.79541364946576
 30
0.0
 11
71.80840495642666
 21
99.89531406397865
 31
0.0
  0
LINE
  5
21A
330
1F
100
AcDbEntity
  8
0
100
AcDbLine
 10
71.36011725620561
 20
99.63649503958136
 30
0.0
 11
71.56722402082377
 21
99.79541364946576
 31
0.0
  0
LINE
  5
21B
330
1F
100
AcDbEntity
  8
0
100
AcDbLine
 10
72.06722398082384
 20
93.06092462651714
 30
0.0
 11
76.06722366082381
 21
93.06092462651722
 31
0.0
  0
LINE
  5
21C
330
1F
100
AcDbEntity
  8
0
100
AcDbLine
 10
76.06722366082381
 20
93.06092462651722
 30
0.0
 11
76.06722366082364
 21
76.86093091863115
 31
0.0
  0
LINE
  5
21D
330
1F
100
AcDbEntity
  8
0
100
AcDbLine
 10
76.06722366082364
 20
76.86093091863115
 30
0.0
 11
72.06722398082402
 21
76.86093091863101
 31
0.0
  0
LINE
  5
21E
330
1F
100
AcDbEntity
  8
0
100
AcDbLine
 10
72.06722398082402
 20
76.86093091863101
 30
0.0
 11
71.80840495642684
 21
76.82685674764622
 31
0.0
  0
LINE
  5
21F
330
1F
100
AcDbEntity
  8
0
100
AcDbLine
 10
71.80840495642684
 20
76.82685674764622
 30
0.0
 11
71.56722402082377
 21
76.72695633313387
 31
0.0
  0
LINE
  5
220
330
1F
100
AcDbEntity
  8
0
100
AcDbLine
 10
71.56722402082377
 20
76.72695633313387
 30
0.0
 11
71.36011725620578
 21
76.56803772324926
 31
0.0
  0
LINE
  5
221
330
1F
100
AcDbEntity
  8
0
100
AcDbLine
 10
71.36011725620578
 20
76.56803772324926
 30
0.0
 11
71.20119864632161
 21
76.36093095863095
 31
0.0
  0
LINE
  5
222
330
1F
100
AcDbEntity
  8
0
100
AcDbLine
 10
71.20119864632161
 20
76.36093095863095
 30
0.0
 11
71.1012982318089
 21
76.11975002302816
 31
0.0
  0
LINE
  5
223
330
1F
100
AcDbEntity
  8
0
100
AcDbLine
 10
71.06722406082366
 20
75.86093099863116
 30
0.0
 11
71.06722406082348
 21
70.9609313906316
 31
0.0
  0
LINE
  5
224
330
1F
100
AcDbEntity
  8
0
100
AcDbLine
 10
71.10129823180873
 20
70.70211236623446
 30
0.0
 11
71.06722406082348
 21
70.9609313906316
 31
0.0
  0
LINE
  5
225
330
1F
100
AcDbEntity
  8
0
100
AcDbLine
 10
71.56722402082396
 20
70.09490605612883
 30
0.0
 11
71.36011725620561
 21
70.25382466601323
 31
0.0
  0
LINE
  5
226
330
1F
100
AcDbEntity
  8
0
100
AcDbLine
 10
71.80840495642666
 20
69.99500564161617
 30
0.0
 11
71.56722402082396
 21
70.09490605612883
 31
0.0
  0
LINE
  5
227
330
1F
100
AcDbEntity
  8
0
100
AcDbLine
 10
72.06722398082367
 20
69.96093147063132
 30
0.0
 11
83.56722306082378
 21
69.96093147063155
 31
0.0
  0
LINE
  5
228
330
1F
100
AcDbEntity
  8
0
100
AcDbLine
 10
13.09278121950918
 20
-60.38840243837324
 30
0.0
 11
12.66283567713511
 21
-60.57800054203245
 31
0.0
  0
LINE
  5
229
330
1F
100
AcDbEntity
  8
0
100
AcDbLine
 10
-28.13756903093498
 20
-47.37415961953477
 30
0.0
 11
-28.19890253870793
 21
-46.90828537562033
 31
0.0
  0
LINE
  5
22A
330
1F
100
AcDbEntity
  8
0
100
AcDbLine
 10
-27.95774828481236
 20
-47.80828530362045
 30
0.0
 11
-28.13756903093498
 21
-47.37415961953477
 31
0.0
  0
LINE
  5
22B
330
1F
100
AcDbEntity
  8
0
100
AcDbLine
 10
-27.67169478702036
 20
-48.1810774799325
 30
0.0
 11
-27.95774828481236
 21
-47.80828530362045
 31
0.0
  0
LINE
  5
22C
330
1F
100
AcDbEntity
  8
0
100
AcDbLine
 10
-32.88578640118722
 20
-57.05084770613673
 30
0.0
 11
-32.41856520902439
 21
-57.1008973606059
 31
0.0
  0
LINE
  5
22D
330
1F
100
AcDbEntity
  8
0
100
AcDbLine
 10
4.218942914412616
 20
55.06213707353599
 30
0.0
 11
4.473212690227739
 21
54.73076625014728
 31
0.0
  0
LINE
  5
22E
330
1F
100
AcDbEntity
  8
0
100
AcDbLine
 10
4.473212690227739
 20
54.73076625014728
 30
0.0
 11
4.8045835136165
 21
54.47649647433197
 31
0.0
  0
LINE
  5
22F
330
1F
100
AcDbEntity
  8
0
100
AcDbLine
 10
4.8045835136165
 20
54.47649647433197
 30
0.0
 11
5.190473010581104
 21
54.31665581111242
 31
0.0
  0
LINE
  5
230
330
1F
100
AcDbEntity
  8
0
100
AcDbLine
 10
5.190473010581104
 20
54.31665581111242
 30
0.0
 11
5.604583449616684
 21
54.26213713753604
 31
0.0
  0
LINE
  5
231
330
1F
100
AcDbEntity
  8
0
100
AcDbLine
 10
5.604583449616684
 20
54.26213713753604
 30
0.0
 11
6.018693888651903
 21
54.31665581111215
 31
0.0
  0
LINE
  5
232
330
1F
100
AcDbEntity
  8
0
100
AcDbLine
 10
4.804583513616319
 20
85.47649399433288
 30
0.0
 11
5.190473010581013
 21
85.3166533311122
 31
0.0
  0
LINE
  5
233
330
1F
100
AcDbEntity
  8
0
100
AcDbLine
 10
-34.37888389987299
 20
-59.78775440973804
 30
0.0
 11
-34.56915022373328
 21
-59.35810416090332
 31
0.0
  0
LINE
  5
234
330
1F
100
AcDbEntity
  8
0
100
AcDbLine
 10
-34.08389907665203
 20
-60.15352013310193
 30
0.0
 11
-34.37888389987299
 21
-59.78775440973804
 31
0.0
  0
LINE
  5
235
330
1F
100
AcDbEntity
  8
0
100
AcDbLine
 10
-33.70429848228685
 20
-60.4304750014046
 30
0.0
 11
-34.08389907665203
 21
-60.15352013310193
 31
0.0
  0
LINE
  5
236
330
1F
100
AcDbEntity
  8
0
100
AcDbLine
 10
-33.26595126996462
 20
-60.59974499806113
 30
0.0
 11
-33.70429848228685
 21
-60.4304750014046
 31
0.0
  0
LINE
  5
237
330
1F
100
AcDbEntity
  8
0
100
AcDbLine
 10
-32.79873007780179
 20
-60.64979465253037
 30
0.0
 11
-33.26595126996462
 21
-60.59974499806113
 31
0.0
  0
LINE
  5
238
330
1F
100
AcDbEntity
  8
0
100
AcDbLine
 10
-32.33447525792458
 20
-60.57721316357231
 30
0.0
 11
-32.79873007780179
 21
-60.64979465253037
 31
0.0
  0
LINE
  5
239
330
1F
100
AcDbEntity
  8
0
100
AcDbLine
 10
-26.79225872349647
 20
-99.83285431185315
 30
0.0
 11
-27.25813296741091
 21
-99.77152080408044
 31
0.0
  0
LINE
  5
23A
330
1F
100
AcDbEntity
  8
0
100
AcDbLine
 10
-26.32638447958131
 20
-99.77152080408013
 30
0.0
 11
-26.79225872349647
 21
-99.83285431185315
 31
0.0
  0
LINE
  5
23B
330
1F
100
AcDbEntity
  8
0
100
AcDbLine
 10
-25.89225879549594
 20
-99.59170005795733
 30
0.0
 11
-26.32638447958131
 21
-99.77152080408013
 31
0.0
  0
LINE
  5
23C
330
1F
100
AcDbEntity
  8
0
100
AcDbLine
 10
-26.39890268270797
 20
-45.10828551962032
 30
0.0
 11
-25.93302843879335
 21
-45.16961902739327
 31
0.0
  0
LINE
  5
23D
330
1F
100
AcDbEntity
  8
0
100
AcDbLine
 10
81.97862342340645
 20
32.97191805528426
 30
0.0
 11
82.13754203329094
 21
33.17902481990237
 31
0.0
  0
LINE
  5
23E
330
1F
100
AcDbEntity
  8
0
100
AcDbLine
 10
82.13754203329094
 20
33.17902481990237
 30
0.0
 11
82.23744244780328
 21
33.42020575550548
 31
0.0
  0
LINE
  5
23F
330
1F
100
AcDbEntity
  8
0
100
AcDbLine
 10
82.27151661878852
 20
51.64748250423413
 30
0.0
 11
82.27151661878835
 21
33.67902477990214
 31
0.0
  0
LINE
  5
240
330
1F
100
AcDbEntity
  8
0
100
AcDbLine
 10
82.23744244780346
 20
51.90630152863119
 30
0.0
 11
82.27151661878852
 21
51.64748250423413
 31
0.0
  0
LINE
  5
241
330
1F
100
AcDbEntity
  8
0
100
AcDbLine
 10
81.97862342340608
 20
52.35458922885255
 30
0.0
 11
82.13754203329076
 21
52.1474824642341
 31
0.0
  0
LINE
  5
242
330
1F
100
AcDbEntity
  8
0
100
AcDbLine
 10
77.27151701878805
 20
52.64748242423453
 30
0.0
 11
81.27151669878789
 21
52.64748242423467
 31
0.0
  0
LINE
  5
243
330
1F
100
AcDbEntity
  8
0
100
AcDbLine
 10
-52.26722556482348
 20
85.01325295397358
 30
0.0
 11
-52.50840650042635
 21
84.913352539461
 31
0.0
  0
LINE
  5
244
330
1F
100
AcDbEntity
  8
0
100
AcDbLine
 10
65.51269891439138
 20
50.81309258677308
 30
0.0
 11
65.27151797878795
 21
50.9129930012861
 31
0.0
  0
LINE
  5
245
330
1F
100
AcDbEntity
  8
0
100
AcDbLine
 10
65.77151793878838
 20
50.77901841578805
 30
0.0
 11
65.51269891439138
 21
50.81309258677308
 31
0.0
  0
LINE
  5
246
330
1F
100
AcDbEntity
  8
0
100
AcDbLine
 10
65.77151793878838
 20
50.77901841578805
 30
0.0
 11
69.7715176187881
 21
50.77901841578827
 31
0.0
  0
LINE
  5
247
330
1F
100
AcDbEntity
  8
0
100
AcDbLine
 10
69.7715176187881
 20
50.77901841578827
 30
0.0
 11
69.77151761878791
 21
34.57902470790248
 31
0.0
  0
LINE
  5
248
330
1F
100
AcDbEntity
  8
0
100
AcDbLine
 10
69.77151761878791
 20
34.57902470790248
 30
0.0
 11
65.77151793878821
 21
34.57902470790234
 31
0.0
  0
LINE
  5
249
330
1F
100
AcDbEntity
  8
0
100
AcDbLine
 10
65.5126989143912
 20
34.54495053691718
 30
0.0
 11
65.77151793878821
 21
34.57902470790234
 31
0.0
  0
LINE
  5
24A
330
1F
100
AcDbEntity
  8
0
100
AcDbLine
 10
65.2715179787885
 20
34.44505012240469
 30
0.0
 11
65.5126989143912
 21
34.54495053691718
 31
0.0
  0
LINE
  5
24B
330
1F
100
AcDbEntity
  8
0
100
AcDbLine
 10
65.06441121416997
 20
34.28613151252031
 30
0.0
 11
65.2715179787885
 21
34.44505012240469
 31
0.0
  0
LINE
  5
24C
330
1F
100
AcDbEntity
  8
0
100
AcDbLine
 10
64.90549260428584
 20
34.07902474790222
 30
0.0
 11
65.06441121416997
 21
34.28613151252031
 31
0.0
  0
LINE
  5
24D
330
1F
100
AcDbEntity
  8
0
100
AcDbLine
 10
-52.50840650042635
 20
84.913352539461
 30
0.0
 11
-52.76722552482373
 21
84.87927836847581
 31
0.0
  0
LINE
  5
24E
330
1F
100
AcDbEntity
  8
0
100
AcDbLine
 10
8.804583193597477
 20
18.16740732249554
 30
0.0
 11
8.804583193597658
 21
38.93586482282755
 31
0.0
  0
LINE
  5
24F
330
1F
100
AcDbEntity
  8
0
100
AcDbLine
 10
8.804583193597658
 20
38.93586482282755
 30
0.0
 11
1.90458374559801
 21
38.93586482282723
 31
0.0
  0
LINE
  5
250
330
1F
100
AcDbEntity
  8
0
100
AcDbLine
 10
-36.49541318240307
 20
30.21840442940454
 30
0.0
 11
-36.49541318240288
 21
40.61840359740464
 31
0.0
  0
LINE
  5
251
330
1F
100
AcDbEntity
  8
0
100
AcDbLine
 10
-36.49541318240288
 20
40.61840359740464
 30
0.0
 11
-43.29541263840283
 21
40.61840359740454
 31
0.0
  0
LINE
  5
252
330
1F
100
AcDbEntity
  8
0
100
AcDbLine
 10
7.404583305597606
 20
5.794715698988808
 30
0.0
 11
7.777375481909838
 21
5.508662201197257
 31
0.0
  0
LINE
  5
253
330
1F
100
AcDbEntity
  8
0
100
AcDbLine
 10
6.970457621512065
 20
5.974536445111969
 30
0.0
 11
7.404583305597606
 21
5.794715698988808
 31
0.0
  0
LINE
  5
254
330
1F
100
AcDbEntity
  8
0
100
AcDbLine
 10
-66.37100094633635
 20
0.1810152632168478
 30
0.0
 11
-58.36722507682321
 21
0.1810152632170734
 31
0.0
  0
LINE
  5
255
330
1F
100
AcDbEntity
  8
0
100
AcDbLine
 10
-52.50840650042672
 20
5.413358899459853
 30
0.0
 11
-52.76722552482373
 21
5.379284728474872
 31
0.0
  0
LINE
  5
256
330
1F
100
AcDbEntity
  8
0
100
AcDbLine
 10
-52.26722556482348
 20
5.513259313972561
 30
0.0
 11
-52.50840650042672
 21
5.413358899459853
 31
0.0
  0
LINE
  5
257
330
1F
100
AcDbEntity
  8
0
100
AcDbLine
 10
-52.06011880020513
 20
5.672177923857046
 30
0.0
 11
-52.26722556482348
 21
5.513259313972561
 31
0.0
  0
LINE
  5
258
330
1F
100
AcDbEntity
  8
0
100
AcDbLine
 10
-51.90120019032101
 20
5.879284688475032
 30
0.0
 11
-52.06011880020513
 21
5.672177923857046
 31
0.0
  0
LINE
  5
259
330
1F
100
AcDbEntity
  8
0
100
AcDbLine
 10
-51.8012997758083
 20
6.120465624078225
 30
0.0
 11
-51.90120019032101
 21
5.879284688475032
 31
0.0
  0
LINE
  5
25A
330
1F
100
AcDbEntity
  8
0
100
AcDbLine
 10
-58.36722507682357
 20
30.87928268847533
 30
0.0
 11
-58.36722507682357
 21
15.37928392847546
 31
0.0
  0
LINE
  5
25B
330
1F
100
AcDbEntity
  8
0
100
AcDbLine
 10
-52.26722556482311
 20
31.01325727397288
 30
0.0
 11
-52.06011880020513
 21
31.17217588385696
 31
0.0
  0
LINE
  5
25C
330
1F
100
AcDbEntity
  8
0
100
AcDbLine
 10
-51.8012997758083
 20
31.62046358407801
 30
0.0
 11
-51.76722560482342
 21
31.87928260847515
 31
0.0
  0
LINE
  5
25D
330
1F
100
AcDbEntity
  8
0
100
AcDbLine
 10
-58.36722507682321
 20
84.8792783684759
 30
0.0
 11
-58.36722507682357
 21
40.87928188847497
 31
0.0
  0
LINE
  5
25E
330
1F
100
AcDbEntity
  8
0
100
AcDbLine
 10
-52.76722552482373
 20
84.87927836847581
 30
0.0
 11
-58.36722507682321
 21
84.8792783684759
 31
0.0
  0
LINE
  5
25F
330
1F
100
AcDbEntity
  8
0
100
AcDbLine
 10
-51.76722560482342
 20
85.87927828847572
 30
0.0
 11
-51.76722560482323
 21
93.87927764847598
 31
0.0
  0
LINE
  5
260
330
1F
100
AcDbEntity
  8
0
100
AcDbLine
 10
-51.8012997758083
 20
94.13809667287327
 30
0.0
 11
-51.76722560482323
 21
93.87927764847598
 31
0.0
  0
LINE
  5
261
330
1F
100
AcDbEntity
  8
0
100
AcDbLine
 10
-52.76722552482318
 20
94.87927756847598
 30
0.0
 11
-52.50840650042635
 21
94.84520339749115
 31
0.0
  0
LINE
  5
262
330
1F
100
AcDbEntity
  8
0
100
AcDbLine
 10
-52.76722552482318
 20
94.87927756847598
 30
0.0
 11
-58.36722507682357
 21
94.87927756847608
 31
0.0
  0
LINE
  5
263
330
1F
100
AcDbEntity
  8
0
100
AcDbLine
 10
-58.36722507682357
 20
102.8792769284763
 30
0.0
 11
-58.36722507682357
 21
94.87927756847608
 31
0.0
  0
LINE
  5
264
330
1F
100
AcDbEntity
  8
0
100
AcDbLine
 10
-58.36722507682357
 20
102.8792769284763
 30
0.0
 11
-63.36722467682342
 21
102.879276928476
 31
0.0
  0
LINE
  5
265
330
1F
100
AcDbEntity
  8
0
100
AcDbLine
 10
-63.36722467682342
 20
102.879276928476
 30
0.0
 11
-81.96722318882337
 21
48.87928124847523
 31
0.0
  0
LINE
  5
266
330
1F
100
AcDbEntity
  8
0
100
AcDbLine
 10
-81.96722318882372
 20
43.87928164847462
 30
0.0
 11
-81.96722318882337
 21
48.87928124847523
 31
0.0
  0
LINE
  5
267
330
1F
100
AcDbEntity
  8
0
100
AcDbLine
 10
-88.06722270082369
 20
37.41325676197178
 30
0.0
 11
-88.27432946544204
 21
37.57217537185591
 31
0.0
  0
LINE
  5
268
330
1F
100
AcDbEntity
  8
0
100
AcDbLine
 10
-87.82604176522099
 20
37.31335634745917
 30
0.0
 11
-88.06722270082369
 21
37.41325676197178
 31
0.0
  0
LINE
  5
269
330
1F
100
AcDbEntity
  8
0
100
AcDbLine
 10
-87.56722274082398
 20
37.2792821764745
 30
0.0
 11
-87.82604176522099
 21
37.31335634745917
 31
0.0
  0
LINE
  5
26A
330
1F
100
AcDbEntity
  8
0
100
AcDbLine
 10
-87.56722274082398
 20
37.2792821764745
 30
0.0
 11
-81.96722318882355
 21
37.27928217647441
 31
0.0
  0
LINE
  5
26B
330
1F
100
AcDbEntity
  8
0
100
AcDbLine
 10
-81.96722318882355
 20
37.27928217647441
 30
0.0
 11
-81.96722318882355
 21
31.99674618795657
 31
0.0
  0
LINE
  5
26C
330
1F
100
AcDbEntity
  8
0
100
AcDbLine
 10
-81.96722318882355
 20
31.99674618795657
 30
0.0
 11
-72.9672239088236
 21
31.99674618795643
 31
0.0
  0
LINE
  5
26D
330
1F
100
AcDbEntity
  8
0
100
AcDbLine
 10
-66.36722443682362
 20
37.7792821364752
 30
0.0
 11
-72.96722390882324
 21
37.77928213647503
 31
0.0
  0
LINE
  5
26E
330
1F
100
AcDbEntity
  8
0
100
AcDbLine
 10
-72.9672239088236
 20
14.27928401647475
 30
0.0
 11
-66.36722443682325
 21
14.2792840164748
 31
0.0
  0
LINE
  5
26F
330
1F
100
AcDbEntity
  8
0
100
AcDbLine
 10
-72.96722390882378
 20
16.99155922348827
 30
0.0
 11
-72.9672239088236
 21
14.27928401647475
 31
0.0
  0
LINE
  5
270
330
1F
100
AcDbEntity
  8
0
100
AcDbLine
 10
-88.43324807532633
 20
16.49155926348833
 30
0.0
 11
-88.27432946544168
 21
16.6986660281061
 31
0.0
  0
LINE
  5
271
330
1F
100
AcDbEntity
  8
0
100
AcDbLine
 10
-88.53314848983887
 20
4.820465728078378
 30
0.0
 11
-88.56722266082376
 21
5.079284752475434
 31
0.0
  0
LINE
  5
272
330
1F
100
AcDbEntity
  8
0
100
AcDbLine
 10
-88.43324807532633
 20
4.57928479247541
 30
0.0
 11
-88.53314848983887
 21
4.820465728078378
 31
0.0
  0
LINE
  5
273
330
1F
100
AcDbEntity
  8
0
100
AcDbLine
 10
-88.27432946544185
 20
4.372178027857288
 30
0.0
 11
-88.43324807532633
 21
4.57928479247541
 31
0.0
  0
LINE
  5
274
330
1F
100
AcDbEntity
  8
0
100
AcDbLine
 10
-81.96722318882355
 20
4.079284832475294
 30
0.0
 11
-87.5672227408238
 21
4.079284832475294
 31
0.0
  0
LINE
  5
275
330
1F
100
AcDbEntity
  8
0
100
AcDbLine
 10
-81.96722318882318
 20
0.1810152632172538
 30
0.0
 11
-72.97100254281645
 21
0.181015263216938
 31
0.0
  0
LINE
  5
276
330
1F
100
AcDbEntity
  8
0
100
AcDbLine
 10
-72.97100254281645
 20
0.181015263216938
 30
0.0
 11
-72.9672239088236
 21
4.984476637834345
 31
0.0
  0
LINE
  5
277
330
1F
100
AcDbEntity
  8
0
100
AcDbLine
 10
-72.9672239088236
 20
4.984476637834345
 30
0.0
 11
-66.36722443682362
 21
4.97928476047514
 31
0.0
  0
LINE
  5
278
330
1F
100
AcDbEntity
  8
0
100
AcDbLine
 10
-66.36722443682362
 20
4.97928476047514
 30
0.0
 11
-66.37100094633635
 21
0.1810152632168478
 31
0.0
  0
LINE
  5
279
330
1F
100
AcDbEntity
  8
0
100
AcDbLine
 10
-77.93309779273831
 20
46.61794791670268
 30
0.0
 11
-77.4672235488235
 21
46.67928142447563
 31
0.0
  0
LINE
  5
27A
330
1F
100
AcDbEntity
  8
0
100
AcDbLine
 10
-77.4672235488235
 20
46.67928142447563
 30
0.0
 11
-77.00134930490889
 21
46.61794791670277
 31
0.0
  0
LINE
  5
27B
330
1F
100
AcDbEntity
  8
0
100
AcDbLine
 10
-77.00134930490889
 20
46.61794791670277
 30
0.0
 11
-76.56722362082334
 21
46.43812717058001
 31
0.0
  0
LINE
  5
27C
330
1F
100
AcDbEntity
  8
0
100
AcDbLine
 10
-75.90837794671947
 20
45.77928149647583
 30
0.0
 11
-75.72855720059631
 21
45.34515581239042
 31
0.0
  0
LINE
  5
27D
330
1F
100
AcDbEntity
  8
0
100
AcDbLine
 10
-75.72855720059631
 20
45.34515581239042
 30
0.0
 11
-75.66722369282355
 21
44.8792815684758
 31
0.0
  0
LINE
  5
27E
330
1F
100
AcDbEntity
  8
0
100
AcDbLine
 10
-75.66722369282355
 20
44.8792815684758
 30
0.0
 11
-75.72855720059631
 21
44.41340732456108
 31
0.0
  0
LINE
  5
27F
330
1F
100
AcDbEntity
  8
0
100
AcDbLine
 10
-75.72855720059631
 20
44.41340732456108
 30
0.0
 11
-75.90837794671911
 21
43.97928164047568
 31
0.0
  0
LINE
  5
280
330
1F
100
AcDbEntity
  8
0
100
AcDbLine
 10
-77.00134930490889
 20
43.14061522024896
 30
0.0
 11
-77.4672235488235
 21
43.07928171247547
 31
0.0
  0
LINE
  5
281
330
1F
100
AcDbEntity
  8
0
100
AcDbLine
 10
-77.93309779273812
 20
43.14061522024861
 30
0.0
 11
-78.36722347682367
 21
43.32043596637114
 31
0.0
  0
LINE
  5
282
330
1F
100
AcDbEntity
  8
0
100
AcDbLine
 10
-79.20588989705088
 20
44.41340732456127
 30
0.0
 11
-79.26722340482365
 21
44.87928156847571
 31
0.0
  0
LINE
  5
283
330
1F
100
AcDbEntity
  8
0
100
AcDbLine
 10
-79.20588989705088
 20
45.34515581239047
 30
0.0
 11
-79.0260691509279
 21
45.77928149647565
 31
0.0
  0
LINE
  5
284
330
1F
100
AcDbEntity
  8
0
100
AcDbLine
 10
-79.0260691509279
 20
45.77928149647565
 30
0.0
 11
-78.74001565313627
 21
46.15207367278851
 31
0.0
  0
LINE
  5
285
330
1F
100
AcDbEntity
  8
0
100
AcDbLine
 10
-78.36722347682348
 20
46.43812717058037
 30
0.0
 11
-77.93309779273831
 21
46.61794791670268
 31
0.0
  0
LINE
  5
286
330
1F
100
AcDbEntity
  8
0
100
AcDbLine
 10
-72.96722390882378
 20
6.898671984447912
 30
0.0
 11
-72.96722390882341
 21
12.09482399146235
 31
0.0
  0
LINE
  5
287
330
1F
100
AcDbEntity
  8
0
100
AcDbLine
 10
-77.4672235488235
 20
4.300595980940691
 30
0.0
 11
-72.96722390882378
 21
6.898671984447912
 31
0.0
  0
LINE
  5
288
330
1F
100
AcDbEntity
  8
0
100
AcDbLine
 10
-81.96722318882391
 20
6.898671984448227
 30
0.0
 11
-77.4672235488235
 21
4.300595980940691
 31
0.0
  0
LINE
  5
289
330
1F
100
AcDbEntity
  8
0
100
AcDbLine
 10
-81.96722318882372
 20
12.09482399146244
 30
0.0
 11
-81.96722318882391
 21
6.898671984448227
 31
0.0
  0
LINE
  5
28A
330
1F
100
AcDbEntity
  8
0
100
AcDbLine
 10
-77.46722354882368
 20
14.69289999496984
 30
0.0
 11
-81.96722318882372
 21
12.09482399146244
 31
0.0
  0
LINE
  5
28B
330
1F
100
AcDbEntity
  8
0
100
AcDbLine
 10
-72.96722390882341
 20
12.09482399146235
 30
0.0
 11
-77.46722354882368
 21
14.69289999496984
 31
0.0
  0
LINE
  5
28C
330
1F
100
AcDbEntity
  8
0
100
AcDbLine
 10
65.51269891439101
 20
27.71309943088762
 30
0.0
 11
65.27151797878831
 21
27.81299984539984
 31
0.0
  0
LINE
  5
28D
330
1F
100
AcDbEntity
  8
0
100
AcDbLine
 10
65.77151793878802
 20
27.67902525990238
 30
0.0
 11
65.51269891439101
 21
27.71309943088762
 31
0.0
  0
LINE
  5
28E
330
1F
100
AcDbEntity
  8
0
100
AcDbLine
 10
8.05994028739642
 20
-47.80828530362049
 30
0.0
 11
7.77388678960469
 21
-48.1810774799325
 31
0.0
  0
LINE
  5
28F
330
1F
100
AcDbEntity
  8
0
100
AcDbLine
 10
8.239761033519132
 20
-47.37415961953518
 30
0.0
 11
8.05994028739642
 21
-47.80828530362049
 31
0.0
  0
LINE
  5
290
330
1F
100
AcDbEntity
  8
0
100
AcDbLine
 10
8.30109454129217
 20
-46.90828537562029
 30
0.0
 11
8.239761033519132
 21
-47.37415961953518
 31
0.0
  0
LINE
  5
291
330
1F
100
AcDbEntity
  8
0
100
AcDbLine
 10
8.239761033519132
 20
-46.44241113170575
 30
0.0
 11
8.30109454129217
 21
-46.90828537562029
 31
0.0
  0
LINE
  5
292
330
1F
100
AcDbEntity
  8
0
100
AcDbLine
 10
8.05994028739642
 20
-46.00828544761972
 30
0.0
 11
8.239761033519132
 21
-46.44241113170575
 31
0.0
  0
LINE
  5
293
330
1F
100
AcDbEntity
  8
0
100
AcDbLine
 10
-24.99225886749596
 20
-98.03285445585315
 30
0.0
 11
-25.05359237526927
 21
-98.4987286997681
 31
0.0
  0
LINE
  5
294
330
1F
100
AcDbEntity
  8
0
100
AcDbLine
 10
-25.05359237526909
 20
-97.56698021193877
 30
0.0
 11
-24.99225886749596
 21
-98.03285445585315
 31
0.0
  0
LINE
  5
295
330
1F
100
AcDbEntity
  8
0
100
AcDbLine
 10
-25.23341312139153
 20
-97.13285452785323
 30
0.0
 11
-25.05359237526909
 21
-97.56698021193877
 31
0.0
  0
LINE
  5
296
330
1F
100
AcDbEntity
  8
0
100
AcDbLine
 10
-25.51946661918353
 20
-96.76006235154081
 30
0.0
 11
-25.23341312139153
 21
-97.13285452785323
 31
0.0
  0
LINE
  5
297
330
1F
100
AcDbEntity
  8
0
100
AcDbLine
 10
-25.89225879549559
 20
-96.47400885374904
 30
0.0
 11
-25.51946661918353
 21
-96.76006235154081
 31
0.0
  0
LINE
  5
298
330
1F
100
AcDbEntity
  8
0
100
AcDbLine
 10
-26.32638447958149
 20
-96.29418810762641
 30
0.0
 11
-25.89225879549559
 21
-96.47400885374904
 31
0.0
  0
LINE
  5
299
330
1F
100
AcDbEntity
  8
0
100
AcDbLine
 10
-26.79225872349611
 20
-96.23285459985324
 30
0.0
 11
-26.32638447958149
 21
-96.29418810762641
 31
0.0
  0
LINE
  5
29A
330
1F
100
AcDbEntity
  8
0
100
AcDbLine
 10
-27.25813296741073
 20
-96.2941881076261
 30
0.0
 11
-26.79225872349611
 21
-96.23285459985324
 31
0.0
  0
LINE
  5
29B
330
1F
100
AcDbEntity
  8
0
100
AcDbLine
 10
-27.69225865149609
 20
-96.47400885374871
 30
0.0
 11
-27.25813296741073
 21
-96.2941881076261
 31
0.0
  0
LINE
  5
29C
330
1F
100
AcDbEntity
  8
0
100
AcDbLine
 10
-28.06505082780832
 20
-96.7600623515409
 30
0.0
 11
-27.69225865149609
 21
-96.47400885374871
 31
0.0
  0
LINE
  5
29D
330
1F
100
AcDbEntity
  8
0
100
AcDbLine
 10
-28.35110432560068
 20
-97.13285452785313
 30
0.0
 11
-28.06505082780832
 21
-96.7600623515409
 31
0.0
  0
LINE
  5
29E
330
1F
100
AcDbEntity
  8
0
100
AcDbLine
 10
-28.53092507172294
 20
-97.5669802119389
 30
0.0
 11
-28.35110432560068
 21
-97.13285452785313
 31
0.0
  0
LINE
  5
29F
330
1F
100
AcDbEntity
  8
0
100
AcDbLine
 10
-28.59225857949607
 20
-98.03285445585338
 30
0.0
 11
-28.53092507172294
 21
-97.5669802119389
 31
0.0
  0
LINE
  5
2A0
330
1F
100
AcDbEntity
  8
0
100
AcDbLine
 10
13.45900512264452
 20
-60.09398663871028
 30
0.0
 11
13.09278121950918
 21
-60.38840243837324
 31
0.0
  0
LINE
  5
2A1
330
1F
100
AcDbEntity
  8
0
100
AcDbLine
 10
31.93422317199657
 20
71.87578202798247
 30
0.0
 11
31.96829734298209
 21
72.1346010523794
 31
0.0
  0
LINE
  5
2A2
330
1F
100
AcDbEntity
  8
0
100
AcDbLine
 10
32.06819775749462
 20
72.37578198798245
 30
0.0
 11
32.22711636737874
 21
72.58288875260038
 31
0.0
  0
LINE
  5
2A3
330
1F
100
AcDbEntity
  8
0
100
AcDbLine
 10
32.22711636737874
 20
72.58288875260038
 30
0.0
 11
32.43422313199682
 21
72.74180736248456
 31
0.0
  0
LINE
  5
2A4
330
1F
100
AcDbEntity
  8
0
100
AcDbLine
 10
32.43422313199682
 20
72.74180736248456
 30
0.0
 11
32.67540406759988
 21
72.84170777699727
 31
0.0
  0
LINE
  5
2A5
330
1F
100
AcDbEntity
  8
0
100
AcDbLine
 10
-25.49541406240275
 20
5.79471569898917
 30
0.0
 11
-25.12262188609034
 21
5.508662201197168
 31
0.0
  0
LINE
  5
2A6
330
1F
100
AcDbEntity
  8
0
100
AcDbLine
 10
-26.39541399040291
 20
6.035869952885278
 30
0.0
 11
-25.92953974648811
 21
5.974536445111789
 31
0.0
  0
LINE
  5
2A7
330
1F
100
AcDbEntity
  8
0
100
AcDbLine
 10
-26.86128823431699
 20
5.974536445111789
 30
0.0
 11
-26.39541399040291
 21
6.035869952885278
 31
0.0
  0
LINE
  5
2A8
330
1F
100
AcDbEntity
  8
0
100
AcDbLine
 10
-25.49541406240293
 20
2.677024494780468
 30
0.0
 11
-25.92953974648829
 21
2.497203748658029
 31
0.0
  0
LINE
  5
2A9
330
1F
100
AcDbEntity
  8
0
100
AcDbLine
 10
-24.00977353517994
 20
62.86213644953616
 30
0.0
 11
-24.26404331099479
 21
63.19350727292479
 31
0.0
  0
LINE
  5
2AA
330
1F
100
AcDbEntity
  8
0
100
AcDbLine
 10
-24.59541413440277
 20
4.235870096885135
 30
0.0
 11
-24.65674764217535
 21
3.769995852970242
 31
0.0
  0
LINE
  5
2AB
330
1F
100
AcDbEntity
  8
0
100
AcDbLine
 10
-24.65674764217554
 20
4.701744340799396
 30
0.0
 11
-24.59541413440277
 21
4.235870096885135
 31
0.0
  0
LINE
  5
2AC
330
1F
100
AcDbEntity
  8
0
100
AcDbLine
 10
-25.12262188609034
 20
5.508662201197168
 30
0.0
 11
-24.83656838829815
 21
5.135870024884755
 31
0.0
  0
LINE
  5
2AD
330
1F
100
AcDbEntity
  8
0
100
AcDbLine
 10
-32.48528894439617
 20
41.61884525235246
 30
0.0
 11
-32.94969013629245
 21
41.69048423115625
 31
0.0
  0
LINE
  5
2AE
330
1F
100
AcDbEntity
  8
0
100
AcDbLine
 10
-26.19541400638347
 20
85.47649399433271
 30
0.0
 11
-25.80952450941868
 21
85.3166533311127
 31
0.0
  0
LINE
  5
2AF
330
1F
100
AcDbEntity
  8
0
100
AcDbLine
 10
-25.80952450941868
 20
85.3166533311127
 30
0.0
 11
-25.39541407038364
 21
85.26213465753682
 31
0.0
  0
LINE
  5
2B0
330
1F
100
AcDbEntity
  8
0
100
AcDbLine
 10
6.504583377597535
 20
6.035869952884737
 30
0.0
 11
6.970457621512065
 21
5.974536445111969
 31
0.0
  0
LINE
  5
2B1
330
1F
100
AcDbEntity
  8
0
100
AcDbLine
 10
16.6010938772925
 20
-2.725752499100007
 30
0.0
 11
-36.49890187470777
 21
-2.725752499099962
 31
0.0
  0
LINE
  5
2B2
330
1F
100
AcDbEntity
  8
0
100
AcDbLine
 10
16.60109387729223
 20
-46.82432606730679
 30
0.0
 11
16.60109387729232
 21
-37.32574973110143
 31
0.0
  0
LINE
  5
2B3
330
1F
100
AcDbEntity
  8
0
100
AcDbLine
 10
7.401094613291828
 20
-45.34943977351571
 30
0.0
 11
7.77388678960478
 21
-45.63549327130799
 31
0.0
  0
LINE
  5
2B4
330
1F
100
AcDbEntity
  8
0
100
AcDbLine
 10
7.77388678960478
 20
-45.63549327130799
 30
0.0
 11
8.05994028739642
 21
-46.00828544761972
 31
0.0
  0
LINE
  5
2B5
330
1F
100
AcDbEntity
  8
0
100
AcDbLine
 10
-28.69890249870764
 20
-7.508291025676767
 30
0.0
 11
-21.79890305070808
 21
-7.508291025676677
 31
0.0
  0
LINE
  5
2B6
330
1F
100
AcDbEntity
  8
0
100
AcDbLine
 10
-36.49890187470795
 20
-46.82574897110032
 30
0.0
 11
-36.49890187470813
 21
-37.32574973110066
 31
0.0
  0
LINE
  5
2B7
330
1F
100
AcDbEntity
  8
0
100
AcDbLine
 10
-36.49890187470777
 20
-2.725752499099962
 30
0.0
 11
-36.49890187470777
 21
-14.02575159509999
 31
0.0
  0
LINE
  5
2B8
330
1F
100
AcDbEntity
  8
0
100
AcDbLine
 10
16.60109387729241
 20
-14.02575159510044
 30
0.0
 11
21.60109347729257
 21
-14.02575159510026
 31
0.0
  0
LINE
  5
2B9
330
1F
100
AcDbEntity
  8
0
100
AcDbLine
 10
65.27151797878795
 20
50.9129930012861
 30
0.0
 11
65.06441121417033
 21
51.07191161117063
 31
0.0
  0
LINE
  5
2BA
330
1F
100
AcDbEntity
  8
0
100
AcDbLine
 10
65.06441121417033
 20
51.07191161117063
 30
0.0
 11
64.90549260428584
 21
51.27901837578839
 31
0.0
  0
LINE
  5
2BB
330
1F
100
AcDbEntity
  8
0
100
AcDbLine
 10
64.90549260428584
 20
51.27901837578839
 30
0.0
 11
64.8055921897735
 21
51.52019931139127
 31
0.0
  0
LINE
  5
2BC
330
1F
100
AcDbEntity
  8
0
100
AcDbLine
 10
64.8055921897735
 20
51.52019931139127
 30
0.0
 11
64.77151801878824
 21
51.77901833578828
 31
0.0
  0
LINE
  5
2BD
330
1F
100
AcDbEntity
  8
0
100
AcDbLine
 10
64.77151801878806
 20
56.64748210423456
 30
0.0
 11
64.77151801878824
 21
51.77901833578828
 31
0.0
  0
LINE
  5
2BE
330
1F
100
AcDbEntity
  8
0
100
AcDbLine
 10
64.77151801878806
 20
56.64748210423456
 30
0.0
 11
64.80559218977332
 21
56.90630112863134
 31
0.0
  0
LINE
  5
2BF
330
1F
100
AcDbEntity
  8
0
100
AcDbLine
 10
65.51269891439138
 20
57.61340785324931
 30
0.0
 11
65.77151793878838
 21
57.64748202423456
 31
0.0
  0
LINE
  5
2C0
330
1F
100
AcDbEntity
  8
0
100
AcDbLine
 10
77.27151701878805
 20
57.64748202423447
 30
0.0
 11
65.77151793878838
 21
57.64748202423456
 31
0.0
  0
LINE
  5
2C1
330
1F
100
AcDbEntity
  8
0
100
AcDbLine
 10
77.27151701878805
 20
57.64748202423447
 30
0.0
 11
77.27151701878805
 21
52.64748242423453
 31
0.0
  0
LINE
  5
2C2
330
1F
100
AcDbEntity
  8
0
100
AcDbLine
 10
12.59445833159811
 20
41.61884525235237
 30
0.0
 11
12.12733969449983
 21
41.66984318558585
 31
0.0
  0
LINE
  5
2C3
330
1F
100
AcDbEntity
  8
0
100
AcDbLine
 10
13.05885952349421
 20
41.6904842311585
 30
0.0
 11
12.59445833159811
 21
41.61884525235237
 31
0.0
  0
LINE
  5
2C4
330
1F
100
AcDbEntity
  8
0
100
AcDbLine
 10
13.48889509641952
 20
41.87987804398707
 30
0.0
 11
13.05885952349421
 21
41.6904842311585
 31
0.0
  0
LINE
  5
2C5
330
1F
100
AcDbEntity
  8
0
100
AcDbLine
 10
-26.94089526880735
 20
86.44802409050102
 30
0.0
 11
-26.78105460558735
 21
86.06213459353619
 31
0.0
  0
LINE
  5
2C6
330
1F
100
AcDbEntity
  8
0
100
AcDbLine
 10
-26.78105460558735
 20
86.06213459353619
 30
0.0
 11
-26.52678482977232
 21
85.73076377014793
 31
0.0
  0
LINE
  5
2C7
330
1F
100
AcDbEntity
  8
0
100
AcDbLine
 10
-26.52678482977232
 20
85.73076377014793
 30
0.0
 11
-26.19541400638347
 21
85.47649399433271
 31
0.0
  0
LINE
  5
2C8
330
1F
100
AcDbEntity
  8
0
100
AcDbLine
 10
-24.59541413438346
 20
63.44777704873987
 30
0.0
 11
-24.98130363134824
 21
63.60761771195987
 31
0.0
  0
LINE
  5
2C9
330
1F
100
AcDbEntity
  8
0
100
AcDbLine
 10
3.094964707152647
 20
63.86213636953622
 30
0.0
 11
4.593470924841445
 21
67.47985040358132
 31
0.0
  0
LINE
  5
2CA
330
1F
100
AcDbEntity
  8
0
100
AcDbLine
 10
6.018693888651903
 20
54.31665581111215
 30
0.0
 11
6.404583385616507
 21
54.47649647433202
 31
0.0
  0
LINE
  5
2CB
330
1F
100
AcDbEntity
  8
0
100
AcDbLine
 10
-30.71749436415448
 20
42.9141267435144
 30
0.0
 11
-30.90688817698161
 21
42.48409117058854
 31
0.0
  0
LINE
  5
2CC
330
1F
100
AcDbEntity
  8
0
100
AcDbLine
 10
-30.64585538535002
 20
43.37852793541059
 30
0.0
 11
-30.71749436415448
 21
42.9141267435144
 31
0.0
  0
LINE
  5
2CD
330
1F
100
AcDbEntity
  8
0
100
AcDbLine
 10
-30.69685331858494
 20
43.84564657250878
 30
0.0
 11
-30.64585538535002
 21
43.37852793541059
 31
0.0
  0
LINE
  5
2CE
330
1F
100
AcDbEntity
  8
0
100
AcDbLine
 10
7.777375481909929
 20
2.96307799257238
 30
0.0
 11
7.404583305597245
 21
2.677024494780739
 31
0.0
  0
LINE
  5
2CF
330
1F
100
AcDbEntity
  8
0
100
AcDbLine
 10
8.06342897970184
 20
3.335870168884702
 30
0.0
 11
7.777375481909929
 21
2.96307799257238
 31
0.0
  0
LINE
  5
2D0
330
1F
100
AcDbEntity
  8
0
100
AcDbLine
 10
7.150064648040577
 20
55.44802657050101
 30
0.0
 11
7.204583321616782
 21
55.86213700953609
 31
0.0
  0
LINE
  5
2D1
330
1F
100
AcDbEntity
  8
0
100
AcDbLine
 10
7.204583321616511
 20
62.06213651353593
 30
0.0
 11
7.204583321616782
 21
55.86213700953609
 31
0.0
  0
LINE
  5
2D2
330
1F
100
AcDbEntity
  8
0
100
AcDbLine
 10
7.204583321616511
 20
62.06213651353593
 30
0.0
 11
7.150064648040397
 21
62.47624695257152
 31
0.0
  0
LINE
  5
2D3
330
1F
100
AcDbEntity
  8
0
100
AcDbLine
 10
7.150064648040397
 20
62.47624695257152
 30
0.0
 11
6.990223984819939
 21
62.86213644953634
 31
0.0
  0
LINE
  5
2D4
330
1F
100
AcDbEntity
  8
0
100
AcDbLine
 10
6.990223984819939
 20
62.86213644953634
 30
0.0
 11
6.735954209005358
 21
63.1935072729252
 31
0.0
  0
LINE
  5
2D5
330
1F
100
AcDbEntity
  8
0
100
AcDbLine
 10
6.735954209005358
 20
63.1935072729252
 30
0.0
 11
6.404583385616056
 21
63.44777704874006
 31
0.0
  0
LINE
  5
2D6
330
1F
100
AcDbEntity
  8
0
100
AcDbLine
 10
6.404583385616056
 20
63.44777704874006
 30
0.0
 11
6.018693888651362
 21
63.60761771196023
 31
0.0
  0
LINE
  5
2D7
330
1F
100
AcDbEntity
  8
0
100
AcDbLine
 10
6.018693888651362
 20
63.60761771196023
 30
0.0
 11
5.604583449616413
 21
63.66213638553609
 31
0.0
  0
LINE
  5
2D8
330
1F
100
AcDbEntity
  8
0
100
AcDbLine
 10
32.93422309199671
 20
8.875787067981728
 30
0.0
 11
38.53422264399673
 21
8.875787067981502
 31
0.0
  0
LINE
  5
2D9
330
1F
100
AcDbEntity
  8
0
100
AcDbLine
 10
32.93422309199671
 20
8.875787067981728
 30
0.0
 11
32.67540406759996
 21
8.909861238966394
 31
0.0
  0
LINE
  5
2DA
330
1F
100
AcDbEntity
  8
0
100
AcDbLine
 10
32.67540406759996
 20
8.909861238966394
 30
0.0
 11
32.43422313199673
 21
9.009761653479371
 31
0.0
  0
LINE
  5
2DB
330
1F
100
AcDbEntity
  8
0
100
AcDbLine
 10
32.43422313199673
 20
9.009761653479371
 30
0.0
 11
32.22711636737928
 21
9.168680263363315
 31
0.0
  0
LINE
  5
2DC
330
1F
100
AcDbEntity
  8
0
100
AcDbLine
 10
6.966968929206828
 20
-45.16961902739354
 30
0.0
 11
7.401094613291828
 21
-45.34943977351571
 31
0.0
  0
LINE
  5
2DD
330
1F
100
AcDbEntity
  8
0
100
AcDbLine
 10
-25.93302843879317
 20
-48.64695172384753
 30
0.0
 11
-26.39890268270779
 21
-48.70828523162034
 31
0.0
  0
LINE
  5
2DE
330
1F
100
AcDbEntity
  8
0
100
AcDbLine
 10
-80.06529955233094
 20
10.99674786795521
 30
0.0
 11
-80.36500079586853
 21
10.27320506114599
 31
0.0
  0
LINE
  5
2DF
330
1F
100
AcDbEntity
  8
0
100
AcDbLine
 10
4.548893042400937
 20
-97.13285452785385
 30
0.0
 11
4.834946540192939
 21
-96.76006235154135
 31
0.0
  0
LINE
  5
2E0
330
1F
100
AcDbEntity
  8
0
100
AcDbLine
 10
4.369072296278226
 20
-97.566980211939
 30
0.0
 11
4.548893042400937
 21
-97.13285452785385
 31
0.0
  0
LINE
  5
2E1
330
1F
100
AcDbEntity
  8
0
100
AcDbLine
 10
4.307738788505188
 20
-98.03285445585384
 30
0.0
 11
4.369072296278226
 21
-97.566980211939
 31
0.0
  0
LINE
  5
2E2
330
1F
100
AcDbEntity
  8
0
100
AcDbLine
 10
4.369072296278226
 20
-98.49872869976836
 30
0.0
 11
4.307738788505188
 21
-98.03285445585384
 31
0.0
  0
LINE
  5
2E3
330
1F
100
AcDbEntity
  8
0
100
AcDbLine
 10
4.548893042400846
 20
-98.93285438385364
 30
0.0
 11
4.369072296278226
 21
-98.49872869976836
 31
0.0
  0
LINE
  5
2E4
330
1F
100
AcDbEntity
  8
0
100
AcDbLine
 10
4.834946540192758
 20
-99.30564656016627
 30
0.0
 11
4.548893042400846
 21
-98.93285438385364
 31
0.0
  0
LINE
  5
2E5
330
1F
100
AcDbEntity
  8
0
100
AcDbLine
 10
5.207738716505441
 20
-99.59170005795823
 30
0.0
 11
4.834946540192758
 21
-99.30564656016627
 31
0.0
  0
LINE
  5
2E6
330
1F
100
AcDbEntity
  8
0
100
AcDbLine
 10
-74.86914754531624
 20
7.996748107954832
 30
0.0
 11
-74.56944630177865
 21
8.720290914764277
 31
0.0
  0
LINE
  5
2E7
330
1F
100
AcDbEntity
  8
0
100
AcDbLine
 10
-30.64950336014257
 20
-7.679240795421297
 30
0.0
 11
-30.69877837753859
 21
-8.146544318818503
 31
0.0
  0
LINE
  5
2E8
330
1F
100
AcDbEntity
  8
0
100
AcDbLine
 10
-30.91383274480968
 20
-6.785772709268236
 30
0.0
 11
-30.72285439994766
 21
-7.215106940506316
 31
0.0
  0
LINE
  5
2E9
330
1F
100
AcDbEntity
  8
0
100
AcDbLine
 10
-41.99890143470836
 20
-14.159726180598
 30
0.0
 11
-42.20600819932689
 21
-14.31864479048203
 31
0.0
  0
LINE
  5
2EA
330
1F
100
AcDbEntity
  8
0
100
AcDbLine
 10
-42.20600819932689
 20
-14.31864479048203
 30
0.0
 11
-42.36492680921119
 21
-14.52575155510006
 31
0.0
  0
LINE
  5
2EB
330
1F
100
AcDbEntity
  8
0
100
AcDbLine
 10
7.846404992732347
 20
-97.56698021193935
 30
0.0
 11
7.907738500505386
 21
-98.03285445585348
 31
0.0
  0
LINE
  5
2EC
330
1F
100
AcDbEntity
  8
0
100
AcDbLine
 10
7.666584246609817
 20
-97.13285452785368
 30
0.0
 11
7.846404992732347
 21
-97.56698021193935
 31
0.0
  0
LINE
  5
2ED
330
1F
100
AcDbEntity
  8
0
100
AcDbLine
 10
7.380530748817906
 20
-96.76006235154135
 30
0.0
 11
7.666584246609817
 21
-97.13285452785368
 31
0.0
  0
LINE
  5
2EE
330
1F
100
AcDbEntity
  8
0
100
AcDbLine
 10
7.007738572505313
 20
-96.47400885374917
 30
0.0
 11
7.380530748817906
 21
-96.76006235154135
 31
0.0
  0
LINE
  5
2EF
330
1F
100
AcDbEntity
  8
0
100
AcDbLine
 10
6.573612888419772
 20
-96.29418810762677
 30
0.0
 11
7.007738572505313
 21
-96.47400885374917
 31
0.0
  0
LINE
  5
2F0
330
1F
100
AcDbEntity
  8
0
100
AcDbLine
 10
6.10773864450506
 20
-96.23285459985351
 30
0.0
 11
6.573612888419772
 21
-96.29418810762677
 31
0.0
  0
LINE
  5
2F1
330
1F
100
AcDbEntity
  8
0
100
AcDbLine
 10
5.64186440059071
 20
-96.29418810762664
 30
0.0
 11
6.10773864450506
 21
-96.23285459985351
 31
0.0
  0
LINE
  5
2F2
330
1F
100
AcDbEntity
  8
0
100
AcDbLine
 10
6.035220441377494
 20
-45.1696190273934
 30
0.0
 11
6.501094685292116
 21
-45.10828551962042
 31
0.0
  0
LINE
  5
2F3
330
1F
100
AcDbEntity
  8
0
100
AcDbLine
 10
-25.49890275470799
 20
-45.34943977351607
 30
0.0
 11
-25.12611057839576
 21
-45.63549327130803
 31
0.0
  0
LINE
  5
2F4
330
1F
100
AcDbEntity
  8
0
100
AcDbLine
 10
6.966968929206648
 20
-48.64695172384712
 30
0.0
 11
6.501094685291935
 21
-48.70828523162034
 31
0.0
  0
LINE
  5
2F5
330
1F
100
AcDbEntity
  8
0
100
AcDbLine
 10
30.00458149759785
 20
-0.2798630118536688
 30
0.0
 11
30.00458149759775
 21
102.0183986854051
 31
0.0
  0
LINE
  5
2F6
330
1F
100
AcDbEntity
  8
0
100
AcDbLine
 10
30.00458149759775
 20
102.0183986854051
 30
0.0
 11
-49.89541211040277
 21
102.018398685405
 31
0.0
  0
LINE
  5
2F7
330
1F
100
AcDbEntity
  8
0
100
AcDbLine
 10
-49.89541211040277
 20
102.018398685405
 30
0.0
 11
-49.89541211040295
 21
-0.2798630118533981
 31
0.0
  0
LINE
  5
2F8
330
1F
100
AcDbEntity
  8
0
100
AcDbLine
 10
-49.89541211040295
 20
-0.2798630118533981
 30
0.0
 11
30.00458149759785
 21
-0.2798630118536688
 31
0.0
  0
LINE
  5
2F9
330
1F
100
AcDbEntity
  8
0
100
AcDbLine
 10
-28.69541380640294
 20
18.16740732249604
 30
0.0
 11
-28.69541380640204
 21
38.93586482282755
 31
0.0
  0
LINE
  5
2FA
330
1F
100
AcDbEntity
  8
0
100
AcDbLine
 10
-21.79541435840235
 20
38.93586482282782
 30
0.0
 11
-28.69541380640204
 21
38.93586482282755
 31
0.0
  0
LINE
  5
2FB
330
1F
100
AcDbEntity
  8
0
100
AcDbLine
 10
-21.79541435840262
 20
18.16740732249604
 30
0.0
 11
-21.79541435840235
 21
38.93586482282782
 31
0.0
  0
LINE
  5
2FC
330
1F
100
AcDbEntity
  8
0
100
AcDbLine
 10
-28.69541380640294
 20
18.16740732249604
 30
0.0
 11
-21.79541435840262
 21
18.16740732249604
 31
0.0
  0
LINE
  5
2FD
330
1F
100
AcDbEntity
  8
0
100
AcDbLine
 10
1.904583745597288
 20
18.16740732249554
 30
0.0
 11
1.90458374559801
 21
38.93586482282723
 31
0.0
  0
LINE
  5
2FE
330
1F
100
AcDbEntity
  8
0
100
AcDbLine
 10
1.904583745597288
 20
18.16740732249554
 30
0.0
 11
8.804583193597477
 21
18.16740732249554
 31
0.0
  0
LINE
  5
2FF
330
1F
100
AcDbEntity
  8
0
100
AcDbLine
 10
16.60458256959783
 20
30.21840442940477
 30
0.0
 11
23.40458202559759
 21
30.2184044294049
 31
0.0
  0
LINE
  5
300
330
1F
100
AcDbEntity
  8
0
100
AcDbLine
 10
16.60458256959765
 20
40.61840359740464
 30
0.0
 11
16.60458256959783
 21
30.21840442940477
 31
0.0
  0
LINE
  5
301
330
1F
100
AcDbEntity
  8
0
100
AcDbLine
 10
-43.29541263840283
 20
15.11840563740476
 30
0.0
 11
-36.49541318240253
 21
15.11840563740431
 31
0.0
  0
LINE
  5
302
330
1F
100
AcDbEntity
  8
0
100
AcDbLine
 10
-36.49541318240253
 20
4.718406469404083
 30
0.0
 11
-36.49541318240253
 21
15.11840563740431
 31
0.0
  0
LINE
  5
303
330
1F
100
AcDbEntity
  8
0
100
AcDbLine
 10
-43.29541263840283
 20
4.718406469404038
 30
0.0
 11
-36.49541318240253
 21
4.718406469404083
 31
0.0
  0
LINE
  5
304
330
1F
100
AcDbEntity
  8
0
100
AcDbLine
 10
-43.29541263840283
 20
15.11840563740476
 30
0.0
 11
-43.29541263840283
 21
4.718406469404038
 31
0.0
  0
LINE
  5
305
330
1F
100
AcDbEntity
  8
0
100
AcDbLine
 10
23.40458202559768
 20
4.718406469404083
 30
0.0
 11
23.40458202559786
 21
15.11840563740449
 31
0.0
  0
LINE
  5
306
330
1F
100
AcDbEntity
  8
0
100
AcDbLine
 10
16.60458256959756
 20
4.718406469403767
 30
0.0
 11
23.40458202559768
 21
4.718406469404083
 31
0.0
  0
LINE
  5
307
330
1F
100
AcDbEntity
  8
0
100
AcDbLine
 10
5.231791273284961
 20
2.963077992572471
 30
0.0
 11
4.94573777549332
 21
3.335870168884882
 31
0.0
  0
LINE
  5
308
330
1F
100
AcDbEntity
  8
0
100
AcDbLine
 10
7.777375481909838
 20
5.508662201197257
 30
0.0
 11
8.063428979701479
 21
5.135870024884936
 31
0.0
  0
LINE
  5
309
330
1F
100
AcDbEntity
  8
0
100
AcDbLine
 10
8.063428979701479
 20
5.135870024884936
 30
0.0
 11
8.243249725824189
 21
4.701744340799396
 31
0.0
  0
LINE
  5
30A
330
1F
100
AcDbEntity
  8
0
100
AcDbLine
 10
7.404583305597245
 20
2.677024494780739
 30
0.0
 11
6.970457621511976
 21
2.497203748657668
 31
0.0
  0
LINE
  5
30B
330
1F
100
AcDbEntity
  8
0
100
AcDbLine
 10
6.970457621511976
 20
2.497203748657668
 30
0.0
 11
6.504583377597354
 21
2.435870240884991
 31
0.0
  0
LINE
  5
30C
330
1F
100
AcDbEntity
  8
0
100
AcDbLine
 10
6.504583377597354
 20
2.435870240884991
 30
0.0
 11
6.038709133683003
 21
2.497203748657488
 31
0.0
  0
LINE
  5
30D
330
1F
100
AcDbEntity
  8
0
100
AcDbLine
 10
11.68933697536716
 20
41.84000260598633
 30
0.0
 11
11.31029933567541
 21
42.11772743025635
 31
0.0
  0
LINE
  5
30E
330
1F
100
AcDbEntity
  8
0
100
AcDbLine
 10
11.31029933567541
 20
42.11772743025635
 30
0.0
 11
11.01605756418038
 21
42.48409117058322
 31
0.0
  0
LINE
  5
30F
330
1F
100
AcDbEntity
  8
0
100
AcDbLine
 10
11.01605756418038
 20
42.48409117058322
 30
0.0
 11
10.82666375135163
 21
42.91412674350817
 31
0.0
  0
LINE
  5
310
330
1F
100
AcDbEntity
  8
0
100
AcDbLine
 10
-25.92953974648811
 20
5.974536445111789
 30
0.0
 11
-25.49541406240275
 21
5.79471569898917
 31
0.0
  0
LINE
  5
311
330
1F
100
AcDbEntity
  8
0
100
AcDbLine
 10
-24.83656838829815
 20
5.135870024884755
 30
0.0
 11
-24.65674764217554
 21
4.701744340799396
 31
0.0
  0
LINE
  5
312
330
1F
100
AcDbEntity
  8
0
100
AcDbLine
 10
-32.94969013629245
 20
41.69048423115625
 30
0.0
 11
-33.37972570921804
 21
41.8798780439836
 31
0.0
  0
LINE
  5
313
330
1F
100
AcDbEntity
  8
0
100
AcDbLine
 10
-33.37972570921804
 20
41.8798780439836
 30
0.0
 11
-33.74608944954581
 21
42.17411981547723
 31
0.0
  0
LINE
  5
314
330
1F
100
AcDbEntity
  8
0
100
AcDbLine
 10
-33.74608944954581
 20
42.17411981547723
 30
0.0
 11
-34.02381427381705
 21
42.5531574551679
 31
0.0
  0
LINE
  5
315
330
1F
100
AcDbEntity
  8
0
100
AcDbLine
 10
-34.02381427381705
 20
42.5531574551679
 30
0.0
 11
-34.19397369421947
 21
42.99116017429984
 31
0.0
  0
LINE
  5
316
330
1F
100
AcDbEntity
  8
0
100
AcDbLine
 10
-34.19397369421947
 20
42.99116017429984
 30
0.0
 11
-34.24497162745439
 21
43.45827881139771
 31
0.0
  0
LINE
  5
317
330
1F
100
AcDbEntity
  8
0
100
AcDbLine
 10
-30.90688817698161
 20
42.48409117058854
 30
0.0
 11
-31.20112994847528
 21
42.11772743026104
 31
0.0
  0
LINE
  5
318
330
1F
100
AcDbEntity
  8
0
100
AcDbLine
 10
-31.20112994847528
 20
42.11772743026104
 30
0.0
 11
-31.58016758816577
 21
41.84000260598962
 31
0.0
  0
LINE
  5
319
330
1F
100
AcDbEntity
  8
0
100
AcDbLine
 10
-31.58016758816577
 20
41.84000260598962
 30
0.0
 11
-32.01817030729799
 21
41.66984318558738
 31
0.0
  0
LINE
  5
31A
330
1F
100
AcDbEntity
  8
0
100
AcDbLine
 10
-24.98130363134788
 20
94.60761523196047
 30
0.0
 11
-25.39541407038382
 21
94.6621339055368
 31
0.0
  0
LINE
  5
31B
330
1F
100
AcDbEntity
  8
0
100
AcDbLine
 10
-24.59541413438364
 20
94.44777456874037
 30
0.0
 11
-24.98130363134788
 21
94.60761523196047
 31
0.0
  0
LINE
  5
31C
330
1F
100
AcDbEntity
  8
0
100
AcDbLine
 10
-24.26404331099479
 20
94.19350479292511
 30
0.0
 11
-24.59541413438364
 21
94.44777456874037
 31
0.0
  0
LINE
  5
31D
330
1F
100
AcDbEntity
  8
0
100
AcDbLine
 10
-24.00977353517994
 20
93.8621339695364
 30
0.0
 11
-24.26404331099479
 21
94.19350479292511
 31
0.0
  0
LINE
  5
31E
330
1F
100
AcDbEntity
  8
0
100
AcDbLine
 10
-24.26404331099461
 20
85.73076377014793
 30
0.0
 11
-24.00977353517975
 21
86.06213459353623
 31
0.0
  0
LINE
  5
31F
330
1F
100
AcDbEntity
  8
0
100
AcDbLine
 10
-24.59541413438364
 20
85.4764939943323
 30
0.0
 11
-24.26404331099461
 21
85.73076377014793
 31
0.0
  0
LINE
  5
320
330
1F
100
AcDbEntity
  8
0
100
AcDbLine
 10
-24.9813036313486
 20
85.31665333111252
 30
0.0
 11
-24.59541413438364
 21
85.4764939943323
 31
0.0
  0
LINE
  5
321
330
1F
100
AcDbEntity
  8
0
100
AcDbLine
 10
-25.39541407038364
 20
85.26213465753682
 30
0.0
 11
-24.9813036313486
 21
85.31665333111252
 31
0.0
  0
LINE
  5
322
330
1F
100
AcDbEntity
  8
0
100
AcDbLine
 10
-24.26404331099479
 20
63.19350727292479
 30
0.0
 11
-24.59541413438346
 21
63.44777704873987
 31
0.0
  0
LINE
  5
323
330
1F
100
AcDbEntity
  8
0
100
AcDbLine
 10
-24.00977353517975
 20
55.06213707353626
 30
0.0
 11
-23.84993287195975
 21
55.44802657050087
 31
0.0
  0
LINE
  5
324
330
1F
100
AcDbEntity
  8
0
100
AcDbLine
 10
-24.26404331099461
 20
54.73076625014742
 30
0.0
 11
-24.00977353517975
 21
55.06213707353626
 31
0.0
  0
LINE
  5
325
330
1F
100
AcDbEntity
  8
0
100
AcDbLine
 10
-26.19541400638347
 20
54.47649647433238
 30
0.0
 11
-25.80952450941868
 21
54.31665581111246
 31
0.0
  0
LINE
  5
326
330
1F
100
AcDbEntity
  8
0
100
AcDbLine
 10
-26.52678482977232
 20
54.73076625014755
 30
0.0
 11
-26.19541400638347
 21
54.47649647433238
 31
0.0
  0
LINE
  5
327
330
1F
100
AcDbEntity
  8
0
100
AcDbLine
 10
-26.78105460558735
 20
55.06213707353626
 30
0.0
 11
-26.52678482977232
 21
54.73076625014755
 31
0.0
  0
LINE
  5
328
330
1F
100
AcDbEntity
  8
0
100
AcDbLine
 10
-26.94089526880808
 20
55.44802657050091
 30
0.0
 11
-26.78105460558735
 21
55.06213707353626
 31
0.0
  0
LINE
  5
329
330
1F
100
AcDbEntity
  8
0
100
AcDbLine
 10
-26.99541394238383
 20
55.86213700953618
 30
0.0
 11
-26.94089526880808
 21
55.44802657050091
 31
0.0
  0
LINE
  5
32A
330
1F
100
AcDbEntity
  8
0
100
AcDbLine
 10
-26.99541394238346
 20
62.06213651353598
 30
0.0
 11
-26.99541394238383
 21
55.86213700953618
 31
0.0
  0
LINE
  5
32B
330
1F
100
AcDbEntity
  8
0
100
AcDbLine
 10
-26.9408952688079
 20
62.47624695257147
 30
0.0
 11
-26.99541394238346
 21
62.06213651353598
 31
0.0
  0
LINE
  5
32C
330
1F
100
AcDbEntity
  8
0
100
AcDbLine
 10
-26.78105460558752
 20
62.86213644953589
 30
0.0
 11
-26.9408952688079
 21
62.47624695257147
 31
0.0
  0
LINE
  5
32D
330
1F
100
AcDbEntity
  8
0
100
AcDbLine
 10
-26.19541400638347
 20
63.44777704874006
 30
0.0
 11
-26.52678482977232
 21
63.19350727292457
 31
0.0
  0
LINE
  5
32E
330
1F
100
AcDbEntity
  8
0
100
AcDbLine
 10
-25.80952450941868
 20
63.60761771195983
 30
0.0
 11
-26.19541400638347
 21
63.44777704874006
 31
0.0
  0
LINE
  5
32F
330
1F
100
AcDbEntity
  8
0
100
AcDbLine
 10
-25.39541407038346
 20
63.66213638553609
 30
0.0
 11
-25.80952450941868
 21
63.60761771195983
 31
0.0
  0
LINE
  5
330
330
1F
100
AcDbEntity
  8
0
100
AcDbLine
 10
-24.98130363134824
 20
63.60761771195987
 30
0.0
 11
-25.39541407038346
 21
63.66213638553609
 31
0.0
  0
LINE
  5
331
330
1F
100
AcDbEntity
  8
0
100
AcDbLine
 10
4.593470924841445
 20
67.47985040358132
 30
0.0
 11
5.104583489616703
 21
71.36213576953618
 31
0.0
  0
LINE
  5
332
330
1F
100
AcDbEntity
  8
0
100
AcDbLine
 10
0.7111855588867148
 20
60.75553490026611
 30
0.0
 11
3.094964707152647
 21
63.86213636953622
 31
0.0
  0
LINE
  5
333
330
1F
100
AcDbEntity
  8
0
100
AcDbLine
 10
-2.395415910383263
 20
58.37175575199995
 30
0.0
 11
0.7111855588867148
 21
60.75553490026611
 31
0.0
  0
LINE
  5
334
330
1F
100
AcDbEntity
  8
0
100
AcDbLine
 10
-6.013129944428319
 20
56.87324953431093
 30
0.0
 11
-2.395415910383263
 21
58.37175575199995
 31
0.0
  0
LINE
  5
335
330
1F
100
AcDbEntity
  8
0
100
AcDbLine
 10
-9.895415310383502
 20
56.36213696953638
 30
0.0
 11
-6.013129944428319
 21
56.87324953431093
 31
0.0
  0
LINE
  5
336
330
1F
100
AcDbEntity
  8
0
100
AcDbLine
 10
-24.38430154560876
 20
67.47985040358122
 30
0.0
 11
-22.8857953279196
 21
63.86213636953599
 31
0.0
  0
LINE
  5
337
330
1F
100
AcDbEntity
  8
0
100
AcDbLine
 10
-24.89541411038339
 20
71.36213576953655
 30
0.0
 11
-24.38430154560876
 21
67.47985040358122
 31
0.0
  0
LINE
  5
338
330
1F
100
AcDbEntity
  8
0
100
AcDbLine
 10
4.593470924841535
 20
81.44442063949154
 30
0.0
 11
3.094964707152557
 21
85.06213467353658
 31
0.0
  0
LINE
  5
339
330
1F
100
AcDbEntity
  8
0
100
AcDbLine
 10
5.104583489616703
 20
77.56213527353653
 30
0.0
 11
4.593470924841535
 21
81.44442063949154
 31
0.0
  0
LINE
  5
33A
330
1F
100
AcDbEntity
  8
0
100
AcDbLine
 10
5.104583489616703
 20
77.56213527353653
 30
0.0
 11
5.104583489616703
 21
71.36213576953618
 31
0.0
  0
LINE
  5
33B
330
1F
100
AcDbEntity
  8
0
100
AcDbLine
 10
4.05910225119243
 20
55.44802657050105
 30
0.0
 11
4.218942914412616
 21
55.06213707353599
 31
0.0
  0
LINE
  5
33C
330
1F
100
AcDbEntity
  8
0
100
AcDbLine
 10
4.004583577616316
 20
55.86213700953645
 30
0.0
 11
4.05910225119243
 21
55.44802657050105
 31
0.0
  0
LINE
  5
33D
330
1F
100
AcDbEntity
  8
0
100
AcDbLine
 10
4.004583577616496
 20
62.06213651353603
 30
0.0
 11
4.004583577616316
 21
55.86213700953645
 31
0.0
  0
LINE
  5
33E
330
1F
100
AcDbEntity
  8
0
100
AcDbLine
 10
4.059102251192339
 20
62.47624695257129
 30
0.0
 11
4.004583577616496
 21
62.06213651353603
 31
0.0
  0
LINE
  5
33F
330
1F
100
AcDbEntity
  8
0
100
AcDbLine
 10
4.218942914412436
 20
62.86213644953616
 30
0.0
 11
4.059102251192339
 21
62.47624695257129
 31
0.0
  0
LINE
  5
340
330
1F
100
AcDbEntity
  8
0
100
AcDbLine
 10
4.473212690227739
 20
85.7307637701477
 30
0.0
 11
4.804583513616319
 21
85.47649399433288
 31
0.0
  0
LINE
  5
341
330
1F
100
AcDbEntity
  8
0
100
AcDbLine
 10
4.218942914412797
 20
86.06213459353631
 30
0.0
 11
4.473212690227739
 21
85.7307637701477
 31
0.0
  0
LINE
  5
342
330
1F
100
AcDbEntity
  8
0
100
AcDbLine
 10
4.059102251192249
 20
86.44802409050179
 30
0.0
 11
4.218942914412797
 21
86.06213459353631
 31
0.0
  0
LINE
  5
343
330
1F
100
AcDbEntity
  8
0
100
AcDbLine
 10
5.190473010581104
 20
94.60761523196051
 30
0.0
 11
4.804583513616589
 21
94.44777456874046
 31
0.0
  0
LINE
  5
344
330
1F
100
AcDbEntity
  8
0
100
AcDbLine
 10
5.604583449616233
 20
94.66213390553668
 30
0.0
 11
5.190473010581104
 21
94.60761523196051
 31
0.0
  0
LINE
  5
345
330
1F
100
AcDbEntity
  8
0
100
AcDbLine
 10
6.018693888651723
 20
94.6076152319607
 30
0.0
 11
5.604583449616233
 21
94.66213390553668
 31
0.0
  0
LINE
  5
346
330
1F
100
AcDbEntity
  8
0
100
AcDbLine
 10
6.404583385616236
 20
94.44777456874046
 30
0.0
 11
6.018693888651723
 21
94.6076152319607
 31
0.0
  0
LINE
  5
347
330
1F
100
AcDbEntity
  8
0
100
AcDbLine
 10
6.735954209005177
 20
94.19350479292525
 30
0.0
 11
6.404583385616236
 21
94.44777456874046
 31
0.0
  0
LINE
  5
348
330
1F
100
AcDbEntity
  8
0
100
AcDbLine
 10
6.99022398482057
 20
86.06213459353673
 30
0.0
 11
7.150064648040668
 21
86.44802409050098
 31
0.0
  0
LINE
  5
349
330
1F
100
AcDbEntity
  8
0
100
AcDbLine
 10
6.735954209004997
 20
85.7307637701476
 30
0.0
 11
6.99022398482057
 21
86.06213459353673
 31
0.0
  0
LINE
  5
34A
330
1F
100
AcDbEntity
  8
0
100
AcDbLine
 10
6.404583385616418
 20
85.47649399433284
 30
0.0
 11
6.735954209004997
 21
85.7307637701476
 31
0.0
  0
LINE
  5
34B
330
1F
100
AcDbEntity
  8
0
100
AcDbLine
 10
6.018693888651542
 20
85.31665333111243
 30
0.0
 11
6.404583385616418
 21
85.47649399433284
 31
0.0
  0
LINE
  5
34C
330
1F
100
AcDbEntity
  8
0
100
AcDbLine
 10
5.604583449616684
 20
85.26213465753649
 30
0.0
 11
6.018693888651542
 21
85.31665333111243
 31
0.0
  0
LINE
  5
34D
330
1F
100
AcDbEntity
  8
0
100
AcDbLine
 10
5.190473010581013
 20
85.3166533311122
 30
0.0
 11
5.604583449616684
 21
85.26213465753649
 31
0.0
  0
LINE
  5
34E
330
1F
100
AcDbEntity
  8
0
100
AcDbLine
 10
16.60458256961732
 20
83.8184001414047
 30
0.0
 11
23.40458202561726
 21
83.81840014140496
 31
0.0
  0
LINE
  5
34F
330
1F
100
AcDbEntity
  8
0
100
AcDbLine
 10
16.60458256961759
 20
94.21839930940492
 30
0.0
 11
16.60458256961732
 21
83.8184001414047
 31
0.0
  0
LINE
  5
350
330
1F
100
AcDbEntity
  8
0
100
AcDbLine
 10
23.40458202561699
 20
94.21839930940487
 30
0.0
 11
16.60458256961759
 21
94.21839930940492
 31
0.0
  0
LINE
  5
351
330
1F
100
AcDbEntity
  8
0
100
AcDbLine
 10
23.40458202561726
 20
83.81840014140496
 30
0.0
 11
23.40458202561699
 21
94.21839930940487
 31
0.0
  0
LINE
  5
352
330
1F
100
AcDbEntity
  8
0
100
AcDbLine
 10
-43.2954126383819
 20
83.81840014140461
 30
0.0
 11
-36.49541318238213
 21
83.81840014140501
 31
0.0
  0
LINE
  5
353
330
1F
100
AcDbEntity
  8
0
100
AcDbLine
 10
-36.49541318238195
 20
94.21839930940497
 30
0.0
 11
-43.29541263838207
 21
94.21839930940479
 31
0.0
  0
LINE
  5
354
330
1F
100
AcDbEntity
  8
0
100
AcDbLine
 10
-36.49541318238213
 20
83.81840014140501
 30
0.0
 11
-36.49541318238195
 21
94.21839930940497
 31
0.0
  0
LINE
  5
355
330
1F
100
AcDbEntity
  8
0
100
AcDbLine
 10
13.73654983275504
 20
-59.71481709324458
 30
0.0
 11
13.45900512264452
 21
-60.09398663871028
 31
0.0
  0
LINE
  5
356
330
1F
100
AcDbEntity
  8
0
100
AcDbLine
 10
10.91407270112927
 20
-60.15158814147217
 30
0.0
 11
10.61965690146605
 21
-59.78536423833754
 31
0.0
  0
LINE
  5
357
330
1F
100
AcDbEntity
  8
0
100
AcDbLine
 10
10.61965690146605
 20
-59.78536423833754
 30
0.0
 11
10.43005879780701
 21
-59.35541869596307
 31
0.0
  0
LINE
  5
358
330
1F
100
AcDbEntity
  8
0
100
AcDbLine
 10
10.43005879780701
 20
-59.35541869596307
 30
0.0
 11
10.35819918759093
 21
-58.89105159254334
 31
0.0
  0
LINE
  5
359
330
1F
100
AcDbEntity
  8
0
100
AcDbLine
 10
11.65264064387631
 20
-57.12264181663488
 30
0.0
 11
12.11700774729577
 21
-57.05078220641853
 31
0.0
  0
LINE
  5
35A
330
1F
100
AcDbEntity
  8
0
100
AcDbLine
 10
12.11700774729577
 20
-57.05078220641853
 30
0.0
 11
12.58415056106541
 21
-57.10155820332788
 31
0.0
  0
LINE
  5
35B
330
1F
100
AcDbEntity
  8
0
100
AcDbLine
 10
12.58415056106541
 20
-57.10155820332788
 30
0.0
 11
13.02223407441675
 21
-57.27150950708428
 31
0.0
  0
LINE
  5
35C
330
1F
100
AcDbEntity
  8
0
100
AcDbLine
 10
22.60109339729226
 20
-36.32574981110165
 30
0.0
 11
22.60109339729199
 21
-15.0257515151
 31
0.0
  0
LINE
  5
35D
330
1F
100
AcDbEntity
  8
0
100
AcDbLine
 10
22.56701922630746
 20
-14.76693249070312
 30
0.0
 11
22.60109339729199
 21
-15.0257515151
 31
0.0
  0
LINE
  5
35E
330
1F
100
AcDbEntity
  8
0
100
AcDbLine
 10
-36.49890187470777
 20
-14.02575159509999
 30
0.0
 11
-41.49890147470883
 21
-14.02575159510022
 31
0.0
  0
LINE
  5
35F
330
1F
100
AcDbEntity
  8
0
100
AcDbLine
 10
-41.75772049910584
 20
-14.05982576608506
 30
0.0
 11
-41.99890143470836
 21
-14.159726180598
 31
0.0
  0
LINE
  5
360
330
1F
100
AcDbEntity
  8
0
100
AcDbLine
 10
-42.36492680921119
 20
-14.52575155510006
 30
0.0
 11
-42.46482722372372
 21
-14.76693249070321
 31
0.0
  0
LINE
  5
361
330
1F
100
AcDbEntity
  8
0
100
AcDbLine
 10
-42.46482722372372
 20
-14.76693249070321
 30
0.0
 11
-42.49890139470879
 21
-15.02575151510004
 31
0.0
  0
LINE
  5
362
330
1F
100
AcDbEntity
  8
0
100
AcDbLine
 10
-42.49890139470879
 20
-15.02575151510004
 30
0.0
 11
-42.49890139470789
 21
-36.3257498111008
 31
0.0
  0
LINE
  5
363
330
1F
100
AcDbEntity
  8
0
100
AcDbLine
 10
-42.46482722372281
 20
-36.58456883549776
 30
0.0
 11
-42.49890139470789
 21
-36.3257498111008
 31
0.0
  0
LINE
  5
364
330
1F
100
AcDbEntity
  8
0
100
AcDbLine
 10
-42.20600819932599
 20
-37.0328565357189
 30
0.0
 11
-42.36492680921029
 21
-36.82574977110082
 31
0.0
  0
LINE
  5
365
330
1F
100
AcDbEntity
  8
0
100
AcDbLine
 10
-41.99890143470782
 20
-37.19177514560324
 30
0.0
 11
-42.20600819932599
 21
-37.0328565357189
 31
0.0
  0
LINE
  5
366
330
1F
100
AcDbEntity
  8
0
100
AcDbLine
 10
-41.75772049910493
 20
-37.29167556011581
 30
0.0
 11
-41.99890143470782
 21
-37.19177514560324
 31
0.0
  0
LINE
  5
367
330
1F
100
AcDbEntity
  8
0
100
AcDbLine
 10
-41.49890147470829
 20
-37.32574973110039
 30
0.0
 11
-36.49890187470813
 21
-37.32574973110066
 31
0.0
  0
LINE
  5
368
330
1F
100
AcDbEntity
  8
0
100
AcDbLine
 10
-41.49890147470847
 20
-46.82574897110042
 30
0.0
 11
-41.75772049910548
 21
-46.85982314208513
 31
0.0
  0
LINE
  5
369
330
1F
100
AcDbEntity
  8
0
100
AcDbLine
 10
-41.75772049910548
 20
-46.85982314208513
 30
0.0
 11
-41.99890143470872
 21
-46.95972355659783
 31
0.0
  0
LINE
  5
36A
330
1F
100
AcDbEntity
  8
0
100
AcDbLine
 10
-41.99890143470872
 20
-46.95972355659783
 30
0.0
 11
-42.2060081993267
 21
-47.1186421664825
 31
0.0
  0
LINE
  5
36B
330
1F
100
AcDbEntity
  8
0
100
AcDbLine
 10
-42.2060081993267
 20
-47.1186421664825
 30
0.0
 11
-42.36492680921119
 21
-47.32574893110048
 31
0.0
  0
LINE
  5
36C
330
1F
100
AcDbEntity
  8
0
100
AcDbLine
 10
-42.46482722372354
 20
-47.5669298667034
 30
0.0
 11
-42.4989013947086
 21
-47.82574889110074
 31
0.0
  0
LINE
  5
36D
330
1F
100
AcDbEntity
  8
0
100
AcDbLine
 10
-42.46486114866514
 20
-50.67877739610938
 30
0.0
 11
-42.49890139470789
 21
-50.42008501452727
 31
0.0
  0
LINE
  5
36E
330
1F
100
AcDbEntity
  8
0
100
AcDbLine
 10
-41.99935553731986
 20
-51.28584801397666
 30
0.0
 11
-42.20628626666358
 21
-51.12691356241601
 31
0.0
  0
LINE
  5
36F
330
1F
100
AcDbEntity
  8
0
100
AcDbLine
 10
-41.7583536464022
 20
-51.38584088978912
 30
0.0
 11
-41.99935553731986
 21
-51.28584801397666
 31
0.0
  0
LINE
  5
370
330
1F
100
AcDbEntity
  8
0
100
AcDbLine
 10
-41.49968812254956
 20
-51.42008462511959
 30
0.0
 11
-41.7583536464022
 21
-51.38584088978912
 31
0.0
  0
LINE
  5
371
330
1F
100
AcDbEntity
  8
0
100
AcDbLine
 10
21.85991250168913
 20
-51.38994431337373
 30
0.0
 11
21.60109347729212
 21
-51.42401848435875
 31
0.0
  0
LINE
  5
372
330
1F
100
AcDbEntity
  8
0
100
AcDbLine
 10
22.1010934372921
 20
-51.29004389886111
 30
0.0
 11
21.85991250168913
 21
-51.38994431337373
 31
0.0
  0
LINE
  5
373
330
1F
100
AcDbEntity
  8
0
100
AcDbLine
 10
22.30820020191018
 20
-51.13112528897703
 30
0.0
 11
22.1010934372921
 21
-51.29004389886111
 31
0.0
  0
LINE
  5
374
330
1F
100
AcDbEntity
  8
0
100
AcDbLine
 10
22.60109339729226
 20
-50.4240185643587
 30
0.0
 11
22.6010933972919
 21
-47.82432598730635
 31
0.0
  0
LINE
  5
375
330
1F
100
AcDbEntity
  8
0
100
AcDbLine
 10
22.56701922630728
 20
-47.56550696290974
 30
0.0
 11
22.6010933972919
 21
-47.82432598730635
 31
0.0
  0
LINE
  5
376
330
1F
100
AcDbEntity
  8
0
100
AcDbLine
 10
22.46711881179448
 20
-47.32432602730641
 30
0.0
 11
22.56701922630728
 21
-47.56550696290974
 31
0.0
  0
LINE
  5
377
330
1F
100
AcDbEntity
  8
0
100
AcDbLine
 10
22.30820020191018
 20
-47.11721926268888
 30
0.0
 11
22.46711881179448
 21
-47.32432602730641
 31
0.0
  0
LINE
  5
378
330
1F
100
AcDbEntity
  8
0
100
AcDbLine
 10
21.8599125016885
 20
-46.85840023829127
 30
0.0
 11
22.10109343729237
 21
-46.95830065280475
 31
0.0
  0
LINE
  5
379
330
1F
100
AcDbEntity
  8
0
100
AcDbLine
 10
21.60109347729203
 20
-46.82432606730684
 30
0.0
 11
21.8599125016885
 21
-46.85840023829127
 31
0.0
  0
LINE
  5
37A
330
1F
100
AcDbEntity
  8
0
100
AcDbLine
 10
21.60109347729203
 20
-46.82432606730684
 30
0.0
 11
16.60109387729223
 21
-46.82432606730679
 31
0.0
  0
LINE
  5
37B
330
1F
100
AcDbEntity
  8
0
100
AcDbLine
 10
16.60109387729232
 20
-37.32574973110143
 30
0.0
 11
21.60109347729221
 21
-37.32574973110116
 31
0.0
  0
LINE
  5
37C
330
1F
100
AcDbEntity
  8
0
100
AcDbLine
 10
21.60109347729221
 20
-37.32574973110116
 30
0.0
 11
21.85991250168949
 21
-37.2916755601169
 31
0.0
  0
LINE
  5
37D
330
1F
100
AcDbEntity
  8
0
100
AcDbLine
 10
21.85991250168949
 20
-37.2916755601169
 30
0.0
 11
22.10109343729201
 21
-37.19177514560401
 31
0.0
  0
LINE
  5
37E
330
1F
100
AcDbEntity
  8
0
100
AcDbLine
 10
22.10109343729201
 20
-37.19177514560401
 30
0.0
 11
22.30820020191018
 21
-37.03285653571953
 31
0.0
  0
LINE
  5
37F
330
1F
100
AcDbEntity
  8
0
100
AcDbLine
 10
22.30820020191018
 20
-37.03285653571953
 30
0.0
 11
22.46711881179466
 21
-36.82574977110172
 31
0.0
  0
LINE
  5
380
330
1F
100
AcDbEntity
  8
0
100
AcDbLine
 10
22.46711881179466
 20
-36.82574977110172
 30
0.0
 11
22.5670192263071
 21
-36.58456883549857
 31
0.0
  0
LINE
  5
381
330
1F
100
AcDbEntity
  8
0
100
AcDbLine
 10
22.5670192263071
 20
-36.58456883549857
 30
0.0
 11
22.60109339729226
 21
-36.32574981110165
 31
0.0
  0
LINE
  5
382
330
1F
100
AcDbEntity
  8
0
100
AcDbLine
 10
8.80109450129206
 20
-30.60828418156366
 30
0.0
 11
15.05108385015112
 21
-30.60828418156353
 31
0.0
  0
LINE
  5
383
330
1F
100
AcDbEntity
  8
0
100
AcDbLine
 10
8.80109450129206
 20
-30.60828418156366
 30
0.0
 11
8.80109450129215
 21
-37.97674775000943
 31
0.0
  0
LINE
  5
384
330
1F
100
AcDbEntity
  8
0
100
AcDbLine
 10
8.80109450129215
 20
-37.97674775000943
 30
0.0
 11
1.90109505329214
 21
-37.97674775000957
 31
0.0
  0
LINE
  5
385
330
1F
100
AcDbEntity
  8
0
100
AcDbLine
 10
1.90109505329214
 20
-37.97674775000957
 30
0.0
 11
1.901095053292591
 21
-30.60828418156375
 31
0.0
  0
LINE
  5
386
330
1F
100
AcDbEntity
  8
0
100
AcDbLine
 10
-21.79890305070808
 20
-30.60828418156294
 30
0.0
 11
1.901095053292591
 21
-30.60828418156375
 31
0.0
  0
LINE
  5
387
330
1F
100
AcDbEntity
  8
0
100
AcDbLine
 10
-21.79890305070808
 20
-30.60828418156294
 30
0.0
 11
-21.7989030507079
 21
-37.97674775000916
 31
0.0
  0
LINE
  5
388
330
1F
100
AcDbEntity
  8
0
100
AcDbLine
 10
-28.69890249870764
 20
-37.9767477500092
 30
0.0
 11
-28.69890249870801
 21
-30.60828418156285
 31
0.0
  0
LINE
  5
389
330
1F
100
AcDbEntity
  8
0
100
AcDbLine
 10
-34.94889184756666
 20
-30.6082841815633
 30
0.0
 11
-28.69890249870801
 21
-30.60828418156285
 31
0.0
  0
LINE
  5
38A
330
1F
100
AcDbEntity
  8
0
100
AcDbLine
 10
-34.94889184756666
 20
-19.60829005767703
 30
0.0
 11
-34.94889184756666
 21
-30.6082841815633
 31
0.0
  0
LINE
  5
38B
330
1F
100
AcDbEntity
  8
0
100
AcDbLine
 10
15.05108385015112
 20
-30.60828418156353
 30
0.0
 11
15.05108385015067
 21
-19.60829005767725
 31
0.0
  0
LINE
  5
38C
330
1F
100
AcDbEntity
  8
0
100
AcDbLine
 10
1.901095053292681
 20
-7.508291025677399
 30
0.0
 11
8.80109450129215
 21
-7.508291025677173
 31
0.0
  0
LINE
  5
38D
330
1F
100
AcDbEntity
  8
0
100
AcDbLine
 10
8.80109450129215
 20
-7.508291025677173
 30
0.0
 11
8.801094501291969
 21
-14.6082904576775
 31
0.0
  0
LINE
  5
38E
330
1F
100
AcDbEntity
  8
0
100
AcDbLine
 10
8.801094501291969
 20
-14.6082904576775
 30
0.0
 11
1.90109505329223
 21
-14.60829045767754
 31
0.0
  0
LINE
  5
38F
330
1F
100
AcDbEntity
  8
0
100
AcDbLine
 10
1.90109505329223
 20
-14.60829045767754
 30
0.0
 11
1.901095053292681
 21
-7.508291025677399
 31
0.0
  0
LINE
  5
390
330
1F
100
AcDbEntity
  8
0
100
AcDbLine
 10
-26.39890268270779
 20
-48.70828523162034
 30
0.0
 11
-26.86477692662259
 21
-48.64695172384739
 31
0.0
  0
LINE
  5
391
330
1F
100
AcDbEntity
  8
0
100
AcDbLine
 10
-26.86477692662259
 20
-48.64695172384739
 30
0.0
 11
-27.29890261070813
 21
-48.46713097772459
 31
0.0
  0
LINE
  5
392
330
1F
100
AcDbEntity
  8
0
100
AcDbLine
 10
-27.29890261070813
 20
-48.46713097772459
 30
0.0
 11
-27.67169478702036
 21
-48.1810774799325
 31
0.0
  0
LINE
  5
393
330
1F
100
AcDbEntity
  8
0
100
AcDbLine
 10
-28.19890253870793
 20
-46.90828537562033
 30
0.0
 11
-28.1375690309348
 21
-46.44241113170589
 31
0.0
  0
LINE
  5
394
330
1F
100
AcDbEntity
  8
0
100
AcDbLine
 10
-28.1375690309348
 20
-46.44241113170589
 30
0.0
 11
-27.95774828481236
 21
-46.00828544762017
 31
0.0
  0
LINE
  5
395
330
1F
100
AcDbEntity
  8
0
100
AcDbLine
 10
-27.67169478702018
 20
-45.63549327130785
 30
0.0
 11
-27.29890261070795
 21
-45.34943977351593
 31
0.0
  0
LINE
  5
396
330
1F
100
AcDbEntity
  8
0
100
AcDbLine
 10
-27.29890261070795
 20
-45.34943977351593
 30
0.0
 11
-26.86477692662259
 21
-45.16961902739349
 31
0.0
  0
LINE
  5
397
330
1F
100
AcDbEntity
  8
0
100
AcDbLine
 10
-25.93302843879335
 20
-45.16961902739327
 30
0.0
 11
-25.49890275470799
 21
-45.34943977351607
 31
0.0
  0
LINE
  5
398
330
1F
100
AcDbEntity
  8
0
100
AcDbLine
 10
-25.12611057839576
 20
-45.63549327130803
 30
0.0
 11
-24.84005708060358
 21
-46.00828544761985
 31
0.0
  0
LINE
  5
399
330
1F
100
AcDbEntity
  8
0
100
AcDbLine
 10
-25.12611057839539
 20
-48.18107747993277
 30
0.0
 11
-25.49890275470817
 21
-48.46713097772464
 31
0.0
  0
LINE
  5
39A
330
1F
100
AcDbEntity
  8
0
100
AcDbLine
 10
-31.50892280887615
 20
-9.260821552998337
 30
0.0
 11
-31.93825704011395
 21
-9.451799897860178
 31
0.0
  0
LINE
  5
39B
330
1F
100
AcDbEntity
  8
0
100
AcDbLine
 10
-33.30832164744147
 20
-9.30733285667725
 30
0.0
 11
-33.68838086128326
 21
-9.0310076781422
 31
0.0
  0
LINE
  5
39C
330
1F
100
AcDbEntity
  8
0
100
AcDbLine
 10
-33.68838086128326
 20
-9.0310076781422
 30
0.0
 11
-33.98397165260593
 21
-8.665731488931872
 31
0.0
  0
LINE
  5
39D
330
1F
100
AcDbEntity
  8
0
100
AcDbLine
 10
-33.98397165260593
 20
-8.665731488931872
 30
0.0
 11
-34.17494999746813
 21
-8.236397257694016
 31
0.0
  0
LINE
  5
39E
330
1F
100
AcDbEntity
  8
0
100
AcDbLine
 10
-34.17494999746813
 20
-8.236397257694016
 30
0.0
 11
-34.24830103727304
 21
-7.772263402778989
 31
0.0
  0
LINE
  5
39F
330
1F
100
AcDbEntity
  8
0
100
AcDbLine
 10
-34.24830103727304
 20
-7.772263402778989
 30
0.0
 11
-34.1990260198772
 21
-7.304959879381828
 31
0.0
  0
LINE
  5
3A0
330
1F
100
AcDbEntity
  8
0
100
AcDbLine
 10
-34.1990260198772
 20
-7.304959879381828
 30
0.0
 11
-34.03048295628498
 21
-6.866332650366501
 31
0.0
  0
LINE
  5
3A1
330
1F
100
AcDbEntity
  8
0
100
AcDbLine
 10
-34.03048295628498
 20
-6.866332650366501
 30
0.0
 11
-33.75415777774997
 21
-6.48627343652457
 31
0.0
  0
LINE
  5
3A2
330
1F
100
AcDbEntity
  8
0
100
AcDbLine
 10
-33.75415777774997
 20
-6.48627343652457
 30
0.0
 11
-33.38888158853928
 21
-6.190682645202085
 31
0.0
  0
LINE
  5
3A3
330
1F
100
AcDbEntity
  8
0
100
AcDbLine
 10
-32.9595473573013
 20
-5.999704300340154
 30
0.0
 11
-32.49541350238658
 21
-5.926353260534887
 31
0.0
  0
LINE
  5
3A4
330
1F
100
AcDbEntity
  8
0
100
AcDbLine
 10
-32.02810997898938
 20
-5.975628277930495
 30
0.0
 11
-31.58948274997396
 21
-6.144171341522946
 31
0.0
  0
LINE
  5
3A5
330
1F
100
AcDbEntity
  8
0
100
AcDbLine
 10
-30.72285439994766
 20
-7.215106940506316
 30
0.0
 11
-30.64950336014257
 21
-7.679240795421297
 31
0.0
  0
LINE
  5
3A6
330
1F
100
AcDbEntity
  8
0
100
AcDbLine
 10
-30.69877837753859
 20
-8.146544318818503
 30
0.0
 11
-30.86732144113045
 21
-8.585171547833784
 31
0.0
  0
LINE
  5
3A7
330
1F
100
AcDbEntity
  8
0
100
AcDbLine
 10
-30.86732144113045
 20
-8.585171547833784
 30
0.0
 11
-31.14364661966563
 21
-8.965230761675944
 31
0.0
  0
LINE
  5
3A8
330
1F
100
AcDbEntity
  8
0
100
AcDbLine
 10
-31.14364661966563
 20
-8.965230761675944
 30
0.0
 11
-31.50892280887615
 21
-9.260821552998337
 31
0.0
  0
LINE
  5
3A9
330
1F
100
AcDbEntity
  8
0
100
AcDbLine
 10
6.501094685291935
 20
-48.70828523162034
 30
0.0
 11
6.035220441377494
 21
-48.6469517238473
 31
0.0
  0
LINE
  5
3AA
330
1F
100
AcDbEntity
  8
0
100
AcDbLine
 10
6.035220441377494
 20
-48.6469517238473
 30
0.0
 11
5.601094757291954
 21
-48.46713097772441
 31
0.0
  0
LINE
  5
3AB
330
1F
100
AcDbEntity
  8
0
100
AcDbLine
 10
5.601094757291954
 20
-48.46713097772441
 30
0.0
 11
5.228302580979633
 21
-48.18107747993268
 31
0.0
  0
LINE
  5
3AC
330
1F
100
AcDbEntity
  8
0
100
AcDbLine
 10
5.228302580979633
 20
-48.18107747993268
 30
0.0
 11
4.94224908318736
 21
-47.80828530362022
 31
0.0
  0
LINE
  5
3AD
330
1F
100
AcDbEntity
  8
0
100
AcDbLine
 10
4.94224908318736
 20
-47.80828530362022
 30
0.0
 11
4.762428337065371
 21
-47.374159619535
 31
0.0
  0
LINE
  5
3AE
330
1F
100
AcDbEntity
  8
0
100
AcDbLine
 10
4.762428337065371
 20
-47.374159619535
 30
0.0
 11
4.701094829292243
 21
-46.90828537562042
 31
0.0
  0
LINE
  5
3AF
330
1F
100
AcDbEntity
  8
0
100
AcDbLine
 10
4.701094829292243
 20
-46.90828537562042
 30
0.0
 11
4.762428337065191
 21
-46.4424111317058
 31
0.0
  0
LINE
  5
3B0
330
1F
100
AcDbEntity
  8
0
100
AcDbLine
 10
4.762428337065191
 20
-46.4424111317058
 30
0.0
 11
4.94224908318763
 21
-46.00828544762021
 31
0.0
  0
LINE
  5
3B1
330
1F
100
AcDbEntity
  8
0
100
AcDbLine
 10
4.94224908318763
 20
-46.00828544762021
 30
0.0
 11
5.228302580979633
 21
-45.63549327130799
 31
0.0
  0
LINE
  5
3B2
330
1F
100
AcDbEntity
  8
0
100
AcDbLine
 10
5.601094757292044
 20
-45.34943977351566
 30
0.0
 11
6.035220441377494
 21
-45.1696190273934
 31
0.0
  0
LINE
  5
3B3
330
1F
100
AcDbEntity
  8
0
100
AcDbLine
 10
14.35063637997731
 20
-7.685163569517986
 30
0.0
 11
14.29982355164943
 21
-8.152302378434854
 31
0.0
  0
LINE
  5
3B4
330
1F
100
AcDbEntity
  8
0
100
AcDbLine
 10
14.29982355164943
 20
-8.152302378434854
 30
0.0
 11
14.1298377080062
 21
-8.590372490722604
 31
0.0
  0
LINE
  5
3B5
330
1F
100
AcDbEntity
  8
0
100
AcDbLine
 10
14.1298377080062
 20
-8.590372490722604
 30
0.0
 11
13.85226310337745
 21
-8.969520152173747
 31
0.0
  0
LINE
  5
3B6
330
1F
100
AcDbEntity
  8
0
100
AcDbLine
 10
13.85226310337745
 20
-8.969520152173747
 30
0.0
 11
13.48601598835491
 21
-9.263907076232282
 31
0.0
  0
LINE
  5
3B7
330
1F
100
AcDbEntity
  8
0
100
AcDbLine
 10
13.48601598835491
 20
-9.263907076232282
 30
0.0
 11
13.05605549857563
 21
-9.453471280519986
 31
0.0
  0
LINE
  5
3B8
330
1F
100
AcDbEntity
  8
0
100
AcDbLine
 10
13.05605549857563
 20
-9.453471280519986
 30
0.0
 11
12.59168273087404
 21
-9.525294277784935
 31
0.0
  0
LINE
  5
3B9
330
1F
100
AcDbEntity
  8
0
100
AcDbLine
 10
12.59168273087404
 20
-9.525294277784935
 30
0.0
 11
12.12454392195749
 21
-9.474481449456928
 31
0.0
  0
LINE
  5
3BA
330
1F
100
AcDbEntity
  8
0
100
AcDbLine
 10
12.12454392195749
 20
-9.474481449456928
 30
0.0
 11
11.6864738096701
 21
-9.304495605814012
 31
0.0
  0
LINE
  5
3BB
330
1F
100
AcDbEntity
  8
0
100
AcDbLine
 10
11.61617241422998
 20
-6.187597121968321
 30
0.0
 11
12.04613290400954
 21
-5.998032917680616
 31
0.0
  0
LINE
  5
3BC
330
1F
100
AcDbEntity
  8
0
100
AcDbLine
 10
12.04613290400954
 20
-5.998032917680616
 30
0.0
 11
12.5105056717104
 21
-5.926209920415216
 31
0.0
  0
LINE
  5
3BD
330
1F
100
AcDbEntity
  8
0
100
AcDbLine
 10
12.5105056717104
 20
-5.926209920415216
 30
0.0
 11
12.97764448062732
 21
-5.977022748742908
 31
0.0
  0
LINE
  5
3BE
330
1F
100
AcDbEntity
  8
0
100
AcDbLine
 10
12.97764448062732
 20
-5.977022748742908
 30
0.0
 11
13.41571459291453
 21
-6.147008592386141
 31
0.0
  0
LINE
  5
3BF
330
1F
100
AcDbEntity
  8
0
100
AcDbLine
 10
13.41571459291453
 20
-6.147008592386141
 30
0.0
 11
13.79486225436594
 21
-6.424583197015214
 31
0.0
  0
LINE
  5
3C0
330
1F
100
AcDbEntity
  8
0
100
AcDbLine
 10
13.79486225436594
 20
-6.424583197015214
 30
0.0
 11
14.08924917842439
 21
-6.790830312037563
 31
0.0
  0
LINE
  5
3C1
330
1F
100
AcDbEntity
  8
0
100
AcDbLine
 10
14.08924917842439
 20
-6.790830312037563
 30
0.0
 11
14.27881338271218
 21
-7.220790801817256
 31
0.0
  0
LINE
  5
3C2
330
1F
100
AcDbEntity
  8
0
100
AcDbLine
 10
14.27881338271218
 20
-7.220790801817256
 30
0.0
 11
14.35063637997731
 21
-7.685163569517986
 31
0.0
  0
LINE
  5
3C3
330
1F
100
AcDbEntity
  8
0
100
AcDbLine
 10
68.73422022799728
 20
87.76350533296953
 30
0.0
 11
68.73422022799718
 21
98.67577988398237
 31
0.0
  0
LINE
  5
3C4
330
1F
100
AcDbEntity
  8
0
100
AcDbLine
 10
67.73422030799715
 20
59.87578298798273
 30
0.0
 11
62.13422075599747
 21
59.87578298798282
 31
0.0
  0
LINE
  5
3C5
330
1F
100
AcDbEntity
  8
0
100
AcDbLine
 10
67.73422030799715
 20
59.87578298798273
 30
0.0
 11
67.99303933239398
 21
59.90985715896825
 31
0.0
  0
LINE
  5
3C6
330
1F
100
AcDbEntity
  8
0
100
AcDbLine
 10
67.99303933239398
 20
59.90985715896825
 30
0.0
 11
68.23422026799712
 21
60.0097575734806
 31
0.0
  0
LINE
  5
3C7
330
1F
100
AcDbEntity
  8
0
100
AcDbLine
 10
68.23422026799712
 20
60.0097575734806
 30
0.0
 11
68.44132703261502
 21
60.16867618336504
 31
0.0
  0
LINE
  5
3C8
330
1F
100
AcDbEntity
  8
0
100
AcDbLine
 10
-34.64173171269176
 20
-58.89384934102629
 30
0.0
 11
-34.59168205822209
 21
-58.42662814886355
 31
0.0
  0
LINE
  5
3C9
330
1F
100
AcDbEntity
  8
0
100
AcDbLine
 10
-34.59168205822209
 20
-58.42662814886355
 30
0.0
 11
-34.42241206156598
 21
-57.98828093654086
 31
0.0
  0
LINE
  5
3CA
330
1F
100
AcDbEntity
  8
0
100
AcDbLine
 10
-33.35004122106479
 20
-57.12342919509471
 30
0.0
 11
-32.88578640118722
 21
-57.05084770613673
 31
0.0
  0
LINE
  5
3CB
330
1F
100
AcDbEntity
  8
0
100
AcDbLine
 10
-27.69225865149609
 20
-99.59170005795755
 30
0.0
 11
-28.0650508278085
 21
-99.30564656016577
 31
0.0
  0
LINE
  5
3CC
330
1F
100
AcDbEntity
  8
0
100
AcDbLine
 10
77.27151701878823
 20
32.67902485990263
 30
0.0
 11
77.27151701878823
 21
27.67902525990247
 31
0.0
  0
LINE
  5
3CD
330
1F
100
AcDbEntity
  8
0
100
AcDbLine
 10
81.27151669878825
 20
32.67902485990245
 30
0.0
 11
77.27151701878823
 21
32.67902485990263
 31
0.0
  0
LINE
  5
3CE
330
1F
100
AcDbEntity
  8
0
100
AcDbLine
 10
81.27151669878825
 20
32.67902485990245
 30
0.0
 11
81.53033572318544
 21
32.71309903088738
 31
0.0
  0
LINE
  5
3CF
330
1F
100
AcDbEntity
  8
0
100
AcDbLine
 10
81.53033572318544
 20
32.71309903088738
 30
0.0
 11
81.7715166587881
 21
32.81299944539995
 31
0.0
  0
LINE
  5
3D0
330
1F
100
AcDbEntity
  8
0
100
AcDbLine
 10
81.7715166587881
 20
32.81299944539995
 30
0.0
 11
81.97862342340645
 21
32.97191805528426
 31
0.0
  0
LINE
  5
3D1
330
1F
100
AcDbEntity
  8
0
100
AcDbLine
 10
64.80559218977332
 20
33.83784381229898
 30
0.0
 11
64.90549260428584
 21
34.07902474790222
 31
0.0
  0
LINE
  5
3D2
330
1F
100
AcDbEntity
  8
0
100
AcDbLine
 10
64.77151801878824
 20
33.57902478790206
 30
0.0
 11
64.77151801878824
 21
28.67902517990242
 31
0.0
  0
LINE
  5
3D3
330
1F
100
AcDbEntity
  8
0
100
AcDbLine
 10
64.80559218977332
 20
28.42020615550523
 30
0.0
 11
64.77151801878824
 21
28.67902517990242
 31
0.0
  0
LINE
  5
3D4
330
1F
100
AcDbEntity
  8
0
100
AcDbLine
 10
64.90549260428584
 20
28.17902521990262
 30
0.0
 11
64.80559218977332
 21
28.42020615550523
 31
0.0
  0
LINE
  5
3D5
330
1F
100
AcDbEntity
  8
0
100
AcDbLine
 10
65.06441121417015
 20
27.97191845528473
 30
0.0
 11
64.90549260428584
 21
28.17902521990262
 31
0.0
  0
LINE
  5
3D6
330
1F
100
AcDbEntity
  8
0
100
AcDbLine
 10
65.27151797878831
 20
27.81299984539984
 30
0.0
 11
65.06441121417015
 21
27.97191845528473
 31
0.0
  0
LINE
  5
3D7
330
1F
100
AcDbEntity
  8
0
100
AcDbLine
 10
-28.53092507172294
 20
-98.4987286997682
 30
0.0
 11
-28.59225857949607
 21
-98.03285445585338
 31
0.0
  0
LINE
  5
3D8
330
1F
100
AcDbEntity
  8
0
100
AcDbLine
 10
-28.3511043256005
 20
-98.93285438385355
 30
0.0
 11
-28.53092507172294
 21
-98.4987286997682
 31
0.0
  0
LINE
  5
3D9
330
1F
100
AcDbEntity
  8
0
100
AcDbLine
 10
29.60773676450438
 20
-102.5485875645919
 30
0.0
 11
29.60773676450447
 21
-53.85032157933365
 31
0.0
  0
LINE
  5
3DA
330
1F
100
AcDbEntity
  8
0
100
AcDbLine
 10
-36.89225791549446
 20
-58.65032119533385
 30
0.0
 11
-36.89225791549482
 21
-65.65032063533361
 31
0.0
  0
LINE
  5
3DB
330
1F
100
AcDbEntity
  8
0
100
AcDbLine
 10
-36.89225791549482
 20
-65.65032063533361
 30
0.0
 11
-43.49225738749445
 21
-65.65032063533384
 31
0.0
  0
LINE
  5
3DC
330
1F
100
AcDbEntity
  8
0
100
AcDbLine
 10
-43.49225738749445
 20
-65.65032063533384
 30
0.0
 11
-43.49225738749481
 21
-58.65032119533367
 31
0.0
  0
LINE
  5
3DD
330
1F
100
AcDbEntity
  8
0
100
AcDbLine
 10
-36.89225791549482
 20
-98.85031797933335
 30
0.0
 11
-43.69225737149512
 21
-98.85031797933313
 31
0.0
  0
LINE
  5
3DE
330
1F
100
AcDbEntity
  8
0
100
AcDbLine
 10
-43.69225737149512
 20
-98.85031797933313
 30
0.0
 11
-43.69225737149495
 21
-85.53804362032105
 31
0.0
  0
LINE
  5
3DF
330
1F
100
AcDbEntity
  8
0
100
AcDbLine
 10
-43.69225737149495
 20
-85.53804362032105
 30
0.0
 11
-36.89225791549482
 21
-85.53804362032109
 31
0.0
  0
LINE
  5
3E0
330
1F
100
AcDbEntity
  8
0
100
AcDbLine
 10
-36.89225791549482
 20
-85.53804362032109
 30
0.0
 11
-36.89225791549482
 21
-98.85031797933335
 31
0.0
  0
LINE
  5
3E1
330
1F
100
AcDbEntity
  8
0
100
AcDbLine
 10
16.20773783650554
 20
-98.85031797933358
 30
0.0
 11
23.00773729250512
 21
-98.85031797933335
 31
0.0
  0
LINE
  5
3E2
330
1F
100
AcDbEntity
  8
0
100
AcDbLine
 10
23.0077372925053
 20
-85.53804362032182
 30
0.0
 11
16.20773783650509
 21
-85.53804362032173
 31
0.0
  0
LINE
  5
3E3
330
1F
100
AcDbEntity
  8
0
100
AcDbLine
 10
23.00773729250512
 20
-98.85031797933335
 30
0.0
 11
23.0077372925053
 21
-85.53804362032182
 31
0.0
  0
LINE
  5
3E4
330
1F
100
AcDbEntity
  8
0
100
AcDbLine
 10
16.20773783650581
 20
-58.65032119533376
 30
0.0
 11
16.20773783650581
 21
-65.65032063533393
 31
0.0
  0
LINE
  5
3E5
330
1F
100
AcDbEntity
  8
0
100
AcDbLine
 10
-31.90482500909027
 20
-60.38694683971184
 30
0.0
 11
-32.33447525792458
 21
-60.57721316357231
 31
0.0
  0
LINE
  5
3E6
330
1F
100
AcDbEntity
  8
0
100
AcDbLine
 10
-34.56915022373328
 20
-59.35810416090332
 30
0.0
 11
-34.64173171269176
 21
-58.89384934102629
 31
0.0
  0
LINE
  5
3E7
330
1F
100
AcDbEntity
  8
0
100
AcDbLine
 10
-34.42241206156598
 20
-57.98828093654086
 30
0.0
 11
-34.1454571932632
 21
-57.60868034217586
 31
0.0
  0
LINE
  5
3E8
330
1F
100
AcDbEntity
  8
0
100
AcDbLine
 10
-34.1454571932632
 20
-57.60868034217586
 30
0.0
 11
-33.77969146989909
 21
-57.31369551895526
 31
0.0
  0
LINE
  5
3E9
330
1F
100
AcDbEntity
  8
0
100
AcDbLine
 10
-33.77969146989909
 20
-57.31369551895526
 30
0.0
 11
-33.35004122106479
 21
-57.12342919509471
 31
0.0
  0
LINE
  5
3EA
330
1F
100
AcDbEntity
  8
0
100
AcDbLine
 10
-28.0650508278085
 20
-99.30564656016577
 30
0.0
 11
-28.3511043256005
 21
-98.93285438385355
 31
0.0
  0
LINE
  5
3EB
330
1F
100
AcDbEntity
  8
0
100
AcDbLine
 10
-25.51946661918353
 20
-99.30564656016568
 30
0.0
 11
-25.89225879549594
 21
-99.59170005795733
 31
0.0
  0
LINE
  5
3EC
330
1F
100
AcDbEntity
  8
0
100
AcDbLine
 10
7.907738500505386
 20
-98.03285445585348
 30
0.0
 11
7.846404992732166
 21
-98.49872869976824
 31
0.0
  0
LINE
  5
3ED
330
1F
100
AcDbEntity
  8
0
100
AcDbLine
 10
7.846404992732166
 20
-98.49872869976824
 30
0.0
 11
7.666584246609546
 21
-98.93285438385355
 31
0.0
  0
LINE
  5
3EE
330
1F
100
AcDbEntity
  8
0
100
AcDbLine
 10
7.666584246609546
 20
-98.93285438385355
 30
0.0
 11
7.380530748817636
 21
-99.30564656016605
 31
0.0
  0
LINE
  5
3EF
330
1F
100
AcDbEntity
  8
0
100
AcDbLine
 10
7.380530748817636
 20
-99.30564656016605
 30
0.0
 11
7.007738572505313
 21
-99.59170005795828
 31
0.0
  0
LINE
  5
3F0
330
1F
100
AcDbEntity
  8
0
100
AcDbLine
 10
7.007738572505313
 20
-99.59170005795828
 30
0.0
 11
6.573612888419772
 21
-99.77152080408048
 31
0.0
  0
LINE
  5
3F1
330
1F
100
AcDbEntity
  8
0
100
AcDbLine
 10
6.573612888419772
 20
-99.77152080408048
 30
0.0
 11
6.107738644505602
 21
-99.8328543118541
 31
0.0
  0
LINE
  5
3F2
330
1F
100
AcDbEntity
  8
0
100
AcDbLine
 10
6.107738644505602
 20
-99.8328543118541
 30
0.0
 11
5.6418644005908
 21
-99.77152080408081
 31
0.0
  0
LINE
  5
3F3
330
1F
100
AcDbEntity
  8
0
100
AcDbLine
 10
5.6418644005908
 20
-99.77152080408081
 30
0.0
 11
5.207738716505441
 21
-99.59170005795823
 31
0.0
  0
LINE
  5
3F4
330
1F
100
AcDbEntity
  8
0
100
AcDbLine
 10
13.90650113651163
 20
-59.27673357989364
 30
0.0
 11
13.73654983275504
 21
-59.71481709324458
 31
0.0
  0
LINE
  5
3F5
330
1F
100
AcDbEntity
  8
0
100
AcDbLine
 10
31.968297342982
 20
89.11696160358521
 30
0.0
 11
31.93422317199684
 21
89.3757806279824
 31
0.0
  0
LINE
  5
3F6
330
1F
100
AcDbEntity
  8
0
100
AcDbLine
 10
31.93422317199666
 20
17.87578634798155
 30
0.0
 11
31.93422317199648
 21
9.875786987981733
 31
0.0
  0
LINE
  5
3F7
330
1F
100
AcDbEntity
  8
0
100
AcDbLine
 10
31.96829734298191
 20
18.13460537237874
 30
0.0
 11
31.93422317199666
 21
17.87578634798155
 31
0.0
  0
LINE
  5
3F8
330
1F
100
AcDbEntity
  8
0
100
AcDbLine
 10
62.13422075599693
 20
96.85639265200989
 30
0.0
 11
57.63422111599711
 21
99.45446865551739
 31
0.0
  0
LINE
  5
3F9
330
1F
100
AcDbEntity
  8
0
100
AcDbLine
 10
57.63422111599711
 20
99.45446865551739
 30
0.0
 11
53.13422147599729
 21
96.85639265201003
 31
0.0
  0
LINE
  5
3FA
330
1F
100
AcDbEntity
  8
0
100
AcDbLine
 10
53.13422147599729
 20
96.85639265201003
 30
0.0
 11
53.13422147599729
 21
91.66024064499527
 31
0.0
  0
LINE
  5
3FB
330
1F
100
AcDbEntity
  8
0
100
AcDbLine
 10
53.13422147599729
 20
91.66024064499527
 30
0.0
 11
57.63422111599739
 21
89.0621646414885
 31
0.0
  0
LINE
  5
3FC
330
1F
100
AcDbEntity
  8
0
100
AcDbLine
 10
60.53199836304214
 20
93.48185957531187
 30
0.0
 11
60.63422087599717
 21
94.25831664850259
 31
0.0
  0
LINE
  5
3FD
330
1F
100
AcDbEntity
  8
0
100
AcDbLine
 10
56.8577640428058
 20
91.36053940145746
 30
0.0
 11
57.63422111599739
 21
91.2583168885027
 31
0.0
  0
LINE
  5
3FE
330
1F
100
AcDbEntity
  8
0
100
AcDbLine
 10
55.03614511248976
 20
92.75831676850247
 30
0.0
 11
55.51290094214322
 21
92.1369964746486
 31
0.0
  0
LINE
  5
3FF
330
1F
100
AcDbEntity
  8
0
100
AcDbLine
 10
54.63422135599724
 20
94.25831664850253
 30
0.0
 11
54.73644386895227
 21
93.481859575312
 31
0.0
  0
LINE
  5
400
330
1F
100
AcDbEntity
  8
0
100
AcDbLine
 10
56.8577640428059
 20
97.15609389554801
 30
0.0
 11
56.13422123599699
 21
96.85639265200993
 31
0.0
  0
LINE
  5
401
330
1F
100
AcDbEntity
  8
0
100
AcDbLine
 10
68.60024564249959
 20
65.97578249998287
 30
0.0
 11
68.70014605701212
 21
65.7346015643799
 31
0.0
  0
LINE
  5
402
330
1F
100
AcDbEntity
  8
0
100
AcDbLine
 10
67.73422030799696
 20
66.47578245998304
 30
0.0
 11
62.13422075599711
 21
66.4757824599825
 31
0.0
  0
LINE
  5
403
330
1F
100
AcDbEntity
  8
0
100
AcDbLine
 10
67.73422030799696
 20
66.47578245998304
 30
0.0
 11
67.99303933239388
 21
66.44170828899796
 31
0.0
  0
LINE
  5
404
330
1F
100
AcDbEntity
  8
0
100
AcDbLine
 10
67.99303933239388
 20
66.44170828899796
 30
0.0
 11
68.23422026799747
 21
66.34180787448503
 31
0.0
  0
LINE
  5
405
330
1F
100
AcDbEntity
  8
0
100
AcDbLine
 10
68.23422026799747
 20
66.34180787448503
 30
0.0
 11
68.4413270326152
 21
66.18288926460104
 31
0.0
  0
LINE
  5
406
330
1F
100
AcDbEntity
  8
0
100
AcDbLine
 10
68.4413270326152
 20
66.18288926460104
 30
0.0
 11
68.60024564249959
 21
65.97578249998287
 31
0.0
  0
LINE
  5
407
330
1F
100
AcDbEntity
  8
0
100
AcDbLine
 10
32.06819775749471
 20
9.375787027981257
 30
0.0
 11
31.96829734298182
 21
9.616967963584631
 31
0.0
  0
LINE
  5
408
330
1F
100
AcDbEntity
  8
0
100
AcDbLine
 10
-76.69076647563266
 20
6.598970740909927
 30
0.0
 11
-75.96722366882366
 21
6.898671984447776
 31
0.0
  0
LINE
  5
409
330
1F
100
AcDbEntity
  8
0
100
AcDbLine
 10
67.99303933239433
 20
86.7975795839546
 30
0.0
 11
67.73422030799742
 21
86.76350541296927
 31
0.0
  0
LINE
  5
40A
330
1F
100
AcDbEntity
  8
0
100
AcDbLine
 10
31.93422317199711
 20
97.37577998798257
 30
0.0
 11
31.93422317199684
 21
89.3757806279824
 31
0.0
  0
LINE
  5
40B
330
1F
100
AcDbEntity
  8
0
100
AcDbLine
 10
31.96829734298209
 20
97.63459901237962
 30
0.0
 11
31.93422317199711
 21
97.37577998798257
 31
0.0
  0
LINE
  5
40C
330
1F
100
AcDbEntity
  8
0
100
AcDbLine
 10
32.22711636737928
 20
9.168680263363315
 30
0.0
 11
32.06819775749471
 21
9.375787027981257
 31
0.0
  0
LINE
  5
40D
330
1F
100
AcDbEntity
  8
0
100
AcDbLine
 10
59.37288746422431
 20
58.40990882406707
 30
0.0
 11
59.19306671810169
 21
57.97578313998166
 31
0.0
  0
LINE
  5
40E
330
1F
100
AcDbEntity
  8
0
100
AcDbLine
 10
68.73422022799728
 20
87.76350533296953
 30
0.0
 11
68.70014605701193
 21
87.50468630857226
 31
0.0
  0
LINE
  5
40F
330
1F
100
AcDbEntity
  8
0
100
AcDbLine
 10
68.70014605701193
 20
87.50468630857226
 30
0.0
 11
68.60024564249977
 21
87.26350537296902
 31
0.0
  0
LINE
  5
410
330
1F
100
AcDbEntity
  8
0
100
AcDbLine
 10
-76.69076647563247
 20
12.39452523499975
 30
0.0
 11
-77.46722354882368
 21
12.49674774795519
 31
0.0
  0
LINE
  5
411
330
1F
100
AcDbEntity
  8
0
100
AcDbLine
 10
-78.24368062201472
 20
12.39452523500007
 30
0.0
 11
-78.96722342882371
 21
12.09482399146249
 31
0.0
  0
LINE
  5
412
330
1F
100
AcDbEntity
  8
0
100
AcDbLine
 10
32.67540406760006
 20
62.90985691896714
 30
0.0
 11
32.43422313199691
 21
63.00975733347957
 31
0.0
  0
LINE
  5
413
330
1F
100
AcDbEntity
  8
0
100
AcDbLine
 10
32.43422313199691
 20
63.00975733347957
 30
0.0
 11
32.2271163673791
 21
63.16867594336389
 31
0.0
  0
LINE
  5
414
330
1F
100
AcDbEntity
  8
0
100
AcDbLine
 10
32.2271163673791
 20
63.16867594336389
 30
0.0
 11
32.06819775749471
 21
63.37578270798164
 31
0.0
  0
LINE
  5
415
330
1F
100
AcDbEntity
  8
0
100
AcDbLine
 10
32.06819775749471
 20
63.37578270798164
 30
0.0
 11
31.96829734298191
 21
63.61696364358528
 31
0.0
  0
LINE
  5
416
330
1F
100
AcDbEntity
  8
0
100
AcDbLine
 10
58.90701322030969
 20
57.60299096366907
 30
0.0
 11
58.53422104399746
 21
57.31693746587702
 31
0.0
  0
LINE
  5
417
330
1F
100
AcDbEntity
  8
0
100
AcDbLine
 10
32.93422309199707
 20
62.87578274798194
 30
0.0
 11
38.53422264399673
 21
62.87578274798211
 31
0.0
  0
LINE
  5
418
330
1F
100
AcDbEntity
  8
0
100
AcDbLine
 10
68.7001460570122
 20
98.93459890837916
 30
0.0
 11
68.73422022799718
 21
98.67577988398237
 31
0.0
  0
LINE
  5
419
330
1F
100
AcDbEntity
  8
0
100
AcDbLine
 10
31.93422317199657
 20
71.87578202798247
 30
0.0
 11
31.93422317199711
 21
63.87578266798199
 31
0.0
  0
LINE
  5
41A
330
1F
100
AcDbEntity
  8
0
100
AcDbLine
 10
-75.96722366882348
 20
12.0948239914624
 30
0.0
 11
-76.69076647563247
 21
12.39452523499975
 31
0.0
  0
LINE
  5
41B
330
1F
100
AcDbEntity
  8
0
100
AcDbLine
 10
68.73422022799728
 20
60.87578290798301
 30
0.0
 11
68.73422022799728
 21
65.47578253998307
 31
0.0
  0
LINE
  5
41C
330
1F
100
AcDbEntity
  8
0
100
AcDbLine
 10
32.67540406759988
 20
72.84170777699727
 30
0.0
 11
32.93422309199679
 21
72.87578194798208
 31
0.0
  0
LINE
  5
41D
330
1F
100
AcDbEntity
  8
0
100
AcDbLine
 10
68.70014605701247
 20
60.61696388358572
 30
0.0
 11
68.73422022799728
 21
60.87578290798301
 31
0.0
  0
LINE
  5
41E
330
1F
100
AcDbEntity
  8
0
100
AcDbLine
 10
58.53422104399737
 20
60.43462867008603
 30
0.0
 11
58.90701322030969
 21
60.14857517229431
 31
0.0
  0
LINE
  5
41F
330
1F
100
AcDbEntity
  8
0
100
AcDbLine
 10
43.53422224399735
 20
0.8757877079813304
 30
0.0
 11
62.13422075599711
 21
54.87578338798225
 31
0.0
  0
LINE
  5
420
330
1F
100
AcDbEntity
  8
0
100
AcDbLine
 10
38.53422264399683
 20
18.87578626798196
 30
0.0
 11
38.53422264399673
 21
62.87578274798211
 31
0.0
  0
LINE
  5
421
330
1F
100
AcDbEntity
  8
0
100
AcDbLine
 10
68.60024564249977
 20
87.26350537296902
 30
0.0
 11
68.44132703261502
 21
87.05639860835171
 31
0.0
  0
LINE
  5
422
330
1F
100
AcDbEntity
  8
0
100
AcDbLine
 10
68.44132703261502
 20
87.05639860835171
 30
0.0
 11
68.23422026799712
 21
86.89747999846713
 31
0.0
  0
LINE
  5
423
330
1F
100
AcDbEntity
  8
0
100
AcDbLine
 10
68.23422026799712
 20
86.89747999846713
 30
0.0
 11
67.99303933239433
 21
86.7975795839546
 31
0.0
  0
LINE
  5
424
330
1F
100
AcDbEntity
  8
0
100
AcDbLine
 10
67.73422030799742
 20
86.76350541296927
 30
0.0
 11
53.13422147599739
 21
86.76350541296945
 31
0.0
  0
LINE
  5
425
330
1F
100
AcDbEntity
  8
0
100
AcDbLine
 10
32.22711636737892
 20
18.58289307259996
 30
0.0
 11
32.06819775749435
 21
18.37578630798175
 31
0.0
  0
LINE
  5
426
330
1F
100
AcDbEntity
  8
0
100
AcDbLine
 10
38.534222643997
 20
72.87578194798243
 30
0.0
 11
38.5342226439971
 21
88.37578070798243
 31
0.0
  0
LINE
  5
427
330
1F
100
AcDbEntity
  8
0
100
AcDbLine
 10
38.5342226439971
 20
88.37578070798243
 30
0.0
 11
32.93422309199688
 21
88.3757807079823
 31
0.0
  0
LINE
  5
428
330
1F
100
AcDbEntity
  8
0
100
AcDbLine
 10
62.13422075599684
 20
99.67577980398258
 30
0.0
 11
67.73422030799696
 21
99.67577980398258
 31
0.0
  0
LINE
  5
429
330
1F
100
AcDbEntity
  8
0
100
AcDbLine
 10
53.13422147599721
 20
98.77058799862374
 30
0.0
 11
46.53422200399686
 21
98.7757798759827
 31
0.0
  0
LINE
  5
42A
330
1F
100
AcDbEntity
  8
0
100
AcDbLine
 10
46.53422200399686
 20
98.7757798759827
 30
0.0
 11
46.53799851350997
 21
103.5740493732406
 31
0.0
  0
LINE
  5
42B
330
1F
100
AcDbEntity
  8
0
100
AcDbLine
 10
55.89555476777046
 20
58.40990882406684
 30
0.0
 11
55.83422125999715
 21
58.87578306798137
 31
0.0
  0
LINE
  5
42C
330
1F
100
AcDbEntity
  8
0
100
AcDbLine
 10
62.13422075599684
 20
99.67577980398258
 30
0.0
 11
62.13422075599702
 21
103.57404937324
 31
0.0
  0
LINE
  5
42D
330
1F
100
AcDbEntity
  8
0
100
AcDbLine
 10
62.13422075599711
 20
66.4757824599825
 30
0.0
 11
62.13422075599702
 21
71.75831844850092
 31
0.0
  0
LINE
  5
42E
330
1F
100
AcDbEntity
  8
0
100
AcDbLine
 10
53.13422147599712
 20
89.4757806199826
 30
0.0
 11
46.53422200399713
 21
89.47578061998252
 31
0.0
  0
LINE
  5
42F
330
1F
100
AcDbEntity
  8
0
100
AcDbLine
 10
62.13422075599747
 20
59.87578298798282
 30
0.0
 11
62.13422075599711
 21
54.87578338798225
 31
0.0
  0
LINE
  5
430
330
1F
100
AcDbEntity
  8
0
100
AcDbLine
 10
53.13422147599721
 20
65.97578249998202
 30
0.0
 11
53.13422147599712
 21
71.75831844850114
 31
0.0
  0
LINE
  5
431
330
1F
100
AcDbEntity
  8
0
100
AcDbLine
 10
46.53422200399704
 20
65.97578249998206
 30
0.0
 11
53.13422147599721
 21
65.97578249998202
 31
0.0
  0
LINE
  5
432
330
1F
100
AcDbEntity
  8
0
100
AcDbLine
 10
58.10009535991165
 20
57.13711671975454
 30
0.0
 11
57.63422111599711
 21
57.07578321198176
 31
0.0
  0
LINE
  5
433
330
1F
100
AcDbEntity
  8
0
100
AcDbLine
 10
-78.96722342882371
 20
12.09482399146249
 30
0.0
 11
-79.58854372267768
 21
11.61806816180921
 31
0.0
  0
LINE
  5
434
330
1F
100
AcDbEntity
  8
0
100
AcDbLine
 10
-77.46722354882368
 20
12.49674774795519
 30
0.0
 11
-78.24368062201472
 21
12.39452523500007
 31
0.0
  0
LINE
  5
435
330
1F
100
AcDbEntity
  8
0
100
AcDbLine
 10
-75.34590337496934
 20
11.61806816180908
 30
0.0
 11
-75.96722366882348
 21
12.0948239914624
 31
0.0
  0
LINE
  5
436
330
1F
100
AcDbEntity
  8
0
100
AcDbLine
 10
-74.86914754531605
 20
10.99674786795494
 30
0.0
 11
-75.34590337496934
 21
11.61806816180908
 31
0.0
  0
LINE
  5
437
330
1F
100
AcDbEntity
  8
0
100
AcDbLine
 10
-74.56944630177848
 20
10.27320506114617
 30
0.0
 11
-74.86914754531605
 21
10.99674786795494
 31
0.0
  0
LINE
  5
438
330
1F
100
AcDbEntity
  8
0
100
AcDbLine
 10
-80.36500079586853
 20
10.27320506114599
 30
0.0
 11
-80.46722330882373
 21
9.496747987955267
 31
0.0
  0
LINE
  5
439
330
1F
100
AcDbEntity
  8
0
100
AcDbLine
 10
-78.24368062201437
 20
6.598970740910197
 30
0.0
 11
-77.46722354882333
 21
6.496748227954938
 31
0.0
  0
LINE
  5
43A
330
1F
100
AcDbEntity
  8
0
100
AcDbLine
 10
-78.96722342882353
 20
6.898671984447686
 30
0.0
 11
-78.24368062201437
 21
6.598970740910197
 31
0.0
  0
LINE
  5
43B
330
1F
100
AcDbEntity
  8
0
100
AcDbLine
 10
-79.5885437226775
 20
7.375427814100962
 30
0.0
 11
-78.96722342882353
 21
6.898671984447686
 31
0.0
  0
LINE
  5
43C
330
1F
100
AcDbEntity
  8
0
100
AcDbLine
 10
-80.06529955233077
 20
7.996748107954787
 30
0.0
 11
-79.5885437226775
 21
7.375427814100962
 31
0.0
  0
LINE
  5
43D
330
1F
100
AcDbEntity
  8
0
100
AcDbLine
 10
-80.3650007958689
 20
8.720290914764412
 30
0.0
 11
-80.06529955233077
 21
7.996748107954787
 31
0.0
  0
LINE
  5
43E
330
1F
100
AcDbEntity
  8
0
100
AcDbLine
 10
-80.46722330882373
 20
9.496747987955267
 30
0.0
 11
-80.3650007958689
 21
8.720290914764412
 31
0.0
  0
LINE
  5
43F
330
1F
100
AcDbEntity
  8
0
100
AcDbLine
 10
53.13422147599739
 20
86.76350541296945
 30
0.0
 11
53.13422147599712
 21
89.4757806199826
 31
0.0
  0
LINE
  5
440
330
1F
100
AcDbEntity
  8
0
100
AcDbLine
 10
32.93422309199698
 20
18.87578626798151
 30
0.0
 11
38.53422264399683
 21
18.87578626798196
 31
0.0
  0
LINE
  5
441
330
1F
100
AcDbEntity
  8
0
100
AcDbLine
 10
21.60109347729212
 20
-51.42401848435875
 30
0.0
 11
-41.49968812254956
 21
-51.42008462511959
 31
0.0
  0
LINE
  5
442
330
1F
100
AcDbEntity
  8
0
100
AcDbLine
 10
-66.37100094633635
 20
0.1810152632168478
 30
0.0
 11
-66.37115971811993
 21
-0.0207132908814416
 31
0.0
  0
LINE
  5
443
330
1F
100
AcDbEntity
  8
0
100
AcDbLine
 10
-9.920857318539408
 20
-98.51001136636307
 30
0.0
 11
-9.94890399870768
 21
-98.51370378185625
 31
0.0
  0
LINE
  5
444
330
1F
100
AcDbEntity
  8
0
100
AcDbLine
 10
-72.97115714803029
 20
-0.0155214151285799
 30
0.0
 11
-72.97100254281645
 21
0.181015263216938
 31
0.0
  0
LINE
  5
445
330
1F
100
AcDbEntity
  8
0
100
AcDbLine
 10
-9.94890399870768
 20
-98.51370378185625
 30
0.0
 11
-9.9769506788764
 21
-98.5100113663628
 31
0.0
  0
ENDSEC
  0
SECTION
  2
OBJECTS
  0
DICTIONARY
  5
C
330
0
100
AcDbDictionary
281
     1
  3
ACAD_GROUP
350
D
  3
ACAD_LAYOUT
350
1A
  3
ACAD_MATERIAL
350
3B
  3
ACAD_MLEADERSTYLE
350
447
  3
ACAD_MLINESTYLE
350
17
  3
ACAD_PLOTSETTINGS
350
19
  3
ACAD_PLOTSTYLENAME
350
E
  3
ACAD_TABLESTYLE
350
446
  3
ACAD_VISUALSTYLE
350
2A
  0
DICTIONARY
  5
D
102
{ACAD_REACTORS
330
C
102
}
330
C
100
AcDbDictionary
281
     1
  0
DICTIONARY
  5
1A
102
{ACAD_REACTORS
330
C
102
}
330
C
100
AcDbDictionary
281
     1
  3
Layout1
350
1E
  3
Layout2
350
26
  3
Model
350
22
  0
DICTIONARY
  5
3B
102
{ACAD_REACTORS
330
C
102
}
330
C
100
AcDbDictionary
281
     1
  3
ByBlock
350
3D
  3
ByLayer
350
3C
  3
Global
350
3E
  0
DICTIONARY
  5
447
102
{ACAD_REACTORS
330
C
102
}
330
C
100
AcDbDictionary
281
     1
  0
DICTIONARY
  5
17
102
{ACAD_REACTORS
330
C
102
}
330
C
100
AcDbDictionary
281
     1
  3
Standard
350
18
  0
DICTIONARY
  5
19
102
{ACAD_REACTORS
330
C
102
}
330
C
100
AcDbDictionary
281
     1
  0
ACDBDICTIONARYWDFLT
  5
E
102
{ACAD_REACTORS
330
C
102
}
330
C
100
AcDbDictionary
281
     1
  3
Normal
350
F
100
AcDbDictionaryWithDefault
340
F
  0
DICTIONARY
  5
446
102
{ACAD_REACTORS
330
C
102
}
330
C
100
AcDbDictionary
281
     1
  0
DICTIONARY
  5
2A
102
{ACAD_REACTORS
330
C
102
}
330
C
100
AcDbDictionary
281
     1
  3
2dWireframe
350
2F
  3
3D Hidden
350
31
  3
3dWireframe
350
30
  3
Basic
350
32
  3
Brighten
350
36
  3
ColorChange
350
3A
  3
Conceptual
350
34
  3
Dim
350
35
  3
Facepattern
350
39
  3
Flat
350
2B
  3
FlatWithEdges
350
2C
  3
Gouraud
350
2D
  3
GouraudWithEdges
350
2E
  3
Linepattern
350
38
  3
Realistic
350
33
  3
Thicken
350
37
  0
LAYOUT
  5
1E
102
{ACAD_REACTORS
330
1A
102
}
330
1A
100
AcDbPlotSettings
  1

  2
none_device
  4

  6

 40
0.0
 41
0.0
 42
0.0
 43
0.0
 44
0.0
 45
0.0
 46
0.0
 47
0.0
 48
0.0
 49
0.0
140
0.0
141
0.0
142
1.0
143
1.0
 70
   688
 72
     0
 73
     0
 74
     5
  7

 75
    16
 76
     0
 77
     2
 78
   300
147
1.0
148
0.0
149
0.0
100
AcDbLayout
  1
Layout1
 70
     1
 71
     1
 10
0.0
 20
0.0
 11
12.0
 21
9.0
 12
0.0
 22
0.0
 32
0.0
 14
1.000000000000000E+20
 24
1.000000000000000E+20
 34
1.000000000000000E+20
 15
-1.000000000000000E+20
 25
-1.000000000000000E+20
 35
-1.000000000000000E+20
146
0.0
 13
0.0
 23
0.0
 33
0.0
 16
1.0
 26
0.0
 36
0.0
 17
0.0
 27
1.0
 37
0.0
 76
     0
330
1B
  0
LAYOUT
  5
26
102
{ACAD_REACTORS
330
1A
102
}
330
1A
100
AcDbPlotSettings
  1

  2
none_device
  4

  6

 40
0.0
 41
0.0
 42
0.0
 43
0.0
 44
0.0
 45
0.0
 46
0.0
 47
0.0
 48
0.0
 49
0.0
140
0.0
141
0.0
142
1.0
143
1.0
 70
   688
 72
     0
 73
     0
 74
     5
  7

 75
    16
 76
     0
 77
     2
 78
   300
147
1.0
148
0.0
149
0.0
100
AcDbLayout
  1
Layout2
 70
     1
 71
     2
 10
0.0
 20
0.0
 11
0.0
 21
0.0
 12
0.0
 22
0.0
 32
0.0
 14
0.0
 24
0.0
 34
0.0
 15
0.0
 25
0.0
 35
0.0
146
0.0
 13
0.0
 23
0.0
 33
0.0
 16
1.0
 26
0.0
 36
0.0
 17
0.0
 27
1.0
 37
0.0
 76
     0
330
23
  0
LAYOUT
  5
22
102
{ACAD_REACTORS
330
1A
102
}
330
1A
100
AcDbPlotSettings
  1

  2
none_device
  4

  6

 40
0.0
 41
0.0
 42
0.0
 43
0.0
 44
0.0
 45
0.0
 46
0.0
 47
0.0
 48
0.0
 49
0.0
140
0.0
141
0.0
142
1.0
143
1.0
 70
  1712
 72
     0
 73
     0
 74
     0
  7

 75
     0
 76
     0
 77
     2
 78
   300
147
1.0
148
0.0
149
0.0
100
AcDbLayout
  1
Model
 70
     1
 71
     0
 10
0.0
 20
0.0
 11
12.0
 21
9.0
 12
0.0
 22
0.0
 32
0.0
 14
1.000000000000000E+20
 24
1.000000000000000E+20
 34
1.000000000000000E+20
 15
-1.000000000000000E+20
 25
-1.000000000000000E+20
 35
-1.000000000000000E+20
146
0.0
 13
0.0
 23
0.0
 33
0.0
 16
1.0
 26
0.0
 36
0.0
 17
0.0
 27
1.0
 37
0.0
 76
     0
330
1F
331
29
  0
MATERIAL
  5
3D
102
{ACAD_REACTORS
330
3B
102
}
330
3B
100
AcDbMaterial
  1
ByBlock
 72
     1
 94
      127
  0
MATERIAL
  5
3C
102
{ACAD_REACTORS
330
3B
102
}
330
3B
100
AcDbMaterial
  1
ByLayer
 72
     1
 94
      127
  0
MATERIAL
  5
3E
102
{ACAD_REACTORS
330
3B
102
}
330
3B
100
AcDbMaterial
  1
Global
 72
     1
 94
      127
  0
MLINESTYLE
  5
18
102
{ACAD_REACTORS
330
17
102
}
330
17
100
AcDbMlineStyle
  2
Standard
 70
     0
  3

 62
   256
 51
90.0
 52
90.0
 71
     2
 49
0.5
 62
   256
  6
BYLAYER
 49
-0.5
 62
   256
  6
BYLAYER
  0
ACDBPLACEHOLDER
  5
F
102
{ACAD_REACTORS
330
E
102
}
330
E
  0
VISUALSTYLE
  5
2F
102
{ACAD_REACTORS
330
2A
102
}
330
2A
100
AcDbVisualStyle
  2
2dWireframe
 70
     4
177
     2
291
     0
 71
     0
176
     1
 72
     2
176
     1
 73
     0
176
     1
 90
        0
176
     1
 40
-0.6
176
     1
 41
-30.0
176
     1
 62
     5
 63
     7
421
 16777215
176
     1
 74
     1
176
     1
 91
        4
176
     1
 64
     7
176
     1
 65
   257
176
     1
 75
     1
176
     1
175
     1
176
     1
 42
1.0
176
     1
 92
        0
176
     1
 66
   257
176
     1
 43
1.0
176
     1
 76
     1
176
     1
 77
     6
176
     1
 78
     2
176
     1
 67
     7
176
     1
 79
     5
176
     1
170
     0
176
     1
171
     0
176
     1
290
     0
176
     1
 93
        1
176
     1
 44
0.0
176
     1
173
     0
176
     1
  0
VISUALSTYLE
  5
31
102
{ACAD_REACTORS
330
2A
102
}
330
2A
100
AcDbVisualStyle
  2
3D Hidden
 70
     6
177
     2
291
     0
 71
     1
176
     1
 72
     2
176
     1
 73
     2
176
     1
 90
        0
176
     1
 40
-0.6
176
     1
 41
-30.0
176
     1
 62
     5
 63
     7
421
 16777215
176
     1
 74
     2
176
     1
 91
        2
176
     1
 64
     7
176
     1
 65
   257
176
     1
 75
     2
176
     1
175
     1
176
     1
 42
40.0
176
     1
 92
        0
176
     1
 66
   257
176
     1
 43
1.0
176
     1
 76
     1
176
     1
 77
     6
176
     1
 78
     2
176
     1
 67
     7
176
     1
 79
     3
176
     1
170
     0
176
     1
171
     0
176
     1
290
     0
176
     1
 93
        1
176
     1
 44
0.0
176
     1
173
     0
176
     1
  0
VISUALSTYLE
  5
30
102
{ACAD_REACTORS
330
2A
102
}
330
2A
100
AcDbVisualStyle
  2
3dWireframe
 70
     5
177
     2
291
     0
 71
     0
176
     1
 72
     2
176
     1
 73
     0
176
     1
 90
        0
176
     1
 40
-0.6
176
     1
 41
-30.0
176
     1
 62
     5
 63
     7
421
 16777215
176
     1
 74
     1
176
     1
 91
        4
176
     1
 64
     7
176
     1
 65
   257
176
     1
 75
     1
176
     1
175
     1
176
     1
 42
1.0
176
     1
 92
        0
176
     1
 66
   257
176
     1
 43
1.0
176
     1
 76
     1
176
     1
 77
     6
176
     1
 78
     2
176
     1
 67
     7
176
     1
 79
     5
176
     1
170
     0
176
     1
171
     0
176
     1
290
     0
176
     1
 93
        1
176
     1
 44
0.0
176
     1
173
     0
176
     1
  0
VISUALSTYLE
  5
32
102
{ACAD_REACTORS
330
2A
102
}
330
2A
100
AcDbVisualStyle
  2
Basic
 70
     7
177
     2
291
     1
 71
     1
176
     1
 72
     0
176
     1
 73
     1
176
     1
 90
        0
176
     1
 40
-0.6
176
     1
 41
-30.0
176
     1
 62
     5
 63
     7
421
 16777215
176
     1
 74
     0
176
     1
 91
        4
176
     1
 64
     7
176
     1
 65
   257
176
     1
 75
     1
176
     1
175
     1
176
     1
 42
1.0
176
     1
 92
        8
176
     1
 66
     7
176
     1
 43
1.0
176
     1
 76
     1
176
     1
 77
     6
176
     1
 78
     2
176
     1
 67
     7
176
     1
 79
     5
176
     1
170
     0
176
     1
171
     0
176
     1
290
     0
176
     1
 93
        1
176
     1
 44
0.0
176
     1
173
     0
176
     1
  0
VISUALSTYLE
  5
36
102
{ACAD_REACTORS
330
2A
102
}
330
2A
100
AcDbVisualStyle
  2
Brighten
 70
    12
177
     2
291
     1
 71
     2
176
     1
 72
     2
176
     1
 73
     0
176
     1
 90
        0
176
     1
 40
-0.6
176
     1
 41
-30.0
176
     1
 62
     5
 63
     7
421
 16777215
176
     1
 74
     1
176
     1
 91
        4
176
     1
 64
     7
176
     1
 65
   257
176
     1
 75
     1
176
     1
175
     1
176
     1
 42
1.0
176
     1
 92
        8
176
     1
 66
     7
176
     1
 43
1.0
176
     1
 76
     1
176
     1
 77
     6
176
     1
 78
     2
176
     1
 67
     7
176
     1
 79
     5
176
     1
170
     0
176
     1
171
     0
176
     1
290
     0
176
     1
 93
        1
176
     1
 44
50.0
176
     1
173
     0
176
     1
  0
VISUALSTYLE
  5
3A
102
{ACAD_REACTORS
330
2A
102
}
330
2A
100
AcDbVisualStyle
  2
ColorChange
 70
    16
177
     2
291
     1
 71
     2
176
     1
 72
     2
176
     1
 73
     3
176
     1
 90
        0
176
     1
 40
-0.6
176
     1
 41
-30.0
176
     1
 62
     5
 63
     8
421
  8421504
176
     1
 74
     1
176
     1
 91
        4
176
     1
 64
     7
176
     1
 65
   257
176
     1
 75
     1
176
     1
175
     1
176
     1
 42
1.0
176
     1
 92
        8
176
     1
 66
     8
424
  8421504
176
     1
 43
1.0
176
     1
 76
     1
176
     1
 77
     6
176
     1
 78
     2
176
     1
 67
     7
176
     1
 79
     5
176
     1
170
     0
176
     1
171
     0
176
     1
290
     0
176
     1
 93
        1
176
     1
 44
0.0
176
     1
173
     0
176
     1
  0
VISUALSTYLE
  5
34
102
{ACAD_REACTORS
330
2A
102
}
330
2A
100
AcDbVisualStyle
  2
Conceptual
 70
     9
177
     2
291
     0
 71
     3
176
     1
 72
     2
176
     1
 73
     0
176
     1
 90
        0
176
     1
 40
-0.6
176
     1
 41
-30.0
176
     1
 62
     5
 63
     7
421
 16777215
176
     1
 74
     2
176
     1
 91
        2
176
     1
 64
     7
176
     1
 65
   257
176
     1
 75
     1
176
     1
175
     1
176
     1
 42
40.0
176
     1
 92
        8
176
     1
 66
     7
176
     1
 43
1.0
176
     1
 76
     1
176
     1
 77
     6
176
     1
 78
     2
176
     1
 67
     7
176
     1
 79
     3
176
     1
170
     0
176
     1
171
     0
176
     1
290
     0
176
     1
 93
        1
176
     1
 44
0.0
176
     1
173
     0
176
     1
  0
VISUALSTYLE
  5
35
102
{ACAD_REACTORS
330
2A
102
}
330
2A
100
AcDbVisualStyle
  2
Dim
 70
    11
177
     2
291
     1
 71
     2
176
     1
 72
     2
176
     1
 73
     0
176
     1
 90
        0
176
     1
 40
-0.6
176
     1
 41
-30.0
176
     1
 62
     5
 63
     7
421
 16777215
176
     1
 74
     1
176
     1
 91
        4
176
     1
 64
     7
176
     1
 65
   257
176
     1
 75
     1
176
     1
175
     1
176
     1
 42
1.0
176
     1
 92
        8
176
     1
 66
     7
176
     1
 43
1.0
176
     1
 76
     1
176
     1
 77
     6
176
     1
 78
     2
176
     1
 67
     7
176
     1
 79
     5
176
     1
170
     0
176
     1
171
     0
176
     1
290
     0
176
     1
 93
        1
176
     1
 44
-50.0
176
     1
173
     0
176
     1
  0
VISUALSTYLE
  5
39
102
{ACAD_REACTORS
330
2A
102
}
330
2A
100
AcDbVisualStyle
  2
Facepattern
 70
    15
177
     2
291
     1
 71
     2
176
     1
 72
     2
176
     1
 73
     0
176
     1
 90
        0
176
     1
 40
-0.6
176
     1
 41
-30.0
176
     1
 62
     5
 63
     7
421
 16777215
176
     1
 74
     1
176
     1
 91
        4
176
     1
 64
     7
176
     1
 65
   257
176
     1
 75
     1
176
     1
175
     1
176
     1
 42
1.0
176
     1
 92
        8
176
     1
 66
     7
176
     1
 43
1.0
176
     1
 76
     1
176
     1
 77
     6
176
     1
 78
     2
176
     1
 67
     7
176
     1
 79
     5
176
     1
170
     0
176
     1
171
     0
176
     1
290
     0
176
     1
 93
        1
176
     1
 44
0.0
176
     1
173
     0
176
     1
  0
VISUALSTYLE
  5
2B
102
{ACAD_REACTORS
330
2A
102
}
330
2A
100
AcDbVisualStyle
  2
Flat
 70
     0
177
     2
291
     1
 71
     2
176
     1
 72
     1
176
     1
 73
     1
176
     1
 90
        2
176
     1
 40
-0.6
176
     1
 41
30.0
176
     1
 62
     5
 63
     7
421
 16777215
176
     1
 74
     0
176
     1
 91
        4
176
     1
 64
     7
176
     1
 65
   257
176
     1
 75
     1
176
     1
175
     1
176
     1
 42
1.0
176
     1
 92
        8
176
     1
 66
     7
176
     1
 43
1.0
176
     1
 76
     1
176
     1
 77
     6
176
     1
 78
     2
176
     1
 67
     7
176
     1
 79
     5
176
     1
170
     0
176
     1
171
     0
176
     1
290
     0
176
     1
 93
       13
176
     1
 44
0.0
176
     1
173
     0
176
     1
  0
VISUALSTYLE
  5
2C
102
{ACAD_REACTORS
330
2A
102
}
330
2A
100
AcDbVisualStyle
  2
FlatWithEdges
 70
     1
177
     2
291
     1
 71
     2
176
     1
 72
     1
176
     1
 73
     1
176
     1
 90
        2
176
     1
 40
-0.6
176
     1
 41
30.0
176
     1
 62
     5
 63
     7
421
 16777215
176
     1
 74
     1
176
     1
 91
        4
176
     1
 64
     7
176
     1
 65
   257
176
     1
 75
     1
176
     1
175
     1
176
     1
 42
1.0
176
     1
 92
        0
176
     1
 66
   257
176
     1
 43
1.0
176
     1
 76
     1
176
     1
 77
     6
176
     1
 78
     2
176
     1
 67
     7
176
     1
 79
     5
176
     1
170
     0
176
     1
171
     0
176
     1
290
     0
176
     1
 93
       13
176
     1
 44
0.0
176
     1
173
     0
176
     1
  0
VISUALSTYLE
  5
2D
102
{ACAD_REACTORS
330
2A
102
}
330
2A
100
AcDbVisualStyle
  2
Gouraud
 70
     2
177
     2
291
     1
 71
     2
176
     1
 72
     2
176
     1
 73
     1
176
     1
 90
        2
176
     1
 40
-0.6
176
     1
 41
30.0
176
     1
 62
     5
 63
     7
421
 16777215
176
     1
 74
     0
176
     1
 91
        4
176
     1
 64
     7
176
     1
 65
   257
176
     1
 75
     1
176
     1
175
     1
176
     1
 42
1.0
176
     1
 92
        0
176
     1
 66
     7
176
     1
 43
1.0
176
     1
 76
     1
176
     1
 77
     6
176
     1
 78
     2
176
     1
 67
     7
176
     1
 79
     5
176
     1
170
     0
176
     1
171
     0
176
     1
290
     0
176
     1
 93
       13
176
     1
 44
0.0
176
     1
173
     0
176
     1
  0
VISUALSTYLE
  5
2E
102
{ACAD_REACTORS
330
2A
102
}
330
2A
100
AcDbVisualStyle
  2
GouraudWithEdges
 70
     3
177
     2
291
     1
 71
     2
176
     1
 72
     2
176
     1
 73
     1
176
     1
 90
        2
176
     1
 40
-0.6
176
     1
 41
30.0
176
     1
 62
     5
 63
     7
421
 16777215
176
     1
 74
     1
176
     1
 91
        4
176
     1
 64
     7
176
     1
 65
   257
176
     1
 75
     1
176
     1
175
     1
176
     1
 42
1.0
176
     1
 92
        0
176
     1
 66
   257
176
     1
 43
1.0
176
     1
 76
     1
176
     1
 77
     6
176
     1
 78
     2
176
     1
 67
     7
176
     1
 79
     5
176
     1
170
     0
176
     1
171
     0
176
     1
290
     0
176
     1
 93
       13
176
     1
 44
0.0
176
     1
173
     0
176
     1
  0
VISUALSTYLE
  5
38
102
{ACAD_REACTORS
330
2A
102
}
330
2A
100
AcDbVisualStyle
  2
Linepattern
 70
    14
177
     2
291
     1
 71
     2
176
     1
 72
     2
176
     1
 73
     0
176
     1
 90
        0
176
     1
 40
-0.6
176
     1
 41
-30.0
176
     1
 62
     5
 63
     7
421
 16777215
176
     1
 74
     1
176
     1
 91
        4
176
     1
 64
     7
176
     1
 65
   257
176
     1
 75
     7
176
     1
175
     7
176
     1
 42
1.0
176
     1
 92
        8
176
     1
 66
     7
176
     1
 43
1.0
176
     1
 76
     1
176
     1
 77
     6
176
     1
 78
     2
176
     1
 67
     7
176
     1
 79
     5
176
     1
170
     0
176
     1
171
     0
176
     1
290
     0
176
     1
 93
        1
176
     1
 44
0.0
176
     1
173
     0
176
     1
  0
VISUALSTYLE
  5
33
102
{ACAD_REACTORS
330
2A
102
}
330
2A
100
AcDbVisualStyle
  2
Realistic
 70
     8
177
     2
291
     0
 71
     2
176
     1
 72
     2
176
     1
 73
     0
176
     1
 90
        0
176
     1
 40
-0.6
176
     1
 41
-30.0
176
     1
 62
     5
 63
     7
421
 16777215
176
     1
 74
     1
176
     1
 91
        0
176
     1
 64
     7
176
     1
 65
   257
176
     1
 75
     1
176
     1
175
     1
176
     1
 42
1.0
176
     1
 92
        8
176
     1
 66
     8
424
  7895160
176
     1
 43
1.0
176
     1
 76
     1
176
     1
 77
     6
176
     1
 78
     2
176
     1
 67
     7
176
     1
 79
     5
176
     1
170
     0
176
     1
171
     0
176
     1
290
     0
176
     1
 93
       13
176
     1
 44
0.0
176
     1
173
     0
176
     1
  0
VISUALSTYLE
  5
37
102
{ACAD_REACTORS
330
2A
102
}
330
2A
100
AcDbVisualStyle
  2
Thicken
 70
    13
177
     2
291
     1
 71
     2
176
     1
 72
     2
176
     1
 73
     0
176
     1
 90
        0
176
     1
 40
-0.6
176
     1
 41
-30.0
176
     1
 62
     5
 63
     7
421
 16777215
176
     1
 74
     1
176
     1
 91
        4
176
     1
 64
     7
176
     1
 65
   257
176
     1
 75
     1
176
     1
175
     1
176
     1
 42
1.0
176
     1
 92
       12
176
     1
 66
     7
176
     1
 43
1.0
176
     1
 76
     1
176
     1
 77
     6
176
     1
 78
     2
176
     1
 67
     7
176
     1
 79
     5
176
     1
170
     0
176
     1
171
     0
176
     1
290
     0
176
     1
 93
        1
176
     1
 44
0.0
176
     1
173
     0
176
     1
  0
ENDSEC
  0
EOF
