  0
SECTION
  2
HEADER
  9
$ACADVER
  1
AC1024
  9
$ACADMAINTVER
 70
     6
  9
$DWGCODEPAGE
  3
ANSI_1252
  9
$INSBASE
 10
0.0
 20
0.0
 30
0.0
  9
$EXTMIN
 10
1.000000000000000E+20
 20
1.000000000000000E+20
 30
1.000000000000000E+20
  9
$EXTMAX
 10
-1.000000000000000E+20
 20
-1.000000000000000E+20
 30
-1.000000000000000E+20
  9
$LIMMIN
 10
0.0
 20
0.0
  9
$LIMMAX
 10
12.0
 20
9.0
  9
$ORTHOMODE
 70
     0
  9
$REGENMODE
 70
     1
  9
$FILLMODE
 70
     1
  9
$QTEXTMODE
 70
     0
  9
$MIRRTEXT
 70
     1
  9
$LTSCALE
 40
1.0
  9
$ATTMODE
 70
     1
  9
$TEXTSIZE
 40
0.2
  9
$TRACEWID
 40
0.05
  9
$TEXTSTYLE
  7
Standard
  9
$CLAYER
  8
0
  9
$CELTYPE
  6
ByLayer
  9
$CECOLOR
 62
   256
  9
$CELTSCALE
 40
1.0
  9
$DISPSILH
 70
     0
  9
$DIMSCALE
 40
1.0
  9
$DIMASZ
 40
0.18
  9
$DIMEXO
 40
0.0625
  9
$DIMDLI
 40
0.38
  9
$DIMRND
 40
0.0
  9
$DIMDLE
 40
0.0
  9
$DIMEXE
 40
0.18
  9
$DIMTP
 40
0.0
  9
$DIMTM
 40
0.0
  9
$DIMTXT
 40
0.18
  9
$DIMCEN
 40
0.09
  9
$DIMTSZ
 40
0.0
  9
$DIMTOL
 70
     0
  9
$DIMLIM
 70
     0
  9
$DIMTIH
 70
     1
  9
$DIMTOH
 70
     1
  9
$DIMSE1
 70
     0
  9
$DIMSE2
 70
     0
  9
$DIMTAD
 70
     0
  9
$DIMZIN
 70
     0
  9
$DIMBLK
  1

  9
$DIMASO
 70
     1
  9
$DIMSHO
 70
     1
  9
$DIMPOST
  1

  9
$DIMAPOST
  1

  9
$DIMALT
 70
     0
  9
$DIMALTD
 70
     2
  9
$DIMALTF
 40
25.4
  9
$DIMLFAC
 40
1.0
  9
$DIMTOFL
 70
     0
  9
$DIMTVP
 40
0.0
  9
$DIMTIX
 70
     0
  9
$DIMSOXD
 70
     0
  9
$DIMSAH
 70
     0
  9
$DIMBLK1
  1

  9
$DIMBLK2
  1

  9
$DIMSTYLE
  2
Standard
  9
$DIMCLRD
 70
     0
  9
$DIMCLRE
 70
     0
  9
$DIMCLRT
 70
     0
  9
$DIMTFAC
 40
1.0
  9
$DIMGAP
 40
0.09
  9
$DIMJUST
 70
     0
  9
$DIMSD1
 70
     0
  9
$DIMSD2
 70
     0
  9
$DIMTOLJ
 70
     1
  9
$DIMTZIN
 70
     0
  9
$DIMALTZ
 70
     0
  9
$DIMALTTZ
 70
     0
  9
$DIMUPT
 70
     0
  9
$DIMDEC
 70
     4
  9
$DIMTDEC
 70
     4
  9
$DIMALTU
 70
     2
  9
$DIMALTTD
 70
     2
  9
$DIMTXSTY
  7
Standard
  9
$DIMAUNIT
 70
     0
  9
$DIMADEC
 70
     0
  9
$DIMALTRND
 40
0.0
  9
$DIMAZIN
 70
     0
  9
$DIMDSEP
 70
    46
  9
$DIMATFIT
 70
     3
  9
$DIMFRAC
 70
     0
  9
$DIMLDRBLK
  1

  9
$DIMLUNIT
 70
     2
  9
$DIMLWD
 70
    -2
  9
$DIMLWE
 70
    -2
  9
$DIMTMOVE
 70
     0
  9
$DIMFXL
 40
1.0
  9
$DIMFXLON
 70
     0
  9
$DIMJOGANG
 40
0.7853981633974483
  9
$DIMTFILL
 70
     0
  9
$DIMTFILLCLR
 70
     0
  9
$DIMARCSYM
 70
     0
  9
$DIMLTYPE
  6

  9
$DIMLTEX1
  6

  9
$DIMLTEX2
  6

  9
$DIMTXTDIRECTION
 70
     0
  9
$LUNITS
 70
     2
  9
$LUPREC
 70
     4
  9
$SKETCHINC
 40
0.1
  9
$FILLETRAD
 40
0.5
  9
$AUNITS
 70
     0
  9
$AUPREC
 70
     0
  9
$MENU
  1
.
  9
$ELEVATION
 40
0.0
  9
$PELEVATION
 40
0.0
  9
$THICKNESS
 40
0.0
  9
$LIMCHECK
 70
     0
  9
$CHAMFERA
 40
0.5
  9
$CHAMFERB
 40
0.5
  9
$CHAMFERC
 40
1.0
  9
$CHAMFERD
 40
0.0
  9
$SKPOLY
 70
     0
  9
$TDCREATE
 40
2456396.576585868
  9
$TDUCREATE
 40
2456396.743252535
  9
$TDUPDATE
 40
2456396.57658588
  9
$TDUUPDATE
 40
2456396.743252547
  9
$TDINDWG
 40
0.0000000116
  9
$TDUSRTIMER
 40
0.0000000116
  9
$USRTIMER
 70
     1
  9
$ANGBASE
 50
0.0
  9
$ANGDIR
 70
     0
  9
$PDMODE
 70
     0
  9
$PDSIZE
 40
0.0
  9
$PLINEWID
 40
0.0
  9
$SPLFRAME
 70
     0
  9
$SPLINETYPE
 70
     6
  9
$SPLINESEGS
 70
     8
  9
$HANDSEED
  5
448
  9
$SURFTAB1
 70
     6
  9
$SURFTAB2
 70
     6
  9
$SURFTYPE
 70
     6
  9
$SURFU
 70
     6
  9
$SURFV
 70
     6
  9
$UCSBASE
  2

  9
$UCSNAME
  2

  9
$UCSORG
 10
0.0
 20
0.0
 30
0.0
  9
$UCSXDIR
 10
1.0
 20
0.0
 30
0.0
  9
$UCSYDIR
 10
0.0
 20
1.0
 30
0.0
  9
$UCSORTHOREF
  2

  9
$UCSORTHOVIEW
 70
     0
  9
$UCSORGTOP
 10
0.0
 20
0.0
 30
0.0
  9
$UCSORGBOTTOM
 10
0.0
 20
0.0
 30
0.0
  9
$UCSORGLEFT
 10
0.0
 20
0.0
 30
0.0
  9
$UCSORGRIGHT
 10
0.0
 20
0.0
 30
0.0
  9
$UCSORGFRONT
 10
0.0
 20
0.0
 30
0.0
  9
$UCSORGBACK
 10
0.0
 20
0.0
 30
0.0
  9
$PUCSBASE
  2

  9
$PUCSNAME
  2

  9
$PUCSORG
 10
0.0
 20
0.0
 30
0.0
  9
$PUCSXDIR
 10
1.0
 20
0.0
 30
0.0
  9
$PUCSYDIR
 10
0.0
 20
1.0
 30
0.0
  9
$PUCSORTHOREF
  2

  9
$PUCSORTHOVIEW
 70
     0
  9
$PUCSORGTOP
 10
0.0
 20
0.0
 30
0.0
  9
$PUCSORGBOTTOM
 10
0.0
 20
0.0
 30
0.0
  9
$PUCSORGLEFT
 10
0.0
 20
0.0
 30
0.0
  9
$PUCSORGRIGHT
 10
0.0
 20
0.0
 30
0.0
  9
$PUCSORGFRONT
 10
0.0
 20
0.0
 30
0.0
  9
$PUCSORGBACK
 10
0.0
 20
0.0
 30
0.0
  9
$USERI1
 70
     0
  9
$USERI2
 70
     0
  9
$USERI3
 70
     0
  9
$USERI4
 70
     0
  9
$USERI5
 70
     0
  9
$USERR1
 40
0.0
  9
$USERR2
 40
0.0
  9
$USERR3
 40
0.0
  9
$USERR4
 40
0.0
  9
$USERR5
 40
0.0
  9
$WORLDVIEW
 70
     1
  9
$SHADEDGE
 70
     3
  9
$SHADEDIF
 70
    70
  9
$TILEMODE
 70
     1
  9
$MAXACTVP
 70
    64
  9
$PINSBASE
 10
0.0
 20
0.0
 30
0.0
  9
$PLIMCHECK
 70
     0
  9
$PEXTMIN
 10
1.000000000000000E+20
 20
1.000000000000000E+20
 30
1.000000000000000E+20
  9
$PEXTMAX
 10
-1.000000000000000E+20
 20
-1.000000000000000E+20
 30
-1.000000000000000E+20
  9
$PLIMMIN
 10
0.0
 20
0.0
  9
$PLIMMAX
 10
12.0
 20
9.0
  9
$UNITMODE
 70
     0
  9
$VISRETAIN
 70
     1
  9
$PLINEGEN
 70
     0
  9
$PSLTSCALE
 70
     1
  9
$TREEDEPTH
 70
  3020
  9
$CMLSTYLE
  2
Standard
  9
$CMLJUST
 70
     0
  9
$CMLSCALE
 40
1.0
  9
$PROXYGRAPHICS
 70
     1
  9
$MEASUREMENT
 70
     0
  9
$CELWEIGHT
370
    -1
  9
$ENDCAPS
280
     0
  9
$JOINSTYLE
280
     0
  9
$LWDISPLAY
290
     0
  9
$INSUNITS
 70
     1
  9
$HYPERLINKBASE
  1

  9
$STYLESHEET
  1

  9
$XEDIT
290
     1
  9
$CEPSNTYPE
380
     0
  9
$PSTYLEMODE
290
     1
  9
$FINGERPRINTGUID
  2
{F4B6906C-7C0E-42B5-A3A7-9C2E2FEB86E5}
  9
$VERSIONGUID
  2
{FAEB1C32-E019-11D5-929B-00C0DF256EC4}
  9
$EXTNAMES
290
     1
  9
$PSVPSCALE
 40
0.0
  9
$OLESTARTUP
290
     0
  9
$SORTENTS
280
   127
  9
$INDEXCTL
280
     0
  9
$HIDETEXT
280
     1
  9
$XCLIPFRAME
280
     2
  9
$HALOGAP
280
     0
  9
$OBSCOLOR
 70
   257
  9
$OBSLTYPE
280
     0
  9
$INTERSECTIONDISPLAY
280
     0
  9
$INTERSECTIONCOLOR
 70
   257
  9
$DIMASSOC
280
     2
  9
$PROJECTNAME
  1

  9
$CAMERADISPLAY
290
     0
  9
$LENSLENGTH
 40
50.0
  9
$CAMERAHEIGHT
 40
0.0
  9
$STEPSPERSEC
 40
2.0
  9
$STEPSIZE
 40
6.0
  9
$3DDWFPREC
 40
2.0
  9
$PSOLWIDTH
 40
0.25
  9
$PSOLHEIGHT
 40
4.0
  9
$LOFTANG1
 40
1.570796326794897
  9
$LOFTANG2
 40
1.570796326794897
  9
$LOFTMAG1
 40
0.0
  9
$LOFTMAG2
 40
0.0
  9
$LOFTPARAM
 70
     7
  9
$LOFTNORMALS
280
     1
  9
$LATITUDE
 40
37.795
  9
$LONGITUDE
 40
-122.394
  9
$NORTHDIRECTION
 40
0.0
  9
$TIMEZONE
 70
 -8000
  9
$LIGHTGLYPHDISPLAY
280
     1
  9
$TILEMODELIGHTSYNCH
280
     1
  9
$SOLIDHIST
280
     1
  9
$SHOWHIST
280
     1
  9
$DWFFRAME
280
     2
  9
$DGNFRAME
280
     2
  9
$REALWORLDSCALE
290
     1
  9
$INTERFERECOLOR
 62
   256
  9
$CSHADOW
280
     0
  9
$SHADOWPLANELOCATION
 40
0.0
  0
ENDSEC
  0
SECTION
  2
CLASSES
  0
CLASS
  1
ACDBDICTIONARYWDFLT
  2
AcDbDictionaryWithDefault
  3
ObjectDBX Classes
 90
        0
 91
        4
280
     0
281
     0
  0
CLASS
  1
VISUALSTYLE
  2
AcDbVisualStyle
  3
ObjectDBX Classes
 90
     4095
 91
        4
280
     0
281
     0
  0
CLASS
  1
MATERIAL
  2
AcDbMaterial
  3
ObjectDBX Classes
 90
     1153
 91
        4
280
     0
281
     0
  0
ENDSEC
  0
SECTION
  2
TABLES
  0
TABLE
  2
VPORT
  5
8
330
0
100
AcDbSymbolTable
 70
     1
  0
VPORT
  5
29
330
8
100
AcDbSymbolTableRecord
100
AcDbViewportTableRecord
  2
*Active
 70
     0
 10
0.0
 20
0.0
 11
1.0
 21
1.0
 12
0.0
 22
0.0
 13
0.0
 23
0.0
 14
0.5
 24
0.5
 15
0.5
 25
0.5
 16
0.0
 26
0.0
 36
1.0
 17
0.0
 27
0.0
 37
-1000.0
 40
171.0348507523076
 41
1.822857142857143
 42
50.0
 43
3260.262431086305
 44
4012.705191314729
 50
0.0
 51
0.0
 71
     0
 72
   100
 73
     1
 74
     3
 75
     0
 76
     0
 77
     0
 78
     0
281
     0
 65
     1
110
0.0
120
0.0
130
0.0
111
1.0
121
0.0
131
0.0
112
0.0
122
1.0
132
0.0
 79
     0
146
0.0
 60
     3
 61
     5
292
     1
282
     1
141
0.0
142
0.0
 63
   250
  0
ENDTAB
  0
TABLE
  2
LTYPE
  5
5
330
0
100
AcDbSymbolTable
 70
     1
  0
LTYPE
  5
14
330
5
100
AcDbSymbolTableRecord
100
AcDbLinetypeTableRecord
  2
ByBlock
 70
     0
  3

 72
    65
 73
     0
 40
0.0
  0
LTYPE
  5
15
330
5
100
AcDbSymbolTableRecord
100
AcDbLinetypeTableRecord
  2
ByLayer
 70
     0
  3

 72
    65
 73
     0
 40
0.0
  0
LTYPE
  5
16
330
5
100
AcDbSymbolTableRecord
100
AcDbLinetypeTableRecord
  2
Continuous
 70
     0
  3
Solid line
 72
    65
 73
     0
 40
0.0
  0
ENDTAB
  0
TABLE
  2
LAYER
  5
2
330
0
100
AcDbSymbolTable
 70
     3
  0
LAYER
  5
10
330
2
100
AcDbSymbolTableRecord
100
AcDbLayerTableRecord
  2
0
 70
     0
 62
     7
  6
Continuous
370
    -3
390
F
347
3E
  0
LAYER
  5
3F
330
2
100
AcDbSymbolTableRecord
100
AcDbLayerTableRecord
  2
ProfileEdges
 70
     0
 62
     7
  6
Continuous
370
    -3
390
F
347
3E
  0
LAYER
  5
40
330
2
100
AcDbSymbolTableRecord
100
AcDbLayerTableRecord
  2
SectionCutEdges
 70
     0
 62
     7
  6
Continuous
370
    -3
390
F
347
3E
  0
ENDTAB
  0
TABLE
  2
STYLE
  5
3
330
0
100
AcDbSymbolTable
 70
     1
  0
STYLE
  5
11
330
3
100
AcDbSymbolTableRecord
100
AcDbTextStyleTableRecord
  2
Standard
 70
     0
 40
0.0
 41
1.0
 50
0.0
 71
     0
 42
0.2
  3
txt
  4

  0
ENDTAB
  0
TABLE
  2
VIEW
  5
6
330
0
100
AcDbSymbolTable
 70
     0
  0
ENDTAB
  0
TABLE
  2
UCS
  5
7
330
0
100
AcDbSymbolTable
 70
     0
  0
ENDTAB
  0
TABLE
  2
APPID
  5
9
330
0
100
AcDbSymbolTable
 70
     1
  0
APPID
  5
12
330
9
100
AcDbSymbolTableRecord
100
AcDbRegAppTableRecord
  2
ACAD
 70
     0
  0
ENDTAB
  0
TABLE
  2
DIMSTYLE
  5
A
330
0
100
AcDbSymbolTable
 70
     1
100
AcDbDimStyleTable
  0
DIMSTYLE
105
27
330
A
100
AcDbSymbolTableRecord
100
AcDbDimStyleTableRecord
  2
Standard
 70
     0
340
11
  0
ENDTAB
  0
TABLE
  2
BLOCK_RECORD
  5
1
330
0
100
AcDbSymbolTable
 70
     1
  0
BLOCK_RECORD
  5
1F
330
1
100
AcDbSymbolTableRecord
100
AcDbBlockTableRecord
  2
*Model_Space
340
22
 70
     0
280
     1
281
     0
  0
BLOCK_RECORD
  5
1B
330
1
100
AcDbSymbolTableRecord
100
AcDbBlockTableRecord
  2
*Paper_Space
340
1E
 70
     0
280
     1
281
     0
  0
BLOCK_RECORD
  5
23
330
1
100
AcDbSymbolTableRecord
100
AcDbBlockTableRecord
  2
*Paper_Space0
340
26
 70
     0
280
     1
281
     0
  0
ENDTAB
  0
ENDSEC
  0
SECTION
  2
BLOCKS
  0
BLOCK
  5
20
330
1F
100
AcDbEntity
  8
0
100
AcDbBlockBegin
  2
*Model_Space
 70
     0
 10
0.0
 20
0.0
 30
0.0
  3
*Model_Space
  1

  0
ENDBLK
  5
21
330
1F
100
AcDbEntity
  8
0
100
AcDbBlockEnd
  0
BLOCK
  5
1C
330
1B
100
AcDbEntity
 67
     1
  8
0
100
AcDbBlockBegin
  2
*Paper_Space
 70
     0
 10
0.0
 20
0.0
 30
0.0
  3
*Paper_Space
  1

  0
ENDBLK
  5
1D
330
1B
100
AcDbEntity
 67
     1
  8
0
100
AcDbBlockEnd
  0
BLOCK
  5
24
330
23
100
AcDbEntity
  8
0
100
AcDbBlockBegin
  2
*Paper_Space0
 70
     0
 10
0.0
 20
0.0
 30
0.0
  3
*Paper_Space0
  1

  0
ENDBLK
  5
25
330
23
100
AcDbEntity
  8
0
100
AcDbBlockEnd
  0
ENDSEC
  0
SECTION
  2
ENTITIES
  0
LINE
  5
41
330
1F
100
AcDbEntity
  8
0
100
AcDbLine
 10
6.096479063484257
 20
22.83617398518817
 30
0.0
 11
6.147291891812401
 21
23.3033127941049
 31
0.0
  0
LINE
  5
42
330
1F
100
AcDbEntity
  8
0
100
AcDbLine
 10
6.147291891812401
 20
23.3033127941049
 30
0.0
 11
6.317277735455543
 21
23.74138290639247
 31
0.0
  0
LINE
  5
43
330
1F
100
AcDbEntity
  8
0
100
AcDbLine
 10
6.317277735455543
 20
23.74138290639247
 30
0.0
 11
6.594852340084211
 21
24.12053056784361
 31
0.0
  0
LINE
  5
44
330
1F
100
AcDbEntity
  8
0
100
AcDbLine
 10
6.594852340084211
 20
24.12053056784361
 30
0.0
 11
6.961099455106651
 21
24.41491749190188
 31
0.0
  0
LINE
  5
45
330
1F
100
AcDbEntity
  8
0
100
AcDbLine
 10
6.961099455106651
 20
24.41491749190188
 30
0.0
 11
7.391059944886116
 21
24.60448169618976
 31
0.0
  0
LINE
  5
46
330
1F
100
AcDbEntity
  8
0
100
AcDbLine
 10
7.391059944886116
 20
24.60448169618976
 30
0.0
 11
7.855432712587525
 21
24.67630469345489
 31
0.0
  0
LINE
  5
47
330
1F
100
AcDbEntity
  8
0
100
AcDbLine
 10
72.28740980091702
 20
49.85410575792988
 30
0.0
 11
72.28740980091702
 21
46.3541060379298
 31
0.0
  0
LINE
  5
48
330
1F
100
AcDbEntity
  8
0
100
AcDbLine
 10
72.28740980091702
 20
49.85410575792988
 30
0.0
 11
72.4918548268271
 21
51.40701990431177
 31
0.0
  0
LINE
  5
49
330
1F
100
AcDbEntity
  8
0
100
AcDbLine
 10
72.4918548268271
 20
51.40701990431177
 30
0.0
 11
73.0912573139026
 21
52.85410551792976
 31
0.0
  0
LINE
  5
4A
330
1F
100
AcDbEntity
  8
0
100
AcDbLine
 10
-0.5711809635779443
 20
66.63777876583279
 30
0.0
 11
-0.5711809635779443
 21
74.64155463534613
 31
0.0
  0
LINE
  5
4B
330
1F
100
AcDbEntity
  8
0
100
AcDbLine
 10
-5.769450428835878
 20
74.64155463534594
 30
0.0
 11
-0.5711809635779443
 21
74.64155463534613
 31
0.0
  0
LINE
  5
4C
330
1F
100
AcDbEntity
  8
0
100
AcDbLine
 10
-5.769450428835878
 20
80.24155418734597
 30
0.0
 11
-5.769450428835878
 21
74.64155463534594
 31
0.0
  0
LINE
  5
4D
330
1F
100
AcDbEntity
  8
0
100
AcDbLine
 10
-5.769450428835878
 20
80.24155418734597
 30
0.0
 11
-5.803524599820769
 21
80.50037321174297
 31
0.0
  0
LINE
  5
4E
330
1F
100
AcDbEntity
  8
0
100
AcDbLine
 10
-5.803524599820769
 20
80.50037321174297
 30
0.0
 11
-5.903425014333475
 21
80.74155414734604
 31
0.0
  0
LINE
  5
4F
330
1F
100
AcDbEntity
  8
0
100
AcDbLine
 10
-5.903425014333475
 20
80.74155414734604
 30
0.0
 11
-6.062343624217782
 21
80.94866091196403
 31
0.0
  0
LINE
  5
50
330
1F
100
AcDbEntity
  8
0
100
AcDbLine
 10
-6.062343624217782
 20
80.94866091196403
 30
0.0
 11
-6.269450388835767
 21
81.1075795218485
 31
0.0
  0
LINE
  5
51
330
1F
100
AcDbEntity
  8
0
100
AcDbLine
 10
-6.269450388835767
 20
81.1075795218485
 30
0.0
 11
-6.510631324438825
 21
81.20747993636103
 31
0.0
  0
LINE
  5
52
330
1F
100
AcDbEntity
  8
0
100
AcDbLine
 10
-6.510631324438825
 20
81.20747993636103
 30
0.0
 11
-6.769450348835838
 21
81.2415541073461
 31
0.0
  0
LINE
  5
53
330
1F
100
AcDbEntity
  8
0
100
AcDbLine
 10
-6.769450348835838
 20
81.2415541073461
 30
0.0
 11
-14.76944970883605
 21
81.2415541073461
 31
0.0
  0
LINE
  5
54
330
1F
100
AcDbEntity
  8
0
100
AcDbLine
 10
-15.02826873323307
 20
81.20747993636103
 30
0.0
 11
-14.76944970883605
 21
81.2415541073461
 31
0.0
  0
LINE
  5
55
330
1F
100
AcDbEntity
  8
0
100
AcDbLine
 10
-15.26944966883613
 20
81.1075795218485
 30
0.0
 11
-15.02826873323307
 21
81.20747993636103
 31
0.0
  0
LINE
  5
56
330
1F
100
AcDbEntity
  8
0
100
AcDbLine
 10
-15.47655643345411
 20
80.94866091196403
 30
0.0
 11
-15.26944966883613
 21
81.1075795218485
 31
0.0
  0
LINE
  5
57
330
1F
100
AcDbEntity
  8
0
100
AcDbLine
 10
-15.63547504333842
 20
80.74155414734604
 30
0.0
 11
-15.47655643345411
 21
80.94866091196403
 31
0.0
  0
LINE
  5
58
330
1F
100
AcDbEntity
  8
0
100
AcDbLine
 10
-15.73537545785113
 20
80.50037321174297
 30
0.0
 11
-15.63547504333842
 21
80.74155414734604
 31
0.0
  0
LINE
  5
59
330
1F
100
AcDbEntity
  8
0
100
AcDbLine
 10
-15.76944962883601
 20
80.24155418734597
 30
0.0
 11
-15.73537545785113
 21
80.50037321174297
 31
0.0
  0
LINE
  5
5A
330
1F
100
AcDbEntity
  8
0
100
AcDbLine
 10
-15.76944962883601
 20
74.64155463534594
 30
0.0
 11
-15.76944962883601
 21
80.24155418734597
 31
0.0
  0
LINE
  5
5B
330
1F
100
AcDbEntity
  8
0
100
AcDbLine
 10
-31.26944838883602
 20
74.64155463534594
 30
0.0
 11
-15.76944962883601
 21
74.64155463534594
 31
0.0
  0
LINE
  5
5C
330
1F
100
AcDbEntity
  8
0
100
AcDbLine
 10
-31.26944838883602
 20
80.24155418734597
 30
0.0
 11
-31.26944838883602
 21
74.64155463534594
 31
0.0
  0
LINE
  5
5D
330
1F
100
AcDbEntity
  8
0
100
AcDbLine
 10
-31.30352255982091
 20
80.50037321174297
 30
0.0
 11
-31.26944838883602
 21
80.24155418734597
 31
0.0
  0
LINE
  5
5E
330
1F
100
AcDbEntity
  8
0
100
AcDbLine
 10
-31.40342297433362
 20
80.74155414734604
 30
0.0
 11
-31.30352255982091
 21
80.50037321174297
 31
0.0
  0
LINE
  5
5F
330
1F
100
AcDbEntity
  8
0
100
AcDbLine
 10
-31.56234158421792
 20
80.94866091196403
 30
0.0
 11
-31.40342297433362
 21
80.74155414734604
 31
0.0
  0
LINE
  5
60
330
1F
100
AcDbEntity
  8
0
100
AcDbLine
 10
-31.76944834883591
 20
81.1075795218485
 30
0.0
 11
-31.56234158421792
 21
80.94866091196403
 31
0.0
  0
LINE
  5
61
330
1F
100
AcDbEntity
  8
0
100
AcDbLine
 10
-32.01062928443897
 20
81.20747993636103
 30
0.0
 11
-31.76944834883591
 21
81.1075795218485
 31
0.0
  0
LINE
  5
62
330
1F
100
AcDbEntity
  8
0
100
AcDbLine
 10
-32.26944830883598
 20
81.2415541073461
 30
0.0
 11
-32.01062928443897
 21
81.20747993636103
 31
0.0
  0
LINE
  5
63
330
1F
100
AcDbEntity
  8
0
100
AcDbLine
 10
-32.26944830883598
 20
81.2415541073461
 30
0.0
 11
-40.26944766883619
 21
81.2415541073461
 31
0.0
  0
LINE
  5
64
330
1F
100
AcDbEntity
  8
0
100
AcDbLine
 10
-40.52826669323321
 20
81.20747993636103
 30
0.0
 11
-40.26944766883619
 21
81.2415541073461
 31
0.0
  0
LINE
  5
65
330
1F
100
AcDbEntity
  8
0
100
AcDbLine
 10
-40.76944762883627
 20
81.1075795218485
 30
0.0
 11
-40.52826669323321
 21
81.20747993636103
 31
0.0
  0
LINE
  5
66
330
1F
100
AcDbEntity
  8
0
100
AcDbLine
 10
-40.97655439345425
 20
80.94866091196403
 30
0.0
 11
-40.76944762883627
 21
81.1075795218485
 31
0.0
  0
LINE
  5
67
330
1F
100
AcDbEntity
  8
0
100
AcDbLine
 10
-41.13547300333856
 20
80.74155414734604
 30
0.0
 11
-40.97655439345425
 21
80.94866091196403
 31
0.0
  0
LINE
  5
68
330
1F
100
AcDbEntity
  8
0
100
AcDbLine
 10
-41.23537341785126
 20
80.50037321174297
 30
0.0
 11
-41.13547300333856
 21
80.74155414734604
 31
0.0
  0
LINE
  5
69
330
1F
100
AcDbEntity
  8
0
100
AcDbLine
 10
-41.26944758883616
 20
80.24155418734597
 30
0.0
 11
-41.23537341785126
 21
80.50037321174297
 31
0.0
  0
LINE
  5
6A
330
1F
100
AcDbEntity
  8
0
100
AcDbLine
 10
-41.26944758883616
 20
80.24155418734597
 30
0.0
 11
-41.26944758883616
 21
74.64155463534594
 31
0.0
  0
LINE
  5
6B
330
1F
100
AcDbEntity
  8
0
100
AcDbLine
 10
-85.26944406883672
 20
74.64155463534594
 30
0.0
 11
-41.26944758883616
 21
74.64155463534594
 31
0.0
  0
LINE
  5
6C
330
1F
100
AcDbEntity
  8
0
100
AcDbLine
 10
-85.26944406883672
 20
80.24155418734597
 30
0.0
 11
-85.26944406883672
 21
74.64155463534594
 31
0.0
  0
LINE
  5
6D
330
1F
100
AcDbEntity
  8
0
100
AcDbLine
 10
-85.26944406883672
 20
80.24155418734597
 30
0.0
 11
-85.30351823982161
 21
80.50037321174297
 31
0.0
  0
LINE
  5
6E
330
1F
100
AcDbEntity
  8
0
100
AcDbLine
 10
-85.30351823982161
 20
80.50037321174297
 30
0.0
 11
-85.40341865433432
 21
80.74155414734604
 31
0.0
  0
LINE
  5
6F
330
1F
100
AcDbEntity
  8
0
100
AcDbLine
 10
-85.40341865433432
 20
80.74155414734604
 30
0.0
 11
-85.56233726421863
 21
80.94866091196403
 31
0.0
  0
LINE
  5
70
330
1F
100
AcDbEntity
  8
0
100
AcDbLine
 10
-85.56233726421863
 20
80.94866091196403
 30
0.0
 11
-85.7694440288366
 21
81.1075795218485
 31
0.0
  0
LINE
  5
71
330
1F
100
AcDbEntity
  8
0
100
AcDbLine
 10
-85.7694440288366
 20
81.1075795218485
 30
0.0
 11
-86.01062496443967
 21
81.20747993636103
 31
0.0
  0
LINE
  5
72
330
1F
100
AcDbEntity
  8
0
100
AcDbLine
 10
-86.01062496443967
 20
81.20747993636103
 30
0.0
 11
-86.26944398883668
 21
81.2415541073461
 31
0.0
  0
LINE
  5
73
330
1F
100
AcDbEntity
  8
0
100
AcDbLine
 10
-86.26944398883668
 20
81.2415541073461
 30
0.0
 11
-94.2694433488369
 21
81.2415541073461
 31
0.0
  0
LINE
  5
74
330
1F
100
AcDbEntity
  8
0
100
AcDbLine
 10
-94.52826237323391
 20
81.20747993636103
 30
0.0
 11
-94.2694433488369
 21
81.2415541073461
 31
0.0
  0
LINE
  5
75
330
1F
100
AcDbEntity
  8
0
100
AcDbLine
 10
-94.76944330883697
 20
81.1075795218485
 30
0.0
 11
-94.52826237323391
 21
81.20747993636103
 31
0.0
  0
LINE
  5
76
330
1F
100
AcDbEntity
  8
0
100
AcDbLine
 10
-94.97655007345496
 20
80.94866091196403
 30
0.0
 11
-94.76944330883697
 21
81.1075795218485
 31
0.0
  0
LINE
  5
77
330
1F
100
AcDbEntity
  8
0
100
AcDbLine
 10
-95.13546868333925
 20
80.74155414734604
 30
0.0
 11
-94.97655007345496
 21
80.94866091196403
 31
0.0
  0
LINE
  5
78
330
1F
100
AcDbEntity
  8
0
100
AcDbLine
 10
-95.23536909785197
 20
80.50037321174297
 30
0.0
 11
-95.13546868333925
 21
80.74155414734604
 31
0.0
  0
LINE
  5
79
330
1F
100
AcDbEntity
  8
0
100
AcDbLine
 10
-95.26944326883685
 20
80.24155418734597
 30
0.0
 11
-95.23536909785197
 21
80.50037321174297
 31
0.0
  0
LINE
  5
7A
330
1F
100
AcDbEntity
  8
0
100
AcDbLine
 10
-95.26944326883685
 20
80.24155418734597
 30
0.0
 11
-95.26944326883685
 21
74.64155463534594
 31
0.0
  0
LINE
  5
7B
330
1F
100
AcDbEntity
  8
0
100
AcDbLine
 10
-103.2694426288369
 20
74.64155463534594
 30
0.0
 11
-95.26944326883685
 21
74.64155463534594
 31
0.0
  0
LINE
  5
7C
330
1F
100
AcDbEntity
  8
0
100
AcDbLine
 10
-103.2694426288369
 20
74.64155463534594
 30
0.0
 11
-103.2694426288369
 21
69.64155503534577
 31
0.0
  0
LINE
  5
7D
330
1F
100
AcDbEntity
  8
0
100
AcDbLine
 10
-103.2694426288369
 20
69.64155503534577
 30
0.0
 11
-49.2694469488362
 21
51.04155652334592
 31
0.0
  0
LINE
  5
7E
330
1F
100
AcDbEntity
  8
0
100
AcDbLine
 10
-44.26944734883531
 20
51.04155652334592
 30
0.0
 11
-49.2694469488362
 21
51.04155652334592
 31
0.0
  0
LINE
  5
7F
330
1F
100
AcDbEntity
  8
0
100
AcDbLine
 10
-44.26944734883531
 20
45.44155697134575
 30
0.0
 11
-44.26944734883531
 21
51.04155652334592
 31
0.0
  0
LINE
  5
80
330
1F
100
AcDbEntity
  8
0
100
AcDbLine
 10
-44.26944734883531
 20
45.44155697134575
 30
0.0
 11
-44.23537317785042
 21
45.18273794694874
 31
0.0
  0
LINE
  5
81
330
1F
100
AcDbEntity
  8
0
100
AcDbLine
 10
-44.23537317785042
 20
45.18273794694874
 30
0.0
 11
-44.13547276333772
 21
44.94155701134578
 31
0.0
  0
LINE
  5
82
330
1F
100
AcDbEntity
  8
0
100
AcDbLine
 10
-44.13547276333772
 20
44.94155701134578
 30
0.0
 11
-43.97655415345341
 21
44.73445024672779
 31
0.0
  0
LINE
  5
83
330
1F
100
AcDbEntity
  8
0
100
AcDbLine
 10
-43.97655415345341
 20
44.73445024672779
 30
0.0
 11
-43.76944738883542
 21
44.5755316368433
 31
0.0
  0
LINE
  5
84
330
1F
100
AcDbEntity
  8
0
100
AcDbLine
 10
-43.76944738883542
 20
44.5755316368433
 30
0.0
 11
-43.52826645323236
 21
44.47563122233078
 31
0.0
  0
LINE
  5
85
330
1F
100
AcDbEntity
  8
0
100
AcDbLine
 10
-43.52826645323236
 20
44.47563122233078
 30
0.0
 11
-43.26944742883535
 21
44.4415570513457
 31
0.0
  0
LINE
  5
86
330
1F
100
AcDbEntity
  8
0
100
AcDbLine
 10
-43.26944742883535
 20
44.4415570513457
 30
0.0
 11
-38.66944779683529
 21
44.4415570513457
 31
0.0
  0
LINE
  5
87
330
1F
100
AcDbEntity
  8
0
100
AcDbLine
 10
-38.41062877243827
 20
44.47563122233078
 30
0.0
 11
-38.66944779683529
 21
44.4415570513457
 31
0.0
  0
LINE
  5
88
330
1F
100
AcDbEntity
  8
0
100
AcDbLine
 10
-38.16944783683522
 20
44.5755316368433
 30
0.0
 11
-38.41062877243827
 21
44.47563122233078
 31
0.0
  0
LINE
  5
89
330
1F
100
AcDbEntity
  8
0
100
AcDbLine
 10
-37.96234107221723
 20
44.73445024672779
 30
0.0
 11
-38.16944783683522
 21
44.5755316368433
 31
0.0
  0
LINE
  5
8A
330
1F
100
AcDbEntity
  8
0
100
AcDbLine
 10
-37.80342246233293
 20
44.94155701134578
 30
0.0
 11
-37.96234107221723
 21
44.73445024672779
 31
0.0
  0
LINE
  5
8B
330
1F
100
AcDbEntity
  8
0
100
AcDbLine
 10
-37.70352204782022
 20
45.18273794694874
 30
0.0
 11
-37.80342246233293
 21
44.94155701134578
 31
0.0
  0
LINE
  5
8C
330
1F
100
AcDbEntity
  8
0
100
AcDbLine
 10
-37.66944787683533
 20
45.44155697134575
 30
0.0
 11
-37.70352204782022
 21
45.18273794694874
 31
0.0
  0
LINE
  5
8D
330
1F
100
AcDbEntity
  8
0
100
AcDbLine
 10
-37.66944787683533
 20
45.44155697134575
 30
0.0
 11
-37.66944787683533
 21
51.04155652334592
 31
0.0
  0
LINE
  5
8E
330
1F
100
AcDbEntity
  8
0
100
AcDbLine
 10
-37.66944787683533
 20
51.04155652334592
 30
0.0
 11
-32.3869118883173
 21
51.04155652334592
 31
0.0
  0
LINE
  5
8F
330
1F
100
AcDbEntity
  8
0
100
AcDbLine
 10
-32.3869118883173
 20
51.04155652334592
 30
0.0
 11
-32.3869118883173
 21
60.04155580334573
 31
0.0
  0
LINE
  5
90
330
1F
100
AcDbEntity
  8
0
100
AcDbLine
 10
-38.16944783683612
 20
60.04155580334573
 30
0.0
 11
-32.3869118883173
 21
60.04155580334573
 31
0.0
  0
LINE
  5
91
330
1F
100
AcDbEntity
  8
0
100
AcDbLine
 10
-38.16944783683612
 20
66.6415552753459
 30
0.0
 11
-38.16944783683612
 21
60.04155580334573
 31
0.0
  0
LINE
  5
92
330
1F
100
AcDbEntity
  8
0
100
AcDbLine
 10
-14.66944971683572
 20
66.6415552753459
 30
0.0
 11
-38.16944783683612
 21
66.6415552753459
 31
0.0
  0
LINE
  5
93
330
1F
100
AcDbEntity
  8
0
100
AcDbLine
 10
-14.66944971683572
 20
60.04155580334573
 30
0.0
 11
-14.66944971683572
 21
66.6415552753459
 31
0.0
  0
LINE
  5
94
330
1F
100
AcDbEntity
  8
0
100
AcDbLine
 10
-17.38172492384891
 20
60.04155580334573
 30
0.0
 11
-14.66944971683572
 21
60.04155580334573
 31
0.0
  0
LINE
  5
95
330
1F
100
AcDbEntity
  8
0
100
AcDbLine
 10
-17.38172492384891
 20
45.44155697134575
 30
0.0
 11
-17.38172492384891
 21
60.04155580334573
 31
0.0
  0
LINE
  5
96
330
1F
100
AcDbEntity
  8
0
100
AcDbLine
 10
-17.34765075286402
 20
45.18273794694874
 30
0.0
 11
-17.38172492384891
 21
45.44155697134575
 31
0.0
  0
LINE
  5
97
330
1F
100
AcDbEntity
  8
0
100
AcDbLine
 10
-17.24775033835132
 20
44.94155701134578
 30
0.0
 11
-17.34765075286402
 21
45.18273794694874
 31
0.0
  0
LINE
  5
98
330
1F
100
AcDbEntity
  8
0
100
AcDbLine
 10
-17.08883172846701
 20
44.73445024672779
 30
0.0
 11
-17.24775033835132
 21
44.94155701134578
 31
0.0
  0
LINE
  5
99
330
1F
100
AcDbEntity
  8
0
100
AcDbLine
 10
-16.88172496384902
 20
44.5755316368433
 30
0.0
 11
-17.08883172846701
 21
44.73445024672779
 31
0.0
  0
LINE
  5
9A
330
1F
100
AcDbEntity
  8
0
100
AcDbLine
 10
-16.64054402824597
 20
44.47563122233078
 30
0.0
 11
-16.88172496384902
 21
44.5755316368433
 31
0.0
  0
LINE
  5
9B
330
1F
100
AcDbEntity
  8
0
100
AcDbLine
 10
-16.38172500384895
 20
44.4415570513457
 30
0.0
 11
-16.64054402824597
 21
44.47563122233078
 31
0.0
  0
LINE
  5
9C
330
1F
100
AcDbEntity
  8
0
100
AcDbLine
 10
-16.38172500384895
 20
44.4415570513457
 30
0.0
 11
-5.469450452836125
 21
44.4415570513457
 31
0.0
  0
LINE
  5
9D
330
1F
100
AcDbEntity
  8
0
100
AcDbLine
 10
-5.210631428439113
 20
44.47563122233078
 30
0.0
 11
-5.469450452836125
 21
44.4415570513457
 31
0.0
  0
LINE
  5
9E
330
1F
100
AcDbEntity
  8
0
100
AcDbLine
 10
-4.969450492836055
 20
44.5755316368433
 30
0.0
 11
-5.210631428439113
 21
44.47563122233078
 31
0.0
  0
LINE
  5
9F
330
1F
100
AcDbEntity
  8
0
100
AcDbLine
 10
-4.762343728218068
 20
44.7344502467277
 30
0.0
 11
-4.969450492836055
 21
44.5755316368433
 31
0.0
  0
LINE
  5
A0
330
1F
100
AcDbEntity
  8
0
100
AcDbLine
 10
-4.603425118333763
 20
44.94155701134578
 30
0.0
 11
-4.762343728218068
 21
44.7344502467277
 31
0.0
  0
LINE
  5
A1
330
1F
100
AcDbEntity
  8
0
100
AcDbLine
 10
-4.503524703821056
 20
45.18273794694874
 30
0.0
 11
-4.603425118333763
 21
44.94155701134578
 31
0.0
  0
LINE
  5
A2
330
1F
100
AcDbEntity
  8
0
100
AcDbLine
 10
-4.469450532836166
 20
45.44155697134575
 30
0.0
 11
-4.503524703821056
 21
45.18273794694874
 31
0.0
  0
LINE
  5
A3
330
1F
100
AcDbEntity
  8
0
100
AcDbLine
 10
-4.469450532835985
 20
51.04155652334592
 30
0.0
 11
-4.469450532836166
 21
45.44155697134575
 31
0.0
  0
LINE
  5
A4
330
1F
100
AcDbEntity
  8
0
100
AcDbLine
 10
-4.469450532835985
 20
51.04155652334592
 30
0.0
 11
-0.5711809635781249
 21
51.04155652334592
 31
0.0
  0
LINE
  5
A5
330
1F
100
AcDbEntity
  8
0
100
AcDbLine
 10
-0.5711809635781249
 20
51.04155652334592
 30
0.0
 11
-0.5711809635781249
 21
60.03777716935307
 31
0.0
  0
LINE
  5
A6
330
1F
100
AcDbEntity
  8
0
100
AcDbLine
 10
-0.5711809635781249
 20
60.03777716935307
 30
0.0
 11
-5.374642338195081
 21
60.04155580334573
 31
0.0
  0
LINE
  5
A7
330
1F
100
AcDbEntity
  8
0
100
AcDbLine
 10
-5.374642338195081
 20
60.04155580334573
 30
0.0
 11
-5.369450460835786
 21
66.6415552753459
 31
0.0
  0
LINE
  5
A8
330
1F
100
AcDbEntity
  8
0
100
AcDbLine
 10
-5.369450460835786
 20
66.6415552753459
 30
0.0
 11
-0.5711809635779443
 21
66.63777876583279
 31
0.0
  0
LINE
  5
A9
330
1F
100
AcDbEntity
  8
0
100
AcDbLine
 10
-47.06944712483686
 20
55.54155616334583
 30
0.0
 11
-47.00811361706373
 21
56.00743040726045
 31
0.0
  0
LINE
  5
AA
330
1F
100
AcDbEntity
  8
0
100
AcDbLine
 10
-46.82829287094111
 20
56.44155609134581
 30
0.0
 11
-46.54223937314929
 21
56.81434826765822
 31
0.0
  0
LINE
  5
AB
330
1F
100
AcDbEntity
  8
0
100
AcDbLine
 10
-46.54223937314929
 20
56.81434826765822
 30
0.0
 11
-46.1694471968367
 21
57.10040176545022
 31
0.0
  0
LINE
  5
AC
330
1F
100
AcDbEntity
  8
0
100
AcDbLine
 10
-46.1694471968367
 20
57.10040176545022
 30
0.0
 11
-45.73532151275133
 21
57.28022251157284
 31
0.0
  0
LINE
  5
AD
330
1F
100
AcDbEntity
  8
0
100
AcDbLine
 10
-45.73532151275133
 20
57.28022251157284
 30
0.0
 11
-45.26944726883671
 21
57.34155601934578
 31
0.0
  0
LINE
  5
AE
330
1F
100
AcDbEntity
  8
0
100
AcDbLine
 10
-45.26944726883671
 20
57.34155601934578
 30
0.0
 11
-44.80357302492209
 21
57.28022251157284
 31
0.0
  0
LINE
  5
AF
330
1F
100
AcDbEntity
  8
0
100
AcDbLine
 10
-44.80357302492209
 20
57.28022251157284
 30
0.0
 11
-44.36944734083674
 21
57.10040176545022
 31
0.0
  0
LINE
  5
B0
330
1F
100
AcDbEntity
  8
0
100
AcDbLine
 10
-44.36944734083674
 20
57.10040176545022
 30
0.0
 11
-43.99665516452414
 21
56.81434826765822
 31
0.0
  0
LINE
  5
B1
330
1F
100
AcDbEntity
  8
0
100
AcDbLine
 10
-43.99665516452414
 20
56.81434826765822
 30
0.0
 11
-43.71060166673232
 21
56.44155609134581
 31
0.0
  0
LINE
  5
B2
330
1F
100
AcDbEntity
  8
0
100
AcDbLine
 10
-43.71060166673232
 20
56.44155609134581
 30
0.0
 11
-43.5307809206097
 21
56.00743040726045
 31
0.0
  0
LINE
  5
B3
330
1F
100
AcDbEntity
  8
0
100
AcDbLine
 10
-43.5307809206097
 20
56.00743040726045
 30
0.0
 11
-43.46944741283657
 21
55.54155616334583
 31
0.0
  0
LINE
  5
B4
330
1F
100
AcDbEntity
  8
0
100
AcDbLine
 10
-43.46944741283657
 20
55.54155616334583
 30
0.0
 11
-43.5307809206097
 21
55.07568191943121
 31
0.0
  0
LINE
  5
B5
330
1F
100
AcDbEntity
  8
0
100
AcDbLine
 10
-43.5307809206097
 20
55.07568191943121
 30
0.0
 11
-43.71060166673232
 21
54.64155623534567
 31
0.0
  0
LINE
  5
B6
330
1F
100
AcDbEntity
  8
0
100
AcDbLine
 10
-43.71060166673232
 20
54.64155623534567
 30
0.0
 11
-43.99665516452414
 21
54.26876405903324
 31
0.0
  0
LINE
  5
B7
330
1F
100
AcDbEntity
  8
0
100
AcDbLine
 10
-43.99665516452414
 20
54.26876405903324
 30
0.0
 11
-44.36944734083674
 21
53.98271056124143
 31
0.0
  0
LINE
  5
B8
330
1F
100
AcDbEntity
  8
0
100
AcDbLine
 10
-45.26944726883671
 20
53.74155630734568
 30
0.0
 11
-45.73532151275133
 21
53.80288981511863
 31
0.0
  0
LINE
  5
B9
330
1F
100
AcDbEntity
  8
0
100
AcDbLine
 10
-46.1694471968367
 20
53.98271056124143
 30
0.0
 11
-46.54223937314929
 21
54.26876405903324
 31
0.0
  0
LINE
  5
BA
330
1F
100
AcDbEntity
  8
0
100
AcDbLine
 10
-46.54223937314929
 20
54.26876405903324
 30
0.0
 11
-46.82829287094111
 21
54.64155623534567
 31
0.0
  0
LINE
  5
BB
330
1F
100
AcDbEntity
  8
0
100
AcDbLine
 10
-46.82829287094111
 20
54.64155623534567
 30
0.0
 11
-47.00811361706373
 21
55.07568191943121
 31
0.0
  0
LINE
  5
BC
330
1F
100
AcDbEntity
  8
0
100
AcDbLine
 10
-8.386913808315748
 20
52.94348015983856
 30
0.0
 11
-7.765593514461608
 21
53.42023598949183
 31
0.0
  0
LINE
  5
BD
330
1F
100
AcDbEntity
  8
0
100
AcDbLine
 10
-9.11045661512456
 20
52.6437789163008
 30
0.0
 11
-8.386913808315748
 21
52.94348015983856
 31
0.0
  0
LINE
  5
BE
330
1F
100
AcDbEntity
  8
0
100
AcDbLine
 10
-9.886913688315778
 20
52.54155640334577
 30
0.0
 11
-9.11045661512456
 21
52.6437789163008
 31
0.0
  0
LINE
  5
BF
330
1F
100
AcDbEntity
  8
0
100
AcDbLine
 10
-10.66337076150663
 20
52.6437789163008
 30
0.0
 11
-9.886913688315778
 21
52.54155640334577
 31
0.0
  0
LINE
  5
C0
330
1F
100
AcDbEntity
  8
0
100
AcDbLine
 10
-11.38691356831581
 20
52.94348015983856
 30
0.0
 11
-10.66337076150663
 21
52.6437789163008
 31
0.0
  0
LINE
  5
C1
330
1F
100
AcDbEntity
  8
0
100
AcDbLine
 10
-12.00823386216977
 20
53.42023598949183
 30
0.0
 11
-11.38691356831581
 21
52.94348015983856
 31
0.0
  0
LINE
  5
C2
330
1F
100
AcDbEntity
  8
0
100
AcDbLine
 10
-12.48498969182286
 20
54.04155628334579
 30
0.0
 11
-12.00823386216977
 21
53.42023598949183
 31
0.0
  0
LINE
  5
C3
330
1F
100
AcDbEntity
  8
0
100
AcDbLine
 10
-12.78469093536062
 20
54.76509909015479
 30
0.0
 11
-12.48498969182286
 21
54.04155628334579
 31
0.0
  0
LINE
  5
C4
330
1F
100
AcDbEntity
  8
0
100
AcDbLine
 10
-12.88691344831584
 20
55.54155616334583
 30
0.0
 11
-12.78469093536062
 21
54.76509909015479
 31
0.0
  0
LINE
  5
C5
330
1F
100
AcDbEntity
  8
0
100
AcDbLine
 10
-12.78469093536062
 20
56.31801323653686
 30
0.0
 11
-12.88691344831584
 21
55.54155616334583
 31
0.0
  0
LINE
  5
C6
330
1F
100
AcDbEntity
  8
0
100
AcDbLine
 10
-12.48498969182286
 20
57.04155604334585
 30
0.0
 11
-12.78469093536062
 21
56.31801323653686
 31
0.0
  0
LINE
  5
C7
330
1F
100
AcDbEntity
  8
0
100
AcDbLine
 10
-12.00823386216977
 20
57.66287633719981
 30
0.0
 11
-12.48498969182286
 21
57.04155604334585
 31
0.0
  0
LINE
  5
C8
330
1F
100
AcDbEntity
  8
0
100
AcDbLine
 10
-11.38691356831581
 20
58.1396321668531
 30
0.0
 11
-12.00823386216977
 21
57.66287633719981
 31
0.0
  0
LINE
  5
C9
330
1F
100
AcDbEntity
  8
0
100
AcDbLine
 10
-10.66337076150663
 20
58.43933341039085
 30
0.0
 11
-11.38691356831581
 21
58.1396321668531
 31
0.0
  0
LINE
  5
CA
330
1F
100
AcDbEntity
  8
0
100
AcDbLine
 10
-9.886913688315778
 20
58.54155592334589
 30
0.0
 11
-10.66337076150663
 21
58.43933341039085
 31
0.0
  0
LINE
  5
CB
330
1F
100
AcDbEntity
  8
0
100
AcDbLine
 10
-9.11045661512456
 20
58.43933341039085
 30
0.0
 11
-9.886913688315778
 21
58.54155592334589
 31
0.0
  0
LINE
  5
CC
330
1F
100
AcDbEntity
  8
0
100
AcDbLine
 10
-8.386913808315748
 20
58.1396321668531
 30
0.0
 11
-9.11045661512456
 21
58.43933341039085
 31
0.0
  0
LINE
  5
CD
330
1F
100
AcDbEntity
  8
0
100
AcDbLine
 10
-7.765593514461608
 20
57.66287633719981
 30
0.0
 11
-8.386913808315748
 21
58.1396321668531
 31
0.0
  0
LINE
  5
CE
330
1F
100
AcDbEntity
  8
0
100
AcDbLine
 10
-7.288837684808332
 20
57.04155604334585
 30
0.0
 11
-7.765593514461608
 21
57.66287633719981
 31
0.0
  0
LINE
  5
CF
330
1F
100
AcDbEntity
  8
0
100
AcDbLine
 10
-6.989136441270572
 20
56.31801323653686
 30
0.0
 11
-7.288837684808332
 21
57.04155604334585
 31
0.0
  0
LINE
  5
D0
330
1F
100
AcDbEntity
  8
0
100
AcDbLine
 10
-6.886913928315719
 20
55.54155616334583
 30
0.0
 11
-6.989136441270572
 21
56.31801323653686
 31
0.0
  0
LINE
  5
D1
330
1F
100
AcDbEntity
  8
0
100
AcDbLine
 10
-6.989136441270572
 20
54.76509909015479
 30
0.0
 11
-6.886913928315719
 21
55.54155616334583
 31
0.0
  0
LINE
  5
D2
330
1F
100
AcDbEntity
  8
0
100
AcDbLine
 10
-7.288837684808332
 20
54.04155628334579
 30
0.0
 11
-6.989136441270572
 21
54.76509909015479
 31
0.0
  0
LINE
  5
D3
330
1F
100
AcDbEntity
  8
0
100
AcDbLine
 10
-7.765593514461608
 20
53.42023598949183
 30
0.0
 11
-7.288837684808332
 21
54.04155628334579
 31
0.0
  0
LINE
  5
D4
330
1F
100
AcDbEntity
  8
0
100
AcDbLine
 10
-8.548137006335061
 20
33.73025033907527
 30
0.0
 11
-18.94813617433547
 21
33.73025033907527
 31
0.0
  0
LINE
  5
D5
330
1F
100
AcDbEntity
  8
0
100
AcDbLine
 10
-8.548137006335061
 20
26.93025088307523
 30
0.0
 11
-8.548137006335061
 21
33.73025033907527
 31
0.0
  0
LINE
  5
D6
330
1F
100
AcDbEntity
  8
0
100
AcDbLine
 10
-12.82265898938951
 20
-17.34253778123745
 30
0.0
 11
-13.10871248718134
 21
-16.96974560492504
 31
0.0
  0
LINE
  5
D7
330
1F
100
AcDbEntity
  8
0
100
AcDbLine
 10
-12.4498668130771
 20
-17.62859127902936
 30
0.0
 11
-12.82265898938951
 21
-17.34253778123745
 31
0.0
  0
LINE
  5
D8
330
1F
100
AcDbEntity
  8
0
100
AcDbLine
 10
61.76910024299151
 20
-23.42294414669337
 30
0.0
 11
61.47411541977055
 21
-23.05717842332939
 31
0.0
  0
LINE
  5
D9
330
1F
100
AcDbEntity
  8
0
100
AcDbLine
 10
62.14870083735652
 20
-23.6998990149961
 30
0.0
 11
61.76910024299151
 21
-23.42294414669337
 31
0.0
  0
LINE
  5
DA
330
1F
100
AcDbEntity
  8
0
100
AcDbLine
 10
63.51852406171915
 20
-23.84663717716354
 30
0.0
 11
63.05426924184194
 21
-23.91921866612188
 31
0.0
  0
LINE
  5
DB
330
1F
100
AcDbEntity
  8
0
100
AcDbLine
 10
-89.14638386804346
 20
-14.65563531787106
 30
0.0
 11
-89.30622453126347
 21
-14.2697458209061
 31
0.0
  0
LINE
  5
DC
330
1F
100
AcDbEntity
  8
0
100
AcDbLine
 10
-89.30622453126347
 20
-14.2697458209061
 30
0.0
 11
-89.56049430707886
 21
-13.93837499751716
 31
0.0
  0
LINE
  5
DD
330
1F
100
AcDbEntity
  8
0
100
AcDbLine
 10
-89.56049430707886
 20
-13.93837499751716
 30
0.0
 11
-89.89186513046735
 21
-13.68410522170231
 31
0.0
  0
LINE
  5
DE
330
1F
100
AcDbEntity
  8
0
100
AcDbLine
 10
-98.02323532985628
 20
17.06162252248276
 30
0.0
 11
-98.27750510567131
 21
16.73025169909391
 31
0.0
  0
LINE
  5
DF
330
1F
100
AcDbEntity
  8
0
100
AcDbLine
 10
-98.27750510567131
 20
16.73025169909391
 30
0.0
 11
-98.43734576889149
 21
16.34436220212931
 31
0.0
  0
LINE
  5
E0
330
1F
100
AcDbEntity
  8
0
100
AcDbLine
 10
-98.43734576889149
 20
16.34436220212931
 30
0.0
 11
-98.4918644424676
 21
15.9302517630939
 31
0.0
  0
LINE
  5
E1
330
1F
100
AcDbEntity
  8
0
100
AcDbLine
 10
100.2678537075112
 20
-16.96974560492635
 30
0.0
 11
99.98180020971941
 21
-17.34253778123876
 31
0.0
  0
LINE
  5
E2
330
1F
100
AcDbEntity
  8
0
100
AcDbLine
 10
99.98180020971941
 20
-17.34253778123876
 30
0.0
 11
99.609008033407
 21
-17.62859127903072
 31
0.0
  0
LINE
  5
E3
330
1F
100
AcDbEntity
  8
0
100
AcDbLine
 10
60.78741072091721
 20
52.41295128003414
 30
0.0
 11
61.16020289722963
 21
52.12689778224215
 31
0.0
  0
LINE
  5
E4
330
1F
100
AcDbEntity
  8
0
100
AcDbLine
 10
60.35328503683185
 20
52.59277202615677
 30
0.0
 11
60.78741072091721
 21
52.41295128003414
 31
0.0
  0
LINE
  5
E5
330
1F
100
AcDbEntity
  8
0
100
AcDbLine
 10
-67.02323780985608
 20
-13.93837499751734
 30
0.0
 11
-67.27750758567093
 21
-14.26974582090592
 31
0.0
  0
LINE
  5
E6
330
1F
100
AcDbEntity
  8
0
100
AcDbLine
 10
-71.30958094051235
 20
14.91913923831921
 30
0.0
 11
-75.19186630646735
 21
15.4302518030942
 31
0.0
  0
LINE
  5
E7
330
1F
100
AcDbEntity
  8
0
100
AcDbLine
 10
-81.39186581046741
 20
15.4302518030942
 30
0.0
 11
-75.19186630646735
 21
15.4302518030942
 31
0.0
  0
LINE
  5
E8
330
1F
100
AcDbEntity
  8
0
100
AcDbLine
 10
-81.39186581046741
 20
15.4302518030942
 30
0.0
 11
-85.27415117642241
 21
14.91913923831921
 31
0.0
  0
LINE
  5
E9
330
1F
100
AcDbEntity
  8
0
100
AcDbLine
 10
-85.27415117642241
 20
14.91913923831921
 30
0.0
 11
-88.89186521046756
 21
13.42063302063023
 31
0.0
  0
LINE
  5
EA
330
1F
100
AcDbEntity
  8
0
100
AcDbLine
 10
-46.31382170751419
 20
21.34172587765788
 30
0.0
 11
-46.74385728043924
 21
21.1523320648293
 31
0.0
  0
LINE
  5
EB
330
1F
100
AcDbEntity
  8
0
100
AcDbLine
 10
-81.39186581046741
 20
-14.56974579690603
 30
0.0
 11
-75.19186630646735
 21
-14.56974579690603
 31
0.0
  0
LINE
  5
EC
330
1F
100
AcDbEntity
  8
0
100
AcDbLine
 10
7.592720410533079
 20
-40.18794633916519
 30
0.0
 11
7.626794581518149
 21
-39.92912731476817
 31
0.0
  0
LINE
  5
ED
330
1F
100
AcDbEntity
  8
0
100
AcDbLine
 10
37.49601887416975
 20
-31.17323316123043
 30
0.0
 11
37.46194470318486
 21
-31.43205218562744
 31
0.0
  0
LINE
  5
EE
330
1F
100
AcDbEntity
  8
0
100
AcDbLine
 10
8.092720370532968
 20
-39.32192100466273
 30
0.0
 11
8.333901306136026
 21
-39.2220205901502
 31
0.0
  0
LINE
  5
EF
330
1F
100
AcDbEntity
  8
0
100
AcDbLine
 10
-15.92455452839338
 20
-65.64155535534603
 30
0.0
 11
-18.52263053190064
 21
-70.14155499534603
 31
0.0
  0
LINE
  5
F0
330
1F
100
AcDbEntity
  8
0
100
AcDbLine
 10
-67.02323780985591
 20
-16.20111651629487
 30
0.0
 11
-66.69186698646723
 21
-16.4553862921099
 31
0.0
  0
LINE
  5
F1
330
1F
100
AcDbEntity
  8
0
100
AcDbLine
 10
-65.89186705046723
 20
-13.46974588490619
 30
0.0
 11
-59.69186754646715
 21
-13.46974588490619
 31
0.0
  0
LINE
  5
F2
330
1F
100
AcDbEntity
  8
0
100
AcDbLine
 10
-65.89186705046723
 20
-13.46974588490619
 30
0.0
 11
-66.30597748950245
 21
-13.52426455848239
 31
0.0
  0
LINE
  5
F3
330
1F
100
AcDbEntity
  8
0
100
AcDbLine
 10
-66.30597748950245
 20
-13.52426455848239
 30
0.0
 11
-66.69186698646742
 21
-13.68410522170231
 31
0.0
  0
LINE
  5
F4
330
1F
100
AcDbEntity
  8
0
100
AcDbLine
 10
25.69525229785017
 20
-55.9467641235622
 30
0.0
 11
25.6611781268651
 21
-55.68794509916519
 31
0.0
  0
LINE
  5
F5
330
1F
100
AcDbEntity
  8
0
100
AcDbLine
 10
74.89327903872626
 20
25.38024085593385
 30
0.0
 11
74.89327903872555
 21
-24.61973484178388
 31
0.0
  0
LINE
  5
F6
330
1F
100
AcDbEntity
  8
0
100
AcDbLine
 10
62.810741096149
 20
-32.76974434092493
 30
0.0
 11
62.810741096149
 21
-26.1697448689249
 31
0.0
  0
LINE
  5
F7
330
1F
100
AcDbEntity
  8
0
100
AcDbLine
 10
-58.14638634804327
 20
-15.48385619594114
 30
0.0
 11
-58.09186767446715
 21
-15.06974575690601
 31
0.0
  0
LINE
  5
F8
330
1F
100
AcDbEntity
  8
0
100
AcDbLine
 10
27.84294644080322
 20
-79.21957234382172
 30
0.0
 11
32.74294604880303
 21
-79.21957234382172
 31
0.0
  0
LINE
  5
F9
330
1F
100
AcDbEntity
  8
0
100
AcDbLine
 10
33.742945968803
 20
-78.21957242382167
 30
0.0
 11
33.70887179781793
 21
-78.4783914482187
 31
0.0
  0
LINE
  5
FA
330
1F
100
AcDbEntity
  8
0
100
AcDbLine
 10
8.40098253945239
 20
21.14904333335003
 30
0.0
 11
7.936609771750981
 21
21.0772203360849
 31
0.0
  0
LINE
  5
FB
330
1F
100
AcDbEntity
  8
0
100
AcDbLine
 10
8.830943029231856
 20
21.33860753763792
 30
0.0
 11
8.40098253945239
 21
21.14904333335003
 31
0.0
  0
LINE
  5
FC
330
1F
100
AcDbEntity
  8
0
100
AcDbLine
 10
9.197190144254295
 20
21.63299446169618
 30
0.0
 11
8.830943029231856
 21
21.33860753763792
 31
0.0
  0
LINE
  5
FD
330
1F
100
AcDbEntity
  8
0
100
AcDbLine
 10
9.474764748882961
 20
22.0121421231475
 30
0.0
 11
9.197190144254295
 21
21.63299446169618
 31
0.0
  0
LINE
  5
FE
330
1F
100
AcDbEntity
  8
0
100
AcDbLine
 10
9.644750592526105
 20
22.45021223543507
 30
0.0
 11
9.474764748882961
 21
22.0121421231475
 31
0.0
  0
LINE
  5
FF
330
1F
100
AcDbEntity
  8
0
100
AcDbLine
 10
9.695563420854247
 20
22.91735104435162
 30
0.0
 11
9.644750592526105
 21
22.45021223543507
 31
0.0
  0
LINE
  5
100
330
1F
100
AcDbEntity
  8
0
100
AcDbLine
 10
9.623740423589117
 20
23.38172381205303
 30
0.0
 11
9.695563420854247
 21
22.91735104435162
 31
0.0
  0
LINE
  5
101
330
1F
100
AcDbEntity
  8
0
100
AcDbLine
 10
9.434176219301234
 20
23.8116843018325
 30
0.0
 11
9.623740423589117
 21
23.38172381205303
 31
0.0
  0
LINE
  5
102
330
1F
100
AcDbEntity
  8
0
100
AcDbLine
 10
9.139789295242968
 20
24.17793141685494
 30
0.0
 11
9.434176219301234
 21
23.8116843018325
 31
0.0
  0
LINE
  5
103
330
1F
100
AcDbEntity
  8
0
100
AcDbLine
 10
8.760641633791645
 20
24.4555060214836
 30
0.0
 11
9.139789295242968
 21
24.17793141685494
 31
0.0
  0
LINE
  5
104
330
1F
100
AcDbEntity
  8
0
100
AcDbLine
 10
-13.10871248718134
 20
15.93025176307505
 30
0.0
 11
-13.28853323330413
 21
16.36437744716041
 31
0.0
  0
LINE
  5
105
330
1F
100
AcDbEntity
  8
0
100
AcDbLine
 10
-3.549867525077444
 20
-39.56974379692528
 30
0.0
 11
-3.549867525077444
 21
40.33024981107534
 31
0.0
  0
LINE
  5
106
330
1F
100
AcDbEntity
  8
0
100
AcDbLine
 10
-13.28853323330413
 20
-15.60387143301048
 30
0.0
 11
-13.10871248718134
 21
-15.16974574892508
 31
0.0
  0
LINE
  5
107
330
1F
100
AcDbEntity
  8
0
100
AcDbLine
 10
-10.4287012778409
 20
-69.36509792215499
 30
0.0
 11
-10.72840252137866
 21
-68.641555115346
 31
0.0
  0
LINE
  5
108
330
1F
100
AcDbEntity
  8
0
100
AcDbLine
 10
51.59035376818867
 20
-31.17401980907202
 30
0.0
 11
51.55611003285835
 21
-31.43268533292453
 31
0.0
  0
LINE
  5
109
330
1F
100
AcDbEntity
  8
0
100
AcDbLine
 10
38.14701689307815
 20
-18.37323418523042
 30
0.0
 11
30.77855332463202
 21
-18.37323418523042
 31
0.0
  0
LINE
  5
10A
330
1F
100
AcDbEntity
  8
0
100
AcDbLine
 10
14.77855960074641
 20
12.22676336676999
 30
0.0
 11
7.678560168746351
 21
12.22676336676999
 31
0.0
  0
LINE
  5
10B
330
1F
100
AcDbEntity
  8
0
100
AcDbLine
 10
19.77855920074602
 20
-24.62322353408921
 30
0.0
 11
30.77855332463221
 21
-24.62322353408894
 31
0.0
  0
LINE
  5
10C
330
1F
100
AcDbEntity
  8
0
100
AcDbLine
 10
14.1960207381693
 20
-26.1732335612301
 30
0.0
 11
14.1960207381693
 21
-31.17323316123107
 31
0.0
  0
LINE
  5
10D
330
1F
100
AcDbEntity
  8
0
100
AcDbLine
 10
-15.4477986987401
 20
-68.02023482149195
 30
0.0
 11
-15.92455452839319
 21
-68.641555115346
 31
0.0
  0
LINE
  5
10E
330
1F
100
AcDbEntity
  8
0
100
AcDbLine
 10
-14.82647840488614
 20
-67.54347899183877
 30
0.0
 11
-15.4477986987401
 21
-68.02023482149195
 31
0.0
  0
LINE
  5
10F
330
1F
100
AcDbEntity
  8
0
100
AcDbLine
 10
-14.10293559807697
 20
-67.24377774830091
 30
0.0
 11
-14.82647840488614
 21
-67.54347899183877
 31
0.0
  0
LINE
  5
110
330
1F
100
AcDbEntity
  8
0
100
AcDbLine
 10
-13.32647852488611
 20
-67.14155523534598
 30
0.0
 11
-14.10293559807697
 21
-67.24377774830091
 31
0.0
  0
LINE
  5
111
330
1F
100
AcDbEntity
  8
0
100
AcDbLine
 10
-12.55002145169489
 20
-67.24377774830091
 30
0.0
 11
-13.32647852488611
 21
-67.14155523534598
 31
0.0
  0
LINE
  5
112
330
1F
100
AcDbEntity
  8
0
100
AcDbLine
 10
-10.72840252137866
 20
-68.641555115346
 30
0.0
 11
-11.20515835103194
 21
-68.02023482149195
 31
0.0
  0
LINE
  5
113
330
1F
100
AcDbEntity
  8
0
100
AcDbLine
 10
-47.20901222540558
 20
-81.1075795218485
 30
0.0
 11
-46.96783128980251
 21
-81.20747993636112
 31
0.0
  0
LINE
  5
114
330
1F
100
AcDbEntity
  8
0
100
AcDbLine
 10
-46.70901226540551
 20
-81.2415541073461
 30
0.0
 11
-42.10901263340543
 21
-81.2415541073461
 31
0.0
  0
LINE
  5
115
330
1F
100
AcDbEntity
  8
0
100
AcDbLine
 10
-46.96783128980251
 20
-81.20747993636112
 30
0.0
 11
-46.70901226540551
 21
-81.2415541073461
 31
0.0
  0
LINE
  5
116
330
1F
100
AcDbEntity
  8
0
100
AcDbLine
 10
-35.00190642078807
 20
-44.73445024672784
 30
0.0
 11
-35.20901318540606
 21
-44.57553163684344
 31
0.0
  0
LINE
  5
117
330
1F
100
AcDbEntity
  8
0
100
AcDbLine
 10
-35.20901318540606
 20
-44.57553163684344
 30
0.0
 11
-35.45019412100912
 21
-44.47563122233082
 31
0.0
  0
LINE
  5
118
330
1F
100
AcDbEntity
  8
0
100
AcDbLine
 10
-35.70901314540613
 20
-44.44155705134584
 30
0.0
 11
-43.70901250540635
 21
-44.44155705134584
 31
0.0
  0
LINE
  5
119
330
1F
100
AcDbEntity
  8
0
100
AcDbLine
 10
-35.45019412100912
 20
-44.47563122233082
 30
0.0
 11
-35.70901314540613
 21
-44.44155705134584
 31
0.0
  0
LINE
  5
11A
330
1F
100
AcDbEntity
  8
0
100
AcDbLine
 10
-50.50901196140701
 20
-70.14155499534603
 30
0.0
 11
-50.44767845363388
 21
-69.6756807514314
 31
0.0
  0
LINE
  5
11B
330
1F
100
AcDbEntity
  8
0
100
AcDbLine
 10
-41.60901267340627
 20
-59.04155588334596
 30
0.0
 11
-41.60901267340627
 21
-65.64155535534603
 31
0.0
  0
LINE
  5
11C
330
1F
100
AcDbEntity
  8
0
100
AcDbLine
 10
-49.17488634932149
 20
-71.88022134357313
 30
0.0
 11
-49.60901203340685
 21
-71.70040059745043
 31
0.0
  0
LINE
  5
11D
330
1F
100
AcDbEntity
  8
0
100
AcDbLine
 10
-50.44767845363388
 20
-70.60742923926065
 30
0.0
 11
-50.50901196140701
 21
-70.14155499534603
 31
0.0
  0
LINE
  5
11E
330
1F
100
AcDbEntity
  8
0
100
AcDbLine
 10
-48.24313786149224
 20
-68.40288864711893
 30
0.0
 11
-47.80901217740688
 21
-68.58270939324163
 31
0.0
  0
LINE
  5
11F
330
1F
100
AcDbEntity
  8
0
100
AcDbLine
 10
-106.709007465407
 20
-56.04155612334598
 30
0.0
 11
-52.70901178540635
 21
-74.64155463534603
 31
0.0
  0
LINE
  5
120
330
1F
100
AcDbEntity
  8
0
100
AcDbLine
 10
92.66453475696852
 20
49.35410579792973
 30
0.0
 11
92.36483351343077
 21
50.0776486047389
 31
0.0
  0
LINE
  5
121
330
1F
100
AcDbEntity
  8
0
100
AcDbLine
 10
-58.56049678707812
 20
17.06162252248276
 30
0.0
 11
-58.89186761046733
 21
17.31589229829797
 31
0.0
  0
LINE
  5
122
330
1F
100
AcDbEntity
  8
0
100
AcDbLine
 10
-58.89186761046733
 20
17.31589229829797
 30
0.0
 11
-59.27775710743212
 21
17.47573296151798
 31
0.0
  0
LINE
  5
123
330
1F
100
AcDbEntity
  8
0
100
AcDbLine
 10
6.360951788271037
 20
-23.06321327506188
 30
0.0
 11
6.169973443409016
 21
-22.63387904382403
 31
0.0
  0
LINE
  5
124
330
1F
100
AcDbEntity
  8
0
100
AcDbLine
 10
46.99601811416945
 20
-26.1732335612305
 30
0.0
 11
46.99601811416945
 21
-31.17323316123098
 31
0.0
  0
LINE
  5
125
330
1F
100
AcDbEntity
  8
0
100
AcDbLine
 10
42.69428833942769
 20
-17.63207997133478
 30
0.0
 11
42.32149616311527
 21
-17.34602647354282
 31
0.0
  0
LINE
  5
126
330
1F
100
AcDbEntity
  8
0
100
AcDbLine
 10
-67.69186690646738
 20
-12.56012701444216
 30
0.0
 11
-64.58526543719739
 21
-10.17634786617614
 31
0.0
  0
LINE
  5
127
330
1F
100
AcDbEntity
  8
0
100
AcDbLine
 10
-64.58526543719739
 20
-10.17634786617614
 30
0.0
 11
-62.20148628893119
 21
-7.069746396905976
 31
0.0
  0
LINE
  5
128
330
1F
100
AcDbEntity
  8
0
100
AcDbLine
 10
-62.20148628893119
 20
-7.069746396905976
 30
0.0
 11
-60.70298007124239
 21
-3.45203236286092
 31
0.0
  0
LINE
  5
129
330
1F
100
AcDbEntity
  8
0
100
AcDbLine
 10
-60.70298007124239
 20
-3.45203236286092
 30
0.0
 11
-60.1918675064674
 21
0.4302530030940813
 31
0.0
  0
LINE
  5
12A
330
1F
100
AcDbEntity
  8
0
100
AcDbLine
 10
-97.69186450646761
 20
-16.45538629210972
 30
0.0
 11
-97.30597500950282
 21
-16.61522695532991
 31
0.0
  0
LINE
  5
12B
330
1F
100
AcDbEntity
  8
0
100
AcDbLine
 10
-97.30597500950282
 20
-16.61522695532991
 30
0.0
 11
-96.89186457046742
 21
-16.66974562890602
 31
0.0
  0
LINE
  5
12C
330
1F
100
AcDbEntity
  8
0
100
AcDbLine
 10
-96.89186457046742
 20
-16.66974562890602
 30
0.0
 11
-90.69186506646734
 21
-16.66974562890602
 31
0.0
  0
LINE
  5
12D
330
1F
100
AcDbEntity
  8
0
100
AcDbLine
 10
-90.69186506646734
 20
-16.66974562890602
 30
0.0
 11
-90.27775462743212
 21
-16.61522695533009
 31
0.0
  0
LINE
  5
12E
330
1F
100
AcDbEntity
  8
0
100
AcDbLine
 10
-98.2775051056715
 20
15.13025182709408
 30
0.0
 11
-98.02323532985628
 21
14.79888100370505
 31
0.0
  0
LINE
  5
12F
330
1F
100
AcDbEntity
  8
0
100
AcDbLine
 10
-98.02323532985628
 20
14.79888100370505
 30
0.0
 11
-97.69186450646743
 21
14.5446112278902
 31
0.0
  0
LINE
  5
130
330
1F
100
AcDbEntity
  8
0
100
AcDbLine
 10
-97.69186450646743
 20
14.5446112278902
 30
0.0
 11
-97.30597500950263
 21
14.38477056466983
 31
0.0
  0
LINE
  5
131
330
1F
100
AcDbEntity
  8
0
100
AcDbLine
 10
-97.30597500950263
 20
14.38477056466983
 30
0.0
 11
-96.8918645704676
 21
14.3302518910939
 31
0.0
  0
LINE
  5
132
330
1F
100
AcDbEntity
  8
0
100
AcDbLine
 10
-96.8918645704676
 20
14.3302518910939
 30
0.0
 11
-90.69186506646753
 21
14.3302518910939
 31
0.0
  0
LINE
  5
133
330
1F
100
AcDbEntity
  8
0
100
AcDbLine
 10
-49.0476920313878
 20
-22.07986975493115
 30
0.0
 11
-48.97605305258353
 21
-21.61546856303492
 31
0.0
  0
LINE
  5
134
330
1F
100
AcDbEntity
  8
0
100
AcDbLine
 10
-48.99669409815271
 20
-22.54698839202938
 30
0.0
 11
-49.0476920313878
 21
-22.07986975493115
 31
0.0
  0
LINE
  5
135
330
1F
100
AcDbEntity
  8
0
100
AcDbLine
 10
-12.48498969182304
 20
60.04155580334591
 30
0.0
 11
-15.08306569533031
 21
55.54155616334583
 31
0.0
  0
LINE
  5
136
330
1F
100
AcDbEntity
  8
0
100
AcDbLine
 10
28.74294636880302
 20
-66.7195733438217
 30
0.0
 11
33.742945968803
 21
-66.7195733438217
 31
0.0
  0
LINE
  5
137
330
1F
100
AcDbEntity
  8
0
100
AcDbLine
 10
28.74294636880302
 20
-62.71957366382167
 30
0.0
 11
28.74294636880302
 21
-66.7195733438217
 31
0.0
  0
LINE
  5
138
330
1F
100
AcDbEntity
  8
0
100
AcDbLine
 10
28.74294636880302
 20
-62.71957366382167
 30
0.0
 11
28.70887219781795
 21
-62.46075463942466
 31
0.0
  0
LINE
  5
139
330
1F
100
AcDbEntity
  8
0
100
AcDbLine
 10
28.70887219781795
 20
-62.46075463942466
 30
0.0
 11
28.60897178330542
 21
-62.21957370382169
 31
0.0
  0
LINE
  5
13A
330
1F
100
AcDbEntity
  8
0
100
AcDbLine
 10
28.60897178330542
 20
-62.21957370382169
 30
0.0
 11
28.45005317342093
 21
-62.0124669392037
 31
0.0
  0
LINE
  5
13B
330
1F
100
AcDbEntity
  8
0
100
AcDbLine
 10
28.45005317342093
 20
-62.0124669392037
 30
0.0
 11
28.24294640880295
 21
-61.85354832931922
 31
0.0
  0
LINE
  5
13C
330
1F
100
AcDbEntity
  8
0
100
AcDbLine
 10
28.00176547320007
 20
-61.7536479148067
 30
0.0
 11
27.74294644880288
 21
-61.71957374382162
 31
0.0
  0
LINE
  5
13D
330
1F
100
AcDbEntity
  8
0
100
AcDbLine
 10
61.28306171745017
 20
22.37515369044583
 30
0.0
 11
61.21120210723409
 21
22.83952079386546
 31
0.0
  0
LINE
  5
13E
330
1F
100
AcDbEntity
  8
0
100
AcDbLine
 10
61.21120210723409
 20
22.83952079386546
 30
0.0
 11
61.26197810414321
 21
23.30666360763511
 31
0.0
  0
LINE
  5
13F
330
1F
100
AcDbEntity
  8
0
100
AcDbLine
 10
61.26197810414321
 20
23.30666360763511
 30
0.0
 11
61.43192940789953
 21
23.74474712098644
 31
0.0
  0
LINE
  5
140
330
1F
100
AcDbEntity
  8
0
100
AcDbLine
 10
36.49601895417069
 20
32.92676171076975
 30
0.0
 11
15.19602065816926
 21
32.92676171077002
 31
0.0
  0
LINE
  5
141
330
1F
100
AcDbEntity
  8
0
100
AcDbLine
 10
14.93720163377225
 20
32.89268753978495
 30
0.0
 11
15.19602065816926
 21
32.92676171077002
 31
0.0
  0
LINE
  5
142
330
1F
100
AcDbEntity
  8
0
100
AcDbLine
 10
14.6960206981692
 20
32.79278712527242
 30
0.0
 11
14.93720163377225
 21
32.89268753978495
 31
0.0
  0
LINE
  5
143
330
1F
100
AcDbEntity
  8
0
100
AcDbLine
 10
14.48891393355121
 20
32.63386851538803
 30
0.0
 11
14.6960206981692
 21
32.79278712527242
 31
0.0
  0
LINE
  5
144
330
1F
100
AcDbEntity
  8
0
100
AcDbLine
 10
14.3299953236669
 20
32.42676175076995
 30
0.0
 11
14.48891393355121
 21
32.63386851538803
 31
0.0
  0
LINE
  5
145
330
1F
100
AcDbEntity
  8
0
100
AcDbLine
 10
14.2300949091542
 20
32.18558081516699
 30
0.0
 11
14.3299953236669
 21
32.42676175076995
 31
0.0
  0
LINE
  5
146
330
1F
100
AcDbEntity
  8
0
100
AcDbLine
 10
14.1960207381693
 20
31.92676179076997
 30
0.0
 11
14.2300949091542
 21
32.18558081516699
 31
0.0
  0
LINE
  5
147
330
1F
100
AcDbEntity
  8
0
100
AcDbLine
 10
14.1960207381693
 20
26.92676219077009
 30
0.0
 11
14.1960207381693
 21
31.92676179076997
 31
0.0
  0
LINE
  5
148
330
1F
100
AcDbEntity
  8
0
100
AcDbLine
 10
2.896021642169094
 20
26.92676219077009
 30
0.0
 11
14.1960207381693
 21
26.92676219077009
 31
0.0
  0
LINE
  5
149
330
1F
100
AcDbEntity
  8
0
100
AcDbLine
 10
2.896021642169094
 20
26.92676219077009
 30
0.0
 11
2.896021642169094
 21
-26.1732335612301
 31
0.0
  0
LINE
  5
14A
330
1F
100
AcDbEntity
  8
0
100
AcDbLine
 10
2.896021642169094
 20
-26.1732335612301
 30
0.0
 11
14.1960207381693
 21
-26.1732335612301
 31
0.0
  0
LINE
  5
14B
330
1F
100
AcDbEntity
  8
0
100
AcDbLine
 10
14.1960207381693
 20
-31.17323316123107
 30
0.0
 11
14.2300949091542
 21
-31.43205218562808
 31
0.0
  0
LINE
  5
14C
330
1F
100
AcDbEntity
  8
0
100
AcDbLine
 10
14.2300949091542
 20
-31.43205218562808
 30
0.0
 11
14.3299953236669
 21
-31.67323312123109
 31
0.0
  0
LINE
  5
14D
330
1F
100
AcDbEntity
  8
0
100
AcDbLine
 10
14.3299953236669
 20
-31.67323312123109
 30
0.0
 11
14.48891393355121
 21
-31.88033988584908
 31
0.0
  0
LINE
  5
14E
330
1F
100
AcDbEntity
  8
0
100
AcDbLine
 10
14.48891393355121
 20
-31.88033988584908
 30
0.0
 11
14.6960206981692
 21
-32.03925849573348
 31
0.0
  0
LINE
  5
14F
330
1F
100
AcDbEntity
  8
0
100
AcDbLine
 10
14.6960206981692
 20
-32.03925849573348
 30
0.0
 11
14.93720163377225
 21
-32.1391589102461
 31
0.0
  0
LINE
  5
150
330
1F
100
AcDbEntity
  8
0
100
AcDbLine
 10
14.93720163377225
 20
-32.1391589102461
 30
0.0
 11
15.19602065816926
 21
-32.17323308123107
 31
0.0
  0
LINE
  5
151
330
1F
100
AcDbEntity
  8
0
100
AcDbLine
 10
15.19602065816926
 20
-32.17323308123107
 30
0.0
 11
36.49601895416979
 21
-32.17323308123044
 31
0.0
  0
LINE
  5
152
330
1F
100
AcDbEntity
  8
0
100
AcDbLine
 10
36.7548379785668
 20
-32.13915891024546
 30
0.0
 11
36.49601895416979
 21
-32.17323308123044
 31
0.0
  0
LINE
  5
153
330
1F
100
AcDbEntity
  8
0
100
AcDbLine
 10
36.99601891416987
 20
-32.03925849573285
 30
0.0
 11
36.7548379785668
 21
-32.13915891024546
 31
0.0
  0
LINE
  5
154
330
1F
100
AcDbEntity
  8
0
100
AcDbLine
 10
37.20312567878785
 20
-31.88033988584845
 30
0.0
 11
36.99601891416987
 21
-32.03925849573285
 31
0.0
  0
LINE
  5
155
330
1F
100
AcDbEntity
  8
0
100
AcDbLine
 10
37.36204428867216
 20
-31.67323312123042
 30
0.0
 11
37.20312567878785
 21
-31.88033988584845
 31
0.0
  0
LINE
  5
156
330
1F
100
AcDbEntity
  8
0
100
AcDbLine
 10
37.46194470318486
 20
-31.43205218562744
 30
0.0
 11
37.36204428867216
 21
-31.67323312123042
 31
0.0
  0
LINE
  5
157
330
1F
100
AcDbEntity
  8
0
100
AcDbLine
 10
37.49601887416975
 20
-31.17323316123043
 30
0.0
 11
37.49601887416975
 21
-26.17323356123037
 31
0.0
  0
LINE
  5
158
330
1F
100
AcDbEntity
  8
0
100
AcDbLine
 10
46.99601811416945
 20
-26.1732335612305
 30
0.0
 11
37.49601887416975
 21
-26.17323356123037
 31
0.0
  0
LINE
  5
159
330
1F
100
AcDbEntity
  8
0
100
AcDbLine
 10
46.99601811416945
 20
-31.17323316123098
 30
0.0
 11
47.03009228515435
 21
-31.43205218562798
 31
0.0
  0
LINE
  5
15A
330
1F
100
AcDbEntity
  8
0
100
AcDbLine
 10
47.03009228515435
 20
-31.43205218562798
 30
0.0
 11
47.12999269966706
 21
-31.673233121231
 31
0.0
  0
LINE
  5
15B
330
1F
100
AcDbEntity
  8
0
100
AcDbLine
 10
47.12999269966706
 20
-31.673233121231
 30
0.0
 11
47.28891130955154
 21
-31.88033988584903
 31
0.0
  0
LINE
  5
15C
330
1F
100
AcDbEntity
  8
0
100
AcDbLine
 10
47.28891130955154
 20
-31.88033988584903
 30
0.0
 11
47.49601807416953
 21
-32.03925849573343
 31
0.0
  0
LINE
  5
15D
330
1F
100
AcDbEntity
  8
0
100
AcDbLine
 10
47.49601807416953
 20
-32.03925849573343
 30
0.0
 11
47.73719900977258
 21
-32.139158910246
 31
0.0
  0
LINE
  5
15E
330
1F
100
AcDbEntity
  8
0
100
AcDbLine
 10
47.73719900977258
 20
-32.139158910246
 30
0.0
 11
47.99601803416959
 21
-32.17323308123098
 31
0.0
  0
LINE
  5
15F
330
1F
100
AcDbEntity
  8
0
100
AcDbLine
 10
47.99601803416959
 20
-32.17323308123098
 30
0.0
 11
50.59035415759631
 21
-32.17323308123066
 31
0.0
  0
LINE
  5
160
330
1F
100
AcDbEntity
  8
0
100
AcDbLine
 10
50.84904653917847
 20
-32.13919283518774
 30
0.0
 11
50.59035415759631
 21
-32.17323308123066
 31
0.0
  0
LINE
  5
161
330
1F
100
AcDbEntity
  8
0
100
AcDbLine
 10
51.09012701471466
 20
-32.03938957394588
 30
0.0
 11
50.84904653917847
 21
-32.13919283518774
 31
0.0
  0
LINE
  5
162
330
1F
100
AcDbEntity
  8
0
100
AcDbLine
 10
51.29718270548518
 20
-31.88061795318563
 30
0.0
 11
51.09012701471466
 21
-32.03938957394588
 31
0.0
  0
LINE
  5
163
330
1F
100
AcDbEntity
  8
0
100
AcDbLine
 10
51.45611715704548
 20
-31.67368722384236
 30
0.0
 11
51.29718270548518
 21
-31.88061795318563
 31
0.0
  0
LINE
  5
164
330
1F
100
AcDbEntity
  8
0
100
AcDbLine
 10
51.55611003285835
 20
-31.43268533292453
 30
0.0
 11
51.45611715704548
 21
-31.67368722384236
 31
0.0
  0
LINE
  5
165
330
1F
100
AcDbEntity
  8
0
100
AcDbLine
 10
51.56021345644281
 20
32.18558081516662
 30
0.0
 11
51.59428762742771
 21
31.92676179076961
 31
0.0
  0
LINE
  5
166
330
1F
100
AcDbEntity
  8
0
100
AcDbLine
 10
51.4603130419301
 20
32.42676175076959
 30
0.0
 11
51.56021345644281
 21
32.18558081516662
 31
0.0
  0
LINE
  5
167
330
1F
100
AcDbEntity
  8
0
100
AcDbLine
 10
51.3013944320458
 20
32.63386851538758
 30
0.0
 11
51.4603130419301
 21
32.42676175076959
 31
0.0
  0
LINE
  5
168
330
1F
100
AcDbEntity
  8
0
100
AcDbLine
 10
51.09428766742781
 20
32.79278712527206
 30
0.0
 11
51.3013944320458
 21
32.63386851538758
 31
0.0
  0
LINE
  5
169
330
1F
100
AcDbEntity
  8
0
100
AcDbLine
 10
50.85310673182475
 20
32.89268753978459
 30
0.0
 11
51.09428766742781
 21
32.79278712527206
 31
0.0
  0
LINE
  5
16A
330
1F
100
AcDbEntity
  8
0
100
AcDbLine
 10
50.59428770742775
 20
32.92676171076966
 30
0.0
 11
50.85310673182475
 21
32.89268753978459
 31
0.0
  0
LINE
  5
16B
330
1F
100
AcDbEntity
  8
0
100
AcDbLine
 10
50.59428770742775
 20
32.92676171076966
 30
0.0
 11
47.9945951303757
 21
32.92676171076966
 31
0.0
  0
LINE
  5
16C
330
1F
100
AcDbEntity
  8
0
100
AcDbLine
 10
47.73577610597869
 20
32.89268753978459
 30
0.0
 11
47.9945951303757
 21
32.92676171076966
 31
0.0
  0
LINE
  5
16D
330
1F
100
AcDbEntity
  8
0
100
AcDbLine
 10
47.49459517037563
 20
32.79278712527206
 30
0.0
 11
47.73577610597869
 21
32.89268753978459
 31
0.0
  0
LINE
  5
16E
330
1F
100
AcDbEntity
  8
0
100
AcDbLine
 10
47.28748840575765
 20
32.63386851538758
 30
0.0
 11
47.49459517037563
 21
32.79278712527206
 31
0.0
  0
LINE
  5
16F
330
1F
100
AcDbEntity
  8
0
100
AcDbLine
 10
47.12856979587334
 20
32.42676175076959
 30
0.0
 11
47.28748840575765
 21
32.63386851538758
 31
0.0
  0
LINE
  5
170
330
1F
100
AcDbEntity
  8
0
100
AcDbLine
 10
47.02866938136064
 20
32.18558081516662
 30
0.0
 11
47.12856979587334
 21
32.42676175076959
 31
0.0
  0
LINE
  5
171
330
1F
100
AcDbEntity
  8
0
100
AcDbLine
 10
46.99459521037575
 20
31.92676179076961
 30
0.0
 11
47.02866938136064
 21
32.18558081516662
 31
0.0
  0
LINE
  5
172
330
1F
100
AcDbEntity
  8
0
100
AcDbLine
 10
46.99459521037575
 20
31.92676179076961
 30
0.0
 11
46.99459521037575
 21
26.92676219076973
 31
0.0
  0
LINE
  5
173
330
1F
100
AcDbEntity
  8
0
100
AcDbLine
 10
46.99459521037575
 20
26.92676219076973
 30
0.0
 11
37.49601887417047
 21
26.92676219076973
 31
0.0
  0
LINE
  5
174
330
1F
100
AcDbEntity
  8
0
100
AcDbLine
 10
37.49601887417047
 20
26.92676219076973
 30
0.0
 11
37.49601887417065
 21
31.9267617907697
 31
0.0
  0
LINE
  5
175
330
1F
100
AcDbEntity
  8
0
100
AcDbLine
 10
37.49601887417065
 20
31.9267617907697
 30
0.0
 11
37.46194470318576
 21
32.18558081516672
 31
0.0
  0
LINE
  5
176
330
1F
100
AcDbEntity
  8
0
100
AcDbLine
 10
37.46194470318576
 20
32.18558081516672
 30
0.0
 11
37.36204428867306
 21
32.42676175076968
 31
0.0
  0
LINE
  5
177
330
1F
100
AcDbEntity
  8
0
100
AcDbLine
 10
37.36204428867306
 20
32.42676175076968
 30
0.0
 11
37.20312567878875
 21
32.63386851538767
 31
0.0
  0
LINE
  5
178
330
1F
100
AcDbEntity
  8
0
100
AcDbLine
 10
37.20312567878875
 20
32.63386851538767
 30
0.0
 11
36.99601891417077
 21
32.79278712527206
 31
0.0
  0
LINE
  5
179
330
1F
100
AcDbEntity
  8
0
100
AcDbLine
 10
36.99601891417077
 20
32.79278712527206
 30
0.0
 11
36.75483797856771
 21
32.89268753978468
 31
0.0
  0
LINE
  5
17A
330
1F
100
AcDbEntity
  8
0
100
AcDbLine
 10
36.75483797856771
 20
32.89268753978468
 30
0.0
 11
36.49601895417069
 21
32.92676171076975
 31
0.0
  0
LINE
  5
17B
330
1F
100
AcDbEntity
  8
0
100
AcDbLine
 10
30.77855332463257
 20
19.12676281476964
 30
0.0
 11
30.77855332463257
 21
25.37675216362843
 31
0.0
  0
LINE
  5
17C
330
1F
100
AcDbEntity
  8
0
100
AcDbLine
 10
30.77855332463257
 20
19.12676281476964
 30
0.0
 11
38.14701689307851
 21
19.12676281476964
 31
0.0
  0
LINE
  5
17D
330
1F
100
AcDbEntity
  8
0
100
AcDbLine
 10
38.14701689307851
 20
19.12676281476964
 30
0.0
 11
38.14701689307851
 21
12.22676336676963
 31
0.0
  0
LINE
  5
17E
330
1F
100
AcDbEntity
  8
0
100
AcDbLine
 10
38.14701689307851
 20
12.22676336676963
 30
0.0
 11
30.77855332463257
 21
12.22676336676963
 31
0.0
  0
LINE
  5
17F
330
1F
100
AcDbEntity
  8
0
100
AcDbLine
 10
30.77855332463202
 20
-11.47323473723046
 30
0.0
 11
30.77855332463257
 21
12.22676336676963
 31
0.0
  0
LINE
  5
180
330
1F
100
AcDbEntity
  8
0
100
AcDbLine
 10
30.77855332463202
 20
-11.47323473723046
 30
0.0
 11
38.14701689307815
 21
-11.47323473723046
 31
0.0
  0
LINE
  5
181
330
1F
100
AcDbEntity
  8
0
100
AcDbLine
 10
38.14701689307815
 20
-11.47323473723046
 30
0.0
 11
38.14701689307815
 21
-18.37323418523042
 31
0.0
  0
LINE
  5
182
330
1F
100
AcDbEntity
  8
0
100
AcDbLine
 10
30.77855332463221
 20
-24.62322353408894
 30
0.0
 11
30.77855332463202
 21
-18.37323418523042
 31
0.0
  0
LINE
  5
183
330
1F
100
AcDbEntity
  8
0
100
AcDbLine
 10
19.77855920074657
 20
25.37675216362843
 30
0.0
 11
19.77855920074602
 21
-24.62322353408921
 31
0.0
  0
LINE
  5
184
330
1F
100
AcDbEntity
  8
0
100
AcDbLine
 10
30.77855332463257
 20
25.37675216362843
 30
0.0
 11
19.77855920074657
 21
25.37675216362843
 31
0.0
  0
LINE
  5
185
330
1F
100
AcDbEntity
  8
0
100
AcDbLine
 10
7.678560168746351
 20
12.22676336676999
 30
0.0
 11
7.678560168746351
 21
19.12676281476982
 31
0.0
  0
LINE
  5
186
330
1F
100
AcDbEntity
  8
0
100
AcDbLine
 10
7.678560168746351
 20
19.12676281476982
 30
0.0
 11
14.77855960074641
 21
19.12676281476982
 31
0.0
  0
LINE
  5
187
330
1F
100
AcDbEntity
  8
0
100
AcDbLine
 10
14.77855960074641
 20
19.12676281476982
 30
0.0
 11
14.77855960074641
 21
12.22676336676999
 31
0.0
  0
LINE
  5
188
330
1F
100
AcDbEntity
  8
0
100
AcDbLine
 10
7.678560168745809
 20
-18.37323418523015
 30
0.0
 11
7.678560168745809
 21
-11.47323473723009
 31
0.0
  0
LINE
  5
189
330
1F
100
AcDbEntity
  8
0
100
AcDbLine
 10
7.678560168745809
 20
-11.47323473723009
 30
0.0
 11
14.77855960074605
 21
-11.47323473723009
 31
0.0
  0
LINE
  5
18A
330
1F
100
AcDbEntity
  8
0
100
AcDbLine
 10
14.77855960074605
 20
-11.47323473723009
 30
0.0
 11
14.77855960074605
 21
-18.37323418523015
 31
0.0
  0
LINE
  5
18B
330
1F
100
AcDbEntity
  8
0
100
AcDbLine
 10
14.77855960074605
 20
-18.37323418523015
 30
0.0
 11
7.678560168745809
 21
-18.37323418523015
 31
0.0
  0
LINE
  5
18C
330
1F
100
AcDbEntity
  8
0
100
AcDbLine
 10
45.15313386953206
 20
-15.17323444123036
 30
0.0
 11
45.33295461565468
 21
-15.60736012531577
 31
0.0
  0
LINE
  5
18D
330
1F
100
AcDbEntity
  8
0
100
AcDbLine
 10
45.33295461565468
 20
-15.60736012531577
 30
0.0
 11
45.39428812342763
 21
-16.07323436923039
 31
0.0
  0
LINE
  5
18E
330
1F
100
AcDbEntity
  8
0
100
AcDbLine
 10
45.39428812342763
 20
-16.07323436923039
 30
0.0
 11
45.33295461565468
 21
-16.53910861314501
 31
0.0
  0
LINE
  5
18F
330
1F
100
AcDbEntity
  8
0
100
AcDbLine
 10
45.33295461565468
 20
-16.53910861314501
 30
0.0
 11
45.15313386953206
 21
-16.97323429723042
 31
0.0
  0
LINE
  5
190
330
1F
100
AcDbEntity
  8
0
100
AcDbLine
 10
45.15313386953206
 20
-16.97323429723042
 30
0.0
 11
44.86708037174006
 21
-17.34602647354282
 31
0.0
  0
LINE
  5
191
330
1F
100
AcDbEntity
  8
0
100
AcDbLine
 10
44.86708037174006
 20
-17.34602647354282
 30
0.0
 11
44.49428819542783
 21
-17.63207997133478
 31
0.0
  0
LINE
  5
192
330
1F
100
AcDbEntity
  8
0
100
AcDbLine
 10
44.49428819542783
 20
-17.63207997133478
 30
0.0
 11
44.06016251134228
 21
-17.81190071745745
 31
0.0
  0
LINE
  5
193
330
1F
100
AcDbEntity
  8
0
100
AcDbLine
 10
44.06016251134228
 20
-17.81190071745745
 30
0.0
 11
43.59428826742766
 21
-17.87323422523044
 31
0.0
  0
LINE
  5
194
330
1F
100
AcDbEntity
  8
0
100
AcDbLine
 10
43.59428826742766
 20
-17.87323422523044
 30
0.0
 11
43.12841402351305
 21
-17.81190071745745
 31
0.0
  0
LINE
  5
195
330
1F
100
AcDbEntity
  8
0
100
AcDbLine
 10
43.12841402351305
 20
-17.81190071745745
 30
0.0
 11
42.69428833942769
 21
-17.63207997133478
 31
0.0
  0
LINE
  5
196
330
1F
100
AcDbEntity
  8
0
100
AcDbLine
 10
42.32149616311527
 20
-17.34602647354282
 30
0.0
 11
42.03544266532327
 21
-16.97323429723042
 31
0.0
  0
LINE
  5
197
330
1F
100
AcDbEntity
  8
0
100
AcDbLine
 10
42.03544266532327
 20
-16.97323429723042
 30
0.0
 11
41.85562191920065
 21
-16.53910861314501
 31
0.0
  0
LINE
  5
198
330
1F
100
AcDbEntity
  8
0
100
AcDbLine
 10
41.85562191920065
 20
-16.53910861314501
 30
0.0
 11
41.7942884114277
 21
-16.07323436923039
 31
0.0
  0
LINE
  5
199
330
1F
100
AcDbEntity
  8
0
100
AcDbLine
 10
41.7942884114277
 20
-16.07323436923039
 30
0.0
 11
41.85562191920065
 21
-15.60736012531577
 31
0.0
  0
LINE
  5
19A
330
1F
100
AcDbEntity
  8
0
100
AcDbLine
 10
41.85562191920065
 20
-15.60736012531577
 30
0.0
 11
42.03544266532327
 21
-15.17323444123036
 31
0.0
  0
LINE
  5
19B
330
1F
100
AcDbEntity
  8
0
100
AcDbLine
 10
42.03544266532327
 20
-15.17323444123036
 30
0.0
 11
42.32149616311527
 21
-14.80044226491795
 31
0.0
  0
LINE
  5
19C
330
1F
100
AcDbEntity
  8
0
100
AcDbLine
 10
42.32149616311527
 20
-14.80044226491795
 30
0.0
 11
42.6942883394275
 21
-14.51438876712599
 31
0.0
  0
LINE
  5
19D
330
1F
100
AcDbEntity
  8
0
100
AcDbLine
 10
42.6942883394275
 20
-14.51438876712599
 30
0.0
 11
43.12841402351305
 21
-14.33456802100333
 31
0.0
  0
LINE
  5
19E
330
1F
100
AcDbEntity
  8
0
100
AcDbLine
 10
43.12841402351305
 20
-14.33456802100333
 30
0.0
 11
43.59428826742766
 21
-14.27323451323033
 31
0.0
  0
LINE
  5
19F
330
1F
100
AcDbEntity
  8
0
100
AcDbLine
 10
43.59428826742766
 20
-14.27323451323033
 30
0.0
 11
44.06016251134228
 21
-14.33456802100333
 31
0.0
  0
LINE
  5
1A0
330
1F
100
AcDbEntity
  8
0
100
AcDbLine
 10
44.06016251134228
 20
-14.33456802100333
 30
0.0
 11
44.49428819542765
 21
-14.51438876712599
 31
0.0
  0
LINE
  5
1A1
330
1F
100
AcDbEntity
  8
0
100
AcDbLine
 10
44.49428819542765
 20
-14.51438876712599
 30
0.0
 11
44.86708037174006
 21
-14.80044226491795
 31
0.0
  0
LINE
  5
1A2
330
1F
100
AcDbEntity
  8
0
100
AcDbLine
 10
44.86708037174006
 20
-14.80044226491795
 30
0.0
 11
45.15313386953206
 21
-15.17323444123036
 31
0.0
  0
LINE
  5
1A3
330
1F
100
AcDbEntity
  8
0
100
AcDbLine
 10
9.431090696067468
 20
-21.18325449539847
 30
0.0
 11
9.622069040929489
 21
-21.61258872663633
 31
0.0
  0
LINE
  5
1A4
330
1F
100
AcDbEntity
  8
0
100
AcDbLine
 10
9.622069040929489
 20
-21.61258872663633
 30
0.0
 11
9.695420080734579
 21
-22.07672258155131
 31
0.0
  0
LINE
  5
1A5
330
1F
100
AcDbEntity
  8
0
100
AcDbLine
 10
9.695420080734579
 20
-22.07672258155131
 30
0.0
 11
9.646145063338743
 21
-22.54402610494843
 31
0.0
  0
LINE
  5
1A6
330
1F
100
AcDbEntity
  8
0
100
AcDbLine
 10
9.646145063338743
 20
-22.54402610494843
 30
0.0
 11
9.477601999746517
 21
-22.9826533339638
 31
0.0
  0
LINE
  5
1A7
330
1F
100
AcDbEntity
  8
0
100
AcDbLine
 10
9.477601999746517
 20
-22.9826533339638
 30
0.0
 11
9.201276821211152
 21
-23.36271254780577
 31
0.0
  0
LINE
  5
1A8
330
1F
100
AcDbEntity
  8
0
100
AcDbLine
 10
9.201276821211152
 20
-23.36271254780577
 30
0.0
 11
8.836000632001005
 21
-23.65830333912853
 31
0.0
  0
LINE
  5
1A9
330
1F
100
AcDbEntity
  8
0
100
AcDbLine
 10
8.836000632001005
 20
-23.65830333912853
 30
0.0
 11
8.406666400763193
 21
-23.84928168399032
 31
0.0
  0
LINE
  5
1AA
330
1F
100
AcDbEntity
  8
0
100
AcDbLine
 10
8.406666400763193
 20
-23.84928168399032
 30
0.0
 11
7.942532545848121
 21
-23.92263272379551
 31
0.0
  0
LINE
  5
1AB
330
1F
100
AcDbEntity
  8
0
100
AcDbLine
 10
7.942532545848121
 20
-23.92263272379551
 30
0.0
 11
7.475229022450915
 21
-23.87335770639962
 31
0.0
  0
LINE
  5
1AC
330
1F
100
AcDbEntity
  8
0
100
AcDbLine
 10
7.475229022450915
 20
-23.87335770639962
 30
0.0
 11
7.036601793435678
 21
-23.7048146428074
 31
0.0
  0
LINE
  5
1AD
330
1F
100
AcDbEntity
  8
0
100
AcDbLine
 10
7.036601793435678
 20
-23.7048146428074
 30
0.0
 11
6.656542579593702
 21
-23.42848946427208
 31
0.0
  0
LINE
  5
1AE
330
1F
100
AcDbEntity
  8
0
100
AcDbLine
 10
6.656542579593702
 20
-23.42848946427208
 30
0.0
 11
6.360951788271037
 21
-23.06321327506188
 31
0.0
  0
LINE
  5
1AF
330
1F
100
AcDbEntity
  8
0
100
AcDbLine
 10
6.169973443409016
 20
-22.63387904382403
 30
0.0
 11
6.096622403603928
 21
-22.16974518890905
 31
0.0
  0
LINE
  5
1B0
330
1F
100
AcDbEntity
  8
0
100
AcDbLine
 10
6.096622403603928
 20
-22.16974518890905
 30
0.0
 11
6.145897420999762
 21
-21.70244166551193
 31
0.0
  0
LINE
  5
1B1
330
1F
100
AcDbEntity
  8
0
100
AcDbLine
 10
6.145897420999762
 20
-21.70244166551193
 30
0.0
 11
6.314440484591988
 21
-21.26381443649656
 31
0.0
  0
LINE
  5
1B2
330
1F
100
AcDbEntity
  8
0
100
AcDbLine
 10
6.314440484591988
 20
-21.26381443649656
 30
0.0
 11
6.590765663127353
 21
-20.88375522265458
 31
0.0
  0
LINE
  5
1B3
330
1F
100
AcDbEntity
  8
0
100
AcDbLine
 10
6.590765663127353
 20
-20.88375522265458
 30
0.0
 11
6.956041852337502
 21
-20.58816443133183
 31
0.0
  0
LINE
  5
1B4
330
1F
100
AcDbEntity
  8
0
100
AcDbLine
 10
6.956041852337502
 20
-20.58816443133183
 30
0.0
 11
7.385376083575313
 21
-20.39718608647003
 31
0.0
  0
LINE
  5
1B5
330
1F
100
AcDbEntity
  8
0
100
AcDbLine
 10
7.385376083575313
 20
-20.39718608647003
 30
0.0
 11
7.849509938490384
 21
-20.32383504666485
 31
0.0
  0
LINE
  5
1B6
330
1F
100
AcDbEntity
  8
0
100
AcDbLine
 10
7.849509938490384
 20
-20.32383504666485
 30
0.0
 11
8.316813461887591
 21
-20.37311006406073
 31
0.0
  0
LINE
  5
1B7
330
1F
100
AcDbEntity
  8
0
100
AcDbLine
 10
8.316813461887591
 20
-20.37311006406073
 30
0.0
 11
8.755440690902827
 21
-20.54165312765296
 31
0.0
  0
LINE
  5
1B8
330
1F
100
AcDbEntity
  8
0
100
AcDbLine
 10
8.755440690902827
 20
-20.54165312765296
 30
0.0
 11
9.135499904744803
 21
-20.81797830618828
 31
0.0
  0
LINE
  5
1B9
330
1F
100
AcDbEntity
  8
0
100
AcDbLine
 10
9.135499904744803
 20
-20.81797830618828
 30
0.0
 11
9.431090696067468
 21
-21.18325449539847
 31
0.0
  0
LINE
  5
1BA
330
1F
100
AcDbEntity
  8
0
100
AcDbLine
 10
45.33295461565468
 20
17.29263724268423
 30
0.0
 11
45.39428812342763
 21
16.82676299876961
 31
0.0
  0
LINE
  5
1BB
330
1F
100
AcDbEntity
  8
0
100
AcDbLine
 10
45.39428812342763
 20
16.82676299876961
 30
0.0
 11
45.33295461565468
 21
16.36088875485499
 31
0.0
  0
LINE
  5
1BC
330
1F
100
AcDbEntity
  8
0
100
AcDbLine
 10
45.33295461565468
 20
16.36088875485499
 30
0.0
 11
45.15313386953206
 21
15.92676307076963
 31
0.0
  0
LINE
  5
1BD
330
1F
100
AcDbEntity
  8
0
100
AcDbLine
 10
45.15313386953206
 20
15.92676307076963
 30
0.0
 11
44.86708037174006
 21
15.55397089445722
 31
0.0
  0
LINE
  5
1BE
330
1F
100
AcDbEntity
  8
0
100
AcDbLine
 10
44.86708037174006
 20
15.55397089445722
 30
0.0
 11
44.49428819542783
 21
15.26791739666521
 31
0.0
  0
LINE
  5
1BF
330
1F
100
AcDbEntity
  8
0
100
AcDbLine
 10
44.49428819542783
 20
15.26791739666521
 30
0.0
 11
44.06016251134228
 21
15.08809665054259
 31
0.0
  0
LINE
  5
1C0
330
1F
100
AcDbEntity
  8
0
100
AcDbLine
 10
44.06016251134228
 20
15.08809665054259
 30
0.0
 11
43.59428826742766
 21
15.02676314276965
 31
0.0
  0
LINE
  5
1C1
330
1F
100
AcDbEntity
  8
0
100
AcDbLine
 10
43.59428826742766
 20
15.02676314276965
 30
0.0
 11
43.12841402351305
 21
15.08809665054259
 31
0.0
  0
LINE
  5
1C2
330
1F
100
AcDbEntity
  8
0
100
AcDbLine
 10
43.12841402351305
 20
15.08809665054259
 30
0.0
 11
42.69428833942769
 21
15.26791739666521
 31
0.0
  0
LINE
  5
1C3
330
1F
100
AcDbEntity
  8
0
100
AcDbLine
 10
42.69428833942769
 20
15.26791739666521
 30
0.0
 11
42.32149616311527
 21
15.55397089445722
 31
0.0
  0
LINE
  5
1C4
330
1F
100
AcDbEntity
  8
0
100
AcDbLine
 10
42.32149616311527
 20
15.55397089445722
 30
0.0
 11
42.03544266532327
 21
15.92676307076963
 31
0.0
  0
LINE
  5
1C5
330
1F
100
AcDbEntity
  8
0
100
AcDbLine
 10
42.03544266532327
 20
15.92676307076963
 30
0.0
 11
41.85562191920065
 21
16.36088875485499
 31
0.0
  0
LINE
  5
1C6
330
1F
100
AcDbEntity
  8
0
100
AcDbLine
 10
41.85562191920065
 20
16.36088875485499
 30
0.0
 11
41.7942884114277
 21
16.82676299876961
 31
0.0
  0
LINE
  5
1C7
330
1F
100
AcDbEntity
  8
0
100
AcDbLine
 10
41.7942884114277
 20
16.82676299876961
 30
0.0
 11
41.85562191920065
 21
17.29263724268423
 31
0.0
  0
LINE
  5
1C8
330
1F
100
AcDbEntity
  8
0
100
AcDbLine
 10
41.85562191920065
 20
17.29263724268423
 30
0.0
 11
42.03544266532327
 21
17.72676292676959
 31
0.0
  0
LINE
  5
1C9
330
1F
100
AcDbEntity
  8
0
100
AcDbLine
 10
42.03544266532327
 20
17.72676292676959
 30
0.0
 11
42.32149616311527
 21
18.09955510308218
 31
0.0
  0
LINE
  5
1CA
330
1F
100
AcDbEntity
  8
0
100
AcDbLine
 10
42.32149616311527
 20
18.09955510308218
 30
0.0
 11
42.6942883394275
 21
18.385608600874
 31
0.0
  0
LINE
  5
1CB
330
1F
100
AcDbEntity
  8
0
100
AcDbLine
 10
42.6942883394275
 20
18.385608600874
 30
0.0
 11
43.12841402351305
 21
18.56542934699662
 31
0.0
  0
LINE
  5
1CC
330
1F
100
AcDbEntity
  8
0
100
AcDbLine
 10
43.12841402351305
 20
18.56542934699662
 30
0.0
 11
43.59428826742766
 21
18.62676285476975
 31
0.0
  0
LINE
  5
1CD
330
1F
100
AcDbEntity
  8
0
100
AcDbLine
 10
43.59428826742766
 20
18.62676285476975
 30
0.0
 11
44.06016251134228
 21
18.56542934699662
 31
0.0
  0
LINE
  5
1CE
330
1F
100
AcDbEntity
  8
0
100
AcDbLine
 10
44.06016251134228
 20
18.56542934699662
 30
0.0
 11
44.49428819542765
 21
18.385608600874
 31
0.0
  0
LINE
  5
1CF
330
1F
100
AcDbEntity
  8
0
100
AcDbLine
 10
44.49428819542765
 20
18.385608600874
 30
0.0
 11
44.86708037174006
 21
18.09955510308218
 31
0.0
  0
LINE
  5
1D0
330
1F
100
AcDbEntity
  8
0
100
AcDbLine
 10
44.86708037174006
 20
18.09955510308218
 30
0.0
 11
45.15313386953206
 21
17.72676292676977
 31
0.0
  0
LINE
  5
1D1
330
1F
100
AcDbEntity
  8
0
100
AcDbLine
 10
45.15313386953206
 20
17.72676292676977
 30
0.0
 11
45.33295461565468
 21
17.29263724268423
 31
0.0
  0
LINE
  5
1D2
330
1F
100
AcDbEntity
  8
0
100
AcDbLine
 10
7.855432712587525
 20
24.67630469345489
 30
0.0
 11
8.322571521504075
 21
24.62549186512675
 31
0.0
  0
LINE
  5
1D3
330
1F
100
AcDbEntity
  8
0
100
AcDbLine
 10
8.322571521504075
 20
24.62549186512675
 30
0.0
 11
8.760641633791645
 21
24.4555060214836
 31
0.0
  0
LINE
  5
1D4
330
1F
100
AcDbEntity
  8
0
100
AcDbLine
 10
7.936609771750981
 20
21.0772203360849
 30
0.0
 11
7.469470962834428
 21
21.12803316441322
 31
0.0
  0
LINE
  5
1D5
330
1F
100
AcDbEntity
  8
0
100
AcDbLine
 10
7.469470962834428
 20
21.12803316441322
 30
0.0
 11
7.031400850546861
 21
21.29801900805619
 31
0.0
  0
LINE
  5
1D6
330
1F
100
AcDbEntity
  8
0
100
AcDbLine
 10
7.031400850546861
 20
21.29801900805619
 30
0.0
 11
6.652253189095537
 21
21.57559361268485
 31
0.0
  0
LINE
  5
1D7
330
1F
100
AcDbEntity
  8
0
100
AcDbLine
 10
6.652253189095537
 20
21.57559361268485
 30
0.0
 11
6.357866265037272
 21
21.94184072770747
 31
0.0
  0
LINE
  5
1D8
330
1F
100
AcDbEntity
  8
0
100
AcDbLine
 10
6.357866265037272
 20
21.94184072770747
 30
0.0
 11
6.168302060749387
 21
22.37180121748694
 31
0.0
  0
LINE
  5
1D9
330
1F
100
AcDbEntity
  8
0
100
AcDbLine
 10
6.168302060749387
 20
22.37180121748694
 30
0.0
 11
6.096479063484257
 21
22.83617398518817
 31
0.0
  0
LINE
  5
1DA
330
1F
100
AcDbEntity
  8
0
100
AcDbLine
 10
-8.548137006335061
 20
-26.16974486892513
 30
0.0
 11
-18.94813617433547
 21
-26.16974486892513
 31
0.0
  0
LINE
  5
1DB
330
1F
100
AcDbEntity
  8
0
100
AcDbLine
 10
-11.20515835103194
 20
-68.02023482149195
 30
0.0
 11
-11.82647864488608
 21
-67.54347899183877
 31
0.0
  0
LINE
  5
1DC
330
1F
100
AcDbEntity
  8
0
100
AcDbLine
 10
-7.288837684808692
 20
51.04155652334583
 30
0.0
 11
-4.690761681301426
 21
55.54155616334583
 31
0.0
  0
LINE
  5
1DD
330
1F
100
AcDbEntity
  8
0
100
AcDbLine
 10
-66.69186698646742
 20
14.5446112278902
 30
0.0
 11
-66.30597748950245
 21
14.38477056467001
 31
0.0
  0
LINE
  5
1DE
330
1F
100
AcDbEntity
  8
0
100
AcDbLine
 10
-66.30597748950245
 20
14.38477056467001
 30
0.0
 11
-65.89186705046723
 21
14.33025189109408
 31
0.0
  0
LINE
  5
1DF
330
1F
100
AcDbEntity
  8
0
100
AcDbLine
 10
-65.89186705046723
 20
14.33025189109408
 30
0.0
 11
-59.69186754646715
 21
14.33025189109408
 31
0.0
  0
LINE
  5
1E0
330
1F
100
AcDbEntity
  8
0
100
AcDbLine
 10
-59.69186754646715
 20
14.33025189109408
 30
0.0
 11
-59.27775710743194
 21
14.38477056467001
 31
0.0
  0
LINE
  5
1E1
330
1F
100
AcDbEntity
  8
0
100
AcDbLine
 10
63.87523699406018
 20
24.45906287932474
 30
0.0
 11
64.25440653952548
 21
24.18151816921413
 31
0.0
  0
LINE
  5
1E2
330
1F
100
AcDbEntity
  8
0
100
AcDbLine
 10
64.31200804228777
 20
21.63658574769888
 30
0.0
 11
63.94578413915279
 21
21.34216994803574
 31
0.0
  0
LINE
  5
1E3
330
1F
100
AcDbEntity
  8
0
100
AcDbLine
 10
63.94578413915279
 20
21.34216994803574
 30
0.0
 11
63.51583859677854
 21
21.15257184437662
 31
0.0
  0
LINE
  5
1E4
330
1F
100
AcDbEntity
  8
0
100
AcDbLine
 10
63.51583859677854
 20
21.15257184437662
 30
0.0
 11
63.05147149335881
 21
21.08071223416036
 31
0.0
  0
LINE
  5
1E5
330
1F
100
AcDbEntity
  8
0
100
AcDbLine
 10
-47.67537710943353
 20
21.1316910192567
 30
0.0
 11
-48.11337982856611
 21
21.3018504396575
 31
0.0
  0
LINE
  5
1E6
330
1F
100
AcDbEntity
  8
0
100
AcDbLine
 10
-47.20825847233515
 20
21.08069308602331
 30
0.0
 11
-47.67537710943353
 21
21.1316910192567
 31
0.0
  0
LINE
  5
1E7
330
1F
100
AcDbEntity
  8
0
100
AcDbLine
 10
-46.74385728043924
 20
21.1523320648293
 30
0.0
 11
-47.20825847233515
 21
21.08069308602331
 31
0.0
  0
LINE
  5
1E8
330
1F
100
AcDbEntity
  8
0
100
AcDbLine
 10
93.76261088047595
 20
48.25602967442249
 30
0.0
 11
93.14129058662179
 21
48.73278550407576
 31
0.0
  0
LINE
  5
1E9
330
1F
100
AcDbEntity
  8
0
100
AcDbLine
 10
93.14129058662179
 20
48.73278550407576
 30
0.0
 11
92.66453475696852
 21
49.35410579792973
 31
0.0
  0
LINE
  5
1EA
330
1F
100
AcDbEntity
  8
0
100
AcDbLine
 10
92.36483351343077
 20
50.0776486047389
 30
0.0
 11
92.2874082009173
 21
50.66575224069287
 31
0.0
  0
LINE
  5
1EB
330
1F
100
AcDbEntity
  8
0
100
AcDbLine
 10
92.2874082009173
 20
50.66575224069287
 30
0.0
 11
92.2874082009173
 21
50.85410567792993
 31
0.0
  0
LINE
  5
1EC
330
1F
100
AcDbEntity
  8
0
100
AcDbLine
 10
92.2874082009173
 20
50.85410567792993
 30
0.0
 11
92.38963071387234
 21
51.63056275112078
 31
0.0
  0
LINE
  5
1ED
330
1F
100
AcDbEntity
  8
0
100
AcDbLine
 10
92.38963071387234
 20
51.63056275112078
 30
0.0
 11
92.68933195741009
 21
52.35410555792978
 31
0.0
  0
LINE
  5
1EE
330
1F
100
AcDbEntity
  8
0
100
AcDbLine
 10
92.68933195741009
 20
52.35410555792978
 30
0.0
 11
93.16608778706336
 21
52.97542585178392
 31
0.0
  0
LINE
  5
1EF
330
1F
100
AcDbEntity
  8
0
100
AcDbLine
 10
93.16608778706336
 20
52.97542585178392
 30
0.0
 11
93.78740808091732
 21
53.45218168143701
 31
0.0
  0
LINE
  5
1F0
330
1F
100
AcDbEntity
  8
0
100
AcDbLine
 10
93.78740808091732
 20
53.45218168143701
 30
0.0
 11
94.51095088772631
 21
53.75188292497495
 31
0.0
  0
LINE
  5
1F1
330
1F
100
AcDbEntity
  8
0
100
AcDbLine
 10
94.51095088772631
 20
53.75188292497495
 30
0.0
 11
95.28740796091735
 21
53.8541054379298
 31
0.0
  0
LINE
  5
1F2
330
1F
100
AcDbEntity
  8
0
100
AcDbLine
 10
95.28740796091735
 20
53.8541054379298
 30
0.0
 11
96.06386503410839
 21
53.75188292497495
 31
0.0
  0
LINE
  5
1F3
330
1F
100
AcDbEntity
  8
0
100
AcDbLine
 10
96.06386503410839
 20
53.75188292497495
 30
0.0
 11
96.78740784091738
 21
53.45218168143701
 31
0.0
  0
LINE
  5
1F4
330
1F
100
AcDbEntity
  8
0
100
AcDbLine
 10
96.78740784091738
 20
53.45218168143701
 30
0.0
 11
97.40872813477134
 21
52.97542585178392
 31
0.0
  0
LINE
  5
1F5
330
1F
100
AcDbEntity
  8
0
100
AcDbLine
 10
97.40872813477134
 20
52.97542585178392
 30
0.0
 11
97.88548396442462
 21
52.35410555792978
 31
0.0
  0
LINE
  5
1F6
330
1F
100
AcDbEntity
  8
0
100
AcDbLine
 10
97.88548396442462
 20
52.35410555792978
 30
0.0
 11
98.18518520796238
 21
51.63056275112078
 31
0.0
  0
LINE
  5
1F7
330
1F
100
AcDbEntity
  8
0
100
AcDbLine
 10
98.18518520796238
 20
51.63056275112078
 30
0.0
 11
98.28740772091741
 21
50.85410567792993
 31
0.0
  0
LINE
  5
1F8
330
1F
100
AcDbEntity
  8
0
100
AcDbLine
 10
98.28740772091741
 20
50.85410567792993
 30
0.0
 11
98.16038800752082
 21
50.0776486047389
 31
0.0
  0
LINE
  5
1F9
330
1F
100
AcDbEntity
  8
0
100
AcDbLine
 10
98.16038800752082
 20
50.0776486047389
 30
0.0
 11
97.86068676398307
 21
49.35410579792973
 31
0.0
  0
LINE
  5
1FA
330
1F
100
AcDbEntity
  8
0
100
AcDbLine
 10
97.86068676398307
 20
49.35410579792973
 30
0.0
 11
97.38393093432997
 21
48.73278550407576
 31
0.0
  0
LINE
  5
1FB
330
1F
100
AcDbEntity
  8
0
100
AcDbLine
 10
97.38393093432997
 20
48.73278550407576
 30
0.0
 11
96.762610640476
 21
48.25602967442249
 31
0.0
  0
LINE
  5
1FC
330
1F
100
AcDbEntity
  8
0
100
AcDbLine
 10
96.762610640476
 20
48.25602967442249
 30
0.0
 11
96.03906783366682
 21
47.95632843088473
 31
0.0
  0
LINE
  5
1FD
330
1F
100
AcDbEntity
  8
0
100
AcDbLine
 10
96.03906783366682
 20
47.95632843088473
 30
0.0
 11
95.26261076047598
 21
47.85410591792969
 31
0.0
  0
LINE
  5
1FE
330
1F
100
AcDbEntity
  8
0
100
AcDbLine
 10
95.26261076047598
 20
47.85410591792969
 30
0.0
 11
94.48615368728476
 21
47.95632843088473
 31
0.0
  0
LINE
  5
1FF
330
1F
100
AcDbEntity
  8
0
100
AcDbLine
 10
94.48615368728476
 20
47.95632843088473
 30
0.0
 11
93.76261088047595
 21
48.25602967442249
 31
0.0
  0
LINE
  5
200
330
1F
100
AcDbEntity
  8
0
100
AcDbLine
 10
-47.80901217740688
 20
-68.58270939324163
 30
0.0
 11
-47.43622000109429
 21
-68.86876289103355
 31
0.0
  0
LINE
  5
201
330
1F
100
AcDbEntity
  8
0
100
AcDbLine
 10
-47.43622000109429
 20
-68.86876289103355
 30
0.0
 11
-47.15016650330247
 21
-69.24155506734596
 31
0.0
  0
LINE
  5
202
330
1F
100
AcDbEntity
  8
0
100
AcDbLine
 10
-47.15016650330247
 20
-69.24155506734596
 30
0.0
 11
-46.97034575717986
 21
-69.6756807514314
 31
0.0
  0
LINE
  5
203
330
1F
100
AcDbEntity
  8
0
100
AcDbLine
 10
-46.90901224940672
 20
-70.14155499534603
 30
0.0
 11
-46.97034575717986
 21
-70.60742923926065
 31
0.0
  0
LINE
  5
204
330
1F
100
AcDbEntity
  8
0
100
AcDbLine
 10
-47.15016650330247
 20
-71.0415549233461
 30
0.0
 11
-47.43622000109429
 21
-71.41434709965851
 31
0.0
  0
LINE
  5
205
330
1F
100
AcDbEntity
  8
0
100
AcDbLine
 10
-47.43622000109429
 20
-71.41434709965851
 30
0.0
 11
-47.80901217740688
 21
-71.70040059745043
 31
0.0
  0
LINE
  5
206
330
1F
100
AcDbEntity
  8
0
100
AcDbLine
 10
-47.80901217740688
 20
-71.70040059745043
 30
0.0
 11
-48.24313786149224
 21
-71.88022134357313
 31
0.0
  0
LINE
  5
207
330
1F
100
AcDbEntity
  8
0
100
AcDbLine
 10
-62.20148628893119
 20
7.930252403094139
 30
0.0
 11
-64.58526543719739
 21
11.03685387236421
 31
0.0
  0
LINE
  5
208
330
1F
100
AcDbEntity
  8
0
100
AcDbLine
 10
-64.58526543719739
 20
11.03685387236421
 30
0.0
 11
-67.69186690646738
 21
13.42063302063023
 31
0.0
  0
LINE
  5
209
330
1F
100
AcDbEntity
  8
0
100
AcDbLine
 10
-90.2777546274323
 20
14.38477056467001
 30
0.0
 11
-89.89186513046735
 21
14.5446112278902
 31
0.0
  0
LINE
  5
20A
330
1F
100
AcDbEntity
  8
0
100
AcDbLine
 10
-89.89186513046735
 20
14.5446112278902
 30
0.0
 11
-89.56049430707867
 21
14.79888100370523
 31
0.0
  0
LINE
  5
20B
330
1F
100
AcDbEntity
  8
0
100
AcDbLine
 10
-89.56049430707867
 20
14.79888100370523
 30
0.0
 11
-89.30622453126382
 21
15.1302518270939
 31
0.0
  0
LINE
  5
20C
330
1F
100
AcDbEntity
  8
0
100
AcDbLine
 10
-87.6481306783358
 20
26.93025088309481
 30
0.0
 11
-87.6481306783358
 21
33.73025033909476
 31
0.0
  0
LINE
  5
20D
330
1F
100
AcDbEntity
  8
0
100
AcDbLine
 10
-87.6481306783358
 20
33.73025033909476
 30
0.0
 11
-98.04812984633585
 21
33.73025033909476
 31
0.0
  0
LINE
  5
20E
330
1F
100
AcDbEntity
  8
0
100
AcDbLine
 10
-89.09186519446753
 20
-15.0697457569061
 30
0.0
 11
-89.14638386804346
 21
-14.65563531787106
 31
0.0
  0
LINE
  5
20F
330
1F
100
AcDbEntity
  8
0
100
AcDbLine
 10
97.80900817740739
 20
15.27140608897063
 30
0.0
 11
97.43621600109479
 21
15.55745958676254
 31
0.0
  0
LINE
  5
210
330
1F
100
AcDbEntity
  8
0
100
AcDbLine
 10
98.24313386149275
 20
15.09158534284801
 30
0.0
 11
97.80900817740739
 21
15.27140608897063
 31
0.0
  0
LINE
  5
211
330
1F
100
AcDbEntity
  8
0
100
AcDbLine
 10
98.70900810540738
 20
15.03025183507497
 30
0.0
 11
98.24313386149275
 21
15.09158534284801
 31
0.0
  0
LINE
  5
212
330
1F
100
AcDbEntity
  8
0
100
AcDbLine
 10
99.17488234932199
 20
15.09158534284801
 30
0.0
 11
98.70900810540738
 21
15.03025183507497
 31
0.0
  0
LINE
  5
213
330
1F
100
AcDbEntity
  8
0
100
AcDbLine
 10
99.60900803340736
 20
15.27140608897063
 30
0.0
 11
99.17488234932199
 21
15.09158534284801
 31
0.0
  0
LINE
  5
214
330
1F
100
AcDbEntity
  8
0
100
AcDbLine
 10
99.98180020971995
 20
15.55745958676254
 30
0.0
 11
99.60900803340736
 21
15.27140608897063
 31
0.0
  0
LINE
  5
215
330
1F
100
AcDbEntity
  8
0
100
AcDbLine
 10
100.2678537075118
 20
15.93025176307505
 30
0.0
 11
99.98180020971995
 21
15.55745958676254
 31
0.0
  0
LINE
  5
216
330
1F
100
AcDbEntity
  8
0
100
AcDbLine
 10
-11.82647864488608
 20
-67.54347899183877
 30
0.0
 11
-12.55002145169489
 21
-67.24377774830091
 31
0.0
  0
LINE
  5
217
330
1F
100
AcDbEntity
  8
0
100
AcDbLine
 10
-15.92455452839338
 20
-74.64155463534608
 30
0.0
 11
-10.72840252137902
 21
-74.64155463534608
 31
0.0
  0
LINE
  5
218
330
1F
100
AcDbEntity
  8
0
100
AcDbLine
 10
-18.52263053190064
 20
-70.14155499534603
 30
0.0
 11
-15.92455452839338
 21
-74.64155463534608
 31
0.0
  0
LINE
  5
219
330
1F
100
AcDbEntity
  8
0
100
AcDbLine
 10
-34.04813496633556
 20
-32.96974432492516
 30
0.0
 11
-34.04813496633556
 21
-26.16974486892513
 31
0.0
  0
LINE
  5
21A
330
1F
100
AcDbEntity
  8
0
100
AcDbLine
 10
-34.04813496633556
 20
33.73025033907527
 30
0.0
 11
-44.44813413433561
 21
33.73025033907527
 31
0.0
  0
LINE
  5
21B
330
1F
100
AcDbEntity
  8
0
100
AcDbLine
 10
-44.44813413433561
 20
33.73025033907527
 30
0.0
 11
-44.44813413433561
 21
26.93025088307523
 31
0.0
  0
LINE
  5
21C
330
1F
100
AcDbEntity
  8
0
100
AcDbLine
 10
-11.0839926411625
 20
18.56891803930195
 30
0.0
 11
-10.64986695707714
 21
18.38909729317933
 31
0.0
  0
LINE
  5
21D
330
1F
100
AcDbEntity
  8
0
100
AcDbLine
 10
-11.54986688507712
 20
18.63025154707499
 30
0.0
 11
-11.0839926411625
 21
18.56891803930195
 31
0.0
  0
LINE
  5
21E
330
1F
100
AcDbEntity
  8
0
100
AcDbLine
 10
-12.01574112899174
 20
18.56891803930195
 30
0.0
 11
-11.54986688507712
 21
18.63025154707499
 31
0.0
  0
LINE
  5
21F
330
1F
100
AcDbEntity
  8
0
100
AcDbLine
 10
-48.11337982857206
 20
-20.54134442551014
 30
0.0
 11
-47.67537710944002
 21
-20.37118500510767
 31
0.0
  0
LINE
  5
220
330
1F
100
AcDbEntity
  8
0
100
AcDbLine
 10
-48.49241746826291
 20
-20.81906924978134
 30
0.0
 11
-48.11337982857206
 21
-20.54134442551014
 31
0.0
  0
LINE
  5
221
330
1F
100
AcDbEntity
  8
0
100
AcDbLine
 10
-48.78665923975659
 20
-21.18543299010915
 30
0.0
 11
-48.49241746826291
 21
-20.81906924978134
 31
0.0
  0
LINE
  5
222
330
1F
100
AcDbEntity
  8
0
100
AcDbLine
 10
-48.97605305258353
 20
-21.61546856303492
 30
0.0
 11
-48.78665923975659
 21
-21.18543299010915
 31
0.0
  0
LINE
  5
223
330
1F
100
AcDbEntity
  8
0
100
AcDbLine
 10
-45.49957372251836
 20
-21.69250199382032
 30
0.0
 11
-45.44857578928326
 21
-22.15962063091855
 31
0.0
  0
LINE
  5
224
330
1F
100
AcDbEntity
  8
0
100
AcDbLine
 10
-11.0839926411625
 20
15.0915853428481
 30
0.0
 11
-11.54986688507712
 21
15.03025183507506
 31
0.0
  0
LINE
  5
225
330
1F
100
AcDbEntity
  8
0
100
AcDbLine
 10
-44.44813413433561
 20
-32.96974432492516
 30
0.0
 11
-34.04813496633556
 21
-32.96974432492516
 31
0.0
  0
LINE
  5
226
330
1F
100
AcDbEntity
  8
0
100
AcDbLine
 10
-41.10901271340548
 20
-74.64155463534603
 30
0.0
 11
-35.82647672488746
 21
-74.64155463534603
 31
0.0
  0
LINE
  5
227
330
1F
100
AcDbEntity
  8
0
100
AcDbLine
 10
-18.10901455340587
 20
-65.64155535534603
 30
0.0
 11
-18.10901455340587
 21
-59.04155588334596
 31
0.0
  0
LINE
  5
228
330
1F
100
AcDbEntity
  8
0
100
AcDbLine
 10
-106.709007465407
 20
-51.04155652334592
 30
0.0
 11
-98.70900810540701
 21
-51.04155652334592
 31
0.0
  0
LINE
  5
229
330
1F
100
AcDbEntity
  8
0
100
AcDbLine
 10
9.27448876447113
 20
-61.85354832931922
 30
0.0
 11
9.515669700074007
 21
-61.7536479148067
 31
0.0
  0
LINE
  5
22A
330
1F
100
AcDbEntity
  8
0
100
AcDbLine
 10
9.067381999853144
 20
-62.0124669392037
 30
0.0
 11
9.27448876447113
 21
-61.85354832931922
 31
0.0
  0
LINE
  5
22B
330
1F
100
AcDbEntity
  8
0
100
AcDbLine
 10
8.808562975455951
 20
-62.46075463942466
 30
0.0
 11
8.908463389968658
 21
-62.21957370382169
 31
0.0
  0
LINE
  5
22C
330
1F
100
AcDbEntity
  8
0
100
AcDbLine
 10
8.774488804470879
 20
-62.71957366382167
 30
0.0
 11
8.808562975455951
 21
-62.46075463942466
 31
0.0
  0
LINE
  5
22D
330
1F
100
AcDbEntity
  8
0
100
AcDbLine
 10
8.774488804470879
 20
-66.7195733438217
 30
0.0
 11
8.774488804470879
 21
-62.71957366382167
 31
0.0
  0
LINE
  5
22E
330
1F
100
AcDbEntity
  8
0
100
AcDbLine
 10
3.808563375455972
 20
-78.4783914482187
 30
0.0
 11
3.774489204470901
 21
-78.21957242382167
 31
0.0
  0
LINE
  5
22F
330
1F
100
AcDbEntity
  8
0
100
AcDbLine
 10
-89.30622453126382
 20
16.73025169909391
 30
0.0
 11
-89.56049430707849
 21
17.06162252248258
 31
0.0
  0
LINE
  5
230
330
1F
100
AcDbEntity
  8
0
100
AcDbLine
 10
-89.56049430707849
 20
17.06162252248258
 30
0.0
 11
-89.89186513046752
 21
17.31589229829779
 31
0.0
  0
LINE
  5
231
330
1F
100
AcDbEntity
  8
0
100
AcDbLine
 10
-89.89186513046752
 20
17.31589229829779
 30
0.0
 11
-90.27775462743195
 21
17.47573296151816
 31
0.0
  0
LINE
  5
232
330
1F
100
AcDbEntity
  8
0
100
AcDbLine
 10
-98.70900810540701
 20
-45.44155697134589
 30
0.0
 11
-98.70900810540701
 21
-51.04155652334592
 31
0.0
  0
LINE
  5
233
330
1F
100
AcDbEntity
  8
0
100
AcDbLine
 10
-98.04812984633585
 20
33.73025033909476
 30
0.0
 11
-98.04812984633585
 21
26.93025088309473
 31
0.0
  0
LINE
  5
234
330
1F
100
AcDbEntity
  8
0
100
AcDbLine
 10
-98.04812984633585
 20
26.93025088309473
 30
0.0
 11
-87.6481306783358
 21
26.93025088309481
 31
0.0
  0
LINE
  5
235
330
1F
100
AcDbEntity
  8
0
100
AcDbLine
 10
-87.6481306783358
 20
-32.96974432490445
 30
0.0
 11
-87.6481306783358
 21
-26.16974486890451
 31
0.0
  0
LINE
  5
236
330
1F
100
AcDbEntity
  8
0
100
AcDbLine
 10
61.47265982110939
 20
21.94520814807149
 30
0.0
 11
61.28306171745017
 21
22.37515369044583
 31
0.0
  0
LINE
  5
237
330
1F
100
AcDbEntity
  8
0
100
AcDbLine
 10
61.76707562077244
 20
21.5789842449365
 30
0.0
 11
61.47265982110939
 21
21.94520814807149
 31
0.0
  0
LINE
  5
238
330
1F
100
AcDbEntity
  8
0
100
AcDbLine
 10
62.14624516623774
 20
21.30143953482589
 30
0.0
 11
61.76707562077244
 21
21.5789842449365
 31
0.0
  0
LINE
  5
239
330
1F
100
AcDbEntity
  8
0
100
AcDbLine
 10
62.58432867958917
 20
21.13148823106948
 30
0.0
 11
62.14624516623774
 21
21.30143953482589
 31
0.0
  0
LINE
  5
23A
330
1F
100
AcDbEntity
  8
0
100
AcDbLine
 10
62.9700106669391
 20
24.67979017999027
 30
0.0
 11
63.43715348070874
 21
24.62901418308115
 31
0.0
  0
LINE
  5
23B
330
1F
100
AcDbEntity
  8
0
100
AcDbLine
 10
62.50564356351938
 20
24.60793056977401
 30
0.0
 11
62.9700106669391
 21
24.67979017999027
 31
0.0
  0
LINE
  5
23C
330
1F
100
AcDbEntity
  8
0
100
AcDbLine
 10
62.07569802114512
 20
24.41833246611489
 30
0.0
 11
62.50564356351938
 21
24.60793056977401
 31
0.0
  0
LINE
  5
23D
330
1F
100
AcDbEntity
  8
0
100
AcDbLine
 10
61.70947411801014
 20
24.12391666645175
 30
0.0
 11
62.07569802114512
 21
24.41833246611489
 31
0.0
  0
LINE
  5
23E
330
1F
100
AcDbEntity
  8
0
100
AcDbLine
 10
61.43192940789953
 20
23.74474712098644
 30
0.0
 11
61.70947411801014
 21
24.12391666645175
 31
0.0
  0
LINE
  5
23F
330
1F
100
AcDbEntity
  8
0
100
AcDbLine
 10
-41.60901267340627
 20
-65.64155535534603
 30
0.0
 11
-35.82647672488746
 21
-65.64155535534603
 31
0.0
  0
LINE
  5
240
330
1F
100
AcDbEntity
  8
0
100
AcDbLine
 10
-18.10901455340587
 20
-59.04155588334596
 30
0.0
 11
-41.60901267340627
 21
-59.04155588334596
 31
0.0
  0
LINE
  5
241
330
1F
100
AcDbEntity
  8
0
100
AcDbLine
 10
-20.82128976041907
 20
-65.64155535534603
 30
0.0
 11
-18.10901455340587
 21
-65.64155535534603
 31
0.0
  0
LINE
  5
242
330
1F
100
AcDbEntity
  8
0
100
AcDbLine
 10
-66.69186698646742
 20
-13.68410522170231
 30
0.0
 11
-67.02323780985608
 21
-13.93837499751734
 31
0.0
  0
LINE
  5
243
330
1F
100
AcDbEntity
  8
0
100
AcDbLine
 10
-11.54986688507712
 20
-14.2697458209251
 30
0.0
 11
-11.0839926411625
 21
-14.33107932869809
 31
0.0
  0
LINE
  5
244
330
1F
100
AcDbEntity
  8
0
100
AcDbLine
 10
-12.01574112899174
 20
-14.33107932869809
 30
0.0
 11
-11.54986688507712
 21
-14.2697458209251
 31
0.0
  0
LINE
  5
245
330
1F
100
AcDbEntity
  8
0
100
AcDbLine
 10
-12.82265898938951
 20
-14.79695357261267
 30
0.0
 11
-12.4498668130771
 21
-14.51090007482075
 31
0.0
  0
LINE
  5
246
330
1F
100
AcDbEntity
  8
0
100
AcDbLine
 10
-45.44857578928326
 20
-22.15962063091855
 30
0.0
 11
-45.52021476808753
 21
-22.62402182281478
 31
0.0
  0
LINE
  5
247
330
1F
100
AcDbEntity
  8
0
100
AcDbLine
 10
-89.30622453126347
 20
-15.86974569290593
 30
0.0
 11
-89.14638386804364
 21
-15.48385619594141
 31
0.0
  0
LINE
  5
248
330
1F
100
AcDbEntity
  8
0
100
AcDbLine
 10
-89.14638386804364
 20
-15.48385619594141
 30
0.0
 11
-89.09186519446753
 21
-15.0697457569061
 31
0.0
  0
LINE
  5
249
330
1F
100
AcDbEntity
  8
0
100
AcDbLine
 10
-13.34986674107708
 20
16.83025169107503
 30
0.0
 11
-13.28853323330413
 21
17.29612593498965
 31
0.0
  0
LINE
  5
24A
330
1F
100
AcDbEntity
  8
0
100
AcDbLine
 10
104.5856770981753
 20
69.95410414993005
 30
0.0
 11
1.88741543291633
 21
69.95410414993005
 31
0.0
  0
LINE
  5
24B
330
1F
100
AcDbEntity
  8
0
100
AcDbLine
 10
1.88741543291633
 20
69.95410414993005
 30
0.0
 11
1.88741543291633
 21
64.95410454992988
 31
0.0
  0
LINE
  5
24C
330
1F
100
AcDbEntity
  8
0
100
AcDbLine
 10
1.88741543291633
 20
64.95410454992988
 30
0.0
 11
55.88741111291721
 21
46.3541060379298
 31
0.0
  0
LINE
  5
24D
330
1F
100
AcDbEntity
  8
0
100
AcDbLine
 10
9.327209833481382
 20
-56.18794505916517
 30
0.0
 11
9.168291223596896
 21
-56.39505182378316
 31
0.0
  0
LINE
  5
24E
330
1F
100
AcDbEntity
  8
0
100
AcDbLine
 10
-19.20901446540617
 20
-51.04155652334592
 30
0.0
 11
-19.20901446540617
 21
-45.44155697134589
 31
0.0
  0
LINE
  5
24F
330
1F
100
AcDbEntity
  8
0
100
AcDbLine
 10
-43.96783152980336
 20
-44.47563122233082
 30
0.0
 11
-43.70901250540635
 21
-44.44155705134584
 31
0.0
  0
LINE
  5
250
330
1F
100
AcDbEntity
  8
0
100
AcDbLine
 10
9.427110247994088
 20
-55.9467641235622
 30
0.0
 11
9.327209833481382
 21
-56.18794505916517
 31
0.0
  0
LINE
  5
251
330
1F
100
AcDbEntity
  8
0
100
AcDbLine
 10
9.461184418979158
 20
-55.68794509916519
 30
0.0
 11
9.427110247994088
 21
-55.9467641235622
 31
0.0
  0
LINE
  5
252
330
1F
100
AcDbEntity
  8
0
100
AcDbLine
 10
9.461184418979158
 20
-55.68794509916519
 30
0.0
 11
9.461184418979158
 21
-51.68794541916517
 31
0.0
  0
LINE
  5
253
330
1F
100
AcDbEntity
  8
0
100
AcDbLine
 10
9.461184418979158
 20
-51.68794541916517
 30
0.0
 11
25.6611781268651
 21
-51.68794541916517
 31
0.0
  0
LINE
  5
254
330
1F
100
AcDbEntity
  8
0
100
AcDbLine
 10
25.6611781268651
 20
-51.68794541916517
 30
0.0
 11
25.6611781268651
 21
-55.68794509916519
 31
0.0
  0
LINE
  5
255
330
1F
100
AcDbEntity
  8
0
100
AcDbLine
 10
-59.27775710743194
 20
14.38477056467001
 30
0.0
 11
-58.89186761046715
 21
14.5446112278902
 31
0.0
  0
LINE
  5
256
330
1F
100
AcDbEntity
  8
0
100
AcDbLine
 10
-9.950196161008977
 20
-44.47563122233082
 30
0.0
 11
-9.709015225405919
 21
-44.57553163684344
 31
0.0
  0
LINE
  5
257
330
1F
100
AcDbEntity
  8
0
100
AcDbLine
 10
-9.709015225405919
 20
-44.57553163684344
 30
0.0
 11
-9.501908460787932
 21
-44.73445024672784
 31
0.0
  0
LINE
  5
258
330
1F
100
AcDbEntity
  8
0
100
AcDbLine
 10
-9.501908460787932
 20
-44.73445024672784
 30
0.0
 11
-9.342989850903628
 21
-44.94155701134582
 31
0.0
  0
LINE
  5
259
330
1F
100
AcDbEntity
  8
0
100
AcDbLine
 10
-9.342989850903628
 20
-44.94155701134582
 30
0.0
 11
-9.243089436390921
 21
-45.18273794694888
 31
0.0
  0
LINE
  5
25A
330
1F
100
AcDbEntity
  8
0
100
AcDbLine
 10
-9.243089436390921
 20
-45.18273794694888
 30
0.0
 11
-9.209015265406029
 21
-45.44155697134589
 31
0.0
  0
LINE
  5
25B
330
1F
100
AcDbEntity
  8
0
100
AcDbLine
 10
27.56117797486504
 20
-40.18794633916519
 30
0.0
 11
27.52710380387996
 21
-39.92912731476817
 31
0.0
  0
LINE
  5
25C
330
1F
100
AcDbEntity
  8
0
100
AcDbLine
 10
27.56117797486504
 20
-40.18794633916519
 30
0.0
 11
27.56117797486504
 21
-44.1879460191652
 31
0.0
  0
LINE
  5
25D
330
1F
100
AcDbEntity
  8
0
100
AcDbLine
 10
-41.85019360900842
 20
-81.20747993636112
 30
0.0
 11
-42.10901263340543
 21
-81.2415541073461
 31
0.0
  0
LINE
  5
25E
330
1F
100
AcDbEntity
  8
0
100
AcDbLine
 10
-41.60901267340537
 20
-81.1075795218485
 30
0.0
 11
-41.85019360900842
 21
-81.20747993636112
 31
0.0
  0
LINE
  5
25F
330
1F
100
AcDbEntity
  8
0
100
AcDbLine
 10
-41.40190590878738
 20
-80.94866091196411
 30
0.0
 11
-41.60901267340537
 21
-81.1075795218485
 31
0.0
  0
LINE
  5
260
330
1F
100
AcDbEntity
  8
0
100
AcDbLine
 10
58.98741086491724
 20
52.41295128003414
 30
0.0
 11
59.42153654900261
 21
52.59277202615677
 31
0.0
  0
LINE
  5
261
330
1F
100
AcDbEntity
  8
0
100
AcDbLine
 10
-19.82128984041911
 20
-81.2415541073461
 30
0.0
 11
-8.909015289406277
 21
-81.2415541073461
 31
0.0
  0
LINE
  5
262
330
1F
100
AcDbEntity
  8
0
100
AcDbLine
 10
-7.943089540391208
 20
-80.50037321174311
 30
0.0
 11
-8.042989954903915
 21
-80.74155414734612
 31
0.0
  0
LINE
  5
263
330
1F
100
AcDbEntity
  8
0
100
AcDbLine
 10
-7.909015369406316
 20
-80.24155418734614
 30
0.0
 11
-7.943089540391208
 21
-80.50037321174311
 31
0.0
  0
LINE
  5
264
330
1F
100
AcDbEntity
  8
0
100
AcDbLine
 10
-7.909015369406136
 20
-74.64155463534603
 30
0.0
 11
-4.010745800148276
 21
-74.64155463534598
 31
0.0
  0
LINE
  5
265
330
1F
100
AcDbEntity
  8
0
100
AcDbLine
 10
-89.14638386804327
 20
16.34436220212913
 30
0.0
 11
-89.30622453126382
 21
16.73025169909391
 31
0.0
  0
LINE
  5
266
330
1F
100
AcDbEntity
  8
0
100
AcDbLine
 10
85.89327316261227
 20
25.38024085593385
 30
0.0
 11
74.89327903872626
 21
25.38024085593385
 31
0.0
  0
LINE
  5
267
330
1F
100
AcDbEntity
  8
0
100
AcDbLine
 10
-67.49186692246724
 20
-15.06974575690601
 30
0.0
 11
-67.43734824889113
 21
-15.48385619594123
 31
0.0
  0
LINE
  5
268
330
1F
100
AcDbEntity
  8
0
100
AcDbLine
 10
-67.43734824889113
 20
-15.48385619594123
 30
0.0
 11
-67.27750758567112
 21
-15.86974569290602
 31
0.0
  0
LINE
  5
269
330
1F
100
AcDbEntity
  8
0
100
AcDbLine
 10
-67.27750758567112
 20
-15.86974569290602
 30
0.0
 11
-67.02323780985591
 21
-16.20111651629487
 31
0.0
  0
LINE
  5
26A
330
1F
100
AcDbEntity
  8
0
100
AcDbLine
 10
-97.69186450646743
 20
-13.68410522170231
 30
0.0
 11
-98.02323532985609
 21
-13.93837499751734
 31
0.0
  0
LINE
  5
26B
330
1F
100
AcDbEntity
  8
0
100
AcDbLine
 10
-98.02323532985609
 20
-13.93837499751734
 30
0.0
 11
-98.27750510567131
 21
-14.26974582090601
 31
0.0
  0
LINE
  5
26C
330
1F
100
AcDbEntity
  8
0
100
AcDbLine
 10
-98.27750510567131
 20
-14.26974582090601
 30
0.0
 11
-98.43734576889149
 21
-14.65563531787061
 31
0.0
  0
LINE
  5
26D
330
1F
100
AcDbEntity
  8
0
100
AcDbLine
 10
-98.43734576889149
 20
-14.65563531787061
 30
0.0
 11
-98.4918644424676
 21
-15.06974575690601
 31
0.0
  0
LINE
  5
26E
330
1F
100
AcDbEntity
  8
0
100
AcDbLine
 10
-44.70901242540631
 20
-45.44155697134589
 30
0.0
 11
-44.70901242540631
 21
-51.04155652334592
 31
0.0
  0
LINE
  5
26F
330
1F
100
AcDbEntity
  8
0
100
AcDbLine
 10
-44.70901242540631
 20
-45.44155697134589
 30
0.0
 11
-44.67493825442141
 21
-45.18273794694888
 31
0.0
  0
LINE
  5
270
330
1F
100
AcDbEntity
  8
0
100
AcDbLine
 10
-44.67493825442141
 20
-45.18273794694888
 30
0.0
 11
-44.57503783990871
 21
-44.94155701134582
 31
0.0
  0
LINE
  5
271
330
1F
100
AcDbEntity
  8
0
100
AcDbLine
 10
-67.4373482488913
 20
15.51614132405869
 30
0.0
 11
-67.27750758567129
 21
15.13025182709408
 31
0.0
  0
LINE
  5
272
330
1F
100
AcDbEntity
  8
0
100
AcDbLine
 10
-67.27750758567129
 20
15.13025182709408
 30
0.0
 11
-67.02323780985608
 21
14.79888100370523
 31
0.0
  0
LINE
  5
273
330
1F
100
AcDbEntity
  8
0
100
AcDbLine
 10
-67.02323780985608
 20
14.79888100370523
 30
0.0
 11
-66.69186698646742
 21
14.5446112278902
 31
0.0
  0
LINE
  5
274
330
1F
100
AcDbEntity
  8
0
100
AcDbLine
 10
-48.99669409815433
 20
23.3074944061734
 30
0.0
 11
-48.82653467775335
 21
23.74549712530607
 31
0.0
  0
LINE
  5
275
330
1F
100
AcDbEntity
  8
0
100
AcDbLine
 10
-49.04769203138763
 20
22.84037576907503
 30
0.0
 11
-48.99669409815433
 21
23.3074944061734
 31
0.0
  0
LINE
  5
276
330
1F
100
AcDbEntity
  8
0
100
AcDbLine
 10
-48.97605305258173
 20
22.37597457717902
 30
0.0
 11
-49.04769203138763
 21
22.84037576907503
 31
0.0
  0
LINE
  5
277
330
1F
100
AcDbEntity
  8
0
100
AcDbLine
 10
-98.4918644424676
 20
-15.06974575690601
 30
0.0
 11
-98.43734576889167
 21
-15.48385619594123
 31
0.0
  0
LINE
  5
278
330
1F
100
AcDbEntity
  8
0
100
AcDbLine
 10
-98.43734576889167
 20
-15.48385619594123
 30
0.0
 11
-98.27750510567131
 21
-15.86974569290629
 31
0.0
  0
LINE
  5
279
330
1F
100
AcDbEntity
  8
0
100
AcDbLine
 10
-98.27750510567131
 20
-15.86974569290629
 30
0.0
 11
-98.02323532985628
 21
-16.20111651629487
 31
0.0
  0
LINE
  5
27A
330
1F
100
AcDbEntity
  8
0
100
AcDbLine
 10
-98.02323532985628
 20
-16.20111651629487
 30
0.0
 11
-97.69186450646761
 21
-16.45538629210972
 31
0.0
  0
LINE
  5
27B
330
1F
100
AcDbEntity
  8
0
100
AcDbLine
 10
-42.76559535975839
 20
19.13025150707533
 30
0.0
 11
-42.76559535975839
 21
12.23025205907532
 31
0.0
  0
LINE
  5
27C
330
1F
100
AcDbEntity
  8
0
100
AcDbLine
 10
-34.04813496633556
 20
-26.16974486892513
 30
0.0
 11
-44.44813413433561
 21
-26.16974486892513
 31
0.0
  0
LINE
  5
27D
330
1F
100
AcDbEntity
  8
0
100
AcDbLine
 10
-44.44813413433561
 20
-26.16974486892513
 30
0.0
 11
-44.44813413433561
 21
-32.96974432492516
 31
0.0
  0
LINE
  5
27E
330
1F
100
AcDbEntity
  8
0
100
AcDbLine
 10
-13.10871248718134
 20
17.73025161907501
 30
0.0
 11
-12.82265898938951
 21
18.10304379538742
 31
0.0
  0
LINE
  5
27F
330
1F
100
AcDbEntity
  8
0
100
AcDbLine
 10
-13.28853323330413
 20
17.29612593498965
 30
0.0
 11
-13.10871248718134
 21
17.73025161907501
 31
0.0
  0
LINE
  5
280
330
1F
100
AcDbEntity
  8
0
100
AcDbLine
 10
-4.010745800148095
 20
-59.04533239285914
 30
0.0
 11
-4.010745800148095
 21
-51.04155652334583
 31
0.0
  0
LINE
  5
281
330
1F
100
AcDbEntity
  8
0
100
AcDbLine
 10
-9.209015265406029
 20
-51.04155652334592
 30
0.0
 11
-4.010745800148095
 21
-51.04155652334583
 31
0.0
  0
LINE
  5
282
330
1F
100
AcDbEntity
  8
0
100
AcDbLine
 10
-9.209015265406029
 20
-45.44155697134589
 30
0.0
 11
-9.209015265406029
 21
-51.04155652334592
 31
0.0
  0
LINE
  5
283
330
1F
100
AcDbEntity
  8
0
100
AcDbLine
 10
-10.20901518540599
 20
-44.44155705134584
 30
0.0
 11
-9.950196161008977
 21
-44.47563122233082
 31
0.0
  0
LINE
  5
284
330
1F
100
AcDbEntity
  8
0
100
AcDbLine
 10
-10.20901518540599
 20
-44.44155705134584
 30
0.0
 11
-18.20901454540621
 21
-44.44155705134584
 31
0.0
  0
LINE
  5
285
330
1F
100
AcDbEntity
  8
0
100
AcDbLine
 10
-18.46783356980322
 20
-44.47563122233082
 30
0.0
 11
-18.20901454540621
 21
-44.44155705134584
 31
0.0
  0
LINE
  5
286
330
1F
100
AcDbEntity
  8
0
100
AcDbLine
 10
-18.70901450540628
 20
-44.57553163684344
 30
0.0
 11
-18.46783356980322
 21
-44.47563122233082
 31
0.0
  0
LINE
  5
287
330
1F
100
AcDbEntity
  8
0
100
AcDbLine
 10
-18.91612127002426
 20
-44.73445024672784
 30
0.0
 11
-18.70901450540628
 21
-44.57553163684344
 31
0.0
  0
LINE
  5
288
330
1F
100
AcDbEntity
  8
0
100
AcDbLine
 10
-19.07503987990857
 20
-44.94155701134582
 30
0.0
 11
-18.91612127002426
 21
-44.73445024672784
 31
0.0
  0
LINE
  5
289
330
1F
100
AcDbEntity
  8
0
100
AcDbLine
 10
-19.17494029442128
 20
-45.18273794694888
 30
0.0
 11
-19.07503987990857
 21
-44.94155701134582
 31
0.0
  0
LINE
  5
28A
330
1F
100
AcDbEntity
  8
0
100
AcDbLine
 10
-19.20901446540617
 20
-45.44155697134589
 30
0.0
 11
-19.17494029442128
 21
-45.18273794694888
 31
0.0
  0
LINE
  5
28B
330
1F
100
AcDbEntity
  8
0
100
AcDbLine
 10
-34.70901322540617
 20
-51.04155652334592
 30
0.0
 11
-19.20901446540617
 21
-51.04155652334592
 31
0.0
  0
LINE
  5
28C
330
1F
100
AcDbEntity
  8
0
100
AcDbLine
 10
-34.70901322540617
 20
-45.44155697134589
 30
0.0
 11
-34.70901322540617
 21
-51.04155652334592
 31
0.0
  0
LINE
  5
28D
330
1F
100
AcDbEntity
  8
0
100
AcDbLine
 10
-34.70901322540617
 20
-45.44155697134589
 30
0.0
 11
-34.74308739639106
 21
-45.18273794694888
 31
0.0
  0
LINE
  5
28E
330
1F
100
AcDbEntity
  8
0
100
AcDbLine
 10
-34.74308739639106
 20
-45.18273794694888
 30
0.0
 11
-34.84298781090377
 21
-44.94155701134582
 31
0.0
  0
LINE
  5
28F
330
1F
100
AcDbEntity
  8
0
100
AcDbLine
 10
-34.84298781090377
 20
-44.94155701134582
 30
0.0
 11
-35.00190642078807
 21
-44.73445024672784
 31
0.0
  0
LINE
  5
290
330
1F
100
AcDbEntity
  8
0
100
AcDbLine
 10
-44.20901246540642
 20
-44.57553163684344
 30
0.0
 11
-43.96783152980336
 21
-44.47563122233082
 31
0.0
  0
LINE
  5
291
330
1F
100
AcDbEntity
  8
0
100
AcDbLine
 10
-44.41611923002441
 20
-44.73445024672784
 30
0.0
 11
-44.20901246540642
 21
-44.57553163684344
 31
0.0
  0
LINE
  5
292
330
1F
100
AcDbEntity
  8
0
100
AcDbLine
 10
-44.57503783990871
 20
-44.94155701134582
 30
0.0
 11
-44.41611923002441
 21
-44.73445024672784
 31
0.0
  0
LINE
  5
293
330
1F
100
AcDbEntity
  8
0
100
AcDbLine
 10
-88.70900890540688
 20
-51.04155652334592
 30
0.0
 11
-44.70901242540631
 21
-51.04155652334592
 31
0.0
  0
LINE
  5
294
330
1F
100
AcDbEntity
  8
0
100
AcDbLine
 10
-88.70900890540688
 20
-45.44155697134589
 30
0.0
 11
-88.70900890540688
 21
-51.04155652334592
 31
0.0
  0
LINE
  5
295
330
1F
100
AcDbEntity
  8
0
100
AcDbLine
 10
-88.74308307639177
 20
-45.18273794694888
 30
0.0
 11
-88.70900890540688
 21
-45.44155697134589
 31
0.0
  0
LINE
  5
296
330
1F
100
AcDbEntity
  8
0
100
AcDbLine
 10
-88.84298349090447
 20
-44.94155701134582
 30
0.0
 11
-88.74308307639177
 21
-45.18273794694888
 31
0.0
  0
LINE
  5
297
330
1F
100
AcDbEntity
  8
0
100
AcDbLine
 10
-89.00190210078877
 20
-44.73445024672784
 30
0.0
 11
-88.84298349090447
 21
-44.94155701134582
 31
0.0
  0
LINE
  5
298
330
1F
100
AcDbEntity
  8
0
100
AcDbLine
 10
-89.20900886540677
 20
-44.57553163684344
 30
0.0
 11
-89.00190210078877
 21
-44.73445024672784
 31
0.0
  0
LINE
  5
299
330
1F
100
AcDbEntity
  8
0
100
AcDbLine
 10
-89.45018980100981
 20
-44.47563122233082
 30
0.0
 11
-89.20900886540677
 21
-44.57553163684344
 31
0.0
  0
LINE
  5
29A
330
1F
100
AcDbEntity
  8
0
100
AcDbLine
 10
-89.70900882540683
 20
-44.44155705134584
 30
0.0
 11
-89.45018980100981
 21
-44.47563122233082
 31
0.0
  0
LINE
  5
29B
330
1F
100
AcDbEntity
  8
0
100
AcDbLine
 10
-89.70900882540683
 20
-44.44155705134584
 30
0.0
 11
-97.70900818540704
 21
-44.44155705134584
 31
0.0
  0
LINE
  5
29C
330
1F
100
AcDbEntity
  8
0
100
AcDbLine
 10
-97.96782720980406
 20
-44.47563122233082
 30
0.0
 11
-97.70900818540704
 21
-44.44155705134584
 31
0.0
  0
LINE
  5
29D
330
1F
100
AcDbEntity
  8
0
100
AcDbLine
 10
-98.20900814540713
 20
-44.57553163684344
 30
0.0
 11
-97.96782720980406
 21
-44.47563122233082
 31
0.0
  0
LINE
  5
29E
330
1F
100
AcDbEntity
  8
0
100
AcDbLine
 10
-98.4161149100251
 20
-44.73445024672784
 30
0.0
 11
-98.20900814540713
 21
-44.57553163684344
 31
0.0
  0
LINE
  5
29F
330
1F
100
AcDbEntity
  8
0
100
AcDbLine
 10
-98.57503351990941
 20
-44.94155701134582
 30
0.0
 11
-98.4161149100251
 21
-44.73445024672784
 31
0.0
  0
LINE
  5
2A0
330
1F
100
AcDbEntity
  8
0
100
AcDbLine
 10
-98.67493393442211
 20
-45.18273794694888
 30
0.0
 11
-98.57503351990941
 21
-44.94155701134582
 31
0.0
  0
LINE
  5
2A1
330
1F
100
AcDbEntity
  8
0
100
AcDbLine
 10
-98.70900810540701
 20
-45.44155697134589
 30
0.0
 11
-98.67493393442211
 21
-45.18273794694888
 31
0.0
  0
LINE
  5
2A2
330
1F
100
AcDbEntity
  8
0
100
AcDbLine
 10
-106.709007465407
 20
-51.04155652334592
 30
0.0
 11
-106.709007465407
 21
-56.04155612334598
 31
0.0
  0
LINE
  5
2A3
330
1F
100
AcDbEntity
  8
0
100
AcDbLine
 10
-47.70901218540546
 20
-74.64155463534603
 30
0.0
 11
-52.70901178540635
 21
-74.64155463534603
 31
0.0
  0
LINE
  5
2A4
330
1F
100
AcDbEntity
  8
0
100
AcDbLine
 10
-47.70901218540546
 20
-80.2415541873461
 30
0.0
 11
-47.70901218540546
 21
-74.64155463534603
 31
0.0
  0
LINE
  5
2A5
330
1F
100
AcDbEntity
  8
0
100
AcDbLine
 10
-47.70901218540546
 20
-80.2415541873461
 30
0.0
 11
-47.67493801442058
 21
-80.50037321174311
 31
0.0
  0
LINE
  5
2A6
330
1F
100
AcDbEntity
  8
0
100
AcDbLine
 10
-47.67493801442058
 20
-80.50037321174311
 30
0.0
 11
-47.57503759990787
 21
-80.74155414734612
 31
0.0
  0
LINE
  5
2A7
330
1F
100
AcDbEntity
  8
0
100
AcDbLine
 10
-47.57503759990787
 20
-80.74155414734612
 30
0.0
 11
-47.41611899002356
 21
-80.94866091196411
 31
0.0
  0
LINE
  5
2A8
330
1F
100
AcDbEntity
  8
0
100
AcDbLine
 10
-47.41611899002356
 20
-80.94866091196411
 30
0.0
 11
-47.20901222540558
 21
-81.1075795218485
 31
0.0
  0
LINE
  5
2A9
330
1F
100
AcDbEntity
  8
0
100
AcDbLine
 10
-41.24298729890307
 20
-80.74155414734612
 30
0.0
 11
-41.40190590878738
 21
-80.94866091196411
 31
0.0
  0
LINE
  5
2AA
330
1F
100
AcDbEntity
  8
0
100
AcDbLine
 10
-41.14308688439037
 20
-80.50037321174311
 30
0.0
 11
-41.24298729890307
 21
-80.74155414734612
 31
0.0
  0
LINE
  5
2AB
330
1F
100
AcDbEntity
  8
0
100
AcDbLine
 10
-41.10901271340548
 20
-80.2415541873461
 30
0.0
 11
-41.14308688439037
 21
-80.50037321174311
 31
0.0
  0
LINE
  5
2AC
330
1F
100
AcDbEntity
  8
0
100
AcDbLine
 10
-41.10901271340548
 20
-80.2415541873461
 30
0.0
 11
-41.10901271340548
 21
-74.64155463534603
 31
0.0
  0
LINE
  5
2AD
330
1F
100
AcDbEntity
  8
0
100
AcDbLine
 10
-35.82647672488746
 20
-74.64155463534603
 30
0.0
 11
-35.82647672488746
 21
-65.64155535534603
 31
0.0
  0
LINE
  5
2AE
330
1F
100
AcDbEntity
  8
0
100
AcDbLine
 10
-20.82128976041907
 20
-80.2415541873461
 30
0.0
 11
-20.82128976041907
 21
-65.64155535534603
 31
0.0
  0
LINE
  5
2AF
330
1F
100
AcDbEntity
  8
0
100
AcDbLine
 10
-20.78721558943418
 20
-80.50037321174311
 30
0.0
 11
-20.82128976041907
 21
-80.2415541873461
 31
0.0
  0
LINE
  5
2B0
330
1F
100
AcDbEntity
  8
0
100
AcDbLine
 10
-20.68731517492147
 20
-80.74155414734612
 30
0.0
 11
-20.78721558943418
 21
-80.50037321174311
 31
0.0
  0
LINE
  5
2B1
330
1F
100
AcDbEntity
  8
0
100
AcDbLine
 10
-20.52839656503716
 20
-80.94866091196411
 30
0.0
 11
-20.68731517492147
 21
-80.74155414734612
 31
0.0
  0
LINE
  5
2B2
330
1F
100
AcDbEntity
  8
0
100
AcDbLine
 10
-20.32128980041918
 20
-81.1075795218485
 30
0.0
 11
-20.52839656503716
 21
-80.94866091196411
 31
0.0
  0
LINE
  5
2B3
330
1F
100
AcDbEntity
  8
0
100
AcDbLine
 10
-20.08010886481612
 20
-81.20747993636112
 30
0.0
 11
-20.32128980041918
 21
-81.1075795218485
 31
0.0
  0
LINE
  5
2B4
330
1F
100
AcDbEntity
  8
0
100
AcDbLine
 10
-19.82128984041911
 20
-81.2415541073461
 30
0.0
 11
-20.08010886481612
 21
-81.20747993636112
 31
0.0
  0
LINE
  5
2B5
330
1F
100
AcDbEntity
  8
0
100
AcDbLine
 10
-8.650196265009264
 20
-81.20747993636112
 30
0.0
 11
-8.909015289406277
 21
-81.2415541073461
 31
0.0
  0
LINE
  5
2B6
330
1F
100
AcDbEntity
  8
0
100
AcDbLine
 10
-8.409015329406206
 20
-81.1075795218485
 30
0.0
 11
-8.650196265009264
 21
-81.20747993636112
 31
0.0
  0
LINE
  5
2B7
330
1F
100
AcDbEntity
  8
0
100
AcDbLine
 10
-8.20190856478822
 20
-80.94866091196411
 30
0.0
 11
-8.409015329406206
 21
-81.1075795218485
 31
0.0
  0
LINE
  5
2B8
330
1F
100
AcDbEntity
  8
0
100
AcDbLine
 10
-8.042989954903915
 20
-80.74155414734612
 30
0.0
 11
-8.20190856478822
 21
-80.94866091196411
 31
0.0
  0
LINE
  5
2B9
330
1F
100
AcDbEntity
  8
0
100
AcDbLine
 10
-7.909015369406136
 20
-74.64155463534603
 30
0.0
 11
-7.909015369406316
 21
-80.24155418734614
 31
0.0
  0
LINE
  5
2BA
330
1F
100
AcDbEntity
  8
0
100
AcDbLine
 10
-4.010745800148276
 20
-74.64155463534598
 30
0.0
 11
-4.010745800148276
 21
-65.64533398933878
 31
0.0
  0
LINE
  5
2BB
330
1F
100
AcDbEntity
  8
0
100
AcDbLine
 10
-4.010745800148276
 20
-65.64533398933878
 30
0.0
 11
-8.814207174765231
 21
-65.64155535534603
 31
0.0
  0
LINE
  5
2BC
330
1F
100
AcDbEntity
  8
0
100
AcDbLine
 10
-8.814207174765231
 20
-65.64155535534603
 30
0.0
 11
-8.809015297405939
 21
-59.04155588334596
 31
0.0
  0
LINE
  5
2BD
330
1F
100
AcDbEntity
  8
0
100
AcDbLine
 10
-8.809015297405939
 20
-59.04155588334596
 30
0.0
 11
-4.010745800148095
 21
-59.04533239285914
 31
0.0
  0
LINE
  5
2BE
330
1F
100
AcDbEntity
  8
0
100
AcDbLine
 10
-50.44767845363388
 20
-69.6756807514314
 30
0.0
 11
-50.26785770751126
 21
-69.24155506734596
 31
0.0
  0
LINE
  5
2BF
330
1F
100
AcDbEntity
  8
0
100
AcDbLine
 10
-50.26785770751126
 20
-69.24155506734596
 30
0.0
 11
-49.98180420971944
 21
-68.86876289103355
 31
0.0
  0
LINE
  5
2C0
330
1F
100
AcDbEntity
  8
0
100
AcDbLine
 10
-49.98180420971944
 20
-68.86876289103355
 30
0.0
 11
-49.60901203340685
 21
-68.58270939324163
 31
0.0
  0
LINE
  5
2C1
330
1F
100
AcDbEntity
  8
0
100
AcDbLine
 10
-49.60901203340685
 20
-68.58270939324163
 30
0.0
 11
-49.17488634932149
 21
-68.40288864711893
 31
0.0
  0
LINE
  5
2C2
330
1F
100
AcDbEntity
  8
0
100
AcDbLine
 10
-49.17488634932149
 20
-68.40288864711893
 30
0.0
 11
-48.70901210540687
 21
-68.34155513934597
 31
0.0
  0
LINE
  5
2C3
330
1F
100
AcDbEntity
  8
0
100
AcDbLine
 10
-48.70901210540687
 20
-68.34155513934597
 30
0.0
 11
-48.24313786149224
 21
-68.40288864711893
 31
0.0
  0
LINE
  5
2C4
330
1F
100
AcDbEntity
  8
0
100
AcDbLine
 10
-46.97034575717986
 20
-69.6756807514314
 30
0.0
 11
-46.90901224940672
 21
-70.14155499534603
 31
0.0
  0
LINE
  5
2C5
330
1F
100
AcDbEntity
  8
0
100
AcDbLine
 10
-46.97034575717986
 20
-70.60742923926065
 30
0.0
 11
-47.15016650330247
 21
-71.0415549233461
 31
0.0
  0
LINE
  5
2C6
330
1F
100
AcDbEntity
  8
0
100
AcDbLine
 10
-48.24313786149224
 20
-71.88022134357313
 30
0.0
 11
-48.70901210540687
 21
-71.94155485134608
 31
0.0
  0
LINE
  5
2C7
330
1F
100
AcDbEntity
  8
0
100
AcDbLine
 10
-48.70901210540687
 20
-71.94155485134608
 30
0.0
 11
-49.17488634932149
 21
-71.88022134357313
 31
0.0
  0
LINE
  5
2C8
330
1F
100
AcDbEntity
  8
0
100
AcDbLine
 10
-49.60901203340685
 20
-71.70040059745043
 30
0.0
 11
-49.98180420971944
 21
-71.41434709965851
 31
0.0
  0
LINE
  5
2C9
330
1F
100
AcDbEntity
  8
0
100
AcDbLine
 10
-49.98180420971944
 20
-71.41434709965851
 30
0.0
 11
-50.26785770751126
 21
-71.0415549233461
 31
0.0
  0
LINE
  5
2CA
330
1F
100
AcDbEntity
  8
0
100
AcDbLine
 10
-50.26785770751126
 20
-71.0415549233461
 30
0.0
 11
-50.44767845363388
 21
-70.60742923926065
 31
0.0
  0
LINE
  5
2CB
330
1F
100
AcDbEntity
  8
0
100
AcDbLine
 10
-14.82647840488614
 20
-72.73963099885329
 30
0.0
 11
-14.10293559807697
 21
-73.0393322423911
 31
0.0
  0
LINE
  5
2CC
330
1F
100
AcDbEntity
  8
0
100
AcDbLine
 10
-15.4477986987401
 20
-72.26287516920006
 30
0.0
 11
-14.82647840488614
 21
-72.73963099885329
 31
0.0
  0
LINE
  5
2CD
330
1F
100
AcDbEntity
  8
0
100
AcDbLine
 10
-15.92455452839319
 20
-71.64155487534606
 30
0.0
 11
-15.4477986987401
 21
-72.26287516920006
 31
0.0
  0
LINE
  5
2CE
330
1F
100
AcDbEntity
  8
0
100
AcDbLine
 10
-16.22425577193096
 20
-70.91801206853702
 30
0.0
 11
-15.92455452839319
 21
-71.64155487534606
 31
0.0
  0
LINE
  5
2CF
330
1F
100
AcDbEntity
  8
0
100
AcDbLine
 10
-16.32647828488617
 20
-70.14155499534603
 30
0.0
 11
-16.22425577193096
 21
-70.91801206853702
 31
0.0
  0
LINE
  5
2D0
330
1F
100
AcDbEntity
  8
0
100
AcDbLine
 10
-16.22425577193096
 20
-69.36509792215499
 30
0.0
 11
-16.32647828488617
 21
-70.14155499534603
 31
0.0
  0
LINE
  5
2D1
330
1F
100
AcDbEntity
  8
0
100
AcDbLine
 10
-15.92455452839319
 20
-68.641555115346
 30
0.0
 11
-16.22425577193096
 21
-69.36509792215499
 31
0.0
  0
LINE
  5
2D2
330
1F
100
AcDbEntity
  8
0
100
AcDbLine
 10
-10.32647876488605
 20
-70.14155499534603
 30
0.0
 11
-10.4287012778409
 21
-69.36509792215499
 31
0.0
  0
LINE
  5
2D3
330
1F
100
AcDbEntity
  8
0
100
AcDbLine
 10
-10.4287012778409
 20
-70.91801206853702
 30
0.0
 11
-10.32647876488605
 21
-70.14155499534603
 31
0.0
  0
LINE
  5
2D4
330
1F
100
AcDbEntity
  8
0
100
AcDbLine
 10
-10.72840252137866
 20
-71.64155487534606
 30
0.0
 11
-10.4287012778409
 21
-70.91801206853702
 31
0.0
  0
LINE
  5
2D5
330
1F
100
AcDbEntity
  8
0
100
AcDbLine
 10
-11.20515835103194
 20
-72.2628751692001
 30
0.0
 11
-10.72840252137866
 21
-71.64155487534606
 31
0.0
  0
LINE
  5
2D6
330
1F
100
AcDbEntity
  8
0
100
AcDbLine
 10
-11.82647864488608
 20
-72.73963099885329
 30
0.0
 11
-11.20515835103194
 21
-72.2628751692001
 31
0.0
  0
LINE
  5
2D7
330
1F
100
AcDbEntity
  8
0
100
AcDbLine
 10
-12.55002145169489
 20
-73.0393322423911
 30
0.0
 11
-11.82647864488608
 21
-72.73963099885329
 31
0.0
  0
LINE
  5
2D8
330
1F
100
AcDbEntity
  8
0
100
AcDbLine
 10
-13.32647852488611
 20
-73.14155475534609
 30
0.0
 11
-12.55002145169489
 21
-73.0393322423911
 31
0.0
  0
LINE
  5
2D9
330
1F
100
AcDbEntity
  8
0
100
AcDbLine
 10
-14.10293559807697
 20
-73.0393322423911
 30
0.0
 11
-13.32647852488611
 21
-73.14155475534609
 31
0.0
  0
LINE
  5
2DA
330
1F
100
AcDbEntity
  8
0
100
AcDbLine
 10
104.5856770981753
 20
46.3541060379298
 30
0.0
 11
84.28740884091725
 21
46.3541060379298
 31
0.0
  0
LINE
  5
2DB
330
1F
100
AcDbEntity
  8
0
100
AcDbLine
 10
-9.749867029077157
 20
16.83025169107503
 30
0.0
 11
-9.811200536850105
 21
16.36437744716041
 31
0.0
  0
LINE
  5
2DC
330
1F
100
AcDbEntity
  8
0
100
AcDbLine
 10
-9.811200536850105
 20
17.29612593498965
 30
0.0
 11
-9.749867029077157
 21
16.83025169107503
 31
0.0
  0
LINE
  5
2DD
330
1F
100
AcDbEntity
  8
0
100
AcDbLine
 10
-9.991021282972905
 20
17.73025161907501
 30
0.0
 11
-9.811200536850105
 21
17.29612593498965
 31
0.0
  0
LINE
  5
2DE
330
1F
100
AcDbEntity
  8
0
100
AcDbLine
 10
-105.8481292223359
 20
40.33024981107525
 30
0.0
 11
-105.8481292223359
 21
-39.56974379692533
 31
0.0
  0
LINE
  5
2DF
330
1F
100
AcDbEntity
  8
0
100
AcDbLine
 10
-12.4498668130771
 20
-14.51090007482075
 30
0.0
 11
-12.01574112899174
 21
-14.33107932869809
 31
0.0
  0
LINE
  5
2E0
330
1F
100
AcDbEntity
  8
0
100
AcDbLine
 10
-45.52021476808753
 20
-22.62402182281478
 30
0.0
 11
-45.70960858091448
 21
-23.05405739574055
 31
0.0
  0
LINE
  5
2E1
330
1F
100
AcDbEntity
  8
0
100
AcDbLine
 10
-18.94813617433547
 20
-32.96974432492516
 30
0.0
 11
-8.548137006335061
 21
-32.96974432492516
 31
0.0
  0
LINE
  5
2E2
330
1F
100
AcDbEntity
  8
0
100
AcDbLine
 10
-8.548137006335061
 20
-32.96974432492516
 30
0.0
 11
-8.548137006335061
 21
-26.16974486892513
 31
0.0
  0
LINE
  5
2E3
330
1F
100
AcDbEntity
  8
0
100
AcDbLine
 10
-87.6481306783358
 20
-26.16974486890451
 30
0.0
 11
-98.04812984633585
 21
-26.16974486890451
 31
0.0
  0
LINE
  5
2E4
330
1F
100
AcDbEntity
  8
0
100
AcDbLine
 10
-98.04812984633585
 20
-26.16974486890451
 30
0.0
 11
-98.04812984633585
 21
-32.96974432490454
 31
0.0
  0
LINE
  5
2E5
330
1F
100
AcDbEntity
  8
0
100
AcDbLine
 10
79.8403234672992
 20
55.64966025201976
 30
0.0
 11
81.2874090809172
 21
55.05025776494423
 31
0.0
  0
LINE
  5
2E6
330
1F
100
AcDbEntity
  8
0
100
AcDbLine
 10
82.53004966862511
 20
54.09674610563786
 30
0.0
 11
83.48356132793167
 21
52.85410551792976
 31
0.0
  0
LINE
  5
2E7
330
1F
100
AcDbEntity
  8
0
100
AcDbLine
 10
-8.130326517871758
 20
-70.14155499534603
 30
0.0
 11
-10.72840252137884
 21
-65.64155535534603
 31
0.0
  0
LINE
  5
2E8
330
1F
100
AcDbEntity
  8
0
100
AcDbLine
 10
99.17488234932199
 20
18.56891803930204
 30
0.0
 11
99.60900803340736
 21
18.38909729317942
 31
0.0
  0
LINE
  5
2E9
330
1F
100
AcDbEntity
  8
0
100
AcDbLine
 10
98.70900810540738
 20
18.63025154707508
 30
0.0
 11
99.17488234932199
 21
18.56891803930204
 31
0.0
  0
LINE
  5
2EA
330
1F
100
AcDbEntity
  8
0
100
AcDbLine
 10
98.24313386149275
 20
18.56891803930204
 30
0.0
 11
98.70900810540738
 21
18.63025154707508
 31
0.0
  0
LINE
  5
2EB
330
1F
100
AcDbEntity
  8
0
100
AcDbLine
 10
-15.08306569533031
 20
55.54155616334583
 30
0.0
 11
-12.48498969182304
 21
51.04155652334583
 31
0.0
  0
LINE
  5
2EC
330
1F
100
AcDbEntity
  8
0
100
AcDbLine
 10
-12.48498969182304
 20
51.04155652334583
 30
0.0
 11
-7.288837684808692
 21
51.04155652334583
 31
0.0
  0
LINE
  5
2ED
330
1F
100
AcDbEntity
  8
0
100
AcDbLine
 10
-4.690761681301426
 20
55.54155616334583
 30
0.0
 11
-7.288837684808512
 21
60.04155580334591
 31
0.0
  0
LINE
  5
2EE
330
1F
100
AcDbEntity
  8
0
100
AcDbLine
 10
-7.288837684808512
 20
60.04155580334591
 30
0.0
 11
-12.48498969182304
 21
60.04155580334591
 31
0.0
  0
LINE
  5
2EF
330
1F
100
AcDbEntity
  8
0
100
AcDbLine
 10
97.80900817740739
 20
18.38909729317942
 30
0.0
 11
98.24313386149275
 21
18.56891803930204
 31
0.0
  0
LINE
  5
2F0
330
1F
100
AcDbEntity
  8
0
100
AcDbLine
 10
96.97034175718035
 20
16.36437744716041
 30
0.0
 11
96.90900824940722
 21
16.83025169107503
 31
0.0
  0
LINE
  5
2F1
330
1F
100
AcDbEntity
  8
0
100
AcDbLine
 10
63.43715348070874
 20
24.62901418308115
 30
0.0
 11
63.87523699406018
 21
24.45906287932474
 31
0.0
  0
LINE
  5
2F2
330
1F
100
AcDbEntity
  8
0
100
AcDbLine
 10
32.42720298936742
 20
-56.18794505916517
 30
0.0
 11
32.26828437948294
 21
-56.39505182378316
 31
0.0
  0
LINE
  5
2F3
330
1F
100
AcDbEntity
  8
0
100
AcDbLine
 10
32.26828437948294
 20
-56.39505182378316
 30
0.0
 11
32.06117761486495
 21
-56.55397043366764
 31
0.0
  0
LINE
  5
2F4
330
1F
100
AcDbEntity
  8
0
100
AcDbLine
 10
32.06117761486495
 20
-56.55397043366764
 30
0.0
 11
31.81999667926206
 21
-56.65387084818016
 31
0.0
  0
LINE
  5
2F5
330
1F
100
AcDbEntity
  8
0
100
AcDbLine
 10
31.81999667926206
 20
-56.65387084818016
 30
0.0
 11
31.56117765486506
 21
-56.68794501916524
 31
0.0
  0
LINE
  5
2F6
330
1F
100
AcDbEntity
  8
0
100
AcDbLine
 10
26.66117804686505
 20
-56.68794501916524
 30
0.0
 11
31.56117765486506
 21
-56.68794501916524
 31
0.0
  0
LINE
  5
2F7
330
1F
100
AcDbEntity
  8
0
100
AcDbLine
 10
26.40235902246823
 20
-56.65387084818016
 30
0.0
 11
26.16117808686517
 21
-56.55397043366764
 31
0.0
  0
LINE
  5
2F8
330
1F
100
AcDbEntity
  8
0
100
AcDbLine
 10
103.010737880149
 20
33.73025033907499
 30
0.0
 11
89.69846352113721
 21
33.73025033907499
 31
0.0
  0
LINE
  5
2F9
330
1F
100
AcDbEntity
  8
0
100
AcDbLine
 10
89.69846352113721
 20
33.73025033907499
 30
0.0
 11
89.69846352113721
 21
26.93025088307496
 31
0.0
  0
LINE
  5
2FA
330
1F
100
AcDbEntity
  8
0
100
AcDbLine
 10
-21.99713785942697
 20
-18.36974549292509
 30
0.0
 11
-42.76559535975875
 21
-18.36974549292482
 31
0.0
  0
LINE
  5
2FB
330
1F
100
AcDbEntity
  8
0
100
AcDbLine
 10
-21.99713785942697
 20
-18.36974549292509
 30
0.0
 11
-21.99713785942697
 21
-11.46974604492513
 31
0.0
  0
LINE
  5
2FC
330
1F
100
AcDbEntity
  8
0
100
AcDbLine
 10
-21.99713785942697
 20
-11.46974604492513
 30
0.0
 11
-42.76559535975875
 21
-11.46974604492477
 31
0.0
  0
LINE
  5
2FD
330
1F
100
AcDbEntity
  8
0
100
AcDbLine
 10
-66.69186698646723
 20
-16.4553862921099
 30
0.0
 11
-66.30597748950245
 21
-16.61522695533009
 31
0.0
  0
LINE
  5
2FE
330
1F
100
AcDbEntity
  8
0
100
AcDbLine
 10
-66.30597748950245
 20
-16.61522695533009
 30
0.0
 11
-65.89186705046723
 21
-16.6697456289062
 31
0.0
  0
LINE
  5
2FF
330
1F
100
AcDbEntity
  8
0
100
AcDbLine
 10
-65.89186705046723
 20
-16.6697456289062
 30
0.0
 11
-59.69186754646715
 21
-16.6697456289062
 31
0.0
  0
LINE
  5
300
330
1F
100
AcDbEntity
  8
0
100
AcDbLine
 10
-67.43734824889113
 20
-14.65563531787079
 30
0.0
 11
-67.49186692246724
 21
-15.06974575690601
 31
0.0
  0
LINE
  5
301
330
1F
100
AcDbEntity
  8
0
100
AcDbLine
 10
-42.76559535975875
 20
-11.46974604492477
 30
0.0
 11
-42.76559535975875
 21
-18.36974549292482
 31
0.0
  0
LINE
  5
302
330
1F
100
AcDbEntity
  8
0
100
AcDbLine
 10
-21.99713785942625
 20
12.23025205907496
 30
0.0
 11
-42.76559535975839
 21
12.23025205907532
 31
0.0
  0
LINE
  5
303
330
1F
100
AcDbEntity
  8
0
100
AcDbLine
 10
-21.99713785942625
 20
12.23025205907496
 30
0.0
 11
-21.99713785942625
 21
19.13025150707497
 31
0.0
  0
LINE
  5
304
330
1F
100
AcDbEntity
  8
0
100
AcDbLine
 10
-59.69186754646715
 20
-16.6697456289062
 30
0.0
 11
-59.27775710743194
 21
-16.61522695533027
 31
0.0
  0
LINE
  5
305
330
1F
100
AcDbEntity
  8
0
100
AcDbLine
 10
-59.27775710743194
 20
-16.61522695533027
 30
0.0
 11
-58.89186761046733
 21
-16.4553862921099
 31
0.0
  0
LINE
  5
306
330
1F
100
AcDbEntity
  8
0
100
AcDbLine
 10
-58.89186761046733
 20
-16.4553862921099
 30
0.0
 11
-58.56049678707848
 21
-16.20111651629487
 31
0.0
  0
LINE
  5
307
330
1F
100
AcDbEntity
  8
0
100
AcDbLine
 10
-58.56049678707848
 20
-16.20111651629487
 30
0.0
 11
-58.30622701126345
 21
-15.86974569290602
 31
0.0
  0
LINE
  5
308
330
1F
100
AcDbEntity
  8
0
100
AcDbLine
 10
-58.30622701126345
 20
-15.86974569290602
 30
0.0
 11
-58.14638634804327
 21
-15.48385619594114
 31
0.0
  0
LINE
  5
309
330
1F
100
AcDbEntity
  8
0
100
AcDbLine
 10
-10.64986695707714
 20
18.38909729317933
 30
0.0
 11
-10.27707478076473
 21
18.10304379538742
 31
0.0
  0
LINE
  5
30A
330
1F
100
AcDbEntity
  8
0
100
AcDbLine
 10
-59.27775710743212
 20
17.47573296151798
 30
0.0
 11
-59.69186754646715
 21
17.53025163509409
 31
0.0
  0
LINE
  5
30B
330
1F
100
AcDbEntity
  8
0
100
AcDbLine
 10
-65.89186705046723
 20
17.53025163509409
 30
0.0
 11
-59.69186754646715
 21
17.53025163509409
 31
0.0
  0
LINE
  5
30C
330
1F
100
AcDbEntity
  8
0
100
AcDbLine
 10
-65.89186705046723
 20
17.53025163509409
 30
0.0
 11
-66.30597748950264
 21
17.47573296151798
 31
0.0
  0
LINE
  5
30D
330
1F
100
AcDbEntity
  8
0
100
AcDbLine
 10
-66.30597748950264
 20
17.47573296151798
 30
0.0
 11
-66.69186698646742
 21
17.31589229829779
 31
0.0
  0
LINE
  5
30E
330
1F
100
AcDbEntity
  8
0
100
AcDbLine
 10
-66.69186698646742
 20
17.31589229829779
 30
0.0
 11
-67.02323780985627
 21
17.06162252248276
 31
0.0
  0
LINE
  5
30F
330
1F
100
AcDbEntity
  8
0
100
AcDbLine
 10
-67.02323780985627
 20
17.06162252248276
 30
0.0
 11
-67.27750758567112
 21
16.73025169909391
 31
0.0
  0
LINE
  5
310
330
1F
100
AcDbEntity
  8
0
100
AcDbLine
 10
-67.27750758567112
 20
16.73025169909391
 30
0.0
 11
-67.43734824889113
 21
16.34436220212913
 31
0.0
  0
LINE
  5
311
330
1F
100
AcDbEntity
  8
0
100
AcDbLine
 10
-67.43734824889113
 20
16.34436220212913
 30
0.0
 11
-67.49186692246724
 21
15.9302517630939
 31
0.0
  0
LINE
  5
312
330
1F
100
AcDbEntity
  8
0
100
AcDbLine
 10
-67.49186692246724
 20
15.9302517630939
 30
0.0
 11
-67.4373482488913
 21
15.51614132405869
 31
0.0
  0
LINE
  5
313
330
1F
100
AcDbEntity
  8
0
100
AcDbLine
 10
69.81074053614908
 20
-26.1697448689249
 30
0.0
 11
69.81074053614908
 21
-32.76974434092493
 31
0.0
  0
LINE
  5
314
330
1F
100
AcDbEntity
  8
0
100
AcDbLine
 10
62.810741096149
 20
-26.1697448689249
 30
0.0
 11
69.81074053614908
 21
-26.1697448689249
 31
0.0
  0
LINE
  5
315
330
1F
100
AcDbEntity
  8
0
100
AcDbLine
 10
89.69846352113649
 20
-26.16974486892521
 30
0.0
 11
103.0107378801486
 21
-26.16974486892521
 31
0.0
  0
LINE
  5
316
330
1F
100
AcDbEntity
  8
0
100
AcDbLine
 10
89.69846352113649
 20
-32.96974432492525
 30
0.0
 11
89.69846352113649
 21
-26.16974486892521
 31
0.0
  0
LINE
  5
317
330
1F
100
AcDbEntity
  8
0
100
AcDbLine
 10
89.69846352113721
 20
26.93025088307496
 30
0.0
 11
103.010737880149
 21
26.93025088307496
 31
0.0
  0
LINE
  5
318
330
1F
100
AcDbEntity
  8
0
100
AcDbLine
 10
69.81074053614908
 20
26.93025088307532
 30
0.0
 11
69.81074053614908
 21
33.73025033907535
 31
0.0
  0
LINE
  5
319
330
1F
100
AcDbEntity
  8
0
100
AcDbLine
 10
69.81074053614908
 20
33.73025033907535
 30
0.0
 11
62.810741096149
 21
33.73025033907535
 31
0.0
  0
LINE
  5
31A
330
1F
100
AcDbEntity
  8
0
100
AcDbLine
 10
62.810741096149
 20
33.73025033907535
 30
0.0
 11
62.810741096149
 21
26.93025088307532
 31
0.0
  0
LINE
  5
31B
330
1F
100
AcDbEntity
  8
0
100
AcDbLine
 10
64.2523819173064
 20
-20.81654623915633
 30
0.0
 11
64.54736674052737
 21
-21.18231196252031
 31
0.0
  0
LINE
  5
31C
330
1F
100
AcDbEntity
  8
0
100
AcDbLine
 10
63.8727813229414
 20
-20.5395913708536
 30
0.0
 11
64.2523819173064
 21
-20.81654623915633
 31
0.0
  0
LINE
  5
31D
330
1F
100
AcDbEntity
  8
0
100
AcDbLine
 10
-13.10871248718134
 20
-15.16974574892508
 30
0.0
 11
-12.82265898938951
 21
-14.79695357261267
 31
0.0
  0
LINE
  5
31E
330
1F
100
AcDbEntity
  8
0
100
AcDbLine
 10
3.908463789968498
 20
-78.71957238382166
 30
0.0
 11
3.808563375455972
 21
-78.4783914482187
 31
0.0
  0
LINE
  5
31F
330
1F
100
AcDbEntity
  8
0
100
AcDbLine
 10
4.067382399852985
 20
-78.92667914843965
 30
0.0
 11
3.908463789968498
 21
-78.71957238382166
 31
0.0
  0
LINE
  5
320
330
1F
100
AcDbEntity
  8
0
100
AcDbLine
 10
4.274489164470971
 20
-79.08559775832413
 30
0.0
 11
4.067382399852985
 21
-78.92667914843965
 31
0.0
  0
LINE
  5
321
330
1F
100
AcDbEntity
  8
0
100
AcDbLine
 10
4.515670100073849
 20
-79.18549817283666
 30
0.0
 11
4.274489164470971
 21
-79.08559775832413
 31
0.0
  0
LINE
  5
322
330
1F
100
AcDbEntity
  8
0
100
AcDbLine
 10
4.774489124471041
 20
-79.21957234382172
 30
0.0
 11
9.642952892917002
 21
-79.21957234382172
 31
0.0
  0
LINE
  5
323
330
1F
100
AcDbEntity
  8
0
100
AcDbLine
 10
10.14295285291707
 20
-79.08559775832413
 30
0.0
 11
9.901771917314013
 21
-79.18549817283666
 31
0.0
  0
LINE
  5
324
330
1F
100
AcDbEntity
  8
0
100
AcDbLine
 10
106.709007465407
 20
40.33024981107408
 30
0.0
 11
58.01074148014898
 21
40.33024981107398
 31
0.0
  0
LINE
  5
325
330
1F
100
AcDbEntity
  8
0
100
AcDbLine
 10
58.01074148014898
 20
40.33024981107398
 30
0.0
 11
58.01074148014898
 21
-39.56974379692533
 31
0.0
  0
LINE
  5
326
330
1F
100
AcDbEntity
  8
0
100
AcDbLine
 10
58.01074148014898
 20
-39.56974379692533
 30
0.0
 11
106.709007465407
 21
-39.56974379692528
 31
0.0
  0
LINE
  5
327
330
1F
100
AcDbEntity
  8
0
100
AcDbLine
 10
106.709007465407
 20
-39.56974379692528
 30
0.0
 11
106.709007465407
 21
40.33024981107408
 31
0.0
  0
LINE
  5
328
330
1F
100
AcDbEntity
  8
0
100
AcDbLine
 10
74.89327903872555
 20
-24.61973484178388
 30
0.0
 11
85.89327316261173
 21
-24.61973484178361
 31
0.0
  0
LINE
  5
329
330
1F
100
AcDbEntity
  8
0
100
AcDbLine
 10
85.89327316261173
 20
-24.61973484178361
 30
0.0
 11
85.89327316261227
 21
25.38024085593385
 31
0.0
  0
LINE
  5
32A
330
1F
100
AcDbEntity
  8
0
100
AcDbLine
 10
69.81074053614908
 20
-32.76974434092493
 30
0.0
 11
62.810741096149
 21
-32.76974434092493
 31
0.0
  0
LINE
  5
32B
330
1F
100
AcDbEntity
  8
0
100
AcDbLine
 10
103.0107378801486
 20
-26.16974486892521
 30
0.0
 11
103.0107378801486
 21
-32.96974432492525
 31
0.0
  0
LINE
  5
32C
330
1F
100
AcDbEntity
  8
0
100
AcDbLine
 10
103.0107378801486
 20
-32.96974432492525
 30
0.0
 11
89.69846352113649
 21
-32.96974432492525
 31
0.0
  0
LINE
  5
32D
330
1F
100
AcDbEntity
  8
0
100
AcDbLine
 10
103.010737880149
 20
26.93025088307496
 30
0.0
 11
103.010737880149
 21
33.73025033907499
 31
0.0
  0
LINE
  5
32E
330
1F
100
AcDbEntity
  8
0
100
AcDbLine
 10
62.810741096149
 20
26.93025088307532
 30
0.0
 11
69.81074053614908
 21
26.93025088307532
 31
0.0
  0
LINE
  5
32F
330
1F
100
AcDbEntity
  8
0
100
AcDbLine
 10
64.54736674052737
 20
-21.18231196252031
 30
0.0
 11
64.73763306438778
 21
-21.61196221135465
 31
0.0
  0
LINE
  5
330
330
1F
100
AcDbEntity
  8
0
100
AcDbLine
 10
64.73763306438778
 20
-21.61196221135465
 30
0.0
 11
64.81021455334607
 21
-22.076217031232
 31
0.0
  0
LINE
  5
331
330
1F
100
AcDbEntity
  8
0
100
AcDbLine
 10
64.81021455334607
 20
-22.076217031232
 30
0.0
 11
64.7601648988766
 21
-22.54343822339501
 31
0.0
  0
LINE
  5
332
330
1F
100
AcDbEntity
  8
0
100
AcDbLine
 10
64.7601648988766
 20
-22.54343822339501
 30
0.0
 11
64.59089490222016
 21
-22.98178543571733
 31
0.0
  0
LINE
  5
333
330
1F
100
AcDbEntity
  8
0
100
AcDbLine
 10
64.59089490222016
 20
-22.98178543571733
 30
0.0
 11
64.31394003391739
 21
-23.3613860300822
 31
0.0
  0
LINE
  5
334
330
1F
100
AcDbEntity
  8
0
100
AcDbLine
 10
64.31394003391739
 20
-23.3613860300822
 30
0.0
 11
63.94817431055364
 21
-23.65637085330325
 31
0.0
  0
LINE
  5
335
330
1F
100
AcDbEntity
  8
0
100
AcDbLine
 10
63.94817431055364
 20
-23.65637085330325
 30
0.0
 11
63.51852406171915
 21
-23.84663717716354
 31
0.0
  0
LINE
  5
336
330
1F
100
AcDbEntity
  8
0
100
AcDbLine
 10
63.05426924184194
 20
-23.91921866612188
 30
0.0
 11
62.58704804967893
 21
-23.86916901165235
 31
0.0
  0
LINE
  5
337
330
1F
100
AcDbEntity
  8
0
100
AcDbLine
 10
62.58704804967893
 20
-23.86916901165235
 30
0.0
 11
62.14870083735652
 21
-23.6998990149961
 31
0.0
  0
LINE
  5
338
330
1F
100
AcDbEntity
  8
0
100
AcDbLine
 10
61.47411541977055
 20
-23.05717842332939
 30
0.0
 11
61.28384909591013
 21
-22.62752817449504
 31
0.0
  0
LINE
  5
339
330
1F
100
AcDbEntity
  8
0
100
AcDbLine
 10
61.28384909591013
 20
-22.62752817449504
 30
0.0
 11
61.21126760695184
 21
-22.1632733546177
 31
0.0
  0
LINE
  5
33A
330
1F
100
AcDbEntity
  8
0
100
AcDbLine
 10
61.21126760695184
 20
-22.1632733546177
 30
0.0
 11
61.26131726142132
 21
-21.69605216245469
 31
0.0
  0
LINE
  5
33B
330
1F
100
AcDbEntity
  8
0
100
AcDbLine
 10
61.26131726142132
 20
-21.69605216245469
 30
0.0
 11
61.43058725807774
 21
-21.25770495013236
 31
0.0
  0
LINE
  5
33C
330
1F
100
AcDbEntity
  8
0
100
AcDbLine
 10
61.43058725807774
 20
-21.25770495013236
 30
0.0
 11
61.70754212638052
 21
-20.87810435576749
 31
0.0
  0
LINE
  5
33D
330
1F
100
AcDbEntity
  8
0
100
AcDbLine
 10
61.70754212638052
 20
-20.87810435576749
 30
0.0
 11
62.07330784974427
 21
-20.58311953254645
 31
0.0
  0
LINE
  5
33E
330
1F
100
AcDbEntity
  8
0
100
AcDbLine
 10
62.07330784974427
 20
-20.58311953254645
 30
0.0
 11
62.50295809857877
 21
-20.39285320868616
 31
0.0
  0
LINE
  5
33F
330
1F
100
AcDbEntity
  8
0
100
AcDbLine
 10
62.50295809857877
 20
-20.39285320868616
 30
0.0
 11
62.96721291845596
 21
-20.32027171972782
 31
0.0
  0
LINE
  5
340
330
1F
100
AcDbEntity
  8
0
100
AcDbLine
 10
62.96721291845596
 20
-20.32027171972782
 30
0.0
 11
63.43443411061899
 21
-20.37032137419735
 31
0.0
  0
LINE
  5
341
330
1F
100
AcDbEntity
  8
0
100
AcDbLine
 10
63.43443411061899
 20
-20.37032137419735
 30
0.0
 11
63.8727813229414
 21
-20.5395913708536
 31
0.0
  0
LINE
  5
342
330
1F
100
AcDbEntity
  8
0
100
AcDbLine
 10
100.509007961407
 20
-16.06974567692632
 30
0.0
 11
100.447674453634
 21
-16.53561992084094
 31
0.0
  0
LINE
  5
343
330
1F
100
AcDbEntity
  8
0
100
AcDbLine
 10
100.447674453634
 20
-16.53561992084094
 30
0.0
 11
100.2678537075112
 21
-16.96974560492635
 31
0.0
  0
LINE
  5
344
330
1F
100
AcDbEntity
  8
0
100
AcDbLine
 10
99.609008033407
 20
-17.62859127903072
 30
0.0
 11
99.17488234932163
 21
-17.80841202515338
 31
0.0
  0
LINE
  5
345
330
1F
100
AcDbEntity
  8
0
100
AcDbLine
 10
99.17488234932163
 20
-17.80841202515338
 30
0.0
 11
98.70900810540684
 21
-17.86974553292637
 31
0.0
  0
LINE
  5
346
330
1F
100
AcDbEntity
  8
0
100
AcDbLine
 10
98.70900810540684
 20
-17.86974553292637
 30
0.0
 11
98.2431338614924
 21
-17.80841202515338
 31
0.0
  0
LINE
  5
347
330
1F
100
AcDbEntity
  8
0
100
AcDbLine
 10
98.2431338614924
 20
-17.80841202515338
 30
0.0
 11
97.80900817740704
 21
-17.62859127903072
 31
0.0
  0
LINE
  5
348
330
1F
100
AcDbEntity
  8
0
100
AcDbLine
 10
97.80900817740704
 20
-17.62859127903072
 30
0.0
 11
97.43621600109444
 21
-17.34253778123876
 31
0.0
  0
LINE
  5
349
330
1F
100
AcDbEntity
  8
0
100
AcDbLine
 10
97.43621600109444
 20
-17.34253778123876
 30
0.0
 11
97.15016250330244
 21
-16.96974560492635
 31
0.0
  0
LINE
  5
34A
330
1F
100
AcDbEntity
  8
0
100
AcDbLine
 10
97.15016250330244
 20
-16.96974560492635
 30
0.0
 11
96.97034175718
 21
-16.53561992084094
 31
0.0
  0
LINE
  5
34B
330
1F
100
AcDbEntity
  8
0
100
AcDbLine
 10
96.97034175718
 20
-16.53561992084094
 30
0.0
 11
96.90900824940687
 21
-16.06974567692632
 31
0.0
  0
LINE
  5
34C
330
1F
100
AcDbEntity
  8
0
100
AcDbLine
 10
96.90900824940687
 20
-16.06974567692632
 30
0.0
 11
96.97034175718
 21
-15.6038714330117
 31
0.0
  0
LINE
  5
34D
330
1F
100
AcDbEntity
  8
0
100
AcDbLine
 10
96.97034175718
 20
-15.6038714330117
 30
0.0
 11
97.15016250330244
 21
-15.16974574892629
 31
0.0
  0
LINE
  5
34E
330
1F
100
AcDbEntity
  8
0
100
AcDbLine
 10
97.15016250330244
 20
-15.16974574892629
 30
0.0
 11
97.43621600109444
 21
-14.79695357261388
 31
0.0
  0
LINE
  5
34F
330
1F
100
AcDbEntity
  8
0
100
AcDbLine
 10
97.43621600109444
 20
-14.79695357261388
 30
0.0
 11
97.80900817740685
 21
-14.51090007482193
 31
0.0
  0
LINE
  5
350
330
1F
100
AcDbEntity
  8
0
100
AcDbLine
 10
97.80900817740685
 20
-14.51090007482193
 30
0.0
 11
98.2431338614924
 21
-14.33107932869926
 31
0.0
  0
LINE
  5
351
330
1F
100
AcDbEntity
  8
0
100
AcDbLine
 10
98.2431338614924
 20
-14.33107932869926
 30
0.0
 11
98.70900810540684
 21
-14.26974582092627
 31
0.0
  0
LINE
  5
352
330
1F
100
AcDbEntity
  8
0
100
AcDbLine
 10
98.70900810540684
 20
-14.26974582092627
 30
0.0
 11
99.17488234932163
 21
-14.33107932869926
 31
0.0
  0
LINE
  5
353
330
1F
100
AcDbEntity
  8
0
100
AcDbLine
 10
99.17488234932163
 20
-14.33107932869926
 30
0.0
 11
99.609008033407
 21
-14.51090007482193
 31
0.0
  0
LINE
  5
354
330
1F
100
AcDbEntity
  8
0
100
AcDbLine
 10
99.609008033407
 20
-14.51090007482193
 30
0.0
 11
99.98180020971941
 21
-14.79695357261388
 31
0.0
  0
LINE
  5
355
330
1F
100
AcDbEntity
  8
0
100
AcDbLine
 10
99.98180020971941
 20
-14.79695357261388
 30
0.0
 11
100.2678537075112
 21
-15.16974574892629
 31
0.0
  0
LINE
  5
356
330
1F
100
AcDbEntity
  8
0
100
AcDbLine
 10
100.2678537075112
 20
-15.16974574892629
 30
0.0
 11
100.447674453634
 21
-15.6038714330117
 31
0.0
  0
LINE
  5
357
330
1F
100
AcDbEntity
  8
0
100
AcDbLine
 10
100.447674453634
 20
-15.6038714330117
 30
0.0
 11
100.509007961407
 21
-16.06974567692632
 31
0.0
  0
LINE
  5
358
330
1F
100
AcDbEntity
  8
0
100
AcDbLine
 10
97.15016250330298
 20
15.93025176307495
 30
0.0
 11
96.97034175718035
 21
16.36437744716041
 31
0.0
  0
LINE
  5
359
330
1F
100
AcDbEntity
  8
0
100
AcDbLine
 10
96.90900824940722
 20
16.83025169107503
 30
0.0
 11
96.97034175718035
 21
17.29612593498965
 31
0.0
  0
LINE
  5
35A
330
1F
100
AcDbEntity
  8
0
100
AcDbLine
 10
96.97034175718035
 20
17.29612593498965
 30
0.0
 11
97.15016250330298
 21
17.73025161907501
 31
0.0
  0
LINE
  5
35B
330
1F
100
AcDbEntity
  8
0
100
AcDbLine
 10
97.15016250330298
 20
17.73025161907501
 30
0.0
 11
97.43621600109479
 21
18.10304379538751
 31
0.0
  0
LINE
  5
35C
330
1F
100
AcDbEntity
  8
0
100
AcDbLine
 10
97.43621600109479
 20
18.10304379538751
 30
0.0
 11
97.80900817740739
 21
18.38909729317942
 31
0.0
  0
LINE
  5
35D
330
1F
100
AcDbEntity
  8
0
100
AcDbLine
 10
99.60900803340736
 20
18.38909729317942
 30
0.0
 11
99.98180020971995
 21
18.10304379538751
 31
0.0
  0
LINE
  5
35E
330
1F
100
AcDbEntity
  8
0
100
AcDbLine
 10
99.98180020971995
 20
18.10304379538751
 30
0.0
 11
100.2678537075118
 21
17.7302516190751
 31
0.0
  0
LINE
  5
35F
330
1F
100
AcDbEntity
  8
0
100
AcDbLine
 10
100.2678537075118
 20
17.7302516190751
 30
0.0
 11
100.4476744536344
 21
17.29612593498965
 31
0.0
  0
LINE
  5
360
330
1F
100
AcDbEntity
  8
0
100
AcDbLine
 10
100.4476744536344
 20
17.29612593498965
 30
0.0
 11
100.5090079614075
 21
16.83025169107503
 31
0.0
  0
LINE
  5
361
330
1F
100
AcDbEntity
  8
0
100
AcDbLine
 10
100.5090079614075
 20
16.83025169107503
 30
0.0
 11
100.4476744536344
 21
16.36437744716041
 31
0.0
  0
LINE
  5
362
330
1F
100
AcDbEntity
  8
0
100
AcDbLine
 10
100.4476744536344
 20
16.36437744716041
 30
0.0
 11
100.2678537075118
 21
15.93025176307505
 31
0.0
  0
LINE
  5
363
330
1F
100
AcDbEntity
  8
0
100
AcDbLine
 10
97.43621600109479
 20
15.55745958676254
 30
0.0
 11
97.15016250330298
 21
15.93025176307495
 31
0.0
  0
LINE
  5
364
330
1F
100
AcDbEntity
  8
0
100
AcDbLine
 10
64.25440653952548
 20
24.18151816921413
 30
0.0
 11
64.54882233918853
 21
23.81529426607915
 31
0.0
  0
LINE
  5
365
330
1F
100
AcDbEntity
  8
0
100
AcDbLine
 10
64.54882233918853
 20
23.81529426607915
 30
0.0
 11
64.73842044284774
 21
23.3853487237048
 31
0.0
  0
LINE
  5
366
330
1F
100
AcDbEntity
  8
0
100
AcDbLine
 10
64.73842044284774
 20
23.3853487237048
 30
0.0
 11
64.81028005306382
 21
22.92098162028517
 31
0.0
  0
LINE
  5
367
330
1F
100
AcDbEntity
  8
0
100
AcDbLine
 10
64.81028005306382
 20
22.92098162028517
 30
0.0
 11
64.7595040561547
 21
22.45383880651552
 31
0.0
  0
LINE
  5
368
330
1F
100
AcDbEntity
  8
0
100
AcDbLine
 10
64.7595040561547
 20
22.45383880651552
 30
0.0
 11
64.58955275239838
 21
22.01575529316418
 31
0.0
  0
LINE
  5
369
330
1F
100
AcDbEntity
  8
0
100
AcDbLine
 10
64.58955275239838
 20
22.01575529316418
 30
0.0
 11
64.31200804228777
 21
21.63658574769888
 31
0.0
  0
LINE
  5
36A
330
1F
100
AcDbEntity
  8
0
100
AcDbLine
 10
63.05147149335881
 20
21.08071223416036
 30
0.0
 11
62.58432867958917
 21
21.13148823106948
 31
0.0
  0
LINE
  5
36B
330
1F
100
AcDbEntity
  8
0
100
AcDbLine
 10
104.5856770981753
 20
46.3541060379298
 30
0.0
 11
104.5856770981753
 21
69.95410414993005
 31
0.0
  0
LINE
  5
36C
330
1F
100
AcDbEntity
  8
0
100
AcDbLine
 10
61.68741064891719
 20
50.85410567792993
 30
0.0
 11
61.62607714114425
 21
50.38823143401531
 31
0.0
  0
LINE
  5
36D
330
1F
100
AcDbEntity
  8
0
100
AcDbLine
 10
61.16020289722963
 20
52.12689778224215
 30
0.0
 11
61.44625639502144
 21
51.75410560592973
 31
0.0
  0
LINE
  5
36E
330
1F
100
AcDbEntity
  8
0
100
AcDbLine
 10
58.98741086491724
 20
49.29526007582554
 30
0.0
 11
58.61461868860484
 21
49.58131357361754
 31
0.0
  0
LINE
  5
36F
330
1F
100
AcDbEntity
  8
0
100
AcDbLine
 10
59.42153654900261
 20
49.11543932970292
 30
0.0
 11
58.98741086491724
 21
49.29526007582554
 31
0.0
  0
LINE
  5
370
330
1F
100
AcDbEntity
  8
0
100
AcDbLine
 10
72.28740980091702
 20
46.3541060379298
 30
0.0
 11
55.88741111291721
 21
46.3541060379298
 31
0.0
  0
LINE
  5
371
330
1F
100
AcDbEntity
  8
0
100
AcDbLine
 10
-91.99846667973773
 20
-10.17634786617614
 30
0.0
 11
-88.89186521046756
 21
-12.56012701444216
 31
0.0
  0
LINE
  5
372
330
1F
100
AcDbEntity
  8
0
100
AcDbLine
 10
59.88741079291723
 20
52.65410553392971
 30
0.0
 11
60.35328503683185
 21
52.59277202615677
 31
0.0
  0
LINE
  5
373
330
1F
100
AcDbEntity
  8
0
100
AcDbLine
 10
59.42153654900261
 20
52.59277202615677
 30
0.0
 11
59.88741079291723
 21
52.65410553392971
 31
0.0
  0
LINE
  5
374
330
1F
100
AcDbEntity
  8
0
100
AcDbLine
 10
58.61461868860484
 20
52.12689778224215
 30
0.0
 11
58.98741086491724
 21
52.41295128003414
 31
0.0
  0
LINE
  5
375
330
1F
100
AcDbEntity
  8
0
100
AcDbLine
 10
-48.82653467775335
 20
23.74549712530607
 30
0.0
 11
-48.54880985348355
 21
24.12453476499782
 31
0.0
  0
LINE
  5
376
330
1F
100
AcDbEntity
  8
0
100
AcDbLine
 10
8.908463389968658
 20
-62.21957370382169
 30
0.0
 11
9.067381999853144
 21
-62.0124669392037
 31
0.0
  0
LINE
  5
377
330
1F
100
AcDbEntity
  8
0
100
AcDbLine
 10
73.0912573139026
 20
52.85410551792976
 30
0.0
 11
74.04476897320916
 21
54.09674610563786
 31
0.0
  0
LINE
  5
378
330
1F
100
AcDbEntity
  8
0
100
AcDbLine
 10
74.04476897320916
 20
54.09674610563786
 30
0.0
 11
75.28740956091708
 21
55.05025776494423
 31
0.0
  0
LINE
  5
379
330
1F
100
AcDbEntity
  8
0
100
AcDbLine
 10
75.28740956091708
 20
55.05025776494423
 30
0.0
 11
76.73449517453506
 21
55.64966025201976
 31
0.0
  0
LINE
  5
37A
330
1F
100
AcDbEntity
  8
0
100
AcDbLine
 10
76.73449517453506
 20
55.64966025201976
 30
0.0
 11
78.28740932091713
 21
55.85410527792982
 31
0.0
  0
LINE
  5
37B
330
1F
100
AcDbEntity
  8
0
100
AcDbLine
 10
78.28740932091713
 20
55.85410527792982
 30
0.0
 11
79.8403234672992
 21
55.64966025201976
 31
0.0
  0
LINE
  5
37C
330
1F
100
AcDbEntity
  8
0
100
AcDbLine
 10
81.2874090809172
 20
55.05025776494423
 30
0.0
 11
82.53004966862511
 21
54.09674610563786
 31
0.0
  0
LINE
  5
37D
330
1F
100
AcDbEntity
  8
0
100
AcDbLine
 10
83.48356132793167
 20
52.85410551792976
 30
0.0
 11
84.08296381500719
 21
51.40701990431177
 31
0.0
  0
LINE
  5
37E
330
1F
100
AcDbEntity
  8
0
100
AcDbLine
 10
84.08296381500719
 20
51.40701990431177
 30
0.0
 11
84.28740884091725
 21
49.85410575792988
 31
0.0
  0
LINE
  5
37F
330
1F
100
AcDbEntity
  8
0
100
AcDbLine
 10
84.28740884091725
 20
49.85410575792988
 30
0.0
 11
84.28740884091725
 21
46.3541060379298
 31
0.0
  0
LINE
  5
380
330
1F
100
AcDbEntity
  8
0
100
AcDbLine
 10
59.88741079291723
 20
49.05410582192979
 30
0.0
 11
59.42153654900261
 21
49.11543932970292
 31
0.0
  0
LINE
  5
381
330
1F
100
AcDbEntity
  8
0
100
AcDbLine
 10
58.61461868860484
 20
49.58131357361754
 30
0.0
 11
58.32856519081302
 21
49.95410574992995
 31
0.0
  0
LINE
  5
382
330
1F
100
AcDbEntity
  8
0
100
AcDbLine
 10
58.32856519081302
 20
49.95410574992995
 30
0.0
 11
58.14874444469022
 21
50.38823143401531
 31
0.0
  0
LINE
  5
383
330
1F
100
AcDbEntity
  8
0
100
AcDbLine
 10
58.14874444469022
 20
50.38823143401531
 30
0.0
 11
58.08741093691727
 21
50.85410567792993
 31
0.0
  0
LINE
  5
384
330
1F
100
AcDbEntity
  8
0
100
AcDbLine
 10
58.08741093691727
 20
50.85410567792993
 30
0.0
 11
58.14874444469022
 21
51.31997992184437
 31
0.0
  0
LINE
  5
385
330
1F
100
AcDbEntity
  8
0
100
AcDbLine
 10
58.14874444469022
 20
51.31997992184437
 30
0.0
 11
58.32856519081302
 21
51.75410560592973
 31
0.0
  0
LINE
  5
386
330
1F
100
AcDbEntity
  8
0
100
AcDbLine
 10
58.32856519081302
 20
51.75410560592973
 30
0.0
 11
58.61461868860484
 21
52.12689778224215
 31
0.0
  0
LINE
  5
387
330
1F
100
AcDbEntity
  8
0
100
AcDbLine
 10
61.44625639502144
 20
51.75410560592973
 30
0.0
 11
61.62607714114425
 21
51.31997992184437
 31
0.0
  0
LINE
  5
388
330
1F
100
AcDbEntity
  8
0
100
AcDbLine
 10
61.62607714114425
 20
51.31997992184437
 30
0.0
 11
61.68741064891719
 21
50.85410567792993
 31
0.0
  0
LINE
  5
389
330
1F
100
AcDbEntity
  8
0
100
AcDbLine
 10
61.62607714114425
 20
50.38823143401531
 30
0.0
 11
61.44625639502144
 21
49.95410574992995
 31
0.0
  0
LINE
  5
38A
330
1F
100
AcDbEntity
  8
0
100
AcDbLine
 10
61.44625639502144
 20
49.95410574992995
 30
0.0
 11
61.16020289722963
 21
49.58131357361754
 31
0.0
  0
LINE
  5
38B
330
1F
100
AcDbEntity
  8
0
100
AcDbLine
 10
61.16020289722963
 20
49.58131357361754
 30
0.0
 11
60.78741072091721
 21
49.29526007582554
 31
0.0
  0
LINE
  5
38C
330
1F
100
AcDbEntity
  8
0
100
AcDbLine
 10
60.78741072091721
 20
49.29526007582554
 30
0.0
 11
60.35328503683185
 21
49.11543932970292
 31
0.0
  0
LINE
  5
38D
330
1F
100
AcDbEntity
  8
0
100
AcDbLine
 10
60.35328503683185
 20
49.11543932970292
 30
0.0
 11
59.88741079291723
 21
49.05410582192979
 31
0.0
  0
LINE
  5
38E
330
1F
100
AcDbEntity
  8
0
100
AcDbLine
 10
-44.44813413433561
 20
26.93025088307523
 30
0.0
 11
-34.04813496633556
 21
26.93025088307532
 31
0.0
  0
LINE
  5
38F
330
1F
100
AcDbEntity
  8
0
100
AcDbLine
 10
-34.04813496633556
 20
26.93025088307532
 30
0.0
 11
-34.04813496633556
 21
33.73025033907527
 31
0.0
  0
LINE
  5
390
330
1F
100
AcDbEntity
  8
0
100
AcDbLine
 10
-18.94813617433547
 20
-32.96974432492516
 30
0.0
 11
-18.94813617433547
 21
-26.16974486892513
 31
0.0
  0
LINE
  5
391
330
1F
100
AcDbEntity
  8
0
100
AcDbLine
 10
-45.66973314292078
 20
-21.25449927468827
 30
0.0
 11
-45.49957372251836
 21
-21.69250199382032
 31
0.0
  0
LINE
  5
392
330
1F
100
AcDbEntity
  8
0
100
AcDbLine
 10
-12.4498668130771
 20
18.38909729317933
 30
0.0
 11
-12.01574112899174
 21
18.56891803930195
 31
0.0
  0
LINE
  5
393
330
1F
100
AcDbEntity
  8
0
100
AcDbLine
 10
-91.99846667973773
 20
11.03685387236421
 30
0.0
 11
-94.38224582800375
 21
7.930252403094139
 31
0.0
  0
LINE
  5
394
330
1F
100
AcDbEntity
  8
0
100
AcDbLine
 10
-94.38224582800375
 20
7.930252403094139
 30
0.0
 11
-95.88075204569273
 21
4.312538369049173
 31
0.0
  0
LINE
  5
395
330
1F
100
AcDbEntity
  8
0
100
AcDbLine
 10
-95.88075204569273
 20
4.312538369049173
 30
0.0
 11
-96.3918646104677
 21
0.4302530030940813
 31
0.0
  0
LINE
  5
396
330
1F
100
AcDbEntity
  8
0
100
AcDbLine
 10
-88.89186521046756
 20
-12.56012701444216
 30
0.0
 11
-85.27415117642241
 21
-14.05863323213104
 31
0.0
  0
LINE
  5
397
330
1F
100
AcDbEntity
  8
0
100
AcDbLine
 10
-85.27415117642241
 20
-14.05863323213104
 30
0.0
 11
-81.39186581046741
 21
-14.56974579690603
 31
0.0
  0
LINE
  5
398
330
1F
100
AcDbEntity
  8
0
100
AcDbLine
 10
-71.30958094051235
 20
-14.05863323213104
 30
0.0
 11
-67.69186690646738
 21
-12.56012701444216
 31
0.0
  0
LINE
  5
399
330
1F
100
AcDbEntity
  8
0
100
AcDbLine
 10
32.5611775748652
 20
-55.68794509916519
 30
0.0
 11
32.5611775748652
 21
-44.1879460191652
 31
0.0
  0
LINE
  5
39A
330
1F
100
AcDbEntity
  8
0
100
AcDbLine
 10
27.56117797486504
 20
-44.1879460191652
 30
0.0
 11
32.5611775748652
 21
-44.1879460191652
 31
0.0
  0
LINE
  5
39B
330
1F
100
AcDbEntity
  8
0
100
AcDbLine
 10
27.52710380387996
 20
-39.92912731476817
 30
0.0
 11
27.42720338936743
 21
-39.6879463791652
 31
0.0
  0
LINE
  5
39C
330
1F
100
AcDbEntity
  8
0
100
AcDbLine
 10
27.42720338936743
 20
-39.6879463791652
 30
0.0
 11
27.26828477948295
 21
-39.48083961454721
 31
0.0
  0
LINE
  5
39D
330
1F
100
AcDbEntity
  8
0
100
AcDbLine
 10
27.26828477948295
 20
-39.48083961454721
 30
0.0
 11
27.06117801486496
 21
-39.32192100466273
 31
0.0
  0
LINE
  5
39E
330
1F
100
AcDbEntity
  8
0
100
AcDbLine
 10
27.06117801486496
 20
-39.32192100466273
 30
0.0
 11
26.81999707926191
 21
-39.2220205901502
 31
0.0
  0
LINE
  5
39F
330
1F
100
AcDbEntity
  8
0
100
AcDbLine
 10
26.81999707926191
 20
-39.2220205901502
 30
0.0
 11
26.56117805486508
 21
-39.18794641916514
 31
0.0
  0
LINE
  5
3A0
330
1F
100
AcDbEntity
  8
0
100
AcDbLine
 10
8.592720330533037
 20
-39.18794641916514
 30
0.0
 11
26.56117805486508
 21
-39.18794641916514
 31
0.0
  0
LINE
  5
3A1
330
1F
100
AcDbEntity
  8
0
100
AcDbLine
 10
8.333901306136026
 20
-39.2220205901502
 30
0.0
 11
8.592720330533037
 21
-39.18794641916514
 31
0.0
  0
LINE
  5
3A2
330
1F
100
AcDbEntity
  8
0
100
AcDbLine
 10
7.885613605914982
 20
-39.48083961454721
 30
0.0
 11
8.092720370532968
 21
-39.32192100466273
 31
0.0
  0
LINE
  5
3A3
330
1F
100
AcDbEntity
  8
0
100
AcDbLine
 10
7.726694996030495
 20
-39.6879463791652
 30
0.0
 11
7.885613605914982
 21
-39.48083961454721
 31
0.0
  0
LINE
  5
3A4
330
1F
100
AcDbEntity
  8
0
100
AcDbLine
 10
7.626794581518149
 20
-39.92912731476817
 30
0.0
 11
7.726694996030495
 21
-39.6879463791652
 31
0.0
  0
LINE
  5
3A5
330
1F
100
AcDbEntity
  8
0
100
AcDbLine
 10
7.592720410533079
 20
-44.1879460191652
 30
0.0
 11
7.592720410533079
 21
-40.18794633916519
 31
0.0
  0
LINE
  5
3A6
330
1F
100
AcDbEntity
  8
0
100
AcDbLine
 10
2.592720810532919
 20
-44.1879460191652
 30
0.0
 11
7.592720410533079
 21
-44.1879460191652
 31
0.0
  0
LINE
  5
3A7
330
1F
100
AcDbEntity
  8
0
100
AcDbLine
 10
2.592720810532919
 20
-44.1879460191652
 30
0.0
 11
2.592720810532919
 21
-55.68794509916519
 31
0.0
  0
LINE
  5
3A8
330
1F
100
AcDbEntity
  8
0
100
AcDbLine
 10
2.626794981517991
 20
-55.9467641235622
 30
0.0
 11
2.592720810532919
 21
-55.68794509916519
 31
0.0
  0
LINE
  5
3A9
330
1F
100
AcDbEntity
  8
0
100
AcDbLine
 10
2.726695396030517
 20
-56.18794505916517
 30
0.0
 11
2.626794981517991
 21
-55.9467641235622
 31
0.0
  0
LINE
  5
3AA
330
1F
100
AcDbEntity
  8
0
100
AcDbLine
 10
2.885614005915003
 20
-56.39505182378316
 30
0.0
 11
2.726695396030517
 21
-56.18794505916517
 31
0.0
  0
LINE
  5
3AB
330
1F
100
AcDbEntity
  8
0
100
AcDbLine
 10
3.09272077053299
 20
-56.55397043366764
 30
0.0
 11
2.885614005915003
 21
-56.39505182378316
 31
0.0
  0
LINE
  5
3AC
330
1F
100
AcDbEntity
  8
0
100
AcDbLine
 10
3.333901706136047
 20
-56.65387084818016
 30
0.0
 11
3.09272077053299
 21
-56.55397043366764
 31
0.0
  0
LINE
  5
3AD
330
1F
100
AcDbEntity
  8
0
100
AcDbLine
 10
3.592720730532879
 20
-56.68794501916524
 30
0.0
 11
3.333901706136047
 21
-56.65387084818016
 31
0.0
  0
LINE
  5
3AE
330
1F
100
AcDbEntity
  8
0
100
AcDbLine
 10
3.592720730532879
 20
-56.68794501916524
 30
0.0
 11
8.46118449897902
 21
-56.68794501916524
 31
0.0
  0
LINE
  5
3AF
330
1F
100
AcDbEntity
  8
0
100
AcDbLine
 10
8.720003523376032
 20
-56.65387084818016
 30
0.0
 11
8.46118449897902
 21
-56.68794501916524
 31
0.0
  0
LINE
  5
3B0
330
1F
100
AcDbEntity
  8
0
100
AcDbLine
 10
8.96118445897891
 20
-56.55397043366764
 30
0.0
 11
8.720003523376032
 21
-56.65387084818016
 31
0.0
  0
LINE
  5
3B1
330
1F
100
AcDbEntity
  8
0
100
AcDbLine
 10
9.168291223596896
 20
-56.39505182378316
 30
0.0
 11
8.96118445897891
 21
-56.55397043366764
 31
0.0
  0
LINE
  5
3B2
330
1F
100
AcDbEntity
  8
0
100
AcDbLine
 10
25.7951527123627
 20
-56.18794505916517
 30
0.0
 11
25.69525229785017
 21
-55.9467641235622
 31
0.0
  0
LINE
  5
3B3
330
1F
100
AcDbEntity
  8
0
100
AcDbLine
 10
25.95407132224718
 20
-56.39505182378316
 30
0.0
 11
25.7951527123627
 21
-56.18794505916517
 31
0.0
  0
LINE
  5
3B4
330
1F
100
AcDbEntity
  8
0
100
AcDbLine
 10
26.16117808686517
 20
-56.55397043366764
 30
0.0
 11
25.95407132224718
 21
-56.39505182378316
 31
0.0
  0
LINE
  5
3B5
330
1F
100
AcDbEntity
  8
0
100
AcDbLine
 10
26.66117804686505
 20
-56.68794501916524
 30
0.0
 11
26.40235902246823
 21
-56.65387084818016
 31
0.0
  0
LINE
  5
3B6
330
1F
100
AcDbEntity
  8
0
100
AcDbLine
 10
32.52710340388012
 20
-55.9467641235622
 30
0.0
 11
32.42720298936742
 21
-56.18794505916517
 31
0.0
  0
LINE
  5
3B7
330
1F
100
AcDbEntity
  8
0
100
AcDbLine
 10
32.5611775748652
 20
-55.68794509916519
 30
0.0
 11
32.52710340388012
 21
-55.9467641235622
 31
0.0
  0
LINE
  5
3B8
330
1F
100
AcDbEntity
  8
0
100
AcDbLine
 10
-13.34986674107708
 20
-16.06974567692506
 30
0.0
 11
-13.28853323330413
 21
-15.60387143301048
 31
0.0
  0
LINE
  5
3B9
330
1F
100
AcDbEntity
  8
0
100
AcDbLine
 10
-13.28853323330413
 20
-16.53561992083963
 30
0.0
 11
-13.34986674107708
 21
-16.06974567692506
 31
0.0
  0
LINE
  5
3BA
330
1F
100
AcDbEntity
  8
0
100
AcDbLine
 10
-9.991021282972905
 20
-15.16974574892508
 30
0.0
 11
-9.811200536850105
 21
-15.60387143301048
 31
0.0
  0
LINE
  5
3BB
330
1F
100
AcDbEntity
  8
0
100
AcDbLine
 10
-59.27775710743194
 20
-13.5242645584823
 30
0.0
 11
-59.69186754646715
 21
-13.46974588490619
 31
0.0
  0
LINE
  5
3BC
330
1F
100
AcDbEntity
  8
0
100
AcDbLine
 10
-12.01574112899174
 20
15.0915853428481
 30
0.0
 11
-12.4498668130771
 21
15.27140608897072
 31
0.0
  0
LINE
  5
3BD
330
1F
100
AcDbEntity
  8
0
100
AcDbLine
 10
-11.54986688507712
 20
15.03025183507506
 30
0.0
 11
-12.01574112899174
 21
15.0915853428481
 31
0.0
  0
LINE
  5
3BE
330
1F
100
AcDbEntity
  8
0
100
AcDbLine
 10
-10.64986695707714
 20
15.27140608897072
 30
0.0
 11
-11.0839926411625
 21
15.0915853428481
 31
0.0
  0
LINE
  5
3BF
330
1F
100
AcDbEntity
  8
0
100
AcDbLine
 10
-46.74385728044555
 20
-20.39182605067681
 30
0.0
 11
-46.31382170751979
 21
-20.58121986350384
 31
0.0
  0
LINE
  5
3C0
330
1F
100
AcDbEntity
  8
0
100
AcDbLine
 10
-47.20825847234183
 20
-20.32018707187257
 30
0.0
 11
-46.74385728044555
 21
-20.39182605067681
 31
0.0
  0
LINE
  5
3C1
330
1F
100
AcDbEntity
  8
0
100
AcDbLine
 10
-47.67537710944002
 20
-20.37118500510767
 30
0.0
 11
-47.20825847234183
 21
-20.32018707187257
 31
0.0
  0
LINE
  5
3C2
330
1F
100
AcDbEntity
  8
0
100
AcDbLine
 10
-10.27707478076473
 20
18.10304379538742
 30
0.0
 11
-9.991021282972905
 21
17.73025161907501
 31
0.0
  0
LINE
  5
3C3
330
1F
100
AcDbEntity
  8
0
100
AcDbLine
 10
-48.78665923975298
 20
21.94593900425398
 30
0.0
 11
-48.97605305258173
 21
22.37597457717902
 31
0.0
  0
LINE
  5
3C4
330
1F
100
AcDbEntity
  8
0
100
AcDbLine
 10
-48.49241746825786
 20
21.57957526392729
 30
0.0
 11
-48.78665923975298
 21
21.94593900425398
 31
0.0
  0
LINE
  5
3C5
330
1F
100
AcDbEntity
  8
0
100
AcDbLine
 10
-48.11337982856611
 20
21.3018504396575
 30
0.0
 11
-48.49241746825786
 21
21.57957526392729
 31
0.0
  0
LINE
  5
3C6
330
1F
100
AcDbEntity
  8
0
100
AcDbLine
 10
-46.82089071123104
 20
-23.86830538074203
 30
0.0
 11
-47.28800934832923
 21
-23.91930331397712
 31
0.0
  0
LINE
  5
3C7
330
1F
100
AcDbEntity
  8
0
100
AcDbLine
 10
-46.38288799209901
 20
-23.69814596033956
 30
0.0
 11
-46.82089071123104
 21
-23.86830538074203
 31
0.0
  0
LINE
  5
3C8
330
1F
100
AcDbEntity
  8
0
100
AcDbLine
 10
-46.00385035240834
 20
-23.42042113606836
 30
0.0
 11
-46.38288799209901
 21
-23.69814596033956
 31
0.0
  0
LINE
  5
3C9
330
1F
100
AcDbEntity
  8
0
100
AcDbLine
 10
-45.70960858091448
 20
-23.05405739574055
 30
0.0
 11
-46.00385035240834
 21
-23.42042113606836
 31
0.0
  0
LINE
  5
3CA
330
1F
100
AcDbEntity
  8
0
100
AcDbLine
 10
-46.00385035241321
 20
24.18092715022351
 30
0.0
 11
-45.70960858091809
 21
23.81456340989683
 31
0.0
  0
LINE
  5
3CB
330
1F
100
AcDbEntity
  8
0
100
AcDbLine
 10
-46.38288799210478
 20
24.45865197449331
 30
0.0
 11
-46.00385035241321
 21
24.18092715022351
 31
0.0
  0
LINE
  5
3CC
330
1F
100
AcDbEntity
  8
0
100
AcDbLine
 10
-18.94813617433547
 20
26.93025088307523
 30
0.0
 11
-18.94813617433547
 21
33.73025033907527
 31
0.0
  0
LINE
  5
3CD
330
1F
100
AcDbEntity
  8
0
100
AcDbLine
 10
-18.94813617433547
 20
26.93025088307523
 30
0.0
 11
-8.548137006335061
 21
26.93025088307523
 31
0.0
  0
LINE
  5
3CE
330
1F
100
AcDbEntity
  8
0
100
AcDbLine
 10
33.45005277342109
 20
-78.92667914843965
 30
0.0
 11
33.24294600880311
 21
-79.08559775832413
 31
0.0
  0
LINE
  5
3CF
330
1F
100
AcDbEntity
  8
0
100
AcDbLine
 10
28.24294640880295
 20
-61.85354832931922
 30
0.0
 11
28.00176547320007
 21
-61.7536479148067
 31
0.0
  0
LINE
  5
3D0
330
1F
100
AcDbEntity
  8
0
100
AcDbLine
 10
-13.10871248718134
 20
-16.96974560492504
 30
0.0
 11
-13.28853323330413
 21
-16.53561992083963
 31
0.0
  0
LINE
  5
3D1
330
1F
100
AcDbEntity
  8
0
100
AcDbLine
 10
-10.27707478076473
 20
15.55745958676263
 30
0.0
 11
-10.64986695707714
 21
15.27140608897072
 31
0.0
  0
LINE
  5
3D2
330
1F
100
AcDbEntity
  8
0
100
AcDbLine
 10
-48.18244611315128
 20
-23.65827052234586
 30
0.0
 11
-48.54880985347904
 21
-23.36402875085209
 31
0.0
  0
LINE
  5
3D3
330
1F
100
AcDbEntity
  8
0
100
AcDbLine
 10
-47.75241054022551
 20
-23.84766433517289
 30
0.0
 11
-48.18244611315128
 21
-23.65827052234586
 31
0.0
  0
LINE
  5
3D4
330
1F
100
AcDbEntity
  8
0
100
AcDbLine
 10
-47.28800934832923
 20
-23.91930331397712
 30
0.0
 11
-47.75241054022551
 21
-23.84766433517289
 31
0.0
  0
LINE
  5
3D5
330
1F
100
AcDbEntity
  8
0
100
AcDbLine
 10
-90.69186506646753
 20
14.3302518910939
 30
0.0
 11
-90.2777546274323
 21
14.38477056467001
 31
0.0
  0
LINE
  5
3D6
330
1F
100
AcDbEntity
  8
0
100
AcDbLine
 10
33.00176507320005
 20
-79.18549817283666
 30
0.0
 11
32.74294604880303
 21
-79.21957234382172
 31
0.0
  0
LINE
  5
3D7
330
1F
100
AcDbEntity
  8
0
100
AcDbLine
 10
27.34294648080315
 20
-79.08559775832413
 30
0.0
 11
27.58412741640602
 21
-79.18549817283666
 31
0.0
  0
LINE
  5
3D8
330
1F
100
AcDbEntity
  8
0
100
AcDbLine
 10
27.13583971618516
 20
-78.92667914843965
 30
0.0
 11
27.34294648080315
 21
-79.08559775832413
 31
0.0
  0
LINE
  5
3D9
330
1F
100
AcDbEntity
  8
0
100
AcDbLine
 10
26.97692110630068
 20
-78.71957238382166
 30
0.0
 11
27.13583971618516
 21
-78.92667914843965
 31
0.0
  0
LINE
  5
3DA
330
1F
100
AcDbEntity
  8
0
100
AcDbLine
 10
10.64295281291696
 20
-78.21957242382167
 30
0.0
 11
10.64295281291696
 21
-74.21957274382166
 31
0.0
  0
LINE
  5
3DB
330
1F
100
AcDbEntity
  8
0
100
AcDbLine
 10
-60.1918675064674
 20
0.4302530030940813
 30
0.0
 11
-60.70298007124239
 21
4.312538369049173
 31
0.0
  0
LINE
  5
3DC
330
1F
100
AcDbEntity
  8
0
100
AcDbLine
 10
-60.70298007124239
 20
4.312538369049173
 30
0.0
 11
-62.20148628893119
 21
7.930252403094139
 31
0.0
  0
LINE
  5
3DD
330
1F
100
AcDbEntity
  8
0
100
AcDbLine
 10
33.70887179781793
 20
-78.4783914482187
 30
0.0
 11
33.60897138330558
 21
-78.71957238382166
 31
0.0
  0
LINE
  5
3DE
330
1F
100
AcDbEntity
  8
0
100
AcDbLine
 10
33.60897138330558
 20
-78.71957238382166
 30
0.0
 11
33.45005277342109
 21
-78.92667914843965
 31
0.0
  0
LINE
  5
3DF
330
1F
100
AcDbEntity
  8
0
100
AcDbLine
 10
26.84294652080307
 20
-74.21957274382166
 30
0.0
 11
26.84294652080307
 21
-78.21957242382167
 31
0.0
  0
LINE
  5
3E0
330
1F
100
AcDbEntity
  8
0
100
AcDbLine
 10
10.64295281291696
 20
-74.21957274382166
 30
0.0
 11
26.84294652080307
 21
-74.21957274382166
 31
0.0
  0
LINE
  5
3E1
330
1F
100
AcDbEntity
  8
0
100
AcDbLine
 10
-45.49957372251673
 20
22.45300800797741
 30
0.0
 11
-45.66973314291771
 21
22.01500528884474
 31
0.0
  0
LINE
  5
3E2
330
1F
100
AcDbEntity
  8
0
100
AcDbLine
 10
-10.27707478076473
 20
-14.79695357261267
 30
0.0
 11
-9.991021282972905
 21
-15.16974574892508
 31
0.0
  0
LINE
  5
3E3
330
1F
100
AcDbEntity
  8
0
100
AcDbLine
 10
-10.64986695707714
 20
-14.51090007482075
 30
0.0
 11
-10.27707478076473
 21
-14.79695357261267
 31
0.0
  0
LINE
  5
3E4
330
1F
100
AcDbEntity
  8
0
100
AcDbLine
 10
-45.44857578928344
 20
22.92012664507578
 30
0.0
 11
-45.49957372251673
 21
22.45300800797741
 31
0.0
  0
LINE
  5
3E5
330
1F
100
AcDbEntity
  8
0
100
AcDbLine
 10
-45.52021476808934
 20
23.38452783697179
 30
0.0
 11
-45.44857578928344
 21
22.92012664507578
 31
0.0
  0
LINE
  5
3E6
330
1F
100
AcDbEntity
  8
0
100
AcDbLine
 10
-45.70960858091809
 20
23.81456340989683
 30
0.0
 11
-45.52021476808934
 21
23.38452783697179
 31
0.0
  0
LINE
  5
3E7
330
1F
100
AcDbEntity
  8
0
100
AcDbLine
 10
-90.27775462743212
 20
-16.61522695533009
 30
0.0
 11
-89.89186513046735
 21
-16.4553862921099
 31
0.0
  0
LINE
  5
3E8
330
1F
100
AcDbEntity
  8
0
100
AcDbLine
 10
-89.89186513046735
 20
-16.4553862921099
 30
0.0
 11
-89.56049430707867
 21
-16.20111651629496
 31
0.0
  0
LINE
  5
3E9
330
1F
100
AcDbEntity
  8
0
100
AcDbLine
 10
-89.56049430707867
 20
-16.20111651629496
 30
0.0
 11
-89.30622453126347
 21
-15.86974569290593
 31
0.0
  0
LINE
  5
3EA
330
1F
100
AcDbEntity
  8
0
100
AcDbLine
 10
-67.27750758567093
 20
-14.26974582090592
 30
0.0
 11
-67.43734824889113
 21
-14.65563531787079
 31
0.0
  0
LINE
  5
3EB
330
1F
100
AcDbEntity
  8
0
100
AcDbLine
 10
-67.69186690646738
 20
13.42063302063023
 30
0.0
 11
-71.30958094051235
 21
14.91913923831921
 31
0.0
  0
LINE
  5
3EC
330
1F
100
AcDbEntity
  8
0
100
AcDbLine
 10
-58.14638634804327
 20
16.34436220212931
 30
0.0
 11
-58.30622701126327
 21
16.73025169909409
 31
0.0
  0
LINE
  5
3ED
330
1F
100
AcDbEntity
  8
0
100
AcDbLine
 10
-58.30622701126327
 20
16.73025169909409
 30
0.0
 11
-58.56049678707812
 21
17.06162252248276
 31
0.0
  0
LINE
  5
3EE
330
1F
100
AcDbEntity
  8
0
100
AcDbLine
 10
-75.19186630646735
 20
-14.56974579690603
 30
0.0
 11
-71.30958094051235
 21
-14.05863323213104
 31
0.0
  0
LINE
  5
3EF
330
1F
100
AcDbEntity
  8
0
100
AcDbLine
 10
-98.4918644424676
 20
15.9302517630939
 30
0.0
 11
-98.43734576889149
 21
15.51614132405887
 31
0.0
  0
LINE
  5
3F0
330
1F
100
AcDbEntity
  8
0
100
AcDbLine
 10
-98.43734576889149
 20
15.51614132405887
 30
0.0
 11
-98.2775051056715
 21
15.13025182709408
 31
0.0
  0
LINE
  5
3F1
330
1F
100
AcDbEntity
  8
0
100
AcDbLine
 10
-58.14638634804327
 20
15.51614132405869
 30
0.0
 11
-58.09186767446715
 21
15.9302517630939
 31
0.0
  0
LINE
  5
3F2
330
1F
100
AcDbEntity
  8
0
100
AcDbLine
 10
-58.09186767446715
 20
15.9302517630939
 30
0.0
 11
-58.14638634804327
 21
16.34436220212931
 31
0.0
  0
LINE
  5
3F3
330
1F
100
AcDbEntity
  8
0
100
AcDbLine
 10
-89.30622453126382
 20
15.1302518270939
 30
0.0
 11
-89.14638386804327
 21
15.51614132405869
 31
0.0
  0
LINE
  5
3F4
330
1F
100
AcDbEntity
  8
0
100
AcDbLine
 10
-97.30597500950263
 20
-13.52426455848212
 30
0.0
 11
-97.69186450646743
 21
-13.68410522170231
 31
0.0
  0
LINE
  5
3F5
330
1F
100
AcDbEntity
  8
0
100
AcDbLine
 10
-58.89186761046715
 20
14.5446112278902
 30
0.0
 11
-58.56049678707831
 21
14.79888100370523
 31
0.0
  0
LINE
  5
3F6
330
1F
100
AcDbEntity
  8
0
100
AcDbLine
 10
-58.56049678707831
 20
14.79888100370523
 30
0.0
 11
-58.30622701126327
 21
15.13025182709408
 31
0.0
  0
LINE
  5
3F7
330
1F
100
AcDbEntity
  8
0
100
AcDbLine
 10
-58.30622701126327
 20
15.13025182709408
 30
0.0
 11
-58.14638634804327
 21
15.51614132405869
 31
0.0
  0
LINE
  5
3F8
330
1F
100
AcDbEntity
  8
0
100
AcDbLine
 10
-3.549867525077444
 20
40.33024981107534
 30
0.0
 11
-105.8481292223359
 21
40.33024981107525
 31
0.0
  0
LINE
  5
3F9
330
1F
100
AcDbEntity
  8
0
100
AcDbLine
 10
27.58412741640602
 20
-79.18549817283666
 30
0.0
 11
27.84294644080322
 21
-79.21957234382172
 31
0.0
  0
LINE
  5
3FA
330
1F
100
AcDbEntity
  8
0
100
AcDbLine
 10
4.774489124471041
 20
-79.21957234382172
 30
0.0
 11
4.515670100073849
 21
-79.18549817283666
 31
0.0
  0
LINE
  5
3FB
330
1F
100
AcDbEntity
  8
0
100
AcDbLine
 10
9.901771917314013
 20
-79.18549817283666
 30
0.0
 11
9.642952892917002
 21
-79.21957234382172
 31
0.0
  0
LINE
  5
3FC
330
1F
100
AcDbEntity
  8
0
100
AcDbLine
 10
9.515669700074007
 20
-61.7536479148067
 30
0.0
 11
9.774488724471018
 21
-61.71957374382162
 31
0.0
  0
LINE
  5
3FD
330
1F
100
AcDbEntity
  8
0
100
AcDbLine
 10
9.774488724471018
 20
-61.71957374382162
 30
0.0
 11
27.74294644880288
 21
-61.71957374382162
 31
0.0
  0
LINE
  5
3FE
330
1F
100
AcDbEntity
  8
0
100
AcDbLine
 10
33.24294600880311
 20
-79.08559775832413
 30
0.0
 11
33.00176507320005
 21
-79.18549817283666
 31
0.0
  0
LINE
  5
3FF
330
1F
100
AcDbEntity
  8
0
100
AcDbLine
 10
3.774489204470901
 20
-66.7195733438217
 30
0.0
 11
3.774489204470901
 21
-78.21957242382167
 31
0.0
  0
LINE
  5
400
330
1F
100
AcDbEntity
  8
0
100
AcDbLine
 10
8.774488804470879
 20
-66.7195733438217
 30
0.0
 11
3.774489204470901
 21
-66.7195733438217
 31
0.0
  0
LINE
  5
401
330
1F
100
AcDbEntity
  8
0
100
AcDbLine
 10
10.35005961753506
 20
-78.92667914843965
 30
0.0
 11
10.14295285291707
 21
-79.08559775832413
 31
0.0
  0
LINE
  5
402
330
1F
100
AcDbEntity
  8
0
100
AcDbLine
 10
10.50897822741954
 20
-78.71957238382166
 30
0.0
 11
10.35005961753506
 21
-78.92667914843965
 31
0.0
  0
LINE
  5
403
330
1F
100
AcDbEntity
  8
0
100
AcDbLine
 10
10.60887864193189
 20
-78.4783914482187
 30
0.0
 11
10.50897822741954
 21
-78.71957238382166
 31
0.0
  0
LINE
  5
404
330
1F
100
AcDbEntity
  8
0
100
AcDbLine
 10
10.64295281291696
 20
-78.21957242382167
 30
0.0
 11
10.60887864193189
 21
-78.4783914482187
 31
0.0
  0
LINE
  5
405
330
1F
100
AcDbEntity
  8
0
100
AcDbLine
 10
26.84294652080307
 20
-78.21957242382167
 30
0.0
 11
26.87702069178815
 21
-78.4783914482187
 31
0.0
  0
LINE
  5
406
330
1F
100
AcDbEntity
  8
0
100
AcDbLine
 10
26.87702069178815
 20
-78.4783914482187
 30
0.0
 11
26.97692110630068
 21
-78.71957238382166
 31
0.0
  0
LINE
  5
407
330
1F
100
AcDbEntity
  8
0
100
AcDbLine
 10
33.742945968803
 20
-78.21957242382167
 30
0.0
 11
33.742945968803
 21
-66.7195733438217
 31
0.0
  0
LINE
  5
408
330
1F
100
AcDbEntity
  8
0
100
AcDbLine
 10
-12.82265898938951
 20
15.55745958676263
 30
0.0
 11
-13.10871248718134
 21
15.93025176307505
 31
0.0
  0
LINE
  5
409
330
1F
100
AcDbEntity
  8
0
100
AcDbLine
 10
-12.4498668130771
 20
15.27140608897072
 30
0.0
 11
-12.82265898938951
 21
15.55745958676263
 31
0.0
  0
LINE
  5
40A
330
1F
100
AcDbEntity
  8
0
100
AcDbLine
 10
-11.0839926411625
 20
-14.33107932869809
 30
0.0
 11
-10.64986695707714
 21
-14.51090007482075
 31
0.0
  0
LINE
  5
40B
330
1F
100
AcDbEntity
  8
0
100
AcDbLine
 10
-11.0839926411625
 20
-17.80841202515203
 30
0.0
 11
-11.54986688507712
 21
-17.86974553292502
 31
0.0
  0
LINE
  5
40C
330
1F
100
AcDbEntity
  8
0
100
AcDbLine
 10
-9.991021282972905
 20
-16.96974560492504
 30
0.0
 11
-10.27707478076473
 21
-17.34253778123745
 31
0.0
  0
LINE
  5
40D
330
1F
100
AcDbEntity
  8
0
100
AcDbLine
 10
-13.28853323330413
 20
16.36437744716041
 30
0.0
 11
-13.34986674107708
 21
16.83025169107503
 31
0.0
  0
LINE
  5
40E
330
1F
100
AcDbEntity
  8
0
100
AcDbLine
 10
-98.04812984633585
 20
-32.96974432490454
 30
0.0
 11
-87.6481306783358
 21
-32.96974432490445
 31
0.0
  0
LINE
  5
40F
330
1F
100
AcDbEntity
  8
0
100
AcDbLine
 10
-58.09186767446715
 20
-15.06974575690601
 30
0.0
 11
-58.14638634804327
 21
-14.65563531787116
 31
0.0
  0
LINE
  5
410
330
1F
100
AcDbEntity
  8
0
100
AcDbLine
 10
-58.14638634804327
 20
-14.65563531787116
 30
0.0
 11
-58.30622701126345
 21
-14.26974582090619
 31
0.0
  0
LINE
  5
411
330
1F
100
AcDbEntity
  8
0
100
AcDbLine
 10
-58.30622701126345
 20
-14.26974582090619
 30
0.0
 11
-58.56049678707848
 21
-13.93837499751725
 31
0.0
  0
LINE
  5
412
330
1F
100
AcDbEntity
  8
0
100
AcDbLine
 10
-12.82265898938951
 20
18.10304379538742
 30
0.0
 11
-12.4498668130771
 21
18.38909729317933
 31
0.0
  0
LINE
  5
413
330
1F
100
AcDbEntity
  8
0
100
AcDbLine
 10
-10.72840252137884
 20
-65.64155535534603
 30
0.0
 11
-15.92455452839338
 21
-65.64155535534603
 31
0.0
  0
LINE
  5
414
330
1F
100
AcDbEntity
  8
0
100
AcDbLine
 10
-45.94745796719202
 20
-20.87546163499761
 30
0.0
 11
-45.66973314292078
 21
-21.25449927468827
 31
0.0
  0
LINE
  5
415
330
1F
100
AcDbEntity
  8
0
100
AcDbLine
 10
-46.31382170751979
 20
-20.58121986350384
 30
0.0
 11
-45.94745796719202
 21
-20.87546163499761
 31
0.0
  0
LINE
  5
416
330
1F
100
AcDbEntity
  8
0
100
AcDbLine
 10
-9.991021282972905
 20
15.93025176307505
 30
0.0
 11
-10.27707478076473
 21
15.55745958676263
 31
0.0
  0
LINE
  5
417
330
1F
100
AcDbEntity
  8
0
100
AcDbLine
 10
-9.811200536850105
 20
16.36437744716041
 30
0.0
 11
-9.991021282972905
 21
15.93025176307505
 31
0.0
  0
LINE
  5
418
330
1F
100
AcDbEntity
  8
0
100
AcDbLine
 10
-48.82653467775028
 20
-22.98499111116142
 30
0.0
 11
-48.99669409815271
 21
-22.54698839202938
 31
0.0
  0
LINE
  5
419
330
1F
100
AcDbEntity
  8
0
100
AcDbLine
 10
-48.54880985347904
 20
-23.36402875085209
 30
0.0
 11
-48.82653467775028
 21
-22.98499111116142
 31
0.0
  0
LINE
  5
41A
330
1F
100
AcDbEntity
  8
0
100
AcDbLine
 10
-105.8481292223359
 20
-39.56974379692533
 30
0.0
 11
-3.549867525077444
 21
-39.56974379692528
 31
0.0
  0
LINE
  5
41B
330
1F
100
AcDbEntity
  8
0
100
AcDbLine
 10
-21.99713785942625
 20
19.13025150707497
 30
0.0
 11
-42.76559535975839
 21
19.13025150707533
 31
0.0
  0
LINE
  5
41C
330
1F
100
AcDbEntity
  8
0
100
AcDbLine
 10
-45.66973314291771
 20
22.01500528884474
 30
0.0
 11
-45.94745796718751
 21
21.63596764915299
 31
0.0
  0
LINE
  5
41D
330
1F
100
AcDbEntity
  8
0
100
AcDbLine
 10
-45.94745796718751
 20
21.63596764915299
 30
0.0
 11
-46.31382170751419
 21
21.34172587765788
 31
0.0
  0
LINE
  5
41E
330
1F
100
AcDbEntity
  8
0
100
AcDbLine
 10
-48.54880985348355
 20
24.12453476499782
 30
0.0
 11
-48.18244611315706
 21
24.41877653649294
 31
0.0
  0
LINE
  5
41F
330
1F
100
AcDbEntity
  8
0
100
AcDbLine
 10
-48.18244611315706
 20
24.41877653649294
 30
0.0
 11
-47.75241054023183
 21
24.60817034932151
 31
0.0
  0
LINE
  5
420
330
1F
100
AcDbEntity
  8
0
100
AcDbLine
 10
-47.75241054023183
 20
24.60817034932151
 30
0.0
 11
-47.28800934833591
 21
24.6798093281275
 31
0.0
  0
LINE
  5
421
330
1F
100
AcDbEntity
  8
0
100
AcDbLine
 10
-47.28800934833591
 20
24.6798093281275
 30
0.0
 11
-46.82089071123755
 21
24.62881139489411
 31
0.0
  0
LINE
  5
422
330
1F
100
AcDbEntity
  8
0
100
AcDbLine
 10
-46.82089071123755
 20
24.62881139489411
 30
0.0
 11
-46.38288799210478
 21
24.45865197449331
 31
0.0
  0
LINE
  5
423
330
1F
100
AcDbEntity
  8
0
100
AcDbLine
 10
-9.811200536850105
 20
-15.60387143301048
 30
0.0
 11
-9.749867029077157
 21
-16.06974567692506
 31
0.0
  0
LINE
  5
424
330
1F
100
AcDbEntity
  8
0
100
AcDbLine
 10
-9.749867029077157
 20
-16.06974567692506
 30
0.0
 11
-9.811200536850105
 21
-16.53561992083963
 31
0.0
  0
LINE
  5
425
330
1F
100
AcDbEntity
  8
0
100
AcDbLine
 10
-9.811200536850105
 20
-16.53561992083963
 30
0.0
 11
-9.991021282972905
 21
-16.96974560492504
 31
0.0
  0
LINE
  5
426
330
1F
100
AcDbEntity
  8
0
100
AcDbLine
 10
-10.27707478076473
 20
-17.34253778123745
 30
0.0
 11
-10.64986695707714
 21
-17.62859127902936
 31
0.0
  0
LINE
  5
427
330
1F
100
AcDbEntity
  8
0
100
AcDbLine
 10
-10.64986695707714
 20
-17.62859127902936
 30
0.0
 11
-11.0839926411625
 21
-17.80841202515203
 31
0.0
  0
LINE
  5
428
330
1F
100
AcDbEntity
  8
0
100
AcDbLine
 10
-11.54986688507712
 20
-17.86974553292502
 30
0.0
 11
-12.01574112899174
 21
-17.80841202515203
 31
0.0
  0
LINE
  5
429
330
1F
100
AcDbEntity
  8
0
100
AcDbLine
 10
-12.01574112899174
 20
-17.80841202515203
 30
0.0
 11
-12.4498668130771
 21
-17.62859127902936
 31
0.0
  0
LINE
  5
42A
330
1F
100
AcDbEntity
  8
0
100
AcDbLine
 10
-96.89186457046742
 20
-13.46974588490637
 30
0.0
 11
-97.30597500950263
 21
-13.52426455848212
 31
0.0
  0
LINE
  5
42B
330
1F
100
AcDbEntity
  8
0
100
AcDbLine
 10
-96.89186457046742
 20
-13.46974588490637
 30
0.0
 11
-90.69186506646734
 21
-13.46974588490637
 31
0.0
  0
LINE
  5
42C
330
1F
100
AcDbEntity
  8
0
100
AcDbLine
 10
-90.27775462743212
 20
-13.5242645584823
 30
0.0
 11
-90.69186506646734
 21
-13.46974588490637
 31
0.0
  0
LINE
  5
42D
330
1F
100
AcDbEntity
  8
0
100
AcDbLine
 10
-89.89186513046735
 20
-13.68410522170231
 30
0.0
 11
-90.27775462743212
 21
-13.5242645584823
 31
0.0
  0
LINE
  5
42E
330
1F
100
AcDbEntity
  8
0
100
AcDbLine
 10
-58.89186761046733
 20
-13.68410522170213
 30
0.0
 11
-59.27775710743194
 21
-13.5242645584823
 31
0.0
  0
LINE
  5
42F
330
1F
100
AcDbEntity
  8
0
100
AcDbLine
 10
-58.56049678707848
 20
-13.93837499751725
 30
0.0
 11
-58.89186761046733
 21
-13.68410522170213
 31
0.0
  0
LINE
  5
430
330
1F
100
AcDbEntity
  8
0
100
AcDbLine
 10
-94.38224582800375
 20
-7.069746396905976
 30
0.0
 11
-91.99846667973773
 21
-10.17634786617614
 31
0.0
  0
LINE
  5
431
330
1F
100
AcDbEntity
  8
0
100
AcDbLine
 10
-95.88075204569273
 20
-3.45203236286092
 30
0.0
 11
-94.38224582800375
 21
-7.069746396905976
 31
0.0
  0
LINE
  5
432
330
1F
100
AcDbEntity
  8
0
100
AcDbLine
 10
-96.3918646104677
 20
0.4302530030940813
 30
0.0
 11
-95.88075204569273
 21
-3.45203236286092
 31
0.0
  0
LINE
  5
433
330
1F
100
AcDbEntity
  8
0
100
AcDbLine
 10
-88.89186521046756
 20
13.42063302063023
 30
0.0
 11
-91.99846667973773
 21
11.03685387236421
 31
0.0
  0
LINE
  5
434
330
1F
100
AcDbEntity
  8
0
100
AcDbLine
 10
-97.69186450646743
 20
17.31589229829779
 30
0.0
 11
-98.02323532985628
 21
17.06162252248276
 31
0.0
  0
LINE
  5
435
330
1F
100
AcDbEntity
  8
0
100
AcDbLine
 10
-97.30597500950263
 20
17.47573296151816
 30
0.0
 11
-97.69186450646743
 21
17.31589229829779
 31
0.0
  0
LINE
  5
436
330
1F
100
AcDbEntity
  8
0
100
AcDbLine
 10
-96.8918645704676
 20
17.53025163509427
 30
0.0
 11
-97.30597500950263
 21
17.47573296151816
 31
0.0
  0
LINE
  5
437
330
1F
100
AcDbEntity
  8
0
100
AcDbLine
 10
-96.8918645704676
 20
17.53025163509427
 30
0.0
 11
-90.69186506646753
 21
17.53025163509427
 31
0.0
  0
LINE
  5
438
330
1F
100
AcDbEntity
  8
0
100
AcDbLine
 10
-90.27775462743195
 20
17.47573296151816
 30
0.0
 11
-90.69186506646753
 21
17.53025163509427
 31
0.0
  0
LINE
  5
439
330
1F
100
AcDbEntity
  8
0
100
AcDbLine
 10
-89.09186519446735
 20
15.9302517630939
 30
0.0
 11
-89.14638386804327
 21
16.34436220212913
 31
0.0
  0
LINE
  5
43A
330
1F
100
AcDbEntity
  8
0
100
AcDbLine
 10
-89.14638386804327
 20
15.51614132405869
 30
0.0
 11
-89.09186519446735
 21
15.9302517630939
 31
0.0
  0
LINE
  5
43B
330
1F
100
AcDbEntity
  8
0
100
AcDbLine
 10
-10.72840252137902
 20
-74.64155463534608
 30
0.0
 11
-8.130326517871758
 21
-70.14155499534603
 31
0.0
  0
LINE
  5
43C
330
1F
100
AcDbEntity
  8
0
100
AcDbLine
 10
-47.00811361706373
 20
55.07568191943121
 30
0.0
 11
-47.06944712483686
 21
55.54155616334583
 31
0.0
  0
LINE
  5
43D
330
1F
100
AcDbEntity
  8
0
100
AcDbLine
 10
-44.80357302492209
 20
53.80288981511863
 30
0.0
 11
-45.26944726883671
 21
53.74155630734568
 31
0.0
  0
LINE
  5
43E
330
1F
100
AcDbEntity
  8
0
100
AcDbLine
 10
-47.00811361706373
 20
56.00743040726045
 30
0.0
 11
-46.82829287094111
 21
56.44155609134581
 31
0.0
  0
LINE
  5
43F
330
1F
100
AcDbEntity
  8
0
100
AcDbLine
 10
-44.36944734083674
 20
53.98271056124143
 30
0.0
 11
-44.80357302492209
 21
53.80288981511863
 31
0.0
  0
LINE
  5
440
330
1F
100
AcDbEntity
  8
0
100
AcDbLine
 10
-45.73532151275133
 20
53.80288981511863
 30
0.0
 11
-46.1694471968367
 21
53.98271056124143
 31
0.0
  0
LINE
  5
441
330
1F
100
AcDbEntity
  8
0
100
AcDbLine
 10
51.59428762742771
 20
31.92676179076961
 30
0.0
 11
51.59035376818867
 21
-31.17401980907202
 31
0.0
  0
LINE
  5
442
330
1F
100
AcDbEntity
  8
0
100
AcDbLine
 10
-3.814209121802533
 20
-65.64548859455273
 30
0.0
 11
-4.010745800148276
 21
-65.64533398933878
 31
0.0
  0
LINE
  5
443
330
1F
100
AcDbEntity
  8
0
100
AcDbLine
 10
91.19970699366334
 20
0.3767643147696781
 30
0.0
 11
91.19601457817016
 21
0.3487176346014078
 31
0.0
  0
LINE
  5
444
330
1F
100
AcDbEntity
  8
0
100
AcDbLine
 10
-4.010745800148095
 20
-59.04533239285914
 30
0.0
 11
-3.809017246049671
 21
-59.04549116464217
 31
0.0
  0
LINE
  5
445
330
1F
100
AcDbEntity
  8
0
100
AcDbLine
 10
91.19601457817016
 20
0.4048109949379484
 30
0.0
 11
91.19970699366334
 21
0.3767643147696781
 31
0.0
  0
ENDSEC
  0
SECTION
  2
OBJECTS
  0
DICTIONARY
  5
C
330
0
100
AcDbDictionary
281
     1
  3
ACAD_GROUP
350
D
  3
ACAD_LAYOUT
350
1A
  3
ACAD_MATERIAL
350
3B
  3
ACAD_MLEADERSTYLE
350
447
  3
ACAD_MLINESTYLE
350
17
  3
ACAD_PLOTSETTINGS
350
19
  3
ACAD_PLOTSTYLENAME
350
E
  3
ACAD_TABLESTYLE
350
446
  3
ACAD_VISUALSTYLE
350
2A
  0
DICTIONARY
  5
D
102
{ACAD_REACTORS
330
C
102
}
330
C
100
AcDbDictionary
281
     1
  0
DICTIONARY
  5
1A
102
{ACAD_REACTORS
330
C
102
}
330
C
100
AcDbDictionary
281
     1
  3
Layout1
350
1E
  3
Layout2
350
26
  3
Model
350
22
  0
DICTIONARY
  5
3B
102
{ACAD_REACTORS
330
C
102
}
330
C
100
AcDbDictionary
281
     1
  3
ByBlock
350
3D
  3
ByLayer
350
3C
  3
Global
350
3E
  0
DICTIONARY
  5
447
102
{ACAD_REACTORS
330
C
102
}
330
C
100
AcDbDictionary
281
     1
  0
DICTIONARY
  5
17
102
{ACAD_REACTORS
330
C
102
}
330
C
100
AcDbDictionary
281
     1
  3
Standard
350
18
  0
DICTIONARY
  5
19
102
{ACAD_REACTORS
330
C
102
}
330
C
100
AcDbDictionary
281
     1
  0
ACDBDICTIONARYWDFLT
  5
E
102
{ACAD_REACTORS
330
C
102
}
330
C
100
AcDbDictionary
281
     1
  3
Normal
350
F
100
AcDbDictionaryWithDefault
340
F
  0
DICTIONARY
  5
446
102
{ACAD_REACTORS
330
C
102
}
330
C
100
AcDbDictionary
281
     1
  0
DICTIONARY
  5
2A
102
{ACAD_REACTORS
330
C
102
}
330
C
100
AcDbDictionary
281
     1
  3
2dWireframe
350
2F
  3
3D Hidden
350
31
  3
3dWireframe
350
30
  3
Basic
350
32
  3
Brighten
350
36
  3
ColorChange
350
3A
  3
Conceptual
350
34
  3
Dim
350
35
  3
Facepattern
350
39
  3
Flat
350
2B
  3
FlatWithEdges
350
2C
  3
Gouraud
350
2D
  3
GouraudWithEdges
350
2E
  3
Linepattern
350
38
  3
Realistic
350
33
  3
Thicken
350
37
  0
LAYOUT
  5
1E
102
{ACAD_REACTORS
330
1A
102
}
330
1A
100
AcDbPlotSettings
  1

  2
none_device
  4

  6

 40
0.0
 41
0.0
 42
0.0
 43
0.0
 44
0.0
 45
0.0
 46
0.0
 47
0.0
 48
0.0
 49
0.0
140
0.0
141
0.0
142
1.0
143
1.0
 70
   688
 72
     0
 73
     0
 74
     5
  7

 75
    16
 76
     0
 77
     2
 78
   300
147
1.0
148
0.0
149
0.0
100
AcDbLayout
  1
Layout1
 70
     1
 71
     1
 10
0.0
 20
0.0
 11
12.0
 21
9.0
 12
0.0
 22
0.0
 32
0.0
 14
1.000000000000000E+20
 24
1.000000000000000E+20
 34
1.000000000000000E+20
 15
-1.000000000000000E+20
 25
-1.000000000000000E+20
 35
-1.000000000000000E+20
146
0.0
 13
0.0
 23
0.0
 33
0.0
 16
1.0
 26
0.0
 36
0.0
 17
0.0
 27
1.0
 37
0.0
 76
     0
330
1B
  0
LAYOUT
  5
26
102
{ACAD_REACTORS
330
1A
102
}
330
1A
100
AcDbPlotSettings
  1

  2
none_device
  4

  6

 40
0.0
 41
0.0
 42
0.0
 43
0.0
 44
0.0
 45
0.0
 46
0.0
 47
0.0
 48
0.0
 49
0.0
140
0.0
141
0.0
142
1.0
143
1.0
 70
   688
 72
     0
 73
     0
 74
     5
  7

 75
    16
 76
     0
 77
     2
 78
   300
147
1.0
148
0.0
149
0.0
100
AcDbLayout
  1
Layout2
 70
     1
 71
     2
 10
0.0
 20
0.0
 11
0.0
 21
0.0
 12
0.0
 22
0.0
 32
0.0
 14
0.0
 24
0.0
 34
0.0
 15
0.0
 25
0.0
 35
0.0
146
0.0
 13
0.0
 23
0.0
 33
0.0
 16
1.0
 26
0.0
 36
0.0
 17
0.0
 27
1.0
 37
0.0
 76
     0
330
23
  0
LAYOUT
  5
22
102
{ACAD_REACTORS
330
1A
102
}
330
1A
100
AcDbPlotSettings
  1

  2
none_device
  4

  6

 40
0.0
 41
0.0
 42
0.0
 43
0.0
 44
0.0
 45
0.0
 46
0.0
 47
0.0
 48
0.0
 49
0.0
140
0.0
141
0.0
142
1.0
143
1.0
 70
  1712
 72
     0
 73
     0
 74
     0
  7

 75
     0
 76
     0
 77
     2
 78
   300
147
1.0
148
0.0
149
0.0
100
AcDbLayout
  1
Model
 70
     1
 71
     0
 10
0.0
 20
0.0
 11
12.0
 21
9.0
 12
0.0
 22
0.0
 32
0.0
 14
1.000000000000000E+20
 24
1.000000000000000E+20
 34
1.000000000000000E+20
 15
-1.000000000000000E+20
 25
-1.000000000000000E+20
 35
-1.000000000000000E+20
146
0.0
 13
0.0
 23
0.0
 33
0.0
 16
1.0
 26
0.0
 36
0.0
 17
0.0
 27
1.0
 37
0.0
 76
     0
330
1F
331
29
  0
MATERIAL
  5
3D
102
{ACAD_REACTORS
330
3B
102
}
330
3B
100
AcDbMaterial
  1
ByBlock
 72
     1
 94
      127
  0
MATERIAL
  5
3C
102
{ACAD_REACTORS
330
3B
102
}
330
3B
100
AcDbMaterial
  1
ByLayer
 72
     1
 94
      127
  0
MATERIAL
  5
3E
102
{ACAD_REACTORS
330
3B
102
}
330
3B
100
AcDbMaterial
  1
Global
 72
     1
 94
      127
  0
MLINESTYLE
  5
18
102
{ACAD_REACTORS
330
17
102
}
330
17
100
AcDbMlineStyle
  2
Standard
 70
     0
  3

 62
   256
 51
90.0
 52
90.0
 71
     2
 49
0.5
 62
   256
  6
BYLAYER
 49
-0.5
 62
   256
  6
BYLAYER
  0
ACDBPLACEHOLDER
  5
F
102
{ACAD_REACTORS
330
E
102
}
330
E
  0
VISUALSTYLE
  5
2F
102
{ACAD_REACTORS
330
2A
102
}
330
2A
100
AcDbVisualStyle
  2
2dWireframe
 70
     4
177
     2
291
     0
 71
     0
176
     1
 72
     2
176
     1
 73
     0
176
     1
 90
        0
176
     1
 40
-0.6
176
     1
 41
-30.0
176
     1
 62
     5
 63
     7
421
 16777215
176
     1
 74
     1
176
     1
 91
        4
176
     1
 64
     7
176
     1
 65
   257
176
     1
 75
     1
176
     1
175
     1
176
     1
 42
1.0
176
     1
 92
        0
176
     1
 66
   257
176
     1
 43
1.0
176
     1
 76
     1
176
     1
 77
     6
176
     1
 78
     2
176
     1
 67
     7
176
     1
 79
     5
176
     1
170
     0
176
     1
171
     0
176
     1
290
     0
176
     1
 93
        1
176
     1
 44
0.0
176
     1
173
     0
176
     1
  0
VISUALSTYLE
  5
31
102
{ACAD_REACTORS
330
2A
102
}
330
2A
100
AcDbVisualStyle
  2
3D Hidden
 70
     6
177
     2
291
     0
 71
     1
176
     1
 72
     2
176
     1
 73
     2
176
     1
 90
        0
176
     1
 40
-0.6
176
     1
 41
-30.0
176
     1
 62
     5
 63
     7
421
 16777215
176
     1
 74
     2
176
     1
 91
        2
176
     1
 64
     7
176
     1
 65
   257
176
     1
 75
     2
176
     1
175
     1
176
     1
 42
40.0
176
     1
 92
        0
176
     1
 66
   257
176
     1
 43
1.0
176
     1
 76
     1
176
     1
 77
     6
176
     1
 78
     2
176
     1
 67
     7
176
     1
 79
     3
176
     1
170
     0
176
     1
171
     0
176
     1
290
     0
176
     1
 93
        1
176
     1
 44
0.0
176
     1
173
     0
176
     1
  0
VISUALSTYLE
  5
30
102
{ACAD_REACTORS
330
2A
102
}
330
2A
100
AcDbVisualStyle
  2
3dWireframe
 70
     5
177
     2
291
     0
 71
     0
176
     1
 72
     2
176
     1
 73
     0
176
     1
 90
        0
176
     1
 40
-0.6
176
     1
 41
-30.0
176
     1
 62
     5
 63
     7
421
 16777215
176
     1
 74
     1
176
     1
 91
        4
176
     1
 64
     7
176
     1
 65
   257
176
     1
 75
     1
176
     1
175
     1
176
     1
 42
1.0
176
     1
 92
        0
176
     1
 66
   257
176
     1
 43
1.0
176
     1
 76
     1
176
     1
 77
     6
176
     1
 78
     2
176
     1
 67
     7
176
     1
 79
     5
176
     1
170
     0
176
     1
171
     0
176
     1
290
     0
176
     1
 93
        1
176
     1
 44
0.0
176
     1
173
     0
176
     1
  0
VISUALSTYLE
  5
32
102
{ACAD_REACTORS
330
2A
102
}
330
2A
100
AcDbVisualStyle
  2
Basic
 70
     7
177
     2
291
     1
 71
     1
176
     1
 72
     0
176
     1
 73
     1
176
     1
 90
        0
176
     1
 40
-0.6
176
     1
 41
-30.0
176
     1
 62
     5
 63
     7
421
 16777215
176
     1
 74
     0
176
     1
 91
        4
176
     1
 64
     7
176
     1
 65
   257
176
     1
 75
     1
176
     1
175
     1
176
     1
 42
1.0
176
     1
 92
        8
176
     1
 66
     7
176
     1
 43
1.0
176
     1
 76
     1
176
     1
 77
     6
176
     1
 78
     2
176
     1
 67
     7
176
     1
 79
     5
176
     1
170
     0
176
     1
171
     0
176
     1
290
     0
176
     1
 93
        1
176
     1
 44
0.0
176
     1
173
     0
176
     1
  0
VISUALSTYLE
  5
36
102
{ACAD_REACTORS
330
2A
102
}
330
2A
100
AcDbVisualStyle
  2
Brighten
 70
    12
177
     2
291
     1
 71
     2
176
     1
 72
     2
176
     1
 73
     0
176
     1
 90
        0
176
     1
 40
-0.6
176
     1
 41
-30.0
176
     1
 62
     5
 63
     7
421
 16777215
176
     1
 74
     1
176
     1
 91
        4
176
     1
 64
     7
176
     1
 65
   257
176
     1
 75
     1
176
     1
175
     1
176
     1
 42
1.0
176
     1
 92
        8
176
     1
 66
     7
176
     1
 43
1.0
176
     1
 76
     1
176
     1
 77
     6
176
     1
 78
     2
176
     1
 67
     7
176
     1
 79
     5
176
     1
170
     0
176
     1
171
     0
176
     1
290
     0
176
     1
 93
        1
176
     1
 44
50.0
176
     1
173
     0
176
     1
  0
VISUALSTYLE
  5
3A
102
{ACAD_REACTORS
330
2A
102
}
330
2A
100
AcDbVisualStyle
  2
ColorChange
 70
    16
177
     2
291
     1
 71
     2
176
     1
 72
     2
176
     1
 73
     3
176
     1
 90
        0
176
     1
 40
-0.6
176
     1
 41
-30.0
176
     1
 62
     5
 63
     8
421
  8421504
176
     1
 74
     1
176
     1
 91
        4
176
     1
 64
     7
176
     1
 65
   257
176
     1
 75
     1
176
     1
175
     1
176
     1
 42
1.0
176
     1
 92
        8
176
     1
 66
     8
424
  8421504
176
     1
 43
1.0
176
     1
 76
     1
176
     1
 77
     6
176
     1
 78
     2
176
     1
 67
     7
176
     1
 79
     5
176
     1
170
     0
176
     1
171
     0
176
     1
290
     0
176
     1
 93
        1
176
     1
 44
0.0
176
     1
173
     0
176
     1
  0
VISUALSTYLE
  5
34
102
{ACAD_REACTORS
330
2A
102
}
330
2A
100
AcDbVisualStyle
  2
Conceptual
 70
     9
177
     2
291
     0
 71
     3
176
     1
 72
     2
176
     1
 73
     0
176
     1
 90
        0
176
     1
 40
-0.6
176
     1
 41
-30.0
176
     1
 62
     5
 63
     7
421
 16777215
176
     1
 74
     2
176
     1
 91
        2
176
     1
 64
     7
176
     1
 65
   257
176
     1
 75
     1
176
     1
175
     1
176
     1
 42
40.0
176
     1
 92
        8
176
     1
 66
     7
176
     1
 43
1.0
176
     1
 76
     1
176
     1
 77
     6
176
     1
 78
     2
176
     1
 67
     7
176
     1
 79
     3
176
     1
170
     0
176
     1
171
     0
176
     1
290
     0
176
     1
 93
        1
176
     1
 44
0.0
176
     1
173
     0
176
     1
  0
VISUALSTYLE
  5
35
102
{ACAD_REACTORS
330
2A
102
}
330
2A
100
AcDbVisualStyle
  2
Dim
 70
    11
177
     2
291
     1
 71
     2
176
     1
 72
     2
176
     1
 73
     0
176
     1
 90
        0
176
     1
 40
-0.6
176
     1
 41
-30.0
176
     1
 62
     5
 63
     7
421
 16777215
176
     1
 74
     1
176
     1
 91
        4
176
     1
 64
     7
176
     1
 65
   257
176
     1
 75
     1
176
     1
175
     1
176
     1
 42
1.0
176
     1
 92
        8
176
     1
 66
     7
176
     1
 43
1.0
176
     1
 76
     1
176
     1
 77
     6
176
     1
 78
     2
176
     1
 67
     7
176
     1
 79
     5
176
     1
170
     0
176
     1
171
     0
176
     1
290
     0
176
     1
 93
        1
176
     1
 44
-50.0
176
     1
173
     0
176
     1
  0
VISUALSTYLE
  5
39
102
{ACAD_REACTORS
330
2A
102
}
330
2A
100
AcDbVisualStyle
  2
Facepattern
 70
    15
177
     2
291
     1
 71
     2
176
     1
 72
     2
176
     1
 73
     0
176
     1
 90
        0
176
     1
 40
-0.6
176
     1
 41
-30.0
176
     1
 62
     5
 63
     7
421
 16777215
176
     1
 74
     1
176
     1
 91
        4
176
     1
 64
     7
176
     1
 65
   257
176
     1
 75
     1
176
     1
175
     1
176
     1
 42
1.0
176
     1
 92
        8
176
     1
 66
     7
176
     1
 43
1.0
176
     1
 76
     1
176
     1
 77
     6
176
     1
 78
     2
176
     1
 67
     7
176
     1
 79
     5
176
     1
170
     0
176
     1
171
     0
176
     1
290
     0
176
     1
 93
        1
176
     1
 44
0.0
176
     1
173
     0
176
     1
  0
VISUALSTYLE
  5
2B
102
{ACAD_REACTORS
330
2A
102
}
330
2A
100
AcDbVisualStyle
  2
Flat
 70
     0
177
     2
291
     1
 71
     2
176
     1
 72
     1
176
     1
 73
     1
176
     1
 90
        2
176
     1
 40
-0.6
176
     1
 41
30.0
176
     1
 62
     5
 63
     7
421
 16777215
176
     1
 74
     0
176
     1
 91
        4
176
     1
 64
     7
176
     1
 65
   257
176
     1
 75
     1
176
     1
175
     1
176
     1
 42
1.0
176
     1
 92
        8
176
     1
 66
     7
176
     1
 43
1.0
176
     1
 76
     1
176
     1
 77
     6
176
     1
 78
     2
176
     1
 67
     7
176
     1
 79
     5
176
     1
170
     0
176
     1
171
     0
176
     1
290
     0
176
     1
 93
       13
176
     1
 44
0.0
176
     1
173
     0
176
     1
  0
VISUALSTYLE
  5
2C
102
{ACAD_REACTORS
330
2A
102
}
330
2A
100
AcDbVisualStyle
  2
FlatWithEdges
 70
     1
177
     2
291
     1
 71
     2
176
     1
 72
     1
176
     1
 73
     1
176
     1
 90
        2
176
     1
 40
-0.6
176
     1
 41
30.0
176
     1
 62
     5
 63
     7
421
 16777215
176
     1
 74
     1
176
     1
 91
        4
176
     1
 64
     7
176
     1
 65
   257
176
     1
 75
     1
176
     1
175
     1
176
     1
 42
1.0
176
     1
 92
        0
176
     1
 66
   257
176
     1
 43
1.0
176
     1
 76
     1
176
     1
 77
     6
176
     1
 78
     2
176
     1
 67
     7
176
     1
 79
     5
176
     1
170
     0
176
     1
171
     0
176
     1
290
     0
176
     1
 93
       13
176
     1
 44
0.0
176
     1
173
     0
176
     1
  0
VISUALSTYLE
  5
2D
102
{ACAD_REACTORS
330
2A
102
}
330
2A
100
AcDbVisualStyle
  2
Gouraud
 70
     2
177
     2
291
     1
 71
     2
176
     1
 72
     2
176
     1
 73
     1
176
     1
 90
        2
176
     1
 40
-0.6
176
     1
 41
30.0
176
     1
 62
     5
 63
     7
421
 16777215
176
     1
 74
     0
176
     1
 91
        4
176
     1
 64
     7
176
     1
 65
   257
176
     1
 75
     1
176
     1
175
     1
176
     1
 42
1.0
176
     1
 92
        0
176
     1
 66
     7
176
     1
 43
1.0
176
     1
 76
     1
176
     1
 77
     6
176
     1
 78
     2
176
     1
 67
     7
176
     1
 79
     5
176
     1
170
     0
176
     1
171
     0
176
     1
290
     0
176
     1
 93
       13
176
     1
 44
0.0
176
     1
173
     0
176
     1
  0
VISUALSTYLE
  5
2E
102
{ACAD_REACTORS
330
2A
102
}
330
2A
100
AcDbVisualStyle
  2
GouraudWithEdges
 70
     3
177
     2
291
     1
 71
     2
176
     1
 72
     2
176
     1
 73
     1
176
     1
 90
        2
176
     1
 40
-0.6
176
     1
 41
30.0
176
     1
 62
     5
 63
     7
421
 16777215
176
     1
 74
     1
176
     1
 91
        4
176
     1
 64
     7
176
     1
 65
   257
176
     1
 75
     1
176
     1
175
     1
176
     1
 42
1.0
176
     1
 92
        0
176
     1
 66
   257
176
     1
 43
1.0
176
     1
 76
     1
176
     1
 77
     6
176
     1
 78
     2
176
     1
 67
     7
176
     1
 79
     5
176
     1
170
     0
176
     1
171
     0
176
     1
290
     0
176
     1
 93
       13
176
     1
 44
0.0
176
     1
173
     0
176
     1
  0
VISUALSTYLE
  5
38
102
{ACAD_REACTORS
330
2A
102
}
330
2A
100
AcDbVisualStyle
  2
Linepattern
 70
    14
177
     2
291
     1
 71
     2
176
     1
 72
     2
176
     1
 73
     0
176
     1
 90
        0
176
     1
 40
-0.6
176
     1
 41
-30.0
176
     1
 62
     5
 63
     7
421
 16777215
176
     1
 74
     1
176
     1
 91
        4
176
     1
 64
     7
176
     1
 65
   257
176
     1
 75
     7
176
     1
175
     7
176
     1
 42
1.0
176
     1
 92
        8
176
     1
 66
     7
176
     1
 43
1.0
176
     1
 76
     1
176
     1
 77
     6
176
     1
 78
     2
176
     1
 67
     7
176
     1
 79
     5
176
     1
170
     0
176
     1
171
     0
176
     1
290
     0
176
     1
 93
        1
176
     1
 44
0.0
176
     1
173
     0
176
     1
  0
VISUALSTYLE
  5
33
102
{ACAD_REACTORS
330
2A
102
}
330
2A
100
AcDbVisualStyle
  2
Realistic
 70
     8
177
     2
291
     0
 71
     2
176
     1
 72
     2
176
     1
 73
     0
176
     1
 90
        0
176
     1
 40
-0.6
176
     1
 41
-30.0
176
     1
 62
     5
 63
     7
421
 16777215
176
     1
 74
     1
176
     1
 91
        0
176
     1
 64
     7
176
     1
 65
   257
176
     1
 75
     1
176
     1
175
     1
176
     1
 42
1.0
176
     1
 92
        8
176
     1
 66
     8
424
  7895160
176
     1
 43
1.0
176
     1
 76
     1
176
     1
 77
     6
176
     1
 78
     2
176
     1
 67
     7
176
     1
 79
     5
176
     1
170
     0
176
     1
171
     0
176
     1
290
     0
176
     1
 93
       13
176
     1
 44
0.0
176
     1
173
     0
176
     1
  0
VISUALSTYLE
  5
37
102
{ACAD_REACTORS
330
2A
102
}
330
2A
100
AcDbVisualStyle
  2
Thicken
 70
    13
177
     2
291
     1
 71
     2
176
     1
 72
     2
176
     1
 73
     0
176
     1
 90
        0
176
     1
 40
-0.6
176
     1
 41
-30.0
176
     1
 62
     5
 63
     7
421
 16777215
176
     1
 74
     1
176
     1
 91
        4
176
     1
 64
     7
176
     1
 65
   257
176
     1
 75
     1
176
     1
175
     1
176
     1
 42
1.0
176
     1
 92
       12
176
     1
 66
     7
176
     1
 43
1.0
176
     1
 76
     1
176
     1
 77
     6
176
     1
 78
     2
176
     1
 67
     7
176
     1
 79
     5
176
     1
170
     0
176
     1
171
     0
176
     1
290
     0
176
     1
 93
        1
176
     1
 44
0.0
176
     1
173
     0
176
     1
  0
ENDSEC
  0
EOF
