  0
SECTION
  2
HEADER
  9
$ACADVER
  1
AC1024
  9
$ACADMAINTVER
 70
     6
  9
$DWGCODEPAGE
  3
ANSI_1252
  9
$INSBASE
 10
0.0
 20
0.0
 30
0.0
  9
$EXTMIN
 10
1.000000000000000E+20
 20
1.000000000000000E+20
 30
1.000000000000000E+20
  9
$EXTMAX
 10
-1.000000000000000E+20
 20
-1.000000000000000E+20
 30
-1.000000000000000E+20
  9
$LIMMIN
 10
0.0
 20
0.0
  9
$LIMMAX
 10
12.0
 20
9.0
  9
$ORTHOMODE
 70
     0
  9
$REGENMODE
 70
     1
  9
$FILLMODE
 70
     1
  9
$QTEXTMODE
 70
     0
  9
$MIRRTEXT
 70
     1
  9
$LTSCALE
 40
1.0
  9
$ATTMODE
 70
     1
  9
$TEXTSIZE
 40
0.2
  9
$TRACEWID
 40
0.05
  9
$TEXTSTYLE
  7
Standard
  9
$CLAYER
  8
0
  9
$CELTYPE
  6
ByLayer
  9
$CECOLOR
 62
   256
  9
$CELTSCALE
 40
1.0
  9
$DISPSILH
 70
     0
  9
$DIMSCALE
 40
1.0
  9
$DIMASZ
 40
0.18
  9
$DIMEXO
 40
0.0625
  9
$DIMDLI
 40
0.38
  9
$DIMRND
 40
0.0
  9
$DIMDLE
 40
0.0
  9
$DIMEXE
 40
0.18
  9
$DIMTP
 40
0.0
  9
$DIMTM
 40
0.0
  9
$DIMTXT
 40
0.18
  9
$DIMCEN
 40
0.09
  9
$DIMTSZ
 40
0.0
  9
$DIMTOL
 70
     0
  9
$DIMLIM
 70
     0
  9
$DIMTIH
 70
     1
  9
$DIMTOH
 70
     1
  9
$DIMSE1
 70
     0
  9
$DIMSE2
 70
     0
  9
$DIMTAD
 70
     0
  9
$DIMZIN
 70
     0
  9
$DIMBLK
  1

  9
$DIMASO
 70
     1
  9
$DIMSHO
 70
     1
  9
$DIMPOST
  1

  9
$DIMAPOST
  1

  9
$DIMALT
 70
     0
  9
$DIMALTD
 70
     2
  9
$DIMALTF
 40
25.4
  9
$DIMLFAC
 40
1.0
  9
$DIMTOFL
 70
     0
  9
$DIMTVP
 40
0.0
  9
$DIMTIX
 70
     0
  9
$DIMSOXD
 70
     0
  9
$DIMSAH
 70
     0
  9
$DIMBLK1
  1

  9
$DIMBLK2
  1

  9
$DIMSTYLE
  2
Standard
  9
$DIMCLRD
 70
     0
  9
$DIMCLRE
 70
     0
  9
$DIMCLRT
 70
     0
  9
$DIMTFAC
 40
1.0
  9
$DIMGAP
 40
0.09
  9
$DIMJUST
 70
     0
  9
$DIMSD1
 70
     0
  9
$DIMSD2
 70
     0
  9
$DIMTOLJ
 70
     1
  9
$DIMTZIN
 70
     0
  9
$DIMALTZ
 70
     0
  9
$DIMALTTZ
 70
     0
  9
$DIMUPT
 70
     0
  9
$DIMDEC
 70
     4
  9
$DIMTDEC
 70
     4
  9
$DIMALTU
 70
     2
  9
$DIMALTTD
 70
     2
  9
$DIMTXSTY
  7
Standard
  9
$DIMAUNIT
 70
     0
  9
$DIMADEC
 70
     0
  9
$DIMALTRND
 40
0.0
  9
$DIMAZIN
 70
     0
  9
$DIMDSEP
 70
    46
  9
$DIMATFIT
 70
     3
  9
$DIMFRAC
 70
     0
  9
$DIMLDRBLK
  1

  9
$DIMLUNIT
 70
     2
  9
$DIMLWD
 70
    -2
  9
$DIMLWE
 70
    -2
  9
$DIMTMOVE
 70
     0
  9
$DIMFXL
 40
1.0
  9
$DIMFXLON
 70
     0
  9
$DIMJOGANG
 40
0.7853981633974483
  9
$DIMTFILL
 70
     0
  9
$DIMTFILLCLR
 70
     0
  9
$DIMARCSYM
 70
     0
  9
$DIMLTYPE
  6

  9
$DIMLTEX1
  6

  9
$DIMLTEX2
  6

  9
$DIMTXTDIRECTION
 70
     0
  9
$LUNITS
 70
     2
  9
$LUPREC
 70
     4
  9
$SKETCHINC
 40
0.1
  9
$FILLETRAD
 40
0.5
  9
$AUNITS
 70
     0
  9
$AUPREC
 70
     0
  9
$MENU
  1
.
  9
$ELEVATION
 40
0.0
  9
$PELEVATION
 40
0.0
  9
$THICKNESS
 40
0.0
  9
$LIMCHECK
 70
     0
  9
$CHAMFERA
 40
0.5
  9
$CHAMFERB
 40
0.5
  9
$CHAMFERC
 40
1.0
  9
$CHAMFERD
 40
0.0
  9
$SKPOLY
 70
     0
  9
$TDCREATE
 40
2456396.374443044
  9
$TDUCREATE
 40
2456396.54110971
  9
$TDUPDATE
 40
2456396.374443056
  9
$TDUUPDATE
 40
2456396.541109722
  9
$TDINDWG
 40
0.0000000116
  9
$TDUSRTIMER
 40
0.0000000116
  9
$USRTIMER
 70
     1
  9
$ANGBASE
 50
0.0
  9
$ANGDIR
 70
     0
  9
$PDMODE
 70
     0
  9
$PDSIZE
 40
0.0
  9
$PLINEWID
 40
0.0
  9
$SPLFRAME
 70
     0
  9
$SPLINETYPE
 70
     6
  9
$SPLINESEGS
 70
     8
  9
$HANDSEED
  5
458
  9
$SURFTAB1
 70
     6
  9
$SURFTAB2
 70
     6
  9
$SURFTYPE
 70
     6
  9
$SURFU
 70
     6
  9
$SURFV
 70
     6
  9
$UCSBASE
  2

  9
$UCSNAME
  2

  9
$UCSORG
 10
0.0
 20
0.0
 30
0.0
  9
$UCSXDIR
 10
1.0
 20
0.0
 30
0.0
  9
$UCSYDIR
 10
0.0
 20
1.0
 30
0.0
  9
$UCSORTHOREF
  2

  9
$UCSORTHOVIEW
 70
     0
  9
$UCSORGTOP
 10
0.0
 20
0.0
 30
0.0
  9
$UCSORGBOTTOM
 10
0.0
 20
0.0
 30
0.0
  9
$UCSORGLEFT
 10
0.0
 20
0.0
 30
0.0
  9
$UCSORGRIGHT
 10
0.0
 20
0.0
 30
0.0
  9
$UCSORGFRONT
 10
0.0
 20
0.0
 30
0.0
  9
$UCSORGBACK
 10
0.0
 20
0.0
 30
0.0
  9
$PUCSBASE
  2

  9
$PUCSNAME
  2

  9
$PUCSORG
 10
0.0
 20
0.0
 30
0.0
  9
$PUCSXDIR
 10
1.0
 20
0.0
 30
0.0
  9
$PUCSYDIR
 10
0.0
 20
1.0
 30
0.0
  9
$PUCSORTHOREF
  2

  9
$PUCSORTHOVIEW
 70
     0
  9
$PUCSORGTOP
 10
0.0
 20
0.0
 30
0.0
  9
$PUCSORGBOTTOM
 10
0.0
 20
0.0
 30
0.0
  9
$PUCSORGLEFT
 10
0.0
 20
0.0
 30
0.0
  9
$PUCSORGRIGHT
 10
0.0
 20
0.0
 30
0.0
  9
$PUCSORGFRONT
 10
0.0
 20
0.0
 30
0.0
  9
$PUCSORGBACK
 10
0.0
 20
0.0
 30
0.0
  9
$USERI1
 70
     0
  9
$USERI2
 70
     0
  9
$USERI3
 70
     0
  9
$USERI4
 70
     0
  9
$USERI5
 70
     0
  9
$USERR1
 40
0.0
  9
$USERR2
 40
0.0
  9
$USERR3
 40
0.0
  9
$USERR4
 40
0.0
  9
$USERR5
 40
0.0
  9
$WORLDVIEW
 70
     1
  9
$SHADEDGE
 70
     3
  9
$SHADEDIF
 70
    70
  9
$TILEMODE
 70
     1
  9
$MAXACTVP
 70
    64
  9
$PINSBASE
 10
0.0
 20
0.0
 30
0.0
  9
$PLIMCHECK
 70
     0
  9
$PEXTMIN
 10
1.000000000000000E+20
 20
1.000000000000000E+20
 30
1.000000000000000E+20
  9
$PEXTMAX
 10
-1.000000000000000E+20
 20
-1.000000000000000E+20
 30
-1.000000000000000E+20
  9
$PLIMMIN
 10
0.0
 20
0.0
  9
$PLIMMAX
 10
12.0
 20
9.0
  9
$UNITMODE
 70
     0
  9
$VISRETAIN
 70
     1
  9
$PLINEGEN
 70
     0
  9
$PSLTSCALE
 70
     1
  9
$TREEDEPTH
 70
  3020
  9
$CMLSTYLE
  2
Standard
  9
$CMLJUST
 70
     0
  9
$CMLSCALE
 40
1.0
  9
$PROXYGRAPHICS
 70
     1
  9
$MEASUREMENT
 70
     0
  9
$CELWEIGHT
370
    -1
  9
$ENDCAPS
280
     0
  9
$JOINSTYLE
280
     0
  9
$LWDISPLAY
290
     0
  9
$INSUNITS
 70
     1
  9
$HYPERLINKBASE
  1

  9
$STYLESHEET
  1

  9
$XEDIT
290
     1
  9
$CEPSNTYPE
380
     0
  9
$PSTYLEMODE
290
     1
  9
$FINGERPRINTGUID
  2
{CBE9C828-4085-4533-BE88-2CFCE42C461B}
  9
$VERSIONGUID
  2
{FAEB1C32-E019-11D5-929B-00C0DF256EC4}
  9
$EXTNAMES
290
     1
  9
$PSVPSCALE
 40
0.0
  9
$OLESTARTUP
290
     0
  9
$SORTENTS
280
   127
  9
$INDEXCTL
280
     0
  9
$HIDETEXT
280
     1
  9
$XCLIPFRAME
280
     2
  9
$HALOGAP
280
     0
  9
$OBSCOLOR
 70
   257
  9
$OBSLTYPE
280
     0
  9
$INTERSECTIONDISPLAY
280
     0
  9
$INTERSECTIONCOLOR
 70
   257
  9
$DIMASSOC
280
     2
  9
$PROJECTNAME
  1

  9
$CAMERADISPLAY
290
     0
  9
$LENSLENGTH
 40
50.0
  9
$CAMERAHEIGHT
 40
0.0
  9
$STEPSPERSEC
 40
2.0
  9
$STEPSIZE
 40
6.0
  9
$3DDWFPREC
 40
2.0
  9
$PSOLWIDTH
 40
0.25
  9
$PSOLHEIGHT
 40
4.0
  9
$LOFTANG1
 40
1.570796326794897
  9
$LOFTANG2
 40
1.570796326794897
  9
$LOFTMAG1
 40
0.0
  9
$LOFTMAG2
 40
0.0
  9
$LOFTPARAM
 70
     7
  9
$LOFTNORMALS
280
     1
  9
$LATITUDE
 40
37.795
  9
$LONGITUDE
 40
-122.394
  9
$NORTHDIRECTION
 40
0.0
  9
$TIMEZONE
 70
 -8000
  9
$LIGHTGLYPHDISPLAY
280
     1
  9
$TILEMODELIGHTSYNCH
280
     1
  9
$SOLIDHIST
280
     1
  9
$SHOWHIST
280
     1
  9
$DWFFRAME
280
     2
  9
$DGNFRAME
280
     2
  9
$REALWORLDSCALE
290
     1
  9
$INTERFERECOLOR
 62
   256
  9
$CSHADOW
280
     0
  9
$SHADOWPLANELOCATION
 40
0.0
  0
ENDSEC
  0
SECTION
  2
CLASSES
  0
CLASS
  1
ACDBDICTIONARYWDFLT
  2
AcDbDictionaryWithDefault
  3
ObjectDBX Classes
 90
        0
 91
        4
280
     0
281
     0
  0
CLASS
  1
VISUALSTYLE
  2
AcDbVisualStyle
  3
ObjectDBX Classes
 90
     4095
 91
        4
280
     0
281
     0
  0
CLASS
  1
MATERIAL
  2
AcDbMaterial
  3
ObjectDBX Classes
 90
     1153
 91
        4
280
     0
281
     0
  0
ENDSEC
  0
SECTION
  2
TABLES
  0
TABLE
  2
VPORT
  5
8
330
0
100
AcDbSymbolTable
 70
     1
  0
VPORT
  5
29
330
8
100
AcDbSymbolTableRecord
100
AcDbViewportTableRecord
  2
*Active
 70
     0
 10
0.0
 20
0.0
 11
1.0
 21
1.0
 12
0.0
 22
0.0
 13
0.0
 23
0.0
 14
0.5
 24
0.5
 15
0.5
 25
0.5
 16
0.0
 26
0.0
 36
1.0
 17
0.0
 27
0.0
 37
-1000.0
 40
258.183384568587
 41
1.822857142857143
 42
50.0
 43
3985.455138884457
 44
4899.051834179137
 50
0.0
 51
0.0
 71
     0
 72
   100
 73
     1
 74
     3
 75
     0
 76
     0
 77
     0
 78
     0
281
     0
 65
     1
110
0.0
120
0.0
130
0.0
111
1.0
121
0.0
131
0.0
112
0.0
122
1.0
132
0.0
 79
     0
146
0.0
 60
     3
 61
     5
292
     1
282
     1
141
0.0
142
0.0
 63
   250
  0
ENDTAB
  0
TABLE
  2
LTYPE
  5
5
330
0
100
AcDbSymbolTable
 70
     1
  0
LTYPE
  5
14
330
5
100
AcDbSymbolTableRecord
100
AcDbLinetypeTableRecord
  2
ByBlock
 70
     0
  3

 72
    65
 73
     0
 40
0.0
  0
LTYPE
  5
15
330
5
100
AcDbSymbolTableRecord
100
AcDbLinetypeTableRecord
  2
ByLayer
 70
     0
  3

 72
    65
 73
     0
 40
0.0
  0
LTYPE
  5
16
330
5
100
AcDbSymbolTableRecord
100
AcDbLinetypeTableRecord
  2
Continuous
 70
     0
  3
Solid line
 72
    65
 73
     0
 40
0.0
  0
ENDTAB
  0
TABLE
  2
LAYER
  5
2
330
0
100
AcDbSymbolTable
 70
     3
  0
LAYER
  5
10
330
2
100
AcDbSymbolTableRecord
100
AcDbLayerTableRecord
  2
0
 70
     0
 62
     7
  6
Continuous
370
    -3
390
F
347
3E
  0
LAYER
  5
3F
330
2
100
AcDbSymbolTableRecord
100
AcDbLayerTableRecord
  2
ProfileEdges
 70
     0
 62
     7
  6
Continuous
370
    -3
390
F
347
3E
  0
LAYER
  5
40
330
2
100
AcDbSymbolTableRecord
100
AcDbLayerTableRecord
  2
SectionCutEdges
 70
     0
 62
     7
  6
Continuous
370
    -3
390
F
347
3E
  0
ENDTAB
  0
TABLE
  2
STYLE
  5
3
330
0
100
AcDbSymbolTable
 70
     1
  0
STYLE
  5
11
330
3
100
AcDbSymbolTableRecord
100
AcDbTextStyleTableRecord
  2
Standard
 70
     0
 40
0.0
 41
1.0
 50
0.0
 71
     0
 42
0.2
  3
txt
  4

  0
ENDTAB
  0
TABLE
  2
VIEW
  5
6
330
0
100
AcDbSymbolTable
 70
     0
  0
ENDTAB
  0
TABLE
  2
UCS
  5
7
330
0
100
AcDbSymbolTable
 70
     0
  0
ENDTAB
  0
TABLE
  2
APPID
  5
9
330
0
100
AcDbSymbolTable
 70
     1
  0
APPID
  5
12
330
9
100
AcDbSymbolTableRecord
100
AcDbRegAppTableRecord
  2
ACAD
 70
     0
  0
ENDTAB
  0
TABLE
  2
DIMSTYLE
  5
A
330
0
100
AcDbSymbolTable
 70
     1
100
AcDbDimStyleTable
  0
DIMSTYLE
105
27
330
A
100
AcDbSymbolTableRecord
100
AcDbDimStyleTableRecord
  2
Standard
 70
     0
340
11
  0
ENDTAB
  0
TABLE
  2
BLOCK_RECORD
  5
1
330
0
100
AcDbSymbolTable
 70
     1
  0
BLOCK_RECORD
  5
1F
330
1
100
AcDbSymbolTableRecord
100
AcDbBlockTableRecord
  2
*Model_Space
340
22
 70
     0
280
     1
281
     0
  0
BLOCK_RECORD
  5
1B
330
1
100
AcDbSymbolTableRecord
100
AcDbBlockTableRecord
  2
*Paper_Space
340
1E
 70
     0
280
     1
281
     0
  0
BLOCK_RECORD
  5
23
330
1
100
AcDbSymbolTableRecord
100
AcDbBlockTableRecord
  2
*Paper_Space0
340
26
 70
     0
280
     1
281
     0
  0
ENDTAB
  0
ENDSEC
  0
SECTION
  2
BLOCKS
  0
BLOCK
  5
20
330
1F
100
AcDbEntity
  8
0
100
AcDbBlockBegin
  2
*Model_Space
 70
     0
 10
0.0
 20
0.0
 30
0.0
  3
*Model_Space
  1

  0
ENDBLK
  5
21
330
1F
100
AcDbEntity
  8
0
100
AcDbBlockEnd
  0
BLOCK
  5
1C
330
1B
100
AcDbEntity
 67
     1
  8
0
100
AcDbBlockBegin
  2
*Paper_Space
 70
     0
 10
0.0
 20
0.0
 30
0.0
  3
*Paper_Space
  1

  0
ENDBLK
  5
1D
330
1B
100
AcDbEntity
 67
     1
  8
0
100
AcDbBlockEnd
  0
BLOCK
  5
24
330
23
100
AcDbEntity
  8
0
100
AcDbBlockBegin
  2
*Paper_Space0
 70
     0
 10
0.0
 20
0.0
 30
0.0
  3
*Paper_Space0
  1

  0
ENDBLK
  5
25
330
23
100
AcDbEntity
  8
0
100
AcDbBlockEnd
  0
ENDSEC
  0
SECTION
  2
ENTITIES
  0
LINE
  5
41
330
1F
100
AcDbEntity
  8
0
100
AcDbLine
 10
-98.85774976283552
 20
-8.357410307732776
 30
0.0
 11
-98.52637893944684
 21
-8.611680083547627
 31
0.0
  0
LINE
  5
42
330
1F
100
AcDbEntity
  8
0
100
AcDbLine
 10
-99.11201953865056
 20
-8.026039484344196
 30
0.0
 11
-98.85774976283552
 21
-8.357410307732776
 31
0.0
  0
LINE
  5
43
330
1F
100
AcDbEntity
  8
0
100
AcDbLine
 10
-99.27186020187091
 20
-7.640149987379141
 30
0.0
 11
-99.11201953865056
 21
-8.026039484344196
 31
0.0
  0
LINE
  5
44
330
1F
100
AcDbEntity
  8
0
100
AcDbLine
 10
-99.32637887544685
 20
-7.226039548343921
 30
0.0
 11
-99.27186020187091
 21
-7.640149987379141
 31
0.0
  0
LINE
  5
45
330
1F
100
AcDbEntity
  8
0
100
AcDbLine
 10
-99.27186020187072
 20
-6.811929109308521
 30
0.0
 11
-99.32637887544685
 21
-7.226039548343921
 31
0.0
  0
LINE
  5
46
330
1F
100
AcDbEntity
  8
0
100
AcDbLine
 10
-99.11201953865056
 20
-6.426039612343918
 30
0.0
 11
-99.27186020187072
 21
-6.811929109308521
 31
0.0
  0
LINE
  5
47
330
1F
100
AcDbEntity
  8
0
100
AcDbLine
 10
-98.85774976283534
 20
-6.094668788955247
 30
0.0
 11
-99.11201953865056
 21
-6.426039612343918
 31
0.0
  0
LINE
  5
48
330
1F
100
AcDbEntity
  8
0
100
AcDbLine
 10
-98.52637893944666
 20
-5.840399013140215
 30
0.0
 11
-98.85774976283534
 21
-6.094668788955247
 31
0.0
  0
LINE
  5
49
330
1F
100
AcDbEntity
  8
0
100
AcDbLine
 10
-97.72637900344684
 20
25.37395784365633
 30
0.0
 11
-98.14048944248188
 21
25.31943917008021
 31
0.0
  0
LINE
  5
4A
330
1F
100
AcDbEntity
  8
0
100
AcDbLine
 10
-97.72637900344684
 20
25.37395784365633
 30
0.0
 11
-91.52637949944676
 21
25.37395784365633
 31
0.0
  0
LINE
  5
4B
330
1F
100
AcDbEntity
  8
0
100
AcDbLine
 10
-91.1122690604112
 20
25.31943917008021
 30
0.0
 11
-91.52637949944676
 21
25.37395784365633
 31
0.0
  0
LINE
  5
4C
330
1F
100
AcDbEntity
  8
0
100
AcDbLine
 10
-90.72637956344676
 20
25.15959850685984
 30
0.0
 11
-91.1122690604112
 21
25.31943917008021
 31
0.0
  0
LINE
  5
4D
330
1F
100
AcDbEntity
  8
0
100
AcDbLine
 10
-90.39500874005773
 20
24.90532873104463
 30
0.0
 11
-90.72637956344676
 21
25.15959850685984
 31
0.0
  0
LINE
  5
4E
330
1F
100
AcDbEntity
  8
0
100
AcDbLine
 10
-90.14073896424306
 20
24.57395790765596
 30
0.0
 11
-90.39500874005773
 21
24.90532873104463
 31
0.0
  0
LINE
  5
4F
330
1F
100
AcDbEntity
  8
0
100
AcDbLine
 10
-89.9808983010225
 20
24.18806841069118
 30
0.0
 11
-90.14073896424306
 21
24.57395790765596
 31
0.0
  0
LINE
  5
50
330
1F
100
AcDbEntity
  8
0
100
AcDbLine
 10
-95.21676026098298
 20
0.7739598116561159
 30
0.0
 11
-92.83298111271696
 21
-2.332641657614043
 31
0.0
  0
LINE
  5
51
330
1F
100
AcDbEntity
  8
0
100
AcDbLine
 10
-96.71526647867196
 20
4.391673845701172
 30
0.0
 11
-95.21676026098298
 21
0.7739598116561159
 31
0.0
  0
LINE
  5
52
330
1F
100
AcDbEntity
  8
0
100
AcDbLine
 10
-97.22637904344695
 20
8.273959211656173
 30
0.0
 11
-96.71526647867196
 21
4.391673845701172
 31
0.0
  0
LINE
  5
53
330
1F
100
AcDbEntity
  8
0
100
AcDbLine
 10
-49.83120853113358
 20
31.15120061473545
 30
0.0
 11
-49.66104911073259
 21
31.58920333386812
 31
0.0
  0
LINE
  5
54
330
1F
100
AcDbEntity
  8
0
100
AcDbLine
 10
-49.66104911073259
 20
31.58920333386812
 30
0.0
 11
-49.38332428646279
 21
31.96824097355987
 31
0.0
  0
LINE
  5
55
330
1F
100
AcDbEntity
  8
0
100
AcDbLine
 10
-49.38332428646279
 20
31.96824097355987
 30
0.0
 11
-49.0169605461363
 21
32.26248274505499
 31
0.0
  0
LINE
  5
56
330
1F
100
AcDbEntity
  8
0
100
AcDbLine
 10
-49.0169605461363
 20
32.26248274505499
 30
0.0
 11
-48.58692497321107
 21
32.45187655788357
 31
0.0
  0
LINE
  5
57
330
1F
100
AcDbEntity
  8
0
100
AcDbLine
 10
-48.58692497321107
 20
32.45187655788357
 30
0.0
 11
-48.12252378131515
 21
32.52351553668955
 31
0.0
  0
LINE
  5
58
330
1F
100
AcDbEntity
  8
0
100
AcDbLine
 10
-48.12252378131515
 20
32.52351553668955
 30
0.0
 11
-47.65540514421679
 21
32.47251760345617
 31
0.0
  0
LINE
  5
59
330
1F
100
AcDbEntity
  8
0
100
AcDbLine
 10
-47.65540514421679
 20
32.47251760345617
 30
0.0
 11
-47.21740242508402
 21
32.30235818305537
 31
0.0
  0
LINE
  5
5A
330
1F
100
AcDbEntity
  8
0
100
AcDbLine
 10
-48.9478942615513
 20
-12.69763821694805
 30
0.0
 11
-48.50989154241926
 21
-12.52747879654558
 31
0.0
  0
LINE
  5
5B
330
1F
100
AcDbEntity
  8
0
100
AcDbLine
 10
-48.50989154241926
 20
-12.52747879654558
 30
0.0
 11
-48.04277290532107
 21
-12.47648086331048
 31
0.0
  0
LINE
  5
5C
330
1F
100
AcDbEntity
  8
0
100
AcDbLine
 10
-90.39500874005809
 20
-6.094668788955067
 30
0.0
 11
-90.72637956344659
 21
-5.840399013140215
 31
0.0
  0
LINE
  5
5D
330
1F
100
AcDbEntity
  8
0
100
AcDbLine
 10
-90.1407389642427
 20
-6.426039612344009
 30
0.0
 11
-90.39500874005809
 21
-6.094668788955067
 31
0.0
  0
LINE
  5
5E
330
1F
100
AcDbEntity
  8
0
100
AcDbLine
 10
-89.98089830102269
 20
-6.811929109308973
 30
0.0
 11
-90.1407389642427
 21
-6.426039612344009
 31
0.0
  0
LINE
  5
5F
330
1F
100
AcDbEntity
  8
0
100
AcDbLine
 10
-89.92637962744676
 20
-7.226039548344012
 30
0.0
 11
-89.98089830102269
 21
-6.811929109308973
 31
0.0
  0
LINE
  5
60
330
1F
100
AcDbEntity
  8
0
100
AcDbLine
 10
-89.98089830102288
 20
-7.640149987379321
 30
0.0
 11
-89.92637962744676
 21
-7.226039548344012
 31
0.0
  0
LINE
  5
61
330
1F
100
AcDbEntity
  8
0
100
AcDbLine
 10
-68.11202201865018
 20
-6.426039612343827
 30
0.0
 11
-68.27186268187037
 21
-6.811929109308702
 31
0.0
  0
LINE
  5
62
330
1F
100
AcDbEntity
  8
0
100
AcDbLine
 10
-67.85775224283532
 20
-6.094668788955247
 30
0.0
 11
-68.11202201865018
 21
-6.426039612343827
 31
0.0
  0
LINE
  5
63
330
1F
100
AcDbEntity
  8
0
100
AcDbLine
 10
7.550758413173781
 20
-47.7293942514843
 30
0.0
 11
7.291939388776948
 21
-47.69532008049923
 31
0.0
  0
LINE
  5
64
330
1F
100
AcDbEntity
  8
0
100
AcDbLine
 10
12.67804120601693
 20
-47.69532008049923
 30
0.0
 11
12.41922218161992
 21
-47.7293942514843
 31
0.0
  0
LINE
  5
65
330
1F
100
AcDbEntity
  8
0
100
AcDbLine
 10
12.91922214161981
 20
-47.5954196659867
 30
0.0
 11
12.67804120601693
 21
-47.69532008049923
 31
0.0
  0
LINE
  5
66
330
1F
100
AcDbEntity
  8
0
100
AcDbLine
 10
13.1263289062378
 20
-47.43650105610222
 30
0.0
 11
12.91922214161981
 21
-47.5954196659867
 31
0.0
  0
LINE
  5
67
330
1F
100
AcDbEntity
  8
0
100
AcDbLine
 10
13.28524751612228
 20
-47.22939429148423
 30
0.0
 11
13.1263289062378
 21
-47.43650105610222
 31
0.0
  0
LINE
  5
68
330
1F
100
AcDbEntity
  8
0
100
AcDbLine
 10
29.7531903950036
 20
-47.22939429148423
 30
0.0
 11
29.91210900488808
 21
-47.43650105610222
 31
0.0
  0
LINE
  5
69
330
1F
100
AcDbEntity
  8
0
100
AcDbLine
 10
115.4762223831699
 20
-6.426039612364222
 30
0.0
 11
115.9420966270847
 21
-6.487373120137215
 31
0.0
  0
LINE
  5
6A
330
1F
100
AcDbEntity
  8
0
100
AcDbLine
 10
115.0103481392554
 20
-6.487373120137215
 30
0.0
 11
115.4762223831699
 21
-6.426039612364222
 31
0.0
  0
LINE
  5
6B
330
1F
100
AcDbEntity
  8
0
100
AcDbLine
 10
114.5762224551699
 20
-6.667193866259879
 30
0.0
 11
115.0103481392554
 21
-6.487373120137215
 31
0.0
  0
LINE
  5
6C
330
1F
100
AcDbEntity
  8
0
100
AcDbLine
 10
114.2034302788575
 20
-6.953247364051837
 30
0.0
 11
114.5762224551699
 21
-6.667193866259879
 31
0.0
  0
LINE
  5
6D
330
1F
100
AcDbEntity
  8
0
100
AcDbLine
 10
113.9173767810655
 20
-7.326039540364248
 30
0.0
 11
114.2034302788575
 21
-6.953247364051837
 31
0.0
  0
LINE
  5
6E
330
1F
100
AcDbEntity
  8
0
100
AcDbLine
 10
113.737556034943
 20
-7.760165224449653
 30
0.0
 11
113.9173767810655
 21
-7.326039540364248
 31
0.0
  0
LINE
  5
6F
330
1F
100
AcDbEntity
  8
0
100
AcDbLine
 10
113.6762225271699
 20
-8.226039468364274
 30
0.0
 11
113.737556034943
 21
-7.760165224449653
 31
0.0
  0
LINE
  5
70
330
1F
100
AcDbEntity
  8
0
100
AcDbLine
 10
113.737556034943
 20
-8.691913712278897
 30
0.0
 11
113.6762225271699
 21
-8.226039468364274
 31
0.0
  0
LINE
  5
71
330
1F
100
AcDbEntity
  8
0
100
AcDbLine
 10
113.9173767810655
 20
-9.126039396364302
 30
0.0
 11
113.737556034943
 21
-8.691913712278897
 31
0.0
  0
LINE
  5
72
330
1F
100
AcDbEntity
  8
0
100
AcDbLine
 10
114.2034302788575
 20
-9.498831572676712
 30
0.0
 11
113.9173767810655
 21
-9.126039396364302
 31
0.0
  0
LINE
  5
73
330
1F
100
AcDbEntity
  8
0
100
AcDbLine
 10
114.5762224551701
 20
-9.78488507046867
 30
0.0
 11
114.2034302788575
 21
-9.498831572676712
 31
0.0
  0
LINE
  5
74
330
1F
100
AcDbEntity
  8
0
100
AcDbLine
 10
115.0103481392554
 20
-9.964705816591335
 30
0.0
 11
114.5762224551701
 21
-9.78488507046867
 31
0.0
  0
LINE
  5
75
330
1F
100
AcDbEntity
  8
0
100
AcDbLine
 10
115.4762223831699
 20
-10.02603932436433
 30
0.0
 11
115.0103481392554
 21
-9.964705816591335
 31
0.0
  0
LINE
  5
76
330
1F
100
AcDbEntity
  8
0
100
AcDbLine
 10
115.9420966270847
 20
-9.964705816591335
 30
0.0
 11
115.4762223831699
 21
-10.02603932436433
 31
0.0
  0
LINE
  5
77
330
1F
100
AcDbEntity
  8
0
100
AcDbLine
 10
116.37622231117
 20
-9.78488507046867
 30
0.0
 11
115.9420966270847
 21
-9.964705816591335
 31
0.0
  0
LINE
  5
78
330
1F
100
AcDbEntity
  8
0
100
AcDbLine
 10
13.41922210162006
 20
-46.72939433148425
 30
0.0
 11
13.41922210162006
 21
-42.72939465148423
 31
0.0
  0
LINE
  5
79
330
1F
100
AcDbEntity
  8
0
100
AcDbLine
 10
55.16150296119075
 20
-10.02952801666839
 30
0.0
 11
54.69562871727613
 21
-9.968194508895401
 31
0.0
  0
LINE
  5
7A
330
1F
100
AcDbEntity
  8
0
100
AcDbLine
 10
12.29193898877693
 20
-30.26346982246927
 30
0.0
 11
12.55075801317394
 21
-30.2293956514842
 31
0.0
  0
LINE
  5
7B
330
1F
100
AcDbEntity
  8
0
100
AcDbLine
 10
11.84365128855588
 20
-30.52228884686628
 30
0.0
 11
12.05075805317387
 21
-30.3633702369818
 31
0.0
  0
LINE
  5
7C
330
1F
100
AcDbEntity
  8
0
100
AcDbLine
 10
6.55075849317382
 20
-35.22939525148426
 30
0.0
 11
6.55075849317382
 21
-46.72939433148425
 31
0.0
  0
LINE
  5
7D
330
1F
100
AcDbEntity
  8
0
100
AcDbLine
 10
6.584832664158892
 20
-46.98821335588126
 30
0.0
 11
6.55075849317382
 21
-46.72939433148425
 31
0.0
  0
LINE
  5
7E
330
1F
100
AcDbEntity
  8
0
100
AcDbLine
 10
6.843651688555904
 20
-47.43650105610222
 30
0.0
 11
6.684733078671418
 21
-47.22939429148423
 31
0.0
  0
LINE
  5
7F
330
1F
100
AcDbEntity
  8
0
100
AcDbLine
 10
7.05075845317389
 20
-47.5954196659867
 30
0.0
 11
6.843651688555904
 21
-47.43650105610222
 31
0.0
  0
LINE
  5
80
330
1F
100
AcDbEntity
  8
0
100
AcDbLine
 10
7.291939388776948
 20
-47.69532008049923
 30
0.0
 11
7.05075845317389
 21
-47.5954196659867
 31
0.0
  0
LINE
  5
81
330
1F
100
AcDbEntity
  8
0
100
AcDbLine
 10
29.619215809506
 20
-46.72939433148425
 30
0.0
 11
29.65328998049107
 21
-46.98821335588126
 31
0.0
  0
LINE
  5
82
330
1F
100
AcDbEntity
  8
0
100
AcDbLine
 10
36.5192152575061
 20
-46.72939433148425
 30
0.0
 11
36.5192152575061
 21
-35.22939525148426
 31
0.0
  0
LINE
  5
83
330
1F
100
AcDbEntity
  8
0
100
AcDbLine
 10
-49.40995193369567
 20
53.36329202233838
 30
0.0
 11
-49.40995193369567
 21
58.96329157433841
 31
0.0
  0
LINE
  5
84
330
1F
100
AcDbEntity
  8
0
100
AcDbLine
 10
-49.40995193369567
 20
53.36329202233838
 30
0.0
 11
-49.37587776271077
 21
53.10447299794137
 31
0.0
  0
LINE
  5
85
330
1F
100
AcDbEntity
  8
0
100
AcDbLine
 10
-49.37587776271077
 20
53.10447299794137
 30
0.0
 11
-49.27597734819807
 21
52.8632920623384
 31
0.0
  0
LINE
  5
86
330
1F
100
AcDbEntity
  8
0
100
AcDbLine
 10
-49.27597734819807
 20
52.8632920623384
 30
0.0
 11
-49.11705873831376
 21
52.65618529772041
 31
0.0
  0
LINE
  5
87
330
1F
100
AcDbEntity
  8
0
100
AcDbLine
 10
-49.11705873831376
 20
52.65618529772041
 30
0.0
 11
-48.90995197369578
 21
52.49726668783593
 31
0.0
  0
LINE
  5
88
330
1F
100
AcDbEntity
  8
0
100
AcDbLine
 10
-48.90995197369578
 20
52.49726668783593
 30
0.0
 11
-48.66877103809272
 21
52.39736627332341
 31
0.0
  0
LINE
  5
89
330
1F
100
AcDbEntity
  8
0
100
AcDbLine
 10
-48.40995201369571
 20
52.36329210233833
 30
0.0
 11
-43.80995238169564
 21
52.36329210233833
 31
0.0
  0
LINE
  5
8A
330
1F
100
AcDbEntity
  8
0
100
AcDbLine
 10
-36.44402714468126
 20
88.42210826273555
 30
0.0
 11
-36.40995297369637
 21
88.16328923833855
 31
0.0
  0
LINE
  5
8B
330
1F
100
AcDbEntity
  8
0
100
AcDbLine
 10
-48.66877103809272
 20
52.39736627332341
 30
0.0
 11
-48.40995201369571
 21
52.36329210233833
 31
0.0
  0
LINE
  5
8C
330
1F
100
AcDbEntity
  8
0
100
AcDbLine
 10
14.10148571102186
 20
-15.81459713056644
 30
0.0
 11
13.67215147978405
 21
-16.00557547542823
 31
0.0
  0
LINE
  5
8D
330
1F
100
AcDbEntity
  8
0
100
AcDbLine
 10
19.59548040268776
 20
-23.829526912669
 30
0.0
 11
19.75439901257206
 21
-24.03663367728699
 31
0.0
  0
LINE
  5
8E
330
1F
100
AcDbEntity
  8
0
100
AcDbLine
 10
19.75439901257206
 20
-24.03663367728699
 30
0.0
 11
19.96150577719005
 21
-24.19555228717138
 31
0.0
  0
LINE
  5
8F
330
1F
100
AcDbEntity
  8
0
100
AcDbLine
 10
19.96150577719005
 20
-24.19555228717138
 30
0.0
 11
20.20268671279311
 21
-24.295452701684
 31
0.0
  0
LINE
  5
90
330
1F
100
AcDbEntity
  8
0
100
AcDbLine
 10
20.46150573719012
 20
-24.32952687266898
 30
0.0
 11
41.76150403319065
 21
-24.32952687266835
 31
0.0
  0
LINE
  5
91
330
1F
100
AcDbEntity
  8
0
100
AcDbLine
 10
20.20268671279311
 20
-24.295452701684
 30
0.0
 11
20.46150573719012
 21
-24.32952687266898
 31
0.0
  0
LINE
  5
92
330
1F
100
AcDbEntity
  8
0
100
AcDbLine
 10
-42.80995246169568
 20
53.36329202233838
 30
0.0
 11
-42.80995246169568
 21
58.96329157433841
 31
0.0
  0
LINE
  5
93
330
1F
100
AcDbEntity
  8
0
100
AcDbLine
 10
-42.80995246169568
 20
53.36329202233838
 30
0.0
 11
-42.84402663268057
 21
53.10447299794137
 31
0.0
  0
LINE
  5
94
330
1F
100
AcDbEntity
  8
0
100
AcDbLine
 10
-42.84402663268057
 20
53.10447299794137
 30
0.0
 11
-42.94392704719328
 21
52.8632920623384
 31
0.0
  0
LINE
  5
95
330
1F
100
AcDbEntity
  8
0
100
AcDbLine
 10
-42.94392704719328
 20
52.8632920623384
 30
0.0
 11
-43.10284565707758
 21
52.65618529772041
 31
0.0
  0
LINE
  5
96
330
1F
100
AcDbEntity
  8
0
100
AcDbLine
 10
-43.10284565707758
 20
52.65618529772041
 30
0.0
 11
-43.30995242169557
 21
52.49726668783593
 31
0.0
  0
LINE
  5
97
330
1F
100
AcDbEntity
  8
0
100
AcDbLine
 10
-43.30995242169557
 20
52.49726668783593
 30
0.0
 11
-43.55113335729863
 21
52.39736627332341
 31
0.0
  0
LINE
  5
98
330
1F
100
AcDbEntity
  8
0
100
AcDbLine
 10
55.85977278644859
 20
40.77046791933171
 30
0.0
 11
53.26008020939656
 21
40.77046791933171
 31
0.0
  0
LINE
  5
99
330
1F
100
AcDbEntity
  8
0
100
AcDbLine
 10
-43.55113335729863
 20
52.39736627332341
 30
0.0
 11
-43.80995238169564
 21
52.36329210233833
 31
0.0
  0
LINE
  5
9A
330
1F
100
AcDbEntity
  8
0
100
AcDbLine
 10
-48.60995199769692
 20
63.4632912143384
 30
0.0
 11
-48.67128550547005
 21
62.99741697042379
 31
0.0
  0
LINE
  5
9B
330
1F
100
AcDbEntity
  8
0
100
AcDbLine
 10
-48.67128550547005
 20
63.92916545825303
 30
0.0
 11
-48.60995199769692
 21
63.4632912143384
 31
0.0
  0
LINE
  5
9C
330
1F
100
AcDbEntity
  8
0
100
AcDbLine
 10
-49.13715974938449
 20
64.73608331865088
 30
0.0
 11
-48.85110625159268
 21
64.36329114233848
 31
0.0
  0
LINE
  5
9D
330
1F
100
AcDbEntity
  8
0
100
AcDbLine
 10
-51.30995178169705
 20
65.0221368164428
 30
0.0
 11
-50.87582609761169
 21
65.20195756256551
 31
0.0
  0
LINE
  5
9E
330
1F
100
AcDbEntity
  8
0
100
AcDbLine
 10
-51.68274395800964
 20
64.73608331865088
 30
0.0
 11
-51.30995178169705
 21
65.0221368164428
 31
0.0
  0
LINE
  5
9F
330
1F
100
AcDbEntity
  8
0
100
AcDbLine
 10
-51.96879745580146
 20
64.36329114233848
 30
0.0
 11
-51.68274395800964
 21
64.73608331865088
 31
0.0
  0
LINE
  5
A0
330
1F
100
AcDbEntity
  8
0
100
AcDbLine
 10
-52.20995170969721
 20
63.4632912143384
 30
0.0
 11
-52.14861820192408
 21
63.92916545825303
 31
0.0
  0
LINE
  5
A1
330
1F
100
AcDbEntity
  8
0
100
AcDbLine
 10
-5.515148870092734
 20
67.95935761513171
 30
0.0
 11
-10.51514692305543
 21
67.9632908543384
 31
0.0
  0
LINE
  5
A2
330
1F
100
AcDbEntity
  8
0
100
AcDbLine
 10
-12.82741844917643
 20
67.27380268614905
 30
0.0
 11
-10.6274186251762
 21
63.4632912143384
 31
0.0
  0
LINE
  5
A3
330
1F
100
AcDbEntity
  8
0
100
AcDbLine
 10
36.48514108652103
 20
-46.98821335588126
 30
0.0
 11
36.38524067200832
 21
-47.22939429148423
 31
0.0
  0
LINE
  5
A4
330
1F
100
AcDbEntity
  8
0
100
AcDbLine
 10
36.38524067200832
 20
-47.22939429148423
 30
0.0
 11
36.22632206212383
 21
-47.43650105610222
 31
0.0
  0
LINE
  5
A5
330
1F
100
AcDbEntity
  8
0
100
AcDbLine
 10
123.4762217431701
 20
-29.85460257730504
 30
0.0
 11
123.4762217431701
 21
48.17395601963613
 31
0.0
  0
LINE
  5
A6
330
1F
100
AcDbEntity
  8
0
100
AcDbLine
 10
68.47622614316977
 20
-29.85460257730504
 30
0.0
 11
123.4762217431701
 21
-29.85460257730504
 31
0.0
  0
LINE
  5
A7
330
1F
100
AcDbEntity
  8
0
100
AcDbLine
 10
68.47622614316977
 20
48.17395601963613
 30
0.0
 11
68.47622614316977
 21
-29.85460257730504
 31
0.0
  0
LINE
  5
A8
330
1F
100
AcDbEntity
  8
0
100
AcDbLine
 10
85.35876370174633
 20
-16.77602863322179
 30
0.0
 11
96.35875782563251
 21
-16.77602863322152
 31
0.0
  0
LINE
  5
A9
330
1F
100
AcDbEntity
  8
0
100
AcDbLine
 10
96.35875782563251
 20
-16.77602863322152
 30
0.0
 11
96.35875782563305
 21
33.2239470644959
 31
0.0
  0
LINE
  5
AA
330
1F
100
AcDbEntity
  8
0
100
AcDbLine
 10
96.35875782563305
 20
33.2239470644959
 30
0.0
 11
85.35876370174705
 21
33.2239470644959
 31
0.0
  0
LINE
  5
AB
330
1F
100
AcDbEntity
  8
0
100
AcDbLine
 10
85.35876370174705
 20
33.2239470644959
 30
0.0
 11
85.35876370174633
 21
-16.77602863322179
 31
0.0
  0
LINE
  5
AC
330
1F
100
AcDbEntity
  8
0
100
AcDbLine
 10
73.27622575916979
 20
-24.92603813236284
 30
0.0
 11
73.27622575916979
 21
-18.32603866036281
 31
0.0
  0
LINE
  5
AD
330
1F
100
AcDbEntity
  8
0
100
AcDbLine
 10
80.27622519916987
 20
-24.92603813236284
 30
0.0
 11
73.27622575916979
 21
-24.92603813236284
 31
0.0
  0
LINE
  5
AE
330
1F
100
AcDbEntity
  8
0
100
AcDbLine
 10
80.27622519916987
 20
-18.32603866036281
 30
0.0
 11
80.27622519916987
 21
-24.92603813236284
 31
0.0
  0
LINE
  5
AF
330
1F
100
AcDbEntity
  8
0
100
AcDbLine
 10
73.27622575916979
 20
-18.32603866036281
 30
0.0
 11
80.27622519916987
 21
-18.32603866036281
 31
0.0
  0
LINE
  5
B0
330
1F
100
AcDbEntity
  8
0
100
AcDbLine
 10
115.4762223831695
 20
-18.32603866036313
 30
0.0
 11
115.4762223831695
 21
-25.12603811636316
 31
0.0
  0
LINE
  5
B1
330
1F
100
AcDbEntity
  8
0
100
AcDbLine
 10
-96.71526647867196
 20
12.15624457761126
 30
0.0
 11
-97.22637904344695
 21
8.273959211656173
 31
0.0
  0
LINE
  5
B2
330
1F
100
AcDbEntity
  8
0
100
AcDbLine
 10
-95.21676026098298
 20
15.77395861165624
 30
0.0
 11
-96.71526647867196
 21
12.15624457761126
 31
0.0
  0
LINE
  5
B3
330
1F
100
AcDbEntity
  8
0
100
AcDbLine
 10
-92.83298111271696
 20
18.88056008092626
 30
0.0
 11
-95.21676026098298
 21
15.77395861165624
 31
0.0
  0
LINE
  5
B4
330
1F
100
AcDbEntity
  8
0
100
AcDbLine
 10
-89.7263796434468
 20
21.26433922919228
 30
0.0
 11
-92.83298111271696
 21
18.88056008092626
 31
0.0
  0
LINE
  5
B5
330
1F
100
AcDbEntity
  8
0
100
AcDbLine
 10
-47.14833614049903
 20
-12.73751365494175
 30
0.0
 11
-46.78197240017126
 21
-13.03175542643551
 31
0.0
  0
LINE
  5
B6
330
1F
100
AcDbEntity
  8
0
100
AcDbLine
 10
-46.78197240017126
 20
-13.03175542643551
 30
0.0
 11
-46.50424757590002
 21
-13.41079306612618
 31
0.0
  0
LINE
  5
B7
330
1F
100
AcDbEntity
  8
0
100
AcDbLine
 10
-46.50424757590002
 20
-13.41079306612618
 30
0.0
 11
-46.3340881554976
 21
-13.84879578525822
 31
0.0
  0
LINE
  5
B8
330
1F
100
AcDbEntity
  8
0
100
AcDbLine
 10
-90.1407389642427
 20
-8.026039484343835
 30
0.0
 11
-89.98089830102288
 21
-7.640149987379321
 31
0.0
  0
LINE
  5
B9
330
1F
100
AcDbEntity
  8
0
100
AcDbLine
 10
-90.39500874005792
 20
-8.357410307732865
 30
0.0
 11
-90.1407389642427
 21
-8.026039484343835
 31
0.0
  0
LINE
  5
BA
330
1F
100
AcDbEntity
  8
0
100
AcDbLine
 10
-6.54852594722875
 20
-6.487373120136041
 30
0.0
 11
-6.082651703314127
 21
-6.426039612363049
 31
0.0
  0
LINE
  5
BB
330
1F
100
AcDbEntity
  8
0
100
AcDbLine
 10
-52.14861820192408
 20
62.99741697042379
 30
0.0
 11
-52.20995170969721
 21
63.4632912143384
 31
0.0
  0
LINE
  5
BC
330
1F
100
AcDbEntity
  8
0
100
AcDbLine
 10
-19.80995430169607
 20
74.56329032633847
 30
0.0
 11
-43.30995242169647
 21
74.56329032633847
 31
0.0
  0
LINE
  5
BD
330
1F
100
AcDbEntity
  8
0
100
AcDbLine
 10
-2.137163509384231
 20
64.73608331865088
 30
0.0
 11
-1.85111001159241
 21
64.36329114233848
 31
0.0
  0
LINE
  5
BE
330
1F
100
AcDbEntity
  8
0
100
AcDbLine
 10
-7.409955293696102
 20
82.56328968633852
 30
0.0
 11
0.5900440663039354
 21
82.56328968633852
 31
0.0
  0
LINE
  5
BF
330
1F
100
AcDbEntity
  8
0
100
AcDbLine
 10
-5.509956994339873
 20
74.55935504504225
 30
0.0
 11
-5.515148870092734
 21
67.95935761513171
 31
0.0
  0
LINE
  5
C0
330
1F
100
AcDbEntity
  8
0
100
AcDbLine
 10
0.5900440663037549
 20
58.96329157433841
 30
0.0
 11
0.5900440663039354
 21
82.56328968633852
 31
0.0
  0
LINE
  5
C1
330
1F
100
AcDbEntity
  8
0
100
AcDbLine
 10
-9.543529738385018
 20
-36.59785084278375
 30
0.0
 11
-9.284710713988007
 21
-36.63192501376873
 31
0.0
  0
LINE
  5
C2
330
1F
100
AcDbEntity
  8
0
100
AcDbLine
 10
-52.8163184826986
 20
-61.02505668247145
 30
0.0
 11
-52.44352630638601
 21
-60.73900318467953
 31
0.0
  0
LINE
  5
C3
330
1F
100
AcDbEntity
  8
0
100
AcDbLine
 10
-13.96099297386539
 20
-58.48733731497328
 30
0.0
 11
-11.76099314986516
 21
-62.29784878678393
 31
0.0
  0
LINE
  5
C4
330
1F
100
AcDbEntity
  8
0
100
AcDbLine
 10
-18.36099262186532
 20
-58.48733731497328
 30
0.0
 11
-13.96099297386539
 21
-58.48733731497328
 31
0.0
  0
LINE
  5
C5
330
1F
100
AcDbEntity
  8
0
100
AcDbLine
 10
-18.36099262186514
 20
-66.10836025859457
 30
0.0
 11
-20.56099244586538
 21
-62.29784878678393
 31
0.0
  0
LINE
  5
C6
330
1F
100
AcDbEntity
  8
0
100
AcDbLine
 10
-13.96099297386521
 20
-66.10836025859457
 30
0.0
 11
-18.36099262186514
 21
-66.10836025859457
 31
0.0
  0
LINE
  5
C7
330
1F
100
AcDbEntity
  8
0
100
AcDbLine
 10
-11.76099314986516
 20
-62.29784878678393
 30
0.0
 11
-13.96099297386521
 21
-66.10836025859457
 31
0.0
  0
LINE
  5
C8
330
1F
100
AcDbEntity
  8
0
100
AcDbLine
 10
-46.40995217369651
 20
88.16328923833855
 30
0.0
 11
-46.40995217369651
 21
82.56328968633852
 31
0.0
  0
LINE
  5
C9
330
1F
100
AcDbEntity
  8
0
100
AcDbLine
 10
115.4762223831695
 20
-25.12603811636316
 30
0.0
 11
100.1639481841573
 21
-25.12603811636316
 31
0.0
  0
LINE
  5
CA
330
1F
100
AcDbEntity
  8
0
100
AcDbLine
 10
115.4762223831699
 20
34.77395709163702
 30
0.0
 11
115.4762223831699
 21
41.57395654763705
 31
0.0
  0
LINE
  5
CB
330
1F
100
AcDbEntity
  8
0
100
AcDbLine
 10
71.93960008279134
 20
-15.2134722147673
 30
0.0
 11
71.74933375893092
 21
-14.78382196593295
 31
0.0
  0
LINE
  5
CC
330
1F
100
AcDbEntity
  8
0
100
AcDbLine
 10
72.2345849060123
 20
-15.57923793813128
 30
0.0
 11
71.93960008279134
 21
-15.2134722147673
 31
0.0
  0
LINE
  5
CD
330
1F
100
AcDbEntity
  8
0
100
AcDbLine
 10
72.6141855003773
 20
-15.85619280643401
 30
0.0
 11
72.2345849060123
 21
-15.57923793813128
 31
0.0
  0
LINE
  5
CE
330
1F
100
AcDbEntity
  8
0
100
AcDbLine
 10
73.98400872473994
 20
-16.00293096860145
 30
0.0
 11
73.51975390486274
 21
-16.07551245755979
 31
0.0
  0
LINE
  5
CF
330
1F
100
AcDbEntity
  8
0
100
AcDbLine
 10
74.41365897357443
 20
-15.81266464474116
 30
0.0
 11
73.98400872473994
 21
-16.00293096860145
 31
0.0
  0
LINE
  5
D0
330
1F
100
AcDbEntity
  8
0
100
AcDbLine
 10
-49.50995192569709
 20
61.90444561223401
 30
0.0
 11
-49.94407760978245
 21
61.7246248661113
 31
0.0
  0
LINE
  5
D1
330
1F
100
AcDbEntity
  8
0
100
AcDbLine
 10
-52.14861820192408
 20
63.92916545825303
 30
0.0
 11
-51.96879745580146
 21
64.36329114233848
 31
0.0
  0
LINE
  5
D2
330
1F
100
AcDbEntity
  8
0
100
AcDbLine
 10
-90.40994865369707
 20
88.16328923833855
 30
0.0
 11
-90.44402282468197
 21
88.42210826273555
 31
0.0
  0
LINE
  5
D3
330
1F
100
AcDbEntity
  8
0
100
AcDbLine
 10
-17.40995449369624
 20
88.16328923833855
 30
0.0
 11
-17.37588032271135
 21
88.42210826273555
 31
0.0
  0
LINE
  5
D4
330
1F
100
AcDbEntity
  8
0
100
AcDbLine
 10
-17.37588032271135
 20
88.42210826273555
 30
0.0
 11
-17.27597990819864
 21
88.66328919833852
 31
0.0
  0
LINE
  5
D5
330
1F
100
AcDbEntity
  8
0
100
AcDbLine
 10
-17.27597990819864
 20
88.66328919833852
 30
0.0
 11
-17.11706129831433
 21
88.87039596295651
 31
0.0
  0
LINE
  5
D6
330
1F
100
AcDbEntity
  8
0
100
AcDbLine
 10
-17.11706129831433
 20
88.87039596295651
 30
0.0
 11
-16.90995453369635
 21
89.02931457284099
 31
0.0
  0
LINE
  5
D7
330
1F
100
AcDbEntity
  8
0
100
AcDbLine
 10
-16.90995453369635
 20
89.02931457284099
 30
0.0
 11
-16.66877359809329
 21
89.12921498735352
 31
0.0
  0
LINE
  5
D8
330
1F
100
AcDbEntity
  8
0
100
AcDbLine
 10
-50.54352645838462
 20
-72.397847978784
 30
0.0
 11
-50.54352645838462
 21
-66.79784842678393
 31
0.0
  0
LINE
  5
D9
330
1F
100
AcDbEntity
  8
0
100
AcDbLine
 10
-50.54352645838462
 20
-72.397847978784
 30
0.0
 11
-50.50945228739973
 21
-72.65666700318101
 31
0.0
  0
LINE
  5
DA
330
1F
100
AcDbEntity
  8
0
100
AcDbLine
 10
-50.50945228739973
 20
-72.65666700318101
 30
0.0
 11
-50.40955187288702
 21
-72.89784793878403
 31
0.0
  0
LINE
  5
DB
330
1F
100
AcDbEntity
  8
0
100
AcDbLine
 10
-50.40955187288702
 20
-72.89784793878403
 30
0.0
 11
-50.25063326300272
 21
-73.10495470340202
 31
0.0
  0
LINE
  5
DC
330
1F
100
AcDbEntity
  8
0
100
AcDbLine
 10
-50.25063326300272
 20
-73.10495470340202
 30
0.0
 11
-50.04352649838473
 21
-73.26387331328641
 31
0.0
  0
LINE
  5
DD
330
1F
100
AcDbEntity
  8
0
100
AcDbLine
 10
-91.67749776388364
 20
-37.09785080278373
 30
0.0
 11
-91.57759734937092
 21
-37.33903173838674
 31
0.0
  0
LINE
  5
DE
330
1F
100
AcDbEntity
  8
0
100
AcDbLine
 10
-91.83641637376793
 20
-36.89074403816574
 30
0.0
 11
-91.67749776388364
 21
-37.09785080278373
 31
0.0
  0
LINE
  5
DF
330
1F
100
AcDbEntity
  8
0
100
AcDbLine
 10
-92.04352313838592
 20
-36.73182542828135
 30
0.0
 11
-91.83641637376793
 21
-36.89074403816574
 31
0.0
  0
LINE
  5
E0
330
1F
100
AcDbEntity
  8
0
100
AcDbLine
 10
-92.28470407398898
 20
-36.63192501376873
 30
0.0
 11
-92.04352313838592
 21
-36.73182542828135
 31
0.0
  0
LINE
  5
E1
330
1F
100
AcDbEntity
  8
0
100
AcDbLine
 10
-92.54352309838599
 20
-36.59785084278375
 30
0.0
 11
-92.28470407398898
 21
-36.63192501376873
 31
0.0
  0
LINE
  5
E2
330
1F
100
AcDbEntity
  8
0
100
AcDbLine
 10
114.3970911572226
 20
62.35807846711168
 30
0.0
 11
114.769883333535
 21
62.64413196490359
 31
0.0
  0
LINE
  5
E3
330
1F
100
AcDbEntity
  8
0
100
AcDbLine
 10
-7.409955293696102
 20
88.16328923833855
 30
0.0
 11
-7.409955293696102
 21
82.56328968633852
 31
0.0
  0
LINE
  5
E4
330
1F
100
AcDbEntity
  8
0
100
AcDbLine
 10
-45.66877127809356
 20
89.12921498735352
 30
0.0
 11
-45.40995225369655
 21
89.1632891583386
 31
0.0
  0
LINE
  5
E5
330
1F
100
AcDbEntity
  8
0
100
AcDbLine
 10
-7.409955293696102
 20
88.16328923833855
 30
0.0
 11
-7.444029464680993
 21
88.42210826273555
 31
0.0
  0
LINE
  5
E6
330
1F
100
AcDbEntity
  8
0
100
AcDbLine
 10
-7.444029464680993
 20
88.42210826273555
 30
0.0
 11
-7.5439298791937
 21
88.66328919833852
 31
0.0
  0
LINE
  5
E7
330
1F
100
AcDbEntity
  8
0
100
AcDbLine
 10
-7.5439298791937
 20
88.66328919833852
 30
0.0
 11
-7.702848489078005
 21
88.87039596295651
 31
0.0
  0
LINE
  5
E8
330
1F
100
AcDbEntity
  8
0
100
AcDbLine
 10
-7.702848489078005
 20
88.87039596295651
 30
0.0
 11
-7.909955253695991
 21
89.02931457284099
 31
0.0
  0
LINE
  5
E9
330
1F
100
AcDbEntity
  8
0
100
AcDbLine
 10
-7.909955253695991
 20
89.02931457284099
 30
0.0
 11
-8.151136189299049
 21
89.12921498735352
 31
0.0
  0
LINE
  5
EA
330
1F
100
AcDbEntity
  8
0
100
AcDbLine
 10
31.48514148652087
 20
-30.97057654708724
 30
0.0
 11
31.38524107200834
 21
-30.72939561148427
 31
0.0
  0
LINE
  5
EB
330
1F
100
AcDbEntity
  8
0
100
AcDbLine
 10
29.619215809506
 20
-42.72939465148423
 30
0.0
 11
29.619215809506
 21
-46.72939433148425
 31
0.0
  0
LINE
  5
EC
330
1F
100
AcDbEntity
  8
0
100
AcDbLine
 10
29.65328998049107
 20
-46.98821335588126
 30
0.0
 11
29.7531903950036
 21
-47.22939429148423
 31
0.0
  0
LINE
  5
ED
330
1F
100
AcDbEntity
  8
0
100
AcDbLine
 10
13.41922210162006
 20
-42.72939465148423
 30
0.0
 11
29.619215809506
 21
-42.72939465148423
 31
0.0
  0
LINE
  5
EE
330
1F
100
AcDbEntity
  8
0
100
AcDbLine
 10
11.55075809317398
 20
-35.22939525148426
 30
0.0
 11
11.55075809317398
 21
-31.22939557148425
 31
0.0
  0
LINE
  5
EF
330
1F
100
AcDbEntity
  8
0
100
AcDbLine
 10
11.85625074214821
 20
-13.04004901409249
 30
0.0
 11
12.22152693135836
 21
-12.74445822276973
 31
0.0
  0
LINE
  5
F0
330
1F
100
AcDbEntity
  8
0
100
AcDbLine
 10
8.16150672118995
 20
34.77046839933214
 30
0.0
 11
8.16150672118995
 21
-18.32952735266801
 31
0.0
  0
LINE
  5
F1
330
1F
100
AcDbEntity
  8
0
100
AcDbLine
 10
52.2600802893966
 20
34.77046839933178
 30
0.0
 11
42.76150395319133
 21
34.77046839933178
 31
0.0
  0
LINE
  5
F2
330
1F
100
AcDbEntity
  8
0
100
AcDbLine
 10
53.60265735908636
 20
25.57046913533165
 30
0.0
 11
53.88871085687836
 21
25.94326131164423
 31
0.0
  0
LINE
  5
F3
330
1F
100
AcDbEntity
  8
0
100
AcDbLine
 10
53.88871085687836
 20
25.94326131164423
 30
0.0
 11
54.2615030331906
 21
26.22931480943606
 31
0.0
  0
LINE
  5
F4
330
1F
100
AcDbEntity
  8
0
100
AcDbLine
 10
12.94404524776666
 20
-10.22952800066803
 30
0.0
 11
12.94404524776666
 21
-3.929528504667982
 31
0.0
  0
LINE
  5
F5
330
1F
100
AcDbEntity
  8
0
100
AcDbLine
 10
116.3762223111704
 20
26.23280350174148
 30
0.0
 11
116.749014487483
 21
25.94675000394956
 31
0.0
  0
LINE
  5
F6
330
1F
100
AcDbEntity
  8
0
100
AcDbLine
 10
117.2148887313974
 20
24.20808365572246
 30
0.0
 11
117.0350679852748
 21
23.7739579716371
 31
0.0
  0
LINE
  5
F7
330
1F
100
AcDbEntity
  8
0
100
AcDbLine
 10
117.0350679852748
 20
23.7739579716371
 30
0.0
 11
116.749014487483
 21
23.4011657953246
 31
0.0
  0
LINE
  5
F8
330
1F
100
AcDbEntity
  8
0
100
AcDbLine
 10
116.749014487483
 20
23.4011657953246
 30
0.0
 11
116.3762223111704
 21
23.11511229753268
 31
0.0
  0
LINE
  5
F9
330
1F
100
AcDbEntity
  8
0
100
AcDbLine
 10
116.3762223111704
 20
23.11511229753268
 30
0.0
 11
115.942096627085
 21
22.93529155141006
 31
0.0
  0
LINE
  5
FA
330
1F
100
AcDbEntity
  8
0
100
AcDbLine
 10
115.942096627085
 20
22.93529155141006
 30
0.0
 11
115.4762223831704
 21
22.87395804363703
 31
0.0
  0
LINE
  5
FB
330
1F
100
AcDbEntity
  8
0
100
AcDbLine
 10
115.4762223831704
 20
22.87395804363703
 30
0.0
 11
115.0103481392558
 21
22.93529155141006
 31
0.0
  0
LINE
  5
FC
330
1F
100
AcDbEntity
  8
0
100
AcDbLine
 10
115.0103481392558
 20
22.93529155141006
 30
0.0
 11
114.5762224551704
 21
23.11511229753268
 31
0.0
  0
LINE
  5
FD
330
1F
100
AcDbEntity
  8
0
100
AcDbLine
 10
114.5762224551704
 20
23.11511229753268
 30
0.0
 11
114.2034302788578
 21
23.4011657953246
 31
0.0
  0
LINE
  5
FE
330
1F
100
AcDbEntity
  8
0
100
AcDbLine
 10
114.2034302788578
 20
23.4011657953246
 30
0.0
 11
113.917376781066
 21
23.77395797163701
 31
0.0
  0
LINE
  5
FF
330
1F
100
AcDbEntity
  8
0
100
AcDbLine
 10
115.2040090176204
 20
59.34662001457236
 30
0.0
 11
114.769883333535
 21
59.52644076069499
 31
0.0
  0
LINE
  5
100
330
1F
100
AcDbEntity
  8
0
100
AcDbLine
 10
115.669883261535
 20
59.28528650679932
 30
0.0
 11
115.2040090176204
 21
59.34662001457236
 31
0.0
  0
LINE
  5
101
330
1F
100
AcDbEntity
  8
0
100
AcDbLine
 10
116.1357575054496
 20
59.34662001457236
 30
0.0
 11
115.669883261535
 21
59.28528650679932
 31
0.0
  0
LINE
  5
102
330
1F
100
AcDbEntity
  8
0
100
AcDbLine
 10
90.0698853095347
 20
66.28143836981373
 30
0.0
 11
91.31252589724262
 21
65.32792671050736
 31
0.0
  0
LINE
  5
103
330
1F
100
AcDbEntity
  8
0
100
AcDbLine
 10
87.06988554953463
 20
67.08528588279931
 30
0.0
 11
88.62279969591671
 21
66.88084085688934
 31
0.0
  0
LINE
  5
104
330
1F
100
AcDbEntity
  8
0
100
AcDbLine
 10
85.51697140315257
 20
66.88084085688934
 30
0.0
 11
87.06988554953463
 21
67.08528588279931
 31
0.0
  0
LINE
  5
105
330
1F
100
AcDbEntity
  8
0
100
AcDbLine
 10
84.06988578953458
 20
66.28143836981373
 30
0.0
 11
85.51697140315257
 21
66.88084085688934
 31
0.0
  0
LINE
  5
106
330
1F
100
AcDbEntity
  8
0
100
AcDbLine
 10
82.82724520182666
 20
65.32792671050736
 30
0.0
 11
84.06988578953458
 21
66.28143836981373
 31
0.0
  0
LINE
  5
107
330
1F
100
AcDbEntity
  8
0
100
AcDbLine
 10
81.8737335425201
 20
64.08528612279926
 30
0.0
 11
82.82724520182666
 21
65.32792671050736
 31
0.0
  0
LINE
  5
108
330
1F
100
AcDbEntity
  8
0
100
AcDbLine
 10
81.27433105544459
 20
62.63820050918127
 30
0.0
 11
81.8737335425201
 21
64.08528612279926
 31
0.0
  0
LINE
  5
109
330
1F
100
AcDbEntity
  8
0
100
AcDbLine
 10
81.06988602953452
 20
61.08528636279929
 30
0.0
 11
81.27433105544459
 21
62.63820050918127
 31
0.0
  0
LINE
  5
10A
330
1F
100
AcDbEntity
  8
0
100
AcDbLine
 10
81.06988602953452
 20
61.08528636279929
 30
0.0
 11
81.06988602953452
 21
56.58528672279929
 31
0.0
  0
LINE
  5
10B
330
1F
100
AcDbEntity
  8
0
100
AcDbLine
 10
-90.40994865369707
 20
88.16328923833855
 30
0.0
 11
-90.40994865369707
 21
82.56328968633852
 31
0.0
  0
LINE
  5
10C
330
1F
100
AcDbEntity
  8
0
100
AcDbLine
 10
-16.66877359809329
 20
89.12921498735352
 30
0.0
 11
-16.40995457369628
 21
89.1632891583386
 31
0.0
  0
LINE
  5
10D
330
1F
100
AcDbEntity
  8
0
100
AcDbLine
 10
-91.40994857369704
 20
89.1632891583386
 30
0.0
 11
-99.40994793369725
 21
89.1632891583386
 31
0.0
  0
LINE
  5
10E
330
1F
100
AcDbEntity
  8
0
100
AcDbLine
 10
-91.15112954930002
 20
89.12921498735352
 30
0.0
 11
-91.40994857369704
 21
89.1632891583386
 31
0.0
  0
LINE
  5
10F
330
1F
100
AcDbEntity
  8
0
100
AcDbLine
 10
11.55075809317398
 20
-35.22939525148426
 30
0.0
 11
6.55075849317382
 21
-35.22939525148426
 31
0.0
  0
LINE
  5
110
330
1F
100
AcDbEntity
  8
0
100
AcDbLine
 10
12.55075801317394
 20
-30.2293956514842
 30
0.0
 11
30.51921573750598
 21
-30.2293956514842
 31
0.0
  0
LINE
  5
111
330
1F
100
AcDbEntity
  8
0
100
AcDbLine
 10
12.05075805317387
 20
-30.3633702369818
 30
0.0
 11
12.29193898877693
 21
-30.26346982246927
 31
0.0
  0
LINE
  5
112
330
1F
100
AcDbEntity
  8
0
100
AcDbLine
 10
11.6847326786714
 20
-30.72939561148427
 30
0.0
 11
11.84365128855588
 21
-30.52228884686628
 31
0.0
  0
LINE
  5
113
330
1F
100
AcDbEntity
  8
0
100
AcDbLine
 10
11.58483226415905
 20
-30.97057654708724
 30
0.0
 11
11.6847326786714
 21
-30.72939561148427
 31
0.0
  0
LINE
  5
114
330
1F
100
AcDbEntity
  8
0
100
AcDbLine
 10
11.55075809317398
 20
-31.22939557148425
 30
0.0
 11
11.58483226415905
 21
-30.97057654708724
 31
0.0
  0
LINE
  5
115
330
1F
100
AcDbEntity
  8
0
100
AcDbLine
 10
6.684733078671418
 20
-47.22939429148423
 30
0.0
 11
6.584832664158892
 21
-46.98821335588126
 31
0.0
  0
LINE
  5
116
330
1F
100
AcDbEntity
  8
0
100
AcDbLine
 10
7.550758413173781
 20
-47.7293942514843
 30
0.0
 11
12.41922218161992
 21
-47.7293942514843
 31
0.0
  0
LINE
  5
117
330
1F
100
AcDbEntity
  8
0
100
AcDbLine
 10
13.38514793063499
 20
-46.98821335588126
 30
0.0
 11
13.28524751612228
 21
-47.22939429148423
 31
0.0
  0
LINE
  5
118
330
1F
100
AcDbEntity
  8
0
100
AcDbLine
 10
13.41922210162006
 20
-46.72939433148425
 30
0.0
 11
13.38514793063499
 21
-46.98821335588126
 31
0.0
  0
LINE
  5
119
330
1F
100
AcDbEntity
  8
0
100
AcDbLine
 10
29.91210900488808
 20
-47.43650105610222
 30
0.0
 11
30.11921576950607
 21
-47.5954196659867
 31
0.0
  0
LINE
  5
11A
330
1F
100
AcDbEntity
  8
0
100
AcDbLine
 10
30.11921576950607
 20
-47.5954196659867
 30
0.0
 11
30.36039670510912
 21
-47.69532008049923
 31
0.0
  0
LINE
  5
11B
330
1F
100
AcDbEntity
  8
0
100
AcDbLine
 10
30.36039670510912
 20
-47.69532008049923
 30
0.0
 11
30.61921572950596
 21
-47.7293942514843
 31
0.0
  0
LINE
  5
11C
330
1F
100
AcDbEntity
  8
0
100
AcDbLine
 10
30.61921572950596
 20
-47.7293942514843
 30
0.0
 11
35.51921533750595
 21
-47.7293942514843
 31
0.0
  0
LINE
  5
11D
330
1F
100
AcDbEntity
  8
0
100
AcDbLine
 10
35.77803436190297
 20
-47.69532008049923
 30
0.0
 11
35.51921533750595
 21
-47.7293942514843
 31
0.0
  0
LINE
  5
11E
330
1F
100
AcDbEntity
  8
0
100
AcDbLine
 10
36.01921529750584
 20
-47.5954196659867
 30
0.0
 11
35.77803436190297
 21
-47.69532008049923
 31
0.0
  0
LINE
  5
11F
330
1F
100
AcDbEntity
  8
0
100
AcDbLine
 10
36.22632206212383
 20
-47.43650105610222
 30
0.0
 11
36.01921529750584
 21
-47.5954196659867
 31
0.0
  0
LINE
  5
120
330
1F
100
AcDbEntity
  8
0
100
AcDbLine
 10
36.5192152575061
 20
-46.72939433148425
 30
0.0
 11
36.48514108652103
 21
-46.98821335588126
 31
0.0
  0
LINE
  5
121
330
1F
100
AcDbEntity
  8
0
100
AcDbLine
 10
31.51921565750594
 20
-35.22939525148426
 30
0.0
 11
36.5192152575061
 21
-35.22939525148426
 31
0.0
  0
LINE
  5
122
330
1F
100
AcDbEntity
  8
0
100
AcDbLine
 10
31.51921565750594
 20
-31.22939557148425
 30
0.0
 11
31.51921565750594
 21
-35.22939525148426
 31
0.0
  0
LINE
  5
123
330
1F
100
AcDbEntity
  8
0
100
AcDbLine
 10
31.51921565750594
 20
-31.22939557148425
 30
0.0
 11
31.48514148652087
 21
-30.97057654708724
 31
0.0
  0
LINE
  5
124
330
1F
100
AcDbEntity
  8
0
100
AcDbLine
 10
31.38524107200834
 20
-30.72939561148427
 30
0.0
 11
31.22632246212385
 21
-30.52228884686628
 31
0.0
  0
LINE
  5
125
330
1F
100
AcDbEntity
  8
0
100
AcDbLine
 10
31.22632246212385
 20
-30.52228884686628
 30
0.0
 11
31.01921569750587
 21
-30.3633702369818
 31
0.0
  0
LINE
  5
126
330
1F
100
AcDbEntity
  8
0
100
AcDbLine
 10
31.01921569750587
 20
-30.3633702369818
 30
0.0
 11
30.77803476190281
 21
-30.26346982246927
 31
0.0
  0
LINE
  5
127
330
1F
100
AcDbEntity
  8
0
100
AcDbLine
 10
30.77803476190281
 20
-30.26346982246927
 30
0.0
 11
30.51921573750598
 21
-30.2293956514842
 31
0.0
  0
LINE
  5
128
330
1F
100
AcDbEntity
  8
0
100
AcDbLine
 10
-109.5435217383862
 20
-43.19785031478382
 30
0.0
 11
-109.5435217383862
 21
-48.19784991478389
 31
0.0
  0
LINE
  5
129
330
1F
100
AcDbEntity
  8
0
100
AcDbLine
 10
-53.10237198049042
 20
-63.197848714784
 30
0.0
 11
-53.28219272661304
 21
-62.76372303069855
 31
0.0
  0
LINE
  5
12A
330
1F
100
AcDbEntity
  8
0
100
AcDbLine
 10
-5.009404382300205
 20
-64.03651513501104
 30
0.0
 11
-5.443530066385564
 21
-63.85669438888832
 31
0.0
  0
LINE
  5
12B
330
1F
100
AcDbEntity
  8
0
100
AcDbLine
 10
-2.74353028238562
 20
-62.29784878678393
 30
0.0
 11
-2.804863790158568
 21
-62.76372303069855
 31
0.0
  0
LINE
  5
12C
330
1F
100
AcDbEntity
  8
0
100
AcDbLine
 10
-49.80486003015901
 20
-61.83197454286931
 30
0.0
 11
-49.74352652238588
 21
-62.29784878678393
 31
0.0
  0
LINE
  5
12D
330
1F
100
AcDbEntity
  8
0
100
AcDbLine
 10
-8.743529802385197
 20
-66.79784842678393
 30
0.0
 11
-8.743529802385376
 21
-72.39784797878404
 31
0.0
  0
LINE
  5
12E
330
1F
100
AcDbEntity
  8
0
100
AcDbLine
 10
-4.07765589447096
 20
-60.55918243855683
 30
0.0
 11
-3.643530210385601
 21
-60.73900318467953
 31
0.0
  0
LINE
  5
12F
330
1F
100
AcDbEntity
  8
0
100
AcDbLine
 10
-51.07765213447141
 20
-64.03651513501104
 30
0.0
 11
-51.54352637838603
 21
-64.09784864278399
 31
0.0
  0
LINE
  5
130
330
1F
100
AcDbEntity
  8
0
100
AcDbLine
 10
-52.44352630638601
 20
-63.85669438888832
 30
0.0
 11
-52.8163184826986
 21
-63.57064089109642
 31
0.0
  0
LINE
  5
131
330
1F
100
AcDbEntity
  8
0
100
AcDbLine
 10
-86.10866560940165
 20
-6.214927023568953
 30
0.0
 11
-82.22638024344666
 21
-6.726039588343942
 31
0.0
  0
LINE
  5
132
330
1F
100
AcDbEntity
  8
0
100
AcDbLine
 10
-89.7263796434468
 20
-4.716420805880064
 30
0.0
 11
-86.10866560940165
 21
-6.214927023568953
 31
0.0
  0
LINE
  5
133
330
1F
100
AcDbEntity
  8
0
100
AcDbLine
 10
-92.83298111271696
 20
-2.332641657614043
 30
0.0
 11
-89.7263796434468
 21
-4.716420805880064
 31
0.0
  0
LINE
  5
134
330
1F
100
AcDbEntity
  8
0
100
AcDbLine
 10
-86.10866560940165
 20
22.76284544688126
 30
0.0
 11
-89.7263796434468
 21
21.26433922919228
 31
0.0
  0
LINE
  5
135
330
1F
100
AcDbEntity
  8
0
100
AcDbLine
 10
-82.22638024344666
 20
23.27395801165625
 30
0.0
 11
-86.10866560940165
 21
22.76284544688126
 31
0.0
  0
LINE
  5
136
330
1F
100
AcDbEntity
  8
0
100
AcDbLine
 10
-82.22638024344666
 20
23.27395801165625
 30
0.0
 11
-76.02638073944658
 21
23.27395801165625
 31
0.0
  0
LINE
  5
137
330
1F
100
AcDbEntity
  8
0
100
AcDbLine
 10
-91.11226906041136
 20
-5.680558349920209
 30
0.0
 11
-91.52637949944658
 21
-5.626039676344275
 31
0.0
  0
LINE
  5
138
330
1F
100
AcDbEntity
  8
0
100
AcDbLine
 10
-90.72637956344659
 20
-5.840399013140215
 30
0.0
 11
-91.11226906041136
 21
-5.680558349920209
 31
0.0
  0
LINE
  5
139
330
1F
100
AcDbEntity
  8
0
100
AcDbLine
 10
-47.65540514421028
 20
-16.02459917217993
 30
0.0
 11
-48.12252378130847
 21
-16.07559710541503
 31
0.0
  0
LINE
  5
13A
330
1F
100
AcDbEntity
  8
0
100
AcDbLine
 10
-48.12252378130847
 20
-16.07559710541503
 30
0.0
 11
-48.58692497320475
 21
-16.0039581266108
 31
0.0
  0
LINE
  5
13B
330
1F
100
AcDbEntity
  8
0
100
AcDbLine
 10
-48.58692497320475
 20
-16.0039581266108
 30
0.0
 11
-49.01696054613052
 21
-15.81456431378376
 31
0.0
  0
LINE
  5
13C
330
1F
100
AcDbEntity
  8
0
100
AcDbLine
 10
-49.01696054613052
 20
-15.81456431378376
 30
0.0
 11
-49.38332428645828
 21
-15.52032254229
 31
0.0
  0
LINE
  5
13D
330
1F
100
AcDbEntity
  8
0
100
AcDbLine
 10
-49.38332428645828
 20
-15.52032254229
 30
0.0
 11
-49.66104911072952
 21
-15.14128490259933
 31
0.0
  0
LINE
  5
13E
330
1F
100
AcDbEntity
  8
0
100
AcDbLine
 10
-46.54412301389733
 20
31.65826961845888
 30
0.0
 11
-46.35472920106858
 21
31.22823404553384
 31
0.0
  0
LINE
  5
13F
330
1F
100
AcDbEntity
  8
0
100
AcDbLine
 10
42.76150395319133
 20
34.77046839933178
 30
0.0
 11
42.76150395319151
 21
39.77046799933175
 31
0.0
  0
LINE
  5
140
330
1F
100
AcDbEntity
  8
0
100
AcDbLine
 10
36.04403840365342
 20
26.67046904733176
 30
0.0
 11
36.04403840365342
 21
33.22045837219049
 31
0.0
  0
LINE
  5
141
330
1F
100
AcDbEntity
  8
0
100
AcDbLine
 10
36.04403840365342
 20
26.67046904733176
 30
0.0
 11
43.11250199609944
 21
26.67046904733176
 31
0.0
  0
LINE
  5
142
330
1F
100
AcDbEntity
  8
0
100
AcDbLine
 10
36.04403840365288
 20
-3.929528504668343
 30
0.0
 11
36.04403840365342
 21
20.37046955133171
 31
0.0
  0
LINE
  5
143
330
1F
100
AcDbEntity
  8
0
100
AcDbLine
 10
54.26150303319078
 20
23.11162360522727
 30
0.0
 11
53.88871085687836
 21
23.39767710301927
 31
0.0
  0
LINE
  5
144
330
1F
100
AcDbEntity
  8
0
100
AcDbLine
 10
54.69562871727613
 20
22.93180285910465
 30
0.0
 11
54.26150303319078
 21
23.11162360522727
 31
0.0
  0
LINE
  5
145
330
1F
100
AcDbEntity
  8
0
100
AcDbLine
 10
55.16150296119075
 20
22.8704693513317
 30
0.0
 11
54.69562871727613
 21
22.93180285910465
 31
0.0
  0
LINE
  5
146
330
1F
100
AcDbEntity
  8
0
100
AcDbLine
 10
55.62737720510538
 20
22.93180285910465
 30
0.0
 11
55.16150296119075
 21
22.8704693513317
 31
0.0
  0
LINE
  5
147
330
1F
100
AcDbEntity
  8
0
100
AcDbLine
 10
56.06150288919091
 20
23.11162360522727
 30
0.0
 11
55.62737720510538
 21
22.93180285910465
 31
0.0
  0
LINE
  5
148
330
1F
100
AcDbEntity
  8
0
100
AcDbLine
 10
56.72034856329515
 20
23.77046927933168
 30
0.0
 11
56.43429506550315
 21
23.39767710301927
 31
0.0
  0
LINE
  5
149
330
1F
100
AcDbEntity
  8
0
100
AcDbLine
 10
56.90016930941777
 20
24.20459496341704
 30
0.0
 11
56.72034856329515
 21
23.77046927933168
 31
0.0
  0
LINE
  5
14A
330
1F
100
AcDbEntity
  8
0
100
AcDbLine
 10
56.96150281719071
 20
24.67046920733166
 30
0.0
 11
56.90016930941777
 21
24.20459496341704
 31
0.0
  0
LINE
  5
14B
330
1F
100
AcDbEntity
  8
0
100
AcDbLine
 10
13.12091779160838
 20
32.52001090201694
 30
0.0
 11
13.58805660052493
 21
32.46919807368879
 31
0.0
  0
LINE
  5
14C
330
1F
100
AcDbEntity
  8
0
100
AcDbLine
 10
12.65654502390697
 20
32.44818790475181
 30
0.0
 11
13.12091779160838
 21
32.52001090201694
 31
0.0
  0
LINE
  5
14D
330
1F
100
AcDbEntity
  8
0
100
AcDbLine
 10
12.22658453412751
 20
32.25862370046393
 30
0.0
 11
12.65654502390697
 21
32.44818790475181
 31
0.0
  0
LINE
  5
14E
330
1F
100
AcDbEntity
  8
0
100
AcDbLine
 10
11.86033741910507
 20
31.96423677640566
 30
0.0
 11
12.22658453412751
 21
32.25862370046393
 31
0.0
  0
LINE
  5
14F
330
1F
100
AcDbEntity
  8
0
100
AcDbLine
 10
11.5827628144764
 20
31.58508911495452
 30
0.0
 11
11.86033741910507
 21
31.96423677640566
 31
0.0
  0
LINE
  5
150
330
1F
100
AcDbEntity
  8
0
100
AcDbLine
 10
-37.54352749838533
 20
-37.59785076278375
 30
0.0
 11
-37.57760166937022
 21
-37.33903173838674
 31
0.0
  0
LINE
  5
151
330
1F
100
AcDbEntity
  8
0
100
AcDbLine
 10
-37.57760166937022
 20
-37.33903173838674
 30
0.0
 11
-37.67750208388293
 21
-37.09785080278373
 31
0.0
  0
LINE
  5
152
330
1F
100
AcDbEntity
  8
0
100
AcDbLine
 10
-37.67750208388293
 20
-37.09785080278373
 30
0.0
 11
-37.83642069376723
 21
-36.89074403816574
 31
0.0
  0
LINE
  5
153
330
1F
100
AcDbEntity
  8
0
100
AcDbLine
 10
-3.875829857611247
 20
65.20195756256551
 30
0.0
 11
-3.409955613696805
 21
65.26329107033847
 31
0.0
  0
LINE
  5
154
330
1F
100
AcDbEntity
  8
0
100
AcDbLine
 10
-4.682747718009199
 20
64.73608331865088
 30
0.0
 11
-4.309955541696787
 21
65.0221368164428
 31
0.0
  0
LINE
  5
155
330
1F
100
AcDbEntity
  8
0
100
AcDbLine
 10
-5.14862196192364
 20
63.92916545825303
 30
0.0
 11
-4.968801215801201
 21
64.36329114233848
 31
0.0
  0
LINE
  5
156
330
1F
100
AcDbEntity
  8
0
100
AcDbLine
 10
-5.209955469696768
 20
63.4632912143384
 30
0.0
 11
-5.14862196192364
 21
63.92916545825303
 31
0.0
  0
LINE
  5
157
330
1F
100
AcDbEntity
  8
0
100
AcDbLine
 10
-5.14862196192364
 20
62.99741697042379
 30
0.0
 11
-5.209955469696768
 21
63.4632912143384
 31
0.0
  0
LINE
  5
158
330
1F
100
AcDbEntity
  8
0
100
AcDbLine
 10
-4.968801215801201
 20
62.56329128633833
 30
0.0
 11
-5.14862196192364
 21
62.99741697042379
 31
0.0
  0
LINE
  5
159
330
1F
100
AcDbEntity
  8
0
100
AcDbLine
 10
-4.682747718009199
 20
62.19049911002592
 30
0.0
 11
-4.968801215801201
 21
62.56329128633833
 31
0.0
  0
LINE
  5
15A
330
1F
100
AcDbEntity
  8
0
100
AcDbLine
 10
-3.409955613696805
 20
61.66329135833836
 30
0.0
 11
-3.875829857611247
 21
61.7246248661113
 31
0.0
  0
LINE
  5
15B
330
1F
100
AcDbEntity
  8
0
100
AcDbLine
 10
-2.944081369782003
 20
61.7246248661113
 30
0.0
 11
-3.409955613696805
 21
61.66329135833836
 31
0.0
  0
LINE
  5
15C
330
1F
100
AcDbEntity
  8
0
100
AcDbLine
 10
-2.509955685696643
 20
61.90444561223401
 30
0.0
 11
-2.944081369782003
 21
61.7246248661113
 31
0.0
  0
LINE
  5
15D
330
1F
100
AcDbEntity
  8
0
100
AcDbLine
 10
-2.137163509384231
 20
62.19049911002592
 30
0.0
 11
-2.509955685696643
 21
61.90444561223401
 31
0.0
  0
LINE
  5
15E
330
1F
100
AcDbEntity
  8
0
100
AcDbLine
 10
-51.68274395800964
 20
62.19049911002592
 30
0.0
 11
-51.96879745580146
 21
62.56329128633833
 31
0.0
  0
LINE
  5
15F
330
1F
100
AcDbEntity
  8
0
100
AcDbLine
 10
-50.87582609761169
 20
61.7246248661113
 30
0.0
 11
-51.30995178169705
 21
61.90444561223401
 31
0.0
  0
LINE
  5
160
330
1F
100
AcDbEntity
  8
0
100
AcDbLine
 10
20.20268671279311
 20
40.73639374834701
 30
0.0
 11
20.46150573719012
 21
40.77046791933208
 31
0.0
  0
LINE
  5
161
330
1F
100
AcDbEntity
  8
0
100
AcDbLine
 10
19.49557998817505
 20
-23.58834597706599
 30
0.0
 11
19.59548040268776
 21
-23.829526912669
 31
0.0
  0
LINE
  5
162
330
1F
100
AcDbEntity
  8
0
100
AcDbLine
 10
-90.39500874005792
 20
22.64258721226728
 30
0.0
 11
-90.14073896424306
 21
22.97395803565595
 31
0.0
  0
LINE
  5
163
330
1F
100
AcDbEntity
  8
0
100
AcDbLine
 10
-90.72637956344659
 20
22.38831743645225
 30
0.0
 11
-90.39500874005792
 21
22.64258721226728
 31
0.0
  0
LINE
  5
164
330
1F
100
AcDbEntity
  8
0
100
AcDbLine
 10
-68.11202201865036
 20
-8.026039484343924
 30
0.0
 11
-67.85775224283515
 21
-8.357410307732776
 31
0.0
  0
LINE
  5
165
330
1F
100
AcDbEntity
  8
0
100
AcDbLine
 10
-68.27186268187037
 20
-7.640149987379141
 30
0.0
 11
-68.11202201865036
 21
-8.026039484343924
 31
0.0
  0
LINE
  5
166
330
1F
100
AcDbEntity
  8
0
100
AcDbLine
 10
-68.32638135544649
 20
-7.226039548343921
 30
0.0
 11
-68.27186268187037
 21
-7.640149987379141
 31
0.0
  0
LINE
  5
167
330
1F
100
AcDbEntity
  8
0
100
AcDbLine
 10
-68.27186268187037
 20
-6.811929109308702
 30
0.0
 11
-68.32638135544649
 21
-7.226039548343921
 31
0.0
  0
LINE
  5
168
330
1F
100
AcDbEntity
  8
0
100
AcDbLine
 10
-18.5435290183852
 20
-37.59785076278375
 30
0.0
 11
-18.50945484740031
 21
-37.33903173838674
 31
0.0
  0
LINE
  5
169
330
1F
100
AcDbEntity
  8
0
100
AcDbLine
 10
-8.877504387882976
 20
-72.89784793878403
 30
0.0
 11
-9.03642299776728
 21
-73.10495470340202
 31
0.0
  0
LINE
  5
16A
330
1F
100
AcDbEntity
  8
0
100
AcDbLine
 10
-9.03642299776728
 20
-73.10495470340202
 30
0.0
 11
-9.243529762385267
 21
-73.26387331328641
 31
0.0
  0
LINE
  5
16B
330
1F
100
AcDbEntity
  8
0
100
AcDbLine
 10
-9.243529762385267
 20
-73.26387331328641
 30
0.0
 11
-9.484710697988323
 21
-73.36377372779901
 31
0.0
  0
LINE
  5
16C
330
1F
100
AcDbEntity
  8
0
100
AcDbLine
 10
-92.54352309838599
 20
-36.59785084278375
 30
0.0
 11
-100.5435224583862
 21
-36.59785084278375
 31
0.0
  0
LINE
  5
16D
330
1F
100
AcDbEntity
  8
0
100
AcDbLine
 10
-9.484710697988323
 20
-73.36377372779901
 30
0.0
 11
-9.743529722385336
 21
-73.39784789878401
 31
0.0
  0
LINE
  5
16E
330
1F
100
AcDbEntity
  8
0
100
AcDbLine
 10
-7.609955277696238
 20
58.96329157433841
 30
0.0
 11
0.5900440663037549
 21
58.96329157433841
 31
0.0
  0
LINE
  5
16F
330
1F
100
AcDbEntity
  8
0
100
AcDbLine
 10
-42.80995246169568
 20
58.96329157433841
 30
0.0
 11
-37.52741647317766
 21
58.96329157433841
 31
0.0
  0
LINE
  5
170
330
1F
100
AcDbEntity
  8
0
100
AcDbLine
 10
-19.80995430169607
 20
67.9632908543384
 30
0.0
 11
-19.80995430169607
 21
74.56329032633847
 31
0.0
  0
LINE
  5
171
330
1F
100
AcDbEntity
  8
0
100
AcDbLine
 10
-49.40995193369567
 20
58.96329157433841
 30
0.0
 11
-54.40995153369655
 21
58.96329157433841
 31
0.0
  0
LINE
  5
172
330
1F
100
AcDbEntity
  8
0
100
AcDbLine
 10
-43.30995242169647
 20
67.9632908543384
 30
0.0
 11
-37.52741647317766
 21
67.9632908543384
 31
0.0
  0
LINE
  5
173
330
1F
100
AcDbEntity
  8
0
100
AcDbLine
 10
-43.30995242169647
 20
74.56329032633847
 30
0.0
 11
-43.30995242169647
 21
67.9632908543384
 31
0.0
  0
LINE
  5
174
330
1F
100
AcDbEntity
  8
0
100
AcDbLine
 10
-49.80486003015901
 20
-62.76372303069855
 30
0.0
 11
-49.98468077628163
 21
-63.197848714784
 31
0.0
  0
LINE
  5
175
330
1F
100
AcDbEntity
  8
0
100
AcDbLine
 10
-11.64872144774439
 20
-57.79784914678394
 30
0.0
 11
-11.6435295703851
 21
-51.19784967478386
 31
0.0
  0
LINE
  5
176
330
1F
100
AcDbEntity
  8
0
100
AcDbLine
 10
-11.6435295703851
 20
-51.19784967478386
 30
0.0
 11
-6.643531519028831
 21
-51.20178495608008
 31
0.0
  0
LINE
  5
177
330
1F
100
AcDbEntity
  8
0
100
AcDbLine
 10
-50.54352645838462
 20
-66.79784842678393
 30
0.0
 11
-55.54352605838551
 21
-66.79784842678393
 31
0.0
  0
LINE
  5
178
330
1F
100
AcDbEntity
  8
0
100
AcDbLine
 10
-37.54352749838533
 20
-43.19785031478382
 30
0.0
 11
-18.5435290183852
 21
-43.19785031478382
 31
0.0
  0
LINE
  5
179
330
1F
100
AcDbEntity
  8
0
100
AcDbLine
 10
52.5529734847785
 20
40.47757472394963
 30
0.0
 11
52.76008024939649
 21
40.63649333383412
 31
0.0
  0
LINE
  5
17A
330
1F
100
AcDbEntity
  8
0
100
AcDbLine
 10
52.76008024939649
 20
40.63649333383412
 30
0.0
 11
53.00126118499954
 21
40.73639374834664
 31
0.0
  0
LINE
  5
17B
330
1F
100
AcDbEntity
  8
0
100
AcDbLine
 10
-101.5435223783862
 20
-37.59785076278375
 30
0.0
 11
-101.5435223783862
 21
-43.19785031478382
 31
0.0
  0
LINE
  5
17C
330
1F
100
AcDbEntity
  8
0
100
AcDbLine
 10
53.00126118499954
 20
40.73639374834664
 30
0.0
 11
53.26008020939656
 21
40.77046791933171
 31
0.0
  0
LINE
  5
17D
330
1F
100
AcDbEntity
  8
0
100
AcDbLine
 10
-101.5435223783862
 20
-37.59785076278375
 30
0.0
 11
-101.5094482074013
 21
-37.33903173838674
 31
0.0
  0
LINE
  5
17E
330
1F
100
AcDbEntity
  8
0
100
AcDbLine
 10
-101.5094482074013
 20
-37.33903173838674
 30
0.0
 11
-101.4095477928886
 21
-37.09785080278373
 31
0.0
  0
LINE
  5
17F
330
1F
100
AcDbEntity
  8
0
100
AcDbLine
 10
-101.4095477928886
 20
-37.09785080278373
 30
0.0
 11
-101.2506291830043
 21
-36.89074403816574
 31
0.0
  0
LINE
  5
180
330
1F
100
AcDbEntity
  8
0
100
AcDbLine
 10
-101.2506291830043
 20
-36.89074403816574
 30
0.0
 11
-101.0435224183863
 21
-36.73182542828135
 31
0.0
  0
LINE
  5
181
330
1F
100
AcDbEntity
  8
0
100
AcDbLine
 10
-101.0435224183863
 20
-36.73182542828135
 30
0.0
 11
-100.8023414827832
 21
-36.63192501376873
 31
0.0
  0
LINE
  5
182
330
1F
100
AcDbEntity
  8
0
100
AcDbLine
 10
-98.14048944248188
 20
22.22847677323189
 30
0.0
 11
-97.72637900344684
 21
22.17395809965595
 31
0.0
  0
LINE
  5
183
330
1F
100
AcDbEntity
  8
0
100
AcDbLine
 10
-98.52637893944666
 20
22.38831743645225
 30
0.0
 11
-98.14048944248188
 21
22.22847677323189
 31
0.0
  0
LINE
  5
184
330
1F
100
AcDbEntity
  8
0
100
AcDbLine
 10
-98.85774976283552
 20
22.6425872122671
 30
0.0
 11
-98.52637893944666
 21
22.38831743645225
 31
0.0
  0
LINE
  5
185
330
1F
100
AcDbEntity
  8
0
100
AcDbLine
 10
-99.11201953865073
 20
22.97395803565614
 30
0.0
 11
-98.85774976283552
 21
22.6425872122671
 31
0.0
  0
LINE
  5
186
330
1F
100
AcDbEntity
  8
0
100
AcDbLine
 10
56.11859181084561
 20
40.73639374834664
 30
0.0
 11
56.35977274644867
 21
40.63649333383412
 31
0.0
  0
LINE
  5
187
330
1F
100
AcDbEntity
  8
0
100
AcDbLine
 10
56.35977274644867
 20
40.63649333383412
 30
0.0
 11
56.56687951106665
 21
40.47757472394963
 31
0.0
  0
LINE
  5
188
330
1F
100
AcDbEntity
  8
0
100
AcDbLine
 10
8.16150672118995
 20
34.77046839933214
 30
0.0
 11
19.46150581719016
 21
34.77046839933214
 31
0.0
  0
LINE
  5
189
330
1F
100
AcDbEntity
  8
0
100
AcDbLine
 10
25.04404427976742
 20
33.22045837219049
 30
0.0
 11
25.04404427976688
 21
-16.77951732552712
 31
0.0
  0
LINE
  5
18A
330
1F
100
AcDbEntity
  8
0
100
AcDbLine
 10
43.11250199609908
 20
-3.929528504668343
 30
0.0
 11
43.11250199609908
 21
-10.2295280006683
 31
0.0
  0
LINE
  5
18B
330
1F
100
AcDbEntity
  8
0
100
AcDbLine
 10
20.0440446797669
 20
-10.22952800066803
 30
0.0
 11
12.94404524776666
 21
-10.22952800066803
 31
0.0
  0
LINE
  5
18C
330
1F
100
AcDbEntity
  8
0
100
AcDbLine
 10
20.0440446797669
 20
-3.929528504667982
 30
0.0
 11
20.0440446797669
 21
-10.22952800066803
 31
0.0
  0
LINE
  5
18D
330
1F
100
AcDbEntity
  8
0
100
AcDbLine
 10
56.06150288919073
 20
-6.670682558563945
 30
0.0
 11
56.43429506550315
 21
-6.956736056355902
 31
0.0
  0
LINE
  5
18E
330
1F
100
AcDbEntity
  8
0
100
AcDbLine
 10
54.69562871727613
 20
-6.49086181244128
 30
0.0
 11
55.16150296119075
 21
-6.429528304668287
 31
0.0
  0
LINE
  5
18F
330
1F
100
AcDbEntity
  8
0
100
AcDbLine
 10
54.2615030331906
 20
-6.670682558563945
 30
0.0
 11
54.69562871727613
 21
-6.49086181244128
 31
0.0
  0
LINE
  5
190
330
1F
100
AcDbEntity
  8
0
100
AcDbLine
 10
53.42283661296374
 20
-8.695402404582962
 30
0.0
 11
53.3615031051908
 21
-8.22952816066834
 31
0.0
  0
LINE
  5
191
330
1F
100
AcDbEntity
  8
0
100
AcDbLine
 10
101.4718081860276
 20
62.58528624279931
 30
0.0
 11
101.9485640156809
 21
63.20660653665337
 31
0.0
  0
LINE
  5
192
330
1F
100
AcDbEntity
  8
0
100
AcDbLine
 10
101.1721069424898
 20
61.86174343599024
 30
0.0
 11
101.4718081860276
 21
62.58528624279931
 31
0.0
  0
LINE
  5
193
330
1F
100
AcDbEntity
  8
0
100
AcDbLine
 10
101.0698844295348
 20
61.08528636279929
 30
0.0
 11
101.1721069424898
 21
61.86174343599024
 31
0.0
  0
LINE
  5
194
330
1F
100
AcDbEntity
  8
0
100
AcDbLine
 10
101.0698844295348
 20
61.08528636279929
 30
0.0
 11
101.0698844295348
 21
56.58528672279929
 31
0.0
  0
LINE
  5
195
330
1F
100
AcDbEntity
  8
0
100
AcDbLine
 10
93.06988506953475
 20
61.08528636279929
 30
0.0
 11
93.06988506953475
 21
56.58528672279929
 31
0.0
  0
LINE
  5
196
330
1F
100
AcDbEntity
  8
0
100
AcDbLine
 10
92.86544004362469
 20
62.63820050918127
 30
0.0
 11
93.06988506953475
 21
61.08528636279929
 31
0.0
  0
LINE
  5
197
330
1F
100
AcDbEntity
  8
0
100
AcDbLine
 10
92.26603755654916
 20
64.08528612279926
 30
0.0
 11
92.86544004362469
 21
62.63820050918127
 31
0.0
  0
LINE
  5
198
330
1F
100
AcDbEntity
  8
0
100
AcDbLine
 10
-49.98468077628163
 20
-63.197848714784
 30
0.0
 11
-50.27073427407345
 21
-63.57064089109642
 31
0.0
  0
LINE
  5
199
330
1F
100
AcDbEntity
  8
0
100
AcDbLine
 10
-49.74352652238588
 20
-62.29784878678393
 30
0.0
 11
-49.80486003015901
 21
-62.76372303069855
 31
0.0
  0
LINE
  5
19A
330
1F
100
AcDbEntity
  8
0
100
AcDbLine
 10
-49.98468077628163
 20
-61.39784885878385
 30
0.0
 11
-49.80486003015901
 21
-61.83197454286931
 31
0.0
  0
LINE
  5
19B
330
1F
100
AcDbEntity
  8
0
100
AcDbLine
 10
-50.27073427407345
 20
-61.02505668247145
 30
0.0
 11
-49.98468077628163
 21
-61.39784885878385
 31
0.0
  0
LINE
  5
19C
330
1F
100
AcDbEntity
  8
0
100
AcDbLine
 10
-50.64352645038605
 20
-60.73900318467953
 30
0.0
 11
-50.27073427407345
 21
-61.02505668247145
 31
0.0
  0
LINE
  5
19D
330
1F
100
AcDbEntity
  8
0
100
AcDbLine
 10
-52.00940062230065
 20
-60.55918243855683
 30
0.0
 11
-51.54352637838603
 21
-60.49784893078387
 31
0.0
  0
LINE
  5
19E
330
1F
100
AcDbEntity
  8
0
100
AcDbLine
 10
-52.44352630638601
 20
-60.73900318467953
 30
0.0
 11
-52.00940062230065
 21
-60.55918243855683
 31
0.0
  0
LINE
  5
19F
330
1F
100
AcDbEntity
  8
0
100
AcDbLine
 10
-0.5435304583852031
 20
-66.79784842678393
 30
0.0
 11
-0.5435304583850226
 21
-43.19785031478382
 31
0.0
  0
LINE
  5
1A0
330
1F
100
AcDbEntity
  8
0
100
AcDbLine
 10
-3.270738034073189
 20
-63.57064089109642
 30
0.0
 11
-3.643530210385601
 21
-63.85669438888832
 31
0.0
  0
LINE
  5
1A1
330
1F
100
AcDbEntity
  8
0
100
AcDbLine
 10
-5.616777459399506
 20
26.41262424786401
 30
0.0
 11
-5.182651775314146
 21
26.23280350174138
 31
0.0
  0
LINE
  5
1A2
330
1F
100
AcDbEntity
  8
0
100
AcDbLine
 10
-5.182651775314146
 20
26.23280350174138
 30
0.0
 11
-4.809859599001735
 21
25.94675000394948
 31
0.0
  0
LINE
  5
1A3
330
1F
100
AcDbEntity
  8
0
100
AcDbLine
 10
-4.809859599001735
 20
25.94675000394948
 30
0.0
 11
-4.523806101209913
 21
25.57395782763706
 31
0.0
  0
LINE
  5
1A4
330
1F
100
AcDbEntity
  8
0
100
AcDbLine
 10
-4.523806101209913
 20
25.57395782763706
 30
0.0
 11
-4.343985355087113
 21
25.1398321435517
 31
0.0
  0
LINE
  5
1A5
330
1F
100
AcDbEntity
  8
0
100
AcDbLine
 10
-46.33408815549598
 20
30.29671421653946
 30
0.0
 11
-46.50424757589695
 21
29.85871149740679
 31
0.0
  0
LINE
  5
1A6
330
1F
100
AcDbEntity
  8
0
100
AcDbLine
 10
-46.50424757589695
 20
29.85871149740679
 30
0.0
 11
-46.78197240016675
 21
29.47967385771504
 31
0.0
  0
LINE
  5
1A7
330
1F
100
AcDbEntity
  8
0
100
AcDbLine
 10
-46.78197240016675
 20
29.47967385771504
 30
0.0
 11
-47.14833614049343
 21
29.18543208621993
 31
0.0
  0
LINE
  5
1A8
330
1F
100
AcDbEntity
  8
0
100
AcDbLine
 10
-17.22741809717636
 20
67.27380268614905
 30
0.0
 11
-12.82741844917643
 21
67.27380268614905
 31
0.0
  0
LINE
  5
1A9
330
1F
100
AcDbEntity
  8
0
100
AcDbLine
 10
-17.22741809717619
 20
59.65277974252776
 30
0.0
 11
-19.42741792117642
 21
63.4632912143384
 31
0.0
  0
LINE
  5
1AA
330
1F
100
AcDbEntity
  8
0
100
AcDbLine
 10
-12.82741844917626
 20
59.65277974252776
 30
0.0
 11
-17.22741809717619
 21
59.65277974252776
 31
0.0
  0
LINE
  5
1AB
330
1F
100
AcDbEntity
  8
0
100
AcDbLine
 10
-10.6274186251762
 20
63.4632912143384
 30
0.0
 11
-12.82741844917626
 21
59.65277974252776
 31
0.0
  0
LINE
  5
1AC
330
1F
100
AcDbEntity
  8
0
100
AcDbLine
 10
-53.28219272661304
 20
-61.83197454286931
 30
0.0
 11
-53.10237198049042
 21
-61.39784885878385
 31
0.0
  0
LINE
  5
1AD
330
1F
100
AcDbEntity
  8
0
100
AcDbLine
 10
-2.804863790158568
 20
-62.76372303069855
 30
0.0
 11
-2.984684536281368
 21
-63.197848714784
 31
0.0
  0
LINE
  5
1AE
330
1F
100
AcDbEntity
  8
0
100
AcDbLine
 10
115.942096627085
 20
26.41262424786409
 30
0.0
 11
116.3762223111704
 21
26.23280350174148
 31
0.0
  0
LINE
  5
1AF
330
1F
100
AcDbEntity
  8
0
100
AcDbLine
 10
115.4762223831704
 20
26.47395775563713
 30
0.0
 11
115.942096627085
 21
26.41262424786409
 31
0.0
  0
LINE
  5
1B0
330
1F
100
AcDbEntity
  8
0
100
AcDbLine
 10
115.0103481392558
 20
26.41262424786409
 30
0.0
 11
115.4762223831704
 21
26.47395775563713
 31
0.0
  0
LINE
  5
1B1
330
1F
100
AcDbEntity
  8
0
100
AcDbLine
 10
114.5762224551704
 20
26.23280350174148
 30
0.0
 11
115.0103481392558
 21
26.41262424786409
 31
0.0
  0
LINE
  5
1B2
330
1F
100
AcDbEntity
  8
0
100
AcDbLine
 10
114.2034302788578
 20
25.94675000394956
 30
0.0
 11
114.5762224551704
 21
26.23280350174148
 31
0.0
  0
LINE
  5
1B3
330
1F
100
AcDbEntity
  8
0
100
AcDbLine
 10
113.917376781066
 20
25.57395782763706
 30
0.0
 11
114.2034302788578
 21
25.94675000394956
 31
0.0
  0
LINE
  5
1B4
330
1F
100
AcDbEntity
  8
0
100
AcDbLine
 10
113.7375560349434
 20
25.1398321435517
 30
0.0
 11
113.917376781066
 21
25.57395782763706
 31
0.0
  0
LINE
  5
1B5
330
1F
100
AcDbEntity
  8
0
100
AcDbLine
 10
113.6762225271703
 20
24.67395789963708
 30
0.0
 11
113.7375560349434
 21
25.1398321435517
 31
0.0
  0
LINE
  5
1B6
330
1F
100
AcDbEntity
  8
0
100
AcDbLine
 10
113.7375560349434
 20
24.20808365572246
 30
0.0
 11
113.6762225271703
 21
24.67395789963708
 31
0.0
  0
LINE
  5
1B7
330
1F
100
AcDbEntity
  8
0
100
AcDbLine
 10
73.90263814372953
 20
32.4727203916432
 30
0.0
 11
74.34072165708096
 21
32.30276908788679
 31
0.0
  0
LINE
  5
1B8
330
1F
100
AcDbEntity
  8
0
100
AcDbLine
 10
73.43549532995989
 20
32.52349638855232
 30
0.0
 11
73.90263814372953
 21
32.4727203916432
 31
0.0
  0
LINE
  5
1B9
330
1F
100
AcDbEntity
  8
0
100
AcDbLine
 10
72.97112822654016
 20
32.45163677833607
 30
0.0
 11
73.43549532995989
 21
32.52349638855232
 31
0.0
  0
LINE
  5
1BA
330
1F
100
AcDbEntity
  8
0
100
AcDbLine
 10
72.54118268416592
 20
32.26203867467694
 30
0.0
 11
72.97112822654016
 21
32.45163677833607
 31
0.0
  0
LINE
  5
1BB
330
1F
100
AcDbEntity
  8
0
100
AcDbLine
 10
72.17495878103092
 20
31.9676228750138
 30
0.0
 11
72.54118268416592
 21
32.26203867467694
 31
0.0
  0
LINE
  5
1BC
330
1F
100
AcDbEntity
  8
0
100
AcDbLine
 10
71.89741407092032
 20
31.5884533295485
 30
0.0
 11
72.17495878103092
 21
31.9676228750138
 31
0.0
  0
LINE
  5
1BD
330
1F
100
AcDbEntity
  8
0
100
AcDbLine
 10
52.2955773641752
 20
-23.5883459770659
 30
0.0
 11
52.3954777786879
 21
-23.82952691266891
 31
0.0
  0
LINE
  5
1BE
330
1F
100
AcDbEntity
  8
0
100
AcDbLine
 10
52.3954777786879
 20
-23.82952691266891
 30
0.0
 11
52.5543963885724
 21
-24.03663367728694
 31
0.0
  0
LINE
  5
1BF
330
1F
100
AcDbEntity
  8
0
100
AcDbLine
 10
52.5543963885724
 20
-24.03663367728694
 30
0.0
 11
52.76150315319038
 21
-24.19555228717133
 31
0.0
  0
LINE
  5
1C0
330
1F
100
AcDbEntity
  8
0
100
AcDbLine
 10
41.76150403319155
 20
40.77046791933181
 30
0.0
 11
20.46150573719012
 21
40.77046791933208
 31
0.0
  0
LINE
  5
1C1
330
1F
100
AcDbEntity
  8
0
100
AcDbLine
 10
42.02032305758856
 20
40.73639374834674
 30
0.0
 11
41.76150403319155
 21
40.77046791933181
 31
0.0
  0
LINE
  5
1C2
330
1F
100
AcDbEntity
  8
0
100
AcDbLine
 10
116.569883189535
 20
59.52644076069499
 30
0.0
 11
116.1357575054496
 21
59.34662001457236
 31
0.0
  0
LINE
  5
1C3
330
1F
100
AcDbEntity
  8
0
100
AcDbLine
 10
116.9426753658474
 20
59.8124942584869
 30
0.0
 11
116.569883189535
 21
59.52644076069499
 31
0.0
  0
LINE
  5
1C4
330
1F
100
AcDbEntity
  8
0
100
AcDbLine
 10
117.2287288636392
 20
60.18528643479931
 30
0.0
 11
116.9426753658474
 21
59.8124942584869
 31
0.0
  0
LINE
  5
1C5
330
1F
100
AcDbEntity
  8
0
100
AcDbLine
 10
117.469883117535
 20
61.08528636279929
 30
0.0
 11
117.408549609762
 21
60.61941211888476
 31
0.0
  0
LINE
  5
1C6
330
1F
100
AcDbEntity
  8
0
100
AcDbLine
 10
117.408549609762
 20
61.55116060671382
 30
0.0
 11
117.469883117535
 21
61.08528636279929
 31
0.0
  0
LINE
  5
1C7
330
1F
100
AcDbEntity
  8
0
100
AcDbLine
 10
117.2287288636392
 20
61.98528629079927
 30
0.0
 11
117.408549609762
 21
61.55116060671382
 31
0.0
  0
LINE
  5
1C8
330
1F
100
AcDbEntity
  8
0
100
AcDbLine
 10
116.9426753658474
 20
62.35807846711168
 30
0.0
 11
117.2287288636392
 21
61.98528629079927
 31
0.0
  0
LINE
  5
1C9
330
1F
100
AcDbEntity
  8
0
100
AcDbLine
 10
116.569883189535
 20
62.64413196490359
 30
0.0
 11
116.9426753658474
 21
62.35807846711168
 31
0.0
  0
LINE
  5
1CA
330
1F
100
AcDbEntity
  8
0
100
AcDbLine
 10
116.1357575054496
 20
62.82395271102621
 30
0.0
 11
116.569883189535
 21
62.64413196490359
 31
0.0
  0
LINE
  5
1CB
330
1F
100
AcDbEntity
  8
0
100
AcDbLine
 10
115.669883261535
 20
62.88528621879926
 30
0.0
 11
116.1357575054496
 21
62.82395271102621
 31
0.0
  0
LINE
  5
1CC
330
1F
100
AcDbEntity
  8
0
100
AcDbLine
 10
115.2040090176204
 20
62.82395271102621
 30
0.0
 11
115.669883261535
 21
62.88528621879926
 31
0.0
  0
LINE
  5
1CD
330
1F
100
AcDbEntity
  8
0
100
AcDbLine
 10
114.769883333535
 20
62.64413196490359
 30
0.0
 11
115.2040090176204
 21
62.82395271102621
 31
0.0
  0
LINE
  5
1CE
330
1F
100
AcDbEntity
  8
0
100
AcDbLine
 10
-46.35472920106858
 20
31.22823404553384
 30
0.0
 11
-46.28309022226268
 21
30.76383285363783
 31
0.0
  0
LINE
  5
1CF
330
1F
100
AcDbEntity
  8
0
100
AcDbLine
 10
-46.28309022226268
 20
30.76383285363783
 30
0.0
 11
-46.33408815549598
 21
30.29671421653946
 31
0.0
  0
LINE
  5
1D0
330
1F
100
AcDbEntity
  8
0
100
AcDbLine
 10
-4.523806101209913
 20
-7.32603954036303
 30
0.0
 11
-4.343985355087113
 21
-7.760165224448435
 31
0.0
  0
LINE
  5
1D1
330
1F
100
AcDbEntity
  8
0
100
AcDbLine
 10
-4.343985355087113
 20
-7.760165224448435
 30
0.0
 11
-4.282651847314165
 21
-8.22603946836301
 31
0.0
  0
LINE
  5
1D2
330
1F
100
AcDbEntity
  8
0
100
AcDbLine
 10
-4.282651847314165
 20
-8.22603946836301
 30
0.0
 11
-4.343985355087113
 21
-8.691913712277588
 31
0.0
  0
LINE
  5
1D3
330
1F
100
AcDbEntity
  8
0
100
AcDbLine
 10
-4.343985355087113
 20
25.1398321435517
 30
0.0
 11
-4.282651847314165
 21
24.67395789963708
 31
0.0
  0
LINE
  5
1D4
330
1F
100
AcDbEntity
  8
0
100
AcDbLine
 10
14.74308707876737
 20
-15.1389471254017
 30
0.0
 11
14.46676190023201
 21
-15.51900633924368
 31
0.0
  0
LINE
  5
1D5
330
1F
100
AcDbEntity
  8
0
100
AcDbLine
 10
14.9116301423596
 20
-14.70031989638633
 30
0.0
 11
14.74308707876737
 21
-15.1389471254017
 31
0.0
  0
LINE
  5
1D6
330
1F
100
AcDbEntity
  8
0
100
AcDbLine
 10
14.96090515975543
 20
-14.23301637298922
 30
0.0
 11
14.9116301423596
 21
-14.70031989638633
 31
0.0
  0
LINE
  5
1D7
330
1F
100
AcDbEntity
  8
0
100
AcDbLine
 10
14.88755411995035
 20
-13.76888251807424
 30
0.0
 11
14.96090515975543
 21
-14.23301637298922
 31
0.0
  0
LINE
  5
1D8
330
1F
100
AcDbEntity
  8
0
100
AcDbLine
 10
56.72034856329515
 20
25.57046913533183
 30
0.0
 11
56.90016930941777
 21
25.13634345124628
 31
0.0
  0
LINE
  5
1D9
330
1F
100
AcDbEntity
  8
0
100
AcDbLine
 10
56.43429506550315
 20
25.94326131164423
 30
0.0
 11
56.72034856329515
 21
25.57046913533183
 31
0.0
  0
LINE
  5
1DA
330
1F
100
AcDbEntity
  8
0
100
AcDbLine
 10
56.06150288919073
 20
26.22931480943606
 30
0.0
 11
56.43429506550315
 21
25.94326131164423
 31
0.0
  0
LINE
  5
1DB
330
1F
100
AcDbEntity
  8
0
100
AcDbLine
 10
55.62737720510538
 20
26.40913555555868
 30
0.0
 11
56.06150288919073
 21
26.22931480943606
 31
0.0
  0
LINE
  5
1DC
330
1F
100
AcDbEntity
  8
0
100
AcDbLine
 10
55.16150296119075
 20
26.4704690633318
 30
0.0
 11
55.62737720510538
 21
26.40913555555868
 31
0.0
  0
LINE
  5
1DD
330
1F
100
AcDbEntity
  8
0
100
AcDbLine
 10
54.69562871727613
 20
26.40913555555868
 30
0.0
 11
55.16150296119075
 21
26.4704690633318
 31
0.0
  0
LINE
  5
1DE
330
1F
100
AcDbEntity
  8
0
100
AcDbLine
 10
54.2615030331906
 20
26.22931480943606
 30
0.0
 11
54.69562871727613
 21
26.40913555555868
 31
0.0
  0
LINE
  5
1DF
330
1F
100
AcDbEntity
  8
0
100
AcDbLine
 10
53.42283661296374
 20
25.13634345124628
 30
0.0
 11
53.60265735908636
 21
25.57046913533165
 31
0.0
  0
LINE
  5
1E0
330
1F
100
AcDbEntity
  8
0
100
AcDbLine
 10
53.3615031051908
 20
24.67046920733166
 30
0.0
 11
53.42283661296374
 21
25.13634345124628
 31
0.0
  0
LINE
  5
1E1
330
1F
100
AcDbEntity
  8
0
100
AcDbLine
 10
53.88871085687836
 20
23.39767710301927
 30
0.0
 11
53.60265735908636
 21
23.77046927933168
 31
0.0
  0
LINE
  5
1E2
330
1F
100
AcDbEntity
  8
0
100
AcDbLine
 10
-88.48264511131505
 20
34.77395709165687
 30
0.0
 11
-88.48264511131505
 21
41.57395654765681
 31
0.0
  0
LINE
  5
1E3
330
1F
100
AcDbEntity
  8
0
100
AcDbLine
 10
-98.8826442793151
 20
34.77395709165678
 30
0.0
 11
-88.48264511131505
 21
34.77395709165687
 31
0.0
  0
LINE
  5
1E4
330
1F
100
AcDbEntity
  8
0
100
AcDbLine
 10
-98.8826442793151
 20
41.57395654765681
 30
0.0
 11
-98.8826442793151
 21
34.77395709165678
 31
0.0
  0
LINE
  5
1E5
330
1F
100
AcDbEntity
  8
0
100
AcDbLine
 10
-88.48264511131505
 20
41.57395654765681
 30
0.0
 11
-98.8826442793151
 21
41.57395654765681
 31
0.0
  0
LINE
  5
1E6
330
1F
100
AcDbEntity
  8
0
100
AcDbLine
 10
-67.52638141944666
 20
-5.840399013140215
 30
0.0
 11
-67.85775224283532
 21
-6.094668788955247
 31
0.0
  0
LINE
  5
1E7
330
1F
100
AcDbEntity
  8
0
100
AcDbLine
 10
-67.14049192248169
 20
-5.680558349920299
 30
0.0
 11
-67.52638141944666
 21
-5.840399013140215
 31
0.0
  0
LINE
  5
1E8
330
1F
100
AcDbEntity
  8
0
100
AcDbLine
 10
-66.72638148344647
 20
-5.626039676344094
 30
0.0
 11
-67.14049192248169
 21
-5.680558349920299
 31
0.0
  0
LINE
  5
1E9
330
1F
100
AcDbEntity
  8
0
100
AcDbLine
 10
-66.72638148344647
 20
-5.626039676344094
 30
0.0
 11
-60.5263819794464
 21
-5.626039676344094
 31
0.0
  0
LINE
  5
1EA
330
1F
100
AcDbEntity
  8
0
100
AcDbLine
 10
-60.11227154041117
 20
-5.680558349920209
 30
0.0
 11
-60.5263819794464
 21
-5.626039676344094
 31
0.0
  0
LINE
  5
1EB
330
1F
100
AcDbEntity
  8
0
100
AcDbLine
 10
-48.04277290532107
 20
-12.47648086331048
 30
0.0
 11
-47.5783717134248
 21
-12.54811984211472
 31
0.0
  0
LINE
  5
1EC
330
1F
100
AcDbEntity
  8
0
100
AcDbLine
 10
-47.5783717134248
 20
-12.54811984211472
 30
0.0
 11
-47.14833614049903
 21
-12.73751365494175
 31
0.0
  0
LINE
  5
1ED
330
1F
100
AcDbEntity
  8
0
100
AcDbLine
 10
-72.14409537349158
 20
22.76284544688126
 30
0.0
 11
-76.02638073944658
 21
23.27395801165625
 31
0.0
  0
LINE
  5
1EE
330
1F
100
AcDbEntity
  8
0
100
AcDbLine
 10
-65.41977987017664
 20
18.88056008092626
 30
0.0
 11
-68.52638133944662
 21
21.26433922919228
 31
0.0
  0
LINE
  5
1EF
330
1F
100
AcDbEntity
  8
0
100
AcDbLine
 10
-63.03600072191043
 20
15.77395861165624
 30
0.0
 11
-65.41977987017664
 21
18.88056008092626
 31
0.0
  0
LINE
  5
1F0
330
1F
100
AcDbEntity
  8
0
100
AcDbLine
 10
-61.53749450422164
 20
12.15624457761126
 30
0.0
 11
-63.03600072191043
 21
15.77395861165624
 31
0.0
  0
LINE
  5
1F1
330
1F
100
AcDbEntity
  8
0
100
AcDbLine
 10
-61.02638193944665
 20
8.273959211656173
 30
0.0
 11
-61.53749450422164
 21
12.15624457761126
 31
0.0
  0
LINE
  5
1F2
330
1F
100
AcDbEntity
  8
0
100
AcDbLine
 10
-61.53749450422164
 20
4.391673845701172
 30
0.0
 11
-61.02638193944665
 21
8.273959211656173
 31
0.0
  0
LINE
  5
1F3
330
1F
100
AcDbEntity
  8
0
100
AcDbLine
 10
20.04404467976726
 20
26.67046904733194
 30
0.0
 11
20.04404467976726
 21
20.37046955133207
 31
0.0
  0
LINE
  5
1F4
330
1F
100
AcDbEntity
  8
0
100
AcDbLine
 10
43.11250199609944
 20
26.67046904733176
 30
0.0
 11
43.11250199609944
 21
20.37046955133171
 31
0.0
  0
LINE
  5
1F5
330
1F
100
AcDbEntity
  8
0
100
AcDbLine
 10
13.58229854090845
 20
-12.52940385549864
 30
0.0
 11
14.02092576992368
 21
-12.69794691909087
 31
0.0
  0
LINE
  5
1F6
330
1F
100
AcDbEntity
  8
0
100
AcDbLine
 10
14.02092576992368
 20
-12.69794691909087
 30
0.0
 11
14.40098498376566
 21
-12.97427209762619
 31
0.0
  0
LINE
  5
1F7
330
1F
100
AcDbEntity
  8
0
100
AcDbLine
 10
53.60265735908636
 20
23.77046927933168
 30
0.0
 11
53.42283661296374
 21
24.20459496341704
 31
0.0
  0
LINE
  5
1F8
330
1F
100
AcDbEntity
  8
0
100
AcDbLine
 10
53.42283661296374
 20
24.20459496341704
 30
0.0
 11
53.3615031051908
 21
24.67046920733166
 31
0.0
  0
LINE
  5
1F9
330
1F
100
AcDbEntity
  8
0
100
AcDbLine
 10
53.60265735908636
 20
-7.329528232668314
 30
0.0
 11
53.88871085687836
 21
-6.956736056355902
 31
0.0
  0
LINE
  5
1FA
330
1F
100
AcDbEntity
  8
0
100
AcDbLine
 10
56.90016930941777
 20
25.13634345124628
 30
0.0
 11
56.96150281719071
 21
24.67046920733166
 31
0.0
  0
LINE
  5
1FB
330
1F
100
AcDbEntity
  8
0
100
AcDbLine
 10
43.11250199609944
 20
20.37046955133171
 30
0.0
 11
36.04403840365342
 21
20.37046955133171
 31
0.0
  0
LINE
  5
1FC
330
1F
100
AcDbEntity
  8
0
100
AcDbLine
 10
63.16150232119043
 20
-18.32952735266841
 30
0.0
 11
63.16150232119043
 21
34.77046839933159
 31
0.0
  0
LINE
  5
1FD
330
1F
100
AcDbEntity
  8
0
100
AcDbLine
 10
63.16150232119043
 20
-18.32952735266841
 30
0.0
 11
56.8597727064482
 21
-18.32952735266836
 31
0.0
  0
LINE
  5
1FE
330
1F
100
AcDbEntity
  8
0
100
AcDbLine
 10
11.57992556361284
 20
-13.42010822793447
 30
0.0
 11
11.85625074214821
 21
-13.04004901409249
 31
0.0
  0
LINE
  5
1FF
330
1F
100
AcDbEntity
  8
0
100
AcDbLine
 10
11.36210748262478
 20
-14.32603898034696
 30
0.0
 11
11.41138250002062
 21
-13.85873545694984
 31
0.0
  0
LINE
  5
200
330
1F
100
AcDbEntity
  8
0
100
AcDbLine
 10
-88.48264511131505
 20
-25.12603811634236
 30
0.0
 11
-88.48264511131505
 21
-18.32603866034242
 31
0.0
  0
LINE
  5
201
330
1F
100
AcDbEntity
  8
0
100
AcDbLine
 10
-98.8826442793151
 20
-25.12603811634245
 30
0.0
 11
-88.48264511131505
 21
-25.12603811634236
 31
0.0
  0
LINE
  5
202
330
1F
100
AcDbEntity
  8
0
100
AcDbLine
 10
-98.8826442793151
 20
-18.32603866034242
 30
0.0
 11
-98.8826442793151
 21
-25.12603811634245
 31
0.0
  0
LINE
  5
203
330
1F
100
AcDbEntity
  8
0
100
AcDbLine
 10
-88.48264511131505
 20
-18.32603866034242
 30
0.0
 11
-98.8826442793151
 21
-18.32603866034242
 31
0.0
  0
LINE
  5
204
330
1F
100
AcDbEntity
  8
0
100
AcDbLine
 10
-2.944081369782003
 20
65.20195756256551
 30
0.0
 11
-2.509955685696643
 21
65.0221368164428
 31
0.0
  0
LINE
  5
205
330
1F
100
AcDbEntity
  8
0
100
AcDbLine
 10
-100.4099478536972
 20
88.16328923833855
 30
0.0
 11
-100.4099478536972
 21
82.56328968633852
 31
0.0
  0
LINE
  5
206
330
1F
100
AcDbEntity
  8
0
100
AcDbLine
 10
-100.4099478536972
 20
88.16328923833855
 30
0.0
 11
-100.3758736827123
 21
88.42210826273555
 31
0.0
  0
LINE
  5
207
330
1F
100
AcDbEntity
  8
0
100
AcDbLine
 10
-100.3758736827123
 20
88.42210826273555
 30
0.0
 11
-100.2759732681996
 21
88.66328919833852
 31
0.0
  0
LINE
  5
208
330
1F
100
AcDbEntity
  8
0
100
AcDbLine
 10
-100.2759732681996
 20
88.66328919833852
 30
0.0
 11
-100.1170546583153
 21
88.87039596295651
 31
0.0
  0
LINE
  5
209
330
1F
100
AcDbEntity
  8
0
100
AcDbLine
 10
67.11104141943052
 20
61.98528629079927
 30
0.0
 11
67.39709491722233
 21
62.35807846711168
 31
0.0
  0
LINE
  5
20A
330
1F
100
AcDbEntity
  8
0
100
AcDbLine
 10
66.93122067330772
 20
61.55116060671382
 30
0.0
 11
67.11104141943052
 21
61.98528629079927
 31
0.0
  0
LINE
  5
20B
330
1F
100
AcDbEntity
  8
0
100
AcDbLine
 10
66.86988716553478
 20
61.08528636279929
 30
0.0
 11
66.93122067330772
 21
61.55116060671382
 31
0.0
  0
LINE
  5
20C
330
1F
100
AcDbEntity
  8
0
100
AcDbLine
 10
66.93122067330772
 20
60.61941211888476
 30
0.0
 11
66.86988716553478
 21
61.08528636279929
 31
0.0
  0
LINE
  5
20D
330
1F
100
AcDbEntity
  8
0
100
AcDbLine
 10
67.11104141943052
 20
60.18528643479931
 30
0.0
 11
66.93122067330772
 21
60.61941211888476
 31
0.0
  0
LINE
  5
20E
330
1F
100
AcDbEntity
  8
0
100
AcDbLine
 10
67.39709491722233
 20
59.8124942584869
 30
0.0
 11
67.11104141943052
 21
60.18528643479931
 31
0.0
  0
LINE
  5
20F
330
1F
100
AcDbEntity
  8
0
100
AcDbLine
 10
-108.4099472136973
 20
77.56329008633844
 30
0.0
 11
-54.40995153369655
 21
58.96329157433841
 31
0.0
  0
LINE
  5
210
330
1F
100
AcDbEntity
  8
0
100
AcDbLine
 10
-108.4099472136973
 20
82.56328968633852
 30
0.0
 11
-108.4099472136973
 21
77.56329008633844
 31
0.0
  0
LINE
  5
211
330
1F
100
AcDbEntity
  8
0
100
AcDbLine
 10
-90.40994865369707
 20
82.56328968633852
 30
0.0
 11
-46.40995217369651
 21
82.56328968633852
 31
0.0
  0
LINE
  5
212
330
1F
100
AcDbEntity
  8
0
100
AcDbLine
 10
-51.30995178169705
 20
61.90444561223401
 30
0.0
 11
-51.68274395800964
 21
62.19049911002592
 31
0.0
  0
LINE
  5
213
330
1F
100
AcDbEntity
  8
0
100
AcDbLine
 10
-49.94407760978245
 20
65.20195756256551
 30
0.0
 11
-49.50995192569709
 21
65.0221368164428
 31
0.0
  0
LINE
  5
214
330
1F
100
AcDbEntity
  8
0
100
AcDbLine
 10
-48.67128550547005
 20
62.99741697042379
 30
0.0
 11
-48.85110625159268
 21
62.56329128633833
 31
0.0
  0
LINE
  5
215
330
1F
100
AcDbEntity
  8
0
100
AcDbLine
 10
-50.40995185369707
 20
65.26329107033847
 30
0.0
 11
-49.94407760978245
 21
65.20195756256551
 31
0.0
  0
LINE
  5
216
330
1F
100
AcDbEntity
  8
0
100
AcDbLine
 10
-49.94407760978245
 20
61.7246248661113
 30
0.0
 11
-50.40995185369707
 21
61.66329135833836
 31
0.0
  0
LINE
  5
217
330
1F
100
AcDbEntity
  8
0
100
AcDbLine
 10
74.71989120254628
 20
32.02522437777618
 30
0.0
 11
75.0143070022093
 21
31.65900047464119
 31
0.0
  0
LINE
  5
218
330
1F
100
AcDbEntity
  8
0
100
AcDbLine
 10
55.62737720510538
 20
-9.968194508895401
 30
0.0
 11
55.16150296119075
 21
-10.02952801666839
 31
0.0
  0
LINE
  5
219
330
1F
100
AcDbEntity
  8
0
100
AcDbLine
 10
56.06150288919091
 20
-9.788373762772736
 30
0.0
 11
55.62737720510538
 21
-9.968194508895401
 31
0.0
  0
LINE
  5
21A
330
1F
100
AcDbEntity
  8
0
100
AcDbLine
 10
56.43429506550315
 20
-9.502320264980778
 30
0.0
 11
56.06150288919091
 21
-9.788373762772736
 31
0.0
  0
LINE
  5
21B
330
1F
100
AcDbEntity
  8
0
100
AcDbLine
 10
56.96150281719071
 20
-8.22952816066834
 30
0.0
 11
56.90016930941777
 21
-8.695402404582962
 31
0.0
  0
LINE
  5
21C
330
1F
100
AcDbEntity
  8
0
100
AcDbLine
 10
14.69657577508832
 20
-13.33954828683638
 30
0.0
 11
14.88755411995035
 21
-13.76888251807424
 31
0.0
  0
LINE
  5
21D
330
1F
100
AcDbEntity
  8
0
100
AcDbLine
 10
14.40098498376566
 20
-12.97427209762619
 30
0.0
 11
14.69657577508832
 21
-13.33954828683638
 31
0.0
  0
LINE
  5
21E
330
1F
100
AcDbEntity
  8
0
100
AcDbLine
 10
12.65086116259617
 20
-12.55347987790794
 30
0.0
 11
13.11499501751124
 21
-12.48012883810276
 31
0.0
  0
LINE
  5
21F
330
1F
100
AcDbEntity
  8
0
100
AcDbLine
 10
11.41138250002062
 20
-13.85873545694984
 30
0.0
 11
11.57992556361284
 21
-13.42010822793447
 31
0.0
  0
LINE
  5
220
330
1F
100
AcDbEntity
  8
0
100
AcDbLine
 10
11.92202765861456
 20
-15.58478325570999
 30
0.0
 11
11.62643686729189
 21
-15.21950706649979
 31
0.0
  0
LINE
  5
221
330
1F
100
AcDbEntity
  8
0
100
AcDbLine
 10
12.30208687245653
 20
-15.8611084342453
 30
0.0
 11
11.92202765861456
 21
-15.58478325570999
 31
0.0
  0
LINE
  5
222
330
1F
100
AcDbEntity
  8
0
100
AcDbLine
 10
12.74071410147177
 20
-16.02965149783753
 30
0.0
 11
12.30208687245653
 21
-15.8611084342453
 31
0.0
  0
LINE
  5
223
330
1F
100
AcDbEntity
  8
0
100
AcDbLine
 10
13.20801762486898
 20
-16.07892651523341
 30
0.0
 11
12.74071410147177
 21
-16.02965149783753
 31
0.0
  0
LINE
  5
224
330
1F
100
AcDbEntity
  8
0
100
AcDbLine
 10
13.67215147978405
 20
-16.00557547542823
 30
0.0
 11
13.20801762486898
 21
-16.07892651523341
 31
0.0
  0
LINE
  5
225
330
1F
100
AcDbEntity
  8
0
100
AcDbLine
 10
13.58805660052493
 20
32.46919807368879
 30
0.0
 11
14.0261267128125
 21
32.29921223004566
 31
0.0
  0
LINE
  5
226
330
1F
100
AcDbEntity
  8
0
100
AcDbLine
 10
73.98132325979932
 20
28.99627805293867
 30
0.0
 11
73.51695615637959
 21
28.92441844272241
 31
0.0
  0
LINE
  5
227
330
1F
100
AcDbEntity
  8
0
100
AcDbLine
 10
74.34072165708096
 20
32.30276908788679
 30
0.0
 11
74.71989120254628
 21
32.02522437777618
 31
0.0
  0
LINE
  5
228
330
1F
100
AcDbEntity
  8
0
100
AcDbLine
 10
74.41126880217358
 20
29.1858761565978
 30
0.0
 11
73.98132325979932
 21
28.99627805293867
 31
0.0
  0
LINE
  5
229
330
1F
100
AcDbEntity
  8
0
100
AcDbLine
 10
71.74933375893092
 20
-14.78382196593295
 30
0.0
 11
71.67675226997262
 21
-14.31956714605561
 31
0.0
  0
LINE
  5
22A
330
1F
100
AcDbEntity
  8
0
100
AcDbLine
 10
117.0350679852742
 20
-9.126039396364302
 30
0.0
 11
116.7490144874824
 21
-9.498831572676712
 31
0.0
  0
LINE
  5
22B
330
1F
100
AcDbEntity
  8
0
100
AcDbLine
 10
116.7490144874824
 20
-9.498831572676712
 30
0.0
 11
116.37622231117
 21
-9.78488507046867
 31
0.0
  0
LINE
  5
22C
330
1F
100
AcDbEntity
  8
0
100
AcDbLine
 10
75.01285140354815
 20
-13.33860575395821
 30
0.0
 11
75.20311772740857
 21
-13.76825600279257
 31
0.0
  0
LINE
  5
22D
330
1F
100
AcDbEntity
  8
0
100
AcDbLine
 10
123.4762217431701
 20
48.17395601963613
 30
0.0
 11
68.47622614316977
 21
48.17395601963613
 31
0.0
  0
LINE
  5
22E
330
1F
100
AcDbEntity
  8
0
100
AcDbLine
 10
73.27622575916979
 20
34.77395709163738
 30
0.0
 11
80.27622519916987
 21
34.77395709163738
 31
0.0
  0
LINE
  5
22F
330
1F
100
AcDbEntity
  8
0
100
AcDbLine
 10
74.77749270530856
 20
29.48029195626093
 30
0.0
 11
74.41126880217358
 21
29.1858761565978
 31
0.0
  0
LINE
  5
230
330
1F
100
AcDbEntity
  8
0
100
AcDbLine
 10
73.51975390486274
 20
-16.07551245755979
 30
0.0
 11
73.05253271269972
 21
-16.02546280309026
 31
0.0
  0
LINE
  5
231
330
1F
100
AcDbEntity
  8
0
100
AcDbLine
 10
73.05253271269972
 20
-16.02546280309026
 30
0.0
 11
72.6141855003773
 21
-15.85619280643401
 31
0.0
  0
LINE
  5
232
330
1F
100
AcDbEntity
  8
0
100
AcDbLine
 10
100.1639481841573
 20
-25.12603811636316
 30
0.0
 11
100.1639481841573
 21
-18.32603866036313
 31
0.0
  0
LINE
  5
233
330
1F
100
AcDbEntity
  8
0
100
AcDbLine
 10
100.1639481841573
 20
-18.32603866036313
 30
0.0
 11
115.4762223831695
 21
-18.32603866036313
 31
0.0
  0
LINE
  5
234
330
1F
100
AcDbEntity
  8
0
100
AcDbLine
 10
100.163948184158
 20
34.77395709163702
 30
0.0
 11
115.4762223831699
 21
34.77395709163702
 31
0.0
  0
LINE
  5
235
330
1F
100
AcDbEntity
  8
0
100
AcDbLine
 10
100.163948184158
 20
41.57395654763705
 30
0.0
 11
100.163948184158
 21
34.77395709163702
 31
0.0
  0
LINE
  5
236
330
1F
100
AcDbEntity
  8
0
100
AcDbLine
 10
115.4762223831699
 20
41.57395654763705
 30
0.0
 11
100.163948184158
 21
41.57395654763705
 31
0.0
  0
LINE
  5
237
330
1F
100
AcDbEntity
  8
0
100
AcDbLine
 10
73.27622575916979
 20
41.57395654763741
 30
0.0
 11
73.27622575916979
 21
34.77395709163738
 31
0.0
  0
LINE
  5
238
330
1F
100
AcDbEntity
  8
0
100
AcDbLine
 10
80.27622519916987
 20
41.57395654763741
 30
0.0
 11
73.27622575916979
 21
41.57395654763741
 31
0.0
  0
LINE
  5
239
330
1F
100
AcDbEntity
  8
0
100
AcDbLine
 10
80.27622519916987
 20
34.77395709163738
 30
0.0
 11
80.27622519916987
 21
41.57395654763741
 31
0.0
  0
LINE
  5
23A
330
1F
100
AcDbEntity
  8
0
100
AcDbLine
 10
75.20311772740857
 20
-13.76825600279257
 30
0.0
 11
75.27569921636687
 21
-14.23251082266991
 31
0.0
  0
LINE
  5
23B
330
1F
100
AcDbEntity
  8
0
100
AcDbLine
 10
75.27569921636687
 20
-14.23251082266991
 30
0.0
 11
75.22564956189738
 21
-14.69973201483292
 31
0.0
  0
LINE
  5
23C
330
1F
100
AcDbEntity
  8
0
100
AcDbLine
 10
75.22564956189738
 20
-14.69973201483292
 30
0.0
 11
75.05637956524096
 21
-15.13807922715524
 31
0.0
  0
LINE
  5
23D
330
1F
100
AcDbEntity
  8
0
100
AcDbLine
 10
75.05637956524096
 20
-15.13807922715524
 30
0.0
 11
74.77942469693818
 21
-15.51767982152011
 31
0.0
  0
LINE
  5
23E
330
1F
100
AcDbEntity
  8
0
100
AcDbLine
 10
74.77942469693818
 20
-15.51767982152011
 30
0.0
 11
74.41365897357443
 21
-15.81266464474116
 31
0.0
  0
LINE
  5
23F
330
1F
100
AcDbEntity
  8
0
100
AcDbLine
 10
71.67675226997262
 20
-14.31956714605561
 30
0.0
 11
71.7268019244421
 21
-13.85234595389259
 31
0.0
  0
LINE
  5
240
330
1F
100
AcDbEntity
  8
0
100
AcDbLine
 10
71.7268019244421
 20
-13.85234595389259
 30
0.0
 11
71.89607192109854
 21
-13.41399874157027
 31
0.0
  0
LINE
  5
241
330
1F
100
AcDbEntity
  8
0
100
AcDbLine
 10
71.89607192109854
 20
-13.41399874157027
 30
0.0
 11
72.1730267894013
 21
-13.0343981472054
 31
0.0
  0
LINE
  5
242
330
1F
100
AcDbEntity
  8
0
100
AcDbLine
 10
72.1730267894013
 20
-13.0343981472054
 30
0.0
 11
72.53879251276506
 21
-12.73941332398435
 31
0.0
  0
LINE
  5
243
330
1F
100
AcDbEntity
  8
0
100
AcDbLine
 10
72.53879251276506
 20
-12.73941332398435
 30
0.0
 11
72.96844276159955
 21
-12.54914700012407
 31
0.0
  0
LINE
  5
244
330
1F
100
AcDbEntity
  8
0
100
AcDbLine
 10
72.96844276159955
 20
-12.54914700012407
 30
0.0
 11
73.43269758147676
 21
-12.47656551116573
 31
0.0
  0
LINE
  5
245
330
1F
100
AcDbEntity
  8
0
100
AcDbLine
 10
73.43269758147676
 20
-12.47656551116573
 30
0.0
 11
73.89991877363977
 21
-12.52661516563526
 31
0.0
  0
LINE
  5
246
330
1F
100
AcDbEntity
  8
0
100
AcDbLine
 10
73.89991877363977
 20
-12.52661516563526
 30
0.0
 11
74.3382659859622
 21
-12.69588516229151
 31
0.0
  0
LINE
  5
247
330
1F
100
AcDbEntity
  8
0
100
AcDbLine
 10
74.3382659859622
 20
-12.69588516229151
 30
0.0
 11
74.7178665803272
 21
-12.97284003059423
 31
0.0
  0
LINE
  5
248
330
1F
100
AcDbEntity
  8
0
100
AcDbLine
 10
74.7178665803272
 20
-12.97284003059423
 30
0.0
 11
75.01285140354815
 21
-13.33860575395821
 31
0.0
  0
LINE
  5
249
330
1F
100
AcDbEntity
  8
0
100
AcDbLine
 10
117.27622223917
 20
-8.226039468364274
 30
0.0
 11
117.214888731397
 21
-8.691913712278897
 31
0.0
  0
LINE
  5
24A
330
1F
100
AcDbEntity
  8
0
100
AcDbLine
 10
117.214888731397
 20
-8.691913712278897
 30
0.0
 11
117.0350679852742
 21
-9.126039396364302
 31
0.0
  0
LINE
  5
24B
330
1F
100
AcDbEntity
  8
0
100
AcDbLine
 10
115.9420966270847
 20
-6.487373120137215
 30
0.0
 11
116.37622231117
 21
-6.667193866259879
 31
0.0
  0
LINE
  5
24C
330
1F
100
AcDbEntity
  8
0
100
AcDbLine
 10
116.37622231117
 20
-6.667193866259879
 30
0.0
 11
116.7490144874824
 21
-6.953247364051837
 31
0.0
  0
LINE
  5
24D
330
1F
100
AcDbEntity
  8
0
100
AcDbLine
 10
116.7490144874824
 20
-6.953247364051837
 30
0.0
 11
117.0350679852742
 21
-7.326039540364248
 31
0.0
  0
LINE
  5
24E
330
1F
100
AcDbEntity
  8
0
100
AcDbLine
 10
117.0350679852742
 20
-7.326039540364248
 30
0.0
 11
117.214888731397
 21
-7.760165224449653
 31
0.0
  0
LINE
  5
24F
330
1F
100
AcDbEntity
  8
0
100
AcDbLine
 10
117.214888731397
 20
-7.760165224449653
 30
0.0
 11
117.27622223917
 21
-8.226039468364274
 31
0.0
  0
LINE
  5
250
330
1F
100
AcDbEntity
  8
0
100
AcDbLine
 10
113.917376781066
 20
23.77395797163701
 30
0.0
 11
113.7375560349434
 21
24.20808365572246
 31
0.0
  0
LINE
  5
251
330
1F
100
AcDbEntity
  8
0
100
AcDbLine
 10
116.749014487483
 20
25.94675000394956
 30
0.0
 11
117.0350679852748
 21
25.57395782763715
 31
0.0
  0
LINE
  5
252
330
1F
100
AcDbEntity
  8
0
100
AcDbLine
 10
117.0350679852748
 20
25.57395782763715
 30
0.0
 11
117.2148887313974
 21
25.1398321435517
 31
0.0
  0
LINE
  5
253
330
1F
100
AcDbEntity
  8
0
100
AcDbLine
 10
117.2148887313974
 20
25.1398321435517
 30
0.0
 11
117.2762222391705
 21
24.67395789963708
 31
0.0
  0
LINE
  5
254
330
1F
100
AcDbEntity
  8
0
100
AcDbLine
 10
117.2762222391705
 20
24.67395789963708
 30
0.0
 11
117.2148887313974
 21
24.20808365572246
 31
0.0
  0
LINE
  5
255
330
1F
100
AcDbEntity
  8
0
100
AcDbLine
 10
75.0143070022093
 20
31.65900047464119
 30
0.0
 11
75.20390510586853
 21
31.22905493226685
 31
0.0
  0
LINE
  5
256
330
1F
100
AcDbEntity
  8
0
100
AcDbLine
 10
75.20390510586853
 20
31.22905493226685
 30
0.0
 11
75.27576471608461
 21
30.76468782884722
 31
0.0
  0
LINE
  5
257
330
1F
100
AcDbEntity
  8
0
100
AcDbLine
 10
75.27576471608461
 20
30.76468782884722
 30
0.0
 11
75.22498871917549
 21
30.29754501507758
 31
0.0
  0
LINE
  5
258
330
1F
100
AcDbEntity
  8
0
100
AcDbLine
 10
75.22498871917549
 20
30.29754501507758
 30
0.0
 11
75.05503741541918
 21
29.85946150172624
 31
0.0
  0
LINE
  5
259
330
1F
100
AcDbEntity
  8
0
100
AcDbLine
 10
75.05503741541918
 20
29.85946150172624
 30
0.0
 11
74.77749270530856
 21
29.48029195626093
 31
0.0
  0
LINE
  5
25A
330
1F
100
AcDbEntity
  8
0
100
AcDbLine
 10
73.51695615637959
 20
28.92441844272241
 30
0.0
 11
73.04981334260995
 21
28.97519443963154
 31
0.0
  0
LINE
  5
25B
330
1F
100
AcDbEntity
  8
0
100
AcDbLine
 10
73.04981334260995
 20
28.97519443963154
 30
0.0
 11
72.61172982925852
 21
29.14514574338794
 31
0.0
  0
LINE
  5
25C
330
1F
100
AcDbEntity
  8
0
100
AcDbLine
 10
72.61172982925852
 20
29.14514574338794
 30
0.0
 11
72.23256028379322
 21
29.42269045349855
 31
0.0
  0
LINE
  5
25D
330
1F
100
AcDbEntity
  8
0
100
AcDbLine
 10
72.23256028379322
 20
29.42269045349855
 30
0.0
 11
71.93814448413018
 21
29.78891435663354
 31
0.0
  0
LINE
  5
25E
330
1F
100
AcDbEntity
  8
0
100
AcDbLine
 10
71.93814448413018
 20
29.78891435663354
 30
0.0
 11
71.74854638047097
 21
30.21885989900788
 31
0.0
  0
LINE
  5
25F
330
1F
100
AcDbEntity
  8
0
100
AcDbLine
 10
71.74854638047097
 20
30.21885989900788
 30
0.0
 11
71.67668677025488
 21
30.68322700242751
 31
0.0
  0
LINE
  5
260
330
1F
100
AcDbEntity
  8
0
100
AcDbLine
 10
71.67668677025488
 20
30.68322700242751
 30
0.0
 11
71.727462767164
 21
31.15036981619716
 31
0.0
  0
LINE
  5
261
330
1F
100
AcDbEntity
  8
0
100
AcDbLine
 10
71.727462767164
 20
31.15036981619716
 30
0.0
 11
71.89741407092032
 21
31.5884533295485
 31
0.0
  0
LINE
  5
262
330
1F
100
AcDbEntity
  8
0
100
AcDbLine
 10
-6.648723394781692
 20
-57.80178238599063
 30
0.0
 11
-11.64872144774439
 21
-57.79784914678394
 31
0.0
  0
LINE
  5
263
330
1F
100
AcDbEntity
  8
0
100
AcDbLine
 10
-109.5435217383862
 20
-48.19784991478389
 30
0.0
 11
-55.54352605838551
 21
-66.79784842678393
 31
0.0
  0
LINE
  5
264
330
1F
100
AcDbEntity
  8
0
100
AcDbLine
 10
-6.102375740490158
 20
-63.197848714784
 30
0.0
 11
-6.282196486612597
 21
-62.76372303069855
 31
0.0
  0
LINE
  5
265
330
1F
100
AcDbEntity
  8
0
100
AcDbLine
 10
-6.282196486612597
 20
-62.76372303069855
 30
0.0
 11
-6.343529994385726
 21
-62.29784878678393
 31
0.0
  0
LINE
  5
266
330
1F
100
AcDbEntity
  8
0
100
AcDbLine
 10
-38.66099099786662
 20
-66.79784842678393
 30
0.0
 11
-38.66099099786662
 21
-57.79784914678394
 31
0.0
  0
LINE
  5
267
330
1F
100
AcDbEntity
  8
0
100
AcDbLine
 10
-51.54352637838603
 20
-60.49784893078387
 30
0.0
 11
-51.07765213447141
 21
-60.55918243855683
 31
0.0
  0
LINE
  5
268
330
1F
100
AcDbEntity
  8
0
100
AcDbLine
 10
-47.54352669838547
 20
-37.59785076278375
 30
0.0
 11
-47.54352669838547
 21
-43.19785031478382
 31
0.0
  0
LINE
  5
269
330
1F
100
AcDbEntity
  8
0
100
AcDbLine
 10
-91.54352317838604
 20
-43.19785031478382
 30
0.0
 11
-47.54352669838547
 21
-43.19785031478382
 31
0.0
  0
LINE
  5
26A
330
1F
100
AcDbEntity
  8
0
100
AcDbLine
 10
-91.54352317838604
 20
-37.59785076278375
 30
0.0
 11
-91.54352317838604
 21
-43.19785031478382
 31
0.0
  0
LINE
  5
26B
330
1F
100
AcDbEntity
  8
0
100
AcDbLine
 10
-91.57759734937092
 20
-37.33903173838674
 30
0.0
 11
-91.54352317838604
 21
-37.59785076278375
 31
0.0
  0
LINE
  5
26C
330
1F
100
AcDbEntity
  8
0
100
AcDbLine
 10
-100.8023414827832
 20
-36.63192501376873
 30
0.0
 11
-100.5435224583862
 21
-36.59785084278375
 31
0.0
  0
LINE
  5
26D
330
1F
100
AcDbEntity
  8
0
100
AcDbLine
 10
-109.5435217383862
 20
-43.19785031478382
 30
0.0
 11
-101.5435223783862
 21
-43.19785031478382
 31
0.0
  0
LINE
  5
26E
330
1F
100
AcDbEntity
  8
0
100
AcDbLine
 10
-50.04352649838473
 20
-73.26387331328641
 30
0.0
 11
-49.80234556278167
 21
-73.36377372779901
 31
0.0
  0
LINE
  5
26F
330
1F
100
AcDbEntity
  8
0
100
AcDbLine
 10
-49.80234556278167
 20
-73.36377372779901
 30
0.0
 11
-49.54352653838467
 21
-73.39784789878401
 31
0.0
  0
LINE
  5
270
330
1F
100
AcDbEntity
  8
0
100
AcDbLine
 10
-49.54352653838467
 20
-73.39784789878401
 30
0.0
 11
-44.9435269063846
 21
-73.39784789878401
 31
0.0
  0
LINE
  5
271
330
1F
100
AcDbEntity
  8
0
100
AcDbLine
 10
-44.68470788198758
 20
-73.36377372779901
 30
0.0
 11
-44.9435269063846
 21
-73.39784789878401
 31
0.0
  0
LINE
  5
272
330
1F
100
AcDbEntity
  8
0
100
AcDbLine
 10
-44.44352694638452
 20
-73.26387331328641
 30
0.0
 11
-44.68470788198758
 21
-73.36377372779901
 31
0.0
  0
LINE
  5
273
330
1F
100
AcDbEntity
  8
0
100
AcDbLine
 10
-44.23642018176654
 20
-73.10495470340202
 30
0.0
 11
-44.44352694638452
 21
-73.26387331328641
 31
0.0
  0
LINE
  5
274
330
1F
100
AcDbEntity
  8
0
100
AcDbLine
 10
-44.07750157188224
 20
-72.89784793878403
 30
0.0
 11
-44.23642018176654
 21
-73.10495470340202
 31
0.0
  0
LINE
  5
275
330
1F
100
AcDbEntity
  8
0
100
AcDbLine
 10
-43.97760115736953
 20
-72.65666700318101
 30
0.0
 11
-44.07750157188224
 21
-72.89784793878403
 31
0.0
  0
LINE
  5
276
330
1F
100
AcDbEntity
  8
0
100
AcDbLine
 10
-43.94352698638464
 20
-72.397847978784
 30
0.0
 11
-43.97760115736953
 21
-72.65666700318101
 31
0.0
  0
LINE
  5
277
330
1F
100
AcDbEntity
  8
0
100
AcDbLine
 10
-43.94352698638464
 20
-72.397847978784
 30
0.0
 11
-43.94352698638464
 21
-66.79784842678393
 31
0.0
  0
LINE
  5
278
330
1F
100
AcDbEntity
  8
0
100
AcDbLine
 10
-43.94352698638464
 20
-66.79784842678393
 30
0.0
 11
-38.66099099786662
 21
-66.79784842678393
 31
0.0
  0
LINE
  5
279
330
1F
100
AcDbEntity
  8
0
100
AcDbLine
 10
-44.44352694638543
 20
-57.79784914678394
 30
0.0
 11
-38.66099099786662
 21
-57.79784914678394
 31
0.0
  0
LINE
  5
27A
330
1F
100
AcDbEntity
  8
0
100
AcDbLine
 10
-44.44352694638543
 20
-51.19784967478386
 30
0.0
 11
-44.44352694638543
 21
-57.79784914678394
 31
0.0
  0
LINE
  5
27B
330
1F
100
AcDbEntity
  8
0
100
AcDbLine
 10
-20.94352882638503
 20
-51.19784967478386
 30
0.0
 11
-44.44352694638543
 21
-51.19784967478386
 31
0.0
  0
LINE
  5
27C
330
1F
100
AcDbEntity
  8
0
100
AcDbLine
 10
-20.94352882638503
 20
-57.79784914678394
 30
0.0
 11
-20.94352882638503
 21
-51.19784967478386
 31
0.0
  0
LINE
  5
27D
330
1F
100
AcDbEntity
  8
0
100
AcDbLine
 10
-23.65580403339823
 20
-57.79784914678394
 30
0.0
 11
-20.94352882638503
 21
-57.79784914678394
 31
0.0
  0
LINE
  5
27E
330
1F
100
AcDbEntity
  8
0
100
AcDbLine
 10
-23.65580403339823
 20
-72.397847978784
 30
0.0
 11
-23.65580403339823
 21
-57.79784914678394
 31
0.0
  0
LINE
  5
27F
330
1F
100
AcDbEntity
  8
0
100
AcDbLine
 10
-23.62172986241334
 20
-72.65666700318101
 30
0.0
 11
-23.65580403339823
 21
-72.397847978784
 31
0.0
  0
LINE
  5
280
330
1F
100
AcDbEntity
  8
0
100
AcDbLine
 10
-23.52182944790063
 20
-72.89784793878403
 30
0.0
 11
-23.62172986241334
 21
-72.65666700318101
 31
0.0
  0
LINE
  5
281
330
1F
100
AcDbEntity
  8
0
100
AcDbLine
 10
-23.36291083801632
 20
-73.10495470340202
 30
0.0
 11
-23.52182944790063
 21
-72.89784793878403
 31
0.0
  0
LINE
  5
282
330
1F
100
AcDbEntity
  8
0
100
AcDbLine
 10
-23.15580407339834
 20
-73.26387331328641
 30
0.0
 11
-23.36291083801632
 21
-73.10495470340202
 31
0.0
  0
LINE
  5
283
330
1F
100
AcDbEntity
  8
0
100
AcDbLine
 10
-22.91462313779528
 20
-73.36377372779901
 30
0.0
 11
-23.15580407339834
 21
-73.26387331328641
 31
0.0
  0
LINE
  5
284
330
1F
100
AcDbEntity
  8
0
100
AcDbLine
 10
-22.65580411339826
 20
-73.39784789878401
 30
0.0
 11
-22.91462313779528
 21
-73.36377372779901
 31
0.0
  0
LINE
  5
285
330
1F
100
AcDbEntity
  8
0
100
AcDbLine
 10
-22.65580411339826
 20
-73.39784789878401
 30
0.0
 11
-9.743529722385336
 21
-73.39784789878401
 31
0.0
  0
LINE
  5
286
330
1F
100
AcDbEntity
  8
0
100
AcDbLine
 10
-8.777603973370269
 20
-72.65666700318101
 30
0.0
 11
-8.877504387882976
 21
-72.89784793878403
 31
0.0
  0
LINE
  5
287
330
1F
100
AcDbEntity
  8
0
100
AcDbLine
 10
-8.743529802385376
 20
-72.39784797878404
 30
0.0
 11
-8.777603973370269
 21
-72.65666700318101
 31
0.0
  0
LINE
  5
288
330
1F
100
AcDbEntity
  8
0
100
AcDbLine
 10
-8.743529802385197
 20
-66.79784842678393
 30
0.0
 11
-0.5435304583852031
 21
-66.79784842678393
 31
0.0
  0
LINE
  5
289
330
1F
100
AcDbEntity
  8
0
100
AcDbLine
 10
-8.54352981838506
 20
-43.19785031478382
 30
0.0
 11
-0.5435304583850226
 21
-43.19785031478382
 31
0.0
  0
LINE
  5
28A
330
1F
100
AcDbEntity
  8
0
100
AcDbLine
 10
-8.54352981838506
 20
-37.59785076278375
 30
0.0
 11
-8.54352981838506
 21
-43.19785031478382
 31
0.0
  0
LINE
  5
28B
330
1F
100
AcDbEntity
  8
0
100
AcDbLine
 10
-8.577603989369951
 20
-37.33903173838674
 30
0.0
 11
-8.54352981838506
 21
-37.59785076278375
 31
0.0
  0
LINE
  5
28C
330
1F
100
AcDbEntity
  8
0
100
AcDbLine
 10
-8.677504403882658
 20
-37.09785080278373
 30
0.0
 11
-8.577603989369951
 21
-37.33903173838674
 31
0.0
  0
LINE
  5
28D
330
1F
100
AcDbEntity
  8
0
100
AcDbLine
 10
-8.836423013766963
 20
-36.89074403816574
 30
0.0
 11
-8.677504403882658
 21
-37.09785080278373
 31
0.0
  0
LINE
  5
28E
330
1F
100
AcDbEntity
  8
0
100
AcDbLine
 10
-9.043529778384949
 20
-36.73182542828135
 30
0.0
 11
-8.836423013766963
 21
-36.89074403816574
 31
0.0
  0
LINE
  5
28F
330
1F
100
AcDbEntity
  8
0
100
AcDbLine
 10
-9.284710713988007
 20
-36.63192501376873
 30
0.0
 11
-9.043529778384949
 21
-36.73182542828135
 31
0.0
  0
LINE
  5
290
330
1F
100
AcDbEntity
  8
0
100
AcDbLine
 10
-9.543529738385018
 20
-36.59785084278375
 30
0.0
 11
-17.54352909838524
 21
-36.59785084278375
 31
0.0
  0
LINE
  5
291
330
1F
100
AcDbEntity
  8
0
100
AcDbLine
 10
-17.80234812278225
 20
-36.63192501376873
 30
0.0
 11
-17.54352909838524
 21
-36.59785084278375
 31
0.0
  0
LINE
  5
292
330
1F
100
AcDbEntity
  8
0
100
AcDbLine
 10
-18.04352905838531
 20
-36.73182542828135
 30
0.0
 11
-17.80234812278225
 21
-36.63192501376873
 31
0.0
  0
LINE
  5
293
330
1F
100
AcDbEntity
  8
0
100
AcDbLine
 10
-18.25063582300329
 20
-36.89074403816574
 30
0.0
 11
-18.04352905838531
 21
-36.73182542828135
 31
0.0
  0
LINE
  5
294
330
1F
100
AcDbEntity
  8
0
100
AcDbLine
 10
-18.4095544328876
 20
-37.09785080278373
 30
0.0
 11
-18.25063582300329
 21
-36.89074403816574
 31
0.0
  0
LINE
  5
295
330
1F
100
AcDbEntity
  8
0
100
AcDbLine
 10
-18.50945484740031
 20
-37.33903173838674
 30
0.0
 11
-18.4095544328876
 21
-37.09785080278373
 31
0.0
  0
LINE
  5
296
330
1F
100
AcDbEntity
  8
0
100
AcDbLine
 10
-18.5435290183852
 20
-43.19785031478382
 30
0.0
 11
-18.5435290183852
 21
-37.59785076278375
 31
0.0
  0
LINE
  5
297
330
1F
100
AcDbEntity
  8
0
100
AcDbLine
 10
-37.54352749838533
 20
-37.59785076278375
 30
0.0
 11
-37.54352749838533
 21
-43.19785031478382
 31
0.0
  0
LINE
  5
298
330
1F
100
AcDbEntity
  8
0
100
AcDbLine
 10
-37.83642069376723
 20
-36.89074403816574
 30
0.0
 11
-38.04352745838522
 21
-36.73182542828135
 31
0.0
  0
LINE
  5
299
330
1F
100
AcDbEntity
  8
0
100
AcDbLine
 10
-38.04352745838522
 20
-36.73182542828135
 30
0.0
 11
-38.28470839398828
 21
-36.63192501376873
 31
0.0
  0
LINE
  5
29A
330
1F
100
AcDbEntity
  8
0
100
AcDbLine
 10
-38.28470839398828
 20
-36.63192501376873
 30
0.0
 11
-38.54352741838529
 21
-36.59785084278375
 31
0.0
  0
LINE
  5
29B
330
1F
100
AcDbEntity
  8
0
100
AcDbLine
 10
-38.54352741838529
 20
-36.59785084278375
 30
0.0
 11
-46.54352677838551
 21
-36.59785084278375
 31
0.0
  0
LINE
  5
29C
330
1F
100
AcDbEntity
  8
0
100
AcDbLine
 10
-46.80234580278252
 20
-36.63192501376873
 30
0.0
 11
-46.54352677838551
 21
-36.59785084278375
 31
0.0
  0
LINE
  5
29D
330
1F
100
AcDbEntity
  8
0
100
AcDbLine
 10
-47.04352673838557
 20
-36.73182542828135
 30
0.0
 11
-46.80234580278252
 21
-36.63192501376873
 31
0.0
  0
LINE
  5
29E
330
1F
100
AcDbEntity
  8
0
100
AcDbLine
 10
-47.25063350300356
 20
-36.89074403816574
 30
0.0
 11
-47.04352673838557
 21
-36.73182542828135
 31
0.0
  0
LINE
  5
29F
330
1F
100
AcDbEntity
  8
0
100
AcDbLine
 10
-47.40955211288787
 20
-37.09785080278373
 30
0.0
 11
-47.25063350300356
 21
-36.89074403816574
 31
0.0
  0
LINE
  5
2A0
330
1F
100
AcDbEntity
  8
0
100
AcDbLine
 10
-47.50945252740058
 20
-37.33903173838674
 30
0.0
 11
-47.40955211288787
 21
-37.09785080278373
 31
0.0
  0
LINE
  5
2A1
330
1F
100
AcDbEntity
  8
0
100
AcDbLine
 10
-47.54352669838547
 20
-37.59785076278375
 30
0.0
 11
-47.50945252740058
 21
-37.33903173838674
 31
0.0
  0
LINE
  5
2A2
330
1F
100
AcDbEntity
  8
0
100
AcDbLine
 10
-2.984684536281368
 20
-63.197848714784
 30
0.0
 11
-3.270738034073189
 21
-63.57064089109642
 31
0.0
  0
LINE
  5
2A3
330
1F
100
AcDbEntity
  8
0
100
AcDbLine
 10
-3.643530210385601
 20
-63.85669438888832
 30
0.0
 11
-4.07765589447096
 21
-64.03651513501104
 31
0.0
  0
LINE
  5
2A4
330
1F
100
AcDbEntity
  8
0
100
AcDbLine
 10
-4.07765589447096
 20
-64.03651513501104
 30
0.0
 11
-4.543530138385763
 21
-64.09784864278399
 31
0.0
  0
LINE
  5
2A5
330
1F
100
AcDbEntity
  8
0
100
AcDbLine
 10
-4.543530138385763
 20
-64.09784864278399
 30
0.0
 11
-5.009404382300205
 21
-64.03651513501104
 31
0.0
  0
LINE
  5
2A6
330
1F
100
AcDbEntity
  8
0
100
AcDbLine
 10
-5.443530066385564
 20
-63.85669438888832
 30
0.0
 11
-5.816322242698156
 21
-63.57064089109642
 31
0.0
  0
LINE
  5
2A7
330
1F
100
AcDbEntity
  8
0
100
AcDbLine
 10
-5.816322242698156
 20
-63.57064089109642
 30
0.0
 11
-6.102375740490158
 21
-63.197848714784
 31
0.0
  0
LINE
  5
2A8
330
1F
100
AcDbEntity
  8
0
100
AcDbLine
 10
-6.343529994385726
 20
-62.29784878678393
 30
0.0
 11
-6.282196486612597
 21
-61.83197454286931
 31
0.0
  0
LINE
  5
2A9
330
1F
100
AcDbEntity
  8
0
100
AcDbLine
 10
-6.282196486612597
 20
-61.83197454286931
 30
0.0
 11
-6.102375740490158
 21
-61.39784885878385
 31
0.0
  0
LINE
  5
2AA
330
1F
100
AcDbEntity
  8
0
100
AcDbLine
 10
-6.102375740490158
 20
-61.39784885878385
 30
0.0
 11
-5.816322242698156
 21
-61.02505668247145
 31
0.0
  0
LINE
  5
2AB
330
1F
100
AcDbEntity
  8
0
100
AcDbLine
 10
-5.816322242698156
 20
-61.02505668247145
 30
0.0
 11
-5.443530066385745
 21
-60.73900318467953
 31
0.0
  0
LINE
  5
2AC
330
1F
100
AcDbEntity
  8
0
100
AcDbLine
 10
-5.443530066385745
 20
-60.73900318467953
 30
0.0
 11
-5.009404382300205
 21
-60.55918243855683
 31
0.0
  0
LINE
  5
2AD
330
1F
100
AcDbEntity
  8
0
100
AcDbLine
 10
-5.009404382300205
 20
-60.55918243855683
 30
0.0
 11
-4.543530138385763
 21
-60.49784893078387
 31
0.0
  0
LINE
  5
2AE
330
1F
100
AcDbEntity
  8
0
100
AcDbLine
 10
-4.543530138385763
 20
-60.49784893078387
 30
0.0
 11
-4.07765589447096
 21
-60.55918243855683
 31
0.0
  0
LINE
  5
2AF
330
1F
100
AcDbEntity
  8
0
100
AcDbLine
 10
-3.643530210385601
 20
-60.73900318467953
 30
0.0
 11
-3.270738034073189
 21
-61.02505668247145
 31
0.0
  0
LINE
  5
2B0
330
1F
100
AcDbEntity
  8
0
100
AcDbLine
 10
-3.270738034073189
 20
-61.02505668247145
 30
0.0
 11
-2.984684536281368
 21
-61.39784885878385
 31
0.0
  0
LINE
  5
2B1
330
1F
100
AcDbEntity
  8
0
100
AcDbLine
 10
-2.984684536281368
 20
-61.39784885878385
 30
0.0
 11
-2.804863790158568
 21
-61.83197454286931
 31
0.0
  0
LINE
  5
2B2
330
1F
100
AcDbEntity
  8
0
100
AcDbLine
 10
-2.804863790158568
 20
-61.83197454286931
 30
0.0
 11
-2.74353028238562
 21
-62.29784878678393
 31
0.0
  0
LINE
  5
2B3
330
1F
100
AcDbEntity
  8
0
100
AcDbLine
 10
-53.28219272661304
 20
-62.76372303069855
 30
0.0
 11
-53.34352623438618
 21
-62.29784878678393
 31
0.0
  0
LINE
  5
2B4
330
1F
100
AcDbEntity
  8
0
100
AcDbLine
 10
-53.34352623438618
 20
-62.29784878678393
 30
0.0
 11
-53.28219272661304
 21
-61.83197454286931
 31
0.0
  0
LINE
  5
2B5
330
1F
100
AcDbEntity
  8
0
100
AcDbLine
 10
-53.10237198049042
 20
-61.39784885878385
 30
0.0
 11
-52.8163184826986
 21
-61.02505668247145
 31
0.0
  0
LINE
  5
2B6
330
1F
100
AcDbEntity
  8
0
100
AcDbLine
 10
-51.07765213447141
 20
-60.55918243855683
 30
0.0
 11
-50.64352645038605
 21
-60.73900318467953
 31
0.0
  0
LINE
  5
2B7
330
1F
100
AcDbEntity
  8
0
100
AcDbLine
 10
-50.27073427407345
 20
-63.57064089109642
 30
0.0
 11
-50.64352645038605
 21
-63.85669438888832
 31
0.0
  0
LINE
  5
2B8
330
1F
100
AcDbEntity
  8
0
100
AcDbLine
 10
-50.64352645038605
 20
-63.85669438888832
 30
0.0
 11
-51.07765213447141
 21
-64.03651513501104
 31
0.0
  0
LINE
  5
2B9
330
1F
100
AcDbEntity
  8
0
100
AcDbLine
 10
-51.54352637838603
 20
-64.09784864278399
 30
0.0
 11
-52.00940062230065
 21
-64.03651513501104
 31
0.0
  0
LINE
  5
2BA
330
1F
100
AcDbEntity
  8
0
100
AcDbLine
 10
-52.00940062230065
 20
-64.03651513501104
 30
0.0
 11
-52.44352630638601
 21
-63.85669438888832
 31
0.0
  0
LINE
  5
2BB
330
1F
100
AcDbEntity
  8
0
100
AcDbLine
 10
-52.8163184826986
 20
-63.57064089109642
 30
0.0
 11
-53.10237198049042
 21
-63.197848714784
 31
0.0
  0
LINE
  5
2BC
330
1F
100
AcDbEntity
  8
0
100
AcDbLine
 10
-6.643531519028831
 20
-51.20178495608008
 30
0.0
 11
-6.648723394781692
 21
-57.80178238599063
 31
0.0
  0
LINE
  5
2BD
330
1F
100
AcDbEntity
  8
0
100
AcDbLine
 10
-20.56099244586538
 20
-62.29784878678393
 30
0.0
 11
-18.36099262186532
 21
-58.48733731497328
 31
0.0
  0
LINE
  5
2BE
330
1F
100
AcDbEntity
  8
0
100
AcDbLine
 10
119.669882941535
 20
80.18528483479949
 30
0.0
 11
10.66989166153383
 21
80.18528483479949
 31
0.0
  0
LINE
  5
2BF
330
1F
100
AcDbEntity
  8
0
100
AcDbLine
 10
91.31252589724262
 20
65.32792671050736
 30
0.0
 11
92.26603755654916
 21
64.08528612279926
 31
0.0
  0
LINE
  5
2C0
330
1F
100
AcDbEntity
  8
0
100
AcDbLine
 10
67.76988709353475
 20
62.64413196490359
 30
0.0
 11
68.20401277762011
 21
62.82395271102621
 31
0.0
  0
LINE
  5
2C1
330
1F
100
AcDbEntity
  8
0
100
AcDbLine
 10
56.43429506550315
 20
-6.956736056355902
 30
0.0
 11
56.72034856329515
 21
-7.329528232668314
 31
0.0
  0
LINE
  5
2C2
330
1F
100
AcDbEntity
  8
0
100
AcDbLine
 10
53.88871085687836
 20
-9.502320264980778
 30
0.0
 11
53.60265735908636
 21
-9.129528088668367
 31
0.0
  0
LINE
  5
2C3
330
1F
100
AcDbEntity
  8
0
100
AcDbLine
 10
54.69562871727613
 20
-9.968194508895401
 30
0.0
 11
54.26150303319078
 21
-9.788373762772736
 31
0.0
  0
LINE
  5
2C4
330
1F
100
AcDbEntity
  8
0
100
AcDbLine
 10
56.72034856329515
 20
-9.129528088668367
 30
0.0
 11
56.43429506550315
 21
-9.502320264980778
 31
0.0
  0
LINE
  5
2C5
330
1F
100
AcDbEntity
  8
0
100
AcDbLine
 10
63.16150232119043
 20
34.77046839933159
 30
0.0
 11
56.85977270644856
 21
34.77046839933178
 31
0.0
  0
LINE
  5
2C6
330
1F
100
AcDbEntity
  8
0
100
AcDbLine
 10
56.85977270644856
 20
34.77046839933178
 30
0.0
 11
56.85977270644856
 21
39.77046799933166
 31
0.0
  0
LINE
  5
2C7
330
1F
100
AcDbEntity
  8
0
100
AcDbLine
 10
56.8597727064482
 20
-18.32952735266836
 30
0.0
 11
56.85583884720953
 21
-23.33031360050992
 31
0.0
  0
LINE
  5
2C8
330
1F
100
AcDbEntity
  8
0
100
AcDbLine
 10
12.9440452477672
 20
26.67046904733194
 30
0.0
 11
20.04404467976726
 21
26.67046904733194
 31
0.0
  0
LINE
  5
2C9
330
1F
100
AcDbEntity
  8
0
100
AcDbLine
 10
36.04403840365288
 20
-3.929528504668343
 30
0.0
 11
43.11250199609908
 21
-3.929528504668343
 31
0.0
  0
LINE
  5
2CA
330
1F
100
AcDbEntity
  8
0
100
AcDbLine
 10
53.60265735908636
 20
-9.129528088668367
 30
0.0
 11
53.42283661296374
 21
-8.695402404582962
 31
0.0
  0
LINE
  5
2CB
330
1F
100
AcDbEntity
  8
0
100
AcDbLine
 10
53.88871085687836
 20
-6.956736056355902
 30
0.0
 11
54.2615030331906
 21
-6.670682558563945
 31
0.0
  0
LINE
  5
2CC
330
1F
100
AcDbEntity
  8
0
100
AcDbLine
 10
14.46676190023201
 20
-15.51900633924368
 30
0.0
 11
14.10148571102186
 21
-15.81459713056644
 31
0.0
  0
LINE
  5
2CD
330
1F
100
AcDbEntity
  8
0
100
AcDbLine
 10
53.42283661296374
 20
-7.763653916753719
 30
0.0
 11
53.60265735908636
 21
-7.329528232668314
 31
0.0
  0
LINE
  5
2CE
330
1F
100
AcDbEntity
  8
0
100
AcDbLine
 10
11.62643686729189
 20
-15.21950706649979
 30
0.0
 11
11.43545852242987
 21
-14.79017283526194
 31
0.0
  0
LINE
  5
2CF
330
1F
100
AcDbEntity
  8
0
100
AcDbLine
 10
52.26150319319031
 20
-18.32952735266841
 30
0.0
 11
52.26150319319031
 21
-23.32952695266888
 31
0.0
  0
LINE
  5
2D0
330
1F
100
AcDbEntity
  8
0
100
AcDbLine
 10
54.26150303319078
 20
-9.788373762772736
 30
0.0
 11
53.88871085687836
 21
-9.502320264980778
 31
0.0
  0
LINE
  5
2D1
330
1F
100
AcDbEntity
  8
0
100
AcDbLine
 10
19.96150577719005
 20
40.63649333383448
 30
0.0
 11
20.20268671279311
 21
40.73639374834701
 31
0.0
  0
LINE
  5
2D2
330
1F
100
AcDbEntity
  8
0
100
AcDbLine
 10
19.75439901257206
 20
40.47757472395008
 30
0.0
 11
19.96150577719005
 21
40.63649333383448
 31
0.0
  0
LINE
  5
2D3
330
1F
100
AcDbEntity
  8
0
100
AcDbLine
 10
19.59548040268776
 20
40.270467959332
 30
0.0
 11
19.75439901257206
 21
40.47757472395008
 31
0.0
  0
LINE
  5
2D4
330
1F
100
AcDbEntity
  8
0
100
AcDbLine
 10
19.49557998817505
 20
40.02928702372904
 30
0.0
 11
19.59548040268776
 21
40.270467959332
 31
0.0
  0
LINE
  5
2D5
330
1F
100
AcDbEntity
  8
0
100
AcDbLine
 10
19.46150581719016
 20
39.77046799933202
 30
0.0
 11
19.49557998817505
 21
40.02928702372904
 31
0.0
  0
LINE
  5
2D6
330
1F
100
AcDbEntity
  8
0
100
AcDbLine
 10
19.46150581719016
 20
34.77046839933214
 30
0.0
 11
19.46150581719016
 21
39.77046799933202
 31
0.0
  0
LINE
  5
2D7
330
1F
100
AcDbEntity
  8
0
100
AcDbLine
 10
8.16150672118995
 20
-18.32952735266801
 30
0.0
 11
19.46150581719016
 21
-18.32952735266801
 31
0.0
  0
LINE
  5
2D8
330
1F
100
AcDbEntity
  8
0
100
AcDbLine
 10
19.46150581719016
 20
-18.32952735266801
 30
0.0
 11
19.46150581719016
 21
-23.32952695266897
 31
0.0
  0
LINE
  5
2D9
330
1F
100
AcDbEntity
  8
0
100
AcDbLine
 10
19.46150581719016
 20
-23.32952695266897
 30
0.0
 11
19.49557998817505
 21
-23.58834597706599
 31
0.0
  0
LINE
  5
2DA
330
1F
100
AcDbEntity
  8
0
100
AcDbLine
 10
42.02032305758766
 20
-24.29545270168337
 30
0.0
 11
41.76150403319065
 21
-24.32952687266835
 31
0.0
  0
LINE
  5
2DB
330
1F
100
AcDbEntity
  8
0
100
AcDbLine
 10
42.26150399319071
 20
-24.19555228717075
 30
0.0
 11
42.02032305758766
 21
-24.29545270168337
 31
0.0
  0
LINE
  5
2DC
330
1F
100
AcDbEntity
  8
0
100
AcDbLine
 10
42.4686107578087
 20
-24.03663367728635
 30
0.0
 11
42.26150399319071
 21
-24.19555228717075
 31
0.0
  0
LINE
  5
2DD
330
1F
100
AcDbEntity
  8
0
100
AcDbLine
 10
42.62752936769301
 20
-23.82952691266832
 30
0.0
 11
42.4686107578087
 21
-24.03663367728635
 31
0.0
  0
LINE
  5
2DE
330
1F
100
AcDbEntity
  8
0
100
AcDbLine
 10
42.72742978220571
 20
-23.58834597706536
 30
0.0
 11
42.62752936769301
 21
-23.82952691266832
 31
0.0
  0
LINE
  5
2DF
330
1F
100
AcDbEntity
  8
0
100
AcDbLine
 10
42.7615039531906
 20
-23.32952695266834
 30
0.0
 11
42.72742978220571
 21
-23.58834597706536
 31
0.0
  0
LINE
  5
2E0
330
1F
100
AcDbEntity
  8
0
100
AcDbLine
 10
42.7615039531906
 20
-23.32952695266834
 30
0.0
 11
42.7615039531906
 21
-18.32952735266828
 31
0.0
  0
LINE
  5
2E1
330
1F
100
AcDbEntity
  8
0
100
AcDbLine
 10
52.26150319319031
 20
-18.32952735266841
 30
0.0
 11
42.7615039531906
 21
-18.32952735266828
 31
0.0
  0
LINE
  5
2E2
330
1F
100
AcDbEntity
  8
0
100
AcDbLine
 10
52.26150319319031
 20
-23.32952695266888
 30
0.0
 11
52.2955773641752
 21
-23.5883459770659
 31
0.0
  0
LINE
  5
2E3
330
1F
100
AcDbEntity
  8
0
100
AcDbLine
 10
52.76150315319038
 20
-24.19555228717133
 30
0.0
 11
53.00268408879344
 21
-24.29545270168391
 31
0.0
  0
LINE
  5
2E4
330
1F
100
AcDbEntity
  8
0
100
AcDbLine
 10
53.00268408879344
 20
-24.29545270168391
 30
0.0
 11
53.26150311319046
 21
-24.32952687266889
 31
0.0
  0
LINE
  5
2E5
330
1F
100
AcDbEntity
  8
0
100
AcDbLine
 10
53.26150311319046
 20
-24.32952687266889
 30
0.0
 11
55.85583923661716
 21
-24.32952687266857
 31
0.0
  0
LINE
  5
2E6
330
1F
100
AcDbEntity
  8
0
100
AcDbLine
 10
56.11453161819933
 20
-24.29548662662565
 30
0.0
 11
55.85583923661716
 21
-24.32952687266857
 31
0.0
  0
LINE
  5
2E7
330
1F
100
AcDbEntity
  8
0
100
AcDbLine
 10
56.35561209373552
 20
-24.19568336538378
 30
0.0
 11
56.11453161819933
 21
-24.29548662662565
 31
0.0
  0
LINE
  5
2E8
330
1F
100
AcDbEntity
  8
0
100
AcDbLine
 10
56.56266778450604
 20
-24.03691174462354
 30
0.0
 11
56.35561209373552
 21
-24.19568336538378
 31
0.0
  0
LINE
  5
2E9
330
1F
100
AcDbEntity
  8
0
100
AcDbLine
 10
56.72160223606632
 20
-23.82998101528027
 30
0.0
 11
56.56266778450604
 21
-24.03691174462354
 31
0.0
  0
LINE
  5
2EA
330
1F
100
AcDbEntity
  8
0
100
AcDbLine
 10
56.8215951118792
 20
-23.58897912436244
 30
0.0
 11
56.72160223606632
 21
-23.82998101528027
 31
0.0
  0
LINE
  5
2EB
330
1F
100
AcDbEntity
  8
0
100
AcDbLine
 10
56.85583884720953
 20
-23.33031360050992
 30
0.0
 11
56.8215951118792
 21
-23.58897912436244
 31
0.0
  0
LINE
  5
2EC
330
1F
100
AcDbEntity
  8
0
100
AcDbLine
 10
56.82569853546367
 20
40.02928702372868
 30
0.0
 11
56.85977270644856
 21
39.77046799933166
 31
0.0
  0
LINE
  5
2ED
330
1F
100
AcDbEntity
  8
0
100
AcDbLine
 10
56.72579812095096
 20
40.27046795933165
 30
0.0
 11
56.82569853546367
 21
40.02928702372868
 31
0.0
  0
LINE
  5
2EE
330
1F
100
AcDbEntity
  8
0
100
AcDbLine
 10
56.56687951106665
 20
40.47757472394963
 30
0.0
 11
56.72579812095096
 21
40.27046795933165
 31
0.0
  0
LINE
  5
2EF
330
1F
100
AcDbEntity
  8
0
100
AcDbLine
 10
55.85977278644859
 20
40.77046791933171
 30
0.0
 11
56.11859181084561
 21
40.73639374834664
 31
0.0
  0
LINE
  5
2F0
330
1F
100
AcDbEntity
  8
0
100
AcDbLine
 10
52.39405487489419
 20
40.27046795933165
 30
0.0
 11
52.5529734847785
 21
40.47757472394963
 31
0.0
  0
LINE
  5
2F1
330
1F
100
AcDbEntity
  8
0
100
AcDbLine
 10
52.29415446038149
 20
40.02928702372868
 30
0.0
 11
52.39405487489419
 21
40.27046795933165
 31
0.0
  0
LINE
  5
2F2
330
1F
100
AcDbEntity
  8
0
100
AcDbLine
 10
52.2600802893966
 20
39.77046799933166
 30
0.0
 11
52.29415446038149
 21
40.02928702372868
 31
0.0
  0
LINE
  5
2F3
330
1F
100
AcDbEntity
  8
0
100
AcDbLine
 10
52.2600802893966
 20
39.77046799933166
 30
0.0
 11
52.2600802893966
 21
34.77046839933178
 31
0.0
  0
LINE
  5
2F4
330
1F
100
AcDbEntity
  8
0
100
AcDbLine
 10
42.76150395319151
 20
39.77046799933175
 30
0.0
 11
42.72742978220661
 21
40.02928702372877
 31
0.0
  0
LINE
  5
2F5
330
1F
100
AcDbEntity
  8
0
100
AcDbLine
 10
42.72742978220661
 20
40.02928702372877
 30
0.0
 11
42.62752936769391
 21
40.27046795933173
 31
0.0
  0
LINE
  5
2F6
330
1F
100
AcDbEntity
  8
0
100
AcDbLine
 10
42.62752936769391
 20
40.27046795933173
 30
0.0
 11
42.46861075780961
 21
40.47757472394972
 31
0.0
  0
LINE
  5
2F7
330
1F
100
AcDbEntity
  8
0
100
AcDbLine
 10
42.46861075780961
 20
40.47757472394972
 30
0.0
 11
42.26150399319162
 21
40.63649333383412
 31
0.0
  0
LINE
  5
2F8
330
1F
100
AcDbEntity
  8
0
100
AcDbLine
 10
42.26150399319162
 20
40.63649333383412
 30
0.0
 11
42.02032305758856
 21
40.73639374834674
 31
0.0
  0
LINE
  5
2F9
330
1F
100
AcDbEntity
  8
0
100
AcDbLine
 10
43.11250199609908
 20
-10.2295280006683
 30
0.0
 11
36.04403840365288
 21
-10.2295280006683
 31
0.0
  0
LINE
  5
2FA
330
1F
100
AcDbEntity
  8
0
100
AcDbLine
 10
36.04403840365306
 20
-16.77951732552685
 30
0.0
 11
36.04403840365288
 21
-10.2295280006683
 31
0.0
  0
LINE
  5
2FB
330
1F
100
AcDbEntity
  8
0
100
AcDbLine
 10
25.04404427976688
 20
-16.77951732552712
 30
0.0
 11
36.04403840365306
 21
-16.77951732552685
 31
0.0
  0
LINE
  5
2FC
330
1F
100
AcDbEntity
  8
0
100
AcDbLine
 10
36.04403840365342
 20
33.22045837219049
 30
0.0
 11
25.04404427976742
 21
33.22045837219049
 31
0.0
  0
LINE
  5
2FD
330
1F
100
AcDbEntity
  8
0
100
AcDbLine
 10
12.9440452477672
 20
20.37046955133207
 30
0.0
 11
12.9440452477672
 21
26.67046904733194
 31
0.0
  0
LINE
  5
2FE
330
1F
100
AcDbEntity
  8
0
100
AcDbLine
 10
20.04404467976726
 20
20.37046955133207
 30
0.0
 11
12.9440452477672
 21
20.37046955133207
 31
0.0
  0
LINE
  5
2FF
330
1F
100
AcDbEntity
  8
0
100
AcDbLine
 10
12.94404524776666
 20
-3.929528504667982
 30
0.0
 11
20.0440446797669
 21
-3.929528504667982
 31
0.0
  0
LINE
  5
300
330
1F
100
AcDbEntity
  8
0
100
AcDbLine
 10
56.72034856329515
 20
-7.329528232668314
 30
0.0
 11
56.90016930941777
 21
-7.763653916753719
 31
0.0
  0
LINE
  5
301
330
1F
100
AcDbEntity
  8
0
100
AcDbLine
 10
56.90016930941777
 20
-7.763653916753719
 30
0.0
 11
56.96150281719071
 21
-8.22952816066834
 31
0.0
  0
LINE
  5
302
330
1F
100
AcDbEntity
  8
0
100
AcDbLine
 10
56.90016930941777
 20
-8.695402404582962
 30
0.0
 11
56.72034856329515
 21
-9.129528088668367
 31
0.0
  0
LINE
  5
303
330
1F
100
AcDbEntity
  8
0
100
AcDbLine
 10
53.3615031051908
 20
-8.22952816066834
 30
0.0
 11
53.42283661296374
 21
-7.763653916753719
 31
0.0
  0
LINE
  5
304
330
1F
100
AcDbEntity
  8
0
100
AcDbLine
 10
55.16150296119075
 20
-6.429528304668287
 30
0.0
 11
55.62737720510538
 21
-6.49086181244128
 31
0.0
  0
LINE
  5
305
330
1F
100
AcDbEntity
  8
0
100
AcDbLine
 10
55.62737720510538
 20
-6.49086181244128
 30
0.0
 11
56.06150288919073
 21
-6.670682558563945
 31
0.0
  0
LINE
  5
306
330
1F
100
AcDbEntity
  8
0
100
AcDbLine
 10
11.43545852242987
 20
-14.79017283526194
 30
0.0
 11
11.36210748262478
 21
-14.32603898034696
 31
0.0
  0
LINE
  5
307
330
1F
100
AcDbEntity
  8
0
100
AcDbLine
 10
12.22152693135836
 20
-12.74445822276973
 30
0.0
 11
12.65086116259617
 21
-12.55347987790794
 31
0.0
  0
LINE
  5
308
330
1F
100
AcDbEntity
  8
0
100
AcDbLine
 10
13.11499501751124
 20
-12.48012883810276
 30
0.0
 11
13.58229854090845
 21
-12.52940385549864
 31
0.0
  0
LINE
  5
309
330
1F
100
AcDbEntity
  8
0
100
AcDbLine
 10
56.43429506550315
 20
23.39767710301927
 30
0.0
 11
56.06150288919091
 21
23.11162360522727
 31
0.0
  0
LINE
  5
30A
330
1F
100
AcDbEntity
  8
0
100
AcDbLine
 10
14.0261267128125
 20
32.29921223004566
 30
0.0
 11
14.40527437426382
 21
32.02163762541699
 31
0.0
  0
LINE
  5
30B
330
1F
100
AcDbEntity
  8
0
100
AcDbLine
 10
14.40527437426382
 20
32.02163762541699
 30
0.0
 11
14.69966129832209
 21
31.65539051039455
 31
0.0
  0
LINE
  5
30C
330
1F
100
AcDbEntity
  8
0
100
AcDbLine
 10
14.69966129832209
 20
31.65539051039455
 30
0.0
 11
14.88922550260997
 21
31.22543002061508
 31
0.0
  0
LINE
  5
30D
330
1F
100
AcDbEntity
  8
0
100
AcDbLine
 10
14.88922550260997
 20
31.22543002061508
 30
0.0
 11
14.9610484998751
 21
30.76105725291368
 31
0.0
  0
LINE
  5
30E
330
1F
100
AcDbEntity
  8
0
100
AcDbLine
 10
14.9610484998751
 20
30.76105725291368
 30
0.0
 11
14.91023567154696
 21
30.29391844399712
 31
0.0
  0
LINE
  5
30F
330
1F
100
AcDbEntity
  8
0
100
AcDbLine
 10
14.91023567154696
 20
30.29391844399712
 30
0.0
 11
14.74024982790382
 21
29.85584833170956
 31
0.0
  0
LINE
  5
310
330
1F
100
AcDbEntity
  8
0
100
AcDbLine
 10
14.74024982790382
 20
29.85584833170956
 30
0.0
 11
14.46267522327515
 21
29.47670067025824
 31
0.0
  0
LINE
  5
311
330
1F
100
AcDbEntity
  8
0
100
AcDbLine
 10
14.46267522327515
 20
29.47670067025824
 30
0.0
 11
14.09642810825271
 21
29.18231374619997
 31
0.0
  0
LINE
  5
312
330
1F
100
AcDbEntity
  8
0
100
AcDbLine
 10
14.09642810825271
 20
29.18231374619997
 30
0.0
 11
13.66646761847324
 21
28.99274954191208
 31
0.0
  0
LINE
  5
313
330
1F
100
AcDbEntity
  8
0
100
AcDbLine
 10
13.66646761847324
 20
28.99274954191208
 30
0.0
 11
13.20209485077184
 21
28.92092654464695
 31
0.0
  0
LINE
  5
314
330
1F
100
AcDbEntity
  8
0
100
AcDbLine
 10
13.20209485077184
 20
28.92092654464695
 30
0.0
 11
12.73495604185529
 21
28.97173937297528
 31
0.0
  0
LINE
  5
315
330
1F
100
AcDbEntity
  8
0
100
AcDbLine
 10
12.73495604185529
 20
28.97173937297528
 30
0.0
 11
12.29688592956771
 21
29.14172521661824
 31
0.0
  0
LINE
  5
316
330
1F
100
AcDbEntity
  8
0
100
AcDbLine
 10
12.29688592956771
 20
29.14172521661824
 30
0.0
 11
11.91773826811639
 21
29.41929982124691
 31
0.0
  0
LINE
  5
317
330
1F
100
AcDbEntity
  8
0
100
AcDbLine
 10
11.91773826811639
 20
29.41929982124691
 30
0.0
 11
11.62335134405813
 21
29.78554693626952
 31
0.0
  0
LINE
  5
318
330
1F
100
AcDbEntity
  8
0
100
AcDbLine
 10
11.62335134405813
 20
29.78554693626952
 30
0.0
 11
11.43378713977024
 21
30.21550742604899
 31
0.0
  0
LINE
  5
319
330
1F
100
AcDbEntity
  8
0
100
AcDbLine
 10
11.43378713977024
 20
30.21550742604899
 30
0.0
 11
11.36196414250511
 21
30.67988019375022
 31
0.0
  0
LINE
  5
31A
330
1F
100
AcDbEntity
  8
0
100
AcDbLine
 10
11.36196414250511
 20
30.67988019375022
 30
0.0
 11
11.41277697083326
 21
31.14701900266695
 31
0.0
  0
LINE
  5
31B
330
1F
100
AcDbEntity
  8
0
100
AcDbLine
 10
11.41277697083326
 20
31.14701900266695
 30
0.0
 11
11.5827628144764
 21
31.58508911495452
 31
0.0
  0
LINE
  5
31C
330
1F
100
AcDbEntity
  8
0
100
AcDbLine
 10
-22.52222950870927
 20
67.9632908543384
 30
0.0
 11
-19.80995430169607
 21
67.9632908543384
 31
0.0
  0
LINE
  5
31D
330
1F
100
AcDbEntity
  8
0
100
AcDbLine
 10
104.8463412627259
 20
63.98306360984441
 30
0.0
 11
105.5698840695349
 21
63.68336236630655
 31
0.0
  0
LINE
  5
31E
330
1F
100
AcDbEntity
  8
0
100
AcDbLine
 10
119.669882941535
 20
56.58528672279929
 30
0.0
 11
119.669882941535
 21
80.18528483479949
 31
0.0
  0
LINE
  5
31F
330
1F
100
AcDbEntity
  8
0
100
AcDbLine
 10
70.46988687753469
 20
61.08528636279929
 30
0.0
 11
70.40855336976175
 21
60.61941211888476
 31
0.0
  0
LINE
  5
320
330
1F
100
AcDbEntity
  8
0
100
AcDbLine
 10
105.5698840695349
 20
63.68336236630655
 30
0.0
 11
106.1912043633888
 21
63.20660653665337
 31
0.0
  0
LINE
  5
321
330
1F
100
AcDbEntity
  8
0
100
AcDbLine
 10
69.94267912584712
 20
62.35807846711168
 30
0.0
 11
70.22873262363895
 21
61.98528629079927
 31
0.0
  0
LINE
  5
322
330
1F
100
AcDbEntity
  8
0
100
AcDbLine
 10
114.769883333535
 20
59.52644076069499
 30
0.0
 11
114.3970911572226
 21
59.8124942584869
 31
0.0
  0
LINE
  5
323
330
1F
100
AcDbEntity
  8
0
100
AcDbLine
 10
67.76988709353475
 20
59.52644076069499
 30
0.0
 11
67.39709491722233
 21
59.8124942584869
 31
0.0
  0
LINE
  5
324
330
1F
100
AcDbEntity
  8
0
100
AcDbLine
 10
68.20401277762011
 20
59.34662001457236
 30
0.0
 11
67.76988709353475
 21
59.52644076069499
 31
0.0
  0
LINE
  5
325
330
1F
100
AcDbEntity
  8
0
100
AcDbLine
 10
81.06988602953452
 20
56.58528672279929
 30
0.0
 11
64.66988734153472
 21
56.58528672279929
 31
0.0
  0
LINE
  5
326
330
1F
100
AcDbEntity
  8
0
100
AcDbLine
 10
88.62279969591671
 20
66.88084085688934
 30
0.0
 11
90.0698853095347
 21
66.28143836981373
 31
0.0
  0
LINE
  5
327
330
1F
100
AcDbEntity
  8
0
100
AcDbLine
 10
101.0698844295348
 20
56.58528672279929
 30
0.0
 11
93.06988506953475
 21
56.58528672279929
 31
0.0
  0
LINE
  5
328
330
1F
100
AcDbEntity
  8
0
100
AcDbLine
 10
101.9485640156809
 20
63.20660653665337
 30
0.0
 11
102.5698843095348
 21
63.68336236630655
 31
0.0
  0
LINE
  5
329
330
1F
100
AcDbEntity
  8
0
100
AcDbLine
 10
102.5698843095348
 20
63.68336236630655
 30
0.0
 11
103.2934271163438
 21
63.98306360984441
 31
0.0
  0
LINE
  5
32A
330
1F
100
AcDbEntity
  8
0
100
AcDbLine
 10
103.2934271163438
 20
63.98306360984441
 30
0.0
 11
104.0698841895349
 21
64.08528612279935
 31
0.0
  0
LINE
  5
32B
330
1F
100
AcDbEntity
  8
0
100
AcDbLine
 10
104.0698841895349
 20
64.08528612279935
 30
0.0
 11
104.8463412627259
 21
63.98306360984441
 31
0.0
  0
LINE
  5
32C
330
1F
100
AcDbEntity
  8
0
100
AcDbLine
 10
106.1912043633888
 20
63.20660653665337
 30
0.0
 11
106.6679601930421
 21
62.58528624279931
 31
0.0
  0
LINE
  5
32D
330
1F
100
AcDbEntity
  8
0
100
AcDbLine
 10
106.6679601930421
 20
62.58528624279931
 30
0.0
 11
106.9676614365799
 21
61.86174343599024
 31
0.0
  0
LINE
  5
32E
330
1F
100
AcDbEntity
  8
0
100
AcDbLine
 10
106.9676614365799
 20
61.86174343599024
 30
0.0
 11
107.0698839495349
 21
61.08528636279929
 31
0.0
  0
LINE
  5
32F
330
1F
100
AcDbEntity
  8
0
100
AcDbLine
 10
107.0698839495349
 20
61.08528636279929
 30
0.0
 11
107.0698839495349
 21
56.58528672279929
 31
0.0
  0
LINE
  5
330
330
1F
100
AcDbEntity
  8
0
100
AcDbLine
 10
119.669882941535
 20
56.58528672279929
 30
0.0
 11
107.0698839495349
 21
56.58528672279929
 31
0.0
  0
LINE
  5
331
330
1F
100
AcDbEntity
  8
0
100
AcDbLine
 10
10.66989166153383
 20
80.18528483479949
 30
0.0
 11
10.66989166153383
 21
75.18528523479942
 31
0.0
  0
LINE
  5
332
330
1F
100
AcDbEntity
  8
0
100
AcDbLine
 10
10.66989166153383
 20
75.18528523479942
 30
0.0
 11
64.66988734153472
 21
56.58528672279929
 31
0.0
  0
LINE
  5
333
330
1F
100
AcDbEntity
  8
0
100
AcDbLine
 10
114.3970911572226
 20
59.8124942584869
 30
0.0
 11
114.1110376594308
 21
60.18528643479931
 31
0.0
  0
LINE
  5
334
330
1F
100
AcDbEntity
  8
0
100
AcDbLine
 10
114.1110376594308
 20
60.18528643479931
 30
0.0
 11
113.931216913308
 21
60.61941211888476
 31
0.0
  0
LINE
  5
335
330
1F
100
AcDbEntity
  8
0
100
AcDbLine
 10
113.931216913308
 20
60.61941211888476
 30
0.0
 11
113.869883405535
 21
61.08528636279929
 31
0.0
  0
LINE
  5
336
330
1F
100
AcDbEntity
  8
0
100
AcDbLine
 10
113.869883405535
 20
61.08528636279929
 30
0.0
 11
113.931216913308
 21
61.55116060671382
 31
0.0
  0
LINE
  5
337
330
1F
100
AcDbEntity
  8
0
100
AcDbLine
 10
113.931216913308
 20
61.55116060671382
 30
0.0
 11
114.1110376594308
 21
61.98528629079927
 31
0.0
  0
LINE
  5
338
330
1F
100
AcDbEntity
  8
0
100
AcDbLine
 10
114.1110376594308
 20
61.98528629079927
 30
0.0
 11
114.3970911572226
 21
62.35807846711168
 31
0.0
  0
LINE
  5
339
330
1F
100
AcDbEntity
  8
0
100
AcDbLine
 10
117.408549609762
 20
60.61941211888476
 30
0.0
 11
117.2287288636392
 21
60.18528643479931
 31
0.0
  0
LINE
  5
33A
330
1F
100
AcDbEntity
  8
0
100
AcDbLine
 10
68.66988702153473
 20
59.28528650679932
 30
0.0
 11
68.20401277762011
 21
59.34662001457236
 31
0.0
  0
LINE
  5
33B
330
1F
100
AcDbEntity
  8
0
100
AcDbLine
 10
67.39709491722233
 20
62.35807846711168
 30
0.0
 11
67.76988709353475
 21
62.64413196490359
 31
0.0
  0
LINE
  5
33C
330
1F
100
AcDbEntity
  8
0
100
AcDbLine
 10
68.20401277762011
 20
62.82395271102621
 30
0.0
 11
68.66988702153473
 21
62.88528621879926
 31
0.0
  0
LINE
  5
33D
330
1F
100
AcDbEntity
  8
0
100
AcDbLine
 10
68.66988702153473
 20
62.88528621879926
 30
0.0
 11
69.13576126544936
 21
62.82395271102621
 31
0.0
  0
LINE
  5
33E
330
1F
100
AcDbEntity
  8
0
100
AcDbLine
 10
69.13576126544936
 20
62.82395271102621
 30
0.0
 11
69.5698869495347
 21
62.64413196490359
 31
0.0
  0
LINE
  5
33F
330
1F
100
AcDbEntity
  8
0
100
AcDbLine
 10
69.5698869495347
 20
62.64413196490359
 30
0.0
 11
69.94267912584712
 21
62.35807846711168
 31
0.0
  0
LINE
  5
340
330
1F
100
AcDbEntity
  8
0
100
AcDbLine
 10
70.22873262363895
 20
61.98528629079927
 30
0.0
 11
70.40855336976175
 21
61.55116060671382
 31
0.0
  0
LINE
  5
341
330
1F
100
AcDbEntity
  8
0
100
AcDbLine
 10
70.40855336976175
 20
61.55116060671382
 30
0.0
 11
70.46988687753469
 21
61.08528636279929
 31
0.0
  0
LINE
  5
342
330
1F
100
AcDbEntity
  8
0
100
AcDbLine
 10
70.40855336976175
 20
60.61941211888476
 30
0.0
 11
70.22873262363895
 21
60.18528643479931
 31
0.0
  0
LINE
  5
343
330
1F
100
AcDbEntity
  8
0
100
AcDbLine
 10
70.22873262363895
 20
60.18528643479931
 30
0.0
 11
69.94267912584712
 21
59.8124942584869
 31
0.0
  0
LINE
  5
344
330
1F
100
AcDbEntity
  8
0
100
AcDbLine
 10
69.94267912584712
 20
59.8124942584869
 30
0.0
 11
69.5698869495347
 21
59.52644076069499
 31
0.0
  0
LINE
  5
345
330
1F
100
AcDbEntity
  8
0
100
AcDbLine
 10
69.5698869495347
 20
59.52644076069499
 30
0.0
 11
69.13576126544936
 21
59.34662001457236
 31
0.0
  0
LINE
  5
346
330
1F
100
AcDbEntity
  8
0
100
AcDbLine
 10
69.13576126544936
 20
59.34662001457236
 30
0.0
 11
68.66988702153473
 21
59.28528650679932
 31
0.0
  0
LINE
  5
347
330
1F
100
AcDbEntity
  8
0
100
AcDbLine
 10
-4.309955541696787
 20
65.0221368164428
 30
0.0
 11
-3.875829857611247
 21
65.20195756256551
 31
0.0
  0
LINE
  5
348
330
1F
100
AcDbEntity
  8
0
100
AcDbLine
 10
-4.968801215801201
 20
64.36329114233848
 30
0.0
 11
-4.682747718009199
 21
64.73608331865088
 31
0.0
  0
LINE
  5
349
330
1F
100
AcDbEntity
  8
0
100
AcDbLine
 10
-4.809859599001735
 20
-6.953247364050618
 30
0.0
 11
-4.523806101209913
 21
-7.32603954036303
 31
0.0
  0
LINE
  5
34A
330
1F
100
AcDbEntity
  8
0
100
AcDbLine
 10
-46.2830902222625
 20
-14.31591442235645
 30
0.0
 11
-46.35472920106677
 21
-14.78031561425269
 31
0.0
  0
LINE
  5
34B
330
1F
100
AcDbEntity
  8
0
100
AcDbLine
 10
-46.54412301389372
 20
-15.21035118717846
 30
0.0
 11
-46.83836478538758
 21
-15.57671492750627
 31
0.0
  0
LINE
  5
34C
330
1F
100
AcDbEntity
  8
0
100
AcDbLine
 10
-46.83836478538758
 20
-15.57671492750627
 30
0.0
 11
-47.21740242507825
 21
-15.85443975177746
 31
0.0
  0
LINE
  5
34D
330
1F
100
AcDbEntity
  8
0
100
AcDbLine
 10
-47.21740242507825
 20
-15.85443975177746
 30
0.0
 11
-47.65540514421028
 21
-16.02459917217993
 31
0.0
  0
LINE
  5
34E
330
1F
100
AcDbEntity
  8
0
100
AcDbLine
 10
-47.21740242508402
 20
32.30235818305537
 30
0.0
 11
-46.83836478539244
 21
32.02463335878557
 31
0.0
  0
LINE
  5
34F
330
1F
100
AcDbEntity
  8
0
100
AcDbLine
 10
-46.83836478539244
 20
32.02463335878557
 30
0.0
 11
-46.54412301389733
 21
31.65826961845888
 31
0.0
  0
LINE
  5
350
330
1F
100
AcDbEntity
  8
0
100
AcDbLine
 10
-63.03600072191043
 20
0.7739598116561159
 30
0.0
 11
-61.53749450422164
 21
4.391673845701172
 31
0.0
  0
LINE
  5
351
330
1F
100
AcDbEntity
  8
0
100
AcDbLine
 10
-65.41977987017664
 20
-2.332641657614043
 30
0.0
 11
-63.03600072191043
 21
0.7739598116561159
 31
0.0
  0
LINE
  5
352
330
1F
100
AcDbEntity
  8
0
100
AcDbLine
 10
-68.52638133944662
 20
-4.716420805880064
 30
0.0
 11
-65.41977987017664
 21
-2.332641657614043
 31
0.0
  0
LINE
  5
353
330
1F
100
AcDbEntity
  8
0
100
AcDbLine
 10
-72.14409537349158
 20
-6.214927023568953
 30
0.0
 11
-68.52638133944662
 21
-4.716420805880064
 31
0.0
  0
LINE
  5
354
330
1F
100
AcDbEntity
  8
0
100
AcDbLine
 10
-76.02638073944658
 20
-6.726039588343942
 30
0.0
 11
-72.14409537349158
 21
-6.214927023568953
 31
0.0
  0
LINE
  5
355
330
1F
100
AcDbEntity
  8
0
100
AcDbLine
 10
-82.22638024344666
 20
-6.726039588343942
 30
0.0
 11
-76.02638073944658
 21
-6.726039588343942
 31
0.0
  0
LINE
  5
356
330
1F
100
AcDbEntity
  8
0
100
AcDbLine
 10
-98.14048944248188
 20
-5.680558349920028
 30
0.0
 11
-98.52637893944666
 21
-5.840399013140215
 31
0.0
  0
LINE
  5
357
330
1F
100
AcDbEntity
  8
0
100
AcDbLine
 10
-97.72637900344665
 20
-5.626039676344275
 30
0.0
 11
-98.14048944248188
 21
-5.680558349920028
 31
0.0
  0
LINE
  5
358
330
1F
100
AcDbEntity
  8
0
100
AcDbLine
 10
-97.72637900344665
 20
-5.626039676344275
 30
0.0
 11
-91.52637949944658
 21
-5.626039676344275
 31
0.0
  0
LINE
  5
359
330
1F
100
AcDbEntity
  8
0
100
AcDbLine
 10
-7.641497305418342
 20
-7.32603954036303
 30
0.0
 11
-7.355443807626521
 21
-6.953247364050618
 31
0.0
  0
LINE
  5
35A
330
1F
100
AcDbEntity
  8
0
100
AcDbLine
 10
-7.355443807626521
 20
-6.953247364050618
 30
0.0
 11
-6.98265163131411
 21
-6.667193866258706
 31
0.0
  0
LINE
  5
35B
330
1F
100
AcDbEntity
  8
0
100
AcDbLine
 10
-49.66104911072952
 20
-15.14128490259933
 30
0.0
 11
-49.83120853113195
 21
-14.70328218346729
 31
0.0
  0
LINE
  5
35C
330
1F
100
AcDbEntity
  8
0
100
AcDbLine
 10
-49.83120853113195
 20
-14.70328218346729
 30
0.0
 11
-49.88220646436704
 21
-14.23616354636906
 31
0.0
  0
LINE
  5
35D
330
1F
100
AcDbEntity
  8
0
100
AcDbLine
 10
-49.88220646436704
 20
-14.23616354636906
 30
0.0
 11
-49.81056748556277
 21
-13.77176235447283
 31
0.0
  0
LINE
  5
35E
330
1F
100
AcDbEntity
  8
0
100
AcDbLine
 10
-49.81056748556277
 20
-13.77176235447283
 30
0.0
 11
-49.62117367273583
 21
-13.34172678154706
 31
0.0
  0
LINE
  5
35F
330
1F
100
AcDbEntity
  8
0
100
AcDbLine
 10
-49.62117367273583
 20
-13.34172678154706
 30
0.0
 11
-49.32693190124215
 21
-12.97536304121925
 31
0.0
  0
LINE
  5
360
330
1F
100
AcDbEntity
  8
0
100
AcDbLine
 10
-49.32693190124215
 20
-12.97536304121925
 30
0.0
 11
-48.9478942615513
 21
-12.69763821694805
 31
0.0
  0
LINE
  5
361
330
1F
100
AcDbEntity
  8
0
100
AcDbLine
 10
-46.40995217369651
 20
88.16328923833855
 30
0.0
 11
-46.37587800271162
 21
88.42210826273555
 31
0.0
  0
LINE
  5
362
330
1F
100
AcDbEntity
  8
0
100
AcDbLine
 10
-7.609955277696418
 20
53.36329202233838
 30
0.0
 11
-7.64402944868131
 21
53.10447299794137
 31
0.0
  0
LINE
  5
363
330
1F
100
AcDbEntity
  8
0
100
AcDbLine
 10
-7.64402944868131
 20
53.10447299794137
 30
0.0
 11
-7.743929863194016
 21
52.8632920623384
 31
0.0
  0
LINE
  5
364
330
1F
100
AcDbEntity
  8
0
100
AcDbLine
 10
-7.743929863194016
 20
52.8632920623384
 30
0.0
 11
-7.902848473078321
 21
52.65618529772033
 31
0.0
  0
LINE
  5
365
330
1F
100
AcDbEntity
  8
0
100
AcDbLine
 10
-7.902848473078321
 20
52.65618529772033
 30
0.0
 11
-8.109955237696308
 21
52.49726668783593
 31
0.0
  0
LINE
  5
366
330
1F
100
AcDbEntity
  8
0
100
AcDbLine
 10
-8.109955237696308
 20
52.49726668783593
 30
0.0
 11
-8.351136173299366
 21
52.39736627332341
 31
0.0
  0
LINE
  5
367
330
1F
100
AcDbEntity
  8
0
100
AcDbLine
 10
-90.44402282468197
 20
88.42210826273555
 30
0.0
 11
-90.54392323919467
 21
88.66328919833852
 31
0.0
  0
LINE
  5
368
330
1F
100
AcDbEntity
  8
0
100
AcDbLine
 10
-90.54392323919467
 20
88.66328919833852
 30
0.0
 11
-90.70284184907898
 21
88.87039596295651
 31
0.0
  0
LINE
  5
369
330
1F
100
AcDbEntity
  8
0
100
AcDbLine
 10
-90.70284184907898
 20
88.87039596295651
 30
0.0
 11
-90.90994861369697
 21
89.02931457284099
 31
0.0
  0
LINE
  5
36A
330
1F
100
AcDbEntity
  8
0
100
AcDbLine
 10
-90.90994861369697
 20
89.02931457284099
 30
0.0
 11
-91.15112954930002
 21
89.12921498735352
 31
0.0
  0
LINE
  5
36B
330
1F
100
AcDbEntity
  8
0
100
AcDbLine
 10
-51.96879745580146
 20
62.56329128633833
 30
0.0
 11
-52.14861820192408
 21
62.99741697042379
 31
0.0
  0
LINE
  5
36C
330
1F
100
AcDbEntity
  8
0
100
AcDbLine
 10
-37.52741647317766
 20
58.96329157433841
 30
0.0
 11
-37.52741647317766
 21
67.9632908543384
 31
0.0
  0
LINE
  5
36D
330
1F
100
AcDbEntity
  8
0
100
AcDbLine
 10
-108.4099472136973
 20
82.56328968633852
 30
0.0
 11
-100.4099478536972
 21
82.56328968633852
 31
0.0
  0
LINE
  5
36E
330
1F
100
AcDbEntity
  8
0
100
AcDbLine
 10
-36.40995297369637
 20
82.56328968633852
 30
0.0
 11
-17.40995449369624
 21
82.56328968633852
 31
0.0
  0
LINE
  5
36F
330
1F
100
AcDbEntity
  8
0
100
AcDbLine
 10
-17.40995449369624
 20
82.56328968633852
 30
0.0
 11
-17.40995449369624
 21
88.16328923833855
 31
0.0
  0
LINE
  5
370
330
1F
100
AcDbEntity
  8
0
100
AcDbLine
 10
-7.609955277696238
 20
58.96329157433841
 30
0.0
 11
-7.609955277696418
 21
53.36329202233838
 31
0.0
  0
LINE
  5
371
330
1F
100
AcDbEntity
  8
0
100
AcDbLine
 10
-19.42741792117642
 20
63.4632912143384
 30
0.0
 11
-17.22741809717636
 21
67.27380268614905
 31
0.0
  0
LINE
  5
372
330
1F
100
AcDbEntity
  8
0
100
AcDbLine
 10
-10.51514692305543
 20
67.9632908543384
 30
0.0
 11
-10.50995504569614
 21
74.56329032633847
 31
0.0
  0
LINE
  5
373
330
1F
100
AcDbEntity
  8
0
100
AcDbLine
 10
-10.50995504569614
 20
74.56329032633847
 30
0.0
 11
-5.509956994339873
 21
74.55935504504225
 31
0.0
  0
LINE
  5
374
330
1F
100
AcDbEntity
  8
0
100
AcDbLine
 10
-50.87582609761169
 20
65.20195756256551
 30
0.0
 11
-50.40995185369707
 21
65.26329107033847
 31
0.0
  0
LINE
  5
375
330
1F
100
AcDbEntity
  8
0
100
AcDbLine
 10
-4.309955541696606
 20
61.90444561223401
 30
0.0
 11
-4.682747718009199
 21
62.19049911002592
 31
0.0
  0
LINE
  5
376
330
1F
100
AcDbEntity
  8
0
100
AcDbLine
 10
-3.875829857611247
 20
61.7246248661113
 30
0.0
 11
-4.309955541696606
 21
61.90444561223401
 31
0.0
  0
LINE
  5
377
330
1F
100
AcDbEntity
  8
0
100
AcDbLine
 10
-1.609955757696661
 20
63.4632912143384
 30
0.0
 11
-1.67128926546961
 21
62.99741697042379
 31
0.0
  0
LINE
  5
378
330
1F
100
AcDbEntity
  8
0
100
AcDbLine
 10
-21.52222958870931
 20
52.36329210233833
 30
0.0
 11
-8.609955197696378
 21
52.36329210233833
 31
0.0
  0
LINE
  5
379
330
1F
100
AcDbEntity
  8
0
100
AcDbLine
 10
-1.85111001159241
 20
64.36329114233848
 30
0.0
 11
-1.67128926546961
 21
63.92916545825303
 31
0.0
  0
LINE
  5
37A
330
1F
100
AcDbEntity
  8
0
100
AcDbLine
 10
-2.509955685696643
 20
65.0221368164428
 30
0.0
 11
-2.137163509384231
 21
64.73608331865088
 31
0.0
  0
LINE
  5
37B
330
1F
100
AcDbEntity
  8
0
100
AcDbLine
 10
-3.409955613696805
 20
65.26329107033847
 30
0.0
 11
-2.944081369782003
 21
65.20195756256551
 31
0.0
  0
LINE
  5
37C
330
1F
100
AcDbEntity
  8
0
100
AcDbLine
 10
-8.351136173299366
 20
52.39736627332341
 30
0.0
 11
-8.609955197696378
 21
52.36329210233833
 31
0.0
  0
LINE
  5
37D
330
1F
100
AcDbEntity
  8
0
100
AcDbLine
 10
-46.37587800271162
 20
88.42210826273555
 30
0.0
 11
-46.27597758819891
 21
88.66328919833852
 31
0.0
  0
LINE
  5
37E
330
1F
100
AcDbEntity
  8
0
100
AcDbLine
 10
-46.27597758819891
 20
88.66328919833852
 30
0.0
 11
-46.1170589783146
 21
88.87039596295651
 31
0.0
  0
LINE
  5
37F
330
1F
100
AcDbEntity
  8
0
100
AcDbLine
 10
-46.1170589783146
 20
88.87039596295651
 30
0.0
 11
-45.90995221369662
 21
89.02931457284099
 31
0.0
  0
LINE
  5
380
330
1F
100
AcDbEntity
  8
0
100
AcDbLine
 10
-45.90995221369662
 20
89.02931457284099
 30
0.0
 11
-45.66877127809356
 21
89.12921498735352
 31
0.0
  0
LINE
  5
381
330
1F
100
AcDbEntity
  8
0
100
AcDbLine
 10
-90.72637956344659
 20
-8.611680083547808
 30
0.0
 11
-90.39500874005792
 21
-8.357410307732865
 31
0.0
  0
LINE
  5
382
330
1F
100
AcDbEntity
  8
0
100
AcDbLine
 10
-91.11226906041136
 20
-8.771520746767994
 30
0.0
 11
-90.72637956344659
 21
-8.611680083547808
 31
0.0
  0
LINE
  5
383
330
1F
100
AcDbEntity
  8
0
100
AcDbLine
 10
-91.52637949944658
 20
-8.826039420343928
 30
0.0
 11
-91.11226906041136
 21
-8.771520746767994
 31
0.0
  0
LINE
  5
384
330
1F
100
AcDbEntity
  8
0
100
AcDbLine
 10
-97.72637900344665
 20
-8.826039420343928
 30
0.0
 11
-91.52637949944658
 21
-8.826039420343928
 31
0.0
  0
LINE
  5
385
330
1F
100
AcDbEntity
  8
0
100
AcDbLine
 10
-98.14048944248206
 20
-8.771520746767814
 30
0.0
 11
-97.72637900344665
 21
-8.826039420343928
 31
0.0
  0
LINE
  5
386
330
1F
100
AcDbEntity
  8
0
100
AcDbLine
 10
-98.52637893944684
 20
-8.611680083547627
 30
0.0
 11
-98.14048944248206
 21
-8.771520746767814
 31
0.0
  0
LINE
  5
387
330
1F
100
AcDbEntity
  8
0
100
AcDbLine
 10
-6.082651703314127
 20
-6.426039612363049
 30
0.0
 11
-5.616777459399506
 21
-6.487373120136041
 31
0.0
  0
LINE
  5
388
330
1F
100
AcDbEntity
  8
0
100
AcDbLine
 10
-5.182651775314146
 20
-6.667193866258706
 30
0.0
 11
-4.809859599001735
 21
-6.953247364050618
 31
0.0
  0
LINE
  5
389
330
1F
100
AcDbEntity
  8
0
100
AcDbLine
 10
-4.343985355087113
 20
-8.691913712277588
 30
0.0
 11
-4.523806101209913
 21
-9.126039396362993
 31
0.0
  0
LINE
  5
38A
330
1F
100
AcDbEntity
  8
0
100
AcDbLine
 10
-4.809859599001735
 20
-9.498831572675405
 30
0.0
 11
-5.182651775314146
 21
-9.784885070467316
 31
0.0
  0
LINE
  5
38B
330
1F
100
AcDbEntity
  8
0
100
AcDbLine
 10
-5.182651775314146
 20
-9.784885070467316
 30
0.0
 11
-5.616777459399506
 21
-9.964705816589982
 31
0.0
  0
LINE
  5
38C
330
1F
100
AcDbEntity
  8
0
100
AcDbLine
 10
-6.082651703314127
 20
-10.02603932436297
 30
0.0
 11
-6.54852594722875
 21
-9.964705816589982
 31
0.0
  0
LINE
  5
38D
330
1F
100
AcDbEntity
  8
0
100
AcDbLine
 10
-6.54852594722875
 20
-9.964705816589982
 30
0.0
 11
-6.98265163131411
 21
-9.784885070467316
 31
0.0
  0
LINE
  5
38E
330
1F
100
AcDbEntity
  8
0
100
AcDbLine
 10
-4.282651847314165
 20
24.67395789963708
 30
0.0
 11
-4.343985355087113
 21
24.20808365572246
 31
0.0
  0
LINE
  5
38F
330
1F
100
AcDbEntity
  8
0
100
AcDbLine
 10
-4.343985355087113
 20
24.20808365572246
 30
0.0
 11
-4.523806101209913
 21
23.7739579716371
 31
0.0
  0
LINE
  5
390
330
1F
100
AcDbEntity
  8
0
100
AcDbLine
 10
-91.11226906041155
 20
22.22847677323206
 30
0.0
 11
-90.72637956344659
 21
22.38831743645225
 31
0.0
  0
LINE
  5
391
330
1F
100
AcDbEntity
  8
0
100
AcDbLine
 10
-91.52637949944676
 20
22.17395809965595
 30
0.0
 11
-91.11226906041155
 21
22.22847677323206
 31
0.0
  0
LINE
  5
392
330
1F
100
AcDbEntity
  8
0
100
AcDbLine
 10
-97.72637900344684
 20
22.17395809965595
 30
0.0
 11
-91.52637949944676
 21
22.17395809965595
 31
0.0
  0
LINE
  5
393
330
1F
100
AcDbEntity
  8
0
100
AcDbLine
 10
-106.6826436553152
 20
-29.85460257730504
 30
0.0
 11
1.917347656685549
 21
-29.85460257730504
 31
0.0
  0
LINE
  5
394
330
1F
100
AcDbEntity
  8
0
100
AcDbLine
 10
-23.13165226840614
 20
-10.22603930836298
 30
0.0
 11
-43.30010981673806
 21
-10.22603930836271
 31
0.0
  0
LINE
  5
395
330
1F
100
AcDbEntity
  8
0
100
AcDbLine
 10
-43.3001098167377
 20
26.67395773963745
 30
0.0
 11
-43.3001098167377
 21
20.3739582436374
 31
0.0
  0
LINE
  5
396
330
1F
100
AcDbEntity
  8
0
100
AcDbLine
 10
-23.13165226840542
 20
26.67395773963709
 30
0.0
 11
-43.3001098167377
 21
26.67395773963745
 31
0.0
  0
LINE
  5
397
330
1F
100
AcDbEntity
  8
0
100
AcDbLine
 10
-23.13165226840542
 20
20.37395824363704
 30
0.0
 11
-23.13165226840542
 21
26.67395773963709
 31
0.0
  0
LINE
  5
398
330
1F
100
AcDbEntity
  8
0
100
AcDbLine
 10
-6.98265163131411
 20
-9.784885070467316
 30
0.0
 11
-7.355443807626521
 21
-9.498831572675405
 31
0.0
  0
LINE
  5
399
330
1F
100
AcDbEntity
  8
0
100
AcDbLine
 10
-7.355443807626521
 20
-9.498831572675405
 30
0.0
 11
-7.641497305418342
 21
-9.126039396362993
 31
0.0
  0
LINE
  5
39A
330
1F
100
AcDbEntity
  8
0
100
AcDbLine
 10
-7.641497305418342
 20
-9.126039396362993
 30
0.0
 11
-7.821318051541144
 21
-8.691913712277588
 31
0.0
  0
LINE
  5
39B
330
1F
100
AcDbEntity
  8
0
100
AcDbLine
 10
-7.821318051541144
 20
-8.691913712277588
 30
0.0
 11
-7.882651559314091
 21
-8.22603946836301
 31
0.0
  0
LINE
  5
39C
330
1F
100
AcDbEntity
  8
0
100
AcDbLine
 10
-7.882651559314091
 20
-8.22603946836301
 30
0.0
 11
-7.821318051541144
 21
-7.760165224448435
 31
0.0
  0
LINE
  5
39D
330
1F
100
AcDbEntity
  8
0
100
AcDbLine
 10
-6.98265163131411
 20
-6.667193866258706
 30
0.0
 11
-6.54852594722875
 21
-6.487373120136041
 31
0.0
  0
LINE
  5
39E
330
1F
100
AcDbEntity
  8
0
100
AcDbLine
 10
-34.8826493993148
 20
41.57395654763732
 30
0.0
 11
-45.28264856731485
 21
41.57395654763732
 31
0.0
  0
LINE
  5
39F
330
1F
100
AcDbEntity
  8
0
100
AcDbLine
 10
-34.8826493993148
 20
34.77395709163738
 30
0.0
 11
-34.8826493993148
 21
41.57395654763732
 31
0.0
  0
LINE
  5
3A0
330
1F
100
AcDbEntity
  8
0
100
AcDbLine
 10
-45.28264856731485
 20
34.77395709163729
 30
0.0
 11
-34.8826493993148
 21
34.77395709163738
 31
0.0
  0
LINE
  5
3A1
330
1F
100
AcDbEntity
  8
0
100
AcDbLine
 10
-45.28264856731485
 20
41.57395654763732
 30
0.0
 11
-45.28264856731485
 21
34.77395709163729
 31
0.0
  0
LINE
  5
3A2
330
1F
100
AcDbEntity
  8
0
100
AcDbLine
 10
-22.48815533772438
 20
53.10447299794137
 30
0.0
 11
-22.52222950870927
 21
53.36329202233838
 31
0.0
  0
LINE
  5
3A3
330
1F
100
AcDbEntity
  8
0
100
AcDbLine
 10
-8.409955213696062
 20
89.1632891583386
 30
0.0
 11
-16.40995457369628
 21
89.1632891583386
 31
0.0
  0
LINE
  5
3A4
330
1F
100
AcDbEntity
  8
0
100
AcDbLine
 10
-8.151136189299049
 20
89.12921498735352
 30
0.0
 11
-8.409955213696062
 21
89.1632891583386
 31
0.0
  0
LINE
  5
3A5
330
1F
100
AcDbEntity
  8
0
100
AcDbLine
 10
1.917347656685549
 20
-29.85460257730504
 30
0.0
 11
1.917347656685549
 21
48.17395601963739
 31
0.0
  0
LINE
  5
3A6
330
1F
100
AcDbEntity
  8
0
100
AcDbLine
 10
-22.02222954870938
 20
52.49726668783593
 30
0.0
 11
-22.22933631332736
 21
52.65618529772041
 31
0.0
  0
LINE
  5
3A7
330
1F
100
AcDbEntity
  8
0
100
AcDbLine
 10
-22.22933631332736
 20
52.65618529772041
 30
0.0
 11
-22.38825492321167
 21
52.8632920623384
 31
0.0
  0
LINE
  5
3A8
330
1F
100
AcDbEntity
  8
0
100
AcDbLine
 10
-22.38825492321167
 20
52.8632920623384
 30
0.0
 11
-22.48815533772438
 21
53.10447299794137
 31
0.0
  0
LINE
  5
3A9
330
1F
100
AcDbEntity
  8
0
100
AcDbLine
 10
-34.8826493993148
 20
-18.32603866036304
 30
0.0
 11
-45.28264856731485
 21
-18.32603866036304
 31
0.0
  0
LINE
  5
3AA
330
1F
100
AcDbEntity
  8
0
100
AcDbLine
 10
-34.8826493993148
 20
-25.12603811636307
 30
0.0
 11
-34.8826493993148
 21
-18.32603866036304
 31
0.0
  0
LINE
  5
3AB
330
1F
100
AcDbEntity
  8
0
100
AcDbLine
 10
-45.28264856731485
 20
-18.32603866036304
 30
0.0
 11
-45.28264856731485
 21
-25.12603811636307
 31
0.0
  0
LINE
  5
3AC
330
1F
100
AcDbEntity
  8
0
100
AcDbLine
 10
-22.52222950870927
 20
53.36329202233838
 30
0.0
 11
-22.52222950870927
 21
67.9632908543384
 31
0.0
  0
LINE
  5
3AD
330
1F
100
AcDbEntity
  8
0
100
AcDbLine
 10
-60.11227154041117
 20
22.22847677323206
 30
0.0
 11
-59.7263820434464
 21
22.38831743645225
 31
0.0
  0
LINE
  5
3AE
330
1F
100
AcDbEntity
  8
0
100
AcDbLine
 10
-59.7263820434464
 20
22.38831743645225
 30
0.0
 11
-59.39501122005754
 21
22.64258721226728
 31
0.0
  0
LINE
  5
3AF
330
1F
100
AcDbEntity
  8
0
100
AcDbLine
 10
-59.39501122005754
 20
22.64258721226728
 30
0.0
 11
-59.14074144424252
 21
22.97395803565614
 31
0.0
  0
LINE
  5
3B0
330
1F
100
AcDbEntity
  8
0
100
AcDbLine
 10
-59.14074144424252
 20
22.97395803565614
 30
0.0
 11
-58.98090078102251
 21
23.35984753262074
 31
0.0
  0
LINE
  5
3B1
330
1F
100
AcDbEntity
  8
0
100
AcDbLine
 10
-58.98090078102251
 20
23.35984753262074
 30
0.0
 11
-58.92638210744639
 21
23.77395797165596
 31
0.0
  0
LINE
  5
3B2
330
1F
100
AcDbEntity
  8
0
100
AcDbLine
 10
-58.92638210744639
 20
23.77395797165596
 30
0.0
 11
-58.98090078102251
 21
24.18806841069136
 31
0.0
  0
LINE
  5
3B3
330
1F
100
AcDbEntity
  8
0
100
AcDbLine
 10
-90.14073896424306
 20
22.97395803565595
 30
0.0
 11
-89.9808983010225
 21
23.35984753262074
 31
0.0
  0
LINE
  5
3B4
330
1F
100
AcDbEntity
  8
0
100
AcDbLine
 10
-89.9808983010225
 20
23.35984753262074
 30
0.0
 11
-89.92637962744658
 21
23.77395797165596
 31
0.0
  0
LINE
  5
3B5
330
1F
100
AcDbEntity
  8
0
100
AcDbLine
 10
-89.92637962744658
 20
23.77395797165596
 30
0.0
 11
-89.9808983010225
 21
24.18806841069118
 31
0.0
  0
LINE
  5
3B6
330
1F
100
AcDbEntity
  8
0
100
AcDbLine
 10
-21.52222958870931
 20
52.36329210233833
 30
0.0
 11
-21.78104861310632
 21
52.39736627332341
 31
0.0
  0
LINE
  5
3B7
330
1F
100
AcDbEntity
  8
0
100
AcDbLine
 10
-21.78104861310632
 20
52.39736627332341
 30
0.0
 11
-22.02222954870938
 21
52.49726668783593
 31
0.0
  0
LINE
  5
3B8
330
1F
100
AcDbEntity
  8
0
100
AcDbLine
 10
-5.616777459399506
 20
-9.964705816589982
 30
0.0
 11
-6.082651703314127
 21
-10.02603932436297
 31
0.0
  0
LINE
  5
3B9
330
1F
100
AcDbEntity
  8
0
100
AcDbLine
 10
-4.523806101209913
 20
-9.126039396362993
 30
0.0
 11
-4.809859599001735
 21
-9.498831572675405
 31
0.0
  0
LINE
  5
3BA
330
1F
100
AcDbEntity
  8
0
100
AcDbLine
 10
-7.821318051541144
 20
24.20808365572246
 30
0.0
 11
-7.882651559314091
 21
24.67395789963708
 31
0.0
  0
LINE
  5
3BB
330
1F
100
AcDbEntity
  8
0
100
AcDbLine
 10
-68.11202201865053
 20
22.97395803565614
 30
0.0
 11
-67.85775224283532
 21
22.64258721226728
 31
0.0
  0
LINE
  5
3BC
330
1F
100
AcDbEntity
  8
0
100
AcDbLine
 10
-67.85775224283532
 20
22.64258721226728
 30
0.0
 11
-67.52638141944666
 21
22.38831743645225
 31
0.0
  0
LINE
  5
3BD
330
1F
100
AcDbEntity
  8
0
100
AcDbLine
 10
-67.52638141944666
 20
22.38831743645225
 30
0.0
 11
-67.14049192248169
 21
22.22847677323206
 31
0.0
  0
LINE
  5
3BE
330
1F
100
AcDbEntity
  8
0
100
AcDbLine
 10
-67.14049192248169
 20
22.22847677323206
 30
0.0
 11
-66.72638148344647
 21
22.17395809965613
 31
0.0
  0
LINE
  5
3BF
330
1F
100
AcDbEntity
  8
0
100
AcDbLine
 10
-66.72638148344647
 20
22.17395809965613
 30
0.0
 11
-60.5263819794464
 21
22.17395809965613
 31
0.0
  0
LINE
  5
3C0
330
1F
100
AcDbEntity
  8
0
100
AcDbLine
 10
-60.5263819794464
 20
22.17395809965613
 30
0.0
 11
-60.11227154041117
 21
22.22847677323206
 31
0.0
  0
LINE
  5
3C1
330
1F
100
AcDbEntity
  8
0
100
AcDbLine
 10
-37.15113386929931
 20
89.12921498735352
 30
0.0
 11
-36.90995293369626
 21
89.02931457284099
 31
0.0
  0
LINE
  5
3C2
330
1F
100
AcDbEntity
  8
0
100
AcDbLine
 10
-36.90995293369626
 20
89.02931457284099
 30
0.0
 11
-36.70284616907828
 21
88.87039596295651
 31
0.0
  0
LINE
  5
3C3
330
1F
100
AcDbEntity
  8
0
100
AcDbLine
 10
-36.70284616907828
 20
88.87039596295651
 30
0.0
 11
-36.54392755919397
 21
88.66328919833852
 31
0.0
  0
LINE
  5
3C4
330
1F
100
AcDbEntity
  8
0
100
AcDbLine
 10
-36.54392755919397
 20
88.66328919833852
 30
0.0
 11
-36.44402714468126
 21
88.42210826273555
 31
0.0
  0
LINE
  5
3C5
330
1F
100
AcDbEntity
  8
0
100
AcDbLine
 10
-36.40995297369637
 20
88.16328923833855
 30
0.0
 11
-36.40995297369637
 21
82.56328968633852
 31
0.0
  0
LINE
  5
3C6
330
1F
100
AcDbEntity
  8
0
100
AcDbLine
 10
-7.821318051541144
 20
-7.760165224448435
 30
0.0
 11
-7.641497305418342
 21
-7.32603954036303
 31
0.0
  0
LINE
  5
3C7
330
1F
100
AcDbEntity
  8
0
100
AcDbLine
 10
-106.6826436553152
 20
48.17395601963739
 30
0.0
 11
-106.6826436553152
 21
-29.85460257730504
 31
0.0
  0
LINE
  5
3C8
330
1F
100
AcDbEntity
  8
0
100
AcDbLine
 10
-46.35472920106677
 20
-14.78031561425269
 30
0.0
 11
-46.54412301389372
 21
-15.21035118717846
 31
0.0
  0
LINE
  5
3C9
330
1F
100
AcDbEntity
  8
0
100
AcDbLine
 10
-5.616777459399506
 20
-6.487373120136041
 30
0.0
 11
-5.182651775314146
 21
-6.667193866258706
 31
0.0
  0
LINE
  5
3CA
330
1F
100
AcDbEntity
  8
0
100
AcDbLine
 10
-37.40995289369634
 20
89.1632891583386
 30
0.0
 11
-45.40995225369655
 21
89.1632891583386
 31
0.0
  0
LINE
  5
3CB
330
1F
100
AcDbEntity
  8
0
100
AcDbLine
 10
-37.40995289369634
 20
89.1632891583386
 30
0.0
 11
-37.15113386929931
 21
89.12921498735352
 31
0.0
  0
LINE
  5
3CC
330
1F
100
AcDbEntity
  8
0
100
AcDbLine
 10
-68.27186268187054
 20
23.35984753262074
 30
0.0
 11
-68.11202201865053
 21
22.97395803565614
 31
0.0
  0
LINE
  5
3CD
330
1F
100
AcDbEntity
  8
0
100
AcDbLine
 10
-99.27186020187072
 20
23.35984753262092
 30
0.0
 11
-99.11201953865073
 21
22.97395803565614
 31
0.0
  0
LINE
  5
3CE
330
1F
100
AcDbEntity
  8
0
100
AcDbLine
 10
-99.32637887544685
 20
23.77395797165596
 30
0.0
 11
-99.27186020187072
 21
23.35984753262092
 31
0.0
  0
LINE
  5
3CF
330
1F
100
AcDbEntity
  8
0
100
AcDbLine
 10
-99.27186020187072
 20
24.18806841069136
 30
0.0
 11
-99.32637887544685
 21
23.77395797165596
 31
0.0
  0
LINE
  5
3D0
330
1F
100
AcDbEntity
  8
0
100
AcDbLine
 10
-99.11201953865056
 20
24.57395790765596
 30
0.0
 11
-99.27186020187072
 21
24.18806841069136
 31
0.0
  0
LINE
  5
3D1
330
1F
100
AcDbEntity
  8
0
100
AcDbLine
 10
-98.85774976283552
 20
24.90532873104481
 30
0.0
 11
-99.11201953865056
 21
24.57395790765596
 31
0.0
  0
LINE
  5
3D2
330
1F
100
AcDbEntity
  8
0
100
AcDbLine
 10
-98.52637893944666
 20
25.15959850685984
 30
0.0
 11
-98.85774976283552
 21
24.90532873104481
 31
0.0
  0
LINE
  5
3D3
330
1F
100
AcDbEntity
  8
0
100
AcDbLine
 10
-98.14048944248188
 20
25.31943917008021
 30
0.0
 11
-98.52637893944666
 21
25.15959850685984
 31
0.0
  0
LINE
  5
3D4
330
1F
100
AcDbEntity
  8
0
100
AcDbLine
 10
-48.85110625159268
 20
62.56329128633833
 30
0.0
 11
-49.13715974938449
 21
62.19049911002592
 31
0.0
  0
LINE
  5
3D5
330
1F
100
AcDbEntity
  8
0
100
AcDbLine
 10
-48.85110625159268
 20
64.36329114233848
 30
0.0
 11
-48.67128550547005
 21
63.92916545825303
 31
0.0
  0
LINE
  5
3D6
330
1F
100
AcDbEntity
  8
0
100
AcDbLine
 10
-49.13715974938449
 20
62.19049911002592
 30
0.0
 11
-49.50995192569709
 21
61.90444561223401
 31
0.0
  0
LINE
  5
3D7
330
1F
100
AcDbEntity
  8
0
100
AcDbLine
 10
-50.40995185369707
 20
61.66329135833836
 30
0.0
 11
-50.87582609761169
 21
61.7246248661113
 31
0.0
  0
LINE
  5
3D8
330
1F
100
AcDbEntity
  8
0
100
AcDbLine
 10
-49.50995192569709
 20
65.0221368164428
 30
0.0
 11
-49.13715974938449
 21
64.73608331865088
 31
0.0
  0
LINE
  5
3D9
330
1F
100
AcDbEntity
  8
0
100
AcDbLine
 10
-99.66876695809425
 20
89.12921498735352
 30
0.0
 11
-99.40994793369725
 21
89.1632891583386
 31
0.0
  0
LINE
  5
3DA
330
1F
100
AcDbEntity
  8
0
100
AcDbLine
 10
-99.90994789369732
 20
89.02931457284099
 30
0.0
 11
-99.66876695809425
 21
89.12921498735352
 31
0.0
  0
LINE
  5
3DB
330
1F
100
AcDbEntity
  8
0
100
AcDbLine
 10
-100.1170546583153
 20
88.87039596295651
 30
0.0
 11
-99.90994789369732
 21
89.02931457284099
 31
0.0
  0
LINE
  5
3DC
330
1F
100
AcDbEntity
  8
0
100
AcDbLine
 10
-1.85111001159241
 20
62.56329128633833
 30
0.0
 11
-2.137163509384231
 21
62.19049911002592
 31
0.0
  0
LINE
  5
3DD
330
1F
100
AcDbEntity
  8
0
100
AcDbLine
 10
-1.67128926546961
 20
63.92916545825303
 30
0.0
 11
-1.609955757696661
 21
63.4632912143384
 31
0.0
  0
LINE
  5
3DE
330
1F
100
AcDbEntity
  8
0
100
AcDbLine
 10
-1.67128926546961
 20
62.99741697042379
 30
0.0
 11
-1.85111001159241
 21
62.56329128633833
 31
0.0
  0
LINE
  5
3DF
330
1F
100
AcDbEntity
  8
0
100
AcDbLine
 10
-46.3340881554976
 20
-13.84879578525822
 30
0.0
 11
-46.2830902222625
 21
-14.31591442235645
 31
0.0
  0
LINE
  5
3E0
330
1F
100
AcDbEntity
  8
0
100
AcDbLine
 10
-5.616777459399506
 20
22.93529155141015
 30
0.0
 11
-6.082651703314127
 21
22.87395804363712
 31
0.0
  0
LINE
  5
3E1
330
1F
100
AcDbEntity
  8
0
100
AcDbLine
 10
-45.28264856731485
 20
-25.12603811636307
 30
0.0
 11
-34.8826493993148
 21
-25.12603811636307
 31
0.0
  0
LINE
  5
3E2
330
1F
100
AcDbEntity
  8
0
100
AcDbLine
 10
1.917347656685549
 20
48.17395601963739
 30
0.0
 11
-106.6826436553152
 21
48.17395601963739
 31
0.0
  0
LINE
  5
3E3
330
1F
100
AcDbEntity
  8
0
100
AcDbLine
 10
-43.30010981673806
 20
-3.926039812362653
 30
0.0
 11
-43.30010981673806
 21
-10.22603930836271
 31
0.0
  0
LINE
  5
3E4
330
1F
100
AcDbEntity
  8
0
100
AcDbLine
 10
-23.13165226840614
 20
-3.926039812363014
 30
0.0
 11
-43.30010981673806
 21
-3.926039812362653
 31
0.0
  0
LINE
  5
3E5
330
1F
100
AcDbEntity
  8
0
100
AcDbLine
 10
-23.13165226840614
 20
-10.22603930836298
 30
0.0
 11
-23.13165226840614
 21
-3.926039812363014
 31
0.0
  0
LINE
  5
3E6
330
1F
100
AcDbEntity
  8
0
100
AcDbLine
 10
-23.13165226840542
 20
20.37395824363704
 30
0.0
 11
-43.3001098167377
 21
20.3739582436374
 31
0.0
  0
LINE
  5
3E7
330
1F
100
AcDbEntity
  8
0
100
AcDbLine
 10
-16.28265088731458
 20
-25.12603811636307
 30
0.0
 11
-16.28265088731458
 21
-18.32603866036304
 31
0.0
  0
LINE
  5
3E8
330
1F
100
AcDbEntity
  8
0
100
AcDbLine
 10
-5.882651719314172
 20
-18.32603866036304
 30
0.0
 11
-16.28265088731458
 21
-18.32603866036304
 31
0.0
  0
LINE
  5
3E9
330
1F
100
AcDbEntity
  8
0
100
AcDbLine
 10
-5.882651719314172
 20
-25.12603811636307
 30
0.0
 11
-5.882651719314172
 21
-18.32603866036304
 31
0.0
  0
LINE
  5
3EA
330
1F
100
AcDbEntity
  8
0
100
AcDbLine
 10
-16.28265088731458
 20
-25.12603811636307
 30
0.0
 11
-5.882651719314172
 21
-25.12603811636307
 31
0.0
  0
LINE
  5
3EB
330
1F
100
AcDbEntity
  8
0
100
AcDbLine
 10
-16.28265088731458
 20
34.77395709163729
 30
0.0
 11
-16.28265088731458
 21
41.57395654763732
 31
0.0
  0
LINE
  5
3EC
330
1F
100
AcDbEntity
  8
0
100
AcDbLine
 10
-5.882651719314172
 20
41.57395654763732
 30
0.0
 11
-16.28265088731458
 21
41.57395654763732
 31
0.0
  0
LINE
  5
3ED
330
1F
100
AcDbEntity
  8
0
100
AcDbLine
 10
-5.882651719314172
 20
34.77395709163729
 30
0.0
 11
-5.882651719314172
 21
41.57395654763732
 31
0.0
  0
LINE
  5
3EE
330
1F
100
AcDbEntity
  8
0
100
AcDbLine
 10
-16.28265088731458
 20
34.77395709163729
 30
0.0
 11
-5.882651719314172
 21
34.77395709163729
 31
0.0
  0
LINE
  5
3EF
330
1F
100
AcDbEntity
  8
0
100
AcDbLine
 10
-4.523806101209913
 20
23.7739579716371
 30
0.0
 11
-4.809859599001735
 21
23.40116579532469
 31
0.0
  0
LINE
  5
3F0
330
1F
100
AcDbEntity
  8
0
100
AcDbLine
 10
-4.809859599001735
 20
23.40116579532469
 30
0.0
 11
-5.182651775314146
 21
23.11511229753278
 31
0.0
  0
LINE
  5
3F1
330
1F
100
AcDbEntity
  8
0
100
AcDbLine
 10
-5.182651775314146
 20
23.11511229753278
 30
0.0
 11
-5.616777459399506
 21
22.93529155141015
 31
0.0
  0
LINE
  5
3F2
330
1F
100
AcDbEntity
  8
0
100
AcDbLine
 10
-6.082651703314127
 20
22.87395804363712
 30
0.0
 11
-6.54852594722875
 21
22.93529155141015
 31
0.0
  0
LINE
  5
3F3
330
1F
100
AcDbEntity
  8
0
100
AcDbLine
 10
-6.54852594722875
 20
22.93529155141015
 30
0.0
 11
-6.98265163131411
 21
23.11511229753278
 31
0.0
  0
LINE
  5
3F4
330
1F
100
AcDbEntity
  8
0
100
AcDbLine
 10
-6.98265163131411
 20
23.11511229753278
 30
0.0
 11
-7.355443807626521
 21
23.40116579532469
 31
0.0
  0
LINE
  5
3F5
330
1F
100
AcDbEntity
  8
0
100
AcDbLine
 10
-7.355443807626521
 20
23.40116579532469
 30
0.0
 11
-7.641497305418342
 21
23.7739579716371
 31
0.0
  0
LINE
  5
3F6
330
1F
100
AcDbEntity
  8
0
100
AcDbLine
 10
-7.641497305418342
 20
23.7739579716371
 30
0.0
 11
-7.821318051541144
 21
24.20808365572246
 31
0.0
  0
LINE
  5
3F7
330
1F
100
AcDbEntity
  8
0
100
AcDbLine
 10
-7.882651559314091
 20
24.67395789963708
 30
0.0
 11
-7.821318051541144
 21
25.1398321435517
 31
0.0
  0
LINE
  5
3F8
330
1F
100
AcDbEntity
  8
0
100
AcDbLine
 10
-7.821318051541144
 20
25.1398321435517
 30
0.0
 11
-7.641497305418342
 21
25.57395782763706
 31
0.0
  0
LINE
  5
3F9
330
1F
100
AcDbEntity
  8
0
100
AcDbLine
 10
-7.641497305418342
 20
25.57395782763706
 30
0.0
 11
-7.355443807626521
 21
25.94675000394948
 31
0.0
  0
LINE
  5
3FA
330
1F
100
AcDbEntity
  8
0
100
AcDbLine
 10
-7.355443807626521
 20
25.94675000394948
 30
0.0
 11
-6.98265163131411
 21
26.23280350174138
 31
0.0
  0
LINE
  5
3FB
330
1F
100
AcDbEntity
  8
0
100
AcDbLine
 10
-6.98265163131411
 20
26.23280350174138
 30
0.0
 11
-6.54852594722875
 21
26.41262424786401
 31
0.0
  0
LINE
  5
3FC
330
1F
100
AcDbEntity
  8
0
100
AcDbLine
 10
-6.54852594722875
 20
26.41262424786401
 30
0.0
 11
-6.082651703314127
 21
26.47395775563704
 31
0.0
  0
LINE
  5
3FD
330
1F
100
AcDbEntity
  8
0
100
AcDbLine
 10
-6.082651703314127
 20
26.47395775563704
 30
0.0
 11
-5.616777459399506
 21
26.41262424786401
 31
0.0
  0
LINE
  5
3FE
330
1F
100
AcDbEntity
  8
0
100
AcDbLine
 10
-47.14833614049343
 20
29.18543208621993
 30
0.0
 11
-47.57837171341848
 21
28.99603827339136
 31
0.0
  0
LINE
  5
3FF
330
1F
100
AcDbEntity
  8
0
100
AcDbLine
 10
-47.57837171341848
 20
28.99603827339136
 30
0.0
 11
-48.04277290531439
 21
28.92439929458537
 31
0.0
  0
LINE
  5
400
330
1F
100
AcDbEntity
  8
0
100
AcDbLine
 10
-48.04277290531439
 20
28.92439929458537
 30
0.0
 11
-48.50989154241277
 21
28.97539722781875
 31
0.0
  0
LINE
  5
401
330
1F
100
AcDbEntity
  8
0
100
AcDbLine
 10
-48.50989154241277
 20
28.97539722781875
 30
0.0
 11
-48.94789426154534
 21
29.14555664821955
 31
0.0
  0
LINE
  5
402
330
1F
100
AcDbEntity
  8
0
100
AcDbLine
 10
-48.94789426154534
 20
29.14555664821955
 30
0.0
 11
-49.3269319012371
 21
29.42328147248935
 31
0.0
  0
LINE
  5
403
330
1F
100
AcDbEntity
  8
0
100
AcDbLine
 10
-49.3269319012371
 20
29.42328147248935
 30
0.0
 11
-49.62117367273222
 21
29.78964521281603
 31
0.0
  0
LINE
  5
404
330
1F
100
AcDbEntity
  8
0
100
AcDbLine
 10
-49.62117367273222
 20
29.78964521281603
 30
0.0
 11
-49.81056748556097
 21
30.21968078574107
 31
0.0
  0
LINE
  5
405
330
1F
100
AcDbEntity
  8
0
100
AcDbLine
 10
-49.81056748556097
 20
30.21968078574107
 30
0.0
 11
-49.88220646436687
 21
30.68408197763708
 31
0.0
  0
LINE
  5
406
330
1F
100
AcDbEntity
  8
0
100
AcDbLine
 10
-49.88220646436687
 20
30.68408197763708
 30
0.0
 11
-49.83120853113358
 21
31.15120061473545
 31
0.0
  0
LINE
  5
407
330
1F
100
AcDbEntity
  8
0
100
AcDbLine
 10
-59.72638204344658
 20
-5.840399013140035
 30
0.0
 11
-60.11227154041117
 21
-5.680558349920209
 31
0.0
  0
LINE
  5
408
330
1F
100
AcDbEntity
  8
0
100
AcDbLine
 10
-59.39501122005772
 20
-6.094668788955157
 30
0.0
 11
-59.72638204344658
 21
-5.840399013140035
 31
0.0
  0
LINE
  5
409
330
1F
100
AcDbEntity
  8
0
100
AcDbLine
 10
-59.14074144424269
 20
-6.426039612344098
 30
0.0
 11
-59.39501122005772
 21
-6.094668788955157
 31
0.0
  0
LINE
  5
40A
330
1F
100
AcDbEntity
  8
0
100
AcDbLine
 10
-58.98090078102251
 20
-6.811929109309063
 30
0.0
 11
-59.14074144424269
 21
-6.426039612344098
 31
0.0
  0
LINE
  5
40B
330
1F
100
AcDbEntity
  8
0
100
AcDbLine
 10
-58.92638210744639
 20
-7.226039548343921
 30
0.0
 11
-58.98090078102251
 21
-6.811929109309063
 31
0.0
  0
LINE
  5
40C
330
1F
100
AcDbEntity
  8
0
100
AcDbLine
 10
-58.98090078102251
 20
-7.640149987379051
 30
0.0
 11
-58.92638210744639
 21
-7.226039548343921
 31
0.0
  0
LINE
  5
40D
330
1F
100
AcDbEntity
  8
0
100
AcDbLine
 10
-59.14074144424269
 20
-8.026039484343924
 30
0.0
 11
-58.98090078102251
 21
-7.640149987379051
 31
0.0
  0
LINE
  5
40E
330
1F
100
AcDbEntity
  8
0
100
AcDbLine
 10
-59.39501122005772
 20
-8.357410307732776
 30
0.0
 11
-59.14074144424269
 21
-8.026039484343924
 31
0.0
  0
LINE
  5
40F
330
1F
100
AcDbEntity
  8
0
100
AcDbLine
 10
-59.72638204344658
 20
-8.611680083547808
 30
0.0
 11
-59.39501122005772
 21
-8.357410307732776
 31
0.0
  0
LINE
  5
410
330
1F
100
AcDbEntity
  8
0
100
AcDbLine
 10
-60.11227154041117
 20
-8.771520746768175
 30
0.0
 11
-59.72638204344658
 21
-8.611680083547808
 31
0.0
  0
LINE
  5
411
330
1F
100
AcDbEntity
  8
0
100
AcDbLine
 10
-60.5263819794464
 20
-8.82603942034411
 30
0.0
 11
-60.11227154041117
 21
-8.771520746768175
 31
0.0
  0
LINE
  5
412
330
1F
100
AcDbEntity
  8
0
100
AcDbLine
 10
-66.72638148344647
 20
-8.82603942034411
 30
0.0
 11
-60.5263819794464
 21
-8.82603942034411
 31
0.0
  0
LINE
  5
413
330
1F
100
AcDbEntity
  8
0
100
AcDbLine
 10
-67.14049192248169
 20
-8.771520746767994
 30
0.0
 11
-66.72638148344647
 21
-8.82603942034411
 31
0.0
  0
LINE
  5
414
330
1F
100
AcDbEntity
  8
0
100
AcDbLine
 10
-67.52638141944648
 20
-8.611680083547808
 30
0.0
 11
-67.14049192248169
 21
-8.771520746767994
 31
0.0
  0
LINE
  5
415
330
1F
100
AcDbEntity
  8
0
100
AcDbLine
 10
-67.85775224283515
 20
-8.357410307732776
 30
0.0
 11
-67.52638141944648
 21
-8.611680083547808
 31
0.0
  0
LINE
  5
416
330
1F
100
AcDbEntity
  8
0
100
AcDbLine
 10
-68.52638133944662
 20
21.26433922919228
 30
0.0
 11
-72.14409537349158
 21
22.76284544688126
 31
0.0
  0
LINE
  5
417
330
1F
100
AcDbEntity
  8
0
100
AcDbLine
 10
-58.98090078102251
 20
24.18806841069136
 30
0.0
 11
-59.14074144424252
 21
24.57395790765614
 31
0.0
  0
LINE
  5
418
330
1F
100
AcDbEntity
  8
0
100
AcDbLine
 10
-68.32638135544649
 20
23.77395797165596
 30
0.0
 11
-68.27186268187054
 21
23.35984753262074
 31
0.0
  0
LINE
  5
419
330
1F
100
AcDbEntity
  8
0
100
AcDbLine
 10
-68.27186268187037
 20
24.18806841069118
 30
0.0
 11
-68.32638135544649
 21
23.77395797165596
 31
0.0
  0
LINE
  5
41A
330
1F
100
AcDbEntity
  8
0
100
AcDbLine
 10
-68.11202201865036
 20
24.57395790765596
 30
0.0
 11
-68.27186268187037
 21
24.18806841069118
 31
0.0
  0
LINE
  5
41B
330
1F
100
AcDbEntity
  8
0
100
AcDbLine
 10
-67.8577522428355
 20
24.90532873104481
 30
0.0
 11
-68.11202201865036
 21
24.57395790765596
 31
0.0
  0
LINE
  5
41C
330
1F
100
AcDbEntity
  8
0
100
AcDbLine
 10
-67.52638141944666
 20
25.15959850685984
 30
0.0
 11
-67.8577522428355
 21
24.90532873104481
 31
0.0
  0
LINE
  5
41D
330
1F
100
AcDbEntity
  8
0
100
AcDbLine
 10
-67.14049192248187
 20
25.31943917008003
 30
0.0
 11
-67.52638141944666
 21
25.15959850685984
 31
0.0
  0
LINE
  5
41E
330
1F
100
AcDbEntity
  8
0
100
AcDbLine
 10
-66.72638148344647
 20
25.37395784365615
 30
0.0
 11
-67.14049192248187
 21
25.31943917008003
 31
0.0
  0
LINE
  5
41F
330
1F
100
AcDbEntity
  8
0
100
AcDbLine
 10
-66.72638148344647
 20
25.37395784365615
 30
0.0
 11
-60.5263819794464
 21
25.37395784365615
 31
0.0
  0
LINE
  5
420
330
1F
100
AcDbEntity
  8
0
100
AcDbLine
 10
-60.11227154041136
 20
25.31943917008003
 30
0.0
 11
-60.5263819794464
 21
25.37395784365615
 31
0.0
  0
LINE
  5
421
330
1F
100
AcDbEntity
  8
0
100
AcDbLine
 10
-59.72638204344658
 20
25.15959850686002
 30
0.0
 11
-60.11227154041136
 21
25.31943917008003
 31
0.0
  0
LINE
  5
422
330
1F
100
AcDbEntity
  8
0
100
AcDbLine
 10
-59.39501122005736
 20
24.90532873104481
 30
0.0
 11
-59.72638204344658
 21
25.15959850686002
 31
0.0
  0
LINE
  5
423
330
1F
100
AcDbEntity
  8
0
100
AcDbLine
 10
-59.14074144424252
 20
24.57395790765614
 30
0.0
 11
-59.39501122005736
 21
24.90532873104481
 31
0.0
  0
LINE
  5
424
330
1F
100
AcDbEntity
  8
0
100
AcDbLine
 10
29.91713044814764
 20
-71.4825596348035
 30
0.0
 11
29.75821183826316
 21
-71.27545287018552
 31
0.0
  0
LINE
  5
425
330
1F
100
AcDbEntity
  8
0
100
AcDbLine
 10
30.12423721276563
 20
-71.64147824468797
 30
0.0
 11
29.91713044814764
 21
-71.4825596348035
 31
0.0
  0
LINE
  5
426
330
1F
100
AcDbEntity
  8
0
100
AcDbLine
 10
30.36541814836851
 20
-71.7413786592005
 30
0.0
 11
30.12423721276563
 21
-71.64147824468797
 31
0.0
  0
LINE
  5
427
330
1F
100
AcDbEntity
  8
0
100
AcDbLine
 10
30.6242371727657
 20
-71.77545283018557
 30
0.0
 11
30.36541814836851
 21
-71.7413786592005
 31
0.0
  0
LINE
  5
428
330
1F
100
AcDbEntity
  8
0
100
AcDbLine
 10
30.6242371727657
 20
-71.77545283018557
 30
0.0
 11
35.52423678076552
 21
-71.77545283018557
 31
0.0
  0
LINE
  5
429
330
1F
100
AcDbEntity
  8
0
100
AcDbLine
 10
35.78305580516253
 20
-71.7413786592005
 30
0.0
 11
35.52423678076552
 21
-71.77545283018557
 31
0.0
  0
LINE
  5
42A
330
1F
100
AcDbEntity
  8
0
100
AcDbLine
 10
13.42424354487945
 20
-70.77545291018554
 30
0.0
 11
13.39016937389437
 21
-71.03427193458253
 31
0.0
  0
LINE
  5
42B
330
1F
100
AcDbEntity
  8
0
100
AcDbLine
 10
13.42424354487945
 20
-70.77545291018554
 30
0.0
 11
13.42424354487945
 21
-66.7754532301855
 31
0.0
  0
LINE
  5
42C
330
1F
100
AcDbEntity
  8
0
100
AcDbLine
 10
13.42424354487945
 20
-66.7754532301855
 30
0.0
 11
29.62423725276556
 21
-66.7754532301855
 31
0.0
  0
LINE
  5
42D
330
1F
100
AcDbEntity
  8
0
100
AcDbLine
 10
29.62423725276556
 20
-66.7754532301855
 30
0.0
 11
29.62423725276556
 21
-70.77545291018554
 31
0.0
  0
LINE
  5
42E
330
1F
100
AcDbEntity
  8
0
100
AcDbLine
 10
29.65831142375063
 20
-71.03427193458253
 30
0.0
 11
29.62423725276556
 21
-70.77545291018554
 31
0.0
  0
LINE
  5
42F
330
1F
100
AcDbEntity
  8
0
100
AcDbLine
 10
29.75821183826316
 20
-71.27545287018552
 30
0.0
 11
29.65831142375063
 21
-71.03427193458253
 31
0.0
  0
LINE
  5
430
330
1F
100
AcDbEntity
  8
0
100
AcDbLine
 10
13.13135034949754
 20
-71.4825596348035
 30
0.0
 11
12.92424358487955
 21
-71.64147824468797
 31
0.0
  0
LINE
  5
431
330
1F
100
AcDbEntity
  8
0
100
AcDbLine
 10
13.29026895938203
 20
-71.27545287018552
 30
0.0
 11
13.13135034949754
 21
-71.4825596348035
 31
0.0
  0
LINE
  5
432
330
1F
100
AcDbEntity
  8
0
100
AcDbLine
 10
13.39016937389437
 20
-71.03427193458253
 30
0.0
 11
13.29026895938203
 21
-71.27545287018552
 31
0.0
  0
LINE
  5
433
330
1F
100
AcDbEntity
  8
0
100
AcDbLine
 10
6.848673131815469
 20
-71.4825596348035
 30
0.0
 11
6.689754521930984
 21
-71.27545287018552
 31
0.0
  0
LINE
  5
434
330
1F
100
AcDbEntity
  8
0
100
AcDbLine
 10
7.055779896433456
 20
-71.64147824468797
 30
0.0
 11
6.848673131815469
 21
-71.4825596348035
 31
0.0
  0
LINE
  5
435
330
1F
100
AcDbEntity
  8
0
100
AcDbLine
 10
7.296960832036332
 20
-71.7413786592005
 30
0.0
 11
7.055779896433456
 21
-71.64147824468797
 31
0.0
  0
LINE
  5
436
330
1F
100
AcDbEntity
  8
0
100
AcDbLine
 10
36.52423670076548
 20
-70.77545291018554
 30
0.0
 11
36.49016252978041
 21
-71.03427193458253
 31
0.0
  0
LINE
  5
437
330
1F
100
AcDbEntity
  8
0
100
AcDbLine
 10
11.55577953643336
 20
-55.27545415018552
 30
0.0
 11
11.58985370741843
 21
-55.01663512578851
 31
0.0
  0
LINE
  5
438
330
1F
100
AcDbEntity
  8
0
100
AcDbLine
 10
11.55577953643336
 20
-59.2754538301855
 30
0.0
 11
11.55577953643336
 21
-55.27545415018552
 31
0.0
  0
LINE
  5
439
330
1F
100
AcDbEntity
  8
0
100
AcDbLine
 10
6.555779936433385
 20
-59.2754538301855
 30
0.0
 11
11.55577953643336
 21
-59.2754538301855
 31
0.0
  0
LINE
  5
43A
330
1F
100
AcDbEntity
  8
0
100
AcDbLine
 10
6.555779936433385
 20
-59.2754538301855
 30
0.0
 11
6.555779936433385
 21
-70.77545291018554
 31
0.0
  0
LINE
  5
43B
330
1F
100
AcDbEntity
  8
0
100
AcDbLine
 10
6.589854107418457
 20
-71.03427193458253
 30
0.0
 11
6.555779936433385
 21
-70.77545291018554
 31
0.0
  0
LINE
  5
43C
330
1F
100
AcDbEntity
  8
0
100
AcDbLine
 10
6.689754521930984
 20
-71.27545287018552
 30
0.0
 11
6.589854107418457
 21
-71.03427193458253
 31
0.0
  0
LINE
  5
43D
330
1F
100
AcDbEntity
  8
0
100
AcDbLine
 10
12.5557794564335
 20
-54.27545423018557
 30
0.0
 11
30.52423718076536
 21
-54.27545423018557
 31
0.0
  0
LINE
  5
43E
330
1F
100
AcDbEntity
  8
0
100
AcDbLine
 10
12.29696043203649
 20
-54.30952840117063
 30
0.0
 11
12.5557794564335
 21
-54.27545423018557
 31
0.0
  0
LINE
  5
43F
330
1F
100
AcDbEntity
  8
0
100
AcDbLine
 10
12.05577949643361
 20
-54.40942881568316
 30
0.0
 11
12.29696043203649
 21
-54.30952840117063
 31
0.0
  0
LINE
  5
440
330
1F
100
AcDbEntity
  8
0
100
AcDbLine
 10
11.84867273181563
 20
-54.56834742556764
 30
0.0
 11
12.05577949643361
 21
-54.40942881568316
 31
0.0
  0
LINE
  5
441
330
1F
100
AcDbEntity
  8
0
100
AcDbLine
 10
11.68975412193114
 20
-54.77545419018564
 30
0.0
 11
11.84867273181563
 21
-54.56834742556764
 31
0.0
  0
LINE
  5
442
330
1F
100
AcDbEntity
  8
0
100
AcDbLine
 10
11.58985370741843
 20
-55.01663512578851
 30
0.0
 11
11.68975412193114
 21
-54.77545419018564
 31
0.0
  0
LINE
  5
443
330
1F
100
AcDbEntity
  8
0
100
AcDbLine
 10
31.39026251526791
 20
-54.77545419018564
 30
0.0
 11
31.23134390538342
 21
-54.56834742556764
 31
0.0
  0
LINE
  5
444
330
1F
100
AcDbEntity
  8
0
100
AcDbLine
 10
31.23134390538342
 20
-54.56834742556764
 30
0.0
 11
31.02423714076543
 21
-54.40942881568316
 31
0.0
  0
LINE
  5
445
330
1F
100
AcDbEntity
  8
0
100
AcDbLine
 10
31.02423714076543
 20
-54.40942881568316
 30
0.0
 11
30.78305620516256
 21
-54.30952840117063
 31
0.0
  0
LINE
  5
446
330
1F
100
AcDbEntity
  8
0
100
AcDbLine
 10
36.49016252978041
 20
-71.03427193458253
 30
0.0
 11
36.39026211526807
 21
-71.27545287018552
 31
0.0
  0
LINE
  5
447
330
1F
100
AcDbEntity
  8
0
100
AcDbLine
 10
30.78305620516256
 20
-54.30952840117063
 30
0.0
 11
30.52423718076536
 21
-54.27545423018557
 31
0.0
  0
LINE
  5
448
330
1F
100
AcDbEntity
  8
0
100
AcDbLine
 10
7.555779856433526
 20
-71.77545283018557
 30
0.0
 11
7.296960832036332
 21
-71.7413786592005
 31
0.0
  0
LINE
  5
449
330
1F
100
AcDbEntity
  8
0
100
AcDbLine
 10
7.555779856433526
 20
-71.77545283018557
 30
0.0
 11
12.42424362487949
 21
-71.77545283018557
 31
0.0
  0
LINE
  5
44A
330
1F
100
AcDbEntity
  8
0
100
AcDbLine
 10
31.5242371007655
 20
-55.27545415018552
 30
0.0
 11
31.49016292978043
 21
-55.01663512578851
 31
0.0
  0
LINE
  5
44B
330
1F
100
AcDbEntity
  8
0
100
AcDbLine
 10
12.6830626492765
 20
-71.7413786592005
 30
0.0
 11
12.42424362487949
 21
-71.77545283018557
 31
0.0
  0
LINE
  5
44C
330
1F
100
AcDbEntity
  8
0
100
AcDbLine
 10
12.92424358487955
 20
-71.64147824468797
 30
0.0
 11
12.6830626492765
 21
-71.7413786592005
 31
0.0
  0
LINE
  5
44D
330
1F
100
AcDbEntity
  8
0
100
AcDbLine
 10
31.49016292978043
 20
-55.01663512578851
 30
0.0
 11
31.39026251526791
 21
-54.77545419018564
 31
0.0
  0
LINE
  5
44E
330
1F
100
AcDbEntity
  8
0
100
AcDbLine
 10
36.52423670076548
 20
-70.77545291018554
 30
0.0
 11
36.52423670076548
 21
-59.2754538301855
 31
0.0
  0
LINE
  5
44F
330
1F
100
AcDbEntity
  8
0
100
AcDbLine
 10
31.5242371007655
 20
-59.2754538301855
 30
0.0
 11
36.52423670076548
 21
-59.2754538301855
 31
0.0
  0
LINE
  5
450
330
1F
100
AcDbEntity
  8
0
100
AcDbLine
 10
31.5242371007655
 20
-55.27545415018552
 30
0.0
 11
31.5242371007655
 21
-59.2754538301855
 31
0.0
  0
LINE
  5
451
330
1F
100
AcDbEntity
  8
0
100
AcDbLine
 10
36.02423674076559
 20
-71.64147824468797
 30
0.0
 11
35.78305580516253
 21
-71.7413786592005
 31
0.0
  0
LINE
  5
452
330
1F
100
AcDbEntity
  8
0
100
AcDbLine
 10
36.23134350538358
 20
-71.4825596348035
 30
0.0
 11
36.02423674076559
 21
-71.64147824468797
 31
0.0
  0
LINE
  5
453
330
1F
100
AcDbEntity
  8
0
100
AcDbLine
 10
36.39026211526807
 20
-71.27545287018552
 30
0.0
 11
36.23134350538358
 21
-71.4825596348035
 31
0.0
  0
LINE
  5
454
330
1F
100
AcDbEntity
  8
0
100
AcDbLine
 10
90.36150014519092
 20
8.248517203500041
 30
0.0
 11
90.36519256068411
 21
8.22047052333177
 31
0.0
  0
LINE
  5
455
330
1F
100
AcDbEntity
  8
0
100
AcDbLine
 10
90.36519256068411
 20
8.22047052333177
 30
0.0
 11
90.36150014519092
 21
8.1924238431635
 31
0.0
  0
ENDSEC
  0
SECTION
  2
OBJECTS
  0
DICTIONARY
  5
C
330
0
100
AcDbDictionary
281
     1
  3
ACAD_GROUP
350
D
  3
ACAD_LAYOUT
350
1A
  3
ACAD_MATERIAL
350
3B
  3
ACAD_MLEADERSTYLE
350
457
  3
ACAD_MLINESTYLE
350
17
  3
ACAD_PLOTSETTINGS
350
19
  3
ACAD_PLOTSTYLENAME
350
E
  3
ACAD_TABLESTYLE
350
456
  3
ACAD_VISUALSTYLE
350
2A
  0
DICTIONARY
  5
D
102
{ACAD_REACTORS
330
C
102
}
330
C
100
AcDbDictionary
281
     1
  0
DICTIONARY
  5
1A
102
{ACAD_REACTORS
330
C
102
}
330
C
100
AcDbDictionary
281
     1
  3
Layout1
350
1E
  3
Layout2
350
26
  3
Model
350
22
  0
DICTIONARY
  5
3B
102
{ACAD_REACTORS
330
C
102
}
330
C
100
AcDbDictionary
281
     1
  3
ByBlock
350
3D
  3
ByLayer
350
3C
  3
Global
350
3E
  0
DICTIONARY
  5
457
102
{ACAD_REACTORS
330
C
102
}
330
C
100
AcDbDictionary
281
     1
  0
DICTIONARY
  5
17
102
{ACAD_REACTORS
330
C
102
}
330
C
100
AcDbDictionary
281
     1
  3
Standard
350
18
  0
DICTIONARY
  5
19
102
{ACAD_REACTORS
330
C
102
}
330
C
100
AcDbDictionary
281
     1
  0
ACDBDICTIONARYWDFLT
  5
E
102
{ACAD_REACTORS
330
C
102
}
330
C
100
AcDbDictionary
281
     1
  3
Normal
350
F
100
AcDbDictionaryWithDefault
340
F
  0
DICTIONARY
  5
456
102
{ACAD_REACTORS
330
C
102
}
330
C
100
AcDbDictionary
281
     1
  0
DICTIONARY
  5
2A
102
{ACAD_REACTORS
330
C
102
}
330
C
100
AcDbDictionary
281
     1
  3
2dWireframe
350
2F
  3
3D Hidden
350
31
  3
3dWireframe
350
30
  3
Basic
350
32
  3
Brighten
350
36
  3
ColorChange
350
3A
  3
Conceptual
350
34
  3
Dim
350
35
  3
Facepattern
350
39
  3
Flat
350
2B
  3
FlatWithEdges
350
2C
  3
Gouraud
350
2D
  3
GouraudWithEdges
350
2E
  3
Linepattern
350
38
  3
Realistic
350
33
  3
Thicken
350
37
  0
LAYOUT
  5
1E
102
{ACAD_REACTORS
330
1A
102
}
330
1A
100
AcDbPlotSettings
  1

  2
none_device
  4

  6

 40
0.0
 41
0.0
 42
0.0
 43
0.0
 44
0.0
 45
0.0
 46
0.0
 47
0.0
 48
0.0
 49
0.0
140
0.0
141
0.0
142
1.0
143
1.0
 70
   688
 72
     0
 73
     0
 74
     5
  7

 75
    16
 76
     0
 77
     2
 78
   300
147
1.0
148
0.0
149
0.0
100
AcDbLayout
  1
Layout1
 70
     1
 71
     1
 10
0.0
 20
0.0
 11
12.0
 21
9.0
 12
0.0
 22
0.0
 32
0.0
 14
1.000000000000000E+20
 24
1.000000000000000E+20
 34
1.000000000000000E+20
 15
-1.000000000000000E+20
 25
-1.000000000000000E+20
 35
-1.000000000000000E+20
146
0.0
 13
0.0
 23
0.0
 33
0.0
 16
1.0
 26
0.0
 36
0.0
 17
0.0
 27
1.0
 37
0.0
 76
     0
330
1B
  0
LAYOUT
  5
26
102
{ACAD_REACTORS
330
1A
102
}
330
1A
100
AcDbPlotSettings
  1

  2
none_device
  4

  6

 40
0.0
 41
0.0
 42
0.0
 43
0.0
 44
0.0
 45
0.0
 46
0.0
 47
0.0
 48
0.0
 49
0.0
140
0.0
141
0.0
142
1.0
143
1.0
 70
   688
 72
     0
 73
     0
 74
     5
  7

 75
    16
 76
     0
 77
     2
 78
   300
147
1.0
148
0.0
149
0.0
100
AcDbLayout
  1
Layout2
 70
     1
 71
     2
 10
0.0
 20
0.0
 11
0.0
 21
0.0
 12
0.0
 22
0.0
 32
0.0
 14
0.0
 24
0.0
 34
0.0
 15
0.0
 25
0.0
 35
0.0
146
0.0
 13
0.0
 23
0.0
 33
0.0
 16
1.0
 26
0.0
 36
0.0
 17
0.0
 27
1.0
 37
0.0
 76
     0
330
23
  0
LAYOUT
  5
22
102
{ACAD_REACTORS
330
1A
102
}
330
1A
100
AcDbPlotSettings
  1

  2
none_device
  4

  6

 40
0.0
 41
0.0
 42
0.0
 43
0.0
 44
0.0
 45
0.0
 46
0.0
 47
0.0
 48
0.0
 49
0.0
140
0.0
141
0.0
142
1.0
143
1.0
 70
  1712
 72
     0
 73
     0
 74
     0
  7

 75
     0
 76
     0
 77
     2
 78
   300
147
1.0
148
0.0
149
0.0
100
AcDbLayout
  1
Model
 70
     1
 71
     0
 10
0.0
 20
0.0
 11
12.0
 21
9.0
 12
0.0
 22
0.0
 32
0.0
 14
1.000000000000000E+20
 24
1.000000000000000E+20
 34
1.000000000000000E+20
 15
-1.000000000000000E+20
 25
-1.000000000000000E+20
 35
-1.000000000000000E+20
146
0.0
 13
0.0
 23
0.0
 33
0.0
 16
1.0
 26
0.0
 36
0.0
 17
0.0
 27
1.0
 37
0.0
 76
     0
330
1F
331
29
  0
MATERIAL
  5
3D
102
{ACAD_REACTORS
330
3B
102
}
330
3B
100
AcDbMaterial
  1
ByBlock
 72
     1
 94
      127
  0
MATERIAL
  5
3C
102
{ACAD_REACTORS
330
3B
102
}
330
3B
100
AcDbMaterial
  1
ByLayer
 72
     1
 94
      127
  0
MATERIAL
  5
3E
102
{ACAD_REACTORS
330
3B
102
}
330
3B
100
AcDbMaterial
  1
Global
 72
     1
 94
      127
  0
MLINESTYLE
  5
18
102
{ACAD_REACTORS
330
17
102
}
330
17
100
AcDbMlineStyle
  2
Standard
 70
     0
  3

 62
   256
 51
90.0
 52
90.0
 71
     2
 49
0.5
 62
   256
  6
BYLAYER
 49
-0.5
 62
   256
  6
BYLAYER
  0
ACDBPLACEHOLDER
  5
F
102
{ACAD_REACTORS
330
E
102
}
330
E
  0
VISUALSTYLE
  5
2F
102
{ACAD_REACTORS
330
2A
102
}
330
2A
100
AcDbVisualStyle
  2
2dWireframe
 70
     4
177
     2
291
     0
 71
     0
176
     1
 72
     2
176
     1
 73
     0
176
     1
 90
        0
176
     1
 40
-0.6
176
     1
 41
-30.0
176
     1
 62
     5
 63
     7
421
 16777215
176
     1
 74
     1
176
     1
 91
        4
176
     1
 64
     7
176
     1
 65
   257
176
     1
 75
     1
176
     1
175
     1
176
     1
 42
1.0
176
     1
 92
        0
176
     1
 66
   257
176
     1
 43
1.0
176
     1
 76
     1
176
     1
 77
     6
176
     1
 78
     2
176
     1
 67
     7
176
     1
 79
     5
176
     1
170
     0
176
     1
171
     0
176
     1
290
     0
176
     1
 93
        1
176
     1
 44
0.0
176
     1
173
     0
176
     1
  0
VISUALSTYLE
  5
31
102
{ACAD_REACTORS
330
2A
102
}
330
2A
100
AcDbVisualStyle
  2
3D Hidden
 70
     6
177
     2
291
     0
 71
     1
176
     1
 72
     2
176
     1
 73
     2
176
     1
 90
        0
176
     1
 40
-0.6
176
     1
 41
-30.0
176
     1
 62
     5
 63
     7
421
 16777215
176
     1
 74
     2
176
     1
 91
        2
176
     1
 64
     7
176
     1
 65
   257
176
     1
 75
     2
176
     1
175
     1
176
     1
 42
40.0
176
     1
 92
        0
176
     1
 66
   257
176
     1
 43
1.0
176
     1
 76
     1
176
     1
 77
     6
176
     1
 78
     2
176
     1
 67
     7
176
     1
 79
     3
176
     1
170
     0
176
     1
171
     0
176
     1
290
     0
176
     1
 93
        1
176
     1
 44
0.0
176
     1
173
     0
176
     1
  0
VISUALSTYLE
  5
30
102
{ACAD_REACTORS
330
2A
102
}
330
2A
100
AcDbVisualStyle
  2
3dWireframe
 70
     5
177
     2
291
     0
 71
     0
176
     1
 72
     2
176
     1
 73
     0
176
     1
 90
        0
176
     1
 40
-0.6
176
     1
 41
-30.0
176
     1
 62
     5
 63
     7
421
 16777215
176
     1
 74
     1
176
     1
 91
        4
176
     1
 64
     7
176
     1
 65
   257
176
     1
 75
     1
176
     1
175
     1
176
     1
 42
1.0
176
     1
 92
        0
176
     1
 66
   257
176
     1
 43
1.0
176
     1
 76
     1
176
     1
 77
     6
176
     1
 78
     2
176
     1
 67
     7
176
     1
 79
     5
176
     1
170
     0
176
     1
171
     0
176
     1
290
     0
176
     1
 93
        1
176
     1
 44
0.0
176
     1
173
     0
176
     1
  0
VISUALSTYLE
  5
32
102
{ACAD_REACTORS
330
2A
102
}
330
2A
100
AcDbVisualStyle
  2
Basic
 70
     7
177
     2
291
     1
 71
     1
176
     1
 72
     0
176
     1
 73
     1
176
     1
 90
        0
176
     1
 40
-0.6
176
     1
 41
-30.0
176
     1
 62
     5
 63
     7
421
 16777215
176
     1
 74
     0
176
     1
 91
        4
176
     1
 64
     7
176
     1
 65
   257
176
     1
 75
     1
176
     1
175
     1
176
     1
 42
1.0
176
     1
 92
        8
176
     1
 66
     7
176
     1
 43
1.0
176
     1
 76
     1
176
     1
 77
     6
176
     1
 78
     2
176
     1
 67
     7
176
     1
 79
     5
176
     1
170
     0
176
     1
171
     0
176
     1
290
     0
176
     1
 93
        1
176
     1
 44
0.0
176
     1
173
     0
176
     1
  0
VISUALSTYLE
  5
36
102
{ACAD_REACTORS
330
2A
102
}
330
2A
100
AcDbVisualStyle
  2
Brighten
 70
    12
177
     2
291
     1
 71
     2
176
     1
 72
     2
176
     1
 73
     0
176
     1
 90
        0
176
     1
 40
-0.6
176
     1
 41
-30.0
176
     1
 62
     5
 63
     7
421
 16777215
176
     1
 74
     1
176
     1
 91
        4
176
     1
 64
     7
176
     1
 65
   257
176
     1
 75
     1
176
     1
175
     1
176
     1
 42
1.0
176
     1
 92
        8
176
     1
 66
     7
176
     1
 43
1.0
176
     1
 76
     1
176
     1
 77
     6
176
     1
 78
     2
176
     1
 67
     7
176
     1
 79
     5
176
     1
170
     0
176
     1
171
     0
176
     1
290
     0
176
     1
 93
        1
176
     1
 44
50.0
176
     1
173
     0
176
     1
  0
VISUALSTYLE
  5
3A
102
{ACAD_REACTORS
330
2A
102
}
330
2A
100
AcDbVisualStyle
  2
ColorChange
 70
    16
177
     2
291
     1
 71
     2
176
     1
 72
     2
176
     1
 73
     3
176
     1
 90
        0
176
     1
 40
-0.6
176
     1
 41
-30.0
176
     1
 62
     5
 63
     8
421
  8421504
176
     1
 74
     1
176
     1
 91
        4
176
     1
 64
     7
176
     1
 65
   257
176
     1
 75
     1
176
     1
175
     1
176
     1
 42
1.0
176
     1
 92
        8
176
     1
 66
     8
424
  8421504
176
     1
 43
1.0
176
     1
 76
     1
176
     1
 77
     6
176
     1
 78
     2
176
     1
 67
     7
176
     1
 79
     5
176
     1
170
     0
176
     1
171
     0
176
     1
290
     0
176
     1
 93
        1
176
     1
 44
0.0
176
     1
173
     0
176
     1
  0
VISUALSTYLE
  5
34
102
{ACAD_REACTORS
330
2A
102
}
330
2A
100
AcDbVisualStyle
  2
Conceptual
 70
     9
177
     2
291
     0
 71
     3
176
     1
 72
     2
176
     1
 73
     0
176
     1
 90
        0
176
     1
 40
-0.6
176
     1
 41
-30.0
176
     1
 62
     5
 63
     7
421
 16777215
176
     1
 74
     2
176
     1
 91
        2
176
     1
 64
     7
176
     1
 65
   257
176
     1
 75
     1
176
     1
175
     1
176
     1
 42
40.0
176
     1
 92
        8
176
     1
 66
     7
176
     1
 43
1.0
176
     1
 76
     1
176
     1
 77
     6
176
     1
 78
     2
176
     1
 67
     7
176
     1
 79
     3
176
     1
170
     0
176
     1
171
     0
176
     1
290
     0
176
     1
 93
        1
176
     1
 44
0.0
176
     1
173
     0
176
     1
  0
VISUALSTYLE
  5
35
102
{ACAD_REACTORS
330
2A
102
}
330
2A
100
AcDbVisualStyle
  2
Dim
 70
    11
177
     2
291
     1
 71
     2
176
     1
 72
     2
176
     1
 73
     0
176
     1
 90
        0
176
     1
 40
-0.6
176
     1
 41
-30.0
176
     1
 62
     5
 63
     7
421
 16777215
176
     1
 74
     1
176
     1
 91
        4
176
     1
 64
     7
176
     1
 65
   257
176
     1
 75
     1
176
     1
175
     1
176
     1
 42
1.0
176
     1
 92
        8
176
     1
 66
     7
176
     1
 43
1.0
176
     1
 76
     1
176
     1
 77
     6
176
     1
 78
     2
176
     1
 67
     7
176
     1
 79
     5
176
     1
170
     0
176
     1
171
     0
176
     1
290
     0
176
     1
 93
        1
176
     1
 44
-50.0
176
     1
173
     0
176
     1
  0
VISUALSTYLE
  5
39
102
{ACAD_REACTORS
330
2A
102
}
330
2A
100
AcDbVisualStyle
  2
Facepattern
 70
    15
177
     2
291
     1
 71
     2
176
     1
 72
     2
176
     1
 73
     0
176
     1
 90
        0
176
     1
 40
-0.6
176
     1
 41
-30.0
176
     1
 62
     5
 63
     7
421
 16777215
176
     1
 74
     1
176
     1
 91
        4
176
     1
 64
     7
176
     1
 65
   257
176
     1
 75
     1
176
     1
175
     1
176
     1
 42
1.0
176
     1
 92
        8
176
     1
 66
     7
176
     1
 43
1.0
176
     1
 76
     1
176
     1
 77
     6
176
     1
 78
     2
176
     1
 67
     7
176
     1
 79
     5
176
     1
170
     0
176
     1
171
     0
176
     1
290
     0
176
     1
 93
        1
176
     1
 44
0.0
176
     1
173
     0
176
     1
  0
VISUALSTYLE
  5
2B
102
{ACAD_REACTORS
330
2A
102
}
330
2A
100
AcDbVisualStyle
  2
Flat
 70
     0
177
     2
291
     1
 71
     2
176
     1
 72
     1
176
     1
 73
     1
176
     1
 90
        2
176
     1
 40
-0.6
176
     1
 41
30.0
176
     1
 62
     5
 63
     7
421
 16777215
176
     1
 74
     0
176
     1
 91
        4
176
     1
 64
     7
176
     1
 65
   257
176
     1
 75
     1
176
     1
175
     1
176
     1
 42
1.0
176
     1
 92
        8
176
     1
 66
     7
176
     1
 43
1.0
176
     1
 76
     1
176
     1
 77
     6
176
     1
 78
     2
176
     1
 67
     7
176
     1
 79
     5
176
     1
170
     0
176
     1
171
     0
176
     1
290
     0
176
     1
 93
       13
176
     1
 44
0.0
176
     1
173
     0
176
     1
  0
VISUALSTYLE
  5
2C
102
{ACAD_REACTORS
330
2A
102
}
330
2A
100
AcDbVisualStyle
  2
FlatWithEdges
 70
     1
177
     2
291
     1
 71
     2
176
     1
 72
     1
176
     1
 73
     1
176
     1
 90
        2
176
     1
 40
-0.6
176
     1
 41
30.0
176
     1
 62
     5
 63
     7
421
 16777215
176
     1
 74
     1
176
     1
 91
        4
176
     1
 64
     7
176
     1
 65
   257
176
     1
 75
     1
176
     1
175
     1
176
     1
 42
1.0
176
     1
 92
        0
176
     1
 66
   257
176
     1
 43
1.0
176
     1
 76
     1
176
     1
 77
     6
176
     1
 78
     2
176
     1
 67
     7
176
     1
 79
     5
176
     1
170
     0
176
     1
171
     0
176
     1
290
     0
176
     1
 93
       13
176
     1
 44
0.0
176
     1
173
     0
176
     1
  0
VISUALSTYLE
  5
2D
102
{ACAD_REACTORS
330
2A
102
}
330
2A
100
AcDbVisualStyle
  2
Gouraud
 70
     2
177
     2
291
     1
 71
     2
176
     1
 72
     2
176
     1
 73
     1
176
     1
 90
        2
176
     1
 40
-0.6
176
     1
 41
30.0
176
     1
 62
     5
 63
     7
421
 16777215
176
     1
 74
     0
176
     1
 91
        4
176
     1
 64
     7
176
     1
 65
   257
176
     1
 75
     1
176
     1
175
     1
176
     1
 42
1.0
176
     1
 92
        0
176
     1
 66
     7
176
     1
 43
1.0
176
     1
 76
     1
176
     1
 77
     6
176
     1
 78
     2
176
     1
 67
     7
176
     1
 79
     5
176
     1
170
     0
176
     1
171
     0
176
     1
290
     0
176
     1
 93
       13
176
     1
 44
0.0
176
     1
173
     0
176
     1
  0
VISUALSTYLE
  5
2E
102
{ACAD_REACTORS
330
2A
102
}
330
2A
100
AcDbVisualStyle
  2
GouraudWithEdges
 70
     3
177
     2
291
     1
 71
     2
176
     1
 72
     2
176
     1
 73
     1
176
     1
 90
        2
176
     1
 40
-0.6
176
     1
 41
30.0
176
     1
 62
     5
 63
     7
421
 16777215
176
     1
 74
     1
176
     1
 91
        4
176
     1
 64
     7
176
     1
 65
   257
176
     1
 75
     1
176
     1
175
     1
176
     1
 42
1.0
176
     1
 92
        0
176
     1
 66
   257
176
     1
 43
1.0
176
     1
 76
     1
176
     1
 77
     6
176
     1
 78
     2
176
     1
 67
     7
176
     1
 79
     5
176
     1
170
     0
176
     1
171
     0
176
     1
290
     0
176
     1
 93
       13
176
     1
 44
0.0
176
     1
173
     0
176
     1
  0
VISUALSTYLE
  5
38
102
{ACAD_REACTORS
330
2A
102
}
330
2A
100
AcDbVisualStyle
  2
Linepattern
 70
    14
177
     2
291
     1
 71
     2
176
     1
 72
     2
176
     1
 73
     0
176
     1
 90
        0
176
     1
 40
-0.6
176
     1
 41
-30.0
176
     1
 62
     5
 63
     7
421
 16777215
176
     1
 74
     1
176
     1
 91
        4
176
     1
 64
     7
176
     1
 65
   257
176
     1
 75
     7
176
     1
175
     7
176
     1
 42
1.0
176
     1
 92
        8
176
     1
 66
     7
176
     1
 43
1.0
176
     1
 76
     1
176
     1
 77
     6
176
     1
 78
     2
176
     1
 67
     7
176
     1
 79
     5
176
     1
170
     0
176
     1
171
     0
176
     1
290
     0
176
     1
 93
        1
176
     1
 44
0.0
176
     1
173
     0
176
     1
  0
VISUALSTYLE
  5
33
102
{ACAD_REACTORS
330
2A
102
}
330
2A
100
AcDbVisualStyle
  2
Realistic
 70
     8
177
     2
291
     0
 71
     2
176
     1
 72
     2
176
     1
 73
     0
176
     1
 90
        0
176
     1
 40
-0.6
176
     1
 41
-30.0
176
     1
 62
     5
 63
     7
421
 16777215
176
     1
 74
     1
176
     1
 91
        0
176
     1
 64
     7
176
     1
 65
   257
176
     1
 75
     1
176
     1
175
     1
176
     1
 42
1.0
176
     1
 92
        8
176
     1
 66
     8
424
  7895160
176
     1
 43
1.0
176
     1
 76
     1
176
     1
 77
     6
176
     1
 78
     2
176
     1
 67
     7
176
     1
 79
     5
176
     1
170
     0
176
     1
171
     0
176
     1
290
     0
176
     1
 93
       13
176
     1
 44
0.0
176
     1
173
     0
176
     1
  0
VISUALSTYLE
  5
37
102
{ACAD_REACTORS
330
2A
102
}
330
2A
100
AcDbVisualStyle
  2
Thicken
 70
    13
177
     2
291
     1
 71
     2
176
     1
 72
     2
176
     1
 73
     0
176
     1
 90
        0
176
     1
 40
-0.6
176
     1
 41
-30.0
176
     1
 62
     5
 63
     7
421
 16777215
176
     1
 74
     1
176
     1
 91
        4
176
     1
 64
     7
176
     1
 65
   257
176
     1
 75
     1
176
     1
175
     1
176
     1
 42
1.0
176
     1
 92
       12
176
     1
 66
     7
176
     1
 43
1.0
176
     1
 76
     1
176
     1
 77
     6
176
     1
 78
     2
176
     1
 67
     7
176
     1
 79
     5
176
     1
170
     0
176
     1
171
     0
176
     1
290
     0
176
     1
 93
        1
176
     1
 44
0.0
176
     1
173
     0
176
     1
  0
ENDSEC
  0
EOF
